# seagull baked rest-pose, fwd=+Z up=+Y wingspan=1
v 0.040983 0.054235 -0.040972
v 0.033179 0.108941 0.086281
v 0.069695 0.116163 0.095844
v 0.238707 0.135007 0.111590
v 0.328913 0.057345 -0.059811
v 0.203127 0.080533 -0.030619
v -0.042921 0.054235 -0.040972
v -0.079749 0.057448 -0.045733
v -0.072415 0.116163 0.095844
v -0.104317 0.125055 0.095636
v -0.238707 0.135007 0.111589
v -0.175783 0.145670 0.127325
v -0.203127 0.080533 -0.030620
v -0.024876 0.026426 -0.078048
v -0.049100 -0.013206 -0.134713
v -0.067998 -0.013206 -0.103746
v -0.012182 0.027802 -0.087678
v -0.021471 -0.004264 -0.151242
v 0.000000 0.032592 -0.088559
v 0.000000 -0.001861 -0.157119
v 0.012182 0.027802 -0.087678
v 0.021471 -0.004264 -0.151242
v 0.024876 0.026426 -0.078048
v 0.049100 -0.013206 -0.134713
v 0.030305 0.029461 -0.058000
v 0.067999 -0.013206 -0.103746
v 0.077812 0.057448 -0.045733
v 0.101596 0.125055 0.095636
v 0.120580 0.072132 -0.033535
v 0.175783 0.145670 0.127325
v 0.104463 0.075985 -0.033535
v 0.301630 0.129695 0.092085
v 0.402470 0.044334 -0.085320
v 0.316239 0.066593 -0.059811
v -0.099963 0.125055 0.095636
v -0.106676 0.075985 -0.033535
v -0.301630 0.129695 0.092084
v -0.238707 0.135007 0.111589
v -0.316239 0.066593 -0.059812
v -0.030305 0.029461 -0.058000
v -0.097620 -0.043584 -0.149917
v -0.073324 -0.043722 -0.191378
v -0.030760 -0.046973 -0.214806
v 0.000000 -0.046973 -0.217931
v 0.030761 -0.046973 -0.214806
v 0.073324 -0.043722 -0.191378
v 0.097620 -0.043584 -0.149917
v 0.099963 0.125055 0.095636
v 0.400038 0.085500 0.024134
v 0.500000 0.020695 -0.116733
v 0.238707 0.135007 0.111590
v -0.035899 0.108941 0.086280
v -0.122517 0.072132 -0.033535
v -0.324711 0.057345 -0.059812
v -0.402470 0.044334 -0.085321
v -0.500000 0.020695 -0.116734
v -0.400038 0.085500 0.024133
vt 0.335938 0.006348
vt 0.001778 0.158203
vt 0.039124 0.239258
vt 0.161621 0.644043
vt 0.654785 0.632568
vt 0.462402 0.414551
vt 0.335938 0.006348
vt 0.380371 0.085449
vt 0.039124 0.239258
vt 0.066284 0.314453
vt 0.161621 0.644043
vt 0.060394 0.520996
vt 0.462402 0.414551
vt 0.781738 0.424316
vt 0.844727 0.259766
vt 0.900879 0.326660
vt 0.748535 0.404785
vt 0.769531 0.234375
vt 0.717285 0.408203
vt 0.717285 0.225098
vt 0.685547 0.404785
vt 0.664551 0.234375
vt 0.652344 0.424316
vt 0.589355 0.259766
vt 0.616699 0.471680
vt 0.533203 0.326660
vt 0.380371 0.085449
vt 0.066284 0.314453
vt 0.386719 0.199707
vt 0.060394 0.520996
vt 0.386719 0.199707
vt 0.272949 0.762939
vt 0.812500 0.794922
vt 0.654785 0.632568
vt 0.066284 0.314453
vt 0.386719 0.199707
vt 0.272949 0.762939
vt 0.161621 0.644043
vt 0.654785 0.632568
vt 0.817383 0.471680
vt 0.970215 0.192871
vt 0.896973 0.103027
vt 0.791992 0.050781
vt 0.717285 0.044434
vt 0.642090 0.050781
vt 0.537109 0.103027
vt 0.463867 0.192871
vt 0.066284 0.314453
vt 0.549316 0.906555
vt 0.994629 0.975983
vt 0.161621 0.644043
vt 0.001778 0.158203
vt 0.386719 0.199707
vt 0.654785 0.632568
vt 0.812500 0.794922
vt 0.994629 0.975983
vt 0.549316 0.906555
vn -0.104401 0.914090 -0.391841
vn -0.076663 0.914285 -0.397750
vn -0.151349 0.908299 -0.389982
vn 0.076941 0.924482 -0.373381
vn 0.083301 0.923447 -0.374576
vn 0.038554 0.924893 -0.378267
vn 0.104465 0.914304 -0.391326
vn 0.190157 0.901579 -0.388580
vn 0.151437 0.908597 -0.389253
vn 0.219838 0.894397 -0.389519
vn -0.078567 0.924220 -0.373689
vn 0.026003 0.926858 -0.374511
vn -0.039392 0.924756 -0.378517
vn -0.506737 0.796474 -0.329921
vn -0.461458 0.832946 -0.305382
vn -0.506731 0.810707 -0.293222
vn -0.371996 0.842994 -0.388562
vn -0.278175 0.844824 -0.457046
vn 0.000001 0.893520 -0.449022
vn 0.000001 0.866136 -0.499808
vn 0.371997 0.842994 -0.388561
vn 0.278176 0.844824 -0.457046
vn 0.506738 0.796473 -0.329919
vn 0.461459 0.832945 -0.305380
vn 0.559307 0.783717 -0.270117
vn 0.506731 0.810706 -0.293221
vn -0.190009 0.901212 -0.389504
vn -0.219539 0.894000 -0.390597
vn -0.195016 0.897193 -0.396250
vn -0.025799 0.926994 -0.374187
vn -0.059143 0.925292 -0.374617
vn 0.096111 0.925046 -0.367496
vn 0.139125 0.924567 -0.354711
vn 0.056595 0.923918 -0.378380
vn 0.102762 0.928087 -0.357902
vn 0.059781 0.925071 -0.375060
vn -0.096109 0.925046 -0.367496
vn 0.042115 0.921221 -0.386753
vn -0.056594 0.923919 -0.378380
vn -0.559306 0.783717 -0.270118
vn -0.448996 0.851957 -0.269391
vn -0.359423 0.853264 -0.377829
vn -0.156896 0.830224 -0.534893
vn 0.000001 0.821650 -0.569992
vn 0.156897 0.830224 -0.534893
vn 0.359424 0.853264 -0.377829
vn 0.448996 0.851957 -0.269390
vn -0.103543 0.928593 -0.356361
vn 0.145771 0.927053 -0.345433
vn 0.113656 0.930752 -0.347538
vn -0.042114 0.921221 -0.386753
vn 0.076798 0.914446 -0.397355
vn 0.195417 0.897540 -0.395265
vn -0.085972 0.922999 -0.375074
vn -0.139123 0.924567 -0.354711
vn -0.113654 0.930752 -0.347538
vn -0.145769 0.927053 -0.345433
f 1/1/1 2/2/2 3/3/3
f 4/4/4 5/5/5 6/6/6
f 7/7/7 8/8/8 9/9/9
f 10/10/10 9/9/9 8/8/8
f 11/11/11 12/12/12 13/13/13
f 14/14/14 15/15/15 16/16/16
f 17/17/17 18/18/18 15/15/15
f 17/17/17 19/19/19 20/20/20
f 21/21/21 22/22/22 20/20/20
f 21/21/21 23/23/23 24/24/24
f 23/23/23 25/25/25 26/26/26
f 3/3/3 27/27/27 1/1/1
f 28/28/28 29/29/29 27/27/27
f 30/30/30 6/6/6 31/31/31
f 32/32/32 33/33/33 34/34/34
f 12/12/12 35/35/35 36/36/36
f 37/37/37 38/38/38 39/39/39
f 16/16/16 40/40/40 14/14/14
f 41/41/41 16/16/16 15/15/15
f 15/15/15 14/14/14 17/17/17
f 15/15/15 42/42/42 41/41/41
f 42/42/42 15/15/15 18/18/18
f 18/18/18 43/43/43 42/42/42
f 44/44/44 43/43/43 18/18/18
f 20/20/20 18/18/18 17/17/17
f 18/18/18 20/20/20 44/44/44
f 20/20/20 19/19/19 21/21/21
f 44/44/44 20/20/20 22/22/22
f 22/22/22 45/45/45 44/44/44
f 46/46/46 45/45/45 22/22/22
f 24/24/24 22/22/22 21/21/21
f 22/22/22 24/24/24 46/46/46
f 47/47/47 46/46/46 24/24/24
f 24/24/24 26/26/26 47/47/47
f 26/26/26 24/24/24 23/23/23
f 31/31/31 48/48/48 30/30/30
f 6/6/6 30/30/30 4/4/4
f 49/49/49 50/50/50 33/33/33
f 33/33/33 32/32/32 49/49/49
f 34/34/34 51/51/51 32/32/32
f 9/9/9 52/52/52 7/7/7
f 8/8/8 53/53/53 10/10/10
f 36/36/36 13/13/13 12/12/12
f 13/13/13 54/54/54 11/11/11
f 55/55/55 56/56/56 57/57/57
f 57/57/57 37/37/37 55/55/55
f 39/39/39 55/55/55 37/37/37
f 27/27/27 3/3/3 28/28/28
