<?xml version="1.0" encoding="utf-8"?>
<COLLADA xmlns="http://www.collada.org/2005/11/COLLADASchema" version="1.4.1">
  <asset>
    <contributor>
      <author/>
      <authoring_tool>FBX COLLADA exporter</authoring_tool>
      <comments/>
    </contributor>
    <created>2024-02-10T11:42:32Z</created>
    <keywords/>
    <modified>2024-02-10T11:42:32Z</modified>
    <revision/>
    <subject/>
    <title/>
    <unit meter="0.010000" name="centimeter"/>
    <up_axis>Y_UP</up_axis>
  </asset>
  <library_materials>
    <material id="MAT_Sea_Shells" name="MAT_Sea_Shells">
      <instance_effect url="#MAT_Sea_Shells-fx"/>
    </material>
  </library_materials>
  <library_effects>
    <effect id="MAT_Sea_Shells-fx" name="MAT_Sea_Shells">
      <profile_COMMON>
        <technique sid="standard">
          <phong>
            <emission>
              <color sid="emission">0.000000  0.000000 0.000000 1.000000</color>
            </emission>
            <ambient>
              <color sid="ambient">0.588235  0.588235 0.588235 1.000000</color>
            </ambient>
            <diffuse>
              <color sid="diffuse">0.588235  0.588235 0.588235 1.000000</color>
            </diffuse>
            <specular>
              <color sid="specular">0.000000  0.000000 0.000000 1.000000</color>
            </specular>
            <shininess>
              <float sid="shininess">2.000000</float>
            </shininess>
            <reflective>
              <color sid="reflective">0.000000  0.000000 0.000000 1.000000</color>
            </reflective>
            <reflectivity>
              <float sid="reflectivity">1.000000</float>
            </reflectivity>
            <transparent opaque="RGB_ZERO">
              <color sid="transparent">1.000000  1.000000 1.000000 1.000000</color>
            </transparent>
            <transparency>
              <float sid="transparency">0.000000</float>
            </transparency>
          </phong>
        </technique>
      </profile_COMMON>
    </effect>
  </library_effects>
  <library_geometries>
    <geometry id="SM_Barnacle_09_LOD0-lib" name="SM_Barnacle_09_LOD0Mesh">
      <mesh>
        <source id="SM_Barnacle_09_LOD0-POSITION">
          <float_array id="SM_Barnacle_09_LOD0-POSITION-array" count="243">
0.092455 4.129425 0.000001
1.902572 3.491119 0.000001
-1.427743 3.556030 0.000001
-2.583173 2.586761 0.000001
-1.966272 2.389526 0.118470
-4.279435 0.855591 0.000001
-4.354081 -0.533569 0.000001
-2.890054 -2.417328 0.000000
-1.291343 -2.737610 0.117098
-1.821664 -3.639526 0.000000
0.133535 -4.129425 0.000001
1.036753 -3.673828 0.000001
2.314190 -3.768494 0.000001
3.592772 -2.600586 0.000001
1.925966 -2.730988 0.136107
2.773505 -1.946533 0.117045
4.079490 -1.526611 0.000001
4.354081 0.459686 0.000001
3.734607 1.235870 0.000002
3.101026 0.345703 0.088754
3.006749 2.455811 0.000001
2.444284 2.253387 0.118456
1.567360 3.165894 0.138499
0.059732 3.746796 0.146673
0.131544 3.285217 0.599687
-1.101483 3.227509 0.138533
-0.903598 3.038483 0.578763
-1.655366 2.326630 0.521373
-3.244616 0.850677 0.097655
-1.971666 -0.079895 0.434497
-3.413892 -0.337128 0.088767
-2.252933 -1.902496 0.097163
-1.027618 -1.905334 0.502383
-0.289460 -3.320343 0.136112
-0.174170 -2.415588 0.548620
0.876847 -3.131470 0.143788
0.762984 -2.486908 0.567053
1.619357 -2.137207 0.548403
2.304473 -1.436523 0.501836
3.253943 -0.813019 0.097126
2.824714 1.347290 0.097644
2.096133 2.177063 0.518670
0.350215 2.212799 1.676080
-0.459521 1.816742 1.648623
-1.915322 0.934692 0.461545
-0.560001 0.986572 1.607495
-1.666092 -1.071350 0.453530
0.376076 -0.178131 1.624834
2.701196 -0.495087 0.453112
1.235850 0.142059 1.600881
2.774833 0.475922 0.434255
1.446231 0.513947 1.588555
1.532635 0.926178 1.589467
2.413539 1.351318 0.461280
1.253631 2.775696 0.574201
0.772600 2.170013 1.663897
1.107742 1.970062 1.637062
1.310140 1.640656 1.607620
0.923947 -0.137695 1.616146
0.740951 0.862640 1.969425
0.162855 0.102295 1.648975
-0.172345 0.254333 1.613599
-0.447315 0.576569 1.605286
-0.411741 1.345917 1.623767
-0.089126 2.092926 1.669632
0.366566 2.614319 1.164530
-0.442843 2.771698 1.187156
-1.084321 2.241791 1.127539
-1.326083 1.128021 1.076899
-1.383867 0.393890 1.038952
-1.167451 -0.312866 1.040633
-0.715934 -0.899170 1.071069
-0.112478 -1.260620 1.108650
0.555156 -1.330963 1.135228
0.988418 -1.156738 1.123864
1.527856 -0.733002 1.087690
1.899102 -0.109039 1.051270
2.065860 0.592621 1.042928
2.040403 1.278961 1.062150
1.708192 2.097504 1.108983
1.113501 2.509216 1.176014
</float_array>
          <technique_common>
            <accessor source="#SM_Barnacle_09_LOD0-POSITION-array" count="81" stride="3">
              <param name="X" type="float"/>
              <param name="Y" type="float"/>
              <param name="Z" type="float"/>
            </accessor>
          </technique_common>
        </source>
        <source id="SM_Barnacle_09_LOD0-Normal0">
          <float_array id="SM_Barnacle_09_LOD0-Normal0-array" count="1296">
-0.021753 0.495739 0.868199
0.162871 0.245091 0.955722
0.001535 0.357816 0.933791
-0.162695 0.250941 0.954232
-0.021753 0.495739 0.868199
0.001535 0.357816 0.933791
-0.303483 0.478326 0.824077
-0.021753 0.495739 0.868199
-0.162695 0.250941 0.954232
-0.146438 0.124565 0.981346
-0.303483 0.478326 0.824077
-0.162695 0.250941 0.954232
-0.394007 0.236904 0.888051
-0.303483 0.478326 0.824077
-0.146438 0.124565 0.981346
-0.164439 0.067362 0.984084
-0.394007 0.236904 0.888051
-0.146438 0.124565 0.981346
-0.094054 0.034048 0.994985
-0.164439 0.067362 0.984084
-0.146438 0.124565 0.981346
-0.148256 -0.033572 0.988379
-0.164439 0.067362 0.984084
-0.094054 0.034048 0.994985
-0.090716 -0.025172 0.995559
-0.148256 -0.033572 0.988379
-0.094054 0.034048 0.994985
-0.186773 -0.146815 0.971371
-0.148256 -0.033572 0.988379
-0.090716 -0.025172 0.995559
-0.090672 -0.074949 0.993057
-0.186773 -0.146815 0.971371
-0.090716 -0.025172 0.995559
-0.170088 -0.208451 0.963130
-0.186773 -0.146815 0.971371
-0.090672 -0.074949 0.993057
-0.074977 -0.101066 0.992050
-0.170088 -0.208451 0.963130
-0.090672 -0.074949 0.993057
-0.055227 -0.272002 0.960711
-0.170088 -0.208451 0.963130
-0.074977 -0.101066 0.992050
0.026580 -0.152310 0.987975
-0.055227 -0.272002 0.960711
-0.074977 -0.101066 0.992050
0.012462 -0.231977 0.972642
-0.055227 -0.272002 0.960711
0.026580 -0.152310 0.987975
0.079236 -0.369845 0.925708
-0.055227 -0.272002 0.960711
0.012462 -0.231977 0.972642
0.059207 -0.127155 0.990114
0.079236 -0.369845 0.925708
0.012462 -0.231977 0.972642
0.172926 -0.258700 0.950353
0.079236 -0.369845 0.925708
0.059207 -0.127155 0.990114
0.095605 -0.065393 0.993269
0.172926 -0.258700 0.950353
0.059207 -0.127155 0.990114
0.245517 -0.154824 0.956949
0.172926 -0.258700 0.950353
0.095605 -0.065393 0.993269
0.101656 -0.027305 0.994445
0.245517 -0.154824 0.956949
0.095605 -0.065393 0.993269
0.279233 -0.038518 0.959450
0.245517 -0.154824 0.956949
0.101656 -0.027305 0.994445
0.076530 0.024066 0.996777
0.279233 -0.038518 0.959450
0.101656 -0.027305 0.994445
0.404387 0.053497 0.913022
0.279233 -0.038518 0.959450
0.076530 0.024066 0.996777
0.093682 0.046811 0.994501
0.404387 0.053497 0.913022
0.076530 0.024066 0.996777
0.404383 0.149261 0.902328
0.404387 0.053497 0.913022
0.093682 0.046811 0.994501
0.162296 0.096367 0.982025
0.404383 0.149261 0.902328
0.093682 0.046811 0.994501
0.409476 0.232233 0.882269
0.404383 0.149261 0.902328
0.162296 0.096367 0.982025
0.257452 0.402343 0.878544
0.409476 0.232233 0.882269
0.162296 0.096367 0.982025
0.162871 0.245091 0.955722
0.257452 0.402343 0.878544
0.162296 0.096367 0.982025
-0.021753 0.495739 0.868199
0.257452 0.402343 0.878544
0.162871 0.245091 0.955722
0.047677 0.742554 0.668087
0.257452 0.402343 0.878544
-0.021753 0.495739 0.868199
-0.303483 0.478326 0.824077
0.047677 0.742554 0.668087
-0.021753 0.495739 0.868199
-0.388260 0.718925 0.576542
0.047677 0.742554 0.668087
-0.303483 0.478326 0.824077
-0.687801 0.356782 0.632168
-0.388260 0.718925 0.576542
-0.303483 0.478326 0.824077
-0.394007 0.236904 0.888051
-0.687801 0.356782 0.632168
-0.303483 0.478326 0.824077
-0.535483 0.086434 0.840111
-0.687801 0.356782 0.632168
-0.394007 0.236904 0.888051
-0.164439 0.067362 0.984084
-0.535483 0.086434 0.840111
-0.394007 0.236904 0.888051
-0.442960 -0.063986 0.894255
-0.535483 0.086434 0.840111
-0.164439 0.067362 0.984084
-0.148256 -0.033572 0.988379
-0.442960 -0.063986 0.894255
-0.164439 0.067362 0.984084
-0.396473 -0.211000 0.893470
-0.442960 -0.063986 0.894255
-0.148256 -0.033572 0.988379
-0.186773 -0.146815 0.971371
-0.396473 -0.211000 0.893470
-0.148256 -0.033572 0.988379
-0.319358 -0.328909 0.888723
-0.396473 -0.211000 0.893470
-0.186773 -0.146815 0.971371
-0.170088 -0.208451 0.963130
-0.319358 -0.328909 0.888723
-0.186773 -0.146815 0.971371
-0.157887 -0.403712 0.901159
-0.319358 -0.328909 0.888723
-0.170088 -0.208451 0.963130
-0.055227 -0.272002 0.960711
-0.157887 -0.403712 0.901159
-0.170088 -0.208451 0.963130
0.092330 -0.464757 0.880611
-0.157887 -0.403712 0.901159
-0.055227 -0.272002 0.960711
0.079236 -0.369845 0.925708
0.092330 -0.464757 0.880611
-0.055227 -0.272002 0.960711
0.172926 -0.258700 0.950353
0.092330 -0.464757 0.880611
0.079236 -0.369845 0.925708
0.287205 -0.394180 0.873004
0.092330 -0.464757 0.880611
0.172926 -0.258700 0.950353
0.245517 -0.154824 0.956949
0.287205 -0.394180 0.873004
0.172926 -0.258700 0.950353
0.429547 -0.249566 0.867874
0.287205 -0.394180 0.873004
0.245517 -0.154824 0.956949
0.279233 -0.038518 0.959450
0.429547 -0.249566 0.867874
0.245517 -0.154824 0.956949
0.553345 -0.086245 0.828475
0.429547 -0.249566 0.867874
0.279233 -0.038518 0.959450
0.404387 0.053497 0.913022
0.553345 -0.086245 0.828475
0.279233 -0.038518 0.959450
0.702038 0.074495 0.708232
0.553345 -0.086245 0.828475
0.404387 0.053497 0.913022
0.404383 0.149261 0.902328
0.702038 0.074495 0.708232
0.404387 0.053497 0.913022
0.712949 0.231527 0.661891
0.702038 0.074495 0.708232
0.404383 0.149261 0.902328
0.409476 0.232233 0.882269
0.712949 0.231527 0.661891
0.404383 0.149261 0.902328
0.663001 0.441443 0.604614
0.712949 0.231527 0.661891
0.409476 0.232233 0.882269
0.257452 0.402343 0.878544
0.663001 0.441443 0.604614
0.409476 0.232233 0.882269
0.378902 0.658872 0.649862
0.663001 0.441443 0.604614
0.257452 0.402343 0.878544
0.047677 0.742554 0.668087
0.378902 0.658872 0.649862
0.257452 0.402343 0.878544
0.193305 0.517939 0.833290
0.104917 0.754240 0.648162
0.028259 0.517294 0.855341
0.104917 0.754240 0.648162
0.193305 0.517939 0.833290
0.360419 0.716002 0.597862
0.047677 0.742554 0.668087
-0.229305 0.647887 0.726403
0.104917 0.754240 0.648162
-0.229305 0.647887 0.726403
0.047677 0.742554 0.668087
-0.388260 0.718925 0.576542
0.104917 0.754240 0.648162
-0.155287 0.391337 0.907051
0.028259 0.517294 0.855341
-0.155287 0.391337 0.907051
0.104917 0.754240 0.648162
-0.229305 0.647887 0.726403
-0.581674 0.319908 0.747873
-0.229305 0.647887 0.726403
-0.388260 0.718925 0.576542
-0.581674 0.319908 0.747873
-0.388260 0.718925 0.576542
-0.687801 0.356782 0.632168
-0.687801 0.356782 0.632168
-0.650896 0.066012 0.756291
-0.581674 0.319908 0.747873
-0.650896 0.066012 0.756291
-0.687801 0.356782 0.632168
-0.535483 0.086434 0.840111
-0.415584 0.008306 0.909517
-0.650896 0.066012 0.756291
-0.434769 -0.006879 0.900516
-0.650896 0.066012 0.756291
-0.617968 -0.063904 0.783601
-0.434769 -0.006879 0.900516
-0.535483 0.086434 0.840111
-0.617968 -0.063904 0.783601
-0.650896 0.066012 0.756291
-0.617968 -0.063904 0.783601
-0.535483 0.086434 0.840111
-0.442960 -0.063986 0.894255
-0.503208 -0.227818 0.833595
-0.367158 -0.162359 0.915879
-0.617968 -0.063904 0.783601
-0.367158 -0.162359 0.915879
-0.434769 -0.006879 0.900516
-0.617968 -0.063904 0.783601
-0.503208 -0.227818 0.833595
-0.442960 -0.063986 0.894255
-0.396473 -0.211000 0.893470
-0.442960 -0.063986 0.894255
-0.503208 -0.227818 0.833595
-0.617968 -0.063904 0.783601
-0.356338 -0.327140 0.875216
-0.278642 -0.250946 0.927030
-0.503208 -0.227818 0.833595
-0.278642 -0.250946 0.927030
-0.367158 -0.162359 0.915879
-0.503208 -0.227818 0.833595
-0.356338 -0.327140 0.875216
-0.396473 -0.211000 0.893470
-0.319358 -0.328909 0.888723
-0.396473 -0.211000 0.893470
-0.356338 -0.327140 0.875216
-0.503208 -0.227818 0.833595
-0.193434 -0.388729 0.900818
-0.319358 -0.328909 0.888723
-0.157887 -0.403712 0.901159
-0.319358 -0.328909 0.888723
-0.193434 -0.388729 0.900818
-0.356338 -0.327140 0.875216
-0.210792 -0.279807 0.936629
-0.193434 -0.388729 0.900818
-0.039467 -0.353443 0.934623
-0.039467 -0.353443 0.934623
-0.193434 -0.388729 0.900818
0.038568 -0.403231 0.914285
-0.157887 -0.403712 0.901159
0.038568 -0.403231 0.914285
-0.193434 -0.388729 0.900818
0.038568 -0.403231 0.914285
-0.157887 -0.403712 0.901159
0.092330 -0.464757 0.880611
0.038568 -0.403231 0.914285
0.092330 -0.464757 0.880611
0.287205 -0.394180 0.873004
0.038568 -0.403231 0.914285
0.287205 -0.394180 0.873004
0.232196 -0.376159 0.896989
0.232196 -0.376159 0.896989
0.429547 -0.249566 0.867874
0.391984 -0.309469 0.866359
0.429547 -0.249566 0.867874
0.232196 -0.376159 0.896989
0.287205 -0.394180 0.873004
0.391984 -0.309469 0.866359
0.556435 -0.192835 0.808205
0.449596 -0.258229 0.855091
0.391984 -0.309469 0.866359
0.449596 -0.258229 0.855091
0.253826 -0.350738 0.901418
0.429547 -0.249566 0.867874
0.553345 -0.086245 0.828475
0.391984 -0.309469 0.866359
0.553345 -0.086245 0.828475
0.556435 -0.192835 0.808205
0.391984 -0.309469 0.866359
0.677491 -0.029568 0.734936
0.548959 -0.146491 0.822912
0.556435 -0.192835 0.808205
0.548959 -0.146491 0.822912
0.449596 -0.258229 0.855091
0.556435 -0.192835 0.808205
0.677491 -0.029568 0.734936
0.556435 -0.192835 0.808205
0.702038 0.074495 0.708232
0.553345 -0.086245 0.828475
0.702038 0.074495 0.708232
0.556435 -0.192835 0.808205
0.727175 0.170933 0.664830
0.580885 0.026358 0.813558
0.677491 -0.029568 0.734936
0.580885 0.026358 0.813558
0.548959 -0.146491 0.822912
0.677491 -0.029568 0.734936
0.677491 -0.029568 0.734936
0.712949 0.231527 0.661891
0.727175 0.170933 0.664830
0.712949 0.231527 0.661891
0.677491 -0.029568 0.734936
0.702038 0.074495 0.708232
0.530694 0.187937 0.826465
0.580885 0.026358 0.813558
0.727175 0.170933 0.664830
0.634081 0.478065 0.607779
0.712949 0.231527 0.661891
0.663001 0.441443 0.604614
0.712949 0.231527 0.661891
0.634081 0.478065 0.607779
0.727175 0.170933 0.664830
0.634081 0.478065 0.607779
0.421659 0.355272 0.834258
0.530694 0.187937 0.826465
0.530694 0.187937 0.826465
0.727175 0.170933 0.664830
0.634081 0.478065 0.607779
0.634081 0.478065 0.607779
0.378902 0.658872 0.649862
0.360419 0.716002 0.597862
0.378902 0.658872 0.649862
0.634081 0.478065 0.607779
0.663001 0.441443 0.604614
0.634081 0.478065 0.607779
0.360419 0.716002 0.597862
0.421659 0.355272 0.834258
0.421659 0.355272 0.834258
0.360419 0.716002 0.597862
0.193305 0.517939 0.833290
0.093393 -0.050072 0.994369
0.193305 0.517939 0.833290
0.028259 0.517294 0.855341
0.093393 -0.050072 0.994369
0.421659 0.355272 0.834258
0.193305 0.517939 0.833290
0.093393 -0.050072 0.994369
0.530694 0.187937 0.826465
0.421659 0.355272 0.834258
0.093393 -0.050072 0.994369
0.580885 0.026358 0.813558
0.530694 0.187937 0.826465
0.093393 -0.050072 0.994369
0.548959 -0.146491 0.822912
0.580885 0.026358 0.813558
0.093393 -0.050072 0.994369
0.449596 -0.258229 0.855091
0.548959 -0.146491 0.822912
0.093393 -0.050072 0.994369
0.253826 -0.350738 0.901418
0.449596 -0.258229 0.855091
0.093393 -0.050072 0.994369
-0.039467 -0.353443 0.934623
0.253826 -0.350738 0.901418
0.093393 -0.050072 0.994369
-0.210792 -0.279807 0.936629
-0.039467 -0.353443 0.934623
0.093393 -0.050072 0.994369
-0.278642 -0.250946 0.927030
-0.210792 -0.279807 0.936629
0.093393 -0.050072 0.994369
-0.367158 -0.162359 0.915879
-0.278642 -0.250946 0.927030
0.093393 -0.050072 0.994369
-0.434769 -0.006879 0.900516
-0.367158 -0.162359 0.915879
0.093393 -0.050072 0.994369
-0.415584 0.008306 0.909517
-0.434769 -0.006879 0.900516
0.093393 -0.050072 0.994369
-0.402689 0.157001 0.901772
-0.415584 0.008306 0.909517
0.093393 -0.050072 0.994369
-0.155287 0.391337 0.907051
-0.402689 0.157001 0.901772
0.028259 0.517294 0.855341
-0.155287 0.391337 0.907051
0.093393 -0.050072 0.994369
0.378902 0.658872 0.649862
0.104917 0.754240 0.648162
0.360419 0.716002 0.597862
0.104917 0.754240 0.648162
0.378902 0.658872 0.649862
0.047677 0.742554 0.668087
-0.402689 0.157001 0.901772
-0.155287 0.391337 0.907051
-0.229305 0.647887 0.726403
-0.402689 0.157001 0.901772
-0.229305 0.647887 0.726403
-0.581674 0.319908 0.747873
-0.402689 0.157001 0.901772
-0.650896 0.066012 0.756291
-0.415584 0.008306 0.909517
-0.650896 0.066012 0.756291
-0.402689 0.157001 0.901772
-0.581674 0.319908 0.747873
-0.278642 -0.250946 0.927030
-0.356338 -0.327140 0.875216
-0.210792 -0.279807 0.936629
-0.193434 -0.388729 0.900818
-0.210792 -0.279807 0.936629
-0.356338 -0.327140 0.875216
0.232196 -0.376159 0.896989
-0.039467 -0.353443 0.934623
0.038568 -0.403231 0.914285
-0.039467 -0.353443 0.934623
0.232196 -0.376159 0.896989
0.253826 -0.350738 0.901418
0.253826 -0.350738 0.901418
0.232196 -0.376159 0.896989
0.391984 -0.309469 0.866359
</float_array>
          <technique_common>
            <accessor source="#SM_Barnacle_09_LOD0-Normal0-array" count="432" stride="3">
              <param name="X" type="float"/>
              <param name="Y" type="float"/>
              <param name="Z" type="float"/>
            </accessor>
          </technique_common>
        </source>
        <source id="SM_Barnacle_09_LOD0-UV0">
          <float_array id="SM_Barnacle_09_LOD0-UV0-array" count="162">
0.223422 0.561806
0.242597 0.556505
0.223248 0.558113
0.207740 0.555714
0.210992 0.552827
0.196345 0.544758
0.202197 0.543539
0.191274 0.527746
0.181960 0.526951
0.190467 0.516504
0.182091 0.514349
0.201829 0.502288
0.196307 0.497404
0.211228 0.494879
0.206823 0.486584
0.220933 0.489908
0.225001 0.482594
0.233478 0.486643
0.232004 0.491638
0.245376 0.486020
0.241966 0.495415
0.257363 0.496561
0.250196 0.502665
0.262316 0.506249
0.255390 0.513265
0.266274 0.524632
0.255084 0.524514
0.261268 0.532635
0.253039 0.534606
0.254391 0.545594
0.249067 0.543958
0.239481 0.553391
0.224157 0.552455
0.214089 0.549454
0.206543 0.542313
0.203357 0.529171
0.203415 0.519518
0.206971 0.510375
0.213561 0.502997
0.221865 0.498731
0.230673 0.498354
0.238744 0.501531
0.245488 0.507828
0.249830 0.516496
0.250975 0.525752
0.248283 0.534532
0.244505 0.542530
0.235990 0.548716
0.228102 0.539703
0.224484 0.538546
0.221371 0.536252
0.221438 0.532341
0.220251 0.529313
0.221262 0.525868
0.223678 0.523182
0.226554 0.522334
0.228681 0.519770
0.233375 0.520403
0.235960 0.522854
0.237594 0.526044
0.238097 0.529473
0.236091 0.535211
0.234271 0.537726
0.231522 0.539238
0.231135 0.528583
0.226368 0.545034
0.219067 0.544663
0.213279 0.540471
0.210694 0.530647
0.210322 0.524065
0.212516 0.517803
0.216874 0.512749
0.222513 0.509798
0.228621 0.509404
0.232608 0.510925
0.237735 0.514611
0.241453 0.520227
0.243115 0.526744
0.242523 0.533107
0.238887 0.540262
0.233261 0.543833
</float_array>
          <technique_common>
            <accessor source="#SM_Barnacle_09_LOD0-UV0-array" count="81" stride="2">
              <param name="S" type="float"/>
              <param name="T" type="float"/>
            </accessor>
          </technique_common>
        </source>
        <vertices id="SM_Barnacle_09_LOD0-VERTEX">
          <input semantic="POSITION" source="#SM_Barnacle_09_LOD0-POSITION"/>
        </vertices>
        <triangles count="144" material="MAT_Sea_Shells">
          <input semantic="VERTEX" offset="0" source="#SM_Barnacle_09_LOD0-VERTEX"/>
          <input semantic="NORMAL" offset="1" source="#SM_Barnacle_09_LOD0-Normal0"/>
          <input semantic="TEXCOORD" offset="2" set="0" source="#SM_Barnacle_09_LOD0-UV0"/>
          <p> 23 0 2 1 1 1 0 2 0 2 3 3 23 4 2 0 5 0 25 6 4 23 7 2 2 8 3 3 9 5 25 10 4 2 11 3 4 12 6 25 13 4 3 14 5 28 15 7 4 16 6 3 17 5 5 18 8 28 19 7 3 20 5 30 21 9 28 22 7 5 23 8 6 24 10 30 25 9 5 26 8 31 27 11 30 28 9 6 29 10 7 30 12 31 31 11 6 32 10 8 33 13 31 34 11 7 35 12 9 36 14 8 37 13 7 38 12 33 39 15 8 40 13 9 41 14 10 42 16 33 43 15 9 44 14 11 45 17 33 46 15 10 47 16 35 48 18 33 49 15 11 50 17 12 51 19 35 52 18 11 53 17 14 54 20 35 55 18 12 56 19 13 57 21 14 58 20 12 59 19 15 60 22 14 61 20 13 62 21 16 63 23 15 64 22 13 65 21 39 66 24 15 67 22 16 68 23 17 69 25 39 70 24 16 71 23 19 72 26 39 73 24 17 74 25 18 75 27 19 76 26 17 77 25 40 78 28 19 79 26 18 80 27 20 81 29 40 82 28 18 83 27 21 84 30 40 85 28 20 86 29 22 87 31 21 88 30 20 89 29 1 90 1 22 91 31 20 92 29 23 93 2 22 94 31 1 95 1 24 96 32 22 97 31 23 98 2 25 99 4 24 100 32 23 101 2 26 102 33 24 103 32 25 104 4 27 105 34 26 106 33 25 107 4 4 108 6 27 109 34 25 110 4 44 111 35 27 112 34 4 113 6 28 114 7 44 115 35 4 116 6 29 117 36 44 118 35 28 119 7 30 120 9 29 121 36 28 122 7 46 123 37 29 124 36 30 125 9 31 126 11 46 127 37 30 128 9 32 129 38 46 130 37 31 131 11 8 132 13 32 133 38 31 134 11 34 135 39 32 136 38 8 137 13 33 138 15 34 139 39 8 140 13 36 141 40 34 142 39 33 143 15 35 144 18 36 145 40 33 146 15 14 147 20 36 148 40 35 149 18 37 150 41 36 151 40 14 152 20 15 153 22 37 154 41 14 155 20 38 156 42 37 157 41 15 158 22 39 159 24 38 160 42 15 161 22 48 162 43 38 163 42 39 164 24 19 165 26 48 166 43 39 167 24 50 168 44 48 169 43 19 170 26 40 171 28 50 172 44 19 173 26 53 174 45 50 175 44 40 176 28 21 177 30 53 178 45 40 179 28 41 180 46 53 181 45 21 182 30 22 183 31 41 184 46 21 185 30 54 186 47 41 187 46 22 188 31 24 189 32 54 190 47 22 191 31 55 192 63 65 193 65 42 194 48 65 195 65 55 196 63 80 197 80 24 198 32 66 199 66 65 200 65 66 201 66 24 202 32 26 203 33 65 204 65 64 205 49 42 206 48 64 207 49 65 208 65 66 209 66 67 210 67 66 211 66 26 212 33 67 213 67 26 214 33 27 215 34 27 216 34 68 217 68 67 218 67 68 219 68 27 220 34 44 221 35 63 222 51 68 223 68 45 224 52 68 225 68 69 226 69 45 227 52 44 228 35 69 229 69 68 230 68 69 231 69 44 232 35 29 233 36 70 234 70 62 235 53 69 236 69 62 237 53 45 238 52 69 239 69 70 240 70 29 241 36 46 242 37 29 243 36 70 244 70 69 245 69 71 246 71 61 247 54 70 248 70 61 249 54 62 250 53 70 251 70 71 252 71 46 253 37 32 254 38 46 255 37 71 256 71 70 257 70 72 258 72 32 259 38 34 260 39 32 261 38 72 262 72 71 263 71 60 264 55 72 265 72 47 266 56 47 267 56 72 268 72 73 269 73 34 270 39 73 271 73 72 272 72 73 273 73 34 274 39 36 275 40 73 276 73 36 277 40 37 278 41 73 279 73 37 280 41 74 281 74 74 282 74 38 283 42 75 284 75 38 285 42 74 286 74 37 287 41 75 288 75 76 289 76 49 290 58 75 291 75 49 292 58 58 293 57 38 294 42 48 295 43 75 296 75 48 297 43 76 298 76 75 299 75 77 300 77 51 301 59 76 302 76 51 303 59 49 304 58 76 305 76 77 306 77 76 307 76 50 308 44 48 309 43 50 310 44 76 311 76 78 312 78 52 313 60 77 314 77 52 315 60 51 316 59 77 317 77 77 318 77 53 319 45 78 320 78 53 321 45 77 322 77 50 323 44 57 324 61 52 325 60 78 326 78 79 327 79 53 328 45 41 329 46 53 330 45 79 331 79 78 332 78 79 333 79 56 334 62 57 335 61 57 336 61 78 337 78 79 338 79 79 339 79 54 340 47 80 341 80 54 342 47 79 343 79 41 344 46 79 345 79 80 346 80 56 347 62 56 348 62 80 349 80 55 350 63 59 351 64 55 352 63 42 353 48 59 354 64 56 355 62 55 356 63 59 357 64 57 358 61 56 359 62 59 360 64 52 361 60 57 362 61 59 363 64 51 364 59 52 365 60 59 366 64 49 367 58 51 368 59 59 369 64 58 370 57 49 371 58 59 372 64 47 373 56 58 374 57 59 375 64 60 376 55 47 377 56 59 378 64 61 379 54 60 380 55 59 381 64 62 382 53 61 383 54 59 384 64 45 385 52 62 386 53 59 387 64 63 388 51 45 389 52 59 390 64 43 391 50 63 392 51 59 393 64 64 394 49 43 395 50 42 396 48 64 397 49 59 398 64 54 399 47 65 400 65 80 401 80 65 402 65 54 403 47 24 404 32 43 405 50 64 406 49 66 407 66 43 408 50 66 409 66 67 410 67 43 411 50 68 412 68 63 413 51 68 414 68 43 415 50 67 416 67 61 417 54 71 418 71 60 419 55 72 420 72 60 421 55 71 422 71 74 423 74 47 424 56 73 425 73 47 426 56 74 427 74 58 428 57 58 429 57 74 430 74 75 431 75</p>
        </triangles>
      </mesh>
    </geometry>
    <geometry id="SM_Barnacle_09_LOD1-lib" name="SM_Barnacle_09_LOD1Mesh">
      <mesh>
        <source id="SM_Barnacle_09_LOD1-POSITION">
          <float_array id="SM_Barnacle_09_LOD1-POSITION-array" count="144">
-1.832471 -3.627167 0.000000
0.740951 0.862640 1.969425
-1.539241 3.462494 0.000001
4.330491 0.489258 0.000001
-0.459521 1.816742 1.648623
-4.279435 0.855591 0.000001
3.592772 -2.600586 0.000001
-1.935708 0.567596 0.451759
3.232085 -0.800446 0.111203
0.566135 2.190918 1.669852
1.902572 3.491119 0.000001
0.133535 -4.129425 0.000001
2.441618 2.175140 0.148191
-1.420169 -1.392578 0.472347
2.314190 -3.768494 0.000001
0.092455 4.129425 0.000001
1.532635 0.926178 1.589467
-0.442843 2.771698 1.187156
0.131544 3.285217 0.599687
1.925966 -2.730988 0.136107
-1.101483 3.227509 0.138533
-4.354081 -0.533569 0.000001
-0.234485 -3.311432 0.136473
1.138891 0.035614 1.597083
1.037288 2.519928 1.174842
1.920571 2.141052 0.785815
-1.084321 2.241791 1.127539
1.567360 3.165894 0.138499
-1.966272 2.389526 0.118470
-1.363557 0.651917 1.052290
-0.925190 -0.627441 1.056963
0.281115 -0.388519 1.524503
1.036753 -3.673828 0.000001
-2.252933 -1.902496 0.097163
-3.244616 0.850677 0.097655
3.006749 2.455811 0.000001
0.762984 -2.486908 0.567053
1.107742 1.970062 1.637062
3.101026 0.345703 0.088754
2.065860 0.592621 1.042928
-0.510567 1.106384 1.612920
1.253631 2.775696 0.574201
4.079490 -1.526611 0.000001
2.773505 -1.946533 0.117045
0.059732 3.746796 0.146673
2.040403 1.278961 1.062150
-0.903598 3.038483 0.578763
-3.413892 -0.337128 0.088767
</float_array>
          <technique_common>
            <accessor source="#SM_Barnacle_09_LOD1-POSITION-array" count="48" stride="3">
              <param name="X" type="float"/>
              <param name="Y" type="float"/>
              <param name="Z" type="float"/>
            </accessor>
          </technique_common>
        </source>
        <source id="SM_Barnacle_09_LOD1-Normal0">
          <float_array id="SM_Barnacle_09_LOD1-Normal0-array" count="729">
0.342097 -0.294095 0.892456
0.241283 -0.162281 0.956790
0.304384 -0.042270 0.951611
-0.057408 -0.260733 0.963703
-0.358082 -0.269726 0.893882
-0.170940 -0.155543 0.972926
0.001101 0.658327 0.752731
0.256552 0.416629 0.872125
-0.025576 0.497531 0.867069
-0.600906 0.316132 0.734148
-0.434257 0.259856 0.862494
-0.486744 0.014397 0.873426
0.085289 -0.068716 0.993984
0.572742 -0.017571 0.819547
0.413707 0.388733 0.823245
-0.158785 0.076048 0.984380
-0.486744 0.014397 0.873426
-0.434257 0.259856 0.862494
0.156355 -0.246407 0.956471
0.342097 -0.294095 0.892456
0.115224 -0.478981 0.870230
-0.057408 -0.260733 0.963703
-0.114755 -0.334287 0.935459
-0.432555 -0.273688 0.859064
-0.114755 -0.334287 0.935459
-0.425247 -0.074170 0.902033
-0.432555 -0.273688 0.859064
0.413707 0.388733 0.823245
0.781202 0.135391 0.609420
0.626018 0.465537 0.625601
0.094988 0.016341 0.995344
0.304384 -0.042270 0.951611
0.107574 -0.031564 0.993696
-0.378838 0.723188 0.577478
-0.150431 0.749905 0.644215
0.351659 0.715548 0.603595
0.085289 -0.068716 0.993984
0.073938 0.497144 0.864512
-0.377686 0.186002 0.907059
0.441781 0.251007 0.861293
0.354191 0.054532 0.933582
0.094988 0.016341 0.995344
-0.057408 -0.260733 0.963703
-0.170940 -0.155543 0.972926
-0.071256 -0.094639 0.992958
0.001101 0.658327 0.752731
0.370111 0.672632 0.640769
0.256552 0.416629 0.872125
0.186186 0.147773 0.971338
0.441781 0.251007 0.861293
0.094988 0.016341 0.995344
-0.358082 -0.269726 0.893882
-0.486744 0.014397 0.873426
-0.147911 -0.035231 0.988373
-0.630723 -0.057878 0.773847
-0.432555 -0.273688 0.859064
-0.425247 -0.074170 0.902033
0.304384 -0.042270 0.951611
0.241283 -0.162281 0.956790
0.107574 -0.031564 0.993696
-0.309127 0.488689 0.815857
0.001101 0.658327 0.752731
-0.025576 0.497531 0.867069
0.692555 -0.104151 0.713807
0.354191 0.054532 0.933582
0.441781 0.251007 0.861293
0.354191 0.054532 0.933582
0.692555 -0.104151 0.713807
0.342097 -0.294095 0.892456
-0.377686 0.186002 0.907059
0.073938 0.497144 0.864512
-0.150431 0.749905 0.644215
-0.600906 0.316132 0.734148
-0.630723 -0.057878 0.773847
-0.425247 -0.074170 0.902033
0.073938 0.497144 0.864512
0.351659 0.715548 0.603595
-0.150431 0.749905 0.644215
0.413707 0.388733 0.823245
0.626018 0.465537 0.625601
0.351659 0.715548 0.603595
0.156355 -0.246407 0.956471
-0.057408 -0.260733 0.963703
0.057715 -0.124466 0.990544
0.095605 -0.065393 0.993269
0.156355 -0.246407 0.956471
0.057715 -0.124466 0.990544
-0.378838 0.723188 0.577478
-0.434257 0.259856 0.862494
-0.600906 0.316132 0.734148
-0.309127 0.488689 0.815857
-0.025576 0.497531 0.867069
-0.179842 0.223766 0.957907
-0.170940 -0.155543 0.972926
-0.358082 -0.269726 0.893882
-0.147911 -0.035231 0.988373
0.024972 -0.153572 0.987822
-0.057408 -0.260733 0.963703
-0.071256 -0.094639 0.992958
0.057715 -0.124466 0.990544
-0.057408 -0.260733 0.963703
-0.012948 -0.391853 0.919936
0.085289 -0.068716 0.993984
0.342097 -0.294095 0.892456
0.572742 -0.017571 0.819547
0.342097 -0.294095 0.892456
-0.114755 -0.334287 0.935459
0.115224 -0.478981 0.870230
0.351659 0.715548 0.603595
0.370111 0.672632 0.640769
0.001101 0.658327 0.752731
0.351659 0.715548 0.603595
0.001101 0.658327 0.752731
-0.378838 0.723188 0.577478
0.781202 0.135391 0.609420
0.441781 0.251007 0.861293
0.626018 0.465537 0.625601
0.256552 0.416629 0.872125
0.626018 0.465537 0.625601
0.441781 0.251007 0.861293
-0.150431 0.749905 0.644215
-0.600906 0.316132 0.734148
-0.377686 0.186002 0.907059
-0.600906 0.316132 0.734148
-0.150431 0.749905 0.644215
-0.378838 0.723188 0.577478
-0.025576 0.497531 0.867069
0.256552 0.416629 0.872125
0.162871 0.245091 0.955722
0.256552 0.416629 0.872125
0.441781 0.251007 0.861293
0.186186 0.147773 0.971338
-0.158785 0.076048 0.984380
-0.434257 0.259856 0.862494
-0.179842 0.223766 0.957907
-0.434257 0.259856 0.862494
-0.309127 0.488689 0.815857
-0.179842 0.223766 0.957907
-0.630723 -0.057878 0.773847
-0.486744 0.014397 0.873426
-0.358082 -0.269726 0.893882
-0.486744 0.014397 0.873426
-0.630723 -0.057878 0.773847
-0.600906 0.316132 0.734148
-0.358082 -0.269726 0.893882
-0.432555 -0.273688 0.859064
-0.630723 -0.057878 0.773847
-0.432555 -0.273688 0.859064
-0.358082 -0.269726 0.893882
-0.057408 -0.260733 0.963703
0.085289 -0.068716 0.993984
-0.114755 -0.334287 0.935459
0.342097 -0.294095 0.892456
0.085289 -0.068716 0.993984
-0.425247 -0.074170 0.902033
-0.114755 -0.334287 0.935459
-0.012948 -0.391853 0.919936
-0.057408 -0.260733 0.963703
0.024972 -0.153572 0.987822
-0.170940 -0.155543 0.972926
-0.147911 -0.035231 0.988373
-0.091320 -0.025686 0.995490
-0.071256 -0.094639 0.992958
-0.170940 -0.155543 0.972926
-0.091320 -0.025686 0.995490
-0.091320 -0.025686 0.995490
-0.147911 -0.035231 0.988373
-0.094049 0.035329 0.994940
-0.094049 0.035329 0.994940
-0.158785 0.076048 0.984380
-0.179842 0.223766 0.957907
0.162871 0.245091 0.955722
0.256552 0.416629 0.872125
0.186186 0.147773 0.971338
0.156355 -0.246407 0.956471
0.115224 -0.478981 0.870230
-0.057408 -0.260733 0.963703
-0.114755 -0.334287 0.935459
-0.057408 -0.260733 0.963703
0.115224 -0.478981 0.870230
0.085289 -0.068716 0.993984
0.413707 0.388733 0.823245
0.073938 0.497144 0.864512
0.351659 0.715548 0.603595
0.073938 0.497144 0.864512
0.413707 0.388733 0.823245
0.354191 0.054532 0.933582
0.304384 -0.042270 0.951611
0.094988 0.016341 0.995344
0.342097 -0.294095 0.892456
0.304384 -0.042270 0.951611
0.354191 0.054532 0.933582
0.413707 0.388733 0.823245
0.572742 -0.017571 0.819547
0.781202 0.135391 0.609420
0.342097 -0.294095 0.892456
0.692555 -0.104151 0.713807
0.572742 -0.017571 0.819547
-0.425247 -0.074170 0.902033
-0.377686 0.186002 0.907059
-0.600906 0.316132 0.734148
0.085289 -0.068716 0.993984
-0.377686 0.186002 0.907059
-0.425247 -0.074170 0.902033
0.370111 0.672632 0.640769
0.351659 0.715548 0.603595
0.626018 0.465537 0.625601
0.370111 0.672632 0.640769
0.626018 0.465537 0.625601
0.256552 0.416629 0.872125
0.107574 -0.031564 0.993696
0.241283 -0.162281 0.956790
0.095605 -0.065393 0.993269
0.156355 -0.246407 0.956471
0.241283 -0.162281 0.956790
0.342097 -0.294095 0.892456
0.241283 -0.162281 0.956790
0.156355 -0.246407 0.956471
0.095605 -0.065393 0.993269
-0.025576 0.497531 0.867069
0.162871 0.245091 0.955722
-0.002410 0.358110 0.933676
-0.179842 0.223766 0.957907
-0.025576 0.497531 0.867069
-0.002410 0.358110 0.933676
0.692555 -0.104151 0.713807
0.781202 0.135391 0.609420
0.572742 -0.017571 0.819547
0.441781 0.251007 0.861293
0.781202 0.135391 0.609420
0.692555 -0.104151 0.713807
-0.378838 0.723188 0.577478
0.001101 0.658327 0.752731
-0.309127 0.488689 0.815857
-0.434257 0.259856 0.862494
-0.378838 0.723188 0.577478
-0.309127 0.488689 0.815857
-0.147911 -0.035231 0.988373
-0.158785 0.076048 0.984380
-0.094049 0.035329 0.994940
-0.147911 -0.035231 0.988373
-0.486744 0.014397 0.873426
-0.158785 0.076048 0.984380
</float_array>
          <technique_common>
            <accessor source="#SM_Barnacle_09_LOD1-Normal0-array" count="243" stride="3">
              <param name="X" type="float"/>
              <param name="Y" type="float"/>
              <param name="Z" type="float"/>
            </accessor>
          </technique_common>
        </source>
        <source id="SM_Barnacle_09_LOD1-UV0">
          <float_array id="SM_Barnacle_09_LOD1-UV0-array" count="96">
0.206717 0.486693
0.266083 0.524937
0.206640 0.554657
0.231135 0.528583
0.257363 0.496561
0.181960 0.526951
0.221371 0.536252
0.242597 0.556505
0.255170 0.513393
0.229850 0.539465
0.225001 0.482594
0.245376 0.486020
0.223422 0.561806
0.203378 0.525678
0.248999 0.543141
0.238097 0.529473
0.221454 0.489990
0.182091 0.514349
0.230673 0.498354
0.220646 0.530322
0.234271 0.537726
0.202197 0.543539
0.233478 0.486643
0.227482 0.517832
0.254391 0.545594
0.210992 0.552827
0.235145 0.521911
0.224157 0.552455
0.255084 0.524514
0.241966 0.495415
0.210453 0.526378
0.241962 0.541504
0.262316 0.506249
0.232558 0.543956
0.243115 0.526744
0.219067 0.544663
0.250196 0.502665
0.239481 0.553391
0.213279 0.540471
0.201829 0.502288
0.191274 0.527746
0.242523 0.533107
0.209509 0.507533
0.235990 0.548716
0.214854 0.515091
0.223248 0.558113
0.214089 0.549454
0.190467 0.516504
</float_array>
          <technique_common>
            <accessor source="#SM_Barnacle_09_LOD1-UV0-array" count="48" stride="2">
              <param name="S" type="float"/>
              <param name="T" type="float"/>
            </accessor>
          </technique_common>
        </source>
        <vertices id="SM_Barnacle_09_LOD1-VERTEX">
          <input semantic="POSITION" source="#SM_Barnacle_09_LOD1-POSITION"/>
        </vertices>
        <triangles count="81" material="MAT_Sea_Shells">
          <input semantic="VERTEX" offset="0" source="#SM_Barnacle_09_LOD1-VERTEX"/>
          <input semantic="NORMAL" offset="1" source="#SM_Barnacle_09_LOD1-Normal0"/>
          <input semantic="TEXCOORD" offset="2" set="0" source="#SM_Barnacle_09_LOD1-UV0"/>
          <p> 23 0 26 43 1 36 8 2 8 22 3 16 13 4 42 33 5 39 18 6 27 27 7 37 44 8 45 26 9 38 28 10 21 7 11 13 1 12 3 16 13 15 37 14 20 34 15 40 7 16 13 28 17 21 19 18 29 23 19 26 36 20 18 22 21 16 31 22 23 30 23 44 31 24 23 40 25 19 30 26 44 37 27 20 45 28 41 25 29 31 3 30 1 8 31 8 42 32 32 46 33 46 17 34 35 24 35 33 1 36 3 9 37 9 4 38 6 12 39 14 38 40 28 3 41 1 22 42 16 33 43 39 0 44 0 18 45 27 41 46 43 27 47 37 35 48 24 12 49 14 3 50 1 13 51 42 7 52 13 47 53 47 29 54 30 30 55 44 40 56 19 8 57 8 43 58 36 42 59 32 20 60 25 18 61 27 44 62 45 39 63 34 38 64 28 12 65 14 38 66 28 39 67 34 23 68 26 4 69 6 9 70 9 17 71 35 26 72 38 29 73 30 40 74 19 9 75 9 24 76 33 17 77 35 37 78 20 25 79 31 24 80 33 19 81 29 22 82 16 14 83 11 6 84 4 19 85 29 14 86 11 46 87 46 28 88 21 26 89 38 20 90 25 44 91 45 2 92 2 33 93 39 13 94 42 47 95 47 11 96 10 22 97 16 0 98 0 14 99 11 22 100 16 32 101 22 1 102 3 23 103 26 16 104 15 23 105 26 31 106 23 36 107 18 24 108 33 41 109 43 18 110 27 24 111 33 18 112 27 46 113 46 45 114 41 12 115 14 25 116 31 27 117 37 25 118 31 12 119 14 17 120 35 26 121 38 4 122 6 26 123 38 17 124 35 46 125 46 44 126 45 27 127 37 10 128 7 27 129 37 12 130 14 35 131 24 34 132 40 28 133 21 2 134 2 28 135 21 20 136 25 2 137 2 29 138 30 7 139 13 13 140 42 7 141 13 29 142 30 26 143 38 13 144 42 30 145 44 29 146 30 30 147 44 13 148 42 22 149 16 1 150 3 31 151 23 23 152 26 1 153 3 40 154 19 31 155 23 32 156 22 22 157 16 11 158 10 33 159 39 47 160 47 21 161 17 0 162 0 33 163 39 21 164 17 21 165 17 47 166 47 5 167 5 5 168 5 34 169 40 2 170 2 10 171 7 27 172 37 35 173 24 19 174 29 36 175 18 22 176 16 31 177 23 22 178 16 36 179 18 1 180 3 37 181 20 9 182 9 24 183 33 9 184 9 37 185 20 38 186 28 8 187 8 3 188 1 23 189 26 8 190 8 38 191 28 37 192 20 16 193 15 45 194 41 23 195 26 39 196 34 16 197 15 40 198 19 4 199 6 26 200 38 1 201 3 4 202 6 40 203 19 41 204 43 24 205 33 25 206 31 41 207 43 25 208 31 27 209 37 42 210 32 43 211 36 6 212 4 19 213 29 43 214 36 23 215 26 43 216 36 19 217 29 6 218 4 44 219 45 10 220 7 15 221 12 2 222 2 44 223 45 15 224 12 39 225 34 45 226 41 16 227 15 12 228 14 45 229 41 39 230 34 46 231 46 18 232 27 20 233 25 28 234 21 46 235 46 20 236 25 47 237 47 34 238 40 5 239 5 47 240 47 7 241 13 34 242 40</p>
        </triangles>
      </mesh>
    </geometry>
  </library_geometries>
  <library_visual_scenes>
    <visual_scene id="SM_Barnacle_09" name="SM_Barnacle_09">
      <node name="SM_Barnacle_09_LOD0" id="SM_Barnacle_09_LOD0" layer="shells" sid="SM_Barnacle_09_LOD0">
        <matrix sid="matrix">1.000000 0.000000 0.000000 0.000000 0.000000 0.000000 1.000000 0.000000 0.000000 -1.000000 0.000000 0.000000 0.000000 0.000000 0.000000 1.000000</matrix>
        <instance_geometry url="#SM_Barnacle_09_LOD0-lib">
          <bind_material>
            <technique_common>
              <instance_material symbol="MAT_Sea_Shells" target="#MAT_Sea_Shells"/>
            </technique_common>
          </bind_material>
        </instance_geometry>
        <extra>
          <technique profile="FCOLLADA">
            <visibility>1.000000</visibility>
          </technique>
        </extra>
      </node>
      <node name="SM_Barnacle_09_LOD1" id="SM_Barnacle_09_LOD1" layer="shells" sid="SM_Barnacle_09_LOD1">
        <matrix sid="matrix">1.000000 0.000000 0.000000 0.000000 0.000000 0.000000 1.000000 0.000000 0.000000 -1.000000 0.000000 0.000000 0.000000 0.000000 0.000000 1.000000</matrix>
        <instance_geometry url="#SM_Barnacle_09_LOD1-lib">
          <bind_material>
            <technique_common>
              <instance_material symbol="MAT_Sea_Shells" target="#MAT_Sea_Shells"/>
            </technique_common>
          </bind_material>
        </instance_geometry>
        <extra>
          <technique profile="FCOLLADA">
            <visibility>1.000000</visibility>
          </technique>
        </extra>
      </node>
      <extra>
        <technique profile="MAX3D">
          <frame_rate>30.000000</frame_rate>
        </technique>
        <technique profile="FCOLLADA">
          <start_time>0.000000</start_time>
          <end_time>3.333333</end_time>
        </technique>
      </extra>
    </visual_scene>
  </library_visual_scenes>
  <scene>
    <instance_visual_scene url="#SM_Barnacle_09"/>
  </scene>
</COLLADA>
