<?xml version="1.0" encoding="utf-8"?>
<COLLADA xmlns="http://www.collada.org/2005/11/COLLADASchema" version="1.4.1">
  <asset>
    <contributor>
      <author/>
      <authoring_tool>FBX COLLADA exporter</authoring_tool>
      <comments/>
    </contributor>
    <created>2024-02-10T11:42:30Z</created>
    <keywords/>
    <modified>2024-02-10T11:42:30Z</modified>
    <revision/>
    <subject/>
    <title/>
    <unit meter="0.010000" name="centimeter"/>
    <up_axis>Y_UP</up_axis>
  </asset>
  <library_materials>
    <material id="MAT_Sea_Shells" name="MAT_Sea_Shells">
      <instance_effect url="#MAT_Sea_Shells-fx"/>
    </material>
  </library_materials>
  <library_effects>
    <effect id="MAT_Sea_Shells-fx" name="MAT_Sea_Shells">
      <profile_COMMON>
        <technique sid="standard">
          <phong>
            <emission>
              <color sid="emission">0.000000  0.000000 0.000000 1.000000</color>
            </emission>
            <ambient>
              <color sid="ambient">0.588235  0.588235 0.588235 1.000000</color>
            </ambient>
            <diffuse>
              <color sid="diffuse">0.588235  0.588235 0.588235 1.000000</color>
            </diffuse>
            <specular>
              <color sid="specular">0.000000  0.000000 0.000000 1.000000</color>
            </specular>
            <shininess>
              <float sid="shininess">2.000000</float>
            </shininess>
            <reflective>
              <color sid="reflective">0.000000  0.000000 0.000000 1.000000</color>
            </reflective>
            <reflectivity>
              <float sid="reflectivity">1.000000</float>
            </reflectivity>
            <transparent opaque="RGB_ZERO">
              <color sid="transparent">1.000000  1.000000 1.000000 1.000000</color>
            </transparent>
            <transparency>
              <float sid="transparency">0.000000</float>
            </transparency>
          </phong>
        </technique>
      </profile_COMMON>
    </effect>
  </library_effects>
  <library_geometries>
    <geometry id="SM_Barnacle_01_LOD0-lib" name="SM_Barnacle_01_LOD0Mesh">
      <mesh>
        <source id="SM_Barnacle_01_LOD0-POSITION">
          <float_array id="SM_Barnacle_01_LOD0-POSITION-array" count="123">
2.253780 2.285919 -0.000000
0.582157 3.597382 -0.000000
-1.844223 2.721863 -0.000000
-3.420677 0.768524 0.000000
-2.696098 0.654968 0.158783
-3.136555 -1.101593 0.000000
-1.900204 -2.880615 0.000001
-1.590614 -2.227783 0.171011
-0.262554 -3.597351 0.000001
1.355732 -2.843201 0.000001
1.834476 -1.358368 0.158783
3.420677 -1.542816 0.000000
2.359386 0.147339 0.171011
3.329060 0.455536 0.000000
1.673386 1.631653 0.171011
0.185719 2.360687 0.158783
-1.386303 1.603851 0.158783
-2.291283 0.438965 0.764296
-2.583260 -0.936432 0.171011
-2.256256 -0.749054 0.820558
-1.339909 -1.731628 0.820558
-0.014339 -2.522278 0.158784
-0.254757 -1.952667 0.764296
0.908077 -2.115295 0.156137
1.707760 0.019958 0.755490
1.375797 -1.149231 0.704794
1.253086 -0.097687 1.150529
0.438873 -1.665894 0.752115
-0.507828 -1.673645 1.117323
-1.429790 -1.264282 1.215451
-1.322277 1.181213 0.764296
-0.136471 1.690887 0.764296
-0.516075 0.783386 1.188367
1.002438 1.195374 0.820558
0.314758 0.589142 1.287176
-0.545036 -0.585632 1.640957
-1.251701 0.533630 1.188367
-2.011757 -0.053711 1.188367
-1.954861 -0.728699 1.215451
0.103355 -1.440643 1.084504
0.944889 -1.019318 1.054362
</float_array>
          <technique_common>
            <accessor source="#SM_Barnacle_01_LOD0-POSITION-array" count="41" stride="3">
              <param name="X" type="float"/>
              <param name="Y" type="float"/>
              <param name="Z" type="float"/>
            </accessor>
          </technique_common>
        </source>
        <source id="SM_Barnacle_01_LOD0-Normal0">
          <float_array id="SM_Barnacle_01_LOD0-Normal0-array" count="630">
-0.012697 0.436593 0.899570
0.122214 0.108528 0.986552
0.012720 0.132084 0.991157
-0.091004 0.130152 0.987309
-0.012697 0.436593 0.899570
0.012720 0.132084 0.991157
-0.276447 0.454223 0.846911
-0.012697 0.436593 0.899570
-0.091004 0.130152 0.987309
-0.190592 0.051802 0.980302
-0.276447 0.454223 0.846911
-0.091004 0.130152 0.987309
-0.490189 0.208402 0.846335
-0.276447 0.454223 0.846911
-0.190592 0.051802 0.980302
-0.237536 -0.094819 0.966740
-0.490189 0.208402 0.846335
-0.190592 0.051802 0.980302
-0.538920 -0.206374 0.816685
-0.490189 0.208402 0.846335
-0.237536 -0.094819 0.966740
-0.282406 -0.438760 0.853075
-0.538920 -0.206374 0.816685
-0.237536 -0.094819 0.966740
-0.137734 -0.169015 0.975942
-0.282406 -0.438760 0.853075
-0.237536 -0.094819 0.966740
0.012702 -0.167084 0.985861
-0.282406 -0.438760 0.853075
-0.137734 -0.169015 0.975942
0.047931 -0.462674 0.885232
-0.282406 -0.438760 0.853075
0.012702 -0.167084 0.985861
0.083160 -0.149703 0.985228
0.047931 -0.462674 0.885232
0.012702 -0.167084 0.985861
0.229506 -0.403354 0.885795
0.047931 -0.462674 0.885232
0.083160 -0.149703 0.985228
0.355100 -0.263142 0.897029
0.229506 -0.403354 0.885795
0.083160 -0.149703 0.985228
0.110531 -0.077271 0.990864
0.355100 -0.263142 0.897029
0.083160 -0.149703 0.985228
0.415043 0.032229 0.909231
0.355100 -0.263142 0.897029
0.110531 -0.077271 0.990864
0.145721 0.034228 0.988733
0.415043 0.032229 0.909231
0.110531 -0.077271 0.990864
0.286520 0.292385 0.912369
0.415043 0.032229 0.909231
0.145721 0.034228 0.988733
0.122214 0.108528 0.986552
0.286520 0.292385 0.912369
0.145721 0.034228 0.988733
-0.012697 0.436593 0.899570
0.286520 0.292385 0.912369
0.122214 0.108528 0.986552
0.356770 0.425196 0.831819
0.286520 0.292385 0.912369
-0.012697 0.436593 0.899570
-0.045967 0.599526 0.799034
0.356770 0.425196 0.831819
-0.012697 0.436593 0.899570
-0.276447 0.454223 0.846911
-0.045967 0.599526 0.799034
-0.012697 0.436593 0.899570
-0.356721 0.608860 0.708548
-0.045967 0.599526 0.799034
-0.276447 0.454223 0.846911
-0.490189 0.208402 0.846335
-0.356721 0.608860 0.708548
-0.276447 0.454223 0.846911
-0.692847 0.300006 0.655713
-0.356721 0.608860 0.708548
-0.490189 0.208402 0.846335
-0.538920 -0.206374 0.816685
-0.692847 0.300006 0.655713
-0.490189 0.208402 0.846335
-0.766748 -0.303766 0.565530
-0.692847 0.300006 0.655713
-0.538920 -0.206374 0.816685
-0.403773 -0.675569 0.616907
-0.766748 -0.303766 0.565530
-0.538920 -0.206374 0.816685
-0.282406 -0.438760 0.853075
-0.403773 -0.675569 0.616907
-0.538920 -0.206374 0.816685
0.065476 -0.712396 0.698717
-0.403773 -0.675569 0.616907
-0.282406 -0.438760 0.853075
0.047931 -0.462674 0.885232
0.065476 -0.712396 0.698717
-0.282406 -0.438760 0.853075
0.335346 -0.622795 0.706873
0.065476 -0.712396 0.698717
0.047931 -0.462674 0.885232
0.229506 -0.403354 0.885795
0.335346 -0.622795 0.706873
0.047931 -0.462674 0.885232
0.534903 -0.431251 0.726568
0.335346 -0.622795 0.706873
0.229506 -0.403354 0.885795
0.355100 -0.263142 0.897029
0.534903 -0.431251 0.726568
0.229506 -0.403354 0.885795
0.608945 0.028346 0.792706
0.534903 -0.431251 0.726568
0.355100 -0.263142 0.897029
0.415043 0.032229 0.909231
0.608945 0.028346 0.792706
0.355100 -0.263142 0.897029
0.286520 0.292385 0.912369
0.608945 0.028346 0.792706
0.415043 0.032229 0.909231
0.356770 0.425196 0.831819
0.608945 0.028346 0.792706
0.286520 0.292385 0.912369
0.356770 0.425196 0.831819
0.419241 -0.004886 0.907862
0.608945 0.028346 0.792706
0.419241 -0.004886 0.907862
0.534903 -0.431251 0.726568
0.608945 0.028346 0.792706
0.419241 -0.004886 0.907862
0.389904 -0.374269 0.841367
0.534903 -0.431251 0.726568
0.389904 -0.374269 0.841367
0.335346 -0.622795 0.706873
0.534903 -0.431251 0.726568
0.389904 -0.374269 0.841367
0.270726 -0.522884 0.808270
0.335346 -0.622795 0.706873
0.270726 -0.522884 0.808270
0.065476 -0.712396 0.698717
0.335346 -0.622795 0.706873
0.270726 -0.522884 0.808270
0.053769 -0.577806 0.814401
0.065476 -0.712396 0.698717
0.053769 -0.577806 0.814401
-0.403773 -0.675569 0.616907
0.065476 -0.712396 0.698717
0.053769 -0.577806 0.814401
-0.303925 -0.528683 0.792542
-0.403773 -0.675569 0.616907
-0.303925 -0.528683 0.792542
-0.766748 -0.303766 0.565530
-0.403773 -0.675569 0.616907
-0.538111 -0.227553 0.811577
-0.766748 -0.303766 0.565530
-0.303925 -0.528683 0.792542
-0.538111 -0.227553 0.811577
-0.446680 0.196466 0.872856
-0.766748 -0.303766 0.565530
-0.446680 0.196466 0.872856
-0.692847 0.300006 0.655713
-0.766748 -0.303766 0.565530
-0.446680 0.196466 0.872856
-0.220107 0.392275 0.893125
-0.692847 0.300006 0.655713
-0.220107 0.392275 0.893125
-0.356721 0.608860 0.708548
-0.692847 0.300006 0.655713
-0.220107 0.392275 0.893125
-0.063563 0.399960 0.914326
-0.356721 0.608860 0.708548
-0.063563 0.399960 0.914326
-0.045967 0.599526 0.799034
-0.356721 0.608860 0.708548
-0.063563 0.399960 0.914326
0.186712 0.305969 0.933553
-0.045967 0.599526 0.799034
0.186712 0.305969 0.933553
0.356770 0.425196 0.831819
-0.045967 0.599526 0.799034
0.186712 0.305969 0.933553
0.419241 -0.004886 0.907862
0.356770 0.425196 0.831819
-0.000978 -0.073260 0.997312
0.419241 -0.004886 0.907862
0.186712 0.305969 0.933553
-0.063563 0.399960 0.914326
-0.000978 -0.073260 0.997312
0.186712 0.305969 0.933553
-0.220107 0.392275 0.893125
-0.000978 -0.073260 0.997312
-0.063563 0.399960 0.914326
-0.446680 0.196466 0.872856
-0.000978 -0.073260 0.997312
-0.220107 0.392275 0.893125
-0.538111 -0.227553 0.811577
-0.000978 -0.073260 0.997312
-0.446680 0.196466 0.872856
-0.303925 -0.528683 0.792542
-0.000978 -0.073260 0.997312
-0.538111 -0.227553 0.811577
0.053769 -0.577806 0.814401
-0.000978 -0.073260 0.997312
-0.303925 -0.528683 0.792542
0.270726 -0.522884 0.808270
-0.000978 -0.073260 0.997312
0.053769 -0.577806 0.814401
0.389904 -0.374269 0.841367
-0.000978 -0.073260 0.997312
0.270726 -0.522884 0.808270
0.389904 -0.374269 0.841367
0.419241 -0.004886 0.907862
-0.000978 -0.073260 0.997312
</float_array>
          <technique_common>
            <accessor source="#SM_Barnacle_01_LOD0-Normal0-array" count="210" stride="3">
              <param name="X" type="float"/>
              <param name="Y" type="float"/>
              <param name="Z" type="float"/>
            </accessor>
          </technique_common>
        </source>
        <source id="SM_Barnacle_01_LOD0-UV0">
          <float_array id="SM_Barnacle_01_LOD0-UV0-array" count="82">
0.393066 0.274414
0.374756 0.289063
0.397461 0.288086
0.419678 0.284180
0.414551 0.296387
0.436768 0.305664
0.428955 0.306641
0.433838 0.326172
0.427734 0.324219
0.416748 0.338379
0.420166 0.345703
0.402344 0.353516
0.399658 0.341309
0.384521 0.345215
0.389404 0.336914
0.379395 0.328613
0.362061 0.331055
0.373535 0.312500
0.363037 0.309082
0.381104 0.295898
0.388428 0.300781
0.400879 0.295410
0.413818 0.300781
0.424561 0.309082
0.424072 0.322266
0.414063 0.333008
0.402100 0.335449
0.394531 0.332031
0.384277 0.326660
0.380615 0.313965
0.385742 0.314941
0.389160 0.325195
0.398193 0.329590
0.405029 0.332031
0.415039 0.327637
0.420898 0.321777
0.421387 0.314453
0.413086 0.308105
0.405029 0.305176
0.395996 0.307617
0.405273 0.320313
</float_array>
          <technique_common>
            <accessor source="#SM_Barnacle_01_LOD0-UV0-array" count="41" stride="2">
              <param name="S" type="float"/>
              <param name="T" type="float"/>
            </accessor>
          </technique_common>
        </source>
        <vertices id="SM_Barnacle_01_LOD0-VERTEX">
          <input semantic="POSITION" source="#SM_Barnacle_01_LOD0-POSITION"/>
        </vertices>
        <triangles count="70" material="MAT_Sea_Shells">
          <input semantic="VERTEX" offset="0" source="#SM_Barnacle_01_LOD0-VERTEX"/>
          <input semantic="NORMAL" offset="1" source="#SM_Barnacle_01_LOD0-Normal0"/>
          <input semantic="TEXCOORD" offset="2" set="0" source="#SM_Barnacle_01_LOD0-UV0"/>
          <p> 15 0 2 0 1 1 1 2 0 2 3 3 15 4 2 1 5 0 16 6 4 15 7 2 2 8 3 3 9 5 16 10 4 2 11 3 4 12 6 16 13 4 3 14 5 5 15 7 4 16 6 3 17 5 18 18 8 4 19 6 5 20 7 7 21 9 18 22 8 5 23 7 6 24 10 7 25 9 5 26 7 8 27 11 7 28 9 6 29 10 21 30 12 7 31 9 8 32 11 9 33 13 21 34 12 8 35 11 23 36 14 21 37 12 9 38 13 10 39 15 23 40 14 9 41 13 11 42 16 10 43 15 9 44 13 12 45 17 10 46 15 11 47 16 13 48 18 12 49 17 11 50 16 14 51 19 12 52 17 13 53 18 0 54 1 14 55 19 13 56 18 15 57 2 14 58 19 0 59 1 33 60 20 14 61 19 15 62 2 31 63 21 33 64 20 15 65 2 16 66 4 31 67 21 15 68 2 30 69 22 31 70 21 16 71 4 4 72 6 30 73 22 16 74 4 17 75 23 30 76 22 4 77 6 18 78 8 17 79 23 4 80 6 19 81 24 17 82 23 18 83 8 20 84 25 19 85 24 18 86 8 7 87 9 20 88 25 18 89 8 22 90 26 20 91 25 7 92 9 21 93 12 22 94 26 7 95 9 27 96 27 22 97 26 21 98 12 23 99 14 27 100 27 21 101 12 25 102 28 27 103 27 23 104 14 10 105 15 25 106 28 23 107 14 24 108 29 25 109 28 10 110 15 12 111 17 24 112 29 10 113 15 14 114 19 24 115 29 12 116 17 33 117 20 24 118 29 14 119 19 33 120 20 26 121 30 24 122 29 26 123 30 25 124 28 24 125 29 26 126 30 40 127 31 25 128 28 40 129 31 27 130 27 25 131 28 40 132 31 39 133 32 27 134 27 39 135 32 22 136 26 27 137 27 39 138 32 28 139 33 22 140 26 28 141 33 20 142 25 22 143 26 28 144 33 29 145 34 20 146 25 29 147 34 19 148 24 20 149 25 38 150 35 19 151 24 29 152 34 38 153 35 37 154 36 19 155 24 37 156 36 17 157 23 19 158 24 37 159 36 36 160 37 17 161 23 36 162 37 30 163 22 17 164 23 36 165 37 32 166 38 30 167 22 32 168 38 31 169 21 30 170 22 32 171 38 34 172 39 31 173 21 34 174 39 33 175 20 31 176 21 34 177 39 26 178 30 33 179 20 35 180 40 26 181 30 34 182 39 32 183 38 35 184 40 34 185 39 36 186 37 35 187 40 32 188 38 37 189 36 35 190 40 36 191 37 38 192 35 35 193 40 37 194 36 29 195 34 35 196 40 38 197 35 28 198 33 35 199 40 29 200 34 39 201 32 35 202 40 28 203 33 40 204 31 35 205 40 39 206 32 40 207 31 26 208 30 35 209 40</p>
        </triangles>
      </mesh>
    </geometry>
    <geometry id="SM_Barnacle_01_LOD1-lib" name="SM_Barnacle_01_LOD1Mesh">
      <mesh>
        <source id="SM_Barnacle_01_LOD1-POSITION">
          <float_array id="SM_Barnacle_01_LOD1-POSITION-array" count="69">
-0.214066 -3.574768 0.000001
3.420677 -1.542816 0.000000
0.582157 3.597382 -0.000000
-3.420677 0.768524 0.000000
-0.545036 -0.585632 1.640957
-1.900204 -2.880615 0.000001
1.138752 -0.439606 1.114854
-2.081398 0.069031 1.082716
0.065224 2.225708 0.249328
3.329060 0.455536 0.000000
-1.846512 -0.839203 1.215451
0.592392 0.833893 1.098789
2.144817 -0.468170 0.166013
-1.844223 2.721863 -0.000000
0.134197 -2.456726 0.158357
-3.136555 -1.101593 0.000000
1.673386 1.631653 0.171011
-1.590614 -2.227783 0.171011
-2.583260 -0.936432 0.171011
2.253780 2.285919 -0.000000
-2.696098 0.654968 0.158783
-0.507828 -1.673645 1.117323
-1.298668 0.964569 0.906159
</float_array>
          <technique_common>
            <accessor source="#SM_Barnacle_01_LOD1-POSITION-array" count="23" stride="3">
              <param name="X" type="float"/>
              <param name="Y" type="float"/>
              <param name="Z" type="float"/>
            </accessor>
          </technique_common>
        </source>
        <source id="SM_Barnacle_01_LOD1-Normal0">
          <float_array id="SM_Barnacle_01_LOD1-Normal0-array" count="315">
0.006085 -0.069790 0.997543
0.520899 -0.175730 0.835334
0.236383 0.371252 0.897939
-0.290174 0.573669 0.765965
0.006085 -0.069790 0.997543
0.236383 0.371252 0.897939
0.520899 -0.175730 0.835334
0.039763 -0.606142 0.794362
0.176050 -0.384034 0.906380
-0.524419 -0.289054 0.800895
-0.576869 0.202252 0.791401
-0.515379 -0.193870 0.834745
0.176050 -0.384034 0.906380
0.039763 -0.606142 0.794362
-0.244585 -0.387558 0.888806
0.320439 -0.084511 0.943492
0.520899 -0.175730 0.835334
0.176050 -0.384034 0.906380
0.236383 0.371252 0.897939
0.520899 -0.175730 0.835334
0.252503 0.215054 0.943395
-0.385627 0.220778 0.895851
-0.290174 0.573669 0.765965
-0.007068 0.336097 0.941801
-0.515379 -0.193870 0.834745
-0.576869 0.202252 0.791401
-0.385627 0.220778 0.895851
-0.099338 0.114416 0.988454
-0.007068 0.336097 0.941801
0.034048 0.166300 0.985487
-0.007068 0.336097 0.941801
0.252503 0.215054 0.943395
0.137885 0.128542 0.982072
0.085316 -0.052414 0.994974
0.320439 -0.084511 0.943492
0.019024 -0.152006 0.988196
-0.524419 -0.289054 0.800895
0.006085 -0.069790 0.997543
-0.576869 0.202252 0.791401
0.039763 -0.606142 0.794362
-0.524419 -0.289054 0.800895
-0.244585 -0.387558 0.888806
-0.290174 0.573669 0.765965
0.236383 0.371252 0.897939
-0.007068 0.336097 0.941801
0.236383 0.371252 0.897939
0.252503 0.215054 0.943395
-0.007068 0.336097 0.941801
0.133823 0.030462 0.990537
0.320439 -0.084511 0.943492
0.085316 -0.052414 0.994974
0.252503 0.215054 0.943395
0.520899 -0.175730 0.835334
0.320439 -0.084511 0.943492
-0.184719 0.060081 0.980953
-0.007068 0.336097 0.941801
-0.099338 0.114416 0.988454
0.176050 -0.384034 0.906380
-0.244585 -0.387558 0.888806
0.019024 -0.152006 0.988196
0.320439 -0.084511 0.943492
0.176050 -0.384034 0.906380
0.019024 -0.152006 0.988196
-0.244585 -0.387558 0.888806
-0.524419 -0.289054 0.800895
-0.515379 -0.193870 0.834745
0.137885 0.128542 0.982072
0.252503 0.215054 0.943395
0.133823 0.030462 0.990537
0.252503 0.215054 0.943395
0.320439 -0.084511 0.943492
0.133823 0.030462 0.990537
0.019024 -0.152006 0.988196
-0.244585 -0.387558 0.888806
-0.141041 -0.187743 0.972039
-0.141041 -0.187743 0.972039
-0.244585 -0.387558 0.888806
-0.254305 -0.092353 0.962704
-0.515379 -0.193870 0.834745
-0.385627 0.220778 0.895851
-0.254305 -0.092353 0.962704
-0.244585 -0.387558 0.888806
-0.515379 -0.193870 0.834745
-0.254305 -0.092353 0.962704
-0.007068 0.336097 0.941801
0.137885 0.128542 0.982072
0.034048 0.166300 0.985487
-0.385627 0.220778 0.895851
-0.007068 0.336097 0.941801
-0.184719 0.060081 0.980953
-0.254305 -0.092353 0.962704
-0.385627 0.220778 0.895851
-0.184719 0.060081 0.980953
0.039763 -0.606142 0.794362
0.006085 -0.069790 0.997543
-0.524419 -0.289054 0.800895
0.520899 -0.175730 0.835334
0.006085 -0.069790 0.997543
0.039763 -0.606142 0.794362
-0.576869 0.202252 0.791401
0.006085 -0.069790 0.997543
-0.290174 0.573669 0.765965
-0.576869 0.202252 0.791401
-0.290174 0.573669 0.765965
-0.385627 0.220778 0.895851
</float_array>
          <technique_common>
            <accessor source="#SM_Barnacle_01_LOD1-Normal0-array" count="105" stride="3">
              <param name="X" type="float"/>
              <param name="Y" type="float"/>
              <param name="Z" type="float"/>
            </accessor>
          </technique_common>
        </source>
        <source id="SM_Barnacle_01_LOD1-UV0">
          <float_array id="SM_Barnacle_01_LOD1-UV0-array" count="46">
0.362061 0.331055
0.405273 0.320313
0.393066 0.274414
0.436768 0.305664
0.401810 0.353267
0.419689 0.322986
0.363037 0.309082
0.419678 0.284180
0.375930 0.319087
0.398758 0.289563
0.420166 0.345703
0.433838 0.326172
0.374756 0.289063
0.405029 0.332031
0.422178 0.313115
0.387010 0.318745
0.398007 0.340601
0.381104 0.295898
0.427734 0.324219
0.416748 0.338379
0.428955 0.306641
0.413573 0.303231
0.392941 0.304857
</float_array>
          <technique_common>
            <accessor source="#SM_Barnacle_01_LOD1-UV0-array" count="23" stride="2">
              <param name="S" type="float"/>
              <param name="T" type="float"/>
            </accessor>
          </technique_common>
        </source>
        <vertices id="SM_Barnacle_01_LOD1-VERTEX">
          <input semantic="POSITION" source="#SM_Barnacle_01_LOD1-POSITION"/>
        </vertices>
        <triangles count="35" material="MAT_Sea_Shells">
          <input semantic="VERTEX" offset="0" source="#SM_Barnacle_01_LOD1-VERTEX"/>
          <input semantic="NORMAL" offset="1" source="#SM_Barnacle_01_LOD1-Normal0"/>
          <input semantic="TEXCOORD" offset="2" set="0" source="#SM_Barnacle_01_LOD1-UV0"/>
          <p> 4 0 1 6 1 15 11 2 22 22 3 21 4 4 1 11 5 22 6 6 15 21 7 13 14 8 16 10 9 5 7 10 14 18 11 18 14 12 16 21 13 13 17 14 19 12 15 8 6 16 15 14 17 16 11 18 22 6 19 15 16 20 17 20 21 20 22 22 21 8 23 9 18 24 18 7 25 14 20 26 20 13 27 7 8 28 9 2 29 2 8 30 9 16 31 17 19 32 12 1 33 0 12 34 8 0 35 4 10 36 5 4 37 1 7 38 14 21 39 13 10 40 5 17 41 19 22 42 21 11 43 22 8 44 9 11 45 22 16 46 17 8 47 9 9 48 6 12 49 8 1 50 0 16 51 17 6 52 15 12 53 8 3 54 3 8 55 9 13 56 7 14 57 16 17 58 19 0 59 4 12 60 8 14 61 16 0 62 4 17 63 19 10 64 5 18 65 18 19 66 12 16 67 17 9 68 6 16 69 17 12 70 8 9 71 6 0 72 4 17 73 19 5 74 10 5 75 10 17 76 19 15 77 11 18 78 18 20 79 20 15 80 11 17 81 19 18 82 18 15 83 11 8 84 9 19 85 12 2 86 2 20 87 20 8 88 9 3 89 3 15 90 11 20 91 20 3 92 3 21 93 13 4 94 1 10 95 5 6 96 15 4 97 1 21 98 13 7 99 14 4 100 1 22 101 21 7 102 14 22 103 21 20 104 20</p>
        </triangles>
      </mesh>
    </geometry>
  </library_geometries>
  <library_visual_scenes>
    <visual_scene id="SM_Barnacle_01" name="SM_Barnacle_01">
      <node name="SM_Barnacle_01_LOD0" id="SM_Barnacle_01_LOD0" layer="shells" sid="SM_Barnacle_01_LOD0">
        <matrix sid="matrix">1.000000 0.000000 0.000000 0.000000 0.000000 0.000000 1.000000 0.000000 0.000000 -1.000000 0.000000 0.000000 0.000000 0.000000 0.000000 1.000000</matrix>
        <instance_geometry url="#SM_Barnacle_01_LOD0-lib">
          <bind_material>
            <technique_common>
              <instance_material symbol="MAT_Sea_Shells" target="#MAT_Sea_Shells"/>
            </technique_common>
          </bind_material>
        </instance_geometry>
        <extra>
          <technique profile="FCOLLADA">
            <visibility>1.000000</visibility>
          </technique>
        </extra>
      </node>
      <node name="SM_Barnacle_01_LOD1" id="SM_Barnacle_01_LOD1" layer="shells" sid="SM_Barnacle_01_LOD1">
        <matrix sid="matrix">1.000000 0.000000 0.000000 0.000000 0.000000 0.000000 1.000000 0.000000 0.000000 -1.000000 0.000000 0.000000 0.000000 0.000000 0.000000 1.000000</matrix>
        <instance_geometry url="#SM_Barnacle_01_LOD1-lib">
          <bind_material>
            <technique_common>
              <instance_material symbol="MAT_Sea_Shells" target="#MAT_Sea_Shells"/>
            </technique_common>
          </bind_material>
        </instance_geometry>
        <extra>
          <technique profile="FCOLLADA">
            <visibility>1.000000</visibility>
          </technique>
        </extra>
      </node>
      <extra>
        <technique profile="MAX3D">
          <frame_rate>30.000000</frame_rate>
        </technique>
        <technique profile="FCOLLADA">
          <start_time>0.000000</start_time>
          <end_time>3.333333</end_time>
        </technique>
      </extra>
    </visual_scene>
  </library_visual_scenes>
  <scene>
    <instance_visual_scene url="#SM_Barnacle_01"/>
  </scene>
</COLLADA>
