<?xml version="1.0" encoding="utf-8"?>
<COLLADA xmlns="http://www.collada.org/2005/11/COLLADASchema" version="1.4.1">
  <asset>
    <contributor>
      <author/>
      <authoring_tool>FBX COLLADA exporter</authoring_tool>
      <comments/>
    </contributor>
    <created>2024-02-10T11:42:31Z</created>
    <keywords/>
    <modified>2024-02-10T11:42:31Z</modified>
    <revision/>
    <subject/>
    <title/>
    <unit meter="0.010000" name="centimeter"/>
    <up_axis>Y_UP</up_axis>
  </asset>
  <library_materials>
    <material id="MAT_Sea_Shells" name="MAT_Sea_Shells">
      <instance_effect url="#MAT_Sea_Shells-fx"/>
    </material>
  </library_materials>
  <library_effects>
    <effect id="MAT_Sea_Shells-fx" name="MAT_Sea_Shells">
      <profile_COMMON>
        <technique sid="standard">
          <phong>
            <emission>
              <color sid="emission">0.000000  0.000000 0.000000 1.000000</color>
            </emission>
            <ambient>
              <color sid="ambient">0.588235  0.588235 0.588235 1.000000</color>
            </ambient>
            <diffuse>
              <color sid="diffuse">0.588235  0.588235 0.588235 1.000000</color>
            </diffuse>
            <specular>
              <color sid="specular">0.000000  0.000000 0.000000 1.000000</color>
            </specular>
            <shininess>
              <float sid="shininess">2.000000</float>
            </shininess>
            <reflective>
              <color sid="reflective">0.000000  0.000000 0.000000 1.000000</color>
            </reflective>
            <reflectivity>
              <float sid="reflectivity">1.000000</float>
            </reflectivity>
            <transparent opaque="RGB_ZERO">
              <color sid="transparent">1.000000  1.000000 1.000000 1.000000</color>
            </transparent>
            <transparency>
              <float sid="transparency">0.000000</float>
            </transparency>
          </phong>
        </technique>
      </profile_COMMON>
    </effect>
  </library_effects>
  <library_geometries>
    <geometry id="SM_Barnacle_05_LOD0-lib" name="SM_Barnacle_05_LOD0Mesh">
      <mesh>
        <source id="SM_Barnacle_05_LOD0-POSITION">
          <float_array id="SM_Barnacle_05_LOD0-POSITION-array" count="195">
3.612211 -0.012482 -0.000000
3.228350 -1.038025 0.000000
3.266932 1.015869 -0.000000
2.373697 1.987335 -0.000000
2.156808 1.628418 0.099830
1.122421 2.434265 -0.000000
-0.173047 2.768005 -0.000000
-1.503487 2.650604 -0.000000
-2.168589 1.763275 0.099830
-2.698477 2.109833 -0.000000
-3.425874 1.232117 -0.000000
-3.612212 0.095154 -0.000000
-3.422825 -0.979034 0.000000
-2.835117 -1.962402 0.000000
-2.811551 -0.835815 0.116299
-2.272892 -1.658905 0.099830
-1.683815 -2.676941 0.000000
-0.265440 -2.767975 0.000000
1.036381 -2.469635 0.000000
-0.103013 -2.345459 0.075377
2.230289 -1.928192 0.000000
2.053028 -1.645813 0.099830
2.895952 -0.888916 0.116299
3.212543 -0.014252 0.122959
2.954039 -0.012177 0.473162
2.927929 0.863373 0.116299
2.728127 0.735657 0.456474
2.075476 1.385590 0.415206
1.084977 2.081116 0.082662
0.182234 1.977814 0.353929
-0.025505 2.345947 0.075377
-1.158709 2.234467 0.082662
-1.623634 1.446625 0.415206
-2.805091 1.014282 0.116299
-2.192013 0.808594 0.456474
-2.987873 0.070435 0.122959
-2.387050 0.048096 0.473162
-2.212420 -0.706848 0.456474
-1.692188 -1.381409 0.415206
-1.291290 -2.243103 0.082662
1.010270 -2.110077 0.082662
1.998875 -1.396881 0.415206
2.022478 -0.002899 1.208918
1.722381 0.583649 1.189269
1.136623 1.785217 0.372182
0.964650 0.833710 1.169220
-0.779698 1.864166 0.372182
-0.108297 0.021210 1.208918
-0.857296 -1.836914 0.372182
0.194469 -0.565338 1.189269
0.118534 -1.964813 0.353929
0.534012 -0.747925 1.175134
0.937781 -0.815247 1.169220
1.070883 -1.796143 0.372182
2.702503 -0.756683 0.456474
1.939089 -0.317566 1.203203
1.703345 -0.582428 1.189269
1.345737 -0.757111 1.175134
-0.032001 -0.295258 1.203203
1.123162 0.007324 1.480213
-0.021664 0.335846 1.203203
0.213507 0.600708 1.189269
0.558897 0.775543 1.175134
1.370638 0.766357 1.175134
1.949393 0.313538 1.203203
</float_array>
          <technique_common>
            <accessor source="#SM_Barnacle_05_LOD0-POSITION-array" count="65" stride="3">
              <param name="X" type="float"/>
              <param name="Y" type="float"/>
              <param name="Z" type="float"/>
            </accessor>
          </technique_common>
        </source>
        <source id="SM_Barnacle_05_LOD0-Normal0">
          <float_array id="SM_Barnacle_05_LOD0-Normal0-array" count="1008">
0.575468 -0.010747 0.817754
0.247383 -0.173068 0.953336
0.290299 -0.004888 0.956924
0.241494 0.147629 0.959107
0.575468 -0.010747 0.817754
0.290299 -0.004888 0.956924
0.490115 0.304239 0.816839
0.575468 -0.010747 0.817754
0.241494 0.147629 0.959107
0.135851 0.208187 0.968608
0.490115 0.304239 0.816839
0.241494 0.147629 0.959107
0.298285 0.456713 0.838116
0.490115 0.304239 0.816839
0.135851 0.208187 0.968608
0.143647 0.473953 0.868754
0.298285 0.456713 0.838116
0.135851 0.208187 0.968608
0.063551 0.214100 0.974742
0.143647 0.473953 0.868754
0.135851 0.208187 0.968608
0.032267 0.425339 0.904459
0.143647 0.473953 0.868754
0.063551 0.214100 0.974742
0.016628 0.192690 0.981119
0.032267 0.425339 0.904459
0.063551 0.214100 0.974742
-0.085032 0.358725 0.929562
0.032267 0.425339 0.904459
0.016628 0.192690 0.981119
-0.040090 0.169182 0.984769
-0.085032 0.358725 0.929562
0.016628 0.192690 0.981119
-0.188709 0.278688 0.941659
-0.085032 0.358725 0.929562
-0.040090 0.169182 0.984769
-0.096726 0.137758 0.985732
-0.188709 0.278688 0.941659
-0.040090 0.169182 0.984769
-0.286532 0.153542 0.945687
-0.188709 0.278688 0.941659
-0.096726 0.137758 0.985732
-0.155497 0.077260 0.984811
-0.286532 0.153542 0.945687
-0.096726 0.137758 0.985732
-0.184822 -0.000978 0.982771
-0.286532 0.153542 0.945687
-0.155497 0.077260 0.984811
-0.337266 -0.000978 0.941409
-0.286532 0.153542 0.945687
-0.184822 -0.000978 0.982771
-0.165129 -0.067425 0.983965
-0.337266 -0.000978 0.941409
-0.184822 -0.000978 0.982771
-0.304221 -0.141835 0.941983
-0.337266 -0.000978 0.941409
-0.165129 -0.067425 0.983965
-0.110483 -0.120270 0.986574
-0.304221 -0.141835 0.941983
-0.165129 -0.067425 0.983965
-0.210190 -0.249290 0.945344
-0.304221 -0.141835 0.941983
-0.110483 -0.120270 0.986574
-0.043988 -0.159335 0.986244
-0.210190 -0.249290 0.945344
-0.110483 -0.120270 0.986574
-0.092876 -0.335313 0.937518
-0.210190 -0.249290 0.945344
-0.043988 -0.159335 0.986244
0.016603 -0.190449 0.981557
-0.092876 -0.335313 0.937518
-0.043988 -0.159335 0.986244
0.026369 -0.411154 0.911184
-0.092876 -0.335313 0.937518
0.016603 -0.190449 0.981557
0.071311 -0.223709 0.972044
0.026369 -0.411154 0.911184
0.016603 -0.190449 0.981557
0.143671 -0.470114 0.870834
0.026369 -0.411154 0.911184
0.071311 -0.223709 0.972044
0.151515 -0.239504 0.959000
0.143671 -0.470114 0.870834
0.071311 -0.223709 0.972044
0.300263 -0.476299 0.826427
0.143671 -0.470114 0.870834
0.151515 -0.239504 0.959000
0.483397 -0.333014 0.809586
0.300263 -0.476299 0.826427
0.151515 -0.239504 0.959000
0.247383 -0.173068 0.953336
0.483397 -0.333014 0.809586
0.151515 -0.239504 0.959000
0.575468 -0.010747 0.817754
0.483397 -0.333014 0.809586
0.247383 -0.173068 0.953336
0.724432 -0.012710 0.689229
0.483397 -0.333014 0.809586
0.575468 -0.010747 0.817754
0.490115 0.304239 0.816839
0.724432 -0.012710 0.689229
0.575468 -0.010747 0.817754
0.623064 0.390276 0.677847
0.724432 -0.012710 0.689229
0.490115 0.304239 0.816839
0.395513 0.612308 0.684579
0.623064 0.390276 0.677847
0.490115 0.304239 0.816839
0.298285 0.456713 0.838116
0.395513 0.612308 0.684579
0.490115 0.304239 0.816839
0.194479 0.661626 0.724175
0.395513 0.612308 0.684579
0.298285 0.456713 0.838116
0.143647 0.473953 0.868754
0.194479 0.661626 0.724175
0.298285 0.456713 0.838116
0.034228 0.613175 0.789205
0.194479 0.661626 0.724175
0.143647 0.473953 0.868754
0.032267 0.425339 0.904459
0.034228 0.613175 0.789205
0.143647 0.473953 0.868754
-0.122076 0.514663 0.848658
0.034228 0.613175 0.789205
0.032267 0.425339 0.904459
-0.085032 0.358725 0.929562
-0.122076 0.514663 0.848658
0.032267 0.425339 0.904459
-0.245500 0.386346 0.889082
-0.122076 0.514663 0.848658
-0.085032 0.358725 0.929562
-0.188709 0.278688 0.941659
-0.245500 0.386346 0.889082
-0.085032 0.358725 0.929562
-0.348614 0.211893 0.913001
-0.245500 0.386346 0.889082
-0.188709 0.278688 0.941659
-0.286532 0.153542 0.945687
-0.348614 0.211893 0.913001
-0.188709 0.278688 0.941659
-0.397682 0.002932 0.917518
-0.348614 0.211893 0.913001
-0.286532 0.153542 0.945687
-0.337266 -0.000978 0.941409
-0.397682 0.002932 0.917518
-0.286532 0.153542 0.945687
-0.304221 -0.141835 0.941983
-0.397682 0.002932 0.917518
-0.337266 -0.000978 0.941409
-0.363089 -0.194759 0.911173
-0.397682 0.002932 0.917518
-0.304221 -0.141835 0.941983
-0.210190 -0.249290 0.945344
-0.363089 -0.194759 0.911173
-0.304221 -0.141835 0.941983
-0.265051 -0.358952 0.894931
-0.363089 -0.194759 0.911173
-0.210190 -0.249290 0.945344
-0.092876 -0.335313 0.937518
-0.265051 -0.358952 0.894931
-0.210190 -0.249290 0.945344
-0.129992 -0.491619 0.861054
-0.265051 -0.358952 0.894931
-0.092876 -0.335313 0.937518
0.026369 -0.411154 0.911184
-0.129992 -0.491619 0.861054
-0.092876 -0.335313 0.937518
0.024459 -0.597786 0.801282
-0.129992 -0.491619 0.861054
0.026369 -0.411154 0.911184
0.143671 -0.470114 0.870834
0.024459 -0.597786 0.801282
0.026369 -0.411154 0.911184
0.186598 -0.655543 0.731741
0.024459 -0.597786 0.801282
0.143671 -0.470114 0.870834
0.300263 -0.476299 0.826427
0.186598 -0.655543 0.731741
0.143671 -0.470114 0.870834
0.385927 -0.622354 0.680981
0.186598 -0.655543 0.731741
0.300263 -0.476299 0.826427
0.483397 -0.333014 0.809586
0.385927 -0.622354 0.680981
0.300263 -0.476299 0.826427
0.610614 -0.417173 0.673140
0.385927 -0.622354 0.680981
0.483397 -0.333014 0.809586
0.724432 -0.012710 0.689229
0.610614 -0.417173 0.673140
0.483397 -0.333014 0.809586
0.464726 -0.006849 0.885428
0.610614 -0.417173 0.673140
0.724432 -0.012710 0.689229
0.623064 0.390276 0.677847
0.464726 -0.006849 0.885428
0.724432 -0.012710 0.689229
0.411367 0.256976 0.874494
0.464726 -0.006849 0.885428
0.623064 0.390276 0.677847
0.274743 0.431176 0.859420
0.411367 0.256976 0.874494
0.623064 0.390276 0.677847
0.395513 0.612308 0.684579
0.274743 0.431176 0.859420
0.623064 0.390276 0.677847
0.135851 0.493539 0.859048
0.274743 0.431176 0.859420
0.395513 0.612308 0.684579
0.194479 0.661626 0.724175
0.135851 0.493539 0.859048
0.395513 0.612308 0.684579
0.014675 0.476265 0.879180
0.135851 0.493539 0.859048
0.194479 0.661626 0.724175
0.034228 0.613175 0.789205
0.014675 0.476265 0.879180
0.194479 0.661626 0.724175
-0.094754 0.409288 0.907471
0.014675 0.476265 0.879180
0.034228 0.613175 0.789205
-0.122076 0.514663 0.848658
-0.094754 0.409288 0.907471
0.034228 0.613175 0.789205
-0.178820 0.305849 0.935136
-0.094754 0.409288 0.907471
-0.122076 0.514663 0.848658
-0.245500 0.386346 0.889082
-0.178820 0.305849 0.935136
-0.122076 0.514663 0.848658
-0.237515 0.167141 0.956896
-0.178820 0.305849 0.935136
-0.245500 0.386346 0.889082
-0.348614 0.211893 0.913001
-0.237515 0.167141 0.956896
-0.245500 0.386346 0.889082
-0.261130 0.002935 0.965299
-0.237515 0.167141 0.956896
-0.348614 0.211893 0.913001
-0.397682 0.002932 0.917518
-0.261130 0.002935 0.965299
-0.348614 0.211893 0.913001
-0.363089 -0.194759 0.911173
-0.261130 0.002935 0.965299
-0.397682 0.002932 0.917518
-0.243422 -0.157393 0.957065
-0.261130 0.002935 0.965299
-0.363089 -0.194759 0.911173
-0.265051 -0.358952 0.894931
-0.243422 -0.157393 0.957065
-0.363089 -0.194759 0.911173
-0.188461 -0.295878 0.936450
-0.243422 -0.157393 0.957065
-0.265051 -0.358952 0.894931
-0.129992 -0.491619 0.861054
-0.188461 -0.295878 0.936450
-0.265051 -0.358952 0.894931
-0.102633 -0.401722 0.909992
-0.188461 -0.295878 0.936450
-0.129992 -0.491619 0.861054
0.024459 -0.597786 0.801282
-0.102633 -0.401722 0.909992
-0.129992 -0.491619 0.861054
0.004888 -0.472462 0.881338
-0.102633 -0.401722 0.909992
0.024459 -0.597786 0.801282
0.186598 -0.655543 0.731741
0.004888 -0.472462 0.881338
0.024459 -0.597786 0.801282
0.128161 -0.494049 0.859936
0.004888 -0.472462 0.881338
0.186598 -0.655543 0.731741
0.385927 -0.622354 0.680981
0.128161 -0.494049 0.859936
0.186598 -0.655543 0.731741
0.266791 -0.440747 0.857068
0.128161 -0.494049 0.859936
0.385927 -0.622354 0.680981
0.610614 -0.417173 0.673140
0.266791 -0.440747 0.857068
0.385927 -0.622354 0.680981
0.403833 -0.272813 0.873208
0.266791 -0.440747 0.857068
0.610614 -0.417173 0.673140
0.464726 -0.006849 0.885428
0.403833 -0.272813 0.873208
0.610614 -0.417173 0.673140
0.018573 -0.000978 0.999827
0.403833 -0.272813 0.873208
0.464726 -0.006849 0.885428
0.018573 -0.000978 0.999827
0.266791 -0.440747 0.857068
0.403833 -0.272813 0.873208
0.018573 -0.000978 0.999827
0.128161 -0.494049 0.859936
0.266791 -0.440747 0.857068
0.018573 -0.000978 0.999827
0.004888 -0.472462 0.881338
0.128161 -0.494049 0.859936
0.018573 -0.000978 0.999827
-0.102633 -0.401722 0.909992
0.004888 -0.472462 0.881338
0.018573 -0.000978 0.999827
-0.188461 -0.295878 0.936450
-0.102633 -0.401722 0.909992
0.018573 -0.000978 0.999827
-0.243422 -0.157393 0.957065
-0.188461 -0.295878 0.936450
0.018573 -0.000978 0.999827
-0.261130 0.002935 0.965299
-0.243422 -0.157393 0.957065
0.018573 -0.000978 0.999827
-0.237515 0.167141 0.956896
-0.261130 0.002935 0.965299
0.018573 -0.000978 0.999827
-0.178820 0.305849 0.935136
-0.237515 0.167141 0.956896
0.018573 -0.000978 0.999827
-0.094754 0.409288 0.907471
-0.178820 0.305849 0.935136
0.018573 -0.000978 0.999827
0.014675 0.476265 0.879180
-0.094754 0.409288 0.907471
0.018573 -0.000978 0.999827
0.135851 0.493539 0.859048
0.014675 0.476265 0.879180
0.018573 -0.000978 0.999827
0.274743 0.431176 0.859420
0.135851 0.493539 0.859048
0.018573 -0.000978 0.999827
0.411367 0.256976 0.874494
0.274743 0.431176 0.859420
0.464726 -0.006849 0.885428
0.411367 0.256976 0.874494
0.018573 -0.000978 0.999827
</float_array>
          <technique_common>
            <accessor source="#SM_Barnacle_05_LOD0-Normal0-array" count="336" stride="3">
              <param name="X" type="float"/>
              <param name="Y" type="float"/>
              <param name="Z" type="float"/>
            </accessor>
          </technique_common>
        </source>
        <source id="SM_Barnacle_05_LOD0-UV0">
          <float_array id="SM_Barnacle_05_LOD0-UV0-array" count="130">
0.095703 0.451660
0.094238 0.459961
0.098267 0.453125
0.101807 0.446777
0.103394 0.448730
0.111206 0.443848
0.111206 0.446777
0.119751 0.448242
0.120850 0.445801
0.127808 0.450684
0.130371 0.448242
0.134644 0.455566
0.138428 0.454102
0.139282 0.462402
0.143921 0.462402
0.140503 0.469727
0.145264 0.470703
0.142212 0.478516
0.138062 0.476563
0.136841 0.484863
0.133545 0.481445
0.129395 0.488770
0.126953 0.484863
0.119385 0.488770
0.118530 0.484863
0.109985 0.483887
0.110535 0.480957
0.102783 0.477051
0.104309 0.475098
0.097229 0.469238
0.099426 0.468262
0.096924 0.459961
0.099915 0.454102
0.104187 0.450195
0.110779 0.448730
0.118286 0.449707
0.125122 0.452148
0.130859 0.456543
0.134644 0.462402
0.135742 0.468750
0.134155 0.474121
0.130127 0.478516
0.124329 0.480469
0.117310 0.480469
0.110596 0.477539
0.105164 0.472656
0.100708 0.466797
0.098694 0.459961
0.105896 0.458008
0.107544 0.456055
0.109985 0.455078
0.112976 0.455566
0.115784 0.456543
0.118164 0.458496
0.119690 0.460938
0.120178 0.463379
0.119568 0.465820
0.117859 0.467285
0.115417 0.468262
0.112549 0.468262
0.109741 0.467285
0.107361 0.465332
0.105713 0.462891
0.105225 0.459961
0.111633 0.460938
</float_array>
          <technique_common>
            <accessor source="#SM_Barnacle_05_LOD0-UV0-array" count="65" stride="2">
              <param name="S" type="float"/>
              <param name="T" type="float"/>
            </accessor>
          </technique_common>
        </source>
        <vertices id="SM_Barnacle_05_LOD0-VERTEX">
          <input semantic="POSITION" source="#SM_Barnacle_05_LOD0-POSITION"/>
        </vertices>
        <triangles count="112" material="MAT_Sea_Shells">
          <input semantic="VERTEX" offset="0" source="#SM_Barnacle_05_LOD0-VERTEX"/>
          <input semantic="NORMAL" offset="1" source="#SM_Barnacle_05_LOD0-Normal0"/>
          <input semantic="TEXCOORD" offset="2" set="0" source="#SM_Barnacle_05_LOD0-UV0"/>
          <p> 23 0 2 1 1 1 0 2 0 2 3 3 23 4 2 0 5 0 25 6 4 23 7 2 2 8 3 3 9 5 25 10 4 2 11 3 4 12 6 25 13 4 3 14 5 28 15 7 4 16 6 3 17 5 5 18 8 28 19 7 3 20 5 30 21 9 28 22 7 5 23 8 6 24 10 30 25 9 5 26 8 31 27 11 30 28 9 6 29 10 7 30 12 31 31 11 6 32 10 8 33 13 31 34 11 7 35 12 9 36 14 8 37 13 7 38 12 33 39 15 8 40 13 9 41 14 10 42 16 33 43 15 9 44 14 11 45 17 33 46 15 10 47 16 35 48 18 33 49 15 11 50 17 12 51 19 35 52 18 11 53 17 14 54 20 35 55 18 12 56 19 13 57 21 14 58 20 12 59 19 15 60 22 14 61 20 13 62 21 16 63 23 15 64 22 13 65 21 39 66 24 15 67 22 16 68 23 17 69 25 39 70 24 16 71 23 19 72 26 39 73 24 17 74 25 18 75 27 19 76 26 17 77 25 40 78 28 19 79 26 18 80 27 20 81 29 40 82 28 18 83 27 21 84 30 40 85 28 20 86 29 22 87 31 21 88 30 20 89 29 1 90 1 22 91 31 20 92 29 23 93 2 22 94 31 1 95 1 24 96 32 22 97 31 23 98 2 25 99 4 24 100 32 23 101 2 26 102 33 24 103 32 25 104 4 27 105 34 26 106 33 25 107 4 4 108 6 27 109 34 25 110 4 44 111 35 27 112 34 4 113 6 28 114 7 44 115 35 4 116 6 29 117 36 44 118 35 28 119 7 30 120 9 29 121 36 28 122 7 46 123 37 29 124 36 30 125 9 31 126 11 46 127 37 30 128 9 32 129 38 46 130 37 31 131 11 8 132 13 32 133 38 31 134 11 34 135 39 32 136 38 8 137 13 33 138 15 34 139 39 8 140 13 36 141 40 34 142 39 33 143 15 35 144 18 36 145 40 33 146 15 14 147 20 36 148 40 35 149 18 37 150 41 36 151 40 14 152 20 15 153 22 37 154 41 14 155 20 38 156 42 37 157 41 15 158 22 39 159 24 38 160 42 15 161 22 48 162 43 38 163 42 39 164 24 19 165 26 48 166 43 39 167 24 50 168 44 48 169 43 19 170 26 40 171 28 50 172 44 19 173 26 53 174 45 50 175 44 40 176 28 21 177 30 53 178 45 40 179 28 41 180 46 53 181 45 21 182 30 22 183 31 41 184 46 21 185 30 54 186 47 41 187 46 22 188 31 24 189 32 54 190 47 22 191 31 42 192 48 54 193 47 24 194 32 26 195 33 42 196 48 24 197 32 64 198 49 42 199 48 26 200 33 43 201 50 64 202 49 26 203 33 27 204 34 43 205 50 26 206 33 63 207 51 43 208 50 27 209 34 44 210 35 63 211 51 27 212 34 45 213 52 63 214 51 44 215 35 29 216 36 45 217 52 44 218 35 62 219 53 45 220 52 29 221 36 46 222 37 62 223 53 29 224 36 61 225 54 62 226 53 46 227 37 32 228 38 61 229 54 46 230 37 60 231 55 61 232 54 32 233 38 34 234 39 60 235 55 32 236 38 47 237 56 60 238 55 34 239 39 36 240 40 47 241 56 34 242 39 37 243 41 47 244 56 36 245 40 58 246 57 47 247 56 37 248 41 38 249 42 58 250 57 37 251 41 49 252 58 58 253 57 38 254 42 48 255 43 49 256 58 38 257 42 51 258 59 49 259 58 48 260 43 50 261 44 51 262 59 48 263 43 52 264 60 51 265 59 50 266 44 53 267 45 52 268 60 50 269 44 57 270 61 52 271 60 53 272 45 41 273 46 57 274 61 53 275 45 56 276 62 57 277 61 41 278 46 54 279 47 56 280 62 41 281 46 55 282 63 56 283 62 54 284 47 42 285 48 55 286 63 54 287 47 59 288 64 55 289 63 42 290 48 59 291 64 56 292 62 55 293 63 59 294 64 57 295 61 56 296 62 59 297 64 52 298 60 57 299 61 59 300 64 51 301 59 52 302 60 59 303 64 49 304 58 51 305 59 59 306 64 58 307 57 49 308 58 59 309 64 47 310 56 58 311 57 59 312 64 60 313 55 47 314 56 59 315 64 61 316 54 60 317 55 59 318 64 62 319 53 61 320 54 59 321 64 45 322 52 62 323 53 59 324 64 63 325 51 45 326 52 59 327 64 43 328 50 63 329 51 59 330 64 64 331 49 43 332 50 42 333 48 64 334 49 59 335 64</p>
        </triangles>
      </mesh>
    </geometry>
    <geometry id="SM_Barnacle_05_LOD1-lib" name="SM_Barnacle_05_LOD1Mesh">
      <mesh>
        <source id="SM_Barnacle_05_LOD1-POSITION">
          <float_array id="SM_Barnacle_05_LOD1-POSITION-array" count="96">
1.092191 0.007660 1.473390
2.230289 -1.928192 0.000000
-3.425874 1.232117 -0.000000
-2.835117 -1.962402 0.000000
-0.084765 2.745270 -0.000000
-3.612212 0.095154 -0.000000
3.612211 -0.012482 -0.000000
0.154000 -2.671844 0.000000
1.796507 0.495453 1.193819
2.150944 1.610901 0.122569
-2.698477 2.109833 -0.000000
1.438786 -0.662872 1.182341
2.373697 1.987335 -0.000000
2.048496 -1.625000 0.126225
0.734118 0.762177 1.175373
-1.878718 -1.875580 0.102293
-2.312589 -0.273834 0.466046
3.190296 -0.014069 0.153098
2.892426 0.840698 0.176746
2.859802 -0.864197 0.179867
1.996540 -0.100769 1.207140
-1.731183 1.967346 0.092394
-2.716111 0.984436 0.165671
-1.683815 -2.676941 0.000000
-2.898837 -0.387177 0.119596
0.573842 -2.202362 0.079806
0.411798 2.241669 0.078246
3.266932 1.015869 -0.000000
3.228350 -1.038025 0.000000
-1.503487 2.650604 -0.000000
0.194469 -0.565338 1.189269
-3.422825 -0.979034 0.000000
</float_array>
          <technique_common>
            <accessor source="#SM_Barnacle_05_LOD1-POSITION-array" count="32" stride="3">
              <param name="X" type="float"/>
              <param name="Y" type="float"/>
              <param name="Z" type="float"/>
            </accessor>
          </technique_common>
        </source>
        <source id="SM_Barnacle_05_LOD1-Normal0">
          <float_array id="SM_Barnacle_05_LOD1-Normal0-array" count="432">
0.237715 -0.440476 0.865721
0.201338 -0.489771 0.848285
0.046739 -0.388419 0.920296
-0.113759 0.248841 0.961840
-0.058333 0.446362 0.892949
0.042569 0.385770 0.921612
-0.135154 -0.227606 0.964328
-0.169708 -0.333690 0.927281
-0.386628 -0.090593 0.917776
0.042569 0.385770 0.921612
0.355765 0.386048 0.851116
0.216921 0.408742 0.886496
-0.386628 -0.090593 0.917776
0.011141 0.002075 0.999936
-0.229914 0.128548 0.964684
0.490311 -0.116065 0.863785
0.433444 -0.302810 0.848783
0.483310 -0.006215 0.875427
0.046739 -0.388419 0.920296
0.201338 -0.489771 0.848285
-0.135154 -0.227606 0.964328
-0.058333 0.446362 0.892949
0.355765 0.386048 0.851116
0.042569 0.385770 0.921612
0.490311 -0.116065 0.863785
0.201338 -0.489771 0.848285
0.433444 -0.302810 0.848783
0.133670 0.250009 0.958972
0.447074 0.267419 0.853587
0.339131 0.188672 0.921625
0.447074 0.267419 0.853587
0.490311 -0.116065 0.863785
0.483310 -0.006215 0.875427
-0.229914 0.128548 0.964684
-0.058333 0.446362 0.892949
-0.113759 0.248841 0.961840
0.201338 -0.489771 0.848285
-0.169708 -0.333690 0.927281
-0.135154 -0.227606 0.964328
0.011141 0.002075 0.999936
0.201338 -0.489771 0.848285
0.490311 -0.116065 0.863785
0.042569 0.385770 0.921612
0.216921 0.408742 0.886496
0.133670 0.250009 0.958972
0.483310 -0.006215 0.875427
0.433444 -0.302810 0.848783
0.337757 -0.213652 0.916664
0.237715 -0.440476 0.865721
0.046739 -0.388419 0.920296
0.158652 -0.303410 0.939559
0.011141 0.002075 0.999936
0.355765 0.386048 0.851116
-0.058333 0.446362 0.892949
0.011141 0.002075 0.999936
-0.058333 0.446362 0.892949
-0.229914 0.128548 0.964684
-0.135154 -0.227606 0.964328
-0.290545 -0.079279 0.953572
-0.103963 -0.096395 0.989899
0.007710 -0.168712 0.985635
-0.135154 -0.227606 0.964328
-0.027619 -0.133180 0.990707
-0.290545 -0.079279 0.953572
-0.229914 0.128548 0.964684
-0.186258 -0.006415 0.982480
-0.103963 -0.096395 0.989899
-0.290545 -0.079279 0.953572
-0.151726 -0.064970 0.986285
0.447074 0.267419 0.853587
0.483310 -0.006215 0.875427
0.339131 0.188672 0.921625
0.483310 -0.006215 0.875427
0.337757 -0.213652 0.916664
0.341115 -0.004733 0.940010
0.216921 0.408742 0.886496
0.447074 0.267419 0.853587
0.133670 0.250009 0.958972
0.216921 0.408742 0.886496
0.355765 0.386048 0.851116
0.447074 0.267419 0.853587
0.433444 -0.302810 0.848783
0.201338 -0.489771 0.848285
0.237715 -0.440476 0.865721
0.433444 -0.302810 0.848783
0.237715 -0.440476 0.865721
0.158652 -0.303410 0.939559
0.355765 0.386048 0.851116
0.490311 -0.116065 0.863785
0.447074 0.267419 0.853587
0.490311 -0.116065 0.863785
0.355765 0.386048 0.851116
0.011141 0.002075 0.999936
-0.229914 0.128548 0.964684
-0.113759 0.248841 0.961840
-0.098906 0.148699 0.983924
-0.027605 0.142984 0.989340
-0.113759 0.248841 0.961840
0.002943 0.155314 0.987861
-0.197528 0.087075 0.976422
-0.229914 0.128548 0.964684
-0.098906 0.148699 0.983924
-0.186258 -0.006415 0.982480
-0.229914 0.128548 0.964684
-0.197528 0.087075 0.976422
-0.027619 -0.133180 0.990707
-0.135154 -0.227606 0.964328
-0.103963 -0.096395 0.989899
-0.290545 -0.079279 0.953572
-0.386628 -0.090593 0.917776
-0.229914 0.128548 0.964684
-0.135154 -0.227606 0.964328
-0.386628 -0.090593 0.917776
-0.290545 -0.079279 0.953572
0.158652 -0.303410 0.939559
0.046739 -0.388419 0.920296
0.007710 -0.168712 0.985635
0.046739 -0.388419 0.920296
-0.135154 -0.227606 0.964328
0.007710 -0.168712 0.985635
0.002943 0.155314 0.987861
0.042569 0.385770 0.921612
0.133670 0.250009 0.958972
-0.113759 0.248841 0.961840
0.042569 0.385770 0.921612
0.002943 0.155314 0.987861
0.339131 0.188672 0.921625
0.483310 -0.006215 0.875427
0.341115 -0.004733 0.940010
0.337757 -0.213652 0.916664
0.433444 -0.302810 0.848783
0.158652 -0.303410 0.939559
-0.098906 0.148699 0.983924
-0.113759 0.248841 0.961840
-0.027605 0.142984 0.989340
-0.169708 -0.333690 0.927281
0.011141 0.002075 0.999936
-0.386628 -0.090593 0.917776
0.011141 0.002075 0.999936
-0.169708 -0.333690 0.927281
0.201338 -0.489771 0.848285
-0.151726 -0.064970 0.986285
-0.290545 -0.079279 0.953572
-0.186258 -0.006415 0.982480
</float_array>
          <technique_common>
            <accessor source="#SM_Barnacle_05_LOD1-Normal0-array" count="144" stride="3">
              <param name="X" type="float"/>
              <param name="Y" type="float"/>
              <param name="Z" type="float"/>
            </accessor>
          </technique_common>
        </source>
        <source id="SM_Barnacle_05_LOD1-UV0">
          <float_array id="SM_Barnacle_05_LOD1-UV0-array" count="64">
0.097229 0.469238
0.129722 0.448076
0.145264 0.470703
0.111833 0.461061
0.129395 0.488770
0.095703 0.451660
0.107665 0.481684
0.111206 0.443848
0.142212 0.478516
0.107105 0.464409
0.094238 0.459961
0.119385 0.488770
0.109188 0.455397
0.101807 0.446777
0.124635 0.449722
0.143921 0.462402
0.116983 0.457892
0.138428 0.454102
0.106750 0.477395
0.136841 0.484863
0.111175 0.446918
0.099533 0.468139
0.132437 0.475995
0.115417 0.468262
0.098409 0.453209
0.103535 0.448990
0.097255 0.459961
0.105687 0.458615
0.137273 0.459441
0.139812 0.469585
0.123638 0.484737
0.135781 0.479028
</float_array>
          <technique_common>
            <accessor source="#SM_Barnacle_05_LOD1-UV0-array" count="32" stride="2">
              <param name="S" type="float"/>
              <param name="T" type="float"/>
            </accessor>
          </technique_common>
        </source>
        <vertices id="SM_Barnacle_05_LOD1-VERTEX">
          <input semantic="POSITION" source="#SM_Barnacle_05_LOD1-POSITION"/>
        </vertices>
        <triangles count="48" material="MAT_Sea_Shells">
          <input semantic="VERTEX" offset="0" source="#SM_Barnacle_05_LOD1-VERTEX"/>
          <input semantic="NORMAL" offset="1" source="#SM_Barnacle_05_LOD1-Normal0"/>
          <input semantic="TEXCOORD" offset="2" set="0" source="#SM_Barnacle_05_LOD1-UV0"/>
          <p> 13 0 21 11 1 9 25 2 18 21 3 28 14 4 16 26 5 14 15 6 30 30 7 23 16 8 22 26 9 14 8 10 12 9 11 20 16 12 22 0 13 3 22 14 29 20 15 27 19 16 26 17 17 24 25 18 18 11 19 9 15 20 30 14 21 16 8 22 12 26 23 14 20 24 27 11 25 9 19 26 26 12 27 7 18 28 25 27 29 13 18 30 25 20 31 27 17 32 24 22 33 29 14 34 16 21 35 28 11 36 9 30 37 23 15 38 30 0 39 3 11 40 9 20 41 27 26 42 14 9 43 20 12 44 7 17 45 24 19 46 26 28 47 10 13 48 21 25 49 18 1 50 0 0 51 3 8 52 12 14 53 16 0 54 3 14 55 16 22 56 29 15 57 30 24 58 31 3 59 4 7 60 6 15 61 30 23 62 11 24 63 31 22 64 29 5 65 8 3 66 4 24 67 31 31 68 19 18 69 25 17 70 24 27 71 13 17 72 24 28 73 10 6 74 5 9 75 20 18 76 25 12 77 7 9 78 20 8 79 12 18 80 25 19 81 26 11 82 9 13 83 21 19 84 26 13 85 21 1 86 0 8 87 12 20 88 27 18 89 25 20 90 27 8 91 12 0 92 3 22 93 29 21 94 28 10 95 15 29 96 17 21 97 28 4 98 1 2 99 2 22 100 29 10 101 15 5 102 8 22 103 29 2 104 2 23 105 11 15 106 30 3 107 4 24 108 31 16 109 22 22 110 29 15 111 30 16 112 22 24 113 31 1 114 0 25 115 18 7 116 6 25 117 18 15 118 30 7 119 6 4 120 1 26 121 14 12 122 7 21 123 28 26 124 14 4 125 1 27 126 13 17 127 24 6 128 5 28 129 10 19 130 26 1 131 0 10 132 15 21 133 28 29 134 17 30 135 23 0 136 3 16 137 22 0 138 3 30 139 23 11 140 9 31 141 19 24 142 31 5 143 8</p>
        </triangles>
      </mesh>
    </geometry>
  </library_geometries>
  <library_visual_scenes>
    <visual_scene id="SM_Barnacle_05" name="SM_Barnacle_05">
      <node name="SM_Barnacle_05_LOD0" id="SM_Barnacle_05_LOD0" layer="shells" sid="SM_Barnacle_05_LOD0">
        <matrix sid="matrix">1.000000 0.000000 0.000000 0.000000 0.000000 0.000000 1.000000 0.000000 0.000000 -1.000000 0.000000 0.000000 0.000000 0.000000 0.000000 1.000000</matrix>
        <instance_geometry url="#SM_Barnacle_05_LOD0-lib">
          <bind_material>
            <technique_common>
              <instance_material symbol="MAT_Sea_Shells" target="#MAT_Sea_Shells"/>
            </technique_common>
          </bind_material>
        </instance_geometry>
        <extra>
          <technique profile="FCOLLADA">
            <visibility>1.000000</visibility>
          </technique>
        </extra>
      </node>
      <node name="SM_Barnacle_05_LOD1" id="SM_Barnacle_05_LOD1" layer="shells" sid="SM_Barnacle_05_LOD1">
        <matrix sid="matrix">1.000000 0.000000 0.000000 0.000000 0.000000 0.000000 1.000000 0.000000 0.000000 -1.000000 0.000000 0.000000 0.000000 0.000000 0.000000 1.000000</matrix>
        <instance_geometry url="#SM_Barnacle_05_LOD1-lib">
          <bind_material>
            <technique_common>
              <instance_material symbol="MAT_Sea_Shells" target="#MAT_Sea_Shells"/>
            </technique_common>
          </bind_material>
        </instance_geometry>
        <extra>
          <technique profile="FCOLLADA">
            <visibility>1.000000</visibility>
          </technique>
        </extra>
      </node>
      <extra>
        <technique profile="MAX3D">
          <frame_rate>30.000000</frame_rate>
        </technique>
        <technique profile="FCOLLADA">
          <start_time>0.000000</start_time>
          <end_time>3.333333</end_time>
        </technique>
      </extra>
    </visual_scene>
  </library_visual_scenes>
  <scene>
    <instance_visual_scene url="#SM_Barnacle_05"/>
  </scene>
</COLLADA>
