<?xml version="1.0" encoding="utf-8"?>
<COLLADA xmlns="http://www.collada.org/2005/11/COLLADASchema" version="1.4.1">
  <asset>
    <contributor>
      <author/>
      <authoring_tool>FBX COLLADA exporter</authoring_tool>
      <comments/>
    </contributor>
    <created>2024-02-10T11:42:32Z</created>
    <keywords/>
    <modified>2024-02-10T11:42:32Z</modified>
    <revision/>
    <subject/>
    <title/>
    <unit meter="0.010000" name="centimeter"/>
    <up_axis>Y_UP</up_axis>
  </asset>
  <library_materials>
    <material id="MAT_Sea_Shells" name="MAT_Sea_Shells">
      <instance_effect url="#MAT_Sea_Shells-fx"/>
    </material>
  </library_materials>
  <library_effects>
    <effect id="MAT_Sea_Shells-fx" name="MAT_Sea_Shells">
      <profile_COMMON>
        <technique sid="standard">
          <phong>
            <emission>
              <color sid="emission">0.000000  0.000000 0.000000 1.000000</color>
            </emission>
            <ambient>
              <color sid="ambient">0.588235  0.588235 0.588235 1.000000</color>
            </ambient>
            <diffuse>
              <color sid="diffuse">0.588235  0.588235 0.588235 1.000000</color>
            </diffuse>
            <specular>
              <color sid="specular">0.000000  0.000000 0.000000 1.000000</color>
            </specular>
            <shininess>
              <float sid="shininess">2.000000</float>
            </shininess>
            <reflective>
              <color sid="reflective">0.000000  0.000000 0.000000 1.000000</color>
            </reflective>
            <reflectivity>
              <float sid="reflectivity">1.000000</float>
            </reflectivity>
            <transparent opaque="RGB_ZERO">
              <color sid="transparent">1.000000  1.000000 1.000000 1.000000</color>
            </transparent>
            <transparency>
              <float sid="transparency">0.000000</float>
            </transparency>
          </phong>
        </technique>
      </profile_COMMON>
    </effect>
  </library_effects>
  <library_geometries>
    <geometry id="SM_Barnacle_10_LOD0-lib" name="SM_Barnacle_10_LOD0Mesh">
      <mesh>
        <source id="SM_Barnacle_10_LOD0-POSITION">
          <float_array id="SM_Barnacle_10_LOD0-POSITION-array" count="243">
5.173969 -0.398285 0.000000
3.986603 -2.471680 0.000000
4.765308 1.470551 0.000000
3.796341 3.052155 -0.000000
3.446217 2.506439 0.150199
1.686089 3.723755 -0.000000
-0.016762 4.208954 -0.000000
-1.811653 4.039124 -0.000000
-2.828354 2.743896 0.148461
-3.495754 3.250793 -0.000000
-4.613611 1.933594 0.000000
-5.173973 0.160309 0.000000
-4.863335 -1.539032 0.000001
-3.715321 -3.023132 0.000000
-3.804073 -1.226013 0.172561
-3.011192 -2.456940 0.148393
-2.143513 -3.997314 0.000001
-0.440132 -4.208984 0.000001
1.059433 -4.057587 0.000001
-0.255039 -3.562103 0.112525
2.462303 -3.557617 0.000000
2.305214 -2.970520 0.150182
3.637589 -2.076508 0.175593
4.694824 -0.322021 0.185957
4.102707 -0.310059 0.760305
4.302116 1.242188 0.175637
4.022533 1.036713 0.733777
3.299221 2.132080 0.661016
1.588142 3.204163 0.123810
0.364140 3.056824 0.550871
0.128109 3.596436 0.112542
-1.408066 3.434937 0.123186
-2.122902 2.279999 0.636941
-3.776508 1.621277 0.172567
-2.947899 1.326721 0.695561
-4.073124 0.172058 0.182299
-3.243279 0.172333 0.718931
-2.995163 -0.973907 0.695285
-2.271156 -1.983582 0.636247
-1.701683 -3.306366 0.123139
1.056343 -3.437592 0.123796
2.286560 -2.519043 0.657589
2.661819 -0.651764 2.124999
2.345562 0.446442 2.090188
1.618507 2.763092 0.585164
1.373814 0.996490 2.038044
-0.941067 2.893555 0.575002
-0.055630 -0.205902 2.060027
-1.183048 -2.686188 0.574472
0.316906 -1.161499 2.029659
0.013119 -2.991913 0.550564
0.734921 -1.506042 2.014031
1.230591 -1.704681 2.015188
1.151905 -2.925110 0.584828
3.219467 -1.598877 0.727993
2.515385 -1.169739 2.109553
2.191967 -1.544159 2.075531
1.736103 -1.724365 2.038202
0.036301 -0.710480 2.049013
1.624809 -0.750122 2.496914
0.063202 0.285980 2.057670
0.377487 0.692322 2.045783
0.837090 0.946045 2.035244
1.902924 0.823761 2.058675
2.608852 -0.076813 2.116824
3.213306 -0.455811 1.476436
3.587971 0.520172 1.505122
3.067581 1.437775 1.429538
1.730183 1.984833 1.365335
0.826263 2.218597 1.317224
-0.103806 2.104004 1.319355
-0.935265 1.669312 1.357942
-1.519394 0.995422 1.405589
-1.754234 0.177338 1.439286
-1.632072 -0.402008 1.424878
-1.221786 -1.168823 1.379016
-0.524429 -1.769714 1.332840
0.314922 -2.132416 1.322264
1.177467 -2.251709 1.346634
2.272621 -2.017151 1.406011
2.917595 -1.365265 1.490995
</float_array>
          <technique_common>
            <accessor source="#SM_Barnacle_10_LOD0-POSITION-array" count="81" stride="3">
              <param name="X" type="float"/>
              <param name="Y" type="float"/>
              <param name="Z" type="float"/>
            </accessor>
          </technique_common>
        </source>
        <source id="SM_Barnacle_10_LOD0-Normal0">
          <float_array id="SM_Barnacle_10_LOD0-Normal0-array" count="1296">
0.492673 -0.068453 0.867518
0.232390 -0.221051 0.947170
0.353697 -0.054646 0.933762
0.300639 0.129074 0.944964
0.492673 -0.068453 0.867518
0.353697 -0.054646 0.933762
0.535667 0.225097 0.813875
0.492673 -0.068453 0.867518
0.300639 0.129074 0.944964
0.135399 0.190492 0.972306
0.535667 0.225097 0.813875
0.300639 0.129074 0.944964
0.283507 0.398893 0.872072
0.535667 0.225097 0.813875
0.135399 0.190492 0.972306
0.133799 0.478058 0.868077
0.283507 0.398893 0.872072
0.135399 0.190492 0.972306
0.060657 0.217177 0.974246
0.133799 0.478058 0.868077
0.135399 0.190492 0.972306
0.026831 0.401502 0.915465
0.133799 0.478058 0.868077
0.060657 0.217177 0.974246
0.012989 0.185438 0.982570
0.026831 0.401502 0.915465
0.060657 0.217177 0.974246
-0.094592 0.351386 0.931440
0.026831 0.401502 0.915465
0.012989 0.185438 0.982570
-0.047877 0.174203 0.983545
-0.094592 0.351386 0.931440
0.012989 0.185438 0.982570
-0.199336 0.277011 0.939963
-0.094592 0.351386 0.931440
-0.047877 0.174203 0.983545
-0.113336 0.147562 0.982538
-0.199336 0.277011 0.939963
-0.047877 0.174203 0.983545
-0.294835 0.157699 0.942445
-0.199336 0.277011 0.939963
-0.113336 0.147562 0.982538
-0.168798 0.089911 0.981541
-0.294835 0.157699 0.942445
-0.113336 0.147562 0.982538
-0.166469 0.006252 0.986027
-0.294835 0.157699 0.942445
-0.168798 0.089911 0.981541
-0.337377 0.003758 0.941362
-0.294835 0.157699 0.942445
-0.166469 0.006252 0.986027
-0.144554 -0.063935 0.987429
-0.337377 0.003758 0.941362
-0.166469 0.006252 0.986027
-0.301123 -0.134788 0.944011
-0.337377 0.003758 0.941362
-0.144554 -0.063935 0.987429
-0.111550 -0.120962 0.986370
-0.301123 -0.134788 0.944011
-0.144554 -0.063935 0.987429
-0.215123 -0.236508 0.947516
-0.301123 -0.134788 0.944011
-0.111550 -0.120962 0.986370
-0.052062 -0.147977 0.987620
-0.215123 -0.236508 0.947516
-0.111550 -0.120962 0.986370
-0.106859 -0.301656 0.947410
-0.215123 -0.236508 0.947516
-0.052062 -0.147977 0.987620
-0.005377 -0.169387 0.985535
-0.106859 -0.301656 0.947410
-0.052062 -0.147977 0.987620
-0.023444 -0.372204 0.927855
-0.106859 -0.301656 0.947410
-0.005377 -0.169387 0.985535
0.036737 -0.192380 0.980633
-0.023444 -0.372204 0.927855
-0.005377 -0.169387 0.985535
0.077655 -0.430999 0.899005
-0.023444 -0.372204 0.927855
0.036737 -0.192380 0.980633
0.097860 -0.223074 0.969877
0.077655 -0.430999 0.899005
0.036737 -0.192380 0.980633
0.208282 -0.466686 0.859548
0.077655 -0.430999 0.899005
0.097860 -0.223074 0.969877
0.358493 -0.335784 0.871052
0.208282 -0.466686 0.859548
0.097860 -0.223074 0.969877
0.232390 -0.221051 0.947170
0.358493 -0.335784 0.871052
0.097860 -0.223074 0.969877
0.492673 -0.068453 0.867518
0.358493 -0.335784 0.871052
0.232390 -0.221051 0.947170
0.722994 -0.175900 0.668086
0.358493 -0.335784 0.871052
0.492673 -0.068453 0.867518
0.535667 0.225097 0.813875
0.722994 -0.175900 0.668086
0.492673 -0.068453 0.867518
0.775420 0.257521 0.576547
0.722994 -0.175900 0.668086
0.535667 0.225097 0.813875
0.470789 0.615394 0.632177
0.775420 0.257521 0.576547
0.535667 0.225097 0.813875
0.283507 0.398893 0.872072
0.470789 0.615394 0.632177
0.535667 0.225097 0.813875
0.198242 0.711508 0.674134
0.470789 0.615394 0.632177
0.283507 0.398893 0.872072
0.133799 0.478058 0.868077
0.198242 0.711508 0.674134
0.283507 0.398893 0.872072
0.045112 0.665510 0.745024
0.198242 0.711508 0.674134
0.133799 0.478058 0.868077
0.026831 0.401502 0.915465
0.045112 0.665510 0.745024
0.133799 0.478058 0.868077
-0.147702 0.570946 0.807592
0.045112 0.665510 0.745024
0.026831 0.401502 0.915465
-0.094592 0.351386 0.931440
-0.147702 0.570946 0.807592
0.026831 0.401502 0.915465
-0.294366 0.437037 0.849910
-0.147702 0.570946 0.807592
-0.094592 0.351386 0.931440
-0.199336 0.277011 0.939963
-0.294366 0.437037 0.849910
-0.094592 0.351386 0.931440
-0.419268 0.248216 0.873272
-0.294366 0.437037 0.849910
-0.199336 0.277011 0.939963
-0.294835 0.157699 0.942445
-0.419268 0.248216 0.873272
-0.199336 0.277011 0.939963
-0.486713 0.008579 0.873520
-0.419268 0.248216 0.873272
-0.294835 0.157699 0.942445
-0.337377 0.003758 0.941362
-0.486713 0.008579 0.873520
-0.294835 0.157699 0.942445
-0.301123 -0.134788 0.944011
-0.486713 0.008579 0.873520
-0.337377 0.003758 0.941362
-0.438059 -0.214396 0.873006
-0.486713 0.008579 0.873520
-0.301123 -0.134788 0.944011
-0.215123 -0.236508 0.947516
-0.438059 -0.214396 0.873006
-0.301123 -0.134788 0.944011
-0.320367 -0.379682 0.867875
-0.438059 -0.214396 0.873006
-0.215123 -0.236508 0.947516
-0.106859 -0.301656 0.947410
-0.320367 -0.379682 0.867875
-0.215123 -0.236508 0.947516
-0.194144 -0.507527 0.839479
-0.320367 -0.379682 0.867875
-0.106859 -0.301656 0.947410
-0.023444 -0.372204 0.927855
-0.194144 -0.507527 0.839479
-0.106859 -0.301656 0.947410
-0.070129 -0.624401 0.777949
-0.194144 -0.507527 0.839479
-0.023444 -0.372204 0.927855
0.077655 -0.430999 0.899005
-0.070129 -0.624401 0.777949
-0.023444 -0.372204 0.927855
0.105768 -0.712151 0.694013
-0.070129 -0.624401 0.777949
0.077655 -0.430999 0.899005
0.208282 -0.466686 0.859548
0.105768 -0.712151 0.694013
0.077655 -0.430999 0.899005
0.357151 -0.705133 0.612561
0.105768 -0.712151 0.694013
0.208282 -0.466686 0.859548
0.358493 -0.335784 0.871052
0.357151 -0.705133 0.612561
0.208282 -0.466686 0.859548
0.583070 -0.487559 0.649858
0.357151 -0.705133 0.612561
0.358493 -0.335784 0.871052
0.722994 -0.175900 0.668086
0.583070 -0.487559 0.649858
0.358493 -0.335784 0.871052
0.539666 -0.348527 0.766348
0.726405 -0.231236 0.647198
0.574974 -0.128723 0.807982
0.726405 -0.231236 0.647198
0.539666 -0.348527 0.766348
0.683052 -0.479236 0.551156
0.722994 -0.175900 0.668086
0.654547 0.120481 0.746360
0.726405 -0.231236 0.647198
0.654547 0.120481 0.746360
0.722994 -0.175900 0.668086
0.775420 0.257521 0.576547
0.447993 0.076250 0.890779
0.726405 -0.231236 0.647198
0.654547 0.120481 0.746360
0.726405 -0.231236 0.647198
0.447993 0.076250 0.890779
0.574974 -0.128723 0.807982
0.654547 0.120481 0.746360
0.775420 0.257521 0.576547
0.413302 0.498331 0.762134
0.413302 0.498331 0.762134
0.775420 0.257521 0.576547
0.470789 0.615394 0.632177
0.413302 0.498331 0.762134
0.198242 0.711508 0.674134
0.176673 0.616034 0.767652
0.198242 0.711508 0.674134
0.413302 0.498331 0.762134
0.470789 0.615394 0.632177
0.037861 0.613152 0.789057
0.029439 0.406731 0.913073
0.176673 0.616034 0.767652
0.029439 0.406731 0.913073
0.134472 0.394877 0.908840
0.176673 0.616034 0.767652
0.198242 0.711508 0.674134
0.037861 0.613152 0.789057
0.176673 0.616034 0.767652
0.037861 0.613152 0.789057
0.198242 0.711508 0.674134
0.045112 0.665510 0.745024
-0.133598 0.530814 0.836892
-0.089455 0.360669 0.928394
0.037861 0.613152 0.789057
-0.089455 0.360669 0.928394
0.029439 0.406731 0.913073
0.037861 0.613152 0.789057
-0.133598 0.530814 0.836892
0.045112 0.665510 0.745024
-0.147702 0.570946 0.807592
0.045112 0.665510 0.745024
-0.133598 0.530814 0.836892
0.037861 0.613152 0.789057
-0.089455 0.360669 0.928394
-0.133598 0.530814 0.836892
-0.182608 0.277988 0.943068
-0.258499 0.401820 0.878475
-0.182608 0.277988 0.943068
-0.133598 0.530814 0.836892
-0.258499 0.401820 0.878475
-0.147702 0.570946 0.807592
-0.294366 0.437037 0.849910
-0.147702 0.570946 0.807592
-0.258499 0.401820 0.878475
-0.133598 0.530814 0.836892
-0.294366 0.437037 0.849910
-0.346639 0.232204 0.908803
-0.258499 0.401820 0.878475
-0.346639 0.232204 0.908803
-0.294366 0.437037 0.849910
-0.419268 0.248216 0.873272
-0.254575 0.160572 0.953629
-0.393513 0.018327 0.919136
-0.309229 -0.021552 0.950743
-0.393513 0.018327 0.919136
-0.254575 0.160572 0.953629
-0.346639 0.232204 0.908803
-0.419268 0.248216 0.873272
-0.393513 0.018327 0.919136
-0.346639 0.232204 0.908803
-0.393513 0.018327 0.919136
-0.419268 0.248216 0.873272
-0.486713 0.008579 0.873520
-0.393513 0.018327 0.919136
-0.486713 0.008579 0.873520
-0.438059 -0.214396 0.873006
-0.438059 -0.214396 0.873006
-0.387817 -0.170833 0.905767
-0.393513 0.018327 0.919136
-0.320367 -0.379682 0.867875
-0.387817 -0.170833 0.905767
-0.438059 -0.214396 0.873006
-0.387817 -0.170833 0.905767
-0.320367 -0.379682 0.867875
-0.347421 -0.327569 0.878634
-0.279021 -0.494244 0.823329
-0.326994 -0.215323 0.920169
-0.347421 -0.327569 0.878634
-0.326994 -0.215323 0.920169
-0.279021 -0.494244 0.823329
-0.298435 -0.377983 0.876393
-0.194144 -0.507527 0.839479
-0.279021 -0.494244 0.823329
-0.347421 -0.327569 0.878634
-0.194144 -0.507527 0.839479
-0.347421 -0.327569 0.878634
-0.320367 -0.379682 0.867875
-0.298435 -0.377983 0.876393
-0.174309 -0.641109 0.747393
-0.225728 -0.515606 0.826557
-0.174309 -0.641109 0.747393
-0.298435 -0.377983 0.876393
-0.279021 -0.494244 0.823329
-0.279021 -0.494244 0.823329
-0.070129 -0.624401 0.777949
-0.174309 -0.641109 0.747393
-0.070129 -0.624401 0.777949
-0.279021 -0.494244 0.823329
-0.194144 -0.507527 0.839479
-0.225728 -0.515606 0.826557
0.018203 -0.757832 0.652196
-0.121077 -0.604434 0.787401
0.018203 -0.757832 0.652196
-0.225728 -0.515606 0.826557
-0.174309 -0.641109 0.747393
-0.174309 -0.641109 0.747393
0.105768 -0.712151 0.694013
0.018203 -0.757832 0.652196
0.105768 -0.712151 0.694013
-0.174309 -0.641109 0.747393
-0.070129 -0.624401 0.777949
0.071606 -0.661221 0.746766
-0.121077 -0.604434 0.787401
0.018203 -0.757832 0.652196
0.018203 -0.757832 0.652196
0.357151 -0.705133 0.612561
0.408391 -0.738282 0.536802
0.357151 -0.705133 0.612561
0.018203 -0.757832 0.652196
0.105768 -0.712151 0.694013
0.328567 -0.581091 0.744565
0.071606 -0.661221 0.746766
0.408391 -0.738282 0.536802
0.071606 -0.661221 0.746766
0.018203 -0.757832 0.652196
0.408391 -0.738282 0.536802
0.357151 -0.705133 0.612561
0.683052 -0.479236 0.551156
0.408391 -0.738282 0.536802
0.683052 -0.479236 0.551156
0.357151 -0.705133 0.612561
0.583070 -0.487559 0.649858
0.408391 -0.738282 0.536802
0.539666 -0.348527 0.766348
0.328567 -0.581091 0.744565
0.539666 -0.348527 0.766348
0.408391 -0.738282 0.536802
0.683052 -0.479236 0.551156
0.031308 -0.094102 0.995070
0.539666 -0.348527 0.766348
0.574974 -0.128723 0.807982
0.031308 -0.094102 0.995070
0.328567 -0.581091 0.744565
0.539666 -0.348527 0.766348
0.031308 -0.094102 0.995070
0.071606 -0.661221 0.746766
0.328567 -0.581091 0.744565
0.031308 -0.094102 0.995070
-0.121077 -0.604434 0.787401
0.071606 -0.661221 0.746766
0.031308 -0.094102 0.995070
-0.225728 -0.515606 0.826557
-0.121077 -0.604434 0.787401
0.031308 -0.094102 0.995070
-0.298435 -0.377983 0.876393
-0.225728 -0.515606 0.826557
0.031308 -0.094102 0.995070
-0.326994 -0.215323 0.920169
-0.298435 -0.377983 0.876393
0.031308 -0.094102 0.995070
-0.309229 -0.021552 0.950743
-0.326994 -0.215323 0.920169
0.031308 -0.094102 0.995070
-0.254575 0.160572 0.953629
-0.309229 -0.021552 0.950743
0.031308 -0.094102 0.995070
-0.182608 0.277988 0.943068
-0.254575 0.160572 0.953629
0.031308 -0.094102 0.995070
-0.089455 0.360669 0.928394
-0.182608 0.277988 0.943068
0.031308 -0.094102 0.995070
0.029439 0.406731 0.913073
-0.089455 0.360669 0.928394
0.031308 -0.094102 0.995070
0.134472 0.394877 0.908840
0.029439 0.406731 0.913073
0.031308 -0.094102 0.995070
0.258219 0.303258 0.917255
0.134472 0.394877 0.908840
0.031308 -0.094102 0.995070
0.447993 0.076250 0.890779
0.258219 0.303258 0.917255
0.574974 -0.128723 0.807982
0.447993 0.076250 0.890779
0.031308 -0.094102 0.995070
0.683052 -0.479236 0.551156
0.583070 -0.487559 0.649858
0.722994 -0.175900 0.668086
0.683052 -0.479236 0.551156
0.722994 -0.175900 0.668086
0.726405 -0.231236 0.647198
0.447993 0.076250 0.890779
0.654547 0.120481 0.746360
0.258219 0.303258 0.917255
0.258219 0.303258 0.917255
0.654547 0.120481 0.746360
0.413302 0.498331 0.762134
0.413302 0.498331 0.762134
0.134472 0.394877 0.908840
0.258219 0.303258 0.917255
0.413302 0.498331 0.762134
0.176673 0.616034 0.767652
0.134472 0.394877 0.908840
-0.182608 0.277988 0.943068
-0.258499 0.401820 0.878475
-0.254575 0.160572 0.953629
-0.254575 0.160572 0.953629
-0.258499 0.401820 0.878475
-0.346639 0.232204 0.908803
-0.387817 -0.170833 0.905767
-0.309229 -0.021552 0.950743
-0.393513 0.018327 0.919136
-0.309229 -0.021552 0.950743
-0.347421 -0.327569 0.878634
-0.326994 -0.215323 0.920169
-0.347421 -0.327569 0.878634
-0.309229 -0.021552 0.950743
-0.387817 -0.170833 0.905767
</float_array>
          <technique_common>
            <accessor source="#SM_Barnacle_10_LOD0-Normal0-array" count="432" stride="3">
              <param name="X" type="float"/>
              <param name="Y" type="float"/>
              <param name="Z" type="float"/>
            </accessor>
          </technique_common>
        </source>
        <source id="SM_Barnacle_10_LOD0-UV0">
          <float_array id="SM_Barnacle_10_LOD0-UV0-array" count="162">
0.792233 0.277303
0.816995 0.277441
0.794249 0.273484
0.776989 0.270670
0.780981 0.264673
0.773294 0.250057
0.779540 0.249642
0.781964 0.231665
0.777890 0.230076
0.786678 0.218940
0.782750 0.214854
0.795642 0.208765
0.793101 0.199491
0.807531 0.202131
0.807658 0.194121
0.820019 0.200683
0.822571 0.193131
0.837374 0.196778
0.831875 0.204913
0.851619 0.205371
0.841074 0.212798
0.855786 0.220410
0.847086 0.223750
0.855617 0.236433
0.848514 0.237084
0.851413 0.250658
0.845054 0.249444
0.844623 0.262503
0.838879 0.259581
0.833886 0.272710
0.829687 0.267897
0.815837 0.274299
0.797387 0.267738
0.787742 0.260735
0.784738 0.249835
0.786379 0.234161
0.790230 0.223679
0.797755 0.215219
0.807785 0.209934
0.818339 0.208659
0.827880 0.211660
0.835262 0.218171
0.839997 0.227517
0.841249 0.238480
0.838960 0.248919
0.833738 0.257536
0.825443 0.264553
0.813961 0.267895
0.805714 0.257784
0.801563 0.254415
0.800568 0.249793
0.799563 0.245143
0.800430 0.241032
0.803335 0.237845
0.806410 0.235751
0.810398 0.235348
0.814181 0.236559
0.817195 0.239202
0.819088 0.242860
0.819544 0.247667
0.818847 0.250929
0.817936 0.254525
0.814053 0.258496
0.809581 0.258589
0.810886 0.249197
0.802027 0.262429
0.797427 0.257029
0.792741 0.250349
0.793719 0.238608
0.795919 0.231339
0.800784 0.225462
0.807483 0.221761
0.814702 0.220810
0.821377 0.222763
0.825026 0.225946
0.828994 0.231883
0.830687 0.239288
0.829949 0.246827
0.827077 0.253486
0.820391 0.259904
0.812397 0.263407
</float_array>
          <technique_common>
            <accessor source="#SM_Barnacle_10_LOD0-UV0-array" count="81" stride="2">
              <param name="S" type="float"/>
              <param name="T" type="float"/>
            </accessor>
          </technique_common>
        </source>
        <vertices id="SM_Barnacle_10_LOD0-VERTEX">
          <input semantic="POSITION" source="#SM_Barnacle_10_LOD0-POSITION"/>
        </vertices>
        <triangles count="144" material="MAT_Sea_Shells">
          <input semantic="VERTEX" offset="0" source="#SM_Barnacle_10_LOD0-VERTEX"/>
          <input semantic="NORMAL" offset="1" source="#SM_Barnacle_10_LOD0-Normal0"/>
          <input semantic="TEXCOORD" offset="2" set="0" source="#SM_Barnacle_10_LOD0-UV0"/>
          <p> 23 0 2 1 1 1 0 2 0 2 3 3 23 4 2 0 5 0 25 6 4 23 7 2 2 8 3 3 9 5 25 10 4 2 11 3 4 12 6 25 13 4 3 14 5 28 15 7 4 16 6 3 17 5 5 18 8 28 19 7 3 20 5 30 21 9 28 22 7 5 23 8 6 24 10 30 25 9 5 26 8 31 27 11 30 28 9 6 29 10 7 30 12 31 31 11 6 32 10 8 33 13 31 34 11 7 35 12 9 36 14 8 37 13 7 38 12 33 39 15 8 40 13 9 41 14 10 42 16 33 43 15 9 44 14 11 45 17 33 46 15 10 47 16 35 48 18 33 49 15 11 50 17 12 51 19 35 52 18 11 53 17 14 54 20 35 55 18 12 56 19 13 57 21 14 58 20 12 59 19 15 60 22 14 61 20 13 62 21 16 63 23 15 64 22 13 65 21 39 66 24 15 67 22 16 68 23 17 69 25 39 70 24 16 71 23 19 72 26 39 73 24 17 74 25 18 75 27 19 76 26 17 77 25 40 78 28 19 79 26 18 80 27 20 81 29 40 82 28 18 83 27 21 84 30 40 85 28 20 86 29 22 87 31 21 88 30 20 89 29 1 90 1 22 91 31 20 92 29 23 93 2 22 94 31 1 95 1 24 96 32 22 97 31 23 98 2 25 99 4 24 100 32 23 101 2 26 102 33 24 103 32 25 104 4 27 105 34 26 106 33 25 107 4 4 108 6 27 109 34 25 110 4 44 111 35 27 112 34 4 113 6 28 114 7 44 115 35 4 116 6 29 117 36 44 118 35 28 119 7 30 120 9 29 121 36 28 122 7 46 123 37 29 124 36 30 125 9 31 126 11 46 127 37 30 128 9 32 129 38 46 130 37 31 131 11 8 132 13 32 133 38 31 134 11 34 135 39 32 136 38 8 137 13 33 138 15 34 139 39 8 140 13 36 141 40 34 142 39 33 143 15 35 144 18 36 145 40 33 146 15 14 147 20 36 148 40 35 149 18 37 150 41 36 151 40 14 152 20 15 153 22 37 154 41 14 155 20 38 156 42 37 157 41 15 158 22 39 159 24 38 160 42 15 161 22 48 162 43 38 163 42 39 164 24 19 165 26 48 166 43 39 167 24 50 168 44 48 169 43 19 170 26 40 171 28 50 172 44 19 173 26 53 174 45 50 175 44 40 176 28 21 177 30 53 178 45 40 179 28 41 180 46 53 181 45 21 182 30 22 183 31 41 184 46 21 185 30 54 186 47 41 187 46 22 188 31 24 189 32 54 190 47 22 191 31 55 192 63 65 193 65 42 194 48 65 195 65 55 196 63 80 197 80 24 198 32 66 199 66 65 200 65 66 201 66 24 202 32 26 203 33 64 204 49 65 205 65 66 206 66 65 207 65 64 208 49 42 209 48 66 210 66 26 211 33 67 212 67 67 213 67 26 214 33 27 215 34 67 216 67 44 217 35 68 218 68 44 219 35 67 220 67 27 221 34 69 222 69 45 223 52 68 224 68 45 225 52 63 226 51 68 227 68 44 228 35 69 229 69 68 230 68 69 231 69 44 232 35 29 233 36 70 234 70 62 235 53 69 236 69 62 237 53 45 238 52 69 239 69 70 240 70 29 241 36 46 242 37 29 243 36 70 244 70 69 245 69 62 246 53 70 247 70 61 248 54 71 249 71 61 250 54 70 251 70 71 252 71 46 253 37 32 254 38 46 255 37 71 256 71 70 257 70 32 258 38 72 259 72 71 260 71 72 261 72 32 262 38 34 263 39 60 264 55 73 265 73 47 266 56 73 267 73 60 268 55 72 269 72 34 270 39 73 271 73 72 272 72 73 273 73 34 274 39 36 275 40 73 276 73 36 277 40 37 278 41 37 279 41 74 280 74 73 281 73 38 282 42 74 283 74 37 284 41 74 285 74 38 286 42 75 287 75 76 288 76 58 289 57 75 290 75 58 291 57 76 292 76 49 293 58 48 294 43 76 295 76 75 296 75 48 297 43 75 298 75 38 299 42 49 300 58 77 301 77 51 302 59 77 303 77 49 304 58 76 305 76 76 306 76 50 307 44 77 308 77 50 309 44 76 310 76 48 311 43 51 312 59 78 313 78 52 314 60 78 315 78 51 316 59 77 317 77 77 318 77 53 319 45 78 320 78 53 321 45 77 322 77 50 323 44 57 324 61 52 325 60 78 326 78 78 327 78 41 328 46 79 329 79 41 330 46 78 331 78 53 332 45 56 333 62 57 334 61 79 335 79 57 336 61 78 337 78 79 338 79 41 339 46 80 340 80 79 341 79 80 342 80 41 343 46 54 344 47 79 345 79 55 346 63 56 347 62 55 348 63 79 349 79 80 350 80 59 351 64 55 352 63 42 353 48 59 354 64 56 355 62 55 356 63 59 357 64 57 358 61 56 359 62 59 360 64 52 361 60 57 362 61 59 363 64 51 364 59 52 365 60 59 366 64 49 367 58 51 368 59 59 369 64 58 370 57 49 371 58 59 372 64 47 373 56 58 374 57 59 375 64 60 376 55 47 377 56 59 378 64 61 379 54 60 380 55 59 381 64 62 382 53 61 383 54 59 384 64 45 385 52 62 386 53 59 387 64 63 388 51 45 389 52 59 390 64 43 391 50 63 392 51 59 393 64 64 394 49 43 395 50 42 396 48 64 397 49 59 398 64 80 399 80 54 400 47 24 401 32 80 402 80 24 403 32 65 404 65 64 405 49 66 406 66 43 407 50 43 408 50 66 409 66 67 410 67 67 411 67 63 412 51 43 413 50 67 414 67 68 415 68 63 416 51 61 417 54 71 418 71 60 419 55 60 420 55 71 421 71 72 422 72 74 423 74 47 424 56 73 425 73 47 426 56 75 427 75 58 428 57 75 429 75 47 430 56 74 431 74</p>
        </triangles>
      </mesh>
    </geometry>
    <geometry id="SM_Barnacle_10_LOD1-lib" name="SM_Barnacle_10_LOD1Mesh">
      <mesh>
        <source id="SM_Barnacle_10_LOD1-POSITION">
          <float_array id="SM_Barnacle_10_LOD1-POSITION-array" count="195">
-3.495754 3.250793 -0.000000
1.059433 -4.057587 0.000001
4.765308 1.470551 0.000000
-4.863335 -1.539032 0.000001
2.515385 -1.169739 2.109553
-0.016762 4.208954 -0.000000
5.173969 -0.398285 0.000000
1.373814 0.996490 2.038044
0.316906 -1.161499 2.029659
-2.143513 -3.997314 0.000001
3.796341 3.052155 -0.000000
2.286560 -2.519043 0.657589
3.587971 0.520172 1.505122
-5.173973 0.160309 0.000000
3.986603 -2.471680 0.000000
1.624809 -0.750122 2.496914
-1.811653 4.039124 -0.000000
0.377487 0.692322 2.045783
1.230591 -1.704681 2.015188
-1.701683 -3.306366 0.123139
0.128109 3.596436 0.112542
-4.613611 1.933594 0.000000
-3.011192 -2.456940 0.148393
-3.715321 -3.023132 0.000000
3.446217 2.506439 0.150199
1.056343 -3.437592 0.123796
-4.073124 0.172058 0.182299
0.826263 2.218597 1.317224
4.302116 1.242188 0.175637
-1.754234 0.177338 1.439286
2.462303 -3.557617 0.000000
4.102707 -0.310059 0.760305
2.191967 -1.544159 2.075531
3.067581 1.437775 1.429538
-3.776508 1.621277 0.172567
-2.828354 2.743896 0.148461
-3.804073 -1.226013 0.172561
-1.519394 0.995422 1.405589
-1.408066 3.434937 0.123186
-0.440132 -4.208984 0.000001
2.608852 -0.076813 2.116824
3.637589 -2.076508 0.175593
-0.255039 -3.562103 0.112525
2.917595 -1.365265 1.490995
3.219467 -1.598877 0.727993
-0.103806 2.104004 1.319355
0.314922 -2.132416 1.322264
2.305214 -2.970520 0.150182
4.694824 -0.322021 0.185957
4.022533 1.036713 0.733777
-0.055630 -0.205902 2.060027
1.588142 3.204163 0.123810
-1.221786 -1.168823 1.379016
3.213306 -0.455811 1.476436
-3.243279 0.172333 0.718931
-0.935265 1.669312 1.357942
-2.995163 -0.973907 0.695285
-0.524429 -1.769714 1.332840
1.736103 -1.724365 2.038202
1.177467 -2.251709 1.346634
2.661819 -0.651764 2.124999
1.902924 0.823761 2.058675
-2.947899 1.326721 0.695561
1.730183 1.984833 1.365335
2.345562 0.446442 2.090188
</float_array>
          <technique_common>
            <accessor source="#SM_Barnacle_10_LOD1-POSITION-array" count="65" stride="3">
              <param name="X" type="float"/>
              <param name="Y" type="float"/>
              <param name="Z" type="float"/>
            </accessor>
          </technique_common>
        </source>
        <source id="SM_Barnacle_10_LOD1-Normal0">
          <float_array id="SM_Barnacle_10_LOD1-Normal0-array" count="1017">
0.415486 0.508824 0.753969
0.134472 0.394876 0.908840
0.258219 0.303258 0.917255
0.415486 0.508824 0.753969
0.185998 0.618291 0.763624
0.134472 0.394876 0.908840
-0.418147 0.249431 0.873463
-0.383788 -0.017385 0.923258
-0.341983 0.239230 0.908744
-0.383788 -0.017385 0.923258
-0.418147 0.249431 0.873463
-0.486775 0.008668 0.873484
-0.348621 -0.315374 0.882611
-0.126797 -0.309252 0.942489
-0.263036 -0.507422 0.820570
-0.126797 -0.309252 0.942489
-0.348621 -0.315374 0.882611
-0.216470 -0.226974 0.949539
0.678049 -0.486746 0.550752
0.583996 -0.487465 0.649097
0.722994 -0.175900 0.668086
0.678049 -0.486746 0.550752
0.722994 -0.175900 0.668086
0.726405 -0.231236 0.647198
0.722994 -0.175900 0.668086
0.655514 0.125382 0.744702
0.726405 -0.231236 0.647198
0.655514 0.125382 0.744702
0.722994 -0.175900 0.668086
0.773553 0.260344 0.577786
-0.251928 0.406442 0.878258
-0.100163 0.357181 0.928649
-0.198393 0.275781 0.940524
-0.100163 0.357181 0.928649
-0.251928 0.406442 0.878258
-0.127016 0.523237 0.842668
0.415486 0.508824 0.753969
0.140026 0.479987 0.866029
0.185998 0.618291 0.763624
0.140026 0.479987 0.866029
0.415486 0.508824 0.753969
0.273185 0.385697 0.881253
0.025354 -0.094495 0.995202
-0.186724 0.264572 0.946116
-0.310426 -0.015306 0.950474
0.367936 -0.697453 0.614966
0.325173 -0.591537 0.737798
0.069378 -0.659753 0.748273
0.367936 -0.697453 0.614966
0.069378 -0.659753 0.748273
0.049709 -0.757776 0.650618
-0.126797 -0.309252 0.942489
-0.216470 -0.226974 0.949539
-0.052062 -0.147977 0.987619
0.071547 -0.449674 0.890322
0.049709 -0.757776 0.650618
-0.152536 -0.629689 0.761725
-0.152536 -0.629689 0.761725
-0.043740 -0.391101 0.919308
0.071547 -0.449674 0.890322
0.358493 -0.335784 0.871052
0.217937 -0.469900 0.855394
0.097860 -0.223074 0.969877
0.415486 0.508824 0.753969
0.655514 0.125382 0.744702
0.773553 0.260344 0.577786
0.773553 0.260344 0.577786
0.273185 0.385697 0.881253
0.415486 0.508824 0.753969
-0.383788 -0.017385 0.923258
-0.486775 0.008668 0.873484
-0.434793 -0.208348 0.876097
0.722994 -0.175900 0.668086
0.583996 -0.487465 0.649097
0.358493 -0.335784 0.871052
0.025354 -0.094495 0.995202
-0.144064 -0.588328 0.795686
0.069378 -0.659753 0.748273
0.447993 0.076250 0.890780
0.726405 -0.231236 0.647198
0.655514 0.125382 0.744702
0.726405 -0.231236 0.647198
0.447993 0.076250 0.890780
0.574974 -0.128723 0.807982
-0.198393 0.275781 0.940524
-0.341983 0.239230 0.908744
-0.251928 0.406442 0.878258
-0.341983 0.239230 0.908744
-0.198393 0.275781 0.940524
-0.418147 0.249431 0.873463
0.025354 -0.094495 0.995202
0.005352 0.401011 0.916058
-0.186724 0.264572 0.946116
-0.263036 -0.507422 0.820570
-0.043740 -0.391101 0.919308
-0.152536 -0.629689 0.761725
-0.043740 -0.391101 0.919308
-0.263036 -0.507422 0.820570
-0.126797 -0.309252 0.942489
0.025354 -0.094495 0.995202
-0.304396 -0.348949 0.886328
-0.144064 -0.588328 0.795686
-0.005377 -0.169387 0.985535
-0.126797 -0.309252 0.942489
-0.052062 -0.147977 0.987619
0.071547 -0.449674 0.890322
-0.043740 -0.391101 0.919308
0.036737 -0.192380 0.980633
-0.047877 0.174203 0.983545
-0.100163 0.357181 0.928649
0.011039 0.188544 0.982003
0.011039 0.188544 0.982003
0.140026 0.479987 0.866029
0.135830 0.191602 0.972028
-0.166469 0.006252 0.986027
-0.294835 0.157699 0.942445
-0.168798 0.089911 0.981541
-0.111550 -0.120962 0.986370
-0.301123 -0.134788 0.944011
-0.144554 -0.063935 0.987429
-0.301123 -0.134788 0.944011
-0.337377 0.003758 0.941362
-0.144554 -0.063935 0.987429
-0.052062 -0.147977 0.987619
-0.216470 -0.226974 0.949539
-0.111550 -0.120962 0.986370
0.140026 0.479987 0.866029
0.273185 0.385697 0.881253
0.135830 0.191602 0.972028
0.273185 0.385697 0.881253
0.537832 0.223980 0.812755
0.135830 0.191602 0.972028
0.358493 -0.335784 0.871052
0.367936 -0.697453 0.614966
0.217937 -0.469900 0.855394
0.049709 -0.757776 0.650618
0.071547 -0.449674 0.890322
0.367936 -0.697453 0.614966
-0.144554 -0.063935 0.987429
-0.337377 0.003758 0.941362
-0.166469 0.006252 0.986027
-0.337377 0.003758 0.941362
-0.294835 0.157699 0.942445
-0.166469 0.006252 0.986027
0.005352 0.401011 0.916058
-0.127016 0.523237 0.842668
-0.186724 0.264572 0.946116
-0.251928 0.406442 0.878258
-0.186724 0.264572 0.946116
-0.127016 0.523237 0.842668
0.135830 0.191602 0.972028
0.537832 0.223980 0.812755
0.300639 0.129074 0.944964
0.537832 0.223980 0.812755
0.492673 -0.068453 0.867518
0.300639 0.129074 0.944964
0.025354 -0.094495 0.995202
-0.310426 -0.015306 0.950474
-0.304396 -0.348949 0.886328
-0.434793 -0.208348 0.876097
-0.216470 -0.226974 0.949539
-0.348621 -0.315374 0.882611
-0.348621 -0.315374 0.882611
-0.383788 -0.017385 0.923258
-0.434793 -0.208348 0.876097
0.097860 -0.223074 0.969877
0.071547 -0.449674 0.890322
0.036737 -0.192380 0.980633
0.537832 0.223980 0.812755
0.722994 -0.175900 0.668086
0.492673 -0.068453 0.867518
0.722994 -0.175900 0.668086
0.358493 -0.335784 0.871052
0.492673 -0.068453 0.867518
0.325173 -0.591537 0.737798
0.367936 -0.697453 0.614966
0.678049 -0.486746 0.550752
0.325173 -0.591537 0.737798
0.678049 -0.486746 0.550752
0.538309 -0.359718 0.762120
0.025354 -0.094495 0.995202
0.325173 -0.591537 0.737798
0.538309 -0.359718 0.762120
0.447993 0.076250 0.890780
0.655514 0.125382 0.744702
0.258219 0.303258 0.917255
0.655514 0.125382 0.744702
0.415486 0.508824 0.753969
0.258219 0.303258 0.917255
-0.168798 0.089911 0.981541
-0.294835 0.157699 0.942445
-0.113336 0.147562 0.982538
-0.294835 0.157699 0.942445
-0.198393 0.275781 0.940524
-0.113336 0.147562 0.982538
-0.113336 0.147562 0.982538
-0.198393 0.275781 0.940524
-0.047877 0.174203 0.983545
-0.198393 0.275781 0.940524
-0.100163 0.357181 0.928649
-0.047877 0.174203 0.983545
-0.216470 -0.226974 0.949539
-0.301123 -0.134788 0.944011
-0.111550 -0.120962 0.986370
-0.341983 0.239230 0.908744
-0.310426 -0.015306 0.950474
-0.186724 0.264572 0.946116
-0.310426 -0.015306 0.950474
-0.341983 0.239230 0.908744
-0.383788 -0.017385 0.923258
-0.127016 0.523237 0.842668
0.019560 0.414313 0.909924
-0.100163 0.357181 0.928649
0.019560 0.414313 0.909924
-0.127016 0.523237 0.842668
0.044960 0.607465 0.793073
-0.100163 0.357181 0.928649
0.019560 0.414313 0.909924
0.011039 0.188544 0.982003
0.036737 -0.192380 0.980633
-0.043740 -0.391101 0.919308
-0.005377 -0.169387 0.985535
0.025354 -0.094495 0.995202
0.258219 0.303258 0.917255
0.134472 0.394876 0.908840
0.574974 -0.128723 0.807982
0.447993 0.076250 0.890780
0.025354 -0.094495 0.995202
0.492673 -0.068453 0.867518
0.358493 -0.335784 0.871052
0.232390 -0.221051 0.947170
0.232390 -0.221051 0.947170
0.358493 -0.335784 0.871052
0.097860 -0.223074 0.969877
-0.043740 -0.391101 0.919308
-0.126797 -0.309252 0.942489
-0.005377 -0.169387 0.985535
0.583996 -0.487465 0.649097
0.678049 -0.486746 0.550752
0.367936 -0.697453 0.614966
0.583996 -0.487465 0.649097
0.367936 -0.697453 0.614966
0.358493 -0.335784 0.871052
0.044960 0.607465 0.793073
-0.127016 0.523237 0.842668
0.005352 0.401011 0.916058
-0.304396 -0.348949 0.886328
-0.152536 -0.629689 0.761725
-0.144064 -0.588328 0.795686
-0.152536 -0.629689 0.761725
-0.304396 -0.348949 0.886328
-0.263036 -0.507422 0.820570
0.367936 -0.697453 0.614966
0.071547 -0.449674 0.890322
0.217937 -0.469900 0.855394
0.217937 -0.469900 0.855394
0.071547 -0.449674 0.890322
0.097860 -0.223074 0.969877
0.300639 0.129074 0.944964
0.492673 -0.068453 0.867518
0.353697 -0.054646 0.933762
0.492673 -0.068453 0.867518
0.232390 -0.221051 0.947170
0.353697 -0.054646 0.933762
0.273185 0.385697 0.881253
0.773553 0.260344 0.577786
0.537832 0.223980 0.812755
0.773553 0.260344 0.577786
0.722994 -0.175900 0.668086
0.537832 0.223980 0.812755
-0.348621 -0.315374 0.882611
-0.310426 -0.015306 0.950474
-0.383788 -0.017385 0.923258
-0.310426 -0.015306 0.950474
-0.348621 -0.315374 0.882611
-0.304396 -0.348949 0.886328
0.140026 0.479987 0.866029
0.044960 0.607465 0.793073
0.185998 0.618291 0.763624
0.044960 0.607465 0.793073
0.140026 0.479987 0.866029
0.019560 0.414313 0.909924
0.019560 0.414313 0.909924
0.140026 0.479987 0.866029
0.011039 0.188544 0.982003
0.726405 -0.231236 0.647198
0.538309 -0.359718 0.762120
0.678049 -0.486746 0.550752
0.538309 -0.359718 0.762120
0.726405 -0.231236 0.647198
0.574974 -0.128723 0.807982
-0.301123 -0.134788 0.944011
-0.486775 0.008668 0.873484
-0.337377 0.003758 0.941362
-0.337377 0.003758 0.941362
-0.486775 0.008668 0.873484
-0.294835 0.157699 0.942445
-0.251928 0.406442 0.878258
-0.341983 0.239230 0.908744
-0.186724 0.264572 0.946116
-0.216470 -0.226974 0.949539
-0.434793 -0.208348 0.876097
-0.301123 -0.134788 0.944011
-0.434793 -0.208348 0.876097
-0.486775 0.008668 0.873484
-0.301123 -0.134788 0.944011
-0.348621 -0.315374 0.882611
-0.263036 -0.507422 0.820570
-0.304396 -0.348949 0.886328
0.025354 -0.094495 0.995202
0.069378 -0.659753 0.748273
0.325173 -0.591537 0.737798
0.069378 -0.659753 0.748273
-0.144064 -0.588328 0.795686
0.049709 -0.757776 0.650618
-0.152536 -0.629689 0.761725
0.049709 -0.757776 0.650618
-0.144064 -0.588328 0.795686
0.025354 -0.094495 0.995202
0.538309 -0.359718 0.762120
0.574974 -0.128723 0.807982
0.025354 -0.094495 0.995202
0.134472 0.394876 0.908840
0.005352 0.401011 0.916058
0.044960 0.607465 0.793073
0.005352 0.401011 0.916058
0.185998 0.618291 0.763624
0.005352 0.401011 0.916058
0.134472 0.394876 0.908840
0.185998 0.618291 0.763624
-0.486775 0.008668 0.873484
-0.418147 0.249431 0.873463
-0.294835 0.157699 0.942445
-0.294835 0.157699 0.942445
-0.418147 0.249431 0.873463
-0.198393 0.275781 0.940524
0.025354 -0.094495 0.995202
0.447993 0.076250 0.890780
0.258219 0.303258 0.917255
</float_array>
          <technique_common>
            <accessor source="#SM_Barnacle_10_LOD1-Normal0-array" count="339" stride="3">
              <param name="X" type="float"/>
              <param name="Y" type="float"/>
              <param name="Z" type="float"/>
            </accessor>
          </technique_common>
        </source>
        <source id="SM_Barnacle_10_LOD1-UV0">
          <float_array id="SM_Barnacle_10_LOD1-UV0-array" count="130">
0.807658 0.194121
0.844623 0.262503
0.776989 0.270670
0.851619 0.205371
0.809581 0.258589
0.782750 0.214854
0.792233 0.277303
0.800430 0.241032
0.819088 0.242860
0.855617 0.236433
0.773294 0.250057
0.825443 0.264553
0.797427 0.257029
0.837374 0.196778
0.816995 0.277441
0.810886 0.249197
0.793101 0.199491
0.806410 0.235751
0.818847 0.250929
0.848514 0.237084
0.786678 0.218940
0.822571 0.193131
0.847086 0.223750
0.855786 0.220410
0.779540 0.249642
0.838879 0.259581
0.831875 0.204913
0.795919 0.231339
0.780981 0.264673
0.821377 0.222763
0.833886 0.272710
0.797387 0.267738
0.814053 0.258496
0.792741 0.250349
0.820019 0.200683
0.807531 0.202131
0.841074 0.212798
0.814702 0.220810
0.795642 0.208765
0.851413 0.250658
0.801563 0.254415
0.815837 0.274299
0.845054 0.249444
0.812397 0.263407
0.813961 0.267895
0.800784 0.225462
0.829949 0.246827
0.829687 0.267897
0.794249 0.273484
0.787742 0.260735
0.814181 0.236559
0.781964 0.231665
0.828994 0.231883
0.802027 0.262429
0.827880 0.211660
0.807483 0.221761
0.835262 0.218171
0.830687 0.239288
0.817936 0.254525
0.827077 0.253486
0.805714 0.257784
0.799563 0.245143
0.818339 0.208659
0.793719 0.238608
0.800568 0.249793
</float_array>
          <technique_common>
            <accessor source="#SM_Barnacle_10_LOD1-UV0-array" count="65" stride="2">
              <param name="S" type="float"/>
              <param name="T" type="float"/>
            </accessor>
          </technique_common>
        </source>
        <vertices id="SM_Barnacle_10_LOD1-VERTEX">
          <input semantic="POSITION" source="#SM_Barnacle_10_LOD1-POSITION"/>
        </vertices>
        <triangles count="113" material="MAT_Sea_Shells">
          <input semantic="VERTEX" offset="0" source="#SM_Barnacle_10_LOD1-VERTEX"/>
          <input semantic="NORMAL" offset="1" source="#SM_Barnacle_10_LOD1-Normal0"/>
          <input semantic="TEXCOORD" offset="2" set="0" source="#SM_Barnacle_10_LOD1-UV0"/>
          <p> 33 0 33 61 1 61 64 2 64 33 3 33 63 4 63 61 5 61 62 6 62 29 7 29 37 8 37 29 9 29 62 10 62 54 11 54 52 12 52 19 13 19 57 14 57 19 15 19 52 16 52 22 17 22 43 18 43 44 19 44 31 20 31 43 21 43 31 22 31 53 23 53 31 24 31 12 25 12 53 26 53 12 27 12 31 28 31 49 29 49 55 30 55 38 31 38 35 32 35 38 33 38 55 34 55 45 35 45 33 36 33 51 37 51 63 38 63 51 39 51 33 40 33 24 41 24 15 42 15 17 43 17 50 44 50 11 45 11 32 46 32 58 47 58 11 48 11 58 49 58 59 50 59 19 51 19 22 52 22 9 53 9 25 54 25 59 55 59 46 56 46 46 57 46 42 58 42 25 59 25 41 60 41 47 61 47 30 62 30 33 63 33 12 64 12 49 65 49 49 66 49 24 67 24 33 68 33 29 69 29 54 70 54 56 71 56 31 72 31 44 73 44 41 74 41 15 75 15 18 76 18 58 77 58 40 78 40 53 79 53 12 80 12 53 81 53 40 82 40 60 83 60 35 84 35 37 85 37 55 86 55 37 87 37 35 88 35 62 89 62 15 90 15 7 91 7 17 92 17 57 93 57 42 94 42 46 95 46 42 96 42 57 97 57 19 98 19 15 99 15 8 100 8 18 101 18 39 102 39 19 103 19 9 104 9 25 105 25 42 106 42 1 107 1 16 108 16 38 109 38 5 110 5 5 111 5 51 112 51 10 113 10 13 114 13 34 115 34 21 116 21 23 117 23 36 118 36 3 119 3 36 120 36 26 121 26 3 122 3 9 123 9 22 124 22 23 125 23 51 126 51 24 127 24 10 128 10 24 129 24 28 130 28 10 131 10 41 132 41 11 133 11 47 134 47 59 135 59 25 136 25 11 137 11 3 138 3 26 139 26 13 140 13 26 141 26 34 142 34 13 143 13 7 144 7 45 145 45 17 146 17 55 147 55 17 148 17 45 149 45 10 150 10 28 151 28 2 152 2 28 153 28 48 154 48 2 155 2 15 156 15 50 157 50 8 158 8 56 159 56 22 160 22 52 161 52 52 162 52 29 163 29 56 164 56 30 165 30 25 166 25 1 167 1 28 168 28 31 169 31 48 170 48 31 171 31 41 172 41 48 173 48 32 174 32 11 175 11 43 176 43 32 177 32 43 178 43 4 179 4 15 180 15 32 181 32 4 182 4 40 183 40 12 184 12 64 185 64 12 186 12 33 187 33 64 188 64 21 189 21 34 190 34 0 191 0 34 192 34 35 193 35 0 194 0 0 195 0 35 196 35 16 197 16 35 198 35 38 199 38 16 200 16 22 201 22 36 202 36 23 203 23 37 204 37 50 205 50 17 206 17 50 207 50 37 208 37 29 209 29 45 210 45 20 211 20 38 212 38 20 213 20 45 214 45 27 215 27 38 216 38 20 217 20 5 218 5 1 219 1 42 220 42 39 221 39 15 222 15 64 223 64 61 224 61 60 225 60 40 226 40 15 227 15 48 228 48 41 229 41 14 230 14 14 231 14 41 232 41 30 233 30 42 234 42 19 235 19 39 236 39 44 237 44 43 238 43 11 239 11 44 240 44 11 241 11 41 242 41 27 243 27 45 244 45 7 245 7 8 246 8 46 247 46 18 248 18 46 249 46 8 250 8 57 251 57 11 252 11 25 253 25 47 254 47 47 255 47 25 256 25 30 257 30 2 258 2 48 259 48 6 260 6 48 261 48 14 262 14 6 263 6 24 264 24 49 265 49 28 266 28 49 267 49 31 268 31 28 269 28 52 270 52 50 271 50 29 272 29 50 273 50 52 274 52 8 275 8 51 276 51 27 277 27 63 278 63 27 279 27 51 280 51 20 281 20 20 282 20 51 283 51 5 284 5 53 285 53 4 286 4 43 287 43 4 288 4 53 289 53 60 290 60 36 291 36 54 292 54 26 293 26 26 294 26 54 295 54 34 296 34 55 297 55 37 298 37 17 299 17 22 300 22 56 301 56 36 302 36 56 303 56 54 304 54 36 305 36 52 306 52 57 307 57 8 308 8 15 309 15 58 310 58 32 311 32 58 312 58 18 313 18 59 314 59 46 315 46 59 316 59 18 317 18 15 318 15 4 319 4 60 320 60 15 321 15 61 322 61 7 323 7 27 324 27 7 325 7 63 326 63 7 327 7 61 328 61 63 329 63 54 330 54 62 331 62 34 332 34 34 333 34 62 334 62 35 335 35 15 336 15 40 337 40 64 338 64</p>
        </triangles>
      </mesh>
    </geometry>
  </library_geometries>
  <library_visual_scenes>
    <visual_scene id="SM_Barnacle_10" name="SM_Barnacle_10">
      <node name="SM_Barnacle_10_LOD0" id="SM_Barnacle_10_LOD0" layer="shells" sid="SM_Barnacle_10_LOD0">
        <matrix sid="matrix">1.000000 0.000000 0.000000 0.000000 0.000000 0.000000 1.000000 0.000000 0.000000 -1.000000 0.000000 0.000000 0.000000 0.000000 0.000000 1.000000</matrix>
        <instance_geometry url="#SM_Barnacle_10_LOD0-lib">
          <bind_material>
            <technique_common>
              <instance_material symbol="MAT_Sea_Shells" target="#MAT_Sea_Shells"/>
            </technique_common>
          </bind_material>
        </instance_geometry>
        <extra>
          <technique profile="FCOLLADA">
            <visibility>1.000000</visibility>
          </technique>
        </extra>
      </node>
      <node name="SM_Barnacle_10_LOD1" id="SM_Barnacle_10_LOD1" layer="shells" sid="SM_Barnacle_10_LOD1">
        <matrix sid="matrix">1.000000 0.000000 0.000000 0.000000 0.000000 0.000000 1.000000 0.000000 0.000000 -1.000000 0.000000 0.000000 0.000000 0.000000 0.000000 1.000000</matrix>
        <instance_geometry url="#SM_Barnacle_10_LOD1-lib">
          <bind_material>
            <technique_common>
              <instance_material symbol="MAT_Sea_Shells" target="#MAT_Sea_Shells"/>
            </technique_common>
          </bind_material>
        </instance_geometry>
        <extra>
          <technique profile="FCOLLADA">
            <visibility>1.000000</visibility>
          </technique>
        </extra>
      </node>
      <extra>
        <technique profile="MAX3D">
          <frame_rate>30.000000</frame_rate>
        </technique>
        <technique profile="FCOLLADA">
          <start_time>0.000000</start_time>
          <end_time>3.333333</end_time>
        </technique>
      </extra>
    </visual_scene>
  </library_visual_scenes>
  <scene>
    <instance_visual_scene url="#SM_Barnacle_10"/>
  </scene>
</COLLADA>
