<?xml version="1.0" encoding="utf-8"?>
<COLLADA xmlns="http://www.collada.org/2005/11/COLLADASchema" version="1.4.1">
  <asset>
    <contributor>
      <author/>
      <authoring_tool>FBX COLLADA exporter</authoring_tool>
      <comments/>
    </contributor>
    <created>2024-02-10T11:42:31Z</created>
    <keywords/>
    <modified>2024-02-10T11:42:31Z</modified>
    <revision/>
    <subject/>
    <title/>
    <unit meter="0.010000" name="centimeter"/>
    <up_axis>Y_UP</up_axis>
  </asset>
  <library_materials>
    <material id="MAT_Sea_Shells" name="MAT_Sea_Shells">
      <instance_effect url="#MAT_Sea_Shells-fx"/>
    </material>
  </library_materials>
  <library_effects>
    <effect id="MAT_Sea_Shells-fx" name="MAT_Sea_Shells">
      <profile_COMMON>
        <technique sid="standard">
          <phong>
            <emission>
              <color sid="emission">0.000000  0.000000 0.000000 1.000000</color>
            </emission>
            <ambient>
              <color sid="ambient">0.588235  0.588235 0.588235 1.000000</color>
            </ambient>
            <diffuse>
              <color sid="diffuse">0.588235  0.588235 0.588235 1.000000</color>
            </diffuse>
            <specular>
              <color sid="specular">0.000000  0.000000 0.000000 1.000000</color>
            </specular>
            <shininess>
              <float sid="shininess">2.000000</float>
            </shininess>
            <reflective>
              <color sid="reflective">0.000000  0.000000 0.000000 1.000000</color>
            </reflective>
            <reflectivity>
              <float sid="reflectivity">1.000000</float>
            </reflectivity>
            <transparent opaque="RGB_ZERO">
              <color sid="transparent">1.000000  1.000000 1.000000 1.000000</color>
            </transparent>
            <transparency>
              <float sid="transparency">0.000000</float>
            </transparency>
          </phong>
        </technique>
      </profile_COMMON>
    </effect>
  </library_effects>
  <library_geometries>
    <geometry id="SM_Barnacle_03_LOD0-lib" name="SM_Barnacle_03_LOD0Mesh">
      <mesh>
        <source id="SM_Barnacle_03_LOD0-POSITION">
          <float_array id="SM_Barnacle_03_LOD0-POSITION-array" count="153">
-2.916550 0.767303 0.000001
-2.141981 0.669189 0.137222
-2.671043 -0.848816 0.000001
-1.602567 -2.386261 0.000001
-2.044482 -0.706116 0.147788
-0.187365 -3.005676 0.000001
0.027160 -2.076569 0.137222
1.211215 -2.353943 0.000001
0.824320 -1.724884 0.134933
-1.186619 -1.822083 0.147788
-0.953362 -1.393311 0.521432
-1.630807 0.482483 0.472808
-1.554204 2.139801 0.000001
-1.600508 -0.544159 0.521432
-0.515738 0.444702 1.025757
-0.026381 -0.354736 1.198593
-0.487625 -0.139496 1.319101
-0.462776 -0.488434 1.333226
-0.898882 0.096039 1.025757
-0.867645 -0.510529 1.052284
-0.226707 -0.802246 1.333226
0.400160 -1.023438 1.020090
0.074439 -1.175354 1.025757
0.082270 -0.897095 1.319101
-0.470644 -1.035126 1.052284
-0.015553 -1.584351 0.472808
0.583846 -1.336517 0.462283
0.248451 -0.809448 1.316127
0.419558 -0.680359 1.319101
0.718157 -0.768066 1.025757
2.669038 -1.230164 0.000001
2.078553 0.230499 0.147788
2.916550 0.496826 0.000001
1.987280 2.078644 0.000001
0.542665 3.005676 0.000000
-1.158466 1.489227 0.137222
-0.938130 1.123962 0.472808
0.040514 0.689362 1.025757
-0.313919 0.096649 1.319101
0.009925 0.178101 1.319101
0.336062 0.018127 1.333226
0.505689 -0.337463 1.333226
0.896590 -0.173645 1.052284
1.169331 -0.837524 0.472808
1.624962 -1.070740 0.137222
1.485690 1.513214 0.147788
0.200055 2.143250 0.137222
0.086655 1.564423 0.472808
0.614269 0.423187 1.052284
1.070891 1.136200 0.521432
1.525242 0.165680 0.521432
</float_array>
          <technique_common>
            <accessor source="#SM_Barnacle_03_LOD0-POSITION-array" count="51" stride="3">
              <param name="X" type="float"/>
              <param name="Y" type="float"/>
              <param name="Z" type="float"/>
            </accessor>
          </technique_common>
        </source>
        <source id="SM_Barnacle_03_LOD0-Normal0">
          <float_array id="SM_Barnacle_03_LOD0-Normal0-array" count="810">
-0.344824 0.147498 0.927006
-0.106621 0.161409 0.981111
-0.168967 0.063485 0.983575
-0.192523 -0.077200 0.978251
-0.344824 0.147498 0.927006
-0.168967 0.063485 0.983575
-0.384163 -0.143695 0.912015
-0.344824 0.147498 0.927006
-0.192523 -0.077200 0.978251
-0.118160 -0.151348 0.981393
-0.384163 -0.143695 0.912015
-0.192523 -0.077200 0.978251
-0.220120 -0.333595 0.916658
-0.384163 -0.143695 0.912015
-0.118160 -0.151348 0.981393
0.012708 -0.165176 0.986182
-0.220120 -0.333595 0.916658
-0.118160 -0.151348 0.981393
0.042027 -0.376274 0.925555
-0.220120 -0.333595 0.916658
0.012708 -0.165176 0.986182
0.092840 -0.151467 0.984093
0.042027 -0.376274 0.925555
0.012708 -0.165176 0.986182
0.202299 -0.331295 0.921585
0.042027 -0.376274 0.925555
0.092840 -0.151467 0.984093
0.086942 -0.692607 0.716056
0.042027 -0.376274 0.925555
0.202299 -0.331295 0.921585
0.086942 -0.692607 0.716056
-0.220120 -0.333595 0.916658
0.042027 -0.376274 0.925555
0.086942 -0.692607 0.716056
-0.331175 -0.557828 0.761020
-0.220120 -0.333595 0.916658
-0.331175 -0.557828 0.761020
-0.384163 -0.143695 0.912015
-0.220120 -0.333595 0.916658
-0.331175 -0.557828 0.761020
-0.567796 -0.200338 0.798419
-0.384163 -0.143695 0.912015
-0.567796 -0.200338 0.798419
-0.507235 0.225764 0.831711
-0.384163 -0.143695 0.912015
-0.507235 0.225764 0.831711
-0.344824 0.147498 0.927006
-0.384163 -0.143695 0.912015
-0.507235 0.225764 0.831711
-0.219823 0.337065 0.915459
-0.344824 0.147498 0.927006
-0.219823 0.337065 0.915459
-0.106621 0.161409 0.981111
-0.344824 0.147498 0.927006
-0.317896 0.488092 0.812840
-0.219823 0.337065 0.915459
-0.507235 0.225764 0.831711
-0.505439 0.214104 0.835877
-0.317896 0.488092 0.812840
-0.507235 0.225764 0.831711
-0.567796 -0.200338 0.798419
-0.505439 0.214104 0.835877
-0.507235 0.225764 0.831711
-0.505439 0.214104 0.835877
-0.308200 0.470618 0.826759
-0.317896 0.488092 0.812840
-0.505439 0.214104 0.835877
-0.098836 0.151680 0.983476
-0.308200 0.470618 0.826759
-0.505439 0.214104 0.835877
-0.143624 0.086958 0.985805
-0.098836 0.151680 0.983476
-0.143624 0.086958 0.985805
0.002933 0.018567 0.999823
-0.098836 0.151680 0.983476
-0.161243 -0.042021 0.986020
0.002933 0.018567 0.999823
-0.143624 0.086958 0.985805
-0.563800 -0.196403 0.802219
-0.161243 -0.042021 0.986020
-0.143624 0.086958 0.985805
-0.505439 0.214104 0.835877
-0.563800 -0.196403 0.802219
-0.143624 0.086958 0.985805
-0.567796 -0.200338 0.798419
-0.563800 -0.196403 0.802219
-0.505439 0.214104 0.835877
-0.331175 -0.557828 0.761020
-0.563800 -0.196403 0.802219
-0.567796 -0.200338 0.798419
-0.331175 -0.557828 0.761020
-0.346639 -0.584892 0.733309
-0.563800 -0.196403 0.802219
-0.346639 -0.584892 0.733309
-0.161243 -0.042021 0.986020
-0.563800 -0.196403 0.802219
-0.346639 -0.584892 0.733309
-0.090921 -0.194550 0.976670
-0.161243 -0.042021 0.986020
-0.090921 -0.194550 0.976670
0.002933 0.018567 0.999823
-0.161243 -0.042021 0.986020
-0.090921 -0.194550 0.976670
0.061619 -0.274848 0.959511
0.002933 0.018567 0.999823
0.061619 -0.274848 0.959511
0.167236 -0.265039 0.949624
0.002933 0.018567 0.999823
0.061619 -0.274848 0.959511
0.423245 -0.681302 0.597236
0.167236 -0.265039 0.949624
0.061619 -0.274848 0.959511
0.098673 -0.757138 0.645760
0.423245 -0.681302 0.597236
-0.090921 -0.194550 0.976670
0.098673 -0.757138 0.645760
0.061619 -0.274848 0.959511
-0.346639 -0.584892 0.733309
0.098673 -0.757138 0.645760
-0.090921 -0.194550 0.976670
0.086942 -0.692607 0.716056
0.098673 -0.757138 0.645760
-0.346639 -0.584892 0.733309
0.086942 -0.692607 0.716056
-0.346639 -0.584892 0.733309
-0.331175 -0.557828 0.761020
0.380307 -0.618863 0.687295
0.098673 -0.757138 0.645760
0.086942 -0.692607 0.716056
0.098673 -0.757138 0.645760
0.380307 -0.618863 0.687295
0.423245 -0.681302 0.597236
0.202299 -0.331295 0.921585
0.380307 -0.618863 0.687295
0.086942 -0.692607 0.716056
0.423245 -0.681302 0.597236
0.204217 -0.178813 0.962456
0.167236 -0.265039 0.949624
0.204217 -0.178813 0.962456
0.002933 0.018567 0.999823
0.167236 -0.265039 0.949624
0.182903 -0.018585 0.982955
0.002933 0.018567 0.999823
0.204217 -0.178813 0.962456
0.603270 -0.444871 0.661933
0.182903 -0.018585 0.982955
0.204217 -0.178813 0.962456
0.423245 -0.681302 0.597236
0.603270 -0.444871 0.661933
0.204217 -0.178813 0.962456
0.380307 -0.618863 0.687295
0.603270 -0.444871 0.661933
0.423245 -0.681302 0.597236
0.556494 -0.409794 0.722761
0.603270 -0.444871 0.661933
0.380307 -0.618863 0.687295
0.202299 -0.331295 0.921585
0.556494 -0.409794 0.722761
0.380307 -0.618863 0.687295
0.302160 -0.218058 0.927982
0.556494 -0.409794 0.722761
0.202299 -0.331295 0.921585
0.092840 -0.151467 0.984093
0.302160 -0.218058 0.927982
0.202299 -0.331295 0.921585
0.129914 -0.088883 0.987533
0.302160 -0.218058 0.927982
0.092840 -0.151467 0.984093
0.356916 0.020537 0.933911
0.302160 -0.218058 0.927982
0.129914 -0.088883 0.987533
0.157523 0.024459 0.987212
0.356916 0.020537 0.933911
0.129914 -0.088883 0.987533
0.251389 0.253344 0.934142
0.356916 0.020537 0.933911
0.157523 0.024459 0.987212
0.122082 0.118160 0.985461
0.251389 0.253344 0.934142
0.157523 0.024459 0.987212
0.002933 0.163293 0.986573
0.251389 0.253344 0.934142
0.122082 0.118160 0.985461
-0.008793 0.354626 0.934967
0.251389 0.253344 0.934142
0.002933 0.163293 0.986573
-0.106621 0.161409 0.981111
-0.008793 0.354626 0.934967
0.002933 0.163293 0.986573
-0.219823 0.337065 0.915459
-0.008793 0.354626 0.934967
-0.106621 0.161409 0.981111
-0.020516 0.534356 0.845010
-0.008793 0.354626 0.934967
-0.219823 0.337065 0.915459
-0.317896 0.488092 0.812840
-0.020516 0.534356 0.845010
-0.219823 0.337065 0.915459
-0.012708 0.521052 0.853431
-0.020516 0.534356 0.845010
-0.317896 0.488092 0.812840
-0.308200 0.470618 0.826759
-0.012708 0.521052 0.853431
-0.317896 0.488092 0.812840
-0.026372 0.155307 0.987514
-0.012708 0.521052 0.853431
-0.308200 0.470618 0.826759
-0.098836 0.151680 0.983476
-0.026372 0.155307 0.987514
-0.308200 0.470618 0.826759
0.002933 0.018567 0.999823
-0.026372 0.155307 0.987514
-0.098836 0.151680 0.983476
0.083139 0.106613 0.990819
-0.026372 0.155307 0.987514
0.002933 0.018567 0.999823
0.182903 -0.018585 0.982955
0.083139 0.106613 0.990819
0.002933 0.018567 0.999823
0.621220 0.002936 0.783630
0.083139 0.106613 0.990819
0.182903 -0.018585 0.982955
0.603270 -0.444871 0.661933
0.621220 0.002936 0.783630
0.182903 -0.018585 0.982955
0.556494 -0.409794 0.722761
0.621220 0.002936 0.783630
0.603270 -0.444871 0.661933
0.600462 0.004882 0.799638
0.621220 0.002936 0.783630
0.556494 -0.409794 0.722761
0.302160 -0.218058 0.927982
0.600462 0.004882 0.799638
0.556494 -0.409794 0.722761
0.356916 0.020537 0.933911
0.600462 0.004882 0.799638
0.302160 -0.218058 0.927982
0.251389 0.253344 0.934142
0.600462 0.004882 0.799638
0.356916 0.020537 0.933911
0.374213 0.385943 0.843216
0.600462 0.004882 0.799638
0.251389 0.253344 0.934142
-0.008793 0.354626 0.934967
0.374213 0.385943 0.843216
0.251389 0.253344 0.934142
-0.020516 0.534356 0.845010
0.374213 0.385943 0.843216
-0.008793 0.354626 0.934967
-0.012708 0.521052 0.853431
0.374213 0.385943 0.843216
-0.020516 0.534356 0.845010
0.360440 0.378023 0.852749
0.374213 0.385943 0.843216
-0.012708 0.521052 0.853431
0.360440 0.378023 0.852749
0.600462 0.004882 0.799638
0.374213 0.385943 0.843216
0.360440 0.378023 0.852749
0.621220 0.002936 0.783630
0.600462 0.004882 0.799638
0.360440 0.378023 0.852749
0.083139 0.106613 0.990819
0.621220 0.002936 0.783630
0.360440 0.378023 0.852749
-0.026372 0.155307 0.987514
0.083139 0.106613 0.990819
0.360440 0.378023 0.852749
-0.012708 0.521052 0.853431
-0.026372 0.155307 0.987514
</float_array>
          <technique_common>
            <accessor source="#SM_Barnacle_03_LOD0-Normal0-array" count="270" stride="3">
              <param name="X" type="float"/>
              <param name="Y" type="float"/>
              <param name="Z" type="float"/>
            </accessor>
          </technique_common>
        </source>
        <source id="SM_Barnacle_03_LOD0-UV0">
          <float_array id="SM_Barnacle_03_LOD0-UV0-array" count="102">
0.092651 0.625977
0.077728 0.650635
0.080872 0.627686
0.086914 0.601318
0.077576 0.605469
0.065613 0.580566
0.060577 0.590820
0.040283 0.578125
0.038330 0.591553
0.018043 0.594971
0.024979 0.600708
0.040009 0.598877
0.057281 0.598633
0.070190 0.609863
0.072510 0.626709
0.067474 0.645508
0.062439 0.640015
0.054169 0.627686
0.048737 0.634766
0.041504 0.632666
0.043854 0.628174
0.036362 0.625977
0.042419 0.623047
0.052155 0.618408
0.044495 0.612061
0.037811 0.619629
0.032776 0.619385
0.030624 0.621216
0.031204 0.614990
0.035126 0.612305
0.029968 0.605469
0.032562 0.619629
0.037598 0.619873
0.035126 0.612305
0.040009 0.598877
0.038330 0.591553
0.041748 0.576416
0.060577 0.590820
0.067139 0.581299
0.077576 0.605469
0.086914 0.601318
0.093323 0.626221
0.080872 0.627686
0.072510 0.626709
0.054169 0.627686
0.043671 0.628418
0.042206 0.623291
0.044495 0.612061
0.057281 0.598633
0.070190 0.609863
0.052155 0.618408
</float_array>
          <technique_common>
            <accessor source="#SM_Barnacle_03_LOD0-UV0-array" count="51" stride="2">
              <param name="S" type="float"/>
              <param name="T" type="float"/>
            </accessor>
          </technique_common>
        </source>
        <vertices id="SM_Barnacle_03_LOD0-VERTEX">
          <input semantic="POSITION" source="#SM_Barnacle_03_LOD0-POSITION"/>
        </vertices>
        <triangles count="90" material="MAT_Sea_Shells">
          <input semantic="VERTEX" offset="0" source="#SM_Barnacle_03_LOD0-VERTEX"/>
          <input semantic="NORMAL" offset="1" source="#SM_Barnacle_03_LOD0-Normal0"/>
          <input semantic="TEXCOORD" offset="2" set="0" source="#SM_Barnacle_03_LOD0-UV0"/>
          <p> 1 0 2 12 1 1 0 2 0 2 3 3 1 4 2 0 5 0 4 6 4 1 7 2 2 8 3 3 9 5 4 10 4 2 11 3 9 12 6 4 13 4 3 14 5 5 15 7 9 16 6 3 17 5 6 18 8 9 19 6 5 20 7 7 21 9 6 22 8 5 23 7 8 24 10 6 25 8 7 26 9 25 27 11 6 28 8 8 29 10 25 30 11 9 31 6 6 32 8 25 33 11 10 34 12 9 35 6 10 36 12 4 37 4 9 38 6 10 39 12 13 40 13 4 41 4 13 42 13 11 43 14 4 44 4 11 45 14 1 46 2 4 47 4 11 48 14 35 49 15 1 50 2 35 51 15 12 52 1 1 53 2 36 54 16 35 55 15 11 56 14 18 57 17 36 58 16 11 59 14 13 60 13 18 61 17 11 62 14 18 63 17 14 64 18 36 65 16 18 66 17 38 67 19 14 68 18 18 69 17 16 70 20 38 71 19 16 72 20 15 73 21 38 74 19 17 75 22 15 76 21 16 77 20 19 78 23 17 79 22 16 80 20 18 81 17 19 82 23 16 83 20 13 84 13 19 85 23 18 86 17 10 87 12 19 88 23 13 89 13 10 90 12 24 91 24 19 92 23 24 93 24 17 94 22 19 95 23 24 96 24 20 97 25 17 98 22 20 99 25 15 100 21 17 101 22 20 102 25 23 103 26 15 104 21 23 105 26 27 106 27 15 107 21 23 108 26 21 109 28 27 110 27 23 111 26 22 112 29 21 113 28 20 114 25 22 115 29 23 116 26 24 117 24 22 118 29 20 119 25 25 120 11 22 121 29 24 122 24 25 123 11 24 124 24 10 125 12 26 126 30 22 127 29 25 128 11 22 129 29 26 130 30 21 131 28 8 132 10 26 133 30 25 134 11 21 135 28 28 136 31 27 137 27 28 138 31 15 139 21 27 140 27 41 141 32 15 142 21 28 143 31 29 144 33 41 145 32 28 146 31 21 147 28 29 148 33 28 149 31 26 150 30 29 151 33 21 152 28 43 153 34 29 154 33 26 155 30 8 156 10 43 157 34 26 158 30 44 159 35 43 160 34 8 161 10 7 162 9 44 163 35 8 164 10 30 165 36 44 166 35 7 167 9 31 168 37 44 169 35 30 170 36 32 171 38 31 172 37 30 173 36 45 174 39 31 175 37 32 176 38 33 177 40 45 178 39 32 179 38 34 180 41 45 181 39 33 182 40 46 183 42 45 184 39 34 185 41 12 186 1 46 187 42 34 188 41 35 189 15 46 190 42 12 191 1 47 192 43 46 193 42 35 194 15 36 195 16 47 196 43 35 197 15 37 198 44 47 199 43 36 200 16 14 201 18 37 202 44 36 203 16 39 204 45 37 205 44 14 206 18 38 207 19 39 208 45 14 209 18 15 210 21 39 211 45 38 212 19 40 213 46 39 214 45 15 215 21 41 216 32 40 217 46 15 218 21 42 219 47 40 220 46 41 221 32 29 222 33 42 223 47 41 224 32 43 225 34 42 226 47 29 227 33 50 228 48 42 229 47 43 230 34 44 231 35 50 232 48 43 233 34 31 234 37 50 235 48 44 236 35 45 237 39 50 238 48 31 239 37 49 240 49 50 241 48 45 242 39 46 243 42 49 244 49 45 245 39 47 246 43 49 247 49 46 248 42 37 249 44 49 250 49 47 251 43 48 252 50 49 253 49 37 254 44 48 255 50 50 256 48 49 257 49 48 258 50 42 259 47 50 260 48 48 261 50 40 262 46 42 263 47 48 264 50 39 265 45 40 266 46 48 267 50 37 268 44 39 269 45</p>
        </triangles>
      </mesh>
    </geometry>
    <geometry id="SM_Barnacle_03_LOD1-lib" name="SM_Barnacle_03_LOD1Mesh">
      <mesh>
        <source id="SM_Barnacle_03_LOD1-POSITION">
          <float_array id="SM_Barnacle_03_LOD1-POSITION-array" count="102">
0.082040 -0.905243 1.310509
2.916550 0.496826 0.000001
-2.916550 0.767303 0.000001
-0.187365 -3.005676 0.000001
-2.671043 -0.848816 0.000001
0.542665 3.005676 0.000000
0.027160 -2.076569 0.137222
-0.428443 -0.059021 1.319101
2.669038 -1.230164 0.000001
2.078553 0.230499 0.147788
0.200055 2.143250 0.137222
-2.138949 0.668091 0.139212
0.515823 -0.333221 1.325942
-1.175969 -1.802521 0.164846
-1.602567 -2.386261 0.000001
0.009925 0.178101 1.319101
1.624962 -1.070740 0.137222
-1.554204 2.139801 0.000001
1.987280 2.078644 0.000001
1.478442 1.506622 0.154316
-2.044482 -0.706116 0.147788
-0.026381 -0.354736 1.198593
-0.226707 -0.802246 1.333226
-1.158466 1.489227 0.137222
-0.015553 -1.584351 0.472808
1.211215 -2.353943 0.000001
0.419558 -0.680359 1.319101
1.169331 -0.837524 0.472808
0.583846 -1.336517 0.462283
0.824320 -1.724884 0.134933
0.336062 0.018127 1.333226
0.679819 -0.798859 1.025074
-0.462776 -0.488434 1.333226
1.525242 0.165680 0.521432
</float_array>
          <technique_common>
            <accessor source="#SM_Barnacle_03_LOD1-POSITION-array" count="34" stride="3">
              <param name="X" type="float"/>
              <param name="Y" type="float"/>
              <param name="Z" type="float"/>
            </accessor>
          </technique_common>
        </source>
        <source id="SM_Barnacle_03_LOD1-Normal0">
          <float_array id="SM_Barnacle_03_LOD1-Normal0-array" count="504">
0.090839 -0.667097 0.739412
-0.128486 -0.294491 0.946977
-0.212590 -0.323792 0.921935
-0.032096 0.266599 0.963273
-0.013084 0.295594 0.955224
-0.199019 0.311724 0.929096
0.535352 -0.380176 0.754231
0.604821 -0.461269 0.649171
0.362870 -0.603940 0.709635
-0.363721 -0.124783 0.923112
-0.233909 0.152711 0.960191
-0.287868 0.127208 0.949184
0.164137 0.163476 0.972797
0.573942 0.026763 0.818458
0.232231 0.232875 0.944372
0.051173 -0.325899 0.944019
-0.212590 -0.323792 0.921935
0.007165 -0.165222 0.986230
0.093303 -0.152338 0.983914
0.264157 -0.203571 0.942751
0.195666 -0.318362 0.927556
0.164137 0.163476 0.972797
0.328484 -0.032282 0.943958
0.573942 0.026763 0.818458
-0.363721 -0.124783 0.923112
-0.262658 -0.076881 0.961821
-0.233909 0.152711 0.960191
0.130997 -0.075964 0.988468
0.264157 -0.203571 0.942751
0.093303 -0.152338 0.983914
0.170689 0.031313 0.984827
0.318913 0.017504 0.947622
0.130997 -0.075964 0.988468
0.232231 0.232875 0.944372
0.318913 0.017504 0.947622
0.170689 0.031313 0.984827
0.016830 0.161690 0.986698
0.232231 0.232875 0.944372
0.141475 0.138580 0.980194
-0.101170 0.155918 0.982575
-0.013084 0.295594 0.955224
0.016830 0.161690 0.986698
-0.205862 -0.069691 0.976096
-0.287868 0.127208 0.949184
-0.170023 0.048467 0.984248
-0.199019 0.311724 0.929096
-0.013084 0.295594 0.955224
-0.101170 0.155918 0.982575
0.082922 -0.448391 0.889983
0.362870 -0.603940 0.709635
0.604821 -0.461269 0.649171
0.293780 -0.258510 0.920253
0.025952 -0.003205 0.999658
0.082922 -0.448391 0.889983
-0.212590 -0.323792 0.921935
-0.262658 -0.076881 0.961821
-0.363721 -0.124783 0.923112
0.007165 -0.165222 0.986230
-0.212590 -0.323792 0.921935
-0.139902 -0.174089 0.974741
-0.212590 -0.323792 0.921935
-0.363721 -0.124783 0.923112
-0.139902 -0.174089 0.974741
-0.233909 0.152711 0.960191
-0.032096 0.266599 0.963273
-0.199019 0.311724 0.929096
0.328484 -0.032282 0.943958
0.164137 0.163476 0.972797
0.025952 -0.003205 0.999658
0.573942 0.026763 0.818458
0.328484 -0.032282 0.943958
0.535352 -0.380176 0.754231
0.318913 0.017504 0.947622
0.264157 -0.203571 0.942751
0.130997 -0.075964 0.988468
-0.287868 0.127208 0.949184
-0.101170 0.155918 0.982575
-0.170023 0.048467 0.984248
0.141475 0.138580 0.980194
0.232231 0.232875 0.944372
0.170689 0.031313 0.984827
-0.032096 0.266599 0.963273
0.232231 0.232875 0.944372
-0.013084 0.295594 0.955224
-0.013084 0.295594 0.955224
0.232231 0.232875 0.944372
0.016830 0.161690 0.986698
-0.139902 -0.174089 0.974741
-0.363721 -0.124783 0.923112
-0.205862 -0.069691 0.976096
-0.363721 -0.124783 0.923112
-0.287868 0.127208 0.949184
-0.205862 -0.069691 0.976096
-0.262658 -0.076881 0.961821
0.025952 -0.003205 0.999658
-0.233909 0.152711 0.960191
0.025952 -0.003205 0.999658
-0.032096 0.266599 0.963273
-0.233909 0.152711 0.960191
-0.128486 -0.294491 0.946977
0.082922 -0.448391 0.889983
0.025952 -0.003205 0.999658
0.090839 -0.667097 0.739412
0.082922 -0.448391 0.889983
-0.128486 -0.294491 0.946977
-0.199019 0.311724 0.929096
-0.101170 0.155918 0.982575
-0.287868 0.127208 0.949184
-0.233909 0.152711 0.960191
-0.199019 0.311724 0.929096
-0.287868 0.127208 0.949184
0.090839 -0.667097 0.739412
-0.212590 -0.323792 0.921935
0.051173 -0.325899 0.944019
0.195666 -0.318362 0.927556
0.535352 -0.380176 0.754231
0.362870 -0.603940 0.709635
0.093303 -0.152338 0.983914
0.051173 -0.325899 0.944019
0.007165 -0.165222 0.986230
0.535352 -0.380176 0.754231
0.328484 -0.032282 0.943958
0.604821 -0.461269 0.649171
0.328484 -0.032282 0.943958
0.025952 -0.003205 0.999658
0.293780 -0.258510 0.920253
0.264157 -0.203571 0.942751
0.535352 -0.380176 0.754231
0.195666 -0.318362 0.927556
0.264157 -0.203571 0.942751
0.573942 0.026763 0.818458
0.535352 -0.380176 0.754231
0.362870 -0.603940 0.709635
0.082922 -0.448391 0.889983
0.090839 -0.667097 0.739412
0.195666 -0.318362 0.927556
0.362870 -0.603940 0.709635
0.090839 -0.667097 0.739412
0.195666 -0.318362 0.927556
0.051173 -0.325899 0.944019
0.093303 -0.152338 0.983914
0.090839 -0.667097 0.739412
0.051173 -0.325899 0.944019
0.195666 -0.318362 0.927556
0.164137 0.163476 0.972797
0.232231 0.232875 0.944372
-0.032096 0.266599 0.963273
0.164137 0.163476 0.972797
-0.032096 0.266599 0.963273
0.025952 -0.003205 0.999658
0.604821 -0.461269 0.649171
0.293780 -0.258510 0.920253
0.082922 -0.448391 0.889983
0.604821 -0.461269 0.649171
0.328484 -0.032282 0.943958
0.293780 -0.258510 0.920253
-0.128486 -0.294491 0.946977
0.025952 -0.003205 0.999658
-0.262658 -0.076881 0.961821
-0.212590 -0.323792 0.921935
-0.128486 -0.294491 0.946977
-0.262658 -0.076881 0.961821
0.232231 0.232875 0.944372
0.573942 0.026763 0.818458
0.318913 0.017504 0.947622
0.318913 0.017504 0.947622
0.573942 0.026763 0.818458
0.264157 -0.203571 0.942751
</float_array>
          <technique_common>
            <accessor source="#SM_Barnacle_03_LOD1-Normal0-array" count="168" stride="3">
              <param name="X" type="float"/>
              <param name="Y" type="float"/>
              <param name="Z" type="float"/>
            </accessor>
          </technique_common>
        </source>
        <source id="SM_Barnacle_03_LOD1-UV0">
          <float_array id="SM_Barnacle_03_LOD1-UV0-array" count="68">
0.040283 0.578125
0.067139 0.581299
0.092651 0.625977
0.032845 0.619178
0.093323 0.626221
0.043053 0.629704
0.038330 0.591553
0.041748 0.576416
0.086914 0.601318
0.065613 0.580566
0.086914 0.601318
0.037777 0.619670
0.077728 0.650635
0.060577 0.590820
0.080822 0.627680
0.060427 0.591177
0.080872 0.627686
0.037811 0.619629
0.038330 0.591553
0.043671 0.628418
0.077447 0.605546
0.077576 0.605469
0.018043 0.594971
0.067474 0.645508
0.040009 0.598877
0.036362 0.625977
0.032562 0.619629
0.040009 0.598877
0.042206 0.623291
0.042419 0.623047
0.029968 0.605469
0.024979 0.600708
0.034653 0.612629
0.057281 0.598633
</float_array>
          <technique_common>
            <accessor source="#SM_Barnacle_03_LOD1-UV0-array" count="34" stride="2">
              <param name="S" type="float"/>
              <param name="T" type="float"/>
            </accessor>
          </technique_common>
        </source>
        <vertices id="SM_Barnacle_03_LOD1-VERTEX">
          <input semantic="POSITION" source="#SM_Barnacle_03_LOD1-POSITION"/>
        </vertices>
        <triangles count="56" material="MAT_Sea_Shells">
          <input semantic="VERTEX" offset="0" source="#SM_Barnacle_03_LOD1-VERTEX"/>
          <input semantic="NORMAL" offset="1" source="#SM_Barnacle_03_LOD1-Normal0"/>
          <input semantic="TEXCOORD" offset="2" set="0" source="#SM_Barnacle_03_LOD1-UV0"/>
          <p> 24 0 24 22 1 17 13 2 15 15 3 19 10 4 16 23 5 23 27 6 27 31 7 32 28 8 30 20 9 21 7 10 5 11 11 14 30 12 28 33 13 33 19 14 20 6 15 6 13 16 15 3 17 0 25 18 22 16 19 18 29 20 31 30 21 28 12 22 11 33 23 33 20 24 21 32 25 29 7 26 5 8 27 7 16 28 18 25 29 22 1 30 1 9 31 13 8 32 7 19 33 20 9 34 13 1 35 1 5 36 4 19 37 20 18 38 10 17 39 12 10 40 16 5 41 4 4 42 8 11 43 14 2 44 2 23 45 23 10 46 16 17 47 12 0 48 3 28 49 30 31 50 32 26 51 26 21 52 25 0 53 3 13 54 15 32 55 29 20 56 21 3 57 0 13 58 15 14 59 9 13 60 15 20 61 21 14 62 9 7 63 5 15 64 19 23 65 23 12 66 11 30 67 28 21 68 25 33 69 33 12 70 11 27 71 27 9 72 13 16 73 18 8 74 7 11 75 14 17 76 12 2 77 2 18 78 10 19 79 20 1 80 1 15 81 19 19 82 20 10 83 16 10 84 16 19 85 20 5 86 4 14 87 9 20 88 21 4 89 8 20 90 21 11 91 14 4 92 8 32 93 29 21 94 25 7 95 5 21 96 25 15 97 19 7 98 5 22 99 17 0 100 3 21 101 25 24 102 24 0 103 3 22 104 17 23 105 23 17 106 12 11 107 14 7 108 5 23 109 23 11 110 14 24 111 24 13 112 15 6 113 6 29 114 31 27 115 27 28 116 30 25 117 22 6 118 6 3 119 0 27 120 27 12 121 11 31 122 32 12 123 11 21 124 25 26 125 26 16 126 18 27 127 27 29 128 31 16 129 18 33 130 33 27 131 27 28 132 30 0 133 3 24 134 24 29 135 31 28 136 30 24 137 24 29 138 31 6 139 6 25 140 22 24 141 24 6 142 6 29 143 31 30 144 28 19 145 20 15 146 19 30 147 28 15 148 19 21 149 25 31 150 32 26 151 26 0 152 3 31 153 32 12 154 11 26 155 26 22 156 17 21 157 25 32 158 29 13 159 15 22 160 17 32 161 29 19 162 20 33 163 33 9 164 13 9 165 13 33 166 33 16 167 18</p>
        </triangles>
      </mesh>
    </geometry>
  </library_geometries>
  <library_visual_scenes>
    <visual_scene id="SM_Barnacle_03" name="SM_Barnacle_03">
      <node name="SM_Barnacle_03_LOD0" id="SM_Barnacle_03_LOD0" layer="shells" sid="SM_Barnacle_03_LOD0">
        <matrix sid="matrix">1.000000 0.000000 0.000000 0.000000 0.000000 0.000000 1.000000 0.000000 0.000000 -1.000000 0.000000 0.000000 0.000000 0.000000 0.000000 1.000000</matrix>
        <instance_geometry url="#SM_Barnacle_03_LOD0-lib">
          <bind_material>
            <technique_common>
              <instance_material symbol="MAT_Sea_Shells" target="#MAT_Sea_Shells"/>
            </technique_common>
          </bind_material>
        </instance_geometry>
        <extra>
          <technique profile="FCOLLADA">
            <visibility>1.000000</visibility>
          </technique>
        </extra>
      </node>
      <node name="SM_Barnacle_03_LOD1" id="SM_Barnacle_03_LOD1" layer="shells" sid="SM_Barnacle_03_LOD1">
        <matrix sid="matrix">1.000000 0.000000 0.000000 0.000000 0.000000 0.000000 1.000000 0.000000 0.000000 -1.000000 0.000000 0.000000 0.000000 0.000000 0.000000 1.000000</matrix>
        <instance_geometry url="#SM_Barnacle_03_LOD1-lib">
          <bind_material>
            <technique_common>
              <instance_material symbol="MAT_Sea_Shells" target="#MAT_Sea_Shells"/>
            </technique_common>
          </bind_material>
        </instance_geometry>
        <extra>
          <technique profile="FCOLLADA">
            <visibility>1.000000</visibility>
          </technique>
        </extra>
      </node>
      <extra>
        <technique profile="MAX3D">
          <frame_rate>30.000000</frame_rate>
        </technique>
        <technique profile="FCOLLADA">
          <start_time>0.000000</start_time>
          <end_time>3.333333</end_time>
        </technique>
      </extra>
    </visual_scene>
  </library_visual_scenes>
  <scene>
    <instance_visual_scene url="#SM_Barnacle_03"/>
  </scene>
</COLLADA>
