<?xml version="1.0" encoding="utf-8"?>
<COLLADA xmlns="http://www.collada.org/2005/11/COLLADASchema" version="1.4.1">
  <asset>
    <contributor>
      <author/>
      <authoring_tool>FBX COLLADA exporter</authoring_tool>
      <comments/>
    </contributor>
    <created>2024-02-10T11:42:31Z</created>
    <keywords/>
    <modified>2024-02-10T11:42:31Z</modified>
    <revision/>
    <subject/>
    <title/>
    <unit meter="0.010000" name="centimeter"/>
    <up_axis>Y_UP</up_axis>
  </asset>
  <library_materials>
    <material id="MAT_Sea_Shells" name="MAT_Sea_Shells">
      <instance_effect url="#MAT_Sea_Shells-fx"/>
    </material>
  </library_materials>
  <library_effects>
    <effect id="MAT_Sea_Shells-fx" name="MAT_Sea_Shells">
      <profile_COMMON>
        <technique sid="standard">
          <phong>
            <emission>
              <color sid="emission">0.000000  0.000000 0.000000 1.000000</color>
            </emission>
            <ambient>
              <color sid="ambient">0.588235  0.588235 0.588235 1.000000</color>
            </ambient>
            <diffuse>
              <color sid="diffuse">0.588235  0.588235 0.588235 1.000000</color>
            </diffuse>
            <specular>
              <color sid="specular">0.000000  0.000000 0.000000 1.000000</color>
            </specular>
            <shininess>
              <float sid="shininess">2.000000</float>
            </shininess>
            <reflective>
              <color sid="reflective">0.000000  0.000000 0.000000 1.000000</color>
            </reflective>
            <reflectivity>
              <float sid="reflectivity">1.000000</float>
            </reflectivity>
            <transparent opaque="RGB_ZERO">
              <color sid="transparent">1.000000  1.000000 1.000000 1.000000</color>
            </transparent>
            <transparency>
              <float sid="transparency">0.000000</float>
            </transparency>
          </phong>
        </technique>
      </profile_COMMON>
    </effect>
  </library_effects>
  <library_geometries>
    <geometry id="SM_Barnacle_04_LOD0-lib" name="SM_Barnacle_04_LOD0Mesh">
      <mesh>
        <source id="SM_Barnacle_04_LOD0-POSITION">
          <float_array id="SM_Barnacle_04_LOD0-POSITION-array" count="195">
2.489113 0.533142 0.051609
2.714756 0.575989 0.000001
2.316452 1.297394 0.000000
2.146629 1.168854 0.046396
1.445396 1.649567 0.033508
1.516426 1.844696 0.000000
0.520332 2.064880 0.000000
-0.335823 1.895355 0.014369
-0.493340 2.137634 0.000000
-1.471603 1.868408 0.000000
-2.290871 1.301270 0.000000
-2.714760 0.546112 0.000001
-2.698914 -0.329010 0.000001
-2.288849 0.479370 0.046397
-2.410873 -1.105927 0.000001
-2.033775 -0.946075 0.046397
-1.837563 -1.760681 0.000001
-1.503418 -1.504120 0.033509
-0.879673 -2.137604 0.000001
0.192734 -2.012207 0.000001
1.124947 -1.611633 0.000001
1.943310 -1.044189 0.000001
2.567738 -0.242767 0.000001
2.368282 -0.184845 0.046397
2.289803 0.498352 0.370343
1.416885 1.451111 0.324980
0.556492 1.847473 0.020069
-0.848728 1.418396 0.291305
-1.192673 1.650269 0.020071
-1.904007 1.145538 0.033508
-1.831158 -0.205811 0.370343
-2.296932 -0.273071 0.051609
-1.590611 -0.762573 0.357283
-0.388386 -1.442261 0.291306
-0.665493 -1.816010 0.020072
0.263870 -1.727783 0.014370
0.380951 -1.403625 0.277021
1.087971 -1.390137 0.020070
1.090515 -1.139893 0.291306
1.825615 -0.886108 0.033509
1.748886 -0.702026 0.324981
2.010765 1.042419 0.357283
1.257687 0.784027 0.930835
0.637810 1.626923 0.291305
-0.124092 1.641083 0.277020
0.639126 0.870148 0.915145
0.334858 0.768311 0.919773
0.093536 0.585114 0.930835
-1.439915 0.978271 0.324980
-1.787865 0.407135 0.357283
-0.072807 0.093719 0.946217
0.030396 -0.139221 0.941742
-1.095245 -1.208862 0.324981
1.156128 -0.301208 0.919773
1.406925 -0.116455 0.930835
2.200779 -0.110229 0.357283
1.551235 0.120605 0.941742
0.850185 -0.403320 0.915145
0.529823 -0.408234 0.919773
0.242737 -0.315369 0.930835
-0.050316 0.348145 0.941742
0.877327 0.256073 1.158559
0.961182 0.875336 0.919773
1.470482 0.607971 0.941741
1.571232 0.374603 0.946217
</float_array>
          <technique_common>
            <accessor source="#SM_Barnacle_04_LOD0-POSITION-array" count="65" stride="3">
              <param name="X" type="float"/>
              <param name="Y" type="float"/>
              <param name="Z" type="float"/>
            </accessor>
          </technique_common>
        </source>
        <source id="SM_Barnacle_04_LOD0-Normal0">
          <float_array id="SM_Barnacle_04_LOD0-Normal0-array" count="1008">
0.561956 0.092841 0.821940
0.190496 -0.086939 0.977831
0.208402 0.034243 0.977444
0.149655 0.137913 0.979073
0.561956 0.092841 0.821940
0.208402 0.034243 0.977444
0.421787 0.384606 0.821081
0.561956 0.092841 0.821940
0.149655 0.137913 0.979073
0.063479 0.145507 0.987319
0.421787 0.384606 0.821081
0.149655 0.137913 0.979073
0.208151 0.495445 0.843331
0.421787 0.384606 0.821081
0.063479 0.145507 0.987319
0.055760 0.476395 0.877461
0.208151 0.495445 0.843331
0.063479 0.145507 0.987319
0.010759 0.100756 0.994853
0.055760 0.476395 0.877461
0.063479 0.145507 0.987319
-0.045979 0.405979 0.912725
0.055760 0.476395 0.877461
0.010759 0.100756 0.994853
-0.006840 0.067425 0.997701
-0.045979 0.405979 0.912725
0.010759 0.100756 0.994853
-0.145650 0.327480 0.933565
-0.045979 0.405979 0.912725
-0.006840 0.067425 0.997701
-0.026381 0.065458 0.997507
-0.145650 0.327480 0.933565
-0.006840 0.067425 0.997701
-0.231790 0.235700 0.943779
-0.145650 0.327480 0.933565
-0.026381 0.065458 0.997507
-0.061584 0.063539 0.996077
-0.231790 0.235700 0.943779
-0.026381 0.065458 0.997507
-0.308156 0.100762 0.945985
-0.231790 0.235700 0.943779
-0.061584 0.063539 0.996077
-0.100732 0.028360 0.994509
-0.308156 0.100762 0.945985
-0.061584 0.063539 0.996077
-0.114489 -0.022507 0.993170
-0.308156 0.100762 0.945985
-0.100732 0.028360 0.994509
-0.331451 -0.059644 0.941585
-0.308156 0.100762 0.945985
-0.114489 -0.022507 0.993170
-0.090909 -0.059628 0.994072
-0.331451 -0.059644 0.941585
-0.114489 -0.022507 0.993170
-0.272537 -0.192452 0.942701
-0.331451 -0.059644 0.941585
-0.090909 -0.059628 0.994072
-0.044000 -0.073338 0.996336
-0.272537 -0.192452 0.942701
-0.090909 -0.059628 0.994072
-0.159228 -0.280368 0.946594
-0.272537 -0.192452 0.942701
-0.044000 -0.073338 0.996336
-0.004888 -0.067425 0.997712
-0.159228 -0.280368 0.946594
-0.044000 -0.073338 0.996336
-0.030291 -0.337112 0.940977
-0.159228 -0.280368 0.946594
-0.004888 -0.067425 0.997712
0.018567 -0.065470 0.997682
-0.030291 -0.337112 0.940977
-0.004888 -0.067425 0.997712
0.092923 -0.384413 0.918472
-0.030291 -0.337112 0.940977
0.018567 -0.065470 0.997682
0.047922 -0.090957 0.994701
0.092923 -0.384413 0.918472
0.018567 -0.065470 0.997682
0.216222 -0.419724 0.881521
0.092923 -0.384413 0.918472
0.047922 -0.090957 0.994701
0.112390 -0.122166 0.986126
0.216222 -0.419724 0.881521
0.047922 -0.090957 0.994701
0.368106 -0.401299 0.838723
0.216222 -0.419724 0.881521
0.112390 -0.122166 0.986126
0.526215 -0.235284 0.817153
0.368106 -0.401299 0.838723
0.112390 -0.122166 0.986126
0.190496 -0.086939 0.977831
0.526215 -0.235284 0.817153
0.112390 -0.122166 0.986126
0.561956 0.092841 0.821940
0.526215 -0.235284 0.817153
0.190496 -0.086939 0.977831
0.737974 0.122180 0.663677
0.526215 -0.235284 0.817153
0.561956 0.092841 0.821940
0.421787 0.384606 0.821081
0.737974 0.122180 0.663677
0.561956 0.092841 0.821940
0.560067 0.511180 0.651936
0.737974 0.122180 0.663677
0.421787 0.384606 0.821081
0.290286 0.696872 0.655823
0.560067 0.511180 0.651936
0.421787 0.384606 0.821081
0.208151 0.495445 0.843331
0.290286 0.696872 0.655823
0.421787 0.384606 0.821081
0.077236 0.716629 0.693165
0.290286 0.696872 0.655823
0.208151 0.495445 0.843331
0.055760 0.476395 0.877461
0.077236 0.716629 0.693165
0.208151 0.495445 0.843331
-0.079136 0.643828 0.761067
0.077236 0.716629 0.693165
0.055760 0.476395 0.877461
-0.045979 0.405979 0.912725
-0.079136 0.643828 0.761067
0.055760 0.476395 0.877461
-0.227815 0.515270 0.826194
-0.079136 0.643828 0.761067
-0.045979 0.405979 0.912725
-0.145650 0.327480 0.933565
-0.227815 0.515270 0.826194
-0.045979 0.405979 0.912725
-0.335001 0.356489 0.872175
-0.227815 0.515270 0.826194
-0.145650 0.327480 0.933565
-0.231790 0.235700 0.943779
-0.335001 0.356489 0.872175
-0.145650 0.327480 0.933565
-0.409925 0.153598 0.899094
-0.335001 0.356489 0.872175
-0.231790 0.235700 0.943779
-0.308156 0.100762 0.945985
-0.409925 0.153598 0.899094
-0.231790 0.235700 0.943779
-0.421154 -0.075242 0.903863
-0.409925 0.153598 0.899094
-0.308156 0.100762 0.945985
-0.331451 -0.059644 0.941585
-0.421154 -0.075242 0.903863
-0.308156 0.100762 0.945985
-0.272537 -0.192452 0.942701
-0.421154 -0.075242 0.903863
-0.331451 -0.059644 0.941585
-0.348842 -0.274581 0.896055
-0.421154 -0.075242 0.903863
-0.272537 -0.192452 0.942701
-0.159228 -0.280368 0.946594
-0.348842 -0.274581 0.896055
-0.272537 -0.192452 0.942701
-0.214004 -0.427055 0.878536
-0.348842 -0.274581 0.896055
-0.159228 -0.280368 0.946594
-0.030291 -0.337112 0.940977
-0.214004 -0.427055 0.878536
-0.159228 -0.280368 0.946594
-0.044006 -0.540780 0.840012
-0.214004 -0.427055 0.878536
-0.030291 -0.337112 0.940977
0.092923 -0.384413 0.918472
-0.044006 -0.540780 0.840012
-0.030291 -0.337112 0.940977
0.139934 -0.617471 0.774047
-0.044006 -0.540780 0.840012
0.092923 -0.384413 0.918472
0.216222 -0.419724 0.881521
0.139934 -0.617471 0.774047
0.092923 -0.384413 0.918472
0.315998 -0.638839 0.701448
0.139934 -0.617471 0.774047
0.216222 -0.419724 0.881521
0.368106 -0.401299 0.838723
0.315998 -0.638839 0.701448
0.216222 -0.419724 0.881521
0.509179 -0.561959 0.651873
0.315998 -0.638839 0.701448
0.368106 -0.401299 0.838723
0.526215 -0.235284 0.817153
0.509179 -0.561959 0.651873
0.368106 -0.401299 0.838723
0.697225 -0.309982 0.646365
0.509179 -0.561959 0.651873
0.526215 -0.235284 0.817153
0.737974 0.122180 0.663677
0.697225 -0.309982 0.646365
0.526215 -0.235284 0.817153
0.458814 0.075329 0.885334
0.697225 -0.309982 0.646365
0.737974 0.122180 0.663677
0.560067 0.511180 0.651936
0.458814 0.075329 0.885334
0.737974 0.122180 0.663677
0.358509 0.327246 0.874289
0.458814 0.075329 0.885334
0.560067 0.511180 0.651936
0.192559 0.474065 0.859176
0.358509 0.327246 0.874289
0.560067 0.511180 0.651936
0.290286 0.696872 0.655823
0.192559 0.474065 0.859176
0.560067 0.511180 0.651936
0.045908 0.510791 0.858478
0.192559 0.474065 0.859176
0.290286 0.696872 0.655823
0.077236 0.716629 0.693165
0.045908 0.510791 0.858478
0.290286 0.696872 0.655823
-0.069404 0.472140 0.878787
0.045908 0.510791 0.858478
0.077236 0.716629 0.693165
-0.079136 0.643828 0.761067
-0.069404 0.472140 0.878787
0.077236 0.716629 0.693165
-0.167013 0.385793 0.907342
-0.069404 0.472140 0.878787
-0.079136 0.643828 0.761067
-0.227815 0.515270 0.826194
-0.167013 0.385793 0.907342
-0.079136 0.643828 0.761067
-0.231550 0.268675 0.934986
-0.167013 0.385793 0.907342
-0.227815 0.515270 0.826194
-0.335001 0.356489 0.872175
-0.231550 0.268675 0.934986
-0.227815 0.515270 0.826194
-0.264782 0.122132 0.956543
-0.231550 0.268675 0.934986
-0.335001 0.356489 0.872175
-0.409925 0.153598 0.899094
-0.264782 0.122132 0.956543
-0.335001 0.356489 0.872175
-0.257231 -0.044012 0.965347
-0.264782 0.122132 0.956543
-0.409925 0.153598 0.899094
-0.421154 -0.075242 0.903863
-0.257231 -0.044012 0.965347
-0.409925 0.153598 0.899094
-0.348842 -0.274581 0.896055
-0.257231 -0.044012 0.965347
-0.421154 -0.075242 0.903863
-0.210232 -0.198499 0.957288
-0.257231 -0.044012 0.965347
-0.348842 -0.274581 0.896055
-0.214004 -0.427055 0.878536
-0.210232 -0.198499 0.957288
-0.348842 -0.274581 0.896055
-0.131905 -0.323411 0.937020
-0.210232 -0.198499 0.957288
-0.214004 -0.427055 0.878536
-0.044006 -0.540780 0.840012
-0.131905 -0.323411 0.937020
-0.214004 -0.427055 0.878536
-0.028348 -0.413489 0.910068
-0.131905 -0.323411 0.937020
-0.044006 -0.540780 0.840012
0.139934 -0.617471 0.774047
-0.028348 -0.413489 0.910068
-0.044006 -0.540780 0.840012
0.090933 -0.464422 0.880933
-0.028348 -0.413489 0.910068
0.139934 -0.617471 0.774047
0.315998 -0.638839 0.701448
0.090933 -0.464422 0.880933
0.139934 -0.617471 0.774047
0.214302 -0.462850 0.860142
0.090933 -0.464422 0.880933
0.315998 -0.638839 0.701448
0.509179 -0.561959 0.651873
0.214302 -0.462850 0.860142
0.315998 -0.638839 0.701448
0.341342 -0.384374 0.857754
0.214302 -0.462850 0.860142
0.509179 -0.561959 0.651873
0.697225 -0.309982 0.646365
0.341342 -0.384374 0.857754
0.509179 -0.561959 0.651873
0.446690 -0.196465 0.872851
0.341342 -0.384374 0.857754
0.697225 -0.309982 0.646365
0.458814 0.075329 0.885334
0.446690 -0.196465 0.872851
0.697225 -0.309982 0.646365
0.018573 0.002936 0.999823
0.446690 -0.196465 0.872851
0.458814 0.075329 0.885334
0.018573 0.002936 0.999823
0.341342 -0.384374 0.857754
0.446690 -0.196465 0.872851
0.018573 0.002936 0.999823
0.214302 -0.462850 0.860142
0.341342 -0.384374 0.857754
0.018573 0.002936 0.999823
0.090933 -0.464422 0.880933
0.214302 -0.462850 0.860142
0.018573 0.002936 0.999823
-0.028348 -0.413489 0.910068
0.090933 -0.464422 0.880933
0.018573 0.002936 0.999823
-0.131905 -0.323411 0.937020
-0.028348 -0.413489 0.910068
0.018573 0.002936 0.999823
-0.210232 -0.198499 0.957288
-0.131905 -0.323411 0.937020
0.018573 0.002936 0.999823
-0.257231 -0.044012 0.965347
-0.210232 -0.198499 0.957288
0.018573 0.002936 0.999823
-0.264782 0.122132 0.956543
-0.257231 -0.044012 0.965347
0.018573 0.002936 0.999823
-0.231550 0.268675 0.934986
-0.264782 0.122132 0.956543
0.018573 0.002936 0.999823
-0.167013 0.385793 0.907342
-0.231550 0.268675 0.934986
0.018573 0.002936 0.999823
-0.069404 0.472140 0.878787
-0.167013 0.385793 0.907342
0.018573 0.002936 0.999823
0.045908 0.510791 0.858478
-0.069404 0.472140 0.878787
0.018573 0.002936 0.999823
0.192559 0.474065 0.859176
0.045908 0.510791 0.858478
0.018573 0.002936 0.999823
0.358509 0.327246 0.874289
0.192559 0.474065 0.859176
0.458814 0.075329 0.885334
0.358509 0.327246 0.874289
0.018573 0.002936 0.999823
</float_array>
          <technique_common>
            <accessor source="#SM_Barnacle_04_LOD0-Normal0-array" count="336" stride="3">
              <param name="X" type="float"/>
              <param name="Y" type="float"/>
              <param name="Z" type="float"/>
            </accessor>
          </technique_common>
        </source>
        <source id="SM_Barnacle_04_LOD0-UV0">
          <float_array id="SM_Barnacle_04_LOD0-UV0-array" count="130">
0.026154 0.404785
0.018417 0.406250
0.025711 0.407227
0.032959 0.408691
0.031677 0.410645
0.038116 0.416504
0.036194 0.417480
0.038055 0.425781
0.040131 0.426270
0.038513 0.434570
0.040802 0.436035
0.036194 0.442871
0.038330 0.445313
0.031464 0.449707
0.032806 0.454102
0.025223 0.453613
0.026474 0.456543
0.016602 0.459961
0.017929 0.454102
0.010399 0.454102
0.011665 0.451172
0.003540 0.450684
0.006420 0.446289
0.000922 0.438965
0.003653 0.437500
0.001715 0.429688
0.004490 0.428711
0.005512 0.420410
0.007664 0.420898
0.010841 0.412598
0.012390 0.413574
0.018967 0.408203
0.025208 0.410156
0.030090 0.412598
0.033752 0.417969
0.035339 0.425293
0.035461 0.432617
0.033478 0.438965
0.029510 0.444336
0.024384 0.447754
0.018875 0.448242
0.013863 0.445801
0.009850 0.441406
0.007755 0.435059
0.008102 0.427734
0.010475 0.421387
0.014412 0.415039
0.019730 0.410645
0.024094 0.416504
0.026184 0.417480
0.027771 0.419434
0.028595 0.422363
0.028549 0.425293
0.027634 0.428223
0.025986 0.430176
0.023849 0.431641
0.021561 0.432129
0.019470 0.431152
0.017883 0.429199
0.017044 0.426270
0.017090 0.423340
0.018005 0.420410
0.019669 0.418457
0.021805 0.416992
0.023026 0.423340
</float_array>
          <technique_common>
            <accessor source="#SM_Barnacle_04_LOD0-UV0-array" count="65" stride="2">
              <param name="S" type="float"/>
              <param name="T" type="float"/>
            </accessor>
          </technique_common>
        </source>
        <vertices id="SM_Barnacle_04_LOD0-VERTEX">
          <input semantic="POSITION" source="#SM_Barnacle_04_LOD0-POSITION"/>
        </vertices>
        <triangles count="112" material="MAT_Sea_Shells">
          <input semantic="VERTEX" offset="0" source="#SM_Barnacle_04_LOD0-VERTEX"/>
          <input semantic="NORMAL" offset="1" source="#SM_Barnacle_04_LOD0-Normal0"/>
          <input semantic="TEXCOORD" offset="2" set="0" source="#SM_Barnacle_04_LOD0-UV0"/>
          <p> 0 0 2 22 1 1 1 2 0 2 3 3 0 4 2 1 5 0 3 6 4 0 7 2 2 8 3 5 9 5 3 10 4 2 11 3 4 12 6 3 13 4 5 14 5 26 15 7 4 16 6 5 17 5 6 18 8 26 19 7 5 20 5 7 21 9 26 22 7 6 23 8 8 24 10 7 25 9 6 26 8 28 27 11 7 28 9 8 29 10 9 30 12 28 31 11 8 32 10 29 33 13 28 34 11 9 35 12 10 36 14 29 37 13 9 38 12 13 39 15 29 40 13 10 41 14 11 42 16 13 43 15 10 44 14 12 45 17 13 46 15 11 47 16 31 48 18 13 49 15 12 50 17 14 51 19 31 52 18 12 53 17 15 54 20 31 55 18 14 56 19 16 57 21 15 58 20 14 59 19 17 60 22 15 61 20 16 62 21 18 63 23 17 64 22 16 65 21 34 66 24 17 67 22 18 68 23 19 69 25 34 70 24 18 71 23 35 72 26 34 73 24 19 74 25 20 75 27 35 76 26 19 77 25 37 78 28 35 79 26 20 80 27 21 81 29 37 82 28 20 83 27 39 84 30 37 85 28 21 86 29 23 87 31 39 88 30 21 89 29 22 90 1 23 91 31 21 92 29 0 93 2 23 94 31 22 95 1 24 96 32 23 97 31 0 98 2 3 99 4 24 100 32 0 101 2 41 102 33 24 103 32 3 104 4 25 105 34 41 106 33 3 107 4 4 108 6 25 109 34 3 110 4 43 111 35 25 112 34 4 113 6 26 114 7 43 115 35 4 116 6 44 117 36 43 118 35 26 119 7 7 120 9 44 121 36 26 122 7 27 123 37 44 124 36 7 125 9 28 126 11 27 127 37 7 128 9 48 129 38 27 130 37 28 131 11 29 132 13 48 133 38 28 134 11 49 135 39 48 136 38 29 137 13 13 138 15 49 139 39 29 140 13 30 141 40 49 142 39 13 143 15 31 144 18 30 145 40 13 146 15 15 147 20 30 148 40 31 149 18 32 150 41 30 151 40 15 152 20 17 153 22 32 154 41 15 155 20 52 156 42 32 157 41 17 158 22 34 159 24 52 160 42 17 161 22 33 162 43 52 163 42 34 164 24 35 165 26 33 166 43 34 167 24 36 168 44 33 169 43 35 170 26 37 171 28 36 172 44 35 173 26 38 174 45 36 175 44 37 176 28 39 177 30 38 178 45 37 179 28 40 180 46 38 181 45 39 182 30 23 183 31 40 184 46 39 185 30 55 186 47 40 187 46 23 188 31 24 189 32 55 190 47 23 191 31 64 192 48 55 193 47 24 194 32 41 195 33 64 196 48 24 197 32 63 198 49 64 199 48 41 200 33 42 201 50 63 202 49 41 203 33 25 204 34 42 205 50 41 206 33 62 207 51 42 208 50 25 209 34 43 210 35 62 211 51 25 212 34 45 213 52 62 214 51 43 215 35 44 216 36 45 217 52 43 218 35 46 219 53 45 220 52 44 221 36 27 222 37 46 223 53 44 224 36 47 225 54 46 226 53 27 227 37 48 228 38 47 229 54 27 230 37 60 231 55 47 232 54 48 233 38 49 234 39 60 235 55 48 236 38 50 237 56 60 238 55 49 239 39 30 240 40 50 241 56 49 242 39 32 243 41 50 244 56 30 245 40 51 246 57 50 247 56 32 248 41 52 249 42 51 250 57 32 251 41 59 252 58 51 253 57 52 254 42 33 255 43 59 256 58 52 257 42 58 258 59 59 259 58 33 260 43 36 261 44 58 262 59 33 263 43 57 264 60 58 265 59 36 266 44 38 267 45 57 268 60 36 269 44 53 270 61 57 271 60 38 272 45 40 273 46 53 274 61 38 275 45 54 276 62 53 277 61 40 278 46 55 279 47 54 280 62 40 281 46 56 282 63 54 283 62 55 284 47 64 285 48 56 286 63 55 287 47 61 288 64 56 289 63 64 290 48 61 291 64 54 292 62 56 293 63 61 294 64 53 295 61 54 296 62 61 297 64 57 298 60 53 299 61 61 300 64 58 301 59 57 302 60 61 303 64 59 304 58 58 305 59 61 306 64 51 307 57 59 308 58 61 309 64 50 310 56 51 311 57 61 312 64 60 313 55 50 314 56 61 315 64 47 316 54 60 317 55 61 318 64 46 319 53 47 320 54 61 321 64 45 322 52 46 323 53 61 324 64 62 325 51 45 326 52 61 327 64 42 328 50 62 329 51 61 330 64 63 331 49 42 332 50 64 333 48 63 334 49 61 335 64</p>
        </triangles>
      </mesh>
    </geometry>
    <geometry id="SM_Barnacle_04_LOD1-lib" name="SM_Barnacle_04_LOD1Mesh">
      <mesh>
        <source id="SM_Barnacle_04_LOD1-POSITION">
          <float_array id="SM_Barnacle_04_LOD1-POSITION-array" count="108">
0.848354 0.251129 1.152084
2.714756 0.575989 0.000001
-2.714760 0.546112 0.000001
-0.331318 2.126007 0.000000
-1.837563 -1.760681 0.000001
0.497967 -1.881042 0.000001
2.316452 1.297394 0.000000
-2.698914 -0.329010 0.000001
1.257687 0.784027 0.930835
0.474922 0.784363 0.919867
-2.290871 1.301270 0.000000
1.943310 -1.044189 0.000001
1.406925 -0.116455 0.930835
2.339703 -0.172119 0.099442
-1.728451 -0.443542 0.364766
-1.876305 1.135529 0.050909
2.146629 1.168854 0.046396
-1.474911 -1.483521 0.053865
0.659081 -0.375671 0.920081
2.470348 0.529877 0.081615
1.442490 1.629333 0.063228
-2.165440 -0.609344 0.049004
-1.787865 0.407135 0.357283
0.003769 1.877136 0.016539
-0.879673 -2.137604 0.000001
1.817627 -0.866943 0.063852
0.733513 -1.535370 0.017618
2.567738 -0.242767 0.000001
1.547188 0.430298 0.945149
1.516426 1.844696 0.000000
-1.471603 1.868408 0.000000
-0.665493 -1.816010 0.020072
2.010765 1.042419 0.357283
-2.288849 0.479370 0.046397
-2.410873 -1.105927 0.000001
-1.192673 1.650269 0.020071
</float_array>
          <technique_common>
            <accessor source="#SM_Barnacle_04_LOD1-POSITION-array" count="36" stride="3">
              <param name="X" type="float"/>
              <param name="Y" type="float"/>
              <param name="Z" type="float"/>
            </accessor>
          </technique_common>
        </source>
        <source id="SM_Barnacle_04_LOD1-Normal0">
          <float_array id="SM_Barnacle_04_LOD1-Normal0-array" count="504">
0.116348 -0.335985 0.934654
0.000969 -0.448554 0.893755
-0.019528 -0.246010 0.969071
-0.194262 0.207036 0.958853
-0.137555 0.439264 0.887764
-0.106290 0.246978 0.963174
0.567634 0.494834 0.657975
0.490562 0.092180 0.866517
0.485923 0.065418 0.871550
-0.389661 -0.184433 0.902302
-0.001722 -0.002917 0.999994
-0.397514 0.144045 0.906220
0.487286 -0.209587 0.847718
0.396506 -0.365426 0.842168
0.303417 -0.389300 0.869703
-0.017007 0.347239 0.937622
0.205083 0.486332 0.849366
0.158792 0.468338 0.869163
-0.135541 -0.215107 0.967139
0.000969 -0.448554 0.893755
-0.389661 -0.184433 0.902302
0.490562 0.092180 0.866517
0.396506 -0.365426 0.842168
0.487286 -0.209587 0.847718
-0.137555 0.439264 0.887764
0.205083 0.486332 0.849366
-0.017007 0.347239 0.937622
-0.001722 -0.002917 0.999994
-0.137555 0.439264 0.887764
-0.397514 0.144045 0.906220
-0.001722 -0.002917 0.999994
0.205083 0.486332 0.849366
-0.137555 0.439264 0.887764
-0.194262 0.207036 0.958853
-0.106290 0.246978 0.963174
-0.024422 0.080465 0.996458
0.303417 -0.389300 0.869703
0.396506 -0.365426 0.842168
0.116348 -0.335985 0.934654
0.396506 -0.365426 0.842168
0.000969 -0.448554 0.893755
0.116348 -0.335985 0.934654
-0.001722 -0.002917 0.999994
0.396506 -0.365426 0.842168
0.490562 0.092180 0.866517
0.351174 -0.143053 0.925318
0.487286 -0.209587 0.847718
0.166204 -0.229266 0.959069
0.490562 0.092180 0.866517
0.487286 -0.209587 0.847718
0.485923 0.065418 0.871550
-0.282441 -0.113835 0.952506
-0.389661 -0.184433 0.902302
-0.275057 0.064783 0.959243
-0.135541 -0.215107 0.967139
-0.389661 -0.184433 0.902302
-0.282441 -0.113835 0.952506
-0.104396 0.024941 0.994223
-0.275057 0.064783 0.959243
-0.091377 0.076314 0.992888
-0.102674 -0.016130 0.994584
-0.275057 0.064783 0.959243
-0.104396 0.024941 0.994223
0.158792 0.468338 0.869163
0.205083 0.486332 0.849366
0.567634 0.494834 0.657975
0.386215 0.372630 0.843792
0.485923 0.065418 0.871550
0.161122 0.161927 0.973560
-0.135541 -0.215107 0.967139
-0.282441 -0.113835 0.952506
-0.073609 -0.090575 0.993166
0.019360 -0.065003 0.997697
-0.019528 -0.246010 0.969071
0.001635 -0.080893 0.996721
0.000969 -0.448554 0.893755
-0.001722 -0.002917 0.999994
-0.389661 -0.184433 0.902302
-0.001722 -0.002917 0.999994
0.000969 -0.448554 0.893755
0.396506 -0.365426 0.842168
0.161122 0.161927 0.973560
0.485923 0.065418 0.871550
0.307497 0.051838 0.950136
0.485923 0.065418 0.871550
0.487286 -0.209587 0.847718
0.351174 -0.143053 0.925318
0.158792 0.468338 0.869163
0.386215 0.372630 0.843792
0.086935 0.239350 0.967034
-0.017007 0.347239 0.937622
0.158792 0.468338 0.869163
0.086935 0.239350 0.967034
-0.073609 -0.090575 0.993166
-0.282441 -0.113835 0.952506
-0.083950 -0.056682 0.994857
-0.282441 -0.113835 0.952506
-0.275057 0.064783 0.959243
-0.102674 -0.016130 0.994584
-0.397514 0.144045 0.906220
-0.137555 0.439264 0.887764
-0.194262 0.207036 0.958853
-0.275057 0.064783 0.959243
-0.194262 0.207036 0.958853
-0.091377 0.076314 0.992888
-0.106290 0.246978 0.963174
-0.137555 0.439264 0.887764
-0.017007 0.347239 0.937622
-0.004938 0.062392 0.998039
-0.017007 0.347239 0.937622
0.086935 0.239350 0.967034
0.001635 -0.080893 0.996721
-0.135541 -0.215107 0.967139
-0.073609 -0.090575 0.993166
0.303417 -0.389300 0.869703
0.116348 -0.335985 0.934654
0.166204 -0.229266 0.959069
0.487286 -0.209587 0.847718
0.303417 -0.389300 0.869703
0.166204 -0.229266 0.959069
0.166204 -0.229266 0.959069
0.116348 -0.335985 0.934654
0.019360 -0.065003 0.997697
0.116348 -0.335985 0.934654
-0.019528 -0.246010 0.969071
0.019360 -0.065003 0.997697
0.485923 0.065418 0.871550
0.351174 -0.143053 0.925318
0.307497 0.051838 0.950136
0.205083 0.486332 0.849366
0.490562 0.092180 0.866517
0.567634 0.494834 0.657975
-0.001722 -0.002917 0.999994
0.490562 0.092180 0.866517
0.205083 0.486332 0.849366
0.086935 0.239350 0.967034
0.386215 0.372630 0.843792
0.161122 0.161927 0.973560
-0.091377 0.076314 0.992888
-0.194262 0.207036 0.958853
-0.024422 0.080465 0.996458
-0.019528 -0.246010 0.969071
-0.135541 -0.215107 0.967139
0.001635 -0.080893 0.996721
-0.019528 -0.246010 0.969071
0.000969 -0.448554 0.893755
-0.135541 -0.215107 0.967139
0.567634 0.494834 0.657975
0.485923 0.065418 0.871550
0.386215 0.372630 0.843792
0.158792 0.468338 0.869163
0.567634 0.494834 0.657975
0.386215 0.372630 0.843792
-0.389661 -0.184433 0.902302
-0.397514 0.144045 0.906220
-0.275057 0.064783 0.959243
-0.275057 0.064783 0.959243
-0.397514 0.144045 0.906220
-0.194262 0.207036 0.958853
-0.083950 -0.056682 0.994857
-0.282441 -0.113835 0.952506
-0.102674 -0.016130 0.994584
-0.106290 0.246978 0.963174
-0.017007 0.347239 0.937622
-0.004938 0.062392 0.998039
-0.024422 0.080465 0.996458
-0.106290 0.246978 0.963174
-0.004938 0.062392 0.998039
</float_array>
          <technique_common>
            <accessor source="#SM_Barnacle_04_LOD1-Normal0-array" count="168" stride="3">
              <param name="X" type="float"/>
              <param name="Y" type="float"/>
              <param name="Z" type="float"/>
            </accessor>
          </technique_common>
        </source>
        <source id="SM_Barnacle_04_LOD1-UV0">
          <float_array id="SM_Barnacle_04_LOD1-UV0-array" count="72">
0.002958 0.426650
0.026154 0.404785
0.026474 0.456543
0.022981 0.423608
0.040695 0.434474
0.003540 0.450684
0.032959 0.408691
0.032806 0.454102
0.010841 0.412598
0.019669 0.418457
0.016735 0.447200
0.000922 0.438965
0.027771 0.419434
0.018417 0.406250
0.038116 0.416504
0.038330 0.445313
0.038339 0.431225
0.027778 0.426763
0.016602 0.459961
0.006299 0.424259
0.010399 0.454102
0.017339 0.425183
0.012600 0.413727
0.036194 0.442871
0.024593 0.416737
0.025664 0.407503
0.035945 0.417530
0.031677 0.410645
0.019097 0.408620
0.006660 0.445948
0.014799 0.452638
0.031347 0.449386
0.024384 0.447754
0.003653 0.437500
0.030090 0.412598
0.025223 0.453613
</float_array>
          <technique_common>
            <accessor source="#SM_Barnacle_04_LOD1-UV0-array" count="36" stride="2">
              <param name="S" type="float"/>
              <param name="T" type="float"/>
            </accessor>
          </technique_common>
        </source>
        <vertices id="SM_Barnacle_04_LOD1-VERTEX">
          <input semantic="POSITION" source="#SM_Barnacle_04_LOD1-POSITION"/>
        </vertices>
        <triangles count="56" material="MAT_Sea_Shells">
          <input semantic="VERTEX" offset="0" source="#SM_Barnacle_04_LOD1-VERTEX"/>
          <input semantic="NORMAL" offset="1" source="#SM_Barnacle_04_LOD1-Normal0"/>
          <input semantic="TEXCOORD" offset="2" set="0" source="#SM_Barnacle_04_LOD1-UV0"/>
          <p> 26 0 19 18 1 21 31 2 33 15 3 31 9 4 17 35 5 23 32 6 34 28 7 24 19 8 25 14 9 10 0 10 3 22 11 32 13 12 28 12 13 9 25 14 22 23 15 16 8 16 12 20 17 26 17 18 29 18 19 21 14 20 10 28 21 24 12 22 9 13 23 28 9 24 17 8 25 12 23 26 16 0 27 3 9 28 17 22 29 32 0 30 3 8 31 12 9 32 17 15 33 31 35 34 23 30 35 15 25 36 22 12 37 9 26 38 19 12 39 9 18 40 21 26 41 19 0 42 3 12 43 9 28 44 24 27 45 13 13 46 28 11 47 8 28 48 24 13 49 28 19 50 25 21 51 30 14 52 10 33 53 35 17 54 29 14 55 10 21 56 30 2 57 2 33 58 35 10 59 7 7 60 18 33 61 35 2 62 2 20 63 26 8 64 12 32 65 34 16 66 27 19 67 25 6 68 6 17 69 29 21 70 30 4 71 5 5 72 0 31 73 33 24 74 11 18 75 21 0 76 3 14 77 10 0 78 3 18 79 21 12 80 9 6 81 6 19 82 25 1 83 1 19 84 25 13 85 28 27 86 13 20 87 26 16 88 27 29 89 14 23 90 16 20 91 26 29 92 14 4 93 5 21 94 30 34 95 20 21 96 30 33 97 35 7 98 18 22 99 32 9 100 17 15 101 31 33 102 35 15 103 31 10 104 7 35 105 23 9 106 17 23 107 16 3 108 4 23 109 16 29 110 14 24 111 11 17 112 29 4 113 5 25 114 22 26 115 19 11 116 8 13 117 28 25 118 22 11 119 8 11 120 8 26 121 19 5 122 0 26 123 19 31 124 33 5 125 0 19 126 25 27 127 13 1 128 1 8 129 12 28 130 24 32 131 34 0 132 3 28 133 24 8 134 12 29 135 14 16 136 27 6 137 6 10 138 7 15 139 31 30 140 15 31 141 33 17 142 29 24 143 11 31 144 33 18 145 21 17 146 29 32 147 34 19 148 25 16 149 27 20 150 26 32 151 34 16 152 27 14 153 10 22 154 32 33 155 35 33 156 35 22 157 32 15 158 31 34 159 20 21 160 30 7 161 18 35 162 23 23 163 16 3 164 4 30 165 15 35 166 23 3 167 4</p>
        </triangles>
      </mesh>
    </geometry>
  </library_geometries>
  <library_visual_scenes>
    <visual_scene id="SM_Barnacle_04" name="SM_Barnacle_04">
      <node name="SM_Barnacle_04_LOD0" id="SM_Barnacle_04_LOD0" layer="shells" sid="SM_Barnacle_04_LOD0">
        <matrix sid="matrix">1.000000 0.000000 0.000000 0.000000 0.000000 0.000000 1.000000 0.000000 0.000000 -1.000000 0.000000 0.000000 0.000000 0.000000 0.000000 1.000000</matrix>
        <instance_geometry url="#SM_Barnacle_04_LOD0-lib">
          <bind_material>
            <technique_common>
              <instance_material symbol="MAT_Sea_Shells" target="#MAT_Sea_Shells"/>
            </technique_common>
          </bind_material>
        </instance_geometry>
        <extra>
          <technique profile="FCOLLADA">
            <visibility>1.000000</visibility>
          </technique>
        </extra>
      </node>
      <node name="SM_Barnacle_04_LOD1" id="SM_Barnacle_04_LOD1" layer="shells" sid="SM_Barnacle_04_LOD1">
        <matrix sid="matrix">1.000000 0.000000 0.000000 0.000000 0.000000 0.000000 1.000000 0.000000 0.000000 -1.000000 0.000000 0.000000 0.000000 0.000000 0.000000 1.000000</matrix>
        <instance_geometry url="#SM_Barnacle_04_LOD1-lib">
          <bind_material>
            <technique_common>
              <instance_material symbol="MAT_Sea_Shells" target="#MAT_Sea_Shells"/>
            </technique_common>
          </bind_material>
        </instance_geometry>
        <extra>
          <technique profile="FCOLLADA">
            <visibility>1.000000</visibility>
          </technique>
        </extra>
      </node>
      <extra>
        <technique profile="MAX3D">
          <frame_rate>30.000000</frame_rate>
        </technique>
        <technique profile="FCOLLADA">
          <start_time>0.000000</start_time>
          <end_time>3.333333</end_time>
        </technique>
      </extra>
    </visual_scene>
  </library_visual_scenes>
  <scene>
    <instance_visual_scene url="#SM_Barnacle_04"/>
  </scene>
</COLLADA>
