<?xml version="1.0" encoding="utf-8"?>
<COLLADA xmlns="http://www.collada.org/2005/11/COLLADASchema" version="1.4.1">
  <asset>
    <contributor>
      <author/>
      <authoring_tool>FBX COLLADA exporter</authoring_tool>
      <comments/>
    </contributor>
    <created>2024-02-10T11:42:30Z</created>
    <keywords/>
    <modified>2024-02-10T11:42:30Z</modified>
    <revision/>
    <subject/>
    <title/>
    <unit meter="0.010000" name="centimeter"/>
    <up_axis>Y_UP</up_axis>
  </asset>
  <library_materials>
    <material id="MAT_Sea_Shells" name="MAT_Sea_Shells">
      <instance_effect url="#MAT_Sea_Shells-fx"/>
    </material>
  </library_materials>
  <library_effects>
    <effect id="MAT_Sea_Shells-fx" name="MAT_Sea_Shells">
      <profile_COMMON>
        <technique sid="standard">
          <phong>
            <emission>
              <color sid="emission">0.000000  0.000000 0.000000 1.000000</color>
            </emission>
            <ambient>
              <color sid="ambient">0.588235  0.588235 0.588235 1.000000</color>
            </ambient>
            <diffuse>
              <color sid="diffuse">0.588235  0.588235 0.588235 1.000000</color>
            </diffuse>
            <specular>
              <color sid="specular">0.000000  0.000000 0.000000 1.000000</color>
            </specular>
            <shininess>
              <float sid="shininess">2.000000</float>
            </shininess>
            <reflective>
              <color sid="reflective">0.000000  0.000000 0.000000 1.000000</color>
            </reflective>
            <reflectivity>
              <float sid="reflectivity">1.000000</float>
            </reflectivity>
            <transparent opaque="RGB_ZERO">
              <color sid="transparent">1.000000  1.000000 1.000000 1.000000</color>
            </transparent>
            <transparency>
              <float sid="transparency">0.000000</float>
            </transparency>
          </phong>
        </technique>
      </profile_COMMON>
    </effect>
  </library_effects>
  <library_geometries>
    <geometry id="SM_Barnacle_02_LOD0-lib" name="SM_Barnacle_02_LOD0Mesh">
      <mesh>
        <source id="SM_Barnacle_02_LOD0-POSITION">
          <float_array id="SM_Barnacle_02_LOD0-POSITION-array" count="147">
-2.046356 2.650269 0.000001
-0.400879 2.295898 0.303251
-0.123917 0.357513 1.456658
-1.597424 1.694336 0.277089
-0.849941 0.169403 1.447694
-1.112179 -0.106903 1.425852
-2.077450 1.071716 0.212396
-2.831661 1.940826 0.000001
-3.209137 0.851349 0.000001
-1.260059 -0.482605 1.403693
-2.407776 0.172302 0.144946
-3.290451 -0.314301 0.000001
-2.613564 -0.692169 0.116335
-2.354595 -1.651825 0.144946
-1.270401 -0.903412 1.394425
-0.891899 -1.638367 1.425852
-1.141071 -1.306702 1.403693
0.184933 -1.804413 1.456658
-0.563522 -1.830597 1.447694
-0.910755 -2.937592 0.277089
-2.293926 -2.570374 0.000001
-1.757271 -2.311646 0.212396
-1.196144 -3.512726 0.000001
-3.082172 -1.694153 0.000001
-0.615387 3.797577 0.000000
1.007824 3.599030 0.000000
0.866238 2.403656 0.277089
2.181252 3.015564 0.000001
2.871330 1.916992 0.000001
3.265747 0.622406 0.000001
3.290451 -0.783783 0.000001
2.809143 -2.055847 0.000001
2.221474 -1.957794 0.212396
2.019131 -3.267975 0.000001
0.469688 -3.797607 0.000001
1.584087 -2.795715 0.277089
0.361740 -3.042114 0.303251
0.910755 -1.619995 1.447694
1.172180 -1.343475 1.425852
1.318546 -0.955292 1.403693
2.580109 -0.946838 0.144946
1.329700 -0.531891 1.394425
1.201992 -0.130920 1.403693
0.035011 -0.755219 1.881953
2.560009 0.046936 0.116335
2.292160 1.040649 0.144946
0.954807 0.188324 1.425852
1.700500 1.970001 0.212396
0.625710 0.380219 1.447694
</float_array>
          <technique_common>
            <accessor source="#SM_Barnacle_02_LOD0-POSITION-array" count="49" stride="3">
              <param name="X" type="float"/>
              <param name="Y" type="float"/>
              <param name="Z" type="float"/>
            </accessor>
          </technique_common>
        </source>
        <source id="SM_Barnacle_02_LOD0-Normal0">
          <float_array id="SM_Barnacle_02_LOD0-Normal0-array" count="720">
-0.165200 0.163245 0.972656
-0.180661 0.350594 0.918937
-0.137950 0.192738 0.971505
-0.165200 0.163245 0.972656
-0.274896 0.302290 0.912717
-0.180661 0.350594 0.918937
-0.274896 0.302290 0.912717
-0.161157 0.422909 0.891726
-0.180661 0.350594 0.918937
-0.274896 0.302290 0.912717
-0.284183 0.352538 0.891603
-0.161157 0.422909 0.891726
-0.284183 0.352538 0.891603
-0.247185 -0.038099 0.968219
-0.161157 0.422909 0.891726
-0.458013 0.208008 0.864266
-0.247185 -0.038099 0.968219
-0.284183 0.352538 0.891603
-0.407267 0.188494 0.893646
-0.458013 0.208008 0.864266
-0.284183 0.352538 0.891603
-0.274896 0.302290 0.912717
-0.407267 0.188494 0.893646
-0.284183 0.352538 0.891603
-0.190520 0.084996 0.977997
-0.407267 0.188494 0.893646
-0.274896 0.302290 0.912717
-0.190520 0.084996 0.977997
-0.274896 0.302290 0.912717
-0.165200 0.163245 0.972656
-0.178743 0.022471 0.983639
-0.407267 0.188494 0.893646
-0.190520 0.084996 0.977997
-0.178743 0.022471 0.983639
-0.448964 0.089007 0.889106
-0.407267 0.188494 0.893646
-0.448964 0.089007 0.889106
-0.458013 0.208008 0.864266
-0.407267 0.188494 0.893646
-0.448964 0.089007 0.889106
-0.522960 0.090909 0.847495
-0.458013 0.208008 0.864266
-0.522960 0.090909 0.847495
-0.247185 -0.038099 0.968219
-0.458013 0.208008 0.864266
-0.532506 -0.045919 0.845179
-0.247185 -0.038099 0.968219
-0.522960 0.090909 0.847495
-0.456811 -0.026411 0.889172
-0.532506 -0.045919 0.845179
-0.522960 0.090909 0.847495
-0.448964 0.089007 0.889106
-0.456811 -0.026411 0.889172
-0.522960 0.090909 0.847495
-0.178790 -0.008792 0.983848
-0.456811 -0.026411 0.889172
-0.448964 0.089007 0.889106
-0.178790 -0.008792 0.983848
-0.448964 0.089007 0.889106
-0.178743 0.022471 0.983639
-0.210214 -0.096798 0.972852
-0.456811 -0.026411 0.889172
-0.178790 -0.008792 0.983848
-0.210214 -0.096798 0.972852
-0.444460 -0.211966 0.870359
-0.456811 -0.026411 0.889172
-0.444460 -0.211966 0.870359
-0.532506 -0.045919 0.845179
-0.456811 -0.026411 0.889172
-0.444460 -0.211966 0.870359
-0.495397 -0.223767 0.839351
-0.532506 -0.045919 0.845179
-0.495397 -0.223767 0.839351
-0.247185 -0.038099 0.968219
-0.532506 -0.045919 0.845179
-0.495397 -0.223767 0.839351
-0.403739 -0.376369 0.833871
-0.247185 -0.038099 0.968219
-0.403739 -0.376369 0.833871
-0.184698 -0.501325 0.845317
-0.247185 -0.038099 0.968219
-0.184698 -0.501325 0.845317
-0.018556 -0.549864 0.835048
-0.247185 -0.038099 0.968219
-0.184698 -0.501325 0.845317
-0.049838 -0.556039 0.829660
-0.018556 -0.549864 0.835048
-0.184698 -0.501325 0.845317
-0.212163 -0.509382 0.833977
-0.049838 -0.556039 0.829660
-0.403739 -0.376369 0.833871
-0.212163 -0.509382 0.833977
-0.184698 -0.501325 0.845317
-0.212163 -0.509382 0.833977
-0.059638 -0.392032 0.918016
-0.049838 -0.556039 0.829660
-0.212163 -0.509382 0.833977
-0.161338 -0.341272 0.926015
-0.059638 -0.392032 0.918016
-0.397921 -0.382281 0.833979
-0.161338 -0.341272 0.926015
-0.212163 -0.509382 0.833977
-0.403739 -0.376369 0.833871
-0.397921 -0.382281 0.833979
-0.212163 -0.509382 0.833977
-0.495397 -0.223767 0.839351
-0.397921 -0.382281 0.833979
-0.403739 -0.376369 0.833871
-0.444460 -0.211966 0.870359
-0.397921 -0.382281 0.833979
-0.495397 -0.223767 0.839351
-0.247072 -0.225591 0.942371
-0.397921 -0.382281 0.833979
-0.444460 -0.211966 0.870359
-0.247072 -0.225591 0.942371
-0.161338 -0.341272 0.926015
-0.397921 -0.382281 0.833979
-0.210214 -0.096798 0.972852
-0.247072 -0.225591 0.942371
-0.444460 -0.211966 0.870359
-0.000978 0.362777 0.931875
0.069403 0.194549 0.978434
0.014675 0.210381 0.977509
-0.000978 0.362777 0.931875
0.108451 0.342941 0.933075
0.069403 0.194549 0.978434
0.108451 0.342941 0.933075
0.151420 0.129938 0.979892
0.069403 0.194549 0.978434
0.108451 0.342941 0.933075
0.296283 0.263023 0.918170
0.151420 0.129938 0.979892
0.296283 0.263023 0.918170
0.170923 0.057626 0.983598
0.151420 0.129938 0.979892
0.296283 0.263023 0.918170
0.403476 0.155330 0.901709
0.170923 0.057626 0.983598
0.403476 0.155330 0.901709
0.167036 0.024426 0.985648
0.170923 0.057626 0.983598
0.403476 0.155330 0.901709
0.449039 0.063592 0.891246
0.167036 0.024426 0.985648
0.449039 0.063592 0.891246
0.221920 -0.028348 0.974653
0.167036 0.024426 0.985648
0.449039 0.063592 0.891246
0.481560 -0.061542 0.874250
0.221920 -0.028348 0.974653
0.481560 -0.061542 0.874250
0.299788 -0.135732 0.944301
0.221920 -0.028348 0.974653
0.481560 -0.061542 0.874250
0.478553 -0.226056 0.848461
0.299788 -0.135732 0.944301
0.478553 -0.226056 0.848461
0.225615 -0.293970 0.928805
0.299788 -0.135732 0.944301
0.478553 -0.226056 0.848461
0.303781 -0.424909 0.852742
0.225615 -0.293970 0.928805
0.303781 -0.424909 0.852742
0.116408 -0.382494 0.916596
0.225615 -0.293970 0.928805
0.303781 -0.424909 0.852742
0.139629 -0.526306 0.838752
0.116408 -0.382494 0.916596
0.288506 -0.417593 0.861615
0.139629 -0.526306 0.838752
0.303781 -0.424909 0.852742
0.478553 -0.226056 0.848461
0.288506 -0.417593 0.861615
0.303781 -0.424909 0.852742
0.288506 -0.417593 0.861615
0.131980 -0.517166 0.845648
0.139629 -0.526306 0.838752
0.288506 -0.417593 0.861615
0.247235 0.032252 0.968419
0.131980 -0.517166 0.845648
0.484064 -0.223948 0.845890
0.247235 0.032252 0.968419
0.288506 -0.417593 0.861615
0.478553 -0.226056 0.848461
0.484064 -0.223948 0.845890
0.288506 -0.417593 0.861615
0.536549 -0.063527 0.841475
0.484064 -0.223948 0.845890
0.478553 -0.226056 0.848461
0.536549 -0.063527 0.841475
0.247235 0.032252 0.968419
0.484064 -0.223948 0.845890
0.481560 -0.061542 0.874250
0.536549 -0.063527 0.841475
0.478553 -0.226056 0.848461
0.528836 0.073314 0.845551
0.536549 -0.063527 0.841475
0.481560 -0.061542 0.874250
0.528836 0.073314 0.845551
0.247235 0.032252 0.968419
0.536549 -0.063527 0.841475
0.449039 0.063592 0.891246
0.528836 0.073314 0.845551
0.481560 -0.061542 0.874250
0.470759 0.186933 0.862231
0.528836 0.073314 0.845551
0.449039 0.063592 0.891246
0.470759 0.186933 0.862231
0.247235 0.032252 0.968419
0.528836 0.073314 0.845551
0.403476 0.155330 0.901709
0.470759 0.186933 0.862231
0.449039 0.063592 0.891246
0.344898 0.298000 0.890079
0.470759 0.186933 0.862231
0.403476 0.155330 0.901709
0.344898 0.298000 0.890079
0.247235 0.032252 0.968419
0.470759 0.186933 0.862231
0.296283 0.263023 0.918170
0.344898 0.298000 0.890079
0.403476 0.155330 0.901709
0.126046 0.395728 0.909677
0.344898 0.298000 0.890079
0.296283 0.263023 0.918170
0.126046 0.395728 0.909677
0.247235 0.032252 0.968419
0.344898 0.298000 0.890079
0.126046 0.395728 0.909677
-0.008790 0.432680 0.901505
0.247235 0.032252 0.968419
0.126046 0.395728 0.909677
-0.000978 0.362777 0.931875
-0.008790 0.432680 0.901505
0.126046 0.395728 0.909677
0.108451 0.342941 0.933075
-0.000978 0.362777 0.931875
0.126046 0.395728 0.909677
0.296283 0.263023 0.918170
0.108451 0.342941 0.933075
</float_array>
          <technique_common>
            <accessor source="#SM_Barnacle_02_LOD0-Normal0-array" count="240" stride="3">
              <param name="X" type="float"/>
              <param name="Y" type="float"/>
              <param name="Z" type="float"/>
            </accessor>
          </technique_common>
        </source>
        <source id="SM_Barnacle_02_LOD0-UV0">
          <float_array id="SM_Barnacle_02_LOD0-UV0-array" count="98">
0.827881 0.608886
0.810826 0.608538
0.823730 0.626221
0.807617 0.621338
0.790234 0.608838
0.789063 0.615967
0.778564 0.609131
0.786621 0.619141
0.802246 0.629395
0.814941 0.638428
0.803223 0.644287
0.793457 0.634033
0.782715 0.621094
0.778809 0.621826
0.782715 0.635498
0.788086 0.646729
0.772461 0.644775
0.772461 0.634033
0.774414 0.621094
0.770508 0.619141
0.768066 0.615967
0.767090 0.609008
0.751221 0.608765
0.754883 0.621338
0.738526 0.609986
0.746094 0.626221
0.762695 0.628906
0.758301 0.637451
0.824219 0.627930
0.808105 0.623291
0.815430 0.640381
0.802734 0.631104
0.803711 0.646240
0.793945 0.635986
0.788574 0.648438
0.783203 0.637207
0.772949 0.646484
0.772949 0.635986
0.758789 0.639160
0.763184 0.630859
0.746582 0.628174
0.755371 0.623047
0.768555 0.617676
0.770996 0.620850
0.774902 0.623047
0.779297 0.623779
0.783203 0.623047
0.787109 0.620850
0.789551 0.617920
</float_array>
          <technique_common>
            <accessor source="#SM_Barnacle_02_LOD0-UV0-array" count="49" stride="2">
              <param name="S" type="float"/>
              <param name="T" type="float"/>
            </accessor>
          </technique_common>
        </source>
        <vertices id="SM_Barnacle_02_LOD0-VERTEX">
          <input semantic="POSITION" source="#SM_Barnacle_02_LOD0-POSITION"/>
        </vertices>
        <triangles count="80" material="MAT_Sea_Shells">
          <input semantic="VERTEX" offset="0" source="#SM_Barnacle_02_LOD0-VERTEX"/>
          <input semantic="NORMAL" offset="1" source="#SM_Barnacle_02_LOD0-Normal0"/>
          <input semantic="TEXCOORD" offset="2" set="0" source="#SM_Barnacle_02_LOD0-UV0"/>
          <p> 0 0 2 1 1 1 24 2 0 0 3 2 3 4 3 1 5 1 3 6 3 2 7 4 1 8 1 3 9 3 4 10 5 2 11 4 4 12 5 43 13 6 2 14 4 5 15 7 43 16 6 4 17 5 6 18 8 5 19 7 4 20 5 3 21 3 6 22 8 4 23 5 7 24 9 6 25 8 3 26 3 7 27 9 3 28 3 0 29 2 8 30 10 6 31 8 7 32 9 8 33 10 10 34 11 6 35 8 10 36 11 5 37 7 6 38 8 10 39 11 9 40 12 5 41 7 9 42 12 43 43 6 5 44 7 14 45 13 43 46 6 9 47 12 12 48 14 14 49 13 9 50 12 10 51 11 12 52 14 9 53 12 11 54 15 12 55 14 10 56 11 11 57 15 10 58 11 8 59 10 23 60 16 12 61 14 11 62 15 23 63 16 13 64 17 12 65 14 13 66 17 14 67 13 12 68 14 13 69 17 16 70 18 14 71 13 16 72 18 43 73 6 14 74 13 16 75 18 15 76 19 43 77 6 15 78 19 18 79 20 43 80 6 18 81 20 17 82 21 43 83 6 18 84 20 36 85 22 17 86 21 18 87 20 19 88 23 36 89 22 15 90 19 19 91 23 18 92 20 19 93 23 34 94 24 36 95 22 19 96 23 22 97 25 34 98 24 21 99 26 22 100 25 19 101 23 15 102 19 21 103 26 19 104 23 16 105 18 21 106 26 15 107 19 13 108 17 21 109 26 16 110 18 20 111 27 21 112 26 13 113 17 20 114 27 22 115 25 21 116 26 23 117 16 20 118 27 13 119 17 1 120 1 25 121 28 24 122 0 1 123 1 26 124 29 25 125 28 26 126 29 27 127 30 25 128 28 26 129 29 47 130 31 27 131 30 47 132 31 28 133 32 27 134 30 47 135 31 45 136 33 28 137 32 45 138 33 29 139 34 28 140 32 45 141 33 44 142 35 29 143 34 44 144 35 30 145 36 29 146 34 44 147 35 40 148 37 30 149 36 40 150 37 31 151 38 30 152 36 40 153 37 32 154 39 31 155 38 32 156 39 33 157 40 31 158 38 32 159 39 35 160 41 33 161 40 35 162 41 34 163 24 33 164 40 35 165 41 36 166 22 34 167 24 37 168 42 36 169 22 35 170 41 32 171 39 37 172 42 35 173 41 37 174 42 17 175 21 36 176 22 37 177 42 43 178 6 17 179 21 38 180 43 43 181 6 37 182 42 32 183 39 38 184 43 37 185 42 39 186 44 38 187 43 32 188 39 39 189 44 43 190 6 38 191 43 40 192 37 39 193 44 32 194 39 41 195 45 39 196 44 40 197 37 41 198 45 43 199 6 39 200 44 44 201 35 41 202 45 40 203 37 42 204 46 41 205 45 44 206 35 42 207 46 43 208 6 41 209 45 45 210 33 42 211 46 44 212 35 46 213 47 42 214 46 45 215 33 46 216 47 43 217 6 42 218 46 47 219 31 46 220 47 45 221 33 48 222 48 46 223 47 47 224 31 48 225 48 43 226 6 46 227 47 48 228 48 2 229 4 43 230 6 48 231 48 1 232 1 2 233 4 48 234 48 26 235 29 1 236 1 48 237 48 47 238 31 26 239 29</p>
        </triangles>
      </mesh>
    </geometry>
    <geometry id="SM_Barnacle_02_LOD1-lib" name="SM_Barnacle_02_LOD1Mesh">
      <mesh>
        <source id="SM_Barnacle_02_LOD1-POSITION">
          <float_array id="SM_Barnacle_02_LOD1-POSITION-array" count="99">
0.035011 -0.755219 1.881953
-3.032001 -1.749939 0.000001
2.019131 -3.267975 0.000001
2.181252 3.015564 0.000001
3.290451 -0.783783 0.000001
1.201992 -0.130920 1.403693
-2.831661 1.940826 0.000001
-0.615387 3.797577 0.000000
-1.141071 -1.306702 1.403693
-1.196144 -3.512726 0.000001
3.265747 0.622406 0.000001
-1.748577 1.498291 0.256718
-0.989700 0.022125 1.436053
0.864105 -1.631866 1.448270
0.866238 2.403656 0.277089
2.221474 -1.957794 0.212396
-2.128761 -1.901306 0.170447
-3.242603 0.371613 0.000001
0.469688 -3.797607 0.000001
-0.400879 2.295898 0.303251
2.292160 1.040649 0.144946
0.361740 -3.042114 0.303251
0.625710 0.380219 1.447694
-2.613564 -0.692169 0.116335
1.007824 3.599030 0.000000
-0.563522 -1.830597 1.447694
-0.910755 -2.937592 0.277089
1.584087 -2.795715 0.277089
1.318546 -0.955292 1.403693
2.809143 -2.055847 0.000001
2.871330 1.916992 0.000001
2.580109 -0.946838 0.144946
1.700500 1.970001 0.212396
</float_array>
          <technique_common>
            <accessor source="#SM_Barnacle_02_LOD1-POSITION-array" count="33" stride="3">
              <param name="X" type="float"/>
              <param name="Y" type="float"/>
              <param name="Z" type="float"/>
            </accessor>
          </technique_common>
        </source>
        <source id="SM_Barnacle_02_LOD1-Normal0">
          <float_array id="SM_Barnacle_02_LOD1-Normal0-array" count="459">
0.274246 0.231312 0.933426
0.493537 0.186742 0.849440
0.381480 0.125191 0.915860
-0.213507 -0.511449 0.832367
-0.408951 -0.278206 0.869115
-0.238718 -0.481170 0.843498
-0.298152 0.242455 0.923212
-0.404682 -0.011306 0.914388
-0.406325 0.268746 0.873313
0.474148 -0.217982 0.853034
0.306010 -0.427171 0.850813
0.294604 -0.404314 0.865875
0.149292 0.392352 0.907619
0.493537 0.186742 0.849440
0.274246 0.231312 0.933426
-0.213507 -0.511449 0.832367
0.036677 -0.521705 0.852337
0.306010 -0.427171 0.850813
-0.188990 0.013067 0.981892
-0.404682 -0.011306 0.914388
-0.298152 0.242455 0.923212
0.149292 0.392352 0.907619
0.095039 0.322689 0.941722
-0.104315 0.329497 0.938376
-0.213507 -0.511449 0.832367
0.306010 -0.427171 0.850813
-0.008525 -0.000294 0.999964
-0.404682 -0.011306 0.914388
-0.521849 -0.220610 0.824018
-0.406325 0.268746 0.873313
-0.213507 -0.511449 0.832367
-0.238718 -0.481170 0.843498
0.036677 -0.521705 0.852337
0.274246 0.231312 0.933426
0.381480 0.125191 0.915860
0.177460 0.069984 0.981636
-0.183265 0.111570 0.976712
-0.104315 0.329497 0.938376
-0.050961 0.190688 0.980327
-0.104315 0.329497 0.938376
0.054484 0.212562 0.975627
-0.050961 0.190688 0.980327
-0.521849 -0.220610 0.824018
-0.008525 -0.000294 0.999964
-0.406325 0.268746 0.873313
0.149292 0.392352 0.907619
-0.104315 0.329497 0.938376
-0.406325 0.268746 0.873313
0.550014 -0.094191 0.829827
-0.008525 -0.000294 0.999964
0.306010 -0.427171 0.850813
0.550014 -0.094191 0.829827
0.306010 -0.427171 0.850813
0.474148 -0.217982 0.853034
0.274246 0.231312 0.933426
0.177460 0.069984 0.981636
0.145839 0.153855 0.977271
-0.104315 0.329497 0.938376
0.095039 0.322689 0.941722
0.054484 0.212562 0.975627
0.474148 -0.217982 0.853034
0.248056 -0.299605 0.921252
0.298814 -0.118114 0.946974
0.381480 0.125191 0.915860
0.550014 -0.094191 0.829827
0.448945 -0.036716 0.892805
-0.203307 -0.079800 0.975858
-0.183011 -0.339505 0.922629
-0.408951 -0.278206 0.869115
-0.408951 -0.278206 0.869115
-0.521849 -0.220610 0.824018
-0.404682 -0.011306 0.914388
-0.188990 0.013067 0.981892
-0.298152 0.242455 0.923212
-0.183265 0.111570 0.976712
-0.238718 -0.481170 0.843498
0.028787 -0.381295 0.924005
0.036677 -0.521705 0.852337
-0.183265 0.111570 0.976712
-0.298152 0.242455 0.923212
-0.104315 0.329497 0.938376
-0.298152 0.242455 0.923212
-0.406325 0.268746 0.873313
-0.104315 0.329497 0.938376
0.381480 0.125191 0.915860
0.448945 -0.036716 0.892805
0.194505 -0.016087 0.980770
0.381480 0.125191 0.915860
0.194505 -0.016087 0.980770
0.154595 0.017530 0.987822
0.294604 -0.404314 0.865875
0.036677 -0.521705 0.852337
0.028787 -0.381295 0.924005
0.306010 -0.427171 0.850813
0.036677 -0.521705 0.852337
0.294604 -0.404314 0.865875
0.149292 0.392352 0.907619
-0.008525 -0.000294 0.999964
0.493537 0.186742 0.849440
0.149292 0.392352 0.907619
-0.406325 0.268746 0.873313
-0.008525 -0.000294 0.999964
-0.203307 -0.079800 0.975858
-0.404682 -0.011306 0.914388
-0.188990 0.013067 0.981892
-0.203307 -0.079800 0.975858
-0.408951 -0.278206 0.869115
-0.404682 -0.011306 0.914388
0.095039 0.322689 0.941722
0.145839 0.153855 0.977271
0.054484 0.212562 0.975627
-0.521849 -0.220610 0.824018
-0.213507 -0.511449 0.832367
-0.008525 -0.000294 0.999964
-0.521849 -0.220610 0.824018
-0.408951 -0.278206 0.869115
-0.213507 -0.511449 0.832367
-0.238718 -0.481170 0.843498
-0.183011 -0.339505 0.922629
0.028787 -0.381295 0.924005
-0.408951 -0.278206 0.869115
-0.183011 -0.339505 0.922629
-0.238718 -0.481170 0.843498
0.474148 -0.217982 0.853034
0.294604 -0.404314 0.865875
0.248056 -0.299605 0.921252
0.294604 -0.404314 0.865875
0.028787 -0.381295 0.924005
0.248056 -0.299605 0.921252
0.493537 0.186742 0.849440
0.550014 -0.094191 0.829827
0.381480 0.125191 0.915860
0.493537 0.186742 0.849440
-0.008525 -0.000294 0.999964
0.550014 -0.094191 0.829827
0.448945 -0.036716 0.892805
0.298814 -0.118114 0.946974
0.194505 -0.016087 0.980770
0.381480 0.125191 0.915860
0.154595 0.017530 0.987822
0.177460 0.069984 0.981636
0.448945 -0.036716 0.892805
0.474148 -0.217982 0.853034
0.298814 -0.118114 0.946974
0.448945 -0.036716 0.892805
0.550014 -0.094191 0.829827
0.474148 -0.217982 0.853034
0.095039 0.322689 0.941722
0.274246 0.231312 0.933426
0.145839 0.153855 0.977271
0.149292 0.392352 0.907619
0.274246 0.231312 0.933426
0.095039 0.322689 0.941722
</float_array>
          <technique_common>
            <accessor source="#SM_Barnacle_02_LOD1-Normal0-array" count="153" stride="3">
              <param name="X" type="float"/>
              <param name="Y" type="float"/>
              <param name="Z" type="float"/>
            </accessor>
          </technique_common>
        </source>
        <source id="SM_Barnacle_02_LOD1-UV0">
          <float_array id="SM_Barnacle_02_LOD1-UV0-array" count="66">
0.815430 0.640381
0.771560 0.644309
0.746582 0.628174
0.778564 0.609131
0.827881 0.608886
0.772949 0.646484
0.746094 0.626221
0.814941 0.638428
0.774414 0.621094
0.783203 0.623047
0.787762 0.617659
0.796993 0.645292
0.768461 0.617119
0.738526 0.609986
0.805926 0.623875
0.808105 0.623291
0.758789 0.639160
0.768769 0.632095
0.793945 0.635986
0.824219 0.627930
0.788574 0.648438
0.768066 0.615967
0.763184 0.630859
0.803711 0.646240
0.789551 0.617920
0.751221 0.608765
0.810826 0.608538
0.754883 0.621338
0.774902 0.623047
0.782715 0.635498
0.772949 0.635986
0.802734 0.631104
0.755371 0.623047
</float_array>
          <technique_common>
            <accessor source="#SM_Barnacle_02_LOD1-UV0-array" count="33" stride="2">
              <param name="S" type="float"/>
              <param name="T" type="float"/>
            </accessor>
          </technique_common>
        </source>
        <vertices id="SM_Barnacle_02_LOD1-VERTEX">
          <input semantic="POSITION" source="#SM_Barnacle_02_LOD1-POSITION"/>
        </vertices>
        <triangles count="51" material="MAT_Sea_Shells">
          <input semantic="VERTEX" offset="0" source="#SM_Barnacle_02_LOD1-VERTEX"/>
          <input semantic="NORMAL" offset="1" source="#SM_Barnacle_02_LOD1-Normal0"/>
          <input semantic="TEXCOORD" offset="2" set="0" source="#SM_Barnacle_02_LOD1-UV0"/>
          <p> 32 0 31 5 1 9 20 2 18 25 3 21 16 4 17 26 5 27 11 6 14 23 7 29 12 8 10 15 9 22 13 10 12 27 11 32 22 12 24 5 13 9 32 14 31 25 15 21 21 16 25 13 17 12 17 18 11 23 19 29 11 20 14 22 21 24 14 22 15 19 23 26 25 24 21 13 25 12 0 26 3 23 27 29 8 28 8 12 29 10 25 30 21 26 31 27 21 32 25 32 33 31 20 34 18 30 35 23 6 36 7 19 37 26 7 38 4 19 39 26 24 40 19 7 41 4 8 42 8 0 43 3 12 44 10 22 45 24 19 46 26 12 47 10 28 48 28 0 49 3 13 50 12 28 51 28 13 52 12 15 53 22 32 54 31 30 55 23 3 56 0 19 57 26 14 58 15 24 59 19 15 60 22 2 61 2 29 62 16 20 63 18 28 64 28 31 65 30 1 66 1 9 67 6 16 68 17 16 69 17 8 70 8 23 71 29 17 72 11 11 73 14 6 74 7 26 75 27 18 76 13 21 77 25 6 78 7 11 79 14 19 80 26 11 81 14 12 82 10 19 83 26 20 84 18 31 85 30 4 86 5 20 87 18 4 88 5 10 89 20 27 90 32 21 91 25 18 92 13 13 93 12 21 94 25 27 95 32 22 96 24 0 97 3 5 98 9 22 99 24 12 100 10 0 101 3 1 102 1 23 103 29 17 104 11 1 105 1 16 106 17 23 107 29 14 108 15 3 109 0 24 110 19 8 111 8 25 112 21 0 113 3 8 114 8 16 115 17 25 116 21 26 117 27 9 118 6 18 119 13 16 120 17 9 121 6 26 122 27 15 123 22 27 124 32 2 125 2 27 126 32 18 127 13 2 128 2 5 129 9 28 130 28 20 131 18 5 132 9 0 133 3 28 134 28 31 135 30 29 136 16 4 137 5 20 138 18 10 139 20 30 140 23 31 141 30 15 142 22 29 143 16 31 144 30 28 145 28 15 146 22 14 147 15 32 148 31 3 149 0 22 150 24 32 151 31 14 152 15</p>
        </triangles>
      </mesh>
    </geometry>
  </library_geometries>
  <library_visual_scenes>
    <visual_scene id="SM_Barnacle_02" name="SM_Barnacle_02">
      <node name="SM_Barnacle_02_LOD0" id="SM_Barnacle_02_LOD0" layer="shells" sid="SM_Barnacle_02_LOD0">
        <matrix sid="matrix">1.000000 0.000000 0.000000 0.000000 0.000000 0.000000 1.000000 0.000000 0.000000 -1.000000 0.000000 0.000000 0.000000 0.000000 0.000000 1.000000</matrix>
        <instance_geometry url="#SM_Barnacle_02_LOD0-lib">
          <bind_material>
            <technique_common>
              <instance_material symbol="MAT_Sea_Shells" target="#MAT_Sea_Shells"/>
            </technique_common>
          </bind_material>
        </instance_geometry>
        <extra>
          <technique profile="FCOLLADA">
            <visibility>1.000000</visibility>
          </technique>
        </extra>
      </node>
      <node name="SM_Barnacle_02_LOD1" id="SM_Barnacle_02_LOD1" layer="shells" sid="SM_Barnacle_02_LOD1">
        <matrix sid="matrix">1.000000 0.000000 0.000000 0.000000 0.000000 0.000000 1.000000 0.000000 0.000000 -1.000000 0.000000 0.000000 0.000000 0.000000 0.000000 1.000000</matrix>
        <instance_geometry url="#SM_Barnacle_02_LOD1-lib">
          <bind_material>
            <technique_common>
              <instance_material symbol="MAT_Sea_Shells" target="#MAT_Sea_Shells"/>
            </technique_common>
          </bind_material>
        </instance_geometry>
        <extra>
          <technique profile="FCOLLADA">
            <visibility>1.000000</visibility>
          </technique>
        </extra>
      </node>
      <extra>
        <technique profile="MAX3D">
          <frame_rate>30.000000</frame_rate>
        </technique>
        <technique profile="FCOLLADA">
          <start_time>0.000000</start_time>
          <end_time>3.333333</end_time>
        </technique>
      </extra>
    </visual_scene>
  </library_visual_scenes>
  <scene>
    <instance_visual_scene url="#SM_Barnacle_02"/>
  </scene>
</COLLADA>
