<?xml version="1.0" encoding="utf-8"?>
<COLLADA xmlns="http://www.collada.org/2005/11/COLLADASchema" version="1.4.1">
  <asset>
    <contributor>
      <author/>
      <authoring_tool>FBX COLLADA exporter</authoring_tool>
      <comments/>
    </contributor>
    <created>2024-02-10T11:42:32Z</created>
    <keywords/>
    <modified>2024-02-10T11:42:32Z</modified>
    <revision/>
    <subject/>
    <title/>
    <unit meter="0.010000" name="centimeter"/>
    <up_axis>Y_UP</up_axis>
  </asset>
  <library_materials>
    <material id="MAT_Sea_Shells" name="MAT_Sea_Shells">
      <instance_effect url="#MAT_Sea_Shells-fx"/>
    </material>
  </library_materials>
  <library_effects>
    <effect id="MAT_Sea_Shells-fx" name="MAT_Sea_Shells">
      <profile_COMMON>
        <technique sid="standard">
          <phong>
            <emission>
              <color sid="emission">0.000000  0.000000 0.000000 1.000000</color>
            </emission>
            <ambient>
              <color sid="ambient">0.588235  0.588235 0.588235 1.000000</color>
            </ambient>
            <diffuse>
              <color sid="diffuse">0.588235  0.588235 0.588235 1.000000</color>
            </diffuse>
            <specular>
              <color sid="specular">0.000000  0.000000 0.000000 1.000000</color>
            </specular>
            <shininess>
              <float sid="shininess">2.000000</float>
            </shininess>
            <reflective>
              <color sid="reflective">0.000000  0.000000 0.000000 1.000000</color>
            </reflective>
            <reflectivity>
              <float sid="reflectivity">1.000000</float>
            </reflectivity>
            <transparent opaque="RGB_ZERO">
              <color sid="transparent">1.000000  1.000000 1.000000 1.000000</color>
            </transparent>
            <transparency>
              <float sid="transparency">0.000000</float>
            </transparency>
          </phong>
        </technique>
      </profile_COMMON>
    </effect>
  </library_effects>
  <library_geometries>
    <geometry id="SM_Barnacle_07_LOD0-lib" name="SM_Barnacle_07_LOD0Mesh">
      <mesh>
        <source id="SM_Barnacle_07_LOD0-POSITION">
          <float_array id="SM_Barnacle_07_LOD0-POSITION-array" count="195">
0.744569 8.759064 -0.000000
0.535010 6.475403 0.313029
-2.358318 8.387207 0.000000
-1.749157 6.139832 0.287010
-5.195927 7.411072 0.000000
-6.952162 5.007233 0.000000
-7.970881 0.805206 0.000001
-5.238367 2.975708 0.155571
-7.399512 -2.556549 0.000001
-5.717112 -6.216553 0.000002
-4.523321 -5.225830 0.222663
-3.099506 -7.922729 0.000002
-2.522913 -6.774109 0.287012
-0.720002 -8.759094 0.000002
-0.538856 -7.453552 0.313031
2.540879 -8.641754 0.000002
5.785747 -7.221100 0.000002
7.838614 -3.852295 0.000001
5.519824 1.570770 0.155571
7.970881 -0.542694 0.000001
7.376618 2.618835 0.000001
4.460992 3.942505 0.222662
5.999850 5.775696 0.000000
2.511896 5.815399 0.287010
3.191375 7.920929 0.000000
-3.840476 4.897644 0.222661
-5.915247 0.047821 0.127113
-5.669510 -2.526825 0.155571
-4.281488 -0.513489 1.016247
-3.539912 -4.392334 1.176178
1.310877 -6.136719 1.283888
2.948993 -5.023346 1.176179
1.851478 -7.289063 0.287012
4.196294 -6.025757 0.222663
5.762778 -3.522339 0.155571
6.005849 -0.943329 0.127113
4.043239 0.757599 1.063882
3.241162 2.502777 1.176178
0.373228 4.097412 1.327443
1.957891 3.899353 1.283887
0.927299 -0.912109 2.729591
4.437972 -1.222595 1.016247
4.124331 -3.207123 1.063885
1.400357 -2.652069 2.669477
1.177510 -3.564575 2.687206
-0.392142 -6.329376 1.327444
-0.023355 -4.814117 2.771378
-2.036237 -5.781525 1.283888
-2.207070 -4.126221 2.729591
-2.590140 -3.288788 2.687206
-4.272821 -2.453918 1.063885
-3.866414 1.426086 1.063882
-1.956349 -0.701019 2.729591
-1.256520 -0.225494 2.771377
-2.764226 2.949036 1.176178
-1.263429 4.024323 1.283887
-0.462712 -0.097687 2.788519
0.304160 -0.339783 2.771377
-2.455272 -1.446045 2.687206
-2.677747 -2.353546 2.669477
-1.584023 -4.699860 2.771378
-0.816702 -4.934723 2.788519
0.676580 -4.337280 2.729591
1.312390 -1.721832 2.687206
-0.704126 -3.322052 3.513101
</float_array>
          <technique_common>
            <accessor source="#SM_Barnacle_07_LOD0-POSITION-array" count="65" stride="3">
              <param name="X" type="float"/>
              <param name="Y" type="float"/>
              <param name="Z" type="float"/>
            </accessor>
          </technique_common>
        </source>
        <source id="SM_Barnacle_07_LOD0-Normal0">
          <float_array id="SM_Barnacle_07_LOD0-Normal0-array" count="1008">
0.020528 0.268889 0.962952
0.065494 0.104618 0.992354
0.012702 0.127983 0.991695
-0.036144 0.106430 0.993663
0.020528 0.268889 0.962952
0.012702 0.127983 0.991695
-0.098789 0.241614 0.965331
0.020528 0.268889 0.962952
-0.036144 0.106430 0.993663
-0.061607 0.059605 0.996319
-0.098789 0.241614 0.965331
-0.036144 0.106430 0.993663
-0.190520 0.172901 0.966337
-0.098789 0.241614 0.965331
-0.061607 0.059605 0.996319
-0.067425 0.024462 0.997424
-0.190520 0.172901 0.966337
-0.061607 0.059605 0.996319
-0.247288 0.090885 0.964670
-0.190520 0.172901 0.966337
-0.067425 0.024462 0.997424
-0.071335 0.002933 0.997448
-0.247288 0.090885 0.964670
-0.067425 0.024462 0.997424
-0.286674 0.020540 0.957808
-0.247288 0.090885 0.964670
-0.071335 0.002933 0.997448
-0.094700 -0.022459 0.995252
-0.286674 0.020540 0.957808
-0.071335 0.002933 0.997448
-0.325536 -0.065517 0.943257
-0.286674 0.020540 0.957808
-0.094700 -0.022459 0.995252
-0.114298 -0.090790 0.989289
-0.325536 -0.065517 0.943257
-0.094700 -0.022459 0.995252
-0.316097 -0.220157 0.922829
-0.325536 -0.065517 0.943257
-0.114298 -0.090790 0.989289
-0.096869 -0.177097 0.979415
-0.316097 -0.220157 0.922829
-0.114298 -0.090790 0.989289
-0.221968 -0.378418 0.898627
-0.316097 -0.220157 0.922829
-0.096869 -0.177097 0.979415
-0.057691 -0.446892 0.892726
-0.221968 -0.378418 0.898627
-0.096869 -0.177097 0.979415
-0.032234 -0.215910 0.975881
-0.057691 -0.446892 0.892726
-0.096869 -0.177097 0.979415
0.124121 -0.382138 0.915732
-0.057691 -0.446892 0.892726
-0.032234 -0.215910 0.975881
0.043965 -0.174810 0.983620
0.124121 -0.382138 0.915732
-0.032234 -0.215910 0.975881
0.237656 -0.229836 0.943766
0.124121 -0.382138 0.915732
0.043965 -0.174810 0.983620
0.079250 -0.087118 0.993041
0.237656 -0.229836 0.943766
0.043965 -0.174810 0.983620
0.278473 -0.085020 0.956674
0.237656 -0.229836 0.943766
0.079250 -0.087118 0.993041
0.077295 -0.020552 0.996796
0.278473 -0.085020 0.956674
0.079250 -0.087118 0.993041
0.286150 0.010741 0.958125
0.278473 -0.085020 0.956674
0.077295 -0.020552 0.996796
0.069380 0.004888 0.997578
0.286150 0.010741 0.958125
0.077295 -0.020552 0.996796
0.282335 0.073266 0.956514
0.286150 0.010741 0.958125
0.069380 0.004888 0.997578
0.079250 0.018597 0.996681
0.282335 0.073266 0.956514
0.069380 0.004888 0.997578
0.255155 0.151539 0.954951
0.282335 0.073266 0.956514
0.079250 0.018597 0.996681
0.085115 0.053787 0.994918
0.255155 0.151539 0.954951
0.079250 0.018597 0.996681
0.155473 0.235700 0.959309
0.255155 0.151539 0.954951
0.085115 0.053787 0.994918
0.065494 0.104618 0.992354
0.155473 0.235700 0.959309
0.085115 0.053787 0.994918
0.020528 0.268889 0.962952
0.155473 0.235700 0.959309
0.065494 0.104618 0.992354
0.022468 0.364397 0.930973
0.155473 0.235700 0.959309
0.020528 0.268889 0.962952
-0.098789 0.241614 0.965331
0.022468 0.364397 0.930973
0.020528 0.268889 0.962952
-0.165188 0.350904 0.921726
0.022468 0.364397 0.930973
-0.098789 0.241614 0.965331
-0.190520 0.172901 0.966337
-0.165188 0.350904 0.921726
-0.098789 0.241614 0.965331
-0.343345 0.284623 0.895044
-0.165188 0.350904 0.921726
-0.190520 0.172901 0.966337
-0.247288 0.090885 0.964670
-0.343345 0.284623 0.895044
-0.190520 0.172901 0.966337
-0.483942 0.174999 0.857424
-0.343345 0.284623 0.895044
-0.247288 0.090885 0.964670
-0.286674 0.020540 0.957808
-0.483942 0.174999 0.857424
-0.247288 0.090885 0.964670
-0.585031 0.047857 0.809598
-0.483942 0.174999 0.857424
-0.286674 0.020540 0.957808
-0.325536 -0.065517 0.943257
-0.585031 0.047857 0.809598
-0.286674 0.020540 0.957808
-0.634483 -0.120235 0.763528
-0.585031 0.047857 0.809598
-0.325536 -0.065517 0.943257
-0.316097 -0.220157 0.922829
-0.634483 -0.120235 0.763528
-0.325536 -0.065517 0.943257
-0.583558 -0.382188 0.716514
-0.634483 -0.120235 0.763528
-0.316097 -0.220157 0.922829
-0.221968 -0.378418 0.898627
-0.583558 -0.382188 0.716514
-0.316097 -0.220157 0.922829
-0.378512 -0.615261 0.691507
-0.583558 -0.382188 0.716514
-0.221968 -0.378418 0.898627
-0.079178 -0.693077 0.716502
-0.378512 -0.615261 0.691507
-0.221968 -0.378418 0.898627
-0.057691 -0.446892 0.892726
-0.079178 -0.693077 0.716502
-0.221968 -0.378418 0.898627
0.223683 -0.589032 0.776535
-0.079178 -0.693077 0.716502
-0.057691 -0.446892 0.892726
0.124121 -0.382138 0.915732
0.223683 -0.589032 0.776535
-0.057691 -0.446892 0.892726
0.413511 -0.374411 0.829955
0.223683 -0.589032 0.776535
0.124121 -0.382138 0.915732
0.237656 -0.229836 0.943766
0.413511 -0.374411 0.829955
0.124121 -0.382138 0.915732
0.482271 -0.157499 0.861748
0.413511 -0.374411 0.829955
0.237656 -0.229836 0.943766
0.278473 -0.085020 0.956674
0.482271 -0.157499 0.861748
0.237656 -0.229836 0.943766
0.483992 0.004888 0.875059
0.482271 -0.157499 0.861748
0.278473 -0.085020 0.956674
0.286150 0.010741 0.958125
0.483992 0.004888 0.875059
0.278473 -0.085020 0.956674
0.454997 0.110578 0.883601
0.483992 0.004888 0.875059
0.286150 0.010741 0.958125
0.282335 0.073266 0.956514
0.454997 0.110578 0.883601
0.286150 0.010741 0.958125
0.384402 0.210285 0.898897
0.454997 0.110578 0.883601
0.282335 0.073266 0.956514
0.255155 0.151539 0.954951
0.384402 0.210285 0.898897
0.282335 0.073266 0.956514
0.216197 0.314044 0.924465
0.384402 0.210285 0.898897
0.255155 0.151539 0.954951
0.155473 0.235700 0.959309
0.216197 0.314044 0.924465
0.255155 0.151539 0.954951
0.022468 0.364397 0.930973
0.216197 0.314044 0.924465
0.155473 0.235700 0.959309
0.022468 0.364397 0.930973
0.171078 0.225827 0.959028
0.216197 0.314044 0.924465
0.171078 0.225827 0.959028
0.384402 0.210285 0.898897
0.216197 0.314044 0.924465
0.171078 0.225827 0.959028
0.310130 0.153596 0.938204
0.384402 0.210285 0.898897
0.310130 0.153596 0.938204
0.454997 0.110578 0.883601
0.384402 0.210285 0.898897
0.310130 0.153596 0.938204
0.388250 0.077259 0.918310
0.454997 0.110578 0.883601
0.388250 0.077259 0.918310
0.483992 0.004888 0.875059
0.454997 0.110578 0.883601
0.388250 0.077259 0.918310
0.431034 -0.018549 0.902145
0.483992 0.004888 0.875059
0.431034 -0.018549 0.902145
0.482271 -0.157499 0.861748
0.483992 0.004888 0.875059
0.431034 -0.018549 0.902145
0.440745 -0.153424 0.884423
0.482271 -0.157499 0.861748
0.440745 -0.153424 0.884423
0.413511 -0.374411 0.829955
0.482271 -0.157499 0.861748
0.440745 -0.153424 0.884423
0.384272 -0.321717 0.865352
0.413511 -0.374411 0.829955
0.384272 -0.321717 0.865352
0.223683 -0.589032 0.776535
0.413511 -0.374411 0.829955
0.384272 -0.321717 0.865352
0.215820 -0.493151 0.842748
0.223683 -0.589032 0.776535
0.215820 -0.493151 0.842748
-0.079178 -0.693077 0.716502
0.223683 -0.589032 0.776535
0.215820 -0.493151 0.842748
-0.053733 -0.581352 0.811876
-0.079178 -0.693077 0.716502
-0.053733 -0.581352 0.811876
-0.378512 -0.615261 0.691507
-0.079178 -0.693077 0.716502
-0.053733 -0.581352 0.811876
-0.335105 -0.518792 0.786485
-0.378512 -0.615261 0.691507
-0.335105 -0.518792 0.786485
-0.522849 -0.323485 0.788661
-0.378512 -0.615261 0.691507
-0.522849 -0.323485 0.788661
-0.583558 -0.382188 0.716514
-0.378512 -0.615261 0.691507
-0.522849 -0.323485 0.788661
-0.572233 -0.108577 0.812871
-0.583558 -0.382188 0.716514
-0.572233 -0.108577 0.812871
-0.634483 -0.120235 0.763528
-0.583558 -0.382188 0.716514
-0.572233 -0.108577 0.812871
-0.536274 0.041985 0.842999
-0.634483 -0.120235 0.763528
-0.536274 0.041985 0.842999
-0.585031 0.047857 0.809598
-0.634483 -0.120235 0.763528
-0.536274 0.041985 0.842999
-0.440886 0.151528 0.884680
-0.585031 0.047857 0.809598
-0.440886 0.151528 0.884680
-0.483942 0.174999 0.857424
-0.585031 0.047857 0.809598
-0.440886 0.151528 0.884680
-0.307633 0.231464 0.922923
-0.483942 0.174999 0.857424
-0.307633 0.231464 0.922923
-0.343345 0.284623 0.895044
-0.483942 0.174999 0.857424
-0.307633 0.231464 0.922923
-0.147701 0.268997 0.951748
-0.343345 0.284623 0.895044
-0.147701 0.268997 0.951748
-0.165188 0.350904 0.921726
-0.343345 0.284623 0.895044
-0.147701 0.268997 0.951748
0.016612 0.270679 0.962527
-0.165188 0.350904 0.921726
0.016612 0.270679 0.962527
0.022468 0.364397 0.930973
-0.165188 0.350904 0.921726
0.016612 0.270679 0.962527
0.171078 0.225827 0.959028
0.022468 0.364397 0.930973
-0.004894 -0.047923 0.998839
0.171078 0.225827 0.959028
0.016612 0.270679 0.962527
-0.147701 0.268997 0.951748
-0.004894 -0.047923 0.998839
0.016612 0.270679 0.962527
-0.307633 0.231464 0.922923
-0.004894 -0.047923 0.998839
-0.147701 0.268997 0.951748
-0.440886 0.151528 0.884680
-0.004894 -0.047923 0.998839
-0.307633 0.231464 0.922923
-0.536274 0.041985 0.842999
-0.004894 -0.047923 0.998839
-0.440886 0.151528 0.884680
-0.572233 -0.108577 0.812871
-0.004894 -0.047923 0.998839
-0.536274 0.041985 0.842999
-0.522849 -0.323485 0.788661
-0.004894 -0.047923 0.998839
-0.572233 -0.108577 0.812871
-0.335105 -0.518792 0.786485
-0.004894 -0.047923 0.998839
-0.522849 -0.323485 0.788661
-0.053733 -0.581352 0.811876
-0.004894 -0.047923 0.998839
-0.335105 -0.518792 0.786485
0.215820 -0.493151 0.842748
-0.004894 -0.047923 0.998839
-0.053733 -0.581352 0.811876
0.384272 -0.321717 0.865352
-0.004894 -0.047923 0.998839
0.215820 -0.493151 0.842748
0.440745 -0.153424 0.884423
-0.004894 -0.047923 0.998839
0.384272 -0.321717 0.865352
0.431034 -0.018549 0.902145
-0.004894 -0.047923 0.998839
0.440745 -0.153424 0.884423
0.388250 0.077259 0.918310
-0.004894 -0.047923 0.998839
0.431034 -0.018549 0.902145
0.310130 0.153596 0.938204
-0.004894 -0.047923 0.998839
0.388250 0.077259 0.918310
0.310130 0.153596 0.938204
0.171078 0.225827 0.959028
-0.004894 -0.047923 0.998839
</float_array>
          <technique_common>
            <accessor source="#SM_Barnacle_07_LOD0-Normal0-array" count="336" stride="3">
              <param name="X" type="float"/>
              <param name="Y" type="float"/>
              <param name="Z" type="float"/>
            </accessor>
          </technique_common>
        </source>
        <source id="SM_Barnacle_07_LOD0-UV0">
          <float_array id="SM_Barnacle_07_LOD0-UV0-array" count="130">
0.219727 0.837036
0.205078 0.831421
0.213867 0.846924
0.233765 0.849854
0.224121 0.856689
0.244873 0.864258
0.230591 0.869385
0.246216 0.880249
0.231689 0.882141
0.238647 0.900879
0.226196 0.896423
0.225708 0.912292
0.217285 0.905884
0.206543 0.920837
0.203613 0.912476
0.188477 0.918152
0.189087 0.911377
0.177368 0.906860
0.174316 0.912781
0.166016 0.897400
0.158569 0.900330
0.158325 0.883728
0.146973 0.882690
0.158203 0.867920
0.146973 0.861694
0.164673 0.856689
0.156250 0.847900
0.174683 0.848389
0.168701 0.837402
0.186890 0.842773
0.184937 0.829712
0.202148 0.842285
0.207520 0.857056
0.215332 0.863403
0.219482 0.873169
0.220337 0.883362
0.216553 0.892700
0.210693 0.900452
0.201294 0.905518
0.189697 0.905640
0.179932 0.901794
0.172241 0.894775
0.167480 0.884277
0.167114 0.872681
0.171509 0.863525
0.179443 0.857056
0.188599 0.853027
0.199097 0.852051
0.194580 0.875122
0.189697 0.875183
0.185425 0.877014
0.182251 0.880432
0.180542 0.884888
0.180664 0.889832
0.182739 0.894348
0.186279 0.897705
0.190674 0.899597
0.195557 0.899597
0.199951 0.897644
0.203125 0.894165
0.204712 0.889709
0.204590 0.884888
0.202515 0.880432
0.198975 0.877014
0.190552 0.890869
</float_array>
          <technique_common>
            <accessor source="#SM_Barnacle_07_LOD0-UV0-array" count="65" stride="2">
              <param name="S" type="float"/>
              <param name="T" type="float"/>
            </accessor>
          </technique_common>
        </source>
        <vertices id="SM_Barnacle_07_LOD0-VERTEX">
          <input semantic="POSITION" source="#SM_Barnacle_07_LOD0-POSITION"/>
        </vertices>
        <triangles count="112" material="MAT_Sea_Shells">
          <input semantic="VERTEX" offset="0" source="#SM_Barnacle_07_LOD0-VERTEX"/>
          <input semantic="NORMAL" offset="1" source="#SM_Barnacle_07_LOD0-Normal0"/>
          <input semantic="TEXCOORD" offset="2" set="0" source="#SM_Barnacle_07_LOD0-UV0"/>
          <p> 1 0 2 24 1 1 0 2 0 2 3 3 1 4 2 0 5 0 3 6 4 1 7 2 2 8 3 4 9 5 3 10 4 2 11 3 25 12 6 3 13 4 4 14 5 5 15 7 25 16 6 4 17 5 7 18 8 25 19 6 5 20 7 6 21 9 7 22 8 5 23 7 26 24 10 7 25 8 6 26 9 8 27 11 26 28 10 6 29 9 27 30 12 26 31 10 8 32 11 9 33 13 27 34 12 8 35 11 10 36 14 27 37 12 9 38 13 11 39 15 10 40 14 9 41 13 12 42 16 10 43 14 11 44 15 14 45 17 12 46 16 11 47 15 13 48 18 14 49 17 11 50 15 32 51 19 14 52 17 13 53 18 15 54 20 32 55 19 13 56 18 33 57 21 32 58 19 15 59 20 16 60 22 33 61 21 15 62 20 34 63 23 33 64 21 16 65 22 17 66 24 34 67 23 16 68 22 35 69 25 34 70 23 17 71 24 19 72 26 35 73 25 17 74 24 18 75 27 35 76 25 19 77 26 20 78 28 18 79 27 19 80 26 21 81 29 18 82 27 20 83 28 22 84 30 21 85 29 20 86 28 23 87 31 21 88 29 22 89 30 24 90 1 23 91 31 22 92 30 1 93 2 23 94 31 24 95 1 38 96 32 23 97 31 1 98 2 3 99 4 38 100 32 1 101 2 55 102 33 38 103 32 3 104 4 25 105 6 55 106 33 3 107 4 54 108 34 55 109 33 25 110 6 7 111 8 54 112 34 25 113 6 51 114 35 54 115 34 7 116 8 26 117 10 51 118 35 7 119 8 28 120 36 51 121 35 26 122 10 27 123 12 28 124 36 26 125 10 50 126 37 28 127 36 27 128 12 10 129 14 50 130 37 27 131 12 29 132 38 50 133 37 10 134 14 12 135 16 29 136 38 10 137 14 47 138 39 29 139 38 12 140 16 45 141 40 47 142 39 12 143 16 14 144 17 45 145 40 12 146 16 30 147 41 45 148 40 14 149 17 32 150 19 30 151 41 14 152 17 31 153 42 30 154 41 32 155 19 33 156 21 31 157 42 32 158 19 42 159 43 31 160 42 33 161 21 34 162 23 42 163 43 33 164 21 41 165 44 42 166 43 34 167 23 35 168 25 41 169 44 34 170 23 36 171 45 41 172 44 35 173 25 18 174 27 36 175 45 35 176 25 37 177 46 36 178 45 18 179 27 21 180 29 37 181 46 18 182 27 39 183 47 37 184 46 21 185 29 23 186 31 39 187 47 21 188 29 38 189 32 39 190 47 23 191 31 38 192 32 57 193 48 39 194 47 57 195 48 37 196 46 39 197 47 57 198 48 40 199 49 37 200 46 40 201 49 36 202 45 37 203 46 40 204 49 63 205 50 36 206 45 63 207 50 41 208 44 36 209 45 63 210 50 43 211 51 41 212 44 43 213 51 42 214 43 41 215 44 43 216 51 44 217 52 42 218 43 44 219 52 31 220 42 42 221 43 44 222 52 62 223 53 31 224 42 62 225 53 30 226 41 31 227 42 62 228 53 46 229 54 30 230 41 46 231 54 45 232 40 30 233 41 46 234 54 61 235 55 45 236 40 61 237 55 47 238 39 45 239 40 61 240 55 60 241 56 47 242 39 60 243 56 48 244 57 47 245 39 48 246 57 29 247 38 47 248 39 48 249 57 49 250 58 29 251 38 49 252 58 50 253 37 29 254 38 49 255 58 59 256 59 50 257 37 59 258 59 28 259 36 50 260 37 59 261 59 58 262 60 28 263 36 58 264 60 51 265 35 28 266 36 58 267 60 52 268 61 51 269 35 52 270 61 54 271 34 51 272 35 52 273 61 53 274 62 54 275 34 53 276 62 55 277 33 54 278 34 53 279 62 56 280 63 55 281 33 56 282 63 38 283 32 55 284 33 56 285 63 57 286 48 38 287 32 64 288 64 57 289 48 56 290 63 53 291 62 64 292 64 56 293 63 52 294 61 64 295 64 53 296 62 58 297 60 64 298 64 52 299 61 59 300 59 64 301 64 58 302 60 49 303 58 64 304 64 59 305 59 48 306 57 64 307 64 49 308 58 60 309 56 64 310 64 48 311 57 61 312 55 64 313 64 60 314 56 46 315 54 64 316 64 61 317 55 62 318 53 64 319 64 46 320 54 44 321 52 64 322 64 62 323 53 43 324 51 64 325 64 44 326 52 63 327 50 64 328 64 43 329 51 40 330 49 64 331 64 63 332 50 40 333 49 57 334 48 64 335 64</p>
        </triangles>
      </mesh>
    </geometry>
    <geometry id="SM_Barnacle_07_LOD1-lib" name="SM_Barnacle_07_LOD1Mesh">
      <mesh>
        <source id="SM_Barnacle_07_LOD1-POSITION">
          <float_array id="SM_Barnacle_07_LOD1-POSITION-array" count="96">
-5.717112 -6.216553 0.000002
5.785747 -7.221100 0.000002
0.152233 8.688080 -0.000000
-0.663845 -3.327271 3.495420
7.674302 1.035126 0.000001
-5.195927 7.411072 0.000000
-1.462718 -8.498047 0.000002
5.999850 5.775696 0.000000
-5.285559 -2.460602 0.404269
-5.421109 1.575012 0.217248
-1.204412 -4.816040 2.779858
-7.970881 0.805206 0.000001
4.541526 -5.383698 0.235019
2.442847 5.576599 0.411256
7.838614 -3.852295 0.000001
-0.538856 -7.453552 0.313031
-0.367221 6.342865 0.302752
-2.392638 -1.700439 2.693235
-2.207070 -4.126221 2.729591
5.860381 -0.190857 0.135631
1.851478 -7.289063 0.287012
-4.346131 -5.075653 0.394467
2.540879 -8.641754 0.000002
4.391559 3.860565 0.276937
-3.840476 4.897644 0.222661
-6.952162 5.007233 0.000000
3.191375 7.920929 0.000000
0.615550 -0.766632 2.745381
-0.635642 4.052368 1.300594
-2.438748 -6.602448 0.459409
-7.399512 -2.556549 0.000001
-0.023355 -4.814117 2.771378
</float_array>
          <technique_common>
            <accessor source="#SM_Barnacle_07_LOD1-POSITION-array" count="32" stride="3">
              <param name="X" type="float"/>
              <param name="Y" type="float"/>
              <param name="Z" type="float"/>
            </accessor>
          </technique_common>
        </source>
        <source id="SM_Barnacle_07_LOD1-Normal0">
          <float_array id="SM_Barnacle_07_LOD1-Normal0-array" count="441">
-0.396790 0.138998 0.907324
-0.064611 0.341342 0.937716
-0.153107 0.152498 0.976372
0.026798 -0.067532 0.997357
0.234110 -0.145114 0.961319
0.235735 0.012045 0.971743
-0.490814 -0.298804 0.818424
-0.366805 -0.264314 0.891960
-0.325660 -0.499686 0.802658
0.197402 0.190512 0.961633
0.235735 0.012045 0.971743
0.213687 0.109561 0.970739
-0.396790 0.138998 0.907324
-0.283733 0.080810 0.955492
-0.409319 -0.050695 0.910982
0.221497 -0.471197 0.853763
-0.027259 -0.479224 0.877269
0.140132 -0.368719 0.918917
-0.064611 0.341342 0.937716
0.197402 0.190512 0.961633
0.114289 0.212646 0.970422
-0.409319 -0.050695 0.910982
-0.283733 0.080810 0.955492
-0.164167 -0.023203 0.986160
-0.059566 -0.265667 0.962223
-0.366805 -0.264314 0.891960
-0.157820 -0.140787 0.977380
-0.153107 0.152498 0.976372
-0.025353 0.239107 0.970662
-0.055296 0.070500 0.995978
-0.084877 -0.000058 0.996391
-0.283733 0.080810 0.955492
-0.075085 0.036233 0.996519
0.026798 -0.067532 0.997357
0.221497 -0.471197 0.853763
0.234110 -0.145114 0.961319
-0.490814 -0.298804 0.818424
-0.396790 0.138998 0.907324
-0.409319 -0.050695 0.910982
-0.157820 -0.140787 0.977380
-0.409319 -0.050695 0.910982
-0.164167 -0.023203 0.986160
0.052996 -0.161495 0.985450
0.140132 -0.368719 0.918917
-0.059566 -0.265667 0.962223
0.077526 -0.012768 0.996909
0.234110 -0.145114 0.961319
0.068199 -0.081006 0.994378
0.113777 0.071612 0.990922
0.213687 0.109561 0.970739
0.084354 0.005865 0.996419
-0.025353 0.239107 0.970662
0.114289 0.212646 0.970422
0.057753 0.144367 0.987837
0.213687 0.109561 0.970739
0.235735 0.012045 0.971743
0.084354 0.005865 0.996419
0.140132 -0.368719 0.918917
-0.027259 -0.479224 0.877269
-0.059566 -0.265667 0.962223
-0.325660 -0.499686 0.802658
-0.366805 -0.264314 0.891960
-0.059566 -0.265667 0.962223
-0.055296 0.070500 0.995978
-0.025353 0.239107 0.970662
0.004144 0.127127 0.991878
-0.025353 0.239107 0.970662
0.057753 0.144367 0.987837
0.004144 0.127127 0.991878
-0.396790 0.138998 0.907324
0.197402 0.190512 0.961633
-0.064611 0.341342 0.937716
-0.490814 -0.298804 0.818424
0.026798 -0.067532 0.997357
-0.396790 0.138998 0.907324
-0.199186 -0.549142 0.811645
-0.490814 -0.298804 0.818424
-0.325660 -0.499686 0.802658
-0.199186 -0.549142 0.811645
0.026798 -0.067532 0.997357
-0.490814 -0.298804 0.818424
0.084354 0.005865 0.996419
0.235735 0.012045 0.971743
0.077526 -0.012768 0.996909
0.235735 0.012045 0.971743
0.234110 -0.145114 0.961319
0.077526 -0.012768 0.996909
0.234110 -0.145114 0.961319
0.140132 -0.368719 0.918917
0.052996 -0.161495 0.985450
0.221497 -0.471197 0.853763
0.140132 -0.368719 0.918917
0.234110 -0.145114 0.961319
-0.490814 -0.298804 0.818424
-0.409319 -0.050695 0.910982
-0.366805 -0.264314 0.891960
-0.366805 -0.264314 0.891960
-0.409319 -0.050695 0.910982
-0.157820 -0.140787 0.977380
0.068199 -0.081006 0.994378
0.234110 -0.145114 0.961319
0.052996 -0.161495 0.985450
0.114289 0.212646 0.970422
0.213687 0.109561 0.970739
0.113777 0.071612 0.990922
0.197402 0.190512 0.961633
0.213687 0.109561 0.970739
0.114289 0.212646 0.970422
-0.396790 0.138998 0.907324
-0.153107 0.152498 0.976372
-0.283733 0.080810 0.955492
-0.283733 0.080810 0.955492
-0.153107 0.152498 0.976372
-0.075085 0.036233 0.996519
-0.075085 0.036233 0.996519
-0.153107 0.152498 0.976372
-0.055296 0.070500 0.995978
0.057753 0.144367 0.987837
0.114289 0.212646 0.970422
0.113777 0.071612 0.990922
-0.396790 0.138998 0.907324
0.026798 -0.067532 0.997357
0.197402 0.190512 0.961633
0.197402 0.190512 0.961633
0.026798 -0.067532 0.997357
0.235735 0.012045 0.971743
-0.153107 0.152498 0.976372
-0.064611 0.341342 0.937716
-0.025353 0.239107 0.970662
-0.064611 0.341342 0.937716
0.114289 0.212646 0.970422
-0.025353 0.239107 0.970662
-0.027259 -0.479224 0.877269
-0.325660 -0.499686 0.802658
-0.059566 -0.265667 0.962223
-0.199186 -0.549142 0.811645
-0.325660 -0.499686 0.802658
-0.027259 -0.479224 0.877269
-0.164167 -0.023203 0.986160
-0.283733 0.080810 0.955492
-0.084877 -0.000058 0.996391
0.221497 -0.471197 0.853763
0.026798 -0.067532 0.997357
-0.199186 -0.549142 0.811645
0.221497 -0.471197 0.853763
-0.199186 -0.549142 0.811645
-0.027259 -0.479224 0.877269
</float_array>
          <technique_common>
            <accessor source="#SM_Barnacle_07_LOD1-Normal0-array" count="147" stride="3">
              <param name="X" type="float"/>
              <param name="Y" type="float"/>
              <param name="Z" type="float"/>
            </accessor>
          </technique_common>
        </source>
        <source id="SM_Barnacle_07_LOD1-UV0">
          <float_array id="SM_Barnacle_07_LOD1-UV0-array" count="64">
0.206543 0.920837
0.146973 0.882690
0.222407 0.839483
0.190338 0.890741
0.244873 0.864258
0.162464 0.842661
0.238647 0.900879
0.178736 0.914457
0.184937 0.829712
0.228373 0.888457
0.167669 0.854205
0.158571 0.879881
0.188500 0.898661
0.215611 0.904206
0.201768 0.843502
0.177368 0.906860
0.146973 0.861694
0.217917 0.850781
0.203704 0.890499
0.246216 0.880249
0.158569 0.900330
0.182739 0.894348
0.203195 0.911222
0.186987 0.843357
0.225708 0.912292
0.166016 0.897400
0.205078 0.831421
0.189193 0.910385
0.191752 0.875706
0.230591 0.869385
0.195557 0.899597
0.212335 0.860968
</float_array>
          <technique_common>
            <accessor source="#SM_Barnacle_07_LOD1-UV0-array" count="32" stride="2">
              <param name="S" type="float"/>
              <param name="T" type="float"/>
            </accessor>
          </technique_common>
        </source>
        <vertices id="SM_Barnacle_07_LOD1-VERTEX">
          <input semantic="POSITION" source="#SM_Barnacle_07_LOD1-POSITION"/>
        </vertices>
        <triangles count="49" material="MAT_Sea_Shells">
          <input semantic="VERTEX" offset="0" source="#SM_Barnacle_07_LOD1-VERTEX"/>
          <input semantic="NORMAL" offset="1" source="#SM_Barnacle_07_LOD1-Normal0"/>
          <input semantic="TEXCOORD" offset="2" set="0" source="#SM_Barnacle_07_LOD1-UV0"/>
          <p> 17 0 18 28 1 31 24 2 29 3 3 3 12 4 11 19 5 10 18 6 30 21 7 22 29 8 27 27 9 28 19 10 10 23 11 23 17 12 18 9 13 9 8 14 13 31 15 21 15 16 15 20 17 25 28 18 31 27 19 28 13 20 14 8 21 13 9 22 9 30 23 24 6 24 7 21 25 22 0 26 0 24 27 29 16 28 17 5 29 4 11 30 6 9 31 9 25 32 19 3 33 3 31 34 21 12 35 11 18 36 30 17 37 18 8 38 13 0 39 0 8 40 13 30 41 24 22 42 20 20 43 25 6 44 7 14 45 16 12 46 11 1 47 1 7 48 8 23 49 23 4 50 5 16 51 17 13 52 14 26 53 26 23 54 23 19 55 10 4 56 5 20 57 25 15 58 15 6 59 7 29 60 27 21 61 22 6 62 7 5 63 4 16 64 17 2 65 2 16 66 17 26 67 26 2 68 2 17 69 18 27 70 28 28 71 31 18 72 30 3 73 3 17 74 18 10 75 12 18 76 30 29 77 27 10 78 12 3 79 3 18 80 30 4 81 5 19 82 10 14 83 16 19 84 10 12 85 11 14 86 16 12 87 11 20 88 25 22 89 20 31 90 21 20 91 25 12 92 11 18 93 30 8 94 13 21 95 22 21 96 22 8 97 13 0 98 0 1 99 1 12 100 11 22 101 20 13 102 14 23 103 23 7 104 8 27 105 28 23 106 23 13 107 14 17 108 18 24 109 29 9 110 9 9 111 9 24 112 29 25 113 19 25 114 19 24 115 29 5 116 4 26 117 26 13 118 14 7 119 8 17 120 18 3 121 3 27 122 28 27 123 28 3 124 3 19 125 10 24 126 29 28 127 31 16 128 17 28 129 31 13 130 14 16 131 17 15 132 15 29 133 27 6 134 7 10 135 12 29 136 27 15 137 15 30 138 24 9 139 9 11 140 6 31 141 21 3 142 3 10 143 12 31 144 21 10 145 12 15 146 15</p>
        </triangles>
      </mesh>
    </geometry>
  </library_geometries>
  <library_visual_scenes>
    <visual_scene id="SM_Barnacle_07" name="SM_Barnacle_07">
      <node name="SM_Barnacle_07_LOD0" id="SM_Barnacle_07_LOD0" layer="shells" sid="SM_Barnacle_07_LOD0">
        <matrix sid="matrix">1.000000 0.000000 0.000000 0.000000 0.000000 0.000000 1.000000 0.000000 0.000000 -1.000000 0.000000 0.000000 0.000000 0.000000 0.000000 1.000000</matrix>
        <instance_geometry url="#SM_Barnacle_07_LOD0-lib">
          <bind_material>
            <technique_common>
              <instance_material symbol="MAT_Sea_Shells" target="#MAT_Sea_Shells"/>
            </technique_common>
          </bind_material>
        </instance_geometry>
        <extra>
          <technique profile="FCOLLADA">
            <visibility>1.000000</visibility>
          </technique>
        </extra>
      </node>
      <node name="SM_Barnacle_07_LOD1" id="SM_Barnacle_07_LOD1" layer="shells" sid="SM_Barnacle_07_LOD1">
        <matrix sid="matrix">1.000000 0.000000 0.000000 0.000000 0.000000 0.000000 1.000000 0.000000 0.000000 -1.000000 0.000000 0.000000 0.000000 0.000000 0.000000 1.000000</matrix>
        <instance_geometry url="#SM_Barnacle_07_LOD1-lib">
          <bind_material>
            <technique_common>
              <instance_material symbol="MAT_Sea_Shells" target="#MAT_Sea_Shells"/>
            </technique_common>
          </bind_material>
        </instance_geometry>
        <extra>
          <technique profile="FCOLLADA">
            <visibility>1.000000</visibility>
          </technique>
        </extra>
      </node>
      <extra>
        <technique profile="MAX3D">
          <frame_rate>30.000000</frame_rate>
        </technique>
        <technique profile="FCOLLADA">
          <start_time>0.000000</start_time>
          <end_time>3.333333</end_time>
        </technique>
      </extra>
    </visual_scene>
  </library_visual_scenes>
  <scene>
    <instance_visual_scene url="#SM_Barnacle_07"/>
  </scene>
</COLLADA>
