<?xml version="1.0" encoding="utf-8"?>
<COLLADA xmlns="http://www.collada.org/2005/11/COLLADASchema" version="1.4.1">
  <asset>
    <contributor>
      <author/>
      <authoring_tool>FBX COLLADA exporter</authoring_tool>
      <comments/>
    </contributor>
    <created>2024-02-10T11:42:32Z</created>
    <keywords/>
    <modified>2024-02-10T11:42:32Z</modified>
    <revision/>
    <subject/>
    <title/>
    <unit meter="0.010000" name="centimeter"/>
    <up_axis>Y_UP</up_axis>
  </asset>
  <library_materials>
    <material id="MAT_Sea_Shells" name="MAT_Sea_Shells">
      <instance_effect url="#MAT_Sea_Shells-fx"/>
    </material>
  </library_materials>
  <library_effects>
    <effect id="MAT_Sea_Shells-fx" name="MAT_Sea_Shells">
      <profile_COMMON>
        <technique sid="standard">
          <phong>
            <emission>
              <color sid="emission">0.000000  0.000000 0.000000 1.000000</color>
            </emission>
            <ambient>
              <color sid="ambient">0.588235  0.588235 0.588235 1.000000</color>
            </ambient>
            <diffuse>
              <color sid="diffuse">0.588235  0.588235 0.588235 1.000000</color>
            </diffuse>
            <specular>
              <color sid="specular">0.000000  0.000000 0.000000 1.000000</color>
            </specular>
            <shininess>
              <float sid="shininess">2.000000</float>
            </shininess>
            <reflective>
              <color sid="reflective">0.000000  0.000000 0.000000 1.000000</color>
            </reflective>
            <reflectivity>
              <float sid="reflectivity">1.000000</float>
            </reflectivity>
            <transparent opaque="RGB_ZERO">
              <color sid="transparent">1.000000  1.000000 1.000000 1.000000</color>
            </transparent>
            <transparency>
              <float sid="transparency">0.000000</float>
            </transparency>
          </phong>
        </technique>
      </profile_COMMON>
    </effect>
  </library_effects>
  <library_geometries>
    <geometry id="SM_Barnacle_08_LOD0-lib" name="SM_Barnacle_08_LOD0Mesh">
      <mesh>
        <source id="SM_Barnacle_08_LOD0-POSITION">
          <float_array id="SM_Barnacle_08_LOD0-POSITION-array" count="243">
3.612209 -0.018066 0.000001
3.228348 -1.499786 0.000001
3.266933 1.467743 0.000001
2.373695 2.871338 0.000000
2.156807 2.352753 0.147418
1.122421 3.517059 0.000001
-0.173046 3.999298 0.000001
-1.503487 3.829620 0.000001
-2.168591 2.547577 0.147418
-2.698479 3.048340 0.000001
-3.425873 1.780151 0.000001
-3.612213 0.137451 0.000001
-3.422825 -1.414581 0.000001
-2.835117 -2.835388 0.000001
-2.811550 -1.207642 0.171738
-2.272892 -2.396881 0.147418
-1.683815 -3.867767 0.000001
-0.265438 -3.999298 0.000001
1.036381 -3.568237 0.000001
-0.103012 -3.388824 0.111309
2.230289 -2.785919 0.000001
2.053028 -2.377960 0.147419
2.895950 -1.284271 0.171699
3.212543 -0.020599 0.181572
2.961636 -0.048615 0.696168
2.927929 1.247406 0.171738
2.728146 1.054474 0.674064
2.075478 2.001892 0.613129
1.084976 3.006836 0.122066
0.182236 2.857574 0.522643
-0.025505 3.389465 0.111309
-1.158710 3.228394 0.122066
-1.623634 2.090088 0.613130
-2.805092 1.465424 0.171738
-2.192013 1.168243 0.674070
-2.987873 0.101715 0.181572
-2.387051 0.069458 0.698713
-2.212421 -1.021332 0.674070
-1.692188 -1.995941 0.613130
-1.291290 -3.240967 0.122067
1.010269 -3.048737 0.122067
2.005955 -2.027130 0.610345
2.180882 -0.448669 1.737863
1.848198 0.461914 1.719308
1.136623 2.579315 0.549597
1.057751 0.904938 1.700476
-0.779697 2.693390 0.549596
0.007595 -0.280579 1.752330
-0.857296 -2.654083 0.549597
0.326794 -1.144379 1.717491
0.118534 -2.838867 0.522643
0.672203 -1.417175 1.694414
1.082264 -1.532288 1.683445
1.070885 -2.594849 0.549524
2.716400 -1.123596 0.669168
2.100300 -0.896606 1.728423
1.861061 -1.254333 1.708823
1.497288 -1.476013 1.689856
0.093224 -0.747406 1.740672
1.351921 -0.651581 2.010435
0.083229 0.187195 1.747466
0.308315 0.581879 1.729987
0.648483 0.836945 1.710555
1.477020 0.771729 1.704786
2.094891 0.030090 1.733554
2.611958 -0.220032 1.266522
2.430931 0.581665 1.289276
1.951511 1.359497 1.236367
1.270805 1.839081 1.194860
0.574612 2.045929 1.167512
-0.116806 1.924347 1.182499
-0.718651 1.494995 1.228868
-1.130943 0.838409 1.281021
-1.289009 0.049530 1.314798
-1.191620 -0.505096 1.299241
-0.876236 -1.229675 1.250843
-0.328709 -1.766815 1.198274
0.351273 -2.027008 1.175472
1.063316 -2.014069 1.183123
1.959816 -1.627655 1.218332
2.446190 -0.992706 1.278569
</float_array>
          <technique_common>
            <accessor source="#SM_Barnacle_08_LOD0-POSITION-array" count="81" stride="3">
              <param name="X" type="float"/>
              <param name="Y" type="float"/>
              <param name="Z" type="float"/>
            </accessor>
          </technique_common>
        </source>
        <source id="SM_Barnacle_08_LOD0-Normal0">
          <float_array id="SM_Barnacle_08_LOD0-Normal0-array" count="1296">
0.669905 -0.005918 0.742423
0.356813 -0.181872 0.916301
0.413643 -0.004303 0.910429
0.362516 0.160091 0.918125
0.669905 -0.005918 0.742423
0.413643 -0.004303 0.910429
0.593216 0.268566 0.758925
0.669905 -0.005918 0.742423
0.362516 0.160091 0.918125
0.167193 0.211691 0.962930
0.593216 0.268566 0.758925
0.362516 0.160091 0.918125
0.354718 0.415306 0.837673
0.593216 0.268566 0.758925
0.167193 0.211691 0.962930
0.186829 0.460992 0.867514
0.354718 0.415306 0.837673
0.167193 0.211691 0.962930
0.087609 0.220853 0.971364
0.186829 0.460992 0.867514
0.167193 0.211691 0.962930
0.034712 0.386357 0.921696
0.186829 0.460992 0.867514
0.087609 0.220853 0.971364
0.015546 0.185601 0.982502
0.034712 0.386357 0.921696
0.087609 0.220853 0.971364
-0.115584 0.332450 0.936011
0.034712 0.386357 0.921696
0.015546 0.185601 0.982502
-0.061193 0.171417 0.983296
-0.115584 0.332450 0.936011
0.015546 0.185601 0.982502
-0.249269 0.259523 0.933013
-0.115584 0.332450 0.936011
-0.061193 0.171417 0.983296
-0.144768 0.144316 0.978885
-0.249269 0.259523 0.933013
-0.061193 0.171417 0.983296
-0.383871 0.141489 0.912482
-0.249269 0.259523 0.933013
-0.144768 0.144316 0.978885
-0.228398 0.078995 0.970358
-0.383871 0.141489 0.912482
-0.144768 0.144316 0.978885
-0.275275 0.004110 0.961357
-0.383871 0.141489 0.912482
-0.228398 0.078995 0.970358
-0.461274 0.002345 0.887255
-0.383871 0.141489 0.912482
-0.275275 0.004110 0.961357
-0.250734 -0.070446 0.965490
-0.461274 0.002345 0.887255
-0.275275 0.004110 0.961357
-0.415543 -0.128960 0.900385
-0.461274 0.002345 0.887255
-0.250734 -0.070446 0.965490
-0.166467 -0.127529 0.977765
-0.415543 -0.128960 0.900385
-0.250734 -0.070446 0.965490
-0.281219 -0.234286 0.930605
-0.415543 -0.128960 0.900385
-0.166467 -0.127529 0.977765
-0.066828 -0.158994 0.985015
-0.281219 -0.234286 0.930605
-0.166467 -0.127529 0.977765
-0.115890 -0.302010 0.946234
-0.281219 -0.234286 0.930605
-0.066828 -0.158994 0.985015
0.014701 -0.184340 0.982753
-0.115890 -0.302010 0.946234
-0.066828 -0.158994 0.985015
0.027849 -0.379004 0.924976
-0.115890 -0.302010 0.946234
0.014701 -0.184340 0.982753
0.091290 -0.218488 0.971560
0.027849 -0.379004 0.924976
0.014701 -0.184340 0.982753
0.184922 -0.448497 0.874445
0.027849 -0.379004 0.924976
0.091290 -0.218488 0.971560
0.200678 -0.250721 0.947031
0.184922 -0.448497 0.874445
0.091290 -0.218488 0.971560
0.373737 -0.452497 0.809671
0.184922 -0.448497 0.874445
0.200678 -0.250721 0.947031
0.595739 -0.300273 0.744937
0.373737 -0.452497 0.809671
0.200678 -0.250721 0.947031
0.356813 -0.181872 0.916301
0.595739 -0.300273 0.744937
0.200678 -0.250721 0.947031
0.669905 -0.005918 0.742423
0.595739 -0.300273 0.744937
0.356813 -0.181872 0.916301
0.881503 0.001156 0.472177
0.595739 -0.300273 0.744937
0.669905 -0.005918 0.742423
0.593216 0.268566 0.758925
0.881503 0.001156 0.472177
0.669905 -0.005918 0.742423
0.771199 0.353287 0.529567
0.881503 0.001156 0.472177
0.593216 0.268566 0.758925
0.535334 0.588130 0.606235
0.771199 0.353287 0.529567
0.593216 0.268566 0.758925
0.354718 0.415306 0.837673
0.535334 0.588130 0.606235
0.593216 0.268566 0.758925
0.281083 0.676929 0.680265
0.535334 0.588130 0.606235
0.354718 0.415306 0.837673
0.186829 0.460992 0.867514
0.281083 0.676929 0.680265
0.354718 0.415306 0.837673
0.055834 0.634903 0.770572
0.281083 0.676929 0.680265
0.186829 0.460992 0.867514
0.034712 0.386357 0.921696
0.055834 0.634903 0.770572
0.186829 0.460992 0.867514
-0.178929 0.531895 0.827691
0.055834 0.634903 0.770572
0.034712 0.386357 0.921696
-0.115584 0.332450 0.936011
-0.178929 0.531895 0.827691
0.034712 0.386357 0.921696
-0.354698 0.394301 0.847771
-0.178929 0.531895 0.827691
-0.115584 0.332450 0.936011
-0.249269 0.259523 0.933013
-0.354698 0.394301 0.847771
-0.115584 0.332450 0.936011
-0.496743 0.214573 0.840955
-0.354698 0.394301 0.847771
-0.249269 0.259523 0.933013
-0.383871 0.141489 0.912482
-0.496743 0.214573 0.840955
-0.249269 0.259523 0.933013
-0.569175 0.002926 0.822212
-0.496743 0.214573 0.840955
-0.383871 0.141489 0.912482
-0.461274 0.002345 0.887255
-0.569175 0.002926 0.822212
-0.383871 0.141489 0.912482
-0.415543 -0.128960 0.900385
-0.569175 0.002926 0.822212
-0.461274 0.002345 0.887255
-0.519331 -0.195959 0.831803
-0.569175 0.002926 0.822212
-0.415543 -0.128960 0.900385
-0.281219 -0.234286 0.930605
-0.519331 -0.195959 0.831803
-0.415543 -0.128960 0.900385
-0.376945 -0.361552 0.852756
-0.519331 -0.195959 0.831803
-0.281219 -0.234286 0.930605
-0.115890 -0.302010 0.946234
-0.376945 -0.361552 0.852756
-0.281219 -0.234286 0.930605
-0.186750 -0.501065 0.845020
-0.376945 -0.361552 0.852756
-0.115890 -0.302010 0.946234
0.027849 -0.379004 0.924976
-0.186750 -0.501065 0.845020
-0.115890 -0.302010 0.946234
0.023308 -0.624682 0.780532
-0.186750 -0.501065 0.845020
0.027849 -0.379004 0.924976
0.184922 -0.448497 0.874445
0.023308 -0.624682 0.780532
0.027849 -0.379004 0.924976
0.258778 -0.696047 0.669740
0.023308 -0.624682 0.780532
0.184922 -0.448497 0.874445
0.373737 -0.452497 0.809671
0.258778 -0.696047 0.669740
0.184922 -0.448497 0.874445
0.541346 -0.651862 0.531056
0.258778 -0.696047 0.669740
0.373737 -0.452497 0.809671
0.595739 -0.300273 0.744937
0.541346 -0.651862 0.531056
0.373737 -0.452497 0.809671
0.810624 -0.392021 0.434981
0.541346 -0.651862 0.531056
0.595739 -0.300273 0.744937
0.881503 0.001156 0.472177
0.810624 -0.392021 0.434981
0.595739 -0.300273 0.744937
0.552127 -0.270125 0.788789
0.767704 -0.364241 0.527218
0.567822 -0.020014 0.822908
0.567822 -0.020014 0.822908
0.767704 -0.364241 0.527218
0.810436 -0.008385 0.585767
0.881503 0.001156 0.472177
0.678687 0.287054 0.676006
0.810436 -0.008385 0.585767
0.678687 0.287054 0.676006
0.881503 0.001156 0.472177
0.771199 0.353287 0.529567
0.810436 -0.008385 0.585767
0.473987 0.174361 0.863096
0.567822 -0.020014 0.822908
0.473987 0.174361 0.863096
0.810436 -0.008385 0.585767
0.678687 0.287054 0.676006
0.678687 0.287054 0.676006
0.771199 0.353287 0.529567
0.460752 0.482896 0.744661
0.460752 0.482896 0.744661
0.771199 0.353287 0.529567
0.535334 0.588130 0.606235
0.535334 0.588130 0.606235
0.239998 0.562532 0.791176
0.460752 0.482896 0.744661
0.239998 0.562532 0.791176
0.535334 0.588130 0.606235
0.281083 0.676929 0.680265
0.045333 0.552296 0.832415
0.037175 0.337463 0.940605
0.239998 0.562532 0.791176
0.037175 0.337463 0.940605
0.167213 0.343639 0.924095
0.239998 0.562532 0.791176
0.045333 0.552296 0.832415
0.281083 0.676929 0.680265
0.055834 0.634903 0.770572
0.281083 0.676929 0.680265
0.045333 0.552296 0.832415
0.239998 0.562532 0.791176
0.037175 0.337463 0.940605
0.045333 0.552296 0.832415
-0.076858 0.290953 0.953645
-0.144778 0.465304 0.873230
-0.076858 0.290953 0.953645
0.045333 0.552296 0.832415
-0.144778 0.465304 0.873230
0.055834 0.634903 0.770572
-0.178929 0.531895 0.827691
0.055834 0.634903 0.770572
-0.144778 0.465304 0.873230
0.045333 0.552296 0.832415
-0.076858 0.290953 0.953645
-0.144778 0.465304 0.873230
-0.162457 0.216333 0.962709
-0.278713 0.340614 0.897942
-0.162457 0.216333 0.962709
-0.144778 0.465304 0.873230
-0.278713 0.340614 0.897942
-0.178929 0.531895 0.827691
-0.354698 0.394301 0.847771
-0.178929 0.531895 0.827691
-0.278713 0.340614 0.897942
-0.144778 0.465304 0.873230
-0.354698 0.394301 0.847771
-0.367325 0.190069 0.910465
-0.278713 0.340614 0.897942
-0.367325 0.190069 0.910465
-0.354698 0.394301 0.847771
-0.496743 0.214573 0.840955
-0.224309 0.119086 0.967215
-0.411787 0.010153 0.911223
-0.268292 -0.026858 0.962963
-0.411787 0.010153 0.911223
-0.224309 0.119086 0.967215
-0.367325 0.190069 0.910465
-0.496743 0.214573 0.840955
-0.411787 0.010153 0.911223
-0.367325 0.190069 0.910465
-0.411787 0.010153 0.911223
-0.496743 0.214573 0.840955
-0.569175 0.002926 0.822212
-0.569175 0.002926 0.822212
-0.404060 -0.149900 0.902367
-0.411787 0.010153 0.911223
-0.404060 -0.149900 0.902367
-0.569175 0.002926 0.822212
-0.519331 -0.195959 0.831803
-0.519331 -0.195959 0.831803
-0.376945 -0.361552 0.852756
-0.351836 -0.296747 0.887780
-0.519331 -0.195959 0.831803
-0.351836 -0.296747 0.887780
-0.404060 -0.149900 0.902367
-0.245326 -0.462117 0.852211
-0.276614 -0.184460 0.943112
-0.351836 -0.296747 0.887780
-0.276614 -0.184460 0.943112
-0.245326 -0.462117 0.852211
-0.233446 -0.331710 0.914041
-0.245326 -0.462117 0.852211
-0.376945 -0.361552 0.852756
-0.186750 -0.501065 0.845020
-0.376945 -0.361552 0.852756
-0.245326 -0.462117 0.852211
-0.351836 -0.296747 0.887780
-0.233446 -0.331710 0.914041
-0.079767 -0.612796 0.786205
-0.133465 -0.468194 0.873488
-0.079767 -0.612796 0.786205
-0.233446 -0.331710 0.914041
-0.245326 -0.462117 0.852211
-0.245326 -0.462117 0.852211
0.023308 -0.624682 0.780532
-0.079767 -0.612796 0.786205
0.023308 -0.624682 0.780532
-0.245326 -0.462117 0.852211
-0.186750 -0.501065 0.845020
-0.133465 -0.468194 0.873488
0.160007 -0.716554 0.678932
-0.003704 -0.551761 0.833994
0.160007 -0.716554 0.678932
-0.133465 -0.468194 0.873488
-0.079767 -0.612796 0.786205
-0.079767 -0.612796 0.786205
0.258778 -0.696047 0.669740
0.160007 -0.716554 0.678932
0.258778 -0.696047 0.669740
-0.079767 -0.612796 0.786205
0.023308 -0.624682 0.780532
0.195772 -0.589980 0.783324
-0.003704 -0.551761 0.833994
0.160007 -0.716554 0.678932
0.160007 -0.716554 0.678932
0.541346 -0.651862 0.531056
0.523580 -0.659487 0.539390
0.541346 -0.651862 0.531056
0.160007 -0.716554 0.678932
0.258778 -0.696047 0.669740
0.195772 -0.589980 0.783324
0.160007 -0.716554 0.678932
0.523580 -0.659487 0.539390
0.195772 -0.589980 0.783324
0.523580 -0.659487 0.539390
0.404852 -0.492128 0.770652
0.523580 -0.659487 0.539390
0.810624 -0.392021 0.434981
0.767704 -0.364241 0.527218
0.810624 -0.392021 0.434981
0.523580 -0.659487 0.539390
0.541346 -0.651862 0.531056
0.767704 -0.364241 0.527218
0.552127 -0.270125 0.788789
0.404852 -0.492128 0.770652
0.404852 -0.492128 0.770652
0.523580 -0.659487 0.539390
0.767704 -0.364241 0.527218
0.061726 -0.078763 0.994981
0.552127 -0.270125 0.788789
0.567822 -0.020014 0.822908
0.061726 -0.078763 0.994981
0.404852 -0.492128 0.770652
0.552127 -0.270125 0.788789
0.061726 -0.078763 0.994981
0.195772 -0.589980 0.783324
0.404852 -0.492128 0.770652
0.061726 -0.078763 0.994981
-0.003704 -0.551761 0.833994
0.195772 -0.589980 0.783324
0.061726 -0.078763 0.994981
-0.133465 -0.468194 0.873488
-0.003704 -0.551761 0.833994
0.061726 -0.078763 0.994981
-0.233446 -0.331710 0.914041
-0.133465 -0.468194 0.873488
0.061726 -0.078763 0.994981
-0.276614 -0.184460 0.943112
-0.233446 -0.331710 0.914041
0.061726 -0.078763 0.994981
-0.268292 -0.026858 0.962963
-0.276614 -0.184460 0.943112
0.061726 -0.078763 0.994981
-0.224309 0.119086 0.967215
-0.268292 -0.026858 0.962963
0.061726 -0.078763 0.994981
-0.162457 0.216333 0.962709
-0.224309 0.119086 0.967215
0.061726 -0.078763 0.994981
-0.076858 0.290953 0.953645
-0.162457 0.216333 0.962709
0.061726 -0.078763 0.994981
0.037175 0.337463 0.940605
-0.076858 0.290953 0.953645
0.061726 -0.078763 0.994981
0.167213 0.343639 0.924095
0.037175 0.337463 0.940605
0.061726 -0.078763 0.994981
0.320908 0.297253 0.899254
0.167213 0.343639 0.924095
0.061726 -0.078763 0.994981
0.473987 0.174361 0.863096
0.320908 0.297253 0.899254
0.567822 -0.020014 0.822908
0.473987 0.174361 0.863096
0.061726 -0.078763 0.994981
0.810624 -0.392021 0.434981
0.810436 -0.008385 0.585767
0.767704 -0.364241 0.527218
0.810436 -0.008385 0.585767
0.810624 -0.392021 0.434981
0.881503 0.001156 0.472177
0.473987 0.174361 0.863096
0.678687 0.287054 0.676006
0.320908 0.297253 0.899254
0.320908 0.297253 0.899254
0.678687 0.287054 0.676006
0.460752 0.482896 0.744661
0.460752 0.482896 0.744661
0.167213 0.343639 0.924095
0.320908 0.297253 0.899254
0.460752 0.482896 0.744661
0.239998 0.562532 0.791176
0.167213 0.343639 0.924095
-0.162457 0.216333 0.962709
-0.367325 0.190069 0.910465
-0.224309 0.119086 0.967215
-0.367325 0.190069 0.910465
-0.162457 0.216333 0.962709
-0.278713 0.340614 0.897942
-0.404060 -0.149900 0.902367
-0.268292 -0.026858 0.962963
-0.411787 0.010153 0.911223
-0.404060 -0.149900 0.902367
-0.276614 -0.184460 0.943112
-0.268292 -0.026858 0.962963
-0.404060 -0.149900 0.902367
-0.351836 -0.296747 0.887780
-0.276614 -0.184460 0.943112
</float_array>
          <technique_common>
            <accessor source="#SM_Barnacle_08_LOD0-Normal0-array" count="432" stride="3">
              <param name="X" type="float"/>
              <param name="Y" type="float"/>
              <param name="Z" type="float"/>
            </accessor>
          </technique_common>
        </source>
        <source id="SM_Barnacle_08_LOD0-UV0">
          <float_array id="SM_Barnacle_08_LOD0-UV0-array" count="162">
0.162321 0.368661
0.146720 0.369904
0.161841 0.371898
0.176724 0.373907
0.174152 0.376610
0.188409 0.385280
0.183481 0.386172
0.187820 0.397329
0.192257 0.397973
0.189131 0.408146
0.194025 0.410471
0.185896 0.418130
0.190531 0.421866
0.178494 0.426367
0.182227 0.431434
0.168076 0.431005
0.170256 0.436685
0.155243 0.436910
0.155535 0.431414
0.141343 0.433431
0.143835 0.428356
0.129424 0.426375
0.133791 0.422018
0.121521 0.415233
0.127159 0.412332
0.121082 0.402700
0.126368 0.401396
0.125087 0.390828
0.129663 0.390988
0.132824 0.379243
0.136500 0.380928
0.148401 0.373159
0.160991 0.376499
0.170881 0.380128
0.178692 0.387416
0.182793 0.396522
0.183848 0.405419
0.181030 0.413734
0.174606 0.420419
0.165838 0.424310
0.155997 0.424866
0.146600 0.422259
0.138498 0.416728
0.133292 0.408762
0.132217 0.399811
0.134914 0.391169
0.140975 0.382889
0.150461 0.377295
0.155846 0.385558
0.160370 0.387501
0.163556 0.389706
0.165708 0.392842
0.166375 0.396293
0.165432 0.399515
0.163043 0.402018
0.159633 0.403457
0.155776 0.403611
0.152105 0.402429
0.149176 0.400117
0.147410 0.397042
0.146160 0.392880
0.147209 0.389775
0.149360 0.387297
0.152355 0.385875
0.153823 0.392118
0.159014 0.381667
0.165506 0.384212
0.171581 0.388804
0.174879 0.395122
0.175842 0.401227
0.174045 0.406918
0.169747 0.411499
0.163768 0.414213
0.156992 0.414649
0.152409 0.413331
0.146537 0.410038
0.142425 0.404836
0.140830 0.398724
0.141689 0.392613
0.145286 0.384744
0.152251 0.382325
</float_array>
          <technique_common>
            <accessor source="#SM_Barnacle_08_LOD0-UV0-array" count="81" stride="2">
              <param name="S" type="float"/>
              <param name="T" type="float"/>
            </accessor>
          </technique_common>
        </source>
        <vertices id="SM_Barnacle_08_LOD0-VERTEX">
          <input semantic="POSITION" source="#SM_Barnacle_08_LOD0-POSITION"/>
        </vertices>
        <triangles count="144" material="MAT_Sea_Shells">
          <input semantic="VERTEX" offset="0" source="#SM_Barnacle_08_LOD0-VERTEX"/>
          <input semantic="NORMAL" offset="1" source="#SM_Barnacle_08_LOD0-Normal0"/>
          <input semantic="TEXCOORD" offset="2" set="0" source="#SM_Barnacle_08_LOD0-UV0"/>
          <p> 23 0 2 1 1 1 0 2 0 2 3 3 23 4 2 0 5 0 25 6 4 23 7 2 2 8 3 3 9 5 25 10 4 2 11 3 4 12 6 25 13 4 3 14 5 28 15 7 4 16 6 3 17 5 5 18 8 28 19 7 3 20 5 30 21 9 28 22 7 5 23 8 6 24 10 30 25 9 5 26 8 31 27 11 30 28 9 6 29 10 7 30 12 31 31 11 6 32 10 8 33 13 31 34 11 7 35 12 9 36 14 8 37 13 7 38 12 33 39 15 8 40 13 9 41 14 10 42 16 33 43 15 9 44 14 11 45 17 33 46 15 10 47 16 35 48 18 33 49 15 11 50 17 12 51 19 35 52 18 11 53 17 14 54 20 35 55 18 12 56 19 13 57 21 14 58 20 12 59 19 15 60 22 14 61 20 13 62 21 16 63 23 15 64 22 13 65 21 39 66 24 15 67 22 16 68 23 17 69 25 39 70 24 16 71 23 19 72 26 39 73 24 17 74 25 18 75 27 19 76 26 17 77 25 40 78 28 19 79 26 18 80 27 20 81 29 40 82 28 18 83 27 21 84 30 40 85 28 20 86 29 22 87 31 21 88 30 20 89 29 1 90 1 22 91 31 20 92 29 23 93 2 22 94 31 1 95 1 24 96 32 22 97 31 23 98 2 25 99 4 24 100 32 23 101 2 26 102 33 24 103 32 25 104 4 27 105 34 26 106 33 25 107 4 4 108 6 27 109 34 25 110 4 44 111 35 27 112 34 4 113 6 28 114 7 44 115 35 4 116 6 29 117 36 44 118 35 28 119 7 30 120 9 29 121 36 28 122 7 46 123 37 29 124 36 30 125 9 31 126 11 46 127 37 30 128 9 32 129 38 46 130 37 31 131 11 8 132 13 32 133 38 31 134 11 34 135 39 32 136 38 8 137 13 33 138 15 34 139 39 8 140 13 36 141 40 34 142 39 33 143 15 35 144 18 36 145 40 33 146 15 14 147 20 36 148 40 35 149 18 37 150 41 36 151 40 14 152 20 15 153 22 37 154 41 14 155 20 38 156 42 37 157 41 15 158 22 39 159 24 38 160 42 15 161 22 48 162 43 38 163 42 39 164 24 19 165 26 48 166 43 39 167 24 50 168 44 48 169 43 19 170 26 40 171 28 50 172 44 19 173 26 53 174 45 50 175 44 40 176 28 21 177 30 53 178 45 40 179 28 41 180 46 53 181 45 21 182 30 22 183 31 41 184 46 21 185 30 54 186 47 41 187 46 22 188 31 24 189 32 54 190 47 22 191 31 55 192 63 80 193 80 42 194 48 42 195 48 80 196 80 65 197 65 24 198 32 66 199 66 65 200 65 66 201 66 24 202 32 26 203 33 65 204 65 64 205 49 42 206 48 64 207 49 65 208 65 66 209 66 66 210 66 26 211 33 67 212 67 67 213 67 26 214 33 27 215 34 27 216 34 68 217 68 67 218 67 68 219 68 27 220 34 44 221 35 69 222 69 45 223 52 68 224 68 45 225 52 63 226 51 68 227 68 69 228 69 44 229 35 29 230 36 44 231 35 69 232 69 68 233 68 45 234 52 69 235 69 62 236 53 70 237 70 62 238 53 69 239 69 70 240 70 29 241 36 46 242 37 29 243 36 70 244 70 69 245 69 62 246 53 70 247 70 61 248 54 71 249 71 61 250 54 70 251 70 71 252 71 46 253 37 32 254 38 46 255 37 71 256 71 70 257 70 32 258 38 72 259 72 71 260 71 72 261 72 32 262 38 34 263 39 60 264 55 73 265 73 47 266 56 73 267 73 60 268 55 72 269 72 34 270 39 73 271 73 72 272 72 73 273 73 34 274 39 36 275 40 36 276 40 74 277 74 73 278 73 74 279 74 36 280 40 37 281 41 37 282 41 38 283 42 75 284 75 37 285 41 75 286 75 74 287 74 76 288 76 58 289 57 75 290 75 58 291 57 76 292 76 49 293 58 76 294 76 38 295 42 48 296 43 38 297 42 76 298 76 75 299 75 49 300 58 77 301 77 51 302 59 77 303 77 49 304 58 76 305 76 76 306 76 50 307 44 77 308 77 50 309 44 76 310 76 48 311 43 51 312 59 78 313 78 52 314 60 78 315 78 51 316 59 77 317 77 77 318 77 53 319 45 78 320 78 53 321 45 77 322 77 50 323 44 57 324 61 52 325 60 78 326 78 78 327 78 41 328 46 79 329 79 41 330 46 78 331 78 53 332 45 57 333 61 78 334 78 79 335 79 57 336 61 79 337 79 56 338 62 79 339 79 54 340 47 80 341 80 54 342 47 79 343 79 41 344 46 80 345 80 55 346 63 56 347 62 56 348 62 79 349 79 80 350 80 59 351 64 55 352 63 42 353 48 59 354 64 56 355 62 55 356 63 59 357 64 57 358 61 56 359 62 59 360 64 52 361 60 57 362 61 59 363 64 51 364 59 52 365 60 59 366 64 49 367 58 51 368 59 59 369 64 58 370 57 49 371 58 59 372 64 47 373 56 58 374 57 59 375 64 60 376 55 47 377 56 59 378 64 61 379 54 60 380 55 59 381 64 62 382 53 61 383 54 59 384 64 45 385 52 62 386 53 59 387 64 63 388 51 45 389 52 59 390 64 43 391 50 63 392 51 59 393 64 64 394 49 43 395 50 42 396 48 64 397 49 59 398 64 54 399 47 65 400 65 80 401 80 65 402 65 54 403 47 24 404 32 64 405 49 66 406 66 43 407 50 43 408 50 66 409 66 67 410 67 67 411 67 63 412 51 43 413 50 67 414 67 68 415 68 63 416 51 61 417 54 72 418 72 60 419 55 72 420 72 61 421 54 71 422 71 74 423 74 47 424 56 73 425 73 74 426 74 58 427 57 47 428 56 74 429 74 75 430 75 58 431 57</p>
        </triangles>
      </mesh>
    </geometry>
    <geometry id="SM_Barnacle_08_LOD1-lib" name="SM_Barnacle_08_LOD1Mesh">
      <mesh>
        <source id="SM_Barnacle_08_LOD1-POSITION">
          <float_array id="SM_Barnacle_08_LOD1-POSITION-array" count="117">
1.351921 -0.651581 2.010435
-0.093159 3.969543 0.000001
0.108154 -3.875610 0.000001
3.612209 -0.018066 0.000001
-3.425873 1.780151 0.000001
3.228348 -1.499786 0.000001
1.907757 0.979370 1.440890
0.587414 -1.468994 1.636348
-3.509048 -0.707977 0.000001
1.459385 -1.523010 1.645596
-2.835117 -2.835388 0.000001
0.782085 0.786102 1.711331
-1.258701 0.200806 1.308321
2.373695 2.871338 0.000000
2.153206 2.337219 0.168039
2.160561 -0.335510 1.736845
-1.602772 2.929016 0.133214
-1.291290 -3.240967 0.122067
0.902508 1.948517 1.180392
0.528320 3.198639 0.116674
-0.030762 -0.582092 1.702501
2.167412 -0.915253 1.641138
0.301090 -3.265381 0.115214
-0.449577 1.686951 1.208137
-2.322376 -0.334503 0.689586
2.915398 1.235321 0.203249
2.053028 -2.377960 0.147419
-2.762516 1.444794 0.206621
-1.503487 3.829620 0.000001
-2.896469 -0.577057 0.176474
3.212543 -0.020599 0.181572
-1.683815 -3.867767 0.000001
2.230289 -2.785919 0.000001
2.523048 0.173706 1.277697
-2.698479 3.048340 0.000001
2.895950 -1.284271 0.171699
3.266933 1.467743 0.000001
-2.259514 -2.387634 0.158148
1.866119 -1.273468 1.683703
</float_array>
          <technique_common>
            <accessor source="#SM_Barnacle_08_LOD1-POSITION-array" count="39" stride="3">
              <param name="X" type="float"/>
              <param name="Y" type="float"/>
              <param name="Z" type="float"/>
            </accessor>
          </technique_common>
        </source>
        <source id="SM_Barnacle_08_LOD1-Normal0">
          <float_array id="SM_Barnacle_08_LOD1-Normal0-array" count="567">
0.418606 0.415468 0.807561
0.754050 0.159483 0.637161
0.567153 0.258442 0.782014
-0.550160 -0.086620 0.830555
-0.262647 -0.202536 0.943396
-0.297909 -0.108115 0.948452
0.169431 -0.594896 0.785743
0.085404 -0.431260 0.898176
0.359162 -0.464763 0.809320
-0.297909 -0.108115 0.948452
-0.034396 0.274348 0.961015
-0.394384 0.051437 0.917505
0.649866 -0.278401 0.707225
0.582161 -0.284075 0.761833
0.642221 -0.007560 0.766482
0.418606 0.415468 0.807561
0.303628 0.388290 0.870081
0.080165 0.400412 0.912822
0.184983 0.584837 0.789776
0.080165 0.400412 0.912822
-0.152182 0.279219 0.948092
0.085404 -0.431260 0.898176
0.169431 -0.594896 0.785743
-0.178461 -0.439950 0.880111
0.062634 -0.065066 0.995913
-0.034396 0.274348 0.961015
-0.297909 -0.108115 0.948452
-0.347244 0.135451 0.927941
-0.394384 0.051437 0.917505
-0.225077 0.403691 0.886777
0.062634 -0.065066 0.995913
-0.178461 -0.439950 0.880111
0.169431 -0.594896 0.785743
0.642221 -0.007560 0.766482
0.754050 0.159483 0.637161
0.649866 -0.278401 0.707225
-0.178461 -0.439950 0.880111
-0.108434 -0.294291 0.949545
0.085404 -0.431260 0.898176
-0.152182 0.279219 0.948092
-0.225077 0.403691 0.886777
0.184983 0.584837 0.789776
0.062634 -0.065066 0.995913
0.418606 0.415468 0.807561
-0.034396 0.274348 0.961015
-0.262647 -0.202536 0.943396
-0.550160 -0.086620 0.830555
-0.438830 -0.071894 0.895690
-0.438830 -0.071894 0.895690
-0.550160 -0.086620 0.830555
-0.347244 0.135451 0.927941
0.754050 0.159483 0.637161
0.642221 -0.007560 0.766482
0.567153 0.258442 0.782014
0.172026 0.237202 0.956108
0.567153 0.258442 0.782014
0.401457 0.171778 0.899624
0.080165 0.400412 0.912822
0.303628 0.388290 0.870081
0.172026 0.237202 0.956108
0.062634 -0.065066 0.995913
0.550261 0.058096 0.832969
0.418606 0.415468 0.807561
0.062634 -0.065066 0.995913
0.649866 -0.278401 0.707225
0.550261 0.058096 0.832969
-0.128425 0.138406 0.982014
-0.152182 0.279219 0.948092
-0.043991 0.150926 0.987566
-0.225077 0.403691 0.886777
-0.152182 0.279219 0.948092
-0.347244 0.135451 0.927941
-0.262647 -0.202536 0.943396
-0.438830 -0.071894 0.895690
-0.178446 -0.123807 0.976129
0.034470 -0.196789 0.979840
-0.108434 -0.294291 0.949545
-0.061327 -0.165151 0.984360
-0.034396 0.274348 0.961015
0.418606 0.415468 0.807561
0.184983 0.584837 0.789776
0.080165 0.400412 0.912822
0.184983 0.584837 0.789776
0.418606 0.415468 0.807561
-0.152182 0.279219 0.948092
0.080165 0.400412 0.912822
0.009629 0.159121 0.987212
0.009629 0.159121 0.987212
0.080165 0.400412 0.912822
0.172026 0.237202 0.956108
0.062634 -0.065066 0.995913
-0.297909 -0.108115 0.948452
-0.178461 -0.439950 0.880111
-0.108434 -0.294291 0.949545
-0.178461 -0.439950 0.880111
-0.297909 -0.108115 0.948452
0.062634 -0.065066 0.995913
0.443593 -0.483018 0.754930
0.649866 -0.278401 0.707225
0.582161 -0.284075 0.761833
0.649866 -0.278401 0.707225
0.443593 -0.483018 0.754930
0.085404 -0.431260 0.898176
-0.108434 -0.294291 0.949545
0.034470 -0.196789 0.979840
0.186919 -0.258823 0.947667
0.085404 -0.431260 0.898176
0.034470 -0.196789 0.979840
0.184983 0.584837 0.789776
-0.225077 0.403691 0.886777
-0.034396 0.274348 0.961015
-0.225077 0.403691 0.886777
-0.394384 0.051437 0.917505
-0.034396 0.274348 0.961015
-0.394384 0.051437 0.917505
-0.347244 0.135451 0.927941
-0.550160 -0.086620 0.830555
-0.297909 -0.108115 0.948452
-0.394384 0.051437 0.917505
-0.550160 -0.086620 0.830555
0.567153 0.258442 0.782014
0.303628 0.388290 0.870081
0.418606 0.415468 0.807561
0.303628 0.388290 0.870081
0.567153 0.258442 0.782014
0.172026 0.237202 0.956108
0.642221 -0.007560 0.766482
0.582161 -0.284075 0.761833
0.356813 -0.181872 0.916301
0.359162 -0.464763 0.809320
0.085404 -0.431260 0.898176
0.186919 -0.258823 0.947667
-0.270140 -0.040669 0.961962
-0.347244 0.135451 0.927941
-0.259205 0.080280 0.962480
-0.347244 0.135451 0.927941
-0.152182 0.279219 0.948092
-0.128425 0.138406 0.982014
-0.043991 0.150926 0.987566
-0.152182 0.279219 0.948092
0.009629 0.159121 0.987212
-0.178446 -0.123807 0.976129
-0.438830 -0.071894 0.895690
-0.270140 -0.040669 0.961962
-0.438830 -0.071894 0.895690
-0.347244 0.135451 0.927941
-0.270140 -0.040669 0.961962
0.567153 0.258442 0.782014
0.642221 -0.007560 0.766482
0.401457 0.171778 0.899624
0.642221 -0.007560 0.766482
0.356813 -0.181872 0.916301
0.413643 -0.004303 0.910429
-0.061327 -0.165151 0.984360
-0.262647 -0.202536 0.943396
-0.178446 -0.123807 0.976129
0.356813 -0.181872 0.916301
0.582161 -0.284075 0.761833
0.186919 -0.258823 0.947667
0.418606 0.415468 0.807561
0.550261 0.058096 0.832969
0.754050 0.159483 0.637161
0.649866 -0.278401 0.707225
0.754050 0.159483 0.637161
0.550261 0.058096 0.832969
-0.259205 0.080280 0.962480
-0.347244 0.135451 0.927941
-0.128425 0.138406 0.982014
0.582161 -0.284075 0.761833
0.359162 -0.464763 0.809320
0.186919 -0.258823 0.947667
0.443593 -0.483018 0.754930
0.359162 -0.464763 0.809320
0.582161 -0.284075 0.761833
0.401457 0.171778 0.899624
0.642221 -0.007560 0.766482
0.413643 -0.004303 0.910429
-0.108434 -0.294291 0.949545
-0.262647 -0.202536 0.943396
-0.061327 -0.165151 0.984360
-0.297909 -0.108115 0.948452
-0.262647 -0.202536 0.943396
-0.108434 -0.294291 0.949545
0.062634 -0.065066 0.995913
0.169431 -0.594896 0.785743
0.443593 -0.483018 0.754930
0.359162 -0.464763 0.809320
0.443593 -0.483018 0.754930
0.169431 -0.594896 0.785743
</float_array>
          <technique_common>
            <accessor source="#SM_Barnacle_08_LOD1-Normal0-array" count="189" stride="3">
              <param name="X" type="float"/>
              <param name="Y" type="float"/>
              <param name="Z" type="float"/>
            </accessor>
          </technique_common>
        </source>
        <source id="SM_Barnacle_08_LOD1-UV0">
          <float_array id="SM_Barnacle_08_LOD1-UV0-array" count="78">
0.122231 0.399293
0.162321 0.368661
0.193916 0.409700
0.153823 0.392118
0.170256 0.436685
0.129424 0.426375
0.158291 0.414566
0.146720 0.369904
0.156915 0.386017
0.188409 0.385280
0.146727 0.390023
0.182227 0.431434
0.121521 0.415233
0.188477 0.402751
0.168182 0.389186
0.132824 0.379243
0.175388 0.398352
0.176724 0.373907
0.127564 0.397618
0.165149 0.398399
0.182641 0.421752
0.152517 0.423900
0.147671 0.435015
0.127159 0.412332
0.190531 0.421866
0.146766 0.397666
0.183269 0.386227
0.136500 0.380928
0.148401 0.373159
0.161841 0.371898
0.173947 0.376831
0.167921 0.430540
0.149470 0.429829
0.133900 0.421896
0.152335 0.385186
0.153248 0.403629
0.149151 0.387166
0.162202 0.382917
0.171668 0.409451
</float_array>
          <technique_common>
            <accessor source="#SM_Barnacle_08_LOD1-UV0-array" count="39" stride="2">
              <param name="S" type="float"/>
              <param name="T" type="float"/>
            </accessor>
          </technique_common>
        </source>
        <vertices id="SM_Barnacle_08_LOD1-VERTEX">
          <input semantic="POSITION" source="#SM_Barnacle_08_LOD1-POSITION"/>
        </vertices>
        <triangles count="63" material="MAT_Sea_Shells">
          <input semantic="VERTEX" offset="0" source="#SM_Barnacle_08_LOD1-VERTEX"/>
          <input semantic="NORMAL" offset="1" source="#SM_Barnacle_08_LOD1-Normal0"/>
          <input semantic="TEXCOORD" offset="2" set="0" source="#SM_Barnacle_08_LOD1-UV0"/>
          <p> 6 0 14 33 1 37 25 2 30 24 3 21 37 4 33 20 5 35 9 6 10 22 7 18 26 8 27 20 9 35 11 10 19 12 11 6 21 12 34 35 13 28 30 14 29 6 15 14 14 16 26 19 17 13 18 18 16 19 19 13 16 20 20 22 21 18 9 22 10 7 23 25 0 24 3 11 25 19 20 26 35 27 27 31 12 28 6 23 29 38 0 30 3 7 31 25 9 32 10 30 33 29 33 34 37 21 35 34 7 36 25 17 37 23 22 38 18 16 39 20 23 40 38 18 41 16 0 42 3 6 43 14 11 44 19 37 45 33 24 46 21 29 47 32 29 48 32 24 49 21 27 50 31 33 51 37 30 52 29 25 53 30 13 54 9 25 55 30 36 56 17 19 57 13 14 58 26 13 59 9 0 60 3 15 61 8 6 62 14 0 63 3 21 64 34 15 65 8 34 66 11 16 67 20 28 68 24 23 69 38 16 70 20 27 71 31 37 72 33 29 73 32 10 74 5 2 75 0 17 76 23 31 77 12 11 78 19 6 79 14 18 80 16 19 81 13 18 82 16 6 83 14 16 84 20 19 85 13 1 86 2 1 87 2 19 88 13 13 89 9 0 90 3 20 91 35 7 92 25 17 93 23 7 94 25 20 95 35 0 96 3 38 97 36 21 98 34 35 99 28 21 100 34 38 101 36 22 102 18 17 103 23 2 104 0 32 105 15 22 106 18 2 107 0 18 108 16 23 109 38 11 110 19 23 111 38 12 112 6 11 113 19 12 114 6 27 115 31 24 116 21 20 117 35 12 118 6 24 119 21 25 120 30 14 121 26 6 122 14 14 123 26 25 124 30 13 125 9 30 126 29 35 127 28 5 128 7 26 129 27 22 130 18 32 131 15 8 132 22 27 133 31 4 134 4 27 135 31 16 136 20 34 137 11 28 138 24 16 139 20 1 140 2 10 141 5 29 142 32 8 143 22 29 144 32 27 145 31 8 146 22 25 147 30 30 148 29 36 149 17 30 150 29 5 151 7 3 152 1 31 153 12 37 154 33 10 155 5 5 156 7 35 157 28 32 158 15 6 159 14 15 160 8 33 161 37 21 162 34 33 163 37 15 164 8 4 165 4 27 166 31 34 167 11 35 168 28 26 169 27 32 170 15 38 171 36 26 172 27 35 173 28 36 174 17 30 175 29 3 176 1 17 177 23 37 178 33 31 179 12 20 180 35 37 181 33 17 182 23 0 183 3 9 184 10 38 185 36 26 186 27 38 187 36 9 188 10</p>
        </triangles>
      </mesh>
    </geometry>
  </library_geometries>
  <library_visual_scenes>
    <visual_scene id="SM_Barnacle_08" name="SM_Barnacle_08">
      <node name="SM_Barnacle_08_LOD0" id="SM_Barnacle_08_LOD0" layer="shells" sid="SM_Barnacle_08_LOD0">
        <matrix sid="matrix">1.000000 0.000000 0.000000 0.000000 0.000000 0.000000 1.000000 0.000000 0.000000 -1.000000 0.000000 0.000000 0.000000 0.000000 0.000000 1.000000</matrix>
        <instance_geometry url="#SM_Barnacle_08_LOD0-lib">
          <bind_material>
            <technique_common>
              <instance_material symbol="MAT_Sea_Shells" target="#MAT_Sea_Shells"/>
            </technique_common>
          </bind_material>
        </instance_geometry>
        <extra>
          <technique profile="FCOLLADA">
            <visibility>1.000000</visibility>
          </technique>
        </extra>
      </node>
      <node name="SM_Barnacle_08_LOD1" id="SM_Barnacle_08_LOD1" layer="shells" sid="SM_Barnacle_08_LOD1">
        <matrix sid="matrix">1.000000 0.000000 0.000000 0.000000 0.000000 0.000000 1.000000 0.000000 0.000000 -1.000000 0.000000 0.000000 0.000000 0.000000 0.000000 1.000000</matrix>
        <instance_geometry url="#SM_Barnacle_08_LOD1-lib">
          <bind_material>
            <technique_common>
              <instance_material symbol="MAT_Sea_Shells" target="#MAT_Sea_Shells"/>
            </technique_common>
          </bind_material>
        </instance_geometry>
        <extra>
          <technique profile="FCOLLADA">
            <visibility>1.000000</visibility>
          </technique>
        </extra>
      </node>
      <extra>
        <technique profile="MAX3D">
          <frame_rate>30.000000</frame_rate>
        </technique>
        <technique profile="FCOLLADA">
          <start_time>0.000000</start_time>
          <end_time>3.333333</end_time>
        </technique>
      </extra>
    </visual_scene>
  </library_visual_scenes>
  <scene>
    <instance_visual_scene url="#SM_Barnacle_08"/>
  </scene>
</COLLADA>
