<?xml version="1.0" encoding="utf-8"?>
<COLLADA xmlns="http://www.collada.org/2005/11/COLLADASchema" version="1.4.1">
  <asset>
    <contributor>
      <author/>
      <authoring_tool>FBX COLLADA exporter</authoring_tool>
      <comments/>
    </contributor>
    <created>2024-02-10T11:35:25Z</created>
    <keywords/>
    <modified>2024-02-10T11:35:25Z</modified>
    <revision/>
    <subject/>
    <title/>
    <unit meter="0.010000" name="centimeter"/>
    <up_axis>Y_UP</up_axis>
  </asset>
  <library_materials>
    <material id="MAT_Coral_Table" name="MAT_Coral_Table">
      <instance_effect url="#MAT_Coral_Table-fx"/>
    </material>
  </library_materials>
  <library_effects>
    <effect id="MAT_Coral_Table-fx" name="MAT_Coral_Table">
      <profile_COMMON>
        <technique sid="standard">
          <phong>
            <emission>
              <color sid="emission">0.000000  0.000000 0.000000 1.000000</color>
            </emission>
            <ambient>
              <color sid="ambient">0.149020  0.192157 0.149020 1.000000</color>
            </ambient>
            <diffuse>
              <color sid="diffuse">0.149020  0.192157 0.149020 1.000000</color>
            </diffuse>
            <specular>
              <color sid="specular">0.000000  0.000000 0.000000 1.000000</color>
            </specular>
            <shininess>
              <float sid="shininess">2.000000</float>
            </shininess>
            <reflective>
              <color sid="reflective">0.000000  0.000000 0.000000 1.000000</color>
            </reflective>
            <reflectivity>
              <float sid="reflectivity">1.000000</float>
            </reflectivity>
            <transparent opaque="RGB_ZERO">
              <color sid="transparent">1.000000  1.000000 1.000000 1.000000</color>
            </transparent>
            <transparency>
              <float sid="transparency">0.000000</float>
            </transparency>
          </phong>
        </technique>
      </profile_COMMON>
    </effect>
  </library_effects>
  <library_geometries>
    <geometry id="SM_Coral_Table_Acropora_05_LOD0-lib" name="SM_Coral_Table_Acropora_05_LOD0Mesh">
      <mesh>
        <source id="SM_Coral_Table_Acropora_05_LOD0-POSITION">
          <float_array id="SM_Coral_Table_Acropora_05_LOD0-POSITION-array" count="366">
17.748123 -6.744690 7.175032
23.830505 0.486572 7.898096
26.039932 -6.956116 7.620982
20.291672 -9.069763 7.019938
23.537888 -8.993164 7.278930
-21.357025 -8.986938 7.008535
14.749161 -7.586609 6.788515
-13.011993 -21.780579 7.152822
-15.391449 -19.225708 7.152822
-10.468430 20.453979 8.384466
13.175034 -21.678955 5.087761
16.281876 -19.681396 5.245762
17.160507 -15.187073 5.756981
11.378204 -11.505066 5.250102
8.299088 -8.839539 4.331898
16.005142 20.565491 7.207725
2.659805 -24.176819 6.107862
-4.457153 24.275330 7.972218
-15.574158 17.127686 8.088754
-26.359406 2.439270 6.784872
26.356293 -4.797058 7.763743
12.422211 -5.318237 6.014601
25.581528 -1.904907 7.860465
13.042328 -1.537415 4.944674
24.986115 4.028137 7.840229
12.357239 2.874268 4.979382
23.771896 9.471985 7.622713
21.604752 11.576782 7.504532
20.245392 14.474304 7.362373
16.966568 15.803284 7.376468
13.904022 23.444519 7.158063
6.816193 12.583496 5.586611
4.874054 24.821472 7.428630
-5.370026 11.095032 6.419272
-18.884445 13.885742 7.663968
-22.023514 12.289795 7.200093
-11.147568 7.013367 5.827308
-23.427933 5.418945 6.892192
-13.315521 2.088074 5.076801
-21.387268 -15.117493 7.126798
-19.541565 -17.875122 7.152517
-1.612061 -24.811584 6.690178
-0.941849 -11.537781 4.030079
-6.641815 -10.021851 4.241686
-10.814331 -3.625000 4.406961
2.301208 13.275269 5.998327
10.666565 6.646606 5.085908
-0.271622 1.731445 0.199455
10.252289 -6.863403 4.634653
12.067017 -5.121338 5.866648
6.075287 -1.796265 4.112613
2.857864 -10.050842 3.875401
8.075577 -11.409363 4.170671
9.509125 -12.073730 5.133435
15.576462 -13.023560 5.985625
6.025101 -22.454346 5.614118
17.693268 -17.503845 5.520047
10.462692 -22.831299 5.190857
14.545822 -20.257263 5.135571
10.005539 -8.485352 4.481997
3.901978 -4.841492 3.795068
17.771378 -6.780640 6.979668
23.876968 0.498047 7.703907
26.056625 -6.944946 7.421994
20.302048 -9.049683 6.821222
23.553421 -8.978882 7.080049
-21.397766 -8.993286 6.812833
14.783096 -7.618164 6.593959
-13.037262 -21.815308 6.957478
-15.414581 -19.265320 6.958148
-10.489304 20.483887 8.187821
13.157516 -21.655396 4.889927
16.287369 -19.659912 5.046995
17.152161 -15.170349 5.557856
11.402115 -11.523376 5.052377
8.324875 -8.837830 4.133575
16.032898 20.573792 7.009831
2.643768 -24.213623 5.911929
-4.477264 24.301270 7.774929
-15.585342 17.165161 7.892613
-26.385239 2.443726 6.586598
26.385223 -4.793335 7.565884
12.470062 -5.354004 5.823728
25.627167 -1.880249 7.667309
13.084991 -1.564270 4.751127
25.030884 4.021118 7.645431
12.411774 2.890564 4.787651
23.810486 9.484253 7.426856
21.640564 11.593506 7.308476
20.273911 14.496582 7.165678
16.991135 15.825378 7.179213
13.915268 23.465942 6.959528
6.831985 12.627319 5.392118
4.865860 24.849854 7.230820
-5.397369 11.154358 6.230234
-18.889145 13.932434 7.469547
-22.033936 12.319702 7.002615
-11.179718 7.064941 5.636770
-23.450439 5.445129 6.695197
-13.360718 2.107605 4.882957
-21.422974 -15.133179 6.930640
-19.566864 -17.906189 6.956572
-1.631516 -24.849854 6.494841
-0.949921 -11.580322 3.834832
-6.671738 -10.057678 4.047213
-10.867279 -3.638184 4.214550
2.285141 13.331177 5.806972
10.712006 6.681152 4.894227
-0.270691 1.746155 0.000000
10.308792 -6.837280 4.444587
12.130341 -5.132629 5.677275
6.119583 -1.862427 3.929144
2.874603 -10.080078 3.678260
8.113373 -11.431396 3.975514
9.561798 -12.100220 4.942331
15.584396 -13.023682 5.785782
6.025375 -22.472107 5.414908
17.683456 -17.479980 5.321718
10.445694 -22.808594 4.992878
14.525375 -20.210632 4.942159
10.033234 -8.482361 4.283948
3.968826 -4.858826 3.607369
</float_array>
          <technique_common>
            <accessor source="#SM_Coral_Table_Acropora_05_LOD0-POSITION-array" count="122" stride="3">
              <param name="X" type="float"/>
              <param name="Y" type="float"/>
              <param name="Z" type="float"/>
            </accessor>
          </technique_common>
        </source>
        <source id="SM_Coral_Table_Acropora_05_LOD0-Normal0">
          <float_array id="SM_Coral_Table_Acropora_05_LOD0-Normal0-array" count="2160">
-0.083470 -0.055920 0.994940
-0.051918 -0.100480 0.993584
-0.077647 -0.071605 0.994406
-0.144695 -0.018721 0.989299
-0.051918 -0.100480 0.993584
-0.083470 -0.055920 0.994940
-0.144695 -0.018721 0.989299
-0.116290 0.179708 0.976822
-0.051918 -0.100480 0.993584
-0.144695 -0.018721 0.989299
-0.239332 0.178617 0.954367
-0.116290 0.179708 0.976822
-0.116290 0.179708 0.976822
-0.239332 0.178617 0.954367
-0.169683 0.157824 0.972779
-0.213298 0.134127 0.967736
-0.239332 0.178617 0.954367
-0.144695 -0.018721 0.989299
-0.228190 -0.123272 0.965781
-0.213298 0.134127 0.967736
-0.144695 -0.018721 0.989299
-0.232354 -0.057292 0.970942
-0.213298 0.134127 0.967736
-0.228190 -0.123272 0.965781
-0.272667 -0.081415 0.958658
-0.213298 0.134127 0.967736
-0.232354 -0.057292 0.970942
-0.223850 0.035132 0.973990
-0.272667 -0.081415 0.958658
-0.232354 -0.057292 0.970942
-0.192984 -0.061362 0.979281
-0.272667 -0.081415 0.958658
-0.223850 0.035132 0.973990
-0.227245 -0.172689 0.958404
-0.272667 -0.081415 0.958658
-0.192984 -0.061362 0.979281
-0.179081 -0.083588 0.980277
-0.227245 -0.172689 0.958404
-0.192984 -0.061362 0.979281
-0.142627 -0.111483 0.983478
-0.227245 -0.172689 0.958404
-0.179081 -0.083588 0.980277
-0.122847 -0.110312 0.986276
-0.227245 -0.172689 0.958404
-0.142627 -0.111483 0.983478
-0.078976 -0.219270 0.972463
-0.227245 -0.172689 0.958404
-0.122847 -0.110312 0.986276
-0.138756 -0.041220 0.989468
-0.078976 -0.219270 0.972463
-0.122847 -0.110312 0.986276
-0.056251 -0.106918 0.992675
-0.078976 -0.219270 0.972463
-0.138756 -0.041220 0.989468
0.040943 -0.141793 0.989049
-0.078976 -0.219270 0.972463
-0.056251 -0.106918 0.992675
0.080370 -0.279500 0.956776
-0.078976 -0.219270 0.972463
0.040943 -0.141793 0.989049
0.100514 -0.129731 0.986441
0.080370 -0.279500 0.956776
0.040943 -0.141793 0.989049
0.136742 -0.296508 0.945190
0.080370 -0.279500 0.956776
0.100514 -0.129731 0.986441
0.104422 -0.149572 0.983221
0.136742 -0.296508 0.945190
0.100514 -0.129731 0.986441
0.055928 -0.187338 0.980702
0.136742 -0.296508 0.945190
0.104422 -0.149572 0.983221
0.160750 -0.257949 0.952692
0.136742 -0.296508 0.945190
0.055928 -0.187338 0.980702
0.023482 -0.233362 0.972106
0.160750 -0.257949 0.952692
0.055928 -0.187338 0.980702
0.052106 -0.149490 0.987389
0.160750 -0.257949 0.952692
0.023482 -0.233362 0.972106
0.112571 -0.130958 0.984976
0.160750 -0.257949 0.952692
0.052106 -0.149490 0.987389
0.225993 -0.097670 0.969220
0.160750 -0.257949 0.952692
0.112571 -0.130958 0.984976
0.129218 -0.022256 0.991366
0.225993 -0.097670 0.969220
0.112571 -0.130958 0.984976
0.203739 0.031786 0.978509
0.225993 -0.097670 0.969220
0.129218 -0.022256 0.991366
0.264757 0.065974 0.962056
0.225993 -0.097670 0.969220
0.203739 0.031786 0.978509
0.178521 0.078565 0.980794
0.264757 0.065974 0.962056
0.203739 0.031786 0.978509
0.149609 0.179205 0.972370
0.264757 0.065974 0.962056
0.178521 0.078565 0.980794
0.126507 0.155337 0.979728
0.149609 0.179205 0.972370
0.178521 0.078565 0.980794
0.115662 0.197918 0.973371
0.149609 0.179205 0.972370
0.126507 0.155337 0.979728
0.126357 0.173356 0.976720
0.149609 0.179205 0.972370
0.115662 0.197918 0.973371
0.097272 0.191349 0.976690
0.149609 0.179205 0.972370
0.126357 0.173356 0.976720
0.040362 0.212915 0.976237
0.149609 0.179205 0.972370
0.097272 0.191349 0.976690
0.080208 0.183908 0.979666
0.040362 0.212915 0.976237
0.097272 0.191349 0.976690
-0.001390 0.088815 0.996047
0.040362 0.212915 0.976237
0.080208 0.183908 0.979666
-0.001390 0.088815 0.996047
-0.083635 0.146247 0.985706
0.040362 0.212915 0.976237
-0.083635 0.146247 0.985706
-0.004714 -0.073623 0.997275
0.040362 0.212915 0.976237
-0.004714 -0.073623 0.997275
0.149609 0.179205 0.972370
0.040362 0.212915 0.976237
-0.004714 -0.073623 0.997275
0.264757 0.065974 0.962056
0.149609 0.179205 0.972370
-0.004714 -0.073623 0.997275
0.225993 -0.097670 0.969220
0.264757 0.065974 0.962056
-0.004714 -0.073623 0.997275
0.160750 -0.257949 0.952692
0.225993 -0.097670 0.969220
-0.004714 -0.073623 0.997275
0.136742 -0.296508 0.945190
0.160750 -0.257949 0.952692
-0.004714 -0.073623 0.997275
0.080370 -0.279500 0.956776
0.136742 -0.296508 0.945190
-0.004714 -0.073623 0.997275
-0.078976 -0.219270 0.972463
0.080370 -0.279500 0.956776
-0.004714 -0.073623 0.997275
-0.227245 -0.172689 0.958404
-0.078976 -0.219270 0.972463
-0.004714 -0.073623 0.997275
-0.272667 -0.081415 0.958658
-0.227245 -0.172689 0.958404
-0.004714 -0.073623 0.997275
-0.213298 0.134127 0.967736
-0.272667 -0.081415 0.958658
-0.221504 0.330775 0.917346
-0.213298 0.134127 0.967736
-0.004714 -0.073623 0.997275
-0.221504 0.330775 0.917346
-0.316659 0.056363 0.946863
-0.213298 0.134127 0.967736
-0.316659 0.056363 0.946863
-0.239332 0.178617 0.954367
-0.213298 0.134127 0.967736
-0.316659 0.056363 0.946863
-0.282503 -0.130623 0.950331
-0.239332 0.178617 0.954367
-0.221504 0.330775 0.917346
-0.282503 -0.130623 0.950331
-0.316659 0.056363 0.946863
-0.221504 0.330775 0.917346
-0.138533 -0.015013 0.990244
-0.282503 -0.130623 0.950331
-0.334223 0.086751 0.938493
-0.138533 -0.015013 0.990244
-0.221504 0.330775 0.917346
-0.004714 -0.073623 0.997275
-0.334223 0.086751 0.938493
-0.221504 0.330775 0.917346
-0.083635 0.146247 0.985706
-0.334223 0.086751 0.938493
-0.004714 -0.073623 0.997275
-0.188984 0.110113 0.975787
-0.334223 0.086751 0.938493
-0.083635 0.146247 0.985706
-0.001390 0.088815 0.996047
-0.188984 0.110113 0.975787
-0.083635 0.146247 0.985706
-0.001390 0.088815 0.996047
-0.263410 0.132654 0.955520
-0.188984 0.110113 0.975787
-0.001390 0.088815 0.996047
-0.119522 0.091302 0.988625
-0.263410 0.132654 0.955520
-0.001390 0.088815 0.996047
-0.039637 0.000782 0.999214
-0.119522 0.091302 0.988625
-0.001390 0.088815 0.996047
0.041762 -0.083563 0.995627
-0.039637 0.000782 0.999214
-0.001390 0.088815 0.996047
0.049088 -0.119325 0.991641
0.041762 -0.083563 0.995627
0.102236 -0.233117 0.967060
0.049088 -0.119325 0.991641
-0.001390 0.088815 0.996047
0.049088 -0.119325 0.991641
0.102236 -0.233117 0.967060
-0.027460 -0.107385 0.993838
0.084974 -0.113531 0.989894
0.102236 -0.233117 0.967060
-0.001390 0.088815 0.996047
0.102236 -0.233117 0.967060
0.084974 -0.113531 0.989894
0.087626 -0.117753 0.989169
-0.128946 -0.008670 0.991614
-0.334223 0.086751 0.938493
-0.188984 0.110113 0.975787
-0.334223 0.086751 0.938493
-0.128946 -0.008670 0.991614
-0.138533 -0.015013 0.990244
0.077599 0.071676 -0.994405
0.050765 0.102439 -0.993443
0.083336 0.056145 -0.994939
0.083336 0.056145 -0.994939
0.050765 0.102439 -0.993443
0.144995 0.018798 -0.989254
0.050765 0.102439 -0.993443
0.116368 -0.177918 -0.977141
0.144995 0.018798 -0.989254
0.116368 -0.177918 -0.977141
0.242438 -0.176821 -0.953917
0.144995 0.018798 -0.989254
0.169722 -0.157551 -0.972817
0.242438 -0.176821 -0.953917
0.116368 -0.177918 -0.977141
0.144995 0.018798 -0.989254
0.242438 -0.176821 -0.953917
0.213052 -0.134810 -0.967696
0.144995 0.018798 -0.989254
0.213052 -0.134810 -0.967696
0.227688 0.123081 -0.965924
0.227688 0.123081 -0.965924
0.213052 -0.134810 -0.967696
0.231929 0.056962 -0.971063
0.231929 0.056962 -0.971063
0.213052 -0.134810 -0.967696
0.272228 0.080821 -0.958833
0.231929 0.056962 -0.971063
0.272228 0.080821 -0.958833
0.223748 -0.035388 -0.974004
0.223748 -0.035388 -0.974004
0.272228 0.080821 -0.958833
0.192949 0.061318 -0.979291
0.192949 0.061318 -0.979291
0.272228 0.080821 -0.958833
0.226764 0.172506 -0.958551
0.192949 0.061318 -0.979291
0.226764 0.172506 -0.958551
0.178982 0.083597 -0.980294
0.178982 0.083597 -0.980294
0.226764 0.172506 -0.958551
0.142561 0.111422 -0.983495
0.142561 0.111422 -0.983495
0.226764 0.172506 -0.958551
0.122700 0.110186 -0.986308
0.122700 0.110186 -0.986308
0.226764 0.172506 -0.958551
0.078980 0.219100 -0.972501
0.122700 0.110186 -0.986308
0.078980 0.219100 -0.972501
0.138570 0.040994 -0.989504
0.138570 0.040994 -0.989504
0.078980 0.219100 -0.972501
0.056214 0.106819 -0.992688
0.056214 0.106819 -0.992688
0.078980 0.219100 -0.972501
-0.040959 0.141643 -0.989070
-0.040959 0.141643 -0.989070
0.078980 0.219100 -0.972501
-0.080189 0.278900 -0.956966
-0.040959 0.141643 -0.989070
-0.080189 0.278900 -0.956966
-0.100479 0.129511 -0.986474
-0.100479 0.129511 -0.986474
-0.080189 0.278900 -0.956966
-0.136435 0.295810 -0.945453
-0.100479 0.129511 -0.986474
-0.136435 0.295810 -0.945453
-0.104254 0.149415 -0.983263
-0.104254 0.149415 -0.983263
-0.136435 0.295810 -0.945453
-0.055827 0.187225 -0.980729
-0.055827 0.187225 -0.980729
-0.136435 0.295810 -0.945453
-0.160359 0.257517 -0.952875
-0.055827 0.187225 -0.980729
-0.160359 0.257517 -0.952875
-0.023627 0.232936 -0.972205
-0.023627 0.232936 -0.972205
-0.160359 0.257517 -0.952875
-0.051977 0.149293 -0.987426
-0.051977 0.149293 -0.987426
-0.160359 0.257517 -0.952875
-0.112491 0.130726 -0.985016
-0.112491 0.130726 -0.985016
-0.160359 0.257517 -0.952875
-0.225685 0.097599 -0.969299
-0.112491 0.130726 -0.985016
-0.225685 0.097599 -0.969299
-0.129105 0.022105 -0.991385
-0.129105 0.022105 -0.991385
-0.225685 0.097599 -0.969299
-0.203700 -0.031748 -0.978518
-0.203700 -0.031748 -0.978518
-0.225685 0.097599 -0.969299
-0.264274 -0.065595 -0.962214
-0.203700 -0.031748 -0.978518
-0.264274 -0.065595 -0.962214
-0.178478 -0.078578 -0.980801
-0.178478 -0.078578 -0.980801
-0.264274 -0.065595 -0.962214
-0.149417 -0.178940 -0.972448
-0.178478 -0.078578 -0.980801
-0.149417 -0.178940 -0.972448
-0.126495 -0.155344 -0.979728
-0.126495 -0.155344 -0.979728
-0.149417 -0.178940 -0.972448
-0.115774 -0.197798 -0.973382
-0.115774 -0.197798 -0.973382
-0.149417 -0.178940 -0.972448
-0.126395 -0.173330 -0.976720
-0.126395 -0.173330 -0.976720
-0.149417 -0.178940 -0.972448
-0.097267 -0.191322 -0.976696
-0.097267 -0.191322 -0.976696
-0.149417 -0.178940 -0.972448
-0.040422 -0.212550 -0.976314
-0.097267 -0.191322 -0.976696
-0.040422 -0.212550 -0.976314
-0.080113 -0.183863 -0.979682
-0.080113 -0.183863 -0.979682
-0.040422 -0.212550 -0.976314
0.001385 -0.089189 -0.996014
-0.040422 -0.212550 -0.976314
0.083815 -0.146014 -0.985726
0.001385 -0.089189 -0.996014
-0.040422 -0.212550 -0.976314
0.004353 0.073927 -0.997254
0.083815 -0.146014 -0.985726
-0.040422 -0.212550 -0.976314
-0.149417 -0.178940 -0.972448
0.004353 0.073927 -0.997254
-0.149417 -0.178940 -0.972448
-0.264274 -0.065595 -0.962214
0.004353 0.073927 -0.997254
-0.264274 -0.065595 -0.962214
-0.225685 0.097599 -0.969299
0.004353 0.073927 -0.997254
-0.225685 0.097599 -0.969299
-0.160359 0.257517 -0.952875
0.004353 0.073927 -0.997254
-0.160359 0.257517 -0.952875
-0.136435 0.295810 -0.945453
0.004353 0.073927 -0.997254
-0.136435 0.295810 -0.945453
-0.080189 0.278900 -0.956966
0.004353 0.073927 -0.997254
-0.080189 0.278900 -0.956966
0.078980 0.219100 -0.972501
0.004353 0.073927 -0.997254
0.078980 0.219100 -0.972501
0.226764 0.172506 -0.958551
0.004353 0.073927 -0.997254
0.226764 0.172506 -0.958551
0.272228 0.080821 -0.958833
0.004353 0.073927 -0.997254
0.272228 0.080821 -0.958833
0.213052 -0.134810 -0.967696
0.004353 0.073927 -0.997254
0.004353 0.073927 -0.997254
0.213052 -0.134810 -0.967696
0.222125 -0.323827 -0.919672
0.213052 -0.134810 -0.967696
0.314305 -0.066224 -0.947010
0.222125 -0.323827 -0.919672
0.213052 -0.134810 -0.967696
0.242438 -0.176821 -0.953917
0.314305 -0.066224 -0.947010
0.242438 -0.176821 -0.953917
0.282384 0.133581 -0.949955
0.314305 -0.066224 -0.947010
0.314305 -0.066224 -0.947010
0.282384 0.133581 -0.949955
0.222125 -0.323827 -0.919672
0.282384 0.133581 -0.949955
0.138215 0.016820 -0.990260
0.222125 -0.323827 -0.919672
0.222125 -0.323827 -0.919672
0.138215 0.016820 -0.990260
0.330763 -0.086297 -0.939760
0.222125 -0.323827 -0.919672
0.330763 -0.086297 -0.939760
0.004353 0.073927 -0.997254
0.004353 0.073927 -0.997254
0.330763 -0.086297 -0.939760
0.083815 -0.146014 -0.985726
0.083815 -0.146014 -0.985726
0.330763 -0.086297 -0.939760
0.188492 -0.110517 -0.975837
0.083815 -0.146014 -0.985726
0.188492 -0.110517 -0.975837
0.001385 -0.089189 -0.996014
0.188492 -0.110517 -0.975837
0.259927 -0.132208 -0.956535
0.001385 -0.089189 -0.996014
0.259927 -0.132208 -0.956535
0.119191 -0.091269 -0.988667
0.001385 -0.089189 -0.996014
0.119191 -0.091269 -0.988667
0.039520 -0.000761 -0.999219
0.001385 -0.089189 -0.996014
0.039520 -0.000761 -0.999219
-0.042100 0.083646 -0.995606
0.001385 -0.089189 -0.996014
-0.042100 0.083646 -0.995606
-0.049295 0.119345 -0.991628
0.001385 -0.089189 -0.996014
0.001385 -0.089189 -0.996014
-0.049295 0.119345 -0.991628
-0.104315 0.236288 -0.966067
0.024983 0.109231 -0.993702
-0.104315 0.236288 -0.966067
-0.049295 0.119345 -0.991628
0.001385 -0.089189 -0.996014
-0.104315 0.236288 -0.966067
-0.085872 0.115529 -0.989585
-0.088295 0.119347 -0.988919
-0.085872 0.115529 -0.989585
-0.104315 0.236288 -0.966067
0.188492 -0.110517 -0.975837
0.330763 -0.086297 -0.939760
0.128076 0.009061 -0.991723
0.138215 0.016820 -0.990260
0.128076 0.009061 -0.991723
0.330763 -0.086297 -0.939760
-0.345299 -0.936552 -0.060320
0.348791 -0.936181 -0.043699
0.348805 -0.936176 -0.043697
0.348791 -0.936181 -0.043699
-0.345299 -0.936552 -0.060320
-0.347310 -0.935819 -0.060158
0.348805 -0.936176 -0.043697
0.864663 -0.498973 0.058167
0.865061 -0.498270 0.058287
0.864663 -0.498973 0.058167
0.348805 -0.936176 -0.043697
0.348791 -0.936181 -0.043699
0.865061 -0.498270 0.058287
0.987056 0.040841 0.155090
0.986232 0.050777 0.157377
0.987056 0.040841 0.155090
0.865061 -0.498270 0.058287
0.864663 -0.498973 0.058167
-0.345299 -0.936552 -0.060320
-0.209801 -0.971854 0.107163
-0.275584 -0.956978 0.090816
-0.345299 -0.936552 -0.060320
-0.275584 -0.956978 0.090816
-0.347310 -0.935819 -0.060158
-0.206708 -0.975706 0.072598
-0.261259 -0.959833 0.102299
-0.261260 -0.959832 0.102299
-0.261259 -0.959833 0.102299
-0.206708 -0.975706 0.072598
-0.061689 -0.993602 0.094603
-0.261259 -0.959833 0.102299
-0.209801 -0.971854 0.107163
-0.261260 -0.959832 0.102299
-0.209801 -0.971854 0.107163
-0.261259 -0.959833 0.102299
-0.275584 -0.956978 0.090816
0.987056 0.040841 0.155090
0.881501 0.416064 0.223261
0.986232 0.050777 0.157377
0.881501 0.416064 0.223261
0.987056 0.040841 0.155090
0.882501 0.414074 0.223012
0.882501 0.414074 0.223012
0.954342 0.157986 0.253519
0.881501 0.416064 0.223261
0.954342 0.157986 0.253519
0.882501 0.414074 0.223012
0.956356 0.145903 0.253170
0.975059 -0.041585 0.218014
0.954342 0.157986 0.253519
0.956356 0.145903 0.253170
0.975059 -0.041585 0.218014
0.956356 0.145903 0.253170
0.975110 -0.040471 0.217997
0.975110 -0.040471 0.217997
0.850856 0.484963 0.202124
0.850740 0.485171 0.202114
0.850740 0.485171 0.202114
0.975059 -0.041585 0.218014
0.975110 -0.040471 0.217997
0.850740 0.485171 0.202114
0.795523 0.576220 0.187386
0.794774 0.577260 0.187366
0.795523 0.576220 0.187386
0.850740 0.485171 0.202114
0.850856 0.484963 0.202124
0.671584 0.718207 0.182083
0.794774 0.577260 0.187366
0.795523 0.576220 0.187386
0.671584 0.718207 0.182083
0.795523 0.576220 0.187386
0.673413 0.716461 0.182204
0.671584 0.718207 0.182083
0.761818 0.625700 0.167732
0.752696 0.636606 0.167876
0.761818 0.625700 0.167732
0.671584 0.718207 0.182083
0.673413 0.716461 0.182204
0.905357 0.402163 0.136362
0.752696 0.636606 0.167876
0.761818 0.625700 0.167732
0.905357 0.402163 0.136362
0.761818 0.625700 0.167732
0.904633 0.403817 0.136272
0.514949 0.846764 0.133483
0.905357 0.402163 0.136362
0.904633 0.403817 0.136272
0.514949 0.846764 0.133483
0.904633 0.403817 0.136272
0.515313 0.846543 0.133482
0.514949 0.846764 0.133483
0.051805 0.989806 0.132665
0.052308 0.989785 0.132627
0.051805 0.989806 0.132665
0.514949 0.846764 0.133483
0.515313 0.846543 0.133482
0.051805 0.989806 0.132665
-0.294412 0.941991 0.161163
0.052308 0.989785 0.132627
-0.294412 0.941991 0.161163
0.051805 0.989806 0.132665
-0.293427 0.942311 0.161094
-0.293427 0.942311 0.161094
-0.531856 0.827751 0.178768
-0.294412 0.941991 0.161163
-0.531856 0.827751 0.178768
-0.293427 0.942311 0.161094
-0.531890 0.827725 0.178785
-0.531890 0.827725 0.178785
-0.624860 0.759200 0.182116
-0.625313 0.758831 0.182095
-0.625313 0.758831 0.182095
-0.531856 0.827751 0.178768
-0.531890 0.827725 0.178785
-0.590959 0.785414 0.184097
-0.625313 0.758831 0.182095
-0.624860 0.759200 0.182116
-0.625313 0.758831 0.182095
-0.590959 0.785414 0.184097
-0.589871 0.786222 0.184141
-0.590959 0.785414 0.184097
-0.796981 0.581619 0.162915
-0.794274 0.585194 0.163331
-0.794274 0.585194 0.163331
-0.589871 0.786222 0.184141
-0.590959 0.785414 0.184097
-0.879739 0.457426 0.129695
-0.794274 0.585194 0.163331
-0.796981 0.581619 0.162915
-0.794274 0.585194 0.163331
-0.879739 0.457426 0.129695
-0.875186 0.465929 0.130230
-0.875186 0.465929 0.130230
-0.968328 0.176149 0.176956
-0.967566 0.180341 0.176899
-0.968328 0.176149 0.176956
-0.875186 0.465929 0.130230
-0.879739 0.457426 0.129695
-0.967566 0.180341 0.176899
-0.963736 -0.200181 0.176465
-0.965114 -0.192827 0.177125
-0.963736 -0.200181 0.176465
-0.967566 0.180341 0.176899
-0.968328 0.176149 0.176956
-0.963736 -0.200181 0.176465
-0.939379 -0.278515 0.199993
-0.965114 -0.192827 0.177125
-0.939379 -0.278515 0.199993
-0.963736 -0.200181 0.176465
-0.938354 -0.281944 0.199999
-0.938354 -0.281944 0.199999
-0.589535 -0.779935 0.210119
-0.939379 -0.278515 0.199993
-0.589535 -0.779935 0.210119
-0.938354 -0.281944 0.199999
-0.593191 -0.777185 0.210019
-0.589535 -0.779935 0.210119
-0.526079 -0.822187 0.217371
-0.523722 -0.823705 0.217316
-0.526079 -0.822187 0.217371
-0.589535 -0.779935 0.210119
-0.593191 -0.777185 0.210019
-0.498360 -0.838937 0.218683
-0.523722 -0.823705 0.217316
-0.526079 -0.822187 0.217371
-0.498360 -0.838937 0.218683
-0.526079 -0.822187 0.217371
-0.498069 -0.839111 0.218676
-0.038839 -0.980588 0.192197
-0.498360 -0.838937 0.218683
-0.498069 -0.839111 0.218676
-0.498360 -0.838937 0.218683
-0.038839 -0.980588 0.192197
-0.038940 -0.980582 0.192205
-0.038839 -0.980588 0.192197
0.321001 -0.936866 0.138711
0.321163 -0.936816 0.138674
0.321163 -0.936816 0.138674
-0.038940 -0.980582 0.192205
-0.038839 -0.980588 0.192197
0.321001 -0.936866 0.138711
0.183427 -0.981987 0.045342
0.218527 -0.974417 0.052507
0.218527 -0.974417 0.052507
0.321163 -0.936816 0.138674
0.321001 -0.936866 0.138711
-0.061689 -0.993602 0.094603
0.796285 -0.573014 0.193871
0.810439 -0.552404 0.195037
0.796285 -0.573014 0.193871
-0.061689 -0.993602 0.094603
-0.206708 -0.975706 0.072598
0.706202 -0.696285 0.128318
0.810439 -0.552404 0.195037
0.796285 -0.573014 0.193871
0.810439 -0.552404 0.195037
0.706202 -0.696285 0.128318
0.705085 -0.697465 0.128053
0.087472 0.991773 -0.093460
0.883969 0.457005 0.098722
0.846342 0.525547 0.086635
0.846342 0.525547 0.086635
0.065299 0.993024 -0.098175
0.087472 0.991773 -0.093460
0.030422 0.994956 -0.095586
0.087472 0.991773 -0.093460
0.065299 0.993024 -0.098175
0.087472 0.991773 -0.093460
0.030422 0.994956 -0.095586
0.032556 0.994937 -0.095078
0.599913 0.800056 0.003780
0.032556 0.994937 -0.095078
0.030422 0.994956 -0.095586
0.030422 0.994956 -0.095586
0.602526 0.798090 0.004003
0.599913 0.800056 0.003780
0.909443 0.415827 0.001161
0.599913 0.800056 0.003780
0.602526 0.798090 0.004003
0.599913 0.800056 0.003780
0.909443 0.415827 0.001161
0.909516 0.415667 0.001141
0.984792 -0.166504 -0.049603
0.909516 0.415667 0.001141
0.909443 0.415827 0.001161
0.909516 0.415667 0.001141
0.984792 -0.166504 -0.049603
0.984666 -0.167238 -0.049650
0.527144 -0.828808 -0.187609
0.612934 -0.779421 -0.129670
0.612784 -0.779534 -0.129700
0.612934 -0.779421 -0.129670
0.527144 -0.828808 -0.187609
0.528305 -0.828058 -0.187656
0.612784 -0.779534 -0.129700
0.984666 -0.167238 -0.049650
0.984792 -0.166504 -0.049603
0.984666 -0.167238 -0.049650
0.612784 -0.779534 -0.129700
0.612934 -0.779421 -0.129670
0.183427 -0.981987 0.045342
0.155692 -0.984806 -0.076924
0.155521 -0.984837 -0.076876
0.155521 -0.984837 -0.076876
0.218527 -0.974417 0.052507
0.183427 -0.981987 0.045342
0.155521 -0.984837 -0.076876
0.559864 -0.811215 -0.168767
0.559889 -0.811197 -0.168770
0.559864 -0.811215 -0.168767
0.155521 -0.984837 -0.076876
0.155692 -0.984806 -0.076924
0.559864 -0.811215 -0.168767
0.527144 -0.828808 -0.187609
0.559889 -0.811197 -0.168770
0.527144 -0.828808 -0.187609
0.559864 -0.811215 -0.168767
0.528305 -0.828058 -0.187656
0.846342 0.525547 0.086635
0.736550 -0.667142 0.111424
0.736765 -0.666898 0.111465
0.736550 -0.667142 0.111424
0.846342 0.525547 0.086635
0.883969 0.457005 0.098722
0.736550 -0.667142 0.111424
0.706202 -0.696285 0.128318
0.736765 -0.666898 0.111465
0.706202 -0.696285 0.128318
0.736550 -0.667142 0.111424
0.705085 -0.697465 0.128053
</float_array>
          <technique_common>
            <accessor source="#SM_Coral_Table_Acropora_05_LOD0-Normal0-array" count="720" stride="3">
              <param name="X" type="float"/>
              <param name="Y" type="float"/>
              <param name="Z" type="float"/>
            </accessor>
          </technique_common>
        </source>
        <source id="SM_Coral_Table_Acropora_05_LOD0-UV0">
          <float_array id="SM_Coral_Table_Acropora_05_LOD0-UV0-array" count="306">
0.419678 0.302734
0.428955 0.302734
0.412598 0.296875
0.411621 0.290527
0.436279 0.296387
0.451660 0.291992
0.445068 0.298828
0.449951 0.281250
0.413818 0.282227
0.418945 0.275391
0.451904 0.268555
0.415527 0.265137
0.419189 0.249512
0.456787 0.257813
0.425293 0.243652
0.429199 0.235352
0.438477 0.231445
0.467773 0.240723
0.441406 0.217773
0.447266 0.209473
0.473389 0.205566
0.480713 0.238770
0.500000 0.207031
0.502441 0.245117
0.517090 0.218262
0.531738 0.227539
0.519043 0.256836
0.541504 0.236816
0.550293 0.241699
0.554199 0.261230
0.525391 0.270996
0.562500 0.270020
0.548340 0.302734
0.518066 0.287109
0.548340 0.320313
0.506348 0.305664
0.542969 0.328125
0.531250 0.332031
0.524414 0.339355
0.491943 0.348145
0.489990 0.310059
0.479736 0.346191
0.469971 0.341309
0.479004 0.306641
0.488037 0.271973
0.469727 0.282227
0.452637 0.291504
0.457764 0.296387
0.458496 0.301270
0.476074 0.290527
0.464111 0.309570
0.459961 0.311523
0.454590 0.310059
0.442627 0.314453
0.437988 0.320313
0.436523 0.327148
0.445557 0.334961
0.440674 0.333496
0.457275 0.342285
0.449463 0.338867
0.463379 0.302246
0.000000 0.000000
0.000000 0.050000
0.017216 0.000000
0.017216 0.050000
0.034364 0.000000
0.034364 0.050000
0.045921 0.000000
0.045921 0.050000
0.061754 0.000000
0.061754 0.050000
0.077421 0.000000
0.077421 0.050000
0.097112 0.000000
0.097112 0.050000
0.126613 0.000000
0.126613 0.050000
0.142592 0.000000
0.142592 0.050000
0.159524 0.000000
0.159524 0.050000
0.178223 0.000000
0.178223 0.050000
0.203915 0.000000
0.203915 0.050000
0.222754 0.000000
0.222754 0.050000
0.271052 0.000000
0.271052 0.050000
0.320537 0.000000
0.320537 0.050000
0.358246 0.000000
0.358246 0.050000
0.390490 0.000000
0.390490 0.050000
0.415081 0.000000
0.415081 0.050000
0.433853 0.000000
0.433853 0.050000
0.470954 0.000000
0.470954 0.050000
0.493053 0.000000
0.493053 0.050000
0.558986 0.000000
0.558986 0.050000
0.591394 0.000000
0.591394 0.050000
0.608932 0.000000
0.608932 0.050000
0.631998 0.000000
0.631998 0.050000
0.650451 0.000000
0.650451 0.050000
0.712842 0.000000
0.712842 0.050000
0.735874 0.000000
0.735874 0.050000
0.756025 0.000000
0.756025 0.050000
0.779668 0.000000
0.779668 0.050000
0.795253 0.000000
0.795253 0.050000
0.805694 0.000000
0.805694 0.050000
0.815378 0.000000
0.815378 0.050000
0.829169 0.000000
0.829169 0.050000
0.841796 0.000000
0.841796 0.050000
0.856019 0.000000
0.856019 0.050000
0.879932 0.000000
0.879932 0.050000
0.890276 0.000000
0.890276 0.050000
0.900055 0.000000
0.900055 0.050000
0.913715 0.000000
0.913715 0.050000
0.922960 0.000000
0.922960 0.050000
0.931668 0.000000
0.931668 0.050000
0.947524 0.000000
0.947524 0.050000
0.965179 0.000000
0.965179 0.050000
0.981768 0.000000
0.981768 0.050000
1.000000 0.000000
1.000000 0.050000
</float_array>
          <technique_common>
            <accessor source="#SM_Coral_Table_Acropora_05_LOD0-UV0-array" count="153" stride="2">
              <param name="S" type="float"/>
              <param name="T" type="float"/>
            </accessor>
          </technique_common>
        </source>
        <vertices id="SM_Coral_Table_Acropora_05_LOD0-VERTEX">
          <input semantic="POSITION" source="#SM_Coral_Table_Acropora_05_LOD0-POSITION"/>
        </vertices>
        <triangles count="240" material="MAT_Coral_Table">
          <input semantic="VERTEX" offset="0" source="#SM_Coral_Table_Acropora_05_LOD0-VERTEX"/>
          <input semantic="NORMAL" offset="1" source="#SM_Coral_Table_Acropora_05_LOD0-Normal0"/>
          <input semantic="TEXCOORD" offset="2" set="0" source="#SM_Coral_Table_Acropora_05_LOD0-UV0"/>
          <p> 2 0 2 3 1 1 4 2 0 20 3 3 3 4 1 2 5 2 20 6 3 0 7 4 3 8 1 20 9 3 21 10 5 0 11 4 0 12 4 21 13 5 6 14 6 23 15 7 21 16 5 20 17 3 22 18 8 23 19 7 20 20 3 1 21 9 23 22 7 22 23 8 25 24 10 23 25 7 1 26 9 24 27 11 25 28 10 1 29 9 26 30 12 25 31 10 24 32 11 46 33 13 25 34 10 26 35 12 27 36 14 46 37 13 26 38 12 28 39 15 46 40 13 27 41 14 29 42 16 46 43 13 28 44 15 31 45 17 46 46 13 29 47 16 15 48 18 31 49 17 29 50 16 30 51 19 31 52 17 15 53 18 32 54 20 31 55 17 30 56 19 45 57 21 31 58 17 32 59 20 17 60 22 45 61 21 32 62 20 33 63 23 45 64 21 17 65 22 9 66 24 33 67 23 17 68 22 18 69 25 33 70 23 9 71 24 36 72 26 33 73 23 18 74 25 34 75 27 36 76 26 18 77 25 35 78 28 36 79 26 34 80 27 37 81 29 36 82 26 35 83 28 38 84 30 36 85 26 37 86 29 19 87 31 38 88 30 37 89 29 5 90 32 38 91 30 19 92 31 44 93 33 38 94 30 5 95 32 39 96 34 44 97 33 5 98 32 43 99 35 44 100 33 39 101 34 40 102 36 43 103 35 39 104 34 8 105 37 43 106 35 40 107 36 7 108 38 43 109 35 8 110 37 41 111 39 43 112 35 7 113 38 42 114 40 43 115 35 41 116 39 16 117 41 42 118 40 41 119 39 55 120 42 42 121 40 16 122 41 55 123 42 51 124 43 42 125 40 51 126 43 47 127 44 42 128 40 47 129 44 43 130 35 42 131 40 47 132 44 44 133 33 43 134 35 47 135 44 38 136 30 44 137 33 47 138 44 36 139 26 38 140 30 47 141 44 33 142 23 36 143 26 47 144 44 45 145 21 33 146 23 47 147 44 31 148 17 45 149 21 47 150 44 46 151 13 31 152 17 47 153 44 25 154 10 46 155 13 47 156 44 23 157 7 25 158 10 50 159 45 23 160 7 47 161 44 50 162 45 49 163 46 23 164 7 49 165 46 21 166 5 23 167 7 49 168 46 48 169 47 21 170 5 50 171 45 48 172 47 49 173 46 50 174 45 59 175 48 48 176 47 60 177 49 59 178 48 50 179 45 47 180 44 60 181 49 50 182 45 51 183 43 60 184 49 47 185 44 52 186 50 60 187 49 51 188 43 55 189 42 52 190 50 51 191 43 55 192 42 53 193 51 52 194 50 55 195 42 13 196 52 53 197 51 55 198 42 54 199 53 13 200 52 55 201 42 12 202 54 54 203 53 55 204 42 56 205 55 12 206 54 58 207 56 56 208 55 55 209 42 56 210 55 58 211 56 11 212 57 57 213 58 58 214 56 55 215 42 58 216 56 57 217 58 10 218 59 14 219 60 60 220 49 52 221 50 60 222 49 14 223 60 59 224 48 65 225 0 64 226 1 63 227 2 63 228 2 64 229 1 81 230 3 64 231 1 61 232 4 81 233 3 61 234 4 82 235 5 81 236 3 67 237 6 82 238 5 61 239 4 81 240 3 82 241 5 84 242 7 81 243 3 84 244 7 83 245 8 83 246 8 84 247 7 62 248 9 62 249 9 84 250 7 86 251 10 62 252 9 86 253 10 85 254 11 85 255 11 86 256 10 87 257 12 87 258 12 86 259 10 107 260 13 87 261 12 107 262 13 88 263 14 88 264 14 107 265 13 89 266 15 89 267 15 107 268 13 90 269 16 90 270 16 107 271 13 92 272 17 90 273 16 92 274 17 76 275 18 76 276 18 92 277 17 91 278 19 91 279 19 92 280 17 93 281 20 93 282 20 92 283 17 106 284 21 93 285 20 106 286 21 78 287 22 78 288 22 106 289 21 94 290 23 78 291 22 94 292 23 70 293 24 70 294 24 94 295 23 79 296 25 79 297 25 94 298 23 97 299 26 79 300 25 97 301 26 95 302 27 95 303 27 97 304 26 96 305 28 96 306 28 97 307 26 98 308 29 98 309 29 97 310 26 99 311 30 98 312 29 99 313 30 80 314 31 80 315 31 99 316 30 66 317 32 66 318 32 99 319 30 105 320 33 66 321 32 105 322 33 100 323 34 100 324 34 105 325 33 104 326 35 100 327 34 104 328 35 101 329 36 101 330 36 104 331 35 69 332 37 69 333 37 104 334 35 68 335 38 68 336 38 104 337 35 102 338 39 102 339 39 104 340 35 103 341 40 102 342 39 103 343 40 77 344 41 77 345 41 103 346 40 116 347 42 103 348 40 112 349 43 116 350 42 103 351 40 108 352 44 112 353 43 103 354 40 104 355 35 108 356 44 104 357 35 105 358 33 108 359 44 105 360 33 99 361 30 108 362 44 99 363 30 97 364 26 108 365 44 97 366 26 94 367 23 108 368 44 94 369 23 106 370 21 108 371 44 106 372 21 92 373 17 108 374 44 92 375 17 107 376 13 108 377 44 107 378 13 86 379 10 108 380 44 86 381 10 84 382 7 108 383 44 108 384 44 84 385 7 111 386 45 84 387 7 110 388 46 111 389 45 84 390 7 82 391 5 110 392 46 82 393 5 109 394 47 110 395 46 110 396 46 109 397 47 111 398 45 109 399 47 120 400 48 111 401 45 111 402 45 120 403 48 121 404 49 111 405 45 121 406 49 108 407 44 108 408 44 121 409 49 112 410 43 112 411 43 121 412 49 113 413 50 112 414 43 113 415 50 116 416 42 113 417 50 114 418 51 116 419 42 114 420 51 74 421 52 116 422 42 74 423 52 115 424 53 116 425 42 115 426 53 73 427 54 116 428 42 73 429 54 117 430 55 116 431 42 116 432 42 117 433 55 119 434 56 72 435 57 119 436 56 117 437 55 116 438 42 119 439 56 118 440 58 71 441 59 118 442 58 119 443 56 113 444 50 121 445 49 75 446 60 120 447 48 75 448 60 121 449 49 3 450 151 65 451 150 4 452 149 65 453 150 3 454 151 64 455 152 4 456 149 63 457 148 2 458 147 63 459 148 4 460 149 65 461 150 2 462 147 81 463 146 20 464 145 81 465 146 2 466 147 63 467 148 3 468 61 0 469 63 61 470 64 3 471 61 61 472 64 64 473 62 21 474 67 67 475 66 6 476 65 67 477 66 21 478 67 82 479 68 67 480 66 0 481 63 6 482 65 0 483 63 67 484 66 61 485 64 81 486 146 22 487 143 20 488 145 22 489 143 81 490 146 83 491 144 83 492 144 1 493 141 22 494 143 1 495 141 83 496 144 62 497 142 24 498 139 1 499 141 62 500 142 24 501 139 62 502 142 85 503 140 85 504 140 87 505 138 26 506 137 26 507 137 24 508 139 85 509 140 26 510 137 88 511 136 27 512 135 88 513 136 26 514 137 87 515 138 28 516 133 27 517 135 88 518 136 28 519 133 88 520 136 89 521 134 28 522 133 90 523 132 29 524 131 90 525 132 28 526 133 89 527 134 15 528 129 29 529 131 90 530 132 15 531 129 90 532 132 76 533 130 30 534 127 15 535 129 76 536 130 30 537 127 76 538 130 91 539 128 30 540 127 93 541 126 32 542 125 93 543 126 30 544 127 91 545 128 93 546 126 17 547 123 32 548 125 17 549 123 93 550 126 78 551 124 78 552 124 9 553 121 17 554 123 9 555 121 78 556 124 70 557 122 70 558 122 79 559 120 18 560 119 18 561 119 9 562 121 70 563 122 95 564 118 18 565 119 79 566 120 18 567 119 95 568 118 34 569 117 95 570 118 96 571 116 35 572 115 35 573 115 34 574 117 95 575 118 98 576 114 35 577 115 96 578 116 35 579 115 98 580 114 37 581 113 37 582 113 80 583 112 19 584 111 80 585 112 37 586 113 98 587 114 19 588 111 66 589 110 5 590 109 66 591 110 19 592 111 80 593 112 66 594 110 39 595 107 5 596 109 39 597 107 66 598 110 100 599 108 100 600 108 40 601 105 39 602 107 40 603 105 100 604 108 101 605 106 40 606 105 69 607 104 8 608 103 69 609 104 40 610 105 101 611 106 7 612 101 8 613 103 69 614 104 7 615 101 69 616 104 68 617 102 102 618 100 7 619 101 68 620 102 7 621 101 102 622 100 41 623 99 102 624 100 77 625 98 16 626 97 16 627 97 41 628 99 102 629 100 77 630 98 116 631 96 55 632 95 55 633 95 16 634 97 77 635 98 82 636 68 48 637 69 109 638 70 48 639 69 82 640 68 21 641 67 59 642 71 109 643 70 48 644 69 109 645 70 59 646 71 120 647 72 114 648 78 113 649 76 52 650 75 52 651 75 53 652 77 114 653 78 13 654 79 114 655 78 53 656 77 114 657 78 13 658 79 74 659 80 115 660 82 74 661 80 13 662 79 13 663 79 54 664 81 115 665 82 12 666 83 115 667 82 54 668 81 115 669 82 12 670 83 73 671 84 56 672 85 73 673 84 12 674 83 73 675 84 56 676 85 117 677 86 58 678 89 72 679 88 11 680 87 72 681 88 58 682 89 119 683 90 11 684 87 117 685 86 56 686 85 117 687 86 11 688 87 72 689 88 116 690 96 118 691 94 57 692 93 57 693 93 55 694 95 116 695 96 57 696 93 71 697 92 10 698 91 71 699 92 57 700 93 118 701 94 71 702 92 58 703 89 10 704 91 58 705 89 71 706 92 119 707 90 52 708 75 75 709 74 14 710 73 75 711 74 52 712 75 113 713 76 75 714 74 59 715 71 14 716 73 59 717 71 75 718 74 120 719 72</p>
        </triangles>
      </mesh>
    </geometry>
    <geometry id="SM_Coral_Table_Acropora_05_LOD1-lib" name="SM_Coral_Table_Acropora_05_LOD1Mesh">
      <mesh>
        <source id="SM_Coral_Table_Acropora_05_LOD1-POSITION">
          <float_array id="SM_Coral_Table_Acropora_05_LOD1-POSITION-array" count="294">
26.039932 -6.956116 7.620982
-19.566864 -17.906189 6.956572
-22.033936 12.319702 7.002615
8.113373 -11.431396 3.975514
16.991135 15.825378 7.179213
17.693268 -17.503845 5.520047
6.025375 -22.472107 5.414908
-4.457153 24.275330 7.972218
-0.270691 1.746155 0.000000
-0.271622 1.731445 0.199455
14.749161 -7.586609 6.788515
-26.385239 2.443726 6.586598
13.904022 23.444519 7.158063
23.876968 0.498047 7.703907
23.810486 9.484253 7.426856
6.119583 -1.862427 3.929144
6.075287 -1.796265 4.112613
20.291672 -9.069763 7.019938
-13.315521 2.088074 5.076801
10.033234 -8.482361 4.283948
-1.612061 -24.811584 6.690178
-13.011993 -21.780579 7.152822
15.584396 -13.023682 5.785782
-13.360718 2.107605 4.882957
12.470062 -5.354004 5.823728
6.816193 12.583496 5.586611
6.831985 12.627319 5.392118
16.281876 -19.681396 5.245762
-21.357025 -8.986938 7.008535
13.084991 -1.564270 4.751127
13.042328 -1.537415 4.944674
9.509125 -12.073730 5.133435
2.857864 -10.050842 3.875401
-15.574158 17.127686 8.088754
17.771378 -6.780640 6.979668
10.462692 -22.831299 5.190857
20.273911 14.496582 7.165678
-23.427933 5.418945 6.892192
-15.414581 -19.265320 6.958148
24.986115 4.028137 7.840229
8.299088 -8.839539 4.331898
23.537888 -8.993164 7.278930
4.865860 24.849854 7.230820
2.874603 -10.080078 3.678260
-21.422974 -15.133179 6.930640
-11.179718 7.064941 5.636770
-11.147568 7.013367 5.827308
16.032898 20.573792 7.009831
-6.641815 -10.021851 4.241686
14.525375 -20.210632 4.942159
12.411774 2.890564 4.787651
12.357239 2.874268 4.979382
2.659805 -24.176819 6.107862
10.308792 -6.837280 4.444587
11.402115 -11.523376 5.052377
26.385223 -4.793335 7.565884
21.604752 11.576782 7.504532
25.581528 -1.904907 7.860465
-18.889145 13.932434 7.469547
-6.671738 -10.057678 4.047213
17.160507 -15.187073 5.756981
13.157516 -21.655396 4.889927
-5.397369 11.154358 6.230234
-5.370026 11.095032 6.419272
-10.867279 -3.638184 4.214550
-10.814331 -3.625000 4.406961
-0.949921 -11.580322 3.834832
-0.941849 -11.537781 4.030079
-10.489304 20.483887 8.187821
2.285141 13.331177 5.806972
2.301208 13.275269 5.998327
10.712006 6.681152 4.894227
10.666565 6.646606 5.085908
3.901978 -4.841492 3.795068
3.968826 -4.858826 3.607369
6.025101 -22.454346 5.614118
12.422211 -5.318237 6.014601
26.356293 -4.797058 7.763743
14.545822 -20.257263 5.135571
8.075577 -11.409363 4.170671
4.874054 24.821472 7.428630
-23.450439 5.445129 6.695197
20.302048 -9.049683 6.821222
-21.397766 -8.993286 6.812833
-15.585342 17.165161 7.892613
10.005539 -8.485352 4.481997
23.771896 9.471985 7.622713
-1.631516 -24.849854 6.494841
-4.477264 24.301270 7.774929
-21.387268 -15.117493 7.126798
16.966568 15.803284 7.376468
17.683456 -17.479980 5.321718
23.830505 0.486572 7.898096
10.252289 -6.863403 4.634653
17.748123 -6.744690 7.175032
10.445694 -22.808594 4.992878
2.643768 -24.213623 5.911929
-13.037262 -21.815308 6.957478
</float_array>
          <technique_common>
            <accessor source="#SM_Coral_Table_Acropora_05_LOD1-POSITION-array" count="98" stride="3">
              <param name="X" type="float"/>
              <param name="Y" type="float"/>
              <param name="Z" type="float"/>
            </accessor>
          </technique_common>
        </source>
        <source id="SM_Coral_Table_Acropora_05_LOD1-Normal0">
          <float_array id="SM_Coral_Table_Acropora_05_LOD1-Normal0-array" count="1728">
-0.149417 -0.178940 -0.972448
-0.264274 -0.065595 -0.962214
0.004353 0.073927 -0.997254
-0.004714 -0.073623 0.997275
0.264757 0.065974 0.962056
0.147956 0.177808 0.972879
-0.040422 -0.212550 -0.976314
-0.149417 -0.178940 -0.972448
0.004353 0.073927 -0.997254
-0.004714 -0.073623 0.997275
0.080370 -0.279500 0.956776
0.135302 -0.293813 0.946238
0.172581 0.017071 -0.984847
0.198309 -0.167932 -0.965646
0.212803 -0.136539 -0.967508
-0.192984 -0.061362 0.979281
-0.272667 -0.081415 0.958658
0.913442 0.369024 0.171595
0.001141 0.092207 0.995739
0.614196 0.787361 0.053159
0.104761 0.988287 -0.110967
0.104761 0.988287 -0.110967
0.614196 0.787361 0.053159
0.003107 -0.087009 -0.996203
-0.004714 -0.073623 0.997275
0.147956 0.177808 0.972879
0.040362 0.212915 0.976237
-0.097267 -0.191322 -0.976696
-0.149417 -0.178940 -0.972448
-0.040422 -0.212550 -0.976314
-0.100479 0.129511 -0.986474
-0.080189 0.278900 -0.956966
-0.136435 0.295810 -0.945453
0.135302 -0.293813 0.946238
0.080370 -0.279500 0.956776
0.088209 -0.129025 0.987710
-0.136435 0.295810 -0.945453
-0.080189 0.278900 -0.956966
0.004353 0.073927 -0.997254
0.913442 0.369024 0.171595
0.273891 0.081048 -0.958340
0.195680 0.074757 -0.977814
-0.211759 0.136160 0.967791
-0.202676 0.154261 0.967019
-0.144695 -0.018721 0.989299
-0.188984 0.110113 0.975787
-0.334223 0.086751 0.938493
-0.083635 0.146247 0.985706
-0.222262 0.331110 0.917042
-0.284288 -0.136581 0.948961
-0.202676 0.154261 0.967019
0.198309 -0.167932 -0.965646
0.284806 0.141599 -0.948069
0.222887 -0.324192 -0.919359
0.199493 0.035009 0.979274
0.223022 -0.098330 0.969841
-0.724341 -0.665059 -0.181731
-0.100479 0.129511 -0.986474
-0.136435 0.295810 -0.945453
-0.471685 0.845753 0.249427
0.040943 -0.141793 0.989049
-0.077608 -0.218202 0.972813
0.935702 0.349432 0.048559
0.122700 0.110186 -0.986308
0.227822 0.172997 -0.958211
0.079975 0.221308 -0.971919
0.481686 0.798706 0.360621
-0.211759 0.136160 0.967791
-0.144695 -0.018721 0.989299
0.172581 0.017071 -0.984847
0.212803 -0.136539 -0.967508
0.481686 0.798706 0.360621
-0.088540 0.980802 0.173747
0.227822 0.172997 -0.958211
0.940874 -0.338443 -0.014575
0.940874 -0.338443 -0.014575
-0.226251 -0.171863 0.958788
-0.088540 0.980802 0.173747
0.079975 0.221308 -0.971919
0.227822 0.172997 -0.958211
0.004353 0.073927 -0.997254
0.004353 0.073927 -0.997254
0.332452 -0.088042 -0.939002
0.083815 -0.146014 -0.985726
-0.004714 -0.073623 0.997275
-0.226251 -0.171863 0.958788
-0.077608 -0.218202 0.972813
-0.083635 0.146247 0.985706
-0.334223 0.086751 0.938493
-0.004714 -0.073623 0.997275
-0.144695 -0.018721 0.989299
-0.116290 0.179708 0.976822
-0.051918 -0.100480 0.993584
0.067452 0.080520 -0.994468
0.111677 -0.193486 -0.974726
0.172581 0.017071 -0.984847
-0.471685 0.845753 0.249427
0.135302 -0.293813 0.946238
0.088209 -0.129025 0.987710
0.102125 -0.147750 0.983738
0.157219 -0.255842 0.953849
-0.238750 0.970604 0.030442
0.165036 -0.836211 0.522985
-0.334223 0.086751 0.938493
-0.188984 0.110113 0.975787
0.234359 -0.104281 -0.966541
0.332452 -0.088042 -0.939002
0.165036 -0.836211 0.522985
0.001141 0.092207 0.995739
-0.188984 0.110113 0.975787
-0.083635 0.146247 0.985706
-0.097267 -0.191322 -0.976696
-0.040422 -0.212550 -0.976314
-0.080113 -0.183863 -0.979682
0.147956 0.177808 0.972879
0.264757 0.065974 0.962056
0.188945 0.048361 0.980796
-0.178478 -0.078578 -0.980801
-0.264274 -0.065595 -0.962214
-0.149417 -0.178940 -0.972448
0.614196 0.787361 0.053159
-0.198759 0.968880 0.147535
0.003107 -0.087009 -0.996203
0.001141 0.092207 0.995739
-0.198759 0.968880 0.147535
0.614196 0.787361 0.053159
-0.238750 0.970604 0.030442
-0.160359 0.257517 -0.952875
-0.112491 0.130726 -0.985016
-0.724341 -0.665059 -0.181731
-0.225685 0.097599 -0.969299
-0.203700 -0.031748 -0.978518
-0.144695 -0.018721 0.989299
-0.202676 0.154261 0.967019
-0.116290 0.179708 0.976822
0.111677 -0.193486 -0.974726
0.198309 -0.167932 -0.965646
0.172581 0.017071 -0.984847
0.151901 0.988105 -0.023953
-0.077608 -0.218202 0.972813
-0.107632 -0.108500 0.988252
-0.077608 -0.218202 0.972813
-0.226251 -0.171863 0.958788
-0.107632 -0.108500 0.988252
0.122700 0.110186 -0.986308
0.079975 0.221308 -0.971919
0.151901 0.988105 -0.023953
0.935702 0.349432 0.048559
0.079975 0.221308 -0.971919
-0.031263 0.143221 -0.989197
0.116755 -0.256015 0.959596
0.049088 -0.119325 0.991641
0.001141 0.092207 0.995739
0.003107 -0.087009 -0.996203
-0.052252 0.152377 -0.986940
-0.084689 0.214455 -0.973056
-0.203700 -0.031748 -0.978518
-0.264274 -0.065595 -0.962214
-0.178478 -0.078578 -0.980801
0.188945 0.048361 0.980796
0.264757 0.065974 0.962056
0.199493 0.035009 0.979274
0.212803 -0.136539 -0.967508
0.198309 -0.167932 -0.965646
0.222887 -0.324192 -0.919359
0.004353 0.073927 -0.997254
0.212803 -0.136539 -0.967508
0.222887 -0.324192 -0.919359
-0.222262 0.331110 0.917042
-0.202676 0.154261 0.967019
-0.211759 0.136160 0.967791
-0.222262 0.331110 0.917042
-0.211759 0.136160 0.967791
-0.004714 -0.073623 0.997275
0.001141 0.092207 0.995739
0.733321 0.197886 0.650447
-0.188984 0.110113 0.975787
0.234359 -0.104281 -0.966541
0.733321 0.197886 0.650447
0.003107 -0.087009 -0.996203
0.080208 0.183908 0.979666
0.040362 0.212915 0.976237
0.097272 0.191349 0.976690
0.040362 0.212915 0.976237
0.147956 0.177808 0.972879
0.097272 0.191349 0.976690
-0.055827 0.187225 -0.980729
-0.160359 0.257517 -0.952875
-0.995314 0.051467 0.081856
-0.995314 0.051467 0.081856
0.157219 -0.255842 0.953849
0.045888 -0.183057 0.982031
-0.116290 0.179708 0.976822
-0.202676 0.154261 0.967019
-0.294831 -0.935136 0.196456
-0.294831 -0.935136 0.196456
0.198309 -0.167932 -0.965646
0.111677 -0.193486 -0.974726
0.098447 -0.134987 0.985945
0.116755 -0.256015 0.959596
0.001141 0.092207 0.995739
0.003107 -0.087009 -0.996203
-0.084689 0.214455 -0.973056
-0.085872 0.115529 -0.989585
-0.107632 -0.108500 0.988252
-0.226251 -0.171863 0.958788
0.940874 -0.338443 -0.014575
0.940874 -0.338443 -0.014575
0.227822 0.172997 -0.958211
0.122700 0.110186 -0.986308
-0.112491 0.130726 -0.985016
-0.225685 0.097599 -0.969299
-0.724341 -0.665059 -0.181731
-0.724341 -0.665059 -0.181731
0.223022 -0.098330 0.969841
0.102125 -0.147750 0.983738
0.097272 0.191349 0.976690
0.147956 0.177808 0.972879
0.100681 0.187364 0.977117
-0.126395 -0.173330 -0.976720
-0.149417 -0.178940 -0.972448
-0.097267 -0.191322 -0.976696
0.913442 0.369024 0.171595
-0.272667 -0.081415 0.958658
-0.232354 -0.057292 0.970942
0.242995 0.042864 -0.969080
0.273891 0.081048 -0.958340
0.913442 0.369024 0.171595
-0.334223 0.086751 0.938493
0.165036 -0.836211 0.522985
-0.138534 -0.015013 0.990244
0.105902 -0.037950 -0.993652
0.165036 -0.836211 0.522985
0.332452 -0.088042 -0.939002
0.625280 -0.778090 0.060012
0.067452 0.080520 -0.994468
0.574003 -0.816542 0.061487
0.574003 -0.816542 0.061487
-0.051918 -0.100480 0.993584
0.625280 -0.778090 0.060012
0.088209 -0.129025 0.987710
0.080370 -0.279500 0.956776
0.040943 -0.141793 0.989049
-0.031263 0.143221 -0.989197
-0.080189 0.278900 -0.956966
-0.100479 0.129511 -0.986474
0.083815 -0.146014 -0.985726
0.234359 -0.104281 -0.966541
0.003107 -0.087009 -0.996203
0.083815 -0.146014 -0.985726
0.332452 -0.088042 -0.939002
0.234359 -0.104281 -0.966541
0.252111 -0.967280 0.028445
0.147956 0.177808 0.972879
0.188945 0.048361 0.980796
-0.178478 -0.078578 -0.980801
-0.149417 -0.178940 -0.972448
0.252111 -0.967280 0.028445
-0.225685 0.097599 -0.969299
-0.160359 0.257517 -0.952875
0.004353 0.073927 -0.997254
-0.112491 0.130726 -0.985016
-0.160359 0.257517 -0.952875
-0.225685 0.097599 -0.969299
-0.004714 -0.073623 0.997275
0.157219 -0.255842 0.953849
0.223022 -0.098330 0.969841
0.223022 -0.098330 0.969841
0.157219 -0.255842 0.953849
0.102125 -0.147750 0.983738
0.151901 0.988105 -0.023953
0.079975 0.221308 -0.971919
0.935702 0.349432 0.048559
0.935702 0.349432 0.048559
-0.077608 -0.218202 0.972813
0.151901 0.988105 -0.023953
0.100681 0.187364 0.977117
0.147956 0.177808 0.972879
-0.975734 0.170737 0.137080
-0.975734 0.170737 0.137080
0.147956 0.177808 0.972879
0.252111 -0.967280 0.028445
0.049088 -0.119325 0.991641
0.116755 -0.256015 0.959596
0.636505 -0.759025 0.136907
0.636505 -0.759025 0.136907
-0.084689 0.214455 -0.973056
-0.052252 0.152377 -0.986940
0.273891 0.081048 -0.958340
0.212803 -0.136539 -0.967508
0.004353 0.073927 -0.997254
0.242995 0.042864 -0.969080
0.212803 -0.136539 -0.967508
0.273891 0.081048 -0.958340
-0.004714 -0.073623 0.997275
-0.211759 0.136160 0.967791
-0.272667 -0.081415 0.958658
-0.272667 -0.081415 0.958658
-0.211759 0.136160 0.967791
-0.232354 -0.057292 0.970942
0.001141 0.092207 0.995739
0.040362 0.212915 0.976237
0.080208 0.183908 0.979666
-0.080113 -0.183863 -0.979682
-0.040422 -0.212550 -0.976314
0.003107 -0.087009 -0.996203
-0.222262 0.331110 0.917042
-0.138534 -0.015013 0.990244
-0.284288 -0.136581 0.948961
0.284806 0.141599 -0.948069
0.105902 -0.037950 -0.993652
0.222887 -0.324192 -0.919359
0.001141 0.092207 0.995739
0.104761 0.988287 -0.110967
0.733321 0.197886 0.650447
0.733321 0.197886 0.650447
0.104761 0.988287 -0.110967
0.003107 -0.087009 -0.996203
-0.144695 -0.018721 0.989299
-0.051918 -0.100480 0.993584
0.574003 -0.816542 0.061487
0.574003 -0.816542 0.061487
0.067452 0.080520 -0.994468
0.172581 0.017071 -0.984847
-0.088540 0.980802 0.173747
-0.226251 -0.171863 0.958788
-0.192984 -0.061362 0.979281
0.195680 0.074757 -0.977814
0.227822 0.172997 -0.958211
-0.088540 0.980802 0.173747
-0.232354 -0.057292 0.970942
-0.211759 0.136160 0.967791
0.481686 0.798706 0.360621
0.481686 0.798706 0.360621
0.212803 -0.136539 -0.967508
0.242995 0.042864 -0.969080
-0.238750 0.970604 0.030442
0.157219 -0.255842 0.953849
-0.995314 0.051467 0.081856
-0.995314 0.051467 0.081856
-0.160359 0.257517 -0.952875
-0.238750 0.970604 0.030442
-0.975734 0.170737 0.137080
-0.149417 -0.178940 -0.972448
-0.126395 -0.173330 -0.976720
0.252111 -0.967280 0.028445
-0.149417 -0.178940 -0.972448
-0.975734 0.170737 0.137080
-0.198759 0.968880 0.147535
-0.052252 0.152377 -0.986940
0.003107 -0.087009 -0.996203
0.001141 0.092207 0.995739
0.049088 -0.119325 0.991641
-0.198759 0.968880 0.147535
0.116755 -0.256015 0.959596
0.098447 -0.134987 0.985945
0.494598 -0.790958 -0.360221
0.494598 -0.790958 -0.360221
-0.085872 0.115529 -0.989585
-0.084689 0.214455 -0.973056
-0.160359 0.257517 -0.952875
-0.136435 0.295810 -0.945453
0.004353 0.073927 -0.997254
-0.055827 0.187225 -0.980729
-0.136435 0.295810 -0.945453
-0.160359 0.257517 -0.952875
-0.004714 -0.073623 0.997275
0.135302 -0.293813 0.946238
0.157219 -0.255842 0.953849
0.157219 -0.255842 0.953849
0.135302 -0.293813 0.946238
0.045888 -0.183057 0.982031
-0.264274 -0.065595 -0.962214
-0.225685 0.097599 -0.969299
0.004353 0.073927 -0.997254
-0.203700 -0.031748 -0.978518
-0.225685 0.097599 -0.969299
-0.264274 -0.065595 -0.962214
-0.004714 -0.073623 0.997275
0.223022 -0.098330 0.969841
0.264757 0.065974 0.962056
0.264757 0.065974 0.962056
0.223022 -0.098330 0.969841
0.199493 0.035009 0.979274
-0.040422 -0.212550 -0.976314
0.004353 0.073927 -0.997254
0.083815 -0.146014 -0.985726
-0.040422 -0.212550 -0.976314
0.083815 -0.146014 -0.985726
0.003107 -0.087009 -0.996203
-0.083635 0.146247 0.985706
-0.004714 -0.073623 0.997275
0.040362 0.212915 0.976237
0.001141 0.092207 0.995739
-0.083635 0.146247 0.985706
0.040362 0.212915 0.976237
-0.471685 0.845753 0.249427
-0.136435 0.295810 -0.945453
-0.055827 0.187225 -0.980729
0.045888 -0.183057 0.982031
0.135302 -0.293813 0.946238
-0.471685 0.845753 0.249427
-0.080189 0.278900 -0.956966
0.079975 0.221308 -0.971919
0.004353 0.073927 -0.997254
-0.031263 0.143221 -0.989197
0.079975 0.221308 -0.971919
-0.080189 0.278900 -0.956966
-0.004714 -0.073623 0.997275
-0.077608 -0.218202 0.972813
0.080370 -0.279500 0.956776
0.080370 -0.279500 0.956776
-0.077608 -0.218202 0.972813
0.040943 -0.141793 0.989049
0.227822 0.172997 -0.958211
0.273891 0.081048 -0.958340
0.004353 0.073927 -0.997254
0.195680 0.074757 -0.977814
0.273891 0.081048 -0.958340
0.227822 0.172997 -0.958211
-0.004714 -0.073623 0.997275
-0.272667 -0.081415 0.958658
-0.226251 -0.171863 0.958788
-0.226251 -0.171863 0.958788
-0.272667 -0.081415 0.958658
-0.192984 -0.061362 0.979281
-0.004714 -0.073623 0.997275
-0.334223 0.086751 0.938493
-0.222262 0.331110 0.917042
-0.334223 0.086751 0.938493
-0.138534 -0.015013 0.990244
-0.222262 0.331110 0.917042
0.222887 -0.324192 -0.919359
0.332452 -0.088042 -0.939002
0.004353 0.073927 -0.997254
0.222887 -0.324192 -0.919359
0.105902 -0.037950 -0.993652
0.332452 -0.088042 -0.939002
0.183427 -0.981987 0.045342
0.155877 -0.984876 -0.075648
0.150426 -0.985838 -0.074137
0.150426 -0.985838 -0.074137
0.218527 -0.974417 0.052507
0.183427 -0.981987 0.045342
0.218527 -0.974417 0.052507
0.321163 -0.936816 0.138674
0.321001 -0.936866 0.138711
0.218527 -0.974417 0.052507
0.321001 -0.936866 0.138711
0.183427 -0.981987 0.045342
0.796285 -0.573014 0.193871
-0.045619 -0.995121 0.087478
-0.203881 -0.977071 0.061364
-0.045619 -0.995121 0.087478
0.796285 -0.573014 0.193871
0.810439 -0.552404 0.195037
-0.242527 -0.965042 0.099375
-0.203881 -0.977071 0.061364
-0.045619 -0.995121 0.087478
0.887392 0.421307 0.187178
0.987804 0.055493 0.145479
0.988263 0.046895 0.145384
0.978295 -0.152615 0.140173
0.988263 0.046895 0.145384
0.987804 0.055493 0.145479
0.591397 -0.781124 -0.200240
0.537013 -0.805384 -0.250946
0.522111 -0.814902 -0.251665
0.567321 -0.798017 -0.203262
0.522111 -0.814902 -0.251665
0.537013 -0.805384 -0.250946
0.628810 -0.769985 0.108265
0.845948 0.522866 0.104802
0.887327 0.444812 0.121628
0.430602 0.902353 -0.018483
0.887327 0.444812 0.121628
0.845948 0.522866 0.104802
0.051015 0.989177 0.137570
-0.292854 0.943315 0.156183
0.052247 0.989118 0.137537
-0.292854 0.943315 0.156183
0.051015 0.989177 0.137570
-0.293997 0.942950 0.156241
0.153309 0.979034 0.134119
0.051015 0.989177 0.137570
0.052247 0.989118 0.137537
-0.857955 0.471843 0.203168
-0.872771 0.460826 0.160966
-0.876479 0.453910 0.160470
-0.971411 0.194043 0.136776
-0.876479 0.453910 0.160470
-0.872771 0.460826 0.160966
-0.344391 -0.936338 -0.068309
-0.210064 -0.971556 0.109322
-0.286069 -0.953967 0.090063
-0.344391 -0.936338 -0.068309
-0.286069 -0.953967 0.090063
-0.354055 -0.932798 -0.067324
0.031357 -0.994606 -0.098869
-0.344391 -0.936338 -0.068309
-0.354055 -0.932798 -0.067324
-0.959720 -0.197667 0.199661
-0.940968 -0.273036 0.200076
-0.961440 -0.189325 0.199474
-0.940968 -0.273036 0.200076
-0.959720 -0.197667 0.199661
-0.938334 -0.281938 0.200099
-0.857955 0.471843 0.203168
-0.959720 -0.197667 0.199661
-0.961440 -0.189325 0.199474
-0.700099 0.692941 0.172320
-0.625009 0.759406 0.180737
-0.624812 0.759564 0.180756
-0.533235 0.827399 0.176269
-0.624812 0.759564 0.180756
-0.625009 0.759406 0.180737
0.628810 -0.769985 0.108265
0.722797 -0.678533 0.130986
0.706293 -0.696432 0.127016
0.706293 -0.696432 0.127016
0.810439 -0.552404 0.195037
0.796285 -0.573014 0.193871
0.810439 -0.552404 0.195037
0.706293 -0.696432 0.127016
0.722797 -0.678533 0.130986
0.680483 0.710668 0.178590
0.851533 0.485403 0.198181
0.853112 0.482568 0.198315
0.972893 -0.095077 0.210806
0.853112 0.482568 0.198315
0.851533 0.485403 0.198181
-0.038839 -0.980588 0.192197
0.321001 -0.936866 0.138711
0.321163 -0.936816 0.138674
0.321163 -0.936816 0.138674
-0.038940 -0.980582 0.192205
-0.038839 -0.980588 0.192197
-0.494200 -0.842023 0.216251
-0.038839 -0.980588 0.192197
-0.038940 -0.980582 0.192205
-0.038839 -0.980588 0.192197
-0.494200 -0.842023 0.216251
-0.498349 -0.839559 0.216307
-0.533235 0.827399 0.176269
-0.292854 0.943315 0.156183
-0.293997 0.942950 0.156241
-0.816364 -0.544635 0.192151
-0.940968 -0.273036 0.200076
-0.938334 -0.281938 0.200099
0.969138 0.200681 0.143177
0.754497 0.635194 0.165116
0.762005 0.626186 0.165042
0.371550 0.916392 0.148920
0.762005 0.626186 0.165042
0.754497 0.635194 0.165116
0.567321 -0.798017 -0.203262
0.983570 -0.166925 -0.068744
0.983875 -0.165198 -0.068551
0.973879 0.226096 -0.020972
0.983875 -0.165198 -0.068551
0.983570 -0.166925 -0.068744
0.972893 -0.095077 0.210806
0.958039 0.158823 0.238613
0.960384 0.144442 0.238324
0.887392 0.421307 0.187178
0.960384 0.144442 0.238324
0.958039 0.158823 0.238613
-0.242527 -0.965042 0.099375
-0.286069 -0.953967 0.090063
-0.210064 -0.971556 0.109322
0.591397 -0.781124 -0.200240
0.150426 -0.985838 -0.074137
0.155877 -0.984876 -0.075648
-0.714944 -0.666588 0.210990
-0.498349 -0.839559 0.216307
-0.494200 -0.842023 0.216251
</float_array>
          <technique_common>
            <accessor source="#SM_Coral_Table_Acropora_05_LOD1-Normal0-array" count="576" stride="3">
              <param name="X" type="float"/>
              <param name="Y" type="float"/>
              <param name="Z" type="float"/>
            </accessor>
          </technique_common>
        </source>
        <source id="SM_Coral_Table_Acropora_05_LOD1-UV0">
          <float_array id="SM_Coral_Table_Acropora_05_LOD1-UV0-array" count="256">
0.542969 0.328125
0.550293 0.241699
0.412598 0.296875
0.464111 0.309570
0.438477 0.231445
0.436523 0.327148
0.469971 0.341309
0.500000 0.207031
0.488037 0.271973
0.445068 0.298828
0.562500 0.270020
0.447266 0.209473
0.418945 0.275391
0.419189 0.249512
0.469727 0.282227
0.428955 0.302734
0.525391 0.270996
0.458496 0.301270
0.491943 0.348145
0.524414 0.339355
0.442627 0.314453
0.451660 0.291992
0.467773 0.240723
0.440674 0.333496
0.548340 0.302734
0.449951 0.281250
0.459961 0.311523
0.479004 0.306641
0.531738 0.227539
0.436279 0.296387
0.457275 0.342285
0.429199 0.235352
0.554199 0.261230
0.531250 0.332031
0.415527 0.265137
0.463379 0.302246
0.419678 0.302734
0.473389 0.205566
0.548340 0.320313
0.519043 0.256836
0.441406 0.217773
0.506348 0.305664
0.445557 0.334961
0.451904 0.268555
0.479736 0.346191
0.457764 0.296387
0.454590 0.310059
0.411621 0.290527
0.425293 0.243652
0.413818 0.282227
0.541504 0.236816
0.437988 0.320313
0.449463 0.338867
0.502441 0.245117
0.518066 0.287109
0.489990 0.310059
0.517090 0.218262
0.480713 0.238770
0.456787 0.257813
0.476074 0.290527
0.390490 0.000000
0.415081 0.000000
0.415081 0.050000
0.433853 0.000000
0.061754 0.050000
0.045921 0.050000
0.045921 0.000000
0.034364 0.000000
0.931668 0.000000
0.947524 0.000000
0.947524 0.050000
0.965179 0.000000
0.358246 0.050000
0.320537 0.050000
0.320537 0.000000
0.271052 0.000000
0.097112 0.000000
0.126613 0.000000
0.126613 0.050000
0.142592 0.000000
0.805694 0.000000
0.815378 0.000000
0.815378 0.050000
0.829169 0.000000
0.650451 0.050000
0.712842 0.000000
0.712842 0.050000
0.735874 0.050000
0.017216 0.050000
0.000000 0.050000
0.000000 0.000000
0.981768 0.000000
1.000000 0.000000
1.000000 0.050000
0.608932 0.050000
0.631998 0.000000
0.631998 0.050000
0.756025 0.050000
0.779668 0.000000
0.779668 0.050000
0.795253 0.050000
0.077421 0.050000
0.077421 0.000000
0.890276 0.000000
0.900055 0.000000
0.900055 0.050000
0.913715 0.000000
0.470954 0.000000
0.470954 0.050000
0.493053 0.000000
0.805694 0.050000
0.591394 0.050000
0.608932 0.000000
0.841796 0.050000
0.856019 0.000000
0.856019 0.050000
0.879932 0.050000
0.222754 0.050000
0.222754 0.000000
0.203915 0.000000
0.922960 0.000000
0.922960 0.050000
0.061754 0.000000
0.017216 0.000000
0.390490 0.050000
0.433853 0.050000
0.493053 0.050000
0.558986 0.050000
</float_array>
          <technique_common>
            <accessor source="#SM_Coral_Table_Acropora_05_LOD1-UV0-array" count="128" stride="2">
              <param name="S" type="float"/>
              <param name="T" type="float"/>
            </accessor>
          </technique_common>
        </source>
        <vertices id="SM_Coral_Table_Acropora_05_LOD1-VERTEX">
          <input semantic="POSITION" source="#SM_Coral_Table_Acropora_05_LOD1-POSITION"/>
        </vertices>
        <triangles count="192" material="MAT_Coral_Table">
          <input semantic="VERTEX" offset="0" source="#SM_Coral_Table_Acropora_05_LOD1-VERTEX"/>
          <input semantic="NORMAL" offset="1" source="#SM_Coral_Table_Acropora_05_LOD1-Normal0"/>
          <input semantic="TEXCOORD" offset="2" set="0" source="#SM_Coral_Table_Acropora_05_LOD1-UV0"/>
          <p> 59 0 41 64 1 54 8 2 8 9 3 8 65 4 54 48 5 41 66 6 55 59 7 41 8 8 8 9 9 8 70 10 57 63 11 53 55 12 47 24 13 21 29 14 25 86 15 13 51 16 43 39 17 34 75 18 6 22 19 20 54 20 46 54 21 46 22 22 20 6 23 6 9 24 8 48 25 41 67 26 55 87 27 18 59 28 41 66 29 55 88 30 7 69 31 57 62 32 53 63 33 53 70 34 57 7 35 7 62 36 53 69 37 57 8 38 8 39 39 34 50 40 43 14 41 13 30 42 25 76 43 21 77 44 47 79 45 3 73 46 59 32 47 27 16 48 14 93 49 45 76 50 21 24 51 21 53 52 45 15 53 14 28 54 24 18 55 16 11 56 10 88 57 7 62 58 53 68 59 56 80 60 37 25 61 22 12 62 11 4 63 4 71 64 58 26 65 22 57 66 49 30 67 25 77 68 47 55 69 47 29 70 25 57 71 49 56 72 48 71 73 58 36 74 31 36 75 31 72 76 58 56 77 48 26 78 22 71 79 58 8 80 8 8 81 8 74 82 59 43 83 27 9 84 8 72 85 58 25 86 22 32 87 27 73 88 59 9 89 8 77 90 47 94 91 29 17 92 15 82 93 15 34 94 29 55 95 47 68 96 56 63 97 53 7 98 7 37 99 32 46 100 39 2 101 1 40 102 35 73 103 59 79 104 3 3 105 3 74 106 59 40 107 35 75 108 6 79 109 3 32 110 27 87 111 18 66 112 55 96 113 44 48 114 41 65 115 54 89 116 38 44 117 38 64 118 54 59 119 41 22 120 20 60 121 51 6 122 6 75 123 6 60 124 51 22 125 20 2 126 1 45 127 39 81 128 32 11 129 10 23 130 16 83 131 24 77 132 47 76 133 21 94 134 29 34 135 29 24 136 21 55 137 47 47 138 40 25 139 22 90 140 4 25 141 22 72 142 58 90 143 4 4 144 4 26 145 22 47 146 40 12 147 11 26 148 22 42 149 37 78 150 42 5 151 5 75 152 6 6 153 6 91 154 5 49 155 42 83 156 24 64 157 54 44 158 38 89 159 38 65 160 54 28 161 24 29 162 25 24 163 21 15 164 14 8 165 8 29 166 25 15 167 14 16 168 14 76 169 21 30 170 25 16 171 14 30 172 25 9 173 8 75 174 6 31 175 26 79 176 3 3 177 3 31 178 26 6 179 6 52 180 44 67 181 55 20 182 18 67 183 55 48 184 41 20 185 18 84 186 28 45 187 39 58 188 50 58 189 50 46 190 39 33 191 28 94 192 29 76 193 21 10 194 9 10 195 9 24 196 21 34 197 29 35 198 30 78 199 42 75 200 6 6 201 6 49 202 42 95 203 30 90 204 4 72 205 58 36 206 31 36 207 31 71 208 58 4 209 4 81 210 32 23 211 16 11 212 10 11 213 10 18 214 16 37 215 32 20 216 18 48 217 41 21 218 19 97 219 19 59 220 41 87 221 18 39 222 34 51 223 43 92 224 12 13 225 12 50 226 43 39 227 34 73 228 59 40 229 35 85 230 17 19 231 17 40 232 35 74 233 59 41 234 36 82 235 15 0 236 2 0 237 2 17 238 15 41 239 36 7 240 7 70 241 57 80 242 37 42 243 37 69 244 57 88 245 7 43 246 27 3 247 3 6 248 6 43 249 27 74 250 59 3 251 3 1 252 0 48 253 41 89 254 38 44 255 38 59 256 41 1 257 0 23 258 16 45 259 39 8 260 8 81 261 32 45 262 39 23 263 16 9 264 8 46 265 39 18 266 16 18 267 16 46 268 39 37 269 32 47 270 40 26 271 22 12 272 11 12 273 11 25 274 22 47 275 40 21 276 19 48 277 41 38 278 33 38 279 33 48 280 41 1 281 0 5 282 5 78 283 42 27 284 23 27 285 23 49 286 42 91 287 5 50 288 43 29 289 25 8 290 8 13 291 12 29 292 25 50 293 43 9 294 8 30 295 25 51 296 43 51 297 43 30 298 25 92 299 12 75 300 6 67 301 55 52 302 44 96 303 44 66 304 55 6 305 6 16 306 14 85 307 17 93 308 45 53 309 45 19 310 17 15 311 14 75 312 6 54 313 46 31 314 26 31 315 26 54 316 46 6 317 6 77 318 47 17 319 15 0 320 2 0 321 2 82 322 15 55 323 47 56 324 48 72 325 58 86 326 13 14 327 13 71 328 58 56 329 48 92 330 12 30 331 25 57 332 49 57 333 49 29 334 25 13 335 12 2 336 1 46 337 39 58 338 50 58 339 50 45 340 39 2 341 1 38 342 33 59 343 41 97 344 19 1 345 0 59 346 41 38 347 33 60 348 51 91 349 5 6 350 6 75 351 6 5 352 5 60 353 51 78 354 42 35 355 30 61 356 52 61 357 52 95 358 30 49 359 42 45 360 39 62 361 53 8 362 8 84 363 28 62 364 53 45 365 39 9 366 8 63 367 53 46 368 39 46 369 39 63 370 53 33 371 28 64 372 54 23 373 16 8 374 8 83 375 24 23 376 16 64 377 54 9 378 8 18 379 16 65 380 54 65 381 54 18 382 16 28 383 24 66 384 55 8 385 8 43 386 27 66 387 55 43 388 27 6 389 6 32 390 27 9 391 8 67 392 55 75 393 6 32 394 27 67 395 55 68 396 56 62 397 53 84 398 28 33 399 28 63 400 53 68 401 56 69 402 57 26 403 22 8 404 8 42 405 37 26 406 22 69 407 57 9 408 8 25 409 22 70 410 57 70 411 57 25 412 22 80 413 37 71 414 58 50 415 43 8 416 8 14 417 13 50 418 43 71 419 58 9 420 8 51 421 43 72 422 58 72 423 58 51 424 43 86 425 13 9 426 8 73 427 59 16 428 14 73 429 59 85 430 17 16 431 14 15 432 14 74 433 59 8 434 8 15 435 14 19 436 17 74 437 59 6 438 62 95 439 124 35 440 60 35 441 60 75 442 61 6 443 62 75 444 61 52 445 63 96 446 125 75 447 61 96 448 125 6 449 62 93 450 122 24 451 65 76 452 66 24 453 65 93 454 122 53 455 64 10 456 67 76 457 66 24 458 65 57 459 68 77 460 69 55 461 70 0 462 71 55 463 70 77 464 69 61 465 72 49 466 73 78 467 74 27 468 75 78 469 74 49 470 73 40 471 76 79 472 77 3 473 78 31 474 79 3 475 78 79 476 77 42 477 82 7 478 80 80 479 81 7 480 80 42 481 82 88 482 110 12 483 83 42 484 82 80 485 81 11 486 84 37 487 85 81 488 86 2 489 87 81 490 86 37 491 85 17 492 90 94 493 123 34 494 88 17 495 90 34 496 88 82 497 89 41 498 91 17 499 92 82 500 93 83 501 96 89 502 112 28 503 95 89 504 112 83 505 96 44 506 94 11 507 84 83 508 96 28 509 95 58 510 97 33 511 98 84 512 99 68 513 100 84 514 99 33 515 98 40 516 76 19 517 101 85 518 102 85 519 102 53 520 64 93 521 122 53 522 64 85 523 102 19 524 101 56 525 103 86 526 104 14 527 105 39 528 106 14 529 105 86 530 104 87 531 108 96 532 125 52 533 63 52 534 63 20 535 107 87 536 108 21 537 109 87 538 108 20 539 107 87 540 108 21 541 109 97 542 126 68 543 100 7 544 80 88 545 110 1 546 111 89 547 112 44 548 94 47 549 113 90 550 114 4 551 115 36 552 116 4 553 115 90 554 114 27 555 75 91 556 117 5 557 118 60 558 119 5 559 118 91 560 117 39 561 106 92 562 120 13 563 121 57 564 68 13 565 121 92 566 120 10 567 67 34 568 88 94 569 123 61 570 72 35 571 60 95 572 124 38 573 127 97 574 126 21 575 109</p>
        </triangles>
      </mesh>
    </geometry>
    <geometry id="SM_Coral_Table_Acropora_05_LOD2-lib" name="SM_Coral_Table_Acropora_05_LOD2Mesh">
      <mesh>
        <source id="SM_Coral_Table_Acropora_05_LOD2-POSITION">
          <float_array id="SM_Coral_Table_Acropora_05_LOD2-POSITION-array" count="360">
26.039932 -6.956116 7.620982
-19.566864 -17.906189 6.956572
-22.033936 12.319702 7.002615
8.113373 -11.431396 3.975514
16.991135 15.825378 7.179213
17.693268 -17.503845 5.520047
6.025375 -22.472107 5.414908
-4.457153 24.275330 7.972218
-0.270691 1.746155 0.000000
-0.271622 1.731445 0.199455
14.749161 -7.586609 6.788515
-26.385239 2.443726 6.586598
13.904022 23.444519 7.158063
23.876968 0.498047 7.703907
23.810486 9.484253 7.426856
6.119583 -1.862427 3.929144
6.075287 -1.796265 4.112613
20.291672 -9.069763 7.019938
-13.315521 2.088074 5.076801
10.033234 -8.482361 4.283948
-1.612061 -24.811584 6.690178
-13.011993 -21.780579 7.152822
15.584396 -13.023682 5.785782
-13.360718 2.107605 4.882957
12.470062 -5.354004 5.823728
6.816193 12.583496 5.586611
6.831985 12.627319 5.392118
16.281876 -19.681396 5.245762
-21.357025 -8.986938 7.008535
13.084991 -1.564270 4.751127
13.042328 -1.537415 4.944674
9.509125 -12.073730 5.133435
2.857864 -10.050842 3.875401
-15.574158 17.127686 8.088754
17.771378 -6.780640 6.979668
10.462692 -22.831299 5.190857
20.273911 14.496582 7.165678
-23.427933 5.418945 6.892192
-15.414581 -19.265320 6.958148
24.986115 4.028137 7.840229
8.299088 -8.839539 4.331898
23.537888 -8.993164 7.278930
4.865860 24.849854 7.230820
2.874603 -10.080078 3.678260
-21.422974 -15.133179 6.930640
-11.179718 7.064941 5.636770
-11.147568 7.013367 5.827308
16.032898 20.573792 7.009831
-6.641815 -10.021851 4.241686
14.525375 -20.210632 4.942159
12.411774 2.890564 4.787651
12.357239 2.874268 4.979382
2.659805 -24.176819 6.107862
10.308792 -6.837280 4.444587
11.402115 -11.523376 5.052377
26.385223 -4.793335 7.565884
21.604752 11.576782 7.504532
25.581528 -1.904907 7.860465
-18.889145 13.932434 7.469547
-6.671738 -10.057678 4.047213
17.160507 -15.187073 5.756981
13.157516 -21.655396 4.889927
-5.397369 11.154358 6.230234
-5.370026 11.095032 6.419272
-10.867279 -3.638184 4.214550
-10.814331 -3.625000 4.406961
-0.949921 -11.580322 3.834832
6.025375 -22.472107 5.414908
15.584396 -13.023682 5.785782
15.584396 -13.023682 5.785782
6.025375 -22.472107 5.414908
26.385223 -4.793335 7.565884
12.470062 -5.354004 5.823728
12.470062 -5.354004 5.823728
26.385223 -4.793335 7.565884
6.025375 -22.472107 5.414908
8.113373 -11.431396 3.975514
14.525375 -20.210632 4.942159
6.025375 -22.472107 5.414908
6.025375 -22.472107 5.414908
14.525375 -20.210632 4.942159
8.113373 -11.431396 3.975514
6.025375 -22.472107 5.414908
17.693268 -17.503845 5.520047
14.525375 -20.210632 4.942159
14.525375 -20.210632 4.942159
17.693268 -17.503845 5.520047
6.025375 -22.472107 5.414908
11.402115 -11.523376 5.052377
11.402115 -11.523376 5.052377
6.025375 -22.472107 5.414908
26.385223 -4.793335 7.565884
20.291672 -9.069763 7.019938
26.039932 -6.956116 7.620982
20.291672 -9.069763 7.019938
17.693268 -17.503845 5.520047
6.025375 -22.472107 5.414908
6.025375 -22.472107 5.414908
17.693268 -17.503845 5.520047
26.039932 -6.956116 7.620982
6.025375 -22.472107 5.414908
20.291672 -9.069763 7.019938
12.470062 -5.354004 5.823728
16.281876 -19.681396 5.245762
9.509125 -12.073730 5.133435
17.771378 -6.780640 6.979668
10.462692 -22.831299 5.190857
2.874603 -10.080078 3.678260
14.525375 -20.210632 4.942159
26.385223 -4.793335 7.565884
17.160507 -15.187073 5.756981
6.025375 -22.472107 5.414908
9.509125 -12.073730 5.133435
17.771378 -6.780640 6.979668
10.462692 -22.831299 5.190857
26.385223 -4.793335 7.565884
17.160507 -15.187073 5.756981
9.509125 -12.073730 5.133435
17.771378 -6.780640 6.979668
17.160507 -15.187073 5.756981
</float_array>
          <technique_common>
            <accessor source="#SM_Coral_Table_Acropora_05_LOD2-POSITION-array" count="120" stride="3">
              <param name="X" type="float"/>
              <param name="Y" type="float"/>
              <param name="Z" type="float"/>
            </accessor>
          </technique_common>
        </source>
        <source id="SM_Coral_Table_Acropora_05_LOD2-Normal0">
          <float_array id="SM_Coral_Table_Acropora_05_LOD2-Normal0-array" count="1170">
-0.148763 -0.184658 -0.971479
-0.269870 -0.065474 -0.960668
0.005659 0.084967 -0.996368
-0.005478 -0.080712 0.996723
0.263449 0.062661 0.962636
0.122201 0.178436 0.976334
-0.043367 -0.218573 -0.974856
-0.148763 -0.184658 -0.971479
0.005659 0.084967 -0.996368
-0.005478 -0.080712 0.996723
-0.058330 -0.198656 0.978332
0.118579 -0.289531 0.949795
0.861873 -0.492981 0.118926
0.061798 -0.951412 0.301655
0.212803 -0.136539 -0.967508
0.860136 0.491261 0.137214
-0.255435 -0.096937 0.961954
0.973163 -0.023772 0.228887
1.000000 0.000000 0.000000
1.000000 0.000000 0.000000
1.000000 0.000000 0.000000
1.000000 0.000000 0.000000
1.000000 0.000000 0.000000
1.000000 0.000000 0.000000
-0.005478 -0.080712 0.996723
0.122201 0.178436 0.976334
-0.028176 0.148702 0.988481
-0.298121 -0.931013 0.210568
-0.148763 -0.184658 -0.971479
-0.043367 -0.218573 -0.974856
-0.266530 0.952611 0.146611
0.063634 0.206785 -0.976315
-0.122152 0.297202 -0.946969
0.118579 -0.289531 0.949795
-0.058330 -0.198656 0.978332
-0.266530 0.952611 0.146611
-0.122152 0.297202 -0.946969
0.063634 0.206785 -0.976315
0.005659 0.084967 -0.996368
0.973163 -0.023772 0.228887
0.263179 0.099213 -0.959632
0.860136 0.491261 0.137214
-0.206776 0.114542 0.971660
0.061798 -0.951412 0.301655
0.861873 -0.492981 0.118926
-0.234791 0.167925 0.957431
-0.233026 0.319637 0.918440
-0.028176 0.148702 0.988481
-0.233026 0.319637 0.918440
0.917066 -0.393726 0.063006
0.061798 -0.951412 0.301655
0.061798 -0.951412 0.301655
0.917066 -0.393726 0.063006
0.239403 -0.321378 -0.916189
-0.951486 -0.152704 0.267125
0.223022 -0.098330 0.969841
-0.987230 0.141460 0.073250
-0.266530 0.952611 0.146611
-0.122152 0.297202 -0.946969
-0.611540 0.763310 0.208272
0.034334 0.994002 0.103831
-0.058330 -0.198656 0.978332
0.521347 0.845765 0.113484
0.813147 0.533311 0.233177
0.263179 0.099213 -0.959632
0.063634 0.206785 -0.976315
0.887802 0.360738 0.285790
-0.206776 0.114542 0.971660
0.861873 -0.492981 0.118926
0.861873 -0.492981 0.118926
0.212803 -0.136539 -0.967508
0.887802 0.360738 0.285790
0.783691 0.550638 0.287446
0.263179 0.099213 -0.959632
0.657634 0.744858 0.112712
0.657634 0.744858 0.112712
-0.255435 -0.096937 0.961954
0.783691 0.550638 0.287446
0.063634 0.206785 -0.976315
0.263179 0.099213 -0.959632
0.005659 0.084967 -0.996368
0.005659 0.084967 -0.996368
0.239403 -0.321378 -0.916189
0.104226 -0.147126 -0.983611
-0.005478 -0.080712 0.996723
-0.255435 -0.096937 0.961954
-0.058330 -0.198656 0.978332
-0.028176 0.148702 0.988481
-0.233026 0.319637 0.918440
-0.005478 -0.080712 0.996723
1.000000 0.000000 0.000000
0.894427 -0.447214 0.000000
0.894427 -0.447214 0.000000
0.894427 -0.447214 0.000000
0.894427 -0.447214 0.000000
1.000000 0.000000 0.000000
-0.611540 0.763310 0.208272
0.118579 -0.289531 0.949795
-0.266530 0.952611 0.146611
-0.827893 0.508893 0.235840
0.157219 -0.255842 0.953849
-0.823077 0.563965 0.066987
0.832324 -0.337562 0.439646
-0.233026 0.319637 0.918440
-0.234791 0.167925 0.957431
-0.234791 0.167925 0.957431
0.239403 -0.321378 -0.916189
0.832324 -0.337562 0.439646
-0.011834 0.035101 0.999314
-0.234791 0.167925 0.957431
-0.028176 0.148702 0.988481
-0.298121 -0.931013 0.210568
-0.043367 -0.218573 -0.974856
0.299324 -0.943723 0.140688
0.122201 0.178436 0.976334
0.263449 0.062661 0.962636
-0.920913 -0.355514 0.159781
-0.920913 -0.355514 0.159781
-0.269870 -0.065474 -0.960668
-0.148763 -0.184658 -0.971479
0.014900 0.024162 -0.999597
0.014900 0.024162 -0.999597
0.014900 0.024162 -0.999597
-0.014900 -0.024162 0.999597
-0.014900 -0.024162 0.999597
-0.014900 -0.024162 0.999597
-0.823077 0.563965 0.066987
-0.164643 0.261402 -0.951084
-0.827893 0.508893 0.235840
-0.987230 0.141460 0.073250
-0.232611 0.098522 -0.967567
-0.951486 -0.152704 0.267125
-0.130374 0.284977 0.949627
-0.130374 0.284977 0.949627
-0.130374 0.284977 0.949627
0.130374 -0.284977 -0.949627
0.130374 -0.284977 -0.949627
0.130374 -0.284977 -0.949627
0.897932 0.430607 0.091078
-0.058330 -0.198656 0.978332
0.813147 0.533311 0.233177
-0.058330 -0.198656 0.978332
-0.255435 -0.096937 0.961954
0.813147 0.533311 0.233177
0.813147 0.533311 0.233177
0.063634 0.206785 -0.976315
0.897932 0.430607 0.091078
0.521347 0.845765 0.113484
0.063634 0.206785 -0.976315
0.034334 0.994002 0.103831
-0.707107 0.707107 0.000000
-0.242536 0.970143 0.000000
-0.242536 0.970143 0.000000
-0.242536 0.970143 0.000000
-0.242536 0.970143 0.000000
-0.707107 0.707107 0.000000
-0.951486 -0.152704 0.267125
-0.269870 -0.065474 -0.960668
-0.920913 -0.355514 0.159781
-0.920913 -0.355514 0.159781
0.263449 0.062661 0.962636
-0.951486 -0.152704 0.267125
0.212803 -0.136539 -0.967508
0.061798 -0.951412 0.301655
0.239403 -0.321378 -0.916189
0.005659 0.084967 -0.996368
0.212803 -0.136539 -0.967508
0.239403 -0.321378 -0.916189
-0.233026 0.319637 0.918440
0.061798 -0.951412 0.301655
-0.206776 0.114542 0.971660
-0.233026 0.319637 0.918440
-0.206776 0.114542 0.971660
-0.005478 -0.080712 0.996723
-0.011834 0.035101 0.999314
-0.564841 0.210834 0.797812
-0.234791 0.167925 0.957431
0.564841 -0.210834 -0.797812
0.564841 -0.210834 -0.797812
0.564841 -0.210834 -0.797812
0.299324 -0.943723 0.140688
-0.028176 0.148702 0.988481
-0.298121 -0.931013 0.210568
-0.028176 0.148702 0.988481
0.122201 0.178436 0.976334
-0.298121 -0.931013 0.210568
-0.611540 0.763310 0.208272
-0.164643 0.261402 -0.951084
-0.576173 0.787806 0.217684
-0.576173 0.787806 0.217684
0.157219 -0.255842 0.953849
-0.611540 0.763310 0.208272
0.000000 1.000000 0.000000
0.000000 1.000000 0.000000
0.000000 1.000000 0.000000
0.000000 1.000000 0.000000
0.000000 1.000000 0.000000
0.000000 1.000000 0.000000
0.051614 0.014748 0.998558
0.051614 0.014748 0.998558
0.051614 0.014748 0.998558
-0.051614 -0.014748 -0.998558
-0.051614 -0.014748 -0.998558
-0.051614 -0.014748 -0.998558
0.813147 0.533311 0.233177
-0.255435 -0.096937 0.961954
0.657634 0.744858 0.112712
0.657634 0.744858 0.112712
0.263179 0.099213 -0.959632
0.813147 0.533311 0.233177
-0.827893 0.508893 0.235840
-0.232611 0.098522 -0.967567
-0.987230 0.141460 0.073250
-0.987230 0.141460 0.073250
0.223022 -0.098330 0.969841
-0.827893 0.508893 0.235840
-0.298121 -0.931013 0.210568
0.122201 0.178436 0.976334
-0.493919 -0.842955 0.213238
-0.493919 -0.842955 0.213238
-0.148763 -0.184658 -0.971479
-0.298121 -0.931013 0.210568
0.973163 -0.023772 0.228887
-0.255435 -0.096937 0.961954
0.929874 0.208553 0.303052
0.929874 0.208553 0.303052
0.263179 0.099213 -0.959632
0.973163 -0.023772 0.228887
-0.233026 0.319637 0.918440
0.832324 -0.337562 0.439646
0.673956 -0.738751 0.005486
0.673956 -0.738751 0.005486
0.832324 -0.337562 0.439646
0.239403 -0.321378 -0.916189
-0.707107 -0.707107 0.000000
-0.447214 -0.894427 0.000000
-0.707107 -0.707107 0.000000
-0.707107 -0.707107 0.000000
-0.447214 -0.894427 0.000000
-0.707107 -0.707107 0.000000
-0.266530 0.952611 0.146611
-0.058330 -0.198656 0.978332
0.034334 0.994002 0.103831
0.034334 0.994002 0.103831
0.063634 0.206785 -0.976315
-0.266530 0.952611 0.146611
0.021835 -0.133306 -0.990834
0.021835 -0.133306 -0.990834
0.021835 -0.133306 -0.990834
0.104226 -0.147126 -0.983611
0.239403 -0.321378 -0.916189
-0.234791 0.167925 0.957431
-0.642139 -0.748721 0.164541
0.122201 0.178436 0.976334
-0.920913 -0.355514 0.159781
-0.920913 -0.355514 0.159781
-0.148763 -0.184658 -0.971479
-0.642139 -0.748721 0.164541
-0.232611 0.098522 -0.967567
-0.164643 0.261402 -0.951084
0.005659 0.084967 -0.996368
-0.827893 0.508893 0.235840
-0.164643 0.261402 -0.951084
-0.232611 0.098522 -0.967567
-0.005478 -0.080712 0.996723
0.157219 -0.255842 0.953849
0.223022 -0.098330 0.969841
0.223022 -0.098330 0.969841
0.157219 -0.255842 0.953849
-0.827893 0.508893 0.235840
0.897932 0.430607 0.091078
0.063634 0.206785 -0.976315
0.521347 0.845765 0.113484
0.521347 0.845765 0.113484
-0.058330 -0.198656 0.978332
0.897932 0.430607 0.091078
-0.493919 -0.842955 0.213238
0.122201 0.178436 0.976334
-0.491736 -0.834264 0.249397
-0.491736 -0.834264 0.249397
0.122201 0.178436 0.976334
-0.642139 -0.748721 0.164541
-0.165299 -0.017069 0.986096
-0.165299 -0.017069 0.986096
-0.165299 -0.017069 0.986096
0.165299 0.017069 -0.986096
0.165299 0.017069 -0.986096
0.165299 0.017069 -0.986096
0.263179 0.099213 -0.959632
0.212803 -0.136539 -0.967508
0.005659 0.084967 -0.996368
0.929874 0.208553 0.303052
0.212803 -0.136539 -0.967508
0.263179 0.099213 -0.959632
-0.005478 -0.080712 0.996723
-0.206776 0.114542 0.971660
-0.255435 -0.096937 0.961954
-0.255435 -0.096937 0.961954
-0.206776 0.114542 0.971660
0.929874 0.208553 0.303052
-0.011834 0.035101 0.999314
-0.028176 0.148702 0.988481
0.299324 -0.943723 0.140688
0.299324 -0.943723 0.140688
-0.043367 -0.218573 -0.974856
-0.011834 0.035101 0.999314
-0.233026 0.319637 0.918440
0.673956 -0.738751 0.005486
0.917066 -0.393726 0.063006
0.917066 -0.393726 0.063006
0.673956 -0.738751 0.005486
0.239403 -0.321378 -0.916189
0.038689 0.014084 0.999152
0.038689 0.014084 0.999152
0.038689 0.014084 0.999152
-0.038689 -0.014084 -0.999152
-0.038689 -0.014084 -0.999152
-0.038689 -0.014084 -0.999152
-0.120038 0.044430 0.991775
-0.120038 0.044430 0.991775
-0.120038 0.044430 0.991775
0.120038 -0.044430 -0.991775
0.120038 -0.044430 -0.991775
0.120038 -0.044430 -0.991775
0.783691 0.550638 0.287446
-0.255435 -0.096937 0.961954
0.860136 0.491261 0.137214
0.860136 0.491261 0.137214
0.263179 0.099213 -0.959632
0.783691 0.550638 0.287446
0.929874 0.208553 0.303052
-0.206776 0.114542 0.971660
0.887802 0.360738 0.285790
0.887802 0.360738 0.285790
0.212803 -0.136539 -0.967508
0.929874 0.208553 0.303052
-0.823077 0.563965 0.066987
0.157219 -0.255842 0.953849
-0.576173 0.787806 0.217684
-0.576173 0.787806 0.217684
-0.164643 0.261402 -0.951084
-0.823077 0.563965 0.066987
-0.491736 -0.834264 0.249397
-0.148763 -0.184658 -0.971479
-0.493919 -0.842955 0.213238
-0.642139 -0.748721 0.164541
-0.148763 -0.184658 -0.971479
-0.491736 -0.834264 0.249397
-0.031299 0.094563 -0.995027
-0.031299 0.094563 -0.995027
-0.031299 0.094563 -0.995027
0.031299 -0.094563 0.995027
0.031299 -0.094563 0.995027
0.031299 -0.094563 0.995027
-0.206529 0.229918 -0.951044
-0.206529 0.229918 -0.951044
-0.206529 0.229918 -0.951044
-0.206529 0.229918 -0.951044
-0.206529 0.229918 -0.951044
-0.206529 0.229918 -0.951044
-0.164643 0.261402 -0.951084
-0.122152 0.297202 -0.946969
0.005659 0.084967 -0.996368
-0.611540 0.763310 0.208272
-0.122152 0.297202 -0.946969
-0.164643 0.261402 -0.951084
-0.005478 -0.080712 0.996723
0.118579 -0.289531 0.949795
0.157219 -0.255842 0.953849
0.157219 -0.255842 0.953849
0.118579 -0.289531 0.949795
-0.611540 0.763310 0.208272
-0.269870 -0.065474 -0.960668
-0.232611 0.098522 -0.967567
0.005659 0.084967 -0.996368
-0.951486 -0.152704 0.267125
-0.232611 0.098522 -0.967567
-0.269870 -0.065474 -0.960668
-0.005478 -0.080712 0.996723
0.223022 -0.098330 0.969841
0.263449 0.062661 0.962636
0.263449 0.062661 0.962636
0.223022 -0.098330 0.969841
-0.951486 -0.152704 0.267125
-0.043367 -0.218573 -0.974856
0.005659 0.084967 -0.996368
0.104226 -0.147126 -0.983611
-0.043367 -0.218573 -0.974856
0.104226 -0.147126 -0.983611
-0.011834 0.035101 0.999314
</float_array>
          <technique_common>
            <accessor source="#SM_Coral_Table_Acropora_05_LOD2-Normal0-array" count="390" stride="3">
              <param name="X" type="float"/>
              <param name="Y" type="float"/>
              <param name="Z" type="float"/>
            </accessor>
          </technique_common>
        </source>
        <source id="SM_Coral_Table_Acropora_05_LOD2-UV0">
          <float_array id="SM_Coral_Table_Acropora_05_LOD2-UV0-array" count="112">
0.542969 0.328125
0.550293 0.241699
0.412598 0.296875
0.464111 0.309570
0.438477 0.231445
0.436523 0.327148
0.469971 0.341309
0.500000 0.207031
0.488037 0.271973
0.445068 0.298828
0.562500 0.270020
0.447266 0.209473
0.418945 0.275391
0.419189 0.249512
0.469727 0.282227
0.428955 0.302734
0.525391 0.270996
0.458496 0.301270
0.491943 0.348145
0.524414 0.339355
0.442627 0.314453
0.451660 0.291992
0.467773 0.240723
0.440674 0.333496
0.548340 0.302734
0.449951 0.281250
0.459961 0.311523
0.479004 0.306641
0.531738 0.227539
0.436279 0.296387
0.457275 0.342285
0.429199 0.235352
0.554199 0.261230
0.531250 0.332031
0.415527 0.265137
0.463379 0.302246
0.419678 0.302734
0.473389 0.205566
0.548340 0.320313
0.519043 0.256836
0.441406 0.217773
0.506348 0.305664
0.445557 0.334961
0.451904 0.268555
0.479736 0.346191
0.457764 0.296387
0.454590 0.310059
0.411621 0.290527
0.425293 0.243652
0.413818 0.282227
0.541504 0.236816
0.437988 0.320313
0.449463 0.338867
0.502441 0.245117
0.518066 0.287109
0.489990 0.310059
</float_array>
          <technique_common>
            <accessor source="#SM_Coral_Table_Acropora_05_LOD2-UV0-array" count="56" stride="2">
              <param name="S" type="float"/>
              <param name="T" type="float"/>
            </accessor>
          </technique_common>
        </source>
        <vertices id="SM_Coral_Table_Acropora_05_LOD2-VERTEX">
          <input semantic="POSITION" source="#SM_Coral_Table_Acropora_05_LOD2-POSITION"/>
        </vertices>
        <triangles count="130" material="MAT_Coral_Table">
          <input semantic="VERTEX" offset="0" source="#SM_Coral_Table_Acropora_05_LOD2-VERTEX"/>
          <input semantic="NORMAL" offset="1" source="#SM_Coral_Table_Acropora_05_LOD2-Normal0"/>
          <input semantic="TEXCOORD" offset="2" set="0" source="#SM_Coral_Table_Acropora_05_LOD2-UV0"/>
          <p> 59 0 41 64 1 54 8 2 8 9 3 8 65 4 54 48 5 41 66 6 55 59 7 41 8 8 8 9 9 8 25 10 22 63 11 53 109 12 47 24 13 21 29 14 25 14 15 13 51 16 43 39 17 34 100 18 6 22 19 20 54 20 46 54 21 46 22 22 20 100 23 6 9 24 8 48 25 41 32 26 27 20 27 18 59 28 41 66 29 55 7 30 7 26 31 22 62 32 53 63 33 53 25 34 22 7 35 7 62 36 53 26 37 22 8 38 8 39 39 34 50 40 43 14 41 13 30 42 25 24 43 21 109 44 47 3 45 3 16 46 14 32 47 27 16 48 14 53 49 45 24 50 21 24 51 21 53 52 45 15 53 14 28 54 24 18 55 16 11 56 10 7 57 7 62 58 53 33 59 28 42 60 37 25 61 22 12 62 11 4 63 4 50 64 43 26 65 22 57 66 49 30 67 25 109 68 47 109 69 47 29 70 25 57 71 49 56 72 48 50 73 43 36 74 31 36 75 31 51 76 43 56 77 48 26 78 22 50 79 43 8 80 8 8 81 8 15 82 14 107 83 27 9 84 8 51 85 43 25 86 22 32 87 27 16 88 14 9 89 8 115 90 47 113 91 29 17 92 15 17 93 15 113 94 29 115 95 47 33 96 28 63 97 53 7 98 7 37 99 32 46 100 39 2 101 1 40 102 35 16 103 14 3 104 3 3 105 3 15 106 14 40 107 35 6 108 6 3 109 3 32 110 27 20 111 18 66 112 55 52 113 44 48 114 41 65 115 54 44 116 38 44 117 38 64 118 54 59 119 41 68 120 20 60 121 51 67 122 6 70 123 6 110 124 51 69 125 20 2 126 1 45 127 39 37 128 32 11 129 10 23 130 16 28 131 24 71 132 47 72 133 21 34 134 29 105 135 29 73 136 21 74 137 47 47 138 40 25 139 22 4 140 4 25 141 22 51 142 43 4 143 4 4 144 4 26 145 22 47 146 40 12 147 11 26 148 22 42 149 37 49 150 42 5 151 5 111 152 6 111 153 6 5 154 5 49 155 42 28 156 24 64 157 54 44 158 38 44 159 38 65 160 54 28 161 24 29 162 25 24 163 21 15 164 14 8 165 8 29 166 25 15 167 14 16 168 14 24 169 21 30 170 25 16 171 14 30 172 25 9 173 8 6 174 6 31 175 26 3 176 3 76 177 3 104 178 26 75 179 6 52 180 44 32 181 27 20 182 18 32 183 27 48 184 41 20 185 18 33 186 28 45 187 39 58 188 50 58 189 50 46 190 39 33 191 28 118 192 29 102 193 21 10 194 9 10 195 9 102 196 21 118 197 29 35 198 30 77 199 42 78 200 6 79 201 6 80 202 42 106 203 30 4 204 4 51 205 43 36 206 31 36 207 31 50 208 43 4 209 4 37 210 32 23 211 16 11 212 10 11 213 10 18 214 16 37 215 32 20 216 18 48 217 41 21 218 19 21 219 19 59 220 41 20 221 18 39 222 34 51 223 43 13 224 12 13 225 12 50 226 43 39 227 34 16 228 14 40 229 35 19 230 17 19 231 17 40 232 35 15 233 14 41 234 36 101 235 15 99 236 2 99 237 2 101 238 15 41 239 36 7 240 7 25 241 22 42 242 37 42 243 37 26 244 22 7 245 7 43 246 27 81 247 3 82 248 6 107 249 27 15 250 14 3 251 3 1 252 0 48 253 41 44 254 38 44 255 38 59 256 41 1 257 0 23 258 16 45 259 39 8 260 8 37 261 32 45 262 39 23 263 16 9 264 8 46 265 39 18 266 16 18 267 16 46 268 39 37 269 32 47 270 40 26 271 22 12 272 11 12 273 11 25 274 22 47 275 40 21 276 19 48 277 41 38 278 33 38 279 33 48 280 41 1 281 0 83 282 5 84 283 42 27 284 23 103 285 23 85 286 42 86 287 5 50 288 43 29 289 25 8 290 8 13 291 12 29 292 25 50 293 43 9 294 8 30 295 25 51 296 43 51 297 43 30 298 25 13 299 12 6 300 6 32 301 27 52 302 44 52 303 44 66 304 55 6 305 6 16 306 14 19 307 17 53 308 45 53 309 45 19 310 17 15 311 14 87 312 6 88 313 46 112 314 26 117 315 26 89 316 46 90 317 6 91 318 47 92 319 15 0 320 2 93 321 2 94 322 15 55 323 47 56 324 48 51 325 43 14 326 13 14 327 13 50 328 43 56 329 48 13 330 12 30 331 25 57 332 49 57 333 49 29 334 25 13 335 12 2 336 1 46 337 39 58 338 50 58 339 50 45 340 39 2 341 1 38 342 33 59 343 41 21 344 19 1 345 0 59 346 41 38 347 33 116 348 51 95 349 5 96 350 6 97 351 6 98 352 5 119 353 51 108 354 42 114 355 30 61 356 52 61 357 52 114 358 30 108 359 42 45 360 39 62 361 53 8 362 8 33 363 28 62 364 53 45 365 39 9 366 8 63 367 53 46 368 39 46 369 39 63 370 53 33 371 28 64 372 54 23 373 16 8 374 8 28 375 24 23 376 16 64 377 54 9 378 8 18 379 16 65 380 54 65 381 54 18 382 16 28 383 24 66 384 55 8 385 8 107 386 27 66 387 55 107 388 27 6 389 6</p>
        </triangles>
      </mesh>
    </geometry>
  </library_geometries>
  <library_visual_scenes>
    <visual_scene id="SM_Coral_Table_Acropora_05" name="SM_Coral_Table_Acropora_05">
      <node name="SM_Coral_Table_Acropora_05_LOD0" id="SM_Coral_Table_Acropora_05_LOD0" layer="urchin" sid="SM_Coral_Table_Acropora_05_LOD0">
        <matrix sid="matrix">1.000000 0.000000 0.000000 0.000000 0.000000 0.000000 1.000000 0.000000 0.000000 -1.000000 0.000000 0.000000 0.000000 0.000000 0.000000 1.000000</matrix>
        <instance_geometry url="#SM_Coral_Table_Acropora_05_LOD0-lib">
          <bind_material>
            <technique_common>
              <instance_material symbol="MAT_Coral_Table" target="#MAT_Coral_Table"/>
            </technique_common>
          </bind_material>
        </instance_geometry>
        <extra>
          <technique profile="FCOLLADA">
            <visibility>1.000000</visibility>
          </technique>
        </extra>
      </node>
      <node name="SM_Coral_Table_Acropora_05_LOD1" id="SM_Coral_Table_Acropora_05_LOD1" layer="urchin" sid="SM_Coral_Table_Acropora_05_LOD1">
        <matrix sid="matrix">1.000000 0.000000 0.000000 0.000000 0.000000 0.000000 1.000000 0.000000 0.000000 -1.000000 0.000000 0.000000 0.000000 0.000000 0.000000 1.000000</matrix>
        <instance_geometry url="#SM_Coral_Table_Acropora_05_LOD1-lib">
          <bind_material>
            <technique_common>
              <instance_material symbol="MAT_Coral_Table" target="#MAT_Coral_Table"/>
            </technique_common>
          </bind_material>
        </instance_geometry>
        <extra>
          <technique profile="FCOLLADA">
            <visibility>1.000000</visibility>
          </technique>
        </extra>
      </node>
      <node name="SM_Coral_Table_Acropora_05_LOD2" id="SM_Coral_Table_Acropora_05_LOD2" layer="urchin" sid="SM_Coral_Table_Acropora_05_LOD2">
        <matrix sid="matrix">1.000000 0.000000 0.000000 0.000000 0.000000 0.000000 1.000000 0.000000 0.000000 -1.000000 0.000000 0.000000 0.000000 0.000000 0.000000 1.000000</matrix>
        <instance_geometry url="#SM_Coral_Table_Acropora_05_LOD2-lib">
          <bind_material>
            <technique_common>
              <instance_material symbol="MAT_Coral_Table" target="#MAT_Coral_Table"/>
            </technique_common>
          </bind_material>
        </instance_geometry>
        <extra>
          <technique profile="FCOLLADA">
            <visibility>1.000000</visibility>
          </technique>
        </extra>
      </node>
      <extra>
        <technique profile="MAX3D">
          <frame_rate>30.000000</frame_rate>
        </technique>
        <technique profile="FCOLLADA">
          <start_time>0.000000</start_time>
          <end_time>3.333333</end_time>
        </technique>
      </extra>
    </visual_scene>
  </library_visual_scenes>
  <scene>
    <instance_visual_scene url="#SM_Coral_Table_Acropora_05"/>
  </scene>
</COLLADA>
