<?xml version="1.0" encoding="utf-8"?>
<COLLADA xmlns="http://www.collada.org/2005/11/COLLADASchema" version="1.4.1">
  <asset>
    <contributor>
      <author/>
      <authoring_tool>FBX COLLADA exporter</authoring_tool>
      <comments/>
    </contributor>
    <created>2024-02-10T11:35:25Z</created>
    <keywords/>
    <modified>2024-02-10T11:35:25Z</modified>
    <revision/>
    <subject/>
    <title/>
    <unit meter="0.010000" name="centimeter"/>
    <up_axis>Y_UP</up_axis>
  </asset>
  <library_materials>
    <material id="MAT_Coral_Table" name="MAT_Coral_Table">
      <instance_effect url="#MAT_Coral_Table-fx"/>
    </material>
  </library_materials>
  <library_effects>
    <effect id="MAT_Coral_Table-fx" name="MAT_Coral_Table">
      <profile_COMMON>
        <technique sid="standard">
          <phong>
            <emission>
              <color sid="emission">0.000000  0.000000 0.000000 1.000000</color>
            </emission>
            <ambient>
              <color sid="ambient">0.149020  0.192157 0.149020 1.000000</color>
            </ambient>
            <diffuse>
              <color sid="diffuse">0.149020  0.192157 0.149020 1.000000</color>
            </diffuse>
            <specular>
              <color sid="specular">0.000000  0.000000 0.000000 1.000000</color>
            </specular>
            <shininess>
              <float sid="shininess">2.000000</float>
            </shininess>
            <reflective>
              <color sid="reflective">0.000000  0.000000 0.000000 1.000000</color>
            </reflective>
            <reflectivity>
              <float sid="reflectivity">1.000000</float>
            </reflectivity>
            <transparent opaque="RGB_ZERO">
              <color sid="transparent">1.000000  1.000000 1.000000 1.000000</color>
            </transparent>
            <transparency>
              <float sid="transparency">0.000000</float>
            </transparency>
          </phong>
        </technique>
      </profile_COMMON>
    </effect>
  </library_effects>
  <library_geometries>
    <geometry id="SM_Coral_Table_Acropora_07_LOD0-lib" name="SM_Coral_Table_Acropora_07_LOD0Mesh">
      <mesh>
        <source id="SM_Coral_Table_Acropora_07_LOD0-POSITION">
          <float_array id="SM_Coral_Table_Acropora_07_LOD0-POSITION-array" count="270">
-19.967834 -14.023804 7.807192
-18.152832 -18.428223 7.975837
-7.731506 24.879211 6.972791
10.269043 3.438599 6.678920
1.362976 -22.126099 8.526149
-5.839783 -25.079163 8.526149
19.841492 -16.032227 8.134977
-16.396484 16.641907 5.035676
-19.915039 12.046875 4.770701
-20.690125 7.348999 4.770702
-21.540710 2.193237 5.201214
-2.113770 -25.079163 8.526149
-11.113403 -9.919617 4.835608
-13.323303 -21.400452 8.271152
-7.153992 -11.683960 4.941704
-10.234009 -21.956848 8.406296
-3.093933 -13.245117 5.049126
4.635986 -22.837952 8.526149
0.280945 -12.124512 4.885844
10.225952 -20.668579 8.498385
14.751099 -20.137878 8.418515
21.550537 -11.282654 7.719052
19.751648 -3.512207 7.043814
15.543518 1.730164 6.792526
5.734741 0.159546 3.459709
7.107666 3.647217 6.376987
9.727112 8.928711 6.683283
8.883545 15.815674 7.104210
0.863647 9.379822 2.338633
5.801392 20.170654 7.251667
-1.595642 25.062927 7.241778
-2.834839 11.825928 1.969581
-12.287842 22.720215 6.321377
-12.609070 20.753784 5.941063
-11.994507 5.317932 2.391281
-17.482666 12.779907 4.770701
-19.019348 -1.015869 5.779847
-20.546692 -5.547668 6.660620
-13.097351 -2.805359 3.676681
-12.807373 0.391113 3.237240
-4.074036 -1.411072 0.198572
-8.180969 10.654602 1.709198
2.826538 3.758850 2.825824
8.738281 -6.346863 4.246242
5.338501 -10.774475 4.666713
-20.018738 -14.052551 7.615918
-18.186951 -18.471008 7.783466
-7.731995 24.950623 6.785979
10.303345 3.550415 6.516672
1.376831 -22.188171 8.336520
-5.853210 -25.134460 8.334414
19.874512 -16.071899 7.941762
-16.436035 16.689575 4.845506
-19.948669 12.076233 4.575746
-20.742676 7.349915 4.577742
-21.594788 2.159363 5.011649
-2.096313 -25.133972 8.334607
-11.153687 -9.971313 4.646635
-13.336243 -21.458191 8.080091
-7.176331 -11.749268 4.753998
-10.253113 -22.015259 8.215985
-3.093628 -13.310730 4.860191
4.642944 -22.899719 8.336051
0.293396 -12.195190 4.699171
10.236694 -20.733948 8.309691
14.770996 -20.192688 8.227208
21.594788 -11.304260 7.525202
19.799011 -3.504517 6.849651
15.591736 1.768494 6.602254
5.806274 0.197876 3.276917
7.201111 3.693665 6.206384
9.824524 8.932800 6.508649
8.958374 15.856384 6.923265
0.926147 9.409546 2.150979
5.856079 20.231750 7.069237
-1.572266 25.134521 7.056501
-2.811768 11.876770 1.777522
-12.308105 22.785217 6.133315
-12.665161 20.806519 5.756476
-12.048096 5.318542 2.198584
-17.515381 12.817627 4.577029
-19.083496 -1.059448 5.595502
-20.605591 -5.576599 6.471693
-13.163269 -2.837097 3.490543
-12.871094 0.366089 3.049325
-4.076416 -1.434814 -0.000000
-8.207886 10.692139 1.514611
2.911560 3.774048 2.645432
8.785339 -6.365845 4.052783
5.362061 -10.833313 4.477016
</float_array>
          <technique_common>
            <accessor source="#SM_Coral_Table_Acropora_07_LOD0-POSITION-array" count="90" stride="3">
              <param name="X" type="float"/>
              <param name="Y" type="float"/>
              <param name="Z" type="float"/>
            </accessor>
          </technique_common>
        </source>
        <source id="SM_Coral_Table_Acropora_07_LOD0-Normal0">
          <float_array id="SM_Coral_Table_Acropora_07_LOD0-Normal0-array" count="1584">
0.201141 0.258399 0.944866
0.254289 0.143843 0.956372
0.170513 0.213916 0.961855
0.064738 0.288429 0.955310
0.201141 0.258399 0.944866
0.170513 0.213916 0.961855
0.111556 0.326669 0.938532
0.201141 0.258399 0.944866
0.064738 0.288429 0.955310
0.095694 0.292225 0.951550
0.111556 0.326669 0.938532
0.064738 0.288429 0.955310
0.066890 0.276510 0.958680
0.111556 0.326669 0.938532
0.095694 0.292225 0.951550
-0.001357 0.327996 0.944678
0.111556 0.326669 0.938532
0.066890 0.276510 0.958680
-0.087382 0.274152 0.957708
-0.001357 0.327996 0.944678
0.066890 0.276510 0.958680
-0.069235 0.310204 0.948145
-0.001357 0.327996 0.944678
-0.087382 0.274152 0.957708
-0.062058 0.353512 0.933369
-0.001357 0.327996 0.944678
-0.069235 0.310204 0.948145
-0.034868 0.308792 0.950490
-0.062058 0.353512 0.933369
-0.069235 0.310204 0.948145
-0.053612 0.327100 0.943468
-0.062058 0.353512 0.933369
-0.034868 0.308792 0.950490
-0.117611 0.294180 0.948486
-0.062058 0.353512 0.933369
-0.053612 0.327100 0.943468
-0.099505 0.274125 0.956532
-0.117611 0.294180 0.948486
-0.053612 0.327100 0.943468
-0.235228 0.094937 0.967293
-0.117611 0.294180 0.948486
-0.099505 0.274125 0.956532
-0.165181 0.198524 0.966076
-0.235228 0.094937 0.967293
-0.099505 0.274125 0.956532
-0.221149 0.107907 0.969252
-0.235228 0.094937 0.967293
-0.165181 0.198524 0.966076
-0.236741 -0.038317 0.970817
-0.235228 0.094937 0.967293
-0.221149 0.107907 0.969252
-0.241180 -0.191685 0.951362
-0.235228 0.094937 0.967293
-0.236741 -0.038317 0.970817
-0.357692 -0.191652 0.913962
-0.235228 0.094937 0.967293
-0.241180 -0.191685 0.951362
-0.171762 -0.558919 0.811238
-0.357692 -0.191652 0.913962
-0.241180 -0.191685 0.951362
-0.467403 -0.232166 0.853014
-0.357692 -0.191652 0.913962
-0.171762 -0.558919 0.811238
-0.425088 -0.075931 0.901962
-0.357692 -0.191652 0.913962
-0.467403 -0.232166 0.853014
-0.486997 -0.020338 0.873167
-0.425088 -0.075931 0.901962
-0.467403 -0.232166 0.853014
-0.312325 -0.148665 0.938271
-0.425088 -0.075931 0.901962
-0.486997 -0.020338 0.873167
-0.374133 -0.203708 0.904725
-0.312325 -0.148665 0.938271
-0.486997 -0.020338 0.873167
-0.273407 -0.305329 0.912153
-0.312325 -0.148665 0.938271
-0.374133 -0.203708 0.904725
-0.115413 -0.253994 0.960295
-0.312325 -0.148665 0.938271
-0.273407 -0.305329 0.912153
-0.116661 -0.358051 0.926385
-0.115413 -0.253994 0.960295
-0.273407 -0.305329 0.912153
0.002408 -0.357113 0.934058
-0.115413 -0.253994 0.960295
-0.116661 -0.358051 0.926385
0.101372 -0.324874 0.940309
-0.115413 -0.253994 0.960295
0.002408 -0.357113 0.934058
0.134578 -0.187844 0.972935
-0.115413 -0.253994 0.960295
0.101372 -0.324874 0.940309
0.280347 -0.263816 0.922934
0.134578 -0.187844 0.972935
0.101372 -0.324874 0.940309
0.197759 -0.238281 0.950849
0.134578 -0.187844 0.972935
0.280347 -0.263816 0.922934
0.267747 -0.003094 0.963484
0.134578 -0.187844 0.972935
0.197759 -0.238281 0.950849
0.163584 -0.188470 0.968359
0.267747 -0.003094 0.963484
0.197759 -0.238281 0.950849
0.168219 -0.146682 0.974775
0.267747 -0.003094 0.963484
0.163584 -0.188470 0.968359
0.262942 -0.004541 0.964801
0.267747 -0.003094 0.963484
0.168219 -0.146682 0.974775
0.270204 0.169146 0.947829
0.267747 -0.003094 0.963484
0.262942 -0.004541 0.964801
0.318654 0.125101 0.939580
0.267747 -0.003094 0.963484
0.270204 0.169146 0.947829
0.320824 0.217940 0.921724
0.318654 0.125101 0.939580
0.270204 0.169146 0.947829
0.329617 0.158663 0.930687
0.318654 0.125101 0.939580
0.320824 0.217940 0.921724
0.294534 0.144596 0.944638
0.329617 0.158663 0.930687
0.320824 0.217940 0.921724
0.201141 0.258399 0.944866
0.329617 0.158663 0.930687
0.294534 0.144596 0.944638
0.201141 0.258399 0.944866
0.294534 0.144596 0.944638
0.254289 0.143843 0.956372
0.011773 0.118690 0.992862
0.329617 0.158663 0.930687
0.201141 0.258399 0.944866
0.011773 0.118690 0.992862
0.318654 0.125101 0.939580
0.329617 0.158663 0.930687
0.011773 0.118690 0.992862
0.267747 -0.003094 0.963484
0.318654 0.125101 0.939580
0.011773 0.118690 0.992862
0.134578 -0.187844 0.972935
0.267747 -0.003094 0.963484
0.011773 0.118690 0.992862
-0.115413 -0.253994 0.960295
0.134578 -0.187844 0.972935
0.011773 0.118690 0.992862
-0.312325 -0.148665 0.938271
-0.115413 -0.253994 0.960295
0.011773 0.118690 0.992862
-0.425088 -0.075931 0.901962
-0.312325 -0.148665 0.938271
0.011773 0.118690 0.992862
-0.357692 -0.191652 0.913962
-0.425088 -0.075931 0.901962
0.011773 0.118690 0.992862
-0.235228 0.094937 0.967293
-0.357692 -0.191652 0.913962
0.011773 0.118690 0.992862
-0.117611 0.294180 0.948486
-0.235228 0.094937 0.967293
0.011773 0.118690 0.992862
-0.062058 0.353512 0.933369
-0.117611 0.294180 0.948486
0.011773 0.118690 0.992862
-0.001357 0.327996 0.944678
-0.062058 0.353512 0.933369
0.011773 0.118690 0.992862
0.111556 0.326669 0.938532
-0.001357 0.327996 0.944678
0.201141 0.258399 0.944866
0.111556 0.326669 0.938532
0.011773 0.118690 0.992862
-0.170504 -0.213890 -0.961862
-0.254077 -0.143940 -0.956413
-0.201026 -0.258180 -0.944951
-0.170504 -0.213890 -0.961862
-0.201026 -0.258180 -0.944951
-0.064692 -0.288407 -0.955320
-0.064692 -0.288407 -0.955320
-0.201026 -0.258180 -0.944951
-0.111394 -0.326273 -0.938689
-0.064692 -0.288407 -0.955320
-0.111394 -0.326273 -0.938689
-0.095585 -0.292244 -0.951555
-0.095585 -0.292244 -0.951555
-0.111394 -0.326273 -0.938689
-0.066858 -0.276517 -0.958680
-0.066858 -0.276517 -0.958680
-0.111394 -0.326273 -0.938689
0.001386 -0.327811 -0.944742
-0.066858 -0.276517 -0.958680
0.001386 -0.327811 -0.944742
0.087594 -0.274049 -0.957718
0.087594 -0.274049 -0.957718
0.001386 -0.327811 -0.944742
0.068992 -0.310153 -0.948180
0.068992 -0.310153 -0.948180
0.001386 -0.327811 -0.944742
0.061953 -0.353192 -0.933497
0.068992 -0.310153 -0.948180
0.061953 -0.353192 -0.933497
0.034777 -0.308800 -0.950491
0.034777 -0.308800 -0.950491
0.061953 -0.353192 -0.933497
0.053743 -0.326978 -0.943502
0.053743 -0.326978 -0.943502
0.061953 -0.353192 -0.933497
0.117648 -0.293916 -0.948563
0.053743 -0.326978 -0.943502
0.117648 -0.293916 -0.948563
0.099504 -0.274032 -0.956559
0.099504 -0.274032 -0.956559
0.117648 -0.293916 -0.948563
0.235070 -0.094785 -0.967346
0.099504 -0.274032 -0.956559
0.235070 -0.094785 -0.967346
0.165073 -0.198497 -0.966100
0.165073 -0.198497 -0.966100
0.235070 -0.094785 -0.967346
0.221157 -0.107880 -0.969253
0.221157 -0.107880 -0.969253
0.235070 -0.094785 -0.967346
0.236562 0.038425 -0.970856
0.236562 0.038425 -0.970856
0.235070 -0.094785 -0.967346
0.241227 0.192373 -0.951211
0.241227 0.192373 -0.951211
0.235070 -0.094785 -0.967346
0.356920 0.190992 -0.914401
0.241227 0.192373 -0.951211
0.356920 0.190992 -0.914401
0.170400 0.556955 -0.812875
0.170400 0.556955 -0.812875
0.356920 0.190992 -0.914401
0.463548 0.233359 -0.854791
0.463548 0.233359 -0.854791
0.356920 0.190992 -0.914401
0.424293 0.075814 -0.902346
0.463548 0.233359 -0.854791
0.424293 0.075814 -0.902346
0.487248 0.019582 -0.873044
0.487248 0.019582 -0.873044
0.424293 0.075814 -0.902346
0.312010 0.148514 -0.938400
0.487248 0.019582 -0.873044
0.312010 0.148514 -0.938400
0.374154 0.203575 -0.904746
0.374154 0.203575 -0.904746
0.312010 0.148514 -0.938400
0.273313 0.305251 -0.912207
0.273313 0.305251 -0.912207
0.312010 0.148514 -0.938400
0.115298 0.253779 -0.960366
0.273313 0.305251 -0.912207
0.115298 0.253779 -0.960366
0.116688 0.357970 -0.926413
0.116688 0.357970 -0.926413
0.115298 0.253779 -0.960366
-0.002383 0.356954 -0.934119
-0.002383 0.356954 -0.934119
0.115298 0.253779 -0.960366
-0.101787 0.324603 -0.940358
-0.101787 0.324603 -0.940358
0.115298 0.253779 -0.960366
-0.134421 0.187739 -0.972978
-0.101787 0.324603 -0.940358
-0.134421 0.187739 -0.972978
-0.276277 0.265615 -0.923645
-0.276277 0.265615 -0.923645
-0.134421 0.187739 -0.972978
-0.197490 0.238597 -0.950825
-0.197490 0.238597 -0.950825
-0.134421 0.187739 -0.972978
-0.267276 0.003135 -0.963615
-0.197490 0.238597 -0.950825
-0.267276 0.003135 -0.963615
-0.163724 0.187798 -0.968466
-0.163724 0.187798 -0.968466
-0.267276 0.003135 -0.963615
-0.167873 0.146656 -0.974839
-0.167873 0.146656 -0.974839
-0.267276 0.003135 -0.963615
-0.262942 0.004551 -0.964801
-0.262942 0.004551 -0.964801
-0.267276 0.003135 -0.963615
-0.270088 -0.169457 -0.947806
-0.270088 -0.169457 -0.947806
-0.267276 0.003135 -0.963615
-0.318034 -0.125135 -0.939785
-0.270088 -0.169457 -0.947806
-0.318034 -0.125135 -0.939785
-0.320832 -0.217097 -0.921920
-0.320832 -0.217097 -0.921920
-0.318034 -0.125135 -0.939785
-0.329191 -0.158658 -0.930839
-0.320832 -0.217097 -0.921920
-0.329191 -0.158658 -0.930839
-0.294559 -0.144501 -0.944645
-0.294559 -0.144501 -0.944645
-0.329191 -0.158658 -0.930839
-0.201026 -0.258180 -0.944951
-0.254077 -0.143940 -0.956413
-0.294559 -0.144501 -0.944645
-0.201026 -0.258180 -0.944951
-0.201026 -0.258180 -0.944951
-0.329191 -0.158658 -0.930839
-0.011746 -0.118743 -0.992856
-0.329191 -0.158658 -0.930839
-0.318034 -0.125135 -0.939785
-0.011746 -0.118743 -0.992856
-0.318034 -0.125135 -0.939785
-0.267276 0.003135 -0.963615
-0.011746 -0.118743 -0.992856
-0.267276 0.003135 -0.963615
-0.134421 0.187739 -0.972978
-0.011746 -0.118743 -0.992856
-0.134421 0.187739 -0.972978
0.115298 0.253779 -0.960366
-0.011746 -0.118743 -0.992856
0.115298 0.253779 -0.960366
0.312010 0.148514 -0.938400
-0.011746 -0.118743 -0.992856
0.312010 0.148514 -0.938400
0.424293 0.075814 -0.902346
-0.011746 -0.118743 -0.992856
0.424293 0.075814 -0.902346
0.356920 0.190992 -0.914401
-0.011746 -0.118743 -0.992856
0.356920 0.190992 -0.914401
0.235070 -0.094785 -0.967346
-0.011746 -0.118743 -0.992856
0.235070 -0.094785 -0.967346
0.117648 -0.293916 -0.948563
-0.011746 -0.118743 -0.992856
0.117648 -0.293916 -0.948563
0.061953 -0.353192 -0.933497
-0.011746 -0.118743 -0.992856
0.061953 -0.353192 -0.933497
0.001386 -0.327811 -0.944742
-0.011746 -0.118743 -0.992856
0.001386 -0.327811 -0.944742
-0.111394 -0.326273 -0.938689
-0.011746 -0.118743 -0.992856
-0.011746 -0.118743 -0.992856
-0.111394 -0.326273 -0.938689
-0.201026 -0.258180 -0.944951
-0.940463 -0.196572 0.277286
-0.738992 -0.611322 0.283154
-0.940442 -0.196683 0.277281
-0.738992 -0.611322 0.283154
-0.940463 -0.196572 0.277286
-0.737022 -0.613671 0.283209
-0.738992 -0.611322 0.283154
-0.355202 -0.887725 0.292875
-0.354421 -0.888018 0.292932
-0.355202 -0.887725 0.292875
-0.738992 -0.611322 0.283154
-0.737022 -0.613671 0.283209
-0.354421 -0.888018 0.292932
-0.378694 -0.876770 0.296421
-0.380315 -0.876098 0.296332
-0.378694 -0.876770 0.296421
-0.354421 -0.888018 0.292932
-0.355202 -0.887725 0.292875
-0.380315 -0.876098 0.296332
-0.291701 -0.911228 0.290816
-0.294872 -0.910200 0.290836
-0.291701 -0.911228 0.290816
-0.380315 -0.876098 0.296332
-0.378694 -0.876770 0.296421
0.331955 -0.896809 0.292473
-0.294872 -0.910200 0.290836
-0.291701 -0.911228 0.290816
0.331955 -0.896809 0.292473
-0.291701 -0.911228 0.290816
0.326923 -0.898655 0.292475
0.228897 -0.921251 0.314487
0.331955 -0.896809 0.292473
0.326923 -0.898655 0.292475
0.228897 -0.921251 0.314487
0.326923 -0.898655 0.292475
0.233168 -0.920211 0.314396
0.071334 -0.946267 0.315421
0.228897 -0.921251 0.314487
0.233168 -0.920211 0.314396
0.071334 -0.946267 0.315421
0.233168 -0.920211 0.314396
0.075875 -0.945859 0.315584
0.231306 -0.921249 0.312727
0.071334 -0.946267 0.315421
0.075875 -0.945859 0.315584
0.231306 -0.921249 0.312727
0.075875 -0.945859 0.315584
0.233648 -0.920640 0.312779
0.377288 -0.876599 0.298711
0.231306 -0.921249 0.312727
0.233648 -0.920640 0.312779
0.377288 -0.876599 0.298711
0.233648 -0.920640 0.312779
0.382321 -0.874557 0.298295
0.382321 -0.874557 0.298295
0.795911 -0.547016 0.259420
0.796435 -0.546281 0.259362
0.796435 -0.546281 0.259362
0.377288 -0.876599 0.298711
0.382321 -0.874557 0.298295
0.971580 -0.040453 0.233230
0.796435 -0.546281 0.259362
0.795911 -0.547016 0.259420
0.796435 -0.546281 0.259362
0.971580 -0.040453 0.233230
0.971753 -0.036825 0.233110
0.971580 -0.040453 0.233230
0.868097 0.433086 0.242579
0.867058 0.435033 0.242808
0.867058 0.435033 0.242808
0.971753 -0.036825 0.233110
0.971580 -0.040453 0.233230
0.868097 0.433086 0.242579
0.543184 0.760578 0.355630
0.524620 0.770360 0.362380
0.524620 0.770360 0.362380
0.867058 0.435033 0.242808
0.868097 0.433086 0.242579
0.524620 0.770360 0.362380
0.145043 0.888519 0.435312
0.142160 0.888977 0.435327
0.145043 0.888519 0.435312
0.524620 0.770360 0.362380
0.543184 0.760578 0.355630
0.657180 0.375741 0.653402
0.142160 0.888977 0.435327
0.145043 0.888519 0.435312
0.142160 0.888977 0.435327
0.657180 0.375741 0.653402
0.655740 0.378113 0.653480
0.657180 0.375741 0.653402
0.883571 -0.186422 0.429591
0.655740 0.378113 0.653480
0.883571 -0.186422 0.429591
0.657180 0.375741 0.653402
0.886101 -0.169478 0.431395
0.886101 -0.169478 0.431395
0.844241 0.306943 0.439366
0.883571 -0.186422 0.429591
0.844241 0.306943 0.439366
0.886101 -0.169478 0.431395
0.842991 0.310740 0.439097
0.842991 0.310740 0.439097
0.639230 0.653535 0.405311
0.844241 0.306943 0.439366
0.639230 0.653535 0.405311
0.842991 0.310740 0.439097
0.638635 0.654157 0.405246
0.639230 0.653535 0.405311
0.241212 0.889857 0.387261
0.243833 0.889081 0.387402
0.241212 0.889857 0.387261
0.639230 0.653535 0.405311
0.638635 0.654157 0.405246
-0.248337 0.903379 0.349622
0.243833 0.889081 0.387402
0.241212 0.889857 0.387261
0.243833 0.889081 0.387402
-0.248337 0.903379 0.349622
-0.247961 0.903472 0.349648
-0.248337 0.903379 0.349622
-0.780134 0.540126 0.315682
-0.789485 0.527351 0.314028
-0.789485 0.527351 0.314028
-0.247961 0.903472 0.349648
-0.248337 0.903379 0.349622
-0.874664 0.378271 0.303107
-0.789485 0.527351 0.314028
-0.780134 0.540126 0.315682
-0.789485 0.527351 0.314028
-0.874664 0.378271 0.303107
-0.883044 0.361511 0.299239
-0.853424 0.429710 0.294987
-0.883044 0.361511 0.299239
-0.874664 0.378271 0.303107
-0.883044 0.361511 0.299239
-0.853424 0.429710 0.294987
-0.853523 0.429548 0.294934
-0.692733 0.676033 0.251200
-0.853523 0.429548 0.294934
-0.853424 0.429710 0.294987
-0.853523 0.429548 0.294934
-0.692733 0.676033 0.251200
-0.699692 0.668739 0.251435
-0.725742 0.639267 0.254237
-0.699692 0.668739 0.251435
-0.692733 0.676033 0.251200
-0.725742 0.639267 0.254237
-0.692733 0.676033 0.251200
-0.726053 0.638911 0.254244
-0.725742 0.639267 0.254237
-0.956482 0.168795 0.238014
-0.956474 0.168811 0.238035
-0.956482 0.168795 0.238014
-0.725742 0.639267 0.254237
-0.726053 0.638911 0.254244
-0.956482 0.168795 0.238014
-0.924721 -0.197075 0.325657
-0.956474 0.168811 0.238035
-0.924721 -0.197075 0.325657
-0.956482 0.168795 0.238014
-0.926935 -0.188534 0.324418
-0.926935 -0.188534 0.324418
-0.939516 -0.100689 0.327369
-0.924721 -0.197075 0.325657
-0.939516 -0.100689 0.327369
-0.926935 -0.188534 0.324418
-0.938551 -0.106775 0.328210
-0.938551 -0.106775 0.328210
-0.950773 0.167650 0.260621
-0.939516 -0.100689 0.327369
-0.950773 0.167650 0.260621
-0.938551 -0.106775 0.328210
-0.951665 0.161114 0.261488
-0.951665 0.161114 0.261488
-0.940442 -0.196683 0.277281
-0.950773 0.167650 0.260621
-0.940442 -0.196683 0.277281
-0.951665 0.161114 0.261488
-0.940463 -0.196572 0.277286
</float_array>
          <technique_common>
            <accessor source="#SM_Coral_Table_Acropora_07_LOD0-Normal0-array" count="528" stride="3">
              <param name="X" type="float"/>
              <param name="Y" type="float"/>
              <param name="Z" type="float"/>
            </accessor>
          </technique_common>
        </source>
        <source id="SM_Coral_Table_Acropora_07_LOD0-UV0">
          <float_array id="SM_Coral_Table_Acropora_07_LOD0-UV0-array" count="472">
0.877930 0.019531
0.873047 0.031738
0.898438 0.043945
0.877930 0.019531
0.898438 0.043945
0.892090 0.010742
0.892090 0.010742
0.898438 0.043945
0.909668 0.038574
0.892090 0.010742
0.909668 0.038574
0.900879 0.009277
0.900879 0.009277
0.909668 0.038574
0.913574 0.000000
0.913574 0.000000
0.909668 0.038574
0.921387 0.034180
0.913574 0.000000
0.921387 0.034180
0.924316 0.000000
0.924316 0.000000
0.921387 0.034180
0.934082 0.008789
0.934082 0.008789
0.921387 0.034180
0.931152 0.037598
0.934082 0.008789
0.931152 0.037598
0.943359 0.006836
0.943359 0.006836
0.931152 0.037598
0.959473 0.012695
0.959473 0.012695
0.931152 0.037598
0.945313 0.041504
0.959473 0.012695
0.945313 0.041504
0.972656 0.014648
0.972656 0.014648
0.945313 0.041504
0.955078 0.054199
0.972656 0.014648
0.955078 0.054199
0.987305 0.026367
0.987305 0.026367
0.955078 0.054199
0.992188 0.040039
0.992188 0.040039
0.955078 0.054199
0.986816 0.062012
0.986816 0.062012
0.955078 0.054199
0.974609 0.077148
0.974609 0.077148
0.955078 0.054199
0.946777 0.072754
0.974609 0.077148
0.946777 0.072754
0.959473 0.082031
0.959473 0.082031
0.946777 0.072754
0.950684 0.082520
0.950684 0.082520
0.946777 0.072754
0.938477 0.083008
0.950684 0.082520
0.938477 0.083008
0.958008 0.097656
0.958008 0.097656
0.938477 0.083008
0.932617 0.099121
0.958008 0.097656
0.932617 0.099121
0.955566 0.117676
0.955566 0.117676
0.932617 0.099121
0.946777 0.129883
0.946777 0.129883
0.932617 0.099121
0.921875 0.105957
0.946777 0.129883
0.921875 0.105957
0.925781 0.144043
0.925781 0.144043
0.921875 0.105957
0.908203 0.143555
0.908203 0.143555
0.921875 0.105957
0.895020 0.137207
0.895020 0.137207
0.921875 0.105957
0.906738 0.102539
0.895020 0.137207
0.906738 0.102539
0.894043 0.131836
0.894043 0.131836
0.906738 0.102539
0.883301 0.120117
0.883301 0.120117
0.906738 0.102539
0.895996 0.087402
0.883301 0.120117
0.895996 0.087402
0.879883 0.108887
0.879883 0.108887
0.895996 0.087402
0.873047 0.106934
0.873047 0.106934
0.895996 0.087402
0.871094 0.093262
0.871094 0.093262
0.895996 0.087402
0.868652 0.078613
0.868652 0.078613
0.895996 0.087402
0.893555 0.073242
0.868652 0.078613
0.893555 0.073242
0.875488 0.069336
0.875488 0.069336
0.893555 0.073242
0.892578 0.063965
0.875488 0.069336
0.892578 0.063965
0.871094 0.056152
0.871094 0.056152
0.892578 0.063965
0.898438 0.043945
0.873047 0.031738
0.871094 0.056152
0.898438 0.043945
0.898438 0.043945
0.892578 0.063965
0.918457 0.068359
0.892578 0.063965
0.893555 0.073242
0.918457 0.068359
0.893555 0.073242
0.895996 0.087402
0.918457 0.068359
0.895996 0.087402
0.906738 0.102539
0.918457 0.068359
0.906738 0.102539
0.921875 0.105957
0.918457 0.068359
0.921875 0.105957
0.932617 0.099121
0.918457 0.068359
0.932617 0.099121
0.938477 0.083008
0.918457 0.068359
0.938477 0.083008
0.946777 0.072754
0.918457 0.068359
0.946777 0.072754
0.955078 0.054199
0.918457 0.068359
0.955078 0.054199
0.945313 0.041504
0.918457 0.068359
0.945313 0.041504
0.931152 0.037598
0.918457 0.068359
0.931152 0.037598
0.921387 0.034180
0.918457 0.068359
0.921387 0.034180
0.909668 0.038574
0.918457 0.068359
0.918457 0.068359
0.909668 0.038574
0.898438 0.043945
0.000000 0.000000
0.000000 0.050000
0.030489 0.000000
0.030489 0.050000
0.066810 0.000000
0.066810 0.050000
0.086906 0.000000
0.086906 0.050000
0.121393 0.000000
0.121393 0.050000
0.145226 0.000000
0.145226 0.050000
0.174403 0.000000
0.174403 0.050000
0.195827 0.000000
0.195827 0.050000
0.234180 0.000000
0.234180 0.050000
0.263326 0.000000
0.263326 0.050000
0.305195 0.000000
0.305195 0.050000
0.337591 0.000000
0.337591 0.050000
0.388789 0.000000
0.388789 0.050000
0.431816 0.000000
0.431816 0.050000
0.467286 0.000000
0.467286 0.050000
0.487643 0.000000
0.487643 0.050000
0.525402 0.000000
0.525402 0.050000
0.569863 0.000000
0.569863 0.050000
0.604002 0.000000
0.604002 0.050000
0.660726 0.000000
0.660726 0.050000
0.700028 0.000000
0.700028 0.050000
0.732545 0.000000
0.732545 0.050000
0.745520 0.000000
0.745520 0.050000
0.781742 0.000000
0.781742 0.050000
0.807459 0.000000
0.807459 0.050000
0.823708 0.000000
0.823708 0.050000
0.854162 0.000000
0.854162 0.050000
0.887699 0.000000
0.887699 0.050000
0.914064 0.000000
0.914064 0.050000
0.945166 0.000000
0.945166 0.050000
1.000000 0.000000
1.000000 0.050000
</float_array>
          <technique_common>
            <accessor source="#SM_Coral_Table_Acropora_07_LOD0-UV0-array" count="236" stride="2">
              <param name="S" type="float"/>
              <param name="T" type="float"/>
            </accessor>
          </technique_common>
        </source>
        <vertices id="SM_Coral_Table_Acropora_07_LOD0-VERTEX">
          <input semantic="POSITION" source="#SM_Coral_Table_Acropora_07_LOD0-POSITION"/>
        </vertices>
        <triangles count="176" material="MAT_Coral_Table">
          <input semantic="VERTEX" offset="0" source="#SM_Coral_Table_Acropora_07_LOD0-VERTEX"/>
          <input semantic="NORMAL" offset="1" source="#SM_Coral_Table_Acropora_07_LOD0-Normal0"/>
          <input semantic="TEXCOORD" offset="2" set="0" source="#SM_Coral_Table_Acropora_07_LOD0-UV0"/>
          <p> 12 0 2 0 1 1 1 2 0 13 3 5 12 4 4 1 5 3 14 6 8 12 7 7 13 8 6 15 9 11 14 10 10 13 11 9 5 12 14 14 13 13 15 14 12 16 15 17 14 16 16 5 17 15 11 18 20 16 19 19 5 20 18 4 21 23 16 22 22 11 23 21 18 24 26 16 25 25 4 26 24 17 27 29 18 28 28 4 29 27 19 30 32 18 31 31 17 32 30 44 33 35 18 34 34 19 35 33 20 36 38 44 37 37 19 38 36 43 39 41 44 40 40 20 41 39 6 42 44 43 43 43 20 44 42 21 45 47 43 46 46 6 47 45 22 48 50 43 49 49 21 50 48 23 51 53 43 52 52 22 53 51 24 54 56 43 55 55 23 56 54 3 57 59 24 58 58 23 59 57 25 60 62 24 61 61 3 62 60 42 63 65 24 64 64 25 65 63 26 66 68 42 67 67 25 68 66 28 69 71 42 70 70 26 71 69 27 72 74 28 73 73 26 74 72 29 75 77 28 76 76 27 77 75 31 78 80 28 79 79 29 80 78 30 81 83 31 82 82 29 83 81 2 84 86 31 85 85 30 86 84 32 87 89 31 88 88 2 89 87 41 90 92 31 91 91 32 92 90 33 93 95 41 94 94 32 95 93 7 96 98 41 97 97 33 98 96 34 99 101 41 100 100 7 101 99 35 102 104 34 103 103 7 104 102 8 105 107 34 106 106 35 107 105 9 108 110 34 109 109 8 110 108 10 111 113 34 112 112 9 113 111 39 114 116 34 115 115 10 116 114 36 117 119 39 118 118 10 119 117 38 120 122 39 121 121 36 122 120 37 123 125 38 124 124 36 125 123 12 126 128 38 127 127 37 128 126 12 129 131 37 130 130 0 131 129 40 132 134 38 133 133 12 134 132 40 135 137 39 136 136 38 137 135 40 138 140 34 139 139 39 140 138 40 141 143 41 142 142 34 143 141 40 144 146 31 145 145 41 146 144 40 147 149 28 148 148 31 149 147 40 150 152 42 151 151 28 152 150 40 153 155 24 154 154 42 155 153 40 156 158 43 157 157 24 158 156 40 159 161 44 160 160 43 161 159 40 162 164 18 163 163 44 164 162 40 165 167 16 166 166 18 167 165 40 168 170 14 169 169 16 170 168 12 171 173 14 172 172 40 173 171 46 174 0 45 175 1 57 176 2 46 177 3 57 178 4 58 179 5 58 180 6 57 181 7 59 182 8 58 183 9 59 184 10 60 185 11 60 186 12 59 187 13 50 188 14 50 189 15 59 190 16 61 191 17 50 192 18 61 193 19 56 194 20 56 195 21 61 196 22 49 197 23 49 198 24 61 199 25 63 200 26 49 201 27 63 202 28 62 203 29 62 204 30 63 205 31 64 206 32 64 207 33 63 208 34 89 209 35 64 210 36 89 211 37 65 212 38 65 213 39 89 214 40 88 215 41 65 216 42 88 217 43 51 218 44 51 219 45 88 220 46 66 221 47 66 222 48 88 223 49 67 224 50 67 225 51 88 226 52 68 227 53 68 228 54 88 229 55 69 230 56 68 231 57 69 232 58 48 233 59 48 234 60 69 235 61 70 236 62 70 237 63 69 238 64 87 239 65 70 240 66 87 241 67 71 242 68 71 243 69 87 244 70 73 245 71 71 246 72 73 247 73 72 248 74 72 249 75 73 250 76 74 251 77 74 252 78 73 253 79 76 254 80 74 255 81 76 256 82 75 257 83 75 258 84 76 259 85 47 260 86 47 261 87 76 262 88 77 263 89 77 264 90 76 265 91 86 266 92 77 267 93 86 268 94 78 269 95 78 270 96 86 271 97 52 272 98 52 273 99 86 274 100 79 275 101 52 276 102 79 277 103 80 278 104 80 279 105 79 280 106 53 281 107 53 282 108 79 283 109 54 284 110 54 285 111 79 286 112 55 287 113 55 288 114 79 289 115 84 290 116 55 291 117 84 292 118 81 293 119 81 294 120 84 295 121 83 296 122 81 297 123 83 298 124 82 299 125 82 300 126 83 301 127 57 302 128 45 303 129 82 304 130 57 305 131 57 306 132 83 307 133 85 308 134 83 309 135 84 310 136 85 311 137 84 312 138 79 313 139 85 314 140 79 315 141 86 316 142 85 317 143 86 318 144 76 319 145 85 320 146 76 321 147 73 322 148 85 323 149 73 324 150 87 325 151 85 326 152 87 327 153 69 328 154 85 329 155 69 330 156 88 331 157 85 332 158 88 333 159 89 334 160 85 335 161 89 336 162 63 337 163 85 338 164 63 339 165 61 340 166 85 341 167 61 342 168 59 343 169 85 344 170 85 345 171 59 346 172 57 347 173 45 348 235 1 349 232 0 350 234 1 351 232 45 352 235 46 353 233 1 354 232 58 355 231 13 356 230 58 357 231 1 358 232 46 359 233 13 360 230 60 361 229 15 362 228 60 363 229 13 364 230 58 365 231 15 366 228 50 367 227 5 368 226 50 369 227 15 370 228 60 371 229 11 372 224 5 373 226 50 374 227 11 375 224 50 376 227 56 377 225 4 378 222 11 379 224 56 380 225 4 381 222 56 382 225 49 383 223 17 384 220 4 385 222 49 386 223 17 387 220 49 388 223 62 389 221 19 390 218 17 391 220 62 392 221 19 393 218 62 394 221 64 395 219 20 396 216 19 397 218 64 398 219 20 399 216 64 400 219 65 401 217 65 402 217 51 403 215 6 404 214 6 405 214 20 406 216 65 407 217 66 408 213 6 409 214 51 410 215 6 411 214 66 412 213 21 413 212 66 414 213 67 415 211 22 416 210 22 417 210 21 418 212 66 419 213 67 420 211 68 421 209 23 422 208 23 423 208 22 424 210 67 425 211 23 426 208 48 427 207 3 428 206 48 429 207 23 430 208 68 431 209 70 432 205 3 433 206 48 434 207 3 435 206 70 436 205 25 437 204 70 438 205 26 439 202 25 440 204 26 441 202 70 442 205 71 443 203 71 444 203 27 445 200 26 446 202 27 447 200 71 448 203 72 449 201 72 450 201 29 451 198 27 452 200 29 453 198 72 454 201 74 455 199 29 456 198 75 457 197 30 458 196 75 459 197 29 460 198 74 461 199 47 462 195 30 463 196 75 464 197 30 465 196 47 466 195 2 467 194 47 468 195 77 469 193 32 470 192 32 471 192 2 472 194 47 473 195 78 474 191 32 475 192 77 476 193 32 477 192 78 478 191 33 479 190 52 480 189 33 481 190 78 482 191 33 483 190 52 484 189 7 485 188 80 486 187 7 487 188 52 488 189 7 489 188 80 490 187 35 491 186 8 492 184 35 493 186 80 494 187 8 495 184 80 496 187 53 497 185 8 498 184 54 499 183 9 500 182 54 501 183 8 502 184 53 503 185 54 504 183 10 505 180 9 506 182 10 507 180 54 508 183 55 509 181 55 510 181 36 511 178 10 512 180 36 513 178 55 514 181 81 515 179 81 516 179 37 517 176 36 518 178 37 519 176 81 520 179 82 521 177 82 522 177 0 523 174 37 524 176 0 525 174 82 526 177 45 527 175</p>
        </triangles>
      </mesh>
    </geometry>
    <geometry id="SM_Coral_Table_Acropora_07_LOD1-lib" name="SM_Coral_Table_Acropora_07_LOD1Mesh">
      <mesh>
        <source id="SM_Coral_Table_Acropora_07_LOD1-POSITION">
          <float_array id="SM_Coral_Table_Acropora_07_LOD1-POSITION-array" count="216">
-2.113770 -25.079163 8.526149
-19.948669 12.076233 4.575746
7.107666 3.647217 6.376987
21.594788 -11.304260 7.525202
-12.308105 22.785217 6.133315
-4.076416 -1.434814 -0.000000
-18.152832 -18.428223 7.975837
-4.074036 -1.411072 0.198572
8.883545 15.815674 7.104210
-19.019348 -1.015869 5.779847
15.591736 1.768494 6.602254
14.770996 -20.192688 8.227208
-1.595642 25.062927 7.241778
-2.811768 11.876770 1.777522
-10.253113 -22.015259 8.215985
1.376831 -22.188171 8.336520
-2.834839 11.825928 1.969581
9.727112 8.928711 6.683283
-21.594788 2.159363 5.011649
5.806274 0.197876 3.276917
-17.482666 12.779907 4.770701
19.841492 -16.032227 8.134977
5.734741 0.159546 3.459709
19.799011 -3.504517 6.849651
-3.093628 -13.310730 4.860191
4.635986 -22.837952 8.526149
-7.731995 24.950623 6.785979
-19.967834 -14.023804 7.807192
-5.853210 -25.134460 8.334414
-20.546692 -5.547668 6.660620
-8.207886 10.692139 1.514611
-8.180969 10.654602 1.709198
5.801392 20.170654 7.251667
-16.396484 16.641907 5.035676
-3.093933 -13.245117 5.049126
10.225952 -20.668579 8.498385
8.738281 -6.346863 4.246242
2.911560 3.774048 2.645432
2.826538 3.758850 2.825824
-12.048096 5.318542 2.198584
-13.323303 -21.400452 8.271152
-11.153687 -9.971313 4.646635
-12.609070 20.753784 5.941063
-11.113403 -9.919617 4.835608
0.926147 9.409546 2.150979
0.863647 9.379822 2.338633
8.785339 -6.365845 4.052783
-11.994507 5.317932 2.391281
10.269043 3.438599 6.678920
-12.871094 0.366089 3.049325
5.362061 -10.833313 4.477016
5.338501 -10.774475 4.666713
-12.807373 0.391113 3.237240
0.293396 -12.195190 4.699171
0.280945 -12.124512 4.885844
-20.605591 -5.576599 6.471693
-20.690125 7.348999 4.770702
-7.176331 -11.749268 4.753998
-7.153992 -11.683960 4.941704
-13.336243 -21.458191 8.080091
10.236694 -20.733948 8.309691
5.856079 20.231750 7.069237
14.751099 -20.137878 8.418515
-5.839783 -25.079163 8.526149
-16.436035 16.689575 4.845506
1.362976 -22.126099 8.526149
-21.540710 2.193237 5.201214
-19.083496 -1.059448 5.595502
-12.287842 22.720215 6.321377
9.824524 8.932800 6.508649
15.543518 1.730164 6.792526
-13.097351 -2.805359 3.676681
</float_array>
          <technique_common>
            <accessor source="#SM_Coral_Table_Acropora_07_LOD1-POSITION-array" count="72" stride="3">
              <param name="X" type="float"/>
              <param name="Y" type="float"/>
              <param name="Z" type="float"/>
            </accessor>
          </technique_common>
        </source>
        <source id="SM_Coral_Table_Acropora_07_LOD1-Normal0">
          <float_array id="SM_Coral_Table_Acropora_07_LOD1-Normal0-array" count="1260">
0.011773 0.118690 0.992862
-0.117611 0.294180 0.948486
-0.230120 0.095154 0.968499
-0.204536 -0.267176 -0.941691
-0.305605 -0.156370 -0.939231
-0.010154 -0.118000 -0.992962
0.236221 -0.095850 -0.966960
0.117648 -0.293916 -0.948563
-0.010154 -0.118000 -0.992962
0.011773 0.118690 0.992862
-0.230120 0.095154 0.968499
-0.357692 -0.191652 0.913962
-0.451678 0.872928 0.184349
-0.115898 -0.252438 0.960647
-0.273407 -0.305329 0.912153
-0.818601 -0.385661 0.425626
-0.135249 0.189046 -0.972610
-0.203864 0.246456 -0.947470
0.279840 0.305850 -0.910025
0.115730 0.256075 -0.959704
-0.451678 0.872928 0.184349
0.238176 0.205452 -0.949243
0.362121 0.204352 -0.909455
-0.265517 0.772449 0.576909
0.117648 -0.293916 -0.948563
0.062742 -0.354786 -0.932840
-0.010154 -0.118000 -0.992962
0.201141 0.258399 0.944866
0.111136 0.325026 0.939152
0.011773 0.118690 0.992862
0.011773 0.118690 0.992862
0.329617 0.158663 0.930687
0.201141 0.258399 0.944866
0.197759 -0.238281 0.950849
0.134578 -0.187844 0.972935
-0.818601 -0.385661 0.425626
0.493904 0.024863 -0.869161
0.314411 0.150106 -0.937344
0.969641 -0.049357 0.239502
0.969641 -0.049357 0.239502
-0.312325 -0.148665 0.938271
-0.486997 -0.020338 0.873167
0.270204 0.169146 0.947829
0.266118 -0.001928 0.963939
-0.606004 0.776703 0.171734
-0.606004 0.776703 0.171734
-0.271464 0.005088 -0.962435
-0.276671 -0.151012 -0.949025
0.238176 0.205452 -0.949243
0.236221 -0.095850 -0.966960
0.362121 0.204352 -0.909455
-0.357692 -0.191652 0.913962
-0.230120 0.095154 0.968499
-0.228952 -0.202263 0.952192
0.505081 -0.855228 0.116099
0.062742 -0.354786 -0.932840
0.045471 -0.335530 -0.940931
0.011773 0.118690 0.992862
-0.062058 0.353512 0.933369
-0.117611 0.294180 0.948486
0.633559 0.744484 0.210586
-0.115898 -0.252438 0.960647
-0.451678 0.872928 0.184349
-0.451678 0.872928 0.184349
0.115730 0.256075 -0.959704
0.633559 0.744484 0.210586
0.493904 0.024863 -0.869161
0.431795 0.074710 -0.898872
0.314411 0.150106 -0.937344
-0.203864 0.246456 -0.947470
-0.135249 0.189046 -0.972610
-0.271464 0.005088 -0.962435
-0.010154 -0.118000 -0.992962
-0.111394 -0.326273 -0.938689
-0.204536 -0.267176 -0.941691
0.111136 0.325026 0.939152
0.201141 0.258399 0.944866
0.090032 0.273197 0.957736
0.050377 0.275241 0.960055
0.111136 0.325026 0.939152
0.114860 -0.882165 0.456720
0.741779 -0.665040 0.086518
0.001558 -0.329421 -0.944182
0.079974 -0.315276 -0.945624
0.266118 -0.001928 0.963939
0.134578 -0.187844 0.972935
0.197759 -0.238281 0.950849
0.011773 0.118690 0.992862
-0.425088 -0.075931 0.901962
-0.312325 -0.148665 0.938271
-0.312325 -0.148665 0.938271
-0.425088 -0.075931 0.901962
-0.486997 -0.020338 0.873167
0.124035 -0.120737 0.984905
0.431795 0.074710 -0.898872
0.493904 0.024863 -0.869161
0.318654 0.125101 0.939580
0.266118 -0.001928 0.963939
0.270204 0.169146 0.947829
-0.276671 -0.151012 -0.949025
-0.316378 -0.120942 -0.940892
-0.329174 -0.209872 -0.920651
0.314411 0.150106 -0.937344
0.431795 0.074710 -0.898872
-0.010154 -0.118000 -0.992962
0.362121 0.204352 -0.909455
0.236221 -0.095850 -0.966960
-0.010154 -0.118000 -0.992962
-0.928435 -0.208056 0.307767
-0.271464 0.005088 -0.962435
-0.736060 0.662002 0.141311
-0.736060 0.662002 0.141311
0.266118 -0.001928 0.963939
-0.928435 -0.208056 0.307767
0.970495 0.224748 0.087338
-0.230120 0.095154 0.968499
-0.099505 0.274125 0.956532
0.114053 -0.267797 -0.956701
0.236221 -0.095850 -0.966960
0.970495 0.224748 0.087338
-0.486997 -0.020338 0.873167
-0.425088 -0.075931 0.901962
0.124035 -0.120737 0.984905
-0.265517 0.772449 0.576909
-0.357692 -0.191652 0.913962
-0.228952 -0.202263 0.952192
-0.228952 -0.202263 0.952192
-0.230120 0.095154 0.968499
0.954294 -0.291361 0.066571
0.954294 -0.291361 0.066571
0.236221 -0.095850 -0.966960
0.238176 0.205452 -0.949243
-0.080658 -0.285299 -0.955039
-0.204536 -0.267176 -0.941691
-0.111394 -0.326273 -0.938689
0.114860 -0.882165 0.456720
-0.111394 -0.326273 -0.938689
-0.038604 -0.283031 -0.958334
-0.053612 0.327100 0.943468
-0.062058 0.353512 0.933369
0.505081 -0.855228 0.116099
0.079974 -0.315276 -0.945624
0.062742 -0.354786 -0.932840
0.505081 -0.855228 0.116099
0.120406 -0.309477 0.943253
-0.115898 -0.252438 0.960647
0.633559 0.744484 0.210586
0.633559 0.744484 0.210586
0.115730 0.256075 -0.959704
-0.144462 0.309894 -0.939732
-0.680819 -0.674381 0.285825
-0.305605 -0.156370 -0.939231
-0.204536 -0.267176 -0.941691
0.090032 0.273197 0.957736
0.201141 0.258399 0.944866
-0.993864 0.044978 0.101051
0.741779 -0.665040 0.086518
-0.001357 0.327996 0.944678
0.050377 0.275241 0.960055
-0.038604 -0.283031 -0.958334
0.001558 -0.329421 -0.944182
0.741779 -0.665040 0.086518
0.011773 0.118690 0.992862
0.318654 0.125101 0.939580
0.329617 0.158663 0.930687
-0.329174 -0.209872 -0.920651
-0.316378 -0.120942 -0.940892
-0.305605 -0.156370 -0.939231
-0.135249 0.189046 -0.972610
0.115730 0.256075 -0.959704
-0.010154 -0.118000 -0.992962
-0.144462 0.309894 -0.939732
0.115730 0.256075 -0.959704
-0.135249 0.189046 -0.972610
0.011773 0.118690 0.992862
-0.115898 -0.252438 0.960647
0.134578 -0.187844 0.972935
0.134578 -0.187844 0.972935
-0.115898 -0.252438 0.960647
0.120406 -0.309477 0.943253
0.969641 -0.049357 0.239502
0.314411 0.150106 -0.937344
0.279840 0.305850 -0.910025
-0.273407 -0.305329 0.912153
-0.312325 -0.148665 0.938271
0.969641 -0.049357 0.239502
-0.203864 0.246456 -0.947470
-0.271464 0.005088 -0.962435
-0.928435 -0.208056 0.307767
-0.928435 -0.208056 0.307767
0.266118 -0.001928 0.963939
0.197759 -0.238281 0.950849
0.505081 -0.855228 0.116099
-0.062058 0.353512 0.933369
-0.069235 0.310204 0.948145
-0.069235 0.310204 0.948145
-0.001357 0.327996 0.944678
0.741779 -0.665040 0.086518
0.045471 -0.335530 -0.940931
0.062742 -0.354786 -0.932840
0.117648 -0.293916 -0.948563
-0.230120 0.095154 0.968499
-0.117611 0.294180 0.948486
-0.099505 0.274125 0.956532
0.954294 -0.291361 0.066571
-0.230120 0.095154 0.968499
0.979814 -0.090977 0.178010
0.979814 -0.090977 0.178010
-0.230120 0.095154 0.968499
0.970495 0.224748 0.087338
0.431795 0.074710 -0.898872
0.362121 0.204352 -0.909455
-0.010154 -0.118000 -0.992962
0.124035 -0.120737 0.984905
0.362121 0.204352 -0.909455
0.431795 0.074710 -0.898872
0.011773 0.118690 0.992862
-0.357692 -0.191652 0.913962
-0.425088 -0.075931 0.901962
-0.425088 -0.075931 0.901962
-0.357692 -0.191652 0.913962
0.124035 -0.120737 0.984905
-0.305605 -0.156370 -0.939231
-0.316378 -0.120942 -0.940892
-0.010154 -0.118000 -0.992962
-0.271464 0.005088 -0.962435
-0.135249 0.189046 -0.972610
-0.010154 -0.118000 -0.992962
-0.080658 -0.285299 -0.955039
-0.111394 -0.326273 -0.938689
0.114860 -0.882165 0.456720
0.114860 -0.882165 0.456720
0.111136 0.325026 0.939152
0.090032 0.273197 0.957736
-0.993864 0.044978 0.101051
-0.204536 -0.267176 -0.941691
-0.080658 -0.285299 -0.955039
-0.993864 0.044978 0.101051
-0.680819 -0.674381 0.285825
-0.204536 -0.267176 -0.941691
-0.818601 -0.385661 0.425626
0.134578 -0.187844 0.972935
0.120406 -0.309477 0.943253
-0.144462 0.309894 -0.939732
-0.135249 0.189046 -0.972610
-0.818601 -0.385661 0.425626
0.201141 0.258399 0.944866
0.294534 0.144596 0.944638
-0.680819 -0.674381 0.285825
0.201141 0.258399 0.944866
-0.680819 -0.674381 0.285825
-0.993864 0.044978 0.101051
0.115730 0.256075 -0.959704
0.314411 0.150106 -0.937344
-0.010154 -0.118000 -0.992962
0.279840 0.305850 -0.910025
0.314411 0.150106 -0.937344
0.115730 0.256075 -0.959704
0.011773 0.118690 0.992862
-0.312325 -0.148665 0.938271
-0.115898 -0.252438 0.960647
-0.115898 -0.252438 0.960647
-0.312325 -0.148665 0.938271
-0.273407 -0.305329 0.912153
0.979814 -0.090977 0.178010
0.236221 -0.095850 -0.966960
0.954294 -0.291361 0.066571
0.970495 0.224748 0.087338
0.236221 -0.095850 -0.966960
0.979814 -0.090977 0.178010
0.011773 0.118690 0.992862
0.134578 -0.187844 0.972935
0.266118 -0.001928 0.963939
0.011773 0.118690 0.992862
0.266118 -0.001928 0.963939
0.318654 0.125101 0.939580
-0.265517 0.772449 0.576909
0.362121 0.204352 -0.909455
0.124035 -0.120737 0.984905
0.124035 -0.120737 0.984905
-0.357692 -0.191652 0.913962
-0.265517 0.772449 0.576909
-0.316378 -0.120942 -0.940892
-0.271464 0.005088 -0.962435
-0.010154 -0.118000 -0.992962
-0.276671 -0.151012 -0.949025
-0.271464 0.005088 -0.962435
-0.316378 -0.120942 -0.940892
0.114053 -0.267797 -0.956701
0.117648 -0.293916 -0.948563
0.236221 -0.095850 -0.966960
0.045471 -0.335530 -0.940931
0.117648 -0.293916 -0.948563
0.114053 -0.267797 -0.956701
-0.099505 0.274125 0.956532
-0.117611 0.294180 0.948486
-0.053612 0.327100 0.943468
-0.117611 0.294180 0.948486
-0.062058 0.353512 0.933369
-0.053612 0.327100 0.943468
0.329617 0.158663 0.930687
0.318654 0.125101 0.939580
0.320824 0.217940 0.921724
0.320824 0.217940 0.921724
0.318654 0.125101 0.939580
0.270204 0.169146 0.947829
0.062742 -0.354786 -0.932840
0.001558 -0.329421 -0.944182
-0.010154 -0.118000 -0.992962
0.079974 -0.315276 -0.945624
0.001558 -0.329421 -0.944182
0.062742 -0.354786 -0.932840
0.011773 0.118690 0.992862
-0.001357 0.327996 0.944678
-0.062058 0.353512 0.933369
-0.062058 0.353512 0.933369
-0.001357 0.327996 0.944678
-0.069235 0.310204 0.948145
-0.953331 -0.024397 0.300941
-0.947711 0.169412 0.270450
-0.948330 0.164370 0.271391
-0.947711 0.169412 0.270450
-0.939517 -0.100689 0.327369
-0.938551 -0.106775 0.328210
-0.947711 0.169412 0.270450
-0.938551 -0.106775 0.328210
-0.948330 0.164370 0.271391
-0.736060 0.662002 0.141311
-0.271464 0.005088 -0.962435
-0.606004 0.776703 0.171734
-0.606004 0.776703 0.171734
0.266118 -0.001928 0.963939
-0.736060 0.662002 0.141311
0.001558 -0.329421 -0.944182
-0.111394 -0.326273 -0.938689
-0.010154 -0.118000 -0.992962
-0.038604 -0.283031 -0.958334
-0.111394 -0.326273 -0.938689
0.001558 -0.329421 -0.944182
0.011773 0.118690 0.992862
0.111136 0.325026 0.939152
-0.001357 0.327996 0.944678
-0.001357 0.327996 0.944678
0.111136 0.325026 0.939152
0.050377 0.275241 0.960055
-0.328495 -0.898786 0.290300
-0.357714 -0.886921 0.292255
-0.353142 -0.888678 0.292476
-0.515555 -0.809928 0.279677
-0.353142 -0.888678 0.292476
-0.357714 -0.886921 0.292255
0.376451 -0.875403 0.303240
0.230821 -0.919371 0.318557
0.231980 -0.919049 0.318643
0.376451 -0.875403 0.303240
0.231980 -0.919049 0.318643
0.378863 -0.874415 0.303084
-0.007358 -0.949266 0.314388
0.231980 -0.919049 0.318643
0.230821 -0.919371 0.318557
0.503680 0.762378 0.406309
0.639069 0.651014 0.409599
0.637805 0.652234 0.409629
0.826898 0.337007 0.450186
0.637805 0.652234 0.409629
0.639069 0.651014 0.409599
0.612694 -0.740595 0.275906
0.376451 -0.875403 0.303240
0.378863 -0.874415 0.303084
0.295773 -0.907910 0.297015
-0.292457 -0.913180 0.283849
-0.297910 -0.911452 0.283733
-0.328495 -0.898786 0.290300
-0.297910 -0.911452 0.283733
-0.292457 -0.913180 0.283849
-0.935014 0.245409 0.255975
-0.852902 0.436276 0.286741
-0.852275 0.437402 0.286893
-0.943403 0.266101 0.197943
-0.852275 0.437402 0.286893
-0.852902 0.436276 0.286741
-0.007358 -0.949266 0.314388
0.228109 -0.920272 0.317907
0.234623 -0.918652 0.317853
0.295773 -0.907910 0.297015
0.234623 -0.918652 0.317853
0.228109 -0.920272 0.317907
-0.927330 -0.193761 0.320181
-0.939517 -0.100689 0.327369
-0.926426 -0.197167 0.320717
-0.939517 -0.100689 0.327369
-0.927330 -0.193761 0.320181
-0.938551 -0.106775 0.328210
-0.954277 0.177517 0.240504
-0.927330 -0.193761 0.320181
-0.926426 -0.197167 0.320717
-0.943403 0.266101 0.197943
-0.804627 0.529064 0.269567
-0.780829 0.559689 0.277587
-0.441618 0.832220 0.335236
-0.780829 0.559689 0.277587
-0.804627 0.529064 0.269567
0.826898 0.337007 0.450186
0.860101 -0.184880 0.475443
0.862570 -0.168050 0.477214
0.796596 -0.420284 0.434507
0.862570 -0.168050 0.477214
0.860101 -0.184880 0.475443
0.292522 0.920365 0.259535
0.524753 0.798903 0.293918
0.547059 0.782884 0.296343
0.736585 0.602162 0.307966
0.547059 0.782884 0.296343
0.524753 0.798903 0.293918
0.201141 0.258399 0.944866
0.329617 0.158663 0.930687
0.294534 0.144596 0.944638
0.294534 0.144596 0.944638
0.329617 0.158663 0.930687
0.320824 0.217940 0.921724
</float_array>
          <technique_common>
            <accessor source="#SM_Coral_Table_Acropora_07_LOD1-Normal0-array" count="420" stride="3">
              <param name="X" type="float"/>
              <param name="Y" type="float"/>
              <param name="Z" type="float"/>
            </accessor>
          </technique_common>
        </source>
        <source id="SM_Coral_Table_Acropora_07_LOD1-UV0">
          <float_array id="SM_Coral_Table_Acropora_07_LOD1-UV0-array" count="430">
0.873047 0.106934
0.924316 0.000000
0.950684 0.082520
0.873047 0.106934
0.992188 0.040039
0.895020 0.137207
0.950684 0.082520
0.895020 0.137207
0.918457 0.068359
0.918457 0.068359
0.918457 0.068359
0.918457 0.068359
0.877930 0.019531
0.918457 0.068359
0.877930 0.019531
0.918457 0.068359
0.918457 0.068359
0.955566 0.117676
0.955566 0.117676
0.875488 0.069336
0.918457 0.068359
0.875488 0.069336
0.974609 0.077148
0.974609 0.077148
0.972656 0.014648
0.972656 0.014648
0.925781 0.144043
0.925781 0.144043
0.921875 0.105957
0.921875 0.105957
0.921875 0.105957
0.921875 0.105957
0.900879 0.009277
0.900879 0.009277
0.924316 0.000000
0.934082 0.008789
0.934082 0.008789
0.958008 0.097656
0.958008 0.097656
0.958008 0.097656
0.868652 0.078613
0.868652 0.078613
0.868652 0.078613
0.946777 0.072754
0.946777 0.072754
0.946777 0.072754
0.946777 0.072754
0.879883 0.108887
0.879883 0.108887
0.987305 0.026367
0.972656 0.014648
0.974609 0.077148
0.986816 0.062012
0.921387 0.034180
0.921387 0.034180
0.921387 0.034180
0.943359 0.006836
0.943359 0.006836
0.921875 0.105957
0.908203 0.143555
0.908203 0.143555
0.873047 0.031738
0.873047 0.031738
0.913574 0.000000
0.921387 0.034180
0.913574 0.000000
0.918457 0.068359
0.871094 0.056152
0.871094 0.056152
0.906738 0.102539
0.921875 0.105957
0.918457 0.068359
0.895020 0.137207
0.906738 0.102539
0.906738 0.102539
0.906738 0.102539
0.946777 0.129883
0.946777 0.129883
0.883301 0.120117
0.883301 0.120117
0.883301 0.120117
0.959473 0.012695
0.959473 0.012695
0.986816 0.062012
0.955078 0.054199
0.992188 0.040039
0.955078 0.054199
0.987305 0.026367
0.955078 0.054199
0.955078 0.054199
0.955078 0.054199
0.955078 0.054199
0.955078 0.054199
0.955078 0.054199
0.938477 0.083008
0.946777 0.072754
0.918457 0.068359
0.950684 0.082520
0.938477 0.083008
0.938477 0.083008
0.938477 0.083008
0.938477 0.083008
0.895996 0.087402
0.895996 0.087402
0.906738 0.102539
0.895996 0.087402
0.895996 0.087402
0.895996 0.087402
0.895996 0.087402
0.892090 0.010742
0.892090 0.010742
0.892090 0.010742
0.898438 0.043945
0.898438 0.043945
0.898438 0.043945
0.898438 0.043945
0.898438 0.043945
0.898438 0.043945
0.894043 0.131836
0.906738 0.102539
0.894043 0.131836
0.921875 0.105957
0.932617 0.099121
0.918457 0.068359
0.946777 0.129883
0.932617 0.099121
0.932617 0.099121
0.932617 0.099121
0.932617 0.099121
0.932617 0.099121
0.895996 0.087402
0.959473 0.082031
0.946777 0.072754
0.959473 0.082031
0.893555 0.073242
0.893555 0.073242
0.893555 0.073242
0.893555 0.073242
0.893555 0.073242
0.945313 0.041504
0.959473 0.012695
0.945313 0.041504
0.945313 0.041504
0.945313 0.041504
0.945313 0.041504
0.931152 0.037598
0.921387 0.034180
0.918457 0.068359
0.934082 0.008789
0.931152 0.037598
0.931152 0.037598
0.931152 0.037598
0.931152 0.037598
0.931152 0.037598
0.000000 0.000000
0.030489 0.000000
0.030489 0.050000
0.066810 0.000000
0.895996 0.087402
0.871094 0.093262
0.871094 0.093262
0.921387 0.034180
0.909668 0.038574
0.918457 0.068359
0.913574 0.000000
0.909668 0.038574
0.909668 0.038574
0.909668 0.038574
0.909668 0.038574
0.909668 0.038574
0.887699 0.050000
0.914064 0.000000
0.914064 0.050000
0.945166 0.000000
0.732545 0.050000
0.745520 0.000000
0.745520 0.050000
0.781742 0.000000
0.337591 0.000000
0.388789 0.000000
0.388789 0.050000
0.431816 0.000000
0.700028 0.000000
0.732545 0.000000
0.823708 0.000000
0.854162 0.000000
0.854162 0.050000
0.174403 0.000000
0.195827 0.000000
0.195827 0.050000
0.234180 0.000000
0.807459 0.000000
0.807459 0.050000
0.086906 0.000000
0.086906 0.050000
0.121393 0.000000
0.066810 0.050000
0.263326 0.000000
0.263326 0.050000
0.305195 0.050000
0.467286 0.000000
0.467286 0.050000
0.487643 0.000000
0.525402 0.000000
0.569863 0.000000
0.569863 0.050000
0.604002 0.050000
0.898438 0.043945
0.892578 0.063965
0.871094 0.056152
0.892578 0.063965
0.875488 0.069336
0.892578 0.063965
0.892578 0.063965
0.892578 0.063965
</float_array>
          <technique_common>
            <accessor source="#SM_Coral_Table_Acropora_07_LOD1-UV0-array" count="215" stride="2">
              <param name="S" type="float"/>
              <param name="T" type="float"/>
            </accessor>
          </technique_common>
        </source>
        <vertices id="SM_Coral_Table_Acropora_07_LOD1-VERTEX">
          <input semantic="POSITION" source="#SM_Coral_Table_Acropora_07_LOD1-POSITION"/>
        </vertices>
        <triangles count="140" material="MAT_Coral_Table">
          <input semantic="VERTEX" offset="0" source="#SM_Coral_Table_Acropora_07_LOD1-VERTEX"/>
          <input semantic="NORMAL" offset="1" source="#SM_Coral_Table_Acropora_07_LOD1-Normal0"/>
          <input semantic="TEXCOORD" offset="2" set="0" source="#SM_Coral_Table_Acropora_07_LOD1-UV0"/>
          <p> 7 0 11 51 1 144 36 2 89 41 3 114 55 4 67 5 5 10 46 6 89 50 7 144 5 8 11 7 9 9 36 10 91 22 11 44 12 12 27 16 13 31 32 14 77 42 15 120 30 16 75 64 17 79 61 18 77 13 19 31 12 20 27 10 21 23 19 22 46 48 23 133 50 24 143 53 25 150 5 26 13 43 27 116 58 28 167 7 29 16 7 30 10 71 31 214 43 32 114 33 33 79 31 34 75 42 35 120 69 36 39 44 37 128 8 38 17 8 39 17 45 40 128 17 41 39 66 42 42 47 43 108 56 44 160 56 45 160 39 46 108 18 47 42 10 48 22 46 49 92 19 50 45 22 51 45 36 52 92 70 53 22 25 54 56 53 55 153 60 56 82 7 57 13 54 58 150 51 59 143 26 60 60 16 61 30 12 62 26 12 63 26 13 64 30 26 65 60 69 66 37 37 67 100 44 68 126 64 69 80 30 70 74 39 71 105 5 72 16 57 73 167 41 74 116 58 75 166 43 76 117 40 77 111 63 78 65 58 79 169 14 80 32 0 81 1 24 82 55 15 83 35 47 84 105 31 85 74 33 86 80 7 87 15 38 88 99 45 89 127 45 90 126 38 91 100 17 92 37 2 93 6 37 94 101 69 95 38 52 96 135 47 97 102 66 98 40 18 99 41 49 100 138 67 101 19 44 102 127 37 103 99 5 104 15 19 105 44 46 106 91 5 107 9 20 108 47 39 109 107 1 110 0 1 111 0 47 112 107 20 113 47 21 114 49 36 115 90 62 116 50 11 117 50 46 118 90 21 119 49 17 120 38 38 121 101 2 122 6 48 123 133 22 124 46 70 125 23 70 126 51 36 127 93 23 128 52 23 129 52 46 130 93 10 131 51 59 132 111 41 133 117 57 134 166 14 135 32 57 136 169 28 137 65 35 138 82 54 139 153 25 140 56 15 141 36 53 142 152 25 143 57 68 144 5 16 145 58 26 146 59 26 147 59 13 148 58 4 149 5 27 150 61 55 151 68 41 152 115 40 153 110 43 154 112 6 155 12 0 156 34 34 157 64 63 158 63 28 159 63 24 160 64 0 161 34 7 162 66 52 163 136 71 164 213 67 165 21 49 166 137 55 167 67 30 168 69 13 169 70 5 170 71 4 171 72 13 172 29 30 173 73 7 174 71 16 175 70 31 176 69 31 177 73 16 178 29 68 179 72 8 180 18 44 181 129 61 182 76 32 183 76 45 184 129 8 185 18 64 186 78 39 187 106 20 188 48 20 189 48 47 190 106 33 191 78 25 192 57 54 193 152 65 194 36 65 195 35 34 196 55 0 197 1 60 198 81 53 199 151 50 200 142 36 201 88 51 202 139 62 203 24 23 204 83 36 205 84 3 206 85 3 207 4 36 208 86 21 209 87 37 210 94 19 211 95 5 212 96 2 213 97 19 214 43 37 215 98 7 216 96 22 217 95 38 218 94 38 219 98 22 220 43 2 221 97 55 222 67 49 223 136 5 224 66 39 225 103 30 226 104 5 227 8 59 228 109 57 229 168 14 230 33 14 231 33 58 232 168 40 233 109 6 234 12 41 235 112 59 236 110 6 237 14 27 238 62 41 239 113 42 240 118 31 241 119 68 242 7 4 243 7 30 244 119 42 245 118 43 246 115 29 247 68 27 248 61 43 249 113 27 250 62 6 251 14 13 252 121 44 253 122 5 254 123 61 255 124 44 256 125 13 257 28 7 258 123 45 259 122 16 260 121 16 261 28 45 262 125 32 263 124 3 264 85 46 265 84 23 266 83 21 267 87 46 268 86 3 269 4 7 270 8 31 271 104 47 272 103 7 273 20 47 274 130 52 275 134 48 276 131 19 277 132 2 278 2 2 279 2 22 280 132 48 281 131 49 282 134 39 283 130 5 284 20 18 285 40 39 286 102 49 287 135 11 288 24 50 289 139 46 290 88 60 291 140 50 292 141 11 293 25 62 294 25 51 295 141 35 296 140 51 297 142 54 298 151 35 299 81 71 300 212 52 301 137 9 302 21 9 303 19 52 304 138 66 305 41 53 306 145 24 307 146 5 308 147 15 309 148 24 310 54 53 311 149 7 312 147 34 313 146 54 314 145 54 315 149 34 316 54 65 317 148 27 318 154 29 319 155 55 320 156 29 321 155 9 322 157 67 323 196 29 324 155 67 325 196 55 326 156 1 327 3 39 328 158 56 329 159 56 330 159 47 331 158 1 332 3 24 333 161 57 334 162 5 335 163 28 336 164 57 337 165 24 338 53 7 339 163 58 340 162 34 341 161 34 342 53 58 343 165 63 344 164 14 345 170 40 346 171 59 347 172 6 348 173 59 349 172 40 350 171 62 351 183 35 352 175 60 353 176 62 354 183 60 355 176 11 356 174 25 357 177 60 358 176 35 359 175 12 360 178 32 361 179 61 362 180 8 363 181 61 364 180 32 365 179 21 366 182 62 367 183 11 368 174 0 369 184 63 370 185 28 371 186 14 372 170 28 373 186 63 374 185 20 375 187 33 376 188 64 377 189 42 378 190 64 379 189 33 380 188 25 381 177 65 382 191 15 383 192 0 384 184 15 385 192 65 386 191 18 387 194 9 388 157 66 389 193 9 390 157 18 391 194 67 392 196 56 393 195 18 394 194 66 395 193 42 396 190 68 397 197 4 398 198 26 399 199 4 400 198 68 401 197 8 402 181 17 403 200 69 404 201 2 405 202 69 406 201 17 407 200 48 408 203 70 409 204 10 410 205 23 411 206 10 412 205 70 413 204 43 414 207 71 415 208 29 416 209 29 417 67 71 418 210 9 419 211</p>
        </triangles>
      </mesh>
    </geometry>
    <geometry id="SM_Coral_Table_Acropora_07_LOD2-lib" name="SM_Coral_Table_Acropora_07_LOD2Mesh">
      <mesh>
        <source id="SM_Coral_Table_Acropora_07_LOD2-POSITION">
          <float_array id="SM_Coral_Table_Acropora_07_LOD2-POSITION-array" count="150">
-2.113770 -25.079163 8.526149
-19.948669 12.076233 4.575746
7.107666 3.647217 6.376987
21.594788 -11.304260 7.525202
-12.308105 22.785217 6.133315
-4.076416 -1.434814 -0.000000
-18.152832 -18.428223 7.975837
-4.074036 -1.411072 0.198572
8.883545 15.815674 7.104210
-19.019348 -1.015869 5.779847
15.591736 1.768494 6.602254
14.770996 -20.192688 8.227208
-1.595642 25.062927 7.241778
-2.811768 11.876770 1.777522
-10.253113 -22.015259 8.215985
1.376831 -22.188171 8.336520
-2.834839 11.825928 1.969581
9.727112 8.928711 6.683283
-21.594788 2.159363 5.011649
5.806274 0.197876 3.276917
-17.482666 12.779907 4.770701
19.841492 -16.032227 8.134977
5.734741 0.159546 3.459709
19.799011 -3.504517 6.849651
-3.093628 -13.310730 4.860191
4.635986 -22.837952 8.526149
-7.731995 24.950623 6.785979
-19.967834 -14.023804 7.807192
-5.853210 -25.134460 8.334414
-20.546692 -5.547668 6.660620
-8.207886 10.692139 1.514611
-8.180969 10.654602 1.709198
5.801392 20.170654 7.251667
-16.396484 16.641907 5.035676
-3.093933 -13.245117 5.049126
10.225952 -20.668579 8.498385
8.738281 -6.346863 4.246242
2.911560 3.774048 2.645432
2.826538 3.758850 2.825824
-12.048096 5.318542 2.198584
-13.323303 -21.400452 8.271152
-11.153687 -9.971313 4.646635
-12.609070 20.753784 5.941063
-11.113403 -9.919617 4.835608
0.926147 9.409546 2.150979
0.863647 9.379822 2.338633
8.785339 -6.365845 4.052783
-11.994507 5.317932 2.391281
10.269043 3.438599 6.678920
-12.871094 0.366089 3.049325
</float_array>
          <technique_common>
            <accessor source="#SM_Coral_Table_Acropora_07_LOD2-POSITION-array" count="50" stride="3">
              <param name="X" type="float"/>
              <param name="Y" type="float"/>
              <param name="Z" type="float"/>
            </accessor>
          </technique_common>
        </source>
        <source id="SM_Coral_Table_Acropora_07_LOD2-Normal0">
          <float_array id="SM_Coral_Table_Acropora_07_LOD2-Normal0-array" count="864">
0.011868 0.116408 0.993131
-0.189113 -0.906205 0.378192
-0.223025 0.109723 0.968618
-0.206187 -0.266800 -0.941438
-0.955288 -0.015107 0.295290
-0.014796 -0.115427 -0.993206
0.251255 -0.078634 -0.964722
0.774952 -0.602041 0.192341
-0.014796 -0.115427 -0.993206
0.011868 0.116408 0.993131
-0.223025 0.109723 0.968618
-0.352555 -0.192541 0.915769
0.226581 0.910155 0.346814
-0.118485 -0.250556 0.960824
0.620481 0.683326 0.384797
-0.818192 0.191701 0.542044
-0.141575 0.190506 -0.971424
-0.823535 0.512273 0.243653
0.620481 0.683326 0.384797
0.119987 0.258464 -0.958540
0.226581 0.910155 0.346814
0.660529 0.707989 0.249906
0.362121 0.204352 -0.909455
0.164473 0.785477 0.596636
0.774952 -0.602041 0.192341
-0.025243 -0.339126 -0.940402
-0.014796 -0.115427 -0.993206
0.195766 0.266064 0.943867
0.023438 0.330393 0.943552
0.011868 0.116408 0.993131
0.011868 0.116408 0.993131
-0.955288 -0.015107 0.295290
0.195766 0.266064 0.943867
-0.823535 0.512273 0.243653
0.135811 -0.183132 0.973662
-0.818192 0.191701 0.542044
0.902496 -0.041877 0.428657
0.320357 0.153742 -0.934738
0.852317 0.350054 0.388610
0.852317 0.350054 0.388610
-0.312325 -0.148665 0.938271
0.902496 -0.041877 0.428657
-0.980598 0.150419 0.125704
0.272406 0.008584 0.962144
-0.733671 0.664725 0.140952
-0.733671 0.664725 0.140952
-0.271901 0.008432 -0.962288
-0.980598 0.150419 0.125704
0.660529 0.707989 0.249906
0.251255 -0.078634 -0.964722
0.362121 0.204352 -0.909455
-0.352555 -0.192541 0.915769
-0.223025 0.109723 0.968618
0.660529 0.707989 0.249906
0.158516 -0.946976 0.279482
-0.025243 -0.339126 -0.940402
-0.189113 -0.906205 0.378192
0.011868 0.116408 0.993131
0.023438 0.330393 0.943552
-0.189113 -0.906205 0.378192
-0.258510 0.912530 0.316955
-0.118485 -0.250556 0.960824
0.226581 0.910155 0.346814
0.226581 0.910155 0.346814
0.119987 0.258464 -0.958540
-0.258510 0.912530 0.316955
0.902496 -0.041877 0.428657
0.435575 0.079849 -0.896604
0.320357 0.153742 -0.934738
-0.823535 0.512273 0.243653
-0.141575 0.190506 -0.971424
-0.271901 0.008432 -0.962288
-0.014796 -0.115427 -0.993206
-0.025243 -0.339126 -0.940402
-0.206187 -0.266800 -0.941438
0.023438 0.330393 0.943552
0.195766 0.266064 0.943867
-0.373811 -0.882506 0.285392
-0.288416 -0.932200 0.218674
0.023438 0.330393 0.943552
-0.332635 -0.886528 0.321591
0.294745 -0.915927 0.272404
-0.025243 -0.339126 -0.940402
0.125421 -0.897651 0.422484
0.272406 0.008584 0.962144
0.135811 -0.183132 0.973662
-0.823535 0.512273 0.243653
0.011868 0.116408 0.993131
-0.425088 -0.075931 0.901962
-0.312325 -0.148665 0.938271
-0.312325 -0.148665 0.938271
-0.425088 -0.075931 0.901962
0.902496 -0.041877 0.428657
0.259458 0.238458 0.935852
0.435575 0.079849 -0.896604
0.902496 -0.041877 0.428657
-0.639407 -0.561141 0.525623
0.272406 0.008584 0.962144
-0.980598 0.150419 0.125704
-0.980598 0.150419 0.125704
-0.320537 -0.134468 -0.937643
-0.639407 -0.561141 0.525623
0.320357 0.153742 -0.934738
0.435575 0.079849 -0.896604
-0.014796 -0.115427 -0.993206
0.362121 0.204352 -0.909455
0.251255 -0.078634 -0.964722
-0.014796 -0.115427 -0.993206
-0.751994 0.538715 0.379856
-0.271901 0.008432 -0.962288
-0.733671 0.664725 0.140952
-0.733671 0.664725 0.140952
0.272406 0.008584 0.962144
-0.751994 0.538715 0.379856
0.788724 -0.562139 0.248825
-0.223025 0.109723 0.968618
0.774952 -0.602041 0.192341
0.774952 -0.602041 0.192341
0.251255 -0.078634 -0.964722
0.788724 -0.562139 0.248825
0.902496 -0.041877 0.428657
-0.425088 -0.075931 0.901962
0.259458 0.238458 0.935852
0.164473 0.785477 0.596636
-0.352555 -0.192541 0.915769
0.660529 0.707989 0.249906
0.660529 0.707989 0.249906
-0.223025 0.109723 0.968618
0.888038 0.421107 0.184549
0.888038 0.421107 0.184549
0.251255 -0.078634 -0.964722
0.660529 0.707989 0.249906
-0.373811 -0.882506 0.285392
-0.206187 -0.266800 -0.941438
-0.025243 -0.339126 -0.940402
-0.332635 -0.886528 0.321591
-0.025243 -0.339126 -0.940402
-0.288416 -0.932200 0.218674
-0.189113 -0.906205 0.378192
0.023438 0.330393 0.943552
0.158516 -0.946976 0.279482
0.125421 -0.897651 0.422484
-0.025243 -0.339126 -0.940402
0.158516 -0.946976 0.279482
-0.705462 0.665618 0.243468
-0.118485 -0.250556 0.960824
-0.258510 0.912530 0.316955
-0.258510 0.912530 0.316955
0.119987 0.258464 -0.958540
-0.705462 0.665618 0.243468
-0.932563 -0.213674 0.290980
-0.955288 -0.015107 0.295290
-0.206187 -0.266800 -0.941438
-0.373811 -0.882506 0.285392
0.195766 0.266064 0.943867
-0.730186 -0.642375 0.232771
0.294745 -0.915927 0.272404
0.023438 0.330393 0.943552
-0.288416 -0.932200 0.218674
-0.288416 -0.932200 0.218674
-0.025243 -0.339126 -0.940402
0.294745 -0.915927 0.272404
0.011868 0.116408 0.993131
-0.639407 -0.561141 0.525623
-0.955288 -0.015107 0.295290
-0.639407 -0.561141 0.525623
-0.320537 -0.134468 -0.937643
-0.955288 -0.015107 0.295290
-0.141575 0.190506 -0.971424
0.119987 0.258464 -0.958540
-0.014796 -0.115427 -0.993206
-0.705462 0.665618 0.243468
0.119987 0.258464 -0.958540
-0.141575 0.190506 -0.971424
0.011868 0.116408 0.993131
-0.118485 -0.250556 0.960824
0.135811 -0.183132 0.973662
0.135811 -0.183132 0.973662
-0.118485 -0.250556 0.960824
-0.705462 0.665618 0.243468
0.852317 0.350054 0.388610
0.320357 0.153742 -0.934738
0.620481 0.683326 0.384797
0.620481 0.683326 0.384797
-0.312325 -0.148665 0.938271
0.852317 0.350054 0.388610
-0.823535 0.512273 0.243653
-0.271901 0.008432 -0.962288
-0.751994 0.538715 0.379856
-0.751994 0.538715 0.379856
0.272406 0.008584 0.962144
-0.823535 0.512273 0.243653
0.158516 -0.946976 0.279482
0.023438 0.330393 0.943552
0.125421 -0.897651 0.422484
0.125421 -0.897651 0.422484
0.023438 0.330393 0.943552
0.294745 -0.915927 0.272404
-0.189113 -0.906205 0.378192
-0.025243 -0.339126 -0.940402
0.774952 -0.602041 0.192341
-0.223025 0.109723 0.968618
-0.189113 -0.906205 0.378192
0.774952 -0.602041 0.192341
0.888038 0.421107 0.184549
-0.223025 0.109723 0.968618
0.979814 -0.090977 0.178010
0.979814 -0.090977 0.178010
-0.223025 0.109723 0.968618
0.788724 -0.562139 0.248825
0.435575 0.079849 -0.896604
0.362121 0.204352 -0.909455
-0.014796 -0.115427 -0.993206
0.259458 0.238458 0.935852
0.362121 0.204352 -0.909455
0.435575 0.079849 -0.896604
0.011868 0.116408 0.993131
-0.352555 -0.192541 0.915769
-0.425088 -0.075931 0.901962
-0.425088 -0.075931 0.901962
-0.352555 -0.192541 0.915769
0.259458 0.238458 0.935852
-0.955288 -0.015107 0.295290
-0.320537 -0.134468 -0.937643
-0.014796 -0.115427 -0.993206
-0.271901 0.008432 -0.962288
-0.141575 0.190506 -0.971424
-0.014796 -0.115427 -0.993206
-0.373811 -0.882506 0.285392
-0.025243 -0.339126 -0.940402
-0.332635 -0.886528 0.321591
-0.332635 -0.886528 0.321591
0.023438 0.330393 0.943552
-0.373811 -0.882506 0.285392
-0.730186 -0.642375 0.232771
-0.206187 -0.266800 -0.941438
-0.373811 -0.882506 0.285392
-0.730186 -0.642375 0.232771
-0.932563 -0.213674 0.290980
-0.206187 -0.266800 -0.941438
-0.818192 0.191701 0.542044
0.135811 -0.183132 0.973662
-0.705462 0.665618 0.243468
-0.705462 0.665618 0.243468
-0.141575 0.190506 -0.971424
-0.818192 0.191701 0.542044
0.195766 0.266064 0.943867
-0.955288 -0.015107 0.295290
-0.932563 -0.213674 0.290980
0.195766 0.266064 0.943867
-0.932563 -0.213674 0.290980
-0.730186 -0.642375 0.232771
0.119987 0.258464 -0.958540
0.320357 0.153742 -0.934738
-0.014796 -0.115427 -0.993206
0.620481 0.683326 0.384797
0.320357 0.153742 -0.934738
0.119987 0.258464 -0.958540
0.011868 0.116408 0.993131
-0.312325 -0.148665 0.938271
-0.118485 -0.250556 0.960824
-0.118485 -0.250556 0.960824
-0.312325 -0.148665 0.938271
0.620481 0.683326 0.384797
0.979814 -0.090977 0.178010
0.251255 -0.078634 -0.964722
0.888038 0.421107 0.184549
0.788724 -0.562139 0.248825
0.251255 -0.078634 -0.964722
0.979814 -0.090977 0.178010
0.011868 0.116408 0.993131
0.135811 -0.183132 0.973662
0.272406 0.008584 0.962144
0.011868 0.116408 0.993131
0.272406 0.008584 0.962144
-0.639407 -0.561141 0.525623
0.164473 0.785477 0.596636
0.362121 0.204352 -0.909455
0.259458 0.238458 0.935852
0.259458 0.238458 0.935852
-0.352555 -0.192541 0.915769
0.164473 0.785477 0.596636
-0.320537 -0.134468 -0.937643
-0.271901 0.008432 -0.962288
-0.014796 -0.115427 -0.993206
-0.980598 0.150419 0.125704
-0.271901 0.008432 -0.962288
-0.320537 -0.134468 -0.937643
</float_array>
          <technique_common>
            <accessor source="#SM_Coral_Table_Acropora_07_LOD2-Normal0-array" count="288" stride="3">
              <param name="X" type="float"/>
              <param name="Y" type="float"/>
              <param name="Z" type="float"/>
            </accessor>
          </technique_common>
        </source>
        <source id="SM_Coral_Table_Acropora_07_LOD2-UV0">
          <float_array id="SM_Coral_Table_Acropora_07_LOD2-UV0-array" count="278">
0.873047 0.106934
0.924316 0.000000
0.950684 0.082520
0.873047 0.106934
0.992188 0.040039
0.895020 0.137207
0.950684 0.082520
0.895020 0.137207
0.918457 0.068359
0.918457 0.068359
0.918457 0.068359
0.918457 0.068359
0.877930 0.019531
0.918457 0.068359
0.877930 0.019531
0.918457 0.068359
0.918457 0.068359
0.955566 0.117676
0.955566 0.117676
0.875488 0.069336
0.918457 0.068359
0.875488 0.069336
0.974609 0.077148
0.974609 0.077148
0.972656 0.014648
0.972656 0.014648
0.925781 0.144043
0.925781 0.144043
0.921875 0.105957
0.921875 0.105957
0.921875 0.105957
0.921875 0.105957
0.900879 0.009277
0.900879 0.009277
0.924316 0.000000
0.934082 0.008789
0.934082 0.008789
0.958008 0.097656
0.958008 0.097656
0.958008 0.097656
0.868652 0.078613
0.868652 0.078613
0.868652 0.078613
0.946777 0.072754
0.946777 0.072754
0.946777 0.072754
0.946777 0.072754
0.879883 0.108887
0.879883 0.108887
0.987305 0.026367
0.972656 0.014648
0.974609 0.077148
0.986816 0.062012
0.921387 0.034180
0.921387 0.034180
0.921387 0.034180
0.943359 0.006836
0.943359 0.006836
0.921875 0.105957
0.908203 0.143555
0.908203 0.143555
0.873047 0.031738
0.873047 0.031738
0.913574 0.000000
0.921387 0.034180
0.913574 0.000000
0.918457 0.068359
0.871094 0.056152
0.871094 0.056152
0.906738 0.102539
0.921875 0.105957
0.918457 0.068359
0.895020 0.137207
0.906738 0.102539
0.906738 0.102539
0.906738 0.102539
0.946777 0.129883
0.946777 0.129883
0.883301 0.120117
0.883301 0.120117
0.883301 0.120117
0.959473 0.012695
0.959473 0.012695
0.986816 0.062012
0.955078 0.054199
0.992188 0.040039
0.955078 0.054199
0.987305 0.026367
0.955078 0.054199
0.955078 0.054199
0.955078 0.054199
0.955078 0.054199
0.955078 0.054199
0.955078 0.054199
0.938477 0.083008
0.946777 0.072754
0.918457 0.068359
0.950684 0.082520
0.938477 0.083008
0.938477 0.083008
0.938477 0.083008
0.938477 0.083008
0.895996 0.087402
0.895996 0.087402
0.906738 0.102539
0.895996 0.087402
0.895996 0.087402
0.895996 0.087402
0.895996 0.087402
0.892090 0.010742
0.892090 0.010742
0.892090 0.010742
0.898438 0.043945
0.898438 0.043945
0.898438 0.043945
0.898438 0.043945
0.898438 0.043945
0.898438 0.043945
0.894043 0.131836
0.906738 0.102539
0.894043 0.131836
0.921875 0.105957
0.932617 0.099121
0.918457 0.068359
0.946777 0.129883
0.932617 0.099121
0.932617 0.099121
0.932617 0.099121
0.932617 0.099121
0.932617 0.099121
0.895996 0.087402
0.959473 0.082031
0.946777 0.072754
0.959473 0.082031
0.893555 0.073242
0.893555 0.073242
0.893555 0.073242
0.893555 0.073242
0.893555 0.073242
</float_array>
          <technique_common>
            <accessor source="#SM_Coral_Table_Acropora_07_LOD2-UV0-array" count="139" stride="2">
              <param name="S" type="float"/>
              <param name="T" type="float"/>
            </accessor>
          </technique_common>
        </source>
        <vertices id="SM_Coral_Table_Acropora_07_LOD2-VERTEX">
          <input semantic="POSITION" source="#SM_Coral_Table_Acropora_07_LOD2-POSITION"/>
        </vertices>
        <triangles count="96" material="MAT_Coral_Table">
          <input semantic="VERTEX" offset="0" source="#SM_Coral_Table_Acropora_07_LOD2-VERTEX"/>
          <input semantic="NORMAL" offset="1" source="#SM_Coral_Table_Acropora_07_LOD2-Normal0"/>
          <input semantic="TEXCOORD" offset="2" set="0" source="#SM_Coral_Table_Acropora_07_LOD2-UV0"/>
          <p> 7 0 11 35 1 81 36 2 89 41 3 114 29 4 67 5 5 10 46 6 89 11 7 25 5 8 11 7 9 9 36 10 91 22 11 44 12 12 27 16 13 31 32 14 77 42 15 120 30 16 75 33 17 79 32 18 77 13 19 31 12 20 27 10 21 23 19 22 46 48 23 133 11 24 25 24 25 54 5 26 13 43 27 116 34 28 53 7 29 16 7 30 10 29 31 67 43 32 114 33 33 79 31 34 75 42 35 120 17 36 39 44 37 128 8 38 17 8 39 17 45 40 128 17 41 39 18 42 42 47 43 108 1 44 3 1 45 3 39 46 108 18 47 42 10 48 22 46 49 92 19 50 45 22 51 45 36 52 92 10 53 22 25 54 56 24 55 54 35 56 82 7 57 13 34 58 54 35 59 81 26 60 60 16 61 30 12 62 26 12 63 26 13 64 30 26 65 60 17 66 37 37 67 100 44 68 126 33 69 80 30 70 74 39 71 105 5 72 16 24 73 53 41 74 116 34 75 53 43 76 117 40 77 111 28 78 65 34 79 53 14 80 32 0 81 1 24 82 55 15 83 35 47 84 105 31 85 74 33 86 80 7 87 15 38 88 99 45 89 127 45 90 126 38 91 100 17 92 37 2 93 6 37 94 101 17 95 38 9 96 19 47 97 102 18 98 40 18 99 41 49 100 138 9 101 19 44 102 127 37 103 99 5 104 15 19 105 44 46 106 91 5 107 9 20 108 47 39 109 107 1 110 0 1 111 0 47 112 107 20 113 47 21 114 49 36 115 90 11 116 50 11 117 50 46 118 90 21 119 49 17 120 38 38 121 101 2 122 6 48 123 133 22 124 46 10 125 23 10 126 51 36 127 93 23 128 52 23 129 52 46 130 93 10 131 51 40 132 111 41 133 117 24 134 53 14 135 32 24 136 53 28 137 65 35 138 82 34 139 54 25 140 56 15 141 36 24 142 54 25 143 57 4 144 5 16 145 58 26 146 59 26 147 59 13 148 58 4 149 5 27 150 61 29 151 68 41 152 115 40 153 110 43 154 112 6 155 12 0 156 34 34 157 64 28 158 63 28 159 63 24 160 64 0 161 34 7 162 66 9 163 19 29 164 67 9 165 21 49 166 137 29 167 67 30 168 69 13 169 70 5 170 71 4 171 72 13 172 29 30 173 73 7 174 71 16 175 70 31 176 69 31 177 73 16 178 29 4 179 72 8 180 18 44 181 129 32 182 76 32 183 76 45 184 129 8 185 18 33 186 78 39 187 106 20 188 48 20 189 48 47 190 106 33 191 78 25 192 57 34 193 54 15 194 36 15 195 35 34 196 55 0 197 1 35 198 81 24 199 54 11 200 25 36 201 88 35 202 81 11 203 24 23 204 83 36 205 84 3 206 85 3 207 4 36 208 86 21 209 87 37 210 94 19 211 95 5 212 96 2 213 97 19 214 43 37 215 98 7 216 96 22 217 95 38 218 94 38 219 98 22 220 43 2 221 97 29 222 67 49 223 136 5 224 66 39 225 103 30 226 104 5 227 8 40 228 109 24 229 53 14 230 33 14 231 33 34 232 53 40 233 109 6 234 12 41 235 112 40 236 110 6 237 14 27 238 62 41 239 113 42 240 118 31 241 119 4 242 7 4 243 7 30 244 119 42 245 118 43 246 115 29 247 68 27 248 61 43 249 113 27 250 62 6 251 14 13 252 121 44 253 122 5 254 123 32 255 124 44 256 125 13 257 28 7 258 123 45 259 122 16 260 121 16 261 28 45 262 125 32 263 124 3 264 85 46 265 84 23 266 83 21 267 87 46 268 86 3 269 4 7 270 8 31 271 104 47 272 103 7 273 20 47 274 130 9 275 19 48 276 131 19 277 132 2 278 2 2 279 2 22 280 132 48 281 131 49 282 134 39 283 130 5 284 20 18 285 40 39 286 102 49 287 135</p>
        </triangles>
      </mesh>
    </geometry>
  </library_geometries>
  <library_visual_scenes>
    <visual_scene id="SM_Coral_Table_Acropora_07" name="SM_Coral_Table_Acropora_07">
      <node name="SM_Coral_Table_Acropora_07_LOD0" id="SM_Coral_Table_Acropora_07_LOD0" layer="urchin" sid="SM_Coral_Table_Acropora_07_LOD0">
        <matrix sid="matrix">1.000000 0.000000 0.000000 0.000000 0.000000 0.000000 1.000000 0.000000 0.000000 -1.000000 0.000000 0.000000 0.000000 0.000000 0.000000 1.000000</matrix>
        <instance_geometry url="#SM_Coral_Table_Acropora_07_LOD0-lib">
          <bind_material>
            <technique_common>
              <instance_material symbol="MAT_Coral_Table" target="#MAT_Coral_Table"/>
            </technique_common>
          </bind_material>
        </instance_geometry>
        <extra>
          <technique profile="FCOLLADA">
            <visibility>1.000000</visibility>
          </technique>
        </extra>
      </node>
      <node name="SM_Coral_Table_Acropora_07_LOD1" id="SM_Coral_Table_Acropora_07_LOD1" layer="urchin" sid="SM_Coral_Table_Acropora_07_LOD1">
        <matrix sid="matrix">1.000000 0.000000 0.000000 0.000000 0.000000 0.000000 1.000000 0.000000 0.000000 -1.000000 0.000000 0.000000 0.000000 0.000000 0.000000 1.000000</matrix>
        <instance_geometry url="#SM_Coral_Table_Acropora_07_LOD1-lib">
          <bind_material>
            <technique_common>
              <instance_material symbol="MAT_Coral_Table" target="#MAT_Coral_Table"/>
            </technique_common>
          </bind_material>
        </instance_geometry>
        <extra>
          <technique profile="FCOLLADA">
            <visibility>1.000000</visibility>
          </technique>
        </extra>
      </node>
      <node name="SM_Coral_Table_Acropora_07_LOD2" id="SM_Coral_Table_Acropora_07_LOD2" layer="urchin" sid="SM_Coral_Table_Acropora_07_LOD2">
        <matrix sid="matrix">1.000000 0.000000 0.000000 0.000000 0.000000 0.000000 1.000000 0.000000 0.000000 -1.000000 0.000000 0.000000 0.000000 0.000000 0.000000 1.000000</matrix>
        <instance_geometry url="#SM_Coral_Table_Acropora_07_LOD2-lib">
          <bind_material>
            <technique_common>
              <instance_material symbol="MAT_Coral_Table" target="#MAT_Coral_Table"/>
            </technique_common>
          </bind_material>
        </instance_geometry>
        <extra>
          <technique profile="FCOLLADA">
            <visibility>1.000000</visibility>
          </technique>
        </extra>
      </node>
      <extra>
        <technique profile="MAX3D">
          <frame_rate>30.000000</frame_rate>
        </technique>
        <technique profile="FCOLLADA">
          <start_time>0.000000</start_time>
          <end_time>3.333333</end_time>
        </technique>
      </extra>
    </visual_scene>
  </library_visual_scenes>
  <scene>
    <instance_visual_scene url="#SM_Coral_Table_Acropora_07"/>
  </scene>
</COLLADA>
