<?xml version="1.0" encoding="utf-8"?>
<COLLADA xmlns="http://www.collada.org/2005/11/COLLADASchema" version="1.4.1">
  <asset>
    <contributor>
      <author/>
      <authoring_tool>FBX COLLADA exporter</authoring_tool>
      <comments/>
    </contributor>
    <created>2024-02-10T11:42:33Z</created>
    <keywords/>
    <modified>2024-02-10T11:42:33Z</modified>
    <revision/>
    <subject/>
    <title/>
    <unit meter="0.010000" name="centimeter"/>
    <up_axis>Y_UP</up_axis>
  </asset>
  <library_materials>
    <material id="MAT_Sea_Shells" name="MAT_Sea_Shells">
      <instance_effect url="#MAT_Sea_Shells-fx"/>
    </material>
  </library_materials>
  <library_effects>
    <effect id="MAT_Sea_Shells-fx" name="MAT_Sea_Shells">
      <profile_COMMON>
        <technique sid="standard">
          <phong>
            <emission>
              <color sid="emission">0.000000  0.000000 0.000000 1.000000</color>
            </emission>
            <ambient>
              <color sid="ambient">0.588235  0.588235 0.588235 1.000000</color>
            </ambient>
            <diffuse>
              <color sid="diffuse">0.588235  0.588235 0.588235 1.000000</color>
            </diffuse>
            <specular>
              <color sid="specular">0.000000  0.000000 0.000000 1.000000</color>
            </specular>
            <shininess>
              <float sid="shininess">2.000000</float>
            </shininess>
            <reflective>
              <color sid="reflective">0.000000  0.000000 0.000000 1.000000</color>
            </reflective>
            <reflectivity>
              <float sid="reflectivity">1.000000</float>
            </reflectivity>
            <transparent opaque="RGB_ZERO">
              <color sid="transparent">1.000000  1.000000 1.000000 1.000000</color>
            </transparent>
            <transparency>
              <float sid="transparency">0.000000</float>
            </transparency>
          </phong>
        </technique>
      </profile_COMMON>
    </effect>
  </library_effects>
  <library_geometries>
    <geometry id="SM_Chiton_03_LOD0-lib" name="SM_Chiton_03_LOD0Mesh">
      <mesh>
        <source id="SM_Chiton_03_LOD0-POSITION">
          <float_array id="SM_Chiton_03_LOD0-POSITION-array" count="438">
-1.650726 -25.305161 0.000007
-1.408829 -21.934052 0.236288
5.549835 -24.595718 0.000007
12.684677 -20.156815 0.000007
16.000656 -13.251190 0.000006
16.062424 -3.511688 0.000005
15.529526 5.302231 0.000004
14.786621 -2.899673 0.033391
14.363892 4.724594 0.064452
12.626358 13.532318 0.137663
7.433563 19.190735 0.207886
13.864761 14.412262 0.000002
8.444458 21.612076 0.000002
1.831558 25.305161 0.000001
-4.737061 24.386230 0.000001
-4.161316 21.407623 0.207883
-11.406143 21.418839 0.000002
-15.511963 10.181580 0.000003
-16.062408 0.273376 0.000004
-14.720749 0.407928 0.033387
-15.014709 -11.597549 0.000006
-13.540756 -18.752792 0.000006
-11.696304 -16.347229 0.137666
-7.115616 -20.310577 0.207891
-8.086411 -23.697495 0.000007
4.901550 -21.038101 0.207891
11.382736 -17.186401 0.137666
4.264893 -18.704300 1.555015
9.803070 -15.046219 1.406058
14.219086 -11.025330 0.064454
12.534180 -9.498856 1.250760
10.948853 12.363678 1.406055
1.644073 18.983704 1.615244
1.633392 21.792740 0.236283
-10.005478 18.155869 0.137662
-14.272980 8.855743 0.064451
-13.636948 -9.616623 0.064453
-12.228851 -8.091827 1.250760
-1.227036 -19.704514 1.615249
7.900574 -12.681320 3.924769
10.767197 -7.652893 3.586945
13.285522 -2.393799 1.184877
12.997467 4.474274 1.250759
9.418961 11.591995 3.924767
6.731903 16.849304 1.555010
-3.684875 18.797897 1.555010
-8.882568 15.839249 1.406054
-3.200150 16.107101 4.248808
-12.716156 7.950989 1.250758
-11.994308 1.152588 3.443632
-13.247192 0.626526 1.184876
-10.977615 -6.071823 3.586945
-8.876022 -11.419418 3.924769
-10.315125 -14.105209 1.406058
-5.379791 -15.655655 4.248813
-6.268585 -17.995667 1.555015
-1.023331 -17.749329 4.379836
3.536285 -16.416107 4.248813
-0.864471 -13.579651 7.698790
2.555054 -12.777100 7.568508
11.978058 -1.678192 3.443632
6.707626 7.945389 7.325140
11.921051 4.554611 3.586944
5.849899 14.650406 4.248809
0.924820 10.808609 7.686737
1.533096 15.880692 4.379832
-2.442307 10.680313 7.527303
-7.775604 13.419373 3.924766
-11.231125 7.435013 3.586943
-8.111740 -4.126343 7.095788
-4.033646 -11.868591 7.615927
-0.608231 -8.048065 10.263656
1.332947 -7.812515 10.154000
5.956619 -9.642914 7.325141
7.876495 -5.766266 7.095788
4.240433 -3.343491 9.912035
4.354736 -0.433823 9.868775
8.546204 -1.067932 6.998856
4.175674 2.012924 9.910480
8.346832 3.483658 7.095788
3.352448 4.058838 9.779968
3.994873 9.815018 7.614695
1.994797 6.210342 9.542799
-5.639313 9.397110 7.301792
-8.027252 5.619080 7.095788
-4.124756 2.802979 9.835247
-4.644257 0.507339 9.868775
-8.715256 0.898239 6.998856
-4.478912 -1.906128 9.912034
-6.577377 -8.039139 7.325141
-3.654510 -4.018234 10.015459
-2.297852 -6.919647 10.233803
-2.996201 4.490112 9.512161
-1.437973 6.534393 9.413211
0.315231 6.655411 9.582320
3.407120 -5.661713 10.015459
0.385147 -0.436432 11.494486
-0.814865 -12.246506 7.944717
0.061478 -12.079987 8.054467
0.840256 -11.645569 8.264173
0.686493 -11.303345 8.704045
1.427536 -10.672882 8.674901
1.681610 -9.559082 9.123932
1.687500 -8.445099 9.560413
1.449371 -7.147659 10.056340
1.152359 -7.528290 10.205886
0.619125 -6.285080 10.351866
-0.318848 -6.638290 10.555649
-0.296722 -6.007355 10.414043
-1.207611 -6.048691 10.351542
-2.134613 -6.621170 10.080250
-2.743637 -7.735825 9.612831
-2.428085 -8.013824 9.777227
-2.868271 -8.986191 9.116910
-2.411148 -10.183365 8.928595
-2.709335 -10.369461 8.583360
-2.065231 -11.051147 8.662882
-2.352829 -11.383545 8.204414
-1.484604 -11.593018 8.534410
-1.684219 -11.959991 8.012699
-0.757477 -11.838058 8.497342
-0.005585 -11.739532 8.552238
1.187866 -10.499802 8.987685
0.461365 -10.212616 9.909117
1.410202 -9.580154 9.335123
1.427368 -8.616348 9.737337
0.596542 -9.653732 10.123783
0.556381 -9.079025 10.357812
0.432617 -6.873703 10.479774
0.002075 -8.206207 10.723791
-0.428131 -8.049423 10.773977
-1.101105 -6.677307 10.478686
-1.865326 -7.114578 10.214442
-0.875641 -8.104080 10.719148
-2.575668 -9.055786 9.337779
-1.106323 -10.856522 9.629677
-1.450180 -10.482147 9.732765
-1.657532 -9.966064 9.897909
-1.696976 -9.386917 10.111634
-1.562546 -8.832504 10.346595
-1.273590 -8.375092 10.566785
0.348145 -8.563751 10.575364
-0.564575 -9.616226 10.468717
0.171539 -10.670807 9.741356
-0.228622 -10.958664 9.634310
-0.677475 -11.025009 9.596183
</float_array>
          <technique_common>
            <accessor source="#SM_Chiton_03_LOD0-POSITION-array" count="146" stride="3">
              <param name="X" type="float"/>
              <param name="Y" type="float"/>
              <param name="Z" type="float"/>
            </accessor>
          </technique_common>
        </source>
        <source id="SM_Chiton_03_LOD0-Normal0">
          <float_array id="SM_Chiton_03_LOD0-Normal0-array" count="2304">
-0.020540 -0.286674 0.957808
-0.030327 -0.049782 0.998300
-0.004888 -0.063515 0.997969
0.020552 -0.053787 0.998341
-0.020540 -0.286674 0.957808
-0.004888 -0.063515 0.997969
0.098753 -0.257301 0.961272
-0.020540 -0.286674 0.957808
0.020552 -0.053787 0.998341
0.036144 -0.028419 0.998942
0.098753 -0.257301 0.961272
0.020552 -0.053787 0.998341
0.198364 -0.164986 0.966142
0.098753 -0.257301 0.961272
0.036144 -0.028419 0.998942
0.038147 -0.006866 0.999249
0.198364 -0.164986 0.966142
0.036144 -0.028419 0.998942
0.282479 -0.065517 0.957034
0.198364 -0.164986 0.966142
0.038147 -0.006866 0.999249
0.036240 0.000978 0.999343
0.282479 -0.065517 0.957034
0.038147 -0.006866 0.999249
0.335503 -0.004888 0.942026
0.282479 -0.065517 0.957034
0.036240 0.000978 0.999343
0.059605 0.004911 0.998210
0.335503 -0.004888 0.942026
0.036240 0.000978 0.999343
0.350952 0.042009 0.935451
0.335503 -0.004888 0.942026
0.059605 0.004911 0.998210
0.296020 0.141621 0.944624
0.350952 0.042009 0.935451
0.059605 0.004911 0.998210
0.075245 0.032234 0.996644
0.296020 0.141621 0.944624
0.059605 0.004911 0.998210
0.182724 0.235367 0.954575
0.296020 0.141621 0.944624
0.075245 0.032234 0.996644
0.053787 0.061607 0.996650
0.182724 0.235367 0.954575
0.075245 0.032234 0.996644
0.049818 0.260735 0.964124
0.182724 0.235367 0.954575
0.053787 0.061607 0.996650
0.012708 0.067520 0.997637
0.049818 0.260735 0.964124
0.053787 0.061607 0.996650
-0.018597 0.057602 0.998166
0.049818 0.260735 0.964124
0.012708 0.067520 0.997637
-0.079203 0.243378 0.966692
0.049818 0.260735 0.964124
-0.018597 0.057602 0.998166
-0.038147 0.030327 0.998812
-0.079203 0.243378 0.966692
-0.018597 0.057602 0.998166
-0.210381 0.175095 0.961812
-0.079203 0.243378 0.966692
-0.038147 0.030327 0.998812
-0.043964 0.008774 0.998995
-0.210381 0.175095 0.961812
-0.038147 0.030327 0.998812
-0.310135 0.071430 0.948005
-0.210381 0.175095 0.961812
-0.043964 0.008774 0.998995
-0.036240 -0.000975 0.999343
-0.310135 0.071430 0.948005
-0.043964 0.008774 0.998995
-0.337219 -0.008798 0.941385
-0.310135 0.071430 0.948005
-0.036240 -0.000975 0.999343
-0.319862 -0.057697 0.945706
-0.337219 -0.008798 0.941385
-0.036240 -0.000975 0.999343
-0.043964 -0.004864 0.999021
-0.319862 -0.057697 0.945706
-0.036240 -0.000975 0.999343
-0.249195 -0.137901 0.958585
-0.319862 -0.057697 0.945706
-0.043964 -0.004864 0.999021
-0.047874 -0.022507 0.998600
-0.249195 -0.137901 0.958585
-0.043964 -0.004864 0.999021
-0.141764 -0.237465 0.960996
-0.249195 -0.137901 0.958585
-0.047874 -0.022507 0.998600
-0.030327 -0.049782 0.998300
-0.141764 -0.237465 0.960996
-0.047874 -0.022507 0.998600
-0.020540 -0.286674 0.957808
-0.141764 -0.237465 0.960996
-0.030327 -0.049782 0.998300
-0.047875 -0.639919 0.766949
-0.141764 -0.237465 0.960996
-0.020540 -0.286674 0.957808
0.098753 -0.257301 0.961272
-0.047875 -0.639919 0.766949
-0.020540 -0.286674 0.957808
0.250914 -0.565151 0.785905
-0.047875 -0.639919 0.766949
0.098753 -0.257301 0.961272
0.198364 -0.164986 0.966142
0.250914 -0.565151 0.785905
0.098753 -0.257301 0.961272
0.450425 -0.362496 0.815913
0.250914 -0.565151 0.785905
0.198364 -0.164986 0.966142
0.282479 -0.065517 0.957034
0.450425 -0.362496 0.815913
0.198364 -0.164986 0.966142
0.619229 -0.163367 0.768028
0.450425 -0.362496 0.815913
0.282479 -0.065517 0.957034
0.335503 -0.004888 0.942026
0.619229 -0.163367 0.768028
0.282479 -0.065517 0.957034
0.737383 -0.028324 0.674881
0.619229 -0.163367 0.768028
0.335503 -0.004888 0.942026
0.350952 0.042009 0.935451
0.737383 -0.028324 0.674881
0.335503 -0.004888 0.942026
0.756725 0.104425 0.645339
0.737383 -0.028324 0.674881
0.350952 0.042009 0.935451
0.626851 0.331498 0.705100
0.756725 0.104425 0.645339
0.350952 0.042009 0.935451
0.296020 0.141621 0.944624
0.626851 0.331498 0.705100
0.350952 0.042009 0.935451
0.368547 0.518989 0.771248
0.626851 0.331498 0.705100
0.296020 0.141621 0.944624
0.182724 0.235367 0.954575
0.368547 0.518989 0.771248
0.296020 0.141621 0.944624
0.104654 0.570296 0.814746
0.368547 0.518989 0.771248
0.182724 0.235367 0.954575
0.049818 0.260735 0.964124
0.104654 0.570296 0.814746
0.182724 0.235367 0.954575
-0.169036 0.544350 0.821651
0.104654 0.570296 0.814746
0.049818 0.260735 0.964124
-0.079203 0.243378 0.966692
-0.169036 0.544350 0.821651
0.049818 0.260735 0.964124
-0.210381 0.175095 0.961812
-0.169036 0.544350 0.821651
-0.079203 0.243378 0.966692
-0.474263 0.405789 0.781287
-0.169036 0.544350 0.821651
-0.210381 0.175095 0.961812
-0.310135 0.071430 0.948005
-0.474263 0.405789 0.781287
-0.210381 0.175095 0.961812
-0.687119 0.176906 0.704678
-0.474263 0.405789 0.781287
-0.310135 0.071430 0.948005
-0.337219 -0.008798 0.941385
-0.687119 0.176906 0.704678
-0.310135 0.071430 0.948005
-0.744142 -0.014668 0.667861
-0.687119 0.176906 0.704678
-0.337219 -0.008798 0.941385
-0.693427 -0.137903 0.707207
-0.744142 -0.014668 0.667861
-0.337219 -0.008798 0.941385
-0.319862 -0.057697 0.945706
-0.693427 -0.137903 0.707207
-0.337219 -0.008798 0.941385
-0.550558 -0.304128 0.777426
-0.693427 -0.137903 0.707207
-0.319862 -0.057697 0.945706
-0.249195 -0.137901 0.958585
-0.550558 -0.304128 0.777426
-0.319862 -0.057697 0.945706
-0.343225 -0.515362 0.785238
-0.550558 -0.304128 0.777426
-0.249195 -0.137901 0.958585
-0.141764 -0.237465 0.960996
-0.343225 -0.515362 0.785238
-0.249195 -0.137901 0.958585
-0.047875 -0.639919 0.766949
-0.343225 -0.515362 0.785238
-0.141764 -0.237465 0.960996
-0.061583 -0.696936 0.714484
-0.343225 -0.515362 0.785238
-0.047875 -0.639919 0.766949
0.250914 -0.565151 0.785905
-0.061583 -0.696936 0.714484
-0.047875 -0.639919 0.766949
0.335263 -0.618551 0.710628
-0.061583 -0.696936 0.714484
0.250914 -0.565151 0.785905
0.450425 -0.362496 0.815913
0.335263 -0.618551 0.710628
0.250914 -0.565151 0.785905
0.560527 -0.417713 0.715071
0.335263 -0.618551 0.710628
0.450425 -0.362496 0.815913
0.619229 -0.163367 0.768028
0.560527 -0.417713 0.715071
0.450425 -0.362496 0.815913
0.705142 -0.208329 0.677772
0.560527 -0.417713 0.715071
0.619229 -0.163367 0.768028
0.737383 -0.028324 0.674881
0.705142 -0.208329 0.677772
0.619229 -0.163367 0.768028
0.785939 -0.051750 0.616134
0.705142 -0.208329 0.677772
0.737383 -0.028324 0.674881
0.756725 0.104425 0.645339
0.785939 -0.051750 0.616134
0.737383 -0.028324 0.674881
0.787341 0.116394 0.605431
0.785939 -0.051750 0.616134
0.756725 0.104425 0.645339
0.626851 0.331498 0.705100
0.787341 0.116394 0.605431
0.756725 0.104425 0.645339
0.640948 0.366965 0.674183
0.787341 0.116394 0.605431
0.626851 0.331498 0.705100
0.364722 0.554450 0.748040
0.640948 0.366965 0.674183
0.626851 0.331498 0.705100
0.368547 0.518989 0.771248
0.364722 0.554450 0.748040
0.626851 0.331498 0.705100
0.100671 0.608915 0.786821
0.364722 0.554450 0.748040
0.368547 0.518989 0.771248
0.104654 0.570296 0.814746
0.100671 0.608915 0.786821
0.368547 0.518989 0.771248
-0.182913 0.585933 0.789446
0.100671 0.608915 0.786821
0.104654 0.570296 0.814746
-0.169036 0.544350 0.821651
-0.182913 0.585933 0.789446
0.104654 0.570296 0.814746
-0.474263 0.405789 0.781287
-0.182913 0.585933 0.789446
-0.169036 0.544350 0.821651
-0.512549 0.450036 0.731273
-0.182913 0.585933 0.789446
-0.474263 0.405789 0.781287
-0.687119 0.176906 0.704678
-0.512549 0.450036 0.731273
-0.474263 0.405789 0.781287
-0.736619 0.210381 0.642754
-0.512549 0.450036 0.731273
-0.687119 0.176906 0.704678
-0.798903 -0.008798 0.601395
-0.736619 0.210381 0.642754
-0.687119 0.176906 0.704678
-0.744142 -0.014668 0.667861
-0.798903 -0.008798 0.601395
-0.687119 0.176906 0.704678
-0.758279 -0.163367 0.631129
-0.798903 -0.008798 0.601395
-0.744142 -0.014668 0.667861
-0.693427 -0.137903 0.707207
-0.758279 -0.163367 0.631129
-0.744142 -0.014668 0.667861
-0.644686 -0.329687 0.689700
-0.758279 -0.163367 0.631129
-0.693427 -0.137903 0.707207
-0.550558 -0.304128 0.777426
-0.644686 -0.329687 0.689700
-0.693427 -0.137903 0.707207
-0.444935 -0.544641 0.710914
-0.644686 -0.329687 0.689700
-0.550558 -0.304128 0.777426
-0.343225 -0.515362 0.785238
-0.444935 -0.544641 0.710914
-0.550558 -0.304128 0.777426
-0.061583 -0.696936 0.714484
-0.444935 -0.544641 0.710914
-0.343225 -0.515362 0.785238
-0.063527 -0.520898 0.851252
-0.444935 -0.544641 0.710914
-0.061583 -0.696936 0.714484
0.335263 -0.618551 0.710628
-0.063527 -0.520898 0.851252
-0.061583 -0.696936 0.714484
0.306197 -0.482267 0.820769
-0.063527 -0.520898 0.851252
0.335263 -0.618551 0.710628
0.560527 -0.417713 0.715071
0.306197 -0.482267 0.820769
0.335263 -0.618551 0.710628
0.526625 -0.340943 0.778732
0.306197 -0.482267 0.820769
0.560527 -0.417713 0.715071
0.705142 -0.208329 0.677772
0.526625 -0.340943 0.778732
0.560527 -0.417713 0.715071
0.628582 -0.167136 0.759572
0.526625 -0.340943 0.778732
0.705142 -0.208329 0.677772
0.785939 -0.051750 0.616134
0.628582 -0.167136 0.759572
0.705142 -0.208329 0.677772
0.645554 -0.036145 0.762859
0.628582 -0.167136 0.759572
0.785939 -0.051750 0.616134
0.606927 0.096776 0.788843
0.645554 -0.036145 0.762859
0.785939 -0.051750 0.616134
0.787341 0.116394 0.605431
0.606927 0.096776 0.788843
0.785939 -0.051750 0.616134
0.471599 0.278239 0.836766
0.606927 0.096776 0.788843
0.787341 0.116394 0.605431
0.640948 0.366965 0.674183
0.471599 0.278239 0.836766
0.787341 0.116394 0.605431
0.262906 0.415327 0.870852
0.471599 0.278239 0.836766
0.640948 0.366965 0.674183
0.364722 0.554450 0.748040
0.262906 0.415327 0.870852
0.640948 0.366965 0.674183
0.055676 0.467867 0.882043
0.262906 0.415327 0.870852
0.364722 0.554450 0.748040
0.100671 0.608915 0.786821
0.055676 0.467867 0.882043
0.364722 0.554450 0.748040
-0.165129 0.440693 0.882339
0.055676 0.467867 0.882043
0.100671 0.608915 0.786821
-0.182913 0.585933 0.789446
-0.165129 0.440693 0.882339
0.100671 0.608915 0.786821
-0.512549 0.450036 0.731273
-0.165129 0.440693 0.882339
-0.182913 0.585933 0.789446
-0.386276 0.349131 0.853755
-0.165129 0.440693 0.882339
-0.512549 0.450036 0.731273
-0.736619 0.210381 0.642754
-0.386276 0.349131 0.853755
-0.512549 0.450036 0.731273
-0.570394 0.188828 0.799372
-0.386276 0.349131 0.853755
-0.736619 0.210381 0.642754
-0.798903 -0.008798 0.601395
-0.570394 0.188828 0.799372
-0.736619 0.210381 0.642754
-0.655466 0.008792 0.755174
-0.570394 0.188828 0.799372
-0.798903 -0.008798 0.601395
-0.644017 -0.131941 0.753547
-0.655466 0.008792 0.755174
-0.798903 -0.008798 0.601395
-0.758279 -0.163367 0.631129
-0.644017 -0.131941 0.753547
-0.798903 -0.008798 0.601395
-0.582833 -0.252912 0.772231
-0.644017 -0.131941 0.753547
-0.758279 -0.163367 0.631129
-0.644686 -0.329687 0.689700
-0.582833 -0.252912 0.772231
-0.758279 -0.163367 0.631129
-0.420896 -0.401394 0.813468
-0.582833 -0.252912 0.772231
-0.644686 -0.329687 0.689700
-0.444935 -0.544641 0.710914
-0.420896 -0.401394 0.813468
-0.644686 -0.329687 0.689700
-0.063527 -0.520898 0.851252
-0.420896 -0.401394 0.813468
-0.444935 -0.544641 0.710914
-0.042015 -0.288293 0.956620
-0.420896 -0.401394 0.813468
-0.063527 -0.520898 0.851252
0.306197 -0.482267 0.820769
-0.042015 -0.288293 0.956620
-0.063527 -0.520898 0.851252
0.204352 -0.274663 0.939575
-0.042015 -0.288293 0.956620
0.306197 -0.482267 0.820769
0.526625 -0.340943 0.778732
0.204352 -0.274663 0.939575
0.306197 -0.482267 0.820769
0.372361 -0.192546 0.907895
0.204352 -0.274663 0.939575
0.526625 -0.340943 0.778732
0.628582 -0.167136 0.759572
0.372361 -0.192546 0.907895
0.526625 -0.340943 0.778732
0.458731 -0.079229 0.885036
0.372361 -0.192546 0.907895
0.628582 -0.167136 0.759572
0.645554 -0.036145 0.762859
0.458731 -0.079229 0.885036
0.628582 -0.167136 0.759572
0.645554 -0.036145 0.762859
0.476302 -0.004890 0.879268
0.458731 -0.079229 0.885036
0.430768 0.092791 0.897680
0.476302 -0.004890 0.879268
0.645554 -0.036145 0.762859
0.606927 0.096776 0.788843
0.430768 0.092791 0.897680
0.645554 -0.036145 0.762859
0.321821 0.222018 0.920402
0.430768 0.092791 0.897680
0.606927 0.096776 0.788843
0.471599 0.278239 0.836766
0.321821 0.222018 0.920402
0.606927 0.096776 0.788843
0.186704 0.300119 0.935452
0.321821 0.222018 0.920402
0.471599 0.278239 0.836766
0.262906 0.415327 0.870852
0.186704 0.300119 0.935452
0.471599 0.278239 0.836766
0.055676 0.467867 0.882043
0.186704 0.300119 0.935452
0.262906 0.415327 0.870852
0.055676 0.467867 0.882043
0.010759 0.335513 0.941974
0.186704 0.300119 0.935452
-0.167224 0.304169 0.937826
0.010759 0.335513 0.941974
0.055676 0.467867 0.882043
-0.165129 0.440693 0.882339
-0.167224 0.304169 0.937826
0.055676 0.467867 0.882043
-0.386276 0.349131 0.853755
-0.167224 0.304169 0.937826
-0.165129 0.440693 0.882339
-0.249324 0.270854 0.929772
-0.167224 0.304169 0.937826
-0.386276 0.349131 0.853755
-0.570394 0.188828 0.799372
-0.249324 0.270854 0.929772
-0.386276 0.349131 0.853755
-0.344942 0.178813 0.921434
-0.249324 0.270854 0.929772
-0.570394 0.188828 0.799372
-0.655466 0.008792 0.755174
-0.344942 0.178813 0.921434
-0.570394 0.188828 0.799372
-0.655466 0.008792 0.755174
-0.440359 0.030267 0.897312
-0.344942 0.178813 0.921434
-0.437085 -0.071385 0.896583
-0.440359 0.030267 0.897312
-0.655466 0.008792 0.755174
-0.644017 -0.131941 0.753547
-0.437085 -0.071385 0.896583
-0.655466 0.008792 0.755174
-0.411282 -0.133852 0.901627
-0.437085 -0.071385 0.896583
-0.644017 -0.131941 0.753547
-0.582833 -0.252912 0.772231
-0.411282 -0.133852 0.901627
-0.644017 -0.131941 0.753547
-0.296104 -0.212041 0.931322
-0.411282 -0.133852 0.901627
-0.582833 -0.252912 0.772231
-0.420896 -0.401394 0.813468
-0.296104 -0.212041 0.931322
-0.582833 -0.252912 0.772231
-0.042015 -0.288293 0.956620
-0.296104 -0.212041 0.931322
-0.420896 -0.401394 0.813468
0.010756 0.055738 0.998388
-0.296104 -0.212041 0.931322
-0.042015 -0.288293 0.956620
0.010756 0.055738 0.998388
-0.411282 -0.133852 0.901627
-0.296104 -0.212041 0.931322
0.010756 0.055738 0.998388
-0.437085 -0.071385 0.896583
-0.411282 -0.133852 0.901627
0.010756 0.055738 0.998388
-0.440359 0.030267 0.897312
-0.437085 -0.071385 0.896583
0.010756 0.055738 0.998388
-0.344942 0.178813 0.921434
-0.440359 0.030267 0.897312
0.010756 0.055738 0.998388
-0.249324 0.270854 0.929772
-0.344942 0.178813 0.921434
0.010756 0.055738 0.998388
-0.167224 0.304169 0.937826
-0.249324 0.270854 0.929772
0.010756 0.055738 0.998388
0.010759 0.335513 0.941974
-0.167224 0.304169 0.937826
0.010756 0.055738 0.998388
0.186704 0.300119 0.935452
0.010759 0.335513 0.941974
0.010756 0.055738 0.998388
0.321821 0.222018 0.920402
0.186704 0.300119 0.935452
0.010756 0.055738 0.998388
0.430768 0.092791 0.897680
0.321821 0.222018 0.920402
0.010756 0.055738 0.998388
0.476302 -0.004890 0.879268
0.430768 0.092791 0.897680
0.010756 0.055738 0.998388
0.458731 -0.079229 0.885036
0.476302 -0.004890 0.879268
0.010756 0.055738 0.998388
0.372361 -0.192546 0.907895
0.458731 -0.079229 0.885036
0.010756 0.055738 0.998388
0.204352 -0.274663 0.939575
0.372361 -0.192546 0.907895
-0.042015 -0.288293 0.956620
0.204352 -0.274663 0.939575
0.010756 0.055738 0.998388
-0.079178 -0.796687 0.599184
-0.311929 -0.707042 0.634659
-0.071294 -0.797850 0.598626
0.182785 -0.780983 0.597206
-0.079178 -0.796687 0.599184
-0.071294 -0.797850 0.598626
0.192549 -0.777121 0.599172
-0.079178 -0.796687 0.599184
0.182785 -0.780983 0.597206
0.401391 -0.659268 0.635808
0.192549 -0.777121 0.599172
0.182785 -0.780983 0.597206
0.424930 -0.655541 0.624261
0.192549 -0.777121 0.599172
0.401391 -0.659268 0.635808
0.550587 -0.489983 0.675848
0.424930 -0.655541 0.624261
0.401391 -0.659268 0.635808
0.577905 -0.487997 0.654128
0.424930 -0.655541 0.624261
0.550587 -0.489983 0.675848
0.611342 -0.355054 0.707246
0.577905 -0.487997 0.654128
0.550587 -0.489983 0.675848
0.638289 -0.347046 0.687129
0.577905 -0.487997 0.654128
0.611342 -0.355054 0.707246
0.631996 -0.225642 0.741395
0.638289 -0.347046 0.687129
0.611342 -0.355054 0.707246
0.627051 -0.235752 0.742447
0.631996 -0.225642 0.741395
0.611342 -0.355054 0.707246
0.511272 -0.059652 0.857346
0.631996 -0.225642 0.741395
0.627051 -0.235752 0.742447
0.518792 -0.057649 0.852955
0.511272 -0.059652 0.857346
0.627051 -0.235752 0.742447
0.272509 0.106430 0.956249
0.511272 -0.059652 0.857346
0.518792 -0.057649 0.852955
0.271042 0.128225 0.953989
0.272509 0.106430 0.956249
0.518792 -0.057649 0.852955
0.020542 0.171134 0.985034
0.272509 0.106430 0.956249
0.271042 0.128225 0.953989
0.024424 0.198322 0.979833
0.020542 0.171134 0.985034
0.271042 0.128225 0.953989
-0.237735 0.135991 0.961763
0.020542 0.171134 0.985034
0.024424 0.198322 0.979833
-0.223861 0.151498 0.962775
-0.237735 0.135991 0.961763
0.024424 0.198322 0.979833
-0.444467 0.012732 0.895705
-0.237735 0.135991 0.961763
-0.223861 0.151498 0.962775
-0.462301 0.018596 0.886528
-0.237735 0.135991 0.961763
-0.444467 0.012732 0.895705
-0.573640 -0.155355 0.804240
-0.462301 0.018596 0.886528
-0.444467 0.012732 0.895705
-0.599423 -0.133894 0.789154
-0.462301 0.018596 0.886528
-0.573640 -0.155355 0.804240
-0.613248 -0.290495 0.734534
-0.599423 -0.133894 0.789154
-0.573640 -0.155355 0.804240
-0.652644 -0.271033 0.707528
-0.599423 -0.133894 0.789154
-0.613248 -0.290495 0.734534
-0.634617 -0.392147 0.665945
-0.652644 -0.271033 0.707528
-0.613248 -0.290495 0.734534
-0.587471 -0.397878 0.704678
-0.634617 -0.392147 0.665945
-0.613248 -0.290495 0.734534
-0.528681 -0.548255 0.648007
-0.634617 -0.392147 0.665945
-0.587471 -0.397878 0.704678
-0.486148 -0.546755 0.681703
-0.528681 -0.548255 0.648007
-0.587471 -0.397878 0.704678
-0.337465 -0.709073 0.619139
-0.528681 -0.548255 0.648007
-0.486148 -0.546755 0.681703
-0.311929 -0.707042 0.634659
-0.337465 -0.709073 0.619139
-0.486148 -0.546755 0.681703
-0.079178 -0.796687 0.599184
-0.337465 -0.709073 0.619139
-0.311929 -0.707042 0.634659
-0.077261 -0.669874 0.738444
-0.337465 -0.709073 0.619139
-0.079178 -0.796687 0.599184
0.192549 -0.777121 0.599172
-0.077261 -0.669874 0.738444
-0.079178 -0.796687 0.599184
0.137838 -0.653946 0.743879
-0.077261 -0.669874 0.738444
0.192549 -0.777121 0.599172
0.424930 -0.655541 0.624261
0.137838 -0.653946 0.743879
0.192549 -0.777121 0.599172
0.315882 -0.575940 0.753997
0.137838 -0.653946 0.743879
0.424930 -0.655541 0.624261
0.577905 -0.487997 0.654128
0.315882 -0.575940 0.753997
0.424930 -0.655541 0.624261
0.428823 -0.467955 0.772741
0.315882 -0.575940 0.753997
0.577905 -0.487997 0.654128
0.638289 -0.347046 0.687129
0.428823 -0.467955 0.772741
0.577905 -0.487997 0.654128
0.470312 -0.366689 0.802711
0.428823 -0.467955 0.772741
0.638289 -0.347046 0.687129
0.631996 -0.225642 0.741395
0.470312 -0.366689 0.802711
0.638289 -0.347046 0.687129
0.451124 -0.276951 0.848401
0.470312 -0.366689 0.802711
0.631996 -0.225642 0.741395
0.357100 -0.169189 0.918616
0.451124 -0.276951 0.848401
0.631996 -0.225642 0.741395
0.511272 -0.059652 0.857346
0.357100 -0.169189 0.918616
0.631996 -0.225642 0.741395
0.192664 -0.067425 0.978946
0.357100 -0.169189 0.918616
0.511272 -0.059652 0.857346
0.272509 0.106430 0.956249
0.192664 -0.067425 0.978946
0.511272 -0.059652 0.857346
-0.004888 -0.022507 0.999735
0.192664 -0.067425 0.978946
0.272509 0.106430 0.956249
0.020542 0.171134 0.985034
-0.004888 -0.022507 0.999735
0.272509 0.106430 0.956249
-0.237735 0.135991 0.961763
-0.004888 -0.022507 0.999735
0.020542 0.171134 0.985034
-0.210224 -0.038146 0.976909
-0.004888 -0.022507 0.999735
-0.237735 0.135991 0.961763
-0.462301 0.018596 0.886528
-0.210224 -0.038146 0.976909
-0.237735 0.135991 0.961763
-0.378382 -0.102619 0.919944
-0.210224 -0.038146 0.976909
-0.462301 0.018596 0.886528
-0.599423 -0.133894 0.789154
-0.378382 -0.102619 0.919944
-0.462301 0.018596 0.886528
-0.483838 -0.194551 0.853259
-0.378382 -0.102619 0.919944
-0.599423 -0.133894 0.789154
-0.652644 -0.271033 0.707528
-0.483838 -0.194551 0.853259
-0.599423 -0.133894 0.789154
-0.526629 -0.292198 0.798300
-0.483838 -0.194551 0.853259
-0.652644 -0.271033 0.707528
-0.516906 -0.387861 0.763133
-0.526629 -0.292198 0.798300
-0.652644 -0.271033 0.707528
-0.634617 -0.392147 0.665945
-0.516906 -0.387861 0.763133
-0.652644 -0.271033 0.707528
-0.435471 -0.500025 0.748559
-0.516906 -0.387861 0.763133
-0.634617 -0.392147 0.665945
-0.528681 -0.548255 0.648007
-0.435471 -0.500025 0.748559
-0.634617 -0.392147 0.665945
-0.282732 -0.609569 0.740600
-0.435471 -0.500025 0.748559
-0.528681 -0.548255 0.648007
-0.337465 -0.709073 0.619139
-0.282732 -0.609569 0.740600
-0.528681 -0.548255 0.648007
-0.077261 -0.669874 0.738444
-0.282732 -0.609569 0.740600
-0.337465 -0.709073 0.619139
-0.047863 -0.362399 0.930793
-0.282732 -0.609569 0.740600
-0.077261 -0.669874 0.738444
-0.047863 -0.362399 0.930793
-0.435471 -0.500025 0.748559
-0.282732 -0.609569 0.740600
-0.047863 -0.362399 0.930793
-0.516906 -0.387861 0.763133
-0.435471 -0.500025 0.748559
-0.047863 -0.362399 0.930793
-0.526629 -0.292198 0.798300
-0.516906 -0.387861 0.763133
-0.047863 -0.362399 0.930793
-0.483838 -0.194551 0.853259
-0.526629 -0.292198 0.798300
-0.047863 -0.362399 0.930793
-0.378382 -0.102619 0.919944
-0.483838 -0.194551 0.853259
-0.047863 -0.362399 0.930793
-0.210224 -0.038146 0.976909
-0.378382 -0.102619 0.919944
-0.047863 -0.362399 0.930793
-0.004888 -0.022507 0.999735
-0.210224 -0.038146 0.976909
-0.047863 -0.362399 0.930793
0.192664 -0.067425 0.978946
-0.004888 -0.022507 0.999735
-0.047863 -0.362399 0.930793
0.357100 -0.169189 0.918616
0.192664 -0.067425 0.978946
-0.047863 -0.362399 0.930793
0.451124 -0.276951 0.848401
0.357100 -0.169189 0.918616
-0.047863 -0.362399 0.930793
0.470312 -0.366689 0.802711
0.451124 -0.276951 0.848401
-0.047863 -0.362399 0.930793
0.428823 -0.467955 0.772741
0.470312 -0.366689 0.802711
-0.047863 -0.362399 0.930793
0.315882 -0.575940 0.753997
0.428823 -0.467955 0.772741
-0.047863 -0.362399 0.930793
0.137838 -0.653946 0.743879
0.315882 -0.575940 0.753997
-0.077261 -0.669874 0.738444
0.137838 -0.653946 0.743879
-0.047863 -0.362399 0.930793
</float_array>
          <technique_common>
            <accessor source="#SM_Chiton_03_LOD0-Normal0-array" count="768" stride="3">
              <param name="X" type="float"/>
              <param name="Y" type="float"/>
              <param name="Z" type="float"/>
            </accessor>
          </technique_common>
        </source>
        <source id="SM_Chiton_03_LOD0-UV0">
          <float_array id="SM_Chiton_03_LOD0-UV0-array" count="292">
0.009109 0.302734
0.016998 0.331543
0.024109 0.301270
0.011360 0.270020
0.027191 0.272949
0.030212 0.238770
0.043274 0.243652
0.059875 0.222168
0.069641 0.229492
0.101685 0.219238
0.104553 0.225098
0.139404 0.220215
0.137207 0.226074
0.175415 0.233398
0.179077 0.227539
0.200806 0.256348
0.211548 0.250977
0.212891 0.282227
0.228638 0.280762
0.225098 0.310547
0.211792 0.308105
0.212402 0.340332
0.198242 0.334961
0.164551 0.361328
0.158691 0.355957
0.122253 0.366211
0.122559 0.359863
0.079590 0.355957
0.071350 0.362793
0.050018 0.347168
0.039734 0.355469
0.031982 0.326660
0.035095 0.300293
0.038574 0.275879
0.053467 0.250977
0.076782 0.237793
0.106995 0.232910
0.136108 0.233887
0.169922 0.242188
0.189697 0.260254
0.199463 0.282715
0.199219 0.306152
0.187256 0.329590
0.154175 0.348145
0.123230 0.351563
0.086060 0.348145
0.060181 0.339844
0.043030 0.322266
0.046448 0.298828
0.050842 0.279297
0.065369 0.259766
0.085815 0.247070
0.110474 0.241211
0.136108 0.240723
0.165649 0.250977
0.178589 0.266113
0.184326 0.284180
0.185913 0.304199
0.175293 0.323730
0.151001 0.339355
0.125000 0.343750
0.095154 0.340332
0.072876 0.332031
0.055145 0.316895
0.065491 0.297363
0.068298 0.283691
0.080200 0.270020
0.095276 0.262207
0.113647 0.258789
0.131592 0.258789
0.149902 0.264648
0.157959 0.274902
0.162598 0.287109
0.162354 0.301270
0.157227 0.313965
0.141968 0.323242
0.123413 0.326660
0.103577 0.324707
0.087952 0.319336
0.072632 0.309570
0.087280 0.295410
0.087952 0.288086
0.096191 0.279785
0.105225 0.275879
0.116638 0.275391
0.126221 0.275879
0.134521 0.278320
0.143311 0.283691
0.145386 0.290527
0.145142 0.297363
0.137085 0.303711
0.130371 0.308105
0.121399 0.310547
0.111877 0.310059
0.103455 0.307129
0.091858 0.302246
0.117126 0.291016
0.095520 0.295898
0.094482 0.292480
0.093384 0.295898
0.094788 0.298828
0.092957 0.298828
0.093018 0.301758
0.091248 0.301270
0.089111 0.304199
0.088074 0.303223
0.084656 0.304688
0.084473 0.303711
0.080566 0.304199
0.080261 0.304688
0.076233 0.302734
0.075073 0.304199
0.073608 0.300293
0.071716 0.300781
0.072693 0.297363
0.070740 0.297363
0.072937 0.294434
0.070923 0.293945
0.073303 0.290527
0.074829 0.291992
0.077759 0.288574
0.078491 0.289551
0.082764 0.288086
0.082703 0.289063
0.087158 0.290039
0.088257 0.288574
0.090454 0.291016
0.092224 0.290039
0.092529 0.293457
0.089111 0.296387
0.088806 0.297852
0.087708 0.299316
0.085876 0.300781
0.083679 0.301270
0.081360 0.300781
0.079285 0.300293
0.077881 0.298828
0.077271 0.297363
0.077515 0.295410
0.078674 0.293945
0.080566 0.292969
0.082764 0.292480
0.085083 0.292969
0.087036 0.293457
0.088501 0.294922
0.083069 0.296875
</float_array>
          <technique_common>
            <accessor source="#SM_Chiton_03_LOD0-UV0-array" count="146" stride="2">
              <param name="S" type="float"/>
              <param name="T" type="float"/>
            </accessor>
          </technique_common>
        </source>
        <vertices id="SM_Chiton_03_LOD0-VERTEX">
          <input semantic="POSITION" source="#SM_Chiton_03_LOD0-POSITION"/>
        </vertices>
        <triangles count="256" material="MAT_Sea_Shells">
          <input semantic="VERTEX" offset="0" source="#SM_Chiton_03_LOD0-VERTEX"/>
          <input semantic="NORMAL" offset="1" source="#SM_Chiton_03_LOD0-Normal0"/>
          <input semantic="TEXCOORD" offset="2" set="0" source="#SM_Chiton_03_LOD0-UV0"/>
          <p> 1 0 2 24 1 1 0 2 0 2 3 3 1 4 2 0 5 0 25 6 4 1 7 2 2 8 3 3 9 5 25 10 4 2 11 3 26 12 6 25 13 4 3 14 5 4 15 7 26 16 6 3 17 5 29 18 8 26 19 6 4 20 7 5 21 9 29 22 8 4 23 7 7 24 10 29 25 8 5 26 9 6 27 11 7 28 10 5 29 9 8 30 12 7 31 10 6 32 11 9 33 13 8 34 12 6 35 11 11 36 14 9 37 13 6 38 11 10 39 15 9 40 13 11 41 14 12 42 16 10 43 15 11 44 14 33 45 17 10 46 15 12 47 16 13 48 18 33 49 17 12 50 16 14 51 19 33 52 17 13 53 18 15 54 20 33 55 17 14 56 19 16 57 21 15 58 20 14 59 19 34 60 22 15 61 20 16 62 21 17 63 23 34 64 22 16 65 21 35 66 24 34 67 22 17 68 23 18 69 25 35 70 24 17 71 23 19 72 26 35 73 24 18 74 25 36 75 27 19 76 26 18 77 25 20 78 28 36 79 27 18 80 25 22 81 29 36 82 27 20 83 28 21 84 30 22 85 29 20 86 28 23 87 31 22 88 29 21 89 30 24 90 1 23 91 31 21 92 30 1 93 2 23 94 31 24 95 1 38 96 32 23 97 31 1 98 2 25 99 4 38 100 32 1 101 2 27 102 33 38 103 32 25 104 4 26 105 6 27 106 33 25 107 4 28 108 34 27 109 33 26 110 6 29 111 8 28 112 34 26 113 6 30 114 35 28 115 34 29 116 8 7 117 10 30 118 35 29 119 8 41 120 36 30 121 35 7 122 10 8 123 12 41 124 36 7 125 10 42 126 37 41 127 36 8 128 12 31 129 38 42 130 37 8 131 12 9 132 13 31 133 38 8 134 12 44 135 39 31 136 38 9 137 13 10 138 15 44 139 39 9 140 13 32 141 40 44 142 39 10 143 15 33 144 17 32 145 40 10 146 15 45 147 41 32 148 40 33 149 17 15 150 20 45 151 41 33 152 17 34 153 22 45 154 41 15 155 20 46 156 42 45 157 41 34 158 22 35 159 24 46 160 42 34 161 22 48 162 43 46 163 42 35 164 24 19 165 26 48 166 43 35 167 24 50 168 44 48 169 43 19 170 26 37 171 45 50 172 44 19 173 26 36 174 27 37 175 45 19 176 26 53 177 46 37 178 45 36 179 27 22 180 29 53 181 46 36 182 27 55 183 47 53 184 46 22 185 29 23 186 31 55 187 47 22 188 29 38 189 32 55 190 47 23 191 31 56 192 48 55 193 47 38 194 32 27 195 33 56 196 48 38 197 32 57 198 49 56 199 48 27 200 33 28 201 34 57 202 49 27 203 33 39 204 50 57 205 49 28 206 34 30 207 35 39 208 50 28 209 34 40 210 51 39 211 50 30 212 35 41 213 36 40 214 51 30 215 35 60 216 52 40 217 51 41 218 36 42 219 37 60 220 52 41 221 36 62 222 53 60 223 52 42 224 37 31 225 38 62 226 53 42 227 37 43 228 54 62 229 53 31 230 38 63 231 55 43 232 54 31 233 38 44 234 39 63 235 55 31 236 38 65 237 56 63 238 55 44 239 39 32 240 40 65 241 56 44 242 39 47 243 57 65 244 56 32 245 40 45 246 41 47 247 57 32 248 40 46 249 42 47 250 57 45 251 41 67 252 58 47 253 57 46 254 42 48 255 43 67 256 58 46 257 42 68 258 59 67 259 58 48 260 43 49 261 60 68 262 59 48 263 43 50 264 44 49 265 60 48 266 43 51 267 61 49 268 60 50 269 44 37 270 45 51 271 61 50 272 44 52 273 62 51 274 61 37 275 45 53 276 46 52 277 62 37 278 45 54 279 63 52 280 62 53 281 46 55 282 47 54 283 63 53 284 46 56 285 48 54 286 63 55 287 47 58 288 64 54 289 63 56 290 48 57 291 49 58 292 64 56 293 48 59 294 65 58 295 64 57 296 49 39 297 50 59 298 65 57 299 49 73 300 66 59 301 65 39 302 50 40 303 51 73 304 66 39 305 50 74 306 67 73 307 66 40 308 51 60 309 52 74 310 67 40 311 51 77 312 68 74 313 67 60 314 52 79 315 69 77 316 68 60 317 52 62 318 53 79 319 69 60 320 52 61 321 70 79 322 69 62 323 53 43 324 54 61 325 70 62 326 53 81 327 71 61 328 70 43 329 54 63 330 55 81 331 71 43 332 54 64 333 72 81 334 71 63 335 55 65 336 56 64 337 72 63 338 55 66 339 73 64 340 72 65 341 56 47 342 57 66 343 73 65 344 56 67 345 58 66 346 73 47 347 57 83 348 74 66 349 73 67 350 58 68 351 59 83 352 74 67 353 58 84 354 75 83 355 74 68 356 59 49 357 60 84 358 75 68 359 59 87 360 76 84 361 75 49 362 60 69 363 77 87 364 76 49 365 60 51 366 61 69 367 77 49 368 60 89 369 78 69 370 77 51 371 61 52 372 62 89 373 78 51 374 61 70 375 79 89 376 78 52 377 62 54 378 63 70 379 79 52 380 62 58 381 64 70 382 79 54 383 63 71 384 80 70 385 79 58 386 64 59 387 65 71 388 80 58 389 64 72 390 81 71 391 80 59 392 65 73 393 66 72 394 81 59 395 65 95 396 82 72 397 81 73 398 66 74 399 67 95 400 82 73 401 66 75 402 83 95 403 82 74 404 67 77 405 68 75 406 83 74 407 67 77 408 68 76 409 84 75 410 83 78 411 85 76 412 84 77 413 68 79 414 69 78 415 85 77 416 68 80 417 86 78 418 85 79 419 69 61 420 70 80 421 86 79 422 69 82 423 87 80 424 86 61 425 70 81 426 71 82 427 87 61 428 70 64 429 72 82 430 87 81 431 71 64 432 72 94 433 88 82 434 87 93 435 89 94 436 88 64 437 72 66 438 73 93 439 89 64 440 72 83 441 74 93 442 89 66 443 73 92 444 90 93 445 89 83 446 74 84 447 75 92 448 90 83 449 74 85 450 91 92 451 90 84 452 75 87 453 76 85 454 91 84 455 75 87 456 76 86 457 92 85 458 91 88 459 93 86 460 92 87 461 76 69 462 77 88 463 93 87 464 76 90 465 94 88 466 93 69 467 77 89 468 78 90 469 94 69 470 77 91 471 95 90 472 94 89 473 78 70 474 79 91 475 95 89 476 78 71 477 80 91 478 95 70 479 79 96 480 96 91 481 95 71 482 80 96 483 96 90 484 94 91 485 95 96 486 96 88 487 93 90 488 94 96 489 96 86 490 92 88 491 93 96 492 96 85 493 91 86 494 92 96 495 96 92 496 90 85 497 91 96 498 96 93 499 89 92 500 90 96 501 96 94 502 88 93 503 89 96 504 96 82 505 87 94 506 88 96 507 96 80 508 86 82 509 87 96 510 96 78 511 85 80 512 86 96 513 96 76 514 84 78 515 85 96 516 96 75 517 83 76 518 84 96 519 96 95 520 82 75 521 83 96 522 96 72 523 81 95 524 82 71 525 80 72 526 81 96 527 96 120 528 99 119 529 98 97 530 97 98 531 100 120 532 99 97 533 97 121 534 101 120 535 99 98 536 100 99 537 102 121 538 101 98 539 100 100 540 103 121 541 101 99 542 102 101 543 104 100 544 103 99 545 102 122 546 105 100 547 103 101 548 104 102 549 106 122 550 105 101 551 104 124 552 107 122 553 105 102 554 106 125 555 108 124 556 107 102 557 106 103 558 109 125 559 108 102 560 106 105 561 110 125 562 108 103 563 109 104 564 111 105 565 110 103 566 109 128 567 112 105 568 110 104 569 111 106 570 113 128 571 112 104 572 111 107 573 114 128 574 112 106 575 113 108 576 115 107 577 114 106 578 113 131 579 116 107 580 114 108 581 115 109 582 117 131 583 116 108 584 115 110 585 118 131 586 116 109 587 117 132 588 119 131 589 116 110 590 118 111 591 120 132 592 119 110 593 118 112 594 121 132 595 119 111 596 120 113 597 122 112 598 121 111 599 120 134 600 123 112 601 121 113 602 122 114 603 124 134 604 123 113 605 122 115 606 125 114 607 124 113 608 122 116 609 126 114 610 124 115 611 125 117 612 127 116 613 126 115 614 125 118 615 128 116 616 126 117 617 127 119 618 98 118 619 128 117 620 127 120 621 99 118 622 128 119 623 98 145 624 129 118 625 128 120 626 99 121 627 101 145 628 129 120 629 99 144 630 130 145 631 129 121 632 101 100 633 103 144 634 130 121 635 101 143 636 131 144 637 130 100 638 103 122 639 105 143 640 131 100 641 103 123 642 132 143 643 131 122 644 105 124 645 107 123 646 132 122 647 105 126 648 133 123 649 132 124 650 107 125 651 108 126 652 133 124 653 107 127 654 134 126 655 133 125 656 108 141 657 135 127 658 134 125 659 108 105 660 110 141 661 135 125 662 108 129 663 136 141 664 135 105 665 110 128 666 112 129 667 136 105 668 110 130 669 137 129 670 136 128 671 112 107 672 114 130 673 137 128 674 112 131 675 116 130 676 137 107 677 114 133 678 138 130 679 137 131 680 116 132 681 119 133 682 138 131 683 116 140 684 139 133 685 138 132 686 119 112 687 121 140 688 139 132 689 119 139 690 140 140 691 139 112 692 121 134 693 123 139 694 140 112 695 121 138 696 141 139 697 140 134 698 123 137 699 142 138 700 141 134 701 123 114 702 124 137 703 142 134 704 123 136 705 143 137 706 142 114 707 124 116 708 126 136 709 143 114 710 124 135 711 144 136 712 143 116 713 126 118 714 128 135 715 144 116 716 126 145 717 129 135 718 144 118 719 128 142 720 145 135 721 144 145 722 129 142 723 145 136 724 143 135 725 144 142 726 145 137 727 142 136 728 143 142 729 145 138 730 141 137 731 142 142 732 145 139 733 140 138 734 141 142 735 145 140 736 139 139 737 140 142 738 145 133 739 138 140 740 139 142 741 145 130 742 137 133 743 138 142 744 145 129 745 136 130 746 137 142 747 145 141 748 135 129 749 136 142 750 145 127 751 134 141 752 135 142 753 145 126 754 133 127 755 134 142 756 145 123 757 132 126 758 133 142 759 145 143 760 131 123 761 132 142 762 145 144 763 130 143 764 131 145 765 129 144 766 130 142 767 145</p>
        </triangles>
      </mesh>
    </geometry>
    <geometry id="SM_Chiton_03_LOD1-lib" name="SM_Chiton_03_LOD1Mesh">
      <mesh>
        <source id="SM_Chiton_03_LOD1-POSITION">
          <float_array id="SM_Chiton_03_LOD1-POSITION-array" count="195">
-11.406143 21.418839 0.000002
-8.086411 -23.697495 0.000007
13.864761 14.412262 0.000002
5.963013 2.643127 8.704388
12.684677 -20.156815 0.000007
1.831558 25.305161 0.000001
-0.864471 -13.579651 7.698790
-3.179993 -4.891891 10.103662
15.655029 3.226410 0.000004
-3.577606 18.202438 2.151146
-11.838654 -15.853516 0.132296
-4.017349 2.963547 9.804499
4.189026 -18.466019 1.835519
7.197311 18.402374 0.661461
-0.800140 -10.450729 9.895764
-2.178497 -11.533859 8.154426
-0.905319 -6.034973 10.372284
-15.511963 10.181580 0.000003
-7.543915 -5.574371 7.180666
3.407120 -5.661713 10.015459
-8.635651 15.299484 1.967879
-13.594711 -18.490891 0.000006
0.822739 6.520935 9.570378
13.700012 -10.555054 0.429931
13.794724 3.840591 0.579349
-4.197266 -21.140793 0.222412
-12.315643 7.811829 1.880835
-4.753464 9.752670 7.364278
1.157562 -6.844482 10.160211
10.948853 12.363678 1.406055
8.444458 21.612076 0.000002
1.134399 -11.158371 8.469894
0.385147 -0.436432 11.494486
-14.282730 0.472900 0.375673
5.549835 -24.595718 0.000007
0.203018 -7.949631 10.217829
-1.227036 -19.704514 1.615249
16.000656 -13.251190 0.000006
1.609558 18.018661 2.475040
11.927094 3.893845 3.571750
-4.033646 -11.868591 7.615927
-0.148453 -8.487305 10.596513
9.803070 -15.046219 1.406058
-8.141098 4.837952 7.079748
5.849899 14.650406 4.248809
-0.867111 21.626556 0.224028
-6.184662 -17.774704 1.809380
2.725204 10.225937 7.644489
6.707626 7.945389 7.325140
-10.005478 18.155869 0.137662
6.879700 -7.779007 7.214868
-2.470535 -7.235977 9.822435
-10.315125 -14.105209 1.406058
-1.650726 -25.305161 0.000007
-4.737061 24.386230 0.000001
-0.562805 -12.198608 7.976285
-16.062408 0.273376 0.000004
4.901550 -21.038101 0.207891
2.555054 -12.777100 7.568508
-14.272980 8.855743 0.064451
-11.994308 1.152588 3.443632
-12.228851 -8.091827 1.250760
11.382736 -17.186401 0.137666
-1.023331 -17.749329 4.379836
9.418961 11.591995 3.924767
</float_array>
          <technique_common>
            <accessor source="#SM_Chiton_03_LOD1-POSITION-array" count="65" stride="3">
              <param name="X" type="float"/>
              <param name="Y" type="float"/>
              <param name="Z" type="float"/>
            </accessor>
          </technique_common>
        </source>
        <source id="SM_Chiton_03_LOD1-Normal0">
          <float_array id="SM_Chiton_03_LOD1-Normal0-array" count="954">
0.510830 0.083402 0.855626
0.572574 -0.225922 0.788110
0.760043 0.083626 0.644470
0.084650 0.579191 0.810785
0.137848 0.468077 0.872870
0.337364 0.522073 0.783343
-0.630653 -0.151544 0.761125
-0.606774 0.168918 0.776719
-0.755798 -0.004451 0.654790
0.033804 -0.303533 0.952221
-0.388241 -0.141694 0.910600
-0.422203 -0.402517 0.812234
-0.659637 0.188793 0.727486
-0.327252 0.418249 0.847333
-0.452667 0.370877 0.810890
0.760043 0.083626 0.644470
0.572574 -0.225922 0.788110
0.394052 -0.108339 0.912680
-0.067703 -0.547875 0.833816
-0.381826 -0.559699 0.735490
-0.046442 -0.702141 0.710522
-0.327252 0.418249 0.847333
0.137848 0.468077 0.872870
0.084650 0.579191 0.810785
0.047688 0.050442 0.997588
0.409137 -0.209582 0.888078
0.510830 0.083402 0.855626
0.437863 -0.351479 0.827489
0.317454 -0.487386 0.813436
0.247422 -0.563339 0.788309
-0.010156 0.275872 0.961141
0.225314 0.349403 0.909479
0.081350 0.143091 0.986361
-0.032006 0.031364 0.998995
-0.010156 0.275872 0.961141
-0.018830 0.054638 0.998329
-0.041238 -0.024210 0.998856
-0.215951 -0.126180 0.968217
-0.191977 -0.006273 0.981380
0.016203 -0.054217 0.998398
-0.086354 -0.274836 0.957605
-0.000790 -0.053813 0.998551
0.047688 0.050442 0.997588
0.063119 0.328713 0.942318
-0.376150 0.145602 0.915047
-0.630653 -0.151544 0.761125
-0.388241 -0.141694 0.910600
-0.606774 0.168918 0.776719
0.168761 -0.141478 0.975451
0.247422 -0.563339 0.788309
0.087023 -0.255739 0.962821
0.087023 -0.255739 0.962821
-0.040177 -0.716192 0.696746
-0.086354 -0.274836 0.957605
0.620012 0.400096 0.674914
0.466372 0.282856 0.838147
0.760043 0.083626 0.644470
0.081350 0.143091 0.986361
0.225314 0.349403 0.909479
0.305136 0.157712 0.939159
-0.415417 -0.587639 0.694341
-0.122431 -0.499937 0.857364
-0.430124 -0.138333 0.892108
0.362065 -0.040507 0.931272
0.126532 -0.196360 0.972333
0.376200 -0.560017 0.738143
-0.044041 0.009224 0.998987
-0.178457 0.172916 0.968635
-0.032006 0.031364 0.998995
-0.752419 -0.152310 0.640833
-0.630653 -0.151544 0.761125
-0.755798 -0.004451 0.654790
-0.067703 -0.547875 0.833816
-0.422203 -0.402517 0.812234
-0.381826 -0.559699 0.735490
0.047688 0.050442 0.997588
0.033804 -0.303533 0.952221
0.409137 -0.209582 0.888078
0.572574 -0.225922 0.788110
0.317454 -0.487386 0.813436
0.437863 -0.351479 0.827489
-0.452667 0.370877 0.810890
-0.327252 0.418249 0.847333
-0.173250 0.548637 0.817913
-0.178457 0.172916 0.968635
-0.010156 0.275872 0.961141
-0.032006 0.031364 0.998995
-0.028036 -0.044222 0.998628
-0.086354 -0.274836 0.957605
-0.041238 -0.024210 0.998856
0.137848 0.468077 0.872870
0.466372 0.282856 0.838147
0.620012 0.400096 0.674914
0.047688 0.050442 0.997588
0.510830 0.083402 0.855626
0.063119 0.328713 0.942318
0.437863 -0.351479 0.827489
0.247422 -0.563339 0.788309
0.168761 -0.141478 0.975451
0.590330 0.062479 0.804741
0.394052 -0.108339 0.912680
0.294953 0.011882 0.955438
0.305136 0.157712 0.939159
0.540261 0.279410 0.793756
0.590330 0.062479 0.804741
0.305136 0.157712 0.939159
0.590330 0.062479 0.804741
0.294953 0.011882 0.955438
-0.086354 -0.274836 0.957605
-0.215951 -0.126180 0.968217
-0.041238 -0.024210 0.998856
-0.381826 -0.559699 0.735490
-0.422203 -0.402517 0.812234
-0.530095 -0.284539 0.798772
-0.659637 0.188793 0.727486
-0.452667 0.370877 0.810890
-0.316089 0.081298 0.945240
-0.215951 -0.126180 0.968217
-0.517298 -0.017453 0.855627
-0.191977 -0.006273 0.981380
-0.606774 0.168918 0.776719
-0.327252 0.418249 0.847333
-0.659637 0.188793 0.727486
-0.376150 0.145602 0.915047
0.063119 0.328713 0.942318
-0.327252 0.418249 0.847333
-0.125394 0.051889 0.990749
0.126532 -0.196360 0.972333
0.362065 -0.040507 0.931272
0.337364 0.522073 0.783343
0.137848 0.468077 0.872870
0.620012 0.400096 0.674914
0.225314 0.349403 0.909479
0.540261 0.279410 0.793756
0.305136 0.157712 0.939159
0.013332 0.051034 0.998608
-0.010156 0.275872 0.961141
0.081350 0.143091 0.986361
0.376200 -0.560017 0.738143
-0.122431 -0.499937 0.857364
-0.000840 -0.739436 0.673227
0.047688 0.050442 0.997588
-0.388241 -0.141694 0.910600
0.033804 -0.303533 0.952221
0.047688 0.050442 0.997588
-0.376150 0.145602 0.915047
-0.388241 -0.141694 0.910600
-0.755798 -0.004451 0.654790
-0.606774 0.168918 0.776719
-0.659637 0.188793 0.727486
-0.517298 -0.017453 0.855627
-0.659637 0.188793 0.727486
-0.316089 0.081298 0.945240
0.087023 -0.255739 0.962821
-0.086354 -0.274836 0.957605
0.016203 -0.054217 0.998398
0.572574 -0.225922 0.788110
0.033804 -0.303533 0.952221
0.317454 -0.487386 0.813436
0.033804 -0.303533 0.952221
-0.422203 -0.402517 0.812234
-0.067703 -0.547875 0.833816
0.247422 -0.563339 0.788309
-0.067703 -0.547875 0.833816
-0.046442 -0.702141 0.710522
0.247422 -0.563339 0.788309
-0.040177 -0.716192 0.696746
0.087023 -0.255739 0.962821
0.294953 0.011882 0.955438
0.394052 -0.108339 0.912680
0.112503 -0.047883 0.992497
-0.178457 0.172916 0.968635
-0.173250 0.548637 0.817913
-0.010156 0.275872 0.961141
-0.173250 0.548637 0.817913
-0.327252 0.418249 0.847333
0.084650 0.579191 0.810785
0.540261 0.279410 0.793756
0.760043 0.083626 0.644470
0.590330 0.062479 0.804741
0.760043 0.083626 0.644470
0.394052 -0.108339 0.912680
0.590330 0.062479 0.804741
-0.422203 -0.402517 0.812234
-0.630653 -0.151544 0.761125
-0.530095 -0.284539 0.798772
-0.422203 -0.402517 0.812234
-0.388241 -0.141694 0.910600
-0.630653 -0.151544 0.761125
-0.122431 -0.499937 0.857364
0.126532 -0.196360 0.972333
-0.430124 -0.138333 0.892108
0.126532 -0.196360 0.972333
-0.122431 -0.499937 0.857364
0.376200 -0.560017 0.738143
0.394052 -0.108339 0.912680
0.437863 -0.351479 0.827489
0.168761 -0.141478 0.975451
0.394052 -0.108339 0.912680
0.572574 -0.225922 0.788110
0.437863 -0.351479 0.827489
-0.606774 0.168918 0.776719
-0.376150 0.145602 0.915047
-0.327252 0.418249 0.847333
-0.388241 -0.141694 0.910600
-0.376150 0.145602 0.915047
-0.606774 0.168918 0.776719
0.225314 0.349403 0.909479
0.337364 0.522073 0.783343
0.540261 0.279410 0.793756
0.084650 0.579191 0.810785
0.337364 0.522073 0.783343
0.225314 0.349403 0.909479
-0.173250 0.548637 0.817913
0.084650 0.579191 0.810785
-0.010156 0.275872 0.961141
-0.010156 0.275872 0.961141
0.084650 0.579191 0.810785
0.225314 0.349403 0.909479
-0.086354 -0.274836 0.957605
-0.381826 -0.559699 0.735490
-0.215951 -0.126180 0.968217
-0.040177 -0.716192 0.696746
-0.381826 -0.559699 0.735490
-0.086354 -0.274836 0.957605
0.137848 0.468077 0.872870
0.063119 0.328713 0.942318
0.466372 0.282856 0.838147
-0.327252 0.418249 0.847333
0.063119 0.328713 0.942318
0.137848 0.468077 0.872870
0.063119 0.328713 0.942318
0.510830 0.083402 0.855626
0.466372 0.282856 0.838147
0.466372 0.282856 0.838147
0.510830 0.083402 0.855626
0.760043 0.083626 0.644470
-0.452667 0.370877 0.810890
-0.173250 0.548637 0.817913
-0.178457 0.172916 0.968635
-0.316089 0.081298 0.945240
-0.452667 0.370877 0.810890
-0.178457 0.172916 0.968635
0.409137 -0.209582 0.888078
0.033804 -0.303533 0.952221
0.572574 -0.225922 0.788110
0.510830 0.083402 0.855626
0.409137 -0.209582 0.888078
0.572574 -0.225922 0.788110
-0.430124 -0.138333 0.892108
0.126532 -0.196360 0.972333
-0.125394 0.051889 0.990749
-0.381826 -0.559699 0.735490
-0.530095 -0.284539 0.798772
-0.215951 -0.126180 0.968217
-0.215951 -0.126180 0.968217
-0.752419 -0.152310 0.640833
-0.517298 -0.017453 0.855627
-0.086354 -0.274836 0.957605
-0.028036 -0.044222 0.998628
-0.000790 -0.053813 0.998551
-0.018830 0.054638 0.998329
-0.010156 0.275872 0.961141
0.013332 0.051034 0.998608
-0.122431 -0.499937 0.857364
-0.415417 -0.587639 0.694341
-0.000840 -0.739436 0.673227
-0.517298 -0.017453 0.855627
-0.316089 0.081298 0.945240
-0.191977 -0.006273 0.981380
0.037471 -0.033385 0.998740
0.087023 -0.255739 0.962821
0.016203 -0.054217 0.998398
0.168761 -0.141478 0.975451
0.087023 -0.255739 0.962821
0.037471 -0.033385 0.998740
0.317454 -0.487386 0.813436
0.033804 -0.303533 0.952221
-0.067703 -0.547875 0.833816
0.317454 -0.487386 0.813436
-0.067703 -0.547875 0.833816
0.247422 -0.563339 0.788309
-0.316089 0.081298 0.945240
-0.178457 0.172916 0.968635
-0.044041 0.009224 0.998987
-0.191977 -0.006273 0.981380
-0.316089 0.081298 0.945240
-0.044041 0.009224 0.998987
-0.517298 -0.017453 0.855627
-0.755798 -0.004451 0.654790
-0.659637 0.188793 0.727486
-0.752419 -0.152310 0.640833
-0.755798 -0.004451 0.654790
-0.517298 -0.017453 0.855627
-0.530095 -0.284539 0.798772
-0.752419 -0.152310 0.640833
-0.215951 -0.126180 0.968217
-0.530095 -0.284539 0.798772
-0.630653 -0.151544 0.761125
-0.752419 -0.152310 0.640833
0.112503 -0.047883 0.992497
0.168761 -0.141478 0.975451
0.037471 -0.033385 0.998740
0.394052 -0.108339 0.912680
0.168761 -0.141478 0.975451
0.112503 -0.047883 0.992497
-0.046442 -0.702141 0.710522
-0.381826 -0.559699 0.735490
-0.040177 -0.716192 0.696746
0.247422 -0.563339 0.788309
-0.046442 -0.702141 0.710522
-0.040177 -0.716192 0.696746
0.620012 0.400096 0.674914
0.760043 0.083626 0.644470
0.540261 0.279410 0.793756
0.337364 0.522073 0.783343
0.620012 0.400096 0.674914
0.540261 0.279410 0.793756
</float_array>
          <technique_common>
            <accessor source="#SM_Chiton_03_LOD1-Normal0-array" count="318" stride="3">
              <param name="X" type="float"/>
              <param name="Y" type="float"/>
              <param name="Z" type="float"/>
            </accessor>
          </technique_common>
        </source>
        <source id="SM_Chiton_03_LOD1-UV0">
          <float_array id="SM_Chiton_03_LOD1-UV0-array" count="130">
0.016998 0.331543
0.179077 0.227539
0.212402 0.340332
0.128522 0.268556
0.030212 0.238770
0.228638 0.280762
0.099955 0.305406
0.131010 0.307687
0.164551 0.361328
0.092813 0.290675
0.091061 0.302981
0.070862 0.295079
0.040891 0.355737
0.130521 0.219985
0.086729 0.295986
0.059875 0.222168
0.052187 0.347813
0.196274 0.305720
0.065491 0.297363
0.096191 0.279785
0.144759 0.288461
0.071841 0.232049
0.073893 0.302998
0.027956 0.313676
0.053467 0.250977
0.117126 0.291016
0.197066 0.257663
0.184588 0.328283
0.153319 0.345774
0.079020 0.298429
0.211548 0.250977
0.011360 0.270020
0.169922 0.242188
0.075761 0.289450
0.158648 0.310447
0.097795 0.322719
0.133443 0.229404
0.149902 0.264648
0.060181 0.339844
0.225098 0.310547
0.009109 0.302734
0.194755 0.283171
0.068298 0.283691
0.122758 0.357396
0.138898 0.323808
0.087561 0.292349
0.122253 0.366211
0.039851 0.276235
0.087449 0.266263
0.178589 0.266113
0.044174 0.321759
0.035095 0.300293
0.095309 0.296741
0.212417 0.293394
0.133390 0.240775
0.198242 0.334961
0.086060 0.348145
0.072632 0.309570
0.158691 0.355957
0.165649 0.250977
0.046448 0.298828
0.159878 0.279950
0.043274 0.243652
0.027191 0.272949
0.125000 0.343750
</float_array>
          <technique_common>
            <accessor source="#SM_Chiton_03_LOD1-UV0-array" count="65" stride="2">
              <param name="S" type="float"/>
              <param name="T" type="float"/>
            </accessor>
          </technique_common>
        </source>
        <vertices id="SM_Chiton_03_LOD1-VERTEX">
          <input semantic="POSITION" source="#SM_Chiton_03_LOD1-POSITION"/>
        </vertices>
        <triangles count="106" material="MAT_Sea_Shells">
          <input semantic="VERTEX" offset="0" source="#SM_Chiton_03_LOD1-VERTEX"/>
          <input semantic="NORMAL" offset="1" source="#SM_Chiton_03_LOD1-Normal0"/>
          <input semantic="TEXCOORD" offset="2" set="0" source="#SM_Chiton_03_LOD1-UV0"/>
          <p> 3 0 3 50 1 48 39 2 54 38 3 41 47 4 61 44 5 49 18 6 35 43 7 44 60 8 64 35 9 45 7 10 6 40 11 57 26 12 28 27 13 34 20 14 27 39 15 54 50 16 48 23 17 21 6 18 18 46 19 50 63 20 60 27 21 34 47 22 61 38 23 41 32 24 25 19 25 19 3 26 3 42 27 24 58 28 42 12 29 47 45 30 53 13 31 26 30 32 30 0 33 2 45 34 53 54 35 39 21 36 12 10 37 16 56 38 46 34 39 31 25 40 23 53 41 40 32 42 25 22 43 20 11 44 7 18 45 35 7 46 6 43 47 44 62 48 62 12 49 47 57 50 63 57 51 63 36 52 51 25 53 23 64 54 59 48 55 37 39 56 54 30 57 30 13 58 26 2 59 1 15 60 9 14 61 14 51 62 33 28 63 22 41 64 29 31 65 10 17 66 8 49 67 55 0 68 2 61 69 56 18 70 35 60 71 64 6 72 18 40 73 57 46 74 50 32 75 25 35 76 45 19 77 19 50 78 48 58 79 42 42 80 24 20 81 27 27 82 34 9 83 17 49 84 55 45 85 53 0 86 2 1 87 0 25 88 23 21 89 12 47 90 61 48 91 37 64 92 59 32 93 25 3 94 3 22 95 20 42 96 24 12 97 47 62 98 62 24 99 36 23 100 21 8 101 13 2 102 1 29 103 32 24 104 36 2 105 1 24 106 36 8 107 13 25 108 23 10 109 16 21 110 12 46 111 50 40 112 57 52 113 38 26 114 28 20 115 27 59 116 58 10 117 16 33 118 43 56 119 46 43 120 44 27 121 34 26 122 28 11 123 7 22 124 20 27 125 34 16 126 11 41 127 29 28 128 22 44 129 49 47 130 61 64 131 59 13 132 26 29 133 32 2 134 1 5 135 5 45 136 53 30 137 30 31 138 10 14 139 14 55 140 52 32 141 25 7 142 6 35 143 45 32 144 25 11 145 7 7 146 6 60 147 64 43 148 44 26 149 28 33 150 43 26 151 28 59 152 58 57 153 63 25 154 23 34 155 31 50 156 48 35 157 45 58 158 42 35 159 45 40 160 57 6 161 18 12 162 47 6 163 18 63 164 60 12 165 47 36 166 51 57 167 63 8 168 13 23 169 21 37 170 15 49 171 55 9 172 17 45 173 53 9 174 17 27 175 34 38 176 41 29 177 32 39 178 54 24 179 36 39 180 54 23 181 21 24 182 36 40 183 57 18 184 35 52 185 38 40 186 57 7 187 6 18 188 35 14 189 14 41 190 29 51 191 33 41 192 29 14 193 14 31 194 10 23 195 21 42 196 24 62 197 62 23 198 21 50 199 48 42 200 24 43 201 44 11 202 7 27 203 34 7 204 6 11 205 7 43 206 44 13 207 26 44 208 49 29 209 32 38 210 41 44 211 49 13 212 26 9 213 17 38 214 41 45 215 53 45 216 53 38 217 41 13 218 26 25 219 23 46 220 50 10 221 16 36 222 51 46 223 50 25 224 23 47 225 61 22 226 20 48 227 37 27 228 34 22 229 20 47 230 61 22 231 20 3 232 3 48 233 37 48 234 37 3 235 3 39 236 54 20 237 27 9 238 17 49 239 55 59 240 58 20 241 27 49 242 55 19 243 19 35 244 45 50 245 48 3 246 3 19 247 19 50 248 48 51 249 33 41 250 29 16 251 11 46 252 50 52 253 38 10 254 16 10 255 16 61 256 56 33 257 43 25 258 23 1 259 0 53 260 40 54 261 39 45 262 53 5 263 5 14 264 14 15 265 9 55 266 52 33 267 43 59 268 58 56 269 46 4 270 4 57 271 63 34 272 31 62 273 62 57 274 63 4 275 4 58 276 42 35 277 45 6 278 18 58 279 42 6 280 18 12 281 47 59 282 58 49 283 55 17 284 8 56 285 46 59 286 58 17 287 8 33 288 43 60 289 64 26 290 28 61 291 56 60 292 64 33 293 43 52 294 38 61 295 56 10 296 16 52 297 38 18 298 35 61 299 56 37 300 15 62 301 62 4 302 4 23 303 21 62 304 62 37 305 15 63 306 60 46 307 50 36 308 51 12 309 47 63 310 60 36 311 51 64 312 59 39 313 54 29 314 32 44 315 49 64 316 59 29 317 32</p>
        </triangles>
      </mesh>
    </geometry>
  </library_geometries>
  <library_visual_scenes>
    <visual_scene id="SM_Chiton_03" name="SM_Chiton_03">
      <node name="SM_Chiton_03_LOD0" id="SM_Chiton_03_LOD0" layer="shells" sid="SM_Chiton_03_LOD0">
        <matrix sid="matrix">1.000000 0.000000 0.000000 0.000000 0.000000 0.000000 1.000000 0.000000 0.000000 -1.000000 0.000000 0.000000 0.000000 0.000000 0.000000 1.000000</matrix>
        <instance_geometry url="#SM_Chiton_03_LOD0-lib">
          <bind_material>
            <technique_common>
              <instance_material symbol="MAT_Sea_Shells" target="#MAT_Sea_Shells"/>
            </technique_common>
          </bind_material>
        </instance_geometry>
        <extra>
          <technique profile="FCOLLADA">
            <visibility>1.000000</visibility>
          </technique>
        </extra>
      </node>
      <node name="SM_Chiton_03_LOD1" id="SM_Chiton_03_LOD1" layer="shells" sid="SM_Chiton_03_LOD1">
        <matrix sid="matrix">1.000000 0.000000 0.000000 0.000000 0.000000 0.000000 1.000000 0.000000 0.000000 -1.000000 0.000000 0.000000 0.000000 0.000000 0.000000 1.000000</matrix>
        <instance_geometry url="#SM_Chiton_03_LOD1-lib">
          <bind_material>
            <technique_common>
              <instance_material symbol="MAT_Sea_Shells" target="#MAT_Sea_Shells"/>
            </technique_common>
          </bind_material>
        </instance_geometry>
        <extra>
          <technique profile="FCOLLADA">
            <visibility>1.000000</visibility>
          </technique>
        </extra>
      </node>
      <extra>
        <technique profile="MAX3D">
          <frame_rate>30.000000</frame_rate>
        </technique>
        <technique profile="FCOLLADA">
          <start_time>0.000000</start_time>
          <end_time>3.333333</end_time>
        </technique>
      </extra>
    </visual_scene>
  </library_visual_scenes>
  <scene>
    <instance_visual_scene url="#SM_Chiton_03"/>
  </scene>
</COLLADA>
