<?xml version="1.0" encoding="utf-8"?>
<COLLADA xmlns="http://www.collada.org/2005/11/COLLADASchema" version="1.4.1">
  <asset>
    <contributor>
      <author/>
      <authoring_tool>FBX COLLADA exporter</authoring_tool>
      <comments/>
    </contributor>
    <created>2024-02-10T11:35:25Z</created>
    <keywords/>
    <modified>2024-02-10T11:35:25Z</modified>
    <revision/>
    <subject/>
    <title/>
    <unit meter="0.010000" name="centimeter"/>
    <up_axis>Y_UP</up_axis>
  </asset>
  <library_materials>
    <material id="MAT_Coral_Table" name="MAT_Coral_Table">
      <instance_effect url="#MAT_Coral_Table-fx"/>
    </material>
  </library_materials>
  <library_effects>
    <effect id="MAT_Coral_Table-fx" name="MAT_Coral_Table">
      <profile_COMMON>
        <technique sid="standard">
          <phong>
            <emission>
              <color sid="emission">0.000000  0.000000 0.000000 1.000000</color>
            </emission>
            <ambient>
              <color sid="ambient">0.149020  0.192157 0.149020 1.000000</color>
            </ambient>
            <diffuse>
              <color sid="diffuse">0.149020  0.192157 0.149020 1.000000</color>
            </diffuse>
            <specular>
              <color sid="specular">0.000000  0.000000 0.000000 1.000000</color>
            </specular>
            <shininess>
              <float sid="shininess">2.000000</float>
            </shininess>
            <reflective>
              <color sid="reflective">0.000000  0.000000 0.000000 1.000000</color>
            </reflective>
            <reflectivity>
              <float sid="reflectivity">1.000000</float>
            </reflectivity>
            <transparent opaque="RGB_ZERO">
              <color sid="transparent">1.000000  1.000000 1.000000 1.000000</color>
            </transparent>
            <transparency>
              <float sid="transparency">0.000000</float>
            </transparency>
          </phong>
        </technique>
      </profile_COMMON>
    </effect>
  </library_effects>
  <library_geometries>
    <geometry id="SM_Coral_Table_Acropora_08_LOD0-lib" name="SM_Coral_Table_Acropora_08_LOD0Mesh">
      <mesh>
        <source id="SM_Coral_Table_Acropora_08_LOD0-POSITION">
          <float_array id="SM_Coral_Table_Acropora_08_LOD0-POSITION-array" count="162">
15.945862 -4.655945 2.861386
11.190247 5.128113 3.727644
11.986633 0.211487 3.349585
15.457336 -12.225525 2.480793
5.708008 10.190002 3.963103
10.117188 -14.692688 2.725217
5.152771 -15.073669 3.143288
2.807068 12.893982 4.265132
-0.144836 -13.803833 3.462653
-9.211487 14.378845 5.766963
-12.857727 12.495117 5.845828
-15.943542 4.236267 4.370287
-14.262634 -3.582703 3.011103
8.927856 -2.615234 1.834017
5.461670 3.656921 2.393128
8.426697 8.970398 3.844770
-1.091797 8.619751 3.205053
-1.916626 15.053711 4.887038
-7.264832 -0.698486 2.180820
-5.537292 -11.174011 3.313720
-2.902100 -4.494141 1.938235
7.595215 -5.019897 1.745333
2.442932 -6.443970 1.929236
-0.266968 2.185730 0.198042
-8.105286 3.210999 2.848677
-6.562378 7.340393 3.538504
2.720520 6.187866 2.693458
15.976807 -4.637573 2.664650
11.228760 5.154541 3.533174
12.031799 0.254150 3.159483
15.468811 -12.233398 2.281276
5.726013 10.237915 3.769760
10.109802 -14.714722 2.526572
5.138977 -15.101990 2.945787
2.813171 12.941650 4.070985
-0.161133 -13.838684 3.266393
-9.239380 14.428101 5.575141
-12.888794 12.542969 5.654143
-15.976807 4.273010 4.176519
-14.288086 -3.578308 2.812778
8.966919 -2.596436 1.638765
5.504822 3.703613 2.203501
8.451721 9.011475 3.650636
-1.100830 8.681702 3.015119
-1.934631 15.101929 4.693777
-7.302368 -0.701050 1.984401
-5.553833 -11.205200 3.116862
-2.927856 -4.529053 1.742995
7.608826 -5.036804 1.546515
2.436096 -6.479553 1.732549
-0.270142 2.213440 0.000000
-8.148926 3.246704 2.656798
-6.596313 7.394470 3.348972
2.747070 6.250610 2.505418
</float_array>
          <technique_common>
            <accessor source="#SM_Coral_Table_Acropora_08_LOD0-POSITION-array" count="54" stride="3">
              <param name="X" type="float"/>
              <param name="Y" type="float"/>
              <param name="Z" type="float"/>
            </accessor>
          </technique_common>
        </source>
        <source id="SM_Coral_Table_Acropora_08_LOD0-Normal0">
          <float_array id="SM_Coral_Table_Acropora_08_LOD0-Normal0-array" count="936">
-0.068224 0.084436 0.994091
0.036830 0.110219 0.993225
-0.057333 0.039264 0.997583
-0.154696 -0.091906 0.983678
-0.068224 0.084436 0.994091
-0.057333 0.039264 0.997583
-0.195235 -0.093844 0.976256
-0.068224 0.084436 0.994091
-0.154696 -0.091906 0.983678
-0.225780 -0.213432 0.950511
-0.195235 -0.093844 0.976256
-0.154696 -0.091906 0.983678
-0.215935 -0.233257 0.948137
-0.195235 -0.093844 0.976256
-0.225780 -0.213432 0.950511
-0.192590 -0.132100 0.972347
-0.215935 -0.233257 0.948137
-0.225780 -0.213432 0.950511
-0.125023 -0.205346 0.970671
-0.215935 -0.233257 0.948137
-0.192590 -0.132100 0.972347
-0.132566 -0.313774 0.940198
-0.215935 -0.233257 0.948137
-0.125023 -0.205346 0.970671
-0.089987 -0.239510 0.966715
-0.132566 -0.313774 0.940198
-0.125023 -0.205346 0.970671
-0.030315 -0.238231 0.970735
-0.132566 -0.313774 0.940198
-0.089987 -0.239510 0.966715
0.045337 -0.309941 0.949674
-0.132566 -0.313774 0.940198
-0.030315 -0.238231 0.970735
0.090259 -0.241044 0.966308
0.045337 -0.309941 0.949674
-0.030315 -0.238231 0.970735
0.139548 -0.246256 0.959106
0.045337 -0.309941 0.949674
0.090259 -0.241044 0.966308
0.169725 -0.270420 0.947664
0.045337 -0.309941 0.949674
0.139548 -0.246256 0.959106
0.155222 -0.239435 0.958424
0.169725 -0.270420 0.947664
0.139548 -0.246256 0.959106
0.166143 -0.183719 0.968836
0.169725 -0.270420 0.947664
0.155222 -0.239435 0.958424
0.218329 -0.178577 0.959397
0.169725 -0.270420 0.947664
0.166143 -0.183719 0.968836
0.127282 -0.021829 0.991626
0.218329 -0.178577 0.959397
0.166143 -0.183719 0.968836
0.187934 0.012745 0.982099
0.218329 -0.178577 0.959397
0.127282 -0.021829 0.991626
0.082856 0.155923 0.984288
0.187934 0.012745 0.982099
0.127282 -0.021829 0.991626
0.128571 0.174648 0.976201
0.187934 0.012745 0.982099
0.082856 0.155923 0.984288
0.081489 0.174377 0.981301
0.128571 0.174648 0.976201
0.082856 0.155923 0.984288
0.034046 0.178041 0.983434
0.128571 0.174648 0.976201
0.081489 0.174377 0.981301
0.069040 0.141664 0.987504
0.034046 0.178041 0.983434
0.081489 0.174377 0.981301
-0.068224 0.084436 0.994091
0.034046 0.178041 0.983434
0.069040 0.141664 0.987504
-0.068224 0.084436 0.994091
0.069040 0.141664 0.987504
0.036830 0.110219 0.993225
0.015924 -0.138680 0.990209
0.034046 0.178041 0.983434
-0.068224 0.084436 0.994091
0.015924 -0.138680 0.990209
0.128571 0.174648 0.976201
0.034046 0.178041 0.983434
0.015924 -0.138680 0.990209
0.187934 0.012745 0.982099
0.128571 0.174648 0.976201
0.015924 -0.138680 0.990209
0.218329 -0.178577 0.959397
0.187934 0.012745 0.982099
0.015924 -0.138680 0.990209
0.169725 -0.270420 0.947664
0.218329 -0.178577 0.959397
0.015924 -0.138680 0.990209
0.045337 -0.309941 0.949674
0.169725 -0.270420 0.947664
0.015924 -0.138680 0.990209
-0.132566 -0.313774 0.940198
0.045337 -0.309941 0.949674
0.015924 -0.138680 0.990209
-0.215935 -0.233257 0.948137
-0.132566 -0.313774 0.940198
0.015924 -0.138680 0.990209
-0.195235 -0.093844 0.976256
-0.215935 -0.233257 0.948137
-0.068224 0.084436 0.994091
-0.195235 -0.093844 0.976256
0.015924 -0.138680 0.990209
0.057384 -0.039178 -0.997583
-0.036877 -0.110112 -0.993235
0.068150 -0.084029 -0.994130
0.057384 -0.039178 -0.997583
0.068150 -0.084029 -0.994130
0.154688 0.091897 -0.983680
0.154688 0.091897 -0.983680
0.068150 -0.084029 -0.994130
0.195040 0.093915 -0.976289
0.154688 0.091897 -0.983680
0.195040 0.093915 -0.976289
0.225671 0.212869 -0.950663
0.225671 0.212869 -0.950663
0.195040 0.093915 -0.976289
0.215285 0.232591 -0.948448
0.225671 0.212869 -0.950663
0.215285 0.232591 -0.948448
0.192459 0.131884 -0.972402
0.192459 0.131884 -0.972402
0.215285 0.232591 -0.948448
0.124919 0.205243 -0.970706
0.124919 0.205243 -0.970706
0.215285 0.232591 -0.948448
0.131750 0.312938 -0.940591
0.124919 0.205243 -0.970706
0.131750 0.312938 -0.940591
0.089898 0.239387 -0.966754
0.089898 0.239387 -0.966754
0.131750 0.312938 -0.940591
0.030253 0.238099 -0.970770
0.030253 0.238099 -0.970770
0.131750 0.312938 -0.940591
-0.045416 0.309614 -0.949777
0.030253 0.238099 -0.970770
-0.045416 0.309614 -0.949777
-0.090292 0.240935 -0.966332
-0.090292 0.240935 -0.966332
-0.045416 0.309614 -0.949777
-0.139496 0.246230 -0.959120
-0.139496 0.246230 -0.959120
-0.045416 0.309614 -0.949777
-0.169508 0.270231 -0.947756
-0.139496 0.246230 -0.959120
-0.169508 0.270231 -0.947756
-0.155221 0.239414 -0.958430
-0.155221 0.239414 -0.958430
-0.169508 0.270231 -0.947756
-0.166131 0.183636 -0.968854
-0.166131 0.183636 -0.968854
-0.169508 0.270231 -0.947756
-0.217932 0.178405 -0.959519
-0.166131 0.183636 -0.968854
-0.217932 0.178405 -0.959519
-0.127227 0.021729 -0.991636
-0.127227 0.021729 -0.991636
-0.217932 0.178405 -0.959519
-0.187497 -0.012651 -0.982184
-0.127227 0.021729 -0.991636
-0.187497 -0.012651 -0.982184
-0.082928 -0.155891 -0.984287
-0.082928 -0.155891 -0.984287
-0.187497 -0.012651 -0.982184
-0.128339 -0.173918 -0.976361
-0.082928 -0.155891 -0.984287
-0.128339 -0.173918 -0.976361
-0.081461 -0.174344 -0.981309
-0.081461 -0.174344 -0.981309
-0.128339 -0.173918 -0.976361
-0.034017 -0.177492 -0.983534
-0.081461 -0.174344 -0.981309
-0.034017 -0.177492 -0.983534
-0.068979 -0.141602 -0.987517
-0.068979 -0.141602 -0.987517
-0.034017 -0.177492 -0.983534
0.068150 -0.084029 -0.994130
-0.036877 -0.110112 -0.993235
-0.068979 -0.141602 -0.987517
0.068150 -0.084029 -0.994130
0.068150 -0.084029 -0.994130
-0.034017 -0.177492 -0.983534
-0.016067 0.138677 -0.990207
-0.034017 -0.177492 -0.983534
-0.128339 -0.173918 -0.976361
-0.016067 0.138677 -0.990207
-0.128339 -0.173918 -0.976361
-0.187497 -0.012651 -0.982184
-0.016067 0.138677 -0.990207
-0.187497 -0.012651 -0.982184
-0.217932 0.178405 -0.959519
-0.016067 0.138677 -0.990207
-0.217932 0.178405 -0.959519
-0.169508 0.270231 -0.947756
-0.016067 0.138677 -0.990207
-0.169508 0.270231 -0.947756
-0.045416 0.309614 -0.949777
-0.016067 0.138677 -0.990207
-0.045416 0.309614 -0.949777
0.131750 0.312938 -0.940591
-0.016067 0.138677 -0.990207
0.131750 0.312938 -0.940591
0.215285 0.232591 -0.948448
-0.016067 0.138677 -0.990207
0.215285 0.232591 -0.948448
0.195040 0.093915 -0.976289
-0.016067 0.138677 -0.990207
-0.016067 0.138677 -0.990207
0.195040 0.093915 -0.976289
0.068150 -0.084029 -0.994130
0.257964 -0.961156 0.098153
0.818024 -0.566023 0.102251
0.819853 -0.563352 0.102354
0.819853 -0.563352 0.102354
0.258013 -0.961143 0.098145
0.257964 -0.961156 0.098153
0.819853 -0.563352 0.102354
0.943343 0.275073 0.185574
0.939431 0.286577 0.187997
0.943343 0.275073 0.185574
0.819853 -0.563352 0.102354
0.818024 -0.566023 0.102251
0.943343 0.275073 0.185574
0.890042 0.382999 0.247260
0.939431 0.286577 0.187997
0.890042 0.382999 0.247260
0.943343 0.275073 0.185574
0.893390 0.375237 0.247087
0.893390 0.375237 0.247087
0.901738 0.361311 0.237326
0.890042 0.382999 0.247260
0.901738 0.361311 0.237326
0.893390 0.375237 0.247087
0.901923 0.360843 0.237333
0.901923 0.360843 0.237333
0.619588 0.745630 0.245246
0.901738 0.361311 0.237326
0.619588 0.745630 0.245246
0.901923 0.360843 0.237333
0.619452 0.745742 0.245253
0.619588 0.745630 0.245246
0.548834 0.802358 0.234529
0.548717 0.802434 0.234542
0.548834 0.802358 0.234529
0.619588 0.745630 0.245246
0.619452 0.745742 0.245253
0.548717 0.802434 0.234542
0.558294 0.801930 0.212640
0.560015 0.800709 0.212716
0.558294 0.801930 0.212640
0.548717 0.802434 0.234542
0.548834 0.802358 0.234529
0.560015 0.800709 0.212716
0.189227 0.953240 0.235642
0.192066 0.952739 0.235369
0.189227 0.953240 0.235642
0.560015 0.800709 0.212716
0.558294 0.801930 0.212640
0.192066 0.952739 0.235369
-0.251641 0.928597 0.272734
-0.252443 0.928360 0.272801
-0.251641 0.928597 0.272734
0.192066 0.952739 0.235369
0.189227 0.953240 0.235642
-0.251641 0.928597 0.272734
-0.732226 0.624519 0.271701
-0.252443 0.928360 0.272801
-0.732226 0.624519 0.271701
-0.251641 0.928597 0.272734
-0.732315 0.624419 0.271690
-0.983204 0.040442 0.177973
-0.732226 0.624519 0.271701
-0.732315 0.624419 0.271690
-0.732226 0.624519 0.271701
-0.983204 0.040442 0.177973
-0.983227 0.040141 0.177916
-0.983204 0.040442 0.177973
-0.851039 -0.509684 0.126315
-0.849164 -0.512802 0.126312
-0.849164 -0.512802 0.126312
-0.983227 0.040141 0.177916
-0.983204 0.040442 0.177973
-0.849164 -0.512802 0.126312
-0.550359 -0.820702 0.153474
-0.549226 -0.821398 0.153805
-0.550359 -0.820702 0.153474
-0.849164 -0.512802 0.126312
-0.851039 -0.509684 0.126315
-0.549226 -0.821398 0.153805
-0.329502 -0.927065 0.178824
-0.329341 -0.927125 0.178814
-0.329502 -0.927065 0.178824
-0.549226 -0.821398 0.153805
-0.550359 -0.820702 0.153474
-0.065785 -0.986865 0.147544
-0.329341 -0.927125 0.178814
-0.329502 -0.927065 0.178824
-0.329341 -0.927125 0.178814
-0.065785 -0.986865 0.147544
-0.068455 -0.986619 0.147978
-0.065785 -0.986865 0.147544
0.257964 -0.961156 0.098153
0.258013 -0.961143 0.098145
0.258013 -0.961143 0.098145
-0.068455 -0.986619 0.147978
-0.065785 -0.986865 0.147544
</float_array>
          <technique_common>
            <accessor source="#SM_Coral_Table_Acropora_08_LOD0-Normal0-array" count="312" stride="3">
              <param name="X" type="float"/>
              <param name="Y" type="float"/>
              <param name="Z" type="float"/>
            </accessor>
          </technique_common>
        </source>
        <source id="SM_Coral_Table_Acropora_08_LOD0-UV0">
          <float_array id="SM_Coral_Table_Acropora_08_LOD0-UV0-array" count="284">
0.653320 0.232422
0.638184 0.225098
0.630859 0.252930
0.653320 0.232422
0.630859 0.252930
0.654785 0.253906
0.654785 0.253906
0.630859 0.252930
0.634766 0.259766
0.654785 0.253906
0.634766 0.259766
0.643555 0.268066
0.643555 0.268066
0.634766 0.259766
0.624512 0.277832
0.643555 0.268066
0.624512 0.277832
0.641113 0.282227
0.641113 0.282227
0.624512 0.277832
0.633301 0.292969
0.633301 0.292969
0.624512 0.277832
0.616699 0.285156
0.633301 0.292969
0.616699 0.285156
0.625488 0.296387
0.625488 0.296387
0.616699 0.285156
0.617188 0.304199
0.617188 0.304199
0.616699 0.285156
0.605957 0.291992
0.617188 0.304199
0.605957 0.291992
0.603516 0.310547
0.603516 0.310547
0.605957 0.291992
0.582520 0.308594
0.582520 0.308594
0.605957 0.291992
0.590332 0.288574
0.582520 0.308594
0.590332 0.288574
0.572266 0.303223
0.572266 0.303223
0.590332 0.288574
0.563477 0.279297
0.563477 0.279297
0.590332 0.288574
0.585938 0.276367
0.563477 0.279297
0.585938 0.276367
0.568359 0.256836
0.568359 0.256836
0.585938 0.276367
0.588379 0.265137
0.568359 0.256836
0.588379 0.265137
0.593262 0.235352
0.593262 0.235352
0.588379 0.265137
0.600586 0.254395
0.593262 0.235352
0.600586 0.254395
0.608887 0.227539
0.608887 0.227539
0.600586 0.254395
0.616211 0.249023
0.608887 0.227539
0.616211 0.249023
0.624023 0.224121
0.624023 0.224121
0.616211 0.249023
0.630859 0.252930
0.638184 0.225098
0.624023 0.224121
0.630859 0.252930
0.630859 0.252930
0.616211 0.249023
0.608398 0.273438
0.616211 0.249023
0.600586 0.254395
0.608398 0.273438
0.600586 0.254395
0.588379 0.265137
0.608398 0.273438
0.588379 0.265137
0.585938 0.276367
0.608398 0.273438
0.585938 0.276367
0.590332 0.288574
0.608398 0.273438
0.590332 0.288574
0.605957 0.291992
0.608398 0.273438
0.605957 0.291992
0.616699 0.285156
0.608398 0.273438
0.616699 0.285156
0.624512 0.277832
0.608398 0.273438
0.624512 0.277832
0.634766 0.259766
0.608398 0.273438
0.608398 0.273438
0.634766 0.259766
0.630859 0.252930
0.000000 0.000000
0.000000 0.050000
0.059922 0.000000
0.059922 0.050000
0.137220 0.000000
0.137220 0.050000
0.201270 0.000000
0.201270 0.050000
0.252108 0.000000
0.252108 0.050000
0.300292 0.000000
0.300292 0.050000
0.330642 0.000000
0.330642 0.050000
0.371121 0.000000
0.371121 0.050000
0.424361 0.000000
0.424361 0.050000
0.499459 0.000000
0.499459 0.050000
0.541236 0.000000
0.541236 0.050000
0.632215 0.000000
0.632215 0.050000
0.714779 0.000000
0.714779 0.050000
0.832528 0.000000
0.832528 0.050000
0.893608 0.000000
0.893608 0.050000
0.949147 0.000000
0.949147 0.050000
1.000000 0.000000
1.000000 0.050000
</float_array>
          <technique_common>
            <accessor source="#SM_Coral_Table_Acropora_08_LOD0-UV0-array" count="142" stride="2">
              <param name="S" type="float"/>
              <param name="T" type="float"/>
            </accessor>
          </technique_common>
        </source>
        <vertices id="SM_Coral_Table_Acropora_08_LOD0-VERTEX">
          <input semantic="POSITION" source="#SM_Coral_Table_Acropora_08_LOD0-POSITION"/>
        </vertices>
        <triangles count="104" material="MAT_Coral_Table">
          <input semantic="VERTEX" offset="0" source="#SM_Coral_Table_Acropora_08_LOD0-VERTEX"/>
          <input semantic="NORMAL" offset="1" source="#SM_Coral_Table_Acropora_08_LOD0-Normal0"/>
          <input semantic="TEXCOORD" offset="2" set="0" source="#SM_Coral_Table_Acropora_08_LOD0-UV0"/>
          <p> 21 0 2 5 1 1 3 2 0 0 3 5 21 4 4 3 5 3 13 6 8 21 7 7 0 8 6 2 9 11 13 10 10 0 11 9 14 12 14 13 13 13 2 14 12 1 15 17 14 16 16 2 17 15 15 18 20 14 19 19 1 20 18 26 21 23 14 22 22 15 23 21 4 24 26 26 25 25 15 26 24 7 27 29 26 28 28 4 29 27 16 30 32 26 31 31 7 32 30 17 33 35 16 34 34 7 35 33 9 36 38 16 37 37 17 38 36 25 39 41 16 40 40 9 41 39 10 42 44 25 43 43 9 44 42 11 45 47 25 46 46 10 47 45 24 48 50 25 49 49 11 50 48 12 51 53 24 52 52 11 53 51 18 54 56 24 55 55 12 56 54 19 57 59 18 58 58 12 59 57 20 60 62 18 61 61 19 62 60 8 63 65 20 64 64 19 65 63 22 66 68 20 67 67 8 68 66 6 69 71 22 70 70 8 71 69 21 72 74 22 73 73 6 74 72 21 75 77 6 76 76 5 77 75 23 78 80 22 79 79 21 80 78 23 81 83 20 82 82 22 83 81 23 84 86 18 85 85 20 86 84 23 87 89 24 88 88 18 89 87 23 90 92 25 91 91 24 92 90 23 93 95 16 94 94 25 95 93 23 96 98 26 97 97 16 98 96 23 99 101 14 100 100 26 101 99 23 102 104 13 103 103 14 104 102 21 105 107 13 106 106 23 107 105 30 108 0 32 109 1 48 110 2 30 111 3 48 112 4 27 113 5 27 114 6 48 115 7 40 116 8 27 117 9 40 118 10 29 119 11 29 120 12 40 121 13 41 122 14 29 123 15 41 124 16 28 125 17 28 126 18 41 127 19 42 128 20 42 129 21 41 130 22 53 131 23 42 132 24 53 133 25 31 134 26 31 135 27 53 136 28 34 137 29 34 138 30 53 139 31 43 140 32 34 141 33 43 142 34 44 143 35 44 144 36 43 145 37 36 146 38 36 147 39 43 148 40 52 149 41 36 150 42 52 151 43 37 152 44 37 153 45 52 154 46 38 155 47 38 156 48 52 157 49 51 158 50 38 159 51 51 160 52 39 161 53 39 162 54 51 163 55 45 164 56 39 165 57 45 166 58 46 167 59 46 168 60 45 169 61 47 170 62 46 171 63 47 172 64 35 173 65 35 174 66 47 175 67 49 176 68 35 177 69 49 178 70 33 179 71 33 180 72 49 181 73 48 182 74 32 183 75 33 184 76 48 185 77 48 186 78 49 187 79 50 188 80 49 189 81 47 190 82 50 191 83 47 192 84 45 193 85 50 194 86 45 195 87 51 196 88 50 197 89 51 198 90 52 199 91 50 200 92 52 201 93 43 202 94 50 203 95 43 204 96 53 205 97 50 206 98 53 207 99 41 208 100 50 209 101 41 210 102 40 211 103 50 212 104 50 213 105 40 214 106 48 215 107 32 216 141 30 217 139 3 218 138 3 219 138 5 220 140 32 221 141 3 222 138 27 223 137 0 224 136 27 225 137 3 226 138 30 227 139 27 228 137 2 229 134 0 230 136 2 231 134 27 232 137 29 233 135 29 234 135 1 235 132 2 236 134 1 237 132 29 238 135 28 239 133 28 240 133 15 241 130 1 242 132 15 243 130 28 244 133 42 245 131 15 246 130 31 247 129 4 248 128 31 249 129 15 250 130 42 251 131 4 252 128 34 253 127 7 254 126 34 255 127 4 256 128 31 257 129 7 258 126 44 259 125 17 260 124 44 261 125 7 262 126 34 263 127 17 264 124 36 265 123 9 266 122 36 267 123 17 268 124 44 269 125 36 270 123 10 271 120 9 272 122 10 273 120 36 274 123 37 275 121 38 276 119 10 277 120 37 278 121 10 279 120 38 280 119 11 281 118 38 282 119 39 283 117 12 284 116 12 285 116 11 286 118 38 287 119 12 288 116 46 289 115 19 290 114 46 291 115 12 292 116 39 293 117 19 294 114 35 295 113 8 296 112 35 297 113 19 298 114 46 299 115 33 300 111 8 301 112 35 302 113 8 303 112 33 304 111 6 305 110 33 306 111 32 307 109 5 308 108 5 309 108 6 310 110 33 311 111</p>
        </triangles>
      </mesh>
    </geometry>
    <geometry id="SM_Coral_Table_Acropora_08_LOD1-lib" name="SM_Coral_Table_Acropora_08_LOD1Mesh">
      <mesh>
        <source id="SM_Coral_Table_Acropora_08_LOD1-POSITION">
          <float_array id="SM_Coral_Table_Acropora_08_LOD1-POSITION-array" count="129">
-14.288086 -3.578308 2.812778
15.468811 -12.233398 2.281276
8.451721 9.011475 3.650636
-12.888794 12.542969 5.654143
5.138977 -15.101990 2.945787
-0.266968 2.185730 0.198042
-1.916626 15.053711 4.887038
-0.270142 2.213440 0.000000
15.976807 -4.637573 2.664650
-15.976807 4.273010 4.176519
11.190247 5.128113 3.727644
-5.537292 -11.174011 3.313720
11.986633 0.211487 3.349585
-9.211487 14.378845 5.766963
10.117188 -14.692688 2.725217
-7.264832 -0.698486 2.180820
2.813171 12.941650 4.070985
5.504822 3.703613 2.203501
-1.091797 8.619751 3.205053
-0.161133 -13.838684 3.266393
8.927856 -2.615234 1.834017
-7.302368 -0.701050 1.984401
5.461670 3.656921 2.393128
-1.100830 8.681702 3.015119
5.708008 10.190002 3.963103
7.608826 -5.036804 1.546515
-2.902100 -4.494141 1.938235
-6.596313 7.394470 3.348972
-6.562378 7.340393 3.538504
7.595215 -5.019897 1.745333
8.966919 -2.596436 1.638765
-8.148926 3.246704 2.656798
-8.105286 3.210999 2.848677
2.436096 -6.479553 1.732549
2.442932 -6.443970 1.929236
-2.927856 -4.529053 1.742995
2.747070 6.250610 2.505418
2.720520 6.187866 2.693458
-0.144836 -13.803833 3.462653
5.152771 -15.073669 3.143288
-9.239380 14.428101 5.575141
2.807068 12.893982 4.265132
-15.943542 4.236267 4.370287
</float_array>
          <technique_common>
            <accessor source="#SM_Coral_Table_Acropora_08_LOD1-POSITION-array" count="43" stride="3">
              <param name="X" type="float"/>
              <param name="Y" type="float"/>
              <param name="Z" type="float"/>
            </accessor>
          </technique_common>
        </source>
        <source id="SM_Coral_Table_Acropora_08_LOD1-Normal0">
          <float_array id="SM_Coral_Table_Acropora_08_LOD1-Normal0-array" count="738">
-0.034017 -0.177492 -0.983534
-0.138301 -0.181567 -0.973605
-0.016067 0.138677 -0.990207
0.015924 -0.138680 0.990209
-0.124142 -0.312418 0.941798
0.045337 -0.309941 0.949674
-0.166131 0.183636 -0.968854
-0.169508 0.270231 -0.947756
-0.217932 0.178405 -0.959519
0.015924 -0.138680 0.990209
0.164847 -0.267784 0.949272
0.213827 -0.183496 0.959483
0.081489 0.174377 0.981301
0.128571 0.174648 0.976201
-0.889308 -0.433178 0.146589
0.069092 -0.087266 -0.993786
-0.034017 -0.177492 -0.983534
-0.016067 0.138677 -0.990207
0.823775 0.416985 0.384081
-0.184885 -0.101517 0.977503
0.979369 0.164690 0.117102
-0.058313 0.082807 0.994858
0.069040 0.141664 0.987504
0.869104 -0.494625 0.002093
0.823775 0.416985 0.384081
0.205680 0.106369 -0.972821
0.227892 0.232173 -0.945601
0.132766 0.976928 0.167285
0.045337 -0.309941 0.949674
-0.030315 -0.238231 0.970735
0.036667 0.249518 -0.967676
0.135321 0.318185 -0.938321
-0.046212 0.317030 -0.947289
-0.217932 0.178405 -0.959519
-0.169508 0.270231 -0.947756
-0.016067 0.138677 -0.990207
-0.016067 0.138677 -0.990207
0.205680 0.106369 -0.972821
0.069092 -0.087266 -0.993786
0.979369 0.164690 0.117102
-0.058313 0.082807 0.994858
0.805890 -0.591795 0.017897
0.213827 -0.183496 0.959483
0.164847 -0.267784 0.949272
0.161330 -0.186273 0.969162
-0.975335 0.168014 0.143154
-0.169508 0.270231 -0.947756
-0.166131 0.183636 -0.968854
0.045337 -0.309941 0.949674
-0.124142 -0.312418 0.941798
-0.030315 -0.238231 0.970735
0.908081 0.345790 0.236261
0.227892 0.232173 -0.945601
0.647895 0.742302 0.170940
0.128571 0.174648 0.976201
0.175348 0.010201 0.984454
-0.889308 -0.433178 0.146589
-0.138301 -0.181567 -0.973605
-0.188115 -0.018865 -0.981966
-0.016067 0.138677 -0.990207
-0.212970 -0.223151 0.951235
-0.184885 -0.101517 0.977503
0.823775 0.416985 0.384081
0.823775 0.416985 0.384081
0.227892 0.232173 -0.945601
0.908081 0.345790 0.236261
0.161330 -0.186273 0.969162
0.164847 -0.267784 0.949272
-0.975335 0.168014 0.143154
-0.133082 0.254730 -0.957811
-0.169508 0.270231 -0.947756
-0.975335 0.168014 0.143154
0.869104 -0.494625 0.002093
-0.050970 -0.146079 -0.987959
0.069092 -0.087266 -0.993786
-0.058313 0.082807 0.994858
0.869104 -0.494625 0.002093
0.805890 -0.591795 0.017897
-0.580746 -0.810612 -0.075113
0.213827 -0.183496 0.959483
0.161330 -0.186273 0.969162
-0.889308 -0.433178 0.146589
0.175348 0.010201 0.984454
-0.580746 -0.810612 -0.075113
-0.030315 -0.238231 0.970735
-0.124142 -0.312418 0.941798
0.895670 0.341343 0.285063
0.895670 0.341343 0.285063
0.135321 0.318185 -0.938321
0.036667 0.249518 -0.967676
-0.046212 0.317030 -0.947289
0.135321 0.318185 -0.938321
-0.016067 0.138677 -0.990207
0.227892 0.232173 -0.945601
0.205680 0.106369 -0.972821
-0.016067 0.138677 -0.990207
-0.975335 0.168014 0.143154
0.164847 -0.267784 0.949272
0.115213 -0.255659 0.959877
0.115213 -0.255659 0.959877
0.045337 -0.309941 0.949674
0.132766 0.976928 0.167285
-0.050970 -0.146079 -0.987959
-0.034017 -0.177492 -0.983534
0.069092 -0.087266 -0.993786
0.069040 0.141664 0.987504
0.034046 0.178041 0.983434
0.081489 0.174377 0.981301
-0.058313 0.082807 0.994858
0.034046 0.178041 0.983434
0.069040 0.141664 0.987504
0.015924 -0.138680 0.990209
-0.184885 -0.101517 0.977503
-0.212970 -0.223151 0.951235
-0.166131 0.183636 -0.968854
-0.217932 0.178405 -0.959519
-0.580746 -0.810612 -0.075113
-0.580746 -0.810612 -0.075113
-0.188115 -0.018865 -0.981966
-0.889308 -0.433178 0.146589
0.647895 0.742302 0.170940
-0.212970 -0.223151 0.951235
0.908081 0.345790 0.236261
0.908081 0.345790 0.236261
-0.212970 -0.223151 0.951235
0.823775 0.416985 0.384081
0.132766 0.976928 0.167285
-0.046212 0.317030 -0.947289
-0.133082 0.254730 -0.957811
0.036667 0.249518 -0.967676
-0.046212 0.317030 -0.947289
0.132766 0.976928 0.167285
0.895670 0.341343 0.285063
-0.124142 -0.312418 0.941798
0.647895 0.742302 0.170940
0.647895 0.742302 0.170940
0.135321 0.318185 -0.938321
0.895670 0.341343 0.285063
0.805890 -0.591795 0.017897
0.069092 -0.087266 -0.993786
0.979369 0.164690 0.117102
0.805890 -0.591795 0.017897
0.869104 -0.494625 0.002093
0.069092 -0.087266 -0.993786
0.015924 -0.138680 0.990209
0.034046 0.178041 0.983434
-0.058313 0.082807 0.994858
0.015924 -0.138680 0.990209
0.175348 0.010201 0.984454
0.128571 0.174648 0.976201
-0.169508 0.270231 -0.947756
-0.046212 0.317030 -0.947289
-0.016067 0.138677 -0.990207
-0.133082 0.254730 -0.957811
-0.046212 0.317030 -0.947289
-0.169508 0.270231 -0.947756
0.015924 -0.138680 0.990209
0.045337 -0.309941 0.949674
0.164847 -0.267784 0.949272
0.164847 -0.267784 0.949272
0.045337 -0.309941 0.949674
0.115213 -0.255659 0.959877
-0.058313 0.082807 0.994858
-0.184885 -0.101517 0.977503
0.015924 -0.138680 0.990209
-0.184885 -0.101517 0.977503
-0.058313 0.082807 0.994858
0.979369 0.164690 0.117102
0.979369 0.164690 0.117102
0.205680 0.106369 -0.972821
0.823775 0.416985 0.384081
0.979369 0.164690 0.117102
0.069092 -0.087266 -0.993786
0.205680 0.106369 -0.972821
-0.188115 -0.018865 -0.981966
-0.217932 0.178405 -0.959519
-0.016067 0.138677 -0.990207
-0.580746 -0.810612 -0.075113
-0.217932 0.178405 -0.959519
-0.188115 -0.018865 -0.981966
0.015924 -0.138680 0.990209
0.213827 -0.183496 0.959483
0.175348 0.010201 0.984454
0.175348 0.010201 0.984454
0.213827 -0.183496 0.959483
-0.580746 -0.810612 -0.075113
-0.093783 -0.177730 -0.979600
-0.034017 -0.177492 -0.983534
-0.050970 -0.146079 -0.987959
-0.093783 -0.177730 -0.979600
-0.138301 -0.181567 -0.973605
-0.034017 -0.177492 -0.983534
0.015924 -0.138680 0.990209
0.128571 0.174648 0.976201
0.034046 0.178041 0.983434
0.034046 0.178041 0.983434
0.128571 0.174648 0.976201
0.081489 0.174377 0.981301
-0.889308 -0.433178 0.146589
-0.138301 -0.181567 -0.973605
-0.093783 -0.177730 -0.979600
-0.889308 -0.433178 0.146589
-0.188115 -0.018865 -0.981966
-0.138301 -0.181567 -0.973605
0.135321 0.318185 -0.938321
0.227892 0.232173 -0.945601
-0.016067 0.138677 -0.990207
0.647895 0.742302 0.170940
0.227892 0.232173 -0.945601
0.135321 0.318185 -0.938321
0.015924 -0.138680 0.990209
-0.212970 -0.223151 0.951235
-0.124142 -0.312418 0.941798
-0.124142 -0.312418 0.941798
-0.212970 -0.223151 0.951235
0.647895 0.742302 0.170940
-0.067526 -0.985589 0.155093
-0.328980 -0.926474 0.182809
-0.327996 -0.926842 0.182710
-0.328980 -0.926474 0.182809
-0.067526 -0.985589 0.155093
-0.068205 -0.985530 0.155172
-0.434440 -0.879928 0.192327
-0.327996 -0.926842 0.182710
-0.328980 -0.926474 0.182809
0.087146 -0.986946 0.135435
-0.068205 -0.985530 0.155172
-0.067526 -0.985589 0.155093
-0.628007 0.726439 0.279093
-0.249180 0.928682 0.274698
-0.253059 0.927551 0.274972
0.233921 0.940280 0.247294
-0.253059 0.927551 0.274972
-0.249180 0.928682 0.274698
0.233921 0.940280 0.247294
0.561810 0.799142 0.213873
0.559537 0.800655 0.214173
0.679535 0.707250 0.195012
0.559537 0.800655 0.214173
0.561810 0.799142 0.213873
-0.965712 -0.228967 0.122366
-0.983453 0.040666 0.176541
-0.983444 0.040791 0.176563
-0.628007 0.726439 0.279093
-0.983444 0.040791 0.176563
-0.983453 0.040666 0.176541
</float_array>
          <technique_common>
            <accessor source="#SM_Coral_Table_Acropora_08_LOD1-Normal0-array" count="246" stride="3">
              <param name="X" type="float"/>
              <param name="Y" type="float"/>
              <param name="Z" type="float"/>
            </accessor>
          </technique_common>
        </source>
        <source id="SM_Coral_Table_Acropora_08_LOD1-UV0">
          <float_array id="SM_Coral_Table_Acropora_08_LOD1-UV0-array" count="248">
0.653320 0.232422
0.568359 0.256836
0.633301 0.292969
0.633301 0.292969
0.572266 0.303223
0.572266 0.303223
0.624023 0.224121
0.608398 0.273438
0.653320 0.232422
0.624023 0.224121
0.608398 0.273438
0.608398 0.273438
0.608398 0.273438
0.603516 0.310547
0.608398 0.273438
0.608398 0.273438
0.608398 0.273438
0.654785 0.253906
0.654785 0.253906
0.654785 0.253906
0.563477 0.279297
0.563477 0.279297
0.641113 0.282227
0.641113 0.282227
0.593262 0.235352
0.593262 0.235352
0.643555 0.268066
0.643555 0.268066
0.643555 0.268066
0.582520 0.308594
0.582520 0.308594
0.638184 0.225098
0.638184 0.225098
0.568359 0.256836
0.588379 0.265137
0.563477 0.279297
0.593262 0.235352
0.588379 0.265137
0.588379 0.265137
0.617188 0.304199
0.617188 0.304199
0.617188 0.304199
0.624512 0.277832
0.624512 0.277832
0.624512 0.277832
0.624512 0.277832
0.624512 0.277832
0.605957 0.291992
0.605957 0.291992
0.603516 0.310547
0.605957 0.291992
0.605957 0.291992
0.605957 0.291992
0.624023 0.224121
0.608887 0.227539
0.608887 0.227539
0.608887 0.227539
0.634766 0.259766
0.634766 0.259766
0.634766 0.259766
0.634766 0.259766
0.588379 0.265137
0.625488 0.296387
0.625488 0.296387
0.630859 0.252930
0.630859 0.252930
0.630859 0.252930
0.630859 0.252930
0.630859 0.252930
0.630859 0.252930
0.600586 0.254395
0.600586 0.254395
0.600586 0.254395
0.600586 0.254395
0.590332 0.288574
0.605957 0.291992
0.608398 0.273438
0.582520 0.308594
0.590332 0.288574
0.590332 0.288574
0.590332 0.288574
0.590332 0.288574
0.590332 0.288574
0.634766 0.259766
0.630859 0.252930
0.588379 0.265137
0.585938 0.276367
0.608398 0.273438
0.568359 0.256836
0.585938 0.276367
0.585938 0.276367
0.585938 0.276367
0.585938 0.276367
0.616211 0.249023
0.616211 0.249023
0.616211 0.249023
0.616211 0.249023
0.616211 0.249023
0.600586 0.254395
0.616699 0.285156
0.624512 0.277832
0.608398 0.273438
0.633301 0.292969
0.616699 0.285156
0.616699 0.285156
0.616699 0.285156
0.616699 0.285156
0.616699 0.285156
0.059922 0.050000
0.137220 0.000000
0.137220 0.050000
0.201270 0.000000
0.000000 0.000000
0.059922 0.000000
0.330642 0.050000
0.371121 0.000000
0.371121 0.050000
0.424361 0.000000
0.499459 0.000000
0.499459 0.050000
0.541236 0.000000
0.252108 0.050000
0.300292 0.000000
0.300292 0.050000
</float_array>
          <technique_common>
            <accessor source="#SM_Coral_Table_Acropora_08_LOD1-UV0-array" count="124" stride="2">
              <param name="S" type="float"/>
              <param name="T" type="float"/>
            </accessor>
          </technique_common>
        </source>
        <vertices id="SM_Coral_Table_Acropora_08_LOD1-VERTEX">
          <input semantic="POSITION" source="#SM_Coral_Table_Acropora_08_LOD1-POSITION"/>
        </vertices>
        <triangles count="82" material="MAT_Coral_Table">
          <input semantic="VERTEX" offset="0" source="#SM_Coral_Table_Acropora_08_LOD1-VERTEX"/>
          <input semantic="NORMAL" offset="1" source="#SM_Coral_Table_Acropora_08_LOD1-Normal0"/>
          <input semantic="TEXCOORD" offset="2" set="0" source="#SM_Coral_Table_Acropora_08_LOD1-UV0"/>
          <p> 33 0 96 35 1 98 7 2 15 5 3 10 37 4 104 18 5 51 9 6 20 27 7 80 31 8 90 5 9 12 28 10 79 32 11 91 38 12 56 26 13 73 11 14 25 25 15 68 33 16 95 7 17 14 12 18 28 20 19 59 8 20 19 29 21 67 39 22 9 14 23 31 12 24 26 30 25 60 17 26 44 6 27 13 18 28 52 41 29 40 16 30 41 36 31 105 23 32 50 31 33 91 27 34 79 7 35 12 7 36 16 30 37 83 25 38 69 8 39 18 29 40 64 1 41 8 32 42 90 28 43 80 42 44 20 3 45 4 27 46 82 9 47 21 18 48 50 37 49 105 41 50 41 10 51 23 17 52 46 2 53 3 26 54 72 15 55 38 11 56 24 35 57 71 21 58 61 7 59 11 22 60 44 20 61 60 12 62 26 12 63 27 17 64 45 10 65 22 42 66 21 28 67 82 3 68 4 40 69 30 27 70 81 3 71 5 14 72 31 4 73 9 25 74 67 29 75 65 14 76 32 1 77 0 0 78 33 32 79 92 42 80 35 11 81 36 15 82 37 0 83 1 41 84 39 37 85 107 24 86 63 24 87 63 36 88 107 16 89 39 23 90 51 36 91 104 7 92 10 17 93 43 30 94 58 7 95 7 3 96 5 28 97 81 13 98 30 13 99 29 18 100 48 6 101 49 4 102 53 33 103 97 25 104 66 39 105 6 34 106 93 38 107 55 29 108 66 34 109 97 39 110 53 5 111 7 20 112 58 22 113 43 9 114 35 31 115 92 0 116 33 0 117 1 21 118 37 11 119 36 2 120 3 22 121 46 10 122 23 10 123 22 22 124 45 12 125 27 6 126 49 23 127 48 40 128 29 16 129 40 23 130 52 6 131 13 24 132 62 37 133 106 2 134 2 2 135 2 36 136 106 24 137 62 1 138 8 25 139 64 8 140 18 1 141 0 14 142 32 25 143 65 5 144 14 34 145 95 29 146 68 5 147 11 15 148 61 26 149 71 27 150 74 23 151 75 7 152 76 40 153 77 23 154 47 27 155 78 5 156 76 18 157 75 28 158 74 28 159 78 18 160 47 13 161 77 29 162 69 20 163 83 5 164 16 20 165 57 29 166 84 8 167 17 8 168 19 30 169 59 12 170 28 8 171 17 25 172 84 30 173 57 21 174 85 31 175 86 7 176 87 0 177 88 31 178 89 21 179 34 5 180 87 32 181 86 15 182 85 15 183 34 32 184 89 0 185 88 19 186 55 33 187 93 4 188 6 19 189 54 35 190 70 33 191 94 5 192 15 26 193 98 34 194 96 34 195 94 26 196 70 38 197 54 11 198 25 35 199 73 19 200 56 11 201 24 21 202 38 35 203 72 36 204 99 17 205 100 7 206 101 2 207 102 17 208 42 36 209 103 5 210 101 22 211 100 37 212 99 37 213 103 22 214 42 2 215 102 4 216 108 38 217 109 19 218 110 38 219 109 4 220 108 39 221 113 11 222 111 19 223 110 38 224 109 14 225 112 39 226 113 4 227 108 3 228 114 13 229 115 40 230 116 6 231 117 40 232 116 13 233 115 6 234 117 41 235 118 16 236 119 24 237 120 16 238 119 41 239 118 0 240 121 42 241 122 9 242 123 3 243 114 9 244 123 42 245 122</p>
        </triangles>
      </mesh>
    </geometry>
    <geometry id="SM_Coral_Table_Acropora_08_LOD2-lib" name="SM_Coral_Table_Acropora_08_LOD2Mesh">
      <mesh>
        <source id="SM_Coral_Table_Acropora_08_LOD2-POSITION">
          <float_array id="SM_Coral_Table_Acropora_08_LOD2-POSITION-array" count="90">
-14.288086 -3.578308 2.812778
15.468811 -12.233398 2.281276
8.451721 9.011475 3.650636
-12.888794 12.542969 5.654143
5.138977 -15.101990 2.945787
-0.266968 2.185730 0.198042
-1.916626 15.053711 4.887038
-0.270142 2.213440 0.000000
15.976807 -4.637573 2.664650
-15.976807 4.273010 4.176519
11.190247 5.128113 3.727644
-5.537292 -11.174011 3.313720
11.986633 0.211487 3.349585
-9.211487 14.378845 5.766963
10.117188 -14.692688 2.725217
-7.264832 -0.698486 2.180820
2.813171 12.941650 4.070985
5.504822 3.703613 2.203501
-1.091797 8.619751 3.205053
-0.161133 -13.838684 3.266393
8.927856 -2.615234 1.834017
-7.302368 -0.701050 1.984401
5.461670 3.656921 2.393128
-1.100830 8.681702 3.015119
5.708008 10.190002 3.963103
7.608826 -5.036804 1.546515
-2.902100 -4.494141 1.938235
-6.596313 7.394470 3.348972
-6.562378 7.340393 3.538504
7.595215 -5.019897 1.745333
</float_array>
          <technique_common>
            <accessor source="#SM_Coral_Table_Acropora_08_LOD2-POSITION-array" count="30" stride="3">
              <param name="X" type="float"/>
              <param name="Y" type="float"/>
              <param name="Z" type="float"/>
            </accessor>
          </technique_common>
        </source>
        <source id="SM_Coral_Table_Acropora_08_LOD2-Normal0">
          <float_array id="SM_Coral_Table_Acropora_08_LOD2-Normal0-array" count="504">
0.997154 -0.029008 -0.069591
-0.579541 -0.791296 0.194890
-0.022256 0.151547 -0.988199
0.017245 -0.141101 0.989845
-0.201268 -0.235337 0.950846
0.044055 -0.297041 0.953848
-0.989004 0.056076 0.136844
-0.170105 0.259594 -0.950618
-0.187171 0.010249 -0.982274
0.017245 -0.141101 0.989845
0.160230 -0.250066 0.954879
0.170802 -0.016047 0.985175
0.997154 -0.029008 -0.069591
0.116598 0.165503 0.979292
-0.579541 -0.791296 0.194890
0.058109 -0.100909 -0.993197
0.997154 -0.029008 -0.069591
-0.022256 0.151547 -0.988199
0.622244 0.624381 0.472187
-0.184885 -0.101517 0.977503
0.984977 -0.143247 0.096445
-0.049346 0.079340 0.995625
-0.980607 0.193077 0.033634
0.257285 -0.960577 0.105341
0.622244 0.624381 0.472187
0.984977 -0.143247 0.096445
0.212673 0.269413 -0.939248
0.147114 0.965169 0.216349
0.044055 -0.297041 0.953848
0.548030 0.822351 0.152978
0.548030 0.822351 0.152978
0.212673 0.269413 -0.939248
-0.038030 0.313972 -0.948670
-0.187171 0.010249 -0.982274
-0.170105 0.259594 -0.950618
-0.022256 0.151547 -0.988199
-0.022256 0.151547 -0.988199
0.984977 -0.143247 0.096445
0.058109 -0.100909 -0.993197
0.984977 -0.143247 0.096445
-0.049346 0.079340 0.995625
0.805890 -0.591795 0.017897
0.170802 -0.016047 0.985175
0.160230 -0.250066 0.954879
-0.989004 0.056076 0.136844
-0.737500 0.627525 0.249613
-0.170105 0.259594 -0.950618
-0.989004 0.056076 0.136844
0.044055 -0.297041 0.953848
-0.201268 -0.235337 0.950846
0.548030 0.822351 0.152978
0.908081 0.345790 0.236261
0.212673 0.269413 -0.939248
0.604963 0.781503 0.152555
0.116598 0.165503 0.979292
0.170802 -0.016047 0.985175
-0.579541 -0.791296 0.194890
-0.579541 -0.791296 0.194890
-0.187171 0.010249 -0.982274
-0.022256 0.151547 -0.988199
-0.201268 -0.235337 0.950846
-0.184885 -0.101517 0.977503
0.622244 0.624381 0.472187
0.622244 0.624381 0.472187
0.212673 0.269413 -0.939248
0.908081 0.345790 0.236261
-0.989004 0.056076 0.136844
0.160230 -0.250066 0.954879
-0.737500 0.627525 0.249613
-0.280944 0.911627 0.300011
-0.170105 0.259594 -0.950618
-0.737500 0.627525 0.249613
0.257285 -0.960577 0.105341
-0.980607 0.193077 0.033634
0.058109 -0.100909 -0.993197
-0.049346 0.079340 0.995625
0.257285 -0.960577 0.105341
0.805890 -0.591795 0.017897
-0.870796 -0.491155 0.021926
0.170802 -0.016047 0.985175
-0.989004 0.056076 0.136844
-0.579541 -0.791296 0.194890
0.170802 -0.016047 0.985175
-0.870796 -0.491155 0.021926
0.548030 0.822351 0.152978
-0.201268 -0.235337 0.950846
0.591935 0.737170 0.325874
0.591935 0.737170 0.325874
0.212673 0.269413 -0.939248
0.548030 0.822351 0.152978
-0.038030 0.313972 -0.948670
0.212673 0.269413 -0.939248
-0.022256 0.151547 -0.988199
0.212673 0.269413 -0.939248
0.984977 -0.143247 0.096445
-0.022256 0.151547 -0.988199
-0.737500 0.627525 0.249613
0.160230 -0.250066 0.954879
-0.280944 0.911627 0.300011
-0.280944 0.911627 0.300011
0.044055 -0.297041 0.953848
0.147114 0.965169 0.216349
-0.980607 0.193077 0.033634
0.997154 -0.029008 -0.069591
0.058109 -0.100909 -0.993197
-0.980607 0.193077 0.033634
0.116598 0.165503 0.979292
0.997154 -0.029008 -0.069591
-0.049346 0.079340 0.995625
0.116598 0.165503 0.979292
-0.980607 0.193077 0.033634
0.017245 -0.141101 0.989845
-0.184885 -0.101517 0.977503
-0.201268 -0.235337 0.950846
-0.989004 0.056076 0.136844
-0.187171 0.010249 -0.982274
-0.870796 -0.491155 0.021926
-0.870796 -0.491155 0.021926
-0.187171 0.010249 -0.982274
-0.579541 -0.791296 0.194890
0.604963 0.781503 0.152555
-0.201268 -0.235337 0.950846
0.908081 0.345790 0.236261
0.908081 0.345790 0.236261
-0.201268 -0.235337 0.950846
0.622244 0.624381 0.472187
0.147114 0.965169 0.216349
-0.038030 0.313972 -0.948670
-0.280944 0.911627 0.300011
0.548030 0.822351 0.152978
-0.038030 0.313972 -0.948670
0.147114 0.965169 0.216349
0.591935 0.737170 0.325874
-0.201268 -0.235337 0.950846
0.604963 0.781503 0.152555
0.604963 0.781503 0.152555
0.212673 0.269413 -0.939248
0.591935 0.737170 0.325874
0.805890 -0.591795 0.017897
0.058109 -0.100909 -0.993197
0.984977 -0.143247 0.096445
0.805890 -0.591795 0.017897
0.257285 -0.960577 0.105341
0.058109 -0.100909 -0.993197
0.017245 -0.141101 0.989845
0.116598 0.165503 0.979292
-0.049346 0.079340 0.995625
0.017245 -0.141101 0.989845
0.170802 -0.016047 0.985175
0.116598 0.165503 0.979292
-0.170105 0.259594 -0.950618
-0.038030 0.313972 -0.948670
-0.022256 0.151547 -0.988199
-0.280944 0.911627 0.300011
-0.038030 0.313972 -0.948670
-0.170105 0.259594 -0.950618
0.017245 -0.141101 0.989845
0.044055 -0.297041 0.953848
0.160230 -0.250066 0.954879
0.160230 -0.250066 0.954879
0.044055 -0.297041 0.953848
-0.280944 0.911627 0.300011
-0.049346 0.079340 0.995625
-0.184885 -0.101517 0.977503
0.017245 -0.141101 0.989845
-0.184885 -0.101517 0.977503
-0.049346 0.079340 0.995625
0.984977 -0.143247 0.096445
</float_array>
          <technique_common>
            <accessor source="#SM_Coral_Table_Acropora_08_LOD2-Normal0-array" count="168" stride="3">
              <param name="X" type="float"/>
              <param name="Y" type="float"/>
              <param name="Z" type="float"/>
            </accessor>
          </technique_common>
        </source>
        <source id="SM_Coral_Table_Acropora_08_LOD2-UV0">
          <float_array id="SM_Coral_Table_Acropora_08_LOD2-UV0-array" count="170">
0.653320 0.232422
0.568359 0.256836
0.633301 0.292969
0.633301 0.292969
0.572266 0.303223
0.572266 0.303223
0.624023 0.224121
0.608398 0.273438
0.653320 0.232422
0.624023 0.224121
0.608398 0.273438
0.608398 0.273438
0.608398 0.273438
0.603516 0.310547
0.608398 0.273438
0.608398 0.273438
0.608398 0.273438
0.654785 0.253906
0.654785 0.253906
0.654785 0.253906
0.563477 0.279297
0.563477 0.279297
0.641113 0.282227
0.641113 0.282227
0.593262 0.235352
0.593262 0.235352
0.643555 0.268066
0.643555 0.268066
0.643555 0.268066
0.582520 0.308594
0.582520 0.308594
0.638184 0.225098
0.638184 0.225098
0.568359 0.256836
0.588379 0.265137
0.563477 0.279297
0.593262 0.235352
0.588379 0.265137
0.588379 0.265137
0.617188 0.304199
0.617188 0.304199
0.617188 0.304199
0.624512 0.277832
0.624512 0.277832
0.624512 0.277832
0.624512 0.277832
0.624512 0.277832
0.605957 0.291992
0.605957 0.291992
0.603516 0.310547
0.605957 0.291992
0.605957 0.291992
0.605957 0.291992
0.624023 0.224121
0.608887 0.227539
0.608887 0.227539
0.608887 0.227539
0.634766 0.259766
0.634766 0.259766
0.634766 0.259766
0.634766 0.259766
0.588379 0.265137
0.625488 0.296387
0.625488 0.296387
0.630859 0.252930
0.630859 0.252930
0.630859 0.252930
0.630859 0.252930
0.630859 0.252930
0.630859 0.252930
0.600586 0.254395
0.600586 0.254395
0.600586 0.254395
0.600586 0.254395
0.590332 0.288574
0.605957 0.291992
0.608398 0.273438
0.582520 0.308594
0.590332 0.288574
0.590332 0.288574
0.590332 0.288574
0.590332 0.288574
0.590332 0.288574
0.634766 0.259766
0.630859 0.252930
</float_array>
          <technique_common>
            <accessor source="#SM_Coral_Table_Acropora_08_LOD2-UV0-array" count="85" stride="2">
              <param name="S" type="float"/>
              <param name="T" type="float"/>
            </accessor>
          </technique_common>
        </source>
        <vertices id="SM_Coral_Table_Acropora_08_LOD2-VERTEX">
          <input semantic="POSITION" source="#SM_Coral_Table_Acropora_08_LOD2-POSITION"/>
        </vertices>
        <triangles count="56" material="MAT_Coral_Table">
          <input semantic="VERTEX" offset="0" source="#SM_Coral_Table_Acropora_08_LOD2-VERTEX"/>
          <input semantic="NORMAL" offset="1" source="#SM_Coral_Table_Acropora_08_LOD2-Normal0"/>
          <input semantic="TEXCOORD" offset="2" set="0" source="#SM_Coral_Table_Acropora_08_LOD2-UV0"/>
          <p> 19 0 54 11 1 24 7 2 15 5 3 10 22 4 42 18 5 51 9 6 20 27 7 80 21 8 34 5 9 12 28 10 79 15 11 34 19 12 56 26 13 73 11 14 25 25 15 68 19 16 54 7 17 14 12 18 28 20 19 59 8 20 19 29 21 67 4 22 9 14 23 31 12 24 26 8 25 17 17 26 44 6 27 13 18 28 52 16 29 40 16 30 41 17 31 42 23 32 50 21 33 34 27 34 79 7 35 12 7 36 16 8 37 17 25 38 69 8 39 18 29 40 64 1 41 8 15 42 34 28 43 80 9 44 20 3 45 4 27 46 82 9 47 21 18 48 50 22 49 42 16 50 41 10 51 23 17 52 46 2 53 3 26 54 72 15 55 38 11 56 24 11 57 24 21 58 61 7 59 11 22 60 44 20 61 60 12 62 26 12 63 27 17 64 45 10 65 22 9 66 21 28 67 82 3 68 4 13 69 30 27 70 81 3 71 5 14 72 31 4 73 9 25 74 67 29 75 65 14 76 32 1 77 0 0 78 33 15 79 34 9 80 35 11 81 36 15 82 37 0 83 1 16 84 39 22 85 42 24 86 63 24 87 63 17 88 42 16 89 39 23 90 51 17 91 42 7 92 10 17 93 43 8 94 17 7 95 7 3 96 5 28 97 81 13 98 30 13 99 29 18 100 48 6 101 49 4 102 53 19 103 54 25 104 66 4 105 6 26 106 70 19 107 55 29 108 66 26 109 70 4 110 53 5 111 7 20 112 58 22 113 43 9 114 35 21 115 34 0 116 33 0 117 1 21 118 37 11 119 36 2 120 3 22 121 46 10 122 23 10 123 22 22 124 45 12 125 27 6 126 49 23 127 48 13 128 29 16 129 40 23 130 52 6 131 13 24 132 62 22 133 42 2 134 2 2 135 2 17 136 42 24 137 62 1 138 8 25 139 64 8 140 18 1 141 0 14 142 32 25 143 65 5 144 14 26 145 70 29 146 68 5 147 11 15 148 61 26 149 71 27 150 74 23 151 75 7 152 76 13 153 77 23 154 47 27 155 78 5 156 76 18 157 75 28 158 74 28 159 78 18 160 47 13 161 77 29 162 69 20 163 83 5 164 16 20 165 57 29 166 84 8 167 17</p>
        </triangles>
      </mesh>
    </geometry>
  </library_geometries>
  <library_visual_scenes>
    <visual_scene id="SM_Coral_Table_Acropora_08" name="SM_Coral_Table_Acropora_08">
      <node name="SM_Coral_Table_Acropora_08_LOD0" id="SM_Coral_Table_Acropora_08_LOD0" layer="urchin" sid="SM_Coral_Table_Acropora_08_LOD0">
        <matrix sid="matrix">1.000000 0.000000 0.000000 0.000000 0.000000 0.000000 1.000000 0.000000 0.000000 -1.000000 0.000000 0.000000 0.000000 0.000000 0.000000 1.000000</matrix>
        <instance_geometry url="#SM_Coral_Table_Acropora_08_LOD0-lib">
          <bind_material>
            <technique_common>
              <instance_material symbol="MAT_Coral_Table" target="#MAT_Coral_Table"/>
            </technique_common>
          </bind_material>
        </instance_geometry>
        <extra>
          <technique profile="FCOLLADA">
            <visibility>1.000000</visibility>
          </technique>
        </extra>
      </node>
      <node name="SM_Coral_Table_Acropora_08_LOD1" id="SM_Coral_Table_Acropora_08_LOD1" layer="urchin" sid="SM_Coral_Table_Acropora_08_LOD1">
        <matrix sid="matrix">1.000000 0.000000 0.000000 0.000000 0.000000 0.000000 1.000000 0.000000 0.000000 -1.000000 0.000000 0.000000 0.000000 0.000000 0.000000 1.000000</matrix>
        <instance_geometry url="#SM_Coral_Table_Acropora_08_LOD1-lib">
          <bind_material>
            <technique_common>
              <instance_material symbol="MAT_Coral_Table" target="#MAT_Coral_Table"/>
            </technique_common>
          </bind_material>
        </instance_geometry>
        <extra>
          <technique profile="FCOLLADA">
            <visibility>1.000000</visibility>
          </technique>
        </extra>
      </node>
      <node name="SM_Coral_Table_Acropora_08_LOD2" id="SM_Coral_Table_Acropora_08_LOD2" layer="urchin" sid="SM_Coral_Table_Acropora_08_LOD2">
        <matrix sid="matrix">1.000000 0.000000 0.000000 0.000000 0.000000 0.000000 1.000000 0.000000 0.000000 -1.000000 0.000000 0.000000 0.000000 0.000000 0.000000 1.000000</matrix>
        <instance_geometry url="#SM_Coral_Table_Acropora_08_LOD2-lib">
          <bind_material>
            <technique_common>
              <instance_material symbol="MAT_Coral_Table" target="#MAT_Coral_Table"/>
            </technique_common>
          </bind_material>
        </instance_geometry>
        <extra>
          <technique profile="FCOLLADA">
            <visibility>1.000000</visibility>
          </technique>
        </extra>
      </node>
      <extra>
        <technique profile="MAX3D">
          <frame_rate>30.000000</frame_rate>
        </technique>
        <technique profile="FCOLLADA">
          <start_time>0.000000</start_time>
          <end_time>3.333333</end_time>
        </technique>
      </extra>
    </visual_scene>
  </library_visual_scenes>
  <scene>
    <instance_visual_scene url="#SM_Coral_Table_Acropora_08"/>
  </scene>
</COLLADA>
