<?xml version="1.0" encoding="utf-8"?>
<COLLADA xmlns="http://www.collada.org/2005/11/COLLADASchema" version="1.4.1">
  <asset>
    <contributor>
      <author/>
      <authoring_tool>FBX COLLADA exporter</authoring_tool>
      <comments/>
    </contributor>
    <created>2024-02-10T11:35:30Z</created>
    <keywords/>
    <modified>2024-02-10T11:35:30Z</modified>
    <revision/>
    <subject/>
    <title/>
    <unit meter="0.010000" name="centimeter"/>
    <up_axis>Y_UP</up_axis>
  </asset>
  <library_materials>
    <material id="MAT_Coral_Table" name="MAT_Coral_Table">
      <instance_effect url="#MAT_Coral_Table-fx"/>
    </material>
  </library_materials>
  <library_effects>
    <effect id="MAT_Coral_Table-fx" name="MAT_Coral_Table">
      <profile_COMMON>
        <technique sid="standard">
          <phong>
            <emission>
              <color sid="emission">0.000000  0.000000 0.000000 1.000000</color>
            </emission>
            <ambient>
              <color sid="ambient">0.149020  0.192157 0.149020 1.000000</color>
            </ambient>
            <diffuse>
              <color sid="diffuse">0.149020  0.192157 0.149020 1.000000</color>
            </diffuse>
            <specular>
              <color sid="specular">0.000000  0.000000 0.000000 1.000000</color>
            </specular>
            <shininess>
              <float sid="shininess">2.000000</float>
            </shininess>
            <reflective>
              <color sid="reflective">0.000000  0.000000 0.000000 1.000000</color>
            </reflective>
            <reflectivity>
              <float sid="reflectivity">1.000000</float>
            </reflectivity>
            <transparent opaque="RGB_ZERO">
              <color sid="transparent">1.000000  1.000000 1.000000 1.000000</color>
            </transparent>
            <transparency>
              <float sid="transparency">0.000000</float>
            </transparency>
          </phong>
        </technique>
      </profile_COMMON>
    </effect>
  </library_effects>
  <library_geometries>
    <geometry id="SM_Coral_Table_Acropora_04_LOD0-lib" name="SM_Coral_Table_Acropora_04_LOD0Mesh">
      <mesh>
        <source id="SM_Coral_Table_Acropora_04_LOD0-POSITION">
          <float_array id="SM_Coral_Table_Acropora_04_LOD0-POSITION-array" count="318">
-37.259151 -0.633301 8.213871
-34.067474 19.090881 8.213868
23.460781 22.801147 7.349458
7.484428 -30.735352 7.152797
-25.352425 -15.485962 8.625854
-30.334923 -11.956116 9.605843
-8.804582 -32.572876 7.152797
-13.218326 -29.689392 8.625855
-15.607242 -22.126587 8.625854
19.263760 -23.013489 8.625854
16.380096 -28.772644 8.625855
-37.700645 11.439575 8.213869
-34.509529 -7.006042 9.605844
-14.862052 32.546509 9.605837
-13.116244 -16.551270 8.625854
30.137978 18.672668 8.218223
37.693443 4.226318 8.492885
34.071449 -6.797668 7.512896
-23.926674 -16.142517 8.625854
-25.985470 -13.273926 9.605843
-19.617622 0.498901 4.896701
-23.007467 29.694885 9.605841
-8.061075 31.078979 9.605841
-0.543278 17.034058 4.896703
36.048092 11.713135 7.954337
37.016003 -2.809448 8.492886
17.519501 -0.593079 4.896701
33.532673 -11.348206 7.512896
15.778362 -4.855591 4.896702
26.700836 -15.829468 7.512897
19.323559 -26.294434 8.625855
18.010170 -20.874084 8.625854
2.755583 -14.532288 3.916713
8.017792 -9.610046 3.916713
0.775221 -28.929565 7.152797
-4.102192 -32.483093 7.152797
-13.213087 -18.652710 8.625854
-14.993954 -25.100220 8.625854
-5.388685 -15.448425 3.916713
-18.567099 -15.220215 8.625854
-13.980126 -5.812500 4.896702
-7.545425 -7.449585 4.896705
-3.037533 -15.403931 3.916713
17.034691 6.701660 3.509084
10.740486 12.193542 3.509083
-8.421204 17.061584 4.896703
-18.022966 10.345581 4.896703
-1.969416 1.720154 0.199740
15.125397 31.312439 8.346446
5.992844 16.209595 3.249145
0.894037 32.493713 9.577519
15.125397 31.312439 8.769295
21.330040 27.497437 7.294526
-37.294182 -0.659302 8.018687
-34.092735 19.119019 8.017477
23.502495 22.821533 7.154923
7.503834 -30.768860 6.956584
-25.311453 -15.396973 8.451484
-30.372194 -12.003113 9.415055
-8.840850 -32.602356 6.958340
-13.289461 -29.702087 8.439363
-15.607242 -22.126587 8.425855
19.263760 -23.013489 8.425855
16.416336 -28.791199 8.430045
-37.734806 11.446899 8.016944
-34.546421 -7.052185 9.414758
-14.868032 32.602417 9.413897
-13.186058 -16.580017 8.440659
30.174446 18.705811 8.024390
37.734806 4.218933 8.297348
34.104668 -6.789795 7.315832
-23.925262 -16.076965 8.436910
-26.005444 -13.312134 9.410541
-19.660027 0.480774 4.702089
-23.027124 29.740479 9.412099
-8.057743 31.140747 9.415650
-0.563854 17.094788 4.707261
36.090065 11.726929 7.759277
37.052902 -2.803650 8.296404
17.558067 -0.614197 4.701593
33.556854 -11.361877 7.314835
15.812767 -4.880310 4.701241
26.712025 -15.865173 7.316428
19.323559 -26.294434 8.425856
18.050343 -20.897339 8.431319
2.774277 -14.570862 3.721357
8.057831 -9.642273 3.723434
0.784546 -28.970459 6.957253
-4.091845 -32.520935 6.956676
-13.301675 -18.651123 8.446551
-14.993954 -25.100220 8.425855
-5.442123 -15.472473 3.725497
-18.594791 -15.266907 8.433364
-14.013036 -5.868286 4.707469
-7.614216 -7.494202 4.714284
-3.032719 -15.445618 3.721155
17.072556 6.704468 3.312721
10.772133 12.221863 3.313646
-8.434404 17.114624 4.704319
-18.056583 10.371033 4.701197
-1.979218 1.717407 0.000000
15.059807 31.123474 8.346446
5.991144 16.257507 3.054970
0.882172 32.555969 9.387842
15.070076 31.197449 8.615290
21.348896 27.537964 7.099583
</float_array>
          <technique_common>
            <accessor source="#SM_Coral_Table_Acropora_04_LOD0-POSITION-array" count="106" stride="3">
              <param name="X" type="float"/>
              <param name="Y" type="float"/>
              <param name="Z" type="float"/>
            </accessor>
          </technique_common>
        </source>
        <source id="SM_Coral_Table_Acropora_04_LOD0-Normal0">
          <float_array id="SM_Coral_Table_Acropora_04_LOD0-Normal0-array" count="1872">
-0.007055 -0.327805 0.944719
0.099869 0.190923 0.976511
-0.204866 -0.444879 0.871845
0.138460 0.233497 0.962449
0.099869 0.190923 0.976511
-0.007055 -0.327805 0.944719
0.138460 0.233497 0.962449
0.164546 0.278756 0.946160
0.099869 0.190923 0.976511
0.164546 0.278756 0.946160
0.186354 0.235113 0.953936
0.099869 0.190923 0.976511
0.164546 0.278756 0.946160
0.184464 0.230497 0.955429
0.186354 0.235113 0.953936
0.164546 0.278756 0.946160
0.212023 0.090529 0.973063
0.184464 0.230497 0.955429
0.212023 0.090529 0.973063
0.175159 0.130025 0.975916
0.184464 0.230497 0.955429
0.212023 0.090529 0.973063
0.170809 -0.036500 0.984628
0.175159 0.130025 0.975916
0.212023 0.090529 0.973063
0.168082 -0.127201 0.977532
0.170809 -0.036500 0.984628
0.168082 -0.127201 0.977532
0.126305 -0.140739 0.981957
0.170809 -0.036500 0.984628
0.168082 -0.127201 0.977532
0.098287 -0.227911 0.968709
0.126305 -0.140739 0.981957
0.168082 -0.127201 0.977532
0.066007 -0.265251 0.961917
0.098287 -0.227911 0.968709
0.066007 -0.265251 0.961917
0.029904 -0.279418 0.959704
0.098287 -0.227911 0.968709
0.066007 -0.265251 0.961917
-0.016655 -0.308886 0.950953
0.029904 -0.279418 0.959704
0.066007 -0.265251 0.961917
0.102886 -0.303655 0.947211
-0.016655 -0.308886 0.950953
0.102886 -0.303655 0.947211
0.059325 -0.311516 0.948387
-0.016655 -0.308886 0.950953
0.102886 -0.303655 0.947211
0.023427 -0.258137 0.965824
0.059325 -0.311516 0.948387
-0.136803 -0.170332 0.975844
-0.208574 -0.102030 0.972670
-0.120751 -0.168038 0.978357
-0.136803 -0.170332 0.975844
-0.182365 -0.165742 0.969161
-0.208574 -0.102030 0.972670
-0.136803 -0.170332 0.975844
-0.189324 -0.014175 0.981812
-0.182365 -0.165742 0.969161
-0.189324 -0.014175 0.981812
-0.209859 -0.068908 0.975300
-0.182365 -0.165742 0.969161
-0.189324 -0.014175 0.981812
-0.206823 0.036944 0.977681
-0.209859 -0.068908 0.975300
-0.189324 -0.014175 0.981812
-0.192827 0.105511 0.975544
-0.206823 0.036944 0.977681
-0.192827 0.105511 0.975544
-0.184497 -0.028933 0.982407
-0.206823 0.036944 0.977681
-0.192827 0.105511 0.975544
-0.166092 -0.039453 0.985321
-0.184497 -0.028933 0.982407
-0.192827 0.105511 0.975544
-0.172017 0.123627 0.977306
-0.166092 -0.039453 0.985321
-0.172017 0.123627 0.977306
-0.120909 0.068412 0.990303
-0.166092 -0.039453 0.985321
-0.172017 0.123627 0.977306
-0.055948 0.178508 0.982347
-0.120909 0.068412 0.990303
-0.172017 0.123627 0.977306
-0.200871 0.116424 0.972675
-0.055948 0.178508 0.982347
-0.200196 0.161259 0.966394
-0.200871 0.116424 0.972675
-0.172017 0.123627 0.977306
-0.200196 0.161259 0.966394
-0.181207 0.092828 0.979054
-0.200871 0.116424 0.972675
-0.200871 0.116424 0.972675
-0.181207 0.092828 0.979054
-0.000000 0.000000 1.000000
-0.200871 0.116424 0.972675
-0.000000 0.000000 1.000000
-0.000000 0.000000 1.000000
-0.200196 0.161259 0.966394
-0.093464 0.192782 0.976780
-0.181207 0.092828 0.979054
-0.093464 0.192782 0.976780
-0.097024 0.167622 0.981065
-0.181207 0.092828 0.979054
-0.093464 0.192782 0.976780
-0.046622 0.204661 0.977722
-0.097024 0.167622 0.981065
-0.093464 0.192782 0.976780
-0.024063 0.208207 0.977789
-0.046622 0.204661 0.977722
-0.024063 0.208207 0.977789
-0.051731 0.189024 0.980609
-0.046622 0.204661 0.977722
-0.024063 0.208207 0.977789
0.267188 0.120492 0.956082
-0.051731 0.189024 0.980609
0.267188 0.120492 0.956082
0.181341 0.147564 0.972286
-0.051731 0.189024 0.980609
0.267188 0.120492 0.956082
0.355677 0.063293 0.932463
0.181341 0.147564 0.972286
0.267188 0.120492 0.956082
0.442937 -0.008049 0.896517
0.355677 0.063293 0.932463
0.442937 -0.008049 0.896517
-0.000000 0.000000 1.000000
0.355677 0.063293 0.932463
-0.000000 0.000000 1.000000
0.442937 -0.008049 0.896517
0.000000 0.000000 1.000000
0.267188 0.120492 0.956082
0.349071 0.143953 0.925973
0.442937 -0.008049 0.896517
0.267188 0.120492 0.956082
0.343956 0.223057 0.912107
0.349071 0.143953 0.925973
0.343956 0.223057 0.912107
0.138460 0.233497 0.962449
0.349071 0.143953 0.925973
0.343956 0.223057 0.912107
0.164546 0.278756 0.946160
0.138460 0.233497 0.962449
0.049010 0.013838 0.998702
0.164546 0.278756 0.946160
0.343956 0.223057 0.912107
0.267188 0.120492 0.956082
0.049010 0.013838 0.998702
0.343956 0.223057 0.912107
-0.024063 0.208207 0.977789
0.049010 0.013838 0.998702
0.267188 0.120492 0.956082
-0.093464 0.192782 0.976780
0.049010 0.013838 0.998702
-0.024063 0.208207 0.977789
-0.200196 0.161259 0.966394
0.049010 0.013838 0.998702
-0.093464 0.192782 0.976780
-0.172017 0.123627 0.977306
0.049010 0.013838 0.998702
-0.200196 0.161259 0.966394
-0.192827 0.105511 0.975544
0.049010 0.013838 0.998702
-0.172017 0.123627 0.977306
-0.189324 -0.014175 0.981812
0.049010 0.013838 0.998702
-0.192827 0.105511 0.975544
-0.136803 -0.170332 0.975844
0.049010 0.013838 0.998702
-0.189324 -0.014175 0.981812
0.023427 -0.258137 0.965824
0.049010 0.013838 0.998702
-0.136803 -0.170332 0.975844
0.102886 -0.303655 0.947211
0.049010 0.013838 0.998702
0.023427 -0.258137 0.965824
0.066007 -0.265251 0.961917
0.049010 0.013838 0.998702
0.102886 -0.303655 0.947211
0.168082 -0.127201 0.977532
0.049010 0.013838 0.998702
0.066007 -0.265251 0.961917
0.212023 0.090529 0.973063
0.049010 0.013838 0.998702
0.168082 -0.127201 0.977532
0.212023 0.090529 0.973063
0.164546 0.278756 0.946160
0.049010 0.013838 0.998702
0.023427 -0.258137 0.965824
0.232851 0.604139 0.762100
0.059325 -0.311516 0.948387
-0.120751 -0.168038 0.978357
0.023427 -0.258137 0.965824
-0.136803 -0.170332 0.975844
0.023427 -0.258137 0.965824
-0.120751 -0.168038 0.978357
0.232851 0.604139 0.762100
0.059325 -0.311516 0.948387
0.232851 0.604139 0.762100
0.327972 0.944687 0.000000
0.232851 0.604139 0.762100
-0.120751 -0.168038 0.978357
0.327972 0.944687 0.000000
0.220182 0.467202 -0.856296
-0.099536 -0.193343 -0.976069
0.008923 0.338108 -0.941065
0.008923 0.338108 -0.941065
-0.099536 -0.193343 -0.976069
-0.138024 -0.235213 -0.962094
-0.099536 -0.193343 -0.976069
-0.163992 -0.278878 -0.946221
-0.138024 -0.235213 -0.962094
-0.099536 -0.193343 -0.976069
-0.186385 -0.235007 -0.953956
-0.163992 -0.278878 -0.946221
-0.186385 -0.235007 -0.953956
-0.184459 -0.230252 -0.955489
-0.163992 -0.278878 -0.946221
-0.184459 -0.230252 -0.955489
-0.211923 -0.090535 -0.973084
-0.163992 -0.278878 -0.946221
-0.184459 -0.230252 -0.955489
-0.175139 -0.130065 -0.975915
-0.211923 -0.090535 -0.973084
-0.175139 -0.130065 -0.975915
-0.170803 0.036463 -0.984630
-0.211923 -0.090535 -0.973084
-0.170803 0.036463 -0.984630
-0.167985 0.127141 -0.977556
-0.211923 -0.090535 -0.973084
-0.170803 0.036463 -0.984630
-0.126279 0.140766 -0.981957
-0.167985 0.127141 -0.977556
-0.126279 0.140766 -0.981957
-0.098294 0.227889 -0.968713
-0.167985 0.127141 -0.977556
-0.098294 0.227889 -0.968713
-0.065903 0.265072 -0.961974
-0.167985 0.127141 -0.977556
-0.098294 0.227889 -0.968713
-0.029857 0.279427 -0.959703
-0.065903 0.265072 -0.961974
-0.029857 0.279427 -0.959703
0.016510 0.308807 -0.950981
-0.065903 0.265072 -0.961974
0.016510 0.308807 -0.950981
-0.102610 0.303369 -0.947332
-0.065903 0.265072 -0.961974
0.016510 0.308807 -0.950981
-0.056344 0.316033 -0.947074
-0.102610 0.303369 -0.947332
-0.056344 0.316033 -0.947074
-0.023670 0.259660 -0.965410
-0.102610 0.303369 -0.947332
0.124239 0.177388 -0.976267
0.208376 0.102236 -0.972691
0.135767 0.171407 -0.975801
0.208376 0.102236 -0.972691
0.182376 0.165566 -0.969189
0.135767 0.171407 -0.975801
0.182376 0.165566 -0.969189
0.189247 0.014116 -0.981828
0.135767 0.171407 -0.975801
0.182376 0.165566 -0.969189
0.209825 0.068969 -0.975303
0.189247 0.014116 -0.981828
0.209825 0.068969 -0.975303
0.206826 -0.036915 -0.977681
0.189247 0.014116 -0.981828
0.206826 -0.036915 -0.977681
0.192638 -0.105307 -0.975603
0.189247 0.014116 -0.981828
0.206826 -0.036915 -0.977681
0.184402 0.028888 -0.982426
0.192638 -0.105307 -0.975603
0.184402 0.028888 -0.982426
0.166024 0.039612 -0.985326
0.192638 -0.105307 -0.975603
0.166024 0.039612 -0.985326
0.171891 -0.123516 -0.977342
0.192638 -0.105307 -0.975603
0.166024 0.039612 -0.985326
0.120892 -0.068370 -0.990308
0.171891 -0.123516 -0.977342
0.120892 -0.068370 -0.990308
0.055701 -0.178602 -0.982343
0.171891 -0.123516 -0.977342
0.055701 -0.178602 -0.982343
0.200613 -0.116669 -0.972699
0.171891 -0.123516 -0.977342
0.171891 -0.123516 -0.977342
0.200613 -0.116669 -0.972699
0.200063 -0.161061 -0.966455
0.200613 -0.116669 -0.972699
0.181425 -0.093107 -0.978987
0.200063 -0.161061 -0.966455
-0.002179 0.000498 -0.999997
0.181425 -0.093107 -0.978987
0.200613 -0.116669 -0.972699
-0.004652 -0.000085 -0.999989
-0.002179 0.000498 -0.999997
0.200613 -0.116669 -0.972699
0.181425 -0.093107 -0.978987
0.093444 -0.192660 -0.976806
0.200063 -0.161061 -0.966455
0.181425 -0.093107 -0.978987
0.096951 -0.167641 -0.981069
0.093444 -0.192660 -0.976806
0.096951 -0.167641 -0.981069
0.046761 -0.204624 -0.977723
0.093444 -0.192660 -0.976806
0.046761 -0.204624 -0.977723
0.022427 -0.207963 -0.977880
0.093444 -0.192660 -0.976806
0.046761 -0.204624 -0.977723
0.051194 -0.188787 -0.980683
0.022427 -0.207963 -0.977880
0.051194 -0.188787 -0.980683
-0.268495 -0.120196 -0.955753
0.022427 -0.207963 -0.977880
0.051194 -0.188787 -0.980683
-0.181170 -0.147556 -0.972319
-0.268495 -0.120196 -0.955753
-0.181170 -0.147556 -0.972319
-0.356212 -0.063777 -0.932226
-0.268495 -0.120196 -0.955753
-0.356212 -0.063777 -0.932226
-0.442938 0.008989 -0.896507
-0.268495 -0.120196 -0.955753
-0.356212 -0.063777 -0.932226
0.009270 0.000777 -0.999957
-0.442938 0.008989 -0.896507
0.006848 0.001412 -0.999976
-0.442938 0.008989 -0.896507
0.009270 0.000777 -0.999957
-0.442938 0.008989 -0.896507
-0.348782 -0.143119 -0.926212
-0.268495 -0.120196 -0.955753
-0.348782 -0.143119 -0.926212
-0.342373 -0.223103 -0.912692
-0.268495 -0.120196 -0.955753
-0.348782 -0.143119 -0.926212
-0.138024 -0.235213 -0.962094
-0.342373 -0.223103 -0.912692
-0.138024 -0.235213 -0.962094
-0.163992 -0.278878 -0.946221
-0.342373 -0.223103 -0.912692
-0.342373 -0.223103 -0.912692
-0.163992 -0.278878 -0.946221
-0.048941 -0.013698 -0.998708
-0.342373 -0.223103 -0.912692
-0.048941 -0.013698 -0.998708
-0.268495 -0.120196 -0.955753
-0.268495 -0.120196 -0.955753
-0.048941 -0.013698 -0.998708
0.022427 -0.207963 -0.977880
0.022427 -0.207963 -0.977880
-0.048941 -0.013698 -0.998708
0.093444 -0.192660 -0.976806
0.093444 -0.192660 -0.976806
-0.048941 -0.013698 -0.998708
0.200063 -0.161061 -0.966455
0.200063 -0.161061 -0.966455
-0.048941 -0.013698 -0.998708
0.171891 -0.123516 -0.977342
0.171891 -0.123516 -0.977342
-0.048941 -0.013698 -0.998708
0.192638 -0.105307 -0.975603
0.192638 -0.105307 -0.975603
-0.048941 -0.013698 -0.998708
0.189247 0.014116 -0.981828
0.189247 0.014116 -0.981828
-0.048941 -0.013698 -0.998708
0.135767 0.171407 -0.975801
0.135767 0.171407 -0.975801
-0.048941 -0.013698 -0.998708
-0.023670 0.259660 -0.965410
-0.023670 0.259660 -0.965410
-0.048941 -0.013698 -0.998708
-0.102610 0.303369 -0.947332
-0.102610 0.303369 -0.947332
-0.048941 -0.013698 -0.998708
-0.065903 0.265072 -0.961974
-0.065903 0.265072 -0.961974
-0.048941 -0.013698 -0.998708
-0.167985 0.127141 -0.977556
-0.167985 0.127141 -0.977556
-0.048941 -0.013698 -0.998708
-0.211923 -0.090535 -0.973084
-0.048941 -0.013698 -0.998708
-0.163992 -0.278878 -0.946221
-0.211923 -0.090535 -0.973084
-0.056344 0.316033 -0.947074
-0.227240 -0.695072 -0.682083
-0.023670 0.259660 -0.965410
-0.023670 0.259660 -0.965410
-0.227240 -0.695072 -0.682083
0.124239 0.177388 -0.976267
-0.023670 0.259660 -0.965410
0.124239 0.177388 -0.976267
0.135767 0.171407 -0.975801
-0.281639 -0.922331 0.264545
-0.227240 -0.695072 -0.682083
-0.056344 0.316033 -0.947074
-0.281639 -0.922331 0.264545
0.124239 0.177388 -0.976267
-0.227240 -0.695072 -0.682083
-0.772766 -0.631500 0.063564
-0.750543 -0.602522 -0.271391
-0.752283 -0.600774 -0.270447
-0.752283 -0.600774 -0.270447
-0.636158 -0.760669 0.129176
-0.772766 -0.631500 0.063564
-0.118264 -0.963846 -0.238777
-0.752283 -0.600774 -0.270447
-0.750543 -0.602522 -0.271391
-0.118264 -0.963846 -0.238777
-0.750543 -0.602522 -0.271391
-0.131530 -0.960082 -0.246866
-0.118264 -0.963846 -0.238777
-0.020272 -0.996226 0.084392
-0.052885 -0.992510 0.110124
-0.020272 -0.996226 0.084392
-0.118264 -0.963846 -0.238777
-0.131530 -0.960082 -0.246866
-0.522012 -0.805758 0.279747
-0.772766 -0.631500 0.063564
-0.636158 -0.760669 0.129176
-0.772766 -0.631500 0.063564
-0.522012 -0.805758 0.279747
-0.529635 -0.800495 0.280525
-0.522012 -0.805758 0.279747
-0.832695 -0.485387 0.266494
-0.832360 -0.485900 0.266604
-0.522012 -0.805758 0.279747
-0.832360 -0.485900 0.266604
-0.529635 -0.800495 0.280525
-0.959316 -0.191871 0.207119
-0.832360 -0.485900 0.266604
-0.832695 -0.485387 0.266494
-0.832360 -0.485900 0.266604
-0.959316 -0.191871 0.207119
-0.959780 -0.189938 0.206751
-0.959316 -0.191871 0.207119
-0.963615 0.198611 0.178885
-0.963532 0.199016 0.178883
-0.959316 -0.191871 0.207119
-0.963532 0.199016 0.178883
-0.959780 -0.189938 0.206751
-0.801329 0.565807 0.194252
-0.963532 0.199016 0.178883
-0.963615 0.198611 0.178885
-0.963532 0.199016 0.178883
-0.801329 0.565807 0.194252
-0.801961 0.564952 0.194132
-0.518315 0.820461 0.241234
-0.801961 0.564952 0.194132
-0.801329 0.565807 0.194252
-0.801329 0.565807 0.194252
-0.516062 0.821789 0.241541
-0.518315 0.820461 0.241234
-0.516062 0.821789 0.241541
-0.059027 0.957028 0.283925
-0.063176 0.956824 0.283718
-0.516062 0.821789 0.241541
-0.063176 0.956824 0.283718
-0.518315 0.820461 0.241234
-0.059027 0.957028 0.283925
0.028495 0.952539 0.303081
0.026363 0.952556 0.303221
-0.059027 0.957028 0.283925
0.026363 0.952556 0.303221
-0.063176 0.956824 0.283718
-0.066236 0.988248 -0.137760
0.028495 0.952539 0.303081
-0.065020 0.987480 -0.143721
0.028495 0.952539 0.303081
-0.066236 0.988248 -0.137760
0.026363 0.952556 0.303221
0.711275 0.660377 -0.240812
0.723698 0.654601 0.218538
0.723792 0.654499 0.218535
0.711275 0.660377 -0.240812
0.723792 0.654499 0.218535
0.706033 0.663220 -0.248305
0.723792 0.654499 0.218535
0.629529 0.744000 0.223957
0.627933 0.745368 0.223890
0.629529 0.744000 0.223957
0.723792 0.654499 0.218535
0.723698 0.654601 0.218538
0.872950 0.434283 0.222163
0.629529 0.744000 0.223957
0.871542 0.437035 0.222295
0.629529 0.744000 0.223957
0.872950 0.434283 0.222163
0.627933 0.745368 0.223890
0.976948 0.064080 0.203632
0.872950 0.434283 0.222163
0.871542 0.437035 0.222295
0.871542 0.437035 0.222295
0.976728 0.067027 0.203739
0.976948 0.064080 0.203632
0.916639 -0.364741 0.163516
0.976948 0.064080 0.203632
0.976728 0.067027 0.203739
0.976948 0.064080 0.203632
0.916639 -0.364741 0.163516
0.915774 -0.367061 0.163170
0.916201 -0.376788 0.136404
0.915774 -0.367061 0.163170
0.916639 -0.364741 0.163516
0.915774 -0.367061 0.163170
0.916201 -0.376788 0.136404
0.916503 -0.376039 0.136444
0.838404 -0.520063 0.163134
0.916503 -0.376039 0.136444
0.916201 -0.376788 0.136404
0.916503 -0.376039 0.136444
0.838404 -0.520063 0.163134
0.839939 -0.517590 0.163108
0.838404 -0.520063 0.163134
0.527025 -0.832077 0.172893
0.527188 -0.832018 0.172679
0.838404 -0.520063 0.163134
0.527188 -0.832018 0.172679
0.839939 -0.517590 0.163108
0.954895 -0.239392 0.175692
0.527188 -0.832018 0.172679
0.527025 -0.832077 0.172893
0.527025 -0.832077 0.172893
0.958067 -0.227303 0.174470
0.954895 -0.239392 0.175692
0.436528 -0.890461 0.128541
0.910669 -0.409803 0.052377
0.424918 -0.895835 0.130093
0.910669 -0.409803 0.052377
0.436528 -0.890461 0.128541
0.910738 -0.409653 0.052359
0.962919 0.268096 0.030195
0.910669 -0.409803 0.052377
0.910738 -0.409653 0.052359
0.962919 0.268096 0.030195
0.910738 -0.409653 0.052359
0.962969 0.267918 0.030174
0.962919 0.268096 0.030195
0.954895 -0.239392 0.175692
0.958067 -0.227303 0.174470
0.954895 -0.239392 0.175692
0.962919 0.268096 0.030195
0.962969 0.267918 0.030174
-0.036969 -0.985929 0.163027
0.436528 -0.890461 0.128541
0.424918 -0.895835 0.130093
0.436528 -0.890461 0.128541
-0.036969 -0.985929 0.163027
-0.031307 -0.986139 0.162942
-0.036969 -0.985929 0.163027
0.180455 -0.964292 0.193849
0.175919 -0.965158 0.193705
-0.036969 -0.985929 0.163027
0.175919 -0.965158 0.193705
-0.031307 -0.986139 0.162942
0.180455 -0.964292 0.193849
0.313961 -0.930815 0.187114
0.310002 -0.932169 0.186973
0.180455 -0.964292 0.193849
0.310002 -0.932169 0.186973
0.175919 -0.965158 0.193705
-0.238571 -0.949091 0.205696
0.310002 -0.932169 0.186973
0.313961 -0.930815 0.187114
0.310002 -0.932169 0.186973
-0.238571 -0.949091 0.205696
-0.237066 -0.949507 0.205515
-0.746567 -0.629057 0.216620
-0.237066 -0.949507 0.205515
-0.238571 -0.949091 0.205696
-0.238571 -0.949091 0.205696
-0.735988 -0.641015 0.217762
-0.746567 -0.629057 0.216620
-0.735988 -0.641015 0.217762
-0.956544 -0.277017 0.091028
-0.956570 -0.276952 0.090948
-0.735988 -0.641015 0.217762
-0.956570 -0.276952 0.090948
-0.746567 -0.629057 0.216620
-0.904734 0.286911 0.314863
-0.976484 0.188553 0.104529
-0.976341 0.189201 0.104694
-0.976484 0.188553 0.104529
-0.904734 0.286911 0.314863
-0.895798 0.330354 0.297342
-0.956544 -0.277017 0.091028
-0.976341 0.189201 0.104694
-0.976484 0.188553 0.104529
-0.956544 -0.277017 0.091028
-0.976484 0.188553 0.104529
-0.956570 -0.276952 0.090948
-0.702987 -0.588041 0.400023
-0.904734 0.286911 0.314863
-0.744922 -0.527127 0.408936
-0.904734 0.286911 0.314863
-0.702987 -0.588041 0.400023
-0.895798 0.330354 0.297342
-0.052885 -0.992510 0.110124
-0.702987 -0.588041 0.400023
-0.744922 -0.527127 0.408936
-0.702987 -0.588041 0.400023
-0.052885 -0.992510 0.110124
-0.020272 -0.996226 0.084392
-0.065020 0.987480 -0.143721
0.174954 0.780414 -0.600287
0.171026 0.781907 -0.599476
-0.065020 0.987480 -0.143721
0.171026 0.781907 -0.599476
-0.066236 0.988248 -0.137760
0.706033 0.663220 -0.248305
0.174954 0.780414 -0.600287
0.711275 0.660377 -0.240812
0.706033 0.663220 -0.248305
0.171026 0.781907 -0.599476
0.174954 0.780414 -0.600287
</float_array>
          <technique_common>
            <accessor source="#SM_Coral_Table_Acropora_04_LOD0-Normal0-array" count="624" stride="3">
              <param name="X" type="float"/>
              <param name="Y" type="float"/>
              <param name="Z" type="float"/>
            </accessor>
          </technique_common>
        </source>
        <source id="SM_Coral_Table_Acropora_04_LOD0-UV0">
          <float_array id="SM_Coral_Table_Acropora_04_LOD0-UV0-array" count="544">
0.521484 0.196777
0.446533 0.059570
0.444580 0.065918
0.450439 0.057617
0.450439 0.057617
0.444580 0.065918
0.465820 0.060059
0.444580 0.065918
0.479004 0.087402
0.465820 0.060059
0.444580 0.065918
0.432129 0.069336
0.479004 0.087402
0.432129 0.069336
0.420166 0.083496
0.479004 0.087402
0.420166 0.083496
0.462891 0.105469
0.479004 0.087402
0.420166 0.083496
0.412354 0.102051
0.462891 0.105469
0.412354 0.102051
0.410889 0.136719
0.462891 0.105469
0.410889 0.136719
0.467529 0.133789
0.462891 0.105469
0.410889 0.136719
0.421387 0.158203
0.467529 0.133789
0.421387 0.158203
0.453125 0.188965
0.467529 0.133789
0.453125 0.188965
0.495117 0.152832
0.467529 0.133789
0.453125 0.188965
0.476563 0.196777
0.495117 0.152832
0.476563 0.196777
0.496094 0.192871
0.495117 0.152832
0.496094 0.192871
0.517578 0.152832
0.495117 0.152832
0.496094 0.192871
0.521484 0.196777
0.517578 0.152832
0.521484 0.196777
0.538086 0.151367
0.517578 0.152832
0.562500 0.193359
0.549805 0.139160
0.580078 0.182617
0.586426 0.168945
0.549805 0.139160
0.586426 0.168945
0.605469 0.157227
0.549805 0.139160
0.605469 0.157227
0.567871 0.123047
0.549805 0.139160
0.605469 0.157227
0.622559 0.137695
0.567871 0.123047
0.622559 0.137695
0.626953 0.115723
0.567871 0.123047
0.626953 0.115723
0.569336 0.102539
0.567871 0.123047
0.626953 0.115723
0.625000 0.095703
0.569336 0.102539
0.625000 0.095703
0.616699 0.084473
0.569336 0.102539
0.616699 0.084473
0.564453 0.090332
0.569336 0.102539
0.616699 0.084473
0.615234 0.071289
0.564453 0.090332
0.615234 0.071289
0.595703 0.058594
0.564453 0.090332
0.595703 0.058594
0.570801 0.043945
0.564453 0.090332
0.564453 0.090332
0.570801 0.043945
0.541992 0.076660
0.570801 0.043945
0.565918 0.021484
0.541992 0.076660
0.574219 0.028320
0.565918 0.021484
0.570801 0.043945
0.574219 0.038086
0.574219 0.028320
0.570801 0.043945
0.565918 0.021484
0.526855 0.062500
0.541992 0.076660
0.565918 0.021484
0.540527 0.015625
0.526855 0.062500
0.540527 0.015625
0.521484 0.020996
0.526855 0.062500
0.521484 0.020996
0.510254 0.060059
0.526855 0.062500
0.521484 0.020996
0.507324 0.010742
0.510254 0.060059
0.507324 0.010742
0.503418 0.059570
0.510254 0.060059
0.507324 0.010742
0.493896 0.010254
0.503418 0.059570
0.493896 0.010254
0.481201 0.018555
0.503418 0.059570
0.481201 0.018555
0.481201 0.050293
0.503418 0.059570
0.481201 0.018555
0.476074 0.031738
0.481201 0.050293
0.474365 0.040527
0.481201 0.050293
0.476074 0.031738
0.481201 0.050293
0.481445 0.056152
0.503418 0.059570
0.481445 0.056152
0.497559 0.082520
0.503418 0.059570
0.481445 0.056152
0.465820 0.060059
0.497559 0.082520
0.465820 0.060059
0.479004 0.087402
0.497559 0.082520
0.497559 0.082520
0.479004 0.087402
0.513184 0.108887
0.497559 0.082520
0.513184 0.108887
0.503418 0.059570
0.503418 0.059570
0.513184 0.108887
0.510254 0.060059
0.510254 0.060059
0.513184 0.108887
0.526855 0.062500
0.526855 0.062500
0.513184 0.108887
0.541992 0.076660
0.541992 0.076660
0.513184 0.108887
0.564453 0.090332
0.564453 0.090332
0.513184 0.108887
0.569336 0.102539
0.569336 0.102539
0.513184 0.108887
0.567871 0.123047
0.567871 0.123047
0.513184 0.108887
0.549805 0.139160
0.549805 0.139160
0.513184 0.108887
0.538086 0.151367
0.538086 0.151367
0.513184 0.108887
0.517578 0.152832
0.517578 0.152832
0.513184 0.108887
0.495117 0.152832
0.495117 0.152832
0.513184 0.108887
0.467529 0.133789
0.467529 0.133789
0.513184 0.108887
0.462891 0.105469
0.513184 0.108887
0.479004 0.087402
0.462891 0.105469
0.538086 0.151367
0.538086 0.151367
0.521484 0.196777
0.562500 0.193359
0.562500 0.193359
0.580078 0.182617
0.000000 0.000000
0.000000 0.050000
0.010568 0.000000
0.010568 0.050000
0.017201 0.000000
0.017201 0.050000
0.040183 0.000000
0.040183 0.050000
0.063895 0.000000
0.063895 0.050000
0.072785 0.000000
0.072785 0.050000
0.090614 0.000000
0.090614 0.050000
0.103444 0.000000
0.103444 0.050000
0.124239 0.000000
0.124239 0.050000
0.147372 0.000000
0.147372 0.050000
0.167247 0.000000
0.167247 0.050000
0.192749 0.000000
0.192749 0.050000
0.222110 0.000000
0.222110 0.050000
0.261106 0.000000
0.261106 0.050000
0.277367 0.000000
0.277367 0.050000
0.291234 0.000000
0.291234 0.050000
0.301713 0.000000
0.301713 0.050000
0.344437 0.000000
0.344437 0.050000
0.378964 0.000000
0.378964 0.050000
0.398328 0.000000
0.398328 0.050000
0.419683 0.000000
0.419683 0.050000
0.449553 0.000000
0.449553 0.050000
0.482027 0.000000
0.482027 0.050000
0.520627 0.000000
0.520627 0.050000
0.554004 0.000000
0.554004 0.050000
0.575799 0.000000
0.575799 0.050000
0.606898 0.000000
0.606898 0.050000
0.667469 0.000000
0.667469 0.050000
0.705782 0.000000
0.705782 0.050000
0.735183 0.000000
0.735183 0.050000
0.771653 0.000000
0.771653 0.050000
0.836670 0.000000
0.836670 0.050000
0.872463 0.000000
0.872463 0.050000
0.923516 0.000000
0.923516 0.050000
0.953431 0.000000
0.953431 0.050000
0.980795 0.000000
0.980795 0.050000
1.000000 0.000000
1.000000 0.050000
</float_array>
          <technique_common>
            <accessor source="#SM_Coral_Table_Acropora_04_LOD0-UV0-array" count="272" stride="2">
              <param name="S" type="float"/>
              <param name="T" type="float"/>
            </accessor>
          </technique_common>
        </source>
        <vertices id="SM_Coral_Table_Acropora_04_LOD0-VERTEX">
          <input semantic="POSITION" source="#SM_Coral_Table_Acropora_04_LOD0-POSITION"/>
        </vertices>
        <triangles count="208" material="MAT_Coral_Table">
          <input semantic="VERTEX" offset="0" source="#SM_Coral_Table_Acropora_04_LOD0-VERTEX"/>
          <input semantic="NORMAL" offset="1" source="#SM_Coral_Table_Acropora_04_LOD0-Normal0"/>
          <input semantic="TEXCOORD" offset="2" set="0" source="#SM_Coral_Table_Acropora_04_LOD0-UV0"/>
          <p> 18 0 3 19 1 2 4 2 1 39 3 6 19 4 5 18 5 4 39 6 9 40 7 8 19 8 7 40 9 12 5 10 11 19 11 10 40 12 15 12 13 14 5 14 13 40 15 18 20 16 17 12 17 16 20 18 21 0 19 20 12 20 19 20 21 24 11 22 23 0 23 22 20 24 27 46 25 26 11 26 25 46 27 30 1 28 29 11 29 28 46 30 33 21 31 32 1 32 31 46 33 36 45 34 35 21 35 34 45 36 39 13 37 38 21 38 37 45 39 42 22 40 41 13 41 40 45 42 45 23 43 44 22 44 43 23 45 48 50 46 47 22 47 46 23 48 51 49 49 50 50 50 49 44 51 56 2 52 55 52 53 54 44 54 59 15 55 58 2 56 57 44 57 62 43 58 61 15 59 60 43 60 65 24 61 64 15 62 63 43 63 68 16 64 67 24 65 66 43 66 71 26 67 70 16 68 69 26 69 74 25 70 73 16 71 72 26 72 77 17 73 76 25 74 75 26 75 80 28 76 79 17 77 78 28 78 83 27 79 82 17 80 81 28 81 86 29 82 85 27 83 84 28 84 89 31 85 88 29 86 87 33 87 92 31 88 91 28 89 90 33 90 95 10 91 94 31 92 93 31 93 98 10 94 97 30 95 96 31 96 101 30 97 100 9 98 99 33 99 104 32 100 103 10 101 102 32 102 107 3 103 106 10 104 105 32 105 110 34 106 109 3 107 108 32 108 113 42 109 112 34 110 111 42 111 116 35 112 115 34 113 114 42 114 119 38 115 118 35 116 117 38 117 122 6 118 121 35 119 120 38 120 125 7 121 124 6 122 123 38 123 128 36 124 127 7 125 126 36 126 131 37 127 130 7 128 129 37 129 134 36 130 133 8 131 132 38 132 137 14 133 136 36 134 135 38 135 140 41 136 139 14 137 138 41 138 143 39 139 142 14 140 141 41 141 146 40 142 145 39 143 144 47 144 149 40 145 148 41 146 147 38 147 152 47 148 151 41 149 150 42 150 155 47 151 154 38 152 153 32 153 158 47 154 157 42 155 156 33 156 161 47 157 160 32 158 159 28 159 164 47 160 163 33 161 162 26 162 167 47 163 166 28 164 165 43 165 170 47 166 169 26 167 168 44 168 173 47 169 172 43 170 171 49 171 176 47 172 175 44 173 174 23 174 179 47 175 178 49 176 177 45 177 182 47 178 181 23 179 180 46 180 185 47 181 184 45 182 183 20 183 188 47 184 187 46 185 186 20 186 191 40 187 190 47 188 189 49 189 193 51 190 195 50 191 194 52 192 197 49 193 192 44 194 53 49 195 192 52 196 197 51 197 196 50 198 0 51 199 195 48 200 52 51 201 195 52 202 197 48 203 52 57 204 1 72 205 2 71 206 3 71 207 4 72 208 5 92 209 6 72 210 7 93 211 8 92 212 9 72 213 10 58 214 11 93 215 12 58 216 13 65 217 14 93 218 15 65 219 16 73 220 17 93 221 18 65 222 19 53 223 20 73 224 21 53 225 22 64 226 23 73 227 24 64 228 25 99 229 26 73 230 27 64 231 28 54 232 29 99 233 30 54 234 31 74 235 32 99 236 33 74 237 34 98 238 35 99 239 36 74 240 37 66 241 38 98 242 39 66 243 40 75 244 41 98 245 42 75 246 43 76 247 44 98 248 45 75 249 46 103 250 47 76 251 48 103 252 49 102 253 50 76 254 51 105 255 54 55 256 55 97 257 56 55 258 57 68 259 58 97 260 59 68 261 60 96 262 61 97 263 62 68 264 63 77 265 64 96 266 65 77 267 66 69 268 67 96 269 68 69 270 69 79 271 70 96 272 71 69 273 72 78 274 73 79 275 74 78 276 75 70 277 76 79 278 77 70 279 78 81 280 79 79 281 80 70 282 81 80 283 82 81 284 83 80 285 84 82 286 85 81 287 86 82 288 87 84 289 88 81 290 89 81 291 90 84 292 91 86 293 92 84 294 93 63 295 94 86 296 95 83 297 96 63 298 97 84 299 98 62 300 99 83 301 100 84 302 101 63 303 102 85 304 103 86 305 104 63 306 105 56 307 106 85 308 107 56 309 108 87 310 109 85 311 110 87 312 111 95 313 112 85 314 113 87 315 114 88 316 115 95 317 116 88 318 117 91 319 118 95 320 119 88 321 120 59 322 121 91 323 122 59 324 123 60 325 124 91 326 125 60 327 126 89 328 127 91 329 128 60 330 129 90 331 130 89 332 131 61 333 132 89 334 133 90 335 134 89 336 135 67 337 136 91 338 137 67 339 138 94 340 139 91 341 140 67 342 141 92 343 142 94 344 143 92 345 144 93 346 145 94 347 146 94 348 147 93 349 148 100 350 149 94 351 150 100 352 151 91 353 152 91 354 153 100 355 154 95 356 155 95 357 156 100 358 157 85 359 158 85 360 159 100 361 160 86 362 161 86 363 162 100 364 163 81 365 164 81 366 165 100 367 166 79 368 167 79 369 168 100 370 169 96 371 170 96 372 171 100 373 172 97 374 173 97 375 174 100 376 175 102 377 176 102 378 177 100 379 178 76 380 179 76 381 180 100 382 181 98 383 182 98 384 183 100 385 184 99 386 185 99 387 186 100 388 187 73 389 188 100 390 189 93 391 190 73 392 191 103 393 194 104 394 195 102 395 193 102 396 192 104 397 196 105 398 197 102 399 192 105 400 197 97 401 53 101 402 52 104 403 195 103 404 0 101 405 52 105 406 197 104 407 195 72 408 271 57 409 269 4 410 268 4 411 268 19 412 270 72 413 271 18 414 266 4 415 268 57 416 269 18 417 266 57 418 269 71 419 267 18 420 266 92 421 265 39 422 264 92 423 265 18 424 266 71 425 267 5 426 200 72 427 199 19 428 198 72 429 199 5 430 200 58 431 201 5 432 200 12 433 202 65 434 203 5 435 200 65 436 203 58 437 201 0 438 204 65 439 203 12 440 202 65 441 203 0 442 204 53 443 205 0 444 204 11 445 206 64 446 207 0 447 204 64 448 207 53 449 205 1 450 208 64 451 207 11 452 206 64 453 207 1 454 208 54 455 209 74 456 211 54 457 209 1 458 208 1 459 208 21 460 210 74 461 211 21 462 210 13 463 212 66 464 213 21 465 210 66 466 213 74 467 211 13 468 212 22 469 214 75 470 215 13 471 212 75 472 215 66 473 213 103 474 217 22 475 214 50 476 216 22 477 214 103 478 217 75 479 215 52 480 220 2 481 222 55 482 223 52 483 220 55 484 223 105 485 221 55 486 223 15 487 224 68 488 225 15 489 224 55 490 223 2 491 222 77 492 227 15 493 224 24 494 226 15 495 224 77 496 227 68 497 225 69 498 229 77 499 227 24 500 226 24 501 226 16 502 228 69 503 229 25 504 230 69 505 229 16 506 228 69 507 229 25 508 230 78 509 231 17 510 232 78 511 231 25 512 230 78 513 231 17 514 232 70 515 233 27 516 234 70 517 233 17 518 232 70 519 233 27 520 234 80 521 235 27 522 234 29 523 236 82 524 237 27 525 234 82 526 237 80 527 235 84 528 239 82 529 237 29 530 236 29 531 236 31 532 238 84 533 239 63 534 245 30 535 242 10 536 244 30 537 242 63 538 245 83 539 243 9 540 240 30 541 242 83 542 243 9 543 240 83 544 243 62 545 241 9 546 240 84 547 239 31 548 238 84 549 239 9 550 240 62 551 241 3 552 246 63 553 245 10 554 244 63 555 245 3 556 246 56 557 247 3 558 246 34 559 248 87 560 249 3 561 246 87 562 249 56 563 247 34 564 248 35 565 250 88 566 251 34 567 248 88 568 251 87 569 249 6 570 252 88 571 251 35 572 250 88 573 251 6 574 252 59 575 253 60 576 255 59 577 253 6 578 252 6 579 252 7 580 254 60 581 255 7 582 254 37 583 256 90 584 257 7 585 254 90 586 257 60 587 255 36 588 260 61 589 259 8 590 258 61 591 259 36 592 260 89 593 261 37 594 256 8 595 258 61 596 259 37 597 256 61 598 259 90 599 257 67 600 263 36 601 260 14 602 262 36 603 260 67 604 263 89 605 261 39 606 264 67 607 263 14 608 262 67 609 263 39 610 264 92 611 265 50 612 216 48 613 218 101 614 219 50 615 216 101 616 219 103 617 217 105 618 221 48 619 218 52 620 220 105 621 221 101 622 219 48 623 218</p>
        </triangles>
      </mesh>
    </geometry>
    <geometry id="SM_Coral_Table_Acropora_04_LOD1-lib" name="SM_Coral_Table_Acropora_04_LOD1Mesh">
      <mesh>
        <source id="SM_Coral_Table_Acropora_04_LOD1-POSITION">
          <float_array id="SM_Coral_Table_Acropora_04_LOD1-POSITION-array" count="255">
-13.186058 -16.580017 8.440659
21.348896 27.537964 7.099583
37.016003 -2.809448 8.492886
-37.734806 11.446899 8.016944
-14.862052 32.546509 9.605837
19.323559 -26.294434 8.625855
-8.840850 -32.602356 6.958340
-1.979218 1.717407 0.000000
-1.969416 1.720154 0.199740
-25.352425 -15.485962 8.625854
33.532673 -11.348206 7.512896
-37.294182 -0.659302 8.018687
0.784546 -28.970459 6.957253
36.048092 11.713135 7.954337
-15.607242 -22.126587 8.625854
18.010170 -20.874084 8.625854
0.894037 32.493713 9.577519
23.460781 22.801147 7.349458
-13.218326 -29.689392 8.625855
-23.007467 29.694885 9.605841
-26.005444 -13.312134 9.410541
15.812767 -4.880310 4.701241
15.059807 31.123474 8.346446
15.778362 -4.855591 4.896702
-34.092735 19.119019 8.017477
7.484428 -30.735352 7.152797
-34.546421 -7.052185 9.414758
-4.102192 -32.483093 7.152797
5.991144 16.257507 3.054970
30.137978 18.672668 8.218223
-30.372194 -12.003113 9.415055
34.071449 -6.797668 7.512896
-18.567099 -15.220215 8.625854
-8.057743 31.140747 9.415650
37.693443 4.226318 8.492885
5.992844 16.209595 3.249145
16.416336 -28.791199 8.430045
-5.442123 -15.472473 3.725497
-19.617622 0.498901 4.896701
-18.022966 10.345581 4.896703
-7.545425 -7.449585 4.896705
19.263760 -23.013489 8.425855
-13.301675 -18.651123 8.446551
-5.388685 -15.448425 3.916713
-18.056583 10.371033 4.701197
-19.660027 0.480774 4.702089
17.072556 6.704468 3.312721
17.034691 6.701660 3.509084
26.712025 -15.865173 7.316428
8.017792 -9.610046 3.916713
-23.925262 -16.076965 8.436910
-14.013036 -5.868286 4.707469
8.057831 -9.642273 3.723434
-7.614216 -7.494202 4.714284
-13.980126 -5.812500 4.896702
17.558067 -0.614197 4.701593
17.519501 -0.593079 4.896701
-14.993954 -25.100220 8.425855
-8.434404 17.114624 4.704319
2.755583 -14.532288 3.916713
-8.421204 17.061584 4.896703
15.125397 31.312439 8.769295
2.774277 -14.570862 3.721357
10.772133 12.221863 3.313646
10.740486 12.193542 3.509083
15.125397 31.312439 8.346446
-0.563854 17.094788 4.707261
18.050343 -20.897339 8.431319
-0.543278 17.034058 4.896703
16.380096 -28.772644 8.625855
-18.594791 -15.266907 8.433364
-13.213087 -18.652710 8.625854
-25.985470 -13.273926 9.605843
0.882172 32.555969 9.387842
-3.032719 -15.445618 3.721155
-8.061075 31.078979 9.605841
37.734806 4.218933 8.297348
0.775221 -28.929565 7.152797
-37.700645 11.439575 8.213869
-4.091845 -32.520935 6.956676
21.330040 27.497437 7.294526
-23.027124 29.740479 9.412099
34.104668 -6.789795 7.315832
30.174446 18.705811 8.024390
-34.509529 -7.006042 9.605844
</float_array>
          <technique_common>
            <accessor source="#SM_Coral_Table_Acropora_04_LOD1-POSITION-array" count="85" stride="3">
              <param name="X" type="float"/>
              <param name="Y" type="float"/>
              <param name="Z" type="float"/>
            </accessor>
          </technique_common>
        </source>
        <source id="SM_Coral_Table_Acropora_04_LOD1-Normal0">
          <float_array id="SM_Coral_Table_Acropora_04_LOD1-Normal0-array" count="1494">
0.093921 -0.194180 -0.976459
-0.048941 -0.013698 -0.998708
0.200063 -0.161061 -0.966454
-0.089906 0.193154 0.977041
-0.029134 -0.997321 -0.067090
-0.181207 0.092828 0.979054
0.210294 0.090544 0.973436
0.163755 0.278489 0.946377
0.049010 0.014050 0.998699
-0.048941 -0.013698 -0.998708
-0.163992 -0.278878 -0.946221
-0.211923 -0.090535 -0.973084
0.186917 0.166452 -0.968171
0.671788 0.740743 -0.001076
0.190506 0.014493 -0.981579
0.166388 -0.125970 0.977981
0.049010 0.014050 0.998699
0.066007 -0.265251 0.961917
0.200063 -0.161061 -0.966454
-0.048941 -0.013698 -0.998708
0.172905 -0.123959 -0.977107
-0.200196 0.161259 0.966394
-0.178824 0.121830 0.976309
-0.170631 0.122021 0.977751
-0.526832 -0.800430 0.285937
-0.446223 0.001795 -0.894920
-0.269570 -0.121683 -0.955262
0.246568 0.129230 0.960471
0.342728 0.219680 0.913388
-0.055568 0.830749 0.553867
-0.062410 0.319219 -0.945624
0.030766 0.289391 -0.956716
-0.022668 0.255174 -0.966629
-0.091314 0.235523 -0.967569
-0.066503 0.266450 -0.961552
-0.167985 0.127141 -0.977556
-0.136803 -0.170332 0.975844
-0.189325 -0.014175 0.981812
-0.182365 -0.165742 0.969161
0.023427 -0.258137 0.965824
0.232851 0.604139 0.762100
0.059325 -0.311516 0.948387
0.342728 0.219680 0.913388
0.163755 0.278489 0.946377
0.142877 0.216089 0.965863
-0.342373 -0.223103 -0.912692
-0.163992 -0.278878 -0.946221
-0.048941 -0.013698 -0.998708
0.211146 -0.037832 -0.976722
0.193552 -0.105377 -0.975414
0.190506 0.014493 -0.981579
-0.170631 0.122021 0.977751
-0.178824 0.121830 0.976309
0.929412 -0.368836 0.012422
-0.167985 0.127141 -0.977556
-0.048941 -0.013698 -0.998708
-0.211923 -0.090535 -0.973084
0.210294 0.090544 0.973436
0.049010 0.014050 0.998699
0.166388 -0.125970 0.977981
0.058692 -0.206095 -0.976770
0.051194 -0.188787 -0.980683
0.022427 -0.207963 -0.977880
-0.089906 0.193154 0.977041
0.246568 0.129230 0.960471
-0.035936 0.198039 0.979535
-0.189325 -0.014175 0.981812
0.049010 0.014050 0.998699
-0.192827 0.105511 0.975544
0.671788 0.740743 -0.001076
0.211146 -0.037832 -0.976722
0.190506 0.014493 -0.981579
0.431551 0.018242 0.901904
-0.936527 -0.339664 -0.086863
-0.526832 -0.800430 0.285937
-0.526832 -0.800430 0.285937
-0.936527 -0.339664 -0.086863
-0.446223 0.001795 -0.894920
0.172905 -0.123959 -0.977107
0.201485 -0.122210 -0.971838
0.200063 -0.161061 -0.966454
-0.200196 0.161259 0.966394
-0.181207 0.092828 0.979054
-0.178824 0.121830 0.976309
0.001991 0.309211 -0.950991
-0.062410 0.319219 -0.945624
-0.102610 0.303369 -0.947332
0.102886 -0.303655 0.947211
0.059325 -0.311516 0.948387
-0.016655 -0.308886 0.950953
-0.136803 -0.170332 0.975844
0.881677 0.259453 0.394119
-0.120751 -0.168038 0.978357
0.151621 0.168827 -0.973914
0.881677 0.259453 0.394119
0.139317 0.168604 -0.975788
0.246568 0.129230 0.960471
0.431551 0.018242 0.901904
-0.526832 -0.800430 0.285937
-0.966311 -0.256363 -0.022829
-0.526832 -0.800430 0.285937
-0.269570 -0.121683 -0.955262
0.166388 -0.125970 0.977981
0.066007 -0.265251 0.961917
0.092694 -0.229403 0.968908
-0.091314 0.235523 -0.967569
0.005243 0.990763 0.135502
-0.066503 0.266450 -0.961552
-0.309588 -0.864951 -0.394988
-0.115582 -0.200753 -0.972799
-0.138024 -0.235213 -0.962094
0.142877 0.216089 0.965863
0.091846 0.206867 0.974048
-0.309588 -0.864951 -0.394988
0.886370 -0.220384 0.407161
0.171295 0.040933 -0.984369
0.193552 -0.105377 -0.975414
0.929412 -0.368836 0.012422
0.201485 -0.122210 -0.971838
0.172905 -0.123959 -0.977107
0.232851 0.604139 0.762100
0.023427 -0.258137 0.965824
-0.120751 -0.168038 0.978357
-0.136803 -0.170332 0.975844
-0.120751 -0.168038 0.978357
0.023427 -0.258137 0.965824
0.151621 0.168827 -0.973914
-0.022668 0.255174 -0.966629
0.030766 0.289391 -0.956716
-0.022668 0.255174 -0.966629
0.151621 0.168827 -0.973914
0.139317 0.168604 -0.975788
-0.189325 -0.014175 0.981812
-0.192827 0.105511 0.975544
-0.206823 0.036944 0.977681
-0.192827 0.105511 0.975544
-0.166092 -0.039453 0.985321
0.886370 -0.220384 0.407161
0.166388 -0.125970 0.977981
0.092694 -0.229403 0.968908
-0.433794 0.900951 0.010527
-0.170803 0.036463 -0.984630
-0.167985 0.127141 -0.977556
-0.211923 -0.090535 -0.973084
0.058692 -0.206095 -0.976770
0.022427 -0.207963 -0.977880
0.093921 -0.194180 -0.976459
-0.089906 0.193154 0.977041
-0.035936 0.198039 0.979535
-0.029134 -0.997321 -0.067090
0.210294 0.090544 0.973436
0.167765 -0.031505 0.985324
-0.970800 0.124406 -0.205110
-0.184459 -0.230252 -0.955489
-0.211923 -0.090535 -0.973084
-0.163992 -0.278878 -0.946221
0.246568 0.129230 0.960471
-0.078587 0.180324 0.980463
-0.035936 0.198039 0.979535
0.051194 -0.188787 -0.980683
-0.966311 -0.256363 -0.022829
-0.269570 -0.121683 -0.955262
0.186917 0.166452 -0.968171
0.190506 0.014493 -0.981579
0.139317 0.168604 -0.975788
-0.062410 0.319219 -0.945624
-0.022668 0.255174 -0.966629
-0.102610 0.303369 -0.947332
0.881677 0.259453 0.394119
0.186917 0.166452 -0.968171
0.139317 0.168604 -0.975788
-0.136803 -0.170332 0.975844
-0.182365 -0.165742 0.969161
0.881677 0.259453 0.394119
-0.115582 -0.200753 -0.972799
-0.163992 -0.278878 -0.946221
-0.138024 -0.235213 -0.962094
0.163755 0.278489 0.946377
0.178866 0.230724 0.956438
-0.364965 -0.924425 0.110632
0.171295 0.040933 -0.984369
0.007833 -0.999712 0.022684
0.172905 -0.123959 -0.977107
-0.170631 0.122021 0.977751
0.007833 -0.999712 0.022684
-0.166092 -0.039453 0.985321
-0.138024 -0.235213 -0.962094
-0.163992 -0.278878 -0.946221
-0.342373 -0.223103 -0.912692
0.342728 0.219680 0.913388
0.142877 0.216089 0.965863
-0.055568 0.830749 0.553867
0.066007 -0.265251 0.961917
0.102886 -0.303655 0.947211
-0.016655 -0.308886 0.950953
0.005243 0.990763 0.135502
0.001991 0.309211 -0.950991
-0.066503 0.266450 -0.961552
0.211146 -0.037832 -0.976722
0.886370 -0.220384 0.407161
0.193552 -0.105377 -0.975414
-0.192827 0.105511 0.975544
0.886370 -0.220384 0.407161
-0.206823 0.036944 0.977681
-0.136803 -0.170332 0.975844
0.049010 0.014050 0.998699
-0.189325 -0.014175 0.981812
0.102886 -0.303655 0.947211
0.023427 -0.258137 0.965824
0.059325 -0.311516 0.948387
-0.178824 0.121830 0.976309
-0.181207 0.092828 0.979054
0.986794 -0.161962 0.002590
0.986794 -0.161962 0.002590
0.194589 -0.103847 -0.975372
0.201485 -0.122210 -0.971838
0.022427 -0.207963 -0.977880
-0.048941 -0.013698 -0.998708
0.093921 -0.194180 -0.976459
-0.342373 -0.223103 -0.912692
-0.048941 -0.013698 -0.998708
-0.269570 -0.121683 -0.955262
0.210294 0.090544 0.973436
-0.970800 0.124406 -0.205110
0.178866 0.230724 0.956438
0.163755 0.278489 0.946377
0.210294 0.090544 0.973436
0.178866 0.230724 0.956438
0.166388 -0.125970 0.977981
-0.433794 0.900951 0.010527
0.167765 -0.031505 0.985324
0.210294 0.090544 0.973436
0.166388 -0.125970 0.977981
0.167765 -0.031505 0.985324
0.246568 0.129230 0.960471
0.049010 0.014050 0.998699
0.342728 0.219680 0.913388
0.049010 0.014050 0.998699
0.163755 0.278489 0.946377
0.342728 0.219680 0.913388
0.968540 0.002484 -0.248845
0.986794 -0.161962 0.002590
0.201485 -0.122210 -0.971838
-0.178824 0.121830 0.976309
0.986794 -0.161962 0.002590
0.968540 0.002484 -0.248845
0.246568 0.129230 0.960471
-0.055568 0.830749 0.553867
0.431551 0.018242 0.901904
-0.446223 0.001795 -0.894920
-0.055568 0.830749 0.553867
-0.269570 -0.121683 -0.955262
0.246568 0.129230 0.960471
-0.526832 -0.800430 0.285937
-0.966311 -0.256363 -0.022829
0.246568 0.129230 0.960471
-0.966311 -0.256363 -0.022829
-0.078587 0.180324 0.980463
-0.433794 0.900951 0.010527
-0.091314 0.235523 -0.967569
-0.167985 0.127141 -0.977556
-0.170803 0.036463 -0.984630
-0.433794 0.900951 0.010527
-0.167985 0.127141 -0.977556
-0.970800 0.124406 -0.205110
-0.170803 0.036463 -0.984630
-0.211923 -0.090535 -0.973084
-0.184459 -0.230252 -0.955489
-0.970800 0.124406 -0.205110
-0.211923 -0.090535 -0.973084
0.190506 0.014493 -0.981579
-0.048941 -0.013698 -0.998708
0.139317 0.168604 -0.975788
0.193552 -0.105377 -0.975414
-0.048941 -0.013698 -0.998708
0.190506 0.014493 -0.981579
-0.189325 -0.014175 0.981812
-0.206823 0.036944 0.977681
0.671788 0.740743 -0.001076
-0.189325 -0.014175 0.981812
0.671788 0.740743 -0.001076
-0.182365 -0.165742 0.969161
-0.170631 0.122021 0.977751
0.929412 -0.368836 0.012422
0.007833 -0.999712 0.022684
0.007833 -0.999712 0.022684
0.929412 -0.368836 0.012422
0.172905 -0.123959 -0.977107
-0.200196 0.161259 0.966394
-0.089906 0.193154 0.977041
-0.181207 0.092828 0.979054
-0.170631 0.122021 0.977751
0.049010 0.014050 0.998699
-0.200196 0.161259 0.966394
-0.309588 -0.864951 -0.394988
0.091846 0.206867 0.974048
-0.390607 -0.794706 -0.464616
-0.390607 -0.794706 -0.464616
-0.115582 -0.200753 -0.972799
-0.309588 -0.864951 -0.394988
-0.364965 -0.924425 0.110632
-0.184459 -0.230252 -0.955489
-0.163992 -0.278878 -0.946221
-0.115582 -0.200753 -0.972799
-0.364965 -0.924425 0.110632
-0.163992 -0.278878 -0.946221
0.194589 -0.103847 -0.975372
0.093921 -0.194180 -0.976459
0.200063 -0.161061 -0.966454
0.201485 -0.122210 -0.971838
0.194589 -0.103847 -0.975372
0.200063 -0.161061 -0.966454
-0.055568 0.830749 0.553867
-0.138024 -0.235213 -0.962094
-0.342373 -0.223103 -0.912692
-0.055568 0.830749 0.553867
-0.342373 -0.223103 -0.912692
-0.269570 -0.121683 -0.955262
0.163755 0.278489 0.946377
-0.364965 -0.924425 0.110632
0.091846 0.206867 0.974048
0.142877 0.216089 0.965863
0.163755 0.278489 0.946377
0.091846 0.206867 0.974048
0.172905 -0.123959 -0.977107
-0.048941 -0.013698 -0.998708
0.193552 -0.105377 -0.975414
0.171295 0.040933 -0.984369
0.172905 -0.123959 -0.977107
0.193552 -0.105377 -0.975414
-0.192827 0.105511 0.975544
0.049010 0.014050 0.998699
-0.170631 0.122021 0.977751
-0.192827 0.105511 0.975544
-0.170631 0.122021 0.977751
-0.166092 -0.039453 0.985321
-0.936527 -0.339664 -0.086863
0.431551 0.018242 0.901904
-0.979282 -0.202399 0.006400
-0.979282 -0.202399 0.006400
-0.446223 0.001795 -0.894920
-0.936527 -0.339664 -0.086863
0.001991 0.309211 -0.950991
-0.102610 0.303369 -0.947332
-0.066503 0.266450 -0.961552
-0.066503 0.266450 -0.961552
-0.048941 -0.013698 -0.998708
-0.167985 0.127141 -0.977556
-0.200196 0.161259 0.966394
0.049010 0.014050 0.998699
-0.089906 0.193154 0.977041
-0.089906 0.193154 0.977041
0.049010 0.014050 0.998699
0.246568 0.129230 0.960471
0.066007 -0.265251 0.961917
-0.016655 -0.308886 0.950953
0.005243 0.990763 0.135502
0.066007 -0.265251 0.961917
0.005243 0.990763 0.135502
0.092694 -0.229403 0.968908
0.232851 0.604139 0.762100
-0.120751 -0.168038 0.978357
0.327972 0.944687 0.000000
0.059325 -0.311516 0.948387
0.232851 0.604139 0.762100
0.327972 0.944687 0.000000
-0.029134 -0.997321 -0.067090
0.058692 -0.206095 -0.976770
0.093921 -0.194180 -0.976459
0.194589 -0.103847 -0.975372
-0.029134 -0.997321 -0.067090
0.093921 -0.194180 -0.976459
0.139317 0.168604 -0.975788
-0.048941 -0.013698 -0.998708
-0.022668 0.255174 -0.966629
0.023427 -0.258137 0.965824
0.049010 0.014050 0.998699
-0.136803 -0.170332 0.975844
0.174954 0.780414 -0.600287
0.709523 0.656105 -0.257106
0.699523 0.661379 -0.270640
0.699523 0.661379 -0.270640
0.171026 0.781907 -0.599476
0.174954 0.780414 -0.600287
-0.065020 0.987480 -0.143721
0.174954 0.780414 -0.600287
0.171026 0.781907 -0.599476
-0.065020 0.987480 -0.143721
0.171026 0.781907 -0.599476
-0.066236 0.988248 -0.137760
-0.102610 0.303369 -0.947332
-0.048941 -0.013698 -0.998708
-0.066503 0.266450 -0.961552
-0.022668 0.255174 -0.966629
-0.048941 -0.013698 -0.998708
-0.102610 0.303369 -0.947332
0.861482 0.493674 0.118888
0.944653 -0.239926 0.223757
0.942212 -0.248832 0.224317
0.511267 -0.834531 0.205338
0.942212 -0.248832 0.224317
0.944653 -0.239926 0.223757
0.066007 -0.265251 0.961917
0.049010 0.014050 0.998699
0.102886 -0.303655 0.947211
0.102886 -0.303655 0.947211
0.049010 0.014050 0.998699
0.023427 -0.258137 0.965824
-0.063991 -0.984149 0.165394
0.429675 -0.888027 0.163670
0.420521 -0.892628 0.162412
0.632544 -0.751296 0.188260
0.420521 -0.892628 0.162412
0.429675 -0.888027 0.163670
-0.846304 -0.257937 0.466088
-0.057587 -0.968276 0.243158
-0.026394 -0.970603 0.239235
0.146928 -0.965906 0.213160
-0.026394 -0.970603 0.239235
-0.057587 -0.968276 0.243158
-0.846304 -0.257937 0.466088
-0.850391 0.313007 0.422920
-0.858934 0.282860 0.426875
-0.761355 0.524716 0.380804
-0.858934 0.282860 0.426875
-0.850391 0.313007 0.422920
-0.485483 -0.836538 0.253987
-0.715813 -0.667870 0.203866
-0.602999 -0.769025 0.212118
-0.927775 -0.336734 0.160762
-0.602999 -0.769025 0.212118
-0.715813 -0.667870 0.203866
-0.066236 0.988248 -0.137760
0.028146 0.949455 0.312639
-0.065020 0.987480 -0.143721
0.028146 0.949455 0.312639
-0.066236 0.988248 -0.137760
0.024440 0.949543 0.312683
-0.269570 -0.121683 -0.955262
-0.048941 -0.013698 -0.998708
0.022427 -0.207963 -0.977880
0.051194 -0.188787 -0.980683
-0.269570 -0.121683 -0.955262
0.022427 -0.207963 -0.977880
-0.032795 0.956504 0.289869
0.028146 0.949455 0.312639
0.024440 0.949543 0.312683
0.899275 -0.408379 0.156621
0.976802 0.064534 0.204190
0.976640 0.067377 0.204048
0.881212 0.416585 0.223432
0.976640 0.067377 0.204048
0.976802 0.064534 0.204190
0.180614 -0.961537 0.206943
0.317215 -0.927386 0.198316
0.309450 -0.930001 0.198342
0.180614 -0.961537 0.206943
0.309450 -0.930001 0.198342
0.180053 -0.961642 0.206941
-0.063991 -0.984149 0.165394
0.180614 -0.961537 0.206943
0.180053 -0.961642 0.206941
-0.829514 0.523507 0.194541
-0.964282 0.199116 0.174680
-0.964475 0.198182 0.174678
-0.947295 -0.226451 0.226608
-0.964475 0.198182 0.174678
-0.964282 0.199116 0.174680
0.016896 -0.981583 0.190288
0.309450 -0.930001 0.198342
0.317215 -0.927386 0.198316
0.767012 0.607591 0.206217
0.699523 0.661379 -0.270640
0.709523 0.656105 -0.257106
-0.032795 0.956504 0.289869
-0.519220 0.818670 0.245338
-0.514789 0.821405 0.245532
-0.829514 0.523507 0.194541
-0.514789 0.821405 0.245532
-0.519220 0.818670 0.245338
0.980175 -0.116051 0.160588
0.916384 -0.375213 0.139481
0.916223 -0.375623 0.139437
0.899275 -0.408379 0.156621
0.916223 -0.375623 0.139437
0.916384 -0.375213 0.139481
0.881212 0.416585 0.223432
0.624244 0.742041 0.244325
0.625707 0.740787 0.244386
0.767012 0.607591 0.206217
0.625707 0.740787 0.244386
0.624244 0.742041 0.244325
-0.947295 -0.226451 0.226608
-0.830959 -0.482505 0.276942
-0.831377 -0.481830 0.276859
-0.485483 -0.836538 0.253987
-0.831377 -0.481830 0.276859
-0.830959 -0.482505 0.276942
</float_array>
          <technique_common>
            <accessor source="#SM_Coral_Table_Acropora_04_LOD1-Normal0-array" count="498" stride="3">
              <param name="X" type="float"/>
              <param name="Y" type="float"/>
              <param name="Z" type="float"/>
            </accessor>
          </technique_common>
        </source>
        <source id="SM_Coral_Table_Acropora_04_LOD1-UV0">
          <float_array id="SM_Coral_Table_Acropora_04_LOD1-UV0-array" count="502">
0.481445 0.056152
0.580078 0.182617
0.625000 0.095703
0.410889 0.136719
0.580078 0.182617
0.625000 0.095703
0.476563 0.196777
0.574219 0.028320
0.493896 0.010254
0.481445 0.056152
0.493896 0.010254
0.476563 0.196777
0.513184 0.108887
0.513184 0.108887
0.513184 0.108887
0.513184 0.108887
0.513184 0.108887
0.513184 0.108887
0.513184 0.108887
0.513184 0.108887
0.513184 0.108887
0.446533 0.059570
0.481445 0.056152
0.615234 0.071289
0.513184 0.108887
0.412354 0.102051
0.521484 0.020996
0.521484 0.020996
0.521484 0.020996
0.622559 0.137695
0.622559 0.137695
0.474365 0.040527
0.570801 0.043945
0.570801 0.043945
0.570801 0.043945
0.521484 0.196777
0.521484 0.196777
0.586426 0.168945
0.586426 0.168945
0.481201 0.018555
0.481201 0.018555
0.481201 0.018555
0.453125 0.188965
0.453125 0.188965
0.444580 0.065918
0.444580 0.065918
0.615234 0.071289
0.564453 0.090332
0.564453 0.090332
0.564453 0.090332
0.564453 0.090332
0.562500 0.193359
0.453125 0.188965
0.421387 0.158203
0.421387 0.158203
0.540527 0.015625
0.540527 0.015625
0.420166 0.083496
0.410889 0.136719
0.412354 0.102051
0.507324 0.010742
0.507324 0.010742
0.538086 0.151367
0.521484 0.196777
0.538086 0.151367
0.538086 0.151367
0.538086 0.151367
0.605469 0.157227
0.605469 0.157227
0.605469 0.157227
0.432129 0.069336
0.420166 0.083496
0.432129 0.069336
0.616699 0.084473
0.564453 0.090332
0.616699 0.084473
0.465820 0.060059
0.465820 0.060059
0.465820 0.060059
0.465820 0.060059
0.496094 0.192871
0.496094 0.192871
0.496094 0.192871
0.626953 0.115723
0.626953 0.115723
0.626953 0.115723
0.513184 0.108887
0.570801 0.043945
0.565918 0.021484
0.565918 0.021484
0.565918 0.021484
0.503418 0.059570
0.503418 0.059570
0.503418 0.059570
0.503418 0.059570
0.503418 0.059570
0.462891 0.105469
0.420166 0.083496
0.462891 0.105469
0.462891 0.105469
0.462891 0.105469
0.462891 0.105469
0.467529 0.133789
0.410889 0.136719
0.462891 0.105469
0.467529 0.133789
0.467529 0.133789
0.467529 0.133789
0.467529 0.133789
0.467529 0.133789
0.497559 0.082520
0.497559 0.082520
0.497559 0.082520
0.497559 0.082520
0.497559 0.082520
0.574219 0.038086
0.574219 0.028320
0.570801 0.043945
0.481201 0.050293
0.503418 0.059570
0.481201 0.050293
0.481201 0.050293
0.503418 0.059570
0.567871 0.123047
0.567871 0.123047
0.567871 0.123047
0.567871 0.123047
0.567871 0.123047
0.567871 0.123047
0.564453 0.090332
0.595703 0.058594
0.595703 0.058594
0.541992 0.076660
0.565918 0.021484
0.541992 0.076660
0.541992 0.076660
0.541992 0.076660
0.450439 0.057617
0.444580 0.065918
0.450439 0.057617
0.479004 0.087402
0.444580 0.065918
0.479004 0.087402
0.479004 0.087402
0.479004 0.087402
0.479004 0.087402
0.479004 0.087402
0.479004 0.087402
0.541992 0.076660
0.564453 0.090332
0.513184 0.108887
0.569336 0.102539
0.616699 0.084473
0.569336 0.102539
0.569336 0.102539
0.569336 0.102539
0.569336 0.102539
0.569336 0.102539
0.476074 0.031738
0.481201 0.050293
0.476074 0.031738
0.495117 0.152832
0.495117 0.152832
0.495117 0.152832
0.495117 0.152832
0.495117 0.152832
0.526855 0.062500
0.526855 0.062500
0.526855 0.062500
0.526855 0.062500
0.526855 0.062500
0.526855 0.062500
0.562500 0.193359
0.521484 0.196777
0.562500 0.193359
0.549805 0.139160
0.549805 0.139160
0.513184 0.108887
0.549805 0.139160
0.549805 0.139160
0.549805 0.139160
0.549805 0.139160
0.192749 0.050000
0.167247 0.050000
0.167247 0.000000
0.147372 0.000000
0.517578 0.152832
0.513184 0.108887
0.495117 0.152832
0.538086 0.151367
0.517578 0.152832
0.517578 0.152832
0.517578 0.152832
0.517578 0.152832
0.449553 0.050000
0.419683 0.050000
0.419683 0.000000
0.398328 0.050000
0.554004 0.000000
0.520627 0.050000
0.520627 0.000000
0.482027 0.000000
0.872463 0.050000
0.923516 0.000000
0.923516 0.050000
0.953431 0.050000
0.836670 0.050000
0.836670 0.000000
0.771653 0.000000
0.010568 0.050000
0.000000 0.050000
0.000000 0.000000
0.980795 0.000000
1.000000 0.000000
1.000000 0.050000
0.147372 0.050000
0.124239 0.050000
0.503418 0.059570
0.513184 0.108887
0.510254 0.060059
0.507324 0.010742
0.510254 0.060059
0.510254 0.060059
0.510254 0.060059
0.510254 0.060059
0.124239 0.000000
0.103444 0.000000
0.301713 0.000000
0.291234 0.050000
0.291234 0.000000
0.277367 0.000000
0.606898 0.000000
0.575799 0.050000
0.575799 0.000000
0.072785 0.050000
0.063895 0.050000
0.063895 0.000000
0.040183 0.050000
0.667469 0.050000
0.606898 0.050000
0.192749 0.000000
0.222110 0.000000
0.090614 0.050000
0.090614 0.000000
0.378964 0.000000
0.344437 0.050000
0.344437 0.000000
0.261106 0.050000
0.261106 0.000000
0.017201 0.050000
0.017201 0.000000
</float_array>
          <technique_common>
            <accessor source="#SM_Coral_Table_Acropora_04_LOD1-UV0-array" count="251" stride="2">
              <param name="S" type="float"/>
              <param name="T" type="float"/>
            </accessor>
          </technique_common>
        </source>
        <vertices id="SM_Coral_Table_Acropora_04_LOD1-VERTEX">
          <input semantic="POSITION" source="#SM_Coral_Table_Acropora_04_LOD1-POSITION"/>
        </vertices>
        <triangles count="166" material="MAT_Coral_Table">
          <input semantic="VERTEX" offset="0" source="#SM_Coral_Table_Acropora_04_LOD1-VERTEX"/>
          <input semantic="NORMAL" offset="1" source="#SM_Coral_Table_Acropora_04_LOD1-Normal0"/>
          <input semantic="TEXCOORD" offset="2" set="0" source="#SM_Coral_Table_Acropora_04_LOD1-UV0"/>
          <p> 62 0 166 7 1 14 52 2 148 59 3 170 25 4 55 69 5 89 38 6 100 54 7 146 8 8 17 7 9 17 51 10 146 45 11 100 83 12 68 13 13 29 46 14 126 39 15 106 8 16 13 60 17 162 52 18 134 7 19 15 21 20 50 49 21 135 15 22 32 23 23 49 18 24 39 42 25 120 37 26 94 43 27 122 40 28 112 0 29 0 73 30 36 22 31 51 28 32 65 81 33 42 58 34 163 44 35 108 64 36 181 47 37 125 29 38 69 35 39 65 61 40 172 16 41 36 40 42 113 54 43 145 32 44 76 53 45 111 51 46 144 7 47 19 76 48 84 55 49 154 46 50 127 23 51 48 15 52 34 48 53 131 44 54 107 7 55 24 45 56 99 38 57 99 8 58 24 39 59 107 12 60 26 79 61 60 74 62 223 59 63 169 43 64 91 77 65 27 47 66 124 8 67 18 56 68 156 13 69 30 76 70 85 46 71 128 71 72 121 57 73 160 18 74 41 18 75 41 57 76 160 42 77 121 21 78 49 67 79 32 52 80 135 49 81 136 69 82 90 15 83 33 33 84 82 73 85 35 66 86 192 68 87 192 16 88 35 75 89 82 64 90 178 17 91 37 80 92 4 1 93 4 17 94 37 63 95 178 43 96 94 71 97 120 18 98 39 6 99 8 18 100 40 37 101 95 39 102 108 60 103 163 19 104 42 81 105 43 4 106 6 58 107 164 50 108 139 20 109 44 70 110 78 32 111 78 72 112 44 50 113 139 2 114 2 82 115 75 55 116 157 48 117 131 67 118 34 21 119 48 61 120 174 35 121 66 80 122 1 64 123 175 80 124 1 35 125 66 1 126 1 28 127 66 22 128 51 28 129 66 1 130 1 63 131 175 47 132 127 56 133 154 34 134 84 56 135 157 31 136 75 2 137 2 39 138 109 19 139 52 24 140 53 3 141 3 44 142 105 45 143 104 12 144 27 74 145 222 62 146 169 59 147 171 77 148 28 25 149 56 38 150 101 78 151 58 11 152 59 26 153 57 45 154 98 51 155 147 43 156 91 27 157 60 77 158 26 79 159 61 6 160 10 37 161 93 83 162 69 46 163 125 63 164 181 73 165 63 28 166 64 66 167 193 17 168 38 83 169 67 63 170 179 64 171 179 29 172 67 17 173 38 20 174 45 51 175 143 70 176 79 54 177 140 84 178 71 30 179 72 82 180 73 10 181 46 21 182 74 23 183 74 10 184 46 31 185 73 70 186 76 51 187 145 53 188 113 40 189 114 32 190 77 0 191 22 60 192 161 68 193 191 75 194 80 4 195 11 33 196 81 58 197 165 76 198 83 2 199 5 55 200 155 56 201 155 2 202 5 34 203 83 64 204 180 8 205 86 47 206 123 68 207 193 35 208 64 16 209 63 15 210 87 69 211 88 5 212 7 5 213 7 36 214 88 67 215 87 74 216 224 7 217 20 62 218 167 53 219 110 7 220 16 37 221 92 38 222 96 11 223 25 84 224 97 54 225 147 38 226 98 84 227 57 39 228 102 24 229 54 78 230 103 38 231 104 39 232 105 78 233 3 43 234 92 8 235 16 40 236 110 8 237 19 54 238 144 40 239 111 41 240 115 5 241 116 67 242 117 15 243 117 5 244 116 41 245 115 43 246 119 0 247 9 71 248 118 42 249 118 0 250 9 37 251 119 43 252 95 18 253 40 6 254 8 43 255 93 6 256 10 27 257 61 24 258 53 81 259 52 44 260 109 3 261 103 24 262 54 44 263 102 11 264 59 3 265 58 45 266 101 26 267 97 11 268 25 45 269 96 46 270 123 7 271 86 63 272 180 55 273 156 7 274 18 46 275 124 47 276 128 34 277 85 13 278 30 47 279 126 13 280 29 29 281 68 23 282 129 48 283 130 10 284 23 10 285 23 48 286 130 21 287 129 49 288 132 59 289 168 69 290 133 23 291 50 8 292 15 49 293 134 50 294 137 72 295 138 9 296 21 9 297 21 20 298 138 50 299 137 30 300 72 26 301 71 51 302 140 20 303 141 30 304 70 51 305 142 36 306 133 62 307 168 52 308 132 67 309 33 36 310 90 52 311 136 0 312 22 70 313 77 53 314 114 0 315 0 53 316 112 37 317 122 54 318 142 30 319 70 72 320 141 32 321 79 54 322 143 72 323 45 21 324 149 7 325 150 55 326 151 82 327 152 21 328 47 55 329 153 56 330 151 8 331 150 23 332 149 56 333 153 23 334 47 31 335 152 57 336 158 71 337 159 14 338 31 14 339 31 42 340 159 57 341 158 33 342 80 66 343 191 58 344 161 58 345 162 7 346 13 44 347 106 49 348 148 8 349 14 59 350 166 59 351 167 8 352 20 43 353 91 60 354 165 75 355 81 4 356 11 60 357 164 4 358 6 19 359 43 61 360 172 80 361 1 65 362 51 16 363 173 61 364 172 65 365 51 25 366 56 12 367 28 62 368 171 36 369 89 25 370 55 62 371 170 63 372 176 7 373 177 28 374 62 35 375 62 8 376 177 64 377 176 65 378 184 80 379 240 1 380 182 1 381 182 22 382 183 65 383 184 16 384 185 65 385 184 22 386 183 16 387 185 22 388 183 73 389 215 66 390 186 7 391 187 58 392 188 28 393 189 7 394 12 66 395 190 41 396 194 67 397 195 15 398 196 48 399 197 15 400 196 67 401 195 60 402 188 8 403 187 68 404 186 68 405 190 8 406 12 35 407 189 25 408 198 36 409 199 69 410 200 5 411 201 69 412 200 36 413 199 0 414 202 32 415 203 70 416 204 50 417 205 70 418 204 32 419 203 0 420 202 42 421 206 71 422 207 14 423 208 71 424 207 42 425 206 30 426 209 20 427 210 72 428 211 9 429 212 72 430 213 20 431 214 73 432 215 75 433 225 16 434 185 75 435 225 73 436 215 33 437 216 37 438 217 7 439 218 74 440 219 79 441 220 37 442 91 74 443 221 4 444 226 75 445 225 33 446 216 2 447 227 76 448 228 34 449 229 13 450 230 34 451 229 76 452 228 77 453 233 27 454 231 79 455 239 77 456 233 79 457 239 12 458 232 25 459 198 77 460 233 12 461 232 24 462 234 3 463 235 78 464 236 11 465 237 78 466 236 3 467 235 6 468 238 79 469 239 27 470 231 17 471 241 1 472 182 80 473 240 4 474 226 81 475 242 19 476 243 24 477 234 19 478 243 81 479 242 10 480 244 82 481 245 31 482 246 2 483 227 31 484 246 82 485 245 13 486 230 83 487 247 29 488 248 17 489 241 29 490 248 83 491 247 11 492 237 26 493 249 84 494 250 30 495 209 84 496 250 26 497 249</p>
        </triangles>
      </mesh>
    </geometry>
    <geometry id="SM_Coral_Table_Acropora_04_LOD2-lib" name="SM_Coral_Table_Acropora_04_LOD2Mesh">
      <mesh>
        <source id="SM_Coral_Table_Acropora_04_LOD2-POSITION">
          <float_array id="SM_Coral_Table_Acropora_04_LOD2-POSITION-array" count="267">
-13.186058 -16.580017 8.440659
21.348896 27.537964 7.099583
37.016003 -2.809448 8.492886
-37.734806 11.446899 8.016944
-14.862052 32.546509 9.605837
19.323559 -26.294434 8.625855
-8.840850 -32.602356 6.958340
-1.979218 1.717407 0.000000
-1.969416 1.720154 0.199740
-25.352425 -15.485962 8.625854
33.532673 -11.348206 7.512896
-37.294182 -0.659302 8.018687
0.784546 -28.970459 6.957253
36.048092 11.713135 7.954337
-15.607242 -22.126587 8.625854
18.010170 -20.874084 8.625854
0.894037 32.493713 9.577519
23.460781 22.801147 7.349458
-13.218326 -29.689392 8.625855
-23.007467 29.694885 9.605841
-26.005444 -13.312134 9.410541
15.812767 -4.880310 4.701241
15.059807 31.123474 8.346446
15.778362 -4.855591 4.896702
-34.092735 19.119019 8.017477
7.484428 -30.735352 7.152797
-34.546421 -7.052185 9.414758
-4.102192 -32.483093 7.152797
5.991144 16.257507 3.054970
30.137978 18.672668 8.218223
-30.372194 -12.003113 9.415055
34.071449 -6.797668 7.512896
-18.567099 -15.220215 8.625854
-8.057743 31.140747 9.415650
37.693443 4.226318 8.492885
5.992844 16.209595 3.249145
16.416336 -28.791199 8.430045
-5.442123 -15.472473 3.725497
-19.617622 0.498901 4.896701
-18.022966 10.345581 4.896703
-7.545425 -7.449585 4.896705
19.263760 -23.013489 8.425855
-13.301675 -18.651123 8.446551
-5.388685 -15.448425 3.916713
-18.056583 10.371033 4.701197
-19.660027 0.480774 4.702089
17.072556 6.704468 3.312721
17.034691 6.701660 3.509084
26.712025 -15.865173 7.316428
8.017792 -9.610046 3.916713
-23.925262 -16.076965 8.436910
-14.013036 -5.868286 4.707469
8.057831 -9.642273 3.723434
-7.614216 -7.494202 4.714284
-13.980126 -5.812500 4.896702
17.558067 -0.614197 4.701593
17.519501 -0.593079 4.896701
-14.993954 -25.100220 8.425855
-13.218326 -29.689392 8.625855
-13.301675 -18.651123 8.446551
-13.301675 -18.651123 8.446551
-13.218326 -29.689392 8.625855
-18.567099 -15.220215 8.625854
-26.005444 -13.312134 9.410541
16.416336 -28.791199 8.430045
18.010170 -20.874084 8.625854
19.323559 -26.294434 8.625855
18.010170 -20.874084 8.625854
-23.925262 -16.076965 8.436910
-26.005444 -13.312134 9.410541
-26.005444 -13.312134 9.410541
-23.925262 -16.076965 8.436910
18.010170 -20.874084 8.625854
16.416336 -28.791199 8.430045
-26.005444 -13.312134 9.410541
-18.567099 -15.220215 8.625854
-14.993954 -25.100220 8.425855
-13.301675 -18.651123 8.446551
19.323559 -26.294434 8.625855
-25.352425 -15.485962 8.625854
-15.607242 -22.126587 8.625854
-26.005444 -13.312134 9.410541
-18.567099 -15.220215 8.625854
19.263760 -23.013489 8.425855
-5.388685 -15.448425 3.916713
-14.013036 -5.868286 4.707469
8.057831 -9.642273 3.723434
-13.980126 -5.812500 4.896702
-14.993954 -25.100220 8.425855
</float_array>
          <technique_common>
            <accessor source="#SM_Coral_Table_Acropora_04_LOD2-POSITION-array" count="89" stride="3">
              <param name="X" type="float"/>
              <param name="Y" type="float"/>
              <param name="Z" type="float"/>
            </accessor>
          </technique_common>
        </source>
        <source id="SM_Coral_Table_Acropora_04_LOD2-Normal0">
          <float_array id="SM_Coral_Table_Acropora_04_LOD2-Normal0-array" count="1008">
0.405404 -0.901358 0.152321
-0.049398 -0.012753 -0.998698
0.200041 -0.163367 -0.966072
0.050522 0.012761 0.998641
0.405404 -0.901358 0.152321
-0.219432 0.012790 0.975544
0.205913 0.088303 0.974578
0.159585 0.276816 0.947579
0.050522 0.012761 0.998641
-0.049398 -0.012753 -0.998698
-0.162273 -0.284182 -0.944938
-0.211923 -0.090535 -0.973084
0.651916 0.710106 0.265998
0.890665 0.421152 0.171308
0.197907 0.011339 -0.980155
0.162167 -0.131598 0.977949
0.050522 0.012761 0.998641
0.263202 0.941395 0.210951
0.200041 -0.163367 -0.966072
-0.049398 -0.012753 -0.998698
0.175360 -0.126716 -0.976316
-0.219874 0.145174 0.964666
-0.263882 0.038724 0.963777
-0.170631 0.122021 0.977751
-0.306709 -0.035002 -0.951159
-0.417268 -0.009768 -0.908731
-0.262009 -0.129702 -0.956310
0.220166 0.137880 0.965669
0.342728 0.219680 0.913388
-0.655822 -0.428468 0.621540
-0.195277 0.921336 0.336164
0.344405 0.889681 0.299754
-0.011414 0.248037 -0.968683
-0.729814 0.647448 0.219506
-0.049398 -0.012753 -0.998698
-0.176533 0.123788 -0.976480
0.008214 -0.241695 0.970317
-0.192922 -0.008163 0.981180
0.651916 0.710106 0.265998
0.008214 -0.241695 0.970317
0.344405 0.889681 0.299754
-0.195277 0.921336 0.336164
0.342728 0.219680 0.913388
0.159585 0.276816 0.947579
-0.211504 -0.933577 0.289308
-0.344922 -0.224258 -0.911448
-0.162273 -0.284182 -0.944938
-0.049398 -0.012753 -0.998698
0.975369 0.068478 0.209683
0.198230 -0.106464 -0.974356
0.197907 0.011339 -0.980155
-0.170631 0.122021 0.977751
-0.263882 0.038724 0.963777
0.525251 -0.841946 0.123444
-0.176533 0.123788 -0.976480
-0.049398 -0.012753 -0.998698
-0.211923 -0.090535 -0.973084
0.205913 0.088303 0.974578
0.050522 0.012761 0.998641
0.162167 -0.131598 0.977949
-0.216716 -0.941094 0.259570
0.281631 -0.941201 0.186614
-0.262009 -0.129702 -0.956310
0.050522 0.012761 0.998641
0.220166 0.137880 0.965669
-0.216716 -0.941094 0.259570
-0.192922 -0.008163 0.981180
0.050522 0.012761 0.998641
-0.192827 0.105511 0.975544
0.890665 0.421152 0.171308
0.975369 0.068478 0.209683
0.197907 0.011339 -0.980155
-0.071865 0.015657 0.997291
-0.071865 0.015657 0.997291
-0.071865 0.015657 0.997292
-0.306709 -0.035002 -0.951159
0.039716 -0.007215 -0.999185
-0.417268 -0.009768 -0.908731
0.175360 -0.126716 -0.976316
-0.263882 0.038724 0.963777
0.200041 -0.163367 -0.966072
-0.219874 0.145174 0.964666
-0.219432 0.012790 0.975544
-0.263882 0.038724 0.963777
0.053226 0.943700 0.326493
-0.195277 0.921336 0.336164
-0.049398 -0.012753 -0.998698
0.050522 0.012761 0.998641
-0.195277 0.921336 0.336164
0.053226 0.943700 0.326493
0.008214 -0.241695 0.970317
0.651486 0.724759 0.224254
0.757700 0.641137 0.121796
0.757700 0.641137 0.121796
0.651486 0.724759 0.224254
-0.011414 0.248037 -0.968683
0.491279 0.017855 0.870819
0.491279 0.017855 0.870819
0.491279 0.017855 0.870819
-0.242248 -0.967828 0.068000
-0.306709 -0.035002 -0.951159
-0.262009 -0.129702 -0.956310
0.162167 -0.131598 0.977949
0.263202 0.941395 0.210951
-0.729814 0.647448 0.219506
-0.729814 0.647448 0.219506
0.263202 0.941395 0.210951
-0.049398 -0.012753 -0.998698
-0.062378 0.998053 0.000000
-0.031235 0.999512 0.000000
-0.062378 0.998053 0.000000
-0.062378 0.998053 0.000000
-0.031235 0.999512 0.000000
-0.062378 0.998053 0.000000
0.921692 -0.335166 0.195314
0.912361 -0.398849 0.092286
0.198230 -0.106464 -0.974356
0.525251 -0.841946 0.123444
-0.263882 0.038724 0.963777
0.175360 -0.126716 -0.976316
0.757700 0.641137 0.121796
0.344405 0.889681 0.299754
0.008214 -0.241695 0.970317
-0.011414 0.248037 -0.968683
0.344405 0.889681 0.299754
0.757700 0.641137 0.121796
-0.192922 -0.008163 0.981180
-0.192827 0.105511 0.975544
0.975369 0.068478 0.209683
-0.192827 0.105511 0.975544
0.912361 -0.398849 0.092286
0.921692 -0.335166 0.195314
0.162167 -0.131598 0.977949
-0.729814 0.647448 0.219506
-0.812774 0.566906 0.134224
-0.967257 0.205967 0.148293
-0.176533 0.123788 -0.976480
-0.211923 -0.090535 -0.973084
-0.216716 -0.941094 0.259570
-0.262009 -0.129702 -0.956310
0.405404 -0.901358 0.152321
0.050522 0.012761 0.998641
-0.216716 -0.941094 0.259570
0.405404 -0.901358 0.152321
0.205913 0.088303 0.974578
-0.967257 0.205967 0.148293
-0.973530 -0.194535 0.119982
-0.829224 -0.471719 0.299782
-0.211923 -0.090535 -0.973084
-0.162273 -0.284182 -0.944938
0.220166 0.137880 0.965669
0.281631 -0.941201 0.186614
-0.216716 -0.941094 0.259570
0.281631 -0.941201 0.186614
-0.242248 -0.967828 0.068000
-0.262009 -0.129702 -0.956310
0.651916 0.710106 0.265998
0.197907 0.011339 -0.980155
-0.011414 0.248037 -0.968683
-0.195277 0.921336 0.336164
-0.011414 0.248037 -0.968683
-0.049398 -0.012753 -0.998698
0.651486 0.724759 0.224254
0.651916 0.710106 0.265998
-0.011414 0.248037 -0.968683
0.008214 -0.241695 0.970317
0.651916 0.710106 0.265998
0.651486 0.724759 0.224254
-0.177112 -0.305721 -0.935503
-0.177112 -0.305721 -0.935503
-0.177112 -0.305721 -0.935503
0.159585 0.276816 0.947579
-0.829224 -0.471719 0.299782
-0.602313 -0.757369 0.252213
0.912361 -0.398849 0.092286
0.864807 -0.487458 0.120391
0.175360 -0.126716 -0.976316
-0.170631 0.122021 0.977751
0.864807 -0.487458 0.120391
0.912361 -0.398849 0.092286
-0.211504 -0.933577 0.289308
-0.162273 -0.284182 -0.944938
-0.344922 -0.224258 -0.911448
0.342728 0.219680 0.913388
-0.211504 -0.933577 0.289308
-0.655822 -0.428468 0.621540
0.263202 0.941395 0.210951
0.050522 0.012761 0.998641
0.053226 0.943700 0.326493
0.263202 0.941395 0.210951
0.053226 0.943700 0.326493
-0.049398 -0.012753 -0.998698
0.975369 0.068478 0.209683
0.921692 -0.335166 0.195314
0.198230 -0.106464 -0.974356
-0.192827 0.105511 0.975544
0.921692 -0.335166 0.195314
0.975369 0.068478 0.209683
0.008214 -0.241695 0.970317
0.050522 0.012761 0.998641
-0.192922 -0.008163 0.981180
0.050522 0.012761 0.998641
0.008214 -0.241695 0.970317
-0.195277 0.921336 0.336164
-0.263882 0.038724 0.963777
-0.219432 0.012790 0.975544
-0.023918 -0.005795 0.999697
0.055660 0.013486 -0.998359
0.055660 0.013486 -0.998359
0.055660 0.013486 -0.998359
-0.262009 -0.129702 -0.956310
-0.049398 -0.012753 -0.998698
0.405404 -0.901358 0.152321
-0.344922 -0.224258 -0.911448
-0.049398 -0.012753 -0.998698
-0.262009 -0.129702 -0.956310
0.205913 0.088303 0.974578
-0.973530 -0.194535 0.119982
-0.829224 -0.471719 0.299782
0.159585 0.276816 0.947579
0.205913 0.088303 0.974578
-0.829224 -0.471719 0.299782
0.162167 -0.131598 0.977949
-0.812774 0.566906 0.134224
-0.967257 0.205967 0.148293
0.205913 0.088303 0.974578
0.162167 -0.131598 0.977949
-0.967257 0.205967 0.148293
0.220166 0.137880 0.965669
0.050522 0.012761 0.998641
0.342728 0.219680 0.913388
0.050522 0.012761 0.998641
0.159585 0.276816 0.947579
0.342728 0.219680 0.913388
-0.261967 -0.063477 -0.962987
-0.261967 -0.063477 -0.962987
-0.261967 -0.063477 -0.962987
-0.263882 0.038724 0.963777
-0.023918 -0.005795 0.999697
0.261967 0.063477 0.962987
0.220166 0.137880 0.965669
-0.655822 -0.428468 0.621540
-0.417268 -0.009768 -0.908731
-0.417268 -0.009768 -0.908731
-0.655822 -0.428468 0.621540
-0.262009 -0.129702 -0.956310
0.220166 0.137880 0.965669
-0.306709 -0.035002 -0.951159
-0.242248 -0.967828 0.068000
0.220166 0.137880 0.965669
-0.242248 -0.967828 0.068000
0.281631 -0.941201 0.186614
-0.812774 0.566906 0.134224
-0.729814 0.647448 0.219506
-0.176533 0.123788 -0.976480
-0.967257 0.205967 0.148293
-0.812774 0.566906 0.134224
-0.176533 0.123788 -0.976480
-0.973530 -0.194535 0.119982
-0.967257 0.205967 0.148293
-0.211923 -0.090535 -0.973084
-0.829224 -0.471719 0.299782
-0.973530 -0.194535 0.119982
-0.211923 -0.090535 -0.973084
0.197907 0.011339 -0.980155
-0.049398 -0.012753 -0.998698
-0.011414 0.248037 -0.968683
0.198230 -0.106464 -0.974356
-0.049398 -0.012753 -0.998698
0.197907 0.011339 -0.980155
-0.192922 -0.008163 0.981180
0.975369 0.068478 0.209683
0.890665 0.421152 0.171308
-0.192922 -0.008163 0.981180
0.890665 0.421152 0.171308
0.651916 0.710106 0.265998
-0.170631 0.122021 0.977751
0.525251 -0.841946 0.123444
0.864807 -0.487458 0.120391
0.864807 -0.487458 0.120391
0.525251 -0.841946 0.123444
0.175360 -0.126716 -0.976316
-0.219874 0.145174 0.964666
0.050522 0.012761 0.998641
-0.219432 0.012790 0.975544
-0.170631 0.122021 0.977751
0.050522 0.012761 0.998641
-0.219874 0.145174 0.964666
-0.018321 -0.344335 0.938668
-0.018321 -0.344335 0.938668
-0.018321 -0.344335 0.938668
0.018321 0.344335 -0.938668
0.018321 0.344335 -0.938668
0.018321 0.344335 -0.938668
-0.602313 -0.757369 0.252213
-0.829224 -0.471719 0.299782
-0.162273 -0.284182 -0.944938
-0.258259 -0.863029 0.434146
-0.602313 -0.757369 0.252213
-0.162273 -0.284182 -0.944938
-0.219432 0.012790 0.975544
0.405404 -0.901358 0.152321
0.200041 -0.163367 -0.966072
0.389862 -0.055751 -0.919184
0.389862 -0.055751 -0.919184
0.389862 -0.055752 -0.919184
-0.655822 -0.428468 0.621540
-0.211504 -0.933577 0.289308
-0.344922 -0.224258 -0.911448
-0.655822 -0.428468 0.621540
-0.344922 -0.224258 -0.911448
-0.262009 -0.129702 -0.956310
0.159585 0.276816 0.947579
-0.602313 -0.757369 0.252213
-0.258259 -0.863029 0.434146
0.173387 0.288700 0.941589
0.173387 0.288700 0.941589
0.173387 0.288700 0.941589
0.175360 -0.126716 -0.976316
-0.049398 -0.012753 -0.998698
0.198230 -0.106464 -0.974356
0.912361 -0.398849 0.092286
0.175360 -0.126716 -0.976316
0.198230 -0.106464 -0.974356
-0.192827 0.105511 0.975544
0.050522 0.012761 0.998641
-0.170631 0.122021 0.977751
-0.192827 0.105511 0.975544
-0.170631 0.122021 0.977751
0.912361 -0.398849 0.092286
0.135307 -0.038683 0.990048
0.135307 -0.038683 0.990048
0.135307 -0.038683 0.990048
-0.135307 0.038683 -0.990048
-0.417268 -0.009768 -0.908731
0.039716 -0.007215 -0.999185
</float_array>
          <technique_common>
            <accessor source="#SM_Coral_Table_Acropora_04_LOD2-Normal0-array" count="336" stride="3">
              <param name="X" type="float"/>
              <param name="Y" type="float"/>
              <param name="Z" type="float"/>
            </accessor>
          </technique_common>
        </source>
        <source id="SM_Coral_Table_Acropora_04_LOD2-UV0">
          <float_array id="SM_Coral_Table_Acropora_04_LOD2-UV0-array" count="322">
0.481445 0.056152
0.580078 0.182617
0.625000 0.095703
0.410889 0.136719
0.580078 0.182617
0.625000 0.095703
0.476563 0.196777
0.574219 0.028320
0.493896 0.010254
0.481445 0.056152
0.493896 0.010254
0.476563 0.196777
0.513184 0.108887
0.513184 0.108887
0.513184 0.108887
0.513184 0.108887
0.513184 0.108887
0.513184 0.108887
0.513184 0.108887
0.513184 0.108887
0.513184 0.108887
0.446533 0.059570
0.481445 0.056152
0.615234 0.071289
0.513184 0.108887
0.412354 0.102051
0.521484 0.020996
0.521484 0.020996
0.521484 0.020996
0.622559 0.137695
0.622559 0.137695
0.474365 0.040527
0.570801 0.043945
0.570801 0.043945
0.570801 0.043945
0.521484 0.196777
0.521484 0.196777
0.586426 0.168945
0.586426 0.168945
0.481201 0.018555
0.481201 0.018555
0.481201 0.018555
0.453125 0.188965
0.453125 0.188965
0.444580 0.065918
0.444580 0.065918
0.615234 0.071289
0.564453 0.090332
0.564453 0.090332
0.564453 0.090332
0.564453 0.090332
0.562500 0.193359
0.453125 0.188965
0.421387 0.158203
0.421387 0.158203
0.540527 0.015625
0.540527 0.015625
0.420166 0.083496
0.410889 0.136719
0.412354 0.102051
0.507324 0.010742
0.507324 0.010742
0.538086 0.151367
0.521484 0.196777
0.538086 0.151367
0.538086 0.151367
0.538086 0.151367
0.605469 0.157227
0.605469 0.157227
0.605469 0.157227
0.432129 0.069336
0.420166 0.083496
0.432129 0.069336
0.616699 0.084473
0.564453 0.090332
0.616699 0.084473
0.465820 0.060059
0.465820 0.060059
0.465820 0.060059
0.465820 0.060059
0.496094 0.192871
0.496094 0.192871
0.496094 0.192871
0.626953 0.115723
0.626953 0.115723
0.626953 0.115723
0.513184 0.108887
0.570801 0.043945
0.565918 0.021484
0.565918 0.021484
0.565918 0.021484
0.503418 0.059570
0.503418 0.059570
0.503418 0.059570
0.503418 0.059570
0.503418 0.059570
0.462891 0.105469
0.420166 0.083496
0.462891 0.105469
0.462891 0.105469
0.462891 0.105469
0.462891 0.105469
0.467529 0.133789
0.410889 0.136719
0.462891 0.105469
0.467529 0.133789
0.467529 0.133789
0.467529 0.133789
0.467529 0.133789
0.467529 0.133789
0.497559 0.082520
0.497559 0.082520
0.497559 0.082520
0.497559 0.082520
0.497559 0.082520
0.574219 0.038086
0.574219 0.028320
0.570801 0.043945
0.481201 0.050293
0.503418 0.059570
0.481201 0.050293
0.481201 0.050293
0.503418 0.059570
0.567871 0.123047
0.567871 0.123047
0.567871 0.123047
0.567871 0.123047
0.567871 0.123047
0.567871 0.123047
0.564453 0.090332
0.595703 0.058594
0.595703 0.058594
0.541992 0.076660
0.565918 0.021484
0.541992 0.076660
0.541992 0.076660
0.541992 0.076660
0.450439 0.057617
0.444580 0.065918
0.450439 0.057617
0.479004 0.087402
0.444580 0.065918
0.479004 0.087402
0.479004 0.087402
0.479004 0.087402
0.479004 0.087402
0.479004 0.087402
0.479004 0.087402
0.541992 0.076660
0.564453 0.090332
0.513184 0.108887
0.569336 0.102539
0.616699 0.084473
0.569336 0.102539
0.569336 0.102539
0.569336 0.102539
0.569336 0.102539
0.569336 0.102539
0.476074 0.031738
0.481201 0.050293
0.476074 0.031738
</float_array>
          <technique_common>
            <accessor source="#SM_Coral_Table_Acropora_04_LOD2-UV0-array" count="161" stride="2">
              <param name="S" type="float"/>
              <param name="T" type="float"/>
            </accessor>
          </technique_common>
        </source>
        <vertices id="SM_Coral_Table_Acropora_04_LOD2-VERTEX">
          <input semantic="POSITION" source="#SM_Coral_Table_Acropora_04_LOD2-POSITION"/>
        </vertices>
        <triangles count="112" material="MAT_Coral_Table">
          <input semantic="VERTEX" offset="0" source="#SM_Coral_Table_Acropora_04_LOD2-VERTEX"/>
          <input semantic="NORMAL" offset="1" source="#SM_Coral_Table_Acropora_04_LOD2-Normal0"/>
          <input semantic="TEXCOORD" offset="2" set="0" source="#SM_Coral_Table_Acropora_04_LOD2-UV0"/>
          <p> 25 0 55 7 1 14 52 2 148 8 3 20 25 4 55 36 5 89 38 6 100 54 7 146 8 8 17 7 9 17 85 10 146 45 11 100 29 12 68 13 13 29 46 14 126 39 15 106 8 16 13 4 17 6 52 18 134 7 19 15 21 20 50 49 21 135 15 22 32 23 23 49 18 24 39 42 25 120 37 26 94 84 27 122 40 28 112 0 29 0 16 30 36 22 31 51 28 32 65 19 33 42 7 34 13 44 35 108 35 36 62 47 37 125 29 38 69 35 39 65 22 40 51 16 41 36 40 42 113 54 43 145 32 44 76 53 45 111 85 46 144 7 47 19 34 48 84 55 49 154 46 50 127 23 51 48 15 52 34 48 53 131 44 54 107 7 55 24 45 56 99 38 57 99 8 58 24 39 59 107 12 60 26 27 61 60 37 62 91 8 63 20 84 64 91 12 65 27 47 66 124 8 67 18 56 68 156 13 69 30 34 70 85 46 71 128 59 72 121 57 73 160 58 74 41 18 75 41 88 76 160 42 77 121 21 78 49 15 79 32 52 80 135 49 81 136 36 82 90 15 83 33 33 84 82 16 85 35 7 86 12 8 87 12 16 88 35 33 89 82 35 90 62 17 91 37 1 92 4 1 93 4 17 94 37 28 95 62 43 96 94 60 97 120 61 98 39 6 99 8 18 100 40 37 101 95 39 102 108 4 103 6 19 104 42 19 105 43 4 106 6 7 107 13 50 108 139 81 109 44 82 110 78 82 111 78 81 112 44 50 113 139 2 114 2 31 115 75 55 116 157 48 117 131 15 118 34 21 119 48 1 120 1 22 121 51 35 122 66 28 123 66 22 124 51 1 125 1 47 126 127 56 127 154 34 128 84 56 129 157 31 130 75 2 131 2 39 132 109 19 133 52 24 134 53 3 135 3 44 136 105 45 137 104 12 138 27 37 139 91 25 140 55 8 141 20 12 142 28 25 143 56 38 144 101 3 145 58 11 146 59 26 147 57 45 148 98 85 149 147 84 150 91 27 151 60 12 152 26 27 153 61 6 154 10 37 155 93 29 156 69 46 157 125 28 158 62 16 159 63 28 160 64 7 161 12 17 162 38 29 163 67 28 164 62 35 165 62 29 166 67 17 167 38 63 168 45 51 169 143 62 170 79 54 171 140 26 172 71 30 173 72 31 174 73 10 175 46 21 176 74 23 177 74 10 178 46 31 179 73 32 180 76 85 181 145 53 182 113 40 183 114 32 184 77 0 185 22 4 186 6 8 187 12 33 188 80 4 189 11 33 190 81 7 191 13 34 192 83 2 193 5 55 194 155 56 195 155 2 196 5 34 197 83 35 198 62 8 199 86 47 200 123 8 201 12 35 202 64 16 203 63 15 204 87 36 205 88 78 206 7 5 207 7 64 208 88 65 209 87 37 210 91 7 211 20 25 212 55 53 213 110 7 214 16 37 215 92 38 216 96 11 217 25 26 218 97 54 219 147 38 220 98 26 221 57 39 222 102 24 223 54 3 224 103 38 225 104 39 226 105 3 227 3 84 228 92 8 229 16 40 230 110 8 231 19 54 232 144 40 233 111 41 234 115 66 235 116 67 236 117 15 237 117 78 238 116 83 239 115 84 240 119 0 241 9 42 242 118 42 243 118 0 244 9 37 245 119 84 246 95 18 247 40 6 248 8 84 249 93 6 250 10 27 251 61 24 252 53 19 253 52 44 254 109 3 255 103 24 256 54 44 257 102 11 258 59 3 259 58 45 260 101 26 261 97 11 262 25 45 263 96 46 264 123 7 265 86 28 266 62 55 267 156 7 268 18 46 269 124 47 270 128 34 271 85 13 272 30 47 273 126 13 274 29 29 275 68 23 276 129 48 277 130 10 278 23 10 279 23 48 280 130 21 281 129 49 282 132 8 283 20 36 284 133 23 285 50 8 286 15 49 287 134 68 288 137 69 289 138 9 290 21 79 291 21 70 292 138 71 293 137 30 294 72 26 295 71 85 296 140 20 297 141 30 298 70 85 299 142 36 300 133 25 301 55 52 302 132 72 303 33 73 304 90 86 305 136 0 306 22 32 307 77 53 308 114 0 309 0 53 310 112 37 311 122 54 312 142 30 313 70 20 314 141 75 315 79 87 316 143 74 317 45 21 318 149 7 319 150 55 320 151 31 321 152 21 322 47 55 323 153 56 324 151 8 325 150 23 326 149 56 327 153 23 328 47 31 329 152 76 330 158 77 331 159 14 332 31 80 333 31 42 334 159 88 335 158</p>
        </triangles>
      </mesh>
    </geometry>
  </library_geometries>
  <library_visual_scenes>
    <visual_scene id="SM_Coral_Table_Acropora_04" name="SM_Coral_Table_Acropora_04">
      <node name="SM_Coral_Table_Acropora_04_LOD0" id="SM_Coral_Table_Acropora_04_LOD0" layer="urchin" sid="SM_Coral_Table_Acropora_04_LOD0">
        <matrix sid="matrix">1.000000 0.000000 0.000000 0.000000 0.000000 0.000000 1.000000 0.000000 0.000000 -1.000000 0.000000 0.000000 0.000000 0.000000 0.000000 1.000000</matrix>
        <instance_geometry url="#SM_Coral_Table_Acropora_04_LOD0-lib">
          <bind_material>
            <technique_common>
              <instance_material symbol="MAT_Coral_Table" target="#MAT_Coral_Table"/>
            </technique_common>
          </bind_material>
        </instance_geometry>
        <extra>
          <technique profile="FCOLLADA">
            <visibility>1.000000</visibility>
          </technique>
        </extra>
      </node>
      <node name="SM_Coral_Table_Acropora_04_LOD1" id="SM_Coral_Table_Acropora_04_LOD1" layer="urchin" sid="SM_Coral_Table_Acropora_04_LOD1">
        <matrix sid="matrix">1.000000 0.000000 0.000000 0.000000 0.000000 0.000000 1.000000 0.000000 0.000000 -1.000000 0.000000 0.000000 0.000000 0.000000 0.000000 1.000000</matrix>
        <instance_geometry url="#SM_Coral_Table_Acropora_04_LOD1-lib">
          <bind_material>
            <technique_common>
              <instance_material symbol="MAT_Coral_Table" target="#MAT_Coral_Table"/>
            </technique_common>
          </bind_material>
        </instance_geometry>
        <extra>
          <technique profile="FCOLLADA">
            <visibility>1.000000</visibility>
          </technique>
        </extra>
      </node>
      <node name="SM_Coral_Table_Acropora_04_LOD2" id="SM_Coral_Table_Acropora_04_LOD2" layer="urchin" sid="SM_Coral_Table_Acropora_04_LOD2">
        <matrix sid="matrix">1.000000 0.000000 0.000000 0.000000 0.000000 0.000000 1.000000 0.000000 0.000000 -1.000000 0.000000 0.000000 0.000000 0.000000 0.000000 1.000000</matrix>
        <instance_geometry url="#SM_Coral_Table_Acropora_04_LOD2-lib">
          <bind_material>
            <technique_common>
              <instance_material symbol="MAT_Coral_Table" target="#MAT_Coral_Table"/>
            </technique_common>
          </bind_material>
        </instance_geometry>
        <extra>
          <technique profile="FCOLLADA">
            <visibility>1.000000</visibility>
          </technique>
        </extra>
      </node>
      <extra>
        <technique profile="MAX3D">
          <frame_rate>30.000000</frame_rate>
        </technique>
        <technique profile="FCOLLADA">
          <start_time>0.000000</start_time>
          <end_time>3.333333</end_time>
        </technique>
      </extra>
    </visual_scene>
  </library_visual_scenes>
  <scene>
    <instance_visual_scene url="#SM_Coral_Table_Acropora_04"/>
  </scene>
</COLLADA>
