<?xml version="1.0" encoding="utf-8"?>
<COLLADA xmlns="http://www.collada.org/2005/11/COLLADASchema" version="1.4.1">
  <asset>
    <contributor>
      <author/>
      <authoring_tool>FBX COLLADA exporter</authoring_tool>
      <comments/>
    </contributor>
    <created>2024-02-10T11:42:32Z</created>
    <keywords/>
    <modified>2024-02-10T11:42:32Z</modified>
    <revision/>
    <subject/>
    <title/>
    <unit meter="0.010000" name="centimeter"/>
    <up_axis>Y_UP</up_axis>
  </asset>
  <library_materials>
    <material id="MAT_Sea_Shells" name="MAT_Sea_Shells">
      <instance_effect url="#MAT_Sea_Shells-fx"/>
    </material>
  </library_materials>
  <library_effects>
    <effect id="MAT_Sea_Shells-fx" name="MAT_Sea_Shells">
      <profile_COMMON>
        <technique sid="standard">
          <phong>
            <emission>
              <color sid="emission">0.000000  0.000000 0.000000 1.000000</color>
            </emission>
            <ambient>
              <color sid="ambient">0.588235  0.588235 0.588235 1.000000</color>
            </ambient>
            <diffuse>
              <color sid="diffuse">0.588235  0.588235 0.588235 1.000000</color>
            </diffuse>
            <specular>
              <color sid="specular">0.000000  0.000000 0.000000 1.000000</color>
            </specular>
            <shininess>
              <float sid="shininess">2.000000</float>
            </shininess>
            <reflective>
              <color sid="reflective">0.000000  0.000000 0.000000 1.000000</color>
            </reflective>
            <reflectivity>
              <float sid="reflectivity">1.000000</float>
            </reflectivity>
            <transparent opaque="RGB_ZERO">
              <color sid="transparent">1.000000  1.000000 1.000000 1.000000</color>
            </transparent>
            <transparency>
              <float sid="transparency">0.000000</float>
            </transparency>
          </phong>
        </technique>
      </profile_COMMON>
    </effect>
  </library_effects>
  <library_geometries>
    <geometry id="SM_Chiton_01_LOD0-lib" name="SM_Chiton_01_LOD0Mesh">
      <mesh>
        <source id="SM_Chiton_01_LOD0-POSITION">
          <float_array id="SM_Chiton_01_LOD0-POSITION-array" count="147">
5.513756 1.053116 0.000001
4.449165 2.604019 0.000001
2.420975 3.617653 0.000000
2.252304 2.948486 0.836488
0.166862 3.818504 0.000000
-1.499374 2.907074 0.836488
-2.315987 3.542603 0.000000
-4.127068 2.937759 0.000001
-2.954613 2.340088 0.904611
-4.103447 1.396790 0.969955
-5.139328 1.812622 0.000001
-5.622177 0.352676 0.000001
-4.303665 -0.988571 0.969955
-5.290138 -1.115646 0.000001
-4.479187 -2.419159 0.000001
-3.291939 -2.097641 0.904611
-2.707123 -3.397369 0.000001
-1.917465 -2.896973 0.836488
-0.693947 -3.815933 0.000001
1.348625 -3.270889 0.836488
3.253632 -2.824203 0.904611
1.310532 -3.818497 0.000001
3.635818 -3.410294 0.000001
5.156906 -2.012192 0.000001
5.622177 -0.474380 0.000001
4.676445 0.810333 0.969955
4.784630 -0.452026 0.996376
3.860687 2.043213 0.904611
0.430779 3.181366 0.807587
-0.618340 1.671402 1.761010
-4.668900 0.221436 0.996376
-2.988739 -0.691620 1.837063
-1.780342 -1.346771 1.793517
-0.976143 -1.819092 1.761010
-0.332962 -3.247650 0.807588
1.029701 -1.968063 1.761010
1.948006 -1.623611 1.793517
3.001770 -1.053238 1.889046
3.232826 -0.344650 1.954784
4.391563 -1.663574 0.969955
3.181938 0.392624 1.889046
0.009392 -2.037201 1.747414
-3.197632 0.046219 1.871528
-2.726646 0.754227 1.862145
-1.506538 1.324722 1.793517
0.006073 -0.152420 2.343008
0.396576 1.740921 1.747414
1.387459 1.522476 1.761010
2.221863 1.047913 1.793517
</float_array>
          <technique_common>
            <accessor source="#SM_Chiton_01_LOD0-POSITION-array" count="49" stride="3">
              <param name="X" type="float"/>
              <param name="Y" type="float"/>
              <param name="Z" type="float"/>
            </accessor>
          </technique_common>
        </source>
        <source id="SM_Chiton_01_LOD0-Normal0">
          <float_array id="SM_Chiton_01_LOD0-Normal0-array" count="720">
0.573684 0.247259 0.780865
0.751734 -0.085044 0.653960
0.701427 0.253367 0.666187
0.493337 0.569536 0.657455
0.573684 0.247259 0.780865
0.701427 0.253367 0.666187
0.386046 0.497411 0.776885
0.573684 0.247259 0.780865
0.493337 0.569536 0.657455
0.216079 0.742078 0.634532
0.386046 0.497411 0.776885
0.493337 0.569536 0.657455
0.182700 0.622368 0.761104
0.386046 0.497411 0.776885
0.216079 0.742078 0.634532
0.000978 0.666974 0.745080
0.182700 0.622368 0.761104
0.216079 0.742078 0.634532
-0.004888 0.773074 0.634297
0.000978 0.666974 0.745080
0.216079 0.742078 0.634532
-0.133800 0.627969 0.766650
0.000978 0.666974 0.745080
-0.004888 0.773074 0.634297
-0.157427 0.710891 0.685457
-0.133800 0.627969 0.766650
-0.004888 0.773074 0.634297
-0.270748 0.534653 0.800526
-0.133800 0.627969 0.766650
-0.157427 0.710891 0.685457
-0.329404 0.573835 0.749804
-0.270748 0.534653 0.800526
-0.157427 0.710891 0.685457
-0.452944 0.374660 0.808995
-0.270748 0.534653 0.800526
-0.329404 0.573835 0.749804
-0.543068 0.372778 0.752405
-0.452944 0.374660 0.808995
-0.329404 0.573835 0.749804
-0.597429 0.042045 0.800818
-0.452944 0.374660 0.808995
-0.543068 0.372778 0.752405
-0.688793 0.038102 0.723956
-0.597429 0.042045 0.800818
-0.543068 0.372778 0.752405
-0.624414 -0.311695 0.716208
-0.597429 0.042045 0.800818
-0.688793 0.038102 0.723956
-0.532676 -0.321550 0.782855
-0.597429 0.042045 0.800818
-0.624414 -0.311695 0.716208
-0.446512 -0.536396 0.716175
-0.532676 -0.321550 0.782855
-0.624414 -0.311695 0.716208
-0.370574 -0.511360 0.775361
-0.532676 -0.321550 0.782855
-0.446512 -0.536396 0.716175
-0.253295 -0.709006 0.658143
-0.370574 -0.511360 0.775361
-0.446512 -0.536396 0.716175
-0.220024 -0.630736 0.744152
-0.370574 -0.511360 0.775361
-0.253295 -0.709006 0.658143
-0.084996 -0.802114 0.591091
-0.220024 -0.630736 0.744152
-0.253295 -0.709006 0.658143
-0.073356 -0.705196 0.705208
-0.220024 -0.630736 0.744152
-0.084996 -0.802114 0.591091
0.073338 -0.822358 0.564223
-0.073356 -0.705196 0.705208
-0.084996 -0.802114 0.591091
0.067520 -0.705502 0.705484
-0.073356 -0.705196 0.705208
0.073338 -0.822358 0.564223
0.282336 -0.608636 0.741518
0.067520 -0.705502 0.705484
0.073338 -0.822358 0.564223
0.356984 -0.713015 0.603467
0.282336 -0.608636 0.741518
0.073338 -0.822358 0.564223
0.527141 -0.372587 0.763741
0.282336 -0.608636 0.741518
0.356984 -0.713015 0.603467
0.647784 -0.413299 0.639968
0.527141 -0.372587 0.763741
0.356984 -0.713015 0.603467
0.638772 -0.073361 0.765891
0.527141 -0.372587 0.763741
0.647784 -0.413299 0.639968
0.751734 -0.085044 0.653960
0.638772 -0.073361 0.765891
0.647784 -0.413299 0.639968
0.573684 0.247259 0.780865
0.638772 -0.073361 0.765891
0.751734 -0.085044 0.653960
0.270678 0.212039 0.939028
0.638772 -0.073361 0.765891
0.573684 0.247259 0.780865
0.386046 0.497411 0.776885
0.270678 0.212039 0.939028
0.573684 0.247259 0.780865
0.184632 0.337042 0.923208
0.270678 0.212039 0.939028
0.386046 0.497411 0.776885
0.182700 0.622368 0.761104
0.184632 0.337042 0.923208
0.386046 0.497411 0.776885
0.110494 0.380383 0.918205
0.184632 0.337042 0.923208
0.182700 0.622368 0.761104
0.000978 0.666974 0.745080
0.110494 0.380383 0.918205
0.182700 0.622368 0.761104
0.014645 0.424768 0.905184
0.110494 0.380383 0.918205
0.000978 0.666974 0.745080
-0.075233 0.417184 0.905703
0.014645 0.424768 0.905184
0.000978 0.666974 0.745080
-0.133800 0.627969 0.766650
-0.075233 0.417184 0.905703
0.000978 0.666974 0.745080
-0.143623 0.389838 0.909615
-0.075233 0.417184 0.905703
-0.133800 0.627969 0.766650
-0.270748 0.534653 0.800526
-0.143623 0.389838 0.909615
-0.133800 0.627969 0.766650
-0.235390 0.286167 0.928816
-0.143623 0.389838 0.909615
-0.270748 0.534653 0.800526
-0.452944 0.374660 0.808995
-0.235390 0.286167 0.928816
-0.270748 0.534653 0.800526
-0.325490 0.026391 0.945177
-0.235390 0.286167 0.928816
-0.452944 0.374660 0.808995
-0.597429 0.042045 0.800818
-0.325490 0.026391 0.945177
-0.452944 0.374660 0.808995
-0.532676 -0.321550 0.782855
-0.325490 0.026391 0.945177
-0.597429 0.042045 0.800818
-0.286578 -0.259190 0.922331
-0.325490 0.026391 0.945177
-0.532676 -0.321550 0.782855
-0.370574 -0.511360 0.775361
-0.286578 -0.259190 0.922331
-0.532676 -0.321550 0.782855
-0.206137 -0.380028 0.901713
-0.286578 -0.259190 0.922331
-0.370574 -0.511360 0.775361
-0.220024 -0.630736 0.744152
-0.206137 -0.380028 0.901713
-0.370574 -0.511360 0.775361
-0.135892 -0.417458 0.898478
-0.206137 -0.380028 0.901713
-0.220024 -0.630736 0.744152
-0.073356 -0.705196 0.705208
-0.135892 -0.417458 0.898478
-0.220024 -0.630736 0.744152
-0.042042 -0.452664 0.890689
-0.135892 -0.417458 0.898478
-0.073356 -0.705196 0.705208
0.067520 -0.705502 0.705484
-0.042042 -0.452664 0.890689
-0.073356 -0.705196 0.705208
0.047850 -0.430617 0.901265
-0.042042 -0.452664 0.890689
0.067520 -0.705502 0.705484
0.133967 -0.382328 0.914264
0.047850 -0.430617 0.901265
0.067520 -0.705502 0.705484
0.282336 -0.608636 0.741518
0.133967 -0.382328 0.914264
0.067520 -0.705502 0.705484
0.241329 -0.266721 0.933070
0.133967 -0.382328 0.914264
0.282336 -0.608636 0.741518
0.527141 -0.372587 0.763741
0.241329 -0.266721 0.933070
0.282336 -0.608636 0.741518
0.321268 -0.038084 0.946222
0.241329 -0.266721 0.933070
0.527141 -0.372587 0.763741
0.638772 -0.073361 0.765891
0.321268 -0.038084 0.946222
0.527141 -0.372587 0.763741
0.270678 0.212039 0.939028
0.321268 -0.038084 0.946222
0.638772 -0.073361 0.765891
-0.006843 -0.000979 0.999976
0.321268 -0.038084 0.946222
0.270678 0.212039 0.939028
-0.006843 -0.000979 0.999976
0.241329 -0.266721 0.933070
0.321268 -0.038084 0.946222
-0.006843 -0.000979 0.999976
0.133967 -0.382328 0.914264
0.241329 -0.266721 0.933070
-0.006843 -0.000979 0.999976
0.047850 -0.430617 0.901265
0.133967 -0.382328 0.914264
-0.006843 -0.000979 0.999976
-0.042042 -0.452664 0.890689
0.047850 -0.430617 0.901265
-0.006843 -0.000979 0.999976
-0.135892 -0.417458 0.898478
-0.042042 -0.452664 0.890689
-0.006843 -0.000979 0.999976
-0.206137 -0.380028 0.901713
-0.135892 -0.417458 0.898478
-0.006843 -0.000979 0.999976
-0.286578 -0.259190 0.922331
-0.206137 -0.380028 0.901713
-0.006843 -0.000979 0.999976
-0.325490 0.026391 0.945177
-0.286578 -0.259190 0.922331
-0.006843 -0.000979 0.999976
-0.235390 0.286167 0.928816
-0.325490 0.026391 0.945177
-0.006843 -0.000979 0.999976
-0.143623 0.389838 0.909615
-0.235390 0.286167 0.928816
-0.006843 -0.000979 0.999976
-0.075233 0.417184 0.905703
-0.143623 0.389838 0.909615
-0.006843 -0.000979 0.999976
0.014645 0.424768 0.905184
-0.075233 0.417184 0.905703
-0.006843 -0.000979 0.999976
0.110494 0.380383 0.918205
0.014645 0.424768 0.905184
-0.006843 -0.000979 0.999976
0.184632 0.337042 0.923208
0.110494 0.380383 0.918205
0.270678 0.212039 0.939028
0.184632 0.337042 0.923208
-0.006843 -0.000979 0.999976
</float_array>
          <technique_common>
            <accessor source="#SM_Chiton_01_LOD0-Normal0-array" count="240" stride="3">
              <param name="X" type="float"/>
              <param name="Y" type="float"/>
              <param name="Z" type="float"/>
            </accessor>
          </technique_common>
        </source>
        <source id="SM_Chiton_01_LOD0-UV0">
          <float_array id="SM_Chiton_01_LOD0-UV0-array" count="98">
0.365479 0.885986
0.351318 0.884338
0.363037 0.894714
0.379883 0.896179
0.374512 0.902344
0.389404 0.915527
0.382568 0.917419
0.384766 0.934509
0.391113 0.937012
0.382324 0.952637
0.389160 0.960632
0.377197 0.966278
0.382080 0.975693
0.368408 0.977051
0.372559 0.987556
0.357666 0.982361
0.359131 0.992157
0.345459 0.988991
0.346680 0.978928
0.333252 0.981262
0.336670 0.969437
0.324219 0.964386
0.329346 0.956543
0.321045 0.945190
0.326172 0.941681
0.320313 0.926086
0.325928 0.925903
0.330078 0.908081
0.324219 0.903931
0.340576 0.897400
0.337158 0.889404
0.351563 0.893677
0.359375 0.908752
0.365234 0.917725
0.369629 0.925537
0.371582 0.934875
0.371094 0.944366
0.367920 0.952698
0.362549 0.964142
0.356201 0.968567
0.349365 0.966614
0.343506 0.955261
0.339111 0.947723
0.337158 0.938477
0.337891 0.928894
0.341064 0.920288
0.346191 0.910400
0.352539 0.908264
0.354248 0.938507
</float_array>
          <technique_common>
            <accessor source="#SM_Chiton_01_LOD0-UV0-array" count="49" stride="2">
              <param name="S" type="float"/>
              <param name="T" type="float"/>
            </accessor>
          </technique_common>
        </source>
        <vertices id="SM_Chiton_01_LOD0-VERTEX">
          <input semantic="POSITION" source="#SM_Chiton_01_LOD0-POSITION"/>
        </vertices>
        <triangles count="80" material="MAT_Sea_Shells">
          <input semantic="VERTEX" offset="0" source="#SM_Chiton_01_LOD0-VERTEX"/>
          <input semantic="NORMAL" offset="1" source="#SM_Chiton_01_LOD0-Normal0"/>
          <input semantic="TEXCOORD" offset="2" set="0" source="#SM_Chiton_01_LOD0-UV0"/>
          <p> 25 0 2 24 1 1 0 2 0 1 3 3 25 4 2 0 5 0 27 6 4 25 7 2 1 8 3 2 9 5 27 10 4 1 11 3 3 12 6 27 13 4 2 14 5 28 15 7 3 16 6 2 17 5 4 18 8 28 19 7 2 20 5 5 21 9 28 22 7 4 23 8 6 24 10 5 25 9 4 26 8 8 27 11 5 28 9 6 29 10 7 30 12 8 31 11 6 32 10 9 33 13 8 34 11 7 35 12 10 36 14 9 37 13 7 38 12 30 39 15 9 40 13 10 41 14 11 42 16 30 43 15 10 44 14 13 45 17 30 46 15 11 47 16 12 48 18 30 49 15 13 50 17 14 51 19 12 52 18 13 53 17 15 54 20 12 55 18 14 56 19 16 57 21 15 58 20 14 59 19 17 60 22 15 61 20 16 62 21 18 63 23 17 64 22 16 65 21 34 66 24 17 67 22 18 68 23 21 69 25 34 70 24 18 71 23 19 72 26 34 73 24 21 74 25 20 75 27 19 76 26 21 77 25 22 78 28 20 79 27 21 80 25 39 81 29 20 82 27 22 83 28 23 84 30 39 85 29 22 86 28 26 87 31 39 88 29 23 89 30 24 90 1 26 91 31 23 92 30 25 93 2 26 94 31 24 95 1 40 96 32 26 97 31 25 98 2 27 99 4 40 100 32 25 101 2 48 102 33 40 103 32 27 104 4 3 105 6 48 106 33 27 107 4 47 108 34 48 109 33 3 110 6 28 111 7 47 112 34 3 113 6 46 114 35 47 115 34 28 116 7 29 117 36 46 118 35 28 119 7 5 120 9 29 121 36 28 122 7 44 123 37 29 124 36 5 125 9 8 126 11 44 127 37 5 128 9 43 129 38 44 130 37 8 131 11 9 132 13 43 133 38 8 134 11 42 135 39 43 136 38 9 137 13 30 138 15 42 139 39 9 140 13 12 141 18 42 142 39 30 143 15 31 144 40 42 145 39 12 146 18 15 147 20 31 148 40 12 149 18 32 150 41 31 151 40 15 152 20 17 153 22 32 154 41 15 155 20 33 156 42 32 157 41 17 158 22 34 159 24 33 160 42 17 161 22 41 162 43 33 163 42 34 164 24 19 165 26 41 166 43 34 167 24 35 168 44 41 169 43 19 170 26 36 171 45 35 172 44 19 173 26 20 174 27 36 175 45 19 176 26 37 177 46 36 178 45 20 179 27 39 180 29 37 181 46 20 182 27 38 183 47 37 184 46 39 185 29 26 186 31 38 187 47 39 188 29 40 189 32 38 190 47 26 191 31 45 192 48 38 193 47 40 194 32 45 195 48 37 196 46 38 197 47 45 198 48 36 199 45 37 200 46 45 201 48 35 202 44 36 203 45 45 204 48 41 205 43 35 206 44 45 207 48 33 208 42 41 209 43 45 210 48 32 211 41 33 212 42 45 213 48 31 214 40 32 215 41 45 216 48 42 217 39 31 218 40 45 219 48 43 220 38 42 221 39 45 222 48 44 223 37 43 224 38 45 225 48 29 226 36 44 227 37 45 228 48 46 229 35 29 230 36 45 231 48 47 232 34 46 233 35 45 234 48 48 235 33 47 236 34 40 237 32 48 238 33 45 239 48</p>
        </triangles>
      </mesh>
    </geometry>
    <geometry id="SM_Chiton_01_LOD1-lib" name="SM_Chiton_01_LOD1Mesh">
      <mesh>
        <source id="SM_Chiton_01_LOD1-POSITION">
          <float_array id="SM_Chiton_01_LOD1-POSITION-array" count="63">
3.635818 -3.410294 0.000001
-4.691574 -2.077759 0.000001
4.449165 2.604019 0.000001
0.140610 1.615051 1.761010
-2.707123 -3.397369 0.000001
-4.424408 2.607254 0.000001
0.267067 -1.911423 1.761010
3.232826 -0.344650 1.954784
5.549843 0.544754 0.000001
2.620949 -2.972565 0.881987
-3.142578 -0.148239 1.862445
3.860687 2.043213 0.904611
-5.622177 0.352676 0.000001
-1.146622 3.672546 0.000000
0.432930 -3.817383 0.000001
1.230888 3.079086 0.820282
4.523613 -1.256561 0.978831
0.006073 -0.152420 2.343008
5.156906 -2.012192 0.000001
2.420975 3.617653 0.000000
4.676445 0.810333 0.969955
</float_array>
          <technique_common>
            <accessor source="#SM_Chiton_01_LOD1-POSITION-array" count="21" stride="3">
              <param name="X" type="float"/>
              <param name="Y" type="float"/>
              <param name="Z" type="float"/>
            </accessor>
          </technique_common>
        </source>
        <source id="SM_Chiton_01_LOD1-Normal0">
          <float_array id="SM_Chiton_01_LOD1-Normal0-array" count="261">
-0.037036 0.452131 0.891182
0.303594 -0.042440 0.951856
0.371361 0.486728 0.790688
-0.142669 0.558190 0.817355
0.047117 0.654171 0.754878
0.197390 0.698455 0.687893
-0.226878 -0.556227 0.799461
-0.361543 -0.026241 0.931986
-0.464402 -0.393165 0.793569
0.185938 -0.632500 0.751911
-0.038691 -0.500724 0.864742
-0.226878 -0.556227 0.799461
-0.593370 0.049796 0.803388
-0.361543 -0.026241 0.931986
-0.346742 0.429116 0.834044
0.303594 -0.042440 0.951856
-0.037036 0.452131 0.891182
-0.023684 0.002806 0.999716
-0.361543 -0.026241 0.931986
-0.037036 0.452131 0.891182
-0.346742 0.429116 0.834044
0.767595 0.110021 0.631422
0.584771 -0.276971 0.762450
0.622780 -0.370625 0.689045
0.303594 -0.042440 0.951856
-0.038691 -0.500724 0.864742
0.185938 -0.632500 0.751911
0.047117 0.654171 0.754878
0.371361 0.486728 0.790688
0.197390 0.698455 0.687893
0.584771 -0.276971 0.762450
0.185938 -0.632500 0.751911
0.348784 -0.630834 0.693108
0.348784 -0.630834 0.693108
0.185938 -0.632500 0.751911
-0.054887 -0.649547 0.758338
-0.023684 0.002806 0.999716
-0.037036 0.452131 0.891182
-0.361543 -0.026241 0.931986
-0.038691 -0.500724 0.864742
-0.361543 -0.026241 0.931986
-0.226878 -0.556227 0.799461
0.624326 0.209213 0.752627
0.584771 -0.276971 0.762450
0.767595 0.110021 0.631422
0.517110 0.561011 0.646424
0.624326 0.209213 0.752627
0.767595 0.110021 0.631422
-0.361543 -0.026241 0.931986
-0.593370 0.049796 0.803388
-0.464402 -0.393165 0.793569
-0.346742 0.429116 0.834044
0.047117 0.654171 0.754878
-0.142669 0.558190 0.817355
0.185938 -0.632500 0.751911
-0.226878 -0.556227 0.799461
-0.054887 -0.649547 0.758338
0.047117 0.654171 0.754878
-0.037036 0.452131 0.891182
0.371361 0.486728 0.790688
-0.346742 0.429116 0.834044
-0.037036 0.452131 0.891182
0.047117 0.654171 0.754878
0.584771 -0.276971 0.762450
0.303594 -0.042440 0.951856
0.185938 -0.632500 0.751911
0.303594 -0.042440 0.951856
0.584771 -0.276971 0.762450
0.624326 0.209213 0.752627
-0.023684 0.002806 0.999716
-0.038691 -0.500724 0.864742
0.303594 -0.042440 0.951856
-0.023684 0.002806 0.999716
-0.361543 -0.026241 0.931986
-0.038691 -0.500724 0.864742
0.622780 -0.370625 0.689045
0.584771 -0.276971 0.762450
0.348784 -0.630834 0.693108
0.197390 0.698455 0.687893
0.371361 0.486728 0.790688
0.517110 0.561011 0.646424
0.371361 0.486728 0.790688
0.303594 -0.042440 0.951856
0.624326 0.209213 0.752627
0.371361 0.486728 0.790688
0.624326 0.209213 0.752627
0.517110 0.561011 0.646424
</float_array>
          <technique_common>
            <accessor source="#SM_Chiton_01_LOD1-Normal0-array" count="87" stride="3">
              <param name="X" type="float"/>
              <param name="Y" type="float"/>
              <param name="Z" type="float"/>
            </accessor>
          </technique_common>
        </source>
        <source id="SM_Chiton_01_LOD1-UV0">
          <float_array id="SM_Chiton_01_LOD1-UV0-array" count="42">
0.379883 0.896179
0.336449 0.983286
0.324219 0.903931
0.379283 0.979178
0.370540 0.937241
0.338355 0.936053
0.352539 0.908264
0.354399 0.968052
0.359131 0.992157
0.337158 0.889404
0.360766 0.885438
0.324219 0.964386
0.390080 0.949508
0.354248 0.938507
0.328700 0.914000
0.374512 0.902344
0.383801 0.927002
0.344267 0.896149
0.389404 0.915527
0.320634 0.934450
0.363037 0.894714
</float_array>
          <technique_common>
            <accessor source="#SM_Chiton_01_LOD1-UV0-array" count="21" stride="2">
              <param name="S" type="float"/>
              <param name="T" type="float"/>
            </accessor>
          </technique_common>
        </source>
        <vertices id="SM_Chiton_01_LOD1-VERTEX">
          <input semantic="POSITION" source="#SM_Chiton_01_LOD1-POSITION"/>
        </vertices>
        <triangles count="29" material="MAT_Sea_Shells">
          <input semantic="VERTEX" offset="0" source="#SM_Chiton_01_LOD1-VERTEX"/>
          <input semantic="NORMAL" offset="1" source="#SM_Chiton_01_LOD1-Normal0"/>
          <input semantic="TEXCOORD" offset="2" set="0" source="#SM_Chiton_01_LOD1-UV0"/>
          <p> 3 0 4 7 1 6 11 2 15 13 3 12 15 4 16 19 5 18 4 6 11 10 7 7 1 8 1 9 9 14 6 10 5 4 11 11 12 12 8 10 13 7 5 14 3 7 15 6 3 16 4 17 17 13 10 18 7 3 19 4 5 20 3 8 21 10 16 22 17 18 23 9 7 24 6 6 25 5 9 26 14 15 27 16 11 28 15 19 29 18 16 30 17 9 31 14 0 32 2 0 33 2 9 34 14 14 35 19 17 36 13 3 37 4 10 38 7 6 39 5 10 40 7 4 41 11 20 42 20 16 43 17 8 44 10 2 45 0 20 46 20 8 47 10 10 48 7 12 49 8 1 50 1 5 51 3 15 52 16 13 53 12 9 54 14 4 55 11 14 56 19 15 57 16 3 58 4 11 59 15 5 60 3 3 61 4 15 62 16 16 63 17 7 64 6 9 65 14 7 66 6 16 67 17 20 68 20 17 69 13 6 70 5 7 71 6 17 72 13 10 73 7 6 74 5 18 75 9 16 76 17 0 77 2 19 78 18 11 79 15 2 80 0 11 81 15 7 82 6 20 83 20 11 84 15 20 85 20 2 86 0</p>
        </triangles>
      </mesh>
    </geometry>
  </library_geometries>
  <library_visual_scenes>
    <visual_scene id="SM_Chiton_01" name="SM_Chiton_01">
      <node name="SM_Chiton_01_LOD0" id="SM_Chiton_01_LOD0" layer="shells" sid="SM_Chiton_01_LOD0">
        <matrix sid="matrix">1.000000 0.000000 0.000000 0.000000 0.000000 0.000000 1.000000 0.000000 0.000000 -1.000000 0.000000 0.000000 0.000000 0.000000 0.000000 1.000000</matrix>
        <instance_geometry url="#SM_Chiton_01_LOD0-lib">
          <bind_material>
            <technique_common>
              <instance_material symbol="MAT_Sea_Shells" target="#MAT_Sea_Shells"/>
            </technique_common>
          </bind_material>
        </instance_geometry>
        <extra>
          <technique profile="FCOLLADA">
            <visibility>1.000000</visibility>
          </technique>
        </extra>
      </node>
      <node name="SM_Chiton_01_LOD1" id="SM_Chiton_01_LOD1" layer="shells" sid="SM_Chiton_01_LOD1">
        <matrix sid="matrix">1.000000 0.000000 0.000000 0.000000 0.000000 0.000000 1.000000 0.000000 0.000000 -1.000000 0.000000 0.000000 0.000000 0.000000 0.000000 1.000000</matrix>
        <instance_geometry url="#SM_Chiton_01_LOD1-lib">
          <bind_material>
            <technique_common>
              <instance_material symbol="MAT_Sea_Shells" target="#MAT_Sea_Shells"/>
            </technique_common>
          </bind_material>
        </instance_geometry>
        <extra>
          <technique profile="FCOLLADA">
            <visibility>1.000000</visibility>
          </technique>
        </extra>
      </node>
      <extra>
        <technique profile="MAX3D">
          <frame_rate>30.000000</frame_rate>
        </technique>
        <technique profile="FCOLLADA">
          <start_time>0.000000</start_time>
          <end_time>3.333333</end_time>
        </technique>
      </extra>
    </visual_scene>
  </library_visual_scenes>
  <scene>
    <instance_visual_scene url="#SM_Chiton_01"/>
  </scene>
</COLLADA>
