<?xml version="1.0" encoding="utf-8"?>
<COLLADA xmlns="http://www.collada.org/2005/11/COLLADASchema" version="1.4.1">
  <asset>
    <contributor>
      <author/>
      <authoring_tool>FBX COLLADA exporter</authoring_tool>
      <comments/>
    </contributor>
    <created>2024-02-10T11:42:33Z</created>
    <keywords/>
    <modified>2024-02-10T11:42:33Z</modified>
    <revision/>
    <subject/>
    <title/>
    <unit meter="0.010000" name="centimeter"/>
    <up_axis>Y_UP</up_axis>
  </asset>
  <library_materials>
    <material id="MAT_Sea_Shells" name="MAT_Sea_Shells">
      <instance_effect url="#MAT_Sea_Shells-fx"/>
    </material>
  </library_materials>
  <library_effects>
    <effect id="MAT_Sea_Shells-fx" name="MAT_Sea_Shells">
      <profile_COMMON>
        <technique sid="standard">
          <phong>
            <emission>
              <color sid="emission">0.000000  0.000000 0.000000 1.000000</color>
            </emission>
            <ambient>
              <color sid="ambient">0.588235  0.588235 0.588235 1.000000</color>
            </ambient>
            <diffuse>
              <color sid="diffuse">0.588235  0.588235 0.588235 1.000000</color>
            </diffuse>
            <specular>
              <color sid="specular">0.000000  0.000000 0.000000 1.000000</color>
            </specular>
            <shininess>
              <float sid="shininess">2.000000</float>
            </shininess>
            <reflective>
              <color sid="reflective">0.000000  0.000000 0.000000 1.000000</color>
            </reflective>
            <reflectivity>
              <float sid="reflectivity">1.000000</float>
            </reflectivity>
            <transparent opaque="RGB_ZERO">
              <color sid="transparent">1.000000  1.000000 1.000000 1.000000</color>
            </transparent>
            <transparency>
              <float sid="transparency">0.000000</float>
            </transparency>
          </phong>
        </technique>
      </profile_COMMON>
    </effect>
  </library_effects>
  <library_geometries>
    <geometry id="SM_Chiton_02_LOD0-lib" name="SM_Chiton_02_LOD0Mesh">
      <mesh>
        <source id="SM_Chiton_02_LOD0-POSITION">
          <float_array id="SM_Chiton_02_LOD0-POSITION-array" count="147">
-4.833702 0.303238 0.000001
-3.472855 -0.849915 0.833921
-4.548225 -0.959183 0.000001
-3.851006 -2.079880 0.000001
-2.327461 -2.920883 0.000001
-1.648582 -2.490677 0.719172
-0.596642 -3.280716 0.000001
-0.286278 -2.792160 0.694325
1.126701 -3.282959 0.000001
3.125908 -2.931976 0.000001
4.433594 -1.729980 0.000001
4.833702 -0.407822 0.000001
4.113579 -0.388565 0.856636
4.740456 0.905441 0.000001
4.020569 0.696701 0.833921
3.825188 2.238861 0.000001
1.936386 2.535034 0.719172
2.081436 3.110321 0.000001
0.143425 3.282959 0.000001
-1.289085 2.499405 0.719172
-1.991180 3.045776 0.000001
-3.548256 2.525818 0.000001
-3.300690 1.200928 0.833921
-4.418533 1.558411 0.000001
-3.631371 0.190399 0.856636
-2.830276 -1.803421 0.777741
1.159454 -2.812134 0.719172
2.797318 -2.428116 0.777741
3.775711 -1.430252 0.833921
2.220367 -0.905502 1.669327
2.450417 -0.296249 1.680630
2.347786 0.337570 1.669327
3.319267 1.756699 0.777741
1.910255 0.900970 1.641778
1.192856 1.308975 1.613830
0.340950 1.496811 1.602139
0.370293 2.735260 0.694325
-1.295273 1.138962 1.641778
-2.540253 2.011917 0.777741
-1.839561 0.648483 1.669327
-0.531662 1.437027 1.613830
0.229233 -0.131012 2.014406
1.674835 -1.395844 1.641778
0.885269 -1.692001 1.613830
0.008049 -1.751480 1.602139
-0.839279 -1.563934 1.613830
-1.530655 -1.157837 1.641778
-1.967018 -0.594574 1.669327
-2.076408 0.039795 1.680630
</float_array>
          <technique_common>
            <accessor source="#SM_Chiton_02_LOD0-POSITION-array" count="49" stride="3">
              <param name="X" type="float"/>
              <param name="Y" type="float"/>
              <param name="Z" type="float"/>
            </accessor>
          </technique_common>
        </source>
        <source id="SM_Chiton_02_LOD0-Normal0">
          <float_array id="SM_Chiton_02_LOD0-Normal0-array" count="720">
-0.521587 0.038165 0.852344
-0.495531 0.307871 0.812198
-0.579598 0.034210 0.814184
-0.564145 -0.243437 0.788973
-0.521587 0.038165 0.852344
-0.579598 0.034210 0.814184
-0.505328 -0.229698 0.831795
-0.521587 0.038165 0.852344
-0.564145 -0.243437 0.788973
-0.440811 -0.505327 0.741843
-0.505328 -0.229698 0.831795
-0.564145 -0.243437 0.788973
-0.392200 -0.472416 0.789305
-0.505328 -0.229698 0.831795
-0.440811 -0.505327 0.741843
-0.253295 -0.709006 0.658143
-0.392200 -0.472416 0.789305
-0.440811 -0.505327 0.741843
-0.227833 -0.648286 0.726511
-0.392200 -0.472416 0.789305
-0.253295 -0.709006 0.658143
-0.085002 -0.802114 0.591091
-0.227833 -0.648286 0.726511
-0.253295 -0.709006 0.658143
-0.075272 -0.724386 0.685273
-0.227833 -0.648286 0.726511
-0.085002 -0.802114 0.591091
0.073338 -0.822358 0.564223
-0.075272 -0.724386 0.685273
-0.085002 -0.802114 0.591091
0.069439 -0.724697 0.685560
-0.075272 -0.724386 0.685273
0.073338 -0.822358 0.564223
0.298262 -0.607276 0.736380
0.069439 -0.724697 0.685560
0.073338 -0.822358 0.564223
0.356984 -0.713015 0.603467
0.298262 -0.607276 0.736380
0.073338 -0.822358 0.564223
0.522851 -0.350821 0.776886
0.298262 -0.607276 0.736380
0.356984 -0.713015 0.603467
0.647787 -0.413289 0.639971
0.522851 -0.350821 0.776886
0.356984 -0.713015 0.603467
0.606492 -0.069341 0.792060
0.522851 -0.350821 0.776886
0.647787 -0.413289 0.639971
0.751734 -0.085044 0.653960
0.606492 -0.069341 0.792060
0.647787 -0.413289 0.639971
0.562764 0.224114 0.795657
0.606492 -0.069341 0.792060
0.751734 -0.085044 0.653960
0.701427 0.253367 0.666187
0.562764 0.224114 0.795657
0.751734 -0.085044 0.653960
0.493337 0.569536 0.657455
0.562764 0.224114 0.795657
0.701427 0.253367 0.666187
0.402094 0.486232 0.775822
0.562764 0.224114 0.795657
0.493337 0.569536 0.657455
0.216079 0.742078 0.634532
0.402094 0.486232 0.775822
0.493337 0.569536 0.657455
0.188756 0.640630 0.744288
0.402094 0.486232 0.775822
0.216079 0.742078 0.634532
0.002933 0.687289 0.726378
0.188756 0.640630 0.744288
0.216079 0.742078 0.634532
-0.004888 0.773074 0.634297
0.002933 0.687289 0.726378
0.216079 0.742078 0.634532
-0.137747 0.647714 0.749328
0.002933 0.687289 0.726378
-0.004888 0.773074 0.634297
-0.157427 0.710891 0.685457
-0.137747 0.647714 0.749328
-0.004888 0.773074 0.634297
-0.296259 0.511384 0.806671
-0.137747 0.647714 0.749328
-0.157427 0.710891 0.685457
-0.331331 0.546362 0.769226
-0.296259 0.511384 0.806671
-0.157427 0.710891 0.685457
-0.444652 0.296117 0.845340
-0.296259 0.511384 0.806671
-0.331331 0.546362 0.769226
-0.495531 0.307871 0.812198
-0.444652 0.296117 0.845340
-0.331331 0.546362 0.769226
-0.521587 0.038165 0.852344
-0.444652 0.296117 0.845340
-0.495531 0.307871 0.812198
-0.306105 0.028361 0.951575
-0.444652 0.296117 0.845340
-0.521587 0.038165 0.852344
-0.505328 -0.229698 0.831795
-0.306105 0.028361 0.951575
-0.521587 0.038165 0.852344
-0.292278 -0.157381 0.943295
-0.306105 0.028361 0.951575
-0.505328 -0.229698 0.831795
-0.392200 -0.472416 0.789305
-0.292278 -0.157381 0.943295
-0.505328 -0.229698 0.831795
-0.227892 -0.312006 0.922344
-0.292278 -0.157381 0.943295
-0.392200 -0.472416 0.789305
-0.227833 -0.648286 0.726511
-0.227892 -0.312006 0.922344
-0.392200 -0.472416 0.789305
-0.133956 -0.413610 0.900546
-0.227892 -0.312006 0.922344
-0.227833 -0.648286 0.726511
-0.075272 -0.724386 0.685273
-0.133956 -0.413610 0.900546
-0.227833 -0.648286 0.726511
-0.042078 -0.451123 0.891469
-0.133956 -0.413610 0.900546
-0.075272 -0.724386 0.685273
0.069439 -0.724697 0.685560
-0.042078 -0.451123 0.891469
-0.075272 -0.724386 0.685273
0.047886 -0.432968 0.900137
-0.042078 -0.451123 0.891469
0.069439 -0.724697 0.685560
0.157320 -0.344932 0.925350
0.047886 -0.432968 0.900137
0.069439 -0.724697 0.685560
0.298262 -0.607276 0.736380
0.157320 -0.344932 0.925350
0.069439 -0.724697 0.685560
0.253461 -0.200616 0.946314
0.157320 -0.344932 0.925350
0.298262 -0.607276 0.736380
0.522851 -0.350821 0.776886
0.253461 -0.200616 0.946314
0.298262 -0.607276 0.736380
0.294280 -0.032264 0.955175
0.253461 -0.200616 0.946314
0.522851 -0.350821 0.776886
0.606492 -0.069341 0.792060
0.294280 -0.032264 0.955175
0.522851 -0.350821 0.776886
0.562764 0.224114 0.795657
0.294280 -0.032264 0.955175
0.606492 -0.069341 0.792060
0.274658 0.141728 0.951039
0.294280 -0.032264 0.955175
0.562764 0.224114 0.795657
0.402094 0.486232 0.775822
0.274658 0.141728 0.951039
0.562764 0.224114 0.795657
0.206160 0.288253 0.935098
0.274658 0.141728 0.951039
0.402094 0.486232 0.775822
0.188756 0.640630 0.744288
0.206160 0.288253 0.935098
0.402094 0.486232 0.775822
0.110412 0.382055 0.917520
0.206160 0.288253 0.935098
0.188756 0.640630 0.744288
0.002933 0.687289 0.726378
0.110412 0.382055 0.917520
0.188756 0.640630 0.744288
0.014645 0.424768 0.905184
0.110412 0.382055 0.917520
0.002933 0.687289 0.726378
-0.075292 0.415573 0.906438
0.014645 0.424768 0.905184
0.002933 0.687289 0.726378
-0.137747 0.647714 0.749328
-0.075292 0.415573 0.906438
0.002933 0.687289 0.726378
-0.169063 0.339103 0.925434
-0.075292 0.415573 0.906438
-0.137747 0.647714 0.749328
-0.296259 0.511384 0.806671
-0.169063 0.339103 0.925434
-0.137747 0.647714 0.749328
-0.259220 0.204438 0.943933
-0.169063 0.339103 0.925434
-0.296259 0.511384 0.806671
-0.444652 0.296117 0.845340
-0.259220 0.204438 0.943933
-0.296259 0.511384 0.806671
-0.306105 0.028361 0.951575
-0.259220 0.204438 0.943933
-0.444652 0.296117 0.845340
0.000978 -0.000979 0.999999
-0.259220 0.204438 0.943933
-0.306105 0.028361 0.951575
0.000978 -0.000979 0.999999
-0.169063 0.339103 0.925434
-0.259220 0.204438 0.943933
0.000978 -0.000979 0.999999
-0.075292 0.415573 0.906438
-0.169063 0.339103 0.925434
0.000978 -0.000979 0.999999
0.014645 0.424768 0.905184
-0.075292 0.415573 0.906438
0.000978 -0.000979 0.999999
0.110412 0.382055 0.917520
0.014645 0.424768 0.905184
0.000978 -0.000979 0.999999
0.206160 0.288253 0.935098
0.110412 0.382055 0.917520
0.000978 -0.000979 0.999999
0.274658 0.141728 0.951039
0.206160 0.288253 0.935098
0.000978 -0.000979 0.999999
0.294280 -0.032264 0.955175
0.274658 0.141728 0.951039
0.000978 -0.000979 0.999999
0.253461 -0.200616 0.946314
0.294280 -0.032264 0.955175
0.000978 -0.000979 0.999999
0.157320 -0.344932 0.925350
0.253461 -0.200616 0.946314
0.000978 -0.000979 0.999999
0.047886 -0.432968 0.900137
0.157320 -0.344932 0.925350
0.000978 -0.000979 0.999999
-0.042078 -0.451123 0.891469
0.047886 -0.432968 0.900137
0.000978 -0.000979 0.999999
-0.133956 -0.413610 0.900546
-0.042078 -0.451123 0.891469
0.000978 -0.000979 0.999999
-0.227892 -0.312006 0.922344
-0.133956 -0.413610 0.900546
0.000978 -0.000979 0.999999
-0.292278 -0.157381 0.943295
-0.227892 -0.312006 0.922344
-0.306105 0.028361 0.951575
-0.292278 -0.157381 0.943295
0.000978 -0.000979 0.999999
</float_array>
          <technique_common>
            <accessor source="#SM_Chiton_02_LOD0-Normal0-array" count="240" stride="3">
              <param name="X" type="float"/>
              <param name="Y" type="float"/>
              <param name="Z" type="float"/>
            </accessor>
          </technique_common>
        </source>
        <source id="SM_Chiton_02_LOD0-UV0">
          <float_array id="SM_Chiton_02_LOD0-UV0-array" count="98">
0.278564 0.891052
0.265869 0.895264
0.279541 0.904541
0.292236 0.893250
0.290283 0.906128
0.302979 0.900085
0.299316 0.911987
0.311279 0.916504
0.306396 0.924255
0.314941 0.934082
0.309082 0.937317
0.315186 0.951569
0.309326 0.951477
0.305908 0.967804
0.311523 0.971832
0.295898 0.977325
0.299316 0.985107
0.285645 0.980560
0.285889 0.989166
0.274902 0.979721
0.272461 0.988220
0.259033 0.978943
0.264404 0.972870
0.250244 0.961243
0.257080 0.959229
0.254639 0.943787
0.247314 0.941589
0.257568 0.927490
0.250732 0.919922
0.261719 0.914978
0.256104 0.904114
0.269775 0.907654
0.281250 0.919434
0.287598 0.920532
0.293213 0.924866
0.297363 0.931763
0.299316 0.940186
0.298584 0.948914
0.295654 0.956787
0.290771 0.962219
0.284668 0.964478
0.278320 0.963470
0.272705 0.959106
0.268799 0.951965
0.266846 0.943481
0.267334 0.934814
0.270264 0.927185
0.275146 0.921814
0.282959 0.942383
</float_array>
          <technique_common>
            <accessor source="#SM_Chiton_02_LOD0-UV0-array" count="49" stride="2">
              <param name="S" type="float"/>
              <param name="T" type="float"/>
            </accessor>
          </technique_common>
        </source>
        <vertices id="SM_Chiton_02_LOD0-VERTEX">
          <input semantic="POSITION" source="#SM_Chiton_02_LOD0-POSITION"/>
        </vertices>
        <triangles count="80" material="MAT_Sea_Shells">
          <input semantic="VERTEX" offset="0" source="#SM_Chiton_02_LOD0-VERTEX"/>
          <input semantic="NORMAL" offset="1" source="#SM_Chiton_02_LOD0-Normal0"/>
          <input semantic="TEXCOORD" offset="2" set="0" source="#SM_Chiton_02_LOD0-UV0"/>
          <p> 24 0 2 23 1 1 0 2 0 2 3 3 24 4 2 0 5 0 1 6 4 24 7 2 2 8 3 3 9 5 1 10 4 2 11 3 25 12 6 1 13 4 3 14 5 4 15 7 25 16 6 3 17 5 5 18 8 25 19 6 4 20 7 6 21 9 5 22 8 4 23 7 7 24 10 5 25 8 6 26 9 8 27 11 7 28 10 6 29 9 26 30 12 7 31 10 8 32 11 27 33 13 26 34 12 8 35 11 9 36 14 27 37 13 8 38 11 28 39 15 27 40 13 9 41 14 10 42 16 28 43 15 9 44 14 12 45 17 28 46 15 10 47 16 11 48 18 12 49 17 10 50 16 14 51 19 12 52 17 11 53 18 13 54 20 14 55 19 11 56 18 15 57 21 14 58 19 13 59 20 32 60 22 14 61 19 15 62 21 17 63 23 32 64 22 15 65 21 16 66 24 32 67 22 17 68 23 36 69 25 16 70 24 17 71 23 18 72 26 36 73 25 17 74 23 19 75 27 36 76 25 18 77 26 20 78 28 19 79 27 18 80 26 38 81 29 19 82 27 20 83 28 21 84 30 38 85 29 20 86 28 22 87 31 38 88 29 21 89 30 23 90 1 22 91 31 21 92 30 24 93 2 22 94 31 23 95 1 48 96 32 22 97 31 24 98 2 1 99 4 48 100 32 24 101 2 47 102 33 48 103 32 1 104 4 25 105 6 47 106 33 1 107 4 46 108 34 47 109 33 25 110 6 5 111 8 46 112 34 25 113 6 45 114 35 46 115 34 5 116 8 7 117 10 45 118 35 5 119 8 44 120 36 45 121 35 7 122 10 26 123 12 44 124 36 7 125 10 43 126 37 44 127 36 26 128 12 42 129 38 43 130 37 26 131 12 27 132 13 42 133 38 26 134 12 29 135 39 42 136 38 27 137 13 28 138 15 29 139 39 27 140 13 30 141 40 29 142 39 28 143 15 12 144 17 30 145 40 28 146 15 14 147 19 30 148 40 12 149 17 31 150 41 30 151 40 14 152 19 32 153 22 31 154 41 14 155 19 33 156 42 31 157 41 32 158 22 16 159 24 33 160 42 32 161 22 34 162 43 33 163 42 16 164 24 36 165 25 34 166 43 16 167 24 35 168 44 34 169 43 36 170 25 40 171 45 35 172 44 36 173 25 19 174 27 40 175 45 36 176 25 37 177 46 40 178 45 19 179 27 38 180 29 37 181 46 19 182 27 39 183 47 37 184 46 38 185 29 22 186 31 39 187 47 38 188 29 48 189 32 39 190 47 22 191 31 41 192 48 39 193 47 48 194 32 41 195 48 37 196 46 39 197 47 41 198 48 40 199 45 37 200 46 41 201 48 35 202 44 40 203 45 41 204 48 34 205 43 35 206 44 41 207 48 33 208 42 34 209 43 41 210 48 31 211 41 33 212 42 41 213 48 30 214 40 31 215 41 41 216 48 29 217 39 30 218 40 41 219 48 42 220 38 29 221 39 41 222 48 43 223 37 42 224 38 41 225 48 44 226 36 43 227 37 41 228 48 45 229 35 44 230 36 41 231 48 46 232 34 45 233 35 41 234 48 47 235 33 46 236 34 48 237 32 47 238 33 41 239 48</p>
        </triangles>
      </mesh>
    </geometry>
    <geometry id="SM_Chiton_02_LOD1-lib" name="SM_Chiton_02_LOD1Mesh">
      <mesh>
        <source id="SM_Chiton_02_LOD1-POSITION">
          <float_array id="SM_Chiton_02_LOD1-POSITION-array" count="75">
4.771500 0.468216 0.000001
-3.889679 2.146286 0.000001
3.125908 -2.931976 0.000001
2.450417 -0.296249 1.680630
-3.851006 -2.079880 0.000001
2.081436 3.110321 0.000001
-0.988930 -1.366837 1.627823
0.437019 -3.282059 0.000001
-0.531662 1.437027 1.613830
1.159454 -2.812134 0.719172
-4.754471 -0.047134 0.000001
3.825188 2.238861 0.000001
3.884918 -1.093567 0.841263
-2.076408 0.039795 1.680630
-1.039825 3.151489 0.000001
0.229233 -0.131012 2.014406
4.020569 0.696701 0.833921
1.601700 1.076462 1.629757
1.417847 2.601334 0.710945
4.433594 -1.729980 0.000001
2.797318 -2.428116 0.777741
1.674835 -1.395844 1.641778
-2.327461 -2.920883 0.000001
-3.472855 -0.849915 0.833921
3.319267 1.756699 0.777741
</float_array>
          <technique_common>
            <accessor source="#SM_Chiton_02_LOD1-POSITION-array" count="25" stride="3">
              <param name="X" type="float"/>
              <param name="Y" type="float"/>
              <param name="Z" type="float"/>
            </accessor>
          </technique_common>
        </source>
        <source id="SM_Chiton_02_LOD1-Normal0">
          <float_array id="SM_Chiton_02_LOD1-Normal0-array" count="333">
0.157875 -0.364848 0.917585
-0.170944 -0.422605 0.890047
0.066626 -0.759247 0.647384
0.606281 0.197630 0.770302
0.316804 -0.030663 0.947995
0.581801 -0.246505 0.775077
-0.402531 0.383997 0.830973
-0.113560 0.450095 0.885730
-0.139790 0.672599 0.726684
-0.337674 0.054470 0.939686
-0.113560 0.450095 0.885730
-0.402531 0.383997 0.830973
0.096555 0.670435 0.735659
0.177157 0.341650 0.922979
0.399101 0.485959 0.777536
0.066626 -0.759247 0.647384
-0.170944 -0.422605 0.890047
-0.235417 -0.610266 0.756409
-0.442873 -0.435306 0.783819
-0.499299 -0.231317 0.834981
-0.576849 0.021813 0.816559
0.581801 -0.246505 0.775077
0.316804 -0.030663 0.947995
0.336302 -0.599078 0.726640
-0.002694 -0.007757 0.999966
-0.113560 0.450095 0.885730
-0.337674 0.054470 0.939686
0.177157 0.341650 0.922979
0.316804 -0.030663 0.947995
0.606281 0.197630 0.770302
0.359651 -0.685853 0.632659
0.336302 -0.599078 0.726640
-0.033014 -0.812380 0.582194
0.066626 -0.759247 0.647384
-0.235417 -0.610266 0.756409
-0.033014 -0.812380 0.582194
-0.337674 0.054470 0.939686
-0.402531 0.383997 0.830973
-0.576849 0.021813 0.816559
0.399101 0.485959 0.777536
0.177157 0.341650 0.922979
0.606281 0.197630 0.770302
0.767252 0.109514 0.631927
0.581801 -0.246505 0.775077
0.624710 -0.370222 0.687512
0.581801 -0.246505 0.775077
0.336302 -0.599078 0.726640
0.359651 -0.685853 0.632659
-0.337674 0.054470 0.939686
-0.170944 -0.422605 0.890047
-0.002694 -0.007757 0.999966
-0.442873 -0.435306 0.783819
-0.170944 -0.422605 0.890047
-0.499299 -0.231317 0.834981
-0.139790 0.672599 0.726684
-0.113560 0.450095 0.885730
0.096555 0.670435 0.735659
-0.002694 -0.007757 0.999966
0.316804 -0.030663 0.947995
0.177157 0.341650 0.922979
-0.002694 -0.007757 0.999966
-0.170944 -0.422605 0.890047
0.157875 -0.364848 0.917585
0.517120 0.561008 0.646419
0.606281 0.197630 0.770302
0.767252 0.109514 0.631927
0.606281 0.197630 0.770302
0.581801 -0.246505 0.775077
0.767252 0.109514 0.631927
-0.113560 0.450095 0.885730
0.177157 0.341650 0.922979
0.096555 0.670435 0.735659
-0.002694 -0.007757 0.999966
0.177157 0.341650 0.922979
-0.113560 0.450095 0.885730
0.096555 0.670435 0.735659
0.399101 0.485959 0.777536
0.198324 0.717460 0.667771
-0.139790 0.672599 0.726684
0.096555 0.670435 0.735659
0.198324 0.717460 0.667771
0.624710 -0.370222 0.687512
0.581801 -0.246505 0.775077
0.359651 -0.685853 0.632659
0.336302 -0.599078 0.726640
0.157875 -0.364848 0.917585
0.066626 -0.759247 0.647384
0.336302 -0.599078 0.726640
0.066626 -0.759247 0.647384
-0.033014 -0.812380 0.582194
-0.002694 -0.007757 0.999966
0.157875 -0.364848 0.917585
0.316804 -0.030663 0.947995
0.316804 -0.030663 0.947995
0.157875 -0.364848 0.917585
0.336302 -0.599078 0.726640
-0.235417 -0.610266 0.756409
-0.170944 -0.422605 0.890047
-0.442873 -0.435306 0.783819
-0.499299 -0.231317 0.834981
-0.337674 0.054470 0.939686
-0.576849 0.021813 0.816559
-0.170944 -0.422605 0.890047
-0.337674 0.054470 0.939686
-0.499299 -0.231317 0.834981
0.198324 0.717460 0.667771
0.399101 0.485959 0.777536
0.517120 0.561008 0.646419
0.399101 0.485959 0.777536
0.606281 0.197630 0.770302
0.517120 0.561008 0.646419
</float_array>
          <technique_common>
            <accessor source="#SM_Chiton_02_LOD1-Normal0-array" count="111" stride="3">
              <param name="X" type="float"/>
              <param name="Y" type="float"/>
              <param name="Z" type="float"/>
            </accessor>
          </technique_common>
        </source>
        <source id="SM_Chiton_02_LOD1-UV0">
          <float_array id="SM_Chiton_02_LOD1-UV0-array" count="50">
0.259935 0.900642
0.295362 0.930260
0.311523 0.971832
0.302979 0.900085
0.276932 0.988535
0.281250 0.919434
0.250244 0.961243
0.284668 0.964478
0.299316 0.985107
0.282359 0.891662
0.267334 0.934814
0.315088 0.944571
0.259033 0.978943
0.282959 0.942383
0.292584 0.978371
0.311279 0.916504
0.256272 0.954116
0.309326 0.951477
0.274902 0.979721
0.249209 0.929579
0.271025 0.956035
0.305908 0.967804
0.264404 0.972870
0.295654 0.956787
0.290283 0.906128
</float_array>
          <technique_common>
            <accessor source="#SM_Chiton_02_LOD1-UV0-array" count="25" stride="2">
              <param name="S" type="float"/>
              <param name="T" type="float"/>
            </accessor>
          </technique_common>
        </source>
        <vertices id="SM_Chiton_02_LOD1-VERTEX">
          <input semantic="POSITION" source="#SM_Chiton_02_LOD1-POSITION"/>
        </vertices>
        <triangles count="37" material="MAT_Sea_Shells">
          <input semantic="VERTEX" offset="0" source="#SM_Chiton_02_LOD1-VERTEX"/>
          <input semantic="NORMAL" offset="1" source="#SM_Chiton_02_LOD1-Normal0"/>
          <input semantic="TEXCOORD" offset="2" set="0" source="#SM_Chiton_02_LOD1-UV0"/>
          <p> 21 0 23 6 1 1 9 2 17 16 3 18 3 4 7 12 5 14 1 6 0 8 7 10 14 8 19 13 9 5 8 10 10 1 11 0 18 12 16 17 13 20 24 14 22 9 15 17 6 16 1 22 17 15 4 18 3 23 19 24 10 20 9 12 21 14 3 22 7 20 23 21 15 24 13 8 25 10 13 26 5 17 27 20 3 28 7 16 29 18 2 30 2 20 31 21 7 32 11 9 33 17 22 34 15 7 35 11 13 36 5 1 37 0 10 38 9 24 39 22 17 40 20 16 41 18 0 42 4 12 43 14 19 44 8 12 45 14 20 46 21 2 47 2 13 48 5 6 49 1 15 50 13 4 51 3 6 52 1 23 53 24 14 54 19 8 55 10 18 56 16 15 57 13 3 58 7 17 59 20 15 60 13 6 61 1 21 62 23 11 63 12 16 64 18 0 65 4 16 66 18 12 67 14 0 68 4 8 69 10 17 70 20 18 71 16 15 72 13 17 73 20 8 74 10 18 75 16 24 76 22 5 77 6 14 78 19 18 79 16 5 80 6 19 81 8 12 82 14 2 83 2 20 84 21 21 85 23 9 86 17 20 87 21 9 88 17 7 89 11 15 90 13 21 91 23 3 92 7 3 93 7 21 94 23 20 95 21 22 96 15 6 97 1 4 98 3 23 99 24 13 100 5 10 101 9 6 102 1 13 103 5 23 104 24 5 105 6 24 106 22 11 107 12 24 108 22 16 109 18 11 110 12</p>
        </triangles>
      </mesh>
    </geometry>
  </library_geometries>
  <library_visual_scenes>
    <visual_scene id="SM_Chiton_02" name="SM_Chiton_02">
      <node name="SM_Chiton_02_LOD0" id="SM_Chiton_02_LOD0" layer="shells" sid="SM_Chiton_02_LOD0">
        <matrix sid="matrix">1.000000 0.000000 0.000000 0.000000 0.000000 0.000000 1.000000 0.000000 0.000000 -1.000000 0.000000 0.000000 0.000000 0.000000 0.000000 1.000000</matrix>
        <instance_geometry url="#SM_Chiton_02_LOD0-lib">
          <bind_material>
            <technique_common>
              <instance_material symbol="MAT_Sea_Shells" target="#MAT_Sea_Shells"/>
            </technique_common>
          </bind_material>
        </instance_geometry>
        <extra>
          <technique profile="FCOLLADA">
            <visibility>1.000000</visibility>
          </technique>
        </extra>
      </node>
      <node name="SM_Chiton_02_LOD1" id="SM_Chiton_02_LOD1" layer="shells" sid="SM_Chiton_02_LOD1">
        <matrix sid="matrix">1.000000 0.000000 0.000000 0.000000 0.000000 0.000000 1.000000 0.000000 0.000000 -1.000000 0.000000 0.000000 0.000000 0.000000 0.000000 1.000000</matrix>
        <instance_geometry url="#SM_Chiton_02_LOD1-lib">
          <bind_material>
            <technique_common>
              <instance_material symbol="MAT_Sea_Shells" target="#MAT_Sea_Shells"/>
            </technique_common>
          </bind_material>
        </instance_geometry>
        <extra>
          <technique profile="FCOLLADA">
            <visibility>1.000000</visibility>
          </technique>
        </extra>
      </node>
      <extra>
        <technique profile="MAX3D">
          <frame_rate>30.000000</frame_rate>
        </technique>
        <technique profile="FCOLLADA">
          <start_time>0.000000</start_time>
          <end_time>3.333333</end_time>
        </technique>
      </extra>
    </visual_scene>
  </library_visual_scenes>
  <scene>
    <instance_visual_scene url="#SM_Chiton_02"/>
  </scene>
</COLLADA>
