<?xml version="1.0" encoding="utf-8"?>
<COLLADA xmlns="http://www.collada.org/2005/11/COLLADASchema" version="1.4.1">
  <asset>
    <contributor>
      <author/>
      <authoring_tool>FBX COLLADA exporter</authoring_tool>
      <comments/>
    </contributor>
    <created>2024-02-10T11:42:33Z</created>
    <keywords/>
    <modified>2024-02-10T11:42:33Z</modified>
    <revision/>
    <subject/>
    <title/>
    <unit meter="0.010000" name="centimeter"/>
    <up_axis>Y_UP</up_axis>
  </asset>
  <library_materials>
    <material id="MAT_Sea_Shells" name="MAT_Sea_Shells">
      <instance_effect url="#MAT_Sea_Shells-fx"/>
    </material>
  </library_materials>
  <library_effects>
    <effect id="MAT_Sea_Shells-fx" name="MAT_Sea_Shells">
      <profile_COMMON>
        <technique sid="standard">
          <phong>
            <emission>
              <color sid="emission">0.000000  0.000000 0.000000 1.000000</color>
            </emission>
            <ambient>
              <color sid="ambient">0.588235  0.588235 0.588235 1.000000</color>
            </ambient>
            <diffuse>
              <color sid="diffuse">0.588235  0.588235 0.588235 1.000000</color>
            </diffuse>
            <specular>
              <color sid="specular">0.000000  0.000000 0.000000 1.000000</color>
            </specular>
            <shininess>
              <float sid="shininess">2.000000</float>
            </shininess>
            <reflective>
              <color sid="reflective">0.000000  0.000000 0.000000 1.000000</color>
            </reflective>
            <reflectivity>
              <float sid="reflectivity">1.000000</float>
            </reflectivity>
            <transparent opaque="RGB_ZERO">
              <color sid="transparent">1.000000  1.000000 1.000000 1.000000</color>
            </transparent>
            <transparency>
              <float sid="transparency">0.000000</float>
            </transparency>
          </phong>
        </technique>
      </profile_COMMON>
    </effect>
  </library_effects>
  <library_geometries>
    <geometry id="SM_Chiton_04_LOD0-lib" name="SM_Chiton_04_LOD0Mesh">
      <mesh>
        <source id="SM_Chiton_04_LOD0-POSITION">
          <float_array id="SM_Chiton_04_LOD0-POSITION-array" count="537">
-1.650742 -25.305161 0.000007
-1.408836 -21.934052 0.236288
5.549828 -24.595718 0.000007
12.684669 -20.156815 0.000007
16.000648 -13.251190 0.000006
16.062416 -3.511688 0.000005
15.529518 5.302231 0.000004
14.786621 -2.899673 0.033391
14.363884 4.724579 0.064452
12.626350 13.532318 0.137663
7.433548 19.190735 0.207886
13.864746 14.412262 0.000002
8.444458 21.612076 0.000002
1.831558 25.305161 0.000001
-4.737061 24.386230 0.000001
-4.161324 21.407623 0.207883
-11.406151 21.418839 0.000002
-15.511978 10.181580 0.000003
-16.062416 0.273376 0.000004
-14.720757 0.407928 0.033387
-15.014717 -11.597549 0.000006
-13.540771 -18.752792 0.000006
-11.696312 -16.347229 0.137666
-7.115623 -20.310577 0.207891
-8.086411 -23.697479 0.000007
4.901543 -21.038101 0.207891
11.382729 -17.186401 0.137666
4.264885 -18.704300 1.555015
9.803062 -15.046219 1.406058
14.219086 -11.025330 0.064454
12.534180 -9.498856 1.250760
10.948853 12.363678 1.406055
1.644058 18.983704 1.615244
1.633385 21.792740 0.236283
-10.005486 18.155869 0.137662
-14.272995 8.855743 0.064451
-13.636955 -9.616623 0.064453
-12.228867 -8.091827 1.250760
-1.227043 -19.704498 1.615249
7.900566 -12.681320 3.924769
10.767181 -7.652893 3.586945
13.285515 -2.393799 1.184877
12.997467 4.474274 1.250759
9.418953 11.591980 3.924767
6.731895 16.849304 1.555010
-3.684883 18.797913 1.555010
-8.882576 15.839264 1.406054
-3.200157 16.107101 4.248808
-12.716171 7.950989 1.250758
-11.994316 1.152588 3.443632
-13.247192 0.626526 1.184876
-10.977623 -6.071823 3.586945
-8.876030 -11.419418 3.924769
-10.315125 -14.105209 1.406058
-5.379807 -15.655655 4.248813
-6.268600 -17.995667 1.555015
-1.023338 -17.749329 4.379836
3.536278 -16.416107 4.248813
-0.864479 -13.579651 7.698790
2.555038 -12.777100 7.568508
11.978050 -1.678192 3.443632
6.707619 7.945389 7.325140
11.921043 4.554611 3.586944
5.849884 14.650406 4.248809
0.924820 10.808609 7.686737
1.533089 15.880707 4.379832
-2.442322 10.680313 7.527303
-7.775620 13.419373 3.924766
-11.231133 7.435013 3.586943
-8.111748 -4.126343 7.095788
-4.033646 -11.868591 7.615927
-0.608238 -8.048065 10.263656
1.332947 -7.812515 10.154000
5.956612 -9.642914 7.325141
7.876488 -5.766266 7.095788
4.240433 -3.343491 9.912035
4.354729 -0.433823 9.868775
8.546196 -1.067932 6.998856
4.175667 2.012924 9.910480
8.346825 3.483658 7.095788
3.352432 4.058838 9.779968
3.994865 9.815018 7.614695
1.994797 6.210342 9.542799
-5.639313 9.397110 7.301792
-8.027260 5.619080 7.095788
-4.124756 2.802979 9.835247
-4.644272 0.507339 9.868775
-8.715263 0.898239 6.998856
-4.478920 -1.906128 9.912034
-6.577377 -8.039139 7.325141
-3.654510 -4.018250 10.015459
-2.297852 -6.919647 10.233803
-2.996208 4.490112 9.512161
-1.437981 6.534393 9.413211
0.315224 6.655411 9.582320
3.407112 -5.661713 10.015459
0.385132 -0.436432 11.494486
-5.828911 16.885925 2.121053
-7.867592 15.655533 2.222875
-5.630257 15.742218 3.298394
-3.899940 17.985901 2.171768
-4.956924 18.622192 1.296320
-3.704399 20.600616 1.048782
-4.422707 20.259842 1.135996
-5.081642 21.977966 0.500980
-5.489265 21.549820 0.835991
-7.125725 22.029587 0.511131
-7.198662 22.730331 0.036032
-9.056961 22.319458 0.009296
-8.654350 21.289932 0.317837
-9.996696 20.672150 0.062696
-9.207458 20.352661 0.434410
-9.532104 19.134583 0.394321
-10.981071 18.279694 0.083460
-9.068825 17.519989 0.778251
-9.746887 16.618042 0.850221
-7.702843 16.529083 1.432213
-7.382057 17.547424 1.639539
-6.094185 17.833252 1.765135
-5.387215 19.013336 1.761303
-5.007591 20.255951 1.695961
-5.769890 21.254974 1.525162
-7.153145 21.518906 1.265285
-8.208260 21.020126 1.078686
-8.626526 20.338226 1.066027
-9.107521 19.303329 1.041338
-8.690155 18.101532 1.291447
-8.441231 18.530518 1.717876
-8.720436 19.500931 1.465628
-8.260246 20.392609 1.483044
-7.883614 20.979065 1.521046
-6.861305 21.218964 1.774519
-6.085358 21.091171 1.918194
-5.621376 20.547363 2.023256
-5.916039 19.568329 2.075481
-6.394981 18.892944 2.065185
-7.242958 18.547882 2.065893
-7.282143 20.129852 2.279264
-3.700432 -14.133469 6.252832
-2.805435 -15.242340 5.614516
-2.788116 -13.979538 6.586654
-4.226555 -12.707199 6.914964
-4.739372 -13.348389 6.162869
-5.885628 -12.190887 5.908540
-5.778282 -12.768478 5.942451
-6.683090 -12.765778 4.912373
-6.603638 -13.213104 5.203606
-6.910820 -14.121490 4.451699
-7.130577 -13.893631 3.893028
-6.958015 -15.085022 3.380033
-6.438614 -15.149948 4.053429
-5.962791 -15.939545 3.523941
-5.848358 -15.618332 4.087723
-5.067680 -16.009430 4.284369
-4.281776 -16.808594 3.679194
-4.042564 -15.983780 4.894088
-3.353310 -16.283020 4.580235
-3.508057 -15.217957 5.684267
-4.222908 -15.144516 5.964001
-4.389122 -14.311890 6.343941
-5.139488 -13.705414 6.304078
-5.929985 -13.285767 6.122611
-6.581001 -13.604660 5.605889
-6.750511 -14.394348 5.007539
-6.419960 -15.089325 4.697738
-5.983269 -15.442337 4.708941
-5.313095 -15.877808 4.765575
-4.560532 -15.826553 5.274819
-4.933479 -15.718903 5.520059
-5.527092 -15.710510 5.094204
-6.101776 -15.304916 5.055840
-6.482971 -14.997299 5.067530
-6.659462 -14.373383 5.460673
-6.577248 -13.927277 5.791005
-6.223732 -13.725250 6.093364
-5.600883 -14.053177 6.238061
-5.171524 -14.444931 6.232438
-4.977852 -15.034225 6.064626
-6.074608 -14.910400 5.869090
</float_array>
          <technique_common>
            <accessor source="#SM_Chiton_04_LOD0-POSITION-array" count="179" stride="3">
              <param name="X" type="float"/>
              <param name="Y" type="float"/>
              <param name="Z" type="float"/>
            </accessor>
          </technique_common>
        </source>
        <source id="SM_Chiton_04_LOD0-Normal0">
          <float_array id="SM_Chiton_04_LOD0-Normal0-array" count="2844">
-0.020540 -0.286674 0.957808
-0.030327 -0.049782 0.998300
-0.004888 -0.063515 0.997969
0.020552 -0.053787 0.998341
-0.020540 -0.286674 0.957808
-0.004888 -0.063515 0.997969
0.098753 -0.257302 0.961272
-0.020540 -0.286674 0.957808
0.020552 -0.053787 0.998341
0.036144 -0.028419 0.998942
0.098753 -0.257302 0.961272
0.020552 -0.053787 0.998341
0.198364 -0.164986 0.966142
0.098753 -0.257302 0.961272
0.036144 -0.028419 0.998942
0.038147 -0.006866 0.999249
0.198364 -0.164986 0.966142
0.036144 -0.028419 0.998942
0.282479 -0.065517 0.957034
0.198364 -0.164986 0.966142
0.038147 -0.006866 0.999249
0.036240 0.000978 0.999343
0.282479 -0.065517 0.957034
0.038147 -0.006866 0.999249
0.335503 -0.004888 0.942027
0.282479 -0.065517 0.957034
0.036240 0.000978 0.999343
0.059605 0.004911 0.998210
0.335503 -0.004888 0.942027
0.036240 0.000978 0.999343
0.350952 0.042009 0.935451
0.335503 -0.004888 0.942027
0.059605 0.004911 0.998210
0.296020 0.141621 0.944624
0.350952 0.042009 0.935451
0.059605 0.004911 0.998210
0.075245 0.032234 0.996644
0.296020 0.141621 0.944624
0.059605 0.004911 0.998210
0.182724 0.235367 0.954575
0.296020 0.141621 0.944624
0.075245 0.032234 0.996644
0.053787 0.061607 0.996650
0.182724 0.235367 0.954575
0.075245 0.032234 0.996644
0.049818 0.260735 0.964124
0.182724 0.235367 0.954575
0.053787 0.061607 0.996650
0.012708 0.067520 0.997637
0.049818 0.260735 0.964124
0.053787 0.061607 0.996650
-0.018597 0.057602 0.998166
0.049818 0.260735 0.964124
0.012708 0.067520 0.997637
-0.079203 0.243378 0.966692
0.049818 0.260735 0.964124
-0.018597 0.057602 0.998166
-0.038147 0.030327 0.998812
-0.079203 0.243378 0.966692
-0.018597 0.057602 0.998166
-0.210381 0.175095 0.961812
-0.079203 0.243378 0.966692
-0.038147 0.030327 0.998812
-0.043964 0.008774 0.998995
-0.210381 0.175095 0.961812
-0.038147 0.030327 0.998812
-0.310135 0.071430 0.948005
-0.210381 0.175095 0.961812
-0.043964 0.008774 0.998995
-0.036240 -0.000975 0.999343
-0.310135 0.071430 0.948005
-0.043964 0.008774 0.998995
-0.337219 -0.008798 0.941385
-0.310135 0.071430 0.948005
-0.036240 -0.000975 0.999343
-0.319862 -0.057697 0.945706
-0.337219 -0.008798 0.941385
-0.036240 -0.000975 0.999343
-0.043964 -0.004864 0.999021
-0.319862 -0.057697 0.945706
-0.036240 -0.000975 0.999343
-0.249195 -0.137901 0.958585
-0.319862 -0.057697 0.945706
-0.043964 -0.004864 0.999021
-0.047874 -0.022507 0.998600
-0.249195 -0.137901 0.958585
-0.043964 -0.004864 0.999021
-0.141764 -0.237465 0.960996
-0.249195 -0.137901 0.958585
-0.047874 -0.022507 0.998600
-0.030327 -0.049782 0.998300
-0.141764 -0.237465 0.960996
-0.047874 -0.022507 0.998600
-0.020540 -0.286674 0.957808
-0.141764 -0.237465 0.960996
-0.030327 -0.049782 0.998300
-0.047875 -0.639919 0.766949
-0.141764 -0.237465 0.960996
-0.020540 -0.286674 0.957808
0.098753 -0.257302 0.961272
-0.047875 -0.639919 0.766949
-0.020540 -0.286674 0.957808
0.250914 -0.565151 0.785905
-0.047875 -0.639919 0.766949
0.098753 -0.257302 0.961272
0.198364 -0.164986 0.966142
0.250914 -0.565151 0.785905
0.098753 -0.257302 0.961272
0.450421 -0.362492 0.815917
0.250914 -0.565151 0.785905
0.198364 -0.164986 0.966142
0.282479 -0.065517 0.957034
0.450421 -0.362492 0.815917
0.198364 -0.164986 0.966142
0.619223 -0.163365 0.768033
0.450421 -0.362492 0.815917
0.282479 -0.065517 0.957034
0.335503 -0.004888 0.942027
0.619223 -0.163365 0.768033
0.282479 -0.065517 0.957034
0.737383 -0.028324 0.674881
0.619223 -0.163365 0.768033
0.335503 -0.004888 0.942027
0.350952 0.042009 0.935451
0.737383 -0.028324 0.674881
0.335503 -0.004888 0.942027
0.756737 0.104427 0.645325
0.737383 -0.028324 0.674881
0.350952 0.042009 0.935451
0.626851 0.331498 0.705100
0.756737 0.104427 0.645325
0.350952 0.042009 0.935451
0.296020 0.141621 0.944624
0.626851 0.331498 0.705100
0.350952 0.042009 0.935451
0.368547 0.518989 0.771248
0.626851 0.331498 0.705100
0.296020 0.141621 0.944624
0.182724 0.235367 0.954575
0.368547 0.518989 0.771248
0.296020 0.141621 0.944624
0.104654 0.570296 0.814746
0.368547 0.518989 0.771248
0.182724 0.235367 0.954575
0.049818 0.260735 0.964124
0.104654 0.570296 0.814746
0.182724 0.235367 0.954575
-0.169038 0.544355 0.821647
0.104654 0.570296 0.814746
0.049818 0.260735 0.964124
-0.079203 0.243378 0.966692
-0.169038 0.544355 0.821647
0.049818 0.260735 0.964124
-0.210381 0.175095 0.961812
-0.169038 0.544355 0.821647
-0.079203 0.243378 0.966692
-0.474263 0.405789 0.781287
-0.169038 0.544355 0.821647
-0.210381 0.175095 0.961812
-0.310135 0.071430 0.948005
-0.474263 0.405789 0.781287
-0.210381 0.175095 0.961812
-0.687119 0.176906 0.704678
-0.474263 0.405789 0.781287
-0.310135 0.071430 0.948005
-0.337219 -0.008798 0.941385
-0.687119 0.176906 0.704678
-0.310135 0.071430 0.948005
-0.744148 -0.014669 0.667854
-0.687119 0.176906 0.704678
-0.337219 -0.008798 0.941385
-0.693421 -0.137902 0.707213
-0.744148 -0.014669 0.667854
-0.337219 -0.008798 0.941385
-0.319862 -0.057697 0.945706
-0.693421 -0.137902 0.707213
-0.337219 -0.008798 0.941385
-0.550558 -0.304128 0.777426
-0.693421 -0.137902 0.707213
-0.319862 -0.057697 0.945706
-0.249195 -0.137901 0.958585
-0.550558 -0.304128 0.777426
-0.319862 -0.057697 0.945706
-0.343225 -0.515362 0.785238
-0.550558 -0.304128 0.777426
-0.249195 -0.137901 0.958585
-0.141764 -0.237465 0.960996
-0.343225 -0.515362 0.785238
-0.249195 -0.137901 0.958585
-0.047875 -0.639919 0.766949
-0.343225 -0.515362 0.785238
-0.141764 -0.237465 0.960996
-0.061583 -0.696936 0.714484
-0.343225 -0.515362 0.785238
-0.047875 -0.639919 0.766949
0.250914 -0.565151 0.785905
-0.061583 -0.696936 0.714484
-0.047875 -0.639919 0.766949
0.335263 -0.618551 0.710628
-0.061583 -0.696936 0.714484
0.250914 -0.565151 0.785905
0.450421 -0.362492 0.815917
0.335263 -0.618551 0.710628
0.250914 -0.565151 0.785905
0.560527 -0.417713 0.715071
0.335263 -0.618551 0.710628
0.450421 -0.362492 0.815917
0.619223 -0.163365 0.768033
0.560527 -0.417713 0.715071
0.450421 -0.362492 0.815917
0.705142 -0.208329 0.677772
0.560527 -0.417713 0.715071
0.619223 -0.163365 0.768033
0.737383 -0.028324 0.674881
0.705142 -0.208329 0.677772
0.619223 -0.163365 0.768033
0.785928 -0.051749 0.616149
0.705142 -0.208329 0.677772
0.737383 -0.028324 0.674881
0.756737 0.104427 0.645325
0.785928 -0.051749 0.616149
0.737383 -0.028324 0.674881
0.787341 0.116394 0.605431
0.785928 -0.051749 0.616149
0.756737 0.104427 0.645325
0.626851 0.331498 0.705100
0.787341 0.116394 0.605431
0.756737 0.104427 0.645325
0.640948 0.366965 0.674183
0.787341 0.116394 0.605431
0.626851 0.331498 0.705100
0.364722 0.554450 0.748040
0.640948 0.366965 0.674183
0.626851 0.331498 0.705100
0.368547 0.518989 0.771248
0.364722 0.554450 0.748040
0.626851 0.331498 0.705100
0.100671 0.608915 0.786821
0.364722 0.554450 0.748040
0.368547 0.518989 0.771248
0.104654 0.570296 0.814746
0.100671 0.608915 0.786821
0.368547 0.518989 0.771248
-0.182913 0.585933 0.789446
0.100671 0.608915 0.786821
0.104654 0.570296 0.814746
-0.169038 0.544355 0.821647
-0.182913 0.585933 0.789446
0.104654 0.570296 0.814746
-0.474263 0.405789 0.781287
-0.182913 0.585933 0.789446
-0.169038 0.544355 0.821647
-0.512549 0.450036 0.731273
-0.182913 0.585933 0.789446
-0.474263 0.405789 0.781287
-0.687119 0.176906 0.704678
-0.512549 0.450036 0.731273
-0.474263 0.405789 0.781287
-0.736619 0.210381 0.642754
-0.512549 0.450036 0.731273
-0.687119 0.176906 0.704678
-0.798903 -0.008798 0.601395
-0.736619 0.210381 0.642754
-0.687119 0.176906 0.704678
-0.744148 -0.014669 0.667854
-0.798903 -0.008798 0.601395
-0.687119 0.176906 0.704678
-0.758279 -0.163367 0.631129
-0.798903 -0.008798 0.601395
-0.744148 -0.014669 0.667854
-0.693421 -0.137902 0.707213
-0.758279 -0.163367 0.631129
-0.744148 -0.014669 0.667854
-0.644686 -0.329687 0.689700
-0.758279 -0.163367 0.631129
-0.693421 -0.137902 0.707213
-0.550558 -0.304128 0.777426
-0.644686 -0.329687 0.689700
-0.693421 -0.137902 0.707213
-0.444935 -0.544641 0.710914
-0.644686 -0.329687 0.689700
-0.550558 -0.304128 0.777426
-0.343225 -0.515362 0.785238
-0.444935 -0.544641 0.710914
-0.550558 -0.304128 0.777426
-0.061583 -0.696936 0.714484
-0.444935 -0.544641 0.710914
-0.343225 -0.515362 0.785238
-0.063527 -0.520898 0.851252
-0.444935 -0.544641 0.710914
-0.061583 -0.696936 0.714484
0.335263 -0.618551 0.710628
-0.063527 -0.520898 0.851252
-0.061583 -0.696936 0.714484
0.306197 -0.482267 0.820769
-0.063527 -0.520898 0.851252
0.335263 -0.618551 0.710628
0.560527 -0.417713 0.715071
0.306197 -0.482267 0.820769
0.335263 -0.618551 0.710628
0.526625 -0.340943 0.778732
0.306197 -0.482267 0.820769
0.560527 -0.417713 0.715071
0.705142 -0.208329 0.677772
0.526625 -0.340943 0.778732
0.560527 -0.417713 0.715071
0.628582 -0.167136 0.759572
0.526625 -0.340943 0.778732
0.705142 -0.208329 0.677772
0.785928 -0.051749 0.616149
0.628582 -0.167136 0.759572
0.705142 -0.208329 0.677772
0.645554 -0.036145 0.762859
0.628582 -0.167136 0.759572
0.785928 -0.051749 0.616149
0.606927 0.096776 0.788843
0.645554 -0.036145 0.762859
0.785928 -0.051749 0.616149
0.787341 0.116394 0.605431
0.606927 0.096776 0.788843
0.785928 -0.051749 0.616149
0.471599 0.278239 0.836766
0.606927 0.096776 0.788843
0.787341 0.116394 0.605431
0.640948 0.366965 0.674183
0.471599 0.278239 0.836766
0.787341 0.116394 0.605431
0.262906 0.415327 0.870852
0.471599 0.278239 0.836766
0.640948 0.366965 0.674183
0.364722 0.554450 0.748040
0.262906 0.415327 0.870852
0.640948 0.366965 0.674183
0.055676 0.467867 0.882043
0.262906 0.415327 0.870852
0.364722 0.554450 0.748040
0.100671 0.608915 0.786821
0.055676 0.467867 0.882043
0.364722 0.554450 0.748040
-0.165129 0.440693 0.882339
0.055676 0.467867 0.882043
0.100671 0.608915 0.786821
-0.182913 0.585933 0.789446
-0.165129 0.440693 0.882339
0.100671 0.608915 0.786821
-0.512549 0.450036 0.731273
-0.165129 0.440693 0.882339
-0.182913 0.585933 0.789446
-0.386276 0.349131 0.853755
-0.165129 0.440693 0.882339
-0.512549 0.450036 0.731273
-0.736619 0.210381 0.642754
-0.386276 0.349131 0.853755
-0.512549 0.450036 0.731273
-0.570394 0.188828 0.799372
-0.386276 0.349131 0.853755
-0.736619 0.210381 0.642754
-0.798903 -0.008798 0.601395
-0.570394 0.188828 0.799372
-0.736619 0.210381 0.642754
-0.655466 0.008792 0.755174
-0.570394 0.188828 0.799372
-0.798903 -0.008798 0.601395
-0.644017 -0.131941 0.753547
-0.655466 0.008792 0.755174
-0.798903 -0.008798 0.601395
-0.758279 -0.163367 0.631129
-0.644017 -0.131941 0.753547
-0.798903 -0.008798 0.601395
-0.582833 -0.252912 0.772231
-0.644017 -0.131941 0.753547
-0.758279 -0.163367 0.631129
-0.644686 -0.329687 0.689700
-0.582833 -0.252912 0.772231
-0.758279 -0.163367 0.631129
-0.420896 -0.401394 0.813468
-0.582833 -0.252912 0.772231
-0.644686 -0.329687 0.689700
-0.444935 -0.544641 0.710914
-0.420896 -0.401394 0.813468
-0.644686 -0.329687 0.689700
-0.063527 -0.520898 0.851252
-0.420896 -0.401394 0.813468
-0.444935 -0.544641 0.710914
-0.042015 -0.288293 0.956620
-0.420896 -0.401394 0.813468
-0.063527 -0.520898 0.851252
0.306197 -0.482267 0.820769
-0.042015 -0.288293 0.956620
-0.063527 -0.520898 0.851252
0.204352 -0.274663 0.939575
-0.042015 -0.288293 0.956620
0.306197 -0.482267 0.820769
0.526625 -0.340943 0.778732
0.204352 -0.274663 0.939575
0.306197 -0.482267 0.820769
0.372361 -0.192546 0.907895
0.204352 -0.274663 0.939575
0.526625 -0.340943 0.778732
0.628582 -0.167136 0.759572
0.372361 -0.192546 0.907895
0.526625 -0.340943 0.778732
0.458731 -0.079229 0.885036
0.372361 -0.192546 0.907895
0.628582 -0.167136 0.759572
0.645554 -0.036145 0.762859
0.458731 -0.079229 0.885036
0.628582 -0.167136 0.759572
0.645554 -0.036145 0.762859
0.476302 -0.004890 0.879268
0.458731 -0.079229 0.885036
0.430768 0.092791 0.897680
0.476302 -0.004890 0.879268
0.645554 -0.036145 0.762859
0.606927 0.096776 0.788843
0.430768 0.092791 0.897680
0.645554 -0.036145 0.762859
0.321821 0.222018 0.920402
0.430768 0.092791 0.897680
0.606927 0.096776 0.788843
0.471599 0.278239 0.836766
0.321821 0.222018 0.920402
0.606927 0.096776 0.788843
0.186704 0.300119 0.935452
0.321821 0.222018 0.920402
0.471599 0.278239 0.836766
0.262906 0.415327 0.870852
0.186704 0.300119 0.935452
0.471599 0.278239 0.836766
0.055676 0.467867 0.882043
0.186704 0.300119 0.935452
0.262906 0.415327 0.870852
0.055676 0.467867 0.882043
0.010759 0.335513 0.941974
0.186704 0.300119 0.935452
-0.167224 0.304169 0.937826
0.010759 0.335513 0.941974
0.055676 0.467867 0.882043
-0.165129 0.440693 0.882339
-0.167224 0.304169 0.937826
0.055676 0.467867 0.882043
-0.386276 0.349131 0.853755
-0.167224 0.304169 0.937826
-0.165129 0.440693 0.882339
-0.249324 0.270854 0.929772
-0.167224 0.304169 0.937826
-0.386276 0.349131 0.853755
-0.570394 0.188828 0.799372
-0.249324 0.270854 0.929772
-0.386276 0.349131 0.853755
-0.344942 0.178813 0.921434
-0.249324 0.270854 0.929772
-0.570394 0.188828 0.799372
-0.655466 0.008792 0.755174
-0.344942 0.178813 0.921434
-0.570394 0.188828 0.799372
-0.655466 0.008792 0.755174
-0.440359 0.030267 0.897312
-0.344942 0.178813 0.921434
-0.437085 -0.071385 0.896583
-0.440359 0.030267 0.897312
-0.655466 0.008792 0.755174
-0.644017 -0.131941 0.753547
-0.437085 -0.071385 0.896583
-0.655466 0.008792 0.755174
-0.411282 -0.133852 0.901627
-0.437085 -0.071385 0.896583
-0.644017 -0.131941 0.753547
-0.582833 -0.252912 0.772231
-0.411282 -0.133852 0.901627
-0.644017 -0.131941 0.753547
-0.296104 -0.212041 0.931322
-0.411282 -0.133852 0.901627
-0.582833 -0.252912 0.772231
-0.420896 -0.401394 0.813468
-0.296104 -0.212041 0.931322
-0.582833 -0.252912 0.772231
-0.042015 -0.288293 0.956620
-0.296104 -0.212041 0.931322
-0.420896 -0.401394 0.813468
0.010756 0.055738 0.998388
-0.296104 -0.212041 0.931322
-0.042015 -0.288293 0.956620
0.010756 0.055738 0.998388
-0.411282 -0.133852 0.901627
-0.296104 -0.212041 0.931322
0.010756 0.055738 0.998388
-0.437085 -0.071385 0.896583
-0.411282 -0.133852 0.901627
0.010756 0.055738 0.998388
-0.440359 0.030267 0.897312
-0.437085 -0.071385 0.896583
0.010756 0.055738 0.998388
-0.344942 0.178813 0.921434
-0.440359 0.030267 0.897312
0.010756 0.055738 0.998388
-0.249324 0.270854 0.929772
-0.344942 0.178813 0.921434
0.010756 0.055738 0.998388
-0.167224 0.304169 0.937826
-0.249324 0.270854 0.929772
0.010756 0.055738 0.998388
0.010759 0.335513 0.941974
-0.167224 0.304169 0.937826
0.010756 0.055738 0.998388
0.186704 0.300119 0.935452
0.010759 0.335513 0.941974
0.010756 0.055738 0.998388
0.321821 0.222018 0.920402
0.186704 0.300119 0.935452
0.010756 0.055738 0.998388
0.430768 0.092791 0.897680
0.321821 0.222018 0.920402
0.010756 0.055738 0.998388
0.476302 -0.004890 0.879268
0.430768 0.092791 0.897680
0.010756 0.055738 0.998388
0.458731 -0.079229 0.885036
0.476302 -0.004890 0.879268
0.010756 0.055738 0.998388
0.372361 -0.192546 0.907895
0.458731 -0.079229 0.885036
0.010756 0.055738 0.998388
0.204352 -0.274663 0.939575
0.372361 -0.192546 0.907895
-0.042015 -0.288293 0.956620
0.204352 -0.274663 0.939575
0.010756 0.055738 0.998388
-0.292546 0.513745 0.806525
-0.293064 0.665533 0.686425
-0.362859 0.637048 0.680075
-0.381369 0.502645 0.775825
-0.292546 0.513745 0.806525
-0.362859 0.637048 0.680075
0.092655 0.184821 0.978395
-0.292546 0.513745 0.806525
-0.381369 0.502645 0.775825
-0.108587 0.290045 0.950833
0.092655 0.184821 0.978395
-0.381369 0.502645 0.775825
0.294290 0.218106 0.930496
0.092655 0.184821 0.978395
-0.108587 0.290045 0.950833
0.104467 0.498284 0.860697
0.294290 0.218106 0.930496
-0.108587 0.290045 0.950833
0.242733 0.646794 0.723006
0.294290 0.218106 0.930496
0.104467 0.498284 0.860697
-0.112853 0.650307 0.751243
0.242733 0.646794 0.723006
0.104467 0.498284 0.860697
-0.069014 0.554904 0.829047
-0.112853 0.650307 0.751243
0.104467 0.498284 0.860697
-0.222518 0.259920 0.939642
-0.112853 0.650307 0.751243
-0.069014 0.554904 0.829047
-0.405215 0.381461 0.830836
-0.112853 0.650307 0.751243
-0.222518 0.259920 0.939642
-0.318835 0.168431 0.932725
-0.405215 0.381461 0.830836
-0.222518 0.259920 0.939642
-0.545029 0.275887 0.791726
-0.405215 0.381461 0.830836
-0.318835 0.168431 0.932725
-0.546515 0.086986 0.832919
-0.545029 0.275887 0.791726
-0.318835 0.168431 0.932725
-0.272280 0.164371 0.948075
-0.546515 0.086986 0.832919
-0.318835 0.168431 0.932725
-0.445950 0.065119 0.892686
-0.546515 0.086986 0.832919
-0.272280 0.164371 0.948075
-0.236871 0.338621 0.910620
-0.445950 0.065119 0.892686
-0.272280 0.164371 0.948075
-0.335252 0.354003 0.873091
-0.445950 0.065119 0.892686
-0.236871 0.338621 0.910620
-0.293064 0.665533 0.686425
-0.335252 0.354003 0.873091
-0.236871 0.338621 0.910620
-0.292546 0.513745 0.806525
-0.335252 0.354003 0.873091
-0.293064 0.665533 0.686425
-0.245899 -0.184804 0.951515
-0.335252 0.354003 0.873091
-0.292546 0.513745 0.806525
0.095660 0.071512 0.992842
-0.245899 -0.184804 0.951515
-0.292546 0.513745 0.806525
0.092655 0.184821 0.978395
0.095660 0.071512 0.992842
-0.292546 0.513745 0.806525
0.501351 -0.197647 0.842367
0.095660 0.071512 0.992842
0.092655 0.184821 0.978395
0.294290 0.218106 0.930496
0.501351 -0.197647 0.842367
0.092655 0.184821 0.978395
0.619246 0.190377 0.761768
0.501351 -0.197647 0.842367
0.294290 0.218106 0.930496
0.242733 0.646794 0.723006
0.619246 0.190377 0.761768
0.294290 0.218106 0.930496
0.378286 0.757838 0.531584
0.619246 0.190377 0.761768
0.242733 0.646794 0.723006
-0.189196 0.821253 0.538282
0.378286 0.757838 0.531584
0.242733 0.646794 0.723006
-0.112853 0.650307 0.751243
-0.189196 0.821253 0.538282
0.242733 0.646794 0.723006
-0.597825 0.595397 0.536757
-0.189196 0.821253 0.538282
-0.112853 0.650307 0.751243
-0.405215 0.381461 0.830836
-0.597825 0.595397 0.536757
-0.112853 0.650307 0.751243
-0.706027 0.386107 0.593672
-0.597825 0.595397 0.536757
-0.405215 0.381461 0.830836
-0.545029 0.275887 0.791726
-0.706027 0.386107 0.593672
-0.405215 0.381461 0.830836
-0.799947 0.072867 0.595630
-0.706027 0.386107 0.593672
-0.545029 0.275887 0.791726
-0.546515 0.086986 0.832919
-0.799947 0.072867 0.595630
-0.545029 0.275887 0.791726
-0.638576 -0.238226 0.731758
-0.799947 0.072867 0.595630
-0.546515 0.086986 0.832919
-0.445950 0.065119 0.892686
-0.638576 -0.238226 0.731758
-0.546515 0.086986 0.832919
-0.335252 0.354003 0.873091
-0.638576 -0.238226 0.731758
-0.445950 0.065119 0.892686
-0.245899 -0.184804 0.951515
-0.638576 -0.238226 0.731758
-0.335252 0.354003 0.873091
-0.245899 -0.184804 0.951515
-0.529671 -0.217323 0.819890
-0.638576 -0.238226 0.731758
-0.529671 -0.217323 0.819890
-0.799947 0.072867 0.595630
-0.638576 -0.238226 0.731758
-0.529671 -0.217323 0.819890
-0.681103 0.174655 0.711051
-0.799947 0.072867 0.595630
-0.681103 0.174655 0.711051
-0.706027 0.386107 0.593672
-0.799947 0.072867 0.595630
-0.681103 0.174655 0.711051
-0.644669 0.349083 0.680106
-0.706027 0.386107 0.593672
-0.644669 0.349083 0.680106
-0.597825 0.595397 0.536757
-0.706027 0.386107 0.593672
-0.644669 0.349083 0.680106
-0.509108 0.576092 0.639473
-0.597825 0.595397 0.536757
-0.509108 0.576092 0.639473
-0.189196 0.821253 0.538282
-0.597825 0.595397 0.536757
-0.509108 0.576092 0.639473
-0.116401 0.699445 0.705143
-0.189196 0.821253 0.538282
-0.116401 0.699445 0.705143
0.378286 0.757838 0.531584
-0.189196 0.821253 0.538282
0.175660 0.628204 0.757960
0.378286 0.757838 0.531584
-0.116401 0.699445 0.705143
0.175660 0.628204 0.757960
0.401161 0.269761 0.875385
0.378286 0.757838 0.531584
0.401161 0.269761 0.875385
0.619246 0.190377 0.761768
0.378286 0.757838 0.531584
0.401161 0.269761 0.875385
0.273473 -0.098951 0.956776
0.619246 0.190377 0.761768
0.273473 -0.098951 0.956776
0.501351 -0.197647 0.842367
0.619246 0.190377 0.761768
0.273473 -0.098951 0.956776
0.166161 -0.175851 0.970292
0.501351 -0.197647 0.842367
0.166161 -0.175851 0.970292
0.095660 0.071512 0.992842
0.501351 -0.197647 0.842367
0.166161 -0.175851 0.970292
-0.101911 -0.247607 0.963486
0.095660 0.071512 0.992842
-0.101911 -0.247607 0.963486
-0.245899 -0.184804 0.951515
0.095660 0.071512 0.992842
-0.101911 -0.247607 0.963486
-0.529671 -0.217323 0.819890
-0.245899 -0.184804 0.951515
-0.215412 0.169472 0.961705
-0.529671 -0.217323 0.819890
-0.101911 -0.247607 0.963486
0.166161 -0.175851 0.970292
-0.215412 0.169472 0.961705
-0.101911 -0.247607 0.963486
0.273473 -0.098951 0.956776
-0.215412 0.169472 0.961705
0.166161 -0.175851 0.970292
0.401161 0.269761 0.875385
-0.215412 0.169472 0.961705
0.273473 -0.098951 0.956776
0.175660 0.628204 0.757960
-0.215412 0.169472 0.961705
0.401161 0.269761 0.875385
-0.116401 0.699445 0.705143
-0.215412 0.169472 0.961705
0.175660 0.628204 0.757960
-0.509108 0.576092 0.639473
-0.215412 0.169472 0.961705
-0.116401 0.699445 0.705143
-0.644669 0.349083 0.680106
-0.215412 0.169472 0.961705
-0.509108 0.576092 0.639473
-0.681103 0.174655 0.711051
-0.215412 0.169472 0.961705
-0.644669 0.349083 0.680106
-0.681103 0.174655 0.711051
-0.529671 -0.217323 0.819890
-0.215412 0.169472 0.961705
-0.071627 -0.409451 0.909516
0.001815 -0.616557 0.787308
-0.205488 -0.544974 0.812883
-0.450326 -0.461888 0.764111
-0.071627 -0.409451 0.909516
-0.205488 -0.544974 0.812883
-0.251189 -0.093709 0.963391
-0.071627 -0.409451 0.909516
-0.450326 -0.461888 0.764111
-0.599354 -0.148194 0.786647
-0.251189 -0.093709 0.963391
-0.450326 -0.461888 0.764111
-0.447753 0.161731 0.879409
-0.251189 -0.093709 0.963391
-0.599354 -0.148194 0.786647
-0.852411 0.112061 0.510723
-0.447753 0.161731 0.879409
-0.599354 -0.148194 0.786647
-0.869516 0.218236 0.443075
-0.447753 0.161731 0.879409
-0.852411 0.112061 0.510723
-0.940424 -0.175176 0.291403
-0.869516 0.218236 0.443075
-0.852411 0.112061 0.510723
-0.939611 -0.131908 0.315802
-0.940424 -0.175176 0.291403
-0.852411 0.112061 0.510723
-0.731975 -0.529850 0.428336
-0.940424 -0.175176 0.291403
-0.939611 -0.131908 0.315802
-0.708628 -0.633809 0.310052
-0.940424 -0.175176 0.291403
-0.731975 -0.529850 0.428336
-0.528055 -0.706467 0.471235
-0.708628 -0.633809 0.310052
-0.731975 -0.529850 0.428336
-0.554017 -0.771361 0.313157
-0.708628 -0.633809 0.310052
-0.528055 -0.706467 0.471235
-0.355906 -0.864496 0.354934
-0.554017 -0.771361 0.313157
-0.528055 -0.706467 0.471235
-0.301239 -0.785272 0.540928
-0.355906 -0.864496 0.354934
-0.528055 -0.706467 0.471235
-0.042366 -0.823002 0.566456
-0.355906 -0.864496 0.354934
-0.301239 -0.785272 0.540928
-0.038736 -0.770759 0.635948
-0.042366 -0.823002 0.566456
-0.301239 -0.785272 0.540928
0.131506 -0.605792 0.784680
-0.042366 -0.823002 0.566456
-0.038736 -0.770759 0.635948
0.001815 -0.616557 0.787308
0.131506 -0.605792 0.784680
-0.038736 -0.770759 0.635948
-0.071627 -0.409451 0.909516
0.131506 -0.605792 0.784680
0.001815 -0.616557 0.787308
0.164460 -0.558179 0.813258
0.131506 -0.605792 0.784680
-0.071627 -0.409451 0.909516
0.071227 -0.124472 0.989663
0.164460 -0.558179 0.813258
-0.071627 -0.409451 0.909516
-0.251189 -0.093709 0.963391
0.071227 -0.124472 0.989663
-0.071627 -0.409451 0.909516
-0.035057 0.147457 0.988447
0.071227 -0.124472 0.989663
-0.251189 -0.093709 0.963391
-0.447753 0.161731 0.879409
-0.035057 0.147457 0.988447
-0.251189 -0.093709 0.963391
-0.396940 0.328544 0.857028
-0.035057 0.147457 0.988447
-0.447753 0.161731 0.879409
-0.869516 0.218236 0.443075
-0.396940 0.328544 0.857028
-0.447753 0.161731 0.879409
-0.868421 0.294081 0.399201
-0.396940 0.328544 0.857028
-0.869516 0.218236 0.443075
-0.962952 -0.216287 0.161069
-0.868421 0.294081 0.399201
-0.869516 0.218236 0.443075
-0.940424 -0.175176 0.291403
-0.962952 -0.216287 0.161069
-0.869516 0.218236 0.443075
-0.773322 -0.631058 0.061155
-0.962952 -0.216287 0.161069
-0.940424 -0.175176 0.291403
-0.708628 -0.633809 0.310052
-0.773322 -0.631058 0.061155
-0.940424 -0.175176 0.291403
-0.592355 -0.799390 0.100455
-0.773322 -0.631058 0.061155
-0.708628 -0.633809 0.310052
-0.554017 -0.771361 0.313157
-0.592355 -0.799390 0.100455
-0.708628 -0.633809 0.310052
-0.322804 -0.931832 0.165792
-0.592355 -0.799390 0.100455
-0.554017 -0.771361 0.313157
-0.355906 -0.864496 0.354934
-0.322804 -0.931832 0.165792
-0.554017 -0.771361 0.313157
0.050245 -0.889627 0.453915
-0.322804 -0.931832 0.165792
-0.355906 -0.864496 0.354934
-0.042366 -0.823002 0.566456
0.050245 -0.889627 0.453915
-0.355906 -0.864496 0.354934
0.131506 -0.605792 0.784680
0.050245 -0.889627 0.453915
-0.042366 -0.823002 0.566456
0.164460 -0.558179 0.813258
0.050245 -0.889627 0.453915
0.131506 -0.605792 0.784680
0.164460 -0.558179 0.813258
-0.098514 -0.818528 0.565957
0.050245 -0.889627 0.453915
-0.098514 -0.818528 0.565957
-0.322804 -0.931832 0.165792
0.050245 -0.889627 0.453915
-0.098514 -0.818528 0.565957
-0.439993 -0.846600 0.299456
-0.322804 -0.931832 0.165792
-0.439993 -0.846600 0.299456
-0.592355 -0.799390 0.100455
-0.322804 -0.931832 0.165792
-0.439993 -0.846600 0.299456
-0.591813 -0.770306 0.237458
-0.592355 -0.799390 0.100455
-0.591813 -0.770306 0.237458
-0.773322 -0.631058 0.061155
-0.592355 -0.799390 0.100455
-0.591813 -0.770306 0.237458
-0.784196 -0.590206 0.191554
-0.773322 -0.631058 0.061155
-0.784196 -0.590206 0.191554
-0.962952 -0.216287 0.161069
-0.773322 -0.631058 0.061155
-0.784196 -0.590206 0.191554
-0.899615 -0.231687 0.370154
-0.962952 -0.216287 0.161069
-0.899615 -0.231687 0.370154
-0.868421 0.294081 0.399201
-0.962952 -0.216287 0.161069
-0.833313 0.003764 0.552789
-0.868421 0.294081 0.399201
-0.899615 -0.231687 0.370154
-0.833313 0.003764 0.552789
-0.522005 0.102653 0.846743
-0.868421 0.294081 0.399201
-0.522005 0.102653 0.846743
-0.396940 0.328544 0.857028
-0.868421 0.294081 0.399201
-0.522005 0.102653 0.846743
-0.209310 -0.110737 0.971559
-0.396940 0.328544 0.857028
-0.209310 -0.110737 0.971559
-0.035057 0.147457 0.988447
-0.396940 0.328544 0.857028
-0.209310 -0.110737 0.971559
-0.147591 -0.227862 0.962443
-0.035057 0.147457 0.988447
-0.147591 -0.227862 0.962443
0.071227 -0.124472 0.989663
-0.035057 0.147457 0.988447
-0.147591 -0.227862 0.962443
-0.093175 -0.483936 0.870129
0.071227 -0.124472 0.989663
-0.093175 -0.483936 0.870129
0.164460 -0.558179 0.813258
0.071227 -0.124472 0.989663
-0.093175 -0.483936 0.870129
-0.098514 -0.818528 0.565957
0.164460 -0.558179 0.813258
-0.491726 -0.511080 0.704984
-0.098514 -0.818528 0.565957
-0.093175 -0.483936 0.870129
-0.147591 -0.227862 0.962443
-0.491726 -0.511080 0.704984
-0.093175 -0.483936 0.870129
-0.209310 -0.110737 0.971559
-0.491726 -0.511080 0.704984
-0.147591 -0.227862 0.962443
-0.522005 0.102653 0.846743
-0.491726 -0.511080 0.704984
-0.209310 -0.110737 0.971559
-0.833313 0.003764 0.552789
-0.491726 -0.511080 0.704984
-0.522005 0.102653 0.846743
-0.899615 -0.231687 0.370154
-0.491726 -0.511080 0.704984
-0.833313 0.003764 0.552789
-0.784196 -0.590206 0.191554
-0.491726 -0.511080 0.704984
-0.899615 -0.231687 0.370154
-0.591813 -0.770306 0.237458
-0.491726 -0.511080 0.704984
-0.784196 -0.590206 0.191554
-0.439993 -0.846600 0.299456
-0.491726 -0.511080 0.704984
-0.591813 -0.770306 0.237458
-0.439993 -0.846600 0.299456
-0.098514 -0.818528 0.565957
-0.491726 -0.511080 0.704984
</float_array>
          <technique_common>
            <accessor source="#SM_Chiton_04_LOD0-Normal0-array" count="948" stride="3">
              <param name="X" type="float"/>
              <param name="Y" type="float"/>
              <param name="Z" type="float"/>
            </accessor>
          </technique_common>
        </source>
        <source id="SM_Chiton_04_LOD0-UV0">
          <float_array id="SM_Chiton_04_LOD0-UV0-array" count="358">
0.967568 0.097577
0.961895 0.066403
0.951582 0.097737
0.962165 0.131940
0.945706 0.127381
0.939354 0.163221
0.926002 0.156854
0.906472 0.178023
0.896829 0.169380
0.862018 0.177253
0.859529 0.170796
0.822248 0.172734
0.825111 0.166745
0.785412 0.155473
0.781000 0.161326
0.760701 0.128873
0.748853 0.133555
0.750323 0.100407
0.733547 0.100500
0.740041 0.069351
0.753877 0.073162
0.756212 0.039049
0.770679 0.046034
0.808720 0.021286
0.814416 0.027503
0.853871 0.020036
0.852960 0.026716
0.898007 0.034817
0.907347 0.028354
0.928445 0.046838
0.940081 0.039017
0.945609 0.070178
0.939882 0.097754
0.933948 0.123232
0.915907 0.148171
0.890050 0.159948
0.857671 0.162314
0.826995 0.158590
0.792029 0.146692
0.772802 0.125772
0.764558 0.101133
0.766983 0.076388
0.781792 0.052726
0.818466 0.036176
0.851484 0.035425
0.890448 0.042474
0.917028 0.053639
0.933528 0.073800
0.927749 0.098252
0.921300 0.118486
0.904142 0.137782
0.881362 0.149309
0.854761 0.153221
0.827627 0.151366
0.797357 0.137799
0.785082 0.120607
0.780690 0.100984
0.780864 0.079682
0.793893 0.060025
0.821008 0.045759
0.848891 0.043518
0.880115 0.049889
0.902890 0.060721
0.920228 0.078356
0.907489 0.098040
0.903259 0.112229
0.889417 0.125575
0.872763 0.132438
0.853034 0.134351
0.834070 0.132692
0.815262 0.124808
0.807696 0.113227
0.803922 0.099898
0.805489 0.084956
0.812081 0.072014
0.829064 0.063621
0.848988 0.061725
0.869770 0.065623
0.885785 0.072743
0.901072 0.084480
0.884283 0.098089
0.882896 0.105767
0.873422 0.113777
0.863514 0.117070
0.851408 0.116530
0.841326 0.115129
0.832780 0.111782
0.823988 0.105293
0.822427 0.097877
0.823317 0.090676
0.832418 0.084713
0.839920 0.080690
0.849627 0.078939
0.859644 0.080335
0.868273 0.084210
0.880077 0.090442
0.852337 0.099973
0.397111 0.288193
0.374263 0.289165
0.391416 0.273929
0.418477 0.284076
0.414940 0.297659
0.435880 0.306982
0.428538 0.308241
0.433676 0.328404
0.427720 0.326510
0.416031 0.340638
0.419271 0.347824
0.401233 0.354001
0.398767 0.343677
0.384108 0.345886
0.388690 0.338717
0.378787 0.330818
0.362949 0.332161
0.373956 0.314700
0.364213 0.310990
0.380137 0.298320
0.388758 0.303116
0.400668 0.297347
0.412431 0.303659
0.421865 0.311532
0.421141 0.323432
0.412271 0.333391
0.401267 0.335842
0.394109 0.333216
0.385031 0.327594
0.381687 0.315602
0.387296 0.316544
0.389947 0.325636
0.397733 0.329887
0.403664 0.331669
0.412016 0.327574
0.416637 0.322465
0.417409 0.316373
0.410777 0.310421
0.403894 0.307541
0.396020 0.309582
0.403792 0.320775
0.397461 0.288086
0.374756 0.289063
0.393066 0.274414
0.419678 0.284180
0.414551 0.296387
0.436768 0.305664
0.428955 0.306641
0.433838 0.326172
0.427734 0.324219
0.416748 0.338379
0.420166 0.345703
0.402344 0.353516
0.399658 0.341309
0.384521 0.345215
0.389404 0.336914
0.379395 0.328613
0.362061 0.331055
0.373535 0.312500
0.363037 0.309082
0.381104 0.295898
0.388428 0.300781
0.400879 0.295410
0.413818 0.300781
0.424561 0.309082
0.424072 0.322266
0.414063 0.333008
0.402100 0.335449
0.394531 0.332031
0.384277 0.326660
0.380615 0.313965
0.385742 0.314941
0.389160 0.325195
0.398193 0.329590
0.405029 0.332031
0.415039 0.327637
0.420898 0.321777
0.421387 0.314453
0.413086 0.308105
0.405029 0.305176
0.395996 0.307617
0.405273 0.320313
</float_array>
          <technique_common>
            <accessor source="#SM_Chiton_04_LOD0-UV0-array" count="179" stride="2">
              <param name="S" type="float"/>
              <param name="T" type="float"/>
            </accessor>
          </technique_common>
        </source>
        <vertices id="SM_Chiton_04_LOD0-VERTEX">
          <input semantic="POSITION" source="#SM_Chiton_04_LOD0-POSITION"/>
        </vertices>
        <triangles count="316" material="MAT_Sea_Shells">
          <input semantic="VERTEX" offset="0" source="#SM_Chiton_04_LOD0-VERTEX"/>
          <input semantic="NORMAL" offset="1" source="#SM_Chiton_04_LOD0-Normal0"/>
          <input semantic="TEXCOORD" offset="2" set="0" source="#SM_Chiton_04_LOD0-UV0"/>
          <p> 1 0 2 24 1 1 0 2 0 2 3 3 1 4 2 0 5 0 25 6 4 1 7 2 2 8 3 3 9 5 25 10 4 2 11 3 26 12 6 25 13 4 3 14 5 4 15 7 26 16 6 3 17 5 29 18 8 26 19 6 4 20 7 5 21 9 29 22 8 4 23 7 7 24 10 29 25 8 5 26 9 6 27 11 7 28 10 5 29 9 8 30 12 7 31 10 6 32 11 9 33 13 8 34 12 6 35 11 11 36 14 9 37 13 6 38 11 10 39 15 9 40 13 11 41 14 12 42 16 10 43 15 11 44 14 33 45 17 10 46 15 12 47 16 13 48 18 33 49 17 12 50 16 14 51 19 33 52 17 13 53 18 15 54 20 33 55 17 14 56 19 16 57 21 15 58 20 14 59 19 34 60 22 15 61 20 16 62 21 17 63 23 34 64 22 16 65 21 35 66 24 34 67 22 17 68 23 18 69 25 35 70 24 17 71 23 19 72 26 35 73 24 18 74 25 36 75 27 19 76 26 18 77 25 20 78 28 36 79 27 18 80 25 22 81 29 36 82 27 20 83 28 21 84 30 22 85 29 20 86 28 23 87 31 22 88 29 21 89 30 24 90 1 23 91 31 21 92 30 1 93 2 23 94 31 24 95 1 38 96 32 23 97 31 1 98 2 25 99 4 38 100 32 1 101 2 27 102 33 38 103 32 25 104 4 26 105 6 27 106 33 25 107 4 28 108 34 27 109 33 26 110 6 29 111 8 28 112 34 26 113 6 30 114 35 28 115 34 29 116 8 7 117 10 30 118 35 29 119 8 41 120 36 30 121 35 7 122 10 8 123 12 41 124 36 7 125 10 42 126 37 41 127 36 8 128 12 31 129 38 42 130 37 8 131 12 9 132 13 31 133 38 8 134 12 44 135 39 31 136 38 9 137 13 10 138 15 44 139 39 9 140 13 32 141 40 44 142 39 10 143 15 33 144 17 32 145 40 10 146 15 45 147 41 32 148 40 33 149 17 15 150 20 45 151 41 33 152 17 34 153 22 45 154 41 15 155 20 46 156 42 45 157 41 34 158 22 35 159 24 46 160 42 34 161 22 48 162 43 46 163 42 35 164 24 19 165 26 48 166 43 35 167 24 50 168 44 48 169 43 19 170 26 37 171 45 50 172 44 19 173 26 36 174 27 37 175 45 19 176 26 53 177 46 37 178 45 36 179 27 22 180 29 53 181 46 36 182 27 55 183 47 53 184 46 22 185 29 23 186 31 55 187 47 22 188 29 38 189 32 55 190 47 23 191 31 56 192 48 55 193 47 38 194 32 27 195 33 56 196 48 38 197 32 57 198 49 56 199 48 27 200 33 28 201 34 57 202 49 27 203 33 39 204 50 57 205 49 28 206 34 30 207 35 39 208 50 28 209 34 40 210 51 39 211 50 30 212 35 41 213 36 40 214 51 30 215 35 60 216 52 40 217 51 41 218 36 42 219 37 60 220 52 41 221 36 62 222 53 60 223 52 42 224 37 31 225 38 62 226 53 42 227 37 43 228 54 62 229 53 31 230 38 63 231 55 43 232 54 31 233 38 44 234 39 63 235 55 31 236 38 65 237 56 63 238 55 44 239 39 32 240 40 65 241 56 44 242 39 47 243 57 65 244 56 32 245 40 45 246 41 47 247 57 32 248 40 46 249 42 47 250 57 45 251 41 67 252 58 47 253 57 46 254 42 48 255 43 67 256 58 46 257 42 68 258 59 67 259 58 48 260 43 49 261 60 68 262 59 48 263 43 50 264 44 49 265 60 48 266 43 51 267 61 49 268 60 50 269 44 37 270 45 51 271 61 50 272 44 52 273 62 51 274 61 37 275 45 53 276 46 52 277 62 37 278 45 54 279 63 52 280 62 53 281 46 55 282 47 54 283 63 53 284 46 56 285 48 54 286 63 55 287 47 58 288 64 54 289 63 56 290 48 57 291 49 58 292 64 56 293 48 59 294 65 58 295 64 57 296 49 39 297 50 59 298 65 57 299 49 73 300 66 59 301 65 39 302 50 40 303 51 73 304 66 39 305 50 74 306 67 73 307 66 40 308 51 60 309 52 74 310 67 40 311 51 77 312 68 74 313 67 60 314 52 79 315 69 77 316 68 60 317 52 62 318 53 79 319 69 60 320 52 61 321 70 79 322 69 62 323 53 43 324 54 61 325 70 62 326 53 81 327 71 61 328 70 43 329 54 63 330 55 81 331 71 43 332 54 64 333 72 81 334 71 63 335 55 65 336 56 64 337 72 63 338 55 66 339 73 64 340 72 65 341 56 47 342 57 66 343 73 65 344 56 67 345 58 66 346 73 47 347 57 83 348 74 66 349 73 67 350 58 68 351 59 83 352 74 67 353 58 84 354 75 83 355 74 68 356 59 49 357 60 84 358 75 68 359 59 87 360 76 84 361 75 49 362 60 69 363 77 87 364 76 49 365 60 51 366 61 69 367 77 49 368 60 89 369 78 69 370 77 51 371 61 52 372 62 89 373 78 51 374 61 70 375 79 89 376 78 52 377 62 54 378 63 70 379 79 52 380 62 58 381 64 70 382 79 54 383 63 71 384 80 70 385 79 58 386 64 59 387 65 71 388 80 58 389 64 72 390 81 71 391 80 59 392 65 73 393 66 72 394 81 59 395 65 95 396 82 72 397 81 73 398 66 74 399 67 95 400 82 73 401 66 75 402 83 95 403 82 74 404 67 77 405 68 75 406 83 74 407 67 77 408 68 76 409 84 75 410 83 78 411 85 76 412 84 77 413 68 79 414 69 78 415 85 77 416 68 80 417 86 78 418 85 79 419 69 61 420 70 80 421 86 79 422 69 82 423 87 80 424 86 61 425 70 81 426 71 82 427 87 61 428 70 64 429 72 82 430 87 81 431 71 64 432 72 94 433 88 82 434 87 93 435 89 94 436 88 64 437 72 66 438 73 93 439 89 64 440 72 83 441 74 93 442 89 66 443 73 92 444 90 93 445 89 83 446 74 84 447 75 92 448 90 83 449 74 85 450 91 92 451 90 84 452 75 87 453 76 85 454 91 84 455 75 87 456 76 86 457 92 85 458 91 88 459 93 86 460 92 87 461 76 69 462 77 88 463 93 87 464 76 90 465 94 88 466 93 69 467 77 89 468 78 90 469 94 69 470 77 91 471 95 90 472 94 89 473 78 70 474 79 91 475 95 89 476 78 71 477 80 91 478 95 70 479 79 96 480 96 91 481 95 71 482 80 96 483 96 90 484 94 91 485 95 96 486 96 88 487 93 90 488 94 96 489 96 86 490 92 88 491 93 96 492 96 85 493 91 86 494 92 96 495 96 92 496 90 85 497 91 96 498 96 93 499 89 92 500 90 96 501 96 94 502 88 93 503 89 96 504 96 82 505 87 94 506 88 96 507 96 80 508 86 82 509 87 96 510 96 78 511 85 80 512 86 96 513 96 76 514 84 78 515 85 96 516 96 75 517 83 76 518 84 96 519 96 95 520 82 75 521 83 96 522 96 72 523 81 95 524 82 71 525 80 72 526 81 96 527 96 97 528 97 98 529 98 99 530 99 100 531 100 97 532 97 99 533 99 101 534 101 97 535 97 100 536 100 102 537 102 101 538 101 100 539 100 103 540 103 101 541 101 102 542 102 104 543 104 103 544 103 102 545 102 105 546 105 103 547 103 104 548 104 106 549 106 105 550 105 104 551 104 107 552 107 106 553 106 104 554 104 108 555 108 106 556 106 107 557 107 109 558 109 106 559 106 108 560 108 110 561 110 109 562 109 108 563 108 111 564 111 109 565 109 110 566 110 112 567 112 111 568 111 110 569 110 113 570 113 112 571 112 110 572 110 114 573 114 112 574 112 113 575 113 115 576 115 114 577 114 113 578 113 116 579 116 114 580 114 115 581 115 98 582 98 116 583 116 115 584 115 97 585 97 116 586 116 98 587 98 117 588 117 116 589 116 97 590 97 118 591 118 117 592 117 97 593 97 101 594 101 118 595 118 97 596 97 119 597 119 118 598 118 101 599 101 103 600 103 119 601 119 101 602 101 120 603 120 119 604 119 103 605 103 105 606 105 120 607 120 103 608 103 121 609 121 120 610 120 105 611 105 122 612 122 121 613 121 105 614 105 106 615 106 122 616 122 105 617 105 123 618 123 122 619 122 106 620 106 109 621 109 123 622 123 106 623 106 124 624 124 123 625 123 109 626 109 111 627 111 124 628 124 109 629 109 125 630 125 124 631 124 111 632 111 112 633 112 125 634 125 111 635 111 126 636 126 125 637 125 112 638 112 114 639 114 126 640 126 112 641 112 116 642 116 126 643 126 114 644 114 117 645 117 126 646 126 116 647 116 117 648 117 127 649 127 126 650 126 127 651 127 125 652 125 126 653 126 127 654 127 128 655 128 125 656 125 128 657 128 124 658 124 125 659 125 128 660 128 129 661 129 124 662 124 129 663 129 123 664 123 124 665 124 129 666 129 130 667 130 123 668 123 130 669 130 122 670 122 123 671 123 130 672 130 131 673 131 122 674 122 131 675 131 121 676 121 122 677 122 132 678 132 121 679 121 131 680 131 132 681 132 133 682 133 121 683 121 133 684 133 120 685 120 121 686 121 133 687 133 134 688 134 120 689 120 134 690 134 119 691 119 120 692 120 134 693 134 135 694 135 119 695 119 135 696 135 118 697 118 119 698 119 135 699 135 136 700 136 118 701 118 136 702 136 117 703 117 118 704 118 136 705 136 127 706 127 117 707 117 137 708 137 127 709 127 136 710 136 135 711 135 137 712 137 136 713 136 134 714 134 137 715 137 135 716 135 133 717 133 137 718 137 134 719 134 132 720 132 137 721 137 133 722 133 131 723 131 137 724 137 132 725 132 130 726 130 137 727 137 131 728 131 129 729 129 137 730 137 130 731 130 128 732 128 137 733 137 129 734 129 128 735 128 127 736 127 137 737 137 138 738 138 139 739 139 140 740 140 141 741 141 138 742 138 140 743 140 142 744 142 138 745 138 141 746 141 143 747 143 142 748 142 141 749 141 144 750 144 142 751 142 143 752 143 145 753 145 144 754 144 143 755 143 146 756 146 144 757 144 145 758 145 147 759 147 146 760 146 145 761 145 148 762 148 147 763 147 145 764 145 149 765 149 147 766 147 148 767 148 150 768 150 147 769 147 149 770 149 151 771 151 150 772 150 149 773 149 152 774 152 150 775 150 151 776 151 153 777 153 152 778 152 151 779 151 154 780 154 153 781 153 151 782 151 155 783 155 153 784 153 154 785 154 156 786 156 155 787 155 154 788 154 157 789 157 155 790 155 156 791 156 139 792 139 157 793 157 156 794 156 138 795 138 157 796 157 139 797 139 158 798 158 157 799 157 138 800 138 159 801 159 158 802 158 138 803 138 142 804 142 159 805 159 138 806 138 160 807 160 159 808 159 142 809 142 144 810 144 160 811 160 142 812 142 161 813 161 160 814 160 144 815 144 146 816 146 161 817 161 144 818 144 162 819 162 161 820 161 146 821 146 163 822 163 162 823 162 146 824 146 147 825 147 163 826 163 146 827 146 164 828 164 163 829 163 147 830 147 150 831 150 164 832 164 147 833 147 165 834 165 164 835 164 150 836 150 152 837 152 165 838 165 150 839 150 166 840 166 165 841 165 152 842 152 153 843 153 166 844 166 152 845 152 167 846 167 166 847 166 153 848 153 155 849 155 167 850 167 153 851 153 157 852 157 167 853 167 155 854 155 158 855 158 167 856 167 157 857 157 158 858 158 168 859 168 167 860 167 168 861 168 166 862 166 167 863 167 168 864 168 169 865 169 166 866 166 169 867 169 165 868 165 166 869 166 169 870 169 170 871 170 165 872 165 170 873 170 164 874 164 165 875 165 170 876 170 171 877 171 164 878 164 171 879 171 163 880 163 164 881 164 171 882 171 172 883 172 163 884 163 172 885 172 162 886 162 163 887 163 173 888 173 162 889 162 172 890 172 173 891 173 174 892 174 162 893 162 174 894 174 161 895 161 162 896 162 174 897 174 175 898 175 161 899 161 175 900 175 160 901 160 161 902 161 175 903 175 176 904 176 160 905 160 176 906 176 159 907 159 160 908 160 176 909 176 177 910 177 159 911 159 177 912 177 158 913 158 159 914 159 177 915 177 168 916 168 158 917 158 178 918 178 168 919 168 177 920 177 176 921 176 178 922 178 177 923 177 175 924 175 178 925 178 176 926 176 174 927 174 178 928 178 175 929 175 173 930 173 178 931 178 174 932 174 172 933 172 178 934 178 173 935 173 171 936 171 178 937 178 172 938 172 170 939 170 178 940 178 171 941 171 169 942 169 178 943 178 170 944 170 169 945 169 168 946 168 178 947 178</p>
        </triangles>
      </mesh>
    </geometry>
    <geometry id="SM_Chiton_04_LOD1-lib" name="SM_Chiton_04_LOD1Mesh">
      <mesh>
        <source id="SM_Chiton_04_LOD1-POSITION">
          <float_array id="SM_Chiton_04_LOD1-POSITION-array" count="234">
5.785400 2.580505 8.824234
-8.086411 -23.697479 0.000007
13.864746 14.412262 0.000002
-11.406151 21.418839 0.000002
12.684669 -20.156815 0.000007
1.831558 25.305161 0.000001
-3.180000 -4.891891 10.103662
15.655022 3.226410 0.000004
-0.864479 -13.579651 7.698790
-4.124756 2.802979 9.835247
-3.577614 18.202423 2.151146
4.189018 -18.466034 1.835519
-11.838661 -15.853516 0.132296
7.197304 18.402374 0.661461
-6.297523 -14.157150 5.922316
-4.061829 -16.684097 3.892644
-6.014793 -12.284012 5.747190
-15.511978 10.181580 0.000003
0.315224 6.655411 9.582320
-6.021378 20.866196 1.938827
-10.981071 18.279694 0.083460
-4.201515 21.097778 0.851052
-5.630257 15.742218 3.298394
3.407112 -5.661713 10.015459
-8.635658 15.299484 1.967879
-13.594727 -18.490875 0.000006
12.534180 -9.498856 1.250760
14.363884 4.724579 0.064452
-7.005318 -14.758392 3.520674
-4.197273 -21.140793 0.222412
-12.315651 7.811829 1.880835
-8.429672 22.458160 0.018321
2.699753 10.234177 7.645086
-5.931725 17.601364 1.807872
-4.785904 9.739655 7.361990
-8.558678 18.938690 1.611774
-7.543922 -5.574371 7.180666
10.948853 12.363678 1.406055
-2.792580 -14.305161 6.335979
8.444458 21.612076 0.000002
-8.746178 16.105515 1.581150
-14.282730 0.472900 0.375673
5.549828 -24.595718 0.000007
0.203018 -7.949631 10.217829
-1.227043 -19.704498 1.615249
16.000648 -13.251190 0.000006
1.609543 18.018661 2.475040
11.927094 3.893845 3.571750
-4.033646 -11.868591 7.615927
9.803062 -15.046219 1.406058
-4.820572 -15.627625 5.590600
5.849884 14.650406 4.248809
-8.229362 4.232300 7.067313
-0.867111 21.626556 0.224028
-6.184669 -17.774704 1.809380
-7.702843 16.529083 1.432213
-7.368790 20.252182 2.170036
-10.005486 18.155869 0.137662
6.707619 7.945389 7.325140
6.879700 -7.779007 7.214868
-10.315125 -14.105209 1.406058
-1.650742 -25.305161 0.000007
0.385132 -0.436432 11.494486
-4.737061 24.386230 0.000001
-4.226555 -12.707199 6.914964
-16.062416 0.273376 0.000004
4.901543 -21.038101 0.207891
-9.390793 19.664795 0.411771
2.555038 -12.777100 7.568508
-14.272995 8.855743 0.064451
-11.994316 1.152588 3.443632
-3.899940 17.985901 2.171768
-12.228867 -8.091827 1.250760
11.382729 -17.186401 0.137666
-1.023338 -17.749329 4.379836
9.418953 11.591980 3.924767
14.219086 -11.025330 0.064454
13.071175 2.716843 1.233900
</float_array>
          <technique_common>
            <accessor source="#SM_Chiton_04_LOD1-POSITION-array" count="78" stride="3">
              <param name="X" type="float"/>
              <param name="Y" type="float"/>
              <param name="Z" type="float"/>
            </accessor>
          </technique_common>
        </source>
        <source id="SM_Chiton_04_LOD1-Normal0">
          <float_array id="SM_Chiton_04_LOD1-Normal0-array" count="1125">
-0.752420 -0.152311 0.640831
-0.630829 -0.153589 0.760569
-0.757562 -0.004194 0.652749
0.805404 0.085376 0.586546
0.582946 -0.226612 0.780270
0.603684 -0.136767 0.785405
-0.336828 0.416089 0.844640
0.140100 0.466366 0.873427
0.084529 0.579178 0.810807
-0.067703 -0.547875 0.833816
-0.381825 -0.559699 0.735491
-0.046443 -0.702141 0.710521
0.084529 0.579178 0.810807
0.140100 0.466366 0.873427
0.337501 0.521848 0.783434
0.501169 0.089509 0.860708
0.582946 -0.226612 0.780270
0.805404 0.085376 0.586546
0.051114 0.049197 0.997480
-0.390589 0.136379 0.910407
-0.387170 -0.144596 0.910600
0.442688 -0.336893 0.830981
0.317454 -0.487386 0.813436
0.247421 -0.563340 0.788309
-0.067703 -0.547875 0.833816
-0.422203 -0.402517 0.812234
-0.381825 -0.559699 0.735491
0.051114 0.049197 0.997480
-0.387170 -0.144596 0.910600
0.033804 -0.303533 0.952221
-0.657908 0.187787 0.729310
-0.336828 0.416089 0.844640
-0.452767 0.371194 0.810689
-0.630829 -0.153589 0.760569
-0.615876 0.146451 0.774112
-0.757562 -0.004194 0.652749
-0.010156 0.275871 0.961141
0.225314 0.349403 0.909479
0.081350 0.143091 0.986361
-0.032006 0.031364 0.998995
-0.010156 0.275871 0.961141
-0.018830 0.054638 0.998329
0.087022 -0.255740 0.962821
-0.040178 -0.716192 0.696746
-0.086353 -0.274836 0.957606
0.170614 -0.138465 0.975560
0.247421 -0.563340 0.788309
0.087022 -0.255740 0.962821
0.016203 -0.054217 0.998398
-0.086353 -0.274836 0.957606
-0.000790 -0.053813 0.998551
-0.041238 -0.024210 0.998856
-0.215951 -0.126180 0.968217
-0.191976 -0.006273 0.981380
0.619868 0.400114 0.675035
0.463651 0.281800 0.840010
0.805404 0.085376 0.586546
0.081350 0.143091 0.986361
0.225314 0.349403 0.909479
0.303176 0.148510 0.941291
-0.659022 -0.192303 0.727124
-0.112943 -0.476772 0.871741
-0.587348 -0.038032 0.808440
-0.214691 -0.725730 0.653623
-0.779793 -0.536791 0.322146
-0.235541 -0.868891 0.435373
-0.044041 0.009224 0.998987
-0.178457 0.172916 0.968635
-0.032006 0.031364 0.998995
0.051114 0.049197 0.997480
0.409342 -0.209890 0.887911
0.501169 0.089509 0.860708
-0.336828 0.416089 0.844640
0.035886 0.337936 0.940485
0.140100 0.466366 0.873427
-0.535569 0.207604 0.818576
-0.255659 0.226576 0.939841
-0.374138 0.562847 0.737037
0.235026 0.450992 0.861028
-0.170197 0.298764 0.939028
0.256006 0.447264 0.856981
-0.255659 0.226576 0.939841
-0.641121 -0.097978 0.761160
-0.170197 0.298764 0.939028
0.051114 0.049197 0.997480
0.033804 -0.303533 0.952221
0.409342 -0.209890 0.887911
0.582946 -0.226612 0.780270
0.317454 -0.487386 0.813436
0.442688 -0.336893 0.830981
-0.452767 0.371194 0.810689
-0.336828 0.416089 0.844640
-0.173127 0.548497 0.818033
-0.178457 0.172916 0.968635
-0.010156 0.275871 0.961141
-0.032006 0.031364 0.998995
-0.028036 -0.044222 0.998628
-0.086353 -0.274836 0.957606
-0.041238 -0.024210 0.998856
0.325378 0.041486 0.944674
0.241737 -0.061286 0.968404
0.051020 0.001484 0.998697
0.442688 -0.336893 0.830981
0.247421 -0.563340 0.788309
0.170614 -0.138465 0.975560
0.303176 0.148510 0.941291
0.547585 0.271940 0.791327
0.325378 0.041486 0.944674
0.303176 0.148510 0.941291
0.325378 0.041486 0.944674
0.051020 0.001484 0.998697
-0.779793 -0.536791 0.322146
-0.659022 -0.192303 0.727124
-0.587348 -0.038032 0.808440
-0.381825 -0.559699 0.735491
-0.422203 -0.402517 0.812234
-0.530094 -0.284539 0.798773
-0.086353 -0.274836 0.957606
-0.215951 -0.126180 0.968217
-0.041238 -0.024210 0.998856
-0.215951 -0.126180 0.968217
-0.517299 -0.017453 0.855627
-0.191976 -0.006273 0.981380
-0.657908 0.187787 0.729310
-0.452767 0.371194 0.810689
-0.316088 0.081297 0.945240
-0.374138 0.562847 0.737037
0.235026 0.450992 0.861028
0.256006 0.447264 0.856981
0.140100 0.466366 0.873427
0.463651 0.281800 0.840010
0.619868 0.400114 0.675035
0.140100 0.466366 0.873427
0.035886 0.337936 0.940485
0.463651 0.281800 0.840010
-0.170197 0.298764 0.939028
-0.190898 0.585873 0.787598
-0.310226 0.563525 0.765637
0.256006 0.447264 0.856981
-0.170197 0.298764 0.939028
-0.238737 0.444275 0.863496
-0.615876 0.146451 0.774112
-0.336828 0.416089 0.844640
-0.657908 0.187787 0.729310
-0.390589 0.136379 0.910407
0.035886 0.337936 0.940485
-0.336828 0.416089 0.844640
-0.170197 0.298764 0.939028
-0.641121 -0.097978 0.761160
-0.527659 0.717656 0.454472
-0.300936 0.221540 0.927555
-0.535569 0.207604 0.818576
-0.374138 0.562847 0.737037
-0.630829 -0.153589 0.760569
-0.387170 -0.144596 0.910600
-0.615876 0.146451 0.774112
0.033804 -0.303533 0.952221
-0.387170 -0.144596 0.910600
-0.422203 -0.402517 0.812234
0.337501 0.521848 0.783434
0.140100 0.466366 0.873427
0.619868 0.400114 0.675035
0.225314 0.349403 0.909479
0.547585 0.271940 0.791327
0.303176 0.148510 0.941291
-0.112943 -0.476772 0.871741
-0.214691 -0.725730 0.653623
-0.235541 -0.868891 0.435373
0.013332 0.051034 0.998608
-0.010156 0.275871 0.961141
0.081350 0.143091 0.986361
-0.527659 0.717656 0.454472
-0.535569 0.207604 0.818576
-0.300936 0.221540 0.927555
-0.757562 -0.004194 0.652749
-0.615876 0.146451 0.774112
-0.657908 0.187787 0.729310
-0.517299 -0.017453 0.855627
-0.657908 0.187787 0.729310
-0.316088 0.081297 0.945240
0.087022 -0.255740 0.962821
-0.086353 -0.274836 0.957606
0.016203 -0.054217 0.998398
0.033804 -0.303533 0.952221
-0.422203 -0.402517 0.812234
-0.067703 -0.547875 0.833816
0.582946 -0.226612 0.780270
0.033804 -0.303533 0.952221
0.317454 -0.487386 0.813436
0.247421 -0.563340 0.788309
-0.067703 -0.547875 0.833816
-0.046443 -0.702141 0.710521
0.247421 -0.563340 0.788309
-0.040178 -0.716192 0.696746
0.087022 -0.255740 0.962821
0.051020 0.001484 0.998697
0.241737 -0.061286 0.968404
0.036353 -0.005405 0.999324
-0.173127 0.548497 0.818033
-0.336828 0.416089 0.844640
0.084529 0.579178 0.810807
-0.178457 0.172916 0.968635
-0.173127 0.548497 0.818033
-0.010156 0.275871 0.961141
0.547585 0.271940 0.791327
0.805404 0.085376 0.586546
0.786122 0.033695 0.617152
0.805404 0.085376 0.586546
0.603684 -0.136767 0.785405
0.786122 0.033695 0.617152
-0.422203 -0.402517 0.812234
-0.387170 -0.144596 0.910600
-0.630829 -0.153589 0.760569
-0.422203 -0.402517 0.812234
-0.630829 -0.153589 0.760569
-0.530094 -0.284539 0.798773
0.241737 -0.061286 0.968404
0.442688 -0.336893 0.830981
0.170614 -0.138465 0.975560
0.603684 -0.136767 0.785405
0.582946 -0.226612 0.780270
0.442688 -0.336893 0.830981
-0.779793 -0.536791 0.322146
-0.214691 -0.725730 0.653623
-0.659022 -0.192303 0.727124
-0.659022 -0.192303 0.727124
-0.214691 -0.725730 0.653623
-0.112943 -0.476772 0.871741
0.225314 0.349403 0.909479
0.337501 0.521848 0.783434
0.547585 0.271940 0.791327
0.084529 0.579178 0.810807
0.337501 0.521848 0.783434
0.225314 0.349403 0.909479
-0.615876 0.146451 0.774112
-0.390589 0.136379 0.910407
-0.336828 0.416089 0.844640
-0.387170 -0.144596 0.910600
-0.390589 0.136379 0.910407
-0.615876 0.146451 0.774112
-0.010156 0.275871 0.961141
0.084529 0.579178 0.810807
0.225314 0.349403 0.909479
-0.173127 0.548497 0.818033
0.084529 0.579178 0.810807
-0.010156 0.275871 0.961141
-0.086353 -0.274836 0.957606
-0.381825 -0.559699 0.735491
-0.215951 -0.126180 0.968217
-0.040178 -0.716192 0.696746
-0.381825 -0.559699 0.735491
-0.086353 -0.274836 0.957606
-0.170197 0.298764 0.939028
-0.527659 0.717656 0.454472
-0.190898 0.585873 0.787598
-0.190898 0.585873 0.787598
-0.527659 0.717656 0.454472
-0.300936 0.221540 0.927555
0.235026 0.450992 0.861028
-0.255659 0.226576 0.939841
-0.170197 0.298764 0.939028
-0.255659 0.226576 0.939841
0.235026 0.450992 0.861028
-0.374138 0.562847 0.737037
-0.316088 0.081297 0.945240
-0.452767 0.371194 0.810689
-0.178457 0.172916 0.968635
-0.452767 0.371194 0.810689
-0.173127 0.548497 0.818033
-0.178457 0.172916 0.968635
0.035886 0.337936 0.940485
0.501169 0.089509 0.860708
0.463651 0.281800 0.840010
0.463651 0.281800 0.840010
0.501169 0.089509 0.860708
0.805404 0.085376 0.586546
0.501169 0.089509 0.860708
0.409342 -0.209890 0.887911
0.582946 -0.226612 0.780270
0.409342 -0.209890 0.887911
0.033804 -0.303533 0.952221
0.582946 -0.226612 0.780270
-0.381825 -0.559699 0.735491
-0.530094 -0.284539 0.798773
-0.215951 -0.126180 0.968217
-0.215951 -0.126180 0.968217
-0.752420 -0.152311 0.640831
-0.517299 -0.017453 0.855627
-0.086353 -0.274836 0.957606
-0.028036 -0.044222 0.998628
-0.000790 -0.053813 0.998551
0.051114 0.049197 0.997480
0.501169 0.089509 0.860708
0.035886 0.337936 0.940485
0.051114 0.049197 0.997480
0.035886 0.337936 0.940485
-0.390589 0.136379 0.910407
-0.018830 0.054638 0.998329
-0.010156 0.275871 0.961141
0.013332 0.051034 0.998608
-0.587348 -0.038032 0.808440
-0.112943 -0.476772 0.871741
-0.514042 -0.659859 0.548039
-0.517299 -0.017453 0.855627
-0.316088 0.081297 0.945240
-0.191976 -0.006273 0.981380
0.037471 -0.033385 0.998740
0.087022 -0.255740 0.962821
0.016203 -0.054217 0.998398
0.170614 -0.138465 0.975560
0.087022 -0.255740 0.962821
0.037471 -0.033385 0.998740
-0.641121 -0.097978 0.761160
-0.255659 0.226576 0.939841
-0.535569 0.207604 0.818576
-0.527659 0.717656 0.454472
-0.641121 -0.097978 0.761160
-0.535569 0.207604 0.818576
0.317454 -0.487386 0.813436
-0.067703 -0.547875 0.833816
0.247421 -0.563340 0.788309
0.317454 -0.487386 0.813436
0.033804 -0.303533 0.952221
-0.067703 -0.547875 0.833816
-0.316088 0.081297 0.945240
-0.178457 0.172916 0.968635
-0.044041 0.009224 0.998987
-0.191976 -0.006273 0.981380
-0.316088 0.081297 0.945240
-0.044041 0.009224 0.998987
-0.517299 -0.017453 0.855627
-0.757562 -0.004194 0.652749
-0.657908 0.187787 0.729310
-0.752420 -0.152311 0.640831
-0.757562 -0.004194 0.652749
-0.517299 -0.017453 0.855627
-0.238737 0.444275 0.863496
-0.170197 0.298764 0.939028
-0.310226 0.563525 0.765637
-0.530094 -0.284539 0.798773
-0.752420 -0.152311 0.640831
-0.215951 -0.126180 0.968217
-0.530094 -0.284539 0.798773
-0.630829 -0.153589 0.760569
-0.752420 -0.152311 0.640831
0.036353 -0.005405 0.999324
0.170614 -0.138465 0.975560
0.037471 -0.033385 0.998740
0.241737 -0.061286 0.968404
0.170614 -0.138465 0.975560
0.036353 -0.005405 0.999324
-0.046443 -0.702141 0.710521
-0.381825 -0.559699 0.735491
-0.040178 -0.716192 0.696746
0.247421 -0.563340 0.788309
-0.046443 -0.702141 0.710521
-0.040178 -0.716192 0.696746
0.619868 0.400114 0.675035
0.805404 0.085376 0.586546
0.547585 0.271940 0.791327
0.337501 0.521848 0.783434
0.619868 0.400114 0.675035
0.547585 0.271940 0.791327
0.786122 0.033695 0.617152
0.603684 -0.136767 0.785405
0.241737 -0.061286 0.968404
0.603684 -0.136767 0.785405
0.442688 -0.336893 0.830981
0.241737 -0.061286 0.968404
0.547585 0.271940 0.791327
0.786122 0.033695 0.617152
0.325378 0.041486 0.944674
0.325378 0.041486 0.944674
0.786122 0.033695 0.617152
0.241737 -0.061286 0.968404
</float_array>
          <technique_common>
            <accessor source="#SM_Chiton_04_LOD1-Normal0-array" count="375" stride="3">
              <param name="X" type="float"/>
              <param name="Y" type="float"/>
              <param name="Z" type="float"/>
            </accessor>
          </technique_common>
        </source>
        <source id="SM_Chiton_04_LOD1-UV0">
          <float_array id="SM_Chiton_04_LOD1-UV0-array" count="156">
0.961895 0.066403
0.781000 0.161326
0.756212 0.039049
0.838526 0.121907
0.939354 0.163221
0.733547 0.100500
0.871813 0.086354
0.839920 0.080690
0.808720 0.021286
0.938882 0.038627
0.831614 0.173798
0.435085 0.314714
0.362949 0.332161
0.391416 0.273929
0.407322 0.351916
0.436293 0.308986
0.362292 0.325850
0.388345 0.278191
0.906472 0.178023
0.926213 0.045957
0.770055 0.077117
0.907489 0.098040
0.873422 0.113777
0.407230 0.351374
0.822427 0.097877
0.890050 0.159948
0.388411 0.320368
0.948663 0.084271
0.915907 0.148171
0.852337 0.099973
0.764776 0.127829
0.784491 0.054354
0.819152 0.038761
0.416278 0.318727
0.416105 0.320651
0.748853 0.133555
0.962165 0.131940
0.792029 0.146692
0.380137 0.298320
0.810321 0.075469
0.875696 0.068258
0.386169 0.312691
0.825111 0.166745
0.815262 0.124808
0.917028 0.053639
0.740041 0.069351
0.400653 0.294673
0.967568 0.097577
0.769575 0.101087
0.903259 0.112229
0.418477 0.284076
0.852522 0.029305
0.834917 0.063064
0.883703 0.101298
0.853871 0.020036
0.403773 0.322344
0.932631 0.122738
0.896829 0.169380
0.881410 0.128875
0.785082 0.120607
0.419678 0.284180
0.932272 0.074230
0.939882 0.097754
0.834845 0.159543
0.751857 0.088651
0.830504 0.151563
0.770679 0.046034
0.890448 0.042474
0.383097 0.334256
0.901072 0.084480
0.369565 0.299368
0.814416 0.027503
0.797357 0.137799
0.927749 0.098252
0.806104 0.107604
0.926002 0.156854
0.945706 0.127381
0.848891 0.043518
</float_array>
          <technique_common>
            <accessor source="#SM_Chiton_04_LOD1-UV0-array" count="78" stride="2">
              <param name="S" type="float"/>
              <param name="T" type="float"/>
            </accessor>
          </technique_common>
        </source>
        <vertices id="SM_Chiton_04_LOD1-VERTEX">
          <input semantic="POSITION" source="#SM_Chiton_04_LOD1-POSITION"/>
        </vertices>
        <triangles count="125" material="MAT_Sea_Shells">
          <input semantic="VERTEX" offset="0" source="#SM_Chiton_04_LOD1-VERTEX"/>
          <input semantic="NORMAL" offset="1" source="#SM_Chiton_04_LOD1-Normal0"/>
          <input semantic="TEXCOORD" offset="2" set="0" source="#SM_Chiton_04_LOD1-UV0"/>
          <p> 72 0 67 36 1 40 70 2 77 47 3 65 59 4 58 26 5 25 34 6 39 32 7 74 46 8 48 8 9 21 54 10 61 74 11 73 46 12 48 32 13 74 51 14 59 0 15 3 59 16 58 47 17 65 62 18 29 9 19 7 6 20 6 49 21 28 68 22 49 11 23 56 8 24 21 48 25 69 54 26 61 62 27 29 6 28 6 43 29 53 30 30 32 34 31 39 24 32 31 36 33 40 52 34 52 70 35 77 53 36 64 13 37 30 39 38 35 3 39 2 53 40 64 63 41 45 66 42 76 44 43 62 29 44 27 73 45 75 11 46 56 66 47 76 42 48 36 29 49 27 61 50 47 25 51 9 12 52 19 65 53 54 75 54 72 58 55 43 47 56 65 39 57 35 13 58 30 2 59 1 14 60 33 38 61 17 16 62 15 50 63 41 28 64 23 15 65 16 17 66 8 57 67 66 3 68 2 62 69 29 23 70 22 0 71 3 34 72 39 18 73 24 32 74 74 67 75 68 56 76 55 31 77 14 19 78 34 33 79 46 21 80 11 56 81 55 35 82 26 33 83 46 62 84 29 43 85 53 23 86 22 59 87 58 68 88 49 49 89 28 24 90 31 34 91 39 10 92 20 57 93 66 53 94 64 3 95 2 1 96 0 29 97 27 25 98 9 27 99 42 76 100 57 7 101 10 49 102 28 11 103 56 73 104 75 2 105 1 37 106 37 27 107 42 2 108 1 27 109 42 7 110 10 28 111 23 14 112 33 16 113 15 54 114 61 48 115 69 60 116 44 29 117 27 12 118 19 25 119 9 12 120 19 41 121 51 65 122 54 30 123 32 24 124 31 69 125 71 31 126 14 19 127 34 21 128 11 32 129 74 58 130 43 75 131 72 32 132 74 18 133 24 58 134 43 33 135 46 40 136 70 22 137 13 21 138 11 33 139 46 71 140 50 52 141 52 34 142 39 30 143 32 9 144 7 18 145 24 34 146 39 33 147 46 35 148 26 55 149 38 20 150 12 67 151 68 31 152 14 36 153 40 6 154 6 52 155 52 43 156 53 6 157 6 48 158 69 51 159 59 32 160 74 75 161 72 13 162 30 37 163 37 2 164 1 38 165 17 50 166 41 15 167 16 5 168 5 53 169 64 39 170 35 55 171 38 67 172 68 20 173 12 70 174 77 52 175 52 30 176 32 41 177 51 30 178 32 69 179 71 66 180 76 29 181 27 42 182 36 43 183 53 48 184 69 8 185 21 59 186 58 43 187 53 68 188 49 11 189 56 8 190 21 74 191 73 11 192 56 44 193 62 66 194 76 7 195 10 76 196 57 45 197 18 10 198 20 34 199 39 46 200 48 57 201 66 10 202 20 53 203 64 37 204 37 47 205 65 77 206 63 47 207 65 26 208 25 77 209 63 48 210 69 6 211 6 36 212 40 48 213 69 36 214 40 60 215 44 76 216 57 49 217 28 73 218 75 26 219 25 59 220 58 49 221 28 28 222 23 50 223 41 14 224 33 14 225 33 50 226 41 38 227 17 13 228 30 51 229 59 37 230 37 46 231 48 51 232 59 13 233 30 52 234 52 9 235 7 34 236 39 6 237 6 9 238 7 52 239 52 53 240 64 46 241 48 13 242 30 10 243 20 46 244 48 53 245 64 29 246 27 54 247 61 12 248 19 44 249 62 54 250 61 29 251 27 33 252 46 55 253 38 40 254 70 40 255 70 55 256 38 20 257 12 19 258 34 56 259 55 33 260 46 56 261 55 19 262 34 31 263 14 69 264 71 24 265 31 57 266 66 24 267 31 10 268 20 57 269 66 18 270 24 0 271 3 58 272 43 58 273 43 0 274 3 47 275 65 0 276 3 23 277 22 59 278 58 23 279 22 43 280 53 59 281 58 54 282 61 60 283 44 12 284 19 12 285 19 72 286 67 41 287 51 29 288 27 1 289 0 61 290 47 62 291 29 0 292 3 18 293 24 62 294 29 18 295 24 9 296 7 63 297 45 53 298 64 5 299 5 16 300 15 38 301 17 64 302 60 41 303 51 69 304 71 65 305 54 4 306 4 66 307 76 42 308 36 73 309 75 66 310 76 4 311 4 35 312 26 56 313 55 67 314 68 55 315 38 35 316 26 67 317 68 68 318 49 8 319 21 11 320 56 68 321 49 43 322 53 8 323 21 69 324 71 57 325 66 17 326 8 65 327 54 69 328 71 17 329 8 41 330 51 70 331 77 30 332 32 72 333 67 70 334 77 41 335 51 71 336 50 33 337 46 22 338 13 60 339 44 72 340 67 12 341 19 60 342 44 36 343 40 72 344 67 45 345 18 73 346 75 4 347 4 76 348 57 73 349 75 45 350 18 74 351 73 54 352 61 44 353 62 11 354 56 74 355 73 44 356 62 75 357 72 47 358 65 37 359 37 51 360 59 75 361 72 37 362 37 77 363 63 26 364 25 76 365 57 26 366 25 49 367 28 76 368 57 37 369 37 77 370 63 27 371 42 27 372 42 77 373 63 76 374 57</p>
        </triangles>
      </mesh>
    </geometry>
  </library_geometries>
  <library_visual_scenes>
    <visual_scene id="SM_Chiton_04" name="SM_Chiton_04">
      <node name="SM_Chiton_04_LOD0" id="SM_Chiton_04_LOD0" layer="shells" sid="SM_Chiton_04_LOD0">
        <matrix sid="matrix">1.000000 0.000000 0.000000 0.000000 0.000000 0.000000 1.000000 0.000000 0.000000 -1.000000 0.000000 0.000000 0.000000 0.000000 0.000000 1.000000</matrix>
        <instance_geometry url="#SM_Chiton_04_LOD0-lib">
          <bind_material>
            <technique_common>
              <instance_material symbol="MAT_Sea_Shells" target="#MAT_Sea_Shells"/>
            </technique_common>
          </bind_material>
        </instance_geometry>
        <extra>
          <technique profile="FCOLLADA">
            <visibility>1.000000</visibility>
          </technique>
        </extra>
      </node>
      <node name="SM_Chiton_04_LOD1" id="SM_Chiton_04_LOD1" layer="shells" sid="SM_Chiton_04_LOD1">
        <matrix sid="matrix">1.000000 0.000000 0.000000 0.000000 0.000000 0.000000 1.000000 0.000000 0.000000 -1.000000 0.000000 0.000000 0.000000 0.000000 0.000000 1.000000</matrix>
        <instance_geometry url="#SM_Chiton_04_LOD1-lib">
          <bind_material>
            <technique_common>
              <instance_material symbol="MAT_Sea_Shells" target="#MAT_Sea_Shells"/>
            </technique_common>
          </bind_material>
        </instance_geometry>
        <extra>
          <technique profile="FCOLLADA">
            <visibility>1.000000</visibility>
          </technique>
        </extra>
      </node>
      <extra>
        <technique profile="MAX3D">
          <frame_rate>30.000000</frame_rate>
        </technique>
        <technique profile="FCOLLADA">
          <start_time>0.000000</start_time>
          <end_time>3.333333</end_time>
        </technique>
      </extra>
    </visual_scene>
  </library_visual_scenes>
  <scene>
    <instance_visual_scene url="#SM_Chiton_04"/>
  </scene>
</COLLADA>
