<?xml version="1.0" encoding="utf-8"?>
<COLLADA xmlns="http://www.collada.org/2005/11/COLLADASchema" version="1.4.1">
  <asset>
    <contributor>
      <author/>
      <authoring_tool>FBX COLLADA exporter</authoring_tool>
      <comments/>
    </contributor>
    <created>2024-02-10T11:42:35Z</created>
    <keywords/>
    <modified>2024-02-10T11:42:35Z</modified>
    <revision/>
    <subject/>
    <title/>
    <unit meter="0.010000" name="centimeter"/>
    <up_axis>Y_UP</up_axis>
  </asset>
  <library_materials>
    <material id="MAT_Sea_Shells" name="MAT_Sea_Shells">
      <instance_effect url="#MAT_Sea_Shells-fx"/>
    </material>
  </library_materials>
  <library_effects>
    <effect id="MAT_Sea_Shells-fx" name="MAT_Sea_Shells">
      <profile_COMMON>
        <technique sid="standard">
          <phong>
            <emission>
              <color sid="emission">0.000000  0.000000 0.000000 1.000000</color>
            </emission>
            <ambient>
              <color sid="ambient">0.588235  0.588235 0.588235 1.000000</color>
            </ambient>
            <diffuse>
              <color sid="diffuse">0.588235  0.588235 0.588235 1.000000</color>
            </diffuse>
            <specular>
              <color sid="specular">0.000000  0.000000 0.000000 1.000000</color>
            </specular>
            <shininess>
              <float sid="shininess">2.000000</float>
            </shininess>
            <reflective>
              <color sid="reflective">0.000000  0.000000 0.000000 1.000000</color>
            </reflective>
            <reflectivity>
              <float sid="reflectivity">1.000000</float>
            </reflectivity>
            <transparent opaque="RGB_ZERO">
              <color sid="transparent">1.000000  1.000000 1.000000 1.000000</color>
            </transparent>
            <transparency>
              <float sid="transparency">0.000000</float>
            </transparency>
          </phong>
        </technique>
      </profile_COMMON>
    </effect>
  </library_effects>
  <library_geometries>
    <geometry id="SM_Limpet_02_LOD0-lib" name="SM_Limpet_02_LOD0Mesh">
      <mesh>
        <source id="SM_Limpet_02_LOD0-POSITION">
          <float_array id="SM_Limpet_02_LOD0-POSITION-array" count="147">
-3.972054 1.427551 -0.000000
-4.297607 0.000031 -0.000000
-3.972069 -1.427460 0.000000
-3.041138 -2.637634 0.000000
-2.690842 -1.108276 0.982205
-1.927208 -2.047852 0.920877
-1.639000 -3.446259 0.000000
0.018059 -3.730225 0.000000
0.501450 -2.896118 0.829816
1.775749 -2.675629 0.856940
1.667564 -3.446259 0.000000
3.055008 -2.637634 0.000000
2.836296 -2.047852 0.920877
3.536064 -1.108246 0.982205
3.975677 -1.427490 0.000000
3.780006 0.000000 1.007006
4.297607 0.000000 0.000000
3.975655 1.427490 -0.000000
3.055046 2.637665 -0.000000
2.836296 2.047882 0.920877
1.667587 3.446289 -0.000000
1.775749 2.675690 0.856940
0.018059 3.730255 -0.000000
-1.639023 3.446289 -0.000000
-3.041161 2.637665 -0.000000
-2.690842 1.108307 0.982205
-2.961235 0.000000 1.007006
-0.300179 -0.468903 2.091901
-0.800720 -2.675629 0.856938
0.481422 -1.132019 2.050186
1.024872 -1.225311 2.041400
1.561081 -1.132050 2.050186
3.536064 1.108307 0.982205
1.561073 1.132111 2.050186
0.501411 2.896118 0.829816
1.024841 1.225372 2.041400
-0.800735 2.675690 0.856938
0.481369 1.132080 2.050186
-1.927223 2.047882 0.920877
-0.300156 0.468933 2.091901
0.014717 0.866486 2.071192
2.010422 0.866455 2.071192
2.308212 0.468933 2.091901
2.412155 0.000031 2.100394
2.308228 -0.468903 2.091901
2.010422 -0.866425 2.071192
0.014717 -0.866394 2.071192
1.082474 0.000061 2.503561
-0.411369 0.000000 2.100394
</float_array>
          <technique_common>
            <accessor source="#SM_Limpet_02_LOD0-POSITION-array" count="49" stride="3">
              <param name="X" type="float"/>
              <param name="Y" type="float"/>
              <param name="Z" type="float"/>
            </accessor>
          </technique_common>
        </source>
        <source id="SM_Limpet_02_LOD0-Normal0">
          <float_array id="SM_Limpet_02_LOD0-Normal0-array" count="720">
-0.497717 -0.000978 0.867339
-0.536605 0.272701 0.798554
-0.593580 -0.000978 0.804774
-0.536605 -0.272701 0.798554
-0.497717 -0.000978 0.867339
-0.593580 -0.000978 0.804774
-0.452379 -0.247196 0.856882
-0.497717 -0.000978 0.867339
-0.536605 -0.272701 0.798554
-0.392044 -0.485900 0.781155
-0.452379 -0.247196 0.856882
-0.536605 -0.272701 0.798554
-0.335203 -0.442703 0.831656
-0.452379 -0.247196 0.856882
-0.392044 -0.485900 0.781155
-0.206233 -0.626518 0.751627
-0.335203 -0.442703 0.831656
-0.392044 -0.485900 0.781155
-0.178769 -0.575381 0.798109
-0.335203 -0.442703 0.831656
-0.206233 -0.626518 0.751627
0.006837 -0.713893 0.700222
-0.178769 -0.575381 0.798109
-0.206233 -0.626518 0.751627
0.004890 -0.652313 0.757934
-0.178769 -0.575381 0.798109
0.006837 -0.713893 0.700222
0.264946 -0.736179 0.622771
0.004890 -0.652313 0.757934
0.006837 -0.713893 0.700222
0.229587 -0.663361 0.712209
0.004890 -0.652313 0.757934
0.264946 -0.736179 0.622771
0.554417 -0.632641 0.540728
0.229587 -0.663361 0.712209
0.264946 -0.736179 0.622771
0.478148 -0.568106 0.669798
0.229587 -0.663361 0.712209
0.554417 -0.632641 0.540728
0.794471 -0.372306 0.479796
0.478148 -0.568106 0.669798
0.554417 -0.632641 0.540728
0.688352 -0.334900 0.643438
0.478148 -0.568106 0.669798
0.794471 -0.372306 0.479796
0.887892 0.000977 0.460051
0.688352 -0.334900 0.643438
0.794471 -0.372306 0.479796
0.773085 0.000978 0.634301
0.688352 -0.334900 0.643438
0.887892 0.000977 0.460051
0.688352 0.334900 0.643438
0.773085 0.000978 0.634301
0.887892 0.000977 0.460051
0.794471 0.372306 0.479796
0.688352 0.334900 0.643438
0.887892 0.000977 0.460051
0.478148 0.568106 0.669798
0.688352 0.334900 0.643438
0.794471 0.372306 0.479796
0.554417 0.632641 0.540728
0.478148 0.568106 0.669798
0.794471 0.372306 0.479796
0.229587 0.663361 0.712209
0.478148 0.568106 0.669798
0.554417 0.632641 0.540728
0.264946 0.736179 0.622771
0.229587 0.663361 0.712209
0.554417 0.632641 0.540728
0.004890 0.652313 0.757934
0.229587 0.663361 0.712209
0.264946 0.736179 0.622771
0.006837 0.713893 0.700221
0.004890 0.652313 0.757934
0.264946 0.736179 0.622771
-0.178769 0.575381 0.798109
0.004890 0.652313 0.757934
0.006837 0.713893 0.700221
-0.206233 0.626518 0.751627
-0.178769 0.575381 0.798109
0.006837 0.713893 0.700221
-0.335203 0.442703 0.831656
-0.178769 0.575381 0.798109
-0.206233 0.626518 0.751627
-0.392044 0.485900 0.781155
-0.335203 0.442703 0.831656
-0.206233 0.626518 0.751627
-0.452379 0.247196 0.856882
-0.335203 0.442703 0.831656
-0.392044 0.485900 0.781155
-0.536605 0.272701 0.798554
-0.452379 0.247196 0.856882
-0.392044 0.485900 0.781155
-0.497717 -0.000978 0.867339
-0.452379 0.247196 0.856882
-0.536605 0.272701 0.798554
-0.327345 -0.000977 0.944904
-0.452379 0.247196 0.856882
-0.497717 -0.000978 0.867339
-0.452379 -0.247196 0.856882
-0.327345 -0.000977 0.944904
-0.497717 -0.000978 0.867339
-0.300308 -0.182924 0.936138
-0.327345 -0.000977 0.944904
-0.452379 -0.247196 0.856882
-0.335203 -0.442703 0.831656
-0.300308 -0.182924 0.936138
-0.452379 -0.247196 0.856882
-0.223979 -0.331568 0.916458
-0.300308 -0.182924 0.936138
-0.335203 -0.442703 0.831656
-0.178769 -0.575381 0.798109
-0.223979 -0.331568 0.916458
-0.335203 -0.442703 0.831656
-0.120108 -0.428678 0.895438
-0.223979 -0.331568 0.916458
-0.178769 -0.575381 0.798109
0.004890 -0.652313 0.757934
-0.120108 -0.428678 0.895438
-0.178769 -0.575381 0.798109
0.002932 -0.473981 0.880530
-0.120108 -0.428678 0.895438
0.004890 -0.652313 0.757934
0.229587 -0.663361 0.712209
0.002932 -0.473981 0.880530
0.004890 -0.652313 0.757934
0.143822 -0.464731 0.873694
0.002932 -0.473981 0.880530
0.229587 -0.663361 0.712209
0.478148 -0.568106 0.669798
0.143822 -0.464731 0.873694
0.229587 -0.663361 0.712209
0.292509 -0.384468 0.875570
0.143822 -0.464731 0.873694
0.478148 -0.568106 0.669798
0.688352 -0.334900 0.643438
0.292509 -0.384468 0.875570
0.478148 -0.568106 0.669798
0.415240 -0.221787 0.882262
0.292509 -0.384468 0.875570
0.688352 -0.334900 0.643438
0.773085 0.000978 0.634301
0.415240 -0.221787 0.882262
0.688352 -0.334900 0.643438
0.464738 0.000979 0.885448
0.415240 -0.221787 0.882262
0.773085 0.000978 0.634301
0.415240 0.221787 0.882262
0.464738 0.000979 0.885448
0.773085 0.000978 0.634301
0.688352 0.334900 0.643438
0.415240 0.221787 0.882262
0.773085 0.000978 0.634301
0.292509 0.384468 0.875570
0.415240 0.221787 0.882262
0.688352 0.334900 0.643438
0.478148 0.568106 0.669798
0.292509 0.384468 0.875570
0.688352 0.334900 0.643438
0.143822 0.464731 0.873694
0.292509 0.384468 0.875570
0.478148 0.568106 0.669798
0.229587 0.663361 0.712209
0.143822 0.464731 0.873694
0.478148 0.568106 0.669798
0.002932 0.473981 0.880530
0.143822 0.464731 0.873694
0.229587 0.663361 0.712209
0.004890 0.652313 0.757934
0.002932 0.473981 0.880530
0.229587 0.663361 0.712209
-0.120108 0.428678 0.895438
0.002932 0.473981 0.880530
0.004890 0.652313 0.757934
-0.178769 0.575381 0.798109
-0.120108 0.428678 0.895438
0.004890 0.652313 0.757934
-0.223979 0.331568 0.916458
-0.120108 0.428678 0.895438
-0.178769 0.575381 0.798109
-0.335203 0.442703 0.831656
-0.223979 0.331568 0.916458
-0.178769 0.575381 0.798109
-0.300308 0.182924 0.936138
-0.223979 0.331568 0.916458
-0.335203 0.442703 0.831656
-0.452379 0.247196 0.856882
-0.300308 0.182924 0.936138
-0.335203 0.442703 0.831656
-0.327345 -0.000977 0.944904
-0.300308 0.182924 0.936138
-0.452379 0.247196 0.856882
0.008797 0.000978 0.999961
-0.300308 0.182924 0.936138
-0.327345 -0.000977 0.944904
0.008797 0.000978 0.999961
-0.223979 0.331568 0.916458
-0.300308 0.182924 0.936138
0.008797 0.000978 0.999961
-0.120108 0.428678 0.895438
-0.223979 0.331568 0.916458
0.008797 0.000978 0.999961
0.002932 0.473981 0.880530
-0.120108 0.428678 0.895438
0.008797 0.000978 0.999961
0.143822 0.464731 0.873694
0.002932 0.473981 0.880530
0.008797 0.000978 0.999961
0.292509 0.384468 0.875570
0.143822 0.464731 0.873694
0.008797 0.000978 0.999961
0.415240 0.221787 0.882262
0.292509 0.384468 0.875570
0.008797 0.000978 0.999961
0.464738 0.000979 0.885448
0.415240 0.221787 0.882262
0.008797 0.000978 0.999961
0.415240 -0.221787 0.882262
0.464738 0.000979 0.885448
0.008797 0.000978 0.999961
0.292509 -0.384468 0.875570
0.415240 -0.221787 0.882262
0.008797 0.000978 0.999961
0.143822 -0.464731 0.873694
0.292509 -0.384468 0.875570
0.008797 0.000978 0.999961
0.002932 -0.473981 0.880530
0.143822 -0.464731 0.873694
0.008797 0.000978 0.999961
-0.120108 -0.428678 0.895438
0.002932 -0.473981 0.880530
0.008797 0.000978 0.999961
-0.223979 -0.331568 0.916458
-0.120108 -0.428678 0.895438
0.008797 0.000978 0.999961
-0.300308 -0.182924 0.936138
-0.223979 -0.331568 0.916458
-0.327345 -0.000977 0.944904
-0.300308 -0.182924 0.936138
0.008797 0.000978 0.999961
</float_array>
          <technique_common>
            <accessor source="#SM_Limpet_02_LOD0-Normal0-array" count="240" stride="3">
              <param name="X" type="float"/>
              <param name="Y" type="float"/>
              <param name="Z" type="float"/>
            </accessor>
          </technique_common>
        </source>
        <source id="SM_Limpet_02_LOD0-UV0">
          <float_array id="SM_Limpet_02_LOD0-UV0-array" count="98">
0.125610 0.183594
0.128296 0.200195
0.136597 0.184082
0.129395 0.166992
0.140137 0.171387
0.140625 0.154297
0.149170 0.161621
0.155884 0.146973
0.162354 0.154785
0.173218 0.144531
0.177368 0.152832
0.190430 0.147949
0.191895 0.155762
0.205688 0.156250
0.203735 0.163086
0.216553 0.169434
0.211426 0.174316
0.220947 0.187012
0.213867 0.186523
0.210571 0.198730
0.215454 0.203613
0.202148 0.208984
0.203613 0.216309
0.189819 0.215820
0.187744 0.223633
0.175171 0.217773
0.170410 0.225586
0.160278 0.214844
0.153320 0.222168
0.147583 0.207031
0.138550 0.213379
0.139282 0.196289
0.165283 0.185059
0.166870 0.179199
0.170776 0.174805
0.176514 0.171875
0.183105 0.171387
0.189453 0.172363
0.194702 0.175781
0.198120 0.180664
0.199219 0.186035
0.197754 0.191406
0.194092 0.195801
0.188599 0.198730
0.182129 0.199707
0.175537 0.198730
0.170044 0.195313
0.166504 0.190430
0.182251 0.185547
</float_array>
          <technique_common>
            <accessor source="#SM_Limpet_02_LOD0-UV0-array" count="49" stride="2">
              <param name="S" type="float"/>
              <param name="T" type="float"/>
            </accessor>
          </technique_common>
        </source>
        <vertices id="SM_Limpet_02_LOD0-VERTEX">
          <input semantic="POSITION" source="#SM_Limpet_02_LOD0-POSITION"/>
        </vertices>
        <triangles count="80" material="MAT_Sea_Shells">
          <input semantic="VERTEX" offset="0" source="#SM_Limpet_02_LOD0-VERTEX"/>
          <input semantic="NORMAL" offset="1" source="#SM_Limpet_02_LOD0-Normal0"/>
          <input semantic="TEXCOORD" offset="2" set="0" source="#SM_Limpet_02_LOD0-UV0"/>
          <p> 26 0 2 0 1 1 1 2 0 2 3 3 26 4 2 1 5 0 4 6 4 26 7 2 2 8 3 3 9 5 4 10 4 2 11 3 5 12 6 4 13 4 3 14 5 6 15 7 5 16 6 3 17 5 28 18 8 5 19 6 6 20 7 7 21 9 28 22 8 6 23 7 8 24 10 28 25 8 7 26 9 10 27 11 8 28 10 7 29 9 9 30 12 8 31 10 10 32 11 11 33 13 9 34 12 10 35 11 12 36 14 9 37 12 11 38 13 14 39 15 12 40 14 11 41 13 13 42 16 12 43 14 14 44 15 16 45 17 13 46 16 14 47 15 15 48 18 13 49 16 16 50 17 32 51 19 15 52 18 16 53 17 17 54 20 32 55 19 16 56 17 19 57 21 32 58 19 17 59 20 18 60 22 19 61 21 17 62 20 21 63 23 19 64 21 18 65 22 20 66 24 21 67 23 18 68 22 34 69 25 21 70 23 20 71 24 22 72 26 34 73 25 20 74 24 36 75 27 34 76 25 22 77 26 23 78 28 36 79 27 22 80 26 38 81 29 36 82 27 23 83 28 24 84 30 38 85 29 23 86 28 25 87 31 38 88 29 24 89 30 0 90 1 25 91 31 24 92 30 26 93 2 25 94 31 0 95 1 48 96 32 25 97 31 26 98 2 4 99 4 48 100 32 26 101 2 27 102 33 48 103 32 4 104 4 5 105 6 27 106 33 4 107 4 46 108 34 27 109 33 5 110 6 28 111 8 46 112 34 5 113 6 29 114 35 46 115 34 28 116 8 8 117 10 29 118 35 28 119 8 30 120 36 29 121 35 8 122 10 9 123 12 30 124 36 8 125 10 31 126 37 30 127 36 9 128 12 12 129 14 31 130 37 9 131 12 45 132 38 31 133 37 12 134 14 13 135 16 45 136 38 12 137 14 44 138 39 45 139 38 13 140 16 15 141 18 44 142 39 13 143 16 43 144 40 44 145 39 15 146 18 42 147 41 43 148 40 15 149 18 32 150 19 42 151 41 15 152 18 41 153 42 42 154 41 32 155 19 19 156 21 41 157 42 32 158 19 33 159 43 41 160 42 19 161 21 21 162 23 33 163 43 19 164 21 35 165 44 33 166 43 21 167 23 34 168 25 35 169 44 21 170 23 37 171 45 35 172 44 34 173 25 36 174 27 37 175 45 34 176 25 40 177 46 37 178 45 36 179 27 38 180 29 40 181 46 36 182 27 39 183 47 40 184 46 38 185 29 25 186 31 39 187 47 38 188 29 48 189 32 39 190 47 25 191 31 47 192 48 39 193 47 48 194 32 47 195 48 40 196 46 39 197 47 47 198 48 37 199 45 40 200 46 47 201 48 35 202 44 37 203 45 47 204 48 33 205 43 35 206 44 47 207 48 41 208 42 33 209 43 47 210 48 42 211 41 41 212 42 47 213 48 43 214 40 42 215 41 47 216 48 44 217 39 43 218 40 47 219 48 45 220 38 44 221 39 47 222 48 31 223 37 45 224 38 47 225 48 30 226 36 31 227 37 47 228 48 29 229 35 30 230 36 47 231 48 46 232 34 29 233 35 47 234 48 27 235 33 46 236 34 48 237 32 27 238 33 47 239 48</p>
        </triangles>
      </mesh>
    </geometry>
    <geometry id="SM_Limpet_02_LOD1-lib" name="SM_Limpet_02_LOD1Mesh">
      <mesh>
        <source id="SM_Limpet_02_LOD1-POSITION">
          <float_array id="SM_Limpet_02_LOD1-POSITION-array" count="87">
-1.639023 3.446289 -0.000000
3.055008 -2.637634 0.000000
-3.972069 -1.427460 0.000000
3.055046 2.637665 -0.000000
-1.639000 -3.446259 0.000000
4.297607 0.000000 0.000000
-3.972054 1.427551 -0.000000
-4.297607 0.000031 -0.000000
1.667587 3.446289 -0.000000
1.667564 -3.446259 0.000000
0.018059 -3.730225 0.000000
0.018059 3.730255 -0.000000
-3.041138 -2.637634 0.000000
-3.041161 2.637665 -0.000000
3.975677 -1.427490 0.000000
3.975655 1.427490 -0.000000
1.082474 0.000061 2.503561
2.243423 -0.363892 2.088129
1.672890 0.989380 2.060989
3.660362 -0.543579 0.994842
0.571480 -1.064209 2.054772
-2.842422 0.487000 0.996108
2.559845 2.211517 0.904210
2.559914 -2.211456 0.904215
-1.376221 2.354950 0.889602
3.536064 1.108307 0.982205
-0.212807 0.445557 2.086636
-1.279793 -2.408630 0.884130
-2.690842 -1.108276 0.982205
</float_array>
          <technique_common>
            <accessor source="#SM_Limpet_02_LOD1-POSITION-array" count="29" stride="3">
              <param name="X" type="float"/>
              <param name="Y" type="float"/>
              <param name="Z" type="float"/>
            </accessor>
          </technique_common>
        </source>
        <source id="SM_Limpet_02_LOD1-Normal0">
          <float_array id="SM_Limpet_02_LOD1-Normal0-array" count="360">
0.392639 -0.572806 0.719533
-0.080971 -0.427304 0.900475
-0.004006 -0.620601 0.784117
-0.009889 0.611142 0.791460
0.203041 0.422651 0.883256
0.386713 0.600769 0.699664
-0.444179 -0.232185 0.865330
-0.269225 0.170658 0.947836
-0.467026 0.129560 0.874701
0.678594 0.321670 0.660332
0.721066 -0.182852 0.668303
0.864006 0.005814 0.503448
-0.004006 -0.620601 0.784117
-0.080971 -0.427304 0.900475
-0.219195 -0.516316 0.827872
-0.235925 0.487561 0.840609
0.203041 0.422651 0.883256
-0.009889 0.611142 0.791460
-0.540646 -0.226165 0.810278
-0.467026 0.129560 0.874701
-0.560591 -0.018288 0.827891
0.721066 -0.182852 0.668303
0.414880 -0.172207 0.893431
0.392639 -0.572806 0.719533
-0.219195 -0.516316 0.827872
-0.080971 -0.427304 0.900475
-0.444179 -0.232185 0.865330
-0.219195 -0.516316 0.827872
-0.444179 -0.232185 0.865330
-0.397553 -0.455273 0.796667
-0.467026 0.129560 0.874701
-0.269225 0.170658 0.947836
-0.235925 0.487561 0.840609
-0.467026 0.129560 0.874701
-0.235925 0.487561 0.840609
-0.388828 0.411482 0.824315
-0.009889 0.611142 0.791460
0.386713 0.600769 0.699664
0.182368 0.663283 0.725809
0.392639 -0.572806 0.719533
-0.004006 -0.620601 0.784117
0.182367 -0.663282 0.725809
0.386713 0.600769 0.699664
0.203041 0.422651 0.883256
0.678594 0.321670 0.660332
0.678594 0.321670 0.660332
0.414880 -0.172207 0.893431
0.721066 -0.182852 0.668303
0.203041 0.422651 0.883256
0.414880 -0.172207 0.893431
0.678594 0.321670 0.660332
0.414880 -0.172207 0.893431
-0.080971 -0.427304 0.900475
0.392639 -0.572806 0.719533
0.009270 -0.001661 0.999956
0.414880 -0.172207 0.893431
0.203041 0.422651 0.883256
-0.269225 0.170658 0.947836
0.203041 0.422651 0.883256
-0.235925 0.487561 0.840609
0.864006 0.005814 0.503448
0.721066 -0.182852 0.668303
0.731095 -0.386348 0.562348
0.721066 -0.182852 0.668303
0.392639 -0.572806 0.719533
0.731095 -0.386348 0.562348
0.009270 -0.001661 0.999956
-0.080971 -0.427304 0.900475
0.414880 -0.172207 0.893431
-0.080971 -0.427304 0.900475
-0.269225 0.170658 0.947836
-0.444179 -0.232185 0.865330
-0.510683 0.255931 0.820794
-0.467026 0.129560 0.874701
-0.388828 0.411482 0.824315
-0.467026 0.129560 0.874701
-0.510683 0.255931 0.820794
-0.560591 -0.018288 0.827891
0.543860 0.604046 0.582533
0.386713 0.600769 0.699664
0.767662 0.396837 0.503205
0.182368 0.663283 0.725809
0.386713 0.600769 0.699664
0.543860 0.604046 0.582533
0.543858 -0.604079 0.582501
0.392639 -0.572806 0.719533
0.182367 -0.663282 0.725809
0.731095 -0.386348 0.562348
0.392639 -0.572806 0.719533
0.543858 -0.604079 0.582501
-0.388828 0.411482 0.824315
-0.235925 0.487561 0.840609
-0.206529 0.587846 0.782165
-0.206529 0.587846 0.782165
-0.235925 0.487561 0.840609
-0.009889 0.611142 0.791460
0.386713 0.600769 0.699664
0.678594 0.321670 0.660332
0.767662 0.396837 0.503205
0.767662 0.396837 0.503205
0.678594 0.321670 0.660332
0.864006 0.005814 0.503448
0.009270 -0.001661 0.999956
0.203041 0.422651 0.883256
-0.269225 0.170658 0.947836
-0.269225 0.170658 0.947836
-0.080971 -0.427304 0.900475
0.009270 -0.001661 0.999956
-0.212348 -0.590141 0.778872
-0.219195 -0.516316 0.827872
-0.397553 -0.455273 0.796667
-0.004006 -0.620601 0.784117
-0.219195 -0.516316 0.827872
-0.212348 -0.590141 0.778872
-0.397553 -0.455273 0.796667
-0.444179 -0.232185 0.865330
-0.540646 -0.226165 0.810278
-0.444179 -0.232185 0.865330
-0.467026 0.129560 0.874701
-0.540646 -0.226165 0.810278
</float_array>
          <technique_common>
            <accessor source="#SM_Limpet_02_LOD1-Normal0-array" count="120" stride="3">
              <param name="X" type="float"/>
              <param name="Y" type="float"/>
              <param name="Z" type="float"/>
            </accessor>
          </technique_common>
        </source>
        <source id="SM_Limpet_02_LOD1-UV0">
          <float_array id="SM_Limpet_02_LOD1-UV0-array" count="58">
0.153320 0.222168
0.182251 0.185547
0.205688 0.156250
0.129395 0.166992
0.203613 0.216309
0.155884 0.146973
0.220947 0.187012
0.128296 0.200195
0.177571 0.172921
0.212670 0.180536
0.210571 0.198730
0.125610 0.183594
0.187744 0.223633
0.190430 0.147949
0.137777 0.189446
0.196684 0.178613
0.140137 0.171387
0.173218 0.144531
0.170410 0.225586
0.167498 0.190301
0.189995 0.197139
0.140625 0.154297
0.138550 0.213379
0.216553 0.169434
0.215454 0.203613
0.200649 0.161177
0.198934 0.210766
0.156747 0.157692
0.153793 0.210853
</float_array>
          <technique_common>
            <accessor source="#SM_Limpet_02_LOD1-UV0-array" count="29" stride="2">
              <param name="S" type="float"/>
              <param name="T" type="float"/>
            </accessor>
          </technique_common>
        </source>
        <vertices id="SM_Limpet_02_LOD1-VERTEX">
          <input semantic="POSITION" source="#SM_Limpet_02_LOD1-POSITION"/>
        </vertices>
        <triangles count="40" material="MAT_Sea_Shells">
          <input semantic="VERTEX" offset="0" source="#SM_Limpet_02_LOD1-VERTEX"/>
          <input semantic="NORMAL" offset="1" source="#SM_Limpet_02_LOD1-Normal0"/>
          <input semantic="TEXCOORD" offset="2" set="0" source="#SM_Limpet_02_LOD1-UV0"/>
          <p> 23 0 25 20 1 8 10 2 17 11 3 18 18 4 20 22 5 26 28 6 16 26 7 19 21 8 14 25 9 10 19 10 9 5 11 6 10 12 17 20 13 8 27 14 27 24 15 28 18 16 20 11 17 18 2 18 3 21 19 14 7 20 11 19 21 9 17 22 15 23 23 25 27 24 27 20 25 8 28 26 16 27 27 27 28 28 16 12 29 21 21 30 14 26 31 19 24 32 28 21 33 14 24 34 28 13 35 22 11 36 18 22 37 26 8 38 12 23 39 25 10 40 17 9 41 13 22 42 26 18 43 20 25 44 10 25 45 10 17 46 15 19 47 9 18 48 20 17 49 15 25 50 10 17 51 15 20 52 8 23 53 25 16 54 1 17 55 15 18 56 20 26 57 19 18 58 20 24 59 28 5 60 6 19 61 9 14 62 23 19 63 9 23 64 25 14 65 23 16 66 1 20 67 8 17 68 15 20 69 8 26 70 19 28 71 16 6 72 7 21 73 14 13 74 22 21 75 14 6 76 7 7 77 11 3 78 4 22 79 26 15 80 24 8 81 12 22 82 26 3 83 4 1 84 2 23 85 25 9 86 13 14 87 23 23 88 25 1 89 2 13 90 22 24 91 28 0 92 0 0 93 0 24 94 28 11 95 18 22 96 26 25 97 10 15 98 24 15 99 24 25 100 10 5 101 6 16 102 1 18 103 20 26 104 19 26 105 19 20 106 8 16 107 1 4 108 5 27 109 27 12 110 21 10 111 17 27 112 27 4 113 5 12 114 21 28 115 16 2 116 3 28 117 16 21 118 14 2 119 3</p>
        </triangles>
      </mesh>
    </geometry>
  </library_geometries>
  <library_visual_scenes>
    <visual_scene id="SM_Limpet_02" name="SM_Limpet_02">
      <node name="SM_Limpet_02_LOD0" id="SM_Limpet_02_LOD0" layer="shells" sid="SM_Limpet_02_LOD0">
        <matrix sid="matrix">1.000000 0.000000 0.000000 0.000000 0.000000 0.000000 1.000000 0.000000 0.000000 -1.000000 0.000000 0.000000 0.000000 0.000000 0.000000 1.000000</matrix>
        <instance_geometry url="#SM_Limpet_02_LOD0-lib">
          <bind_material>
            <technique_common>
              <instance_material symbol="MAT_Sea_Shells" target="#MAT_Sea_Shells"/>
            </technique_common>
          </bind_material>
        </instance_geometry>
        <extra>
          <technique profile="FCOLLADA">
            <visibility>1.000000</visibility>
          </technique>
        </extra>
      </node>
      <node name="SM_Limpet_02_LOD1" id="SM_Limpet_02_LOD1" layer="shells" sid="SM_Limpet_02_LOD1">
        <matrix sid="matrix">1.000000 0.000000 0.000000 0.000000 0.000000 0.000000 1.000000 0.000000 0.000000 -1.000000 0.000000 0.000000 0.000000 0.000000 0.000000 1.000000</matrix>
        <instance_geometry url="#SM_Limpet_02_LOD1-lib">
          <bind_material>
            <technique_common>
              <instance_material symbol="MAT_Sea_Shells" target="#MAT_Sea_Shells"/>
            </technique_common>
          </bind_material>
        </instance_geometry>
        <extra>
          <technique profile="FCOLLADA">
            <visibility>1.000000</visibility>
          </technique>
        </extra>
      </node>
      <extra>
        <technique profile="MAX3D">
          <frame_rate>30.000000</frame_rate>
        </technique>
        <technique profile="FCOLLADA">
          <start_time>0.000000</start_time>
          <end_time>3.333333</end_time>
        </technique>
      </extra>
    </visual_scene>
  </library_visual_scenes>
  <scene>
    <instance_visual_scene url="#SM_Limpet_02"/>
  </scene>
</COLLADA>
