<?xml version="1.0" encoding="utf-8"?>
<COLLADA xmlns="http://www.collada.org/2005/11/COLLADASchema" version="1.4.1">
  <asset>
    <contributor>
      <author/>
      <authoring_tool>FBX COLLADA exporter</authoring_tool>
      <comments/>
    </contributor>
    <created>2024-02-10T11:42:35Z</created>
    <keywords/>
    <modified>2024-02-10T11:42:35Z</modified>
    <revision/>
    <subject/>
    <title/>
    <unit meter="0.010000" name="centimeter"/>
    <up_axis>Y_UP</up_axis>
  </asset>
  <library_materials>
    <material id="MAT_Sea_Shells" name="MAT_Sea_Shells">
      <instance_effect url="#MAT_Sea_Shells-fx"/>
    </material>
  </library_materials>
  <library_effects>
    <effect id="MAT_Sea_Shells-fx" name="MAT_Sea_Shells">
      <profile_COMMON>
        <technique sid="standard">
          <phong>
            <emission>
              <color sid="emission">0.000000  0.000000 0.000000 1.000000</color>
            </emission>
            <ambient>
              <color sid="ambient">0.588235  0.588235 0.588235 1.000000</color>
            </ambient>
            <diffuse>
              <color sid="diffuse">0.588235  0.588235 0.588235 1.000000</color>
            </diffuse>
            <specular>
              <color sid="specular">0.000000  0.000000 0.000000 1.000000</color>
            </specular>
            <shininess>
              <float sid="shininess">2.000000</float>
            </shininess>
            <reflective>
              <color sid="reflective">0.000000  0.000000 0.000000 1.000000</color>
            </reflective>
            <reflectivity>
              <float sid="reflectivity">1.000000</float>
            </reflectivity>
            <transparent opaque="RGB_ZERO">
              <color sid="transparent">1.000000  1.000000 1.000000 1.000000</color>
            </transparent>
            <transparency>
              <float sid="transparency">0.000000</float>
            </transparency>
          </phong>
        </technique>
      </profile_COMMON>
    </effect>
  </library_effects>
  <library_geometries>
    <geometry id="SM_Limpet_04_LOD0-lib" name="SM_Limpet_04_LOD0Mesh">
      <mesh>
        <source id="SM_Limpet_04_LOD0-POSITION">
          <float_array id="SM_Limpet_04_LOD0-POSITION-array" count="147">
-2.970272 0.121307 -0.000000
-2.828110 -0.764587 0.000000
-2.357300 -1.580841 0.000000
-1.950394 -0.589722 0.580075
-1.502991 -1.188751 0.543855
-1.419407 -2.183136 0.000000
-0.776516 -1.599762 0.506093
-0.253990 -2.276031 0.000000
0.820511 -2.047180 0.000000
0.078102 -1.725250 0.490075
1.809349 -1.617004 0.000000
1.735832 -1.252289 0.543855
2.641514 -0.897491 0.000000
2.592812 -0.050110 0.594721
2.970272 -0.058899 0.000000
2.699337 0.791260 -0.000000
1.775513 -0.029297 1.240457
2.362034 -0.700012 0.580075
1.698029 -0.304352 1.235441
1.171387 -0.682037 1.210805
1.487579 -0.533600 1.223211
0.916080 -1.590118 0.506093
0.459167 -0.662994 1.210805
0.163689 -0.498108 1.223211
-0.031384 -0.258057 1.235441
-1.911938 0.739868 0.580075
-2.093407 0.075104 0.594721
-2.802574 1.054077 -0.000000
-2.193123 1.766724 -0.000000
-1.203472 2.196350 -0.000000
-1.404533 1.292023 0.543855
0.187382 1.733765 0.490075
-0.107716 2.276031 -0.000000
0.953541 1.985046 -0.000000
1.965031 1.541168 -0.000000
1.520061 0.489410 1.223211
2.404724 0.609192 0.580075
1.715641 0.249268 1.235441
0.812569 -0.727509 1.205616
-0.094074 0.020721 1.240457
-0.013805 0.295624 1.235441
0.196171 0.524841 1.223211
-0.658245 1.647034 0.506093
0.858517 0.719208 1.205616
0.501663 0.673615 1.210805
0.986401 -0.008209 1.478559
1.213867 0.654541 1.210805
1.840767 1.188385 0.543855
1.022278 1.551788 0.506093
</float_array>
          <technique_common>
            <accessor source="#SM_Limpet_04_LOD0-POSITION-array" count="49" stride="3">
              <param name="X" type="float"/>
              <param name="Y" type="float"/>
              <param name="Z" type="float"/>
            </accessor>
          </technique_common>
        </source>
        <source id="SM_Limpet_04_LOD0-Normal0">
          <float_array id="SM_Limpet_04_LOD0-Normal0-array" count="720">
-0.428725 0.008790 0.903392
-0.466013 0.249124 0.848981
-0.542666 0.006846 0.839920
-0.499821 -0.210297 0.840211
-0.428725 0.008790 0.903392
-0.542666 0.006846 0.839920
-0.397922 -0.194562 0.896551
-0.428725 0.008790 0.903392
-0.499821 -0.210297 0.840211
-0.360703 -0.397836 0.843576
-0.397922 -0.194562 0.896551
-0.499821 -0.210297 0.840211
-0.297868 -0.370132 0.879930
-0.397922 -0.194562 0.896551
-0.360703 -0.397836 0.843576
-0.169110 -0.558161 0.812316
-0.297868 -0.370132 0.879930
-0.360703 -0.397836 0.843576
-0.149643 -0.521301 0.840150
-0.297868 -0.370132 0.879930
-0.169110 -0.558161 0.812316
0.036138 -0.680799 0.731578
-0.149643 -0.521301 0.840150
-0.169110 -0.558161 0.812316
0.020520 -0.634169 0.772922
-0.149643 -0.521301 0.840150
0.036138 -0.680799 0.731578
0.221930 -0.742049 0.632543
0.020520 -0.634169 0.772922
0.036138 -0.680799 0.731578
0.190633 -0.687263 0.700948
0.020520 -0.634169 0.772922
0.221930 -0.742049 0.632543
0.438643 -0.712192 0.548065
0.190633 -0.687263 0.700948
0.221930 -0.742049 0.632543
0.392223 -0.650443 0.650449
0.190633 -0.687263 0.700948
0.438643 -0.712192 0.548065
0.699070 -0.493749 0.517217
0.392223 -0.650443 0.650449
0.438643 -0.712192 0.548065
0.623346 -0.439376 0.646830
0.392223 -0.650443 0.650449
0.699070 -0.493749 0.517217
0.747675 -0.024434 0.663615
0.623346 -0.439376 0.646830
0.699070 -0.493749 0.517217
0.848586 -0.028319 0.528298
0.747675 -0.024434 0.663615
0.699070 -0.493749 0.517217
0.729821 0.440626 0.522695
0.747675 -0.024434 0.663615
0.848586 -0.028319 0.528298
0.729821 0.440626 0.522695
0.649618 0.391727 0.651573
0.747675 -0.024434 0.663615
0.649618 0.391727 0.651573
0.464688 -0.014674 0.885353
0.747675 -0.024434 0.663615
0.464688 -0.014674 0.885353
0.623346 -0.439376 0.646830
0.747675 -0.024434 0.663615
0.464688 -0.014674 0.885353
0.399912 -0.278670 0.873163
0.623346 -0.439376 0.646830
0.399912 -0.278670 0.873163
0.260878 -0.444573 0.856912
0.623346 -0.439376 0.646830
0.260878 -0.444573 0.856912
0.392223 -0.650443 0.650449
0.623346 -0.439376 0.646830
0.260878 -0.444573 0.856912
0.120330 -0.496007 0.859941
0.392223 -0.650443 0.650449
0.120330 -0.496007 0.859941
0.190633 -0.687263 0.700948
0.392223 -0.650443 0.650449
0.120330 -0.496007 0.859941
-0.000978 -0.472467 0.881348
0.190633 -0.687263 0.700948
-0.000978 -0.472467 0.881348
0.020520 -0.634169 0.772922
0.190633 -0.687263 0.700948
-0.000978 -0.472467 0.881348
-0.108427 -0.401480 0.909427
0.020520 -0.634169 0.772922
-0.108427 -0.401480 0.909427
-0.149643 -0.521301 0.840150
0.020520 -0.634169 0.772922
-0.108427 -0.401480 0.909427
-0.192445 -0.292087 0.936830
-0.149643 -0.521301 0.840150
-0.192445 -0.292087 0.936830
-0.297868 -0.370132 0.879930
-0.149643 -0.521301 0.840150
-0.192445 -0.292087 0.936830
-0.245408 -0.153503 0.957190
-0.297868 -0.370132 0.879930
-0.245408 -0.153503 0.957190
-0.397922 -0.194562 0.896551
-0.297868 -0.370132 0.879930
-0.245408 -0.153503 0.957190
-0.261123 0.006846 0.965281
-0.397922 -0.194562 0.896551
-0.261123 0.006846 0.965281
-0.428725 0.008790 0.903392
-0.397922 -0.194562 0.896551
-0.261123 0.006846 0.965281
-0.374235 0.223763 0.899932
-0.428725 0.008790 0.903392
-0.374235 0.223763 0.899932
-0.466013 0.249124 0.848981
-0.428725 0.008790 0.903392
-0.374235 0.223763 0.899932
-0.309921 0.456573 0.833961
-0.466013 0.249124 0.848981
-0.374235 0.223763 0.899932
-0.261068 0.411641 0.873153
-0.309921 0.456573 0.833961
-0.261068 0.411641 0.873153
-0.137805 0.599118 0.788712
-0.309921 0.456573 0.833961
-0.261068 0.411641 0.873153
-0.122314 0.548958 0.826852
-0.137805 0.599118 0.788712
-0.122314 0.548958 0.826852
0.065475 0.698712 0.712400
-0.137805 0.599118 0.788712
-0.122314 0.548958 0.826852
0.049858 0.646187 0.761549
0.065475 0.698712 0.712400
0.049858 0.646187 0.761549
0.249105 0.745366 0.618366
0.065475 0.698712 0.712400
0.049858 0.646187 0.761549
0.220132 0.687801 0.691717
0.249105 0.745366 0.618366
0.220132 0.687801 0.691717
0.468542 0.687649 0.554623
0.249105 0.745366 0.618366
0.220132 0.687801 0.691717
0.421238 0.626480 0.655806
0.468542 0.687649 0.554623
0.421238 0.626480 0.655806
0.729821 0.440626 0.522695
0.468542 0.687649 0.554623
0.421238 0.626480 0.655806
0.649618 0.391727 0.651573
0.729821 0.440626 0.522695
0.282420 0.427054 0.858990
0.649618 0.391727 0.651573
0.421238 0.626480 0.655806
0.282420 0.427054 0.858990
0.415217 0.251080 0.874387
0.649618 0.391727 0.651573
0.415217 0.251080 0.874387
0.464688 -0.014674 0.885353
0.649618 0.391727 0.651573
0.018567 -0.000978 0.999827
0.464688 -0.014674 0.885353
0.415217 0.251080 0.874387
0.282420 0.427054 0.858990
0.018567 -0.000978 0.999827
0.415217 0.251080 0.874387
0.018567 -0.000978 0.999827
0.399912 -0.278670 0.873163
0.464688 -0.014674 0.885353
0.018567 -0.000978 0.999827
0.260878 -0.444573 0.856912
0.399912 -0.278670 0.873163
0.018567 -0.000978 0.999827
0.120330 -0.496007 0.859941
0.260878 -0.444573 0.856912
0.018567 -0.000978 0.999827
-0.000978 -0.472467 0.881348
0.120330 -0.496007 0.859941
0.018567 -0.000978 0.999827
-0.108427 -0.401480 0.909427
-0.000978 -0.472467 0.881348
0.018567 -0.000978 0.999827
-0.192445 -0.292087 0.936830
-0.108427 -0.401480 0.909427
0.018567 -0.000978 0.999827
-0.245408 -0.153503 0.957190
-0.192445 -0.292087 0.936830
0.018567 -0.000978 0.999827
-0.261123 0.006846 0.965281
-0.245408 -0.153503 0.957190
0.018567 -0.000978 0.999827
-0.235513 0.171015 0.956706
-0.261123 0.006846 0.965281
-0.235513 0.171015 0.956706
-0.374235 0.223763 0.899932
-0.261123 0.006846 0.965281
-0.235513 0.171015 0.956706
-0.261068 0.411641 0.873153
-0.374235 0.223763 0.899932
-0.235513 0.171015 0.956706
-0.174820 0.309598 0.934659
-0.261068 0.411641 0.873153
0.018567 -0.000978 0.999827
-0.174820 0.309598 0.934659
-0.235513 0.171015 0.956706
-0.174820 0.309598 0.934659
-0.122314 0.548958 0.826852
-0.261068 0.411641 0.873153
-0.174820 0.309598 0.934659
-0.088871 0.411136 0.907232
-0.122314 0.548958 0.826852
0.018567 -0.000978 0.999827
-0.088871 0.411136 0.907232
-0.174820 0.309598 0.934659
-0.088871 0.411136 0.907232
0.049858 0.646187 0.761549
-0.122314 0.548958 0.826852
-0.088871 0.411136 0.907232
0.022489 0.476195 0.879052
0.049858 0.646187 0.761549
0.018567 -0.000978 0.999827
0.022489 0.476195 0.879052
-0.088871 0.411136 0.907232
0.143647 0.491518 0.858939
0.022489 0.476195 0.879052
0.018567 -0.000978 0.999827
0.282420 0.427054 0.858990
0.143647 0.491518 0.858939
0.018567 -0.000978 0.999827
0.421238 0.626480 0.655806
0.143647 0.491518 0.858939
0.282420 0.427054 0.858990
0.220132 0.687801 0.691717
0.143647 0.491518 0.858939
0.421238 0.626480 0.655806
0.220132 0.687801 0.691717
0.022489 0.476195 0.879052
0.143647 0.491518 0.858939
0.022489 0.476195 0.879052
0.220132 0.687801 0.691717
0.049858 0.646187 0.761549
</float_array>
          <technique_common>
            <accessor source="#SM_Limpet_04_LOD0-Normal0-array" count="240" stride="3">
              <param name="X" type="float"/>
              <param name="Y" type="float"/>
              <param name="Z" type="float"/>
            </accessor>
          </technique_common>
        </source>
        <source id="SM_Limpet_04_LOD0-UV0">
          <float_array id="SM_Limpet_04_LOD0-UV0-array" count="98">
0.903320 0.572266
0.901367 0.558105
0.890137 0.572510
0.900391 0.585449
0.887695 0.582275
0.893066 0.597412
0.880859 0.591064
0.878906 0.605957
0.869629 0.596924
0.861816 0.606689
0.856934 0.598389
0.846191 0.602783
0.844727 0.595703
0.831543 0.595703
0.833008 0.590088
0.819824 0.584473
0.824219 0.581543
0.820801 0.571533
0.815430 0.571533
0.819824 0.558838
0.824219 0.561768
0.833008 0.571777
0.833984 0.575928
0.836914 0.579590
0.841797 0.582031
0.846680 0.582764
0.852051 0.582031
0.856445 0.579834
0.859375 0.576172
0.860840 0.572021
0.887695 0.562256
0.892578 0.547119
0.880859 0.553711
0.878418 0.540039
0.870117 0.548096
0.862305 0.538086
0.857422 0.546143
0.846191 0.541992
0.845215 0.548340
0.831055 0.548096
0.833008 0.553467
0.836914 0.564209
0.833984 0.567627
0.844727 0.572021
0.859863 0.567871
0.856445 0.564453
0.852051 0.562012
0.847168 0.561035
0.841797 0.561768
</float_array>
          <technique_common>
            <accessor source="#SM_Limpet_04_LOD0-UV0-array" count="49" stride="2">
              <param name="S" type="float"/>
              <param name="T" type="float"/>
            </accessor>
          </technique_common>
        </source>
        <vertices id="SM_Limpet_04_LOD0-VERTEX">
          <input semantic="POSITION" source="#SM_Limpet_04_LOD0-POSITION"/>
        </vertices>
        <triangles count="80" material="MAT_Sea_Shells">
          <input semantic="VERTEX" offset="0" source="#SM_Limpet_04_LOD0-VERTEX"/>
          <input semantic="NORMAL" offset="1" source="#SM_Limpet_04_LOD0-Normal0"/>
          <input semantic="TEXCOORD" offset="2" set="0" source="#SM_Limpet_04_LOD0-UV0"/>
          <p> 26 0 2 27 1 1 0 2 0 1 3 3 26 4 2 0 5 0 3 6 4 26 7 2 1 8 3 2 9 5 3 10 4 1 11 3 4 12 6 3 13 4 2 14 5 5 15 7 4 16 6 2 17 5 6 18 8 4 19 6 5 20 7 7 21 9 6 22 8 5 23 7 9 24 10 6 25 8 7 26 9 8 27 11 9 28 10 7 29 9 21 30 12 9 31 10 8 32 11 10 33 13 21 34 12 8 35 11 11 36 14 21 37 12 10 38 13 12 39 15 11 40 14 10 41 13 17 42 16 11 43 14 12 44 15 13 45 17 17 46 16 12 47 15 14 48 18 13 49 17 12 50 15 15 51 19 13 52 17 14 53 18 15 54 19 36 55 20 13 56 17 36 57 20 16 58 21 13 59 17 16 60 21 17 61 16 13 62 17 16 63 21 18 64 22 17 65 16 18 66 22 20 67 23 17 68 16 20 69 23 11 70 14 17 71 16 20 72 23 19 73 24 11 74 14 19 75 24 21 76 12 11 77 14 19 78 24 38 79 25 21 80 12 38 81 25 9 82 10 21 83 12 38 84 25 22 85 26 9 86 10 22 87 26 6 88 8 9 89 10 22 90 26 23 91 27 6 92 8 23 93 27 4 94 6 6 95 8 23 96 27 24 97 28 4 98 6 24 99 28 3 100 4 4 101 6 24 102 28 39 103 29 3 104 4 39 105 29 26 106 2 3 107 4 39 108 29 25 109 30 26 110 2 25 111 30 27 112 1 26 113 2 25 114 30 28 115 31 27 116 1 25 117 30 30 118 32 28 119 31 30 120 32 29 121 33 28 122 31 30 123 32 42 124 34 29 125 33 42 126 34 32 127 35 29 128 33 42 129 34 31 130 36 32 131 35 31 132 36 33 133 37 32 134 35 31 135 36 48 136 38 33 137 37 48 138 38 34 139 39 33 140 37 48 141 38 47 142 40 34 143 39 47 144 40 15 145 19 34 146 39 47 147 40 36 148 20 15 149 19 35 150 41 36 151 20 47 152 40 35 153 41 37 154 42 36 155 20 37 156 42 16 157 21 36 158 20 45 159 43 16 160 21 37 161 42 35 162 41 45 163 43 37 164 42 45 165 43 18 166 22 16 167 21 45 168 43 20 169 23 18 170 22 45 171 43 19 172 24 20 173 23 45 174 43 38 175 25 19 176 24 45 177 43 22 178 26 38 179 25 45 180 43 23 181 27 22 182 26 45 183 43 24 184 28 23 185 27 45 186 43 39 187 29 24 188 28 45 189 43 40 190 44 39 191 29 40 192 44 25 193 30 39 194 29 40 195 44 30 196 32 25 197 30 40 198 44 41 199 45 30 200 32 45 201 43 41 202 45 40 203 44 41 204 45 42 205 34 30 206 32 41 207 45 44 208 46 42 209 34 45 210 43 44 211 46 41 212 45 44 213 46 31 214 36 42 215 34 44 216 46 43 217 47 31 218 36 45 219 43 43 220 47 44 221 46 46 222 48 43 223 47 45 224 43 35 225 41 46 226 48 45 227 43 47 228 40 46 229 48 35 230 41 48 231 38 46 232 48 47 233 40 48 234 38 43 235 47 46 236 48 43 237 47 48 238 38 31 239 36</p>
        </triangles>
      </mesh>
    </geometry>
    <geometry id="SM_Limpet_04_LOD1-lib" name="SM_Limpet_04_LOD1Mesh">
      <mesh>
        <source id="SM_Limpet_04_LOD1-POSITION">
          <float_array id="SM_Limpet_04_LOD1-POSITION-array" count="99">
-2.802574 1.054077 -0.000000
2.970272 -0.058899 0.000000
-1.419407 -2.183136 0.000000
-0.107716 2.276031 -0.000000
2.641514 -0.897491 0.000000
1.965031 1.541168 -0.000000
-0.253990 -2.276031 0.000000
-2.828110 -0.764587 0.000000
2.699337 0.791260 -0.000000
1.809349 -1.617004 0.000000
-2.357300 -1.580841 0.000000
-1.203472 2.196350 -0.000000
-2.193123 1.766724 -0.000000
-2.970272 0.121307 -0.000000
0.820511 -2.047180 0.000000
0.953541 1.985046 -0.000000
0.944546 -0.007111 1.469335
1.520061 0.489410 1.223211
1.487579 -0.533600 1.223211
2.404724 0.609192 0.580075
0.163689 -0.498108 1.223211
-1.911938 0.739868 0.580075
-1.744041 -0.865997 0.563370
1.586712 -1.313721 0.536986
0.196171 0.524841 1.223211
1.751835 1.227875 0.539752
-0.919216 1.522888 0.519298
2.362034 -0.700012 0.580075
2.592812 -0.050110 0.594721
1.775513 -0.029297 1.240457
-2.093407 0.075104 0.594721
0.858517 0.719208 1.205616
0.812569 -0.727509 1.205616
</float_array>
          <technique_common>
            <accessor source="#SM_Limpet_04_LOD1-POSITION-array" count="33" stride="3">
              <param name="X" type="float"/>
              <param name="Y" type="float"/>
              <param name="Z" type="float"/>
            </accessor>
          </technique_common>
        </source>
        <source id="SM_Limpet_04_LOD1-Normal0">
          <float_array id="SM_Limpet_04_LOD1-Normal0-array" count="432">
0.050027 0.507729 0.860063
0.377803 0.648012 0.661321
0.026909 0.626453 0.778995
0.021905 -0.504864 0.862921
-0.185240 -0.485177 0.854570
0.010544 -0.620217 0.784360
0.314931 0.405114 0.858313
0.468187 -0.014891 0.883504
0.653706 0.411315 0.635208
-0.240173 -0.218876 0.945733
-0.329450 -0.284581 0.900265
-0.185240 -0.485177 0.854570
0.050027 0.507729 0.860063
0.026909 0.626453 0.778995
-0.161708 0.498103 0.851906
0.377803 0.648012 0.661321
0.720735 0.447539 0.529386
0.465000 0.673506 0.574599
-0.500404 -0.188244 0.845080
-0.423456 -0.017109 0.905755
-0.561038 0.007165 0.827759
0.021905 -0.504864 0.862921
0.010544 -0.620217 0.784360
0.333771 -0.670090 0.663006
0.377803 0.648012 0.661321
0.653706 0.411315 0.635208
0.720735 0.447539 0.529386
-0.199615 0.266497 0.942939
-0.161708 0.498103 0.851906
-0.353500 0.246771 0.902298
-0.353500 0.246771 0.902298
-0.161708 0.498103 0.851906
-0.320067 0.424783 0.846828
0.012165 -0.001104 0.999925
-0.423456 -0.017109 0.905755
-0.329450 -0.284581 0.900265
-0.329450 -0.284581 0.900265
-0.423456 -0.017109 0.905755
-0.500404 -0.188244 0.845080
0.333771 -0.670090 0.663006
0.010544 -0.620217 0.784360
0.180932 -0.697005 0.693864
0.468187 -0.014891 0.883504
0.624524 -0.461037 0.630408
0.758140 -0.024597 0.651628
0.294183 -0.425041 0.856036
0.333771 -0.670090 0.663006
0.624524 -0.461037 0.630408
0.377803 0.648012 0.661321
0.465000 0.673506 0.574599
0.217175 0.708000 0.671990
0.026909 0.626453 0.778995
0.377803 0.648012 0.661321
0.217175 0.708000 0.671990
0.294183 -0.425041 0.856036
0.021905 -0.504864 0.862921
0.333771 -0.670090 0.663006
0.012165 -0.001104 0.999925
0.468187 -0.014891 0.883504
0.314931 0.405114 0.858313
0.843823 -0.026714 0.535956
0.758140 -0.024597 0.651628
0.686606 -0.501143 0.526715
0.720735 0.447539 0.529386
0.758140 -0.024597 0.651628
0.843823 -0.026714 0.535956
-0.240173 -0.218876 0.945733
0.012165 -0.001104 0.999925
-0.329450 -0.284581 0.900265
0.012165 -0.001104 0.999925
0.021905 -0.504864 0.862921
0.294183 -0.425041 0.856036
-0.353500 0.246771 0.902298
-0.320067 0.424783 0.846828
-0.484412 0.233333 0.843149
-0.423456 -0.017109 0.905755
-0.484412 0.233333 0.843149
-0.561038 0.007165 0.827759
-0.368733 -0.359296 0.857287
-0.329450 -0.284581 0.900265
-0.500404 -0.188244 0.845080
-0.185240 -0.485177 0.854570
-0.329450 -0.284581 0.900265
-0.368733 -0.359296 0.857287
0.686606 -0.501143 0.526715
0.333771 -0.670090 0.663006
0.439025 -0.692112 0.572920
0.439025 -0.692112 0.572920
0.333771 -0.670090 0.663006
0.180932 -0.697005 0.693864
-0.199615 0.266497 0.942939
-0.353500 0.246771 0.902298
0.012165 -0.001104 0.999925
0.314931 0.405114 0.858313
0.050027 0.507729 0.860063
0.012165 -0.001104 0.999925
0.377803 0.648012 0.661321
0.050027 0.507729 0.860063
0.314931 0.405114 0.858313
0.314931 0.405114 0.858313
0.653706 0.411315 0.635208
0.377803 0.648012 0.661321
-0.161708 0.498103 0.851906
-0.146162 0.564650 0.812285
-0.320067 0.424783 0.846828
-0.161708 0.498103 0.851906
0.026909 0.626453 0.778995
-0.146162 0.564650 0.812285
0.758140 -0.024597 0.651628
0.624524 -0.461037 0.630408
0.686606 -0.501143 0.526715
0.624524 -0.461037 0.630408
0.333771 -0.670090 0.663006
0.686606 -0.501143 0.526715
0.720735 0.447539 0.529386
0.653706 0.411315 0.635208
0.758140 -0.024597 0.651628
0.653706 0.411315 0.635208
0.468187 -0.014891 0.883504
0.758140 -0.024597 0.651628
0.468187 -0.014891 0.883504
0.294183 -0.425041 0.856036
0.624524 -0.461037 0.630408
0.012165 -0.001104 0.999925
0.294183 -0.425041 0.856036
0.468187 -0.014891 0.883504
0.012165 -0.001104 0.999925
-0.353500 0.246771 0.902298
-0.423456 -0.017109 0.905755
-0.353500 0.246771 0.902298
-0.484412 0.233333 0.843149
-0.423456 -0.017109 0.905755
0.012165 -0.001104 0.999925
0.050027 0.507729 0.860063
-0.199615 0.266497 0.942939
-0.199615 0.266497 0.942939
0.050027 0.507729 0.860063
-0.161708 0.498103 0.851906
0.021905 -0.504864 0.862921
-0.240173 -0.218876 0.945733
-0.185240 -0.485177 0.854570
0.012165 -0.001104 0.999925
-0.240173 -0.218876 0.945733
0.021905 -0.504864 0.862921
</float_array>
          <technique_common>
            <accessor source="#SM_Limpet_04_LOD1-Normal0-array" count="144" stride="3">
              <param name="X" type="float"/>
              <param name="Y" type="float"/>
              <param name="Z" type="float"/>
            </accessor>
          </technique_common>
        </source>
        <source id="SM_Limpet_04_LOD1-UV0">
          <float_array id="SM_Limpet_04_LOD1-UV0-array" count="66">
0.815430 0.571533
0.901367 0.558105
0.878906 0.605957
0.845351 0.572021
0.862305 0.538086
0.819824 0.584473
0.887695 0.562256
0.831055 0.548096
0.861816 0.606689
0.900391 0.585449
0.836914 0.579590
0.836914 0.564209
0.819824 0.558838
0.831543 0.595703
0.893066 0.597412
0.890137 0.572510
0.856445 0.564453
0.878418 0.540039
0.892578 0.547119
0.856445 0.579834
0.834334 0.552910
0.833008 0.571777
0.903320 0.572266
0.846191 0.602783
0.824219 0.581543
0.824219 0.561768
0.820801 0.571533
0.847168 0.561035
0.884542 0.586329
0.846680 0.582764
0.835140 0.591109
0.846191 0.541992
0.873873 0.550059
</float_array>
          <technique_common>
            <accessor source="#SM_Limpet_04_LOD1-UV0-array" count="33" stride="2">
              <param name="S" type="float"/>
              <param name="T" type="float"/>
            </accessor>
          </technique_common>
        </source>
        <vertices id="SM_Limpet_04_LOD1-VERTEX">
          <input semantic="POSITION" source="#SM_Limpet_04_LOD1-POSITION"/>
        </vertices>
        <triangles count="48" material="MAT_Sea_Shells">
          <input semantic="VERTEX" offset="0" source="#SM_Limpet_04_LOD1-VERTEX"/>
          <input semantic="NORMAL" offset="1" source="#SM_Limpet_04_LOD1-Normal0"/>
          <input semantic="TEXCOORD" offset="2" set="0" source="#SM_Limpet_04_LOD1-UV0"/>
          <p> 31 0 27 25 1 20 3 2 4 32 3 29 2 4 2 6 5 8 17 6 11 29 7 21 19 8 25 20 9 19 22 10 28 2 11 2 31 12 27 3 13 4 26 14 32 25 15 20 8 16 12 5 17 7 7 18 9 30 19 15 13 20 22 32 21 29 6 22 8 23 23 30 25 24 20 19 25 25 8 26 12 24 27 16 26 28 32 21 29 6 21 30 6 26 31 32 12 32 18 16 33 3 30 34 15 22 35 28 22 36 28 30 37 15 7 38 9 23 39 30 6 40 8 14 41 23 29 42 21 27 43 24 28 44 26 18 45 10 23 46 30 27 47 24 25 48 20 5 49 7 15 50 31 3 51 4 25 52 20 15 53 31 18 54 10 32 55 29 23 56 30 16 57 3 29 58 21 17 59 11 1 60 0 28 61 26 4 62 5 8 63 12 28 64 26 1 65 0 20 66 19 16 67 3 22 68 28 16 69 3 32 70 29 18 71 10 21 72 6 12 73 18 0 74 1 30 75 15 0 76 1 13 77 22 10 78 14 22 79 28 7 80 9 2 81 2 22 82 28 10 83 14 4 84 5 23 85 30 9 86 13 9 87 13 23 88 30 14 89 23 24 90 16 21 91 6 16 92 3 17 93 11 31 94 27 16 95 3 25 96 20 31 97 27 17 98 11 17 99 11 19 100 25 25 101 20 26 102 32 11 103 17 12 104 18 26 105 32 3 106 4 11 107 17 28 108 26 27 109 24 4 110 5 27 111 24 23 112 30 4 113 5 8 114 12 19 115 25 28 116 26 19 117 25 29 118 21 28 119 26 29 120 21 18 121 10 27 122 24 16 123 3 18 124 10 29 125 21 16 126 3 21 127 6 30 128 15 21 129 6 0 130 1 30 131 15 16 132 3 31 133 27 24 134 16 24 135 16 31 136 27 26 137 32 32 138 29 20 139 19 2 140 2 16 141 3 20 142 19 32 143 29</p>
        </triangles>
      </mesh>
    </geometry>
  </library_geometries>
  <library_visual_scenes>
    <visual_scene id="SM_Limpet_04" name="SM_Limpet_04">
      <node name="SM_Limpet_04_LOD0" id="SM_Limpet_04_LOD0" layer="shells" sid="SM_Limpet_04_LOD0">
        <matrix sid="matrix">1.000000 0.000000 0.000000 0.000000 0.000000 0.000000 1.000000 0.000000 0.000000 -1.000000 0.000000 0.000000 0.000000 0.000000 0.000000 1.000000</matrix>
        <instance_geometry url="#SM_Limpet_04_LOD0-lib">
          <bind_material>
            <technique_common>
              <instance_material symbol="MAT_Sea_Shells" target="#MAT_Sea_Shells"/>
            </technique_common>
          </bind_material>
        </instance_geometry>
        <extra>
          <technique profile="FCOLLADA">
            <visibility>1.000000</visibility>
          </technique>
        </extra>
      </node>
      <node name="SM_Limpet_04_LOD1" id="SM_Limpet_04_LOD1" layer="shells" sid="SM_Limpet_04_LOD1">
        <matrix sid="matrix">1.000000 0.000000 0.000000 0.000000 0.000000 0.000000 1.000000 0.000000 0.000000 -1.000000 0.000000 0.000000 0.000000 0.000000 0.000000 1.000000</matrix>
        <instance_geometry url="#SM_Limpet_04_LOD1-lib">
          <bind_material>
            <technique_common>
              <instance_material symbol="MAT_Sea_Shells" target="#MAT_Sea_Shells"/>
            </technique_common>
          </bind_material>
        </instance_geometry>
        <extra>
          <technique profile="FCOLLADA">
            <visibility>1.000000</visibility>
          </technique>
        </extra>
      </node>
      <extra>
        <technique profile="MAX3D">
          <frame_rate>30.000000</frame_rate>
        </technique>
        <technique profile="FCOLLADA">
          <start_time>0.000000</start_time>
          <end_time>3.333333</end_time>
        </technique>
      </extra>
    </visual_scene>
  </library_visual_scenes>
  <scene>
    <instance_visual_scene url="#SM_Limpet_04"/>
  </scene>
</COLLADA>
