<?xml version="1.0" encoding="utf-8"?>
<COLLADA xmlns="http://www.collada.org/2005/11/COLLADASchema" version="1.4.1">
  <asset>
    <contributor>
      <author/>
      <authoring_tool>FBX COLLADA exporter</authoring_tool>
      <comments/>
    </contributor>
    <created>2024-02-10T11:42:35Z</created>
    <keywords/>
    <modified>2024-02-10T11:42:35Z</modified>
    <revision/>
    <subject/>
    <title/>
    <unit meter="0.010000" name="centimeter"/>
    <up_axis>Y_UP</up_axis>
  </asset>
  <library_materials>
    <material id="MAT_Sea_Shells" name="MAT_Sea_Shells">
      <instance_effect url="#MAT_Sea_Shells-fx"/>
    </material>
  </library_materials>
  <library_effects>
    <effect id="MAT_Sea_Shells-fx" name="MAT_Sea_Shells">
      <profile_COMMON>
        <technique sid="standard">
          <phong>
            <emission>
              <color sid="emission">0.000000  0.000000 0.000000 1.000000</color>
            </emission>
            <ambient>
              <color sid="ambient">0.588235  0.588235 0.588235 1.000000</color>
            </ambient>
            <diffuse>
              <color sid="diffuse">0.588235  0.588235 0.588235 1.000000</color>
            </diffuse>
            <specular>
              <color sid="specular">0.000000  0.000000 0.000000 1.000000</color>
            </specular>
            <shininess>
              <float sid="shininess">2.000000</float>
            </shininess>
            <reflective>
              <color sid="reflective">0.000000  0.000000 0.000000 1.000000</color>
            </reflective>
            <reflectivity>
              <float sid="reflectivity">1.000000</float>
            </reflectivity>
            <transparent opaque="RGB_ZERO">
              <color sid="transparent">1.000000  1.000000 1.000000 1.000000</color>
            </transparent>
            <transparency>
              <float sid="transparency">0.000000</float>
            </transparency>
          </phong>
        </technique>
      </profile_COMMON>
    </effect>
  </library_effects>
  <library_geometries>
    <geometry id="SM_Limpet_03_LOD0-lib" name="SM_Limpet_03_LOD0Mesh">
      <mesh>
        <source id="SM_Limpet_03_LOD0-POSITION">
          <float_array id="SM_Limpet_03_LOD0-POSITION-array" count="147">
-3.669258 -0.465515 0.000000
-3.524826 0.722778 -0.000000
-2.558273 -0.318115 0.817601
-3.266266 -1.581238 0.000000
-2.341164 -2.449677 0.000000
-1.126106 -2.950714 0.000000
0.237862 -3.002319 0.000000
1.538597 -2.597198 0.000000
1.557823 -1.963470 0.695759
2.670647 -1.784729 0.000000
2.501869 -1.324066 0.747674
3.528404 -0.679779 0.000000
3.150658 -0.468445 0.797466
3.256516 0.453339 0.817601
3.669250 0.508087 -0.000000
2.913971 1.315613 0.797466
3.223541 1.618103 -0.000000
2.107338 2.461151 -0.000000
0.802597 2.950378 -0.000000
-0.558792 3.002289 -0.000000
-1.862114 2.596832 -0.000000
-1.944740 1.440521 0.747674
-2.904274 1.796265 -0.000000
-2.459000 0.602722 0.797466
-2.222298 -1.181305 0.797466
-1.507393 -1.855957 0.747674
-0.366425 -0.411377 1.698442
-0.070549 -0.697754 1.681630
0.333809 -0.861633 1.664574
-0.533676 -2.240997 0.695759
0.788216 -0.877747 1.657441
0.537903 -2.279358 0.673737
1.225075 -0.743408 1.664574
1.586113 -0.477966 1.681630
1.833588 0.264557 1.705341
1.697578 0.630554 1.698442
1.401077 0.916809 1.681630
2.064514 1.972412 0.747674
0.986389 2.343567 0.695759
-0.080620 2.382568 0.673737
-1.105118 2.066101 0.695759
0.092018 0.960693 1.664574
-0.255592 0.697021 1.681630
-0.505920 -0.045868 1.705341
-0.466545 0.343414 1.698442
0.526520 1.094727 1.657441
0.983322 1.078918 1.664574
1.797714 -0.124298 1.698442
0.698204 0.113922 2.032676
</float_array>
          <technique_common>
            <accessor source="#SM_Limpet_03_LOD0-POSITION-array" count="49" stride="3">
              <param name="X" type="float"/>
              <param name="Y" type="float"/>
              <param name="Z" type="float"/>
            </accessor>
          </technique_common>
        </source>
        <source id="SM_Limpet_03_LOD0-Normal0">
          <float_array id="SM_Limpet_03_LOD0-Normal0-array" count="720">
-0.487708 -0.061571 0.870833
-0.563809 0.204216 0.800260
-0.579473 -0.069379 0.812033
-0.483988 -0.339268 0.806630
-0.487708 -0.061571 0.870833
-0.579473 -0.069379 0.812033
-0.409199 -0.303734 0.860408
-0.487708 -0.061571 0.870833
-0.483988 -0.339268 0.806630
-0.317716 -0.534724 0.783024
-0.409199 -0.303734 0.860408
-0.483988 -0.339268 0.806630
-0.270845 -0.484004 0.832096
-0.409199 -0.303734 0.860408
-0.317716 -0.534724 0.783024
-0.122189 -0.648090 0.751698
-0.270845 -0.484004 0.832096
-0.317716 -0.534724 0.783024
-0.102615 -0.593233 0.798464
-0.270845 -0.484004 0.832096
-0.122189 -0.648090 0.751698
0.100641 -0.706438 0.700583
-0.102615 -0.593233 0.798464
-0.122189 -0.648090 0.751698
0.090922 -0.646238 0.757700
-0.102615 -0.593233 0.798464
0.100641 -0.706438 0.700583
0.343094 -0.706717 0.618739
0.090922 -0.646238 0.757700
0.100641 -0.706438 0.700583
0.296153 -0.638249 0.710585
0.090922 -0.646238 0.757700
0.343094 -0.706717 0.618739
0.581981 -0.619151 0.527210
0.296153 -0.638249 0.710585
0.343094 -0.706717 0.618739
0.496009 -0.544933 0.676034
0.296153 -0.638249 0.710585
0.581981 -0.619151 0.527210
0.812765 -0.335471 0.476311
0.496009 -0.544933 0.676034
0.581981 -0.619151 0.527210
0.677104 -0.288228 0.677092
0.496009 -0.544933 0.676034
0.812765 -0.335471 0.476311
0.881788 0.116461 0.457041
0.677104 -0.288228 0.677092
0.812765 -0.335471 0.476311
0.727794 0.096717 0.678942
0.677104 -0.288228 0.677092
0.881788 0.116461 0.457041
0.577927 0.454713 0.677670
0.727794 0.096717 0.678942
0.881788 0.116461 0.457041
0.697566 0.535155 0.476457
0.577927 0.454713 0.677670
0.881788 0.116461 0.457041
0.337646 0.654729 0.676258
0.577927 0.454713 0.677670
0.697566 0.535155 0.476457
0.401522 0.749328 0.526581
0.337646 0.654729 0.676258
0.697566 0.535155 0.476457
0.120246 0.693126 0.710716
0.337646 0.654729 0.676258
0.401522 0.749328 0.526581
0.147641 0.771452 0.618922
0.120246 0.693126 0.710716
0.401522 0.749328 0.526581
-0.081112 0.647926 0.757372
0.120246 0.693126 0.710716
0.147641 0.771452 0.618922
-0.086952 0.708322 0.700514
-0.081112 0.647926 0.757372
0.147641 0.771452 0.618922
-0.253118 0.546290 0.798436
-0.081112 0.647926 0.757372
-0.086952 0.708322 0.700514
-0.288322 0.593261 0.751606
-0.253118 0.546290 0.798436
-0.086952 0.708322 0.700514
-0.389862 0.395727 0.831509
-0.253118 0.546290 0.798436
-0.288322 0.593261 0.751606
-0.452806 0.429346 0.781427
-0.389862 0.395727 0.831509
-0.288322 0.593261 0.751606
-0.478243 0.188756 0.857703
-0.389862 0.395727 0.831509
-0.452806 0.429346 0.781427
-0.563809 0.204216 0.800260
-0.478243 0.188756 0.857703
-0.452806 0.429346 0.781427
-0.487708 -0.061571 0.870833
-0.478243 0.188756 0.857703
-0.563809 0.204216 0.800260
-0.325287 -0.043957 0.944593
-0.478243 0.188756 0.857703
-0.487708 -0.061571 0.870833
-0.409199 -0.303734 0.860408
-0.325287 -0.043957 0.944593
-0.487708 -0.061571 0.870833
-0.272898 -0.222037 0.936070
-0.325287 -0.043957 0.944593
-0.409199 -0.303734 0.860408
-0.270845 -0.484004 0.832096
-0.272898 -0.222037 0.936070
-0.409199 -0.303734 0.860408
-0.178919 -0.358814 0.916101
-0.272898 -0.222037 0.936070
-0.270845 -0.484004 0.832096
-0.102615 -0.593233 0.798464
-0.178919 -0.358814 0.916101
-0.270845 -0.484004 0.832096
-0.063479 -0.440442 0.895534
-0.178919 -0.358814 0.916101
-0.102615 -0.593233 0.798464
0.090922 -0.646238 0.757700
-0.063479 -0.440442 0.895534
-0.102615 -0.593233 0.798464
0.063515 -0.469993 0.880382
-0.063479 -0.440442 0.895534
0.090922 -0.646238 0.757700
0.296153 -0.638249 0.710585
0.063515 -0.469993 0.880382
0.090922 -0.646238 0.757700
0.190652 -0.444866 0.875069
0.063515 -0.469993 0.880382
0.296153 -0.638249 0.710585
0.496009 -0.544933 0.676034
0.190652 -0.444866 0.875069
0.296153 -0.638249 0.710585
0.305844 -0.352753 0.884321
0.190652 -0.444866 0.875069
0.496009 -0.544933 0.676034
0.388445 -0.173185 0.905051
0.305844 -0.352753 0.884321
0.496009 -0.544933 0.676034
0.677104 -0.288228 0.677092
0.388445 -0.173185 0.905051
0.496009 -0.544933 0.676034
0.401831 0.053772 0.914134
0.388445 -0.173185 0.905051
0.677104 -0.288228 0.677092
0.727794 0.096717 0.678942
0.401831 0.053772 0.914134
0.677104 -0.288228 0.677092
0.577927 0.454713 0.677670
0.401831 0.053772 0.914134
0.727794 0.096717 0.678942
0.329697 0.269037 0.904941
0.401831 0.053772 0.914134
0.577927 0.454713 0.677670
0.337646 0.654729 0.676258
0.329697 0.269037 0.904941
0.577927 0.454713 0.677670
0.202405 0.419479 0.884912
0.329697 0.269037 0.904941
0.337646 0.654729 0.676258
0.069386 0.479820 0.874619
0.202405 0.419479 0.884912
0.337646 0.654729 0.676258
0.120246 0.693126 0.710716
0.069386 0.479820 0.874619
0.337646 0.654729 0.676258
-0.061565 0.470053 0.880489
0.069386 0.479820 0.874619
0.120246 0.693126 0.710716
-0.081112 0.647926 0.757372
-0.061565 0.470053 0.880489
0.120246 0.693126 0.710716
-0.174811 0.409196 0.895544
-0.061565 0.470053 0.880489
-0.081112 0.647926 0.757372
-0.253118 0.546290 0.798436
-0.174811 0.409196 0.895544
-0.081112 0.647926 0.757372
-0.266835 0.300068 0.915838
-0.174811 0.409196 0.895544
-0.253118 0.546290 0.798436
-0.389862 0.395727 0.831509
-0.266835 0.300068 0.915838
-0.253118 0.546290 0.798436
-0.321821 0.141835 0.936116
-0.266835 0.300068 0.915838
-0.389862 0.395727 0.831509
-0.478243 0.188756 0.857703
-0.321821 0.141835 0.936116
-0.389862 0.395727 0.831509
-0.325287 -0.043957 0.944593
-0.321821 0.141835 0.936116
-0.478243 0.188756 0.857703
0.002933 0.000979 0.999995
-0.321821 0.141835 0.936116
-0.325287 -0.043957 0.944593
0.002933 0.000979 0.999995
-0.266835 0.300068 0.915838
-0.321821 0.141835 0.936116
0.002933 0.000979 0.999995
-0.174811 0.409196 0.895544
-0.266835 0.300068 0.915838
0.002933 0.000979 0.999995
-0.061565 0.470053 0.880489
-0.174811 0.409196 0.895544
0.002933 0.000979 0.999995
0.069386 0.479820 0.874619
-0.061565 0.470053 0.880489
0.002933 0.000979 0.999995
0.202405 0.419479 0.884912
0.069386 0.479820 0.874619
0.002933 0.000979 0.999995
0.329697 0.269037 0.904941
0.202405 0.419479 0.884912
0.002933 0.000979 0.999995
0.401831 0.053772 0.914134
0.329697 0.269037 0.904941
0.002933 0.000979 0.999995
0.388445 -0.173185 0.905051
0.401831 0.053772 0.914134
0.002933 0.000979 0.999995
0.305844 -0.352753 0.884321
0.388445 -0.173185 0.905051
0.002933 0.000979 0.999995
0.190652 -0.444866 0.875069
0.305844 -0.352753 0.884321
0.002933 0.000979 0.999995
0.063515 -0.469993 0.880382
0.190652 -0.444866 0.875069
0.002933 0.000979 0.999995
-0.063479 -0.440442 0.895534
0.063515 -0.469993 0.880382
0.002933 0.000979 0.999995
-0.178919 -0.358814 0.916101
-0.063479 -0.440442 0.895534
0.002933 0.000979 0.999995
-0.272898 -0.222037 0.936070
-0.178919 -0.358814 0.916101
-0.325287 -0.043957 0.944593
-0.272898 -0.222037 0.936070
0.002933 0.000979 0.999995
</float_array>
          <technique_common>
            <accessor source="#SM_Limpet_03_LOD0-Normal0-array" count="240" stride="3">
              <param name="X" type="float"/>
              <param name="Y" type="float"/>
              <param name="Z" type="float"/>
            </accessor>
          </technique_common>
        </source>
        <source id="SM_Limpet_03_LOD0-UV0">
          <float_array id="SM_Limpet_03_LOD0-UV0-array" count="98">
0.532227 0.750732
0.535645 0.764771
0.545898 0.750732
0.535156 0.736572
0.548340 0.739746
0.544922 0.724609
0.556152 0.730469
0.559082 0.716797
0.566895 0.724365
0.575195 0.713867
0.580078 0.722168
0.591797 0.716797
0.592773 0.724365
0.606445 0.724609
0.605469 0.730469
0.618652 0.736572
0.614258 0.739746
0.622070 0.750732
0.617188 0.750732
0.614258 0.761719
0.618652 0.764771
0.605469 0.770996
0.606445 0.776733
0.592773 0.777222
0.591797 0.784790
0.580078 0.779297
0.575195 0.787598
0.566895 0.777222
0.559082 0.784790
0.556152 0.770996
0.544922 0.776733
0.548340 0.761719
0.570801 0.750732
0.572266 0.746094
0.575195 0.742188
0.579590 0.739502
0.585449 0.738770
0.590820 0.739502
0.595703 0.742188
0.598633 0.746094
0.599609 0.750732
0.598633 0.755371
0.595703 0.759277
0.590820 0.761963
0.585449 0.762817
0.579590 0.761963
0.575195 0.759277
0.572266 0.755371
0.585938 0.750732
</float_array>
          <technique_common>
            <accessor source="#SM_Limpet_03_LOD0-UV0-array" count="49" stride="2">
              <param name="S" type="float"/>
              <param name="T" type="float"/>
            </accessor>
          </technique_common>
        </source>
        <vertices id="SM_Limpet_03_LOD0-VERTEX">
          <input semantic="POSITION" source="#SM_Limpet_03_LOD0-POSITION"/>
        </vertices>
        <triangles count="80" material="MAT_Sea_Shells">
          <input semantic="VERTEX" offset="0" source="#SM_Limpet_03_LOD0-VERTEX"/>
          <input semantic="NORMAL" offset="1" source="#SM_Limpet_03_LOD0-Normal0"/>
          <input semantic="TEXCOORD" offset="2" set="0" source="#SM_Limpet_03_LOD0-UV0"/>
          <p> 2 0 2 1 1 1 0 2 0 3 3 3 2 4 2 0 5 0 24 6 4 2 7 2 3 8 3 4 9 5 24 10 4 3 11 3 25 12 6 24 13 4 4 14 5 5 15 7 25 16 6 4 17 5 29 18 8 25 19 6 5 20 7 6 21 9 29 22 8 5 23 7 31 24 10 29 25 8 6 26 9 7 27 11 31 28 10 6 29 9 8 30 12 31 31 10 7 32 11 9 33 13 8 34 12 7 35 11 10 36 14 8 37 12 9 38 13 11 39 15 10 40 14 9 41 13 12 42 16 10 43 14 11 44 15 14 45 17 12 46 16 11 47 15 13 48 18 12 49 16 14 50 17 15 51 19 13 52 18 14 53 17 16 54 20 15 55 19 14 56 17 37 57 21 15 58 19 16 59 20 17 60 22 37 61 21 16 62 20 38 63 23 37 64 21 17 65 22 18 66 24 38 67 23 17 68 22 39 69 25 38 70 23 18 71 24 19 72 26 39 73 25 18 74 24 40 75 27 39 76 25 19 77 26 20 78 28 40 79 27 19 80 26 21 81 29 40 82 27 20 83 28 22 84 30 21 85 29 20 86 28 23 87 31 21 88 29 22 89 30 1 90 1 23 91 31 22 92 30 2 93 2 23 94 31 1 95 1 43 96 32 23 97 31 2 98 2 24 99 4 43 100 32 2 101 2 26 102 33 43 103 32 24 104 4 25 105 6 26 106 33 24 107 4 27 108 34 26 109 33 25 110 6 29 111 8 27 112 34 25 113 6 28 114 35 27 115 34 29 116 8 31 117 10 28 118 35 29 119 8 30 120 36 28 121 35 31 122 10 8 123 12 30 124 36 31 125 10 32 126 37 30 127 36 8 128 12 10 129 14 32 130 37 8 131 12 33 132 38 32 133 37 10 134 14 47 135 39 33 136 38 10 137 14 12 138 16 47 139 39 10 140 14 34 141 40 47 142 39 12 143 16 13 144 18 34 145 40 12 146 16 15 147 19 34 148 40 13 149 18 35 150 41 34 151 40 15 152 19 37 153 21 35 154 41 15 155 19 36 156 42 35 157 41 37 158 21 46 159 43 36 160 42 37 161 21 38 162 23 46 163 43 37 164 21 45 165 44 46 166 43 38 167 23 39 168 25 45 169 44 38 170 23 41 171 45 45 172 44 39 173 25 40 174 27 41 175 45 39 176 25 42 177 46 41 178 45 40 179 27 21 180 29 42 181 46 40 182 27 44 183 47 42 184 46 21 185 29 23 186 31 44 187 47 21 188 29 43 189 32 44 190 47 23 191 31 48 192 48 44 193 47 43 194 32 48 195 48 42 196 46 44 197 47 48 198 48 41 199 45 42 200 46 48 201 48 45 202 44 41 203 45 48 204 48 46 205 43 45 206 44 48 207 48 36 208 42 46 209 43 48 210 48 35 211 41 36 212 42 48 213 48 34 214 40 35 215 41 48 216 48 47 217 39 34 218 40 48 219 48 33 220 38 47 221 39 48 222 48 32 223 37 33 224 38 48 225 48 30 226 36 32 227 37 48 228 48 28 229 35 30 230 36 48 231 48 27 232 34 28 233 35 48 234 48 26 235 33 27 236 34 43 237 32 26 238 33 48 239 48</p>
        </triangles>
      </mesh>
    </geometry>
    <geometry id="SM_Limpet_03_LOD1-lib" name="SM_Limpet_03_LOD1Mesh">
      <mesh>
        <source id="SM_Limpet_03_LOD1-POSITION">
          <float_array id="SM_Limpet_03_LOD1-POSITION-array" count="66">
0.802597 2.950378 -0.000000
1.538597 -2.597198 0.000000
-3.266266 -1.581238 0.000000
0.252663 0.107574 1.841899
3.223541 1.618103 -0.000000
-3.524826 0.722778 -0.000000
3.528404 -0.679779 0.000000
-1.862114 2.596832 -0.000000
-1.126106 -2.950714 0.000000
2.913971 1.315613 0.797466
-3.669258 -0.465515 0.000000
0.333809 -0.861633 1.664574
3.150658 -0.468445 0.797466
-2.459000 0.602722 0.797466
-2.222298 -1.181305 0.797466
0.092018 0.960693 1.664574
0.237862 -3.002319 0.000000
-0.558792 3.002289 -0.000000
3.669250 0.508087 -0.000000
-2.904274 1.796265 -0.000000
-2.341164 -2.449677 0.000000
2.670647 -1.784729 0.000000
</float_array>
          <technique_common>
            <accessor source="#SM_Limpet_03_LOD1-POSITION-array" count="22" stride="3">
              <param name="X" type="float"/>
              <param name="Y" type="float"/>
              <param name="Z" type="float"/>
            </accessor>
          </technique_common>
        </source>
        <source id="SM_Limpet_03_LOD1-Normal0">
          <float_array id="SM_Limpet_03_LOD1-Normal0-array" count="243">
-0.437901 0.115878 0.891524
-0.058357 0.378399 0.923801
-0.280679 0.496140 0.821623
0.001619 0.010504 0.999943
0.594610 -0.249906 0.764190
0.506182 0.421230 0.752559
0.594610 -0.249906 0.764190
0.702000 0.093136 0.706060
0.506182 0.421230 0.752559
-0.141580 -0.552160 0.821629
0.041667 -0.370539 0.927882
-0.388712 -0.227682 0.892784
0.131309 0.646479 0.751547
-0.058357 0.378399 0.923801
0.506182 0.421230 0.752559
0.001619 0.010504 0.999943
-0.437901 0.115878 0.891524
-0.516339 -0.061868 0.854147
0.594610 -0.249906 0.764190
0.041667 -0.370539 0.927882
0.272967 -0.576511 0.770146
-0.089444 0.612098 0.785707
-0.058357 0.378399 0.923801
0.131309 0.646479 0.751547
0.272967 -0.576511 0.770146
0.041667 -0.370539 0.927882
0.073256 -0.614242 0.785710
0.001619 0.010504 0.999943
0.041667 -0.370539 0.927882
0.594610 -0.249906 0.764190
-0.058357 0.378399 0.923801
0.001619 0.010504 0.999943
0.506182 0.421230 0.752559
0.131309 0.646479 0.751547
0.506182 0.421230 0.752559
0.655588 0.585671 0.476648
-0.388712 -0.227682 0.892784
0.001619 0.010504 0.999943
-0.516339 -0.061868 0.854147
0.041667 -0.370539 0.927882
0.001619 0.010504 0.999943
-0.388712 -0.227682 0.892784
0.811398 -0.340999 0.474713
0.594610 -0.249906 0.764190
0.476076 -0.576133 0.664396
0.702000 0.093136 0.706060
0.594610 -0.249906 0.764190
0.811398 -0.340999 0.474713
-0.411790 0.395055 0.821194
-0.437901 0.115878 0.891524
-0.280679 0.496140 0.821623
-0.516339 -0.061868 0.854147
-0.437901 0.115878 0.891524
-0.576103 0.180641 0.797166
-0.141580 -0.552160 0.821629
-0.388712 -0.227682 0.892784
-0.288408 -0.490135 0.822550
-0.388712 -0.227682 0.892784
-0.516339 -0.061868 0.854147
-0.498291 -0.312158 0.808865
0.001619 0.010504 0.999943
-0.058357 0.378399 0.923801
-0.437901 0.115878 0.891524
0.073256 -0.614242 0.785710
0.041667 -0.370539 0.927882
-0.141580 -0.552160 0.821629
-0.280679 0.496140 0.821623
-0.058357 0.378399 0.923801
-0.089444 0.612098 0.785707
0.655588 0.585671 0.476648
0.506182 0.421230 0.752559
0.702000 0.093136 0.706060
-0.576103 0.180641 0.797166
-0.437901 0.115878 0.891524
-0.411790 0.395055 0.821194
-0.288408 -0.490135 0.822550
-0.388712 -0.227682 0.892784
-0.498291 -0.312158 0.808865
0.594610 -0.249906 0.764190
0.272967 -0.576511 0.770146
0.476076 -0.576133 0.664396
</float_array>
          <technique_common>
            <accessor source="#SM_Limpet_03_LOD1-Normal0-array" count="81" stride="3">
              <param name="X" type="float"/>
              <param name="Y" type="float"/>
              <param name="Z" type="float"/>
            </accessor>
          </technique_common>
        </source>
        <source id="SM_Limpet_03_LOD1-UV0">
          <float_array id="SM_Limpet_03_LOD1-UV0-array" count="44">
0.535156 0.736572
0.591797 0.716797
0.591797 0.784790
0.581307 0.751412
0.618652 0.764771
0.535645 0.764771
0.618652 0.736572
0.559082 0.784790
0.559082 0.716797
0.614258 0.761719
0.532227 0.750732
0.579590 0.739502
0.614258 0.739746
0.548340 0.761719
0.548340 0.739746
0.579590 0.761963
0.575195 0.713867
0.575195 0.787598
0.622070 0.750732
0.544922 0.776733
0.544922 0.724609
0.606445 0.724609
</float_array>
          <technique_common>
            <accessor source="#SM_Limpet_03_LOD1-UV0-array" count="22" stride="2">
              <param name="S" type="float"/>
              <param name="T" type="float"/>
            </accessor>
          </technique_common>
        </source>
        <vertices id="SM_Limpet_03_LOD1-VERTEX">
          <input semantic="POSITION" source="#SM_Limpet_03_LOD1-POSITION"/>
        </vertices>
        <triangles count="27" material="MAT_Sea_Shells">
          <input semantic="VERTEX" offset="0" source="#SM_Limpet_03_LOD1-VERTEX"/>
          <input semantic="NORMAL" offset="1" source="#SM_Limpet_03_LOD1-Normal0"/>
          <input semantic="TEXCOORD" offset="2" set="0" source="#SM_Limpet_03_LOD1-UV0"/>
          <p> 13 0 13 15 1 15 7 2 7 3 3 3 12 4 12 9 5 9 12 6 12 18 7 18 9 8 9 8 9 8 11 10 11 14 11 14 0 12 2 15 13 15 9 14 9 3 15 3 13 16 13 10 17 10 12 18 12 11 19 11 1 20 1 17 21 17 15 22 15 0 23 2 1 24 1 11 25 11 16 26 16 3 27 3 11 28 11 12 29 12 15 30 15 3 31 3 9 32 9 0 33 2 9 34 9 4 35 4 14 36 14 3 37 3 10 38 10 11 39 11 3 40 3 14 41 14 6 42 6 12 43 12 21 44 21 18 45 18 12 46 12 6 47 6 19 48 19 13 49 13 7 50 7 10 51 10 13 52 13 5 53 5 8 54 8 14 55 14 20 56 20 14 57 14 10 58 10 2 59 0 3 60 3 15 61 15 13 62 13 16 63 16 11 64 11 8 65 8 7 66 7 15 67 15 17 68 17 4 69 4 9 70 9 18 71 18 5 72 5 13 73 13 19 74 19 20 75 20 14 76 14 2 77 0 12 78 12 1 79 1 21 80 21</p>
        </triangles>
      </mesh>
    </geometry>
  </library_geometries>
  <library_visual_scenes>
    <visual_scene id="SM_Limpet_03" name="SM_Limpet_03">
      <node name="SM_Limpet_03_LOD0" id="SM_Limpet_03_LOD0" layer="shells" sid="SM_Limpet_03_LOD0">
        <matrix sid="matrix">1.000000 0.000000 0.000000 0.000000 0.000000 0.000000 1.000000 0.000000 0.000000 -1.000000 0.000000 0.000000 0.000000 0.000000 0.000000 1.000000</matrix>
        <instance_geometry url="#SM_Limpet_03_LOD0-lib">
          <bind_material>
            <technique_common>
              <instance_material symbol="MAT_Sea_Shells" target="#MAT_Sea_Shells"/>
            </technique_common>
          </bind_material>
        </instance_geometry>
        <extra>
          <technique profile="FCOLLADA">
            <visibility>1.000000</visibility>
          </technique>
        </extra>
      </node>
      <node name="SM_Limpet_03_LOD1" id="SM_Limpet_03_LOD1" layer="shells" sid="SM_Limpet_03_LOD1">
        <matrix sid="matrix">1.000000 0.000000 0.000000 0.000000 0.000000 0.000000 1.000000 0.000000 0.000000 -1.000000 0.000000 0.000000 0.000000 0.000000 0.000000 1.000000</matrix>
        <instance_geometry url="#SM_Limpet_03_LOD1-lib">
          <bind_material>
            <technique_common>
              <instance_material symbol="MAT_Sea_Shells" target="#MAT_Sea_Shells"/>
            </technique_common>
          </bind_material>
        </instance_geometry>
        <extra>
          <technique profile="FCOLLADA">
            <visibility>1.000000</visibility>
          </technique>
        </extra>
      </node>
      <extra>
        <technique profile="MAX3D">
          <frame_rate>30.000000</frame_rate>
        </technique>
        <technique profile="FCOLLADA">
          <start_time>0.000000</start_time>
          <end_time>3.333333</end_time>
        </technique>
      </extra>
    </visual_scene>
  </library_visual_scenes>
  <scene>
    <instance_visual_scene url="#SM_Limpet_03"/>
  </scene>
</COLLADA>
