<?xml version="1.0" encoding="utf-8"?>
<COLLADA xmlns="http://www.collada.org/2005/11/COLLADASchema" version="1.4.1">
  <asset>
    <contributor>
      <author/>
      <authoring_tool>FBX COLLADA exporter</authoring_tool>
      <comments/>
    </contributor>
    <created>2024-02-10T11:42:34Z</created>
    <keywords/>
    <modified>2024-02-10T11:42:34Z</modified>
    <revision/>
    <subject/>
    <title/>
    <unit meter="0.010000" name="centimeter"/>
    <up_axis>Y_UP</up_axis>
  </asset>
  <library_materials>
    <material id="MAT_Sea_Shells" name="MAT_Sea_Shells">
      <instance_effect url="#MAT_Sea_Shells-fx"/>
    </material>
  </library_materials>
  <library_effects>
    <effect id="MAT_Sea_Shells-fx" name="MAT_Sea_Shells">
      <profile_COMMON>
        <technique sid="standard">
          <phong>
            <emission>
              <color sid="emission">0.000000  0.000000 0.000000 1.000000</color>
            </emission>
            <ambient>
              <color sid="ambient">0.588235  0.588235 0.588235 1.000000</color>
            </ambient>
            <diffuse>
              <color sid="diffuse">0.588235  0.588235 0.588235 1.000000</color>
            </diffuse>
            <specular>
              <color sid="specular">0.000000  0.000000 0.000000 1.000000</color>
            </specular>
            <shininess>
              <float sid="shininess">2.000000</float>
            </shininess>
            <reflective>
              <color sid="reflective">0.000000  0.000000 0.000000 1.000000</color>
            </reflective>
            <reflectivity>
              <float sid="reflectivity">1.000000</float>
            </reflectivity>
            <transparent opaque="RGB_ZERO">
              <color sid="transparent">1.000000  1.000000 1.000000 1.000000</color>
            </transparent>
            <transparency>
              <float sid="transparency">0.000000</float>
            </transparency>
          </phong>
        </technique>
      </profile_COMMON>
    </effect>
  </library_effects>
  <library_geometries>
    <geometry id="SM_Limpet_01_LOD0-lib" name="SM_Limpet_01_LOD0Mesh">
      <mesh>
        <source id="SM_Limpet_01_LOD0-POSITION">
          <float_array id="SM_Limpet_01_LOD0-POSITION-array" count="147">
-3.816883 1.253296 -0.000000
-4.164673 -0.021454 0.000000
-3.818775 -1.281952 0.000000
-2.949398 -2.394348 0.000000
-2.612904 -1.001038 0.864339
-1.823448 -3.294159 0.000000
-1.962940 -1.865356 0.810372
-0.252174 -3.409363 0.000000
0.196724 -2.629120 0.730237
1.369034 -2.538055 0.754106
1.253128 -3.261536 0.000000
2.664955 -2.658600 0.000000
3.756199 -1.429932 0.000000
3.281113 -1.039154 0.864339
4.164677 -0.018890 0.000000
3.539490 -0.021332 0.886163
3.932362 1.315460 -0.000000
3.347721 0.999359 0.864339
2.797607 2.576630 -0.000000
0.239548 2.671814 0.730237
1.346531 3.333527 -0.000000
-0.939709 2.345642 0.754106
-0.180931 3.409393 -0.000000
-1.694317 3.027069 -0.000000
-3.004601 2.329712 -0.000000
-2.625805 0.955231 0.864339
-2.866371 -0.025208 0.886163
-0.508656 -0.438416 1.840870
-0.993809 -2.464081 0.754106
0.179531 -1.021973 1.804162
0.665459 -1.104065 1.796430
1.154022 -1.021973 1.804162
2.508083 -2.009369 0.810372
1.857525 0.386902 1.840870
1.154022 0.970459 1.804162
2.602390 1.940094 0.810372
1.452766 2.570068 0.754106
0.665459 1.052521 1.796430
0.179531 0.970459 1.804162
-1.958920 1.783722 0.810372
-0.508621 0.386902 1.840870
-0.231564 0.736725 1.822648
1.579769 0.736725 1.822648
1.951508 -0.025757 1.848348
1.857525 -0.438416 1.840870
1.579769 -0.788239 1.822648
-0.231564 -0.788239 1.822648
0.710102 -0.025757 2.203132
-0.606441 -0.025787 1.848348
</float_array>
          <technique_common>
            <accessor source="#SM_Limpet_01_LOD0-POSITION-array" count="49" stride="3">
              <param name="X" type="float"/>
              <param name="Y" type="float"/>
              <param name="Z" type="float"/>
            </accessor>
          </technique_common>
        </source>
        <source id="SM_Limpet_01_LOD0-Normal0">
          <float_array id="SM_Limpet_01_LOD0-Normal0-array" count="720">
-0.480153 -0.000978 0.877184
-0.511278 0.268836 0.816286
-0.561684 -0.000977 0.827351
-0.514704 -0.270537 0.813566
-0.480153 -0.000978 0.877184
-0.561684 -0.000977 0.827351
-0.441163 -0.243569 0.863741
-0.480153 -0.000978 0.877184
-0.514704 -0.270537 0.813566
-0.400208 -0.437391 0.805309
-0.441163 -0.243569 0.863741
-0.514704 -0.270537 0.813566
-0.341307 -0.409764 0.845933
-0.441163 -0.243569 0.863741
-0.400208 -0.437391 0.805309
-0.196399 -0.577471 0.792436
-0.341307 -0.409764 0.845933
-0.400208 -0.437391 0.805309
-0.171114 -0.542677 0.822327
-0.341307 -0.409764 0.845933
-0.196399 -0.577471 0.792436
-0.000980 -0.683257 0.730177
-0.171114 -0.542677 0.822327
-0.196399 -0.577471 0.792436
-0.006844 -0.626691 0.779238
-0.171114 -0.542677 0.822327
-0.000980 -0.683257 0.730177
0.180850 -0.718513 0.671590
-0.006844 -0.626691 0.779238
-0.000980 -0.683257 0.730177
0.157397 -0.640342 0.751790
-0.006844 -0.626691 0.779238
0.180850 -0.718513 0.671590
0.468827 -0.637174 0.611727
0.157397 -0.640342 0.751790
0.180850 -0.718513 0.671590
0.397979 -0.552453 0.732399
0.157397 -0.640342 0.751790
0.468827 -0.637174 0.611727
0.722594 -0.388174 0.571995
0.397979 -0.552453 0.732399
0.468827 -0.637174 0.611727
0.606993 -0.331354 0.722332
0.397979 -0.552453 0.732399
0.722594 -0.388174 0.571995
0.815651 -0.038095 0.577289
0.606993 -0.331354 0.722332
0.722594 -0.388174 0.571995
0.681001 -0.026380 0.731807
0.606993 -0.331354 0.722332
0.815651 -0.038095 0.577289
0.601108 0.302020 0.739901
0.681001 -0.026380 0.731807
0.815651 -0.038095 0.577289
0.721334 0.349400 0.597993
0.601108 0.302020 0.739901
0.815651 -0.038095 0.577289
0.409328 0.534373 0.739525
0.601108 0.302020 0.739901
0.721334 0.349400 0.597993
0.485982 0.617011 0.618967
0.409328 0.534373 0.739525
0.721334 0.349400 0.597993
0.171080 0.622730 0.763504
0.409328 0.534373 0.739525
0.485982 0.617011 0.618967
0.198658 0.707537 0.678179
0.171080 0.622730 0.763504
0.485982 0.617011 0.618967
-0.049859 0.614950 0.786988
0.171080 0.622730 0.763504
0.198658 0.707537 0.678179
-0.061634 0.681892 0.728852
-0.049859 0.614950 0.786988
0.198658 0.707537 0.678179
-0.196645 0.556671 0.807124
-0.049859 0.614950 0.786988
-0.061634 0.681892 0.728852
-0.225880 0.607237 0.761736
-0.196645 0.556671 0.807124
-0.061634 0.681892 0.728852
-0.325728 0.437239 0.838286
-0.196645 0.556671 0.807124
-0.225880 0.607237 0.761736
-0.376374 0.476088 0.794785
-0.325728 0.437239 0.838286
-0.225880 0.607237 0.761736
-0.437262 0.243576 0.865721
-0.325728 0.437239 0.838286
-0.376374 0.476088 0.794785
-0.511278 0.268836 0.816286
-0.437262 0.243576 0.865721
-0.376374 0.476088 0.794785
-0.480153 -0.000978 0.877184
-0.437262 0.243576 0.865721
-0.511278 0.268836 0.816286
-0.327345 -0.000978 0.944904
-0.437262 0.243576 0.865721
-0.480153 -0.000978 0.877184
-0.441163 -0.243569 0.863741
-0.327345 -0.000978 0.944904
-0.480153 -0.000978 0.877184
-0.299865 -0.180700 0.936711
-0.327345 -0.000978 0.944904
-0.441163 -0.243569 0.863741
-0.341307 -0.409764 0.845933
-0.299865 -0.180700 0.936711
-0.441163 -0.243569 0.863741
-0.225747 -0.321518 0.919600
-0.299865 -0.180700 0.936711
-0.341307 -0.409764 0.845933
-0.171114 -0.542677 0.822327
-0.225747 -0.321518 0.919600
-0.341307 -0.409764 0.845933
-0.118257 -0.419286 0.900119
-0.225747 -0.321518 0.919600
-0.171114 -0.542677 0.822327
-0.006844 -0.626691 0.779238
-0.118257 -0.419286 0.900119
-0.171114 -0.542677 0.822327
-0.004888 -0.462393 0.886661
-0.118257 -0.419286 0.900119
-0.006844 -0.626691 0.779238
0.157397 -0.640342 0.751790
-0.004888 -0.462393 0.886661
-0.006844 -0.626691 0.779238
0.110578 -0.447218 0.887563
-0.004888 -0.462393 0.886661
0.157397 -0.640342 0.751790
0.397979 -0.552453 0.732399
0.110578 -0.447218 0.887563
0.157397 -0.640342 0.751790
0.249444 -0.364873 0.897020
0.110578 -0.447218 0.887563
0.397979 -0.552453 0.732399
0.606993 -0.331354 0.722332
0.249444 -0.364873 0.897020
0.397979 -0.552453 0.732399
0.360400 -0.208036 0.909303
0.249444 -0.364873 0.897020
0.606993 -0.331354 0.722332
0.400040 -0.006847 0.916472
0.360400 -0.208036 0.909303
0.606993 -0.331354 0.722332
0.681001 -0.026380 0.731807
0.400040 -0.006847 0.916472
0.606993 -0.331354 0.722332
0.356928 0.200467 0.912368
0.400040 -0.006847 0.916472
0.681001 -0.026380 0.731807
0.601108 0.302020 0.739901
0.356928 0.200467 0.912368
0.681001 -0.026380 0.731807
0.409328 0.534373 0.739525
0.356928 0.200467 0.912368
0.601108 0.302020 0.739901
0.249445 0.355092 0.900937
0.356928 0.200467 0.912368
0.409328 0.534373 0.739525
0.116368 0.435156 0.892803
0.249445 0.355092 0.900937
0.409328 0.534373 0.739525
0.171080 0.622730 0.763504
0.116368 0.435156 0.892803
0.409328 0.534373 0.739525
-0.018574 0.450652 0.892506
0.116368 0.435156 0.892803
0.171080 0.622730 0.763504
-0.049859 0.614950 0.786988
-0.018574 0.450652 0.892506
0.171080 0.622730 0.763504
-0.128102 0.419508 0.898667
-0.018574 0.450652 0.892506
-0.049859 0.614950 0.786988
-0.196645 0.556671 0.807124
-0.128102 0.419508 0.898667
-0.049859 0.614950 0.786988
-0.223723 0.329234 0.917362
-0.128102 0.419508 0.898667
-0.196645 0.556671 0.807124
-0.325728 0.437239 0.838286
-0.223723 0.329234 0.917362
-0.196645 0.556671 0.807124
-0.297980 0.182696 0.936926
-0.223723 0.329234 0.917362
-0.325728 0.437239 0.838286
-0.437262 0.243576 0.865721
-0.297980 0.182696 0.936926
-0.325728 0.437239 0.838286
-0.327345 -0.000978 0.944904
-0.297980 0.182696 0.936926
-0.437262 0.243576 0.865721
0.002933 0.000978 0.999995
-0.297980 0.182696 0.936926
-0.327345 -0.000978 0.944904
0.002933 0.000978 0.999995
-0.223723 0.329234 0.917362
-0.297980 0.182696 0.936926
0.002933 0.000978 0.999995
-0.128102 0.419508 0.898667
-0.223723 0.329234 0.917362
0.002933 0.000978 0.999995
-0.018574 0.450652 0.892506
-0.128102 0.419508 0.898667
0.002933 0.000978 0.999995
0.116368 0.435156 0.892803
-0.018574 0.450652 0.892506
0.002933 0.000978 0.999995
0.249445 0.355092 0.900937
0.116368 0.435156 0.892803
0.002933 0.000978 0.999995
0.356928 0.200467 0.912368
0.249445 0.355092 0.900937
0.002933 0.000978 0.999995
0.400040 -0.006847 0.916472
0.356928 0.200467 0.912368
0.002933 0.000978 0.999995
0.360400 -0.208036 0.909303
0.400040 -0.006847 0.916472
0.002933 0.000978 0.999995
0.249444 -0.364873 0.897020
0.360400 -0.208036 0.909303
0.002933 0.000978 0.999995
0.110578 -0.447218 0.887563
0.249444 -0.364873 0.897020
0.002933 0.000978 0.999995
-0.004888 -0.462393 0.886661
0.110578 -0.447218 0.887563
0.002933 0.000978 0.999995
-0.118257 -0.419286 0.900119
-0.004888 -0.462393 0.886661
0.002933 0.000978 0.999995
-0.225747 -0.321518 0.919600
-0.118257 -0.419286 0.900119
0.002933 0.000978 0.999995
-0.299865 -0.180700 0.936711
-0.225747 -0.321518 0.919600
-0.327345 -0.000978 0.944904
-0.299865 -0.180700 0.936711
0.002933 0.000978 0.999995
</float_array>
          <technique_common>
            <accessor source="#SM_Limpet_01_LOD0-Normal0-array" count="240" stride="3">
              <param name="X" type="float"/>
              <param name="Y" type="float"/>
              <param name="Z" type="float"/>
            </accessor>
          </technique_common>
        </source>
        <source id="SM_Limpet_01_LOD0-UV0">
          <float_array id="SM_Limpet_01_LOD0-UV0-array" count="98">
0.777344 0.357422
0.764648 0.373535
0.790039 0.374512
0.796387 0.350586
0.804199 0.369141
0.818359 0.351074
0.820801 0.369629
0.839844 0.357422
0.836426 0.375977
0.855469 0.375977
0.849121 0.389160
0.866211 0.396973
0.858398 0.404785
0.871094 0.419434
0.861816 0.423340
0.862793 0.443359
0.856934 0.441406
0.850586 0.459961
0.846680 0.453613
0.832520 0.460449
0.832520 0.468750
0.813965 0.459473
0.808105 0.468750
0.796387 0.450684
0.785156 0.457520
0.784180 0.437012
0.770508 0.438965
0.777832 0.419434
0.761230 0.416504
0.775879 0.401855
0.758301 0.393555
0.779785 0.386230
0.810059 0.402344
0.815918 0.399902
0.822754 0.400391
0.829102 0.403320
0.834473 0.408691
0.837891 0.415527
0.838867 0.422852
0.836914 0.429199
0.832520 0.434082
0.826660 0.436523
0.819824 0.436035
0.813477 0.433105
0.808105 0.427734
0.804688 0.420898
0.803711 0.414063
0.805664 0.407227
0.821777 0.418945
</float_array>
          <technique_common>
            <accessor source="#SM_Limpet_01_LOD0-UV0-array" count="49" stride="2">
              <param name="S" type="float"/>
              <param name="T" type="float"/>
            </accessor>
          </technique_common>
        </source>
        <vertices id="SM_Limpet_01_LOD0-VERTEX">
          <input semantic="POSITION" source="#SM_Limpet_01_LOD0-POSITION"/>
        </vertices>
        <triangles count="80" material="MAT_Sea_Shells">
          <input semantic="VERTEX" offset="0" source="#SM_Limpet_01_LOD0-VERTEX"/>
          <input semantic="NORMAL" offset="1" source="#SM_Limpet_01_LOD0-Normal0"/>
          <input semantic="TEXCOORD" offset="2" set="0" source="#SM_Limpet_01_LOD0-UV0"/>
          <p> 26 0 2 0 1 1 1 2 0 2 3 3 26 4 2 1 5 0 4 6 4 26 7 2 2 8 3 3 9 5 4 10 4 2 11 3 6 12 6 4 13 4 3 14 5 5 15 7 6 16 6 3 17 5 28 18 8 6 19 6 5 20 7 7 21 9 28 22 8 5 23 7 8 24 10 28 25 8 7 26 9 10 27 11 8 28 10 7 29 9 9 30 12 8 31 10 10 32 11 11 33 13 9 34 12 10 35 11 32 36 14 9 37 12 11 38 13 12 39 15 32 40 14 11 41 13 13 42 16 32 43 14 12 44 15 14 45 17 13 46 16 12 47 15 15 48 18 13 49 16 14 50 17 17 51 19 15 52 18 14 53 17 16 54 20 17 55 19 14 56 17 35 57 21 17 58 19 16 59 20 18 60 22 35 61 21 16 62 20 36 63 23 35 64 21 18 65 22 20 66 24 36 67 23 18 68 22 19 69 25 36 70 23 20 71 24 22 72 26 19 73 25 20 74 24 21 75 27 19 76 25 22 77 26 23 78 28 21 79 27 22 80 26 39 81 29 21 82 27 23 83 28 24 84 30 39 85 29 23 86 28 25 87 31 39 88 29 24 89 30 0 90 1 25 91 31 24 92 30 26 93 2 25 94 31 0 95 1 48 96 32 25 97 31 26 98 2 4 99 4 48 100 32 26 101 2 27 102 33 48 103 32 4 104 4 6 105 6 27 106 33 4 107 4 46 108 34 27 109 33 6 110 6 28 111 8 46 112 34 6 113 6 29 114 35 46 115 34 28 116 8 8 117 10 29 118 35 28 119 8 30 120 36 29 121 35 8 122 10 9 123 12 30 124 36 8 125 10 31 126 37 30 127 36 9 128 12 32 129 14 31 130 37 9 131 12 45 132 38 31 133 37 32 134 14 13 135 16 45 136 38 32 137 14 44 138 39 45 139 38 13 140 16 43 141 40 44 142 39 13 143 16 15 144 18 43 145 40 13 146 16 33 147 41 43 148 40 15 149 18 17 150 19 33 151 41 15 152 18 35 153 21 33 154 41 17 155 19 42 156 42 33 157 41 35 158 21 34 159 43 42 160 42 35 161 21 36 162 23 34 163 43 35 164 21 37 165 44 34 166 43 36 167 23 19 168 25 37 169 44 36 170 23 38 171 45 37 172 44 19 173 25 21 174 27 38 175 45 19 176 25 41 177 46 38 178 45 21 179 27 39 180 29 41 181 46 21 182 27 40 183 47 41 184 46 39 185 29 25 186 31 40 187 47 39 188 29 48 189 32 40 190 47 25 191 31 47 192 48 40 193 47 48 194 32 47 195 48 41 196 46 40 197 47 47 198 48 38 199 45 41 200 46 47 201 48 37 202 44 38 203 45 47 204 48 34 205 43 37 206 44 47 207 48 42 208 42 34 209 43 47 210 48 33 211 41 42 212 42 47 213 48 43 214 40 33 215 41 47 216 48 44 217 39 43 218 40 47 219 48 45 220 38 44 221 39 47 222 48 31 223 37 45 224 38 47 225 48 30 226 36 31 227 37 47 228 48 29 229 35 30 230 36 47 231 48 46 232 34 29 233 35 47 234 48 27 235 33 46 236 34 48 237 32 27 238 33 47 239 48</p>
        </triangles>
      </mesh>
    </geometry>
    <geometry id="SM_Limpet_01_LOD1-lib" name="SM_Limpet_01_LOD1Mesh">
      <mesh>
        <source id="SM_Limpet_01_LOD1-POSITION">
          <float_array id="SM_Limpet_01_LOD1-POSITION-array" count="87">
0.710102 -0.025757 2.203132
-3.004601 2.329712 -0.000000
3.932362 1.315460 -0.000000
-1.823448 -3.294159 0.000000
1.346531 3.333527 -0.000000
1.770565 -0.460571 1.835555
-3.628284 -1.525696 0.000000
3.756199 -1.429932 0.000000
2.602390 1.940094 0.810372
-0.872795 3.234589 -0.000000
-4.164673 -0.021454 0.000000
0.730602 -3.312836 0.000000
3.281113 -1.039154 0.864339
3.440239 0.506927 0.874868
0.600998 0.970459 1.804162
-2.316853 -1.394745 0.839758
-2.310776 1.346588 0.838845
0.193851 -0.938019 1.810214
1.779671 0.484955 1.835763
0.053902 2.620453 0.733994
1.249550 -2.547333 0.751674
-2.866371 -0.025208 0.886163
2.797607 2.576630 -0.000000
4.164677 -0.018890 0.000000
2.664955 -2.658600 0.000000
-0.559498 0.172241 1.844759
2.508083 -2.009369 0.810372
-3.816883 1.253296 -0.000000
1.452766 2.570038 0.754106
</float_array>
          <technique_common>
            <accessor source="#SM_Limpet_01_LOD1-POSITION-array" count="29" stride="3">
              <param name="X" type="float"/>
              <param name="Y" type="float"/>
              <param name="Z" type="float"/>
            </accessor>
          </technique_common>
        </source>
        <source id="SM_Limpet_01_LOD1-Normal0">
          <float_array id="SM_Limpet_01_LOD1-Normal0-array" count="387">
0.465294 0.635701 0.615943
0.431435 0.512855 0.742188
0.688533 0.341291 0.639877
-0.386259 -0.335991 0.859019
-0.301057 0.083996 0.949900
-0.476018 -0.008513 0.879394
0.397892 -0.554559 0.730853
0.129238 -0.644694 0.753437
0.427075 -0.670904 0.606213
-0.355435 0.365791 0.860153
-0.034155 0.443928 0.895411
-0.106827 0.612534 0.783193
0.337661 0.240418 0.910046
0.328028 -0.243917 0.912635
0.642095 0.137017 0.754282
0.328028 -0.243917 0.912635
-0.109091 -0.409940 0.905565
0.129238 -0.644694 0.753437
-0.224793 -0.525782 0.820379
-0.109091 -0.409940 0.905565
-0.386259 -0.335991 0.859019
0.789212 -0.039011 0.612881
0.623281 -0.287307 0.727307
0.716963 -0.402274 0.569333
0.176591 0.619602 0.764793
-0.034155 0.443928 0.895411
0.431435 0.512855 0.742188
0.002082 -0.020620 0.999785
0.328028 -0.243917 0.912635
0.337661 0.240418 0.910046
-0.106827 0.612534 0.783193
-0.034155 0.443928 0.895411
0.176591 0.619602 0.764793
-0.301057 0.083996 0.949900
-0.355435 0.365791 0.860153
-0.476018 -0.008513 0.879394
0.129238 -0.644694 0.753437
-0.109091 -0.409940 0.905565
-0.224793 -0.525782 0.820379
0.642095 0.137017 0.754282
0.328028 -0.243917 0.912635
0.623281 -0.287307 0.727307
0.397892 -0.554559 0.730853
0.328028 -0.243917 0.912635
0.129238 -0.644694 0.753437
0.431435 0.512855 0.742188
0.642095 0.137017 0.754282
0.688533 0.341291 0.639877
0.642095 0.137017 0.754282
0.623281 -0.287307 0.727307
0.789212 -0.039011 0.612881
0.002082 -0.020620 0.999785
0.337661 0.240418 0.910046
-0.034155 0.443928 0.895411
-0.301057 0.083996 0.949900
-0.034155 0.443928 0.895411
-0.355435 0.365791 0.860153
-0.386259 -0.335991 0.859019
-0.476018 -0.008513 0.879394
-0.505091 -0.303743 0.807851
-0.224793 -0.525782 0.820379
-0.386259 -0.335991 0.859019
-0.505091 -0.303743 0.807851
-0.349682 0.452957 0.820093
-0.355435 0.365791 0.860153
-0.190631 0.610492 0.768739
-0.508063 0.245074 0.825718
-0.355435 0.365791 0.860153
-0.349682 0.452957 0.820093
0.002082 -0.020620 0.999785
-0.109091 -0.409940 0.905565
0.328028 -0.243917 0.912635
-0.109091 -0.409940 0.905565
-0.301057 0.083996 0.949900
-0.386259 -0.335991 0.859019
0.431435 0.512855 0.742188
0.337661 0.240418 0.910046
0.642095 0.137017 0.754282
-0.034155 0.443928 0.895411
0.337661 0.240418 0.910046
0.431435 0.512855 0.742188
-0.190631 0.610492 0.768739
-0.106827 0.612534 0.783193
0.146274 0.716099 0.682500
-0.355435 0.365791 0.860153
-0.106827 0.612534 0.783193
-0.190631 0.610492 0.768739
0.129238 -0.644694 0.753437
-0.224793 -0.525782 0.820379
0.076796 -0.724583 0.684895
0.427075 -0.670904 0.606213
0.129238 -0.644694 0.753437
0.076796 -0.724583 0.684895
-0.505091 -0.303743 0.807851
-0.476018 -0.008513 0.879394
-0.563692 -0.018516 0.825777
-0.476018 -0.008513 0.879394
-0.355435 0.365791 0.860153
-0.508063 0.245074 0.825718
0.176591 0.619602 0.764793
0.431435 0.512855 0.742188
0.465294 0.635701 0.615943
0.688533 0.341291 0.639877
0.642095 0.137017 0.754282
0.789212 -0.039011 0.612881
0.716963 -0.402274 0.569333
0.397892 -0.554559 0.730853
0.427075 -0.670904 0.606213
-0.301057 0.083996 0.949900
-0.109091 -0.409940 0.905565
0.002082 -0.020620 0.999785
0.002082 -0.020620 0.999785
-0.034155 0.443928 0.895411
-0.301057 0.083996 0.949900
0.623281 -0.287307 0.727307
0.397892 -0.554559 0.730853
0.716963 -0.402274 0.569333
0.623281 -0.287307 0.727307
0.328028 -0.243917 0.912635
0.397892 -0.554559 0.730853
-0.476018 -0.008513 0.879394
-0.508063 0.245074 0.825718
-0.563692 -0.018516 0.825777
-0.106827 0.612534 0.783193
0.176591 0.619602 0.764793
0.146274 0.716099 0.682500
0.146274 0.716099 0.682500
0.176591 0.619602 0.764793
0.465294 0.635701 0.615943
</float_array>
          <technique_common>
            <accessor source="#SM_Limpet_01_LOD1-Normal0-array" count="129" stride="3">
              <param name="X" type="float"/>
              <param name="Y" type="float"/>
              <param name="Z" type="float"/>
            </accessor>
          </technique_common>
        </source>
        <source id="SM_Limpet_01_LOD1-UV0">
          <float_array id="SM_Limpet_01_LOD1-UV0-array" count="58">
0.839844 0.357422
0.832520 0.468750
0.758301 0.393555
0.821777 0.418945
0.862482 0.389685
0.785156 0.457520
0.777344 0.357422
0.862793 0.443359
0.801201 0.350693
0.766266 0.428697
0.836417 0.428024
0.871094 0.419434
0.808105 0.468750
0.839351 0.457151
0.808489 0.426178
0.790039 0.374512
0.811761 0.369363
0.828312 0.404327
0.850586 0.459961
0.783181 0.434245
0.856934 0.441406
0.764648 0.373535
0.813965 0.459473
0.857453 0.403192
0.861816 0.423340
0.807950 0.404687
0.796387 0.450684
0.777940 0.393611
0.824744 0.436386
</float_array>
          <technique_common>
            <accessor source="#SM_Limpet_01_LOD1-UV0-array" count="29" stride="2">
              <param name="S" type="float"/>
              <param name="T" type="float"/>
            </accessor>
          </technique_common>
        </source>
        <vertices id="SM_Limpet_01_LOD1-VERTEX">
          <input semantic="POSITION" source="#SM_Limpet_01_LOD1-POSITION"/>
        </vertices>
        <triangles count="43" material="MAT_Sea_Shells">
          <input semantic="VERTEX" offset="0" source="#SM_Limpet_01_LOD1-VERTEX"/>
          <input semantic="NORMAL" offset="1" source="#SM_Limpet_01_LOD1-Normal0"/>
          <input semantic="TEXCOORD" offset="2" set="0" source="#SM_Limpet_01_LOD1-UV0"/>
          <p> 22 0 12 8 1 22 2 2 1 15 3 16 25 4 25 21 5 15 26 6 24 20 7 23 24 8 11 16 9 27 14 10 14 19 11 19 18 12 28 5 13 10 13 14 13 5 15 10 17 16 17 20 17 23 3 18 0 17 19 17 15 20 16 23 21 18 12 22 20 7 23 7 28 24 26 14 25 14 8 26 22 0 27 3 5 28 10 18 29 28 19 30 19 14 31 14 28 32 26 25 33 25 16 34 27 21 35 15 20 36 23 17 37 17 3 38 0 13 39 13 5 40 10 12 41 20 26 42 24 5 43 10 20 44 23 8 45 22 13 46 13 2 47 1 13 48 13 12 49 20 23 50 18 0 51 3 18 52 28 14 53 14 25 54 25 14 55 14 16 56 27 15 57 16 21 58 15 6 59 8 3 60 0 15 61 16 6 62 8 1 63 2 16 64 27 9 65 9 27 66 21 16 67 27 1 68 2 0 69 3 17 70 17 5 71 10 17 72 17 25 73 25 15 74 16 8 75 22 18 76 28 13 77 13 14 78 14 18 79 28 8 80 22 9 81 9 19 82 19 4 83 5 16 84 27 19 85 19 9 86 9 20 87 23 3 88 0 11 89 4 24 90 11 20 91 23 11 92 4 6 93 8 21 94 15 10 95 6 21 96 15 16 97 27 27 98 21 28 99 26 8 100 22 22 101 12 2 102 1 13 103 13 23 104 18 7 105 7 26 106 24 24 107 11 25 108 25 17 109 17 0 110 3 0 111 3 14 112 14 25 113 25 12 114 20 26 115 24 7 116 7 12 117 20 5 118 10 26 119 24 21 120 15 27 121 21 10 122 6 19 123 19 28 124 26 4 125 5 4 126 5 28 127 26 22 128 12</p>
        </triangles>
      </mesh>
    </geometry>
  </library_geometries>
  <library_visual_scenes>
    <visual_scene id="SM_Limpet_01" name="SM_Limpet_01">
      <node name="SM_Limpet_01_LOD0" id="SM_Limpet_01_LOD0" layer="shells" sid="SM_Limpet_01_LOD0">
        <matrix sid="matrix">1.000000 0.000000 0.000000 0.000000 0.000000 0.000000 1.000000 0.000000 0.000000 -1.000000 0.000000 0.000000 0.000000 0.000000 0.000000 1.000000</matrix>
        <instance_geometry url="#SM_Limpet_01_LOD0-lib">
          <bind_material>
            <technique_common>
              <instance_material symbol="MAT_Sea_Shells" target="#MAT_Sea_Shells"/>
            </technique_common>
          </bind_material>
        </instance_geometry>
        <extra>
          <technique profile="FCOLLADA">
            <visibility>1.000000</visibility>
          </technique>
        </extra>
      </node>
      <node name="SM_Limpet_01_LOD1" id="SM_Limpet_01_LOD1" layer="shells" sid="SM_Limpet_01_LOD1">
        <matrix sid="matrix">1.000000 0.000000 0.000000 0.000000 0.000000 0.000000 1.000000 0.000000 0.000000 -1.000000 0.000000 0.000000 0.000000 0.000000 0.000000 1.000000</matrix>
        <instance_geometry url="#SM_Limpet_01_LOD1-lib">
          <bind_material>
            <technique_common>
              <instance_material symbol="MAT_Sea_Shells" target="#MAT_Sea_Shells"/>
            </technique_common>
          </bind_material>
        </instance_geometry>
        <extra>
          <technique profile="FCOLLADA">
            <visibility>1.000000</visibility>
          </technique>
        </extra>
      </node>
      <extra>
        <technique profile="MAX3D">
          <frame_rate>30.000000</frame_rate>
        </technique>
        <technique profile="FCOLLADA">
          <start_time>0.000000</start_time>
          <end_time>3.333333</end_time>
        </technique>
      </extra>
    </visual_scene>
  </library_visual_scenes>
  <scene>
    <instance_visual_scene url="#SM_Limpet_01"/>
  </scene>
</COLLADA>
