<?xml version="1.0" encoding="utf-8"?>
<COLLADA xmlns="http://www.collada.org/2005/11/COLLADASchema" version="1.4.1">
  <asset>
    <contributor>
      <author/>
      <authoring_tool>FBX COLLADA exporter</authoring_tool>
      <comments/>
    </contributor>
    <created>2024-02-10T11:42:39Z</created>
    <keywords/>
    <modified>2024-02-10T11:42:39Z</modified>
    <revision/>
    <subject/>
    <title/>
    <unit meter="0.010000" name="centimeter"/>
    <up_axis>Y_UP</up_axis>
  </asset>
  <library_materials>
    <material id="MAT_Sea_Shells" name="MAT_Sea_Shells">
      <instance_effect url="#MAT_Sea_Shells-fx"/>
    </material>
  </library_materials>
  <library_effects>
    <effect id="MAT_Sea_Shells-fx" name="MAT_Sea_Shells">
      <profile_COMMON>
        <technique sid="standard">
          <phong>
            <emission>
              <color sid="emission">0.000000  0.000000 0.000000 1.000000</color>
            </emission>
            <ambient>
              <color sid="ambient">0.588235  0.588235 0.588235 1.000000</color>
            </ambient>
            <diffuse>
              <color sid="diffuse">0.588235  0.588235 0.588235 1.000000</color>
            </diffuse>
            <specular>
              <color sid="specular">0.000000  0.000000 0.000000 1.000000</color>
            </specular>
            <shininess>
              <float sid="shininess">2.000000</float>
            </shininess>
            <reflective>
              <color sid="reflective">0.000000  0.000000 0.000000 1.000000</color>
            </reflective>
            <reflectivity>
              <float sid="reflectivity">1.000000</float>
            </reflectivity>
            <transparent opaque="RGB_ZERO">
              <color sid="transparent">1.000000  1.000000 1.000000 1.000000</color>
            </transparent>
            <transparency>
              <float sid="transparency">0.000000</float>
            </transparency>
          </phong>
        </technique>
      </profile_COMMON>
    </effect>
  </library_effects>
  <library_geometries>
    <geometry id="SM_Sand_Dollar_05_LOD0-lib" name="SM_Sand_Dollar_05_LOD0Mesh">
      <mesh>
        <source id="SM_Sand_Dollar_05_LOD0-POSITION">
          <float_array id="SM_Sand_Dollar_05_LOD0-POSITION-array" count="258">
6.864395 2.803802 0.091240
7.240593 2.957458 0.358532
6.376343 4.289063 0.358919
5.079048 5.438049 0.359117
4.815147 5.155457 0.100943
3.673340 6.846130 0.359251
1.999672 7.287201 0.359350
-0.188515 6.885651 0.358235
-1.485374 6.191925 0.056496
-4.019150 5.927307 0.354761
-5.568230 5.717133 0.353942
-5.278908 5.420074 0.017136
-6.403824 4.441833 0.042282
-7.370316 3.425812 0.357056
-6.987328 3.247803 0.074979
-7.786049 1.662720 0.360007
-7.680611 -0.323547 0.361276
-7.381500 1.576263 0.111059
-7.281509 -0.306763 0.128671
-5.035027 -3.946930 0.358986
-4.476135 -5.161743 0.356725
-2.723038 -6.582123 0.353476
-2.581543 -6.240143 0.008214
1.250893 -7.287201 0.378013
1.185898 -6.908569 0.048359
1.859512 -7.098145 0.384148
1.762886 -6.729340 0.066781
6.065483 -4.778839 0.148613
7.049164 -3.604767 0.136131
6.397919 -5.040741 0.400324
7.381477 -1.539368 0.103634
7.192505 1.362671 0.088140
7.095032 0.209320 0.088683
7.586731 1.437378 0.358841
4.871437 -5.810486 0.140015
3.992218 -6.187500 0.125097
2.488129 -5.938263 0.094409
-0.965050 -6.761383 -0.000000
-4.243561 -4.893555 0.061607
-4.773392 -3.741852 0.093647
-6.591705 -1.717529 0.128671
0.622818 -0.068298 0.015755
-3.810303 5.619354 0.021868
-0.178719 6.527863 0.081766
1.895782 6.908508 0.099155
3.482430 6.490387 0.100356
6.045029 4.066193 0.095693
-1.017921 -7.131989 0.358989
1.185898 -6.908569 0.759378
-2.581543 -6.240143 0.746582
-4.243561 -4.893555 0.693389
-6.591705 -1.717529 0.626323
-6.952980 -1.811646 0.361276
-7.281509 -0.306763 0.626323
-7.381500 1.576263 0.643938
-6.403824 4.441833 0.716106
-6.987328 3.247803 0.680015
-6.754791 4.685272 0.355180
-5.278908 5.420074 0.747289
-1.566780 6.531311 0.356526
-1.485374 6.191925 0.698499
1.895782 6.908508 0.655837
-0.178719 6.527863 0.673225
4.815147 5.155457 0.650477
6.045029 4.066193 0.657617
6.864395 2.803802 0.664335
7.483894 0.220795 0.361657
7.095032 0.209320 0.673846
7.786057 -1.623749 0.371185
7.435516 -3.802399 0.389518
5.138435 -6.128906 0.403280
4.211014 -6.526672 0.401470
2.488129 -5.938263 0.739945
2.624489 -6.263763 0.393768
1.762886 -6.729340 0.752073
3.992218 -6.187500 0.715500
4.871437 -5.810486 0.701088
6.065483 -4.778839 0.685002
7.049164 -3.604767 0.677336
7.381477 -1.539368 0.676076
7.192505 1.362671 0.669236
3.482430 6.490387 0.652944
0.622818 -0.068298 0.738972
-3.810303 5.619354 0.746634
-4.773392 -3.741852 0.661350
-0.965050 -6.761383 0.767372
</float_array>
          <technique_common>
            <accessor source="#SM_Sand_Dollar_05_LOD0-POSITION-array" count="86" stride="3">
              <param name="X" type="float"/>
              <param name="Y" type="float"/>
              <param name="Z" type="float"/>
            </accessor>
          </technique_common>
        </source>
        <source id="SM_Sand_Dollar_05_LOD0-Normal0">
          <float_array id="SM_Sand_Dollar_05_LOD0-Normal0-array" count="1512">
0.997073 0.069333 -0.032225
0.266885 0.114369 -0.956918
0.920180 0.390163 -0.032266
0.266885 0.114369 -0.956918
0.755782 0.654121 -0.030309
0.920180 0.390163 -0.032266
0.266885 0.114369 -0.956918
0.221967 0.194644 -0.955429
0.755782 0.654121 -0.030309
0.221967 0.194644 -0.955429
0.684990 0.728001 -0.028337
0.755782 0.654121 -0.030309
0.202321 0.217914 -0.954767
0.684990 0.728001 -0.028337
0.221967 0.194644 -0.955429
0.202321 0.217914 -0.954767
0.143600 0.247145 -0.958279
0.684990 0.728001 -0.028337
0.143600 0.247145 -0.958279
0.499801 0.865609 -0.030321
0.684990 0.728001 -0.028337
0.143600 0.247145 -0.958279
0.032281 0.998957 -0.032287
0.499801 0.865609 -0.030321
0.143600 0.247145 -0.958279
0.012708 0.302123 -0.953184
0.032281 0.998957 -0.032287
0.012708 0.302123 -0.953184
-0.208011 0.977595 -0.032228
0.032281 0.998957 -0.032287
0.012708 0.302123 -0.953184
-0.061560 0.327349 -0.942896
-0.208011 0.977595 -0.032228
-0.061560 0.327349 -0.942896
-0.235701 0.971223 -0.034234
-0.208011 0.977595 -0.032228
-0.073338 0.345137 -0.935683
-0.235701 0.971223 -0.034234
-0.061560 0.327349 -0.942896
-0.073338 0.345137 -0.935683
-0.063563 0.368454 -0.927470
-0.235701 0.971223 -0.034234
-0.063563 0.368454 -0.927470
-0.180912 0.982760 -0.038135
-0.235701 0.971223 -0.034234
-0.063563 0.368454 -0.927470
-0.137949 0.312043 -0.940000
-0.180912 0.982760 -0.038135
-0.137949 0.312043 -0.940000
-0.398064 0.916481 -0.040099
-0.180912 0.982760 -0.038135
-0.137949 0.312043 -0.940000
-0.253200 0.176954 -0.951093
-0.398064 0.916481 -0.040099
-0.253200 0.176954 -0.951093
-0.796762 0.603210 -0.036172
-0.398064 0.916481 -0.040099
-0.253200 0.176954 -0.951093
-0.945018 0.325425 -0.032250
-0.796762 0.603210 -0.036172
-0.253200 0.176954 -0.951093
-0.282667 0.083136 -0.955609
-0.945018 0.325425 -0.032250
-0.282667 0.083136 -0.955609
-0.996241 0.081148 -0.030310
-0.945018 0.325425 -0.032250
-0.282667 0.083136 -0.955609
-0.278380 0.014651 -0.960359
-0.996241 0.081148 -0.030310
-0.278380 0.014651 -0.960359
-0.965843 -0.257345 -0.030335
-0.996241 0.081148 -0.030310
-0.278380 0.014651 -0.960359
-0.266886 -0.073320 -0.960935
-0.965843 -0.257345 -0.030335
-0.266886 -0.073320 -0.960935
-0.826318 -0.562279 -0.032270
-0.965843 -0.257345 -0.030335
-0.266886 -0.073320 -0.960935
-0.251339 -0.167202 -0.953348
-0.826318 -0.562279 -0.032270
-0.251339 -0.167202 -0.953348
-0.844196 -0.535061 -0.032279
-0.826318 -0.562279 -0.032270
-0.290394 -0.171089 -0.941488
-0.844196 -0.535061 -0.032279
-0.251339 -0.167202 -0.953348
-0.290394 -0.171089 -0.941488
-0.288629 -0.200557 -0.936200
-0.844196 -0.535061 -0.032279
-0.288629 -0.200557 -0.936200
-0.795884 -0.604483 -0.034177
-0.844196 -0.535061 -0.032279
-0.288629 -0.200557 -0.936200
-0.180722 -0.311614 -0.932864
-0.795884 -0.604483 -0.034177
-0.180722 -0.311614 -0.932864
-0.481396 -0.875911 -0.032226
-0.795884 -0.604483 -0.034177
-0.180722 -0.311614 -0.932864
-0.061571 -0.358723 -0.931411
-0.481396 -0.875911 -0.032226
-0.061571 -0.358723 -0.931411
-0.188483 -0.981481 -0.034181
-0.481396 -0.875911 -0.032226
-0.061571 -0.358723 -0.931411
0.059653 -0.347186 -0.935897
-0.188483 -0.981481 -0.034181
0.059653 -0.347186 -0.935897
0.122140 -0.991854 -0.036156
-0.188483 -0.981481 -0.034181
0.059653 -0.347186 -0.935897
0.550474 -0.834068 -0.036176
0.122140 -0.991854 -0.036156
0.059653 -0.347186 -0.935897
0.213909 -0.290108 -0.932781
0.550474 -0.834068 -0.036176
0.213909 -0.290108 -0.932781
0.335263 -0.941272 -0.040072
0.550474 -0.834068 -0.036176
0.130058 -0.315906 -0.939834
0.335263 -0.941272 -0.040072
0.213909 -0.290108 -0.932781
0.130058 -0.315906 -0.939834
0.044012 -0.321816 -0.945779
0.335263 -0.941272 -0.040072
0.044012 -0.321816 -0.945779
0.100706 -0.994328 -0.034218
0.335263 -0.941272 -0.040072
0.044012 -0.321816 -0.945779
0.159359 -0.241518 -0.957222
0.100706 -0.994328 -0.034218
0.159359 -0.241518 -0.957222
0.532825 -0.845682 -0.030306
0.100706 -0.994328 -0.034218
0.159359 -0.241518 -0.957222
0.196456 -0.196456 -0.960630
0.532825 -0.845682 -0.030306
0.196456 -0.196456 -0.960630
0.712663 -0.700933 -0.028347
0.532825 -0.845682 -0.030306
0.196456 -0.196456 -0.960630
0.241472 -0.120235 -0.962930
0.712663 -0.700933 -0.028347
0.241472 -0.120235 -0.962930
0.910012 -0.413473 -0.030301
0.712663 -0.700933 -0.028347
0.241472 -0.120235 -0.962930
0.999476 0.002932 -0.032239
0.910012 -0.413473 -0.030301
0.241472 -0.120235 -0.962930
0.290300 -0.008798 -0.956895
0.999476 0.002932 -0.032239
0.290300 -0.008798 -0.956895
0.998751 0.038151 -0.032279
0.999476 0.002932 -0.032239
0.303890 0.006840 -0.952683
0.998751 0.038151 -0.032279
0.290300 -0.008798 -0.956895
0.303890 0.006840 -0.952683
0.297974 0.020516 -0.954354
0.998751 0.038151 -0.032279
0.297974 0.020516 -0.954354
0.997073 0.069333 -0.032225
0.998751 0.038151 -0.032279
0.297974 0.020516 -0.954354
0.266885 0.114369 -0.956918
0.997073 0.069333 -0.032225
0.297974 0.020516 -0.954354
0.004888 -0.000978 -0.999988
0.266885 0.114369 -0.956918
0.303890 0.006840 -0.952683
0.004888 -0.000978 -0.999988
0.297974 0.020516 -0.954354
0.290300 -0.008798 -0.956895
0.004888 -0.000978 -0.999988
0.303890 0.006840 -0.952683
0.241472 -0.120235 -0.962930
0.004888 -0.000978 -0.999988
0.290300 -0.008798 -0.956895
0.196456 -0.196456 -0.960630
0.004888 -0.000978 -0.999988
0.241472 -0.120235 -0.962930
0.159359 -0.241518 -0.957222
0.004888 -0.000978 -0.999988
0.196456 -0.196456 -0.960630
0.044012 -0.321816 -0.945779
0.004888 -0.000978 -0.999988
0.159359 -0.241518 -0.957222
0.130058 -0.315906 -0.939834
0.004888 -0.000978 -0.999988
0.044012 -0.321816 -0.945779
0.213909 -0.290108 -0.932781
0.004888 -0.000978 -0.999988
0.130058 -0.315906 -0.939834
0.059653 -0.347186 -0.935897
0.004888 -0.000978 -0.999988
0.213909 -0.290108 -0.932781
-0.061571 -0.358723 -0.931411
0.004888 -0.000978 -0.999988
0.059653 -0.347186 -0.935897
-0.180722 -0.311614 -0.932864
0.004888 -0.000978 -0.999988
-0.061571 -0.358723 -0.931411
-0.288629 -0.200557 -0.936200
0.004888 -0.000978 -0.999988
-0.180722 -0.311614 -0.932864
-0.290394 -0.171089 -0.941488
0.004888 -0.000978 -0.999988
-0.288629 -0.200557 -0.936200
-0.251339 -0.167202 -0.953348
0.004888 -0.000978 -0.999988
-0.290394 -0.171089 -0.941488
-0.266886 -0.073320 -0.960935
0.004888 -0.000978 -0.999988
-0.251339 -0.167202 -0.953348
-0.278380 0.014651 -0.960359
0.004888 -0.000978 -0.999988
-0.266886 -0.073320 -0.960935
-0.282667 0.083136 -0.955609
0.004888 -0.000978 -0.999988
-0.278380 0.014651 -0.960359
-0.253200 0.176954 -0.951093
0.004888 -0.000978 -0.999988
-0.282667 0.083136 -0.955609
-0.137949 0.312043 -0.940000
0.004888 -0.000978 -0.999988
-0.253200 0.176954 -0.951093
-0.063563 0.368454 -0.927470
0.004888 -0.000978 -0.999988
-0.137949 0.312043 -0.940000
-0.073338 0.345137 -0.935683
0.004888 -0.000978 -0.999988
-0.063563 0.368454 -0.927470
-0.061560 0.327349 -0.942896
0.004888 -0.000978 -0.999988
-0.073338 0.345137 -0.935683
0.012708 0.302123 -0.953184
0.004888 -0.000978 -0.999988
-0.061560 0.327349 -0.942896
0.143600 0.247145 -0.958279
0.004888 -0.000978 -0.999988
0.012708 0.302123 -0.953184
0.202321 0.217914 -0.954767
0.004888 -0.000978 -0.999988
0.143600 0.247145 -0.958279
0.221967 0.194644 -0.955429
0.004888 -0.000978 -0.999988
0.202321 0.217914 -0.954767
0.266885 0.114369 -0.956918
0.004888 -0.000978 -0.999988
0.221967 0.194644 -0.955429
0.550474 -0.834068 -0.036176
0.047850 -0.377890 0.924613
0.122140 -0.991854 -0.036156
0.047850 -0.377890 0.924613
-0.188483 -0.981481 -0.034181
0.122140 -0.991854 -0.036156
0.047850 -0.377890 0.924613
-0.079119 -0.385858 0.919159
-0.188483 -0.981481 -0.034181
-0.079119 -0.385858 0.919159
-0.481396 -0.875911 -0.032226
-0.188483 -0.981481 -0.034181
-0.079119 -0.385858 0.919159
-0.196288 -0.336882 0.920859
-0.481396 -0.875911 -0.032226
-0.196288 -0.336882 0.920859
-0.795884 -0.604483 -0.034177
-0.481396 -0.875911 -0.032226
-0.196288 -0.336882 0.920859
-0.311999 -0.220016 0.924256
-0.795884 -0.604483 -0.034177
-0.311999 -0.220016 0.924256
-0.844196 -0.535061 -0.032279
-0.795884 -0.604483 -0.034177
-0.313618 -0.186588 0.931037
-0.844196 -0.535061 -0.032279
-0.311999 -0.220016 0.924256
-0.313618 -0.186588 0.931037
-0.276660 -0.182818 0.943418
-0.844196 -0.535061 -0.032279
-0.276660 -0.182818 0.943418
-0.826318 -0.562279 -0.032270
-0.844196 -0.535061 -0.032279
-0.276660 -0.182818 0.943418
-0.294019 -0.081069 0.952355
-0.826318 -0.562279 -0.032270
-0.294019 -0.081069 0.952355
-0.965843 -0.257345 -0.030335
-0.826318 -0.562279 -0.032270
-0.294019 -0.081069 0.952355
-0.307947 0.016618 0.951258
-0.965843 -0.257345 -0.030335
-0.307947 0.016618 0.951258
-0.996241 0.081148 -0.030310
-0.965843 -0.257345 -0.030335
-0.307947 0.016618 0.951258
-0.311899 0.094819 0.945372
-0.996241 0.081148 -0.030310
-0.311899 0.094819 0.945372
-0.945018 0.325425 -0.032250
-0.996241 0.081148 -0.030310
-0.311899 0.094819 0.945372
-0.280570 0.196504 0.939503
-0.945018 0.325425 -0.032250
-0.280570 0.196504 0.939503
-0.796762 0.603210 -0.036172
-0.945018 0.325425 -0.032250
-0.280570 0.196504 0.939503
-0.398064 0.916481 -0.040099
-0.796762 0.603210 -0.036172
-0.280570 0.196504 0.939503
-0.153495 0.339320 0.928063
-0.398064 0.916481 -0.040099
-0.153495 0.339320 0.928063
-0.180912 0.982760 -0.038135
-0.398064 0.916481 -0.040099
-0.153495 0.339320 0.928063
-0.069427 0.403831 0.912196
-0.180912 0.982760 -0.038135
-0.069427 0.403831 0.912196
-0.235701 0.971223 -0.034234
-0.180912 0.982760 -0.038135
-0.081062 0.376082 0.923034
-0.235701 0.971223 -0.034234
-0.069427 0.403831 0.912196
-0.081062 0.376082 0.923034
-0.069404 0.356820 0.931591
-0.235701 0.971223 -0.034234
-0.069404 0.356820 0.931591
-0.208011 0.977595 -0.032228
-0.235701 0.971223 -0.034234
-0.069404 0.356820 0.931591
0.012708 0.331446 0.943389
-0.208011 0.977595 -0.032228
0.012708 0.331446 0.943389
0.032281 0.998957 -0.032287
-0.208011 0.977595 -0.032228
0.012708 0.331446 0.943389
0.157451 0.270939 0.949632
0.032281 0.998957 -0.032287
0.157451 0.270939 0.949632
0.499801 0.865609 -0.030321
0.032281 0.998957 -0.032287
0.157451 0.270939 0.949632
0.684990 0.728001 -0.028337
0.499801 0.865609 -0.030321
0.221967 0.237655 0.945648
0.684990 0.728001 -0.028337
0.157451 0.270939 0.949632
0.221967 0.237655 0.945648
0.241421 0.212048 0.946970
0.684990 0.728001 -0.028337
0.241421 0.212048 0.946970
0.755782 0.654121 -0.030309
0.684990 0.728001 -0.028337
0.241421 0.212048 0.946970
0.294211 0.128032 0.947126
0.755782 0.654121 -0.030309
0.294211 0.128032 0.947126
0.920180 0.390163 -0.032266
0.755782 0.654121 -0.030309
0.294211 0.128032 0.947126
0.997073 0.069333 -0.032225
0.920180 0.390163 -0.032266
0.294211 0.128032 0.947126
0.327255 0.024426 0.944620
0.997073 0.069333 -0.032225
0.327255 0.024426 0.944620
0.998751 0.038151 -0.032279
0.997073 0.069333 -0.032225
0.333117 0.016609 0.942739
0.998751 0.038151 -0.032279
0.327255 0.024426 0.944620
0.333117 0.016609 0.942739
0.319766 0.004888 0.947484
0.998751 0.038151 -0.032279
0.319766 0.004888 0.947484
0.999476 0.002932 -0.032239
0.998751 0.038151 -0.032279
0.319766 0.004888 0.947484
0.269078 -0.118374 0.955816
0.999476 0.002932 -0.032239
0.269078 -0.118374 0.955816
0.910012 -0.413473 -0.030301
0.999476 0.002932 -0.032239
0.269078 -0.118374 0.955816
0.712663 -0.700933 -0.028347
0.910012 -0.413473 -0.030301
0.269078 -0.118374 0.955816
0.217725 -0.206043 0.954014
0.712663 -0.700933 -0.028347
0.217725 -0.206043 0.954014
0.532825 -0.845682 -0.030306
0.712663 -0.700933 -0.028347
0.217725 -0.206043 0.954014
0.170947 -0.258924 0.950650
0.532825 -0.845682 -0.030306
0.170947 -0.258924 0.950650
0.100706 -0.994328 -0.034218
0.532825 -0.845682 -0.030306
0.170947 -0.258924 0.950650
0.042033 -0.345137 0.937611
0.100706 -0.994328 -0.034218
0.042033 -0.345137 0.937611
0.335263 -0.941272 -0.040072
0.100706 -0.994328 -0.034218
0.128006 -0.341033 0.931295
0.335263 -0.941272 -0.040072
0.042033 -0.345137 0.937611
0.128006 -0.341033 0.931295
0.214062 -0.317713 0.923708
0.335263 -0.941272 -0.040072
0.214062 -0.317713 0.923708
0.550474 -0.834068 -0.036176
0.335263 -0.941272 -0.040072
0.214062 -0.317713 0.923708
0.047850 -0.377890 0.924613
0.550474 -0.834068 -0.036176
0.214062 -0.317713 0.923708
0.000978 0.002933 0.999995
0.047850 -0.377890 0.924613
0.128006 -0.341033 0.931295
0.000978 0.002933 0.999995
0.214062 -0.317713 0.923708
0.042033 -0.345137 0.937611
0.000978 0.002933 0.999995
0.128006 -0.341033 0.931295
0.170947 -0.258924 0.950650
0.000978 0.002933 0.999995
0.042033 -0.345137 0.937611
0.217725 -0.206043 0.954014
0.000978 0.002933 0.999995
0.170947 -0.258924 0.950650
0.269078 -0.118374 0.955816
0.000978 0.002933 0.999995
0.217725 -0.206043 0.954014
0.319766 0.004888 0.947484
0.000978 0.002933 0.999995
0.269078 -0.118374 0.955816
0.333117 0.016609 0.942739
0.000978 0.002933 0.999995
0.319766 0.004888 0.947484
0.327255 0.024426 0.944620
0.000978 0.002933 0.999995
0.333117 0.016609 0.942739
0.294211 0.128032 0.947126
0.000978 0.002933 0.999995
0.327255 0.024426 0.944620
0.241421 0.212048 0.946970
0.000978 0.002933 0.999995
0.294211 0.128032 0.947126
0.221967 0.237655 0.945648
0.000978 0.002933 0.999995
0.241421 0.212048 0.946970
0.157451 0.270939 0.949632
0.000978 0.002933 0.999995
0.221967 0.237655 0.945648
0.012708 0.331446 0.943389
0.000978 0.002933 0.999995
0.157451 0.270939 0.949632
-0.069404 0.356820 0.931591
0.000978 0.002933 0.999995
0.012708 0.331446 0.943389
-0.081062 0.376082 0.923034
0.000978 0.002933 0.999995
-0.069404 0.356820 0.931591
-0.069427 0.403831 0.912196
0.000978 0.002933 0.999995
-0.081062 0.376082 0.923034
-0.153495 0.339320 0.928063
0.000978 0.002933 0.999995
-0.069427 0.403831 0.912196
-0.280570 0.196504 0.939503
0.000978 0.002933 0.999995
-0.153495 0.339320 0.928063
-0.311899 0.094819 0.945372
0.000978 0.002933 0.999995
-0.280570 0.196504 0.939503
-0.307947 0.016618 0.951258
0.000978 0.002933 0.999995
-0.311899 0.094819 0.945372
-0.294019 -0.081069 0.952355
0.000978 0.002933 0.999995
-0.307947 0.016618 0.951258
-0.276660 -0.182818 0.943418
0.000978 0.002933 0.999995
-0.294019 -0.081069 0.952355
-0.313618 -0.186588 0.931037
0.000978 0.002933 0.999995
-0.276660 -0.182818 0.943418
-0.311999 -0.220016 0.924256
0.000978 0.002933 0.999995
-0.313618 -0.186588 0.931037
-0.196288 -0.336882 0.920859
0.000978 0.002933 0.999995
-0.311999 -0.220016 0.924256
-0.079119 -0.385858 0.919159
0.000978 0.002933 0.999995
-0.196288 -0.336882 0.920859
0.047850 -0.377890 0.924613
0.000978 0.002933 0.999995
-0.079119 -0.385858 0.919159
</float_array>
          <technique_common>
            <accessor source="#SM_Sand_Dollar_05_LOD0-Normal0-array" count="504" stride="3">
              <param name="X" type="float"/>
              <param name="Y" type="float"/>
              <param name="Z" type="float"/>
            </accessor>
          </technique_common>
        </source>
        <source id="SM_Sand_Dollar_05_LOD0-UV0">
          <float_array id="SM_Sand_Dollar_05_LOD0-UV0-array" count="228">
0.388428 0.806152
0.385010 0.804688
0.391602 0.792114
0.380371 0.818481
0.377441 0.816406
0.368408 0.829102
0.365967 0.826538
0.353760 0.838867
0.355469 0.842163
0.339844 0.846191
0.338867 0.842773
0.319580 0.842529
0.319824 0.839233
0.306885 0.839233
0.307617 0.836182
0.286133 0.830811
0.284180 0.833618
0.272461 0.828979
0.269775 0.831665
0.261963 0.819946
0.258789 0.822144
0.253174 0.810425
0.256592 0.808838
0.249390 0.794189
0.252930 0.793335
0.250244 0.775757
0.253906 0.775879
0.257080 0.761963
0.260254 0.762817
0.274658 0.742188
0.277100 0.744141
0.281982 0.733398
0.280029 0.730957
0.297363 0.720947
0.296143 0.717773
0.312500 0.716064
0.312012 0.712891
0.332275 0.714844
0.333008 0.711426
0.338623 0.713135
0.337646 0.716309
0.345703 0.720703
0.344482 0.723877
0.358398 0.721436
0.360352 0.718506
0.366455 0.724854
0.368896 0.722168
0.377686 0.734619
0.380615 0.732178
0.386719 0.745361
0.390137 0.743652
0.393555 0.763672
0.389893 0.764526
0.390625 0.780762
0.387207 0.780640
0.387939 0.791382
0.327148 0.778076
0.333008 0.711426
0.332275 0.714844
0.338623 0.713135
0.312012 0.712891
0.312500 0.716064
0.296143 0.717773
0.297363 0.720947
0.280029 0.730957
0.281982 0.733398
0.274658 0.742188
0.277100 0.744141
0.260254 0.762817
0.257080 0.761963
0.253906 0.775879
0.250244 0.775757
0.252930 0.793335
0.249390 0.794189
0.256592 0.808838
0.253174 0.810425
0.261963 0.819946
0.258789 0.822144
0.269775 0.831665
0.272461 0.828979
0.284180 0.833618
0.286133 0.830811
0.306885 0.839233
0.307617 0.836182
0.319824 0.839233
0.319580 0.842529
0.338867 0.842773
0.339844 0.846191
0.353760 0.838867
0.355469 0.842163
0.368408 0.829102
0.365967 0.826538
0.377441 0.816406
0.380371 0.818481
0.385010 0.804688
0.388428 0.806152
0.391602 0.792114
0.387939 0.791382
0.390625 0.780762
0.387207 0.780640
0.389893 0.764526
0.393555 0.763672
0.386719 0.745361
0.390137 0.743652
0.380615 0.732178
0.377686 0.734619
0.368896 0.722168
0.366455 0.724854
0.360352 0.718506
0.358398 0.721436
0.345703 0.720703
0.344482 0.723877
0.337646 0.716309
0.327148 0.778076
</float_array>
          <technique_common>
            <accessor source="#SM_Sand_Dollar_05_LOD0-UV0-array" count="114" stride="2">
              <param name="S" type="float"/>
              <param name="T" type="float"/>
            </accessor>
          </technique_common>
        </source>
        <vertices id="SM_Sand_Dollar_05_LOD0-VERTEX">
          <input semantic="POSITION" source="#SM_Sand_Dollar_05_LOD0-POSITION"/>
        </vertices>
        <triangles count="168" material="MAT_Sea_Shells">
          <input semantic="VERTEX" offset="0" source="#SM_Sand_Dollar_05_LOD0-VERTEX"/>
          <input semantic="NORMAL" offset="1" source="#SM_Sand_Dollar_05_LOD0-Normal0"/>
          <input semantic="TEXCOORD" offset="2" set="0" source="#SM_Sand_Dollar_05_LOD0-UV0"/>
          <p> 33 0 2 0 1 1 1 2 0 0 3 1 2 4 3 1 5 0 0 6 1 46 7 4 2 8 3 46 9 4 3 10 5 2 11 3 4 12 6 3 13 5 46 14 4 4 15 6 45 16 7 3 17 5 45 18 7 5 19 8 3 20 5 45 21 7 6 22 9 5 23 8 45 24 7 44 25 10 6 26 9 44 27 10 7 28 11 6 29 9 44 30 10 43 31 12 7 32 11 43 33 12 59 34 13 7 35 11 8 36 14 59 37 13 43 38 12 8 39 14 42 40 15 59 41 13 42 42 15 9 43 16 59 44 13 42 45 15 11 46 17 9 47 16 11 48 17 10 49 18 9 50 16 11 51 17 12 52 19 10 53 18 12 54 19 57 55 20 10 56 18 12 57 19 13 58 21 57 59 20 12 60 19 14 61 22 13 62 21 14 63 22 15 64 23 13 65 21 14 66 22 17 67 24 15 68 23 17 69 24 16 70 25 15 71 23 17 72 24 18 73 26 16 74 25 18 75 26 52 76 27 16 77 25 18 78 26 40 79 28 52 80 27 40 81 28 19 82 29 52 83 27 39 84 30 19 85 29 40 86 28 39 87 30 38 88 31 19 89 29 38 90 31 20 91 32 19 92 29 38 93 31 22 94 33 20 95 32 22 96 33 21 97 34 20 98 32 22 99 33 37 100 35 21 101 34 37 102 35 47 103 36 21 104 34 37 105 35 24 106 37 47 107 36 24 108 37 23 109 38 47 110 36 24 111 37 25 112 39 23 113 38 24 114 37 26 115 40 25 116 39 26 117 40 73 118 41 25 119 39 36 120 42 73 121 41 26 122 40 36 123 42 35 124 43 73 125 41 35 126 43 71 127 44 73 128 41 35 129 43 34 130 45 71 131 44 34 132 45 70 133 46 71 134 44 34 135 45 27 136 47 70 137 46 27 138 47 29 139 48 70 140 46 27 141 47 28 142 49 29 143 48 28 144 49 69 145 50 29 146 48 28 147 49 68 148 51 69 149 50 28 150 49 30 151 52 68 152 51 30 153 52 66 154 53 68 155 51 32 156 54 66 157 53 30 158 52 32 159 54 31 160 55 66 161 53 31 162 55 33 163 2 66 164 53 31 165 55 0 166 1 33 167 2 31 168 55 41 169 56 0 170 1 32 171 54 41 172 56 31 173 55 30 174 52 41 175 56 32 176 54 28 177 49 41 178 56 30 179 52 27 180 47 41 181 56 28 182 49 34 183 45 41 184 56 27 185 47 35 186 43 41 187 56 34 188 45 36 189 42 41 190 56 35 191 43 26 192 40 41 193 56 36 194 42 24 195 37 41 196 56 26 197 40 37 198 35 41 199 56 24 200 37 22 201 33 41 202 56 37 203 35 38 204 31 41 205 56 22 206 33 39 207 30 41 208 56 38 209 31 40 210 28 41 211 56 39 212 30 18 213 26 41 214 56 40 215 28 17 216 24 41 217 56 18 218 26 14 219 22 41 220 56 17 221 24 12 222 19 41 223 56 14 224 22 11 225 17 41 226 56 12 227 19 42 228 15 41 229 56 11 230 17 8 231 14 41 232 56 42 233 15 43 234 12 41 235 56 8 236 14 44 237 10 41 238 56 43 239 12 45 240 7 41 241 56 44 242 10 4 243 6 41 244 56 45 245 7 46 246 4 41 247 56 4 248 6 0 249 1 41 250 56 46 251 4 25 252 59 48 253 58 23 254 57 48 255 58 47 256 60 23 257 57 48 258 58 85 259 61 47 260 60 85 261 61 21 262 62 47 263 60 85 264 61 49 265 63 21 266 62 49 267 63 20 268 64 21 269 62 49 270 63 50 271 65 20 272 64 50 273 65 19 274 66 20 275 64 84 276 67 19 277 66 50 278 65 84 279 67 51 280 68 19 281 66 51 282 68 52 283 69 19 284 66 51 285 68 53 286 70 52 287 69 53 288 70 16 289 71 52 290 69 53 291 70 54 292 72 16 293 71 54 294 72 15 295 73 16 296 71 54 297 72 56 298 74 15 299 73 56 300 74 13 301 75 15 302 73 56 303 74 55 304 76 13 305 75 55 306 76 57 307 77 13 308 75 55 309 76 10 310 78 57 311 77 55 312 76 58 313 79 10 314 78 58 315 79 9 316 80 10 317 78 58 318 79 83 319 81 9 320 80 83 321 81 59 322 82 9 323 80 60 324 83 59 325 82 83 326 81 60 327 83 62 328 84 59 329 82 62 330 84 7 331 85 59 332 82 62 333 84 61 334 86 7 335 85 61 336 86 6 337 87 7 338 85 61 339 86 81 340 88 6 341 87 81 342 88 5 343 89 6 344 87 81 345 88 3 346 90 5 347 89 63 348 91 3 349 90 81 350 88 63 351 91 64 352 92 3 353 90 64 354 92 2 355 93 3 356 90 64 357 92 65 358 94 2 359 93 65 360 94 1 361 95 2 362 93 65 363 94 33 364 96 1 365 95 65 366 94 80 367 97 33 368 96 80 369 97 66 370 98 33 371 96 67 372 99 66 373 98 80 374 97 67 375 99 79 376 100 66 377 98 79 378 100 68 379 101 66 380 98 79 381 100 78 382 102 68 383 101 78 384 102 69 385 103 68 386 101 78 387 102 29 388 104 69 389 103 78 390 102 77 391 105 29 392 104 77 393 105 70 394 106 29 395 104 77 396 105 76 397 107 70 398 106 76 399 107 71 400 108 70 401 106 76 402 107 75 403 109 71 404 108 75 405 109 73 406 110 71 407 108 72 408 111 73 409 110 75 410 109 72 411 111 74 412 112 73 413 110 74 414 112 25 415 59 73 416 110 74 417 112 48 418 58 25 419 59 74 420 112 82 421 113 48 422 58 72 423 111 82 424 113 74 425 112 75 426 109 82 427 113 72 428 111 76 429 107 82 430 113 75 431 109 77 432 105 82 433 113 76 434 107 78 435 102 82 436 113 77 437 105 79 438 100 82 439 113 78 440 102 67 441 99 82 442 113 79 443 100 80 444 97 82 445 113 67 446 99 65 447 94 82 448 113 80 449 97 64 450 92 82 451 113 65 452 94 63 453 91 82 454 113 64 455 92 81 456 88 82 457 113 63 458 91 61 459 86 82 460 113 81 461 88 62 462 84 82 463 113 61 464 86 60 465 83 82 466 113 62 467 84 83 468 81 82 469 113 60 470 83 58 471 79 82 472 113 83 473 81 55 474 76 82 475 113 58 476 79 56 477 74 82 478 113 55 479 76 54 480 72 82 481 113 56 482 74 53 483 70 82 484 113 54 485 72 51 486 68 82 487 113 53 488 70 84 489 67 82 490 113 51 491 68 50 492 65 82 493 113 84 494 67 49 495 63 82 496 113 50 497 65 85 498 61 82 499 113 49 500 63 48 501 58 82 502 113 85 503 61</p>
        </triangles>
      </mesh>
    </geometry>
    <geometry id="SM_Sand_Dollar_05_LOD1-lib" name="SM_Sand_Dollar_05_LOD1Mesh">
      <mesh>
        <source id="SM_Sand_Dollar_05_LOD1-POSITION">
          <float_array id="SM_Sand_Dollar_05_LOD1-POSITION-array" count="105">
-5.568230 5.717133 0.353942
-2.723038 -6.582123 0.353476
7.570313 1.243073 0.359290
1.911713 7.271057 0.359305
4.211014 -6.526672 0.401470
-7.680611 -0.323547 0.361276
7.435516 -3.802399 0.389518
-4.476135 -5.161743 0.356725
1.619911 -7.172577 0.381732
6.376343 4.289063 0.358919
-7.786049 1.662720 0.360007
1.558037 -6.792969 0.754667
-5.190178 5.383179 0.017263
7.786057 -1.623749 0.371185
-6.754791 4.685272 0.355180
2.624489 -6.263763 0.393768
3.673340 6.846130 0.359251
-1.017921 -7.131989 0.358989
-6.952980 -1.811646 0.361276
7.240593 2.957458 0.358532
-5.035027 -3.946930 0.358986
-5.775558 4.988190 0.733522
5.138435 -6.128906 0.403280
-2.237236 -6.351166 0.751010
-4.411758 -4.527924 0.683218
2.730476 6.688538 0.654315
7.295471 -0.218628 0.672963
-6.882111 -1.123596 0.626323
1.552734 -6.794617 0.060072
4.177879 -6.107880 0.712457
-2.217621 -6.357483 0.006365
2.484612 -5.927185 0.739944
6.716934 3.030975 0.663126
7.297592 -0.251160 0.096756
-7.370316 3.425812 0.357056
</float_array>
          <technique_common>
            <accessor source="#SM_Sand_Dollar_05_LOD1-POSITION-array" count="35" stride="3">
              <param name="X" type="float"/>
              <param name="Y" type="float"/>
              <param name="Z" type="float"/>
            </accessor>
          </technique_common>
        </source>
        <source id="SM_Sand_Dollar_05_LOD1-Normal0">
          <float_array id="SM_Sand_Dollar_05_LOD1-Normal0-array" count="594">
0.116317 -0.958200 -0.261387
-0.145427 0.307409 -0.940399
0.800090 -0.598492 -0.040791
-0.227149 0.273487 0.934670
0.104568 -0.252749 0.961864
0.086285 0.320704 0.943241
0.086285 0.320704 0.943241
0.104568 -0.252749 0.961864
0.295033 0.153784 0.943030
0.899179 0.379437 -0.217954
-0.145427 0.307409 -0.940399
0.573041 0.804441 -0.156520
-0.332017 -0.199021 0.922039
0.104568 -0.252749 0.961864
-0.135806 0.126162 0.982670
-0.151144 -0.335302 -0.929908
-0.145427 0.307409 -0.940399
0.209611 -0.318951 -0.924302
-0.997302 -0.029605 -0.067169
0.104568 -0.252749 0.961864
-0.227149 0.273487 0.934670
-0.778922 -0.592463 -0.205589
-0.145427 0.307409 -0.940399
-0.757817 -0.470651 -0.451886
0.333479 0.016735 0.942609
0.104568 -0.252749 0.961864
0.800090 -0.598492 -0.040791
0.273817 0.003414 -0.961776
-0.145427 0.307409 -0.940399
0.899179 0.379437 -0.217954
-0.163071 -0.359097 0.918943
0.104568 -0.252749 0.961864
-0.332017 -0.199021 0.922039
-0.757817 -0.470651 -0.451886
-0.145427 0.307409 -0.940399
-0.151144 -0.335302 -0.929908
0.800090 -0.598492 -0.040791
0.104568 -0.252749 0.961864
0.071284 -0.309413 0.948252
0.417600 -0.796313 -0.437603
-0.145427 0.307409 -0.940399
0.116317 -0.958200 -0.261387
0.295033 0.153784 0.943030
0.104568 -0.252749 0.961864
0.333479 0.016735 0.942609
0.273817 0.003414 -0.961776
0.899179 0.379437 -0.217954
0.984510 0.170114 -0.042450
-0.997302 -0.029605 -0.067169
-0.227149 0.273487 0.934670
-0.998717 -0.035207 -0.036401
-0.998717 -0.035207 -0.036401
-0.145427 0.307409 -0.940399
-0.778922 -0.592463 -0.205589
0.104568 -0.252749 0.961864
0.417600 -0.796313 -0.437603
0.071284 -0.309413 0.948252
0.172998 -0.411800 0.894702
-0.129925 -0.990950 -0.033724
0.327446 -0.944360 -0.031053
-0.862369 0.495659 -0.103162
-0.145427 0.307409 -0.940399
-0.998717 -0.035207 -0.036401
-0.145427 0.307409 -0.940399
-0.427054 0.903898 0.024354
-0.024111 0.989407 -0.143148
0.800090 -0.598492 -0.040791
-0.145427 0.307409 -0.940399
0.273817 0.003414 -0.961776
0.333479 0.016735 0.942609
0.800090 -0.598492 -0.040791
0.992272 -0.120849 -0.028133
-0.145427 0.307409 -0.940399
-0.862369 0.495659 -0.103162
-0.427054 0.903898 0.024354
-0.227149 0.273487 0.934670
-0.951980 0.265136 -0.153091
-0.998717 -0.035207 -0.036401
0.209611 -0.318951 -0.924302
-0.145427 0.307409 -0.940399
0.417600 -0.796313 -0.437603
0.172998 -0.411800 0.894702
0.327446 -0.944360 -0.031053
0.417600 -0.796313 -0.437603
0.573041 0.804441 -0.156520
-0.145427 0.307409 -0.940399
-0.024111 0.989407 -0.143148
0.086285 0.320704 0.943241
-0.024111 0.989407 -0.143148
-0.227149 0.273487 0.934670
-0.163071 -0.359097 0.918943
-0.778825 -0.604951 -0.165728
-0.522448 -0.851968 -0.034632
-0.151144 -0.335302 -0.929908
0.209611 -0.318951 -0.924302
-0.129925 -0.990950 -0.033724
-0.135806 0.126162 0.982670
-0.778922 -0.592463 -0.205589
-0.757817 -0.470651 -0.451886
-0.998717 -0.035207 -0.036401
-0.778922 -0.592463 -0.205589
-0.997302 -0.029605 -0.067169
0.295033 0.153784 0.943030
0.984510 0.170114 -0.042450
0.899179 0.379437 -0.217954
0.899179 0.379437 -0.217954
0.573041 0.804441 -0.156520
0.693955 0.691198 -0.201671
-0.163071 -0.359097 0.918943
-0.332017 -0.199021 0.922039
-0.778825 -0.604951 -0.165728
-0.757817 -0.470651 -0.451886
-0.151144 -0.335302 -0.929908
-0.778825 -0.604951 -0.165728
-0.227149 0.273487 0.934670
-0.024111 0.989407 -0.143148
-0.427054 0.903898 0.024354
-0.227149 0.273487 0.934670
-0.427054 0.903898 0.024354
-0.862369 0.495659 -0.103162
0.116317 -0.958200 -0.261387
0.800090 -0.598492 -0.040791
0.626565 -0.755002 -0.193358
0.071284 -0.309413 0.948252
0.417600 -0.796313 -0.437603
0.116317 -0.958200 -0.261387
0.172998 -0.411800 0.894702
-0.163071 -0.359097 0.918943
-0.129925 -0.990950 -0.033724
-0.163071 -0.359097 0.918943
-0.522448 -0.851968 -0.034632
-0.129925 -0.990950 -0.033724
-0.332017 -0.199021 0.922039
-0.757817 -0.470651 -0.451886
-0.778825 -0.604951 -0.165728
-0.332017 -0.199021 0.922039
-0.135806 0.126162 0.982670
-0.757817 -0.470651 -0.451886
0.086285 0.320704 0.943241
0.573041 0.804441 -0.156520
-0.024111 0.989407 -0.143148
0.086285 0.320704 0.943241
0.693955 0.691198 -0.201671
0.573041 0.804441 -0.156520
0.333479 0.016735 0.942609
0.992272 -0.120849 -0.028133
0.984510 0.170114 -0.042450
0.295033 0.153784 0.943030
0.333479 0.016735 0.942609
0.984510 0.170114 -0.042450
-0.135806 0.126162 0.982670
-0.997302 -0.029605 -0.067169
-0.778922 -0.592463 -0.205589
-0.135806 0.126162 0.982670
0.104568 -0.252749 0.961864
-0.997302 -0.029605 -0.067169
0.209611 -0.318951 -0.924302
0.417600 -0.796313 -0.437603
0.327446 -0.944360 -0.031053
0.209611 -0.318951 -0.924302
0.327446 -0.944360 -0.031053
-0.129925 -0.990950 -0.033724
0.071284 -0.309413 0.948252
0.116317 -0.958200 -0.261387
0.626565 -0.755002 -0.193358
0.071284 -0.309413 0.948252
0.626565 -0.755002 -0.193358
0.800090 -0.598492 -0.040791
-0.151144 -0.335302 -0.929908
-0.522448 -0.851968 -0.034632
-0.778825 -0.604951 -0.165728
-0.151144 -0.335302 -0.929908
-0.129925 -0.990950 -0.033724
-0.522448 -0.851968 -0.034632
0.104568 -0.252749 0.961864
0.172998 -0.411800 0.894702
0.417600 -0.796313 -0.437603
0.172998 -0.411800 0.894702
0.104568 -0.252749 0.961864
-0.163071 -0.359097 0.918943
0.295033 0.153784 0.943030
0.693955 0.691198 -0.201671
0.086285 0.320704 0.943241
0.295033 0.153784 0.943030
0.899179 0.379437 -0.217954
0.693955 0.691198 -0.201671
0.800090 -0.598492 -0.040791
0.273817 0.003414 -0.961776
0.992272 -0.120849 -0.028133
0.273817 0.003414 -0.961776
0.984510 0.170114 -0.042450
0.992272 -0.120849 -0.028133
-0.862369 0.495659 -0.103162
-0.998717 -0.035207 -0.036401
-0.951980 0.265136 -0.153091
-0.227149 0.273487 0.934670
-0.862369 0.495659 -0.103162
-0.951980 0.265136 -0.153091
</float_array>
          <technique_common>
            <accessor source="#SM_Sand_Dollar_05_LOD1-Normal0-array" count="198" stride="3">
              <param name="X" type="float"/>
              <param name="Y" type="float"/>
              <param name="Z" type="float"/>
            </accessor>
          </technique_common>
        </source>
        <source id="SM_Sand_Dollar_05_LOD1-UV0">
          <float_array id="SM_Sand_Dollar_05_LOD1-UV0-array" count="110">
0.391446 0.790301
0.296143 0.717773
0.269775 0.831665
0.391446 0.790301
0.360352 0.718506
0.360352 0.718506
0.296143 0.717773
0.250244 0.775757
0.250244 0.775757
0.339029 0.846044
0.269775 0.831665
0.339029 0.846044
0.390137 0.743652
0.336412 0.712462
0.336412 0.712462
0.380371 0.818481
0.380371 0.818481
0.280029 0.730957
0.280029 0.730957
0.258789 0.822144
0.258789 0.822144
0.345703 0.720703
0.345703 0.720703
0.335739 0.715789
0.300771 0.719848
0.383648 0.806797
0.355469 0.842163
0.355469 0.842163
0.273285 0.828636
0.257581 0.768316
0.360099 0.722158
0.267826 0.824991
0.300587 0.719907
0.393555 0.763672
0.393555 0.763672
0.280432 0.736808
0.257080 0.761963
0.257080 0.761963
0.389004 0.776748
0.388428 0.806152
0.388428 0.806152
0.346702 0.840718
0.249390 0.794189
0.249390 0.794189
0.344449 0.723979
0.335690 0.715775
0.389026 0.776447
0.312012 0.712891
0.312012 0.712891
0.274658 0.742188
0.274658 0.742188
0.368896 0.722168
0.368896 0.722168
0.253174 0.810425
0.253174 0.810425
</float_array>
          <technique_common>
            <accessor source="#SM_Sand_Dollar_05_LOD1-UV0-array" count="55" stride="2">
              <param name="S" type="float"/>
              <param name="T" type="float"/>
            </accessor>
          </technique_common>
        </source>
        <vertices id="SM_Sand_Dollar_05_LOD1-VERTEX">
          <input semantic="POSITION" source="#SM_Sand_Dollar_05_LOD1-POSITION"/>
        </vertices>
        <triangles count="66" material="MAT_Sea_Shells">
          <input semantic="VERTEX" offset="0" source="#SM_Sand_Dollar_05_LOD1-VERTEX"/>
          <input semantic="NORMAL" offset="1" source="#SM_Sand_Dollar_05_LOD1-Normal0"/>
          <input semantic="TEXCOORD" offset="2" set="0" source="#SM_Sand_Dollar_05_LOD1-UV0"/>
          <p> 4 0 5 12 1 28 6 2 12 21 3 31 31 4 44 25 5 41 25 6 41 31 7 44 32 8 25 19 9 39 12 10 28 16 11 27 24 12 35 31 13 44 27 14 29 30 15 24 12 16 28 28 17 45 5 18 7 31 19 44 21 20 31 18 21 36 12 22 28 20 23 50 26 24 38 31 25 44 6 26 12 33 27 46 12 28 28 19 29 39 23 30 32 31 31 44 24 32 35 20 33 50 12 34 28 30 35 24 6 36 12 31 37 44 29 38 30 15 39 22 12 40 28 4 41 5 32 42 25 31 43 44 26 44 38 33 45 46 19 46 39 2 47 0 5 48 7 21 49 31 10 50 43 10 51 42 12 52 28 18 53 36 31 54 44 15 55 21 29 56 30 11 57 23 17 58 47 8 59 14 14 60 19 12 61 28 10 62 42 12 63 28 0 64 10 3 65 9 6 66 12 12 67 28 33 68 46 26 69 38 6 70 12 13 71 33 12 72 28 14 73 19 0 74 10 21 75 31 34 76 53 10 77 43 28 78 45 12 79 28 15 80 22 11 81 23 8 82 14 15 83 21 16 84 27 12 85 28 3 86 9 25 87 41 3 88 9 21 89 31 23 90 32 7 91 18 1 92 6 30 93 24 28 94 45 17 95 48 27 96 29 18 97 37 20 98 49 10 99 42 18 100 36 5 101 8 32 102 25 2 103 3 19 104 40 19 105 39 16 106 27 9 107 15 23 108 32 24 109 35 7 110 18 20 111 50 30 112 24 7 113 17 21 114 31 3 115 9 0 116 10 21 117 31 0 118 2 14 119 20 4 120 5 6 121 12 22 122 52 29 123 30 15 124 21 4 125 4 11 126 23 23 127 32 17 128 47 23 129 32 1 130 6 17 131 47 24 132 35 20 133 49 7 134 18 24 135 35 27 136 29 20 137 49 25 138 41 16 139 26 3 140 11 25 141 41 9 142 15 16 143 26 26 144 38 13 145 33 2 146 3 32 147 25 26 148 38 2 149 3 27 150 29 5 151 7 18 152 37 27 153 29 31 154 44 5 155 7 28 156 45 15 157 22 8 158 13 28 159 45 8 160 13 17 161 48 29 162 30 4 163 4 22 164 51 29 165 30 22 166 51 6 167 12 30 168 24 1 169 1 7 170 17 30 171 24 17 172 48 1 173 1 31 174 44 11 175 23 15 176 21 11 177 23 31 178 44 23 179 32 32 180 25 9 181 15 25 182 41 32 183 25 19 184 40 9 185 16 6 186 12 33 187 46 13 188 34 33 189 46 2 190 0 13 191 34 14 192 19 10 193 42 34 194 54 21 195 31 14 196 20 34 197 53</p>
        </triangles>
      </mesh>
    </geometry>
  </library_geometries>
  <library_visual_scenes>
    <visual_scene id="SM_Sand_Dollar_05" name="SM_Sand_Dollar_05">
      <node name="SM_Sand_Dollar_05_LOD0" id="SM_Sand_Dollar_05_LOD0" layer="shells" sid="SM_Sand_Dollar_05_LOD0">
        <matrix sid="matrix">1.000000 0.000000 0.000000 0.000000 0.000000 0.000000 1.000000 0.000000 0.000000 -1.000000 0.000000 0.000000 0.000000 0.000000 0.000000 1.000000</matrix>
        <instance_geometry url="#SM_Sand_Dollar_05_LOD0-lib">
          <bind_material>
            <technique_common>
              <instance_material symbol="MAT_Sea_Shells" target="#MAT_Sea_Shells"/>
            </technique_common>
          </bind_material>
        </instance_geometry>
        <extra>
          <technique profile="FCOLLADA">
            <visibility>1.000000</visibility>
          </technique>
        </extra>
      </node>
      <node name="SM_Sand_Dollar_05_LOD1" id="SM_Sand_Dollar_05_LOD1" layer="shells" sid="SM_Sand_Dollar_05_LOD1">
        <matrix sid="matrix">1.000000 0.000000 0.000000 0.000000 0.000000 0.000000 1.000000 0.000000 0.000000 -1.000000 0.000000 0.000000 0.000000 0.000000 0.000000 1.000000</matrix>
        <instance_geometry url="#SM_Sand_Dollar_05_LOD1-lib">
          <bind_material>
            <technique_common>
              <instance_material symbol="MAT_Sea_Shells" target="#MAT_Sea_Shells"/>
            </technique_common>
          </bind_material>
        </instance_geometry>
        <extra>
          <technique profile="FCOLLADA">
            <visibility>1.000000</visibility>
          </technique>
        </extra>
      </node>
      <extra>
        <technique profile="MAX3D">
          <frame_rate>30.000000</frame_rate>
        </technique>
        <technique profile="FCOLLADA">
          <start_time>0.000000</start_time>
          <end_time>3.333333</end_time>
        </technique>
      </extra>
    </visual_scene>
  </library_visual_scenes>
  <scene>
    <instance_visual_scene url="#SM_Sand_Dollar_05"/>
  </scene>
</COLLADA>
