<?xml version="1.0" encoding="utf-8"?>
<COLLADA xmlns="http://www.collada.org/2005/11/COLLADASchema" version="1.4.1">
  <asset>
    <contributor>
      <author/>
      <authoring_tool>FBX COLLADA exporter</authoring_tool>
      <comments/>
    </contributor>
    <created>2024-02-10T11:42:35Z</created>
    <keywords/>
    <modified>2024-02-10T11:42:35Z</modified>
    <revision/>
    <subject/>
    <title/>
    <unit meter="0.010000" name="centimeter"/>
    <up_axis>Y_UP</up_axis>
  </asset>
  <library_materials>
    <material id="MAT_Sea_Shells" name="MAT_Sea_Shells">
      <instance_effect url="#MAT_Sea_Shells-fx"/>
    </material>
  </library_materials>
  <library_effects>
    <effect id="MAT_Sea_Shells-fx" name="MAT_Sea_Shells">
      <profile_COMMON>
        <technique sid="standard">
          <phong>
            <emission>
              <color sid="emission">0.000000  0.000000 0.000000 1.000000</color>
            </emission>
            <ambient>
              <color sid="ambient">0.588235  0.588235 0.588235 1.000000</color>
            </ambient>
            <diffuse>
              <color sid="diffuse">0.588235  0.588235 0.588235 1.000000</color>
            </diffuse>
            <specular>
              <color sid="specular">0.000000  0.000000 0.000000 1.000000</color>
            </specular>
            <shininess>
              <float sid="shininess">2.000000</float>
            </shininess>
            <reflective>
              <color sid="reflective">0.000000  0.000000 0.000000 1.000000</color>
            </reflective>
            <reflectivity>
              <float sid="reflectivity">1.000000</float>
            </reflectivity>
            <transparent opaque="RGB_ZERO">
              <color sid="transparent">1.000000  1.000000 1.000000 1.000000</color>
            </transparent>
            <transparency>
              <float sid="transparency">0.000000</float>
            </transparency>
          </phong>
        </technique>
      </profile_COMMON>
    </effect>
  </library_effects>
  <library_geometries>
    <geometry id="SM_Seaslug_01_LOD0-lib" name="SM_Seaslug_01_LOD0Mesh">
      <mesh>
        <source id="SM_Seaslug_01_LOD0-POSITION">
          <float_array id="SM_Seaslug_01_LOD0-POSITION-array" count="594">
6.419403 22.969490 0.958080
10.718628 -18.053123 1.374601
10.668869 -22.519102 1.667898
10.236542 -19.057852 0.768244
10.499268 -22.818823 1.468086
9.860336 -20.685659 0.298691
8.695709 -21.939060 0.267492
9.800476 -23.726557 1.371400
9.271713 -24.076746 1.397180
5.277969 -23.174023 0.760963
8.422867 -24.439493 1.668936
3.865494 -23.405203 1.361283
3.453217 -23.704872 2.720236
-2.383598 -20.136393 1.488986
-2.709396 -20.667164 3.615079
-7.485069 -14.589815 4.381938
-10.543556 -0.180412 2.044258
-10.398445 8.010391 4.385268
-7.339233 13.685186 2.035867
-0.902695 22.387325 4.141193
-0.331833 22.189480 2.108242
3.850494 24.323948 1.632594
10.673096 -22.416254 2.186816
9.169266 -11.711296 1.516056
6.720093 -7.806975 1.946486
5.616180 -3.304409 4.394178
5.018585 -3.467677 2.044261
5.917038 5.752916 2.017980
8.659302 10.682379 4.364833
8.246750 11.002510 2.174800
11.017654 17.469086 2.878708
10.116470 13.098541 4.216719
10.720566 17.661272 4.725168
7.579742 8.115610 4.358630
7.000931 8.297483 6.551056
6.564865 5.702923 4.352807
5.319290 0.938310 4.379869
6.759232 -7.827912 6.494964
7.325073 -7.592419 4.221216
9.792130 -11.543933 3.652995
10.875412 -18.169403 4.038909
11.161423 -17.939743 2.743172
10.530914 -22.459805 2.653943
9.321426 -11.897447 5.762909
7.970367 -12.891041 7.834713
5.018585 -3.467678 6.722172
4.682098 0.894190 6.697943
2.804901 0.603369 9.117029
3.940125 5.799431 9.069904
5.953278 5.826359 6.663451
6.328964 11.406887 8.188551
8.115616 10.926472 6.431483
9.573578 13.325035 6.227579
9.848511 18.365086 5.871350
9.953537 21.803646 3.065035
9.703003 22.057285 3.502553
6.996979 20.788757 6.938212
9.345688 22.477322 3.802287
8.864456 22.957573 3.915972
8.320053 23.422264 3.798317
5.496689 22.153599 6.601719
7.824524 23.817837 3.499737
4.250961 23.350574 5.753403
7.522629 24.119976 3.043106
3.296051 24.457119 2.765622
3.456345 24.139080 4.397666
-0.623611 21.889515 6.157436
0.464767 20.773767 7.589972
2.192032 19.205141 8.713227
8.519913 19.455036 6.675664
8.280350 14.230087 7.659445
4.616058 12.947237 9.609177
6.425262 15.667381 8.741121
4.286575 17.413591 9.274210
2.113159 14.428562 10.342263
-4.301697 18.450872 6.635465
-4.869881 18.747627 4.337036
-7.356201 13.846790 6.715518
-7.964828 14.029736 4.361896
-9.764999 7.978624 6.790764
-10.543556 -0.180413 6.807212
-11.161438 -0.204316 4.401278
-9.488480 -7.430850 6.690526
-10.086143 -7.594135 4.401277
-2.231201 -20.322899 5.601703
3.697418 -23.466118 4.030229
4.543808 -22.850391 5.015741
8.245850 -24.310036 2.653943
8.858734 -23.680149 3.253682
8.784958 -19.724459 5.706496
10.253494 -22.651045 3.032806
10.041397 -18.790642 5.091338
7.296555 -20.822433 5.944592
5.134491 -8.500545 8.876965
2.697556 -9.546398 10.642330
0.100594 0.342101 10.881740
3.316589 -3.932673 9.123775
1.378189 6.403379 10.846437
5.097534 8.516350 8.642863
2.946991 9.574081 10.246947
0.769516 -4.628502 10.884149
5.942978 -14.371643 8.967438
5.809525 -21.922323 5.647598
1.159019 -17.863153 8.682417
3.550781 -16.117165 9.269415
-0.869423 -19.342384 7.339831
-6.935387 -14.294959 6.689211
-5.370972 -13.455535 9.118516
-0.167648 -10.853020 11.342874
-5.239525 -6.270054 10.884140
-2.234962 -5.449331 11.502514
-6.150459 -0.009979 10.884147
-3.042084 0.117016 11.502390
-5.125542 7.338804 10.858922
-1.849007 6.833321 11.471133
-2.947739 11.793076 10.417013
0.068344 10.521473 10.924168
-0.469101 15.992928 9.946881
-2.752930 17.487211 8.606395
-5.603737 13.109707 8.863432
-7.929008 7.814287 9.105048
-3.002113 -12.233677 10.823818
-7.786613 -6.965866 9.124008
-8.783905 -0.112088 9.125216
8.751968 -24.292582 1.469697
-0.406013 -19.909576 0.604834
-5.196190 -13.656938 0.961747
-6.928688 -14.296153 2.046506
-9.488510 -7.430810 2.044256
-7.786613 -6.965833 1.012588
-8.783905 -0.112086 1.012590
-9.736786 7.935509 2.026928
-7.881416 7.705832 0.992023
-4.358856 18.370447 2.045375
0.994789 21.318611 1.327810
7.654907 24.261932 1.949421
8.482544 23.596584 1.390400
9.057678 23.193073 1.312244
7.885773 21.665741 0.898384
9.521820 22.717243 1.395107
9.845917 22.263645 1.623041
10.676941 17.797213 1.684355
9.832748 13.591511 2.154139
7.045868 8.296495 2.093967
5.326431 8.694027 1.087820
4.058701 5.921946 0.972458
4.669678 0.868485 2.031668
3.316589 -3.932672 1.012589
8.437607 -13.462951 0.646539
7.545120 -16.332314 0.275675
5.637009 -18.607206 -0.000001
7.156128 -22.904064 0.326576
-2.299591 -13.092181 0.377927
-6.150406 -0.010005 0.631580
-5.092888 7.267761 0.606127
-5.554642 12.841568 1.014706
-2.801079 17.378633 1.038844
-0.474609 15.985191 0.692223
2.944443 19.976862 0.986864
4.974579 23.863834 1.199592
2.195770 14.497505 0.608062
5.098343 18.245895 0.869968
7.074966 16.335144 0.994851
9.123932 20.143799 0.974173
9.998154 18.690475 1.229193
8.765488 14.728914 1.342506
6.675232 11.643139 1.210555
-2.894562 11.622675 0.647843
-1.849007 6.833323 0.466399
-5.239510 -6.270028 0.631578
-2.234962 -5.449329 0.497791
2.758575 -19.814171 0.270894
3.704666 -10.791728 0.235616
0.884117 -12.137301 0.079614
0.769516 -4.628500 0.631579
0.085663 0.298927 0.630106
-3.043983 0.110465 0.497792
1.039742 5.898935 0.604887
2.565521 9.108135 0.702242
0.110794 10.546814 0.535042
4.188797 12.522123 0.805820
2.824646 0.650504 1.004785
5.534775 -9.043859 0.810286
8.456268 -24.030697 3.032806
9.390213 -23.324224 3.315241
9.866989 -22.957413 3.253682
9.682571 -23.679787 1.844643
10.212448 -23.266867 1.396486
8.239487 -24.457117 2.183609
7.482819 24.298962 2.467309
8.005051 24.006485 1.601044
10.031052 21.920803 1.997769
10.071564 21.758465 2.505830
9.647369 22.529072 1.976213
9.398193 22.873661 1.965226
9.141403 23.138912 1.959270
8.808838 23.371914 1.958156
8.399094 23.709244 1.953783
</float_array>
          <technique_common>
            <accessor source="#SM_Seaslug_01_LOD0-POSITION-array" count="198" stride="3">
              <param name="X" type="float"/>
              <param name="Y" type="float"/>
              <param name="Z" type="float"/>
            </accessor>
          </technique_common>
        </source>
        <source id="SM_Seaslug_01_LOD0-Normal0">
          <float_array id="SM_Seaslug_01_LOD0-Normal0-array" count="3528">
0.030297 0.216188 -0.975882
0.020320 0.020460 -0.999584
-0.053439 0.087106 -0.994765
0.030297 0.216188 -0.975882
0.094207 0.085750 -0.991853
0.020320 0.020460 -0.999584
0.937447 -0.288517 -0.194808
0.621760 0.072312 -0.779862
0.836971 0.108044 -0.536476
0.846630 -0.433094 -0.309269
0.621760 0.072312 -0.779862
0.937447 -0.288517 -0.194808
0.846630 -0.433094 -0.309269
0.497365 -0.056049 -0.865729
0.621760 0.072312 -0.779862
0.765689 -0.554509 -0.325945
0.497365 -0.056049 -0.865729
0.846630 -0.433094 -0.309269
0.765689 -0.554509 -0.325945
0.182479 -0.221797 -0.957866
0.497365 -0.056049 -0.865729
0.597470 -0.691141 -0.406636
0.182479 -0.221797 -0.957866
0.765689 -0.554509 -0.325945
0.407599 -0.843525 -0.349755
0.182479 -0.221797 -0.957866
0.597470 -0.691141 -0.406636
0.407599 -0.843525 -0.349755
-0.006005 -0.399360 -0.916774
0.182479 -0.221797 -0.957866
0.269991 -0.882938 -0.384091
-0.006005 -0.399360 -0.916774
0.407599 -0.843525 -0.349755
0.269991 -0.882938 -0.384091
-0.161398 -0.549692 -0.819627
-0.006005 -0.399360 -0.916774
0.141267 -0.985247 0.096603
-0.317994 -0.947777 -0.024458
-0.296855 -0.787508 -0.540101
-0.296855 -0.787508 -0.540101
0.123071 -0.957754 -0.259924
0.141267 -0.985247 0.096603
-0.317994 -0.947777 -0.024458
-0.631741 -0.775172 -0.003377
-0.551131 -0.577071 -0.602697
-0.551131 -0.577071 -0.602697
-0.296855 -0.787508 -0.540101
-0.317994 -0.947777 -0.024458
-0.871057 -0.491095 0.009245
-0.551131 -0.577071 -0.602697
-0.631741 -0.775172 -0.003377
-0.551131 -0.577071 -0.602697
-0.871057 -0.491095 0.009245
-0.715337 -0.374747 -0.589795
-0.780042 -0.199660 -0.593018
-0.715337 -0.374747 -0.589795
-0.968758 -0.247989 0.003089
-0.871057 -0.491095 0.009245
-0.968758 -0.247989 0.003089
-0.715337 -0.374747 -0.589795
-0.803448 -0.019359 -0.595060
-0.780042 -0.199660 -0.593018
-0.999646 -0.026267 -0.004295
-0.968758 -0.247989 0.003089
-0.999646 -0.026267 -0.004295
-0.780042 -0.199660 -0.593018
-0.772725 0.193091 -0.604659
-0.999646 -0.026267 -0.004295
-0.971930 0.235020 -0.010882
-0.999646 -0.026267 -0.004295
-0.772725 0.193091 -0.604659
-0.803448 -0.019359 -0.595060
-0.695955 0.364375 -0.618771
-0.971930 0.235020 -0.010882
-0.885790 0.463909 -0.012874
-0.971930 0.235020 -0.010882
-0.695955 0.364375 -0.618771
-0.772725 0.193091 -0.604659
-0.605734 0.506036 -0.614015
-0.885790 0.463909 -0.012874
-0.763394 0.645928 -0.002571
-0.885790 0.463909 -0.012874
-0.605734 0.506036 -0.614015
-0.695955 0.364375 -0.618771
-0.763394 0.645928 -0.002571
-0.564761 0.824929 0.023187
-0.605734 0.506036 -0.614015
-0.564761 0.824929 0.023187
-0.479173 0.638937 -0.601792
-0.605734 0.506036 -0.614015
-0.205516 0.802060 -0.560769
-0.479173 0.638937 -0.601792
-0.245913 0.969242 -0.009822
-0.564761 0.824929 0.023187
-0.245913 0.969242 -0.009822
-0.479173 0.638937 -0.601792
0.308989 0.927788 -0.209132
-0.205516 0.802060 -0.560769
0.295266 0.949593 0.105317
-0.245913 0.969242 -0.009822
0.295266 0.949593 0.105317
-0.205516 0.802060 -0.560769
0.836971 0.108044 -0.536476
0.932154 -0.339837 0.124902
0.937447 -0.288517 -0.194808
0.836971 0.108044 -0.536476
0.996919 0.063287 -0.046350
0.932154 -0.339837 0.124902
0.714258 0.352980 -0.604351
0.996919 0.063287 -0.046350
0.836971 0.108044 -0.536476
0.926098 0.377100 -0.011763
0.996919 0.063287 -0.046350
0.714258 0.352980 -0.604351
0.703229 0.393884 -0.591882
0.926098 0.377100 -0.011763
0.714258 0.352980 -0.604351
0.893067 0.449900 0.004574
0.926098 0.377100 -0.011763
0.703229 0.393884 -0.591882
0.759151 0.185991 -0.623776
0.893067 0.449900 0.004574
0.703229 0.393884 -0.591882
0.974538 0.224178 0.004532
0.893067 0.449900 0.004574
0.759151 0.185991 -0.623776
0.770113 -0.070604 -0.633989
0.974538 0.224178 0.004532
0.759151 0.185991 -0.623776
0.995384 -0.095972 -0.000524
0.974538 0.224178 0.004532
0.770113 -0.070604 -0.633989
0.741961 -0.250111 -0.622044
0.995384 -0.095972 -0.000524
0.770113 -0.070604 -0.633989
0.946083 -0.323919 0.001685
0.995384 -0.095972 -0.000524
0.741961 -0.250111 -0.622044
0.737859 -0.304499 -0.602366
0.946083 -0.323919 0.001685
0.741961 -0.250111 -0.622044
0.922211 -0.386432 0.014003
0.946083 -0.323919 0.001685
0.737859 -0.304499 -0.602366
0.891009 -0.453102 0.028306
0.922211 -0.386432 0.014003
0.737859 -0.304499 -0.602366
0.706930 -0.367585 -0.604260
0.891009 -0.453102 0.028306
0.737859 -0.304499 -0.602366
0.928044 -0.370066 0.042247
0.891009 -0.453102 0.028306
0.706930 -0.367585 -0.604260
0.750991 -0.330688 -0.571540
0.928044 -0.370066 0.042247
0.706930 -0.367585 -0.604260
0.997278 -0.015803 -0.072014
0.928044 -0.370066 0.042247
0.750991 -0.330688 -0.571540
0.792787 -0.035648 -0.608455
0.997278 -0.015803 -0.072014
0.750991 -0.330688 -0.571540
0.933851 0.348108 0.082120
0.997278 -0.015803 -0.072014
0.792787 -0.035648 -0.608455
0.933851 0.348108 0.082120
0.792787 -0.035648 -0.608455
0.942954 0.311305 -0.118010
0.893730 0.391302 0.219387
0.997278 -0.015803 -0.072014
0.933851 0.348108 0.082120
0.893730 0.391302 0.219387
0.930591 0.080379 0.357126
0.997278 -0.015803 -0.072014
0.930591 0.080379 0.357126
0.928044 -0.370066 0.042247
0.997278 -0.015803 -0.072014
0.930591 0.080379 0.357126
0.817701 -0.256020 0.515577
0.928044 -0.370066 0.042247
0.817701 -0.256020 0.515577
0.891009 -0.453102 0.028306
0.928044 -0.370066 0.042247
0.817701 -0.256020 0.515577
0.770887 -0.359888 0.525560
0.891009 -0.453102 0.028306
0.770887 -0.359888 0.525560
0.922211 -0.386432 0.014003
0.891009 -0.453102 0.028306
0.770887 -0.359888 0.525560
0.815524 -0.312822 0.486890
0.922211 -0.386432 0.014003
0.815524 -0.312822 0.486890
0.946083 -0.323919 0.001685
0.922211 -0.386432 0.014003
0.815524 -0.312822 0.486890
0.844315 -0.266819 0.464692
0.946083 -0.323919 0.001685
0.844315 -0.266819 0.464692
0.995384 -0.095972 -0.000524
0.946083 -0.323919 0.001685
0.844315 -0.266819 0.464692
0.887491 -0.074814 0.454712
0.995384 -0.095972 -0.000524
0.887491 -0.074814 0.454712
0.974538 0.224178 0.004532
0.995384 -0.095972 -0.000524
0.887491 -0.074814 0.454712
0.873418 0.197036 0.445329
0.974538 0.224178 0.004532
0.873418 0.197036 0.445329
0.818811 0.361248 0.446148
0.974538 0.224178 0.004532
0.818811 0.361248 0.446148
0.893067 0.449900 0.004574
0.974538 0.224178 0.004532
0.818811 0.361248 0.446148
0.858090 0.270188 0.436669
0.893067 0.449900 0.004574
0.858090 0.270188 0.436669
0.926098 0.377100 -0.011763
0.893067 0.449900 0.004574
0.858090 0.270188 0.436669
0.913215 -0.032188 0.406204
0.926098 0.377100 -0.011763
0.913215 -0.032188 0.406204
0.996919 0.063287 -0.046350
0.926098 0.377100 -0.011763
0.913215 -0.032188 0.406204
0.863150 -0.397769 0.311049
0.996919 0.063287 -0.046350
0.996919 0.063287 -0.046350
0.863150 -0.397769 0.311049
0.932154 -0.339837 0.124902
0.713482 -0.181730 0.676696
0.863150 -0.397769 0.311049
0.913215 -0.032188 0.406204
0.858090 0.270188 0.436669
0.713482 -0.181730 0.676696
0.913215 -0.032188 0.406204
0.664227 0.078978 0.743347
0.713482 -0.181730 0.676696
0.858090 0.270188 0.436669
0.818811 0.361248 0.446148
0.664227 0.078978 0.743347
0.858090 0.270188 0.436669
0.641807 0.207972 0.738127
0.664227 0.078978 0.743347
0.818811 0.361248 0.446148
0.873418 0.197036 0.445329
0.641807 0.207972 0.738127
0.818811 0.361248 0.446148
0.664024 0.149937 0.732524
0.641807 0.207972 0.738127
0.873418 0.197036 0.445329
0.672228 -0.033822 0.739571
0.664024 0.149937 0.732524
0.873418 0.197036 0.445329
0.887491 -0.074814 0.454712
0.672228 -0.033822 0.739571
0.873418 0.197036 0.445329
0.655126 -0.153890 0.739681
0.672228 -0.033822 0.739571
0.887491 -0.074814 0.454712
0.844315 -0.266819 0.464692
0.655126 -0.153890 0.739681
0.887491 -0.074814 0.454712
0.646095 -0.168305 0.744469
0.655126 -0.153890 0.739681
0.844315 -0.266819 0.464692
0.815524 -0.312822 0.486890
0.646095 -0.168305 0.744469
0.844315 -0.266819 0.464692
0.599395 -0.184212 0.778968
0.646095 -0.168305 0.744469
0.815524 -0.312822 0.486890
0.770887 -0.359888 0.525560
0.599395 -0.184212 0.778968
0.815524 -0.312822 0.486890
0.602319 -0.081668 0.794067
0.599395 -0.184212 0.778968
0.770887 -0.359888 0.525560
0.817701 -0.256020 0.515577
0.602319 -0.081668 0.794067
0.770887 -0.359888 0.525560
0.744787 0.206717 0.634476
0.602319 -0.081668 0.794067
0.817701 -0.256020 0.515577
0.930591 0.080379 0.357126
0.744787 0.206717 0.634476
0.817701 -0.256020 0.515577
0.893730 0.391302 0.219387
0.744787 0.206717 0.634476
0.930591 0.080379 0.357126
0.832301 0.441346 0.335393
0.744787 0.206717 0.634476
0.893730 0.391302 0.219387
0.569408 0.317639 0.758209
0.744787 0.206717 0.634476
0.832301 0.441346 0.335393
0.727818 0.538794 0.424243
0.569408 0.317639 0.758209
0.832301 0.441346 0.335393
0.384288 0.459750 0.800595
0.569408 0.317639 0.758209
0.727818 0.538794 0.424243
0.589752 0.662362 0.462026
0.384288 0.459750 0.800595
0.727818 0.538794 0.424243
0.474863 0.766024 0.433258
0.384288 0.459750 0.800595
0.589752 0.662362 0.462026
0.213570 0.599879 0.771059
0.384288 0.459750 0.800595
0.474863 0.766024 0.433258
0.386573 0.840090 0.380539
0.213570 0.599879 0.771059
0.474863 0.766024 0.433258
0.048880 0.768622 0.637834
0.213570 0.599879 0.771059
0.386573 0.840090 0.380539
0.322990 0.906879 0.270644
0.048880 0.768622 0.637834
0.386573 0.840090 0.380539
-0.120653 0.922711 0.366124
0.048880 0.768622 0.637834
0.322990 0.906879 0.270644
0.322990 0.906879 0.270644
-0.245913 0.969242 -0.009822
-0.120653 0.922711 0.366124
-0.245913 0.969242 -0.009822
0.322990 0.906879 0.270644
0.295266 0.949593 0.105317
-0.564761 0.824929 0.023187
-0.120653 0.922711 0.366124
-0.245913 0.969242 -0.009822
-0.423748 0.747795 0.511117
-0.120653 0.922711 0.366124
-0.564761 0.824929 0.023187
-0.423748 0.747795 0.511117
0.048880 0.768622 0.637834
-0.120653 0.922711 0.366124
-0.423748 0.747795 0.511117
-0.199116 0.586443 0.785136
0.048880 0.768622 0.637834
-0.199116 0.586443 0.785136
0.213570 0.599879 0.771059
0.048880 0.768622 0.637834
-0.199116 0.586443 0.785136
0.001218 0.462466 0.886636
0.213570 0.599879 0.771059
0.001218 0.462466 0.886636
0.384288 0.459750 0.800595
0.213570 0.599879 0.771059
0.001218 0.462466 0.886636
0.234027 0.288867 0.928325
0.384288 0.459750 0.800595
0.234027 0.288867 0.928325
0.569408 0.317639 0.758209
0.384288 0.459750 0.800595
0.234027 0.288867 0.928325
0.453746 0.083562 0.887205
0.569408 0.317639 0.758209
0.453746 0.083562 0.887205
0.744787 0.206717 0.634476
0.569408 0.317639 0.758209
0.453746 0.083562 0.887205
0.602319 -0.081668 0.794067
0.744787 0.206717 0.634476
0.453746 0.083562 0.887205
0.599395 -0.184212 0.778968
0.602319 -0.081668 0.794067
0.439564 -0.024600 0.897874
0.599395 -0.184212 0.778968
0.453746 0.083562 0.887205
0.234027 0.288867 0.928325
0.439564 -0.024600 0.897874
0.453746 0.083562 0.887205
0.143869 0.156766 0.977101
0.439564 -0.024600 0.897874
0.234027 0.288867 0.928325
-0.144603 0.321883 0.935672
0.143869 0.156766 0.977101
0.234027 0.288867 0.928325
0.001218 0.462466 0.886636
-0.144603 0.321883 0.935672
0.234027 0.288867 0.928325
-0.403043 0.465755 0.787800
-0.144603 0.321883 0.935672
0.001218 0.462466 0.886636
-0.199116 0.586443 0.785136
-0.403043 0.465755 0.787800
0.001218 0.462466 0.886636
-0.645839 0.593325 0.480476
-0.403043 0.465755 0.787800
-0.199116 0.586443 0.785136
-0.423748 0.747795 0.511117
-0.645839 0.593325 0.480476
-0.199116 0.586443 0.785136
-0.763394 0.645928 -0.002571
-0.645839 0.593325 0.480476
-0.423748 0.747795 0.511117
-0.763394 0.645928 -0.002571
-0.423748 0.747795 0.511117
-0.564761 0.824929 0.023187
-0.778637 0.425616 0.461058
-0.645839 0.593325 0.480476
-0.763394 0.645928 -0.002571
-0.885790 0.463909 -0.012874
-0.778637 0.425616 0.461058
-0.763394 0.645928 -0.002571
-0.872818 0.218216 0.436544
-0.778637 0.425616 0.461058
-0.885790 0.463909 -0.012874
-0.971930 0.235020 -0.010882
-0.872818 0.218216 0.436544
-0.885790 0.463909 -0.012874
-0.902650 -0.024180 0.429696
-0.872818 0.218216 0.436544
-0.971930 0.235020 -0.010882
-0.999646 -0.026267 -0.004295
-0.902650 -0.024180 0.429696
-0.971930 0.235020 -0.010882
-0.876210 -0.226712 0.425273
-0.902650 -0.024180 0.429696
-0.999646 -0.026267 -0.004295
-0.968758 -0.247989 0.003089
-0.876210 -0.226712 0.425273
-0.999646 -0.026267 -0.004295
-0.764631 -0.472503 0.438270
-0.876210 -0.226712 0.425273
-0.968758 -0.247989 0.003089
-0.871057 -0.491095 0.009245
-0.764631 -0.472503 0.438270
-0.968758 -0.247989 0.003089
-0.505050 -0.722328 0.472405
-0.764631 -0.472503 0.438270
-0.871057 -0.491095 0.009245
-0.631741 -0.775172 -0.003377
-0.505050 -0.722328 0.472405
-0.871057 -0.491095 0.009245
-0.205553 -0.886752 0.414028
-0.505050 -0.722328 0.472405
-0.631741 -0.775172 -0.003377
-0.317994 -0.947777 -0.024458
-0.205553 -0.886752 0.414028
-0.631741 -0.775172 -0.003377
0.203185 -0.903969 0.376239
-0.205553 -0.886752 0.414028
-0.317994 -0.947777 -0.024458
0.203185 -0.903969 0.376239
-0.317994 -0.947777 -0.024458
0.141267 -0.985247 0.096603
-0.020323 -0.729817 0.683341
-0.205553 -0.886752 0.414028
0.203185 -0.903969 0.376239
0.302488 -0.797133 0.522570
-0.020323 -0.729817 0.683341
0.203185 -0.903969 0.376239
0.151134 -0.584904 0.796897
-0.020323 -0.729817 0.683341
0.302488 -0.797133 0.522570
0.380771 -0.727654 0.570555
0.151134 -0.584904 0.796897
0.302488 -0.797133 0.522570
0.318594 -0.455998 0.831002
0.151134 -0.584904 0.796897
0.380771 -0.727654 0.570555
0.481433 -0.664396 0.571665
0.318594 -0.455998 0.831002
0.380771 -0.727654 0.570555
0.619048 -0.557733 0.552913
0.318594 -0.455998 0.831002
0.481433 -0.664396 0.571665
0.502253 -0.327390 0.800348
0.318594 -0.455998 0.831002
0.619048 -0.557733 0.552913
0.754856 -0.465189 0.462375
0.502253 -0.327390 0.800348
0.619048 -0.557733 0.552913
0.713482 -0.181730 0.676696
0.502253 -0.327390 0.800348
0.754856 -0.465189 0.462375
0.863150 -0.397769 0.311049
0.713482 -0.181730 0.676696
0.754856 -0.465189 0.462375
0.713482 -0.181730 0.676696
0.421265 -0.146931 0.894956
0.502253 -0.327390 0.800348
0.421265 -0.146931 0.894956
0.318594 -0.455998 0.831002
0.502253 -0.327390 0.800348
0.664227 0.078978 0.743347
0.421265 -0.146931 0.894956
0.713482 -0.181730 0.676696
0.641807 0.207972 0.738127
0.421265 -0.146931 0.894956
0.664227 0.078978 0.743347
0.394378 0.024724 0.918616
0.421265 -0.146931 0.894956
0.641807 0.207972 0.738127
0.664024 0.149937 0.732524
0.394378 0.024724 0.918616
0.641807 0.207972 0.738127
0.363016 0.075989 0.928679
0.394378 0.024724 0.918616
0.664024 0.149937 0.732524
0.360146 -0.009233 0.932850
0.363016 0.075989 0.928679
0.664024 0.149937 0.732524
0.672228 -0.033822 0.739571
0.360146 -0.009233 0.932850
0.664024 0.149937 0.732524
0.367454 -0.044706 0.928967
0.360146 -0.009233 0.932850
0.672228 -0.033822 0.739571
0.655126 -0.153890 0.739681
0.367454 -0.044706 0.928967
0.672228 -0.033822 0.739571
0.412802 -0.037016 0.910069
0.367454 -0.044706 0.928967
0.655126 -0.153890 0.739681
0.646095 -0.168305 0.744469
0.412802 -0.037016 0.910069
0.655126 -0.153890 0.739681
0.599395 -0.184212 0.778968
0.412802 -0.037016 0.910069
0.646095 -0.168305 0.744469
0.439564 -0.024600 0.897874
0.412802 -0.037016 0.910069
0.599395 -0.184212 0.778968
0.143869 0.156766 0.977101
0.412802 -0.037016 0.910069
0.439564 -0.024600 0.897874
0.074821 0.110211 0.991088
0.412802 -0.037016 0.910069
0.143869 0.156766 0.977101
0.074821 0.110211 0.991088
0.367454 -0.044706 0.928967
0.412802 -0.037016 0.910069
0.074821 0.110211 0.991088
0.003865 0.063641 0.997965
0.367454 -0.044706 0.928967
0.003865 0.063641 0.997965
0.360146 -0.009233 0.932850
0.367454 -0.044706 0.928967
0.003865 0.063641 0.997965
-0.018947 0.001735 0.999819
0.360146 -0.009233 0.932850
-0.018947 0.001735 0.999819
0.363016 0.075989 0.928679
0.360146 -0.009233 0.932850
-0.018947 0.001735 0.999819
-0.009627 -0.016638 0.999815
0.363016 0.075989 0.928679
-0.009627 -0.016638 0.999815
0.078476 -0.143540 0.986528
0.363016 0.075989 0.928679
0.078476 -0.143540 0.986528
0.394378 0.024724 0.918616
0.363016 0.075989 0.928679
0.078476 -0.143540 0.986528
0.196532 -0.336233 0.921044
0.394378 0.024724 0.918616
0.196532 -0.336233 0.921044
0.421265 -0.146931 0.894956
0.394378 0.024724 0.918616
0.196532 -0.336233 0.921044
0.318594 -0.455998 0.831002
0.421265 -0.146931 0.894956
0.196532 -0.336233 0.921044
0.151134 -0.584904 0.796897
0.318594 -0.455998 0.831002
0.196532 -0.336233 0.921044
-0.046510 -0.487070 0.872124
0.151134 -0.584904 0.796897
0.078476 -0.143540 0.986528
-0.046510 -0.487070 0.872124
0.196532 -0.336233 0.921044
-0.046510 -0.487070 0.872124
-0.020323 -0.729817 0.683341
0.151134 -0.584904 0.796897
-0.046510 -0.487070 0.872124
-0.283626 -0.604452 0.744443
-0.020323 -0.729817 0.683341
-0.283626 -0.604452 0.744443
-0.205553 -0.886752 0.414028
-0.020323 -0.729817 0.683341
-0.283626 -0.604452 0.744443
-0.505050 -0.722328 0.472405
-0.205553 -0.886752 0.414028
-0.283626 -0.604452 0.744443
-0.764631 -0.472503 0.438270
-0.505050 -0.722328 0.472405
-0.283626 -0.604452 0.744443
-0.552748 -0.408424 0.726402
-0.764631 -0.472503 0.438270
-0.046510 -0.487070 0.872124
-0.552748 -0.408424 0.726402
-0.283626 -0.604452 0.744443
-0.259879 -0.294796 0.919543
-0.552748 -0.408424 0.726402
-0.046510 -0.487070 0.872124
0.078476 -0.143540 0.986528
-0.259879 -0.294796 0.919543
-0.046510 -0.487070 0.872124
-0.376471 -0.104048 0.920567
-0.259879 -0.294796 0.919543
0.078476 -0.143540 0.986528
-0.009627 -0.016638 0.999815
-0.376471 -0.104048 0.920567
0.078476 -0.143540 0.986528
-0.394622 -0.003180 0.918838
-0.376471 -0.104048 0.920567
-0.009627 -0.016638 0.999815
-0.018947 0.001735 0.999819
-0.394622 -0.003180 0.918838
-0.009627 -0.016638 0.999815
-0.346189 0.139988 0.927662
-0.394622 -0.003180 0.918838
-0.018947 0.001735 0.999819
0.003865 0.063641 0.997965
-0.346189 0.139988 0.927662
-0.018947 0.001735 0.999819
-0.243012 0.233111 0.941597
-0.346189 0.139988 0.927662
0.003865 0.063641 0.997965
0.074821 0.110211 0.991088
-0.243012 0.233111 0.941597
0.003865 0.063641 0.997965
-0.144603 0.321883 0.935672
-0.243012 0.233111 0.941597
0.074821 0.110211 0.991088
-0.144603 0.321883 0.935672
0.074821 0.110211 0.991088
0.143869 0.156766 0.977101
-0.403043 0.465755 0.787800
-0.243012 0.233111 0.941597
-0.144603 0.321883 0.935672
-0.533316 0.335419 0.776574
-0.243012 0.233111 0.941597
-0.403043 0.465755 0.787800
-0.533316 0.335419 0.776574
-0.346189 0.139988 0.927662
-0.243012 0.233111 0.941597
-0.645839 0.593325 0.480476
-0.533316 0.335419 0.776574
-0.403043 0.465755 0.787800
-0.778637 0.425616 0.461058
-0.533316 0.335419 0.776574
-0.645839 0.593325 0.480476
-0.647077 0.186563 0.739247
-0.533316 0.335419 0.776574
-0.778637 0.425616 0.461058
-0.647077 0.186563 0.739247
-0.346189 0.139988 0.927662
-0.533316 0.335419 0.776574
-0.647077 0.186563 0.739247
-0.394622 -0.003180 0.918838
-0.346189 0.139988 0.927662
-0.647077 0.186563 0.739247
-0.690787 -0.014097 0.722920
-0.394622 -0.003180 0.918838
-0.690787 -0.014097 0.722920
-0.376471 -0.104048 0.920567
-0.394622 -0.003180 0.918838
-0.690787 -0.014097 0.722920
-0.674602 -0.176300 0.716819
-0.376471 -0.104048 0.920567
-0.674602 -0.176300 0.716819
-0.259879 -0.294796 0.919543
-0.376471 -0.104048 0.920567
-0.674602 -0.176300 0.716819
-0.552748 -0.408424 0.726402
-0.259879 -0.294796 0.919543
-0.674602 -0.176300 0.716819
-0.876210 -0.226712 0.425273
-0.552748 -0.408424 0.726402
-0.552748 -0.408424 0.726402
-0.876210 -0.226712 0.425273
-0.764631 -0.472503 0.438270
-0.902650 -0.024180 0.429696
-0.876210 -0.226712 0.425273
-0.674602 -0.176300 0.716819
-0.690787 -0.014097 0.722920
-0.902650 -0.024180 0.429696
-0.674602 -0.176300 0.716819
-0.690787 -0.014097 0.722920
-0.872818 0.218216 0.436544
-0.902650 -0.024180 0.429696
-0.647077 0.186563 0.739247
-0.872818 0.218216 0.436544
-0.690787 -0.014097 0.722920
-0.647077 0.186563 0.739247
-0.778637 0.425616 0.461058
-0.872818 0.218216 0.436544
-0.161398 -0.549692 -0.819627
0.269991 -0.882938 -0.384091
0.123071 -0.957754 -0.259924
0.123071 -0.957754 -0.259924
-0.296855 -0.787508 -0.540101
-0.161398 -0.549692 -0.819627
-0.296855 -0.787508 -0.540101
-0.551131 -0.577071 -0.602697
-0.235485 -0.293512 -0.926497
-0.235485 -0.293512 -0.926497
-0.161398 -0.549692 -0.819627
-0.296855 -0.787508 -0.540101
-0.324614 -0.146768 -0.934390
-0.235485 -0.293512 -0.926497
-0.551131 -0.577071 -0.602697
-0.324614 -0.146768 -0.934390
-0.551131 -0.577071 -0.602697
-0.715337 -0.374747 -0.589795
-0.715337 -0.374747 -0.589795
-0.331884 -0.083639 -0.939605
-0.324614 -0.146768 -0.934390
-0.331884 -0.083639 -0.939605
-0.715337 -0.374747 -0.589795
-0.780042 -0.199660 -0.593018
-0.780042 -0.199660 -0.593018
-0.803448 -0.019359 -0.595060
-0.331884 -0.083639 -0.939605
-0.331884 -0.083639 -0.939605
-0.803448 -0.019359 -0.595060
-0.340675 -0.007372 -0.940152
-0.803448 -0.019359 -0.595060
-0.772725 0.193091 -0.604659
-0.340675 -0.007372 -0.940152
-0.772725 0.193091 -0.604659
-0.319393 0.087883 -0.943538
-0.340675 -0.007372 -0.940152
-0.695955 0.364375 -0.618771
-0.319393 0.087883 -0.943538
-0.772725 0.193091 -0.604659
-0.319393 0.087883 -0.943538
-0.695955 0.364375 -0.618771
-0.273982 0.149593 -0.950029
-0.605734 0.506036 -0.614015
-0.273982 0.149593 -0.950029
-0.695955 0.364375 -0.618771
-0.273982 0.149593 -0.950029
-0.605734 0.506036 -0.614015
-0.233236 0.212910 -0.948826
-0.194501 0.248139 -0.948998
-0.233236 0.212910 -0.948826
-0.479173 0.638937 -0.601792
-0.605734 0.506036 -0.614015
-0.479173 0.638937 -0.601792
-0.233236 0.212910 -0.948826
-0.044289 0.484507 -0.873666
-0.194501 0.248139 -0.948998
-0.205516 0.802060 -0.560769
-0.479173 0.638937 -0.601792
-0.205516 0.802060 -0.560769
-0.194501 0.248139 -0.948998
-0.205516 0.802060 -0.560769
0.308989 0.927788 -0.209132
-0.044289 0.484507 -0.873666
-0.044289 0.484507 -0.873666
0.308989 0.927788 -0.209132
0.358384 0.781227 -0.511122
0.030297 0.216188 -0.975882
-0.044289 0.484507 -0.873666
0.358384 0.781227 -0.511122
0.397043 0.660614 -0.637139
0.030297 0.216188 -0.975882
0.358384 0.781227 -0.511122
0.397043 0.660614 -0.637139
0.094207 0.085750 -0.991853
0.030297 0.216188 -0.975882
0.492614 0.584816 -0.644454
0.094207 0.085750 -0.991853
0.397043 0.660614 -0.637139
0.680147 0.428578 -0.594745
0.094207 0.085750 -0.991853
0.492614 0.584816 -0.644454
0.248793 0.038850 -0.967777
0.094207 0.085750 -0.991853
0.680147 0.428578 -0.594745
0.854170 0.323853 -0.406833
0.248793 0.038850 -0.967777
0.680147 0.428578 -0.594745
0.448025 0.017432 -0.893851
0.248793 0.038850 -0.967777
0.854170 0.323853 -0.406833
0.942954 0.311305 -0.118010
0.448025 0.017432 -0.893851
0.854170 0.323853 -0.406833
0.792787 -0.035648 -0.608455
0.448025 0.017432 -0.893851
0.942954 0.311305 -0.118010
0.307580 -0.143976 -0.940567
0.448025 0.017432 -0.893851
0.792787 -0.035648 -0.608455
0.750991 -0.330688 -0.571540
0.307580 -0.143976 -0.940567
0.792787 -0.035648 -0.608455
0.292328 -0.127389 -0.947796
0.307580 -0.143976 -0.940567
0.750991 -0.330688 -0.571540
0.706930 -0.367585 -0.604260
0.292328 -0.127389 -0.947796
0.750991 -0.330688 -0.571540
0.737859 -0.304499 -0.602366
0.292328 -0.127389 -0.947796
0.706930 -0.367585 -0.604260
0.308170 -0.104739 -0.945548
0.292328 -0.127389 -0.947796
0.737859 -0.304499 -0.602366
0.741961 -0.250111 -0.622044
0.308170 -0.104739 -0.945548
0.737859 -0.304499 -0.602366
0.295371 -0.085771 -0.951525
0.308170 -0.104739 -0.945548
0.741961 -0.250111 -0.622044
0.770113 -0.070604 -0.633989
0.295371 -0.085771 -0.951525
0.741961 -0.250111 -0.622044
0.300834 -0.020476 -0.953457
0.295371 -0.085771 -0.951525
0.770113 -0.070604 -0.633989
0.759151 0.185991 -0.623776
0.300834 -0.020476 -0.953457
0.770113 -0.070604 -0.633989
0.303485 0.093682 -0.948220
0.300834 -0.020476 -0.953457
0.759151 0.185991 -0.623776
0.703229 0.393884 -0.591882
0.303485 0.093682 -0.948220
0.759151 0.185991 -0.623776
0.307278 0.221934 -0.925379
0.303485 0.093682 -0.948220
0.703229 0.393884 -0.591882
0.714258 0.352980 -0.604351
0.307278 0.221934 -0.925379
0.703229 0.393884 -0.591882
0.360510 0.150530 -0.920529
0.307278 0.221934 -0.925379
0.714258 0.352980 -0.604351
0.836971 0.108044 -0.536476
0.360510 0.150530 -0.920529
0.714258 0.352980 -0.604351
0.621760 0.072312 -0.779862
0.360510 0.150530 -0.920529
0.836971 0.108044 -0.536476
0.148713 0.063250 -0.986856
0.360510 0.150530 -0.920529
0.621760 0.072312 -0.779862
0.497365 -0.056049 -0.865729
0.148713 0.063250 -0.986856
0.621760 0.072312 -0.779862
0.008870 -0.015804 -0.999836
0.148713 0.063250 -0.986856
0.497365 -0.056049 -0.865729
0.182479 -0.221797 -0.957866
0.008870 -0.015804 -0.999836
0.497365 -0.056049 -0.865729
-0.006005 -0.399360 -0.916774
0.008870 -0.015804 -0.999836
0.182479 -0.221797 -0.957866
-0.089427 -0.125661 -0.988035
0.008870 -0.015804 -0.999836
-0.006005 -0.399360 -0.916774
-0.161398 -0.549692 -0.819627
-0.089427 -0.125661 -0.988035
-0.006005 -0.399360 -0.916774
-0.235485 -0.293512 -0.926497
-0.089427 -0.125661 -0.988035
-0.161398 -0.549692 -0.819627
-0.133250 -0.039364 -0.990300
-0.089427 -0.125661 -0.988035
-0.235485 -0.293512 -0.926497
-0.324614 -0.146768 -0.934390
-0.133250 -0.039364 -0.990300
-0.235485 -0.293512 -0.926497
-0.099956 -0.015663 -0.994869
-0.133250 -0.039364 -0.990300
-0.324614 -0.146768 -0.934390
-0.331884 -0.083639 -0.939605
-0.099956 -0.015663 -0.994869
-0.324614 -0.146768 -0.934390
-0.340675 -0.007372 -0.940152
-0.099956 -0.015663 -0.994869
-0.331884 -0.083639 -0.939605
-0.097180 -0.002343 -0.995264
-0.099956 -0.015663 -0.994869
-0.340675 -0.007372 -0.940152
-0.319393 0.087883 -0.943538
-0.097180 -0.002343 -0.995264
-0.340675 -0.007372 -0.940152
-0.088823 0.029299 -0.995616
-0.097180 -0.002343 -0.995264
-0.319393 0.087883 -0.943538
-0.273982 0.149593 -0.950029
-0.088823 0.029299 -0.995616
-0.319393 0.087883 -0.943538
-0.068748 0.047888 -0.996484
-0.088823 0.029299 -0.995616
-0.273982 0.149593 -0.950029
-0.233236 0.212910 -0.948826
-0.068748 0.047888 -0.996484
-0.273982 0.149593 -0.950029
-0.050073 0.077036 -0.995770
-0.068748 0.047888 -0.996484
-0.233236 0.212910 -0.948826
-0.194501 0.248139 -0.948998
-0.050073 0.077036 -0.995770
-0.233236 0.212910 -0.948826
-0.053439 0.087106 -0.994765
-0.050073 0.077036 -0.995770
-0.194501 0.248139 -0.948998
-0.044289 0.484507 -0.873666
-0.053439 0.087106 -0.994765
-0.194501 0.248139 -0.948998
-0.053439 0.087106 -0.994765
-0.044289 0.484507 -0.873666
0.030297 0.216188 -0.975882
0.034718 0.019523 -0.999206
-0.050073 0.077036 -0.995770
-0.053439 0.087106 -0.994765
0.020320 0.020460 -0.999584
0.034718 0.019523 -0.999206
-0.053439 0.087106 -0.994765
0.103188 -0.039532 -0.993876
0.034718 0.019523 -0.999206
0.020320 0.020460 -0.999584
0.248793 0.038850 -0.967777
0.103188 -0.039532 -0.993876
0.020320 0.020460 -0.999584
0.248793 0.038850 -0.967777
0.020320 0.020460 -0.999584
0.094207 0.085750 -0.991853
0.448025 0.017432 -0.893851
0.103188 -0.039532 -0.993876
0.248793 0.038850 -0.967777
0.307580 -0.143976 -0.940567
0.103188 -0.039532 -0.993876
0.448025 0.017432 -0.893851
0.292328 -0.127389 -0.947796
0.103188 -0.039532 -0.993876
0.307580 -0.143976 -0.940567
0.108127 -0.027469 -0.993757
0.103188 -0.039532 -0.993876
0.292328 -0.127389 -0.947796
0.108127 -0.027469 -0.993757
0.034718 0.019523 -0.999206
0.103188 -0.039532 -0.993876
0.108127 -0.027469 -0.993757
0.019761 0.011159 -0.999742
0.034718 0.019523 -0.999206
0.019761 0.011159 -0.999742
-0.050073 0.077036 -0.995770
0.034718 0.019523 -0.999206
0.019761 0.011159 -0.999742
-0.068748 0.047888 -0.996484
-0.050073 0.077036 -0.995770
0.019761 0.011159 -0.999742
-0.000670 0.005948 -0.999982
-0.068748 0.047888 -0.996484
-0.000670 0.005948 -0.999982
-0.088823 0.029299 -0.995616
-0.068748 0.047888 -0.996484
-0.000670 0.005948 -0.999982
-0.004520 -0.002114 -0.999988
-0.088823 0.029299 -0.995616
-0.004520 -0.002114 -0.999988
-0.097180 -0.002343 -0.995264
-0.088823 0.029299 -0.995616
-0.004520 -0.002114 -0.999988
-0.013304 0.020715 -0.999697
-0.097180 -0.002343 -0.995264
-0.013304 0.020715 -0.999697
-0.099956 -0.015663 -0.994869
-0.097180 -0.002343 -0.995264
-0.013304 0.020715 -0.999697
-0.133250 -0.039364 -0.990300
-0.099956 -0.015663 -0.994869
-0.013304 0.020715 -0.999697
-0.029952 0.016131 -0.999421
-0.133250 -0.039364 -0.990300
-0.029952 0.016131 -0.999421
-0.089427 -0.125661 -0.988035
-0.133250 -0.039364 -0.990300
-0.029952 0.016131 -0.999421
0.008870 -0.015804 -0.999836
-0.089427 -0.125661 -0.988035
-0.029952 0.016131 -0.999421
0.148713 0.063250 -0.986856
0.008870 -0.015804 -0.999836
-0.029952 0.016131 -0.999421
0.094635 0.089369 -0.991493
0.148713 0.063250 -0.986856
0.094635 0.089369 -0.991493
0.360510 0.150530 -0.920529
0.148713 0.063250 -0.986856
0.094635 0.089369 -0.991493
0.307278 0.221934 -0.925379
0.360510 0.150530 -0.920529
0.081091 0.050391 -0.995432
0.307278 0.221934 -0.925379
0.094635 0.089369 -0.991493
-0.029952 0.016131 -0.999421
0.081091 0.050391 -0.995432
0.094635 0.089369 -0.991493
-0.013304 0.020715 -0.999697
0.081091 0.050391 -0.995432
-0.029952 0.016131 -0.999421
-0.004520 -0.002114 -0.999988
0.081091 0.050391 -0.995432
-0.013304 0.020715 -0.999697
0.085706 -0.004066 -0.996312
0.081091 0.050391 -0.995432
-0.004520 -0.002114 -0.999988
-0.000670 0.005948 -0.999982
0.085706 -0.004066 -0.996312
-0.004520 -0.002114 -0.999988
0.083324 -0.018386 -0.996353
0.085706 -0.004066 -0.996312
-0.000670 0.005948 -0.999982
0.019761 0.011159 -0.999742
0.083324 -0.018386 -0.996353
-0.000670 0.005948 -0.999982
0.098798 -0.014664 -0.994999
0.083324 -0.018386 -0.996353
0.019761 0.011159 -0.999742
0.108127 -0.027469 -0.993757
0.098798 -0.014664 -0.994999
0.019761 0.011159 -0.999742
0.308170 -0.104739 -0.945548
0.098798 -0.014664 -0.994999
0.108127 -0.027469 -0.993757
0.308170 -0.104739 -0.945548
0.108127 -0.027469 -0.993757
0.292328 -0.127389 -0.947796
0.295371 -0.085771 -0.951525
0.098798 -0.014664 -0.994999
0.308170 -0.104739 -0.945548
0.295371 -0.085771 -0.951525
0.083324 -0.018386 -0.996353
0.098798 -0.014664 -0.994999
0.300834 -0.020476 -0.953457
0.083324 -0.018386 -0.996353
0.295371 -0.085771 -0.951525
0.300834 -0.020476 -0.953457
0.085706 -0.004066 -0.996312
0.083324 -0.018386 -0.996353
0.303485 0.093682 -0.948220
0.085706 -0.004066 -0.996312
0.300834 -0.020476 -0.953457
0.303485 0.093682 -0.948220
0.081091 0.050391 -0.995432
0.085706 -0.004066 -0.996312
0.081091 0.050391 -0.995432
0.303485 0.093682 -0.948220
0.307278 0.221934 -0.925379
0.203185 -0.903969 0.376239
0.615364 -0.746512 0.253075
0.302488 -0.797133 0.522570
0.615364 -0.746512 0.253075
0.380771 -0.727654 0.570555
0.302488 -0.797133 0.522570
0.615364 -0.746512 0.253075
0.481433 -0.664396 0.571665
0.380771 -0.727654 0.570555
0.615364 -0.746512 0.253075
0.619048 -0.557733 0.552913
0.481433 -0.664396 0.571665
0.615364 -0.746512 0.253075
0.754856 -0.465189 0.462375
0.619048 -0.557733 0.552913
0.615364 -0.746512 0.253075
0.863150 -0.397769 0.311049
0.754856 -0.465189 0.462375
0.615364 -0.746512 0.253075
0.932154 -0.339837 0.124902
0.863150 -0.397769 0.311049
0.615364 -0.746512 0.253075
0.937447 -0.288517 -0.194808
0.932154 -0.339837 0.124902
0.615364 -0.746512 0.253075
0.846630 -0.433094 -0.309269
0.937447 -0.288517 -0.194808
0.615364 -0.746512 0.253075
0.765689 -0.554509 -0.325945
0.846630 -0.433094 -0.309269
0.615364 -0.746512 0.253075
0.597470 -0.691141 -0.406636
0.765689 -0.554509 -0.325945
0.615364 -0.746512 0.253075
0.407599 -0.843525 -0.349755
0.597470 -0.691141 -0.406636
0.615364 -0.746512 0.253075
0.269991 -0.882938 -0.384091
0.407599 -0.843525 -0.349755
0.615364 -0.746512 0.253075
0.123071 -0.957754 -0.259924
0.269991 -0.882938 -0.384091
0.615364 -0.746512 0.253075
0.141267 -0.985247 0.096603
0.123071 -0.957754 -0.259924
0.141267 -0.985247 0.096603
0.615364 -0.746512 0.253075
0.203185 -0.903969 0.376239
0.772462 0.631328 0.068751
0.832301 0.441346 0.335393
0.818686 0.567977 0.084591
0.818686 0.567977 0.084591
0.832301 0.441346 0.335393
0.893730 0.391302 0.219387
0.942954 0.311305 -0.118010
0.854170 0.323853 -0.406833
0.818686 0.567977 0.084591
0.680147 0.428578 -0.594745
0.772462 0.631328 0.068751
0.818686 0.567977 0.084591
0.680147 0.428578 -0.594745
0.818686 0.567977 0.084591
0.854170 0.323853 -0.406833
0.684901 0.725407 0.068525
0.680147 0.428578 -0.594745
0.492614 0.584816 -0.644454
0.680147 0.428578 -0.594745
0.684901 0.725407 0.068525
0.772462 0.631328 0.068751
0.492614 0.584816 -0.644454
0.620748 0.781244 0.065803
0.684901 0.725407 0.068525
0.620748 0.781244 0.065803
0.492614 0.584816 -0.644454
0.397043 0.660614 -0.637139
0.397043 0.660614 -0.637139
0.619011 0.783486 0.054535
0.620748 0.781244 0.065803
0.619011 0.783486 0.054535
0.397043 0.660614 -0.637139
0.358384 0.781227 -0.511122
0.619011 0.783486 0.054535
0.358384 0.781227 -0.511122
0.308989 0.927788 -0.209132
0.818686 0.567977 0.084591
0.893730 0.391302 0.219387
0.933851 0.348108 0.082120
0.933851 0.348108 0.082120
0.942954 0.311305 -0.118010
0.818686 0.567977 0.084591
0.684901 0.725407 0.068525
0.727818 0.538794 0.424243
0.772462 0.631328 0.068751
0.832301 0.441346 0.335393
0.772462 0.631328 0.068751
0.727818 0.538794 0.424243
0.727818 0.538794 0.424243
0.620748 0.781244 0.065803
0.589752 0.662362 0.462026
0.620748 0.781244 0.065803
0.727818 0.538794 0.424243
0.684901 0.725407 0.068525
0.589752 0.662362 0.462026
0.620748 0.781244 0.065803
0.474863 0.766024 0.433258
0.474863 0.766024 0.433258
0.620748 0.781244 0.065803
0.619011 0.783486 0.054535
0.619011 0.783486 0.054535
0.386573 0.840090 0.380539
0.474863 0.766024 0.433258
0.386573 0.840090 0.380539
0.619011 0.783486 0.054535
0.322990 0.906879 0.270644
0.619011 0.783486 0.054535
0.295266 0.949593 0.105317
0.322990 0.906879 0.270644
0.295266 0.949593 0.105317
0.619011 0.783486 0.054535
0.308989 0.927788 -0.209132
</float_array>
          <technique_common>
            <accessor source="#SM_Seaslug_01_LOD0-Normal0-array" count="1176" stride="3">
              <param name="X" type="float"/>
              <param name="Y" type="float"/>
              <param name="Z" type="float"/>
            </accessor>
          </technique_common>
        </source>
        <source id="SM_Seaslug_01_LOD0-UV0">
          <float_array id="SM_Seaslug_01_LOD0-UV0-array" count="462">
0.648087 0.901905
0.641131 0.889168
0.666579 0.886730
0.661324 0.878056
0.457794 0.826440
0.451829 0.829527
0.433377 0.822626
0.431822 0.824148
0.442996 0.831415
0.429226 0.825714
0.435727 0.836058
0.426414 0.827547
0.424113 0.830066
0.429707 0.843002
0.422130 0.832617
0.426105 0.852459
0.409595 0.897969
0.402587 0.898573
0.401975 0.871087
0.404461 0.872081
0.428640 0.929268
0.420282 0.935898
0.461065 0.953441
0.454681 0.963580
0.497529 0.967492
0.494764 0.979009
0.535807 0.972115
0.535895 0.983974
0.577781 0.967854
0.580960 0.979313
0.609320 0.956144
0.614714 0.966658
0.634069 0.939974
0.641995 0.948295
0.653130 0.918486
0.662799 0.921770
0.667646 0.896822
0.673695 0.895016
0.668435 0.873303
0.670770 0.871909
0.434197 0.839891
0.413797 0.855504
0.411965 0.853707
0.436649 0.846392
0.470417 0.833507
0.471049 0.844213
0.496456 0.837474
0.495313 0.849113
0.519787 0.841257
0.519260 0.853263
0.540350 0.842120
0.541326 0.854040
0.564676 0.839658
0.566576 0.851218
0.578629 0.837933
0.580058 0.849166
0.594522 0.847122
0.594392 0.835989
0.609401 0.845184
0.612514 0.835370
0.634166 0.843613
0.638000 0.838655
0.656333 0.854447
0.658527 0.852982
0.655133 0.856932
0.631948 0.852155
0.608774 0.854953
0.595111 0.857734
0.580822 0.860242
0.567292 0.862948
0.541192 0.866132
0.518536 0.865283
0.494659 0.860687
0.470971 0.854451
0.437591 0.852760
0.414740 0.857705
0.436697 0.859793
0.469034 0.866591
0.493225 0.874991
0.517020 0.880276
0.539686 0.881751
0.565891 0.878362
0.580025 0.874141
0.595015 0.870186
0.610723 0.864619
0.633057 0.859556
0.655105 0.859794
0.636067 0.867933
0.656058 0.862920
0.640779 0.876314
0.657709 0.866137
0.660041 0.869143
0.646615 0.884064
0.662627 0.871757
0.653026 0.890496
0.665517 0.873163
0.659976 0.894996
0.644485 0.913675
0.636943 0.907136
0.628823 0.898028
0.621001 0.887398
0.614962 0.875807
0.600484 0.882054
0.605452 0.895358
0.611851 0.908212
0.619537 0.920371
0.626902 0.930861
0.604462 0.945357
0.575605 0.956070
0.536061 0.960038
0.500585 0.956329
0.467071 0.943758
0.436005 0.922733
0.415534 0.895271
0.406851 0.872011
0.420624 0.890341
0.409196 0.870869
0.425516 0.883599
0.411232 0.868686
0.430284 0.875770
0.412850 0.865786
0.414168 0.862965
0.434091 0.867542
0.414873 0.860275
0.464747 0.878568
0.490551 0.889908
0.514687 0.896127
0.538436 0.898245
0.567620 0.893833
0.583420 0.887733
0.586415 0.902615
0.568671 0.909950
0.537422 0.914449
0.511647 0.911736
0.486457 0.904479
0.458589 0.891049
0.451164 0.903175
0.443334 0.914059
0.474166 0.931511
0.480865 0.918337
0.508224 0.927044
0.536902 0.930246
0.570726 0.926147
0.591815 0.917879
0.598738 0.932647
0.573512 0.942007
0.536446 0.945834
0.504406 0.942142
0.438737 0.884426
0.467049 0.914302
0.499542 0.933017
0.533971 0.943963
0.574979 0.946274
0.603536 0.939056
0.629372 0.929006
0.653394 0.913310
0.669861 0.895006
0.674241 0.879458
0.672145 0.876631
0.670397 0.873369
0.668571 0.870446
0.654735 0.870319
0.666842 0.867869
0.648111 0.864294
0.665738 0.865240
0.644206 0.859270
0.626559 0.866690
0.621449 0.859038
0.608614 0.874537
0.606506 0.864516
0.591474 0.868242
0.592124 0.878852
0.577334 0.871702
0.576625 0.882884
0.551127 0.873627
0.548191 0.884382
0.529372 0.868052
0.524818 0.877759
0.508680 0.855469
0.500104 0.861938
0.489803 0.840100
0.479379 0.843476
0.463770 0.845957
0.450530 0.854268
0.441840 0.868111
0.472506 0.899520
0.505319 0.920280
0.536812 0.930315
0.575220 0.931379
0.599631 0.924097
0.624291 0.915660
0.619099 0.900530
0.633195 0.877110
0.610803 0.888355
0.596833 0.907598
0.575903 0.914263
0.540152 0.914362
0.512118 0.905386
0.480070 0.883765
0.489331 0.870239
0.518950 0.890485
0.543893 0.898346
0.573710 0.898519
0.591687 0.893597
0.406039 0.862053
0.662175 0.856625
0.663999 0.858711
0.665411 0.860620
0.666759 0.862856
0.668377 0.865914
0.420359 0.834050
0.676367 0.881529
0.673005 0.871204
0.674030 0.873369
0.675095 0.876209
0.422482 0.859847
0.434996 0.895229
0.461525 0.924068
0.495164 0.942772
0.531815 0.954434
0.574583 0.957460
0.606666 0.950277
0.633743 0.939114
0.657316 0.921722
0.671863 0.901476
0.669556 0.867392
0.671585 0.869320
0.424183 0.825455
0.514687 0.896127
0.537422 0.914449
0.511647 0.911736
</float_array>
          <technique_common>
            <accessor source="#SM_Seaslug_01_LOD0-UV0-array" count="231" stride="2">
              <param name="S" type="float"/>
              <param name="T" type="float"/>
            </accessor>
          </technique_common>
        </source>
        <vertices id="SM_Seaslug_01_LOD0-VERTEX">
          <input semantic="POSITION" source="#SM_Seaslug_01_LOD0-POSITION"/>
        </vertices>
        <triangles count="392" material="MAT_Sea_Shells">
          <input semantic="VERTEX" offset="0" source="#SM_Seaslug_01_LOD0-VERTEX"/>
          <input semantic="NORMAL" offset="1" source="#SM_Seaslug_01_LOD0-Normal0"/>
          <input semantic="TEXCOORD" offset="2" set="0" source="#SM_Seaslug_01_LOD0-UV0"/>
          <p> 0 0 2 161 1 1 158 2 0 0 3 2 138 4 3 161 5 1 2 6 6 3 7 5 1 8 4 4 9 7 3 10 5 2 11 6 4 12 7 5 13 8 3 14 5 187 15 9 5 16 8 4 17 7 187 18 9 6 19 10 5 20 8 7 21 11 6 22 10 187 23 9 8 24 12 6 25 10 7 26 11 8 27 12 151 28 13 6 29 10 124 30 14 151 31 13 8 32 12 124 33 14 9 34 15 151 35 13 188 36 19 12 37 16 11 38 17 11 39 17 10 40 18 188 41 19 12 42 16 14 43 20 13 44 21 13 45 21 11 46 17 12 47 16 15 48 22 13 49 21 14 50 20 13 51 21 15 52 22 127 53 23 128 54 25 127 55 23 83 56 24 15 57 22 83 58 24 127 59 23 16 60 27 128 61 25 81 62 26 83 63 24 81 64 26 128 65 25 131 66 29 81 67 26 17 68 28 81 69 26 131 70 29 16 71 27 18 72 31 17 73 28 78 74 30 17 75 28 18 76 31 131 77 29 133 78 33 78 79 30 76 80 32 78 81 30 133 82 33 18 83 31 76 84 32 19 85 34 133 86 33 19 87 34 20 88 35 133 89 33 21 90 37 20 91 35 64 92 36 19 93 34 64 94 36 20 95 35 135 96 39 21 97 37 189 98 38 64 99 36 189 100 38 21 101 37 1 102 40 22 103 41 2 104 42 1 105 40 41 106 43 22 107 41 23 108 44 41 109 43 1 110 40 39 111 45 41 112 43 23 113 44 24 114 46 39 115 45 23 116 44 38 117 47 39 118 45 24 119 46 26 120 48 38 121 47 24 122 46 25 123 49 38 124 47 26 125 48 146 126 50 25 127 49 26 128 48 36 129 51 25 130 49 146 131 50 27 132 52 36 133 51 146 134 50 35 135 53 36 136 51 27 137 52 143 138 54 35 139 53 27 140 52 33 141 55 35 142 53 143 143 54 28 144 56 33 145 55 143 146 54 29 147 57 28 148 56 143 149 54 31 150 58 28 151 56 29 152 57 142 153 59 31 154 58 29 155 57 30 156 60 31 157 58 142 158 59 141 159 61 30 160 60 142 161 59 192 162 62 30 163 60 141 164 61 192 165 62 141 166 61 191 167 63 54 168 64 30 169 60 192 170 62 54 171 64 32 172 65 30 173 60 32 174 65 31 175 58 30 176 60 32 177 65 52 178 66 31 179 58 52 180 66 28 181 56 31 182 58 52 183 66 51 184 67 28 185 56 51 186 67 33 187 55 28 188 56 51 189 67 34 190 68 33 191 55 34 192 68 35 193 53 33 194 55 34 195 68 49 196 69 35 197 53 49 198 69 36 199 51 35 200 53 49 201 69 46 202 70 36 203 51 46 204 70 25 205 49 36 206 51 46 207 70 45 208 71 25 209 49 45 210 71 37 211 72 25 212 49 37 213 72 38 214 47 25 215 49 37 216 72 43 217 73 38 218 47 43 219 73 39 220 45 38 221 47 43 222 73 40 223 74 39 224 45 40 225 74 41 226 43 39 227 45 40 228 74 42 229 75 41 230 43 41 231 43 42 232 75 22 233 41 91 234 76 42 235 75 40 236 74 43 237 73 91 238 76 40 239 74 44 240 77 91 241 76 43 242 73 37 243 72 44 244 77 43 245 73 93 246 78 44 247 77 37 248 72 45 249 71 93 250 78 37 251 72 96 252 79 93 253 78 45 254 71 47 255 80 96 256 79 45 257 71 46 258 70 47 259 80 45 260 71 48 261 81 47 262 80 46 263 70 49 264 69 48 265 81 46 266 70 98 267 82 48 268 81 49 269 69 34 270 68 98 271 82 49 272 69 50 273 83 98 274 82 34 275 68 51 276 67 50 277 83 34 278 68 70 279 84 50 280 83 51 281 67 52 282 66 70 283 84 51 284 67 53 285 85 70 286 84 52 287 66 32 288 65 53 289 85 52 290 66 54 291 64 53 292 85 32 293 65 55 294 86 53 295 85 54 296 64 69 297 87 53 298 85 55 299 86 57 300 88 69 301 87 55 302 86 56 303 89 69 304 87 57 305 88 58 306 90 56 307 89 57 308 88 59 309 91 56 310 89 58 311 90 60 312 92 56 313 89 59 314 91 61 315 93 60 316 92 59 317 91 62 318 94 60 319 92 61 320 93 63 321 95 62 322 94 61 323 93 65 324 96 62 325 94 63 326 95 63 327 95 64 328 36 65 329 96 64 330 36 63 331 95 189 332 38 19 333 34 65 334 96 64 335 36 66 336 97 65 337 96 19 338 34 66 339 97 62 340 94 65 341 96 66 342 97 67 343 98 62 344 94 67 345 98 60 346 92 62 347 94 67 348 98 68 349 99 60 350 92 68 351 99 56 352 89 60 353 92 68 354 99 73 355 100 56 356 89 73 357 100 69 358 87 56 359 89 73 360 100 72 361 101 69 362 87 72 363 101 53 364 85 69 365 87 72 366 101 70 367 84 53 368 85 72 369 101 50 370 83 70 371 84 71 372 102 50 373 83 72 374 101 73 375 100 71 376 102 72 377 101 74 378 103 71 379 102 73 380 100 117 381 104 74 382 103 73 383 100 68 384 99 117 385 104 73 386 100 118 387 105 117 388 104 68 389 99 67 390 98 118 391 105 68 392 99 75 393 106 118 394 105 67 395 98 66 396 97 75 397 106 67 398 98 76 399 32 75 400 106 66 401 97 76 402 32 66 403 97 19 404 34 77 405 107 75 406 106 76 407 32 78 408 30 77 409 107 76 410 32 79 411 108 77 412 107 78 413 30 17 414 28 79 415 108 78 416 30 80 417 109 79 418 108 17 419 28 81 420 26 80 421 109 17 422 28 82 423 110 80 424 109 81 425 26 83 426 24 82 427 110 81 428 26 106 429 111 82 430 110 83 431 24 15 432 22 106 433 111 83 434 24 84 435 112 106 436 111 15 437 22 14 438 20 84 439 112 15 440 22 85 441 113 84 442 112 14 443 20 12 444 16 85 445 113 14 446 20 87 447 114 85 448 113 12 449 16 87 450 114 12 451 16 188 452 19 86 453 115 85 454 113 87 455 114 183 456 116 86 457 115 87 458 114 102 459 117 86 460 115 183 461 116 88 462 118 102 463 117 183 464 116 92 465 119 102 466 117 88 467 118 184 468 120 92 469 119 88 470 118 185 471 121 92 472 119 184 473 120 89 474 122 92 475 119 185 476 121 90 477 123 89 478 122 185 479 121 91 480 76 89 481 122 90 482 123 42 483 75 91 484 76 90 485 123 91 486 76 101 487 124 89 488 122 101 489 124 92 490 119 89 491 122 44 492 77 101 493 124 91 494 76 93 495 78 101 496 124 44 497 77 94 498 125 101 499 124 93 500 78 96 501 79 94 502 125 93 503 78 100 504 126 94 505 125 96 506 79 95 507 127 100 508 126 96 509 79 47 510 80 95 511 127 96 512 79 97 513 128 95 514 127 47 515 80 48 516 81 97 517 128 47 518 80 99 519 129 97 520 128 48 521 81 98 522 82 99 523 129 48 524 81 50 525 83 99 526 129 98 527 82 71 528 102 99 529 129 50 530 83 74 531 103 99 532 129 71 533 102 116 534 130 99 535 129 74 536 103 116 537 130 97 538 128 99 539 129 116 540 130 114 541 131 97 542 128 114 543 131 95 544 127 97 545 128 114 546 131 112 547 132 95 548 127 112 549 132 100 550 126 95 551 127 112 552 229 110 553 230 100 554 228 110 555 133 108 556 134 100 557 126 108 558 134 94 559 125 100 560 126 108 561 134 104 562 135 94 563 125 104 564 135 101 565 124 94 566 125 104 567 135 92 568 119 101 569 124 104 570 135 102 571 117 92 572 119 104 573 135 103 574 136 102 575 117 108 576 134 103 577 136 104 578 135 103 579 136 86 580 115 102 581 117 103 582 136 105 583 137 86 584 115 105 585 137 85 586 113 86 587 115 105 588 137 84 589 112 85 590 113 105 591 137 106 592 111 84 593 112 105 594 137 107 595 138 106 596 111 103 597 136 107 598 138 105 599 137 121 600 139 107 601 138 103 602 136 108 603 134 121 604 139 103 605 136 109 606 140 121 607 139 108 608 134 110 609 133 109 610 140 108 611 134 111 612 141 109 613 140 110 614 133 112 615 132 111 616 141 110 617 133 113 618 142 111 619 141 112 620 132 114 621 131 113 622 142 112 623 132 115 624 143 113 625 142 114 626 131 116 627 130 115 628 143 114 629 131 117 630 104 115 631 143 116 632 130 117 633 104 116 634 130 74 635 103 118 636 105 115 637 143 117 638 104 119 639 144 115 640 143 118 641 105 119 642 144 113 643 142 115 644 143 75 645 106 119 646 144 118 647 105 77 648 107 119 649 144 75 650 106 120 651 145 119 652 144 77 653 107 120 654 145 113 655 142 119 656 144 120 657 145 111 658 141 113 659 142 120 660 145 123 661 146 111 662 141 123 663 146 109 664 140 111 665 141 123 666 146 122 667 147 109 668 140 122 669 147 121 670 139 109 671 140 122 672 147 107 673 138 121 674 139 122 675 147 82 676 110 107 677 138 107 678 138 82 679 110 106 680 111 80 681 109 82 682 110 122 683 147 123 684 146 80 685 109 122 686 147 123 687 146 79 688 108 80 689 109 120 690 145 79 691 108 123 692 146 120 693 145 77 694 107 79 695 108 9 696 15 124 697 14 10 698 210 10 699 210 11 700 215 9 701 15 11 702 215 13 703 216 125 704 148 125 705 148 9 706 15 11 707 215 126 708 149 125 709 148 13 710 216 126 711 149 13 712 216 127 713 217 127 714 217 129 715 150 126 716 149 129 717 150 127 718 217 128 719 218 128 720 218 16 721 219 129 722 150 129 723 150 16 724 219 130 725 151 16 726 219 131 727 220 130 728 151 131 729 220 132 730 152 130 731 151 18 732 221 132 733 152 131 734 220 132 735 152 18 736 221 155 737 153 133 738 222 155 739 153 18 740 221 155 741 153 133 742 222 156 743 154 134 744 155 156 745 154 20 746 223 133 747 222 20 748 223 156 749 154 159 750 156 134 751 155 21 752 224 20 753 223 21 754 224 134 755 155 21 756 224 135 757 211 159 758 156 159 759 156 135 760 211 190 761 157 0 762 2 159 763 156 190 764 157 136 765 158 0 766 2 190 767 157 136 768 158 138 769 3 0 770 2 137 771 159 138 772 3 136 773 158 139 774 160 138 775 3 137 776 159 163 777 161 138 778 3 139 779 160 140 780 162 163 781 161 139 782 160 164 783 163 163 784 161 140 785 162 191 786 164 164 787 163 140 788 162 141 789 165 164 790 163 191 791 164 165 792 166 164 793 163 141 794 165 142 795 167 165 796 166 141 797 165 166 798 168 165 799 166 142 800 167 29 801 169 166 802 168 142 803 167 143 804 170 166 805 168 29 806 169 144 807 171 166 808 168 143 809 170 27 810 172 144 811 171 143 812 170 145 813 173 144 814 171 27 815 172 146 816 174 145 817 173 27 818 172 181 819 175 145 820 173 146 821 174 26 822 176 181 823 175 146 824 174 147 825 177 181 826 175 26 827 176 24 828 178 147 829 177 26 830 176 182 831 179 147 832 177 24 833 178 23 834 180 182 835 179 24 836 178 148 837 181 182 838 179 23 839 180 1 840 4 148 841 181 23 842 180 3 843 5 148 844 181 1 845 4 149 846 182 148 847 181 3 848 5 5 849 8 149 850 182 3 851 5 150 852 183 149 853 182 5 854 8 6 855 10 150 856 183 5 857 8 151 858 13 150 859 183 6 860 10 171 861 184 150 862 183 151 863 13 9 864 15 171 865 184 151 866 13 125 867 148 171 868 184 9 869 15 152 870 185 171 871 184 125 872 148 126 873 149 152 874 185 125 875 148 169 876 186 152 877 185 126 878 149 129 879 150 169 880 186 126 881 149 130 882 151 169 883 186 129 884 150 153 885 187 169 886 186 130 887 151 132 888 152 153 889 187 130 890 151 154 891 188 153 892 187 132 893 152 155 894 153 154 895 188 132 896 152 167 897 189 154 898 188 155 899 153 156 900 154 167 901 189 155 902 153 157 903 190 167 904 189 156 905 154 134 906 155 157 907 190 156 908 154 158 909 0 157 910 190 134 911 155 159 912 156 158 913 0 134 914 155 158 915 0 159 916 156 0 917 2 160 918 191 157 919 190 158 920 0 161 921 1 160 922 191 158 923 0 162 924 192 160 925 191 161 926 1 163 927 161 162 928 192 161 929 1 163 930 161 161 931 1 138 932 3 164 933 163 162 934 192 163 935 161 165 936 166 162 937 192 164 938 163 166 939 168 162 940 192 165 941 166 180 942 193 162 943 192 166 944 168 180 945 193 160 946 191 162 947 192 180 948 193 179 949 194 160 950 191 179 951 194 157 952 190 160 953 191 179 954 194 167 955 189 157 956 190 179 957 194 168 958 195 167 959 189 168 960 195 154 961 188 167 962 189 168 963 195 176 964 196 154 965 188 176 966 196 153 967 187 154 968 188 176 969 196 170 970 197 153 971 187 170 972 197 169 973 186 153 974 187 170 975 197 152 976 185 169 977 186 170 978 197 173 979 198 152 980 185 173 981 198 171 982 184 152 983 185 173 984 198 150 985 183 171 986 184 173 987 198 149 988 182 150 989 183 173 990 198 172 991 199 149 992 182 172 993 199 148 994 181 149 995 182 172 996 199 182 997 179 148 998 181 174 999 200 182 1000 179 172 1001 199 173 1002 198 174 1003 200 172 1004 199 170 1005 197 174 1006 200 173 1007 198 176 1008 196 174 1009 200 170 1010 197 175 1011 201 174 1012 200 176 1013 196 168 1014 195 175 1015 201 176 1016 196 177 1017 202 175 1018 201 168 1019 195 179 1020 194 177 1021 202 168 1022 195 178 1023 203 177 1024 202 179 1025 194 180 1026 193 178 1027 203 179 1028 194 144 1029 171 178 1030 203 180 1031 193 144 1032 171 180 1033 193 166 1034 168 145 1035 173 178 1036 203 144 1037 171 145 1038 173 177 1039 202 178 1040 203 181 1041 175 177 1042 202 145 1043 173 181 1044 175 175 1045 201 177 1046 202 147 1047 177 175 1048 201 181 1049 175 147 1050 177 174 1051 200 175 1052 201 174 1053 200 147 1054 177 182 1055 179 87 1056 114 186 1057 204 183 1058 116 186 1059 204 88 1060 118 183 1061 116 186 1062 204 184 1063 120 88 1064 118 186 1065 204 185 1066 121 184 1067 120 186 1068 204 90 1069 123 185 1070 121 186 1071 204 42 1072 75 90 1073 123 186 1074 204 22 1075 41 42 1076 75 186 1077 204 2 1078 42 22 1079 41 186 1080 227 4 1081 7 2 1082 6 186 1083 227 187 1084 9 4 1085 7 186 1086 227 7 1087 11 187 1088 9 186 1089 227 8 1090 12 7 1091 11 186 1092 227 124 1093 14 8 1094 12 186 1095 227 10 1096 210 124 1097 14 186 1098 204 188 1099 19 10 1100 18 188 1101 19 186 1102 204 87 1103 114 194 1104 206 55 1105 86 193 1106 205 193 1107 205 55 1108 86 54 1109 64 191 1110 164 140 1111 162 193 1112 225 139 1113 160 194 1114 226 193 1115 225 139 1116 160 193 1117 225 140 1118 162 195 1119 212 139 1120 160 137 1121 159 139 1122 160 195 1123 212 194 1124 226 137 1125 159 196 1126 213 195 1127 212 196 1128 213 137 1129 159 136 1130 158 136 1131 158 197 1132 214 196 1133 213 197 1134 214 136 1135 158 190 1136 157 197 1137 214 190 1138 157 135 1139 211 193 1140 205 54 1141 64 192 1142 62 192 1143 62 191 1144 63 193 1145 205 195 1146 207 57 1147 88 194 1148 206 55 1149 86 194 1150 206 57 1151 88 57 1152 88 196 1153 208 58 1154 90 196 1155 208 57 1156 88 195 1157 207 58 1158 90 196 1159 208 59 1160 91 59 1161 91 196 1162 208 197 1163 209 197 1164 209 61 1165 93 59 1166 91 61 1167 93 197 1168 209 63 1169 95 197 1170 209 189 1171 38 63 1172 95 189 1173 38 197 1174 209 135 1175 39</p>
        </triangles>
      </mesh>
    </geometry>
    <geometry id="SM_Seaslug_01_LOD1-lib" name="SM_Seaslug_01_LOD1Mesh">
      <mesh>
        <source id="SM_Seaslug_01_LOD1-POSITION">
          <float_array id="SM_Seaslug_01_LOD1-POSITION-array" count="249">
-10.543556 -0.180412 2.044258
9.790695 22.282681 1.985410
8.689713 -24.278557 1.706158
-5.848610 -2.084334 10.884145
4.932037 1.895848 2.028789
-3.094238 16.963127 8.637168
-2.383598 -20.136393 1.488986
-0.167648 -10.853020 11.342874
10.676941 17.797213 1.684355
0.224625 -0.579542 10.882186
-5.138489 17.144831 2.042888
4.541595 23.071312 5.951320
4.795425 1.333891 6.694868
9.436615 13.099730 6.246732
10.668869 -22.519102 1.667898
-9.803085 -0.151661 7.782646
3.850494 24.323948 1.632594
-7.214546 -14.444703 5.517448
9.786469 -20.765148 0.296712
8.586746 -10.782687 1.618430
4.978455 -22.531693 5.232721
-9.736786 7.935509 2.026928
-4.869881 18.747627 4.337036
8.732010 -12.330922 6.666774
9.680313 -23.101030 3.277784
-11.161438 -0.204316 4.401278
3.686508 16.589439 9.569094
7.846741 21.502529 0.952353
7.364914 14.457298 8.125534
-5.125542 7.338804 10.858922
3.030090 -0.481147 1.005623
-6.928688 -14.296153 2.046506
3.865494 -23.405203 1.361283
-0.777565 22.164127 5.045194
7.654907 24.261932 1.949421
-1.908180 -20.090319 6.013990
-5.370972 -13.455535 9.118516
-2.951073 17.131493 1.037529
-10.398445 8.010391 4.385268
5.948349 -4.137903 4.360559
10.414322 17.908443 5.127693
11.080093 -18.005053 3.111651
-8.992004 7.909435 7.765131
5.018585 -3.467677 2.044261
3.550903 -23.609373 3.244218
9.267288 22.525806 3.647402
5.161484 -14.941882 9.066090
-0.285660 -19.673885 0.577728
7.522781 20.328281 6.847566
-7.866737 5.757139 0.964481
7.954620 -13.176624 0.621196
9.674850 13.333754 2.156196
3.343796 24.362392 3.251728
1.076866 20.217890 7.988022
5.597183 2.001331 4.373831
-9.884697 -7.539098 5.172894
10.041397 -18.790642 5.091338
9.792130 -11.543933 3.652995
1.159019 -17.863153 8.682417
-5.184074 17.120857 6.658590
-1.849007 6.833321 11.471133
10.718628 -18.053123 1.374601
6.898270 -22.941128 0.386214
-7.786613 -6.965866 9.124008
-0.331833 22.189480 2.108242
-2.709396 -20.667164 3.615079
-6.706833 -9.754923 0.991396
-0.469101 15.992928 9.946881
4.058563 -16.458536 0.026439
9.521820 22.717243 1.395107
5.327560 -4.241673 6.681840
3.696579 -4.887493 9.072185
2.841217 0.769615 9.115521
-9.488510 -7.430810 2.044256
9.899063 12.738064 4.238817
-7.964828 14.029736 4.361896
7.932495 -20.353310 5.842862
2.697556 -9.546398 10.642330
-0.731247 14.276251 0.650055
-0.825500 -3.517434 0.569319
-2.777809 -1.705566 11.502431
8.245850 -24.310036 2.653943
-3.002113 -12.233677 10.823818
</float_array>
          <technique_common>
            <accessor source="#SM_Seaslug_01_LOD1-POSITION-array" count="83" stride="3">
              <param name="X" type="float"/>
              <param name="Y" type="float"/>
              <param name="Z" type="float"/>
            </accessor>
          </technique_common>
        </source>
        <source id="SM_Seaslug_01_LOD1-Normal0">
          <float_array id="SM_Seaslug_01_LOD1-Normal0-array" count="1458">
0.539912 0.007991 0.841683
0.364937 0.014139 0.930925
0.679715 -0.053655 0.731511
0.094166 0.119124 -0.988404
0.000379 0.014578 -0.999894
-0.034871 0.045529 -0.998354
-0.588186 -0.412053 0.695880
-0.948379 -0.259329 0.182553
-0.848773 -0.476428 0.229351
-0.773195 0.210956 0.598053
-0.680974 0.525530 0.509994
-0.892512 0.450949 0.008146
0.762078 0.153472 0.629034
0.390032 -0.197326 0.899410
0.743429 -0.171616 0.646422
0.000379 0.014578 -0.999894
-0.211383 -0.239533 -0.947598
-0.260041 0.046623 -0.964471
-0.515319 0.800190 0.306825
-0.518762 0.668422 -0.533008
-0.628410 0.451241 -0.633627
0.231063 0.243408 0.941999
0.364937 0.014139 0.930925
0.539912 0.007991 0.841683
-0.430908 -0.700659 0.568679
-0.273516 -0.941883 0.195050
0.025510 -0.690471 0.722910
0.000379 0.014578 -0.999894
-0.011252 0.005351 -0.999922
-0.211383 -0.239533 -0.947598
-0.773195 0.210956 0.598053
-0.406909 0.146284 0.901679
-0.451651 0.486526 0.747866
-0.031170 -0.504316 0.862956
-0.588186 -0.412053 0.695880
-0.430908 -0.700659 0.568679
0.450729 0.411139 0.792344
0.891906 0.129996 0.433133
0.703202 0.582184 0.408129
0.094166 0.119124 -0.988404
-0.034871 0.045529 -0.998354
-0.154087 0.757324 -0.634601
0.674406 0.156400 0.721606
0.390032 -0.197326 0.899410
0.762078 0.153472 0.629034
-0.021405 -0.007875 0.999740
-0.418028 -0.023057 0.908141
0.072569 -0.143656 0.986963
-0.997895 -0.026019 0.059406
-0.807102 -0.002723 0.590406
-0.970482 0.234360 0.056927
-0.755414 -0.025207 -0.654762
-0.260041 0.046623 -0.964471
-0.285329 -0.091421 -0.954059
-0.124670 0.312706 0.941633
0.048648 0.065216 0.996685
0.231063 0.243408 0.941999
-0.515319 0.800190 0.306825
0.086001 0.745225 0.661244
-0.204277 0.964602 0.166776
0.762078 0.153472 0.629034
0.991147 0.045730 0.124648
0.948073 0.317946 -0.008237
0.820200 -0.180027 0.543013
0.871944 -0.101122 0.479050
0.982297 -0.187172 0.007745
0.736124 -0.226047 -0.637985
0.958094 -0.282585 0.046930
0.826374 -0.197848 -0.527221
0.703202 0.582184 0.408129
0.891906 0.129996 0.433133
0.797126 -0.028269 -0.603151
0.612870 -0.586211 0.529855
0.025510 -0.690471 0.722910
0.165649 -0.933731 0.317342
-0.211383 -0.239533 -0.947598
-0.011252 0.005351 -0.999922
0.015843 -0.444614 -0.895582
-0.807102 -0.002723 0.590406
-0.948379 -0.259329 0.182553
-0.696056 -0.181846 0.694578
-0.773195 0.210956 0.598053
-0.418028 -0.023057 0.908141
-0.406909 0.146284 0.901679
-0.204277 0.964602 0.166776
0.086001 0.745225 0.661244
0.320431 0.892590 -0.317185
0.094166 0.119124 -0.988404
-0.154087 0.757324 -0.634601
0.320431 0.892590 -0.317185
-0.273516 -0.941883 0.195050
-0.430908 -0.700659 0.568679
-0.622985 -0.781364 0.036872
-0.736866 -0.388738 -0.553093
-0.848773 -0.476428 0.229351
-0.948379 -0.259329 0.182553
0.847934 -0.455782 -0.270685
0.015843 -0.444614 -0.895582
0.448093 -0.125069 -0.885195
0.833166 0.139238 -0.535208
0.333488 0.138159 -0.932576
0.732781 0.315823 -0.602733
0.868721 0.282309 -0.406972
0.962688 0.270471 0.008842
0.732781 0.315823 -0.602733
0.333488 0.138159 -0.932576
0.297129 0.004239 -0.954828
0.732781 0.315823 -0.602733
0.390032 -0.197326 0.899410
0.025510 -0.690471 0.722910
0.356671 -0.415131 0.836930
0.072569 -0.143656 0.986963
-0.261221 -0.287101 0.921595
-0.031170 -0.504316 0.862956
-0.628410 0.451241 -0.633627
-0.892512 0.450949 0.008146
-0.711249 0.701761 -0.040692
-0.034871 0.045529 -0.998354
0.000379 0.014578 -0.999894
-0.260041 0.046623 -0.964471
-0.680974 0.525530 0.509994
-0.451651 0.486526 0.747866
-0.149287 0.582695 0.798861
-0.773195 0.210956 0.598053
-0.451651 0.486526 0.747866
-0.680974 0.525530 0.509994
0.674406 0.156400 0.721606
0.762078 0.153472 0.629034
0.867588 0.221949 0.445004
0.762078 0.153472 0.629034
0.948073 0.317946 -0.008237
0.962688 0.270471 0.008842
0.336202 -0.864966 -0.372561
0.847934 -0.455782 -0.270685
0.612870 -0.586211 0.529855
0.762078 0.153472 0.629034
0.743429 -0.171616 0.646422
0.991147 0.045730 0.124648
-0.948379 -0.259329 0.182553
-0.788013 -0.198603 -0.582746
-0.736866 -0.388738 -0.553093
-0.755414 -0.025207 -0.654762
-0.997895 -0.026019 0.059406
-0.970482 0.234360 0.056927
0.086001 0.745225 0.661244
0.450729 0.411139 0.792344
0.703202 0.582184 0.408129
-0.149287 0.582695 0.798861
-0.124670 0.312706 0.941633
0.231063 0.243408 0.941999
0.297129 0.004239 -0.954828
0.094166 0.119124 -0.988404
0.736124 -0.226047 -0.637985
0.797126 -0.028269 -0.603151
0.094166 0.119124 -0.988404
0.622911 0.535293 -0.570476
0.820200 -0.180027 0.543013
0.539912 0.007991 0.841683
0.871944 -0.101122 0.479050
0.891906 0.129996 0.433133
0.958094 -0.282585 0.046930
0.797126 -0.028269 -0.603151
-0.021405 -0.007875 0.999740
0.072569 -0.143656 0.986963
0.364937 0.014139 0.930925
0.048648 0.065216 0.996685
0.364937 0.014139 0.930925
0.231063 0.243408 0.941999
0.297129 0.004239 -0.954828
0.736124 -0.226047 -0.637985
0.826374 -0.197848 -0.527221
0.732781 0.315823 -0.602733
0.297129 0.004239 -0.954828
0.868721 0.282309 -0.406972
-0.260041 0.046623 -0.964471
-0.211383 -0.239533 -0.947598
-0.285329 -0.091421 -0.954059
-0.622985 -0.781364 0.036872
-0.848773 -0.476428 0.229351
-0.736866 -0.388738 -0.553093
0.336202 -0.864966 -0.372561
0.015843 -0.444614 -0.895582
0.847934 -0.455782 -0.270685
0.025510 -0.690471 0.722910
-0.273516 -0.941883 0.195050
0.165649 -0.933731 0.317342
-0.515319 0.800190 0.306825
-0.680974 0.525530 0.509994
-0.149287 0.582695 0.798861
-0.628410 0.451241 -0.633627
-0.711249 0.701761 -0.040692
-0.515319 0.800190 0.306825
0.622911 0.535293 -0.570476
0.094166 0.119124 -0.988404
0.320431 0.892590 -0.317185
0.320431 0.892590 -0.317185
0.086001 0.745225 0.661244
0.703202 0.582184 0.408129
-0.430908 -0.700659 0.568679
-0.588186 -0.412053 0.695880
-0.848773 -0.476428 0.229351
-0.622985 -0.781364 0.036872
-0.430908 -0.700659 0.568679
-0.848773 -0.476428 0.229351
-0.418028 -0.023057 0.908141
-0.261221 -0.287101 0.921595
0.072569 -0.143656 0.986963
-0.696056 -0.181846 0.694578
-0.948379 -0.259329 0.182553
-0.588186 -0.412053 0.695880
-0.628410 0.451241 -0.633627
-0.243630 0.212545 -0.946292
-0.260041 0.046623 -0.964471
-0.243630 0.212545 -0.946292
-0.628410 0.451241 -0.633627
-0.518762 0.668422 -0.533008
-0.970482 0.234360 0.056927
-0.735599 0.207674 -0.644798
-0.755414 -0.025207 -0.654762
-0.892512 0.450949 0.008146
-0.628410 0.451241 -0.633627
-0.735599 0.207674 -0.644798
0.679715 -0.053655 0.731511
0.674406 0.156400 0.721606
0.867588 0.221949 0.445004
0.871944 -0.101122 0.479050
0.962688 0.270471 0.008842
0.982297 -0.187172 0.007745
0.891906 0.129996 0.433133
0.539912 0.007991 0.841683
0.820200 -0.180027 0.543013
0.539912 0.007991 0.841683
0.891906 0.129996 0.433133
0.450729 0.411139 0.792344
0.743429 -0.171616 0.646422
0.847934 -0.455782 -0.270685
0.991147 0.045730 0.124648
0.732781 0.315823 -0.602733
0.991147 0.045730 0.124648
0.833166 0.139238 -0.535208
-0.773195 0.210956 0.598053
-0.807102 -0.002723 0.590406
-0.418028 -0.023057 0.908141
-0.807102 -0.002723 0.590406
-0.773195 0.210956 0.598053
-0.970482 0.234360 0.056927
0.826374 -0.197848 -0.527221
0.962688 0.270471 0.008842
0.868721 0.282309 -0.406972
0.868721 0.282309 -0.406972
0.297129 0.004239 -0.954828
0.826374 -0.197848 -0.527221
0.336202 -0.864966 -0.372561
-0.273516 -0.941883 0.195050
-0.282435 -0.792842 -0.540029
-0.531983 -0.572892 -0.623529
-0.282435 -0.792842 -0.540029
-0.273516 -0.941883 0.195050
0.703202 0.582184 0.408129
0.797126 -0.028269 -0.603151
0.913568 0.404646 0.040671
0.913568 0.404646 0.040671
0.320431 0.892590 -0.317185
0.703202 0.582184 0.408129
0.459662 0.023168 0.887792
0.390032 -0.197326 0.899410
0.674406 0.156400 0.721606
0.072569 -0.143656 0.986963
-0.031170 -0.504316 0.862956
0.390032 -0.197326 0.899410
-0.282435 -0.792842 -0.540029
-0.531983 -0.572892 -0.623529
-0.211383 -0.239533 -0.947598
-0.285329 -0.091421 -0.954059
-0.211383 -0.239533 -0.947598
-0.531983 -0.572892 -0.623529
0.231063 0.243408 0.941999
0.539912 0.007991 0.841683
0.450729 0.411139 0.792344
-0.149287 0.582695 0.798861
0.231063 0.243408 0.941999
0.450729 0.411139 0.792344
-0.260041 0.046623 -0.964471
-0.755414 -0.025207 -0.654762
-0.735599 0.207674 -0.644798
-0.260041 0.046623 -0.964471
-0.735599 0.207674 -0.644798
-0.628410 0.451241 -0.633627
-0.011252 0.005351 -0.999922
0.000379 0.014578 -0.999894
0.333488 0.138159 -0.932576
0.448093 -0.125069 -0.885195
0.333488 0.138159 -0.932576
0.833166 0.139238 -0.535208
0.736124 -0.226047 -0.637985
0.094166 0.119124 -0.988404
0.797126 -0.028269 -0.603151
0.797126 -0.028269 -0.603151
0.958094 -0.282585 0.046930
0.736124 -0.226047 -0.637985
-0.518762 0.668422 -0.533008
-0.515319 0.800190 0.306825
-0.204277 0.964602 0.166776
-0.154087 0.757324 -0.634601
-0.204277 0.964602 0.166776
0.320431 0.892590 -0.317185
-0.149287 0.582695 0.798861
0.450729 0.411139 0.792344
0.086001 0.745225 0.661244
-0.515319 0.800190 0.306825
-0.149287 0.582695 0.798861
0.086001 0.745225 0.661244
0.982297 -0.187172 0.007745
0.962688 0.270471 0.008842
0.826374 -0.197848 -0.527221
0.958094 -0.282585 0.046930
0.982297 -0.187172 0.007745
0.826374 -0.197848 -0.527221
-0.788013 -0.198603 -0.582746
-0.948379 -0.259329 0.182553
-0.997895 -0.026019 0.059406
-0.948379 -0.259329 0.182553
-0.807102 -0.002723 0.590406
-0.997895 -0.026019 0.059406
0.356671 -0.415131 0.836930
0.025510 -0.690471 0.722910
0.612870 -0.586211 0.529855
0.847934 -0.455782 -0.270685
0.743429 -0.171616 0.646422
0.612870 -0.586211 0.529855
0.948073 0.317946 -0.008237
0.991147 0.045730 0.124648
0.732781 0.315823 -0.602733
0.962688 0.270471 0.008842
0.948073 0.317946 -0.008237
0.732781 0.315823 -0.602733
0.390032 -0.197326 0.899410
-0.031170 -0.504316 0.862956
0.025510 -0.690471 0.722910
-0.031170 -0.504316 0.862956
-0.430908 -0.700659 0.568679
0.025510 -0.690471 0.722910
-0.892512 0.450949 0.008146
-0.680974 0.525530 0.509994
-0.711249 0.701761 -0.040692
-0.711249 0.701761 -0.040692
-0.680974 0.525530 0.509994
-0.515319 0.800190 0.306825
-0.124670 0.312706 0.941633
-0.406909 0.146284 0.901679
0.048648 0.065216 0.996685
-0.406909 0.146284 0.901679
-0.418028 -0.023057 0.908141
-0.021405 -0.007875 0.999740
0.833166 0.139238 -0.535208
0.991147 0.045730 0.124648
0.847934 -0.455782 -0.270685
0.847934 -0.455782 -0.270685
0.448093 -0.125069 -0.885195
0.833166 0.139238 -0.535208
-0.211383 -0.239533 -0.947598
0.015843 -0.444614 -0.895582
-0.282435 -0.792842 -0.540029
0.336202 -0.864966 -0.372561
-0.282435 -0.792842 -0.540029
0.015843 -0.444614 -0.895582
-0.696056 -0.181846 0.694578
-0.261221 -0.287101 0.921595
-0.418028 -0.023057 0.908141
-0.807102 -0.002723 0.590406
-0.696056 -0.181846 0.694578
-0.418028 -0.023057 0.908141
-0.243630 0.212545 -0.946292
-0.518762 0.668422 -0.533008
-0.154087 0.757324 -0.634601
-0.204277 0.964602 0.166776
-0.154087 0.757324 -0.634601
-0.518762 0.668422 -0.533008
-0.736866 -0.388738 -0.553093
-0.531983 -0.572892 -0.623529
-0.622985 -0.781364 0.036872
-0.273516 -0.941883 0.195050
-0.622985 -0.781364 0.036872
-0.531983 -0.572892 -0.623529
-0.736866 -0.388738 -0.553093
-0.788013 -0.198603 -0.582746
-0.285329 -0.091421 -0.954059
-0.531983 -0.572892 -0.623529
-0.736866 -0.388738 -0.553093
-0.285329 -0.091421 -0.954059
-0.451651 0.486526 0.747866
-0.406909 0.146284 0.901679
-0.124670 0.312706 0.941633
-0.451651 0.486526 0.747866
-0.124670 0.312706 0.941633
-0.149287 0.582695 0.798861
-0.011252 0.005351 -0.999922
0.333488 0.138159 -0.932576
0.448093 -0.125069 -0.885195
0.015843 -0.444614 -0.895582
-0.011252 0.005351 -0.999922
0.448093 -0.125069 -0.885195
0.913568 0.404646 0.040671
0.622911 0.535293 -0.570476
0.320431 0.892590 -0.317185
0.913568 0.404646 0.040671
0.797126 -0.028269 -0.603151
0.622911 0.535293 -0.570476
0.871944 -0.101122 0.479050
0.867588 0.221949 0.445004
0.962688 0.270471 0.008842
0.867588 0.221949 0.445004
0.762078 0.153472 0.629034
0.962688 0.270471 0.008842
0.679715 -0.053655 0.731511
0.364937 0.014139 0.930925
0.674406 0.156400 0.721606
0.364937 0.014139 0.930925
0.459662 0.023168 0.887792
0.674406 0.156400 0.721606
0.871944 -0.101122 0.479050
0.679715 -0.053655 0.731511
0.867588 0.221949 0.445004
0.539912 0.007991 0.841683
0.679715 -0.053655 0.731511
0.871944 -0.101122 0.479050
-0.997895 -0.026019 0.059406
-0.755414 -0.025207 -0.654762
-0.788013 -0.198603 -0.582746
-0.285329 -0.091421 -0.954059
-0.788013 -0.198603 -0.582746
-0.755414 -0.025207 -0.654762
0.820200 -0.180027 0.543013
0.982297 -0.187172 0.007745
0.958094 -0.282585 0.046930
0.891906 0.129996 0.433133
0.820200 -0.180027 0.543013
0.958094 -0.282585 0.046930
-0.970482 0.234360 0.056927
-0.773195 0.210956 0.598053
-0.892512 0.450949 0.008146
-0.735599 0.207674 -0.644798
-0.970482 0.234360 0.056927
-0.892512 0.450949 0.008146
0.743429 -0.171616 0.646422
0.356671 -0.415131 0.836930
0.612870 -0.586211 0.529855
0.743429 -0.171616 0.646422
0.390032 -0.197326 0.899410
0.356671 -0.415131 0.836930
0.072569 -0.143656 0.986963
0.390032 -0.197326 0.899410
0.459662 0.023168 0.887792
0.072569 -0.143656 0.986963
0.459662 0.023168 0.887792
0.364937 0.014139 0.930925
-0.154087 0.757324 -0.634601
-0.034871 0.045529 -0.998354
-0.243630 0.212545 -0.946292
-0.034871 0.045529 -0.998354
-0.260041 0.046623 -0.964471
-0.243630 0.212545 -0.946292
0.297129 0.004239 -0.954828
0.000379 0.014578 -0.999894
0.094166 0.119124 -0.988404
0.000379 0.014578 -0.999894
0.297129 0.004239 -0.954828
0.333488 0.138159 -0.932576
0.048648 0.065216 0.996685
-0.021405 -0.007875 0.999740
0.364937 0.014139 0.930925
0.048648 0.065216 0.996685
-0.406909 0.146284 0.901679
-0.021405 -0.007875 0.999740
0.165649 -0.933731 0.317342
-0.273516 -0.941883 0.195050
0.336202 -0.864966 -0.372561
0.336202 -0.864966 -0.372561
0.612870 -0.586211 0.529855
0.165649 -0.933731 0.317342
-0.261221 -0.287101 0.921595
-0.588186 -0.412053 0.695880
-0.031170 -0.504316 0.862956
-0.696056 -0.181846 0.694578
-0.588186 -0.412053 0.695880
-0.261221 -0.287101 0.921595
</float_array>
          <technique_common>
            <accessor source="#SM_Seaslug_01_LOD1-Normal0-array" count="486" stride="3">
              <param name="X" type="float"/>
              <param name="Y" type="float"/>
              <param name="Z" type="float"/>
            </accessor>
          </technique_common>
        </source>
        <source id="SM_Seaslug_01_LOD1-UV0">
          <float_array id="SM_Seaslug_01_LOD1-UV0-array" count="204">
0.660605 0.855158
0.535895 0.983974
0.402836 0.869174
0.667959 0.866790
0.421169 0.832229
0.531815 0.954434
0.527399 0.929185
0.545467 0.841602
0.556639 0.873222
0.420282 0.935898
0.434996 0.895229
0.671863 0.901476
0.673695 0.895016
0.486457 0.904479
0.634859 0.953098
0.626660 0.942034
0.617047 0.921840
0.474166 0.931511
0.607490 0.855214
0.638000 0.838655
0.644206 0.859270
0.411965 0.853707
0.433377 0.822626
0.476610 0.834450
0.494293 0.843756
0.651531 0.888995
0.577781 0.967854
0.543519 0.865848
0.534032 0.897853
0.464021 0.948675
0.634069 0.939974
0.413652 0.864070
0.656663 0.862915
0.564972 0.944452
0.616708 0.889596
0.470126 0.859747
0.570726 0.926147
0.422304 0.888026
0.442535 0.831710
0.649254 0.916329
0.514605 0.852457
0.619962 0.859583
0.610710 0.835432
0.542492 0.882322
0.437744 0.920675
0.535807 0.972115
0.471049 0.844213
0.461525 0.924068
0.454681 0.963580
0.660452 0.878094
0.676367 0.881529
0.670770 0.871909
0.568671 0.909950
0.610572 0.869450
0.632338 0.854754
0.498559 0.963729
0.422482 0.859847
0.402587 0.898573
0.620420 0.935048
0.451164 0.903175
0.436917 0.848203
0.574583 0.957460
0.580960 0.979313
0.440057 0.883985
0.536223 0.954061
0.411970 0.896890
0.546960 0.853410
0.529372 0.868052
0.519787 0.841257
0.436697 0.859793
0.512046 0.879171
0.514298 0.864468
0.639152 0.873420
0.627964 0.929553
0.462735 0.882645
0.611851 0.908212
0.607181 0.845473
0.668571 0.870446
0.429213 0.844300
0.485998 0.925216
0.609320 0.956144
0.615255 0.915399
0.428640 0.929268
0.434197 0.839891
0.457794 0.826440
0.480484 0.846212
0.574724 0.950149
0.523338 0.899748
0.528983 0.913561
0.540524 0.881643
0.480865 0.918337
0.495164 0.942772
0.494764 0.979009
0.504406 0.942142
0.634065 0.903908
0.662799 0.921770
0.657316 0.921722
0.431911 0.872254
0.406851 0.872011
0.490551 0.889908
0.665361 0.896278
0.460340 0.864064
</float_array>
          <technique_common>
            <accessor source="#SM_Seaslug_01_LOD1-UV0-array" count="102" stride="2">
              <param name="S" type="float"/>
              <param name="T" type="float"/>
            </accessor>
          </technique_common>
        </source>
        <vertices id="SM_Seaslug_01_LOD1-VERTEX">
          <input semantic="POSITION" source="#SM_Seaslug_01_LOD1-POSITION"/>
        </vertices>
        <triangles count="162" material="MAT_Sea_Shells">
          <input semantic="VERTEX" offset="0" source="#SM_Seaslug_01_LOD1-VERTEX"/>
          <input semantic="NORMAL" offset="1" source="#SM_Seaslug_01_LOD1-Normal0"/>
          <input semantic="TEXCOORD" offset="2" set="0" source="#SM_Seaslug_01_LOD1-UV0"/>
          <p> 28 0 53 9 1 28 72 2 89 27 3 49 79 4 87 78 5 81 36 6 17 55 7 55 17 8 29 42 9 86 59 10 58 75 11 80 23 12 35 46 13 74 56 14 69 79 15 87 47 16 63 49 17 33 33 18 39 64 19 95 10 20 14 26 21 34 9 22 28 28 23 53 35 24 44 44 25 65 20 26 37 79 27 87 68 28 101 47 29 63 42 30 86 29 31 36 5 32 16 58 33 59 36 34 17 35 35 44 48 36 72 40 37 54 45 38 32 27 39 49 78 40 81 16 41 11 71 42 70 46 43 74 23 44 35 80 45 88 3 46 6 7 47 13 25 48 45 15 49 64 38 50 26 0 51 5 49 52 33 66 53 79 67 54 75 60 55 52 26 56 34 33 57 39 11 58 25 52 59 100 23 60 35 41 61 60 57 62 46 13 63 18 12 64 27 54 65 66 51 66 42 74 67 76 4 68 7 45 69 32 40 70 54 8 71 19 24 72 31 20 73 37 81 74 98 47 75 63 68 76 101 62 77 78 15 78 64 55 79 55 63 80 93 42 81 86 3 82 6 29 83 36 52 84 100 11 85 25 34 86 51 27 87 49 16 88 11 34 89 50 44 90 65 35 91 44 65 92 82 31 93 48 17 94 29 55 95 55 14 96 22 62 97 78 18 98 38 61 99 84 50 100 85 19 101 24 43 102 68 39 103 40 19 104 23 50 105 85 30 106 43 19 107 24 46 108 74 20 109 37 76 110 97 7 111 13 82 112 90 58 113 59 10 114 14 75 115 80 22 116 30 78 117 81 79 118 87 49 119 33 59 120 58 5 121 16 53 122 94 42 123 86 5 124 16 59 125 58 71 126 70 23 127 35 70 128 71 23 129 35 57 130 46 39 131 40 2 132 2 14 133 21 24 134 31 23 135 35 56 136 69 41 137 60 55 138 55 73 139 92 31 140 48 0 141 1 25 142 45 38 143 26 11 144 25 48 145 72 45 146 32 53 147 94 67 148 75 26 149 34 30 150 43 27 151 49 51 152 41 8 153 20 27 154 49 69 155 77 13 156 18 28 157 53 12 158 27 40 159 54 74 160 76 8 161 19 80 162 88 7 163 13 9 164 28 60 165 52 9 166 28 26 167 34 30 168 43 51 169 41 4 170 8 19 171 24 30 172 43 43 173 67 49 174 33 47 175 63 66 176 79 65 177 82 17 178 29 31 179 48 2 180 4 62 181 78 14 182 22 20 183 37 44 184 65 81 185 98 33 186 39 59 187 58 53 188 94 10 189 14 22 190 30 33 191 39 69 192 77 27 193 49 34 194 50 34 195 51 11 196 25 45 197 32 35 198 44 36 199 17 17 200 29 65 201 82 35 202 44 17 203 29 3 204 6 82 205 90 7 206 13 63 207 93 55 208 55 36 209 17 10 210 15 37 211 73 49 212 33 37 213 73 10 214 15 64 215 96 38 216 26 21 217 62 0 218 1 75 219 80 10 220 14 21 221 62 72 222 89 71 223 70 70 224 71 12 225 27 39 226 40 54 227 66 40 228 54 28 229 53 13 230 18 28 231 53 40 232 54 48 233 72 56 234 69 14 235 21 41 236 60 19 237 23 41 238 60 61 239 83 42 240 86 15 241 64 3 242 6 15 243 64 42 244 86 38 245 26 4 246 7 39 247 40 43 248 68 43 249 67 30 250 43 4 251 8 2 252 2 44 253 65 32 254 57 6 255 9 32 256 57 44 257 65 45 258 32 8 259 19 1 260 0 1 261 0 34 262 51 45 263 32 77 264 99 46 265 74 71 266 70 7 267 13 58 268 59 46 269 74 32 270 56 6 271 10 47 272 63 66 273 79 47 274 63 6 275 10 26 276 34 28 277 53 48 278 72 53 279 94 26 280 34 48 281 72 49 282 33 0 283 5 21 284 61 49 285 33 21 286 61 10 287 15 68 288 101 79 289 87 50 290 85 18 291 38 50 292 85 61 293 84 51 294 41 27 295 49 8 296 20 8 297 19 74 298 76 51 299 42 64 300 95 33 301 39 52 302 100 16 303 12 52 304 100 34 305 51 53 306 94 48 307 72 11 308 25 33 309 39 53 310 94 11 311 25 54 312 66 39 313 40 4 314 7 74 315 76 54 316 66 4 317 7 73 318 92 55 319 55 25 320 45 55 321 55 15 322 64 25 323 45 76 324 97 20 325 37 24 326 31 14 327 21 56 328 69 24 329 31 57 330 46 41 331 60 19 332 23 39 333 40 57 334 46 19 335 23 46 336 74 58 337 59 20 338 37 58 339 59 35 340 44 20 341 37 75 342 80 59 343 58 22 344 30 22 345 30 59 346 58 33 347 39 67 348 75 29 349 36 60 350 52 29 351 36 3 352 6 80 353 88 61 354 83 41 355 60 14 356 21 14 357 22 18 358 38 61 359 84 47 360 63 62 361 78 32 362 56 2 363 4 32 364 56 62 365 78 63 366 93 82 367 90 3 368 6 15 369 64 63 370 93 3 371 6 37 372 73 64 373 96 16 374 11 52 375 100 16 376 12 64 377 95 31 378 48 6 379 9 65 380 82 44 381 65 65 382 82 6 383 9 31 384 47 73 385 91 66 386 79 6 387 10 31 388 47 66 389 79 5 390 16 29 391 36 67 392 75 5 393 16 67 394 75 53 395 94 68 396 101 50 397 85 18 398 38 62 399 78 68 400 101 18 401 38 1 402 3 69 403 77 34 404 50 1 405 3 8 406 20 69 407 77 12 408 27 70 409 71 39 410 40 70 411 71 23 412 35 39 413 40 72 414 89 9 415 28 71 416 70 9 417 28 77 418 99 71 419 70 12 420 27 72 421 89 70 422 71 28 423 53 72 424 89 12 425 27 25 426 45 0 427 1 73 428 92 66 429 79 73 430 91 0 431 5 13 432 18 54 433 66 74 434 76 40 435 54 13 436 18 74 437 76 38 438 26 42 439 86 75 440 80 21 441 62 38 442 26 75 443 80 56 444 69 76 445 97 24 446 31 56 447 69 46 448 74 76 449 97 7 450 13 46 451 74 77 452 99 7 453 13 77 454 99 9 455 28 16 456 11 78 457 81 37 458 73 78 459 81 49 460 33 37 461 73 30 462 43 79 463 87 27 464 49 79 465 87 30 466 43 50 467 85 60 468 52 80 469 88 9 470 28 60 471 52 29 472 36 80 473 88 81 474 98 44 475 65 2 476 2 2 477 2 24 478 31 81 479 98 82 480 90 36 481 17 58 482 59 63 483 93 36 484 17 82 485 90</p>
        </triangles>
      </mesh>
    </geometry>
  </library_geometries>
  <library_visual_scenes>
    <visual_scene id="SM_Seaslug_01" name="SM_Seaslug_01">
      <node name="SM_Seaslug_01_LOD0" id="SM_Seaslug_01_LOD0" layer="shells" sid="SM_Seaslug_01_LOD0">
        <matrix sid="matrix">1.000000 0.000000 0.000000 0.000000 0.000000 0.000000 1.000000 0.000000 0.000000 -1.000000 0.000000 0.000000 0.000000 0.000000 0.000000 1.000000</matrix>
        <instance_geometry url="#SM_Seaslug_01_LOD0-lib">
          <bind_material>
            <technique_common>
              <instance_material symbol="MAT_Sea_Shells" target="#MAT_Sea_Shells"/>
            </technique_common>
          </bind_material>
        </instance_geometry>
        <extra>
          <technique profile="FCOLLADA">
            <visibility>1.000000</visibility>
          </technique>
        </extra>
      </node>
      <node name="SM_Seaslug_01_LOD1" id="SM_Seaslug_01_LOD1" layer="shells" sid="SM_Seaslug_01_LOD1">
        <matrix sid="matrix">1.000000 0.000000 0.000000 0.000000 0.000000 0.000000 1.000000 0.000000 0.000000 -1.000000 0.000000 0.000000 0.000000 0.000000 0.000000 1.000000</matrix>
        <instance_geometry url="#SM_Seaslug_01_LOD1-lib">
          <bind_material>
            <technique_common>
              <instance_material symbol="MAT_Sea_Shells" target="#MAT_Sea_Shells"/>
            </technique_common>
          </bind_material>
        </instance_geometry>
        <extra>
          <technique profile="FCOLLADA">
            <visibility>1.000000</visibility>
          </technique>
        </extra>
      </node>
      <extra>
        <technique profile="MAX3D">
          <frame_rate>30.000000</frame_rate>
        </technique>
        <technique profile="FCOLLADA">
          <start_time>0.000000</start_time>
          <end_time>3.333333</end_time>
        </technique>
      </extra>
    </visual_scene>
  </library_visual_scenes>
  <scene>
    <instance_visual_scene url="#SM_Seaslug_01"/>
  </scene>
</COLLADA>
