<?xml version="1.0" encoding="utf-8"?>
<COLLADA xmlns="http://www.collada.org/2005/11/COLLADASchema" version="1.4.1">
  <asset>
    <contributor>
      <author/>
      <authoring_tool>FBX COLLADA exporter</authoring_tool>
      <comments/>
    </contributor>
    <created>2024-02-10T11:42:38Z</created>
    <keywords/>
    <modified>2024-02-10T11:42:38Z</modified>
    <revision/>
    <subject/>
    <title/>
    <unit meter="0.010000" name="centimeter"/>
    <up_axis>Y_UP</up_axis>
  </asset>
  <library_materials>
    <material id="MAT_Sea_Shells" name="MAT_Sea_Shells">
      <instance_effect url="#MAT_Sea_Shells-fx"/>
    </material>
  </library_materials>
  <library_effects>
    <effect id="MAT_Sea_Shells-fx" name="MAT_Sea_Shells">
      <profile_COMMON>
        <technique sid="standard">
          <phong>
            <emission>
              <color sid="emission">0.000000  0.000000 0.000000 1.000000</color>
            </emission>
            <ambient>
              <color sid="ambient">0.588235  0.588235 0.588235 1.000000</color>
            </ambient>
            <diffuse>
              <color sid="diffuse">0.588235  0.588235 0.588235 1.000000</color>
            </diffuse>
            <specular>
              <color sid="specular">0.000000  0.000000 0.000000 1.000000</color>
            </specular>
            <shininess>
              <float sid="shininess">2.000000</float>
            </shininess>
            <reflective>
              <color sid="reflective">0.000000  0.000000 0.000000 1.000000</color>
            </reflective>
            <reflectivity>
              <float sid="reflectivity">1.000000</float>
            </reflectivity>
            <transparent opaque="RGB_ZERO">
              <color sid="transparent">1.000000  1.000000 1.000000 1.000000</color>
            </transparent>
            <transparency>
              <float sid="transparency">0.000000</float>
            </transparency>
          </phong>
        </technique>
      </profile_COMMON>
    </effect>
  </library_effects>
  <library_geometries>
    <geometry id="SM_Sand_Dollar_01_LOD0-lib" name="SM_Sand_Dollar_01_LOD0Mesh">
      <mesh>
        <source id="SM_Sand_Dollar_01_LOD0-POSITION">
          <float_array id="SM_Sand_Dollar_01_LOD0-POSITION-array" count="285">
-5.945496 4.134766 1.579452
-8.717552 4.056641 1.599881
-9.120850 4.279053 1.014157
-10.496399 2.945465 1.037083
-10.060577 2.819061 1.568856
-10.384392 2.297424 1.529831
-10.829231 2.223999 1.047625
-10.450226 -0.719391 1.049679
-8.643669 -5.124146 1.468900
-6.240875 -9.278717 0.998736
-2.982857 -10.563965 1.463331
0.811325 -10.416199 1.455971
2.156418 -9.519958 1.448148
2.353546 -10.039398 0.978761
3.404938 -9.684082 1.437424
8.575722 -7.824615 0.979005
8.518791 -6.468018 1.434579
8.753922 -5.001495 0.978581
9.001038 -3.610626 1.502687
9.501366 -3.771393 0.977549
10.445938 -2.959381 0.977618
9.872063 -2.855011 1.579537
10.340202 -1.417511 1.580583
10.829231 -1.425629 0.976619
10.224159 2.885864 1.530798
10.623856 3.110504 0.976736
8.287109 6.719269 1.473175
8.576210 7.039612 0.977601
5.407150 10.248108 0.979648
0.482208 10.533722 1.387460
0.428947 10.946899 0.980415
-4.597130 9.843750 0.980032
-6.577515 7.175568 1.437077
-6.972679 7.361420 0.979219
-7.169983 6.542023 0.979034
-5.841003 4.920349 0.977668
-5.641190 4.848358 1.494528
-6.643105 6.462921 1.443376
-5.732841 8.711639 1.418634
-4.317047 9.580292 1.403046
-2.685875 9.802948 1.387460
5.252136 9.781952 1.415578
0.706299 -1.149323 1.980000
8.216408 -4.967102 1.462339
8.174500 -7.725128 1.429964
6.429123 -8.947174 1.426027
-6.095757 -8.839539 1.466890
-8.880829 -3.661346 1.481140
-10.021767 -0.423126 1.506818
-9.177101 3.316467 1.588215
-7.559616 4.789581 1.608546
-7.151016 4.848785 1.612640
-5.842415 4.060120 0.400664
-7.151024 4.848785 0.387547
-7.220551 5.217529 0.985633
-7.738251 5.199646 0.994965
-9.177101 3.316467 0.494163
-9.640877 3.399078 1.023151
-10.384392 2.297424 0.587262
-9.253059 -3.991882 1.044004
-8.987587 -5.524689 1.026917
-2.982857 -10.563965 0.529130
-6.095757 -8.839539 0.552996
-2.873154 -10.946899 0.983932
0.985123 -10.788452 0.979369
0.811325 -10.416199 0.528264
2.156418 -9.519958 0.533212
3.404938 -9.684082 0.540321
3.659386 -10.124664 0.978995
6.675339 -9.305817 0.978787
8.518791 -6.468018 0.545851
8.920792 -6.475342 0.979257
9.001038 -3.610626 0.477743
10.224159 2.885864 0.455050
8.287109 6.719269 0.507251
0.482208 10.533722 0.592966
-2.685875 9.802948 0.592966
-2.870590 10.137604 0.980415
-5.732841 8.711639 0.561793
-6.108292 8.903870 0.979645
-6.643105 6.462921 0.537050
-6.024994 4.433960 0.975979
-5.475548 4.848358 0.485901
5.252136 9.781952 0.564848
10.340202 -1.417511 0.414905
9.872063 -2.855011 0.422463
8.216408 -4.967102 0.518091
8.174500 -7.725128 0.547769
6.429123 -8.947174 0.548706
-8.643669 -5.124146 0.604881
-8.880829 -3.661346 0.624807
-10.021767 -0.423126 0.611080
-10.060577 2.819061 0.538268
0.706299 -1.149323 -0.000000
-8.717552 4.056641 0.464753
</float_array>
          <technique_common>
            <accessor source="#SM_Sand_Dollar_01_LOD0-POSITION-array" count="95" stride="3">
              <param name="X" type="float"/>
              <param name="Y" type="float"/>
              <param name="Z" type="float"/>
            </accessor>
          </technique_common>
        </source>
        <source id="SM_Sand_Dollar_01_LOD0-Normal0">
          <float_array id="SM_Sand_Dollar_01_LOD0-Normal0-array" count="1674">
-0.262837 0.960366 -0.092812
0.188733 0.581840 0.791102
-0.028372 0.538826 0.841939
0.180909 0.982601 -0.042038
0.188733 0.581840 0.791102
-0.262837 0.960366 -0.092812
-0.155637 0.449220 0.879761
0.188733 0.581840 0.791102
0.180909 0.982601 -0.042038
-0.359066 0.912781 0.194685
-0.155637 0.449220 0.879761
0.180909 0.982601 -0.042038
-0.329399 0.313807 0.890518
-0.155637 0.449220 0.879761
-0.359066 0.912781 0.194685
-0.704757 0.708715 -0.032258
-0.329399 0.313807 0.890518
-0.359066 0.912781 0.194685
-0.329495 0.339318 0.881077
-0.329399 0.313807 0.890518
-0.704757 0.708715 -0.032258
-0.687139 0.726288 -0.018573
-0.329495 0.339318 0.881077
-0.704757 0.708715 -0.032258
-0.342943 0.311662 0.886147
-0.329495 0.339318 0.881077
-0.687139 0.726288 -0.018573
-0.712778 0.701143 -0.018573
-0.342943 0.311662 0.886147
-0.687139 0.726288 -0.018573
-0.413039 0.055647 0.909012
-0.342943 0.311662 0.886147
-0.712778 0.701143 -0.018573
-0.984460 0.174996 -0.014662
-0.413039 0.055647 0.909012
-0.712778 0.701143 -0.018573
-0.384147 -0.098737 0.917977
-0.413039 0.055647 0.909012
-0.984460 0.174996 -0.014662
-0.971844 -0.235380 -0.010740
-0.384147 -0.098737 0.917977
-0.984460 0.174996 -0.014662
-0.387861 -0.106502 0.915544
-0.384147 -0.098737 0.917977
-0.971844 -0.235380 -0.010740
-0.967948 -0.250999 -0.008785
-0.387861 -0.106502 0.915544
-0.971844 -0.235380 -0.010740
-0.374226 -0.159265 0.913559
-0.387861 -0.106502 0.915544
-0.967948 -0.250999 -0.008785
-0.925649 -0.378280 -0.008798
-0.374226 -0.159265 0.913559
-0.967948 -0.250999 -0.008785
-0.276765 -0.323688 0.904780
-0.374226 -0.159265 0.913559
-0.925649 -0.378280 -0.008798
-0.650204 -0.759684 -0.010758
-0.276765 -0.323688 0.904780
-0.925649 -0.378280 -0.008798
-0.096847 -0.435261 0.895080
-0.276765 -0.323688 0.904780
-0.650204 -0.759684 -0.010758
-0.220125 -0.975389 -0.012719
-0.096847 -0.435261 0.895080
-0.650204 -0.759684 -0.010758
0.122153 -0.405595 0.905854
-0.096847 -0.435261 0.895080
-0.220125 -0.975389 -0.012719
0.276623 -0.960895 -0.012707
0.122153 -0.405595 0.905854
-0.220125 -0.975389 -0.012719
0.221997 -0.974965 -0.012714
0.122153 -0.405595 0.905854
0.276623 -0.960895 -0.012707
0.221997 -0.974965 -0.012714
0.092865 -0.386052 0.917791
0.122153 -0.405595 0.905854
0.034237 -0.407793 0.912432
0.092865 -0.386052 0.917791
0.221997 -0.974965 -0.012714
0.079228 -0.996798 -0.010759
0.034237 -0.407793 0.912432
0.221997 -0.974965 -0.012714
0.184625 -0.382030 0.905520
0.034237 -0.407793 0.912432
0.079228 -0.996798 -0.010759
0.437396 -0.899205 -0.010764
0.184625 -0.382030 0.905520
0.079228 -0.996798 -0.010759
0.347318 -0.239651 0.906608
0.184625 -0.382030 0.905520
0.437396 -0.899205 -0.010764
0.824211 -0.566180 -0.010753
0.347318 -0.239651 0.906608
0.437396 -0.899205 -0.010764
0.419129 -0.030278 0.907422
0.347318 -0.239651 0.906608
0.824211 -0.566180 -0.010753
0.998020 -0.061607 -0.012708
0.419129 -0.030278 0.907422
0.824211 -0.566180 -0.010753
0.979679 -0.200170 -0.012695
0.419129 -0.030278 0.907422
0.998020 -0.061607 -0.012708
0.979679 -0.200170 -0.012695
0.384527 -0.089074 0.918806
0.419129 -0.030278 0.907422
0.317767 -0.313881 0.894709
0.384527 -0.089074 0.918806
0.979679 -0.200170 -0.012695
0.749671 -0.661648 -0.014662
0.317767 -0.313881 0.894709
0.979679 -0.200170 -0.012695
0.352760 -0.262877 0.898029
0.317767 -0.313881 0.894709
0.749671 -0.661648 -0.014662
0.832068 -0.554362 -0.018578
0.352760 -0.262877 0.898029
0.749671 -0.661648 -0.014662
0.438495 -0.047850 0.897459
0.352760 -0.262877 0.898029
0.832068 -0.554362 -0.018578
0.993027 -0.116416 -0.018584
0.438495 -0.047850 0.897459
0.832068 -0.554362 -0.018578
0.427058 0.120211 0.896198
0.438495 -0.047850 0.897459
0.993027 -0.116416 -0.018584
0.966786 0.255168 -0.014663
0.427058 0.120211 0.896198
0.993027 -0.116416 -0.018584
0.343320 0.259207 0.902742
0.427058 0.120211 0.896198
0.966786 0.255168 -0.014663
0.808885 0.587829 -0.012713
0.343320 0.259207 0.902742
0.966786 0.255168 -0.014663
0.173189 0.349334 0.920853
0.343320 0.259207 0.902742
0.808885 0.587829 -0.012713
0.456954 0.889399 -0.012720
0.173189 0.349334 0.920853
0.808885 0.587829 -0.012713
-0.020552 0.398349 0.917004
0.173189 0.349334 0.920853
0.456954 0.889399 -0.012720
-0.047933 0.998770 -0.012719
-0.020552 0.398349 0.917004
0.456954 0.889399 -0.012720
-0.079131 0.428962 0.899850
-0.020552 0.398349 0.917004
-0.047933 0.998770 -0.012719
-0.233502 0.970150 -0.065462
-0.079131 0.428962 0.899850
-0.047933 0.998770 -0.012719
-0.145625 0.419232 0.896124
-0.079131 0.428962 0.899850
-0.233502 0.970150 -0.065462
-0.332982 0.916977 0.219719
-0.145625 0.419232 0.896124
-0.233502 0.970150 -0.065462
-0.332982 0.916977 0.219719
-0.294593 0.294498 0.909113
-0.145625 0.419232 0.896124
-0.700185 0.707909 -0.092768
-0.294593 0.294498 0.909113
-0.332982 0.916977 0.219719
-0.378704 0.139904 0.914883
-0.294593 0.294498 0.909113
-0.700185 0.707909 -0.092768
-0.892204 0.341032 0.296090
-0.378704 0.139904 0.914883
-0.700185 0.707909 -0.092768
-0.969035 -0.239612 -0.059647
-0.378704 0.139904 0.914883
-0.892204 0.341032 0.296090
-0.442933 -0.118303 0.888715
-0.378704 0.139904 0.914883
-0.969035 -0.239612 -0.059647
-0.990765 -0.092887 -0.098776
-0.442933 -0.118303 0.888715
-0.969035 -0.239612 -0.059647
-0.514946 -0.022507 0.856927
-0.442933 -0.118303 0.888715
-0.990765 -0.092887 -0.098776
-0.262837 0.960366 -0.092812
-0.514946 -0.022507 0.856927
-0.990765 -0.092887 -0.098776
-0.028372 0.538826 0.841939
-0.514946 -0.022507 0.856927
-0.262837 0.960366 -0.092812
-0.028372 0.538826 0.841939
0.002933 0.006843 0.999972
-0.514946 -0.022507 0.856927
0.002933 0.006843 0.999972
-0.442933 -0.118303 0.888715
-0.514946 -0.022507 0.856927
0.002933 0.006843 0.999972
-0.378704 0.139904 0.914883
-0.442933 -0.118303 0.888715
0.002933 0.006843 0.999972
-0.294593 0.294498 0.909113
-0.378704 0.139904 0.914883
0.002933 0.006843 0.999972
-0.145625 0.419232 0.896124
-0.294593 0.294498 0.909113
0.002933 0.006843 0.999972
-0.079131 0.428962 0.899850
-0.145625 0.419232 0.896124
0.002933 0.006843 0.999972
-0.020552 0.398349 0.917004
-0.079131 0.428962 0.899850
0.002933 0.006843 0.999972
0.173189 0.349334 0.920853
-0.020552 0.398349 0.917004
0.002933 0.006843 0.999972
0.343320 0.259207 0.902742
0.173189 0.349334 0.920853
0.002933 0.006843 0.999972
0.427058 0.120211 0.896198
0.343320 0.259207 0.902742
0.002933 0.006843 0.999972
0.438495 -0.047850 0.897459
0.427058 0.120211 0.896198
0.002933 0.006843 0.999972
0.352760 -0.262877 0.898029
0.438495 -0.047850 0.897459
0.002933 0.006843 0.999972
0.317767 -0.313881 0.894709
0.352760 -0.262877 0.898029
0.002933 0.006843 0.999972
0.384527 -0.089074 0.918806
0.317767 -0.313881 0.894709
0.002933 0.006843 0.999972
0.419129 -0.030278 0.907422
0.384527 -0.089074 0.918806
0.002933 0.006843 0.999972
0.347318 -0.239651 0.906608
0.419129 -0.030278 0.907422
0.002933 0.006843 0.999972
0.184625 -0.382030 0.905520
0.347318 -0.239651 0.906608
0.002933 0.006843 0.999972
0.034237 -0.407793 0.912432
0.184625 -0.382030 0.905520
0.002933 0.006843 0.999972
0.092865 -0.386052 0.917791
0.034237 -0.407793 0.912432
0.002933 0.006843 0.999972
0.122153 -0.405595 0.905854
0.092865 -0.386052 0.917791
0.002933 0.006843 0.999972
-0.096847 -0.435261 0.895080
0.122153 -0.405595 0.905854
0.002933 0.006843 0.999972
-0.276765 -0.323688 0.904780
-0.096847 -0.435261 0.895080
0.002933 0.006843 0.999972
-0.374226 -0.159265 0.913559
-0.276765 -0.323688 0.904780
0.002933 0.006843 0.999972
-0.387861 -0.106502 0.915544
-0.374226 -0.159265 0.913559
0.002933 0.006843 0.999972
-0.384147 -0.098737 0.917977
-0.387861 -0.106502 0.915544
0.002933 0.006843 0.999972
-0.413039 0.055647 0.909012
-0.384147 -0.098737 0.917977
0.002933 0.006843 0.999972
-0.342943 0.311662 0.886147
-0.413039 0.055647 0.909012
0.002933 0.006843 0.999972
-0.329495 0.339318 0.881077
-0.342943 0.311662 0.886147
0.002933 0.006843 0.999972
-0.329399 0.313807 0.890518
-0.329495 0.339318 0.881077
0.002933 0.006843 0.999972
-0.155637 0.449220 0.879761
-0.329399 0.313807 0.890518
0.002933 0.006843 0.999972
0.188733 0.581840 0.791102
-0.155637 0.449220 0.879761
0.188733 0.581840 0.791102
0.002933 0.006843 0.999972
-0.028372 0.538826 0.841939
0.087022 0.517171 -0.851447
-0.262837 0.960366 -0.092812
-0.010777 0.486283 -0.873735
0.087022 0.517171 -0.851447
0.180909 0.982601 -0.042038
-0.262837 0.960366 -0.092812
0.087022 0.517171 -0.851447
-0.359066 0.912781 0.194685
0.180909 0.982601 -0.042038
0.087022 0.517171 -0.851447
-0.704757 0.708715 -0.032258
-0.359066 0.912781 0.194685
-0.307939 0.290296 -0.906036
-0.704757 0.708715 -0.032258
0.087022 0.517171 -0.851447
-0.307939 0.290296 -0.906036
-0.333217 0.315717 -0.888419
-0.704757 0.708715 -0.032258
-0.333217 0.315717 -0.888419
-0.687139 0.726288 -0.018573
-0.704757 0.708715 -0.032258
-0.333217 0.315717 -0.888419
-0.347040 0.288342 -0.892425
-0.687139 0.726288 -0.018573
-0.347040 0.288342 -0.892425
-0.712778 0.701143 -0.018573
-0.687139 0.726288 -0.018573
-0.347040 0.288342 -0.892425
-0.409229 0.045896 -0.911277
-0.712778 0.701143 -0.018573
-0.409229 0.045896 -0.911277
-0.984460 0.174996 -0.014662
-0.712778 0.701143 -0.018573
-0.409229 0.045896 -0.911277
-0.381945 -0.096696 -0.919112
-0.984460 0.174996 -0.014662
-0.381945 -0.096696 -0.919112
-0.971844 -0.235380 -0.010740
-0.984460 0.174996 -0.014662
-0.381945 -0.096696 -0.919112
-0.388337 -0.094891 -0.916619
-0.971844 -0.235380 -0.010740
-0.388337 -0.094891 -0.916619
-0.967948 -0.250999 -0.008785
-0.971844 -0.235380 -0.010740
-0.388337 -0.094891 -0.916619
-0.376126 -0.143575 -0.915377
-0.967948 -0.250999 -0.008785
-0.376126 -0.143575 -0.915377
-0.925649 -0.378280 -0.008798
-0.967948 -0.250999 -0.008785
-0.376126 -0.143575 -0.915377
-0.278625 -0.311861 -0.908356
-0.925649 -0.378280 -0.008798
-0.278625 -0.311861 -0.908356
-0.650204 -0.759684 -0.010758
-0.925649 -0.378280 -0.008798
-0.278625 -0.311861 -0.908356
-0.098754 -0.423341 -0.900572
-0.650204 -0.759684 -0.010758
-0.098754 -0.423341 -0.900572
-0.220125 -0.975389 -0.012719
-0.650204 -0.759684 -0.010758
-0.098754 -0.423341 -0.900572
0.116210 -0.395485 -0.911091
-0.220125 -0.975389 -0.012719
0.116210 -0.395485 -0.911091
0.276623 -0.960895 -0.012707
-0.220125 -0.975389 -0.012719
0.116210 -0.395485 -0.911091
0.221997 -0.974965 -0.012714
0.276623 -0.960895 -0.012707
0.088907 -0.374128 -0.923106
0.221997 -0.974965 -0.012714
0.116210 -0.395485 -0.911091
0.088907 -0.374128 -0.923106
0.032234 -0.397491 -0.917040
0.221997 -0.974965 -0.012714
0.032234 -0.397491 -0.917040
0.079228 -0.996798 -0.010759
0.221997 -0.974965 -0.012714
0.032234 -0.397491 -0.917040
0.180913 -0.372506 -0.910225
0.079228 -0.996798 -0.010759
0.180913 -0.372506 -0.910225
0.437396 -0.899205 -0.010764
0.079228 -0.996798 -0.010759
0.180913 -0.372506 -0.910225
0.341403 -0.233737 -0.910391
0.437396 -0.899205 -0.010764
0.341403 -0.233737 -0.910391
0.824211 -0.566180 -0.010753
0.437396 -0.899205 -0.010764
0.341403 -0.233737 -0.910391
0.407888 -0.028372 -0.912591
0.824211 -0.566180 -0.010753
0.407888 -0.028372 -0.912591
0.998020 -0.061607 -0.012708
0.824211 -0.566180 -0.010753
0.407888 -0.028372 -0.912591
0.979679 -0.200170 -0.012695
0.998020 -0.061607 -0.012708
0.374220 -0.086975 -0.923253
0.979679 -0.200170 -0.012695
0.407888 -0.028372 -0.912591
0.374220 -0.086975 -0.923253
0.310036 -0.298306 -0.902713
0.979679 -0.200170 -0.012695
0.310036 -0.298306 -0.902713
0.749671 -0.661648 -0.014662
0.979679 -0.200170 -0.012695
0.310036 -0.298306 -0.902713
0.342944 -0.249149 -0.905712
0.749671 -0.661648 -0.014662
0.342944 -0.249149 -0.905712
0.832068 -0.554362 -0.018578
0.749671 -0.661648 -0.014662
0.342944 -0.249149 -0.905712
0.423427 -0.049877 -0.904556
0.832068 -0.554362 -0.018578
0.423427 -0.049877 -0.904556
0.993027 -0.116416 -0.018584
0.832068 -0.554362 -0.018578
0.423427 -0.049877 -0.904556
0.415510 0.114392 -0.902367
0.993027 -0.116416 -0.018584
0.415510 0.114392 -0.902367
0.966786 0.255168 -0.014663
0.993027 -0.116416 -0.018584
0.415510 0.114392 -0.902367
0.333413 0.251395 -0.908645
0.966786 0.255168 -0.014663
0.333413 0.251395 -0.908645
0.808885 0.587829 -0.012713
0.966786 0.255168 -0.014663
0.333413 0.251395 -0.908645
0.169039 0.339127 -0.925429
0.808885 0.587829 -0.012713
0.169039 0.339127 -0.925429
0.456954 0.889399 -0.012720
0.808885 0.587829 -0.012713
0.169039 0.339127 -0.925429
-0.020519 0.387950 -0.921452
0.456954 0.889399 -0.012720
-0.020519 0.387950 -0.921452
-0.047933 0.998770 -0.012719
0.456954 0.889399 -0.012720
-0.020519 0.387950 -0.921452
-0.108457 0.358582 -0.927176
-0.047933 0.998770 -0.012719
-0.108457 0.358582 -0.927176
-0.233502 0.970150 -0.065462
-0.047933 0.998770 -0.012719
-0.282245 0.305659 -0.909346
-0.233502 0.970150 -0.065462
-0.108457 0.358582 -0.927176
-0.282245 0.305659 -0.909346
-0.700185 0.707909 -0.092768
-0.233502 0.970150 -0.065462
-0.700185 0.707909 -0.092768
-0.332982 0.916977 0.219719
-0.233502 0.970150 -0.065462
-0.389762 -0.083064 -0.917162
-0.700185 0.707909 -0.092768
-0.282245 0.305659 -0.909346
-0.389762 -0.083064 -0.917162
-0.892204 0.341032 0.296090
-0.700185 0.707909 -0.092768
-0.389762 -0.083064 -0.917162
-0.969035 -0.239612 -0.059647
-0.892204 0.341032 0.296090
-0.389762 -0.083064 -0.917162
-0.990765 -0.092887 -0.098776
-0.969035 -0.239612 -0.059647
-0.389762 -0.083064 -0.917162
-0.452803 -0.036144 -0.890878
-0.990765 -0.092887 -0.098776
-0.452803 -0.036144 -0.890878
-0.262837 0.960366 -0.092812
-0.990765 -0.092887 -0.098776
-0.452803 -0.036144 -0.890878
-0.010777 0.486283 -0.873735
-0.262837 0.960366 -0.092812
-0.452803 -0.036144 -0.890878
-0.000978 -0.002933 -0.999995
-0.010777 0.486283 -0.873735
-0.389762 -0.083064 -0.917162
-0.000978 -0.002933 -0.999995
-0.452803 -0.036144 -0.890878
-0.282245 0.305659 -0.909346
-0.000978 -0.002933 -0.999995
-0.389762 -0.083064 -0.917162
-0.108457 0.358582 -0.927176
-0.000978 -0.002933 -0.999995
-0.282245 0.305659 -0.909346
-0.020519 0.387950 -0.921452
-0.000978 -0.002933 -0.999995
-0.108457 0.358582 -0.927176
0.169039 0.339127 -0.925429
-0.000978 -0.002933 -0.999995
-0.020519 0.387950 -0.921452
0.333413 0.251395 -0.908645
-0.000978 -0.002933 -0.999995
0.169039 0.339127 -0.925429
0.415510 0.114392 -0.902367
-0.000978 -0.002933 -0.999995
0.333413 0.251395 -0.908645
0.423427 -0.049877 -0.904556
-0.000978 -0.002933 -0.999995
0.415510 0.114392 -0.902367
0.342944 -0.249149 -0.905712
-0.000978 -0.002933 -0.999995
0.423427 -0.049877 -0.904556
0.310036 -0.298306 -0.902713
-0.000978 -0.002933 -0.999995
0.342944 -0.249149 -0.905712
0.374220 -0.086975 -0.923253
-0.000978 -0.002933 -0.999995
0.310036 -0.298306 -0.902713
0.407888 -0.028372 -0.912591
-0.000978 -0.002933 -0.999995
0.374220 -0.086975 -0.923253
0.341403 -0.233737 -0.910391
-0.000978 -0.002933 -0.999995
0.407888 -0.028372 -0.912591
0.180913 -0.372506 -0.910225
-0.000978 -0.002933 -0.999995
0.341403 -0.233737 -0.910391
0.032234 -0.397491 -0.917040
-0.000978 -0.002933 -0.999995
0.180913 -0.372506 -0.910225
0.088907 -0.374128 -0.923106
-0.000978 -0.002933 -0.999995
0.032234 -0.397491 -0.917040
0.116210 -0.395485 -0.911091
-0.000978 -0.002933 -0.999995
0.088907 -0.374128 -0.923106
-0.098754 -0.423341 -0.900572
-0.000978 -0.002933 -0.999995
0.116210 -0.395485 -0.911091
-0.278625 -0.311861 -0.908356
-0.000978 -0.002933 -0.999995
-0.098754 -0.423341 -0.900572
-0.376126 -0.143575 -0.915377
-0.000978 -0.002933 -0.999995
-0.278625 -0.311861 -0.908356
-0.388337 -0.094891 -0.916619
-0.000978 -0.002933 -0.999995
-0.376126 -0.143575 -0.915377
-0.381945 -0.096696 -0.919112
-0.000978 -0.002933 -0.999995
-0.388337 -0.094891 -0.916619
-0.409229 0.045896 -0.911277
-0.000978 -0.002933 -0.999995
-0.381945 -0.096696 -0.919112
-0.347040 0.288342 -0.892425
-0.000978 -0.002933 -0.999995
-0.409229 0.045896 -0.911277
-0.333217 0.315717 -0.888419
-0.000978 -0.002933 -0.999995
-0.347040 0.288342 -0.892425
-0.307939 0.290296 -0.906036
-0.000978 -0.002933 -0.999995
-0.333217 0.315717 -0.888419
0.087022 0.517171 -0.851447
-0.000978 -0.002933 -0.999995
-0.307939 0.290296 -0.906036
-0.010777 0.486283 -0.873735
-0.000978 -0.002933 -0.999995
0.087022 0.517171 -0.851447
</float_array>
          <technique_common>
            <accessor source="#SM_Sand_Dollar_01_LOD0-Normal0-array" count="558" stride="3">
              <param name="X" type="float"/>
              <param name="Y" type="float"/>
              <param name="Z" type="float"/>
            </accessor>
          </technique_common>
        </source>
        <source id="SM_Sand_Dollar_01_LOD0-UV0">
          <float_array id="SM_Sand_Dollar_01_LOD0-UV0-array" count="254">
0.571289 0.123047
0.561523 0.127441
0.569824 0.124512
0.569824 0.124512
0.560547 0.130859
0.560547 0.130859
0.556152 0.130371
0.545410 0.123047
0.557617 0.127441
0.541016 0.116211
0.534180 0.112305
0.556152 0.130371
0.531738 0.106445
0.534668 0.083008
0.548340 0.121094
0.544434 0.056641
0.546387 0.044434
0.545410 0.123047
0.568359 0.014648
0.595215 0.000977
0.544922 0.115234
0.625977 0.002441
0.637207 0.008301
0.541016 0.116211
0.647461 0.007813
0.671875 0.014160
0.537598 0.111328
0.687012 0.026367
0.689941 0.037109
0.534180 0.112305
0.688477 0.048828
0.694336 0.058594
0.535156 0.107422
0.702148 0.064941
0.705078 0.077637
0.531738 0.106445
0.703613 0.113770
0.687012 0.145020
0.538086 0.085449
0.661621 0.170898
0.621582 0.176758
0.534668 0.083008
0.595215 0.169922
0.581543 0.167480
0.547363 0.059570
0.569336 0.160156
0.562500 0.147949
0.544434 0.056641
0.561035 0.141113
0.571289 0.128418
0.549316 0.047852
0.546387 0.044434
0.569336 0.018066
0.568359 0.014648
0.594238 0.004395
0.595215 0.000977
0.625000 0.005371
0.625977 0.002441
0.637207 0.008301
0.635742 0.012695
0.645508 0.011230
0.647461 0.007813
0.669922 0.017090
0.671875 0.014160
0.683594 0.026855
0.687012 0.026367
0.686523 0.037109
0.689941 0.037109
0.688477 0.048828
0.684082 0.048828
0.690430 0.060059
0.694336 0.058594
0.697266 0.065918
0.702148 0.064941
0.701172 0.077637
0.705078 0.077637
0.700195 0.111816
0.703613 0.113770
0.684570 0.142578
0.687012 0.145020
0.660156 0.166992
0.661621 0.170898
0.622070 0.173340
0.621582 0.176758
0.596680 0.167480
0.595215 0.169922
0.583496 0.165527
0.581543 0.167480
0.572266 0.158691
0.569336 0.160156
0.565430 0.146484
0.562500 0.147949
0.561035 0.141113
0.564941 0.140625
0.571289 0.128418
0.573242 0.127441
0.624023 0.080078
0.570801 0.122559
0.561523 0.127441
0.548340 0.121094
0.544922 0.115234
0.537598 0.111328
0.535156 0.107422
0.538086 0.085449
0.547363 0.059570
0.549316 0.047852
0.569336 0.018066
0.594238 0.004395
0.625000 0.005371
0.635742 0.012695
0.645508 0.011230
0.669922 0.017090
0.683594 0.026855
0.686523 0.037109
0.684082 0.048828
0.690430 0.060059
0.697266 0.065918
0.701172 0.077637
0.700195 0.111816
0.684570 0.142578
0.660156 0.166992
0.622070 0.173340
0.596680 0.167480
0.572266 0.158691
0.564941 0.140625
0.573242 0.127441
0.624023 0.080078
</float_array>
          <technique_common>
            <accessor source="#SM_Sand_Dollar_01_LOD0-UV0-array" count="127" stride="2">
              <param name="S" type="float"/>
              <param name="T" type="float"/>
            </accessor>
          </technique_common>
        </source>
        <vertices id="SM_Sand_Dollar_01_LOD0-VERTEX">
          <input semantic="POSITION" source="#SM_Sand_Dollar_01_LOD0-POSITION"/>
        </vertices>
        <triangles count="186" material="MAT_Sea_Shells">
          <input semantic="VERTEX" offset="0" source="#SM_Sand_Dollar_01_LOD0-VERTEX"/>
          <input semantic="NORMAL" offset="1" source="#SM_Sand_Dollar_01_LOD0-Normal0"/>
          <input semantic="TEXCOORD" offset="2" set="0" source="#SM_Sand_Dollar_01_LOD0-UV0"/>
          <p> 81 0 3 51 1 1 0 2 0 54 3 4 51 4 1 81 5 3 50 6 8 51 7 1 54 8 4 55 9 6 50 10 8 54 11 4 1 12 14 50 13 8 55 14 6 2 15 7 1 16 14 55 17 6 49 18 20 1 19 14 2 20 7 57 21 9 49 22 20 2 23 7 4 24 26 49 25 20 57 26 9 3 27 10 4 28 26 57 29 9 5 30 32 4 31 26 3 32 10 6 33 12 5 34 32 3 35 10 48 36 38 5 37 32 6 38 12 7 39 13 48 40 38 6 41 12 47 42 44 48 43 38 7 44 13 59 45 15 47 46 44 7 47 13 8 48 50 47 49 44 59 50 15 60 51 16 8 52 50 59 53 15 46 54 52 8 55 50 60 56 16 9 57 18 46 58 52 60 59 16 10 60 54 46 61 52 9 62 18 63 63 19 10 64 54 9 65 18 11 66 56 10 67 54 63 68 19 64 69 21 11 70 56 63 71 19 13 72 22 11 73 56 64 74 21 13 75 22 12 76 59 11 77 56 14 78 60 12 79 59 13 80 22 68 81 24 14 82 60 13 83 22 45 84 62 14 85 60 68 86 24 69 87 25 45 88 62 68 89 24 44 90 64 45 91 62 69 92 25 15 93 27 44 94 64 69 95 25 16 96 66 44 97 64 15 98 27 71 99 28 16 100 66 15 101 27 17 102 30 16 103 66 71 104 28 17 105 30 43 106 69 16 107 66 18 108 70 43 109 69 17 110 30 19 111 31 18 112 70 17 113 30 21 114 72 18 115 70 19 116 31 20 117 33 21 118 72 19 119 31 22 120 74 21 121 72 20 122 33 23 123 34 22 124 74 20 125 33 24 126 76 22 127 74 23 128 34 25 129 36 24 130 76 23 131 34 26 132 78 24 133 76 25 134 36 27 135 37 26 136 78 25 137 36 41 138 80 26 139 78 27 140 37 28 141 39 41 142 80 27 143 37 29 144 82 41 145 80 28 146 39 30 147 40 29 148 82 28 149 39 40 150 84 29 151 82 30 152 40 77 153 42 40 154 84 30 155 40 39 156 86 40 157 84 77 158 42 31 159 43 39 160 86 77 161 42 31 162 43 38 163 88 39 164 86 79 165 45 38 166 88 31 167 43 32 168 90 38 169 88 79 170 45 33 171 46 32 172 90 79 173 45 34 174 48 32 175 90 33 176 46 37 177 93 32 178 90 34 179 48 35 180 49 37 181 93 34 182 48 36 183 95 37 184 93 35 185 49 81 186 3 36 187 95 35 188 49 0 189 0 36 190 95 81 191 3 0 192 0 42 193 96 36 194 95 42 195 96 37 196 93 36 197 95 42 198 96 32 199 90 37 200 93 42 201 96 38 202 88 32 203 90 42 204 96 39 205 86 38 206 88 42 207 96 40 208 84 39 209 86 42 210 96 29 211 82 40 212 84 42 213 96 41 214 80 29 215 82 42 216 96 26 217 78 41 218 80 42 219 96 24 220 76 26 221 78 42 222 96 22 223 74 24 224 76 42 225 96 21 226 72 22 227 74 42 228 96 18 229 70 21 230 72 42 231 96 43 232 69 18 233 70 42 234 96 16 235 66 43 236 69 42 237 96 44 238 64 16 239 66 42 240 96 45 241 62 44 242 64 42 243 96 14 244 60 45 245 62 42 246 96 12 247 59 14 248 60 42 249 96 11 250 56 12 251 59 42 252 96 10 253 54 11 254 56 42 255 96 46 256 52 10 257 54 42 258 96 8 259 50 46 260 52 42 261 96 47 262 44 8 263 50 42 264 96 48 265 38 47 266 44 42 267 96 5 268 32 48 269 38 42 270 96 4 271 26 5 272 32 42 273 96 49 274 20 4 275 26 42 276 96 1 277 14 49 278 20 42 279 96 50 280 8 1 281 14 42 282 96 51 283 1 50 284 8 51 285 1 42 286 96 0 287 0 53 288 98 81 289 2 52 290 97 53 291 98 54 292 5 81 293 2 53 294 98 55 295 11 54 296 5 53 297 98 2 298 17 55 299 11 94 300 99 2 301 17 53 302 98 94 303 99 56 304 100 2 305 17 56 306 100 57 307 23 2 308 17 56 309 100 92 310 101 57 311 23 92 312 101 3 313 29 57 314 23 92 315 101 58 316 102 3 317 29 58 318 102 6 319 35 3 320 29 58 321 102 91 322 103 6 323 35 91 324 103 7 325 41 6 326 35 91 327 103 90 328 104 7 329 41 90 330 104 59 331 47 7 332 41 90 333 104 89 334 105 59 335 47 89 336 105 60 337 51 59 338 47 89 339 105 62 340 106 60 341 51 62 342 106 9 343 53 60 344 51 62 345 106 61 346 107 9 347 53 61 348 107 63 349 55 9 350 53 61 351 107 65 352 108 63 353 55 65 354 108 64 355 57 63 356 55 65 357 108 13 358 58 64 359 57 66 360 109 13 361 58 65 362 108 66 363 109 67 364 110 13 365 58 67 366 110 68 367 61 13 368 58 67 369 110 88 370 111 68 371 61 88 372 111 69 373 63 68 374 61 88 375 111 87 376 112 69 377 63 87 378 112 15 379 65 69 380 63 87 381 112 70 382 113 15 383 65 70 384 113 71 385 67 15 386 65 70 387 113 17 388 68 71 389 67 86 390 114 17 391 68 70 392 113 86 393 114 72 394 115 17 395 68 72 396 115 19 397 71 17 398 68 72 399 115 85 400 116 19 401 71 85 402 116 20 403 73 19 404 71 85 405 116 84 406 117 20 407 73 84 408 117 23 409 75 20 410 73 84 411 117 73 412 118 23 413 75 73 414 118 25 415 77 23 416 75 73 417 118 74 418 119 25 419 77 74 420 119 27 421 79 25 422 77 74 423 119 83 424 120 27 425 79 83 426 120 28 427 81 27 428 79 83 429 120 75 430 121 28 431 81 75 432 121 30 433 83 28 434 81 75 435 121 76 436 122 30 437 83 76 438 122 77 439 85 30 440 83 78 441 123 77 442 85 76 443 122 78 444 123 79 445 89 77 446 85 79 447 89 31 448 87 77 449 85 80 450 124 79 451 89 78 452 123 80 453 124 33 454 91 79 455 89 80 456 124 34 457 92 33 458 91 80 459 124 35 460 94 34 461 92 80 462 124 82 463 125 35 464 94 82 465 125 81 466 2 35 467 94 82 468 125 52 469 97 81 470 2 82 471 125 93 472 126 52 473 97 80 474 124 93 475 126 82 476 125 78 477 123 93 478 126 80 479 124 76 480 122 93 481 126 78 482 123 75 483 121 93 484 126 76 485 122 83 486 120 93 487 126 75 488 121 74 489 119 93 490 126 83 491 120 73 492 118 93 493 126 74 494 119 84 495 117 93 496 126 73 497 118 85 498 116 93 499 126 84 500 117 72 501 115 93 502 126 85 503 116 86 504 114 93 505 126 72 506 115 70 507 113 93 508 126 86 509 114 87 510 112 93 511 126 70 512 113 88 513 111 93 514 126 87 515 112 67 516 110 93 517 126 88 518 111 66 519 109 93 520 126 67 521 110 65 522 108 93 523 126 66 524 109 61 525 107 93 526 126 65 527 108 62 528 106 93 529 126 61 530 107 89 531 105 93 532 126 62 533 106 90 534 104 93 535 126 89 536 105 91 537 103 93 538 126 90 539 104 58 540 102 93 541 126 91 542 103 92 543 101 93 544 126 58 545 102 56 546 100 93 547 126 92 548 101 94 549 99 93 550 126 56 551 100 53 552 98 93 553 126 94 554 99 52 555 97 93 556 126 53 557 98</p>
        </triangles>
      </mesh>
    </geometry>
    <geometry id="SM_Sand_Dollar_01_LOD1-lib" name="SM_Sand_Dollar_01_LOD1Mesh">
      <mesh>
        <source id="SM_Sand_Dollar_01_LOD1-POSITION">
          <float_array id="SM_Sand_Dollar_01_LOD1-POSITION-array" count="117">
-2.873154 -10.946899 0.983932
10.445938 -2.959381 0.977618
-10.645874 2.621460 1.041817
5.407150 10.248108 0.979648
-6.024994 4.433960 0.975979
-6.108292 8.903870 0.979645
2.669334 -10.060028 0.978818
8.575722 -7.824615 0.979005
-8.987587 -5.524689 1.026917
10.623856 3.110504 0.976736
0.706299 -1.149323 1.980000
0.428947 10.946899 0.980415
0.706299 -1.149323 -0.000000
8.753922 -5.001495 0.978581
-7.169983 6.542023 0.979034
6.675339 -9.305817 0.978787
8.576210 7.039612 0.977601
-10.450226 -0.719391 1.049679
-6.240875 -9.278717 0.998736
-7.220551 5.217529 0.985633
-9.326981 3.930267 1.017722
-5.945496 4.134766 1.579452
0.985123 -10.788452 0.979369
9.715172 -2.991119 1.565695
1.344597 -10.060883 1.452870
-9.574501 3.266968 1.580085
8.920792 -6.475342 0.979257
-4.597130 9.843750 0.980032
9.810287 3.704926 1.518486
10.026711 -2.380127 0.419966
-9.271347 -2.983002 1.486170
8.268929 -7.380341 1.431230
1.336800 -10.066071 0.530197
-9.724266 3.128967 0.519858
-5.699821 4.892548 0.787688
-7.151016 4.848785 1.612640
-5.169510 9.057281 1.412432
10.829231 -1.425629 0.976619
8.266701 -7.388458 0.547255
</float_array>
          <technique_common>
            <accessor source="#SM_Sand_Dollar_01_LOD1-POSITION-array" count="39" stride="3">
              <param name="X" type="float"/>
              <param name="Y" type="float"/>
              <param name="Z" type="float"/>
            </accessor>
          </technique_common>
        </source>
        <source id="SM_Sand_Dollar_01_LOD1-Normal0">
          <float_array id="SM_Sand_Dollar_01_LOD1-Normal0-array" count="666">
0.002882 -0.009330 0.999952
-0.363676 -0.130990 0.922270
-0.574379 -0.818547 -0.008381
0.347810 0.937524 -0.008784
-0.004884 -0.001114 -0.999987
0.089537 0.995890 -0.013666
0.002882 -0.009330 0.999952
0.347810 0.937524 -0.008784
0.089537 0.995890 -0.013666
0.357909 -0.141383 -0.922991
-0.004884 -0.001114 -0.999987
0.945474 0.221319 -0.238950
0.002882 -0.009330 0.999952
0.017147 0.621516 0.783214
-0.398347 0.335821 0.853548
-0.007883 0.952330 -0.304967
-0.004884 -0.001114 -0.999987
-0.378620 0.301343 -0.875123
-0.789962 0.576942 -0.207604
-0.004884 -0.001114 -0.999987
-0.998958 -0.003921 -0.045463
0.002882 -0.009330 0.999952
-0.241976 0.337788 0.909586
-0.998958 -0.003921 -0.045463
0.002882 -0.009330 0.999952
-0.457009 -0.889460 -0.001989
0.088950 -0.352119 0.931719
-0.844889 -0.520401 -0.123879
-0.004884 -0.001114 -0.999987
-0.574379 -0.818547 -0.008381
0.348261 -0.180314 -0.919892
-0.004884 -0.001114 -0.999987
0.940928 -0.337543 -0.026801
0.002882 -0.009330 0.999952
0.088950 -0.352119 0.931719
0.259998 -0.965603 -0.003364
0.002882 -0.009330 0.999952
-0.398347 0.335821 0.853548
-0.363676 -0.130990 0.922270
-0.378620 0.301343 -0.875123
-0.004884 -0.001114 -0.999987
-0.973670 -0.191186 -0.124159
0.002882 -0.009330 0.999952
0.397349 0.181614 0.899517
0.347810 0.937524 -0.008784
0.945474 0.221319 -0.238950
-0.004884 -0.001114 -0.999987
0.744500 0.653458 -0.136794
0.002882 -0.009330 0.999952
0.338178 -0.235456 0.911151
0.397349 0.181614 0.899517
0.002882 -0.009330 0.999952
0.356546 -0.183636 0.916053
0.940928 -0.337543 -0.026801
0.002882 -0.009330 0.999952
0.089537 0.995890 -0.013666
-0.241976 0.337788 0.909586
0.089537 0.995890 -0.013666
-0.004884 -0.001114 -0.999987
-0.789962 0.576942 -0.207604
0.085779 -0.342066 -0.935753
-0.004884 -0.001114 -0.999987
0.259998 -0.965603 -0.003364
-0.457009 -0.889460 -0.001989
-0.004884 -0.001114 -0.999987
0.085779 -0.342066 -0.935753
0.397349 0.181614 0.899517
0.338178 -0.235456 0.911151
0.998285 -0.037491 0.044961
0.940928 -0.337543 -0.026801
-0.004884 -0.001114 -0.999987
0.357909 -0.141383 -0.922991
-0.998958 -0.003921 -0.045463
-0.004884 -0.001114 -0.999987
-0.369655 -0.117866 -0.921663
0.002882 -0.009330 0.999952
-0.998958 -0.003921 -0.045463
0.183134 0.487788 0.853537
0.259998 -0.965603 -0.003364
-0.004884 -0.001114 -0.999987
0.348261 -0.180314 -0.919892
0.002882 -0.009330 0.999952
0.259998 -0.965603 -0.003364
0.356546 -0.183636 0.916053
0.347810 0.937524 -0.008784
0.397349 0.181614 0.899517
0.744500 0.653458 -0.136794
0.744500 0.653458 -0.136794
-0.004884 -0.001114 -0.999987
0.347810 0.937524 -0.008784
-0.574379 -0.818547 -0.008381
-0.363676 -0.130990 0.922270
-0.844889 -0.520401 -0.123879
-0.973670 -0.191186 -0.124159
-0.004884 -0.001114 -0.999987
-0.844889 -0.520401 -0.123879
-0.574379 -0.818547 -0.008381
-0.004884 -0.001114 -0.999987
-0.457009 -0.889460 -0.001989
0.002882 -0.009330 0.999952
-0.574379 -0.818547 -0.008381
-0.457009 -0.889460 -0.001989
0.032107 0.894604 -0.445705
-0.004884 -0.001114 -0.999987
-0.007883 0.952330 -0.304967
-0.398347 0.335821 0.853548
0.017147 0.621516 0.783214
-0.007883 0.952330 -0.304967
-0.378620 0.301343 -0.875123
-0.571174 0.819855 -0.039965
-0.007883 0.952330 -0.304967
-0.363676 -0.130990 0.922270
-0.398347 0.335821 0.853548
-0.979366 0.200583 0.024658
0.183134 0.487788 0.853537
-0.998958 -0.003921 -0.045463
-0.369655 -0.117866 -0.921663
-0.007883 0.952330 -0.304967
0.017147 0.621516 0.783214
0.032107 0.894604 -0.445705
0.164563 -0.986308 -0.010727
0.088950 -0.352119 0.931719
-0.457009 -0.889460 -0.001989
0.085779 -0.342066 -0.935753
0.164563 -0.986308 -0.010727
-0.457009 -0.889460 -0.001989
0.893191 -0.449559 -0.010344
0.338178 -0.235456 0.911151
0.940928 -0.337543 -0.026801
0.002882 -0.009330 0.999952
0.940928 -0.337543 -0.026801
0.338178 -0.235456 0.911151
0.259998 -0.965603 -0.003364
0.088950 -0.352119 0.931719
0.211670 -0.977305 -0.008424
0.211670 -0.977305 -0.008424
0.088950 -0.352119 0.931719
0.164563 -0.986308 -0.010727
-0.571174 0.819855 -0.039965
-0.398347 0.335821 0.853548
-0.007883 0.952330 -0.304967
-0.979366 0.200583 0.024658
-0.398347 0.335821 0.853548
-0.571174 0.819855 -0.039965
0.348261 -0.180314 -0.919892
0.940928 -0.337543 -0.026801
0.999652 0.024368 -0.010069
0.808860 -0.587938 -0.008666
0.356546 -0.183636 0.916053
0.259998 -0.965603 -0.003364
-0.789962 0.576942 -0.207604
-0.283252 0.915379 -0.286095
0.089537 0.995890 -0.013666
-0.998958 -0.003921 -0.045463
-0.241976 0.337788 0.909586
-0.789962 0.576942 -0.207604
0.945474 0.221319 -0.238950
0.397349 0.181614 0.899517
0.998285 -0.037491 0.044961
0.744500 0.653458 -0.136794
0.397349 0.181614 0.899517
0.945474 0.221319 -0.238950
0.357909 -0.141383 -0.922991
0.893191 -0.449559 -0.010344
0.940928 -0.337543 -0.026801
0.357909 -0.141383 -0.922991
0.945474 0.221319 -0.238950
0.998285 -0.037491 0.044961
-0.973670 -0.191186 -0.124159
-0.363676 -0.130990 0.922270
-0.979366 0.200583 0.024658
-0.844889 -0.520401 -0.123879
-0.363676 -0.130990 0.922270
-0.973670 -0.191186 -0.124159
0.940928 -0.337543 -0.026801
0.356546 -0.183636 0.916053
0.999652 0.024368 -0.010069
0.999652 0.024368 -0.010069
0.356546 -0.183636 0.916053
0.808860 -0.587938 -0.008666
0.085779 -0.342066 -0.935753
0.259998 -0.965603 -0.003364
0.211670 -0.977305 -0.008424
0.085779 -0.342066 -0.935753
0.211670 -0.977305 -0.008424
0.164563 -0.986308 -0.010727
-0.378620 0.301343 -0.875123
-0.973670 -0.191186 -0.124159
-0.979366 0.200583 0.024658
-0.378620 0.301343 -0.875123
-0.979366 0.200583 0.024658
-0.571174 0.819855 -0.039965
0.032107 0.894604 -0.445705
0.183134 0.487788 0.853537
-0.369655 -0.117866 -0.921663
-0.369655 -0.117866 -0.921663
-0.004884 -0.001114 -0.999987
0.032107 0.894604 -0.445705
0.032107 0.894604 -0.445705
0.017147 0.621516 0.783214
0.183134 0.487788 0.853537
0.017147 0.621516 0.783214
0.002882 -0.009330 0.999952
0.183134 0.487788 0.853537
-0.283252 0.915379 -0.286095
-0.241976 0.337788 0.909586
0.089537 0.995890 -0.013666
-0.789962 0.576942 -0.207604
-0.241976 0.337788 0.909586
-0.283252 0.915379 -0.286095
0.998285 -0.037491 0.044961
0.338178 -0.235456 0.911151
0.893191 -0.449559 -0.010344
0.357909 -0.141383 -0.922991
0.998285 -0.037491 0.044961
0.893191 -0.449559 -0.010344
0.348261 -0.180314 -0.919892
0.808860 -0.587938 -0.008666
0.259998 -0.965603 -0.003364
0.348261 -0.180314 -0.919892
0.999652 0.024368 -0.010069
0.808860 -0.587938 -0.008666
</float_array>
          <technique_common>
            <accessor source="#SM_Sand_Dollar_01_LOD1-Normal0-array" count="222" stride="3">
              <param name="X" type="float"/>
              <param name="Y" type="float"/>
              <param name="Z" type="float"/>
            </accessor>
          </technique_common>
        </source>
        <source id="SM_Sand_Dollar_01_LOD1-UV0">
          <float_array id="SM_Sand_Dollar_01_LOD1-UV0-array" count="118">
0.533083 0.109673
0.595215 0.000977
0.702148 0.064941
0.661621 0.170898
0.661621 0.170898
0.569824 0.124512
0.569824 0.124512
0.569336 0.160156
0.569336 0.160156
0.687012 0.026367
0.687012 0.026367
0.546387 0.044434
0.546387 0.044434
0.624023 0.080078
0.595215 0.000977
0.639687 0.008183
0.639687 0.008183
0.703613 0.113770
0.703613 0.113770
0.624023 0.080078
0.561035 0.141113
0.621582 0.176758
0.621582 0.176758
0.560547 0.130859
0.688477 0.048828
0.688477 0.048828
0.568359 0.014648
0.568359 0.014648
0.541486 0.114863
0.561523 0.127441
0.687012 0.145020
0.687012 0.145020
0.671875 0.014160
0.671875 0.014160
0.625977 0.002441
0.625977 0.002441
0.540288 0.113774
0.698556 0.069789
0.576734 0.161411
0.534668 0.083008
0.534668 0.083008
0.571289 0.123047
0.684397 0.029667
0.696035 0.064863
0.629259 0.008275
0.543668 0.120337
0.543668 0.120337
0.572044 0.128041
0.544201 0.064976
0.684378 0.029601
0.581543 0.167480
0.629197 0.008232
0.696857 0.118389
0.533083 0.109673
0.705078 0.077637
0.702148 0.064941
0.705078 0.077637
0.689941 0.037109
0.689941 0.037109
</float_array>
          <technique_common>
            <accessor source="#SM_Sand_Dollar_01_LOD1-UV0-array" count="59" stride="2">
              <param name="S" type="float"/>
              <param name="T" type="float"/>
            </accessor>
          </technique_common>
        </source>
        <vertices id="SM_Sand_Dollar_01_LOD1-VERTEX">
          <input semantic="POSITION" source="#SM_Sand_Dollar_01_LOD1-POSITION"/>
        </vertices>
        <triangles count="74" material="MAT_Sea_Shells">
          <input semantic="VERTEX" offset="0" source="#SM_Sand_Dollar_01_LOD1-VERTEX"/>
          <input semantic="NORMAL" offset="1" source="#SM_Sand_Dollar_01_LOD1-Normal0"/>
          <input semantic="TEXCOORD" offset="2" set="0" source="#SM_Sand_Dollar_01_LOD1-UV0"/>
          <p> 10 0 13 30 1 48 18 2 26 3 3 4 12 4 19 11 5 21 10 6 13 3 7 3 11 8 22 29 9 37 12 10 19 9 11 17 10 12 13 35 13 29 25 14 28 19 15 23 12 16 19 33 17 36 5 18 8 12 19 19 14 20 20 10 21 13 36 22 38 14 23 20 10 24 13 0 25 14 24 26 44 8 27 12 12 28 19 18 29 27 38 30 49 12 31 19 13 32 24 10 33 13 24 34 44 15 35 32 10 36 13 25 37 28 30 38 48 33 39 36 12 40 19 17 41 40 10 42 13 28 43 52 3 44 3 9 45 17 12 46 19 16 47 31 10 48 13 23 49 43 28 50 52 10 51 13 31 52 42 13 53 25 10 54 13 11 55 22 36 56 38 11 57 21 12 58 19 5 59 8 32 60 51 12 61 19 15 62 33 0 63 1 12 64 19 32 65 51 28 66 52 23 67 43 37 68 56 13 69 24 12 70 19 29 71 37 14 72 20 12 73 19 34 74 47 10 75 13 14 76 20 21 77 41 15 78 33 12 79 19 38 80 49 10 81 13 15 82 32 31 83 42 3 84 3 28 85 52 16 86 30 16 87 31 12 88 19 3 89 4 18 90 26 30 91 48 8 92 11 17 93 40 12 94 19 8 95 12 18 96 27 12 97 19 0 98 1 10 99 13 18 100 26 0 101 14 4 102 6 12 103 19 19 104 23 25 105 28 35 106 29 19 107 23 33 108 36 20 109 45 19 110 23 30 111 48 25 112 28 2 113 0 21 114 41 14 115 20 34 116 47 19 117 23 35 118 29 4 119 5 22 120 34 24 121 44 0 122 14 32 123 51 22 124 35 0 125 1 1 126 2 23 127 43 13 128 25 10 129 13 13 130 25 23 131 43 15 132 32 24 133 44 6 134 16 6 135 16 24 136 44 22 137 34 20 138 46 25 139 28 19 140 23 2 141 0 25 142 28 20 143 46 38 144 49 13 145 24 26 146 57 7 147 10 31 148 42 15 149 32 5 150 8 27 151 50 11 152 21 14 153 20 36 154 38 5 155 7 9 156 18 28 157 52 37 158 56 16 159 30 28 160 52 9 161 18 29 162 37 1 163 2 13 164 24 29 165 37 9 166 17 37 167 54 17 168 39 30 169 48 2 170 0 8 171 11 30 172 48 17 173 39 13 174 25 31 175 42 26 176 58 26 177 58 31 178 42 7 179 10 32 180 51 15 181 33 6 182 15 32 183 51 6 184 15 22 185 35 33 186 36 17 187 40 2 188 53 33 189 36 2 190 53 20 191 45 4 192 5 21 193 41 34 194 47 34 195 47 12 196 19 4 197 6 4 198 5 35 199 29 21 200 41 35 201 29 10 202 13 21 203 41 27 204 50 36 205 38 11 206 22 5 207 7 36 208 38 27 209 50 37 210 56 23 211 43 1 212 2 29 213 37 37 214 54 1 215 55 38 216 49 7 217 9 15 218 33 38 219 49 26 220 57 7 221 9</p>
        </triangles>
      </mesh>
    </geometry>
  </library_geometries>
  <library_visual_scenes>
    <visual_scene id="SM_Sand_Dollar_01" name="SM_Sand_Dollar_01">
      <node name="SM_Sand_Dollar_01_LOD0" id="SM_Sand_Dollar_01_LOD0" layer="shells" sid="SM_Sand_Dollar_01_LOD0">
        <matrix sid="matrix">1.000000 0.000000 0.000000 0.000000 0.000000 0.000000 1.000000 0.000000 0.000000 -1.000000 0.000000 0.000000 0.000000 0.000000 0.000000 1.000000</matrix>
        <instance_geometry url="#SM_Sand_Dollar_01_LOD0-lib">
          <bind_material>
            <technique_common>
              <instance_material symbol="MAT_Sea_Shells" target="#MAT_Sea_Shells"/>
            </technique_common>
          </bind_material>
        </instance_geometry>
        <extra>
          <technique profile="FCOLLADA">
            <visibility>1.000000</visibility>
          </technique>
        </extra>
      </node>
      <node name="SM_Sand_Dollar_01_LOD1" id="SM_Sand_Dollar_01_LOD1" layer="shells" sid="SM_Sand_Dollar_01_LOD1">
        <matrix sid="matrix">1.000000 0.000000 0.000000 0.000000 0.000000 0.000000 1.000000 0.000000 0.000000 -1.000000 0.000000 0.000000 0.000000 0.000000 0.000000 1.000000</matrix>
        <instance_geometry url="#SM_Sand_Dollar_01_LOD1-lib">
          <bind_material>
            <technique_common>
              <instance_material symbol="MAT_Sea_Shells" target="#MAT_Sea_Shells"/>
            </technique_common>
          </bind_material>
        </instance_geometry>
        <extra>
          <technique profile="FCOLLADA">
            <visibility>1.000000</visibility>
          </technique>
        </extra>
      </node>
      <extra>
        <technique profile="MAX3D">
          <frame_rate>30.000000</frame_rate>
        </technique>
        <technique profile="FCOLLADA">
          <start_time>0.000000</start_time>
          <end_time>3.333333</end_time>
        </technique>
      </extra>
    </visual_scene>
  </library_visual_scenes>
  <scene>
    <instance_visual_scene url="#SM_Sand_Dollar_01"/>
  </scene>
</COLLADA>
