<?xml version="1.0" encoding="utf-8"?>
<COLLADA xmlns="http://www.collada.org/2005/11/COLLADASchema" version="1.4.1">
  <asset>
    <contributor>
      <author/>
      <authoring_tool>FBX COLLADA exporter</authoring_tool>
      <comments/>
    </contributor>
    <created>2024-02-10T11:42:40Z</created>
    <keywords/>
    <modified>2024-02-10T11:42:40Z</modified>
    <revision/>
    <subject/>
    <title/>
    <unit meter="0.010000" name="centimeter"/>
    <up_axis>Y_UP</up_axis>
  </asset>
  <library_materials>
    <material id="MAT_Sea_Shells" name="MAT_Sea_Shells">
      <instance_effect url="#MAT_Sea_Shells-fx"/>
    </material>
  </library_materials>
  <library_effects>
    <effect id="MAT_Sea_Shells-fx" name="MAT_Sea_Shells">
      <profile_COMMON>
        <technique sid="standard">
          <phong>
            <emission>
              <color sid="emission">0.000000  0.000000 0.000000 1.000000</color>
            </emission>
            <ambient>
              <color sid="ambient">0.588235  0.588235 0.588235 1.000000</color>
            </ambient>
            <diffuse>
              <color sid="diffuse">0.588235  0.588235 0.588235 1.000000</color>
            </diffuse>
            <specular>
              <color sid="specular">0.000000  0.000000 0.000000 1.000000</color>
            </specular>
            <shininess>
              <float sid="shininess">2.000000</float>
            </shininess>
            <reflective>
              <color sid="reflective">0.000000  0.000000 0.000000 1.000000</color>
            </reflective>
            <reflectivity>
              <float sid="reflectivity">1.000000</float>
            </reflectivity>
            <transparent opaque="RGB_ZERO">
              <color sid="transparent">1.000000  1.000000 1.000000 1.000000</color>
            </transparent>
            <transparency>
              <float sid="transparency">0.000000</float>
            </transparency>
          </phong>
        </technique>
      </profile_COMMON>
    </effect>
  </library_effects>
  <library_geometries>
    <geometry id="SM_Starfish_01_LOD0-lib" name="SM_Starfish_01_LOD0Mesh">
      <mesh>
        <source id="SM_Starfish_01_LOD0-POSITION">
          <float_array id="SM_Starfish_01_LOD0-POSITION-array" count="393">
1.256721 17.557663 1.341972
1.679153 12.409744 1.232826
0.731728 15.495087 2.677021
2.012642 8.842163 1.144333
3.365738 6.697464 1.119725
6.027756 5.939453 1.119726
5.884697 4.061447 4.250361
9.978500 5.008987 3.399027
14.638863 5.494843 2.623019
17.807076 6.076736 1.119726
17.021126 5.122757 2.053573
18.153168 5.153671 1.119726
15.856590 3.562363 1.119726
16.858315 5.624802 2.053573
8.372635 0.568329 4.250362
-0.850357 -0.368286 5.846044
1.987267 3.934937 4.987721
0.371658 8.182770 4.208580
-2.107506 12.308014 3.286856
0.433006 12.160568 3.286856
-0.726898 15.501221 2.677021
0.287735 17.189163 2.056733
1.036484 17.147629 2.056733
-2.790466 8.463135 4.208580
-3.739410 3.867157 4.987722
-8.124107 5.250656 1.194371
-12.132843 5.161041 1.273284
-11.863441 4.008743 3.254959
-14.694359 5.687866 1.332721
-16.752243 6.581207 1.357732
-17.452606 6.594833 2.232495
-17.648239 6.934906 1.401896
-18.153175 6.252914 1.401896
-17.766602 6.140778 2.232496
-16.741089 6.074600 2.550507
-17.184494 5.424255 2.550507
-14.716759 4.897156 2.993845
-6.866852 3.267822 4.051501
-8.404404 -0.467255 4.051502
-5.063293 -2.746582 4.987723
0.647293 -6.000214 4.987723
4.049904 -8.037537 4.257729
3.351219 -10.236496 1.119727
11.426117 -15.794403 1.900510
12.402863 -15.877014 1.146651
11.139771 -13.212631 1.119728
11.726013 -15.518555 1.900510
10.474289 -13.491302 2.477955
9.746948 -14.150803 2.677060
5.132271 -2.983353 4.987722
10.431671 -0.284332 1.119726
11.159737 2.758026 3.450793
15.191879 4.296204 2.733284
7.880180 -4.097748 1.119727
5.997849 -6.910263 4.159395
-15.527344 3.938339 2.993845
-13.141769 2.458954 3.254959
-10.003448 -2.086945 1.194372
-7.596786 -7.311554 1.119727
-7.728561 -13.543701 3.252892
-8.903389 -16.215424 2.263672
-8.442307 -16.556992 2.263672
-6.408539 -14.420532 3.252890
-2.524704 -8.473206 4.091991
-5.269943 -6.831253 4.044688
-2.149918 -10.950058 1.119728
0.473152 17.632996 1.341972
1.036484 17.147629 0.615484
1.563438 15.763077 1.310991
0.731728 15.495087 0.320297
0.371658 8.182770 0.042557
9.953407 6.251175 1.119725
9.978500 5.008987 0.371531
14.389725 6.255569 1.119725
14.638863 5.494843 0.470131
16.858315 5.624802 0.424532
17.021126 5.122757 0.424533
15.191879 4.296204 0.422423
11.159737 2.758026 0.349134
5.884697 4.061447 0.209873
5.132271 -2.983353 0.035294
-0.123253 -0.868683 0.439677
1.987267 3.934937 0.035293
-2.107506 12.308014 0.280780
0.433006 12.160568 0.280780
0.287735 17.189163 0.615484
-0.726898 15.501221 0.320297
-1.523178 15.647491 1.310991
-3.017708 12.526657 1.232826
-4.439026 9.026321 1.144333
-2.790466 8.463135 0.042557
-5.700760 6.890625 1.119726
-3.739410 3.867157 0.035290
-11.863441 4.008743 0.519951
-14.716759 4.897156 0.494000
-17.452606 6.594833 0.591290
-17.777344 5.087021 1.357732
-17.766602 6.140778 0.591290
-17.184494 5.424255 0.415482
-16.741089 6.074600 0.415481
-8.404404 -0.467255 0.153822
-6.866852 3.267822 0.153822
-5.063293 -2.746582 0.035291
0.714912 -9.447281 1.119727
4.049904 -8.037537 0.000002
9.442085 -15.139557 1.119728
11.868874 -16.525116 1.146651
11.426117 -15.794403 0.514058
11.726013 -15.518555 0.514058
10.474289 -13.491302 0.532899
9.746948 -14.150803 0.446753
5.997849 -6.910263 0.042547
8.372635 0.568329 0.209873
12.799904 1.669449 1.119726
8.469444 -7.562531 1.119727
-15.527344 3.938339 0.494000
-16.221100 3.357956 1.332721
-13.141769 2.458954 0.566743
-14.172249 1.472427 1.273285
-8.176353 -4.464066 1.119727
-5.269943 -6.831253 0.092177
0.647293 -6.000214 0.035294
-2.524704 -8.473206 0.071710
-6.209549 -15.488739 1.119728
-6.408539 -14.420532 0.197609
-9.025879 -17.633011 1.146527
-8.442307 -16.556992 0.356823
-8.903389 -16.215424 0.356823
-7.728561 -13.543701 0.197609
-8.726715 -14.242218 1.119728
-9.685081 -17.192062 1.146527
</float_array>
          <technique_common>
            <accessor source="#SM_Starfish_01_LOD0-POSITION-array" count="131" stride="3">
              <param name="X" type="float"/>
              <param name="Y" type="float"/>
              <param name="Z" type="float"/>
            </accessor>
          </technique_common>
        </source>
        <source id="SM_Starfish_01_LOD0-Normal0">
          <float_array id="SM_Starfish_01_LOD0-Normal0-array" count="2322">
-0.260808 0.965384 0.003554
0.499669 0.487646 0.715913
0.650077 0.759854 0.004647
0.499669 0.487646 0.715913
0.997010 0.048628 -0.060060
0.650077 0.759854 0.004647
0.499669 0.487646 0.715913
0.470486 0.175835 0.864711
0.997010 0.048628 -0.060060
0.470486 0.175835 0.864711
0.984003 0.041754 -0.173192
0.997010 0.048628 -0.060060
0.470486 0.175835 0.864711
0.491840 0.150195 0.857633
0.984003 0.041754 -0.173192
0.491840 0.150195 0.857633
0.913928 0.308026 -0.264302
0.984003 0.041754 -0.173192
0.491840 0.150195 0.857633
0.414446 0.267649 0.869827
0.913928 0.308026 -0.264302
0.414446 0.267649 0.869827
0.595419 0.724986 -0.346224
0.913928 0.308026 -0.264302
0.414446 0.267649 0.869827
0.205926 0.312302 0.927395
0.595419 0.724986 -0.346224
0.205926 0.312302 0.927395
0.120665 0.496517 0.859599
0.595419 0.724986 -0.346224
0.120665 0.496517 0.859599
0.079536 0.947411 -0.309977
0.595419 0.724986 -0.346224
0.120665 0.496517 0.859599
0.062581 0.571682 0.818085
0.079536 0.947411 -0.309977
0.062581 0.571682 0.818085
-0.041385 0.964960 -0.259115
0.079536 0.947411 -0.309977
0.062581 0.571682 0.818085
0.111170 0.587778 0.801348
-0.041385 0.964960 -0.259115
0.111170 0.587778 0.801348
-0.007177 0.980771 -0.195029
-0.041385 0.964960 -0.259115
0.111170 0.587778 0.801348
0.320029 0.534748 0.782065
-0.007177 0.980771 -0.195029
0.320029 0.534748 0.782065
0.667516 0.742284 -0.058622
-0.007177 0.980771 -0.195029
0.320029 0.534748 0.782065
0.541258 -0.233949 0.807656
0.667516 0.742284 -0.058622
0.541258 -0.233949 0.807656
0.971851 -0.229038 -0.055202
0.667516 0.742284 -0.058622
0.541258 -0.233949 0.807656
0.522062 -0.834412 -0.176658
0.971851 -0.229038 -0.055202
0.541258 -0.233949 0.807656
0.368049 -0.314159 0.875125
0.522062 -0.834412 -0.176658
0.320029 0.534748 0.782065
0.368049 -0.314159 0.875125
0.541258 -0.233949 0.807656
0.111170 0.587778 0.801348
0.368049 -0.314159 0.875125
0.320029 0.534748 0.782065
0.358447 -0.259737 0.896690
0.368049 -0.314159 0.875125
0.111170 0.587778 0.801348
0.062581 0.571682 0.818085
0.358447 -0.259737 0.896690
0.111170 0.587778 0.801348
0.429528 -0.204618 0.879566
0.358447 -0.259737 0.896690
0.062581 0.571682 0.818085
0.120665 0.496517 0.859599
0.429528 -0.204618 0.879566
0.062581 0.571682 0.818085
0.377209 -0.116869 0.918725
0.429528 -0.204618 0.879566
0.120665 0.496517 0.859599
0.205926 0.312302 0.927395
0.377209 -0.116869 0.918725
0.120665 0.496517 0.859599
-0.023051 0.010408 0.999680
0.377209 -0.116869 0.918725
0.205926 0.312302 0.927395
-0.269583 0.251764 0.929484
-0.023051 0.010408 0.999680
0.205926 0.312302 0.927395
0.414446 0.267649 0.869827
-0.269583 0.251764 0.929484
0.205926 0.312302 0.927395
-0.430815 0.276719 0.858967
-0.269583 0.251764 0.929484
0.414446 0.267649 0.869827
-0.500136 0.325383 0.802490
-0.430815 0.276719 0.858967
0.414446 0.267649 0.869827
0.491840 0.150195 0.857633
-0.500136 0.325383 0.802490
0.414446 0.267649 0.869827
-0.409904 0.416295 0.811589
-0.500136 0.325383 0.802490
0.491840 0.150195 0.857633
0.470486 0.175835 0.864711
-0.409904 0.416295 0.811589
0.491840 0.150195 0.857633
-0.312859 0.680546 0.662553
-0.409904 0.416295 0.811589
0.470486 0.175835 0.864711
0.499669 0.487646 0.715913
-0.312859 0.680546 0.662553
0.470486 0.175835 0.864711
-0.260808 0.965384 0.003554
-0.312859 0.680546 0.662553
0.499669 0.487646 0.715913
-0.841372 0.534458 -0.080292
-0.312859 0.680546 0.662553
-0.260808 0.965384 0.003554
-0.841372 0.534458 -0.080292
-0.409904 0.416295 0.811589
-0.312859 0.680546 0.662553
-0.841372 0.534458 -0.080292
-0.500136 0.325383 0.802490
-0.409904 0.416295 0.811589
-0.900603 0.400229 -0.169502
-0.500136 0.325383 0.802490
-0.841372 0.534458 -0.080292
-0.878823 0.407200 -0.248713
-0.500136 0.325383 0.802490
-0.900603 0.400229 -0.169502
-0.878823 0.407200 -0.248713
-0.430815 0.276719 0.858967
-0.500136 0.325383 0.802490
-0.751848 0.585084 -0.303976
-0.430815 0.276719 0.858967
-0.878823 0.407200 -0.248713
-0.751848 0.585084 -0.303976
-0.269583 0.251764 0.929484
-0.430815 0.276719 0.858967
-0.245140 0.400629 0.882838
-0.269583 0.251764 0.929484
-0.751848 0.585084 -0.303976
-0.232190 0.933011 -0.274916
-0.245140 0.400629 0.882838
-0.751848 0.585084 -0.303976
-0.009922 0.514770 0.857271
-0.245140 0.400629 0.882838
-0.232190 0.933011 -0.274916
0.134015 0.963760 -0.230667
-0.009922 0.514770 0.857271
-0.232190 0.933011 -0.274916
0.090600 0.520720 0.848907
-0.009922 0.514770 0.857271
0.134015 0.963760 -0.230667
0.341427 0.929980 -0.136254
0.090600 0.520720 0.848907
0.134015 0.963760 -0.230667
0.095400 0.574967 0.812596
0.090600 0.520720 0.848907
0.341427 0.929980 -0.136254
0.414970 0.909153 -0.035230
0.095400 0.574967 0.812596
0.341427 0.929980 -0.136254
-0.176810 0.728898 0.661397
0.095400 0.574967 0.812596
0.414970 0.909153 -0.035230
-0.306275 0.951943 -0.000469
-0.176810 0.728898 0.661397
0.414970 0.909153 -0.035230
-0.985439 0.170029 -0.000559
-0.176810 0.728898 0.661397
-0.306275 0.951943 -0.000469
-0.985439 0.170029 -0.000559
-0.726146 0.085340 0.682223
-0.176810 0.728898 0.661397
-0.726146 0.085340 0.682223
0.095400 0.574967 0.812596
-0.176810 0.728898 0.661397
-0.842823 -0.536394 -0.043947
-0.726146 0.085340 0.682223
-0.985439 0.170029 -0.000559
-0.842823 -0.536394 -0.043947
-0.523269 -0.218251 0.823745
-0.726146 0.085340 0.682223
-0.523269 -0.218251 0.823745
0.095400 0.574967 0.812596
-0.726146 0.085340 0.682223
-0.523269 -0.218251 0.823745
-0.411053 -0.321903 0.852886
0.095400 0.574967 0.812596
-0.411053 -0.321903 0.852886
0.090600 0.520720 0.848907
0.095400 0.574967 0.812596
-0.411053 -0.321903 0.852886
-0.330140 -0.320692 0.887786
0.090600 0.520720 0.848907
-0.330140 -0.320692 0.887786
-0.009922 0.514770 0.857271
0.090600 0.520720 0.848907
-0.330140 -0.320692 0.887786
-0.389026 -0.258948 0.884084
-0.009922 0.514770 0.857271
-0.389026 -0.258948 0.884084
-0.245140 0.400629 0.882838
-0.009922 0.514770 0.857271
-0.389026 -0.258948 0.884084
-0.351494 -0.164249 0.921669
-0.245140 0.400629 0.882838
-0.351494 -0.164249 0.921669
-0.269583 0.251764 0.929484
-0.245140 0.400629 0.882838
-0.351494 -0.164249 0.921669
-0.023051 0.010408 0.999680
-0.269583 0.251764 0.929484
-0.351494 -0.164249 0.921669
0.008184 -0.363956 0.931380
-0.023051 0.010408 0.999680
0.008184 -0.363956 0.931380
0.377209 -0.116869 0.918725
-0.023051 0.010408 0.999680
0.008184 -0.363956 0.931380
-0.114230 -0.450191 0.885596
0.377209 -0.116869 0.918725
-0.114230 -0.450191 0.885596
0.008184 -0.363956 0.931380
0.078051 -0.943495 -0.322064
-0.114230 -0.450191 0.885596
0.078051 -0.943495 -0.322064
-0.475308 -0.839452 -0.263444
-0.125678 -0.443473 0.887433
-0.114230 -0.450191 0.885596
-0.475308 -0.839452 -0.263444
-0.585652 -0.791484 -0.174829
-0.125678 -0.443473 0.887433
-0.475308 -0.839452 -0.263444
0.005054 -0.618810 0.785524
-0.125678 -0.443473 0.887433
-0.585652 -0.791484 -0.174829
0.257489 -0.965712 -0.033171
0.005054 -0.618810 0.785524
-0.585652 -0.791484 -0.174829
0.979187 -0.199968 -0.034730
0.005054 -0.618810 0.785524
0.257489 -0.965712 -0.033171
0.979187 -0.199968 -0.034730
0.609401 -0.076865 0.789127
0.005054 -0.618810 0.785524
0.609401 -0.076865 0.789127
-0.125678 -0.443473 0.887433
0.005054 -0.618810 0.785524
0.881477 0.435130 -0.183469
0.609401 -0.076865 0.789127
0.979187 -0.199968 -0.034730
0.881477 0.435130 -0.183469
0.603508 0.174306 0.778072
0.609401 -0.076865 0.789127
0.603508 0.174306 0.778072
-0.125678 -0.443473 0.887433
0.609401 -0.076865 0.789127
0.603508 0.174306 0.778072
0.483941 -0.002273 0.875098
-0.125678 -0.443473 0.887433
0.483941 -0.002273 0.875098
-0.114230 -0.450191 0.885596
-0.125678 -0.443473 0.887433
0.483941 -0.002273 0.875098
0.377209 -0.116869 0.918725
-0.114230 -0.450191 0.885596
0.483941 -0.002273 0.875098
0.924997 -0.186010 -0.331331
0.377209 -0.116869 0.918725
0.924997 -0.186010 -0.331331
0.429528 -0.204618 0.879566
0.377209 -0.116869 0.918725
0.718554 -0.632383 -0.289434
0.429528 -0.204618 0.879566
0.924997 -0.186010 -0.331331
0.718554 -0.632383 -0.289434
0.358447 -0.259737 0.896690
0.429528 -0.204618 0.879566
0.516324 -0.818303 -0.252566
0.358447 -0.259737 0.896690
0.718554 -0.632383 -0.289434
0.516324 -0.818303 -0.252566
0.368049 -0.314159 0.875125
0.358447 -0.259737 0.896690
0.368049 -0.314159 0.875125
0.516324 -0.818303 -0.252566
0.522062 -0.834412 -0.176658
0.483941 -0.002273 0.875098
0.903617 0.345054 -0.253798
0.924997 -0.186010 -0.331331
0.603508 0.174306 0.778072
0.903617 0.345054 -0.253798
0.483941 -0.002273 0.875098
0.903617 0.345054 -0.253798
0.603508 0.174306 0.778072
0.881477 0.435130 -0.183469
-0.690794 -0.709556 -0.139048
-0.411053 -0.321903 0.852886
-0.523269 -0.218251 0.823745
-0.690794 -0.709556 -0.139048
-0.523269 -0.218251 0.823745
-0.842823 -0.536394 -0.043947
-0.605050 -0.761416 -0.232723
-0.411053 -0.321903 0.852886
-0.690794 -0.709556 -0.139048
-0.605050 -0.761416 -0.232723
-0.330140 -0.320692 0.887786
-0.411053 -0.321903 0.852886
-0.700897 -0.670130 -0.244275
-0.330140 -0.320692 0.887786
-0.605050 -0.761416 -0.232723
-0.700897 -0.670130 -0.244275
-0.389026 -0.258948 0.884084
-0.330140 -0.320692 0.887786
-0.869656 -0.395517 -0.295407
-0.389026 -0.258948 0.884084
-0.700897 -0.670130 -0.244275
-0.869656 -0.395517 -0.295407
-0.351494 -0.164249 0.921669
-0.389026 -0.258948 0.884084
-0.452715 -0.091797 0.886917
-0.351494 -0.164249 0.921669
-0.869656 -0.395517 -0.295407
-0.962302 0.062191 -0.264777
-0.452715 -0.091797 0.886917
-0.869656 -0.395517 -0.295407
-0.567914 0.004270 0.823077
-0.452715 -0.091797 0.886917
-0.962302 0.062191 -0.264777
-0.951577 0.268489 -0.149718
-0.567914 0.004270 0.823077
-0.962302 0.062191 -0.264777
-0.655458 -0.108649 0.747375
-0.567914 0.004270 0.823077
-0.951577 0.268489 -0.149718
-0.898865 -0.432931 -0.067920
-0.655458 -0.108649 0.747375
-0.951577 0.268489 -0.149718
0.098623 -0.636336 0.765082
-0.655458 -0.108649 0.747375
-0.898865 -0.432931 -0.067920
-0.076694 -0.994721 -0.068172
0.098623 -0.636336 0.765082
-0.898865 -0.432931 -0.067920
0.673220 -0.721017 -0.164043
0.098623 -0.636336 0.765082
-0.076694 -0.994721 -0.068172
0.673220 -0.721017 -0.164043
0.315279 -0.483684 0.816486
0.098623 -0.636336 0.765082
0.315279 -0.483684 0.816486
-0.655458 -0.108649 0.747375
0.098623 -0.636336 0.765082
0.315279 -0.483684 0.816486
-0.567914 0.004270 0.823077
-0.655458 -0.108649 0.747375
0.315279 -0.483684 0.816486
0.180596 -0.417589 0.890508
-0.567914 0.004270 0.823077
0.180596 -0.417589 0.890508
-0.452715 -0.091797 0.886917
-0.567914 0.004270 0.823077
0.180596 -0.417589 0.890508
0.008184 -0.363956 0.931380
-0.452715 -0.091797 0.886917
-0.452715 -0.091797 0.886917
0.008184 -0.363956 0.931380
-0.351494 -0.164249 0.921669
0.078051 -0.943495 -0.322064
0.008184 -0.363956 0.931380
0.180596 -0.417589 0.890508
0.180596 -0.417589 0.890508
0.671866 -0.694126 -0.258428
0.078051 -0.943495 -0.322064
0.315279 -0.483684 0.816486
0.671866 -0.694126 -0.258428
0.180596 -0.417589 0.890508
0.671866 -0.694126 -0.258428
0.315279 -0.483684 0.816486
0.673220 -0.721017 -0.164043
0.475250 0.443992 -0.759611
-0.260808 0.965384 0.003554
0.650077 0.759854 0.004647
0.997010 0.048628 -0.060060
0.475250 0.443992 -0.759611
0.650077 0.759854 0.004647
0.389937 0.057153 -0.919066
0.475250 0.443992 -0.759611
0.997010 0.048628 -0.060060
0.984003 0.041754 -0.173192
0.389937 0.057153 -0.919066
0.997010 0.048628 -0.060060
0.309055 0.028454 -0.950618
0.389937 0.057153 -0.919066
0.984003 0.041754 -0.173192
0.913928 0.308026 -0.264302
0.309055 0.028454 -0.950618
0.984003 0.041754 -0.173192
0.220230 0.082169 -0.971981
0.309055 0.028454 -0.950618
0.913928 0.308026 -0.264302
0.595419 0.724986 -0.346224
0.220230 0.082169 -0.971981
0.913928 0.308026 -0.264302
0.057800 0.066307 -0.996124
0.220230 0.082169 -0.971981
0.595419 0.724986 -0.346224
0.026755 0.209096 -0.977529
0.057800 0.066307 -0.996124
0.595419 0.724986 -0.346224
0.079536 0.947411 -0.309977
0.026755 0.209096 -0.977529
0.595419 0.724986 -0.346224
-0.002608 0.286705 -0.958015
0.026755 0.209096 -0.977529
0.079536 0.947411 -0.309977
-0.041385 0.964960 -0.259115
-0.002608 0.286705 -0.958015
0.079536 0.947411 -0.309977
-0.007177 0.980771 -0.195029
-0.002608 0.286705 -0.958015
-0.041385 0.964960 -0.259115
-0.030027 0.360480 -0.932284
-0.002608 0.286705 -0.958015
-0.007177 0.980771 -0.195029
0.177155 0.419363 -0.890366
-0.030027 0.360480 -0.932284
-0.007177 0.980771 -0.195029
0.667516 0.742284 -0.058622
0.177155 0.419363 -0.890366
-0.007177 0.980771 -0.195029
0.350641 -0.214949 -0.911509
0.177155 0.419363 -0.890366
0.667516 0.742284 -0.058622
0.971851 -0.229038 -0.055202
0.350641 -0.214949 -0.911509
0.667516 0.742284 -0.058622
0.522062 -0.834412 -0.176658
0.350641 -0.214949 -0.911509
0.971851 -0.229038 -0.055202
0.134975 -0.250490 -0.958664
0.350641 -0.214949 -0.911509
0.522062 -0.834412 -0.176658
0.134975 -0.250490 -0.958664
0.177155 0.419363 -0.890366
0.350641 -0.214949 -0.911509
0.134975 -0.250490 -0.958664
-0.030027 0.360480 -0.932284
0.177155 0.419363 -0.890366
0.134975 -0.250490 -0.958664
0.117484 -0.138811 -0.983325
-0.030027 0.360480 -0.932284
0.117484 -0.138811 -0.983325
-0.002608 0.286705 -0.958015
-0.030027 0.360480 -0.932284
0.117484 -0.138811 -0.983325
0.160434 -0.105794 -0.981360
-0.002608 0.286705 -0.958015
0.160434 -0.105794 -0.981360
0.026755 0.209096 -0.977529
-0.002608 0.286705 -0.958015
0.160434 -0.105794 -0.981360
0.108826 -0.016953 -0.993916
0.026755 0.209096 -0.977529
0.108826 -0.016953 -0.993916
0.057800 0.066307 -0.996124
0.026755 0.209096 -0.977529
0.108826 -0.016953 -0.993916
-0.002165 0.001967 -0.999996
0.057800 0.066307 -0.996124
-0.002165 0.001967 -0.999996
-0.063172 0.051688 -0.996663
0.057800 0.066307 -0.996124
-0.063172 0.051688 -0.996663
0.220230 0.082169 -0.971981
0.057800 0.066307 -0.996124
-0.063172 0.051688 -0.996663
-0.236320 0.097592 -0.966762
0.220230 0.082169 -0.971981
-0.236320 0.097592 -0.966762
-0.367629 0.183893 -0.911610
0.220230 0.082169 -0.971981
-0.367629 0.183893 -0.911610
0.309055 0.028454 -0.950618
0.220230 0.082169 -0.971981
-0.367629 0.183893 -0.911610
-0.381553 0.268014 -0.884639
0.309055 0.028454 -0.950618
-0.381553 0.268014 -0.884639
0.389937 0.057153 -0.919066
0.309055 0.028454 -0.950618
-0.381553 0.268014 -0.884639
-0.307575 0.622198 -0.719908
0.389937 0.057153 -0.919066
-0.307575 0.622198 -0.719908
0.475250 0.443992 -0.759611
0.389937 0.057153 -0.919066
-0.307575 0.622198 -0.719908
-0.260808 0.965384 0.003554
0.475250 0.443992 -0.759611
-0.307575 0.622198 -0.719908
-0.841372 0.534458 -0.080292
-0.260808 0.965384 0.003554
-0.381553 0.268014 -0.884639
-0.841372 0.534458 -0.080292
-0.307575 0.622198 -0.719908
-0.367629 0.183893 -0.911610
-0.841372 0.534458 -0.080292
-0.381553 0.268014 -0.884639
-0.367629 0.183893 -0.911610
-0.900603 0.400229 -0.169502
-0.841372 0.534458 -0.080292
-0.367629 0.183893 -0.911610
-0.878823 0.407200 -0.248713
-0.900603 0.400229 -0.169502
-0.236320 0.097592 -0.966762
-0.878823 0.407200 -0.248713
-0.367629 0.183893 -0.911610
-0.236320 0.097592 -0.966762
-0.751848 0.585084 -0.303976
-0.878823 0.407200 -0.248713
-0.063172 0.051688 -0.996663
-0.751848 0.585084 -0.303976
-0.236320 0.097592 -0.966762
-0.063172 0.051688 -0.996663
-0.076101 0.170911 -0.982343
-0.751848 0.585084 -0.303976
-0.076101 0.170911 -0.982343
-0.232190 0.933011 -0.274916
-0.751848 0.585084 -0.303976
-0.076101 0.170911 -0.982343
0.003883 0.275329 -0.961342
-0.232190 0.933011 -0.274916
0.003883 0.275329 -0.961342
0.134015 0.963760 -0.230667
-0.232190 0.933011 -0.274916
0.003883 0.275329 -0.961342
0.143291 0.335072 -0.931233
0.134015 0.963760 -0.230667
0.143291 0.335072 -0.931233
0.341427 0.929980 -0.136254
0.134015 0.963760 -0.230667
0.143291 0.335072 -0.931233
0.184557 0.458957 -0.869078
0.341427 0.929980 -0.136254
0.184557 0.458957 -0.869078
0.414970 0.909153 -0.035230
0.341427 0.929980 -0.136254
0.184557 0.458957 -0.869078
-0.153723 0.686921 -0.710288
0.414970 0.909153 -0.035230
-0.153723 0.686921 -0.710288
-0.306275 0.951943 -0.000469
0.414970 0.909153 -0.035230
-0.153723 0.686921 -0.710288
-0.985439 0.170029 -0.000559
-0.306275 0.951943 -0.000469
-0.153723 0.686921 -0.710288
-0.674266 0.070295 -0.735136
-0.985439 0.170029 -0.000559
0.184557 0.458957 -0.869078
-0.674266 0.070295 -0.735136
-0.153723 0.686921 -0.710288
-0.674266 0.070295 -0.735136
-0.842823 -0.536394 -0.043947
-0.985439 0.170029 -0.000559
-0.674266 0.070295 -0.735136
-0.377677 -0.255128 -0.890095
-0.842823 -0.536394 -0.043947
0.184557 0.458957 -0.869078
-0.377677 -0.255128 -0.890095
-0.674266 0.070295 -0.735136
-0.221753 -0.287152 -0.931863
-0.377677 -0.255128 -0.890095
0.184557 0.458957 -0.869078
0.143291 0.335072 -0.931233
-0.221753 -0.287152 -0.931863
0.184557 0.458957 -0.869078
-0.150752 -0.186490 -0.970822
-0.221753 -0.287152 -0.931863
0.143291 0.335072 -0.931233
0.003883 0.275329 -0.961342
-0.150752 -0.186490 -0.970822
0.143291 0.335072 -0.931233
-0.159205 -0.126785 -0.979071
-0.150752 -0.186490 -0.970822
0.003883 0.275329 -0.961342
-0.076101 0.170911 -0.982343
-0.159205 -0.126785 -0.979071
0.003883 0.275329 -0.961342
-0.076907 -0.033824 -0.996464
-0.159205 -0.126785 -0.979071
-0.076101 0.170911 -0.982343
-0.063172 0.051688 -0.996663
-0.076907 -0.033824 -0.996464
-0.076101 0.170911 -0.982343
-0.002165 0.001967 -0.999996
-0.076907 -0.033824 -0.996464
-0.063172 0.051688 -0.996663
-0.002623 -0.069304 -0.997592
-0.076907 -0.033824 -0.996464
-0.002165 0.001967 -0.999996
0.108826 -0.016953 -0.993916
-0.002623 -0.069304 -0.997592
-0.002165 0.001967 -0.999996
-0.090239 -0.170409 -0.981233
-0.002623 -0.069304 -0.997592
0.108826 -0.016953 -0.993916
-0.090239 -0.170409 -0.981233
0.078051 -0.943495 -0.322064
-0.002623 -0.069304 -0.997592
-0.090239 -0.170409 -0.981233
-0.475308 -0.839452 -0.263444
0.078051 -0.943495 -0.322064
-0.090239 -0.170409 -0.981233
-0.153370 -0.222313 -0.962837
-0.475308 -0.839452 -0.263444
-0.153370 -0.222313 -0.962837
-0.585652 -0.791484 -0.174829
-0.475308 -0.839452 -0.263444
-0.153370 -0.222313 -0.962837
-0.039766 -0.484296 -0.874000
-0.585652 -0.791484 -0.174829
-0.039766 -0.484296 -0.874000
0.257489 -0.965712 -0.033171
-0.585652 -0.791484 -0.174829
-0.039766 -0.484296 -0.874000
0.979187 -0.199968 -0.034730
0.257489 -0.965712 -0.033171
-0.039766 -0.484296 -0.874000
0.477911 -0.020773 -0.878163
0.979187 -0.199968 -0.034730
-0.153370 -0.222313 -0.962837
0.477911 -0.020773 -0.878163
-0.039766 -0.484296 -0.874000
0.477911 -0.020773 -0.878163
0.881477 0.435130 -0.183469
0.979187 -0.199968 -0.034730
0.477911 -0.020773 -0.878163
0.337919 0.171840 -0.925355
0.881477 0.435130 -0.183469
-0.153370 -0.222313 -0.962837
0.337919 0.171840 -0.925355
0.477911 -0.020773 -0.878163
0.206225 0.046787 -0.977385
0.337919 0.171840 -0.925355
-0.153370 -0.222313 -0.962837
-0.090239 -0.170409 -0.981233
0.206225 0.046787 -0.977385
-0.153370 -0.222313 -0.962837
0.108826 -0.016953 -0.993916
0.206225 0.046787 -0.977385
-0.090239 -0.170409 -0.981233
0.924997 -0.186010 -0.331331
0.206225 0.046787 -0.977385
0.108826 -0.016953 -0.993916
0.160434 -0.105794 -0.981360
0.924997 -0.186010 -0.331331
0.108826 -0.016953 -0.993916
0.160434 -0.105794 -0.981360
0.718554 -0.632383 -0.289434
0.924997 -0.186010 -0.331331
0.117484 -0.138811 -0.983325
0.718554 -0.632383 -0.289434
0.160434 -0.105794 -0.981360
0.117484 -0.138811 -0.983325
0.516324 -0.818303 -0.252566
0.718554 -0.632383 -0.289434
0.134975 -0.250490 -0.958664
0.516324 -0.818303 -0.252566
0.117484 -0.138811 -0.983325
0.134975 -0.250490 -0.958664
0.522062 -0.834412 -0.176658
0.516324 -0.818303 -0.252566
0.903617 0.345054 -0.253798
0.206225 0.046787 -0.977385
0.924997 -0.186010 -0.331331
0.903617 0.345054 -0.253798
0.337919 0.171840 -0.925355
0.206225 0.046787 -0.977385
0.337919 0.171840 -0.925355
0.903617 0.345054 -0.253798
0.881477 0.435130 -0.183469
-0.221753 -0.287152 -0.931863
-0.690794 -0.709556 -0.139048
-0.377677 -0.255128 -0.890095
-0.377677 -0.255128 -0.890095
-0.690794 -0.709556 -0.139048
-0.842823 -0.536394 -0.043947
-0.605050 -0.761416 -0.232723
-0.690794 -0.709556 -0.139048
-0.221753 -0.287152 -0.931863
-0.150752 -0.186490 -0.970822
-0.605050 -0.761416 -0.232723
-0.221753 -0.287152 -0.931863
-0.150752 -0.186490 -0.970822
-0.700897 -0.670130 -0.244275
-0.605050 -0.761416 -0.232723
-0.159205 -0.126785 -0.979071
-0.700897 -0.670130 -0.244275
-0.150752 -0.186490 -0.970822
-0.159205 -0.126785 -0.979071
-0.869656 -0.395517 -0.295407
-0.700897 -0.670130 -0.244275
-0.076907 -0.033824 -0.996464
-0.869656 -0.395517 -0.295407
-0.159205 -0.126785 -0.979071
-0.183422 0.008243 -0.983000
-0.869656 -0.395517 -0.295407
-0.076907 -0.033824 -0.996464
-0.002623 -0.069304 -0.997592
-0.183422 0.008243 -0.983000
-0.076907 -0.033824 -0.996464
0.116202 -0.150380 -0.981775
-0.183422 0.008243 -0.983000
-0.002623 -0.069304 -0.997592
0.078051 -0.943495 -0.322064
0.116202 -0.150380 -0.981775
-0.002623 -0.069304 -0.997592
0.671866 -0.694126 -0.258428
0.116202 -0.150380 -0.981775
0.078051 -0.943495 -0.322064
0.280669 -0.284970 -0.916525
0.116202 -0.150380 -0.981775
0.671866 -0.694126 -0.258428
0.673220 -0.721017 -0.164043
0.280669 -0.284970 -0.916525
0.671866 -0.694126 -0.258428
0.135984 -0.468840 -0.872753
0.280669 -0.284970 -0.916525
0.673220 -0.721017 -0.164043
-0.076694 -0.994721 -0.068172
0.135984 -0.468840 -0.872753
0.673220 -0.721017 -0.164043
-0.898865 -0.432931 -0.067920
0.135984 -0.468840 -0.872753
-0.076694 -0.994721 -0.068172
-0.512308 -0.012846 -0.858706
0.135984 -0.468840 -0.872753
-0.898865 -0.432931 -0.067920
-0.512308 -0.012846 -0.858706
0.280669 -0.284970 -0.916525
0.135984 -0.468840 -0.872753
-0.512308 -0.012846 -0.858706
-0.380980 0.072695 -0.921721
0.280669 -0.284970 -0.916525
-0.380980 0.072695 -0.921721
0.116202 -0.150380 -0.981775
0.280669 -0.284970 -0.916525
-0.380980 0.072695 -0.921721
-0.183422 0.008243 -0.983000
0.116202 -0.150380 -0.981775
-0.380980 0.072695 -0.921721
-0.962302 0.062191 -0.264777
-0.183422 0.008243 -0.983000
-0.183422 0.008243 -0.983000
-0.962302 0.062191 -0.264777
-0.869656 -0.395517 -0.295407
-0.951577 0.268489 -0.149718
-0.962302 0.062191 -0.264777
-0.380980 0.072695 -0.921721
-0.512308 -0.012846 -0.858706
-0.951577 0.268489 -0.149718
-0.380980 0.072695 -0.921721
-0.512308 -0.012846 -0.858706
-0.898865 -0.432931 -0.067920
-0.951577 0.268489 -0.149718
</float_array>
          <technique_common>
            <accessor source="#SM_Starfish_01_LOD0-Normal0-array" count="774" stride="3">
              <param name="X" type="float"/>
              <param name="Y" type="float"/>
              <param name="Z" type="float"/>
            </accessor>
          </technique_common>
        </source>
        <source id="SM_Starfish_01_LOD0-UV0">
          <float_array id="SM_Starfish_01_LOD0-UV0-array" count="348">
0.112244 0.197754
0.110901 0.194824
0.107666 0.198242
0.117920 0.188477
0.108826 0.185059
0.120239 0.170898
0.106506 0.166016
0.120972 0.151367
0.105408 0.143555
0.126709 0.141113
0.113708 0.119629
0.135620 0.120605
0.139160 0.138672
0.158936 0.126465
0.161621 0.141113
0.185303 0.129883
0.185303 0.139648
0.197876 0.130859
0.203247 0.133789
0.198608 0.127930
0.204834 0.128418
0.195557 0.115723
0.188232 0.123047
0.165161 0.114258
0.149048 0.101074
0.130127 0.081055
0.096924 0.094727
0.081482 0.118652
0.087708 0.145020
0.092285 0.166992
0.100647 0.185059
0.106689 0.194824
0.094177 0.189453
0.083130 0.173828
0.073608 0.155273
0.065674 0.143555
0.063904 0.115723
0.054565 0.133789
0.036011 0.120117
0.034943 0.133789
0.020126 0.125000
0.021759 0.136230
0.008995 0.131836
0.009506 0.139160
0.005112 0.134766
0.003933 0.137695
0.000724 0.134277
0.003271 0.132324
0.000109 0.126953
0.006393 0.127930
0.015411 0.119629
0.028549 0.111328
0.054596 0.094727
0.072937 0.082031
0.104431 0.063965
0.123291 0.052734
0.105225 0.035645
0.117676 0.032227
0.154419 0.020020
0.150879 0.009277
0.163574 0.011230
0.166138 0.007324
0.169312 0.010742
0.165405 0.012695
0.167114 0.026855
0.158569 0.023438
0.134399 0.059570
0.156616 0.074707
0.168213 0.093262
0.179688 0.104004
0.156616 0.057129
0.006775 0.114746
0.017303 0.103516
0.039093 0.083496
0.047302 0.069824
0.071106 0.059570
0.050659 0.055664
0.059723 0.022949
0.045746 0.020508
0.052734 0.008789
0.048035 0.002930
0.055267 0.006836
0.051819 0.000488
0.071411 0.005371
0.066956 0.018066
0.086304 0.050293
0.091492 0.028809
0.563477 0.401855
0.561035 0.405762
0.560059 0.400879
0.558594 0.393555
0.549316 0.393066
0.553223 0.376465
0.541992 0.375977
0.548828 0.357910
0.532227 0.355957
0.550293 0.346191
0.530273 0.332031
0.549316 0.326172
0.559082 0.336914
0.574219 0.321289
0.579590 0.328125
0.602051 0.319824
0.599121 0.315918
0.610840 0.312500
0.614746 0.312500
0.610352 0.308594
0.614258 0.307129
0.602051 0.302734
0.600098 0.307129
0.576660 0.303223
0.555664 0.298340
0.529785 0.289063
0.503906 0.314453
0.498291 0.342285
0.513184 0.364258
0.525879 0.383301
0.540039 0.398926
0.558105 0.404785
0.536133 0.403320
0.520020 0.392090
0.503906 0.378906
0.492432 0.371094
0.480713 0.345703
0.477051 0.362793
0.458984 0.363281
0.460205 0.373047
0.446045 0.373047
0.448486 0.378906
0.437988 0.380371
0.437744 0.384277
0.432861 0.385254
0.431641 0.386719
0.428467 0.386230
0.430176 0.383301
0.427490 0.380859
0.434082 0.377930
0.439697 0.369629
0.447754 0.355469
0.467285 0.330566
0.476807 0.311035
0.499512 0.282715
0.513184 0.265625
0.488281 0.254395
0.501953 0.247559
0.528809 0.223145
0.524902 0.216797
0.534180 0.210449
0.534668 0.204590
0.540527 0.206543
0.536621 0.211426
0.544434 0.225098
0.536133 0.225586
0.529297 0.268066
0.550293 0.276367
0.568359 0.287598
0.583008 0.295410
0.543457 0.260254
0.433350 0.369629
0.438721 0.352539
0.445801 0.325195
0.446045 0.309082
0.466797 0.290527
0.477539 0.276855
0.473877 0.256836
0.445313 0.256836
0.446045 0.248047
0.432861 0.247559
0.427979 0.241699
0.425293 0.245117
0.431152 0.250000
0.440186 0.264160
0.444824 0.294434
0.431396 0.262695
</float_array>
          <technique_common>
            <accessor source="#SM_Starfish_01_LOD0-UV0-array" count="174" stride="2">
              <param name="S" type="float"/>
              <param name="T" type="float"/>
            </accessor>
          </technique_common>
        </source>
        <vertices id="SM_Starfish_01_LOD0-VERTEX">
          <input semantic="POSITION" source="#SM_Starfish_01_LOD0-POSITION"/>
        </vertices>
        <triangles count="258" material="MAT_Sea_Shells">
          <input semantic="VERTEX" offset="0" source="#SM_Starfish_01_LOD0-VERTEX"/>
          <input semantic="NORMAL" offset="1" source="#SM_Starfish_01_LOD0-Normal0"/>
          <input semantic="TEXCOORD" offset="2" set="0" source="#SM_Starfish_01_LOD0-UV0"/>
          <p> 66 0 2 22 1 1 0 2 0 22 3 1 68 4 3 0 5 0 22 6 1 2 7 4 68 8 3 2 9 4 1 10 5 68 11 3 2 12 4 19 13 6 1 14 5 19 15 6 3 16 7 1 17 5 19 18 6 17 19 8 3 20 7 17 21 8 4 22 9 3 23 7 17 24 8 16 25 10 4 26 9 16 27 10 6 28 11 4 29 9 6 30 11 5 31 12 4 32 9 6 33 11 7 34 13 5 35 12 7 36 13 71 37 14 5 38 12 7 39 13 8 40 15 71 41 14 8 42 15 73 43 16 71 44 14 8 45 15 13 46 17 73 47 16 13 48 17 9 49 18 73 50 16 13 51 17 10 52 19 9 53 18 10 54 19 11 55 20 9 56 18 10 57 19 12 58 21 11 59 20 10 60 19 52 61 22 12 62 21 13 63 17 52 64 22 10 65 19 8 66 15 52 67 22 13 68 17 51 69 23 52 70 22 8 71 15 7 72 13 51 73 23 8 74 15 14 75 24 51 76 23 7 77 13 6 78 11 14 79 24 7 80 13 49 81 25 14 82 24 6 83 11 16 84 10 49 85 25 6 86 11 15 87 26 49 88 25 16 89 10 24 90 27 15 91 26 16 92 10 17 93 8 24 94 27 16 95 10 23 96 28 24 97 27 17 98 8 18 99 29 23 100 28 17 101 8 19 102 6 18 103 29 17 104 8 20 105 30 18 106 29 19 107 6 2 108 4 20 109 30 19 110 6 21 111 31 20 112 30 2 113 4 22 114 1 21 115 31 2 116 4 66 117 2 21 118 31 22 119 1 87 120 32 21 121 31 66 122 2 87 123 32 20 124 30 21 125 31 87 126 32 18 127 29 20 128 30 88 129 33 18 130 29 87 131 32 89 132 34 18 133 29 88 134 33 89 135 34 23 136 28 18 137 29 91 138 35 23 139 28 89 140 34 91 141 35 24 142 27 23 143 28 37 144 36 24 145 27 91 146 35 25 147 37 37 148 36 91 149 35 27 150 38 37 151 36 25 152 37 26 153 39 27 154 38 25 155 37 36 156 40 27 157 38 26 158 39 28 159 41 36 160 40 26 161 39 34 162 42 36 163 40 28 164 41 29 165 43 34 166 42 28 167 41 30 168 44 34 169 42 29 170 43 31 171 45 30 172 44 29 173 43 32 174 46 30 175 44 31 176 45 32 177 46 33 178 47 30 179 44 33 180 47 34 181 42 30 182 44 96 183 48 33 184 47 32 185 46 96 186 48 35 187 49 33 188 47 35 189 49 34 190 42 33 191 47 35 192 49 55 193 50 34 194 42 55 195 50 36 196 40 34 197 42 55 198 50 56 199 51 36 200 40 56 201 51 27 202 38 36 203 40 56 204 51 38 205 52 27 206 38 38 207 52 37 208 36 27 209 38 38 210 52 39 211 53 37 212 36 39 213 53 24 214 27 37 215 36 39 216 53 15 217 26 24 218 27 39 219 53 40 220 54 15 221 26 40 222 54 49 223 25 15 224 26 40 225 54 41 226 55 49 227 25 41 228 55 40 229 54 103 230 56 41 231 55 103 232 56 42 233 57 48 234 58 41 235 55 42 236 57 105 237 59 48 238 58 42 239 57 43 240 60 48 241 58 105 242 59 106 243 61 43 244 60 105 245 59 44 246 62 43 247 60 106 248 61 44 249 62 46 250 63 43 251 60 46 252 63 48 253 58 43 254 60 45 255 64 46 256 63 44 257 62 45 258 64 47 259 65 46 260 63 47 261 65 48 262 58 46 263 63 47 264 65 54 265 66 48 266 58 54 267 66 41 268 55 48 269 58 54 270 66 49 271 25 41 272 55 54 273 66 53 274 67 49 275 25 53 276 67 14 277 24 49 278 25 50 279 68 14 280 24 53 281 67 50 282 68 51 283 23 14 284 24 113 285 69 51 286 23 50 287 68 113 288 69 52 289 22 51 290 23 52 291 22 113 292 69 12 293 21 54 294 66 114 295 70 53 296 67 47 297 65 114 298 70 54 299 66 114 300 70 47 301 65 45 302 64 116 303 71 55 304 50 35 305 49 116 306 71 35 307 49 96 308 48 118 309 72 55 310 50 116 311 71 118 312 72 56 313 51 55 314 50 57 315 73 56 316 51 118 317 72 57 318 73 38 319 52 56 320 51 119 321 74 38 322 52 57 323 73 119 324 74 39 325 53 38 326 52 64 327 75 39 328 53 119 329 74 58 330 76 64 331 75 119 332 74 59 333 77 64 334 75 58 335 76 129 336 78 59 337 77 58 338 76 60 339 79 59 340 77 129 341 78 130 342 80 60 343 79 129 344 78 61 345 81 60 346 79 130 347 80 125 348 82 61 349 81 130 350 80 123 351 83 61 352 81 125 353 82 123 354 83 62 355 84 61 356 81 62 357 84 60 358 79 61 359 81 62 360 84 59 361 77 60 362 79 62 363 84 63 364 85 59 365 77 63 366 85 64 367 75 59 368 77 63 369 85 40 370 54 64 371 75 64 372 75 40 373 54 39 374 53 103 375 56 40 376 54 63 377 85 63 378 85 65 379 86 103 380 56 62 381 84 65 382 86 63 383 85 65 384 86 62 385 84 123 386 83 67 387 89 66 388 88 0 389 87 68 390 90 67 391 89 0 392 87 69 393 91 67 394 89 68 395 90 1 396 92 69 397 91 68 398 90 84 399 93 69 400 91 1 401 92 3 402 94 84 403 93 1 404 92 70 405 95 84 406 93 3 407 94 4 408 96 70 409 95 3 410 94 82 411 97 70 412 95 4 413 96 79 414 98 82 415 97 4 416 96 5 417 99 79 418 98 4 419 96 72 420 100 79 421 98 5 422 99 71 423 101 72 424 100 5 425 99 73 426 102 72 427 100 71 428 101 74 429 103 72 430 100 73 431 102 75 432 104 74 433 103 73 434 102 9 435 105 75 436 104 73 437 102 76 438 106 75 439 104 9 440 105 11 441 107 76 442 106 9 443 105 12 444 108 76 445 106 11 446 107 77 447 109 76 448 106 12 449 108 77 450 109 75 451 104 76 452 106 77 453 109 74 454 103 75 455 104 77 456 109 78 457 110 74 458 103 78 459 110 72 460 100 74 461 103 78 462 110 112 463 111 72 464 100 112 465 111 79 466 98 72 467 100 112 468 111 80 469 112 79 470 98 80 471 112 82 472 97 79 473 98 80 474 112 81 475 113 82 476 97 81 477 113 92 478 114 82 479 97 92 480 114 70 481 95 82 482 97 92 483 114 90 484 115 70 485 95 90 486 115 83 487 116 70 488 95 83 489 116 84 490 93 70 491 95 83 492 116 86 493 117 84 494 93 86 495 117 69 496 91 84 497 93 86 498 117 85 499 118 69 500 91 85 501 118 67 502 89 69 503 91 85 504 118 66 505 88 67 506 89 85 507 118 87 508 119 66 509 88 86 510 117 87 511 119 85 512 118 83 513 116 87 514 119 86 515 117 83 516 116 88 517 120 87 518 119 83 519 116 89 520 121 88 521 120 90 522 115 89 523 121 83 524 116 90 525 115 91 526 122 89 527 121 92 528 114 91 529 122 90 530 115 92 531 114 101 532 123 91 533 122 101 534 123 25 535 124 91 536 122 101 537 123 93 538 125 25 539 124 93 540 125 26 541 126 25 542 124 93 543 125 94 544 127 26 545 126 94 546 127 28 547 128 26 548 126 94 549 127 99 550 129 28 551 128 99 552 129 29 553 130 28 554 128 99 555 129 95 556 131 29 557 130 95 558 131 31 559 132 29 560 130 95 561 131 32 562 133 31 563 132 95 564 131 97 565 134 32 566 133 99 567 129 97 568 134 95 569 131 97 570 134 96 571 135 32 572 133 97 573 134 98 574 136 96 575 135 99 576 129 98 577 136 97 578 134 115 579 137 98 580 136 99 581 129 94 582 127 115 583 137 99 584 129 117 585 138 115 586 137 94 587 127 93 588 125 117 589 138 94 590 127 100 591 139 117 592 138 93 593 125 101 594 123 100 595 139 93 596 125 102 597 140 100 598 139 101 599 123 92 600 114 102 601 140 101 602 123 81 603 113 102 604 140 92 605 114 121 606 141 102 607 140 81 608 113 80 609 112 121 610 141 81 611 113 104 612 142 121 613 141 80 614 112 104 615 142 103 616 143 121 617 141 104 618 142 42 619 144 103 620 143 104 621 142 110 622 145 42 623 144 110 624 145 105 625 146 42 626 144 110 627 145 107 628 147 105 629 146 107 630 147 106 631 148 105 632 146 107 633 147 44 634 149 106 635 148 107 636 147 108 637 150 44 638 149 110 639 145 108 640 150 107 641 147 108 642 150 45 643 151 44 644 149 108 645 150 109 646 152 45 647 151 110 648 145 109 649 152 108 650 150 111 651 153 109 652 152 110 653 145 104 654 142 111 655 153 110 656 145 80 657 112 111 658 153 104 659 142 53 660 154 111 661 153 80 662 112 112 663 111 53 664 154 80 665 112 112 666 111 50 667 155 53 668 154 78 669 110 50 670 155 112 671 111 78 672 110 113 673 156 50 674 155 77 675 109 113 676 156 78 677 110 77 678 109 12 679 108 113 680 156 114 681 157 111 682 153 53 683 154 114 684 157 109 685 152 111 686 153 109 687 152 114 688 157 45 689 151 115 690 137 116 691 158 98 692 136 98 693 136 116 694 158 96 695 135 118 696 159 116 697 158 115 698 137 117 699 138 118 700 159 115 701 137 117 702 138 57 703 160 118 704 159 100 705 139 57 706 160 117 707 138 100 708 139 119 709 161 57 710 160 102 711 140 119 712 161 100 713 139 120 714 162 119 715 161 102 716 140 121 717 141 120 718 162 102 719 140 122 720 163 120 721 162 121 722 141 103 723 143 122 724 163 121 725 141 65 726 164 122 727 163 103 728 143 124 729 165 122 730 163 65 731 164 123 732 166 124 733 165 65 734 164 126 735 167 124 736 165 123 737 166 125 738 168 126 739 167 123 740 166 130 741 169 126 742 167 125 743 168 127 744 170 126 745 167 130 746 169 127 747 170 124 748 165 126 749 167 127 750 170 128 751 171 124 752 165 128 753 171 122 754 163 124 755 165 128 756 171 120 757 162 122 758 163 128 759 171 58 760 172 120 761 162 120 762 162 58 763 172 119 764 161 129 765 173 58 766 172 128 767 171 127 768 170 129 769 173 128 770 171 127 771 170 130 772 169 129 773 173</p>
        </triangles>
      </mesh>
    </geometry>
    <geometry id="SM_Starfish_01_LOD1-lib" name="SM_Starfish_01_LOD1Mesh">
      <mesh>
        <source id="SM_Starfish_01_LOD1-POSITION">
          <float_array id="SM_Starfish_01_LOD1-POSITION-array" count="189">
0.990334 17.583282 1.341972
-8.930206 -17.560165 1.145616
-17.831894 6.686844 1.401896
-4.420227 3.736694 4.783915
12.157600 -16.174698 1.146651
17.987221 5.596268 1.119726
0.714912 -9.447281 1.119727
-5.700760 6.890625 1.119726
3.365738 6.697464 1.119725
5.317261 -3.822617 4.810691
-8.176353 -4.464066 1.119727
7.880180 -4.097748 1.119727
-5.118019 -3.828262 0.050355
2.332611 3.946136 4.922385
-12.534332 5.243622 1.282600
10.431671 -0.284332 1.119726
5.224045 -3.399704 0.036063
-5.407990 -2.511429 4.891137
2.526810 3.972900 0.058916
15.191879 4.296204 2.733284
-17.578369 6.412979 2.232495
1.095879 -6.268814 4.891483
-12.843613 4.313934 0.511036
-2.149918 -10.950058 1.119728
-10.082962 -2.019058 1.195877
-8.593307 -16.139023 2.349163
0.457130 16.994110 0.584064
2.012642 8.842163 1.144333
-8.124107 5.250656 1.194371
0.375549 8.435257 4.150075
-1.523178 15.647491 1.310991
10.543205 2.273636 3.627665
9.442085 -15.139557 1.119728
-17.577530 6.196915 0.566777
0.201324 -6.347916 0.040414
14.389725 6.255569 1.119725
-8.903389 -16.215424 0.356823
8.469444 -7.562531 1.119727
0.516090 17.034973 2.107064
11.422813 -15.528931 1.965913
-0.850357 -0.368286 5.846044
-12.918991 4.337402 3.158363
12.799904 1.669449 1.119726
3.351219 -10.236496 1.119727
-7.596786 -7.311554 1.119727
-4.430977 3.838318 0.062517
6.027756 5.939453 1.119726
-2.423386 10.529663 3.713175
-2.524704 -8.473206 4.091991
0.371658 8.182770 0.042557
16.927750 5.410706 0.424532
-9.670311 -17.146606 1.146114
-4.439026 9.026321 1.144333
-17.777344 5.087021 1.357732
16.902847 5.487488 2.053573
-6.408539 -14.420532 3.252890
11.546532 -15.683640 0.514058
1.563438 15.763077 1.310991
-5.269943 -6.831253 4.044688
-15.527344 3.938339 2.993845
-11.368179 1.363434 0.412152
11.159737 2.758026 0.349134
-0.123253 -0.868683 0.439677
</float_array>
          <technique_common>
            <accessor source="#SM_Starfish_01_LOD1-POSITION-array" count="63" stride="3">
              <param name="X" type="float"/>
              <param name="Y" type="float"/>
              <param name="Z" type="float"/>
            </accessor>
          </technique_common>
        </source>
        <source id="SM_Starfish_01_LOD1-Normal0">
          <float_array id="SM_Starfish_01_LOD1-Normal0-array" count="1098">
0.907515 -0.209420 -0.364088
0.388979 -0.231310 0.891735
0.388451 -0.102761 0.915722
-0.004969 0.000996 -0.999987
-0.077001 0.086681 -0.993256
0.061729 0.090666 -0.993966
-0.374524 -0.309440 0.874059
-0.445684 -0.114933 0.887782
-0.976749 0.093508 -0.192918
-0.824435 0.429900 -0.368093
-0.459447 0.326393 0.826061
-0.822489 0.555686 -0.121342
0.155565 -0.397373 0.904375
0.656800 -0.715530 -0.237970
0.151871 -0.419933 0.894758
-0.247187 -0.206809 -0.946641
-0.105583 -0.029708 -0.993967
0.010121 -0.087777 -0.996089
0.203992 0.323356 0.924028
0.016402 0.985514 -0.168797
0.036766 0.952438 -0.302507
0.128901 -0.159208 -0.978794
0.061729 0.090666 -0.993966
0.403231 0.152706 -0.902267
0.347555 -0.409794 0.843371
-0.000562 -0.376627 0.926365
-0.531640 -0.825449 -0.189719
0.347555 -0.409794 0.843371
0.907472 0.353649 -0.226775
0.388451 -0.102761 0.915722
0.004655 0.550277 0.834969
-0.243399 0.286249 0.926725
-0.140439 0.953216 -0.267687
-0.719815 -0.678074 -0.148602
-0.352343 -0.184891 0.917425
-0.451007 -0.290054 0.844074
0.397494 0.253897 0.881779
0.910668 0.301154 -0.282824
0.980798 0.170439 -0.094794
-0.077001 0.086681 -0.993256
-0.029951 0.585984 -0.809769
0.193865 0.096524 -0.976268
0.151871 -0.419933 0.894758
-0.445684 -0.114933 0.887782
-0.374524 -0.309440 0.874059
0.021816 0.653202 0.756870
-0.459447 0.326393 0.826061
0.397494 0.253897 0.881779
-0.077001 0.086681 -0.993256
-0.824435 0.429900 -0.368093
-0.029951 0.585984 -0.809769
0.043865 0.307918 -0.950401
-0.448689 0.358481 -0.818639
0.144651 0.965250 -0.217643
0.128901 -0.159208 -0.978794
0.117001 -0.020782 -0.992914
0.061729 0.090666 -0.993966
0.907472 0.353649 -0.226775
0.304390 -0.395658 -0.866488
0.117001 -0.020782 -0.992914
-0.165328 -0.151427 -0.974544
-0.719815 -0.678074 -0.148602
-0.448689 0.358481 -0.818639
-0.247187 -0.206809 -0.946641
-0.976749 0.093508 -0.192918
-0.105583 -0.029708 -0.993967
0.388451 -0.102761 0.915722
0.388979 -0.231310 0.891735
0.203992 0.323356 0.924028
-0.352343 -0.184891 0.917425
-0.000562 -0.376627 0.926365
-0.022171 0.014343 0.999651
-0.077001 0.086681 -0.993256
-0.140439 0.953216 -0.267687
-0.747811 0.569953 -0.340487
-0.140439 0.953216 -0.267687
-0.243399 0.286249 0.926725
-0.747811 0.569953 -0.340487
0.117001 -0.020782 -0.992914
0.735111 -0.608742 -0.298404
0.907515 -0.209420 -0.364088
0.735111 -0.608742 -0.298404
0.388979 -0.231310 0.891735
0.907515 -0.209420 -0.364088
0.010121 -0.087777 -0.996089
0.304390 -0.395658 -0.866488
-0.531640 -0.825449 -0.189719
-0.247187 -0.206809 -0.946641
0.010121 -0.087777 -0.996089
0.656800 -0.715530 -0.237970
-0.352343 -0.184891 0.917425
-0.243399 0.286249 0.926725
0.004655 0.550277 0.834969
-0.352343 -0.184891 0.917425
-0.022171 0.014343 0.999651
-0.243399 0.286249 0.926725
0.016402 0.985514 -0.168797
0.061729 0.090666 -0.993966
0.036766 0.952438 -0.302507
0.910668 0.301154 -0.282824
0.193865 0.096524 -0.976268
0.980798 0.170439 -0.094794
0.338132 -0.116764 0.933827
0.533584 -0.798528 -0.278640
0.973869 0.215761 -0.070903
0.203992 0.323356 0.924028
0.496263 0.339680 0.798962
0.016402 0.985514 -0.168797
-0.719815 -0.678074 -0.148602
-0.451007 -0.290054 0.844074
-0.871922 -0.482899 -0.080993
-0.611516 0.789036 -0.058906
-0.475292 0.532277 0.700556
0.144651 0.965250 -0.217643
-0.000562 -0.376627 0.926365
0.388451 -0.102761 0.915722
-0.022171 0.014343 0.999651
0.388451 -0.102761 0.915722
-0.000562 -0.376627 0.926365
0.347555 -0.409794 0.843371
-0.077001 0.086681 -0.993256
0.043865 0.307918 -0.950401
-0.140439 0.953216 -0.267687
-0.105583 -0.029708 -0.993967
-0.861405 -0.423634 -0.280207
-0.165328 -0.151427 -0.974544
0.151871 -0.419933 0.894758
0.656800 -0.715530 -0.237970
0.093956 -0.939093 -0.330569
0.656800 -0.715530 -0.237970
0.010121 -0.087777 -0.996089
0.093956 -0.939093 -0.330569
-0.861405 -0.423634 -0.280207
-0.352343 -0.184891 0.917425
-0.719815 -0.678074 -0.148602
-0.165328 -0.151427 -0.974544
-0.861405 -0.423634 -0.280207
-0.719815 -0.678074 -0.148602
-0.872972 -0.486448 -0.035894
-0.374524 -0.309440 0.874059
-0.976749 0.093508 -0.192918
0.656800 -0.715530 -0.237970
0.155565 -0.397373 0.904375
0.039853 -0.995236 -0.088981
0.193865 0.096524 -0.976268
-0.029951 0.585984 -0.809769
0.980798 0.170439 -0.094794
-0.029951 0.585984 -0.809769
-0.824435 0.429900 -0.368093
-0.822489 0.555686 -0.121342
0.397494 0.253897 0.881779
0.643323 0.691598 -0.328372
0.910668 0.301154 -0.282824
0.643323 0.691598 -0.328372
0.193865 0.096524 -0.976268
0.910668 0.301154 -0.282824
0.043865 0.307918 -0.950401
0.144651 0.965250 -0.217643
-0.140439 0.953216 -0.267687
0.144651 0.965250 -0.217643
0.004655 0.550277 0.834969
-0.140439 0.953216 -0.267687
0.397494 0.253897 0.881779
0.203992 0.323356 0.924028
0.643323 0.691598 -0.328372
0.397494 0.253897 0.881779
-0.243399 0.286249 0.926725
0.203992 0.323356 0.924028
-0.029951 0.585984 -0.809769
-0.822489 0.555686 -0.121342
0.394336 0.918864 -0.013692
-0.822489 0.555686 -0.121342
-0.459447 0.326393 0.826061
0.021816 0.653202 0.756870
0.533584 -0.798528 -0.278640
0.338132 -0.116764 0.933827
0.388979 -0.231310 0.891735
0.203992 0.323356 0.924028
0.388979 -0.231310 0.891735
0.496263 0.339680 0.798962
-0.582615 -0.809900 -0.067980
0.347555 -0.409794 0.843371
-0.531640 -0.825449 -0.189719
0.304390 -0.395658 -0.866488
-0.582615 -0.809900 -0.067980
-0.531640 -0.825449 -0.189719
-0.719815 -0.678074 -0.148602
-0.871922 -0.482899 -0.080993
-0.448689 0.358481 -0.818639
-0.448689 0.358481 -0.818639
-0.611516 0.789036 -0.058906
0.144651 0.965250 -0.217643
0.010121 -0.087777 -0.996089
0.117001 -0.020782 -0.992914
0.304390 -0.395658 -0.866488
0.010121 -0.087777 -0.996089
-0.105583 -0.029708 -0.993967
-0.004969 0.000996 -0.999987
0.403231 0.152706 -0.902267
0.061729 0.090666 -0.993966
0.016402 0.985514 -0.168797
0.496263 0.339680 0.798962
0.973869 0.215761 -0.070903
0.016402 0.985514 -0.168797
-0.872972 -0.486448 -0.035894
-0.976749 0.093508 -0.192918
-0.247187 -0.206809 -0.946641
0.039853 -0.995236 -0.088981
-0.247187 -0.206809 -0.946641
0.656800 -0.715530 -0.237970
0.388451 -0.102761 0.915722
0.907472 0.353649 -0.226775
0.907515 -0.209420 -0.364088
0.907472 0.353649 -0.226775
0.117001 -0.020782 -0.992914
0.907515 -0.209420 -0.364088
0.021816 0.653202 0.756870
0.397494 0.253897 0.881779
0.980798 0.170439 -0.094794
-0.822489 0.555686 -0.121342
0.021816 0.653202 0.756870
0.394336 0.918864 -0.013692
0.907472 0.353649 -0.226775
0.347555 -0.409794 0.843371
0.733620 -0.679543 -0.004717
0.733620 -0.679543 -0.004717
0.347555 -0.409794 0.843371
-0.582615 -0.809900 -0.067980
-0.243399 0.286249 0.926725
-0.022171 0.014343 0.999651
0.203992 0.323356 0.924028
-0.022171 0.014343 0.999651
0.388451 -0.102761 0.915722
0.203992 0.323356 0.924028
-0.475292 0.532277 0.700556
0.004655 0.550277 0.834969
0.144651 0.965250 -0.217643
-0.451007 -0.290054 0.844074
-0.352343 -0.184891 0.917425
0.004655 0.550277 0.834969
0.128901 -0.159208 -0.978794
0.735111 -0.608742 -0.298404
0.117001 -0.020782 -0.992914
0.533584 -0.798528 -0.278640
0.388979 -0.231310 0.891735
0.735111 -0.608742 -0.298404
-0.000562 -0.376627 0.926365
0.093956 -0.939093 -0.330569
-0.531640 -0.825449 -0.189719
0.010121 -0.087777 -0.996089
-0.531640 -0.825449 -0.189719
0.093956 -0.939093 -0.330569
-0.976749 0.093508 -0.192918
-0.445684 -0.114933 0.887782
-0.861405 -0.423634 -0.280207
-0.105583 -0.029708 -0.993967
-0.976749 0.093508 -0.192918
-0.861405 -0.423634 -0.280207
-0.004969 0.000996 -0.999987
-0.105583 -0.029708 -0.993967
-0.077001 0.086681 -0.993256
-0.105583 -0.029708 -0.993967
-0.165328 -0.151427 -0.974544
-0.077001 0.086681 -0.993256
0.203992 0.323356 0.924028
0.036766 0.952438 -0.302507
0.643323 0.691598 -0.328372
0.036766 0.952438 -0.302507
0.061729 0.090666 -0.993966
0.643323 0.691598 -0.328372
-0.459447 0.326393 0.826061
-0.243399 0.286249 0.926725
0.397494 0.253897 0.881779
-0.747811 0.569953 -0.340487
-0.243399 0.286249 0.926725
-0.459447 0.326393 0.826061
0.151871 -0.419933 0.894758
-0.000562 -0.376627 0.926365
-0.445684 -0.114933 0.887782
0.093956 -0.939093 -0.330569
-0.000562 -0.376627 0.926365
0.151871 -0.419933 0.894758
0.061729 0.090666 -0.993966
0.193865 0.096524 -0.976268
0.643323 0.691598 -0.328372
-0.077001 0.086681 -0.993256
0.193865 0.096524 -0.976268
0.061729 0.090666 -0.993966
0.973869 0.215761 -0.070903
0.403231 0.152706 -0.902267
0.016402 0.985514 -0.168797
0.403231 0.152706 -0.902267
0.973869 0.215761 -0.070903
0.533584 -0.798528 -0.278640
0.039853 -0.995236 -0.088981
-0.374524 -0.309440 0.874059
-0.872972 -0.486448 -0.035894
-0.872972 -0.486448 -0.035894
-0.247187 -0.206809 -0.946641
0.039853 -0.995236 -0.088981
-0.747811 0.569953 -0.340487
-0.459447 0.326393 0.826061
-0.824435 0.429900 -0.368093
-0.077001 0.086681 -0.993256
-0.747811 0.569953 -0.340487
-0.824435 0.429900 -0.368093
-0.448689 0.358481 -0.818639
-0.871922 -0.482899 -0.080993
-0.611516 0.789036 -0.058906
-0.871922 -0.482899 -0.080993
-0.475292 0.532277 0.700556
-0.611516 0.789036 -0.058906
0.496263 0.339680 0.798962
0.338132 -0.116764 0.933827
0.973869 0.215761 -0.070903
0.388979 -0.231310 0.891735
0.338132 -0.116764 0.933827
0.496263 0.339680 0.798962
0.039853 -0.995236 -0.088981
0.155565 -0.397373 0.904375
-0.374524 -0.309440 0.874059
0.155565 -0.397373 0.904375
0.151871 -0.419933 0.894758
-0.374524 -0.309440 0.874059
0.304390 -0.395658 -0.866488
0.733620 -0.679543 -0.004717
-0.582615 -0.809900 -0.067980
0.304390 -0.395658 -0.866488
0.907472 0.353649 -0.226775
0.733620 -0.679543 -0.004717
0.021816 0.653202 0.756870
0.980798 0.170439 -0.094794
0.394336 0.918864 -0.013692
0.980798 0.170439 -0.094794
-0.029951 0.585984 -0.809769
0.394336 0.918864 -0.013692
-0.445684 -0.114933 0.887782
-0.352343 -0.184891 0.917425
-0.861405 -0.423634 -0.280207
-0.445684 -0.114933 0.887782
-0.000562 -0.376627 0.926365
-0.352343 -0.184891 0.917425
-0.451007 -0.290054 0.844074
0.004655 0.550277 0.834969
-0.475292 0.532277 0.700556
-0.871922 -0.482899 -0.080993
-0.451007 -0.290054 0.844074
-0.475292 0.532277 0.700556
-0.165328 -0.151427 -0.974544
-0.448689 0.358481 -0.818639
0.043865 0.307918 -0.950401
-0.077001 0.086681 -0.993256
-0.165328 -0.151427 -0.974544
0.043865 0.307918 -0.950401
0.403231 0.152706 -0.902267
0.533584 -0.798528 -0.278640
0.128901 -0.159208 -0.978794
0.128901 -0.159208 -0.978794
0.533584 -0.798528 -0.278640
0.735111 -0.608742 -0.298404
0.117001 -0.020782 -0.992914
-0.004969 0.000996 -0.999987
0.061729 0.090666 -0.993966
0.117001 -0.020782 -0.992914
0.010121 -0.087777 -0.996089
-0.004969 0.000996 -0.999987
</float_array>
          <technique_common>
            <accessor source="#SM_Starfish_01_LOD1-Normal0-array" count="366" stride="3">
              <param name="X" type="float"/>
              <param name="Y" type="float"/>
              <param name="Z" type="float"/>
            </accessor>
          </technique_common>
        </source>
        <source id="SM_Starfish_01_LOD1-UV0">
          <float_array id="SM_Starfish_01_LOD1-UV0-array" count="182">
0.002766 0.136452
0.052485 0.000654
0.110688 0.197920
0.562647 0.403183
0.428593 0.241915
0.430487 0.386541
0.167854 0.009172
0.537836 0.205646
0.614492 0.309704
0.204073 0.130993
0.077655 0.118014
0.105225 0.035645
0.488281 0.254395
0.550293 0.346191
0.126709 0.141113
0.550293 0.276367
0.156616 0.074707
0.131040 0.076463
0.065674 0.143555
0.492432 0.371094
0.047302 0.069824
0.446045 0.309082
0.115650 0.119715
0.000109 0.126953
0.427490 0.380859
0.071045 0.083341
0.529733 0.286837
0.106917 0.062484
0.533032 0.331252
0.004375 0.133788
0.536133 0.403320
0.094177 0.189453
0.431643 0.383223
0.054484 0.009129
0.610632 0.310834
0.496423 0.281891
0.568359 0.287598
0.168213 0.093262
0.474156 0.305604
0.163646 0.012645
0.198076 0.130058
0.494629 0.343581
0.107946 0.194032
0.090168 0.156829
0.105478 0.144981
0.161597 0.111342
0.556906 0.402714
0.535160 0.210841
0.030135 0.121923
0.096924 0.094727
0.458368 0.373965
0.032877 0.134172
0.473877 0.256836
0.091492 0.028809
0.477051 0.362793
0.054565 0.133789
0.548828 0.357910
0.120972 0.151367
0.532227 0.355957
0.015411 0.119629
0.445666 0.325717
0.038677 0.083878
0.066956 0.018066
0.048000 0.003201
0.425387 0.245388
0.086304 0.050293
0.454539 0.366636
0.444824 0.294434
0.050659 0.055664
0.071106 0.059570
0.501953 0.247559
0.117676 0.032227
0.543457 0.260254
0.156616 0.057129
0.559082 0.336914
0.139160 0.138672
0.503906 0.314453
0.576660 0.303223
0.602051 0.319824
0.185303 0.139648
0.431152 0.250000
0.558594 0.393555
0.117920 0.188477
0.150879 0.009277
0.524902 0.216797
0.583008 0.295410
0.179688 0.104004
0.455066 0.346146
0.503906 0.378906
0.073608 0.155273
0.188232 0.123047
</float_array>
          <technique_common>
            <accessor source="#SM_Starfish_01_LOD1-UV0-array" count="91" stride="2">
              <param name="S" type="float"/>
              <param name="T" type="float"/>
            </accessor>
          </technique_common>
        </source>
        <vertices id="SM_Starfish_01_LOD1-VERTEX">
          <input semantic="POSITION" source="#SM_Starfish_01_LOD1-POSITION"/>
        </vertices>
        <triangles count="122" material="MAT_Sea_Shells">
          <input semantic="VERTEX" offset="0" source="#SM_Starfish_01_LOD1-VERTEX"/>
          <input semantic="NORMAL" offset="1" source="#SM_Starfish_01_LOD1-Normal0"/>
          <input semantic="TEXCOORD" offset="2" set="0" source="#SM_Starfish_01_LOD1-UV0"/>
          <p> 11 0 16 31 1 45 9 2 17 62 3 76 45 4 41 18 5 28 25 6 33 58 7 69 44 8 68 52 9 89 47 10 43 30 11 31 55 12 62 23 13 53 48 14 65 36 15 80 12 16 38 34 17 35 13 18 22 35 19 79 46 20 75 61 21 77 18 22 28 50 23 34 39 24 39 21 25 27 43 26 71 39 27 39 37 28 73 9 29 17 41 30 48 3 31 10 28 32 55 24 33 61 17 34 25 59 35 59 29 36 44 27 37 57 57 38 82 45 39 41 26 40 46 49 41 58 48 42 65 58 43 69 25 44 33 38 45 42 47 46 43 29 47 44 45 48 41 52 49 88 26 50 46 22 51 66 33 52 32 14 53 50 61 54 77 16 55 26 18 56 28 37 57 72 56 58 47 16 59 26 60 60 87 24 61 60 33 62 32 36 63 80 44 64 67 12 65 38 9 66 17 31 67 45 13 68 22 17 69 25 21 70 27 40 71 49 45 72 41 28 73 54 7 74 19 28 75 55 3 76 10 7 77 18 16 78 26 15 79 36 11 80 15 15 81 37 31 82 45 11 83 16 34 84 35 56 85 47 43 86 70 36 87 80 34 88 35 23 89 52 17 90 25 3 91 10 41 92 48 17 93 25 40 94 49 3 95 10 35 96 78 18 97 28 46 98 74 27 99 56 49 100 58 57 101 81 19 102 90 42 103 86 5 104 9 13 105 22 54 106 40 35 107 79 24 108 61 59 109 59 53 110 23 2 111 0 20 112 29 14 113 51 21 114 27 9 115 17 40 116 49 9 117 17 21 118 27 39 119 39 45 120 41 22 121 66 28 122 54 12 123 38 10 124 21 60 125 87 48 126 65 23 127 53 6 128 11 23 129 52 34 130 35 6 131 12 10 132 20 17 133 25 24 134 61 60 135 87 10 136 21 24 137 60 51 138 63 25 139 33 44 140 68 23 141 53 55 142 62 1 143 1 49 144 58 26 145 46 57 146 81 26 147 46 52 148 88 30 149 30 29 150 44 8 151 14 27 152 57 8 153 13 49 154 58 27 155 56 22 156 66 14 157 50 28 158 54 14 159 51 41 160 48 28 161 55 29 162 44 13 163 22 8 164 14 29 165 44 3 166 10 13 167 22 26 168 46 30 169 30 0 170 3 30 171 31 47 172 43 38 173 42 42 174 86 19 175 90 31 176 45 13 177 22 31 178 45 54 179 40 32 180 83 39 181 39 43 182 71 56 183 47 32 184 84 43 185 70 24 186 60 53 187 24 33 188 32 33 189 32 2 190 5 14 191 50 34 192 35 16 193 26 56 194 47 34 195 35 12 196 38 62 197 76 50 198 34 18 199 28 35 200 78 54 201 40 5 202 9 35 203 79 51 204 64 44 205 67 36 206 80 1 207 4 36 208 80 23 209 52 9 210 17 37 211 73 11 212 16 37 213 72 16 214 26 11 215 15 38 216 42 29 217 44 57 218 82 30 219 31 38 220 42 0 221 2 37 222 73 39 223 39 4 224 6 4 225 6 39 226 39 32 227 83 3 228 10 40 229 49 13 230 22 40 231 49 9 232 17 13 233 22 20 234 29 41 235 48 14 236 51 59 237 59 17 238 25 41 239 48 61 240 77 15 241 36 16 242 26 42 243 86 31 244 45 15 245 37 21 246 27 6 247 11 43 248 71 34 249 35 43 250 70 6 251 12 44 252 68 58 253 69 10 254 20 12 255 38 44 256 67 10 257 21 62 258 76 12 259 38 45 260 41 12 261 38 60 262 87 45 263 41 13 264 22 46 265 75 8 266 14 46 267 74 18 268 28 8 269 13 47 270 43 3 271 10 29 272 44 7 273 18 3 274 10 47 275 43 48 276 65 21 277 27 58 278 69 6 279 11 21 280 27 48 281 65 18 282 28 49 283 58 8 284 13 45 285 41 49 286 58 18 287 28 5 288 8 50 289 34 35 290 78 50 291 34 5 292 8 42 293 85 1 294 1 25 295 33 51 296 63 51 297 64 36 298 80 1 299 4 7 300 18 47 301 43 52 302 89 45 303 41 7 304 19 52 305 88 33 306 32 53 307 24 2 308 5 53 309 23 20 310 29 2 311 0 54 312 40 19 313 90 5 314 9 31 315 45 19 316 90 54 317 40 1 318 1 55 319 62 25 320 33 55 321 62 48 322 65 25 323 33 56 324 47 4 325 7 32 326 84 56 327 47 37 328 72 4 329 7 38 330 42 57 331 82 0 332 2 57 333 81 26 334 46 0 335 3 58 336 69 17 337 25 10 338 20 58 339 69 21 340 27 17 341 25 59 342 59 41 343 48 20 344 29 53 345 23 59 346 59 20 347 29 60 348 87 33 349 32 22 350 66 45 351 41 60 352 87 22 353 66 50 354 34 42 355 85 61 356 77 61 357 77 42 358 85 15 359 36 16 360 26 62 361 76 18 362 28 16 363 26 34 364 35 62 365 76</p>
        </triangles>
      </mesh>
    </geometry>
  </library_geometries>
  <library_visual_scenes>
    <visual_scene id="SM_Starfish_01" name="SM_Starfish_01">
      <node name="SM_Starfish_01_LOD0" id="SM_Starfish_01_LOD0" layer="shells" sid="SM_Starfish_01_LOD0">
        <matrix sid="matrix">1.000000 0.000000 0.000000 0.000000 0.000000 0.000000 1.000000 0.000000 0.000000 -1.000000 0.000000 0.000000 0.000000 0.000000 0.000000 1.000000</matrix>
        <instance_geometry url="#SM_Starfish_01_LOD0-lib">
          <bind_material>
            <technique_common>
              <instance_material symbol="MAT_Sea_Shells" target="#MAT_Sea_Shells"/>
            </technique_common>
          </bind_material>
        </instance_geometry>
        <extra>
          <technique profile="FCOLLADA">
            <visibility>1.000000</visibility>
          </technique>
        </extra>
      </node>
      <node name="SM_Starfish_01_LOD1" id="SM_Starfish_01_LOD1" layer="shells" sid="SM_Starfish_01_LOD1">
        <matrix sid="matrix">1.000000 0.000000 0.000000 0.000000 0.000000 0.000000 1.000000 0.000000 0.000000 -1.000000 0.000000 0.000000 0.000000 0.000000 0.000000 1.000000</matrix>
        <instance_geometry url="#SM_Starfish_01_LOD1-lib">
          <bind_material>
            <technique_common>
              <instance_material symbol="MAT_Sea_Shells" target="#MAT_Sea_Shells"/>
            </technique_common>
          </bind_material>
        </instance_geometry>
        <extra>
          <technique profile="FCOLLADA">
            <visibility>1.000000</visibility>
          </technique>
        </extra>
      </node>
      <extra>
        <technique profile="MAX3D">
          <frame_rate>30.000000</frame_rate>
        </technique>
        <technique profile="FCOLLADA">
          <start_time>0.000000</start_time>
          <end_time>3.333333</end_time>
        </technique>
      </extra>
    </visual_scene>
  </library_visual_scenes>
  <scene>
    <instance_visual_scene url="#SM_Starfish_01"/>
  </scene>
</COLLADA>
