<?xml version="1.0" encoding="utf-8"?>
<COLLADA xmlns="http://www.collada.org/2005/11/COLLADASchema" version="1.4.1">
  <asset>
    <contributor>
      <author/>
      <authoring_tool>FBX COLLADA exporter</authoring_tool>
      <comments/>
    </contributor>
    <created>2024-02-10T11:42:39Z</created>
    <keywords/>
    <modified>2024-02-10T11:42:39Z</modified>
    <revision/>
    <subject/>
    <title/>
    <unit meter="0.010000" name="centimeter"/>
    <up_axis>Y_UP</up_axis>
  </asset>
  <library_materials>
    <material id="MAT_Sea_Shells" name="MAT_Sea_Shells">
      <instance_effect url="#MAT_Sea_Shells-fx"/>
    </material>
  </library_materials>
  <library_effects>
    <effect id="MAT_Sea_Shells-fx" name="MAT_Sea_Shells">
      <profile_COMMON>
        <technique sid="standard">
          <phong>
            <emission>
              <color sid="emission">0.000000  0.000000 0.000000 1.000000</color>
            </emission>
            <ambient>
              <color sid="ambient">0.588235  0.588235 0.588235 1.000000</color>
            </ambient>
            <diffuse>
              <color sid="diffuse">0.588235  0.588235 0.588235 1.000000</color>
            </diffuse>
            <specular>
              <color sid="specular">0.000000  0.000000 0.000000 1.000000</color>
            </specular>
            <shininess>
              <float sid="shininess">2.000000</float>
            </shininess>
            <reflective>
              <color sid="reflective">0.000000  0.000000 0.000000 1.000000</color>
            </reflective>
            <reflectivity>
              <float sid="reflectivity">1.000000</float>
            </reflectivity>
            <transparent opaque="RGB_ZERO">
              <color sid="transparent">1.000000  1.000000 1.000000 1.000000</color>
            </transparent>
            <transparency>
              <float sid="transparency">0.000000</float>
            </transparency>
          </phong>
        </technique>
      </profile_COMMON>
    </effect>
  </library_effects>
  <library_geometries>
    <geometry id="SM_Sand_Dollar_03_LOD0-lib" name="SM_Sand_Dollar_03_LOD0Mesh">
      <mesh>
        <source id="SM_Sand_Dollar_03_LOD0-POSITION">
          <float_array id="SM_Sand_Dollar_03_LOD0-POSITION-array" count="282">
15.764542 -7.756744 1.258314
15.764542 6.043732 1.201081
3.250885 -15.054840 1.288582
4.947891 15.054810 1.163709
-6.283142 15.054810 1.163709
-15.764542 7.418091 1.195381
-15.764542 -6.823090 1.254443
-8.633987 -15.054840 1.288582
-14.825256 2.649933 1.194546
-14.968628 -0.210571 1.194950
-14.437119 -3.511292 1.194951
-13.934189 -3.380280 0.629636
-13.248138 -6.288177 0.549334
-12.417435 -8.284119 0.475875
-12.741241 -8.657471 1.193498
-10.627258 -10.800385 0.353465
-8.094376 -12.883728 0.334629
-10.824249 -11.276428 1.193004
-8.167938 -13.399689 1.207342
-4.458420 -14.542999 1.247286
-1.783691 -14.087646 1.259760
0.116501 -14.180542 0.551082
3.727020 -13.155823 0.621443
9.765091 -10.550446 1.286955
9.302200 -10.185760 0.675359
12.205811 -7.500214 1.262510
14.252518 -3.378479 0.572232
14.990112 -0.026245 0.537956
14.982086 2.008087 1.195011
13.424896 4.232422 0.543818
12.424988 6.814331 1.194197
10.459320 9.085114 1.193610
11.963654 6.503998 0.554029
8.469971 10.276947 0.564722
8.735748 10.772186 1.193928
3.479935 13.034546 0.522100
-1.408356 13.420105 0.464158
-8.009232 10.959717 0.373917
-11.287231 9.089111 1.193004
-13.053085 5.700958 0.506535
-10.798691 8.750183 0.431568
-5.512344 12.704437 0.384768
5.869675 12.184967 0.561968
10.091919 8.691620 0.566065
14.433243 1.903992 0.536712
-0.434860 -0.242004 0.000000
11.667984 -7.225159 0.646743
6.042099 -11.885620 0.655649
-1.918259 -13.574127 0.487745
-4.548904 -14.015869 0.445505
-14.412964 -0.187195 0.629635
-14.218246 2.529602 0.589254
-14.218246 2.529602 1.811010
-13.586212 5.948822 1.193067
-8.412003 11.373230 1.193862
-5.803131 13.133148 1.195124
-5.512344 12.704437 2.046471
-1.521744 13.892578 1.193431
-1.408356 13.420105 1.936106
3.466354 13.532715 1.193979
6.014252 12.712250 1.194334
5.869675 12.184967 1.838293
11.963654 6.503998 1.842377
13.948593 4.446350 1.194074
14.433243 1.903992 1.869018
14.990112 -0.026245 1.879582
15.531494 -0.010223 1.201605
14.815781 -3.496033 1.222637
14.252518 -3.378479 1.884698
11.667984 -7.225159 1.887586
9.302200 -10.185760 1.905163
6.413818 -12.328949 1.295640
6.042099 -11.885620 1.942042
4.031647 -13.627960 1.293151
3.727020 -13.155823 1.975090
0.306290 -14.633636 1.278980
-1.918259 -13.574127 2.058941
-10.627258 -10.800385 2.046355
-12.417435 -8.284119 1.924391
-13.612381 -6.573669 1.194222
-13.248138 -6.288177 1.850931
-13.934189 -3.380280 1.770629
-14.412964 -0.187195 1.770628
-8.094376 -12.883728 2.094016
-4.548904 -14.015869 2.075692
0.116501 -14.180542 2.031135
13.424896 4.232422 1.857781
10.091919 8.691620 1.826012
8.469971 10.276947 1.831666
3.479935 13.034546 1.878161
-0.434860 -0.242004 2.399650
-8.009232 10.959717 2.047975
-10.798691 8.750183 1.976479
-13.053085 5.700958 1.893727
</float_array>
          <technique_common>
            <accessor source="#SM_Sand_Dollar_03_LOD0-POSITION-array" count="94" stride="3">
              <param name="X" type="float"/>
              <param name="Y" type="float"/>
              <param name="Z" type="float"/>
            </accessor>
          </technique_common>
        </source>
        <source id="SM_Sand_Dollar_03_LOD0-Normal0">
          <float_array id="SM_Sand_Dollar_03_LOD0-Normal0-array" count="1566">
-0.000000 0.004147 0.999991
0.000000 0.004147 0.999991
0.000000 0.004147 0.999991
-0.000000 0.004147 0.999991
0.000000 0.004147 0.999991
-0.000000 0.004147 0.999991
0.000000 0.004147 0.999991
0.000000 0.004147 0.999991
-0.000000 0.004147 0.999991
0.000000 0.004147 0.999991
0.000000 0.004147 0.999991
0.000000 0.004147 0.999991
0.000000 0.004147 0.999991
0.000000 0.004147 0.999991
0.000000 0.004147 0.999991
0.000000 0.004147 0.999991
0.000000 0.004147 0.999991
0.000000 0.004147 0.999991
-0.886427 0.462844 -0.004787
-0.420232 0.077868 -0.904069
-0.979232 0.202699 -0.004226
-0.420232 0.077868 -0.904069
-0.998663 -0.051508 -0.004308
-0.979232 0.202699 -0.004226
-0.420232 0.077868 -0.904069
-0.429294 -0.025152 -0.902815
-0.998663 -0.051508 -0.004308
-0.429294 -0.025152 -0.902815
-0.982937 -0.183888 -0.004407
-0.998663 -0.051508 -0.004308
-0.427588 -0.069591 -0.901291
-0.982937 -0.183888 -0.004407
-0.429294 -0.025152 -0.902815
-0.427588 -0.069591 -0.901291
-0.482672 -0.136176 -0.865149
-0.982937 -0.183888 -0.004407
-0.482672 -0.136176 -0.865149
-0.946985 -0.321253 -0.004081
-0.982937 -0.183888 -0.004407
-0.482672 -0.136176 -0.865149
-0.468207 -0.222473 -0.855154
-0.946985 -0.321253 -0.004081
-0.468207 -0.222473 -0.855154
-0.872579 -0.488456 -0.003978
-0.946985 -0.321253 -0.004081
-0.468207 -0.222473 -0.855154
-0.409145 -0.354515 -0.840785
-0.872579 -0.488456 -0.003978
-0.409145 -0.354515 -0.840785
-0.716404 -0.697673 -0.004275
-0.872579 -0.488456 -0.003978
-0.409145 -0.354515 -0.840785
-0.263547 -0.486122 -0.833204
-0.716404 -0.697673 -0.004275
-0.263547 -0.486122 -0.833204
-0.450743 -0.892639 -0.005217
-0.716404 -0.697673 -0.004275
-0.263547 -0.486122 -0.833204
-0.033176 -0.543709 -0.838618
-0.450743 -0.892639 -0.005217
-0.033176 -0.543709 -0.838618
-0.046272 -0.998907 -0.006609
-0.450743 -0.892639 -0.005217
-0.033176 -0.543709 -0.838618
0.003584 -0.437074 -0.899418
-0.046272 -0.998907 -0.006609
0.003584 -0.437074 -0.899418
-0.078455 -0.996869 -0.009823
-0.046272 -0.998907 -0.006609
0.003584 -0.437074 -0.899418
-0.003198 -0.560734 -0.827990
-0.078455 -0.996869 -0.009823
-0.003198 -0.560734 -0.827990
0.045550 -0.998941 -0.006424
-0.078455 -0.996869 -0.009823
-0.003198 -0.560734 -0.827990
0.183683 -0.437332 -0.880342
0.045550 -0.998941 -0.006424
0.183683 -0.437332 -0.880342
0.385123 -0.922860 -0.003046
0.045550 -0.998941 -0.006424
0.183683 -0.437332 -0.880342
0.209615 -0.378292 -0.901641
0.385123 -0.922860 -0.003046
0.209615 -0.378292 -0.901641
0.473126 -0.880993 -0.001723
0.385123 -0.922860 -0.003046
0.209615 -0.378292 -0.901641
0.284160 -0.361497 -0.888016
0.473126 -0.880993 -0.001723
0.284160 -0.361497 -0.888016
0.650528 -0.759481 -0.001330
0.473126 -0.880993 -0.001723
0.284160 -0.361497 -0.888016
0.332348 -0.258302 -0.907097
0.650528 -0.759481 -0.001330
0.332348 -0.258302 -0.907097
0.806299 -0.591502 -0.002657
0.650528 -0.759481 -0.001330
0.332348 -0.258302 -0.907097
0.425845 -0.196909 -0.883110
0.806299 -0.591502 -0.002657
0.425845 -0.196909 -0.883110
0.926974 -0.375104 -0.004039
0.806299 -0.591502 -0.002657
0.425845 -0.196909 -0.883110
0.489619 0.011853 -0.871856
0.926974 -0.375104 -0.004039
0.489619 0.011853 -0.871856
0.999492 0.031438 -0.005283
0.926974 -0.375104 -0.004039
0.489619 0.011853 -0.871856
0.944082 0.329652 -0.006263
0.999492 0.031438 -0.005283
0.489619 0.011853 -0.871856
0.424487 0.153074 -0.892401
0.944082 0.329652 -0.006263
0.424487 0.153074 -0.892401
0.883596 0.468222 -0.005073
0.944082 0.329652 -0.006263
0.424487 0.153074 -0.892401
0.394682 0.214765 -0.893365
0.883596 0.468222 -0.005073
0.394682 0.214765 -0.893365
0.800436 0.599410 -0.003143
0.883596 0.468222 -0.005073
0.394682 0.214765 -0.893365
0.356286 0.270523 -0.894359
0.800436 0.599410 -0.003143
0.356286 0.270523 -0.894359
0.728245 0.685313 -0.002203
0.800436 0.599410 -0.003143
0.324955 0.305594 -0.894995
0.728245 0.685313 -0.002203
0.356286 0.270523 -0.894359
0.324955 0.305594 -0.894995
0.291608 0.338439 -0.894664
0.728245 0.685313 -0.002203
0.291608 0.338439 -0.894664
0.642086 0.766625 -0.003366
0.728245 0.685313 -0.002203
0.291608 0.338439 -0.894664
0.228358 0.409398 -0.883315
0.642086 0.766625 -0.003366
0.228358 0.409398 -0.883315
0.453932 0.891027 -0.004199
0.642086 0.766625 -0.003366
0.228358 0.409398 -0.883315
0.111540 0.482135 -0.868968
0.453932 0.891027 -0.004199
0.111540 0.482135 -0.868968
0.188403 0.982083 -0.004130
0.453932 0.891027 -0.004199
0.111540 0.482135 -0.868968
-0.010719 0.516925 -0.855964
0.188403 0.982083 -0.004130
-0.010719 0.516925 -0.855964
-0.051481 0.998663 -0.004689
0.188403 0.982083 -0.004130
-0.010719 0.516925 -0.855964
-0.193108 0.505309 -0.841054
-0.051481 0.998663 -0.004689
-0.193108 0.505309 -0.841054
-0.392885 0.919534 -0.009967
-0.051481 0.998663 -0.004689
-0.193108 0.505309 -0.841054
-0.289049 0.385614 -0.876215
-0.392885 0.919534 -0.009967
-0.289049 0.385614 -0.876215
-0.596435 0.802609 -0.009120
-0.392885 0.919534 -0.009967
-0.289049 0.385614 -0.876215
-0.353631 0.330035 -0.875227
-0.596435 0.802609 -0.009120
-0.353631 0.330035 -0.875227
-0.729458 0.683996 -0.006425
-0.596435 0.802609 -0.009120
-0.353631 0.330035 -0.875227
-0.415391 0.206948 -0.885790
-0.729458 0.683996 -0.006425
-0.415391 0.206948 -0.885790
-0.886427 0.462844 -0.004787
-0.729458 0.683996 -0.006425
-0.415391 0.206948 -0.885790
-0.420232 0.077868 -0.904069
-0.886427 0.462844 -0.004787
-0.415391 0.206948 -0.885790
0.003656 -0.001963 -0.999991
-0.420232 0.077868 -0.904069
-0.353631 0.330035 -0.875227
0.003656 -0.001963 -0.999991
-0.415391 0.206948 -0.885790
-0.289049 0.385614 -0.876215
0.003656 -0.001963 -0.999991
-0.353631 0.330035 -0.875227
-0.193108 0.505309 -0.841054
0.003656 -0.001963 -0.999991
-0.289049 0.385614 -0.876215
-0.010719 0.516925 -0.855964
0.003656 -0.001963 -0.999991
-0.193108 0.505309 -0.841054
0.111540 0.482135 -0.868968
0.003656 -0.001963 -0.999991
-0.010719 0.516925 -0.855964
0.228358 0.409398 -0.883315
0.003656 -0.001963 -0.999991
0.111540 0.482135 -0.868968
0.291608 0.338439 -0.894664
0.003656 -0.001963 -0.999991
0.228358 0.409398 -0.883315
0.324955 0.305594 -0.894995
0.003656 -0.001963 -0.999991
0.291608 0.338439 -0.894664
0.356286 0.270523 -0.894359
0.003656 -0.001963 -0.999991
0.324955 0.305594 -0.894995
0.394682 0.214765 -0.893365
0.003656 -0.001963 -0.999991
0.356286 0.270523 -0.894359
0.424487 0.153074 -0.892401
0.003656 -0.001963 -0.999991
0.394682 0.214765 -0.893365
0.489619 0.011853 -0.871856
0.003656 -0.001963 -0.999991
0.424487 0.153074 -0.892401
0.425845 -0.196909 -0.883110
0.003656 -0.001963 -0.999991
0.489619 0.011853 -0.871856
0.332348 -0.258302 -0.907097
0.003656 -0.001963 -0.999991
0.425845 -0.196909 -0.883110
0.284160 -0.361497 -0.888016
0.003656 -0.001963 -0.999991
0.332348 -0.258302 -0.907097
0.209615 -0.378292 -0.901641
0.003656 -0.001963 -0.999991
0.284160 -0.361497 -0.888016
0.183683 -0.437332 -0.880342
0.003656 -0.001963 -0.999991
0.209615 -0.378292 -0.901641
-0.003198 -0.560734 -0.827990
0.003656 -0.001963 -0.999991
0.183683 -0.437332 -0.880342
0.003584 -0.437074 -0.899418
0.003656 -0.001963 -0.999991
-0.003198 -0.560734 -0.827990
-0.033176 -0.543709 -0.838618
0.003656 -0.001963 -0.999991
0.003584 -0.437074 -0.899418
-0.263547 -0.486122 -0.833204
0.003656 -0.001963 -0.999991
-0.033176 -0.543709 -0.838618
-0.409145 -0.354515 -0.840785
0.003656 -0.001963 -0.999991
-0.263547 -0.486122 -0.833204
-0.468207 -0.222473 -0.855154
0.003656 -0.001963 -0.999991
-0.409145 -0.354515 -0.840785
-0.482672 -0.136176 -0.865149
0.003656 -0.001963 -0.999991
-0.468207 -0.222473 -0.855154
-0.427588 -0.069591 -0.901291
0.003656 -0.001963 -0.999991
-0.482672 -0.136176 -0.865149
-0.429294 -0.025152 -0.902815
0.003656 -0.001963 -0.999991
-0.427588 -0.069591 -0.901291
-0.420232 0.077868 -0.904069
0.003656 -0.001963 -0.999991
-0.429294 -0.025152 -0.902815
-0.998663 -0.051508 -0.004308
-0.424535 0.078964 0.901961
-0.979232 0.202699 -0.004226
-0.424535 0.078964 0.901961
-0.886427 0.462844 -0.004787
-0.979232 0.202699 -0.004226
-0.424535 0.078964 0.901961
-0.419945 0.208838 0.883195
-0.886427 0.462844 -0.004787
-0.419945 0.208838 0.883195
-0.729458 0.683996 -0.006425
-0.886427 0.462844 -0.004787
-0.419945 0.208838 0.883195
-0.359513 0.333006 0.871698
-0.729458 0.683996 -0.006425
-0.359513 0.333006 0.871698
-0.596435 0.802609 -0.009120
-0.729458 0.683996 -0.006425
-0.359513 0.333006 0.871698
-0.295826 0.390329 0.871855
-0.596435 0.802609 -0.009120
-0.295826 0.390329 0.871855
-0.392885 0.919534 -0.009967
-0.596435 0.802609 -0.009120
-0.295826 0.390329 0.871855
-0.195468 0.512660 0.836045
-0.392885 0.919534 -0.009967
-0.195468 0.512660 0.836045
-0.051481 0.998663 -0.004689
-0.392885 0.919534 -0.009967
-0.195468 0.512660 0.836045
-0.007976 0.521310 0.853330
-0.051481 0.998663 -0.004689
-0.007976 0.521310 0.853330
0.188403 0.982083 -0.004130
-0.051481 0.998663 -0.004689
-0.007976 0.521310 0.853330
0.112245 0.485904 0.866775
0.188403 0.982083 -0.004130
0.112245 0.485904 0.866775
0.453932 0.891027 -0.004199
0.188403 0.982083 -0.004130
0.112245 0.485904 0.866775
0.230499 0.412782 0.881182
0.453932 0.891027 -0.004199
0.230499 0.412782 0.881182
0.642086 0.766625 -0.003366
0.453932 0.891027 -0.004199
0.230499 0.412782 0.881182
0.294396 0.340018 0.893151
0.642086 0.766625 -0.003366
0.294396 0.340018 0.893151
0.728245 0.685313 -0.002203
0.642086 0.766625 -0.003366
0.326614 0.306963 0.893922
0.728245 0.685313 -0.002203
0.294396 0.340018 0.893151
0.326614 0.306963 0.893922
0.357863 0.273366 0.892863
0.728245 0.685313 -0.002203
0.357863 0.273366 0.892863
0.800436 0.599410 -0.003143
0.728245 0.685313 -0.002203
0.357863 0.273366 0.892863
0.398128 0.217985 0.891054
0.800436 0.599410 -0.003143
0.398128 0.217985 0.891054
0.883596 0.468222 -0.005073
0.800436 0.599410 -0.003143
0.398128 0.217985 0.891054
0.428752 0.158029 0.889494
0.883596 0.468222 -0.005073
0.428752 0.158029 0.889494
0.944082 0.329652 -0.006263
0.883596 0.468222 -0.005073
0.428752 0.158029 0.889494
0.494256 0.019367 0.869101
0.944082 0.329652 -0.006263
0.494256 0.019367 0.869101
0.999492 0.031438 -0.005283
0.944082 0.329652 -0.006263
0.494256 0.019367 0.869101
0.926974 -0.375104 -0.004039
0.999492 0.031438 -0.005283
0.494256 0.019367 0.869101
0.431785 -0.186464 0.882493
0.926974 -0.375104 -0.004039
0.431785 -0.186464 0.882493
0.806299 -0.591502 -0.002657
0.926974 -0.375104 -0.004039
0.431785 -0.186464 0.882493
0.338274 -0.246436 0.908207
0.806299 -0.591502 -0.002657
0.338274 -0.246436 0.908207
0.650528 -0.759481 -0.001330
0.806299 -0.591502 -0.002657
0.338274 -0.246436 0.908207
0.287465 -0.354302 0.889851
0.650528 -0.759481 -0.001330
0.287465 -0.354302 0.889851
0.473126 -0.880993 -0.001723
0.650528 -0.759481 -0.001330
0.287465 -0.354302 0.889851
0.208857 -0.373360 0.903870
0.473126 -0.880993 -0.001723
0.208857 -0.373360 0.903870
0.385123 -0.922860 -0.003046
0.473126 -0.880993 -0.001723
0.208857 -0.373360 0.903870
0.180483 -0.436063 0.881632
0.385123 -0.922860 -0.003046
0.180483 -0.436063 0.881632
0.045550 -0.998941 -0.006424
0.385123 -0.922860 -0.003046
0.180483 -0.436063 0.881632
-0.011085 -0.562189 0.826935
0.045550 -0.998941 -0.006424
-0.011085 -0.562189 0.826935
-0.078455 -0.996869 -0.009823
0.045550 -0.998941 -0.006424
-0.011085 -0.562189 0.826935
-0.008982 -0.437823 0.899016
-0.078455 -0.996869 -0.009823
-0.008982 -0.437823 0.899016
-0.046272 -0.998907 -0.006609
-0.078455 -0.996869 -0.009823
-0.008982 -0.437823 0.899016
-0.046281 -0.543758 0.837965
-0.046272 -0.998907 -0.006609
-0.046281 -0.543758 0.837965
-0.450743 -0.892639 -0.005217
-0.046272 -0.998907 -0.006609
-0.046281 -0.543758 0.837965
-0.276382 -0.483072 0.830816
-0.450743 -0.892639 -0.005217
-0.276382 -0.483072 0.830816
-0.716404 -0.697673 -0.004275
-0.450743 -0.892639 -0.005217
-0.276382 -0.483072 0.830816
-0.414199 -0.354707 0.838226
-0.716404 -0.697673 -0.004275
-0.414199 -0.354707 0.838226
-0.872579 -0.488456 -0.003978
-0.716404 -0.697673 -0.004275
-0.414199 -0.354707 0.838226
-0.471245 -0.224397 0.852979
-0.872579 -0.488456 -0.003978
-0.471245 -0.224397 0.852979
-0.946985 -0.321253 -0.004081
-0.872579 -0.488456 -0.003978
-0.471245 -0.224397 0.852979
-0.486108 -0.137431 0.863025
-0.946985 -0.321253 -0.004081
-0.486108 -0.137431 0.863025
-0.982937 -0.183888 -0.004407
-0.946985 -0.321253 -0.004081
-0.431653 -0.070400 0.899289
-0.982937 -0.183888 -0.004407
-0.486108 -0.137431 0.863025
-0.431653 -0.070400 0.899289
-0.433580 -0.025316 0.900759
-0.982937 -0.183888 -0.004407
-0.433580 -0.025316 0.900759
-0.998663 -0.051508 -0.004308
-0.982937 -0.183888 -0.004407
-0.433580 -0.025316 0.900759
-0.424535 0.078964 0.901961
-0.998663 -0.051508 -0.004308
-0.433580 -0.025316 0.900759
0.001318 0.003166 0.999994
-0.424535 0.078964 0.901961
-0.431653 -0.070400 0.899289
0.001318 0.003166 0.999994
-0.433580 -0.025316 0.900759
-0.486108 -0.137431 0.863025
0.001318 0.003166 0.999994
-0.431653 -0.070400 0.899289
-0.471245 -0.224397 0.852979
0.001318 0.003166 0.999994
-0.486108 -0.137431 0.863025
-0.414199 -0.354707 0.838226
0.001318 0.003166 0.999994
-0.471245 -0.224397 0.852979
-0.276382 -0.483072 0.830816
0.001318 0.003166 0.999994
-0.414199 -0.354707 0.838226
-0.046281 -0.543758 0.837965
0.001318 0.003166 0.999994
-0.276382 -0.483072 0.830816
-0.008982 -0.437823 0.899016
0.001318 0.003166 0.999994
-0.046281 -0.543758 0.837965
-0.011085 -0.562189 0.826935
0.001318 0.003166 0.999994
-0.008982 -0.437823 0.899016
0.180483 -0.436063 0.881632
0.001318 0.003166 0.999994
-0.011085 -0.562189 0.826935
0.208857 -0.373360 0.903870
0.001318 0.003166 0.999994
0.180483 -0.436063 0.881632
0.287465 -0.354302 0.889851
0.001318 0.003166 0.999994
0.208857 -0.373360 0.903870
0.338274 -0.246436 0.908207
0.001318 0.003166 0.999994
0.287465 -0.354302 0.889851
0.431785 -0.186464 0.882493
0.001318 0.003166 0.999994
0.338274 -0.246436 0.908207
0.494256 0.019367 0.869101
0.001318 0.003166 0.999994
0.431785 -0.186464 0.882493
0.428752 0.158029 0.889494
0.001318 0.003166 0.999994
0.494256 0.019367 0.869101
0.398128 0.217985 0.891054
0.001318 0.003166 0.999994
0.428752 0.158029 0.889494
0.357863 0.273366 0.892863
0.001318 0.003166 0.999994
0.398128 0.217985 0.891054
0.326614 0.306963 0.893922
0.001318 0.003166 0.999994
0.357863 0.273366 0.892863
0.294396 0.340018 0.893151
0.001318 0.003166 0.999994
0.326614 0.306963 0.893922
0.230499 0.412782 0.881182
0.001318 0.003166 0.999994
0.294396 0.340018 0.893151
0.112245 0.485904 0.866775
0.001318 0.003166 0.999994
0.230499 0.412782 0.881182
-0.007976 0.521310 0.853330
0.001318 0.003166 0.999994
0.112245 0.485904 0.866775
-0.195468 0.512660 0.836045
0.001318 0.003166 0.999994
-0.007976 0.521310 0.853330
-0.295826 0.390329 0.871855
0.001318 0.003166 0.999994
-0.195468 0.512660 0.836045
-0.359513 0.333006 0.871698
0.001318 0.003166 0.999994
-0.295826 0.390329 0.871855
-0.419945 0.208838 0.883195
0.001318 0.003166 0.999994
-0.359513 0.333006 0.871698
-0.424535 0.078964 0.901961
0.001318 0.003166 0.999994
-0.419945 0.208838 0.883195
</float_array>
          <technique_common>
            <accessor source="#SM_Sand_Dollar_03_LOD0-Normal0-array" count="522" stride="3">
              <param name="X" type="float"/>
              <param name="Y" type="float"/>
              <param name="Z" type="float"/>
            </accessor>
          </technique_common>
        </source>
        <source id="SM_Sand_Dollar_03_LOD0-UV0">
          <float_array id="SM_Sand_Dollar_03_LOD0-UV0-array" count="244">
0.408936 0.360840
0.332275 0.315430
0.408936 0.447266
0.342529 0.503662
0.273926 0.503662
0.215942 0.456055
0.215942 0.366699
0.259521 0.315430
0.221069 0.425293
0.225830 0.424316
0.228638 0.445313
0.220215 0.407715
0.224609 0.407715
0.223511 0.387207
0.227539 0.388184
0.231689 0.370605
0.228516 0.368652
0.236816 0.358398
0.233887 0.355957
0.247559 0.343262
0.245605 0.339844
0.262939 0.330566
0.261963 0.326660
0.284424 0.323730
0.284668 0.319824
0.300293 0.326660
0.301025 0.322266
0.312744 0.322754
0.313721 0.318848
0.334473 0.329102
0.336670 0.325195
0.348633 0.336914
0.351318 0.333008
0.368408 0.347168
0.371826 0.344238
0.382813 0.365234
0.386719 0.362793
0.398438 0.388184
0.402832 0.387207
0.402832 0.408691
0.407227 0.408691
0.403809 0.420898
0.399414 0.420410
0.397461 0.436035
0.393311 0.434570
0.388184 0.450684
0.384521 0.448242
0.375977 0.464355
0.373047 0.461426
0.363281 0.471191
0.365479 0.475098
0.347656 0.482422
0.348877 0.486816
0.333008 0.487793
0.333252 0.491699
0.303467 0.490234
0.302734 0.494141
0.278564 0.485840
0.276367 0.489258
0.263428 0.475098
0.260254 0.478516
0.246582 0.461914
0.242798 0.464355
0.232910 0.443359
0.309326 0.407227
0.221069 0.425293
0.225830 0.424316
0.220215 0.407715
0.228638 0.445313
0.232910 0.443359
0.242798 0.464355
0.246582 0.461914
0.260254 0.478516
0.263428 0.475098
0.276367 0.489258
0.278564 0.485840
0.302734 0.494141
0.303467 0.490234
0.333252 0.491699
0.333008 0.487793
0.348877 0.486816
0.347656 0.482422
0.365479 0.475098
0.363281 0.471191
0.375977 0.464355
0.373047 0.461426
0.384521 0.448242
0.388184 0.450684
0.393311 0.434570
0.397461 0.436035
0.399414 0.420410
0.403809 0.420898
0.402832 0.408691
0.407227 0.408691
0.402832 0.387207
0.398438 0.388184
0.386719 0.362793
0.382813 0.365234
0.371826 0.344238
0.368408 0.347168
0.351318 0.333008
0.348633 0.336914
0.336670 0.325195
0.334473 0.329102
0.313721 0.318848
0.312744 0.322754
0.301025 0.322266
0.300293 0.326660
0.284668 0.319824
0.284424 0.323730
0.261963 0.326660
0.262939 0.330566
0.245605 0.339844
0.247559 0.343262
0.233887 0.355957
0.236816 0.358398
0.228516 0.368652
0.231689 0.370605
0.223511 0.387207
0.227539 0.388184
0.224609 0.407715
0.309326 0.407227
</float_array>
          <technique_common>
            <accessor source="#SM_Sand_Dollar_03_LOD0-UV0-array" count="122" stride="2">
              <param name="S" type="float"/>
              <param name="T" type="float"/>
            </accessor>
          </technique_common>
        </source>
        <vertices id="SM_Sand_Dollar_03_LOD0-VERTEX">
          <input semantic="POSITION" source="#SM_Sand_Dollar_03_LOD0-POSITION"/>
        </vertices>
        <triangles count="174" material="MAT_Sea_Shells">
          <input semantic="VERTEX" offset="0" source="#SM_Sand_Dollar_03_LOD0-VERTEX"/>
          <input semantic="NORMAL" offset="1" source="#SM_Sand_Dollar_03_LOD0-Normal0"/>
          <input semantic="TEXCOORD" offset="2" set="0" source="#SM_Sand_Dollar_03_LOD0-UV0"/>
          <p> 1 0 2 2 1 1 0 2 0 3 3 3 2 4 1 1 5 2 4 6 4 2 7 1 3 8 3 5 9 5 2 10 1 4 11 4 6 12 6 2 13 1 5 14 5 7 15 7 2 16 1 6 17 6 53 18 10 51 19 9 8 20 8 51 21 9 9 22 11 8 23 8 51 24 9 50 25 12 9 26 11 50 27 12 10 28 13 9 29 11 11 30 14 10 31 13 50 32 12 11 33 14 12 34 15 10 35 13 12 36 15 79 37 16 10 38 13 12 39 15 13 40 17 79 41 16 13 42 17 14 43 18 79 44 16 13 45 17 15 46 19 14 47 18 15 48 19 17 49 20 14 50 18 15 51 19 16 52 21 17 53 20 16 54 21 18 55 22 17 56 20 16 57 21 49 58 23 18 59 22 49 60 23 19 61 24 18 62 22 49 63 23 48 64 25 19 65 24 48 66 25 20 67 26 19 68 24 48 69 25 21 70 27 20 71 26 21 72 27 75 73 28 20 74 26 21 75 27 22 76 29 75 77 28 22 78 29 73 79 30 75 80 28 22 81 29 47 82 31 73 83 30 47 84 31 71 85 32 73 86 30 47 87 31 24 88 33 71 89 32 24 90 33 23 91 34 71 92 32 24 93 33 46 94 35 23 95 34 46 96 35 25 97 36 23 98 34 46 99 35 26 100 37 25 101 36 26 102 37 67 103 38 25 104 36 26 105 37 27 106 39 67 107 38 27 108 39 66 109 40 67 110 38 27 111 39 28 112 41 66 113 40 27 114 39 44 115 42 28 116 41 44 117 42 63 118 43 28 119 41 44 120 42 29 121 44 63 122 43 29 123 44 30 124 45 63 125 43 29 126 44 32 127 46 30 128 45 32 129 46 31 130 47 30 131 45 43 132 48 31 133 47 32 134 46 43 135 48 33 136 49 31 137 47 33 138 49 34 139 50 31 140 47 33 141 49 42 142 51 34 143 50 42 144 51 60 145 52 34 146 50 42 147 51 35 148 53 60 149 52 35 150 53 59 151 54 60 152 52 35 153 53 36 154 55 59 155 54 36 156 55 57 157 56 59 158 54 36 159 55 41 160 57 57 161 56 41 162 57 55 163 58 57 164 56 41 165 57 37 166 59 55 167 58 37 168 59 54 169 60 55 170 58 37 171 59 40 172 61 54 173 60 40 174 61 38 175 62 54 176 60 40 177 61 39 178 63 38 179 62 39 180 63 53 181 10 38 182 62 39 183 63 51 184 9 53 185 10 39 186 63 45 187 64 51 188 9 40 189 61 45 190 64 39 191 63 37 192 59 45 193 64 40 194 61 41 195 57 45 196 64 37 197 59 36 198 55 45 199 64 41 200 57 35 201 53 45 202 64 36 203 55 42 204 51 45 205 64 35 206 53 33 207 49 45 208 64 42 209 51 43 210 48 45 211 64 33 212 49 32 213 46 45 214 64 43 215 48 29 216 44 45 217 64 32 218 46 44 219 42 45 220 64 29 221 44 27 222 39 45 223 64 44 224 42 26 225 37 45 226 64 27 227 39 46 228 35 45 229 64 26 230 37 24 231 33 45 232 64 46 233 35 47 234 31 45 235 64 24 236 33 22 237 29 45 238 64 47 239 31 21 240 27 45 241 64 22 242 29 48 243 25 45 244 64 21 245 27 49 246 23 45 247 64 48 248 25 16 249 21 45 250 64 49 251 23 15 252 19 45 253 64 16 254 21 13 255 17 45 256 64 15 257 19 12 258 15 45 259 64 13 260 17 11 261 14 45 262 64 12 263 15 50 264 12 45 265 64 11 266 14 51 267 9 45 268 64 50 269 12 9 270 67 52 271 66 8 272 65 52 273 66 53 274 68 8 275 65 52 276 66 93 277 69 53 278 68 93 279 69 38 280 70 53 281 68 93 282 69 92 283 71 38 284 70 92 285 71 54 286 72 38 287 70 92 288 71 91 289 73 54 290 72 91 291 73 55 292 74 54 293 72 91 294 73 56 295 75 55 296 74 56 297 75 57 298 76 55 299 74 56 300 75 58 301 77 57 302 76 58 303 77 59 304 78 57 305 76 58 306 77 89 307 79 59 308 78 89 309 79 60 310 80 59 311 78 89 312 79 61 313 81 60 314 80 61 315 81 34 316 82 60 317 80 61 318 81 88 319 83 34 320 82 88 321 83 31 322 84 34 323 82 87 324 85 31 325 84 88 326 83 87 327 85 62 328 86 31 329 84 62 330 86 30 331 87 31 332 84 62 333 86 86 334 88 30 335 87 86 336 88 63 337 89 30 338 87 86 339 88 64 340 90 63 341 89 64 342 90 28 343 91 63 344 89 64 345 90 65 346 92 28 347 91 65 348 92 66 349 93 28 350 91 65 351 92 67 352 94 66 353 93 65 354 92 68 355 95 67 356 94 68 357 95 25 358 96 67 359 94 68 360 95 69 361 97 25 362 96 69 363 97 23 364 98 25 365 96 69 366 97 70 367 99 23 368 98 70 369 99 71 370 100 23 371 98 70 372 99 72 373 101 71 374 100 72 375 101 73 376 102 71 377 100 72 378 101 74 379 103 73 380 102 74 381 103 75 382 104 73 383 102 74 384 103 85 385 105 75 386 104 85 387 105 20 388 106 75 389 104 85 390 105 76 391 107 20 392 106 76 393 107 19 394 108 20 395 106 76 396 107 84 397 109 19 398 108 84 399 109 18 400 110 19 401 108 84 402 109 83 403 111 18 404 110 83 405 111 17 406 112 18 407 110 83 408 111 77 409 113 17 410 112 77 411 113 14 412 114 17 413 112 77 414 113 78 415 115 14 416 114 78 417 115 79 418 116 14 419 114 78 420 115 80 421 117 79 422 116 80 423 117 10 424 118 79 425 116 81 426 119 10 427 118 80 428 117 81 429 119 82 430 120 10 431 118 82 432 120 9 433 67 10 434 118 82 435 120 52 436 66 9 437 67 82 438 120 90 439 121 52 440 66 81 441 119 90 442 121 82 443 120 80 444 117 90 445 121 81 446 119 78 447 115 90 448 121 80 449 117 77 450 113 90 451 121 78 452 115 83 453 111 90 454 121 77 455 113 84 456 109 90 457 121 83 458 111 76 459 107 90 460 121 84 461 109 85 462 105 90 463 121 76 464 107 74 465 103 90 466 121 85 467 105 72 468 101 90 469 121 74 470 103 70 471 99 90 472 121 72 473 101 69 474 97 90 475 121 70 476 99 68 477 95 90 478 121 69 479 97 65 480 92 90 481 121 68 482 95 64 483 90 90 484 121 65 485 92 86 486 88 90 487 121 64 488 90 62 489 86 90 490 121 86 491 88 87 492 85 90 493 121 62 494 86 88 495 83 90 496 121 87 497 85 61 498 81 90 499 121 88 500 83 89 501 79 90 502 121 61 503 81 58 504 77 90 505 121 89 506 79 56 507 75 90 508 121 58 509 77 91 510 73 90 511 121 56 512 75 92 513 71 90 514 121 91 515 73 93 516 69 90 517 121 92 518 71 52 519 66 90 520 121 93 521 69</p>
        </triangles>
      </mesh>
    </geometry>
    <geometry id="SM_Sand_Dollar_03_LOD1-lib" name="SM_Sand_Dollar_03_LOD1Mesh">
      <mesh>
        <source id="SM_Sand_Dollar_03_LOD1-POSITION">
          <float_array id="SM_Sand_Dollar_03_LOD1-POSITION-array" count="123">
-15.764542 7.418091 1.195381
15.764542 -7.756744 1.258314
-8.633987 -15.054840 1.288582
4.947891 15.054810 1.163709
15.764542 6.043732 1.201081
-15.764542 -6.823090 1.254443
-6.283142 15.054810 1.163709
3.250885 -15.054840 1.288582
9.765091 -10.550446 1.286955
-14.968628 -0.210571 1.194950
15.531494 -0.010223 1.201605
8.735748 10.772186 1.193928
-8.733215 -12.947845 1.204291
-5.512344 12.704437 2.046471
0.306290 -14.633636 1.278980
13.948593 4.446350 1.194074
-12.896103 -7.933594 0.996690
-13.586212 5.948822 1.193067
-4.490295 -14.357300 0.964811
-9.385727 -11.821564 2.069716
-1.481537 13.725006 0.934791
-0.434860 -0.242004 0.000000
4.031647 -13.627960 1.293151
6.014252 12.712250 1.194334
14.815781 -3.496033 1.222637
-11.287231 9.089111 1.193004
-2.367874 -13.905609 2.057794
-14.825256 2.649933 1.194546
-0.434860 -0.242004 2.399650
12.424988 6.814331 1.194197
1.752274 13.170807 1.898640
14.676666 -1.450775 1.881756
-9.380417 -11.825928 0.344193
-1.035828 -13.837128 0.515213
3.470718 13.372528 0.977930
-5.664246 12.928375 0.808092
-13.248138 -6.288177 1.850931
12.205811 -7.500214 1.262510
-11.808685 7.384094 1.939405
-14.288147 1.554352 1.796514
-11.812180 7.379364 0.465270
</float_array>
          <technique_common>
            <accessor source="#SM_Sand_Dollar_03_LOD1-POSITION-array" count="41" stride="3">
              <param name="X" type="float"/>
              <param name="Y" type="float"/>
              <param name="Z" type="float"/>
            </accessor>
          </technique_common>
        </source>
        <source id="SM_Sand_Dollar_03_LOD1-Normal0">
          <float_array id="SM_Sand_Dollar_03_LOD1-Normal0-array" count="612">
-0.000000 0.004147 0.999991
0.000000 0.004147 0.999991
-0.000000 0.004147 0.999991
0.000000 0.004147 0.999991
0.000000 0.004147 0.999991
0.000000 0.004147 0.999991
-0.000000 0.004147 0.999991
0.000000 0.004147 0.999991
0.000000 0.004147 0.999991
0.000000 0.004147 0.999991
0.000000 0.004147 0.999991
0.000000 0.004147 0.999991
0.000000 0.004147 0.999991
0.000000 0.004147 0.999991
-0.000000 0.004147 0.999991
0.000000 0.004147 0.999991
0.000000 0.004147 0.999991
0.000000 0.004147 0.999991
0.565265 -0.824904 -0.002885
0.014310 0.000125 -0.999898
0.865787 -0.454185 -0.210068
0.418379 -0.055773 0.906559
0.019054 -0.000739 0.999818
0.565265 -0.824904 -0.002885
0.827207 0.559174 -0.055256
0.019054 -0.000739 0.999818
0.666455 0.743740 -0.051849
0.867556 0.496318 0.031848
0.014310 0.000125 -0.999898
0.572440 0.812470 -0.110473
-0.367056 0.260950 0.892847
0.019054 -0.000739 0.999818
-0.247530 0.627764 0.737998
-0.302134 0.768250 -0.564365
0.014310 0.000125 -0.999898
-0.351478 0.236419 -0.905852
0.199664 0.857021 -0.475026
0.014310 0.000125 -0.999898
-0.029868 0.907623 -0.418723
0.082148 0.578593 0.811469
0.019054 -0.000739 0.999818
0.827207 0.559174 -0.055256
0.565265 -0.824904 -0.002885
0.019054 -0.000739 0.999818
0.674733 -0.737924 0.014309
0.674733 -0.737924 0.014309
0.014310 0.000125 -0.999898
0.565265 -0.824904 -0.002885
0.958718 0.213203 -0.188162
0.014310 0.000125 -0.999898
0.867556 0.496318 0.031848
0.666455 0.743740 -0.051849
0.019054 -0.000739 0.999818
0.418379 -0.055773 0.906559
-0.021789 -0.490189 0.871344
-0.440185 -0.444071 0.780409
-0.456031 -0.889529 0.027820
-0.952728 0.194491 -0.233414
0.014310 0.000125 -0.999898
-0.813970 -0.412500 -0.409019
-0.351478 0.236419 -0.905852
0.014310 0.000125 -0.999898
-0.952728 0.194491 -0.233414
-0.409645 0.037084 0.911491
0.019054 -0.000739 0.999818
-0.367056 0.260950 0.892847
0.674733 -0.737924 0.014309
0.019054 -0.000739 0.999818
-0.021789 -0.490189 0.871344
-0.211763 -0.916626 -0.339048
0.014310 0.000125 -0.999898
0.021095 -0.348984 -0.936891
-0.440185 -0.444071 0.780409
-0.813970 -0.412500 -0.409019
-0.456031 -0.889529 0.027820
-0.655710 -0.200907 0.727791
0.019054 -0.000739 0.999818
-0.409645 0.037084 0.911491
-0.029868 0.907623 -0.418723
0.014310 0.000125 -0.999898
-0.302134 0.768250 -0.564365
-0.247530 0.627764 0.737998
0.019054 -0.000739 0.999818
0.082148 0.578593 0.811469
-0.418549 -0.419980 -0.805254
0.014310 0.000125 -0.999898
-0.211763 -0.916626 -0.339048
-0.813970 -0.412500 -0.409019
0.014310 0.000125 -0.999898
-0.418549 -0.419980 -0.805254
0.021095 -0.348984 -0.936891
0.014310 0.000125 -0.999898
0.674733 -0.737924 0.014309
0.674733 -0.737924 0.014309
-0.021789 -0.490189 0.871344
0.193109 -0.980398 0.039092
0.082148 0.578593 0.811469
0.827207 0.559174 -0.055256
0.572440 0.812470 -0.110473
0.572440 0.812470 -0.110473
0.827207 0.559174 -0.055256
0.867556 0.496318 0.031848
0.865787 -0.454185 -0.210068
0.014310 0.000125 -0.999898
0.958718 0.213203 -0.188162
0.666455 0.743740 -0.051849
0.418379 -0.055773 0.906559
0.958718 0.213203 -0.188162
-0.351478 0.236419 -0.905852
-0.952728 0.194491 -0.233414
-0.915884 0.401343 -0.008955
-0.367056 0.260950 0.892847
-0.247530 0.627764 0.737998
-0.676504 0.736106 -0.022162
-0.021789 -0.490189 0.871344
-0.211763 -0.916626 -0.339048
0.193109 -0.980398 0.039092
-0.021789 -0.490189 0.871344
-0.456031 -0.889529 0.027820
-0.211763 -0.916626 -0.339048
-0.813970 -0.412500 -0.409019
-0.963997 -0.081787 -0.253024
-0.952728 0.194491 -0.233414
-0.409645 0.037084 0.911491
-0.915884 0.401343 -0.008955
-0.952728 0.194491 -0.233414
-0.021789 -0.490189 0.871344
0.019054 -0.000739 0.999818
-0.440185 -0.444071 0.780409
-0.440185 -0.444071 0.780409
0.019054 -0.000739 0.999818
-0.655710 -0.200907 0.727791
0.867556 0.496318 0.031848
0.827207 0.559174 -0.055256
0.666455 0.743740 -0.051849
0.666455 0.743740 -0.051849
0.958718 0.213203 -0.188162
0.867556 0.496318 0.031848
-0.247530 0.627764 0.737998
0.082148 0.578593 0.811469
-0.029868 0.907623 -0.418723
0.082148 0.578593 0.811469
0.199664 0.857021 -0.475026
-0.029868 0.907623 -0.418723
0.418379 -0.055773 0.906559
0.775914 -0.610394 -0.159303
0.865787 -0.454185 -0.210068
0.418379 -0.055773 0.906559
0.865787 -0.454185 -0.210068
0.958718 0.213203 -0.188162
-0.418549 -0.419980 -0.805254
-0.211763 -0.916626 -0.339048
-0.456031 -0.889529 0.027820
-0.418549 -0.419980 -0.805254
-0.456031 -0.889529 0.027820
-0.813970 -0.412500 -0.409019
0.021095 -0.348984 -0.936891
0.674733 -0.737924 0.014309
0.193109 -0.980398 0.039092
0.021095 -0.348984 -0.936891
0.193109 -0.980398 0.039092
-0.211763 -0.916626 -0.339048
0.082148 0.578593 0.811469
0.572440 0.812470 -0.110473
0.199664 0.857021 -0.475026
0.572440 0.812470 -0.110473
0.014310 0.000125 -0.999898
0.199664 0.857021 -0.475026
-0.247530 0.627764 0.737998
-0.029868 0.907623 -0.418723
-0.302134 0.768250 -0.564365
-0.247530 0.627764 0.737998
-0.302134 0.768250 -0.564365
-0.676504 0.736106 -0.022162
-0.655710 -0.200907 0.727791
-0.963997 -0.081787 -0.253024
-0.813970 -0.412500 -0.409019
-0.440185 -0.444071 0.780409
-0.655710 -0.200907 0.727791
-0.813970 -0.412500 -0.409019
0.565265 -0.824904 -0.002885
0.865787 -0.454185 -0.210068
0.775914 -0.610394 -0.159303
0.418379 -0.055773 0.906559
0.565265 -0.824904 -0.002885
0.775914 -0.610394 -0.159303
-0.367056 0.260950 0.892847
-0.676504 0.736106 -0.022162
-0.915884 0.401343 -0.008955
-0.409645 0.037084 0.911491
-0.367056 0.260950 0.892847
-0.915884 0.401343 -0.008955
-0.655710 -0.200907 0.727791
-0.409645 0.037084 0.911491
-0.963997 -0.081787 -0.253024
-0.963997 -0.081787 -0.253024
-0.409645 0.037084 0.911491
-0.952728 0.194491 -0.233414
-0.302134 0.768250 -0.564365
-0.351478 0.236419 -0.905852
-0.676504 0.736106 -0.022162
-0.351478 0.236419 -0.905852
-0.915884 0.401343 -0.008955
-0.676504 0.736106 -0.022162
</float_array>
          <technique_common>
            <accessor source="#SM_Sand_Dollar_03_LOD1-Normal0-array" count="204" stride="3">
              <param name="X" type="float"/>
              <param name="Y" type="float"/>
              <param name="Z" type="float"/>
            </accessor>
          </technique_common>
        </source>
        <source id="SM_Sand_Dollar_03_LOD1-UV0">
          <float_array id="SM_Sand_Dollar_03_LOD1-UV0-array" count="108">
0.215942 0.456055
0.259521 0.315430
0.408936 0.360840
0.258482 0.329466
0.220215 0.407715
0.407227 0.408691
0.258482 0.329466
0.407227 0.408691
0.342529 0.503662
0.371826 0.344238
0.242798 0.464355
0.408936 0.447266
0.215942 0.366699
0.278564 0.485840
0.273926 0.503662
0.332275 0.315430
0.313721 0.318848
0.313721 0.318848
0.277416 0.487626
0.365479 0.475098
0.233215 0.360432
0.397461 0.436035
0.397461 0.436035
0.284582 0.321200
0.402832 0.387207
0.333174 0.490443
0.336670 0.325195
0.336670 0.325195
0.309326 0.407227
0.255098 0.337039
0.240457 0.453601
0.231689 0.370605
0.297628 0.324493
0.309326 0.407227
0.302994 0.492755
0.255130 0.337012
0.240436 0.453572
0.400965 0.399977
0.402832 0.387207
0.225392 0.418357
0.305693 0.324966
0.242798 0.464355
0.228638 0.445313
0.228638 0.445313
0.322567 0.488656
0.220215 0.407715
0.221069 0.425293
0.221069 0.425293
0.348877 0.486816
0.348877 0.486816
0.386719 0.362793
0.386719 0.362793
0.388184 0.450684
0.388184 0.450684
</float_array>
          <technique_common>
            <accessor source="#SM_Sand_Dollar_03_LOD1-UV0-array" count="54" stride="2">
              <param name="S" type="float"/>
              <param name="T" type="float"/>
            </accessor>
          </technique_common>
        </source>
        <vertices id="SM_Sand_Dollar_03_LOD1-VERTEX">
          <input semantic="POSITION" source="#SM_Sand_Dollar_03_LOD1-POSITION"/>
        </vertices>
        <triangles count="68" material="MAT_Sea_Shells">
          <input semantic="VERTEX" offset="0" source="#SM_Sand_Dollar_03_LOD1-VERTEX"/>
          <input semantic="NORMAL" offset="1" source="#SM_Sand_Dollar_03_LOD1-Normal0"/>
          <input semantic="TEXCOORD" offset="2" set="0" source="#SM_Sand_Dollar_03_LOD1-UV0"/>
          <p> 3 0 8 7 1 15 4 2 11 0 3 0 7 4 15 6 5 14 4 6 11 7 7 15 1 8 2 5 9 12 7 10 15 0 11 0 6 12 14 7 13 15 3 14 8 2 15 1 7 16 15 5 17 12 8 18 9 21 19 28 24 20 24 31 21 37 28 22 33 8 23 9 11 24 19 28 25 33 29 26 52 15 27 22 21 28 28 23 29 49 38 30 30 28 31 33 13 32 13 35 33 18 21 34 28 40 35 36 34 36 25 21 37 28 20 38 34 30 39 44 28 40 33 11 41 19 8 42 9 28 43 33 22 44 26 22 45 27 21 46 28 8 47 9 10 48 7 21 49 28 15 50 22 29 51 52 28 52 33 31 53 37 26 54 32 19 55 29 12 56 6 27 57 47 21 58 28 16 59 20 40 60 36 21 61 28 27 62 47 39 63 39 28 64 33 38 65 30 22 66 26 28 67 33 26 68 32 18 69 23 21 70 28 33 71 40 19 72 29 16 73 20 12 74 6 36 75 31 28 76 33 39 77 39 20 78 34 21 79 28 35 80 18 13 81 13 28 82 33 30 83 44 32 84 35 21 85 28 18 86 23 16 87 20 21 88 28 32 89 35 33 90 40 21 91 28 22 92 27 22 93 26 26 94 32 14 95 17 30 96 44 11 97 19 23 98 48 23 99 49 11 100 19 15 101 22 24 102 24 21 103 28 10 104 7 29 105 52 31 106 37 10 107 7 40 108 36 27 109 47 17 110 43 38 111 30 13 112 13 25 113 10 26 114 32 18 115 23 14 116 17 26 117 32 12 118 6 18 119 23 16 120 20 9 121 4 27 122 47 39 123 39 17 124 42 27 125 46 26 126 32 28 127 33 19 128 29 19 129 29 28 130 33 36 131 31 15 132 22 11 133 19 29 134 53 29 135 52 10 136 7 15 137 21 13 138 13 30 139 44 20 140 34 30 141 44 34 142 25 20 143 34 31 144 37 37 145 50 24 146 38 31 147 37 24 148 38 10 149 5 32 150 35 18 151 23 12 152 3 32 153 35 12 154 3 16 155 20 33 156 40 22 157 27 14 158 16 33 159 40 14 160 16 18 161 23 30 162 44 23 163 48 34 164 25 23 165 49 21 166 28 34 167 25 13 168 13 20 169 34 35 170 18 13 171 13 35 172 18 25 173 10 36 174 31 9 175 45 16 176 20 19 177 29 36 178 31 16 179 20 8 180 9 24 181 24 37 182 51 31 183 37 8 184 9 37 185 50 38 186 30 25 187 41 17 188 42 39 189 39 38 190 30 17 191 42 36 192 31 39 193 39 9 194 45 9 195 45 39 196 39 27 197 46 35 198 18 40 199 36 25 200 10 40 201 36 17 202 43 25 203 10</p>
        </triangles>
      </mesh>
    </geometry>
  </library_geometries>
  <library_visual_scenes>
    <visual_scene id="SM_Sand_Dollar_03" name="SM_Sand_Dollar_03">
      <node name="SM_Sand_Dollar_03_LOD0" id="SM_Sand_Dollar_03_LOD0" layer="shells" sid="SM_Sand_Dollar_03_LOD0">
        <matrix sid="matrix">1.000000 0.000000 0.000000 0.000000 0.000000 0.000000 1.000000 0.000000 0.000000 -1.000000 0.000000 0.000000 0.000000 0.000000 0.000000 1.000000</matrix>
        <instance_geometry url="#SM_Sand_Dollar_03_LOD0-lib">
          <bind_material>
            <technique_common>
              <instance_material symbol="MAT_Sea_Shells" target="#MAT_Sea_Shells"/>
            </technique_common>
          </bind_material>
        </instance_geometry>
        <extra>
          <technique profile="FCOLLADA">
            <visibility>1.000000</visibility>
          </technique>
        </extra>
      </node>
      <node name="SM_Sand_Dollar_03_LOD1" id="SM_Sand_Dollar_03_LOD1" layer="shells" sid="SM_Sand_Dollar_03_LOD1">
        <matrix sid="matrix">1.000000 0.000000 0.000000 0.000000 0.000000 0.000000 1.000000 0.000000 0.000000 -1.000000 0.000000 0.000000 0.000000 0.000000 0.000000 1.000000</matrix>
        <instance_geometry url="#SM_Sand_Dollar_03_LOD1-lib">
          <bind_material>
            <technique_common>
              <instance_material symbol="MAT_Sea_Shells" target="#MAT_Sea_Shells"/>
            </technique_common>
          </bind_material>
        </instance_geometry>
        <extra>
          <technique profile="FCOLLADA">
            <visibility>1.000000</visibility>
          </technique>
        </extra>
      </node>
      <extra>
        <technique profile="MAX3D">
          <frame_rate>30.000000</frame_rate>
        </technique>
        <technique profile="FCOLLADA">
          <start_time>0.000000</start_time>
          <end_time>3.333333</end_time>
        </technique>
      </extra>
    </visual_scene>
  </library_visual_scenes>
  <scene>
    <instance_visual_scene url="#SM_Sand_Dollar_03"/>
  </scene>
</COLLADA>
