<?xml version="1.0" encoding="utf-8"?>
<COLLADA xmlns="http://www.collada.org/2005/11/COLLADASchema" version="1.4.1">
  <asset>
    <contributor>
      <author/>
      <authoring_tool>FBX COLLADA exporter</authoring_tool>
      <comments/>
    </contributor>
    <created>2024-02-10T11:42:39Z</created>
    <keywords/>
    <modified>2024-02-10T11:42:39Z</modified>
    <revision/>
    <subject/>
    <title/>
    <unit meter="0.010000" name="centimeter"/>
    <up_axis>Y_UP</up_axis>
  </asset>
  <library_materials>
    <material id="MAT_Sea_Shells" name="MAT_Sea_Shells">
      <instance_effect url="#MAT_Sea_Shells-fx"/>
    </material>
  </library_materials>
  <library_effects>
    <effect id="MAT_Sea_Shells-fx" name="MAT_Sea_Shells">
      <profile_COMMON>
        <technique sid="standard">
          <phong>
            <emission>
              <color sid="emission">0.000000  0.000000 0.000000 1.000000</color>
            </emission>
            <ambient>
              <color sid="ambient">0.588235  0.588235 0.588235 1.000000</color>
            </ambient>
            <diffuse>
              <color sid="diffuse">0.588235  0.588235 0.588235 1.000000</color>
            </diffuse>
            <specular>
              <color sid="specular">0.000000  0.000000 0.000000 1.000000</color>
            </specular>
            <shininess>
              <float sid="shininess">2.000000</float>
            </shininess>
            <reflective>
              <color sid="reflective">0.000000  0.000000 0.000000 1.000000</color>
            </reflective>
            <reflectivity>
              <float sid="reflectivity">1.000000</float>
            </reflectivity>
            <transparent opaque="RGB_ZERO">
              <color sid="transparent">1.000000  1.000000 1.000000 1.000000</color>
            </transparent>
            <transparency>
              <float sid="transparency">0.000000</float>
            </transparency>
          </phong>
        </technique>
      </profile_COMMON>
    </effect>
  </library_effects>
  <library_geometries>
    <geometry id="SM_Sand_Dollar_04_LOD0-lib" name="SM_Sand_Dollar_04_LOD0Mesh">
      <mesh>
        <source id="SM_Sand_Dollar_04_LOD0-POSITION">
          <float_array id="SM_Sand_Dollar_04_LOD0-POSITION-array" count="258">
7.969643 10.218536 0.853767
7.726402 9.765259 0.478032
5.161934 11.496185 0.476361
5.294304 11.978729 0.853988
3.239098 12.406708 0.853397
-0.603050 12.349915 0.852498
-0.499329 11.917450 0.417018
-4.657333 10.523590 0.368853
-4.923416 10.915955 0.852555
-7.540054 9.383240 0.851689
-9.694771 7.985535 0.851790
-10.675362 6.029510 0.442731
-11.163345 6.256348 0.852545
-12.418854 3.035248 0.854329
-12.441940 1.272308 0.517416
-11.903351 2.925110 0.492915
-12.226555 -1.997559 0.517416
-10.911842 -6.853088 0.424127
-10.500702 -8.085571 0.851132
-8.828812 -8.528015 0.338433
0.714172 -11.991943 0.469756
4.127518 -10.684021 0.512443
4.406296 -11.116150 0.913557
6.303596 -10.166687 0.915348
9.066032 -8.386505 0.910400
10.241692 -5.190704 0.527795
11.779915 -2.061951 0.482587
12.950470 0.324219 0.858063
12.454979 0.309601 0.461792
12.184685 2.101990 0.461038
12.048706 4.044342 0.853553
11.592201 5.934845 0.853759
9.549156 8.760254 0.478847
11.170013 5.650848 0.471545
11.569374 3.848541 0.465348
8.642448 -8.052765 0.545153
5.963387 -9.760986 0.533198
-4.108780 -11.763489 0.431328
-7.104218 -10.208527 0.405703
-10.320427 -7.649811 0.349861
-10.786743 -5.653900 0.468694
-9.247574 7.675323 0.397247
-7.171402 9.004761 0.362269
0.514320 -0.062042 0.000000
3.251564 11.950836 0.452172
10.733940 -5.442474 0.895513
12.295425 -2.169495 0.870958
12.454979 0.309601 1.275761
12.686996 2.197144 0.854085
12.184685 2.101990 1.269347
11.569374 3.848541 1.262531
11.170013 5.650848 1.253186
9.885414 9.120331 0.853576
7.726402 9.765259 1.246687
3.251564 11.950836 1.274896
-4.657333 10.523590 1.377009
-9.247574 7.675323 1.334543
-11.903351 2.925110 1.234155
-12.226555 -1.997559 1.209654
-12.950470 1.250885 0.855000
-12.686890 -2.117462 0.855000
-11.120117 -5.915192 0.853794
-10.320427 -7.649811 1.376940
-11.208183 -7.194794 0.852605
-8.828812 -8.528015 1.405855
-8.896187 -9.000183 0.859547
-7.021408 -10.691010 0.884399
-7.104218 -10.208527 1.394738
-3.985649 -12.233429 0.892234
0.714172 -11.991943 1.367707
0.887909 -12.406708 0.904373
5.963387 -9.760986 1.313651
4.127518 -10.684021 1.333701
0.514320 -0.062042 1.726694
-4.108780 -11.763489 1.384573
-10.911842 -6.853088 1.302945
-10.786743 -5.653900 1.258375
-12.441940 1.272308 1.209654
-10.675362 6.029510 1.284339
-7.171402 9.004761 1.377921
-0.499329 11.917450 1.310049
5.161934 11.496185 1.250708
9.549156 8.760254 1.243258
11.779915 -2.061951 1.278862
10.241692 -5.190704 1.280615
8.642448 -8.052765 1.291278
</float_array>
          <technique_common>
            <accessor source="#SM_Sand_Dollar_04_LOD0-POSITION-array" count="86" stride="3">
              <param name="X" type="float"/>
              <param name="Y" type="float"/>
              <param name="Z" type="float"/>
            </accessor>
          </technique_common>
        </source>
        <source id="SM_Sand_Dollar_04_LOD0-Normal0">
          <float_array id="SM_Sand_Dollar_04_LOD0-Normal0-array" count="1512">
0.930835 0.365304 -0.009993
0.276737 0.265496 -0.923541
0.713224 0.700886 -0.008413
0.276737 0.265496 -0.923541
0.524378 0.851416 -0.010931
0.713224 0.700886 -0.008413
0.276737 0.265496 -0.923541
0.167836 0.274462 -0.946838
0.524378 0.851416 -0.010931
0.167836 0.274462 -0.946838
0.155849 0.333433 -0.929803
0.524378 0.851416 -0.010931
0.155849 0.333433 -0.929803
0.389281 0.921054 -0.010987
0.524378 0.851416 -0.010931
0.155849 0.333433 -0.929803
0.049601 0.386676 -0.920881
0.389281 0.921054 -0.010987
0.049601 0.386676 -0.920881
0.096426 0.995271 -0.011713
0.389281 0.921054 -0.010987
0.049601 0.386676 -0.920881
-0.061764 0.418056 -0.906319
0.096426 0.995271 -0.011713
-0.061764 0.418056 -0.906319
-0.166742 0.985927 -0.012058
0.096426 0.995271 -0.011713
-0.061764 0.418056 -0.906319
-0.171617 0.389522 -0.904887
-0.166742 0.985927 -0.012058
-0.171617 0.389522 -0.904887
-0.423865 0.905526 -0.019025
-0.166742 0.985927 -0.012058
-0.171617 0.389522 -0.904887
-0.207168 0.327265 -0.921943
-0.423865 0.905526 -0.019025
-0.207168 0.327265 -0.921943
-0.530762 0.847337 -0.017640
-0.423865 0.905526 -0.019025
-0.207168 0.327265 -0.921943
-0.259538 0.289705 -0.921255
-0.530762 0.847337 -0.017640
-0.259538 0.289705 -0.921255
-0.676206 0.736582 -0.013849
-0.530762 0.847337 -0.017640
-0.259538 0.289705 -0.921255
-0.319017 0.181799 -0.930149
-0.676206 0.736582 -0.013849
-0.319017 0.181799 -0.930149
-0.865612 0.500577 -0.011748
-0.676206 0.736582 -0.013849
-0.319017 0.181799 -0.930149
-0.306348 0.098931 -0.946765
-0.865612 0.500577 -0.011748
-0.306348 0.098931 -0.946765
-0.945862 0.324365 -0.011481
-0.865612 0.500577 -0.011748
-0.306348 0.098931 -0.946765
-0.337510 0.040702 -0.940441
-0.945862 0.324365 -0.011481
-0.337510 0.040702 -0.940441
-0.995097 0.098341 -0.010506
-0.945862 0.324365 -0.011481
-0.337510 0.040702 -0.940441
-0.339396 -0.071245 -0.937941
-0.995097 0.098341 -0.010506
-0.339396 -0.071245 -0.937941
-0.975315 -0.220550 -0.010898
-0.995097 0.098341 -0.010506
-0.339396 -0.071245 -0.937941
-0.359007 -0.042971 -0.932345
-0.975315 -0.220550 -0.010898
-0.359007 -0.042971 -0.932345
-0.997758 -0.065652 -0.012996
-0.975315 -0.220550 -0.010898
-0.359007 -0.042971 -0.932345
-0.520392 -0.053755 -0.852234
-0.997758 -0.065652 -0.012996
-0.520392 -0.053755 -0.852234
-0.941689 -0.336318 -0.010569
-0.997758 -0.065652 -0.012996
-0.520392 -0.053755 -0.852234
-0.324738 -0.308385 -0.894116
-0.941689 -0.336318 -0.010569
-0.324738 -0.308385 -0.894116
-0.640572 -0.767796 -0.012509
-0.941689 -0.336318 -0.010569
-0.324738 -0.308385 -0.894116
-0.232343 -0.339266 -0.911546
-0.640572 -0.767796 -0.012509
-0.232343 -0.339266 -0.911546
-0.615885 -0.787687 -0.015338
-0.640572 -0.767796 -0.012509
-0.232343 -0.339266 -0.911546
-0.297623 -0.408558 -0.862845
-0.615885 -0.787687 -0.015338
-0.297623 -0.408558 -0.862845
-0.534763 -0.844866 -0.015181
-0.615885 -0.787687 -0.015338
-0.297623 -0.408558 -0.862845
-0.139190 -0.446253 -0.884016
-0.534763 -0.844866 -0.015181
-0.139190 -0.446253 -0.884016
-0.211211 -0.977313 -0.015823
-0.534763 -0.844866 -0.015181
-0.139190 -0.446253 -0.884016
0.068568 -0.433302 -0.898637
-0.211211 -0.977313 -0.015823
0.068568 -0.433302 -0.898637
0.186327 -0.982377 -0.014745
-0.211211 -0.977313 -0.015823
0.068568 -0.433302 -0.898637
0.149838 -0.328586 -0.932513
0.186327 -0.982377 -0.014745
0.149838 -0.328586 -0.932513
0.406156 -0.913742 -0.010637
0.186327 -0.982377 -0.014745
0.149838 -0.328586 -0.932513
0.172349 -0.297439 -0.939056
0.406156 -0.913742 -0.010637
0.172349 -0.297439 -0.939056
0.500446 -0.865721 -0.009031
0.406156 -0.913742 -0.010637
0.172349 -0.297439 -0.939056
0.253458 -0.248178 -0.934969
0.500446 -0.865721 -0.009031
0.253458 -0.248178 -0.934969
0.733410 -0.679740 -0.007981
0.500446 -0.865721 -0.009031
0.253458 -0.248178 -0.934969
0.883523 -0.468284 -0.009898
0.733410 -0.679740 -0.007981
0.276102 -0.154682 -0.948600
0.883523 -0.468284 -0.009898
0.253458 -0.248178 -0.934969
0.276102 -0.154682 -0.948600
0.323321 -0.133886 -0.936770
0.883523 -0.468284 -0.009898
0.323321 -0.133886 -0.936770
0.937491 -0.347827 -0.011279
0.883523 -0.468284 -0.009898
0.323321 -0.133886 -0.936770
0.381929 -0.029752 -0.923712
0.937491 -0.347827 -0.011279
0.381929 -0.029752 -0.923712
0.998618 -0.051095 -0.012285
0.937491 -0.347827 -0.011279
0.381929 -0.029752 -0.923712
0.971612 0.236210 -0.013232
0.998618 -0.051095 -0.012285
0.381929 -0.029752 -0.923712
0.344997 0.086382 -0.934620
0.971612 0.236210 -0.013232
0.344997 0.086382 -0.934620
0.960933 0.276479 -0.012921
0.971612 0.236210 -0.013232
0.312220 0.093018 -0.945445
0.960933 0.276479 -0.012921
0.344997 0.086382 -0.934620
0.312220 0.093018 -0.945445
0.341273 0.123398 -0.931829
0.960933 0.276479 -0.012921
0.341273 0.123398 -0.931829
0.930835 0.365304 -0.009993
0.960933 0.276479 -0.012921
0.341273 0.123398 -0.931829
0.276737 0.265496 -0.923541
0.930835 0.365304 -0.009993
0.341273 0.123398 -0.931829
0.004665 -0.002767 -0.999985
0.276737 0.265496 -0.923541
0.312220 0.093018 -0.945445
0.004665 -0.002767 -0.999985
0.341273 0.123398 -0.931829
0.344997 0.086382 -0.934620
0.004665 -0.002767 -0.999985
0.312220 0.093018 -0.945445
0.381929 -0.029752 -0.923712
0.004665 -0.002767 -0.999985
0.344997 0.086382 -0.934620
0.323321 -0.133886 -0.936770
0.004665 -0.002767 -0.999985
0.381929 -0.029752 -0.923712
0.276102 -0.154682 -0.948600
0.004665 -0.002767 -0.999985
0.323321 -0.133886 -0.936770
0.253458 -0.248178 -0.934969
0.004665 -0.002767 -0.999985
0.276102 -0.154682 -0.948600
0.172349 -0.297439 -0.939056
0.004665 -0.002767 -0.999985
0.253458 -0.248178 -0.934969
0.149838 -0.328586 -0.932513
0.004665 -0.002767 -0.999985
0.172349 -0.297439 -0.939056
0.068568 -0.433302 -0.898637
0.004665 -0.002767 -0.999985
0.149838 -0.328586 -0.932513
-0.139190 -0.446253 -0.884016
0.004665 -0.002767 -0.999985
0.068568 -0.433302 -0.898637
-0.297623 -0.408558 -0.862845
0.004665 -0.002767 -0.999985
-0.139190 -0.446253 -0.884016
-0.232343 -0.339266 -0.911546
0.004665 -0.002767 -0.999985
-0.297623 -0.408558 -0.862845
-0.324738 -0.308385 -0.894116
0.004665 -0.002767 -0.999985
-0.232343 -0.339266 -0.911546
-0.520392 -0.053755 -0.852234
0.004665 -0.002767 -0.999985
-0.324738 -0.308385 -0.894116
-0.359007 -0.042971 -0.932345
0.004665 -0.002767 -0.999985
-0.520392 -0.053755 -0.852234
-0.339396 -0.071245 -0.937941
0.004665 -0.002767 -0.999985
-0.359007 -0.042971 -0.932345
-0.337510 0.040702 -0.940441
0.004665 -0.002767 -0.999985
-0.339396 -0.071245 -0.937941
-0.306348 0.098931 -0.946765
0.004665 -0.002767 -0.999985
-0.337510 0.040702 -0.940441
-0.319017 0.181799 -0.930149
0.004665 -0.002767 -0.999985
-0.306348 0.098931 -0.946765
-0.259538 0.289705 -0.921255
0.004665 -0.002767 -0.999985
-0.319017 0.181799 -0.930149
-0.207168 0.327265 -0.921943
0.004665 -0.002767 -0.999985
-0.259538 0.289705 -0.921255
-0.171617 0.389522 -0.904887
0.004665 -0.002767 -0.999985
-0.207168 0.327265 -0.921943
-0.061764 0.418056 -0.906319
0.004665 -0.002767 -0.999985
-0.171617 0.389522 -0.904887
0.049601 0.386676 -0.920881
0.004665 -0.002767 -0.999985
-0.061764 0.418056 -0.906319
0.155849 0.333433 -0.929803
0.004665 -0.002767 -0.999985
0.049601 0.386676 -0.920881
0.167836 0.274462 -0.946838
0.004665 -0.002767 -0.999985
0.155849 0.333433 -0.929803
0.276737 0.265496 -0.923541
0.004665 -0.002767 -0.999985
0.167836 0.274462 -0.946838
0.261649 -0.248576 0.932604
0.500446 -0.865721 -0.009031
0.733410 -0.679740 -0.007981
0.883523 -0.468284 -0.009898
0.261649 -0.248576 0.932604
0.733410 -0.679740 -0.007981
0.286894 -0.148590 0.946368
0.261649 -0.248576 0.932604
0.883523 -0.468284 -0.009898
0.335331 -0.127026 0.933497
0.286894 -0.148590 0.946368
0.883523 -0.468284 -0.009898
0.937491 -0.347827 -0.011279
0.335331 -0.127026 0.933497
0.883523 -0.468284 -0.009898
0.394686 -0.024250 0.918496
0.335331 -0.127026 0.933497
0.937491 -0.347827 -0.011279
0.998618 -0.051095 -0.012285
0.394686 -0.024250 0.918496
0.937491 -0.347827 -0.011279
0.971612 0.236210 -0.013232
0.394686 -0.024250 0.918496
0.998618 -0.051095 -0.012285
0.357051 0.091744 0.929568
0.394686 -0.024250 0.918496
0.971612 0.236210 -0.013232
0.960933 0.276479 -0.012921
0.357051 0.091744 0.929568
0.971612 0.236210 -0.013232
0.960933 0.276479 -0.012921
0.322758 0.097550 0.941441
0.357051 0.091744 0.929568
0.351137 0.127760 0.927567
0.322758 0.097550 0.941441
0.960933 0.276479 -0.012921
0.930835 0.365304 -0.009993
0.351137 0.127760 0.927567
0.960933 0.276479 -0.012921
0.284184 0.272529 0.919221
0.351137 0.127760 0.927567
0.930835 0.365304 -0.009993
0.713224 0.700886 -0.008413
0.284184 0.272529 0.919221
0.930835 0.365304 -0.009993
0.524378 0.851416 -0.010931
0.284184 0.272529 0.919221
0.713224 0.700886 -0.008413
0.524378 0.851416 -0.010931
0.173840 0.282442 0.943401
0.284184 0.272529 0.919221
0.160809 0.344274 0.924995
0.173840 0.282442 0.943401
0.524378 0.851416 -0.010931
0.389281 0.921054 -0.010987
0.160809 0.344274 0.924995
0.524378 0.851416 -0.010931
0.050705 0.398367 0.915824
0.160809 0.344274 0.924995
0.389281 0.921054 -0.010987
0.096426 0.995271 -0.011713
0.050705 0.398367 0.915824
0.389281 0.921054 -0.010987
-0.062106 0.430171 0.900608
0.050705 0.398367 0.915824
0.096426 0.995271 -0.011713
-0.166742 0.985927 -0.012058
-0.062106 0.430171 0.900608
0.096426 0.995271 -0.011713
-0.178721 0.405593 0.896411
-0.062106 0.430171 0.900608
-0.166742 0.985927 -0.012058
-0.423865 0.905526 -0.019025
-0.178721 0.405593 0.896411
-0.166742 0.985927 -0.012058
-0.217399 0.339783 0.915033
-0.178721 0.405593 0.896411
-0.423865 0.905526 -0.019025
-0.530762 0.847337 -0.017640
-0.217399 0.339783 0.915033
-0.423865 0.905526 -0.019025
-0.270298 0.299572 0.914984
-0.217399 0.339783 0.915033
-0.530762 0.847337 -0.017640
-0.676206 0.736582 -0.013849
-0.270298 0.299572 0.914984
-0.530762 0.847337 -0.017640
-0.330351 0.188235 0.924898
-0.270298 0.299572 0.914984
-0.676206 0.736582 -0.013849
-0.865612 0.500577 -0.011748
-0.330351 0.188235 0.924898
-0.676206 0.736582 -0.013849
-0.316957 0.102979 0.942833
-0.330351 0.188235 0.924898
-0.865612 0.500577 -0.011748
-0.945862 0.324365 -0.011481
-0.316957 0.102979 0.942833
-0.865612 0.500577 -0.011748
-0.349258 0.042320 0.936070
-0.316957 0.102979 0.942833
-0.945862 0.324365 -0.011481
-0.995097 0.098341 -0.010506
-0.349258 0.042320 0.936070
-0.945862 0.324365 -0.011481
-0.350887 -0.073905 0.933497
-0.349258 0.042320 0.936070
-0.995097 0.098341 -0.010506
-0.975315 -0.220550 -0.010898
-0.350887 -0.073905 0.933497
-0.995097 0.098341 -0.010506
-0.368977 -0.044621 0.928367
-0.350887 -0.073905 0.933497
-0.975315 -0.220550 -0.010898
-0.997758 -0.065652 -0.012996
-0.368977 -0.044621 0.928367
-0.975315 -0.220550 -0.010898
-0.530313 -0.057765 0.845832
-0.368977 -0.044621 0.928367
-0.997758 -0.065652 -0.012996
-0.941689 -0.336318 -0.010569
-0.530313 -0.057765 0.845832
-0.997758 -0.065652 -0.012996
-0.334720 -0.314692 0.888218
-0.530313 -0.057765 0.845832
-0.941689 -0.336318 -0.010569
-0.640572 -0.767796 -0.012509
-0.334720 -0.314692 0.888218
-0.941689 -0.336318 -0.010569
-0.249957 -0.338396 0.907199
-0.334720 -0.314692 0.888218
-0.640572 -0.767796 -0.012509
-0.615885 -0.787687 -0.015338
-0.249957 -0.338396 0.907199
-0.640572 -0.767796 -0.012509
-0.313343 -0.410665 0.856254
-0.249957 -0.338396 0.907199
-0.615885 -0.787687 -0.015338
-0.534763 -0.844866 -0.015181
-0.313343 -0.410665 0.856254
-0.615885 -0.787687 -0.015338
-0.145998 -0.457528 0.877128
-0.313343 -0.410665 0.856254
-0.534763 -0.844866 -0.015181
-0.211211 -0.977313 -0.015823
-0.145998 -0.457528 0.877128
-0.534763 -0.844866 -0.015181
0.067416 -0.445312 0.892834
-0.145998 -0.457528 0.877128
-0.211211 -0.977313 -0.015823
0.186327 -0.982377 -0.014745
0.067416 -0.445312 0.892834
-0.211211 -0.977313 -0.015823
0.150637 -0.335127 0.930053
0.067416 -0.445312 0.892834
0.186327 -0.982377 -0.014745
0.406156 -0.913742 -0.010637
0.150637 -0.335127 0.930053
0.186327 -0.982377 -0.014745
0.175535 -0.301008 0.937327
0.150637 -0.335127 0.930053
0.406156 -0.913742 -0.010637
0.500446 -0.865721 -0.009031
0.175535 -0.301008 0.937327
0.406156 -0.913742 -0.010637
0.261649 -0.248576 0.932604
0.175535 -0.301008 0.937327
0.500446 -0.865721 -0.009031
0.261649 -0.248576 0.932604
0.003173 0.001647 0.999994
0.175535 -0.301008 0.937327
0.003173 0.001647 0.999994
0.150637 -0.335127 0.930053
0.175535 -0.301008 0.937327
0.003173 0.001647 0.999994
0.067416 -0.445312 0.892834
0.150637 -0.335127 0.930053
0.003173 0.001647 0.999994
-0.145998 -0.457528 0.877128
0.067416 -0.445312 0.892834
0.003173 0.001647 0.999994
-0.313343 -0.410665 0.856254
-0.145998 -0.457528 0.877128
0.003173 0.001647 0.999994
-0.249957 -0.338396 0.907199
-0.313343 -0.410665 0.856254
0.003173 0.001647 0.999994
-0.334720 -0.314692 0.888218
-0.249957 -0.338396 0.907199
0.003173 0.001647 0.999994
-0.530313 -0.057765 0.845832
-0.334720 -0.314692 0.888218
0.003173 0.001647 0.999994
-0.368977 -0.044621 0.928367
-0.530313 -0.057765 0.845832
0.003173 0.001647 0.999994
-0.350887 -0.073905 0.933497
-0.368977 -0.044621 0.928367
0.003173 0.001647 0.999994
-0.349258 0.042320 0.936070
-0.350887 -0.073905 0.933497
0.003173 0.001647 0.999994
-0.316957 0.102979 0.942833
-0.349258 0.042320 0.936070
0.003173 0.001647 0.999994
-0.330351 0.188235 0.924898
-0.316957 0.102979 0.942833
0.003173 0.001647 0.999994
-0.270298 0.299572 0.914984
-0.330351 0.188235 0.924898
0.003173 0.001647 0.999994
-0.217399 0.339783 0.915033
-0.270298 0.299572 0.914984
0.003173 0.001647 0.999994
-0.178721 0.405593 0.896411
-0.217399 0.339783 0.915033
0.003173 0.001647 0.999994
-0.062106 0.430171 0.900608
-0.178721 0.405593 0.896411
0.003173 0.001647 0.999994
0.050705 0.398367 0.915824
-0.062106 0.430171 0.900608
0.003173 0.001647 0.999994
0.160809 0.344274 0.924995
0.050705 0.398367 0.915824
0.003173 0.001647 0.999994
0.173840 0.282442 0.943401
0.160809 0.344274 0.924995
0.003173 0.001647 0.999994
0.284184 0.272529 0.919221
0.173840 0.282442 0.943401
0.003173 0.001647 0.999994
0.351137 0.127760 0.927567
0.284184 0.272529 0.919221
0.003173 0.001647 0.999994
0.322758 0.097550 0.941441
0.351137 0.127760 0.927567
0.003173 0.001647 0.999994
0.357051 0.091744 0.929568
0.322758 0.097550 0.941441
0.003173 0.001647 0.999994
0.394686 -0.024250 0.918496
0.357051 0.091744 0.929568
0.003173 0.001647 0.999994
0.335331 -0.127026 0.933497
0.394686 -0.024250 0.918496
0.003173 0.001647 0.999994
0.286894 -0.148590 0.946368
0.335331 -0.127026 0.933497
0.286894 -0.148590 0.946368
0.003173 0.001647 0.999994
0.261649 -0.248576 0.932604
</float_array>
          <technique_common>
            <accessor source="#SM_Sand_Dollar_04_LOD0-Normal0-array" count="504" stride="3">
              <param name="X" type="float"/>
              <param name="Y" type="float"/>
              <param name="Z" type="float"/>
            </accessor>
          </technique_common>
        </source>
        <source id="SM_Sand_Dollar_04_LOD0-UV0">
          <float_array id="SM_Sand_Dollar_04_LOD0-UV0-array" count="228">
0.372559 0.289063
0.370117 0.286621
0.384033 0.267578
0.359619 0.296387
0.357910 0.293457
0.340576 0.305176
0.341309 0.308594
0.327637 0.308105
0.327393 0.311035
0.302246 0.308105
0.301514 0.311035
0.273926 0.298340
0.272217 0.301270
0.256836 0.288086
0.254395 0.291016
0.242920 0.279297
0.239868 0.281250
0.233276 0.268066
0.229980 0.269531
0.224976 0.247070
0.221436 0.247559
0.221313 0.235840
0.217896 0.235840
0.222778 0.213867
0.219604 0.212891
0.232544 0.188965
0.230225 0.187012
0.231689 0.180664
0.229614 0.178711
0.235718 0.175293
0.234497 0.172363
0.245728 0.169434
0.245361 0.166016
0.257324 0.158203
0.258057 0.154785
0.277588 0.147461
0.278564 0.144531
0.310303 0.145996
0.311523 0.143066
0.333496 0.154785
0.335449 0.151855
0.345947 0.161133
0.348145 0.158203
0.364014 0.172852
0.366943 0.170410
0.378174 0.190430
0.375000 0.191895
0.385254 0.213379
0.388916 0.212402
0.389893 0.229492
0.393311 0.229492
0.391602 0.242188
0.388184 0.241699
0.387207 0.254395
0.384033 0.253418
0.381104 0.265625
0.309082 0.226563
0.366943 0.170410
0.348145 0.158203
0.364014 0.172852
0.378174 0.190430
0.375000 0.191895
0.385254 0.213379
0.388916 0.212402
0.389893 0.229492
0.393311 0.229492
0.391602 0.242188
0.388184 0.241699
0.387207 0.254395
0.384033 0.253418
0.381104 0.265625
0.384033 0.267578
0.370117 0.286621
0.372559 0.289063
0.359619 0.296387
0.357910 0.293457
0.340576 0.305176
0.341309 0.308594
0.327637 0.308105
0.327393 0.311035
0.302246 0.308105
0.301514 0.311035
0.273926 0.298340
0.272217 0.301270
0.256836 0.288086
0.254395 0.291016
0.242920 0.279297
0.239868 0.281250
0.233276 0.268066
0.229980 0.269531
0.224976 0.247070
0.221436 0.247559
0.221313 0.235840
0.217896 0.235840
0.222778 0.213867
0.219604 0.212891
0.232544 0.188965
0.230225 0.187012
0.231689 0.180664
0.229614 0.178711
0.235718 0.175293
0.234497 0.172363
0.245728 0.169434
0.245361 0.166016
0.257324 0.158203
0.258057 0.154785
0.277588 0.147461
0.278564 0.144531
0.310303 0.145996
0.311523 0.143066
0.333496 0.154785
0.335449 0.151855
0.345947 0.161133
0.309082 0.226563
</float_array>
          <technique_common>
            <accessor source="#SM_Sand_Dollar_04_LOD0-UV0-array" count="114" stride="2">
              <param name="S" type="float"/>
              <param name="T" type="float"/>
            </accessor>
          </technique_common>
        </source>
        <vertices id="SM_Sand_Dollar_04_LOD0-VERTEX">
          <input semantic="POSITION" source="#SM_Sand_Dollar_04_LOD0-POSITION"/>
        </vertices>
        <triangles count="168" material="MAT_Sea_Shells">
          <input semantic="VERTEX" offset="0" source="#SM_Sand_Dollar_04_LOD0-VERTEX"/>
          <input semantic="NORMAL" offset="1" source="#SM_Sand_Dollar_04_LOD0-Normal0"/>
          <input semantic="TEXCOORD" offset="2" set="0" source="#SM_Sand_Dollar_04_LOD0-UV0"/>
          <p> 31 0 2 32 1 1 52 2 0 32 3 1 0 4 3 52 5 0 32 6 1 1 7 4 0 8 3 1 9 4 2 10 5 0 11 3 2 12 5 3 13 6 0 14 3 2 15 5 44 16 7 3 17 6 44 18 7 4 19 8 3 20 6 44 21 7 6 22 9 4 23 8 6 24 9 5 25 10 4 26 8 6 27 9 7 28 11 5 29 10 7 30 11 8 31 12 5 32 10 7 33 11 42 34 13 8 35 12 42 36 13 9 37 14 8 38 12 42 39 13 41 40 15 9 41 14 41 42 15 10 43 16 9 44 14 41 45 15 11 46 17 10 47 16 11 48 17 12 49 18 10 50 16 11 51 17 15 52 19 12 53 18 15 54 19 13 55 20 12 56 18 15 57 19 14 58 21 13 59 20 14 60 21 59 61 22 13 62 20 14 63 21 16 64 23 59 65 22 16 66 23 60 67 24 59 68 22 16 69 23 40 70 25 60 71 24 40 72 25 61 73 26 60 74 24 40 75 25 17 76 27 61 77 26 17 78 27 63 79 28 61 80 26 17 81 27 39 82 29 63 83 28 39 84 29 18 85 30 63 86 28 39 87 29 19 88 31 18 89 30 19 90 31 65 91 32 18 92 30 19 93 31 38 94 33 65 95 32 38 96 33 66 97 34 65 98 32 38 99 33 37 100 35 66 101 34 37 102 35 68 103 36 66 104 34 37 105 35 20 106 37 68 107 36 20 108 37 70 109 38 68 110 36 20 111 37 21 112 39 70 113 38 21 114 39 22 115 40 70 116 38 21 117 39 36 118 41 22 119 40 36 120 41 23 121 42 22 122 40 36 123 41 35 124 43 23 125 42 35 126 43 24 127 44 23 128 42 35 129 43 45 130 45 24 131 44 25 132 46 45 133 45 35 134 43 25 135 46 26 136 47 45 137 45 26 138 47 46 139 48 45 140 45 26 141 47 28 142 49 46 143 48 28 144 49 27 145 50 46 146 48 28 147 49 48 148 51 27 149 50 28 150 49 29 151 52 48 152 51 29 153 52 30 154 53 48 155 51 34 156 54 30 157 53 29 158 52 34 159 54 33 160 55 30 161 53 33 162 55 31 163 2 30 164 53 33 165 55 32 166 1 31 167 2 33 168 55 43 169 56 32 170 1 34 171 54 43 172 56 33 173 55 29 174 52 43 175 56 34 176 54 28 177 49 43 178 56 29 179 52 26 180 47 43 181 56 28 182 49 25 183 46 43 184 56 26 185 47 35 186 43 43 187 56 25 188 46 36 189 41 43 190 56 35 191 43 21 192 39 43 193 56 36 194 41 20 195 37 43 196 56 21 197 39 37 198 35 43 199 56 20 200 37 38 201 33 43 202 56 37 203 35 19 204 31 43 205 56 38 206 33 39 207 29 43 208 56 19 209 31 17 210 27 43 211 56 39 212 29 40 213 25 43 214 56 17 215 27 16 216 23 43 217 56 40 218 25 14 219 21 43 220 56 16 221 23 15 222 19 43 223 56 14 224 21 11 225 17 43 226 56 15 227 19 41 228 15 43 229 56 11 230 17 42 231 13 43 232 56 41 233 15 7 234 11 43 235 56 42 236 13 6 237 9 43 238 56 7 239 11 44 240 7 43 241 56 6 242 9 2 243 5 43 244 56 44 245 7 1 246 4 43 247 56 2 248 5 32 249 1 43 250 56 1 251 4 85 252 59 23 253 58 24 254 57 45 255 60 85 256 59 24 257 57 84 258 61 85 259 59 45 260 60 83 261 62 84 262 61 45 263 60 46 264 63 83 265 62 45 266 60 47 267 64 83 268 62 46 269 63 27 270 65 47 271 64 46 272 63 48 273 66 47 274 64 27 275 65 49 276 67 47 277 64 48 278 66 30 279 68 49 280 67 48 281 66 30 282 68 50 283 69 49 284 67 51 285 70 50 286 69 30 287 68 31 288 71 51 289 70 30 290 68 82 291 72 51 292 70 31 293 71 52 294 73 82 295 72 31 296 71 0 297 74 82 298 72 52 299 73 0 300 74 53 301 75 82 302 72 81 303 76 53 304 75 0 305 74 3 306 77 81 307 76 0 308 74 54 309 78 81 310 76 3 311 77 4 312 79 54 313 78 3 314 77 80 315 80 54 316 78 4 317 79 5 318 81 80 319 80 4 320 79 55 321 82 80 322 80 5 323 81 8 324 83 55 325 82 5 326 81 79 327 84 55 328 82 8 329 83 9 330 85 79 331 84 8 332 83 56 333 86 79 334 84 9 335 85 10 336 87 56 337 86 9 338 85 78 339 88 56 340 86 10 341 87 12 342 89 78 343 88 10 344 87 57 345 90 78 346 88 12 347 89 13 348 91 57 349 90 12 350 89 77 351 92 57 352 90 13 353 91 59 354 93 77 355 92 13 356 91 58 357 94 77 358 92 59 359 93 60 360 95 58 361 94 59 362 93 76 363 96 58 364 94 60 365 95 61 366 97 76 367 96 60 368 95 75 369 98 76 370 96 61 371 97 63 372 99 75 373 98 61 374 97 62 375 100 75 376 98 63 377 99 18 378 101 62 379 100 63 380 99 64 381 102 62 382 100 18 383 101 65 384 103 64 385 102 18 386 101 67 387 104 64 388 102 65 389 103 66 390 105 67 391 104 65 392 103 74 393 106 67 394 104 66 395 105 68 396 107 74 397 106 66 398 105 69 399 108 74 400 106 68 401 107 70 402 109 69 403 108 68 404 107 72 405 110 69 406 108 70 407 109 22 408 111 72 409 110 70 410 109 71 411 112 72 412 110 22 413 111 23 414 58 71 415 112 22 416 111 85 417 59 71 418 112 23 419 58 85 420 59 73 421 113 71 422 112 73 423 113 72 424 110 71 425 112 73 426 113 69 427 108 72 428 110 73 429 113 74 430 106 69 431 108 73 432 113 67 433 104 74 434 106 73 435 113 64 436 102 67 437 104 73 438 113 62 439 100 64 440 102 73 441 113 75 442 98 62 443 100 73 444 113 76 445 96 75 446 98 73 447 113 58 448 94 76 449 96 73 450 113 77 451 92 58 452 94 73 453 113 57 454 90 77 455 92 73 456 113 78 457 88 57 458 90 73 459 113 56 460 86 78 461 88 73 462 113 79 463 84 56 464 86 73 465 113 55 466 82 79 467 84 73 468 113 80 469 80 55 470 82 73 471 113 54 472 78 80 473 80 73 474 113 81 475 76 54 476 78 73 477 113 53 478 75 81 479 76 73 480 113 82 481 72 53 482 75 73 483 113 51 484 70 82 485 72 73 486 113 50 487 69 51 488 70 73 489 113 49 490 67 50 491 69 73 492 113 47 493 64 49 494 67 73 495 113 83 496 62 47 497 64 73 498 113 84 499 61 83 500 62 84 501 61 73 502 113 85 503 59</p>
        </triangles>
      </mesh>
    </geometry>
    <geometry id="SM_Sand_Dollar_04_LOD1-lib" name="SM_Sand_Dollar_04_LOD1Mesh">
      <mesh>
        <source id="SM_Sand_Dollar_04_LOD1-POSITION">
          <float_array id="SM_Sand_Dollar_04_LOD1-POSITION-array" count="105">
9.066032 -8.386505 0.910400
-4.923416 10.915955 0.852555
-10.898735 -7.584412 0.851961
9.885414 9.120331 0.853576
-12.950470 1.250885 0.855000
12.950470 0.324219 0.858063
-3.985649 -12.233429 0.892234
-9.694771 7.985535 0.851790
5.294304 11.978729 0.853988
0.887909 -12.406708 0.904373
0.514320 -0.062042 0.000000
0.514320 -0.062042 1.726694
12.295425 -2.169495 0.870958
-8.896187 -9.000183 0.859547
-0.603050 12.349915 0.852498
11.592201 5.934845 0.853759
-7.021408 -10.691010 0.884399
-12.686890 -2.117462 0.855000
-11.120117 -5.915192 0.853794
12.686996 2.197144 0.854085
-9.505173 -8.258636 1.384115
-11.163345 6.256348 0.852545
3.239098 12.406708 0.853397
-2.262444 11.326416 1.338442
12.429932 0.475677 1.275167
6.303596 -10.166687 0.915348
-10.108559 -7.774567 0.348238
0.845879 -11.941467 1.366395
-10.850128 -6.261505 1.280957
9.773582 8.329712 1.244633
12.429321 0.479736 0.461720
-9.946419 6.869781 1.309970
4.632225 11.622253 1.257414
10.733940 -5.442474 0.895513
-12.398201 0.608215 1.209654
</float_array>
          <technique_common>
            <accessor source="#SM_Sand_Dollar_04_LOD1-POSITION-array" count="35" stride="3">
              <param name="X" type="float"/>
              <param name="Y" type="float"/>
              <param name="Z" type="float"/>
            </accessor>
          </technique_common>
        </source>
        <source id="SM_Sand_Dollar_04_LOD1-Normal0">
          <float_array id="SM_Sand_Dollar_04_LOD1-Normal0-array" count="594">
0.006392 -0.007801 0.999949
-0.295038 -0.955149 -0.025361
0.063921 -0.408539 0.910500
-0.483756 0.855446 -0.184912
-0.000693 -0.001435 -0.999999
-0.882851 0.427265 -0.194985
0.006392 -0.007801 0.999949
0.677173 -0.735820 -0.002300
0.372136 -0.013495 0.928080
0.657206 0.726653 -0.200140
-0.000693 -0.001435 -0.999999
0.403493 0.883909 -0.236429
0.006392 -0.007801 0.999949
-0.326990 0.006735 0.945004
-0.516568 -0.120125 0.847778
-0.964423 -0.199000 -0.174033
-0.000693 -0.001435 -0.999999
-0.818447 -0.181029 -0.545319
0.006392 -0.007801 0.999949
0.372136 -0.013495 0.928080
0.293175 0.209229 0.932884
0.352580 -0.010369 -0.935724
-0.000693 -0.001435 -0.999999
0.657206 0.726653 -0.200140
0.006392 -0.007801 0.999949
-0.326398 -0.413634 0.849924
-0.295038 -0.955149 -0.025361
-0.342716 -0.308615 -0.887301
-0.000693 -0.001435 -0.999999
-0.405882 -0.898261 -0.168483
-0.882851 0.427265 -0.194985
-0.000693 -0.001435 -0.999999
-0.963105 0.194044 -0.186483
0.006392 -0.007801 0.999949
-0.276245 0.233473 0.932298
-0.326990 0.006735 0.945004
0.006392 -0.007801 0.999949
-0.121673 0.393481 0.911246
-0.276245 0.233473 0.932298
0.403493 0.883909 -0.236429
-0.000693 -0.001435 -0.999999
-0.074843 0.978212 -0.193649
0.677173 -0.735820 -0.002300
0.006392 -0.007801 0.999949
0.063921 -0.408539 0.910500
0.677173 -0.735820 -0.002300
-0.000693 -0.001435 -0.999999
0.352580 -0.010369 -0.935724
0.163024 -0.935898 -0.312279
-0.000693 -0.001435 -0.999999
0.677173 -0.735820 -0.002300
-0.295038 -0.955149 -0.025361
-0.000693 -0.001435 -0.999999
0.163024 -0.935898 -0.312279
0.006392 -0.007801 0.999949
0.101234 0.348045 0.931996
-0.121673 0.393481 0.911246
0.006392 -0.007801 0.999949
0.293175 0.209229 0.932884
0.101234 0.348045 0.931996
0.677173 -0.735820 -0.002300
0.352580 -0.010369 -0.935724
0.872750 -0.488167 0.000225
0.372136 -0.013495 0.928080
0.677173 -0.735820 -0.002300
0.872750 -0.488167 0.000225
-0.818447 -0.181029 -0.545319
-0.000693 -0.001435 -0.999999
-0.342716 -0.308615 -0.887301
0.006392 -0.007801 0.999949
-0.516568 -0.120125 0.847778
-0.326398 -0.413634 0.849924
-0.564104 0.788705 -0.244397
-0.121673 0.393481 0.911246
-0.483756 0.855446 -0.184912
-0.074843 0.978212 -0.193649
-0.000693 -0.001435 -0.999999
-0.483756 0.855446 -0.184912
0.920560 0.379194 -0.093712
0.293175 0.209229 0.932884
0.372136 -0.013495 0.928080
0.657206 0.726653 -0.200140
0.920560 0.379194 -0.093712
0.352580 -0.010369 -0.935724
-0.405882 -0.898261 -0.168483
-0.000693 -0.001435 -0.999999
-0.295038 -0.955149 -0.025361
-0.295038 -0.955149 -0.025361
-0.326398 -0.413634 0.849924
-0.405882 -0.898261 -0.168483
-0.963105 0.194044 -0.186483
-0.000693 -0.001435 -0.999999
-0.964423 -0.199000 -0.174033
-0.516568 -0.120125 0.847778
-0.326990 0.006735 0.945004
-0.964423 -0.199000 -0.174033
-0.818447 -0.181029 -0.545319
-0.342716 -0.308615 -0.887301
-0.888606 -0.458627 -0.006309
-0.326398 -0.413634 0.849924
-0.516568 -0.120125 0.847778
-0.888606 -0.458627 -0.006309
0.920560 0.379194 -0.093712
0.372136 -0.013495 0.928080
0.965566 0.259745 -0.014678
0.352580 -0.010369 -0.935724
0.920560 0.379194 -0.093712
0.965566 0.259745 -0.014678
-0.658086 -0.752283 0.031516
-0.326398 -0.413634 0.849924
-0.888606 -0.458627 -0.006309
-0.405882 -0.898261 -0.168483
-0.326398 -0.413634 0.849924
-0.658086 -0.752283 0.031516
-0.326990 0.006735 0.945004
-0.276245 0.233473 0.932298
-0.882851 0.427265 -0.194985
-0.483756 0.855446 -0.184912
-0.882851 0.427265 -0.194985
-0.564104 0.788705 -0.244397
0.403493 0.883909 -0.236429
0.101234 0.348045 0.931996
0.657206 0.726653 -0.200140
0.403493 0.883909 -0.236429
-0.074843 0.978212 -0.193649
0.021152 0.973460 -0.227877
-0.074843 0.978212 -0.193649
-0.121673 0.393481 0.911246
0.021152 0.973460 -0.227877
-0.483756 0.855446 -0.184912
-0.121673 0.393481 0.911246
-0.074843 0.978212 -0.193649
0.996837 -0.078443 -0.012793
0.372136 -0.013495 0.928080
0.912825 -0.408161 -0.012431
0.965566 0.259745 -0.014678
0.372136 -0.013495 0.928080
0.996837 -0.078443 -0.012793
0.677173 -0.735820 -0.002300
0.063921 -0.408539 0.910500
0.523705 -0.840831 -0.136878
0.163024 -0.935898 -0.312279
0.677173 -0.735820 -0.002300
0.523705 -0.840831 -0.136878
-0.342716 -0.308615 -0.887301
-0.658086 -0.752283 0.031516
-0.888606 -0.458627 -0.006309
-0.342716 -0.308615 -0.887301
-0.405882 -0.898261 -0.168483
-0.658086 -0.752283 0.031516
0.163024 -0.935898 -0.312279
0.063921 -0.408539 0.910500
-0.295038 -0.955149 -0.025361
0.523705 -0.840831 -0.136878
0.063921 -0.408539 0.910500
0.163024 -0.935898 -0.312279
-0.888606 -0.458627 -0.006309
-0.516568 -0.120125 0.847778
-0.818447 -0.181029 -0.545319
-0.818447 -0.181029 -0.545319
-0.516568 -0.120125 0.847778
-0.964423 -0.199000 -0.174033
0.657206 0.726653 -0.200140
0.293175 0.209229 0.932884
0.920560 0.379194 -0.093712
0.101234 0.348045 0.931996
0.293175 0.209229 0.932884
0.657206 0.726653 -0.200140
0.352580 -0.010369 -0.935724
0.996837 -0.078443 -0.012793
0.912825 -0.408161 -0.012431
0.352580 -0.010369 -0.935724
0.965566 0.259745 -0.014678
0.996837 -0.078443 -0.012793
-0.276245 0.233473 0.932298
-0.121673 0.393481 0.911246
-0.564104 0.788705 -0.244397
-0.882851 0.427265 -0.194985
-0.276245 0.233473 0.932298
-0.564104 0.788705 -0.244397
-0.121673 0.393481 0.911246
0.101234 0.348045 0.931996
0.021152 0.973460 -0.227877
0.021152 0.973460 -0.227877
0.101234 0.348045 0.931996
0.403493 0.883909 -0.236429
0.912825 -0.408161 -0.012431
0.372136 -0.013495 0.928080
0.872750 -0.488167 0.000225
0.352580 -0.010369 -0.935724
0.912825 -0.408161 -0.012431
0.872750 -0.488167 0.000225
-0.964423 -0.199000 -0.174033
-0.326990 0.006735 0.945004
-0.963105 0.194044 -0.186483
-0.963105 0.194044 -0.186483
-0.326990 0.006735 0.945004
-0.882851 0.427265 -0.194985
</float_array>
          <technique_common>
            <accessor source="#SM_Sand_Dollar_04_LOD1-Normal0-array" count="198" stride="3">
              <param name="X" type="float"/>
              <param name="Y" type="float"/>
              <param name="Z" type="float"/>
            </accessor>
          </technique_common>
        </source>
        <source id="SM_Sand_Dollar_04_LOD1-UV0">
          <float_array id="SM_Sand_Dollar_04_LOD1-UV0-array" count="114">
0.231750 0.175934
0.272217 0.301270
0.366943 0.170410
0.366943 0.170410
0.372559 0.289063
0.372559 0.289063
0.278564 0.144531
0.278564 0.144531
0.393311 0.229492
0.217896 0.235840
0.341309 0.308594
0.341309 0.308594
0.272217 0.301270
0.239868 0.281250
0.311523 0.143066
0.311523 0.143066
0.309082 0.226563
0.309082 0.226563
0.301514 0.311035
0.301514 0.311035
0.241193 0.171227
0.237140 0.174461
0.384033 0.267578
0.384033 0.267578
0.258057 0.154785
0.258057 0.154785
0.389735 0.230623
0.219604 0.212891
0.219604 0.212891
0.348145 0.158203
0.348145 0.158203
0.238200 0.273800
0.230225 0.187012
0.231750 0.175934
0.230225 0.187012
0.311198 0.146335
0.290237 0.303964
0.336988 0.305988
0.389731 0.230651
0.221611 0.231377
0.217896 0.235840
0.232111 0.184759
0.371638 0.283714
0.229980 0.269531
0.239868 0.281250
0.229980 0.269531
0.327393 0.311035
0.327393 0.311035
0.245361 0.166016
0.245361 0.166016
0.393311 0.229492
0.388916 0.212402
0.388916 0.212402
0.391602 0.242188
0.391602 0.242188
0.378174 0.190430
0.378174 0.190430
</float_array>
          <technique_common>
            <accessor source="#SM_Sand_Dollar_04_LOD1-UV0-array" count="57" stride="2">
              <param name="S" type="float"/>
              <param name="T" type="float"/>
            </accessor>
          </technique_common>
        </source>
        <vertices id="SM_Sand_Dollar_04_LOD1-VERTEX">
          <input semantic="POSITION" source="#SM_Sand_Dollar_04_LOD1-POSITION"/>
        </vertices>
        <triangles count="66" material="MAT_Sea_Shells">
          <input semantic="VERTEX" offset="0" source="#SM_Sand_Dollar_04_LOD1-VERTEX"/>
          <input semantic="NORMAL" offset="1" source="#SM_Sand_Dollar_04_LOD1-Normal0"/>
          <input semantic="TEXCOORD" offset="2" set="0" source="#SM_Sand_Dollar_04_LOD1-UV0"/>
          <p> 11 0 17 6 1 6 27 2 35 1 3 1 10 4 16 21 5 45 11 6 17 0 7 3 24 8 26 3 9 5 10 10 16 8 11 10 11 12 17 34 13 39 28 14 41 17 15 28 10 16 16 18 17 34 11 18 17 24 19 26 29 20 42 30 21 38 10 22 16 3 23 5 11 24 17 20 25 20 6 26 6 26 27 21 10 28 16 16 29 25 21 30 45 10 31 16 4 32 9 11 33 17 31 34 31 34 35 39 11 36 17 23 37 36 31 38 31 8 39 10 10 40 16 14 41 19 0 42 3 11 43 17 27 44 35 0 45 2 10 46 16 30 47 38 9 48 15 10 49 16 0 50 2 6 51 7 10 52 16 9 53 15 11 54 17 32 55 37 23 56 36 11 57 17 29 58 42 32 59 37 0 60 2 30 61 38 33 62 56 24 63 26 0 64 3 33 65 55 18 66 34 10 67 16 26 68 21 11 69 17 28 70 41 20 71 20 7 72 13 23 73 36 1 74 12 14 75 19 10 76 16 1 77 1 15 78 23 29 79 42 24 80 26 3 81 5 15 82 23 30 83 38 16 84 25 10 85 16 6 86 7 6 87 6 20 88 20 16 89 24 4 90 9 10 91 16 17 92 28 28 93 41 34 94 39 17 95 27 18 96 34 26 97 21 2 98 0 20 99 20 28 100 41 2 101 33 15 102 23 24 103 26 19 104 53 30 105 38 15 106 23 19 107 54 13 108 48 20 109 20 2 110 33 16 111 24 20 112 20 13 113 48 34 114 39 31 115 31 21 116 43 1 117 1 21 118 45 7 119 13 8 120 11 32 121 37 3 122 5 8 123 10 14 124 19 22 125 47 14 126 18 23 127 36 22 128 46 1 129 12 23 130 36 14 131 18 5 132 50 24 133 26 12 134 51 19 135 53 24 136 26 5 137 50 0 138 3 27 139 35 25 140 29 9 141 15 0 142 2 25 143 30 26 144 21 13 145 49 2 146 0 26 147 21 16 148 25 13 149 49 9 150 14 27 151 35 6 152 6 25 153 30 27 154 35 9 155 14 2 156 33 28 157 41 18 158 32 18 159 32 28 160 41 17 161 27 3 162 4 29 163 42 15 164 22 32 165 37 29 166 42 3 167 5 30 168 38 5 169 8 12 170 52 30 171 38 19 172 54 5 173 8 31 174 31 23 175 36 7 176 13 21 177 43 31 178 31 7 179 44 23 180 36 32 181 37 22 182 46 22 183 46 32 184 37 8 185 11 12 186 51 24 187 26 33 188 55 30 189 38 12 190 52 33 191 56 17 192 27 34 193 39 4 194 40 4 195 9 34 196 39 21 197 43</p>
        </triangles>
      </mesh>
    </geometry>
  </library_geometries>
  <library_visual_scenes>
    <visual_scene id="SM_Sand_Dollar_04" name="SM_Sand_Dollar_04">
      <node name="SM_Sand_Dollar_04_LOD0" id="SM_Sand_Dollar_04_LOD0" layer="shells" sid="SM_Sand_Dollar_04_LOD0">
        <matrix sid="matrix">1.000000 0.000000 0.000000 0.000000 0.000000 0.000000 1.000000 0.000000 0.000000 -1.000000 0.000000 0.000000 0.000000 0.000000 0.000000 1.000000</matrix>
        <instance_geometry url="#SM_Sand_Dollar_04_LOD0-lib">
          <bind_material>
            <technique_common>
              <instance_material symbol="MAT_Sea_Shells" target="#MAT_Sea_Shells"/>
            </technique_common>
          </bind_material>
        </instance_geometry>
        <extra>
          <technique profile="FCOLLADA">
            <visibility>1.000000</visibility>
          </technique>
        </extra>
      </node>
      <node name="SM_Sand_Dollar_04_LOD1" id="SM_Sand_Dollar_04_LOD1" layer="shells" sid="SM_Sand_Dollar_04_LOD1">
        <matrix sid="matrix">1.000000 0.000000 0.000000 0.000000 0.000000 0.000000 1.000000 0.000000 0.000000 -1.000000 0.000000 0.000000 0.000000 0.000000 0.000000 1.000000</matrix>
        <instance_geometry url="#SM_Sand_Dollar_04_LOD1-lib">
          <bind_material>
            <technique_common>
              <instance_material symbol="MAT_Sea_Shells" target="#MAT_Sea_Shells"/>
            </technique_common>
          </bind_material>
        </instance_geometry>
        <extra>
          <technique profile="FCOLLADA">
            <visibility>1.000000</visibility>
          </technique>
        </extra>
      </node>
      <extra>
        <technique profile="MAX3D">
          <frame_rate>30.000000</frame_rate>
        </technique>
        <technique profile="FCOLLADA">
          <start_time>0.000000</start_time>
          <end_time>3.333333</end_time>
        </technique>
      </extra>
    </visual_scene>
  </library_visual_scenes>
  <scene>
    <instance_visual_scene url="#SM_Sand_Dollar_04"/>
  </scene>
</COLLADA>
