<?xml version="1.0" encoding="utf-8"?>
<COLLADA xmlns="http://www.collada.org/2005/11/COLLADASchema" version="1.4.1">
  <asset>
    <contributor>
      <author/>
      <authoring_tool>FBX COLLADA exporter</authoring_tool>
      <comments/>
    </contributor>
    <created>2024-02-10T11:42:40Z</created>
    <keywords/>
    <modified>2024-02-10T11:42:40Z</modified>
    <revision/>
    <subject/>
    <title/>
    <unit meter="0.010000" name="centimeter"/>
    <up_axis>Y_UP</up_axis>
  </asset>
  <library_materials>
    <material id="MAT_Sea_Shells" name="MAT_Sea_Shells">
      <instance_effect url="#MAT_Sea_Shells-fx"/>
    </material>
  </library_materials>
  <library_effects>
    <effect id="MAT_Sea_Shells-fx" name="MAT_Sea_Shells">
      <profile_COMMON>
        <technique sid="standard">
          <phong>
            <emission>
              <color sid="emission">0.000000  0.000000 0.000000 1.000000</color>
            </emission>
            <ambient>
              <color sid="ambient">0.588235  0.588235 0.588235 1.000000</color>
            </ambient>
            <diffuse>
              <color sid="diffuse">0.588235  0.588235 0.588235 1.000000</color>
            </diffuse>
            <specular>
              <color sid="specular">0.000000  0.000000 0.000000 1.000000</color>
            </specular>
            <shininess>
              <float sid="shininess">2.000000</float>
            </shininess>
            <reflective>
              <color sid="reflective">0.000000  0.000000 0.000000 1.000000</color>
            </reflective>
            <reflectivity>
              <float sid="reflectivity">1.000000</float>
            </reflectivity>
            <transparent opaque="RGB_ZERO">
              <color sid="transparent">1.000000  1.000000 1.000000 1.000000</color>
            </transparent>
            <transparency>
              <float sid="transparency">0.000000</float>
            </transparency>
          </phong>
        </technique>
      </profile_COMMON>
    </effect>
  </library_effects>
  <library_geometries>
    <geometry id="SM_Starfish_03_LOD0-lib" name="SM_Starfish_03_LOD0Mesh">
      <mesh>
        <source id="SM_Starfish_03_LOD0-POSITION">
          <float_array id="SM_Starfish_03_LOD0-POSITION-array" count="711">
-14.749718 3.258026 1.515446
-14.111107 4.182159 1.203656
-12.722755 4.445450 1.515452
-12.564987 4.390381 1.159613
-6.292297 3.271057 1.515464
-9.124130 3.625351 1.074271
-6.214211 3.230530 0.999677
-2.632454 6.487289 0.992768
-1.332146 12.173630 1.114046
1.197639 12.346619 1.515454
2.410500 3.786194 0.925800
2.440796 3.833694 1.515472
4.762962 3.581711 1.515472
9.583000 4.512787 1.515472
12.288933 5.065796 1.197989
12.443260 5.129440 1.515471
14.275429 4.965958 1.515472
14.566757 3.899826 1.331707
13.914757 2.870728 1.515472
11.764244 1.496002 1.515472
11.618263 1.477417 1.082376
6.855011 -0.964462 0.925800
4.970413 -1.953049 1.515472
4.908730 -1.928848 0.925800
5.631584 -4.284500 0.925801
7.440529 -7.309402 0.925801
5.702286 -4.338409 1.515473
7.533974 -7.401260 1.515473
9.066711 -9.095871 1.515473
10.654808 -10.093277 1.515473
11.647797 -11.535049 1.217088
10.681610 -12.780930 1.217088
8.983673 -12.317764 1.515473
7.245865 -11.725983 1.515473
7.155968 -11.580612 1.045233
1.839264 -7.753250 0.925801
-2.972656 -8.033157 0.981535
-5.655914 -10.400482 1.101048
-8.541695 -12.792068 1.129686
-10.636559 -13.459900 1.204480
-11.598907 -12.601532 1.204479
-10.976830 -10.824677 1.515473
-8.790604 -8.089813 1.515464
-5.065361 -1.761963 0.925800
-7.798012 -1.045959 0.999677
-10.576309 -0.055130 1.074271
-13.325233 1.742813 1.159613
-14.566765 3.217697 1.203656
-11.355370 3.365387 0.894023
-10.111198 3.532974 0.779309
-11.722038 2.589310 0.894023
-10.722969 1.402481 0.779309
-8.510887 -0.044403 0.557043
-5.000664 2.599625 0.362770
-7.342308 2.917343 0.557043
-3.350487 3.347504 0.925800
-2.461235 3.951019 0.298026
-3.060806 4.614273 0.952819
-0.973785 11.226532 0.819078
-0.337242 12.303268 0.948989
-0.426392 13.442963 1.139066
0.654610 13.459778 1.139066
1.182808 12.193497 1.114046
0.532661 12.316849 0.948989
1.050003 11.242493 0.819078
-2.147842 5.813309 0.467695
1.488205 4.170135 0.298025
1.847176 4.886581 0.952819
1.230415 5.982391 0.467695
1.565636 6.697388 0.992768
4.703819 3.537247 0.925800
7.615913 3.586426 0.499899
9.464165 4.456833 1.082376
11.274712 4.282440 0.793478
12.952469 4.561935 1.028187
14.098396 4.904388 1.331707
13.742126 2.835098 1.263154
13.329315 3.753540 1.028187
9.349365 1.188858 0.499900
11.841393 2.592758 0.748029
5.516319 -0.776123 0.280806
3.785225 2.846451 0.280805
1.939774 3.046799 0.170366
-0.550179 -0.522079 -0.000000
-2.696182 2.693741 0.170366
-4.076149 -1.417908 0.170366
-6.275162 -0.841675 0.362771
-5.250778 -3.771683 0.365580
-6.525063 -4.686966 1.002872
-8.681496 -7.989487 0.948615
-8.723633 -8.602692 0.581721
-10.840706 -10.690338 1.040098
-9.876068 -10.925186 0.822381
-9.101646 -11.615921 0.822381
-6.873627 -10.293961 0.581721
-4.551376 -8.369446 0.475448
-6.986145 -6.429260 0.475447
-2.392143 -6.464417 0.346084
-0.368530 -4.556335 0.170367
3.950096 -1.552185 0.170366
5.853241 -6.754196 0.492720
8.954277 -8.982956 1.045233
9.310898 -10.013397 0.876013
10.522614 -9.968155 1.119683
10.164452 -10.837418 0.954453
9.603226 -11.411621 0.954453
7.660942 -8.740570 0.656588
4.004265 -9.824249 0.925801
6.170334 -9.842377 0.593948
8.152100 -10.851471 0.793946
8.872185 -12.164917 1.119683
3.886818 -8.233017 0.443721
4.297058 -3.823944 0.318299
-0.457939 -5.662048 0.925801
1.792145 -6.030930 0.277768
-14.566765 3.217697 1.931050
-13.492653 1.764664 1.515452
-14.288353 4.234695 1.515446
-14.111107 4.182159 1.931050
-9.238716 3.670792 1.515458
-12.564987 4.390381 2.007922
-3.392570 3.389603 1.515472
-3.060806 4.614273 2.368834
-3.099243 4.672318 1.515468
-2.632454 6.487289 2.299112
-2.665497 6.568726 1.515464
-1.348869 12.326477 1.515454
-0.431686 13.611862 1.515452
0.654610 13.459778 2.043776
0.662895 13.628891 1.515452
1.182808 12.193497 2.087442
1.585312 6.781479 1.515464
1.870392 4.947968 1.515468
1.847176 4.886581 2.368834
9.464165 4.456833 2.142720
12.288933 5.065796 1.940942
14.749710 3.948837 1.515472
14.566757 3.899826 1.707568
13.742126 2.835098 1.827209
6.941063 -0.976547 1.515472
8.954277 -8.982956 2.207551
7.440529 -7.309402 2.415989
11.794113 -11.679840 1.515472
11.647797 -11.535049 1.907615
10.815819 -12.941437 1.515472
10.681610 -12.780930 1.907615
4.054520 -9.947586 1.515473
1.862343 -7.850632 1.515473
1.839264 -7.753250 2.415989
-0.463654 -5.733078 1.515473
-3.010048 -8.134064 1.515472
-2.972656 -8.033157 2.318721
-5.726929 -10.531128 1.515460
-8.649025 -12.952774 1.515472
-10.770142 -13.628891 1.515472
-11.744598 -12.759888 1.515472
-6.607002 -4.745804 1.515469
-6.525063 -4.686966 2.281482
-7.798012 -1.045959 2.287053
-5.129005 -1.783981 1.515472
-7.895966 -1.059143 1.515465
-10.709190 -0.055923 1.515459
-13.325233 1.742828 2.007922
-11.355370 3.365387 2.471450
-11.722038 2.589310 2.471450
-10.111198 3.532974 2.671657
-10.722969 1.402481 2.671657
-10.576309 -0.055130 2.156867
-6.275162 -0.841675 3.398634
-4.076149 -1.417908 3.734437
-5.065361 -1.761963 2.415988
-5.250778 -3.771683 3.393733
-8.681496 -7.989487 2.376175
-10.840706 -10.690338 2.216511
-11.598907 -12.601532 1.929623
-9.876068 -10.925186 2.596489
-10.636559 -13.459900 1.929623
-8.723633 -8.602692 3.016506
-6.873627 -10.293961 3.016507
-5.655914 -10.400482 2.110137
-8.541695 -12.792068 2.060156
-9.101646 -11.615921 2.596489
-4.551376 -8.369446 3.201983
-6.986145 -6.429260 3.201983
-2.392143 -6.464417 3.427762
-0.368530 -4.556335 3.734437
-8.510887 -0.044403 3.059575
-9.124130 3.625351 2.156867
-6.214211 3.230530 2.287053
-7.342308 2.917343 3.059575
-5.000664 2.599625 3.398633
-2.461235 3.951019 3.511632
-3.350487 3.347504 2.415988
-2.147842 5.813309 3.215509
-1.332146 12.173630 2.087442
-0.426392 13.442963 2.043776
0.532661 12.316849 2.375515
1.050003 11.242493 2.602248
-0.337242 12.303268 2.375515
-0.973785 11.226532 2.602248
1.230415 5.982391 3.215509
1.488205 4.170135 3.511632
-2.696182 2.693741 3.734436
1.939774 3.046799 3.734436
-0.550179 -0.522079 4.031771
4.297058 -3.823944 3.476249
5.631584 -4.284500 2.415988
10.522614 -9.968155 2.077614
10.164452 -10.837418 2.365989
9.603226 -11.411621 2.365989
9.310898 -10.013397 2.502887
8.152100 -10.851471 2.646113
7.660942 -8.740570 2.885844
6.170334 -9.842377 2.995171
5.853241 -6.754196 3.171839
3.886818 -8.233017 3.257356
4.004265 -9.824249 2.415989
7.155968 -11.580612 2.207552
8.872185 -12.164917 2.077615
1.792145 -6.030930 3.546987
-0.457939 -5.662048 2.415989
1.565636 6.697388 2.299112
3.950096 -1.552185 3.734437
4.908730 -1.928848 2.415988
6.855011 -0.964462 2.415988
11.618263 1.477417 2.142720
13.329315 3.753540 2.237296
14.098396 4.904388 1.707568
12.952469 4.561935 2.237296
11.274712 4.282440 2.646929
11.841393 2.592758 2.726251
9.349365 1.188858 3.159303
5.516319 -0.776123 3.541689
7.615913 3.586426 3.159303
4.703819 3.537247 2.415988
2.410500 3.786194 2.415987
3.785225 2.846451 3.541689
</float_array>
          <technique_common>
            <accessor source="#SM_Starfish_03_LOD0-POSITION-array" count="237" stride="3">
              <param name="X" type="float"/>
              <param name="Y" type="float"/>
              <param name="Z" type="float"/>
            </accessor>
          </technique_common>
        </source>
        <source id="SM_Starfish_03_LOD0-Normal0">
          <float_array id="SM_Starfish_03_LOD0-Normal0-array" count="4230">
-0.299780 -0.953914 -0.013439
-0.290089 -0.832352 -0.472270
-0.908529 -0.417329 -0.020278
-0.378978 -0.694195 -0.611939
-0.290089 -0.832352 -0.472270
-0.299780 -0.953914 -0.013439
-0.461474 -0.886883 -0.021907
-0.378978 -0.694195 -0.611939
-0.299780 -0.953914 -0.013439
-0.468399 -0.522149 -0.712715
-0.378978 -0.694195 -0.611939
-0.461474 -0.886883 -0.021907
-0.686938 -0.725795 -0.036568
-0.468399 -0.522149 -0.712715
-0.461474 -0.886883 -0.021907
-0.640120 -0.125518 -0.757953
-0.468399 -0.522149 -0.712715
-0.686938 -0.725795 -0.036568
-0.995115 -0.084846 -0.050468
-0.640120 -0.125518 -0.757953
-0.686938 -0.725795 -0.036568
-0.646763 0.761157 -0.048357
-0.640120 -0.125518 -0.757953
-0.995115 -0.084846 -0.050468
-0.351823 0.587429 -0.728799
-0.640120 -0.125518 -0.757953
-0.646763 0.761157 -0.048357
-0.001101 0.999744 -0.022613
-0.351823 0.587429 -0.728799
-0.646763 0.761157 -0.048357
0.029842 0.768355 -0.639328
-0.351823 0.587429 -0.728799
-0.001101 0.999744 -0.022613
0.181227 0.983407 -0.008162
0.029842 0.768355 -0.639328
-0.001101 0.999744 -0.022613
0.150067 0.914142 -0.376595
0.029842 0.768355 -0.639328
0.181227 0.983407 -0.008162
0.053401 0.998508 -0.011439
0.150067 0.914142 -0.376595
0.181227 0.983407 -0.008162
0.037401 0.912520 -0.407319
0.150067 0.914142 -0.376595
0.053401 0.998508 -0.011439
-0.636857 0.770778 -0.017723
0.037401 0.912520 -0.407319
0.053401 0.998508 -0.011439
-0.519567 0.641007 -0.564942
0.037401 0.912520 -0.407319
-0.636857 0.770778 -0.017723
-0.864609 0.210879 -0.456050
-0.519567 0.641007 -0.564942
-0.636857 0.770778 -0.017723
-0.974536 0.223719 -0.015151
-0.864609 0.210879 -0.456050
-0.636857 0.770778 -0.017723
-0.851812 0.214111 -0.478093
-0.864609 0.210879 -0.456050
-0.974536 0.223719 -0.015151
-0.974462 0.223988 -0.015904
-0.851812 0.214111 -0.478093
-0.974536 0.223719 -0.015151
-0.703460 0.326682 -0.631208
-0.851812 0.214111 -0.478093
-0.974462 0.223988 -0.015904
-0.896954 0.441086 -0.030279
-0.703460 0.326682 -0.631208
-0.974462 0.223988 -0.015904
-0.353870 0.610990 -0.708143
-0.703460 0.326682 -0.631208
-0.896954 0.441086 -0.030279
-0.429054 0.901957 -0.048840
-0.353870 0.610990 -0.708143
-0.896954 0.441086 -0.030279
0.439715 0.581605 -0.684387
-0.353870 0.610990 -0.708143
-0.429054 0.901957 -0.048840
0.500305 0.864551 -0.047388
0.439715 0.581605 -0.684387
-0.429054 0.901957 -0.048840
0.965090 0.261076 -0.020992
0.439715 0.581605 -0.684387
0.500305 0.864551 -0.047388
0.788311 0.223038 -0.573429
0.439715 0.581605 -0.684387
0.965090 0.261076 -0.020992
0.994023 0.108794 -0.009015
0.788311 0.223038 -0.573429
0.965090 0.261076 -0.020992
0.929609 0.104562 -0.353403
0.788311 0.223038 -0.573429
0.994023 0.108794 -0.009015
0.953303 0.301768 -0.012196
0.929609 0.104562 -0.353403
0.994023 0.108794 -0.009015
0.875450 0.280358 -0.393684
0.929609 0.104562 -0.353403
0.953303 0.301768 -0.012196
0.567109 0.823472 -0.016760
0.875450 0.280358 -0.393684
0.953303 0.301768 -0.012196
0.493454 0.696323 -0.521188
0.875450 0.280358 -0.393684
0.567109 0.823472 -0.016760
-0.049655 0.905829 -0.420723
0.493454 0.696323 -0.521188
0.567109 0.823472 -0.016760
-0.048538 0.998749 -0.011994
-0.049655 0.905829 -0.420723
0.567109 0.823472 -0.016760
-0.143876 0.877190 -0.458080
-0.049655 0.905829 -0.420723
-0.048538 0.998749 -0.011994
-0.200234 0.979688 -0.010862
-0.143876 0.877190 -0.458080
-0.048538 0.998749 -0.011994
-0.036320 0.815647 -0.577408
-0.143876 0.877190 -0.458080
-0.200234 0.979688 -0.010862
-0.011576 0.999643 -0.024080
-0.036320 0.815647 -0.577408
-0.200234 0.979688 -0.010862
0.303113 0.570601 -0.763241
-0.036320 0.815647 -0.577408
-0.011576 0.999643 -0.024080
0.656676 0.754114 -0.009436
0.303113 0.570601 -0.763241
-0.011576 0.999643 -0.024080
0.571987 -0.117530 -0.811799
0.303113 0.570601 -0.763241
0.656676 0.754114 -0.009436
0.998896 -0.046054 -0.009237
0.571987 -0.117530 -0.811799
0.656676 0.754114 -0.009436
0.720936 -0.692300 -0.031192
0.571987 -0.117530 -0.811799
0.998896 -0.046054 -0.009237
0.504036 -0.530785 -0.681333
0.571987 -0.117530 -0.811799
0.720936 -0.692300 -0.031192
0.510022 -0.859918 -0.020438
0.504036 -0.530785 -0.681333
0.720936 -0.692300 -0.031192
0.435878 -0.689753 -0.578145
0.504036 -0.530785 -0.681333
0.510022 -0.859918 -0.020438
0.451636 -0.892086 -0.014403
0.435878 -0.689753 -0.578145
0.510022 -0.859918 -0.020438
0.410314 -0.774538 -0.481387
0.435878 -0.689753 -0.578145
0.451636 -0.892086 -0.014403
0.917799 -0.396542 -0.019988
0.410314 -0.774538 -0.481387
0.451636 -0.892086 -0.014403
0.699625 -0.349304 -0.623307
0.410314 -0.774538 -0.481387
0.917799 -0.396542 -0.019988
0.761529 0.321946 -0.562516
0.699625 -0.349304 -0.623307
0.917799 -0.396542 -0.019988
0.910262 0.413855 -0.012129
0.761529 0.321946 -0.562516
0.917799 -0.396542 -0.019988
0.661033 0.463216 -0.590311
0.761529 0.321946 -0.562516
0.910262 0.413855 -0.012129
0.797281 0.603586 -0.005151
0.661033 0.463216 -0.590311
0.910262 0.413855 -0.012129
0.572918 0.588615 -0.570349
0.661033 0.463216 -0.590311
0.797281 0.603586 -0.005151
0.623013 0.782177 0.007321
0.572918 0.588615 -0.570349
0.797281 0.603586 -0.005151
0.557485 0.597809 -0.576051
0.572918 0.588615 -0.570349
0.623013 0.782177 0.007321
0.719203 0.694777 -0.005613
0.557485 0.597809 -0.576051
0.623013 0.782177 0.007321
0.717156 0.102955 -0.689266
0.557485 0.597809 -0.576051
0.719203 0.694777 -0.005613
0.990284 -0.130286 -0.048617
0.717156 0.102955 -0.689266
0.719203 0.694777 -0.005613
0.130498 -0.640833 -0.756507
0.717156 0.102955 -0.689266
0.990284 -0.130286 -0.048617
0.344123 -0.937538 -0.051013
0.130498 -0.640833 -0.756507
0.990284 -0.130286 -0.048617
-0.314011 -0.948650 -0.038209
0.130498 -0.640833 -0.756507
0.344123 -0.937538 -0.051013
-0.183654 -0.666413 -0.722609
0.130498 -0.640833 -0.756507
-0.314011 -0.948650 -0.038209
-0.388828 -0.920733 -0.032627
-0.183654 -0.666413 -0.722609
-0.314011 -0.948650 -0.038209
-0.284385 -0.695491 -0.659862
-0.183654 -0.666413 -0.722609
-0.388828 -0.920733 -0.032627
-0.581547 -0.813249 -0.020712
-0.284385 -0.695491 -0.659862
-0.388828 -0.920733 -0.032627
-0.468472 -0.649853 -0.598520
-0.284385 -0.695491 -0.659862
-0.581547 -0.813249 -0.020712
-0.682850 -0.730381 -0.016096
-0.468472 -0.649853 -0.598520
-0.581547 -0.813249 -0.020712
-0.556119 -0.607482 -0.567183
-0.468472 -0.649853 -0.598520
-0.682850 -0.730381 -0.016096
0.012208 -0.999695 -0.021453
-0.556119 -0.607482 -0.567183
-0.682850 -0.730381 -0.016096
0.055222 -0.762285 -0.644881
-0.556119 -0.607482 -0.567183
0.012208 -0.999695 -0.021453
0.571953 -0.656056 -0.492402
0.055222 -0.762285 -0.644881
0.012208 -0.999695 -0.021453
0.671391 -0.740942 -0.015440
0.571953 -0.656056 -0.492402
0.012208 -0.999695 -0.021453
0.540362 -0.653797 -0.529677
0.571953 -0.656056 -0.492402
0.671391 -0.740942 -0.015440
0.647279 -0.762005 -0.019425
0.540362 -0.653797 -0.529677
0.671391 -0.740942 -0.015440
0.359675 -0.661561 -0.658005
0.540362 -0.653797 -0.529677
0.647279 -0.762005 -0.019425
0.436933 -0.898778 -0.035886
0.359675 -0.661561 -0.658005
0.647279 -0.762005 -0.019425
-0.086178 -0.644052 -0.760112
0.359675 -0.661561 -0.658005
0.436933 -0.898778 -0.035886
-0.265493 -0.962611 -0.053785
-0.086178 -0.644052 -0.760112
0.436933 -0.898778 -0.035886
-0.948565 -0.312237 -0.052274
-0.086178 -0.644052 -0.760112
-0.265493 -0.962611 -0.053785
-0.683211 -0.077947 -0.726049
-0.086178 -0.644052 -0.760112
-0.948565 -0.312237 -0.052274
-0.882478 0.469925 -0.020048
-0.683211 -0.077947 -0.726049
-0.948565 -0.312237 -0.052274
-0.684596 0.358364 -0.634747
-0.683211 -0.077947 -0.726049
-0.882478 0.469925 -0.020048
-0.806676 0.590935 -0.008348
-0.684596 0.358364 -0.634747
-0.882478 0.469925 -0.020048
-0.742807 0.537972 -0.398527
-0.684596 0.358364 -0.634747
-0.806676 0.590935 -0.008348
-0.864429 0.502583 -0.013156
-0.742807 0.537972 -0.398527
-0.806676 0.590935 -0.008348
-0.783504 0.450510 -0.427974
-0.742807 0.537972 -0.398527
-0.864429 0.502583 -0.013156
-0.908529 -0.417329 -0.020278
-0.783504 0.450510 -0.427974
-0.864429 0.502583 -0.013156
-0.685913 -0.347935 -0.639112
-0.783504 0.450510 -0.427974
-0.908529 -0.417329 -0.020278
-0.290089 -0.832352 -0.472270
-0.685913 -0.347935 -0.639112
-0.908529 -0.417329 -0.020278
-0.162943 -0.356288 -0.920059
-0.685913 -0.347935 -0.639112
-0.290089 -0.832352 -0.472270
-0.162669 -0.246548 -0.955381
-0.162943 -0.356288 -0.920059
-0.290089 -0.832352 -0.472270
-0.378978 -0.694195 -0.611939
-0.162669 -0.246548 -0.955381
-0.290089 -0.832352 -0.472270
-0.137211 -0.083710 -0.986998
-0.162669 -0.246548 -0.955381
-0.378978 -0.694195 -0.611939
-0.468399 -0.522149 -0.712715
-0.137211 -0.083710 -0.986998
-0.378978 -0.694195 -0.611939
-0.112559 0.006396 -0.993624
-0.137211 -0.083710 -0.986998
-0.468399 -0.522149 -0.712715
-0.640120 -0.125518 -0.757953
-0.112559 0.006396 -0.993624
-0.468399 -0.522149 -0.712715
-0.351823 0.587429 -0.728799
-0.112559 0.006396 -0.993624
-0.640120 -0.125518 -0.757953
-0.098865 0.085879 -0.991388
-0.112559 0.006396 -0.993624
-0.351823 0.587429 -0.728799
0.029842 0.768355 -0.639328
-0.098865 0.085879 -0.991388
-0.351823 0.587429 -0.728799
0.023402 0.396978 -0.917530
-0.098865 0.085879 -0.991388
0.029842 0.768355 -0.639328
0.023402 0.396978 -0.917530
-0.112559 0.006396 -0.993624
-0.098865 0.085879 -0.991388
0.023402 0.396978 -0.917530
-0.137211 -0.083710 -0.986998
-0.112559 0.006396 -0.993624
0.023402 0.396978 -0.917530
-0.002963 0.398788 -0.917038
-0.137211 -0.083710 -0.986998
-0.002963 0.398788 -0.917038
-0.162669 -0.246548 -0.955381
-0.137211 -0.083710 -0.986998
-0.002963 0.398788 -0.917038
-0.162943 -0.356288 -0.920059
-0.162669 -0.246548 -0.955381
-0.002963 0.398788 -0.917038
-0.065236 0.367234 -0.927838
-0.162943 -0.356288 -0.920059
-0.065236 0.367234 -0.927838
-0.002963 0.398788 -0.917038
0.037401 0.912520 -0.407319
-0.002963 0.398788 -0.917038
0.150067 0.914142 -0.376595
0.037401 0.912520 -0.407319
0.023402 0.396978 -0.917530
0.150067 0.914142 -0.376595
-0.002963 0.398788 -0.917038
0.023402 0.396978 -0.917530
0.029842 0.768355 -0.639328
0.150067 0.914142 -0.376595
-0.519567 0.641007 -0.564942
-0.065236 0.367234 -0.927838
0.037401 0.912520 -0.407319
-0.152515 0.185496 -0.970737
-0.065236 0.367234 -0.927838
-0.519567 0.641007 -0.564942
-0.342749 0.146014 -0.928010
-0.152515 0.185496 -0.970737
-0.519567 0.641007 -0.564942
-0.864609 0.210879 -0.456050
-0.342749 0.146014 -0.928010
-0.519567 0.641007 -0.564942
-0.332254 0.132117 -0.933891
-0.342749 0.146014 -0.928010
-0.864609 0.210879 -0.456050
-0.851812 0.214111 -0.478093
-0.332254 0.132117 -0.933891
-0.864609 0.210879 -0.456050
-0.210456 0.123195 -0.969810
-0.332254 0.132117 -0.933891
-0.851812 0.214111 -0.478093
-0.703460 0.326682 -0.631208
-0.210456 0.123195 -0.969810
-0.851812 0.214111 -0.478093
-0.075438 0.155298 -0.984983
-0.210456 0.123195 -0.969810
-0.703460 0.326682 -0.631208
-0.353870 0.610990 -0.708143
-0.075438 0.155298 -0.984983
-0.703460 0.326682 -0.631208
0.112705 0.156093 -0.981291
-0.075438 0.155298 -0.984983
-0.353870 0.610990 -0.708143
0.439715 0.581605 -0.684387
0.112705 0.156093 -0.981291
-0.353870 0.610990 -0.708143
0.788311 0.223038 -0.573429
0.112705 0.156093 -0.981291
0.439715 0.581605 -0.684387
0.443833 0.105850 -0.889836
0.112705 0.156093 -0.981291
0.788311 0.223038 -0.573429
0.443833 0.105850 -0.889836
-0.075438 0.155298 -0.984983
0.112705 0.156093 -0.981291
0.443833 0.105850 -0.889836
-0.210456 0.123195 -0.969810
-0.075438 0.155298 -0.984983
0.443833 0.105850 -0.889836
0.409122 0.111573 -0.905633
-0.210456 0.123195 -0.969810
0.409122 0.111573 -0.905633
-0.332254 0.132117 -0.933891
-0.210456 0.123195 -0.969810
0.409122 0.111573 -0.905633
0.333905 0.205276 -0.919983
-0.332254 0.132117 -0.933891
0.333905 0.205276 -0.919983
-0.342749 0.146014 -0.928010
-0.332254 0.132117 -0.933891
0.333905 0.205276 -0.919983
-0.152515 0.185496 -0.970737
-0.342749 0.146014 -0.928010
0.333905 0.205276 -0.919983
0.145423 0.227181 -0.962934
-0.152515 0.185496 -0.970737
0.493454 0.696323 -0.521188
0.145423 0.227181 -0.962934
0.333905 0.205276 -0.919983
0.875450 0.280358 -0.393684
0.493454 0.696323 -0.521188
0.333905 0.205276 -0.919983
0.409122 0.111573 -0.905633
0.875450 0.280358 -0.393684
0.333905 0.205276 -0.919983
0.409122 0.111573 -0.905633
0.929609 0.104562 -0.353403
0.875450 0.280358 -0.393684
0.443833 0.105850 -0.889836
0.929609 0.104562 -0.353403
0.409122 0.111573 -0.905633
0.443833 0.105850 -0.889836
0.788311 0.223038 -0.573429
0.929609 0.104562 -0.353403
0.053772 0.342133 -0.938112
0.145423 0.227181 -0.962934
0.493454 0.696323 -0.521188
-0.049655 0.905829 -0.420723
0.053772 0.342133 -0.938112
0.493454 0.696323 -0.521188
-0.028358 0.399321 -0.916372
0.053772 0.342133 -0.938112
-0.049655 0.905829 -0.420723
-0.143876 0.877190 -0.458080
-0.028358 0.399321 -0.916372
-0.049655 0.905829 -0.420723
0.021421 0.304555 -0.952254
-0.028358 0.399321 -0.916372
-0.143876 0.877190 -0.458080
-0.036320 0.815647 -0.577408
0.021421 0.304555 -0.952254
-0.143876 0.877190 -0.458080
0.135926 0.249026 -0.958911
0.021421 0.304555 -0.952254
-0.036320 0.815647 -0.577408
0.303113 0.570601 -0.763241
0.135926 0.249026 -0.958911
-0.036320 0.815647 -0.577408
0.215181 -0.002274 -0.976571
0.135926 0.249026 -0.958911
0.303113 0.570601 -0.763241
0.215181 -0.002274 -0.976571
0.021421 0.304555 -0.952254
0.135926 0.249026 -0.958911
0.571987 -0.117530 -0.811799
0.215181 -0.002274 -0.976571
0.303113 0.570601 -0.763241
0.504036 -0.530785 -0.681333
0.215181 -0.002274 -0.976571
0.571987 -0.117530 -0.811799
0.196395 -0.127438 -0.972208
0.215181 -0.002274 -0.976571
0.504036 -0.530785 -0.681333
0.196395 -0.127438 -0.972208
0.021421 0.304555 -0.952254
0.215181 -0.002274 -0.976571
0.196395 -0.127438 -0.972208
0.176378 -0.224255 -0.958436
0.021421 0.304555 -0.952254
0.176378 -0.224255 -0.958436
-0.028358 0.399321 -0.916372
0.021421 0.304555 -0.952254
0.176378 -0.224255 -0.958436
0.192017 -0.289792 -0.937630
-0.028358 0.399321 -0.916372
0.192017 -0.289792 -0.937630
0.053772 0.342133 -0.938112
-0.028358 0.399321 -0.916372
0.192017 -0.289792 -0.937630
0.200697 -0.090608 -0.975454
0.053772 0.342133 -0.938112
0.200697 -0.090608 -0.975454
0.145423 0.227181 -0.962934
0.053772 0.342133 -0.938112
0.200697 -0.090608 -0.975454
-0.005313 -0.001469 -0.999985
0.145423 0.227181 -0.962934
-0.005313 -0.001469 -0.999985
-0.152515 0.185496 -0.970737
0.145423 0.227181 -0.962934
-0.005313 -0.001469 -0.999985
-0.170801 -0.060345 -0.983456
-0.152515 0.185496 -0.970737
-0.170801 -0.060345 -0.983456
-0.065236 0.367234 -0.927838
-0.152515 0.185496 -0.970737
-0.170801 -0.060345 -0.983456
-0.162943 -0.356288 -0.920059
-0.065236 0.367234 -0.927838
-0.170801 -0.060345 -0.983456
-0.685913 -0.347935 -0.639112
-0.162943 -0.356288 -0.920059
-0.170801 -0.060345 -0.983456
-0.330010 0.125248 -0.935631
-0.685913 -0.347935 -0.639112
-0.330010 0.125248 -0.935631
-0.783504 0.450510 -0.427974
-0.685913 -0.347935 -0.639112
-0.330010 0.125248 -0.935631
-0.308717 0.181580 -0.933661
-0.783504 0.450510 -0.427974
-0.308717 0.181580 -0.933661
-0.742807 0.537972 -0.398527
-0.783504 0.450510 -0.427974
-0.308717 0.181580 -0.933661
-0.340163 0.207153 -0.917266
-0.742807 0.537972 -0.398527
-0.340163 0.207153 -0.917266
-0.684596 0.358364 -0.634747
-0.742807 0.537972 -0.398527
-0.340163 0.207153 -0.917266
-0.144170 -0.049212 -0.988328
-0.684596 0.358364 -0.634747
-0.144170 -0.049212 -0.988328
-0.683211 -0.077947 -0.726049
-0.684596 0.358364 -0.634747
-0.144170 -0.049212 -0.988328
-0.086178 -0.644052 -0.760112
-0.683211 -0.077947 -0.726049
-0.144170 -0.049212 -0.988328
-0.029511 -0.157196 -0.987126
-0.086178 -0.644052 -0.760112
-0.340163 0.207153 -0.917266
-0.029511 -0.157196 -0.987126
-0.144170 -0.049212 -0.988328
0.134337 -0.234514 -0.962786
-0.029511 -0.157196 -0.987126
-0.340163 0.207153 -0.917266
-0.308717 0.181580 -0.933661
0.134337 -0.234514 -0.962786
-0.340163 0.207153 -0.917266
0.173195 -0.253579 -0.951683
0.134337 -0.234514 -0.962786
-0.308717 0.181580 -0.933661
0.134337 -0.234514 -0.962786
0.173195 -0.253579 -0.951683
0.540362 -0.653797 -0.529677
0.359675 -0.661561 -0.658005
0.134337 -0.234514 -0.962786
0.540362 -0.653797 -0.529677
0.359675 -0.661561 -0.658005
-0.029511 -0.157196 -0.987126
0.134337 -0.234514 -0.962786
-0.029511 -0.157196 -0.987126
0.359675 -0.661561 -0.658005
-0.086178 -0.644052 -0.760112
0.173195 -0.253579 -0.951683
0.571953 -0.656056 -0.492402
0.540362 -0.653797 -0.529677
0.173195 -0.253579 -0.951683
0.203643 -0.276003 -0.939336
0.571953 -0.656056 -0.492402
-0.308717 0.181580 -0.933661
0.203643 -0.276003 -0.939336
0.173195 -0.253579 -0.951683
-0.330010 0.125248 -0.935631
0.203643 -0.276003 -0.939336
-0.308717 0.181580 -0.933661
-0.000063 -0.200826 -0.979627
0.203643 -0.276003 -0.939336
-0.330010 0.125248 -0.935631
-0.170801 -0.060345 -0.983456
-0.000063 -0.200826 -0.979627
-0.330010 0.125248 -0.935631
-0.005313 -0.001469 -0.999985
-0.000063 -0.200826 -0.979627
-0.170801 -0.060345 -0.983456
0.200697 -0.090608 -0.975454
-0.000063 -0.200826 -0.979627
-0.005313 -0.001469 -0.999985
0.252595 0.038333 -0.966812
-0.000063 -0.200826 -0.979627
0.200697 -0.090608 -0.975454
0.699625 -0.349304 -0.623307
0.252595 0.038333 -0.966812
0.200697 -0.090608 -0.975454
0.192017 -0.289792 -0.937630
0.699625 -0.349304 -0.623307
0.200697 -0.090608 -0.975454
0.192017 -0.289792 -0.937630
0.410314 -0.774538 -0.481387
0.699625 -0.349304 -0.623307
0.176378 -0.224255 -0.958436
0.410314 -0.774538 -0.481387
0.192017 -0.289792 -0.937630
0.176378 -0.224255 -0.958436
0.435878 -0.689753 -0.578145
0.410314 -0.774538 -0.481387
0.196395 -0.127438 -0.972208
0.435878 -0.689753 -0.578145
0.176378 -0.224255 -0.958436
0.196395 -0.127438 -0.972208
0.504036 -0.530785 -0.681333
0.435878 -0.689753 -0.578145
0.761529 0.321946 -0.562516
0.252595 0.038333 -0.966812
0.699625 -0.349304 -0.623307
0.188939 0.076526 -0.979002
0.252595 0.038333 -0.966812
0.761529 0.321946 -0.562516
0.661033 0.463216 -0.590311
0.188939 0.076526 -0.979002
0.761529 0.321946 -0.562516
0.194492 0.090248 -0.976744
0.188939 0.076526 -0.979002
0.661033 0.463216 -0.590311
0.572918 0.588615 -0.570349
0.194492 0.090248 -0.976744
0.661033 0.463216 -0.590311
0.154776 0.085641 -0.984231
0.194492 0.090248 -0.976744
0.572918 0.588615 -0.570349
0.557485 0.597809 -0.576051
0.154776 0.085641 -0.984231
0.572918 0.588615 -0.570349
0.140286 0.002194 -0.990109
0.154776 0.085641 -0.984231
0.557485 0.597809 -0.576051
0.717156 0.102955 -0.689266
0.140286 0.002194 -0.990109
0.557485 0.597809 -0.576051
0.130498 -0.640833 -0.756507
0.140286 0.002194 -0.990109
0.717156 0.102955 -0.689266
0.051871 -0.130763 -0.990056
0.140286 0.002194 -0.990109
0.130498 -0.640833 -0.756507
0.051871 -0.130763 -0.990056
0.154776 0.085641 -0.984231
0.140286 0.002194 -0.990109
0.051871 -0.130763 -0.990056
0.028427 -0.155756 -0.987386
0.154776 0.085641 -0.984231
0.028427 -0.155756 -0.987386
0.194492 0.090248 -0.976744
0.154776 0.085641 -0.984231
0.028427 -0.155756 -0.987386
-0.036965 -0.180997 -0.982789
0.194492 0.090248 -0.976744
-0.036965 -0.180997 -0.982789
0.188939 0.076526 -0.979002
0.194492 0.090248 -0.976744
-0.036965 -0.180997 -0.982789
-0.112314 -0.180110 -0.977213
0.188939 0.076526 -0.979002
-0.112314 -0.180110 -0.977213
-0.036965 -0.180997 -0.982789
-0.468472 -0.649853 -0.598520
-0.036965 -0.180997 -0.982789
-0.284385 -0.695491 -0.659862
-0.468472 -0.649853 -0.598520
0.028427 -0.155756 -0.987386
-0.284385 -0.695491 -0.659862
-0.036965 -0.180997 -0.982789
0.028427 -0.155756 -0.987386
-0.183654 -0.666413 -0.722609
-0.284385 -0.695491 -0.659862
0.051871 -0.130763 -0.990056
-0.183654 -0.666413 -0.722609
0.028427 -0.155756 -0.987386
0.051871 -0.130763 -0.990056
0.130498 -0.640833 -0.756507
-0.183654 -0.666413 -0.722609
-0.556119 -0.607482 -0.567183
-0.112314 -0.180110 -0.977213
-0.468472 -0.649853 -0.598520
-0.126390 -0.196295 -0.972365
-0.112314 -0.180110 -0.977213
-0.556119 -0.607482 -0.567183
-0.126390 -0.196295 -0.972365
0.188939 0.076526 -0.979002
-0.112314 -0.180110 -0.977213
-0.126390 -0.196295 -0.972365
0.252595 0.038333 -0.966812
0.188939 0.076526 -0.979002
-0.126390 -0.196295 -0.972365
-0.000063 -0.200826 -0.979627
0.252595 0.038333 -0.966812
-0.126390 -0.196295 -0.972365
0.055222 -0.762285 -0.644881
-0.000063 -0.200826 -0.979627
0.055222 -0.762285 -0.644881
-0.126390 -0.196295 -0.972365
-0.556119 -0.607482 -0.567183
0.055222 -0.762285 -0.644881
0.203643 -0.276003 -0.939336
-0.000063 -0.200826 -0.979627
0.203643 -0.276003 -0.939336
0.055222 -0.762285 -0.644881
0.571953 -0.656056 -0.492402
-0.686938 -0.725795 -0.036568
-0.706388 -0.118332 0.697863
-0.995115 -0.084846 -0.050468
-0.706388 -0.118332 0.697863
-0.646763 0.761157 -0.048357
-0.995115 -0.084846 -0.050468
-0.706388 -0.118332 0.697863
-0.405100 0.619076 0.672784
-0.646763 0.761157 -0.048357
-0.405100 0.619076 0.672784
-0.001101 0.999744 -0.022613
-0.646763 0.761157 -0.048357
-0.405100 0.619076 0.672784
0.003571 0.819252 0.573422
-0.001101 0.999744 -0.022613
0.003571 0.819252 0.573422
0.181227 0.983407 -0.008162
-0.001101 0.999744 -0.022613
0.003571 0.819252 0.573422
0.157310 0.955496 0.249561
0.181227 0.983407 -0.008162
0.157310 0.955496 0.249561
0.053401 0.998508 -0.011439
0.181227 0.983407 -0.008162
0.157310 0.955496 0.249561
0.038498 0.960868 0.274319
0.053401 0.998508 -0.011439
0.038498 0.960868 0.274319
-0.636857 0.770778 -0.017723
0.053401 0.998508 -0.011439
0.038498 0.960868 0.274319
-0.583508 0.710918 0.392574
-0.636857 0.770778 -0.017723
-0.583508 0.710918 0.392574
-0.921139 0.225992 0.316909
-0.636857 0.770778 -0.017723
-0.921139 0.225992 0.316909
-0.974536 0.223719 -0.015151
-0.636857 0.770778 -0.017723
-0.921139 0.225992 0.316909
-0.911650 0.231816 0.339345
-0.974536 0.223719 -0.015151
-0.911650 0.231816 0.339345
-0.974462 0.223988 -0.015904
-0.974536 0.223719 -0.015151
-0.911650 0.231816 0.339345
-0.753885 0.376143 0.538678
-0.974462 0.223988 -0.015904
-0.753885 0.376143 0.538678
-0.896954 0.441086 -0.030279
-0.974462 0.223988 -0.015904
-0.753885 0.376143 0.538678
-0.370134 0.678335 0.634715
-0.896954 0.441086 -0.030279
-0.370134 0.678335 0.634715
-0.429054 0.901957 -0.048840
-0.896954 0.441086 -0.030279
-0.370134 0.678335 0.634715
0.452236 0.646498 0.614428
-0.429054 0.901957 -0.048840
0.452236 0.646498 0.614428
0.500305 0.864551 -0.047388
-0.429054 0.901957 -0.048840
0.452236 0.646498 0.614428
0.965090 0.261076 -0.020992
0.500305 0.864551 -0.047388
0.452236 0.646498 0.614428
0.844600 0.264666 0.465406
0.965090 0.261076 -0.020992
0.844600 0.264666 0.465406
0.994023 0.108794 -0.009015
0.965090 0.261076 -0.020992
0.844600 0.264666 0.465406
0.967185 0.110552 0.228759
0.994023 0.108794 -0.009015
0.967185 0.110552 0.228759
0.953303 0.301768 -0.012196
0.994023 0.108794 -0.009015
0.967185 0.110552 0.228759
0.918340 0.298395 0.260022
0.953303 0.301768 -0.012196
0.918340 0.298395 0.260022
0.567109 0.823472 -0.016760
0.953303 0.301768 -0.012196
0.918340 0.298395 0.260022
0.537177 0.764426 0.356502
0.567109 0.823472 -0.016760
0.537177 0.764426 0.356502
-0.049156 0.957006 0.285874
0.567109 0.823472 -0.016760
-0.049156 0.957006 0.285874
-0.048538 0.998749 -0.011994
0.567109 0.823472 -0.016760
-0.049156 0.957006 0.285874
-0.149833 0.934751 0.322164
-0.048538 0.998749 -0.011994
-0.149833 0.934751 0.322164
-0.200234 0.979688 -0.010862
-0.048538 0.998749 -0.011994
-0.149833 0.934751 0.322164
-0.017757 0.885704 0.463912
-0.200234 0.979688 -0.010862
-0.017757 0.885704 0.463912
-0.011576 0.999643 -0.024080
-0.200234 0.979688 -0.010862
-0.017757 0.885704 0.463912
0.352096 0.610858 0.709141
-0.011576 0.999643 -0.024080
0.352096 0.610858 0.709141
0.656676 0.754114 -0.009436
-0.011576 0.999643 -0.024080
0.352096 0.610858 0.709141
0.631837 -0.114980 0.766526
0.656676 0.754114 -0.009436
0.631837 -0.114980 0.766526
0.998896 -0.046054 -0.009237
0.656676 0.754114 -0.009436
0.631837 -0.114980 0.766526
0.720936 -0.692300 -0.031192
0.998896 -0.046054 -0.009237
0.631837 -0.114980 0.766526
0.577669 -0.566376 0.587807
0.720936 -0.692300 -0.031192
0.577669 -0.566376 0.587807
0.510022 -0.859918 -0.020438
0.720936 -0.692300 -0.031192
0.577669 -0.566376 0.587807
0.486796 -0.744635 0.456672
0.510022 -0.859918 -0.020438
0.486796 -0.744635 0.456672
0.451636 -0.892086 -0.014403
0.510022 -0.859918 -0.020438
0.486796 -0.744635 0.456672
0.441137 -0.828718 0.344419
0.451636 -0.892086 -0.014403
0.441137 -0.828718 0.344419
0.917799 -0.396542 -0.019988
0.451636 -0.892086 -0.014403
0.441137 -0.828718 0.344419
0.800129 -0.391517 0.454432
0.917799 -0.396542 -0.019988
0.800129 -0.391517 0.454432
0.829627 0.350783 0.434362
0.917799 -0.396542 -0.019988
0.829627 0.350783 0.434362
0.910262 0.413855 -0.012129
0.917799 -0.396542 -0.019988
0.829627 0.350783 0.434362
0.717780 0.501048 0.483470
0.910262 0.413855 -0.012129
0.717780 0.501048 0.483470
0.797281 0.603586 -0.005151
0.910262 0.413855 -0.012129
0.717780 0.501048 0.483470
0.621948 0.628789 0.466696
0.797281 0.603586 -0.005151
0.621948 0.628789 0.466696
0.623013 0.782177 0.007321
0.797281 0.603586 -0.005151
0.621948 0.628789 0.466696
0.603052 0.603982 0.521090
0.623013 0.782177 0.007321
0.603052 0.603982 0.521090
0.719203 0.694777 -0.005613
0.623013 0.782177 0.007321
0.603052 0.603982 0.521090
0.773048 0.063787 0.631132
0.719203 0.694777 -0.005613
0.773048 0.063787 0.631132
0.990284 -0.130286 -0.048617
0.719203 0.694777 -0.005613
0.773048 0.063787 0.631132
0.173242 -0.705895 0.686803
0.990284 -0.130286 -0.048617
0.173242 -0.705895 0.686803
0.344123 -0.937538 -0.051013
0.990284 -0.130286 -0.048617
0.173242 -0.705895 0.686803
-0.314011 -0.948650 -0.038209
0.344123 -0.937538 -0.051013
0.173242 -0.705895 0.686803
-0.185868 -0.747677 0.637520
-0.314011 -0.948650 -0.038209
-0.185868 -0.747677 0.637520
-0.388828 -0.920733 -0.032627
-0.314011 -0.948650 -0.038209
-0.185868 -0.747677 0.637520
-0.295959 -0.770946 0.563960
-0.388828 -0.920733 -0.032627
-0.295959 -0.770946 0.563960
-0.581547 -0.813249 -0.020712
-0.388828 -0.920733 -0.032627
-0.295959 -0.770946 0.563960
-0.498835 -0.709900 0.497198
-0.581547 -0.813249 -0.020712
-0.498835 -0.709900 0.497198
-0.682850 -0.730381 -0.016096
-0.581547 -0.813249 -0.020712
-0.498835 -0.709900 0.497198
-0.604361 -0.661706 0.443726
-0.682850 -0.730381 -0.016096
-0.604361 -0.661706 0.443726
0.012208 -0.999695 -0.021453
-0.682850 -0.730381 -0.016096
-0.604361 -0.661706 0.443726
0.051911 -0.878421 0.475059
0.012208 -0.999695 -0.021453
0.051911 -0.878421 0.475059
0.612018 -0.706701 0.354975
0.012208 -0.999695 -0.021453
0.612018 -0.706701 0.354975
0.671391 -0.740942 -0.015440
0.012208 -0.999695 -0.021453
0.612018 -0.706701 0.354975
0.583510 -0.711090 0.392258
0.671391 -0.740942 -0.015440
0.583510 -0.711090 0.392258
0.647279 -0.762005 -0.019425
0.671391 -0.740942 -0.015440
0.583510 -0.711090 0.392258
0.367020 -0.732209 0.573730
0.647279 -0.762005 -0.019425
0.367020 -0.732209 0.573730
0.436933 -0.898778 -0.035886
0.647279 -0.762005 -0.019425
0.367020 -0.732209 0.573730
-0.122634 -0.715662 0.687597
0.436933 -0.898778 -0.035886
-0.122634 -0.715662 0.687597
-0.265493 -0.962611 -0.053785
0.436933 -0.898778 -0.035886
-0.122634 -0.715662 0.687597
-0.948565 -0.312237 -0.052274
-0.265493 -0.962611 -0.053785
-0.122634 -0.715662 0.687597
-0.743014 -0.126344 0.657243
-0.948565 -0.312237 -0.052274
-0.743014 -0.126344 0.657243
-0.882478 0.469925 -0.020048
-0.948565 -0.312237 -0.052274
-0.743014 -0.126344 0.657243
-0.746661 0.348438 0.566647
-0.882478 0.469925 -0.020048
-0.746661 0.348438 0.566647
-0.806676 0.590935 -0.008348
-0.882478 0.469925 -0.020048
-0.746661 0.348438 0.566647
-0.779344 0.566375 0.268033
-0.806676 0.590935 -0.008348
-0.779344 0.566375 0.268033
-0.864429 0.502583 -0.013156
-0.806676 0.590935 -0.008348
-0.779344 0.566375 0.268033
-0.829267 0.477053 0.291097
-0.864429 0.502583 -0.013156
-0.829267 0.477053 0.291097
-0.908529 -0.417329 -0.020278
-0.864429 0.502583 -0.013156
-0.829267 0.477053 0.291097
-0.800593 -0.390185 0.454760
-0.908529 -0.417329 -0.020278
-0.800593 -0.390185 0.454760
-0.313147 -0.888313 0.335914
-0.908529 -0.417329 -0.020278
-0.313147 -0.888313 0.335914
-0.299780 -0.953914 -0.013439
-0.908529 -0.417329 -0.020278
-0.313147 -0.888313 0.335914
-0.429243 -0.743537 0.512741
-0.299780 -0.953914 -0.013439
-0.429243 -0.743537 0.512741
-0.461474 -0.886883 -0.021907
-0.299780 -0.953914 -0.013439
-0.429243 -0.743537 0.512741
-0.523414 -0.551014 0.649939
-0.461474 -0.886883 -0.021907
-0.523414 -0.551014 0.649939
-0.686938 -0.725795 -0.036568
-0.461474 -0.886883 -0.021907
-0.523414 -0.551014 0.649939
-0.706388 -0.118332 0.697863
-0.686938 -0.725795 -0.036568
-0.523414 -0.551014 0.649939
-0.193858 0.011432 0.980963
-0.706388 -0.118332 0.697863
-0.193858 0.011432 0.980963
-0.405100 0.619076 0.672784
-0.706388 -0.118332 0.697863
-0.193858 0.011432 0.980963
-0.169669 0.146719 0.974518
-0.405100 0.619076 0.672784
-0.169669 0.146719 0.974518
0.003571 0.819252 0.573422
-0.405100 0.619076 0.672784
0.001556 0.521492 0.853255
0.003571 0.819252 0.573422
-0.169669 0.146719 0.974518
-0.193858 0.011432 0.980963
0.001556 0.521492 0.853255
-0.169669 0.146719 0.974518
-0.231618 -0.136075 0.963243
0.001556 0.521492 0.853255
-0.193858 0.011432 0.980963
-0.523414 -0.551014 0.649939
-0.231618 -0.136075 0.963243
-0.193858 0.011432 0.980963
-0.429243 -0.743537 0.512741
-0.231618 -0.136075 0.963243
-0.523414 -0.551014 0.649939
-0.254194 -0.347634 0.902516
-0.231618 -0.136075 0.963243
-0.429243 -0.743537 0.512741
-0.313147 -0.888313 0.335914
-0.254194 -0.347634 0.902516
-0.429243 -0.743537 0.512741
-0.240566 -0.455483 0.857125
-0.254194 -0.347634 0.902516
-0.313147 -0.888313 0.335914
-0.800593 -0.390185 0.454760
-0.240566 -0.455483 0.857125
-0.313147 -0.888313 0.335914
-0.257679 -0.088560 0.962164
-0.240566 -0.455483 0.857125
-0.800593 -0.390185 0.454760
-0.460458 0.161693 0.872831
-0.257679 -0.088560 0.962164
-0.800593 -0.390185 0.454760
-0.829267 0.477053 0.291097
-0.460458 0.161693 0.872831
-0.800593 -0.390185 0.454760
-0.422295 0.235535 0.875323
-0.460458 0.161693 0.872831
-0.829267 0.477053 0.291097
-0.779344 0.566375 0.268033
-0.422295 0.235535 0.875323
-0.829267 0.477053 0.291097
-0.450160 0.247031 0.858098
-0.422295 0.235535 0.875323
-0.779344 0.566375 0.268033
-0.746661 0.348438 0.566647
-0.450160 0.247031 0.858098
-0.779344 0.566375 0.268033
-0.243961 -0.085044 0.966049
-0.450160 0.247031 0.858098
-0.746661 0.348438 0.566647
-0.743014 -0.126344 0.657243
-0.243961 -0.085044 0.966049
-0.746661 0.348438 0.566647
-0.122634 -0.715662 0.687597
-0.243961 -0.085044 0.966049
-0.743014 -0.126344 0.657243
-0.122634 -0.715662 0.687597
-0.052159 -0.264991 0.962839
-0.243961 -0.085044 0.966049
-0.052159 -0.264991 0.962839
-0.450160 0.247031 0.858098
-0.243961 -0.085044 0.966049
-0.052159 -0.264991 0.962839
0.185692 -0.352791 0.917091
-0.450160 0.247031 0.858098
0.185692 -0.352791 0.917091
-0.422295 0.235535 0.875323
-0.450160 0.247031 0.858098
0.185692 -0.352791 0.917091
0.240374 -0.368186 0.898142
-0.422295 0.235535 0.875323
0.240374 -0.368186 0.898142
0.185692 -0.352791 0.917091
0.583510 -0.711090 0.392258
0.185692 -0.352791 0.917091
0.367020 -0.732209 0.573730
0.583510 -0.711090 0.392258
-0.052159 -0.264991 0.962839
0.367020 -0.732209 0.573730
0.185692 -0.352791 0.917091
-0.052159 -0.264991 0.962839
-0.122634 -0.715662 0.687597
0.367020 -0.732209 0.573730
0.612018 -0.706701 0.354975
0.240374 -0.368186 0.898142
0.583510 -0.711090 0.392258
0.268616 -0.389800 0.880853
0.240374 -0.368186 0.898142
0.612018 -0.706701 0.354975
0.268616 -0.389800 0.880853
-0.422295 0.235535 0.875323
0.240374 -0.368186 0.898142
0.268616 -0.389800 0.880853
-0.460458 0.161693 0.872831
-0.422295 0.235535 0.875323
0.268616 -0.389800 0.880853
-0.000999 -0.299604 0.954063
-0.460458 0.161693 0.872831
-0.000999 -0.299604 0.954063
-0.257679 -0.088560 0.962164
-0.460458 0.161693 0.872831
-0.000999 -0.299604 0.954063
-0.009228 -0.002549 0.999954
-0.257679 -0.088560 0.962164
-0.009228 -0.002549 0.999954
-0.217372 0.269585 0.938122
-0.257679 -0.088560 0.962164
-0.217372 0.269585 0.938122
-0.108525 0.496860 0.861018
-0.257679 -0.088560 0.962164
-0.108525 0.496860 0.861018
-0.240566 -0.455483 0.857125
-0.257679 -0.088560 0.962164
-0.108525 0.496860 0.861018
-0.028129 0.526094 0.849961
-0.240566 -0.455483 0.857125
-0.028129 0.526094 0.849961
-0.254194 -0.347634 0.902516
-0.240566 -0.455483 0.857125
-0.028129 0.526094 0.849961
-0.231618 -0.136075 0.963243
-0.254194 -0.347634 0.902516
-0.028129 0.526094 0.849961
0.001556 0.521492 0.853255
-0.231618 -0.136075 0.963243
-0.028129 0.526094 0.849961
0.157310 0.955496 0.249561
0.001556 0.521492 0.853255
0.157310 0.955496 0.249561
0.003571 0.819252 0.573422
0.001556 0.521492 0.853255
0.038498 0.960868 0.274319
0.157310 0.955496 0.249561
-0.028129 0.526094 0.849961
-0.108525 0.496860 0.861018
0.038498 0.960868 0.274319
-0.028129 0.526094 0.849961
-0.108525 0.496860 0.861018
-0.583508 0.710918 0.392574
0.038498 0.960868 0.274319
-0.217372 0.269585 0.938122
-0.583508 0.710918 0.392574
-0.108525 0.496860 0.861018
-0.217372 0.269585 0.938122
-0.460557 0.222476 0.859297
-0.583508 0.710918 0.392574
-0.460557 0.222476 0.859297
-0.921139 0.225992 0.316909
-0.583508 0.710918 0.392574
-0.460557 0.222476 0.859297
-0.454711 0.200929 0.867678
-0.921139 0.225992 0.316909
-0.454711 0.200929 0.867678
-0.911650 0.231816 0.339345
-0.921139 0.225992 0.316909
-0.454711 0.200929 0.867678
-0.320400 0.202579 0.925368
-0.911650 0.231816 0.339345
-0.320400 0.202579 0.925368
-0.753885 0.376143 0.538678
-0.911650 0.231816 0.339345
-0.320400 0.202579 0.925368
-0.125184 0.263390 0.956533
-0.753885 0.376143 0.538678
-0.125184 0.263390 0.956533
-0.370134 0.678335 0.634715
-0.753885 0.376143 0.538678
-0.125184 0.263390 0.956533
0.182131 0.263616 0.947278
-0.370134 0.678335 0.634715
0.182131 0.263616 0.947278
0.452236 0.646498 0.614428
-0.370134 0.678335 0.634715
0.182131 0.263616 0.947278
0.844600 0.264666 0.465406
0.452236 0.646498 0.614428
0.538657 0.169315 0.825337
0.844600 0.264666 0.465406
0.182131 0.263616 0.947278
-0.125184 0.263390 0.956533
0.538657 0.169315 0.825337
0.182131 0.263616 0.947278
-0.320400 0.202579 0.925368
0.538657 0.169315 0.825337
-0.125184 0.263390 0.956533
0.516463 0.166585 0.839950
0.538657 0.169315 0.825337
-0.320400 0.202579 0.925368
-0.454711 0.200929 0.867678
0.516463 0.166585 0.839950
-0.320400 0.202579 0.925368
0.432563 0.293349 0.852547
0.516463 0.166585 0.839950
-0.454711 0.200929 0.867678
-0.460557 0.222476 0.859297
0.432563 0.293349 0.852547
-0.454711 0.200929 0.867678
-0.217372 0.269585 0.938122
0.432563 0.293349 0.852547
-0.460557 0.222476 0.859297
0.201573 0.322542 0.924843
0.432563 0.293349 0.852547
-0.217372 0.269585 0.938122
-0.009228 -0.002549 0.999954
0.201573 0.322542 0.924843
-0.217372 0.269585 0.938122
0.294475 -0.131067 0.946629
0.201573 0.322542 0.924843
-0.009228 -0.002549 0.999954
-0.000999 -0.299604 0.954063
0.294475 -0.131067 0.946629
-0.009228 -0.002549 0.999954
0.386020 0.047825 0.921250
0.294475 -0.131067 0.946629
-0.000999 -0.299604 0.954063
0.386020 0.047825 0.921250
0.800129 -0.391517 0.454432
0.294475 -0.131067 0.946629
0.386020 0.047825 0.921250
0.829627 0.350783 0.434362
0.800129 -0.391517 0.454432
0.386020 0.047825 0.921250
0.303730 0.116573 0.945600
0.829627 0.350783 0.434362
0.303730 0.116573 0.945600
0.717780 0.501048 0.483470
0.829627 0.350783 0.434362
0.303730 0.116573 0.945600
0.312145 0.136498 0.940178
0.717780 0.501048 0.483470
0.312145 0.136498 0.940178
0.621948 0.628789 0.466696
0.717780 0.501048 0.483470
0.312145 0.136498 0.940178
0.260118 0.137542 0.955731
0.621948 0.628789 0.466696
0.260118 0.137542 0.955731
0.603052 0.603982 0.521090
0.621948 0.628789 0.466696
0.260118 0.137542 0.955731
0.237292 0.001202 0.971438
0.603052 0.603982 0.521090
0.237292 0.001202 0.971438
0.773048 0.063787 0.631132
0.603052 0.603982 0.521090
0.237292 0.001202 0.971438
0.173242 -0.705895 0.686803
0.773048 0.063787 0.631132
0.237292 0.001202 0.971438
0.089828 -0.222251 0.970842
0.173242 -0.705895 0.686803
0.260118 0.137542 0.955731
0.089828 -0.222251 0.970842
0.237292 0.001202 0.971438
0.051948 -0.259703 0.964290
0.089828 -0.222251 0.970842
0.260118 0.137542 0.955731
0.312145 0.136498 0.940178
0.051948 -0.259703 0.964290
0.260118 0.137542 0.955731
-0.052731 -0.292408 0.954839
0.051948 -0.259703 0.964290
0.312145 0.136498 0.940178
0.303730 0.116573 0.945600
-0.052731 -0.292408 0.954839
0.312145 0.136498 0.940178
-0.168242 -0.286397 0.943224
-0.052731 -0.292408 0.954839
0.303730 0.116573 0.945600
-0.168242 -0.286397 0.943224
-0.498835 -0.709900 0.497198
-0.052731 -0.292408 0.954839
-0.498835 -0.709900 0.497198
-0.295959 -0.770946 0.563960
-0.052731 -0.292408 0.954839
-0.295959 -0.770946 0.563960
0.051948 -0.259703 0.964290
-0.052731 -0.292408 0.954839
-0.185868 -0.747677 0.637520
0.051948 -0.259703 0.964290
-0.295959 -0.770946 0.563960
-0.185868 -0.747677 0.637520
0.089828 -0.222251 0.970842
0.051948 -0.259703 0.964290
-0.185868 -0.747677 0.637520
0.173242 -0.705895 0.686803
0.089828 -0.222251 0.970842
-0.168242 -0.286397 0.943224
-0.604361 -0.661706 0.443726
-0.498835 -0.709900 0.497198
-0.182722 -0.303458 0.935161
-0.604361 -0.661706 0.443726
-0.168242 -0.286397 0.943224
0.303730 0.116573 0.945600
-0.182722 -0.303458 0.935161
-0.168242 -0.286397 0.943224
0.386020 0.047825 0.921250
-0.182722 -0.303458 0.935161
0.303730 0.116573 0.945600
-0.000999 -0.299604 0.954063
-0.182722 -0.303458 0.935161
0.386020 0.047825 0.921250
0.051911 -0.878421 0.475059
-0.182722 -0.303458 0.935161
-0.000999 -0.299604 0.954063
0.051911 -0.878421 0.475059
-0.604361 -0.661706 0.443726
-0.182722 -0.303458 0.935161
0.268616 -0.389800 0.880853
0.051911 -0.878421 0.475059
-0.000999 -0.299604 0.954063
0.268616 -0.389800 0.880853
0.612018 -0.706701 0.354975
0.051911 -0.878421 0.475059
0.516463 0.166585 0.839950
0.967185 0.110552 0.228759
0.538657 0.169315 0.825337
0.967185 0.110552 0.228759
0.844600 0.264666 0.465406
0.538657 0.169315 0.825337
0.918340 0.298395 0.260022
0.967185 0.110552 0.228759
0.516463 0.166585 0.839950
0.432563 0.293349 0.852547
0.918340 0.298395 0.260022
0.516463 0.166585 0.839950
0.432563 0.293349 0.852547
0.537177 0.764426 0.356502
0.918340 0.298395 0.260022
0.201573 0.322542 0.924843
0.537177 0.764426 0.356502
0.432563 0.293349 0.852547
0.086241 0.470988 0.877914
0.537177 0.764426 0.356502
0.201573 0.322542 0.924843
0.294475 -0.131067 0.946629
0.086241 0.470988 0.877914
0.201573 0.322542 0.924843
0.278433 -0.386990 0.879042
0.086241 0.470988 0.877914
0.294475 -0.131067 0.946629
0.800129 -0.391517 0.454432
0.278433 -0.386990 0.879042
0.294475 -0.131067 0.946629
0.441137 -0.828718 0.344419
0.278433 -0.386990 0.879042
0.800129 -0.391517 0.454432
0.267458 -0.313583 0.911116
0.278433 -0.386990 0.879042
0.441137 -0.828718 0.344419
0.486796 -0.744635 0.456672
0.267458 -0.313583 0.911116
0.441137 -0.828718 0.344419
0.314347 -0.187381 0.930631
0.267458 -0.313583 0.911116
0.486796 -0.744635 0.456672
0.577669 -0.566376 0.587807
0.314347 -0.187381 0.930631
0.486796 -0.744635 0.456672
0.357343 -0.001355 0.933972
0.314347 -0.187381 0.930631
0.577669 -0.566376 0.587807
0.631837 -0.114980 0.766526
0.357343 -0.001355 0.933972
0.577669 -0.566376 0.587807
0.352096 0.610858 0.709141
0.357343 -0.001355 0.933972
0.631837 -0.114980 0.766526
0.223285 0.382735 0.896469
0.357343 -0.001355 0.933972
0.352096 0.610858 0.709141
-0.017757 0.885704 0.463912
0.223285 0.382735 0.896469
0.352096 0.610858 0.709141
0.052695 0.447891 0.892534
0.223285 0.382735 0.896469
-0.017757 0.885704 0.463912
0.052695 0.447891 0.892534
0.357343 -0.001355 0.933972
0.223285 0.382735 0.896469
0.052695 0.447891 0.892534
0.314347 -0.187381 0.930631
0.357343 -0.001355 0.933972
0.052695 0.447891 0.892534
0.267458 -0.313583 0.911116
0.314347 -0.187381 0.930631
0.052695 0.447891 0.892534
-0.018640 0.526077 0.850232
0.267458 -0.313583 0.911116
-0.018640 0.526077 0.850232
0.278433 -0.386990 0.879042
0.267458 -0.313583 0.911116
-0.018640 0.526077 0.850232
0.086241 0.470988 0.877914
0.278433 -0.386990 0.879042
-0.018640 0.526077 0.850232
-0.049156 0.957006 0.285874
0.086241 0.470988 0.877914
0.086241 0.470988 0.877914
-0.049156 0.957006 0.285874
0.537177 0.764426 0.356502
-0.149833 0.934751 0.322164
-0.049156 0.957006 0.285874
-0.018640 0.526077 0.850232
0.052695 0.447891 0.892534
-0.149833 0.934751 0.322164
-0.018640 0.526077 0.850232
0.052695 0.447891 0.892534
-0.017757 0.885704 0.463912
-0.149833 0.934751 0.322164
</float_array>
          <technique_common>
            <accessor source="#SM_Starfish_03_LOD0-Normal0-array" count="1410" stride="3">
              <param name="X" type="float"/>
              <param name="Y" type="float"/>
              <param name="Z" type="float"/>
            </accessor>
          </technique_common>
        </source>
        <source id="SM_Starfish_03_LOD0-UV0">
          <float_array id="SM_Starfish_03_LOD0-UV0-array" count="568">
0.650879 0.314453
0.639160 0.327637
0.634277 0.323730
0.623047 0.342773
0.618652 0.340820
0.610840 0.359863
0.607422 0.359375
0.606445 0.374023
0.604492 0.375000
0.610352 0.381836
0.611816 0.379883
0.623047 0.381836
0.623535 0.378906
0.644531 0.375000
0.644531 0.370605
0.664551 0.367676
0.664551 0.361816
0.682129 0.359375
0.686035 0.353027
0.691406 0.364746
0.687012 0.370117
0.699219 0.377441
0.695313 0.381836
0.723633 0.416016
0.722168 0.419922
0.732910 0.420410
0.733398 0.423828
0.740234 0.417969
0.742188 0.420898
0.747559 0.412109
0.743652 0.410156
0.742676 0.368652
0.736816 0.367188
0.741699 0.355469
0.735352 0.353516
0.743164 0.341797
0.736816 0.338379
0.752930 0.331055
0.757324 0.337402
0.790039 0.328125
0.792480 0.332520
0.807617 0.325195
0.810547 0.327637
0.820313 0.318848
0.822754 0.319336
0.821777 0.310547
0.823730 0.310547
0.816406 0.302734
0.813477 0.304199
0.803223 0.291992
0.799805 0.295898
0.762207 0.281250
0.758789 0.288086
0.747559 0.278320
0.741699 0.282715
0.734863 0.269043
0.742676 0.268066
0.739258 0.242676
0.746582 0.243652
0.741211 0.229004
0.747070 0.230469
0.746582 0.218750
0.750977 0.218750
0.750488 0.202148
0.753418 0.199707
0.740234 0.198242
0.741211 0.194824
0.727539 0.201172
0.728516 0.205566
0.718262 0.207031
0.720215 0.212402
0.701172 0.224121
0.705566 0.229980
0.690918 0.244629
0.696289 0.250000
0.685547 0.260742
0.687988 0.268066
0.663086 0.259766
0.664551 0.252930
0.638184 0.248047
0.638184 0.242676
0.608887 0.242188
0.607910 0.237793
0.592285 0.242676
0.589844 0.240234
0.583984 0.249512
0.587402 0.250488
0.590332 0.265625
0.596191 0.263672
0.611816 0.282227
0.617676 0.278809
0.634277 0.301270
0.640137 0.297852
0.658203 0.314941
0.655273 0.326172
0.640137 0.337402
0.623047 0.350586
0.616699 0.364746
0.621582 0.370117
0.632813 0.365234
0.655762 0.357422
0.672852 0.349609
0.691406 0.341309
0.695313 0.354004
0.702148 0.367676
0.724121 0.406738
0.731445 0.413574
0.738281 0.411621
0.739746 0.402344
0.728516 0.361328
0.726074 0.346680
0.727051 0.330078
0.741211 0.322754
0.777344 0.320313
0.801270 0.319824
0.810547 0.318848
0.811523 0.312012
0.801758 0.305176
0.779785 0.298340
0.746094 0.291016
0.731445 0.290527
0.702637 0.307129
0.670898 0.316406
0.658203 0.298340
0.638672 0.283691
0.617676 0.272461
0.603516 0.257324
0.607910 0.250000
0.627930 0.254883
0.652832 0.263184
0.673828 0.270996
0.692383 0.280273
0.724121 0.278320
0.726563 0.250977
0.730469 0.233887
0.736328 0.221680
0.742676 0.209961
0.736816 0.206543
0.725586 0.217773
0.716309 0.229004
0.708008 0.244141
0.699707 0.267090
0.004185 0.801025
0.006477 0.800903
0.012581 0.788696
0.007694 0.808838
0.009720 0.807617
0.019302 0.812500
0.020645 0.809937
0.045563 0.811401
0.046753 0.807251
0.066101 0.810425
0.067627 0.804688
0.082947 0.810669
0.088013 0.805664
0.091370 0.814819
0.085876 0.818604
0.095215 0.828613
0.090210 0.831665
0.106750 0.870972
0.104431 0.873779
0.114014 0.879395
0.113586 0.882690
0.121643 0.879517
0.122437 0.882568
0.129395 0.873779
0.126709 0.871094
0.137085 0.832886
0.132080 0.829834
0.140137 0.820557
0.134644 0.816650
0.143799 0.813721
0.138672 0.808716
0.155396 0.806519
0.157837 0.813599
0.190430 0.813843
0.191284 0.818848
0.211792 0.816772
0.213501 0.819824
0.225220 0.814575
0.227051 0.815674
0.228638 0.807373
0.230713 0.807739
0.225952 0.798462
0.223145 0.798950
0.212402 0.784424
0.208130 0.787231
0.178101 0.763550
0.172852 0.768433
0.165283 0.756836
0.158691 0.759277
0.162231 0.741699
0.169556 0.742676
0.175537 0.720215
0.182129 0.723389
0.187012 0.708008
0.191895 0.710938
0.198242 0.699951
0.202637 0.701416
0.205811 0.688232
0.209106 0.687012
0.199219 0.679688
0.200928 0.676758
0.185791 0.678467
0.185425 0.683105
0.172241 0.681641
0.172363 0.687012
0.146240 0.692627
0.148438 0.699219
0.128662 0.707031
0.131836 0.713379
0.114075 0.721191
0.114197 0.728516
0.094788 0.710938
0.097595 0.705322
0.075012 0.693604
0.076721 0.688477
0.051758 0.677734
0.052155 0.673340
0.036438 0.673340
0.034760 0.670410
0.026855 0.677246
0.029739 0.679443
0.028259 0.693848
0.033966 0.693848
0.041412 0.717285
0.047607 0.715820
0.056854 0.741211
0.062805 0.739746
0.068176 0.757568
0.074951 0.760132
0.053894 0.766357
0.050568 0.761475
0.034821 0.775635
0.031586 0.772827
0.015221 0.789917
0.027603 0.796143
0.030396 0.802124
0.039856 0.803345
0.035217 0.786987
0.052063 0.775757
0.069092 0.769531
0.085815 0.765015
0.076904 0.747070
0.063721 0.726807
0.050537 0.710205
0.041809 0.692627
0.047729 0.687256
0.064636 0.697266
0.082336 0.711914
0.098816 0.726563
0.114197 0.740967
0.112732 0.771729
0.096313 0.796509
0.078796 0.795898
0.060944 0.798462
0.098145 0.806274
0.100586 0.820679
0.109619 0.862549
0.114502 0.870972
0.121155 0.870972
0.125000 0.862671
0.126343 0.822021
0.128296 0.807983
0.131714 0.799316
0.147095 0.764038
0.149780 0.746826
0.161743 0.724609
0.175659 0.709473
0.188354 0.699951
0.194946 0.693848
0.190674 0.689453
0.179443 0.693604
0.164307 0.700928
0.146729 0.713135
0.130737 0.729980
0.145874 0.797852
0.159058 0.770142
0.188477 0.785522
0.207520 0.796509
0.218994 0.805664
0.216064 0.811890
0.203247 0.809448
0.175171 0.803833
</float_array>
          <technique_common>
            <accessor source="#SM_Starfish_03_LOD0-UV0-array" count="284" stride="2">
              <param name="S" type="float"/>
              <param name="T" type="float"/>
            </accessor>
          </technique_common>
        </source>
        <vertices id="SM_Starfish_03_LOD0-VERTEX">
          <input semantic="POSITION" source="#SM_Starfish_03_LOD0-POSITION"/>
        </vertices>
        <triangles count="470" material="MAT_Sea_Shells">
          <input semantic="VERTEX" offset="0" source="#SM_Starfish_03_LOD0-VERTEX"/>
          <input semantic="NORMAL" offset="1" source="#SM_Starfish_03_LOD0-Normal0"/>
          <input semantic="TEXCOORD" offset="2" set="0" source="#SM_Starfish_03_LOD0-UV0"/>
          <p> 160 0 2 44 1 1 159 2 0 45 3 3 44 4 1 160 5 2 161 6 4 45 7 3 160 8 2 46 9 5 45 10 3 161 11 4 116 12 6 46 13 5 161 14 4 47 15 7 46 16 5 116 17 6 0 18 8 47 19 7 116 20 6 117 21 9 47 22 7 0 23 8 1 24 10 47 25 7 117 26 9 2 27 11 1 28 10 117 29 9 3 30 12 1 31 10 2 32 11 119 33 13 3 34 12 2 35 11 5 36 14 3 37 12 119 38 13 4 39 15 5 40 14 119 41 13 6 42 16 5 43 14 4 44 15 121 45 17 6 46 16 4 47 15 55 48 18 6 49 16 121 50 17 57 51 19 55 52 18 121 53 17 123 54 20 57 55 19 121 56 17 7 57 21 57 58 19 123 59 20 125 60 22 7 61 21 123 62 20 8 63 23 7 64 21 125 65 22 126 66 24 8 67 23 125 68 22 60 69 25 8 70 23 126 71 24 127 72 26 60 73 25 126 74 24 61 75 27 60 76 25 127 77 26 129 78 28 61 79 27 127 80 26 9 81 29 61 82 27 129 83 28 62 84 30 61 85 27 9 86 29 131 87 31 62 88 30 9 89 29 69 90 32 62 91 30 131 92 31 132 93 33 69 94 32 131 95 31 67 96 34 69 97 32 132 98 33 11 99 35 67 100 34 132 101 33 10 102 36 67 103 34 11 104 35 70 105 37 10 106 36 11 107 35 12 108 38 70 109 37 11 110 35 72 111 39 70 112 37 12 113 38 13 114 40 72 115 39 12 116 38 14 117 41 72 118 39 13 119 40 15 120 42 14 121 41 13 122 40 75 123 43 14 124 41 15 125 42 16 126 44 75 127 43 15 128 42 17 129 45 75 130 43 16 131 44 136 132 46 17 133 45 16 134 44 18 135 47 17 136 45 136 137 46 76 138 48 17 139 45 18 140 47 19 141 49 76 142 48 18 143 47 20 144 50 76 145 48 19 146 49 139 147 51 20 148 50 19 149 49 21 150 52 20 151 50 139 152 51 22 153 53 21 154 52 139 155 51 23 156 54 21 157 52 22 158 53 24 159 55 23 160 54 22 161 53 26 162 56 24 163 55 22 164 53 25 165 57 24 166 55 26 167 56 27 168 58 25 169 57 26 170 56 101 171 59 25 172 57 27 173 58 28 174 60 101 175 59 27 176 58 103 177 61 101 178 59 28 179 60 29 180 62 103 181 61 28 182 60 30 183 63 103 184 61 29 185 62 142 186 64 30 187 63 29 188 62 31 189 65 30 190 63 142 191 64 144 192 66 31 193 65 142 194 64 32 195 67 31 196 65 144 197 66 110 198 68 31 199 65 32 200 67 33 201 69 110 202 68 32 203 67 34 204 70 110 205 68 33 206 69 146 207 71 34 208 70 33 209 69 107 210 72 34 211 70 146 212 71 147 213 73 107 214 72 146 215 71 35 216 74 107 217 72 147 218 73 149 219 75 35 220 74 147 221 73 113 222 76 35 223 74 149 224 75 36 225 77 113 226 76 149 227 75 150 228 78 36 229 77 149 230 75 37 231 79 36 232 77 150 233 78 152 234 80 37 235 79 150 236 78 38 237 81 37 238 79 152 239 80 153 240 82 38 241 81 152 242 80 39 243 83 38 244 81 153 245 82 154 246 84 39 247 83 153 248 82 155 249 85 39 250 83 154 251 84 40 252 86 39 253 83 155 254 85 41 255 87 40 256 86 155 257 85 91 258 88 40 259 86 41 260 87 42 261 89 91 262 88 41 263 87 89 264 90 91 265 88 42 266 89 156 267 91 89 268 90 42 269 89 88 270 92 89 271 90 156 272 91 159 273 0 88 274 92 156 275 91 43 276 93 88 277 92 159 278 0 44 279 1 43 280 93 159 281 0 86 282 94 43 283 93 44 284 1 52 285 95 86 286 94 44 287 1 45 288 3 52 289 95 44 290 1 51 291 96 52 292 95 45 293 3 46 294 5 51 295 96 45 296 3 50 297 97 51 298 96 46 299 5 47 300 7 50 301 97 46 302 5 1 303 10 50 304 97 47 305 7 48 306 98 50 307 97 1 308 10 3 309 12 48 310 98 1 311 10 49 312 99 48 313 98 3 314 12 49 315 99 50 316 97 48 317 98 49 318 99 51 319 96 50 320 97 49 321 99 54 322 100 51 323 96 54 324 100 52 325 95 51 326 96 54 327 100 86 328 94 52 329 95 54 330 100 53 331 101 86 332 94 53 333 101 54 334 100 6 335 16 54 336 100 5 337 14 6 338 16 49 339 99 5 340 14 54 341 100 49 342 99 3 343 12 5 344 14 55 345 18 53 346 101 6 347 16 84 348 102 53 349 101 55 350 18 56 351 103 84 352 102 55 353 18 57 354 19 56 355 103 55 356 18 65 357 104 56 358 103 57 359 19 7 360 21 65 361 104 57 362 19 58 363 105 65 364 104 7 365 21 8 366 23 58 367 105 7 368 21 59 369 106 58 370 105 8 371 23 60 372 25 59 373 106 8 374 23 63 375 107 59 376 106 60 377 25 61 378 27 63 379 107 60 380 25 62 381 30 63 382 107 61 383 27 64 384 108 63 385 107 62 386 30 64 387 108 59 388 106 63 389 107 64 390 108 58 391 105 59 392 106 64 393 108 68 394 109 58 395 105 68 396 109 65 397 104 58 398 105 68 399 109 66 400 110 65 401 104 66 402 110 56 403 103 65 404 104 66 405 110 84 406 102 56 407 103 66 408 110 82 409 111 84 410 102 10 411 36 82 412 111 66 413 110 67 414 34 10 415 36 66 416 110 68 417 109 67 418 34 66 419 110 68 420 109 69 421 32 67 422 34 64 423 108 69 424 32 68 425 109 64 426 108 62 427 30 69 428 32 81 429 112 82 430 111 10 431 36 70 432 37 81 433 112 10 434 36 71 435 113 81 436 112 70 437 37 72 438 39 71 439 113 70 440 37 73 441 114 71 442 113 72 443 39 14 444 41 73 445 114 72 446 39 74 447 115 73 448 114 14 449 41 75 450 43 74 451 115 14 452 41 77 453 116 74 454 115 75 455 43 77 456 116 73 457 114 74 458 115 17 459 45 77 460 116 75 461 43 76 462 48 77 463 116 17 464 45 79 465 117 77 466 116 76 467 48 79 468 117 73 469 114 77 470 116 79 471 117 78 472 118 73 473 114 78 474 118 71 475 113 73 476 114 78 477 118 80 478 119 71 479 113 80 480 119 81 481 112 71 482 113 80 483 119 99 484 120 81 485 112 99 486 120 82 487 111 81 488 112 99 489 120 83 490 121 82 491 111 83 492 121 84 493 102 82 494 111 83 495 121 85 496 122 84 497 102 85 498 122 53 499 101 84 500 102 85 501 122 86 502 94 53 503 101 85 504 122 43 505 93 86 506 94 85 507 122 87 508 123 43 509 93 87 510 123 88 511 92 43 512 93 87 513 123 96 514 124 88 515 92 96 516 124 89 517 90 88 518 92 96 519 124 90 520 125 89 521 90 90 522 125 91 523 88 89 524 90 90 525 125 92 526 126 91 527 88 92 528 126 40 529 86 91 530 88 92 531 126 39 532 83 40 533 86 92 534 126 93 535 127 39 536 83 90 537 125 93 538 127 92 539 126 94 540 128 93 541 127 90 542 125 96 543 124 94 544 128 90 545 125 95 546 129 94 547 128 96 548 124 94 549 128 95 550 129 37 551 79 38 552 81 94 553 128 37 554 79 38 555 81 93 556 127 94 557 128 93 558 127 38 559 81 39 560 83 95 561 129 36 562 77 37 563 79 95 564 129 97 565 130 36 566 77 96 567 124 97 568 130 95 569 129 87 570 123 97 571 130 96 572 124 98 573 131 97 574 130 87 575 123 85 576 122 98 577 131 87 578 123 83 579 121 98 580 131 85 581 122 99 582 120 98 583 131 83 584 121 112 585 132 98 586 131 99 587 120 23 588 54 112 589 132 99 590 120 80 591 119 23 592 54 99 593 120 80 594 119 21 595 52 23 596 54 78 597 118 21 598 52 80 599 119 78 600 118 20 601 50 21 602 52 79 603 117 20 604 50 78 605 118 79 606 117 76 607 48 20 608 50 24 609 55 112 610 132 23 611 54 100 612 133 112 613 132 24 614 55 25 615 57 100 616 133 24 617 55 106 618 134 100 619 133 25 620 57 101 621 59 106 622 134 25 623 57 102 624 135 106 625 134 101 626 59 103 627 61 102 628 135 101 629 59 104 630 136 102 631 135 103 632 61 30 633 63 104 634 136 103 635 61 31 636 65 104 637 136 30 638 63 105 639 137 104 640 136 31 641 65 105 642 137 102 643 135 104 644 136 105 645 137 109 646 138 102 647 135 109 648 138 106 649 134 102 650 135 109 651 138 108 652 139 106 653 134 108 654 139 100 655 133 106 656 134 108 657 139 111 658 140 100 659 133 111 660 140 108 661 139 107 662 72 108 663 139 34 664 70 107 665 72 109 666 138 34 667 70 108 668 139 109 669 138 110 670 68 34 671 70 105 672 137 110 673 68 109 674 138 105 675 137 31 676 65 110 677 68 35 678 74 111 679 140 107 680 72 114 681 141 111 682 140 35 683 74 114 684 141 100 685 133 111 686 140 114 687 141 112 688 132 100 689 133 114 690 141 98 691 131 112 692 132 114 693 141 113 694 76 98 695 131 113 696 76 114 697 141 35 698 74 113 699 76 97 700 130 98 701 131 97 702 130 113 703 76 36 704 77 116 705 144 115 706 143 0 707 142 115 708 143 117 709 145 0 710 142 115 711 143 118 712 146 117 713 145 118 714 146 2 715 147 117 716 145 118 717 146 120 718 148 2 719 147 120 720 148 119 721 149 2 722 147 120 723 148 187 724 150 119 725 149 187 726 150 4 727 151 119 728 149 187 729 150 188 730 152 4 731 151 188 732 152 121 733 153 4 734 151 188 735 152 192 736 154 121 737 153 192 738 154 122 739 155 121 740 153 122 741 155 123 742 156 121 743 153 122 744 155 124 745 157 123 746 156 124 747 157 125 748 158 123 749 156 124 750 157 194 751 159 125 752 158 194 753 159 126 754 160 125 755 158 194 756 159 195 757 161 126 758 160 195 759 161 127 760 162 126 761 160 195 762 161 128 763 163 127 764 162 128 765 163 129 766 164 127 767 162 128 768 163 9 769 165 129 770 164 128 771 163 130 772 166 9 773 165 130 774 166 131 775 167 9 776 165 130 777 166 221 778 168 131 779 167 221 780 168 132 781 169 131 782 167 221 783 168 133 784 170 132 785 169 133 786 170 11 787 171 132 788 169 133 789 170 235 790 172 11 791 171 235 792 172 234 793 173 11 794 171 234 795 173 12 796 174 11 797 171 234 798 173 134 799 175 12 800 174 134 801 175 13 802 176 12 803 174 134 804 175 135 805 177 13 806 176 135 807 177 15 808 178 13 809 176 135 810 177 227 811 179 15 812 178 227 813 179 16 814 180 15 815 178 227 816 179 137 817 181 16 818 180 137 819 181 136 820 182 16 821 180 137 822 181 18 823 183 136 824 182 137 825 181 138 826 184 18 827 183 138 828 184 19 829 185 18 830 183 138 831 184 225 832 186 19 833 185 225 834 186 139 835 187 19 836 185 225 837 186 224 838 188 139 839 187 224 840 188 22 841 189 139 842 187 224 843 188 223 844 190 22 845 189 223 846 190 206 847 191 22 848 189 206 849 191 26 850 192 22 851 189 206 852 191 141 853 193 26 854 192 141 855 193 27 856 194 26 857 192 141 858 193 140 859 195 27 860 194 140 861 195 28 862 196 27 863 194 140 864 195 207 865 197 28 866 196 207 867 197 29 868 198 28 869 196 207 870 197 143 871 199 29 872 198 143 873 199 142 874 200 29 875 198 143 876 199 145 877 201 142 878 200 145 879 201 144 880 202 142 881 200 145 882 201 32 883 203 144 884 202 145 885 201 218 886 204 32 887 203 218 888 204 33 889 205 32 890 203 218 891 204 217 892 206 33 893 205 217 894 206 146 895 207 33 896 205 217 897 206 216 898 208 146 899 207 216 900 208 147 901 209 146 902 207 216 903 208 148 904 210 147 905 209 148 906 210 149 907 211 147 908 209 148 909 210 220 910 212 149 911 211 220 912 212 151 913 213 149 914 211 151 915 213 150 916 214 149 917 211 151 918 213 179 919 215 150 920 214 179 921 215 152 922 216 150 923 214 179 924 215 180 925 217 152 926 216 180 927 217 153 928 218 152 929 216 180 930 217 176 931 219 153 932 218 176 933 219 154 934 220 153 935 218 176 936 219 155 937 221 154 938 220 176 939 219 174 940 222 155 941 221 174 942 222 41 943 223 155 944 221 174 945 222 173 946 224 41 947 223 173 948 224 42 949 225 41 950 223 173 951 224 172 952 226 42 953 225 172 954 226 156 955 227 42 956 225 172 957 226 157 958 228 156 959 227 157 960 228 159 961 229 156 962 227 157 963 228 170 964 230 159 965 229 170 966 230 158 967 231 159 968 229 158 969 231 160 970 232 159 971 229 158 972 231 167 973 233 160 974 232 167 975 233 161 976 234 160 977 232 167 978 233 162 979 235 161 980 234 162 981 235 116 982 144 161 983 234 162 984 235 115 985 143 116 986 144 162 987 235 164 988 236 115 989 143 164 990 236 118 991 146 115 992 143 164 993 236 163 994 237 118 995 146 163 996 237 120 997 148 118 998 146 165 999 238 120 1000 148 163 1001 237 164 1002 236 165 1003 238 163 1004 237 166 1005 239 165 1006 238 164 1007 236 162 1008 235 166 1009 239 164 1010 236 167 1011 233 166 1012 239 162 1013 235 186 1014 240 166 1015 239 167 1016 233 158 1017 231 186 1018 240 167 1019 233 168 1020 241 186 1021 240 158 1022 231 170 1023 230 168 1024 241 158 1025 231 169 1026 242 168 1027 241 170 1028 230 171 1029 243 169 1030 242 170 1031 230 157 1032 228 171 1033 243 170 1034 230 183 1035 244 171 1036 243 157 1037 228 172 1038 226 183 1039 244 157 1040 228 177 1041 245 183 1042 244 172 1043 226 173 1044 224 177 1045 245 172 1046 226 175 1047 246 177 1048 245 173 1049 224 174 1050 222 175 1051 246 173 1052 224 176 1053 219 175 1054 246 174 1055 222 176 1056 219 181 1057 247 175 1058 246 181 1059 247 177 1060 245 175 1061 246 181 1062 247 178 1063 248 177 1064 245 178 1065 248 183 1066 244 177 1067 245 178 1068 248 182 1069 249 183 1070 244 182 1071 249 178 1072 248 179 1073 215 178 1074 248 180 1075 217 179 1076 215 181 1077 247 180 1078 217 178 1079 248 181 1080 247 176 1081 219 180 1082 217 151 1083 213 182 1084 249 179 1085 215 184 1086 250 182 1087 249 151 1088 213 184 1089 250 183 1090 244 182 1091 249 184 1092 250 171 1093 243 183 1094 244 184 1095 250 185 1096 251 171 1097 243 185 1098 251 169 1099 242 171 1100 243 185 1101 251 204 1102 252 169 1103 242 204 1104 252 202 1105 253 169 1106 242 202 1107 253 190 1108 254 169 1109 242 190 1110 254 168 1111 241 169 1112 242 190 1113 254 189 1114 255 168 1115 241 189 1116 255 186 1117 240 168 1118 241 189 1119 255 166 1120 239 186 1121 240 189 1122 255 165 1123 238 166 1124 239 189 1125 255 187 1126 150 165 1127 238 187 1128 150 120 1129 148 165 1130 238 188 1131 152 187 1132 150 189 1133 255 190 1134 254 188 1135 152 189 1136 255 190 1137 254 192 1138 154 188 1139 152 202 1140 253 192 1141 154 190 1142 254 202 1143 253 191 1144 256 192 1145 154 191 1146 256 122 1147 155 192 1148 154 191 1149 256 193 1150 257 122 1151 155 193 1152 257 124 1153 157 122 1154 155 193 1155 257 199 1156 258 124 1157 157 199 1158 258 194 1159 159 124 1160 157 199 1161 258 198 1162 259 194 1163 159 198 1164 259 195 1165 161 194 1166 159 198 1167 259 196 1168 260 195 1169 161 196 1170 260 128 1171 163 195 1172 161 196 1173 260 130 1174 166 128 1175 163 197 1176 261 130 1177 166 196 1178 260 198 1179 259 197 1180 261 196 1181 260 199 1182 258 197 1183 261 198 1184 259 200 1185 262 197 1186 261 199 1187 258 193 1188 257 200 1189 262 199 1190 258 201 1191 263 200 1192 262 193 1193 257 191 1194 256 201 1195 263 193 1196 257 202 1197 253 201 1198 263 191 1199 256 203 1200 264 201 1201 263 202 1202 253 204 1203 252 203 1204 264 202 1205 253 222 1206 265 203 1207 264 204 1208 252 185 1209 251 222 1210 265 204 1211 252 205 1212 266 222 1213 265 185 1214 251 205 1215 266 223 1216 190 222 1217 265 205 1218 266 206 1219 191 223 1220 190 205 1221 266 214 1222 267 206 1223 191 214 1224 267 141 1225 193 206 1226 191 214 1227 267 212 1228 268 141 1229 193 212 1230 268 140 1231 195 141 1232 193 212 1233 268 210 1234 269 140 1235 195 210 1236 269 207 1237 197 140 1238 195 210 1239 269 208 1240 270 207 1241 197 208 1242 270 143 1243 199 207 1244 197 208 1245 270 145 1246 201 143 1247 199 208 1248 270 209 1249 271 145 1250 201 210 1251 269 209 1252 271 208 1253 270 211 1254 272 209 1255 271 210 1256 269 212 1257 268 211 1258 272 210 1259 269 213 1260 273 211 1261 272 212 1262 268 214 1263 267 213 1264 273 212 1265 268 215 1266 274 213 1267 273 214 1268 267 215 1269 274 216 1270 208 213 1271 273 216 1272 208 217 1273 206 213 1274 273 217 1275 206 211 1276 272 213 1277 273 218 1278 204 211 1279 272 217 1280 206 218 1281 204 209 1282 271 211 1283 272 218 1284 204 145 1285 201 209 1286 271 215 1287 274 148 1288 210 216 1289 208 219 1290 275 148 1291 210 215 1292 274 214 1293 267 219 1294 275 215 1295 274 205 1296 266 219 1297 275 214 1298 267 185 1299 251 219 1300 275 205 1301 266 220 1302 212 219 1303 275 185 1304 251 220 1305 212 148 1306 210 219 1307 275 184 1308 250 220 1309 212 185 1310 251 184 1311 250 151 1312 213 220 1313 212 200 1314 262 221 1315 168 197 1316 261 221 1317 168 130 1318 166 197 1319 261 133 1320 170 221 1321 168 200 1322 262 201 1323 263 133 1324 170 200 1325 262 201 1326 263 235 1327 172 133 1328 170 203 1329 264 235 1330 172 201 1331 263 236 1332 276 235 1333 172 203 1334 264 222 1335 265 236 1336 276 203 1337 264 232 1338 277 236 1339 276 222 1340 265 223 1341 190 232 1342 277 222 1343 265 224 1344 188 232 1345 277 223 1346 190 231 1347 278 232 1348 277 224 1349 188 225 1350 186 231 1351 278 224 1352 188 230 1353 279 231 1354 278 225 1355 186 138 1356 184 230 1357 279 225 1358 186 226 1359 280 230 1360 279 138 1361 184 137 1362 181 226 1363 280 138 1364 184 227 1365 179 226 1366 280 137 1367 181 228 1368 281 226 1369 280 227 1370 179 135 1371 177 228 1372 281 227 1373 179 229 1374 282 228 1375 281 135 1376 177 229 1377 282 226 1378 280 228 1379 281 229 1380 282 230 1381 279 226 1382 280 229 1383 282 231 1384 278 230 1385 279 229 1386 282 233 1387 283 231 1388 278 233 1389 283 232 1390 277 231 1391 278 233 1392 283 236 1393 276 232 1394 277 233 1395 283 234 1396 173 236 1397 276 236 1398 276 234 1399 173 235 1400 172 134 1401 175 234 1402 173 233 1403 283 229 1404 282 134 1405 175 233 1406 283 229 1407 282 135 1408 177 134 1409 175</p>
        </triangles>
      </mesh>
    </geometry>
    <geometry id="SM_Starfish_03_LOD1-lib" name="SM_Starfish_03_LOD1Mesh">
      <mesh>
        <source id="SM_Starfish_03_LOD1-POSITION">
          <float_array id="SM_Starfish_03_LOD1-POSITION-array" count="225">
-5.129005 -1.783981 1.515472
4.970413 -1.953049 1.515472
2.440796 3.833694 1.515472
-0.468666 -5.737793 1.515473
-10.770142 -13.628891 1.515472
-0.333282 -4.612885 0.174833
0.662895 13.628891 1.515452
-14.288353 4.234695 1.515446
14.749710 3.948837 1.515472
10.815819 -12.941437 1.515472
-4.110733 -1.487213 3.724405
-3.392570 3.389603 1.515472
-0.319267 -4.633041 3.723889
1.872421 3.241684 3.697261
11.794113 -11.679840 1.515472
1.921280 3.276871 0.200083
-11.744598 -12.759888 1.515472
14.275429 4.965958 1.515472
-4.129372 -1.452881 0.176787
4.054520 -9.947586 1.515473
-0.431686 13.611862 1.515452
-14.749718 3.258026 1.515446
8.754280 -8.750443 1.515473
-10.532387 -0.118973 1.515459
3.950096 -1.552185 3.734437
-2.593491 2.556335 3.746176
6.170334 -9.842377 2.995171
3.950096 -1.552185 0.170366
10.654808 -10.093277 1.515473
-2.742905 2.616852 0.174467
13.908318 2.866608 1.515472
-10.976830 -10.824677 1.515473
-7.001114 3.367218 1.515463
4.762962 3.581711 1.515472
-8.649025 -12.952774 1.515472
-1.348869 12.326477 1.515454
7.073517 -11.435211 1.007483
4.908730 -1.928848 2.415988
8.954277 -8.982956 1.045233
-8.265160 -7.885880 2.941185
1.091743 11.773468 2.332048
-7.762886 -6.515945 1.515467
-12.722755 4.445450 1.515452
-0.457939 -5.662048 2.415989
-1.229874 11.903336 2.234367
12.443260 5.129440 1.515471
-7.075142 -10.413528 2.978518
4.908730 -1.928848 0.925800
-13.492653 1.764664 1.515452
4.766609 -4.708084 3.384400
-3.350487 3.347504 2.415988
10.983429 2.109421 2.875344
1.197639 12.346619 1.515454
-8.005173 -7.450958 0.664365
2.318153 3.980087 2.407763
-5.065361 -1.761963 2.415988
11.433220 1.588760 0.986277
8.247498 -8.201553 2.304873
4.928307 -10.339203 2.354878
11.647797 -11.535049 1.907615
1.834610 5.178101 1.515467
-6.873627 -10.293961 0.581721
-5.457191 2.677002 3.333367
7.245865 -11.725983 1.515473
-0.457939 -5.662048 0.925801
5.702286 -4.338409 1.515473
10.522614 -9.968155 2.077614
-0.443733 13.372726 1.128927
-10.053268 -0.241669 2.181376
12.183754 4.984558 1.156040
-10.840706 -10.690338 1.040098
4.699532 -4.581802 0.363409
-11.575333 -12.578598 1.938748
-5.065361 -1.761963 0.925800
3.887268 2.866165 3.531502
</float_array>
          <technique_common>
            <accessor source="#SM_Starfish_03_LOD1-POSITION-array" count="75" stride="3">
              <param name="X" type="float"/>
              <param name="Y" type="float"/>
              <param name="Z" type="float"/>
            </accessor>
          </technique_common>
        </source>
        <source id="SM_Starfish_03_LOD1-Normal0">
          <float_array id="SM_Starfish_03_LOD1-Normal0-array" count="1314">
0.186007 -0.401263 0.896877
-0.011241 -0.272121 0.962197
-0.548650 0.287128 0.785201
-0.276995 0.517918 -0.809342
-0.182217 0.220864 -0.958132
-0.572012 0.748579 -0.335310
-0.000348 0.624391 -0.781112
0.206343 0.270786 -0.940265
-0.081107 0.982041 0.170343
-0.011241 -0.272121 0.962197
0.186007 -0.401263 0.896877
0.002352 -0.900952 0.433912
-0.471551 0.287514 -0.833652
0.148432 -0.301199 -0.941938
-0.885866 -0.309959 -0.345207
-0.548650 0.287128 0.785201
-0.922139 -0.386222 -0.022182
-0.853731 0.517327 -0.059304
0.383543 -0.917976 -0.101068
0.148432 -0.301199 -0.941938
0.028939 -0.782298 -0.622232
0.495297 0.411893 -0.764869
0.188702 0.029028 -0.981605
0.724725 -0.321427 -0.609474
0.872283 0.293965 -0.390779
0.966215 0.174474 -0.189705
0.206343 0.270786 -0.940265
-0.177083 0.220750 0.959120
-0.554172 0.335294 0.761887
-0.560974 0.711736 0.422777
-0.102839 0.975312 -0.195423
-0.182217 0.220864 -0.958132
-0.168452 -0.036238 -0.985043
-0.387776 -0.696518 0.603732
-0.235807 -0.057063 0.970123
-0.736938 -0.671531 -0.077262
0.123831 0.505632 0.853816
0.272002 -0.108536 0.956156
0.334067 -0.250987 0.908518
0.384072 -0.562611 -0.732091
0.724725 -0.321427 -0.609474
0.188821 -0.067231 -0.979707
-0.011241 -0.272121 0.962197
0.002352 -0.900952 0.433912
-0.413929 -0.735322 0.536623
-0.210367 -0.559067 -0.801992
0.188702 0.029028 -0.981605
0.495297 0.411893 -0.764869
0.018343 0.966070 0.257627
-0.081107 0.982041 0.170343
0.123831 0.505632 0.853816
0.206617 0.264125 0.942097
0.719875 0.640450 0.267587
0.591964 0.265137 0.761105
-0.102839 0.975312 -0.195423
0.139244 0.983589 0.114731
-0.182217 0.220864 -0.958132
0.139244 0.983589 0.114731
-0.102839 0.975312 -0.195423
-0.125711 0.532414 0.837097
0.334067 -0.250987 0.908518
0.272002 -0.108536 0.956156
0.830913 -0.338851 0.441319
0.313985 0.073611 0.946570
0.745963 0.665125 0.033885
0.830913 -0.338851 0.441319
-0.011241 -0.272121 0.962197
-0.177083 0.220750 0.959120
-0.235807 -0.057063 0.970123
-0.235807 -0.057063 0.970123
-0.125711 0.532414 0.837097
-0.700924 0.712110 -0.040045
0.326951 -0.938501 -0.110990
-0.210367 -0.559067 -0.801992
0.495297 0.411893 -0.764869
0.313985 0.073611 0.946570
-0.024665 -0.323656 0.945853
0.727653 0.036519 0.684973
0.384072 -0.562611 -0.732091
0.188821 -0.067231 -0.979707
0.206343 0.270786 -0.940265
-0.182217 0.220864 -0.958132
-0.002787 -0.189669 -0.981844
-0.168452 -0.036238 -0.985043
0.186007 -0.401263 0.896877
-0.548650 0.287128 0.785201
-0.671359 -0.126875 0.730191
-0.885866 -0.309959 -0.345207
0.148432 -0.301199 -0.941938
-0.198033 -0.973099 -0.117736
0.384072 -0.562611 -0.732091
0.206343 0.270786 -0.940265
-0.000348 0.624391 -0.781112
0.685689 0.726941 -0.037253
0.123831 0.505632 0.853816
0.334067 -0.250987 0.908518
-0.922139 -0.386222 -0.022182
-0.471551 0.287514 -0.833652
-0.853731 0.517327 -0.059304
-0.736938 -0.671531 -0.077262
-0.168452 -0.036238 -0.985043
-0.444281 -0.807597 -0.387817
0.028939 -0.782298 -0.622232
-0.002787 -0.189669 -0.981844
-0.584991 -0.762931 -0.275175
-0.413929 -0.735322 0.536623
0.002352 -0.900952 0.433912
-0.584991 -0.762931 -0.275175
0.206617 0.264125 0.942097
0.591964 0.265137 0.761105
-0.554172 0.335294 0.761887
0.872283 0.293965 -0.390779
0.206343 0.270786 -0.940265
-0.276995 0.517918 -0.809342
-0.235807 -0.057063 0.970123
-0.700924 0.712110 -0.040045
-0.999529 -0.003509 -0.030480
-0.700924 0.712110 -0.040045
-0.168452 -0.036238 -0.985043
-0.999529 -0.003509 -0.030480
0.326951 -0.938501 -0.110990
0.495297 0.411893 -0.764869
0.909569 -0.119748 -0.397925
0.313985 0.073611 0.946570
0.727653 0.036519 0.684973
0.745963 0.665125 0.033885
-0.841016 -0.359667 0.404144
-0.235807 -0.057063 0.970123
-0.387776 -0.696518 0.603732
-0.444281 -0.807597 -0.387817
-0.168452 -0.036238 -0.985043
-0.737982 -0.288364 -0.610106
-0.011241 -0.272121 0.962197
0.272002 -0.108536 0.956156
-0.177083 0.220750 0.959120
-0.011241 -0.272121 0.962197
-0.024665 -0.323656 0.945853
0.313985 0.073611 0.946570
-0.177083 0.220750 0.959120
0.206617 0.264125 0.942097
-0.554172 0.335294 0.761887
0.272002 -0.108536 0.956156
0.206617 0.264125 0.942097
-0.177083 0.220750 0.959120
-0.413929 -0.735322 0.536623
-0.584991 -0.762931 -0.275175
-0.361864 -0.928664 0.081476
0.326951 -0.938501 -0.110990
0.727653 0.036519 0.684973
-0.024665 -0.323656 0.945853
-0.210367 -0.559067 -0.801992
-0.002787 -0.189669 -0.981844
0.188702 0.029028 -0.981605
0.188821 -0.067231 -0.979707
-0.002787 -0.189669 -0.981844
-0.182217 0.220864 -0.958132
0.909569 -0.119748 -0.397925
0.495297 0.411893 -0.764869
0.677934 0.598184 -0.427296
0.727653 0.036519 0.684973
0.536882 0.497667 0.681238
0.745963 0.665125 0.033885
0.188821 -0.067231 -0.979707
-0.182217 0.220864 -0.958132
0.206343 0.270786 -0.940265
0.206343 0.270786 -0.940265
-0.182217 0.220864 -0.958132
-0.276995 0.517918 -0.809342
0.384072 -0.562611 -0.732091
-0.000348 0.624391 -0.781112
0.998012 0.004316 -0.062871
0.737282 -0.667961 -0.101206
0.334067 -0.250987 0.908518
0.830913 -0.338851 0.441319
-0.671359 -0.126875 0.730191
-0.548650 0.287128 0.785201
-0.864007 0.459782 0.205166
-0.471551 0.287514 -0.833652
-0.885866 -0.309959 -0.345207
-0.528304 0.196928 -0.825902
-0.125711 0.532414 0.837097
-0.560974 0.711736 0.422777
0.139244 0.983589 0.114731
-0.572012 0.748579 -0.335310
-0.182217 0.220864 -0.958132
0.139244 0.983589 0.114731
0.123831 0.505632 0.853816
-0.081107 0.982041 0.170343
0.719875 0.640450 0.267587
-0.081107 0.982041 0.170343
0.206343 0.270786 -0.940265
0.524214 0.793089 -0.310176
0.148432 -0.301199 -0.941938
0.383543 -0.917976 -0.101068
-0.198033 -0.973099 -0.117736
0.186007 -0.401263 0.896877
0.383543 -0.917976 -0.101068
0.002352 -0.900952 0.433912
-0.885756 0.379419 -0.267351
-0.276995 0.517918 -0.809342
-0.572012 0.748579 -0.335310
-0.554172 0.335294 0.761887
0.591964 0.265137 0.761105
-0.362235 0.899842 0.243043
-0.584991 -0.762931 -0.275175
-0.210367 -0.559067 -0.801992
-0.361864 -0.928664 0.081476
-0.002787 -0.189669 -0.981844
-0.210367 -0.559067 -0.801992
-0.584991 -0.762931 -0.275175
0.830913 -0.338851 0.441319
0.745963 0.665125 0.033885
0.871471 0.470200 0.139466
0.737282 -0.667961 -0.101206
0.830913 -0.338851 0.441319
0.924825 -0.379862 -0.020117
0.677934 0.598184 -0.427296
0.495297 0.411893 -0.764869
0.710787 0.702181 -0.041519
0.710787 0.702181 -0.041519
0.495297 0.411893 -0.764869
0.871471 0.470200 0.139466
-0.548650 0.287128 0.785201
-0.235807 -0.057063 0.970123
-0.841016 -0.359667 0.404144
-0.011241 -0.272121 0.962197
-0.235807 -0.057063 0.970123
-0.548650 0.287128 0.785201
0.591964 0.265137 0.761105
0.528322 0.848176 -0.038402
-0.362235 0.899842 0.243043
0.591964 0.265137 0.761105
0.966215 0.174474 -0.189705
0.872283 0.293965 -0.390779
-0.471551 0.287514 -0.833652
-0.528304 0.196928 -0.825902
-0.853731 0.517327 -0.059304
-0.864007 0.459782 0.205166
-0.548650 0.287128 0.785201
-0.853731 0.517327 -0.059304
-0.102839 0.975312 -0.195423
-0.168452 -0.036238 -0.985043
-0.700924 0.712110 -0.040045
-0.125711 0.532414 0.837097
-0.102839 0.975312 -0.195423
-0.700924 0.712110 -0.040045
0.002352 -0.900952 0.433912
0.383543 -0.917976 -0.101068
-0.007143 -0.999710 -0.022980
0.002352 -0.900952 0.433912
-0.007143 -0.999710 -0.022980
-0.584991 -0.762931 -0.275175
-0.554172 0.335294 0.761887
-0.885756 0.379419 -0.267351
-0.572012 0.748579 -0.335310
-0.554172 0.335294 0.761887
-0.362235 0.899842 0.243043
-0.885756 0.379419 -0.267351
0.685689 0.726941 -0.037253
0.018343 0.966070 0.257627
0.123831 0.505632 0.853816
0.998012 0.004316 -0.062871
-0.000348 0.624391 -0.781112
0.685689 0.726941 -0.037253
0.186007 -0.401263 0.896877
-0.198033 -0.973099 -0.117736
0.383543 -0.917976 -0.101068
-0.198033 -0.973099 -0.117736
0.186007 -0.401263 0.896877
-0.671359 -0.126875 0.730191
0.495297 0.411893 -0.764869
0.724725 -0.321427 -0.609474
0.871471 0.470200 0.139466
0.724725 -0.321427 -0.609474
0.384072 -0.562611 -0.732091
0.924825 -0.379862 -0.020117
-0.736938 -0.671531 -0.077262
-0.235807 -0.057063 0.970123
-0.999529 -0.003509 -0.030480
-0.999529 -0.003509 -0.030480
-0.168452 -0.036238 -0.985043
-0.736938 -0.671531 -0.077262
0.313985 0.073611 0.946570
0.272002 -0.108536 0.956156
-0.011241 -0.272121 0.962197
0.313985 0.073611 0.946570
0.830913 -0.338851 0.441319
0.272002 -0.108536 0.956156
-0.560974 0.711736 0.422777
-0.554172 0.335294 0.761887
-0.572012 0.748579 -0.335310
0.139244 0.983589 0.114731
-0.560974 0.711736 0.422777
-0.572012 0.748579 -0.335310
0.685689 0.726941 -0.037253
0.334067 -0.250987 0.908518
0.998012 0.004316 -0.062871
0.998012 0.004316 -0.062871
0.334067 -0.250987 0.908518
0.737282 -0.667961 -0.101206
0.528322 0.848176 -0.038402
0.591964 0.265137 0.761105
0.872283 0.293965 -0.390779
0.528322 0.848176 -0.038402
0.872283 0.293965 -0.390779
-0.276995 0.517918 -0.809342
-0.168452 -0.036238 -0.985043
-0.002787 -0.189669 -0.981844
-0.471551 0.287514 -0.833652
-0.168452 -0.036238 -0.985043
-0.471551 0.287514 -0.833652
-0.737982 -0.288364 -0.610106
0.591964 0.265137 0.761105
0.719875 0.640450 0.267587
0.966215 0.174474 -0.189705
0.719875 0.640450 0.267587
-0.081107 0.982041 0.170343
0.524214 0.793089 -0.310176
-0.841016 -0.359667 0.404144
-0.387776 -0.696518 0.603732
-0.922139 -0.386222 -0.022182
-0.548650 0.287128 0.785201
-0.841016 -0.359667 0.404144
-0.922139 -0.386222 -0.022182
0.384072 -0.562611 -0.732091
0.998012 0.004316 -0.062871
0.737282 -0.667961 -0.101206
0.924825 -0.379862 -0.020117
0.384072 -0.562611 -0.732091
0.737282 -0.667961 -0.101206
0.745963 0.665125 0.033885
0.710787 0.702181 -0.041519
0.871471 0.470200 0.139466
0.745963 0.665125 0.033885
0.536882 0.497667 0.681238
0.710787 0.702181 -0.041519
-0.011241 -0.272121 0.962197
-0.413929 -0.735322 0.536623
-0.024665 -0.323656 0.945853
0.326951 -0.938501 -0.110990
-0.024665 -0.323656 0.945853
-0.413929 -0.735322 0.536623
0.727653 0.036519 0.684973
0.909569 -0.119748 -0.397925
0.677934 0.598184 -0.427296
0.727653 0.036519 0.684973
0.326951 -0.938501 -0.110990
0.909569 -0.119748 -0.397925
0.966215 0.174474 -0.189705
0.524214 0.793089 -0.310176
0.206343 0.270786 -0.940265
0.719875 0.640450 0.267587
0.524214 0.793089 -0.310176
0.966215 0.174474 -0.189705
-0.002787 -0.189669 -0.981844
0.148432 -0.301199 -0.941938
-0.471551 0.287514 -0.833652
0.148432 -0.301199 -0.941938
-0.002787 -0.189669 -0.981844
0.028939 -0.782298 -0.622232
-0.177083 0.220750 0.959120
-0.125711 0.532414 0.837097
-0.235807 -0.057063 0.970123
-0.177083 0.220750 0.959120
-0.560974 0.711736 0.422777
-0.125711 0.532414 0.837097
0.326951 -0.938501 -0.110990
-0.413929 -0.735322 0.536623
-0.361864 -0.928664 0.081476
-0.210367 -0.559067 -0.801992
0.326951 -0.938501 -0.110990
-0.361864 -0.928664 0.081476
0.383543 -0.917976 -0.101068
0.028939 -0.782298 -0.622232
-0.007143 -0.999710 -0.022980
-0.007143 -0.999710 -0.022980
0.028939 -0.782298 -0.622232
-0.584991 -0.762931 -0.275175
0.871471 0.470200 0.139466
0.724725 -0.321427 -0.609474
0.924825 -0.379862 -0.020117
0.830913 -0.338851 0.441319
0.871471 0.470200 0.139466
0.924825 -0.379862 -0.020117
0.536882 0.497667 0.681238
0.677934 0.598184 -0.427296
0.710787 0.702181 -0.041519
0.536882 0.497667 0.681238
0.727653 0.036519 0.684973
0.677934 0.598184 -0.427296
0.528322 0.848176 -0.038402
-0.276995 0.517918 -0.809342
-0.362235 0.899842 0.243043
-0.362235 0.899842 0.243043
-0.276995 0.517918 -0.809342
-0.885756 0.379419 -0.267351
-0.387776 -0.696518 0.603732
-0.736938 -0.671531 -0.077262
-0.444281 -0.807597 -0.387817
-0.387776 -0.696518 0.603732
-0.444281 -0.807597 -0.387817
-0.922139 -0.386222 -0.022182
0.685689 0.726941 -0.037253
-0.000348 0.624391 -0.781112
0.018343 0.966070 0.257627
0.018343 0.966070 0.257627
-0.000348 0.624391 -0.781112
-0.081107 0.982041 0.170343
-0.528304 0.196928 -0.825902
-0.885866 -0.309959 -0.345207
-0.864007 0.459782 0.205166
-0.853731 0.517327 -0.059304
-0.528304 0.196928 -0.825902
-0.864007 0.459782 0.205166
0.724725 -0.321427 -0.609474
0.188702 0.029028 -0.981605
0.188821 -0.067231 -0.979707
0.188702 0.029028 -0.981605
-0.002787 -0.189669 -0.981844
0.188821 -0.067231 -0.979707
-0.671359 -0.126875 0.730191
-0.864007 0.459782 0.205166
-0.885866 -0.309959 -0.345207
-0.198033 -0.973099 -0.117736
-0.671359 -0.126875 0.730191
-0.885866 -0.309959 -0.345207
-0.444281 -0.807597 -0.387817
-0.737982 -0.288364 -0.610106
-0.922139 -0.386222 -0.022182
-0.737982 -0.288364 -0.610106
-0.471551 0.287514 -0.833652
-0.922139 -0.386222 -0.022182
0.123831 0.505632 0.853816
0.719875 0.640450 0.267587
0.206617 0.264125 0.942097
0.272002 -0.108536 0.956156
0.123831 0.505632 0.853816
0.206617 0.264125 0.942097
</float_array>
          <technique_common>
            <accessor source="#SM_Starfish_03_LOD1-Normal0-array" count="438" stride="3">
              <param name="X" type="float"/>
              <param name="Y" type="float"/>
              <param name="Z" type="float"/>
            </accessor>
          </technique_common>
        </source>
        <source id="SM_Starfish_03_LOD1-UV0">
          <float_array id="SM_Starfish_03_LOD1-UV0-array" count="216">
0.165283 0.756836
0.143799 0.813721
0.068176 0.757568
0.747559 0.278320
0.650879 0.314453
0.743164 0.341797
0.034760 0.670410
0.589844 0.240234
0.230713 0.807739
0.823730 0.310547
0.122437 0.882568
0.742188 0.420898
0.082947 0.810669
0.007694 0.808838
0.682129 0.359375
0.610352 0.381836
0.114043 0.721160
0.200928 0.676758
0.741211 0.194824
0.685506 0.260727
0.085553 0.764487
0.209106 0.687012
0.753418 0.199707
0.131204 0.800821
0.114575 0.740390
0.227051 0.815674
0.822754 0.319336
0.146240 0.692627
0.701172 0.224121
0.097099 0.795451
0.026855 0.677246
0.583984 0.249512
0.147095 0.764038
0.670442 0.316209
0.727445 0.332988
0.113586 0.882690
0.733398 0.423828
0.690893 0.340877
0.004185 0.801025
0.604492 0.375000
0.692406 0.279819
0.032779 0.772114
0.619634 0.339746
0.731445 0.290527
0.052155 0.673340
0.607910 0.237793
0.746971 0.233156
0.189904 0.713476
0.225911 0.798420
0.816366 0.302702
0.146654 0.798011
0.061160 0.810660
0.659735 0.369438
0.139754 0.822104
0.741822 0.357124
0.053441 0.715666
0.213501 0.819824
0.810547 0.327637
0.181654 0.713708
0.063107 0.696361
0.114197 0.728516
0.625552 0.279573
0.125674 0.867315
0.200964 0.792726
0.155453 0.695640
0.028259 0.693848
0.590332 0.265625
0.741211 0.229004
0.012581 0.788696
0.607422 0.359375
0.158691 0.759277
0.722168 0.419922
0.104431 0.873779
0.623047 0.381836
0.019302 0.812500
0.157837 0.813599
0.757324 0.337402
0.088013 0.805664
0.741699 0.282715
0.687988 0.268066
0.153390 0.740123
0.750977 0.218750
0.202637 0.701416
0.627930 0.254883
0.029904 0.679623
0.798170 0.297278
0.164307 0.700928
0.732632 0.419977
0.658203 0.314941
0.724753 0.271248
0.172241 0.681641
0.718262 0.207031
0.169556 0.742676
0.742676 0.268066
0.038412 0.773888
0.138006 0.810115
0.074951 0.760132
0.806959 0.324638
0.129395 0.873779
0.747559 0.412109
0.198242 0.699951
0.107569 0.868568
0.596191 0.263672
0.048680 0.728546
0.622387 0.291190
0.719888 0.213791
0.075317 0.796517
0.205811 0.688232
</float_array>
          <technique_common>
            <accessor source="#SM_Starfish_03_LOD1-UV0-array" count="108" stride="2">
              <param name="S" type="float"/>
              <param name="T" type="float"/>
            </accessor>
          </technique_common>
        </source>
        <vertices id="SM_Starfish_03_LOD1-VERTEX">
          <input semantic="POSITION" source="#SM_Starfish_03_LOD1-POSITION"/>
        </vertices>
        <triangles count="146" material="MAT_Sea_Shells">
          <input semantic="VERTEX" offset="0" source="#SM_Starfish_03_LOD1-VERTEX"/>
          <input semantic="NORMAL" offset="1" source="#SM_Starfish_03_LOD1-Normal0"/>
          <input semantic="TEXCOORD" offset="2" set="0" source="#SM_Starfish_03_LOD1-UV0"/>
          <p> 46 0 59 12 1 24 39 2 55 67 3 87 29 4 37 11 5 14 69 6 97 15 7 34 33 8 76 12 9 24 46 10 59 43 11 60 53 12 61 61 13 83 16 14 31 39 15 55 0 16 2 41 17 103 34 18 45 61 19 83 64 20 79 38 21 67 71 22 89 47 23 78 52 24 99 60 25 54 15 26 34 25 27 29 44 28 101 50 29 77 42 30 73 29 31 37 18 32 33 68 33 94 10 34 20 48 35 68 74 36 50 24 37 32 51 38 63 56 39 85 47 40 78 27 41 43 12 42 24 43 43 60 58 44 64 36 45 105 71 46 89 38 47 67 45 48 56 33 49 75 74 50 50 13 51 23 54 52 95 40 53 62 42 54 73 32 55 52 29 56 37 32 57 51 42 58 74 62 59 106 51 60 63 24 61 32 37 62 70 49 63 80 57 64 58 37 65 70 12 66 24 25 67 29 10 68 20 10 69 20 62 70 106 7 71 13 9 72 18 36 73 105 38 74 67 49 75 80 26 76 86 59 77 107 56 78 85 27 79 43 15 80 34 29 81 37 5 82 40 18 83 33 46 84 59 39 85 55 72 86 84 16 87 31 61 88 83 4 89 7 56 90 85 15 91 34 69 92 97 17 93 25 74 94 50 51 95 63 0 96 4 53 97 61 41 98 104 48 99 69 18 100 33 23 101 42 64 102 79 5 103 40 19 104 28 58 105 64 43 106 60 19 107 27 13 108 23 40 109 62 44 110 101 52 111 99 15 112 34 67 113 87 10 114 20 7 115 13 21 116 38 7 117 15 18 118 33 21 119 39 9 120 18 38 121 67 14 122 22 49 123 80 59 124 107 57 125 58 55 126 96 10 127 20 68 128 94 23 129 42 18 130 33 73 131 88 12 132 24 24 133 32 25 134 29 12 135 24 26 136 86 49 137 80 25 138 29 13 139 23 44 140 101 24 141 32 13 142 23 25 143 29 58 144 64 19 145 27 63 146 90 9 147 17 59 148 107 26 149 86 36 150 105 5 151 40 71 152 89 27 153 43 5 154 40 29 155 37 14 156 22 38 157 67 28 158 81 59 159 107 66 160 100 57 161 58 27 162 43 29 163 37 15 164 34 15 165 34 29 166 37 67 167 87 56 168 85 69 169 97 8 170 9 30 171 48 51 172 63 37 173 70 72 174 84 39 175 55 31 176 65 53 177 61 16 178 31 70 179 102 62 180 106 50 181 77 32 182 51 11 183 14 29 184 37 32 185 52 74 186 50 33 187 75 54 188 95 33 189 76 15 190 34 2 191 5 61 192 83 34 193 45 4 194 7 46 195 59 34 196 44 43 197 60 35 198 71 67 199 87 11 200 14 44 201 101 40 202 62 20 203 35 19 204 28 36 205 105 63 206 91 5 207 40 36 208 105 19 209 28 37 210 70 57 211 58 65 212 92 30 213 48 37 214 70 1 215 0 28 216 81 38 217 67 22 218 46 22 219 46 38 220 67 65 221 93 39 222 55 10 223 20 55 224 96 12 225 24 10 226 20 39 227 55 40 228 62 6 229 10 20 230 35 40 231 62 60 232 53 52 233 98 53 234 61 70 235 102 41 236 104 31 237 65 39 238 55 41 239 103 42 240 73 18 241 33 7 242 15 62 243 106 42 244 74 7 245 13 43 246 60 34 247 44 3 248 16 43 249 60 3 250 16 19 251 27 44 252 101 35 253 72 11 254 12 44 255 101 20 256 35 35 257 72 17 258 25 45 259 56 74 260 50 8 261 9 69 262 97 17 263 26 46 264 59 4 265 6 34 266 44 4 267 6 46 268 59 72 269 84 38 270 67 47 271 78 65 272 93 47 273 78 56 274 85 1 275 3 48 276 68 10 277 20 21 278 38 21 279 39 18 280 33 48 281 69 49 282 80 24 283 32 12 284 24 49 285 80 37 286 70 24 287 32 50 288 77 44 289 101 11 290 12 32 291 51 50 292 77 11 293 12 17 294 25 51 295 63 8 296 8 8 297 8 51 298 63 30 299 48 6 300 10 40 301 62 52 302 98 6 303 11 52 304 99 67 305 87 18 306 33 5 307 40 53 308 61 18 309 33 53 310 61 73 311 88 40 312 62 54 313 95 60 314 53 54 315 95 33 316 75 2 317 1 55 318 96 68 319 94 0 320 2 39 321 55 55 322 96 0 323 2 56 324 85 8 325 9 30 326 49 1 327 3 56 328 85 30 329 49 57 330 58 22 331 47 65 332 92 57 333 58 66 334 100 22 335 47 12 336 24 58 337 64 26 338 86 9 339 17 26 340 86 58 341 64 59 342 107 14 343 21 28 344 82 59 345 107 9 346 17 14 347 21 60 348 54 2 349 5 15 350 34 54 351 95 2 352 1 60 353 53 5 354 40 61 355 83 53 356 61 61 357 83 5 358 40 64 359 79 25 360 29 62 361 106 10 362 20 25 363 29 50 364 77 62 365 106 9 366 17 58 367 64 63 368 90 36 369 105 9 370 18 63 371 91 34 372 45 64 373 79 3 374 19 3 375 19 64 376 79 19 377 28 65 378 93 47 379 78 1 380 3 37 381 70 65 382 92 1 383 0 66 384 100 28 385 82 22 386 47 66 387 100 59 388 107 28 389 82 6 390 11 67 391 87 20 392 36 20 393 36 67 394 87 35 395 71 68 396 94 48 397 68 23 398 41 68 399 94 23 400 41 0 401 2 17 402 26 69 403 97 45 404 57 45 405 57 69 406 97 33 407 76 70 408 102 16 409 31 31 410 66 41 411 104 70 412 102 31 413 66 47 414 78 71 415 89 27 416 43 71 417 89 5 418 40 27 419 43 72 420 84 31 421 65 16 422 30 4 423 6 72 424 84 16 425 30 23 426 42 73 427 88 0 428 4 73 429 88 53 430 61 0 431 4 74 432 50 54 433 95 13 434 23 24 435 32 74 436 50 13 437 23</p>
        </triangles>
      </mesh>
    </geometry>
  </library_geometries>
  <library_visual_scenes>
    <visual_scene id="SM_Starfish_03" name="SM_Starfish_03">
      <node name="SM_Starfish_03_LOD0" id="SM_Starfish_03_LOD0" layer="shells" sid="SM_Starfish_03_LOD0">
        <matrix sid="matrix">1.000000 0.000000 0.000000 0.000000 0.000000 0.000000 1.000000 0.000000 0.000000 -1.000000 0.000000 0.000000 0.000000 0.000000 0.000000 1.000000</matrix>
        <instance_geometry url="#SM_Starfish_03_LOD0-lib">
          <bind_material>
            <technique_common>
              <instance_material symbol="MAT_Sea_Shells" target="#MAT_Sea_Shells"/>
            </technique_common>
          </bind_material>
        </instance_geometry>
        <extra>
          <technique profile="FCOLLADA">
            <visibility>1.000000</visibility>
          </technique>
        </extra>
      </node>
      <node name="SM_Starfish_03_LOD1" id="SM_Starfish_03_LOD1" layer="shells" sid="SM_Starfish_03_LOD1">
        <matrix sid="matrix">1.000000 0.000000 0.000000 0.000000 0.000000 0.000000 1.000000 0.000000 0.000000 -1.000000 0.000000 0.000000 0.000000 0.000000 0.000000 1.000000</matrix>
        <instance_geometry url="#SM_Starfish_03_LOD1-lib">
          <bind_material>
            <technique_common>
              <instance_material symbol="MAT_Sea_Shells" target="#MAT_Sea_Shells"/>
            </technique_common>
          </bind_material>
        </instance_geometry>
        <extra>
          <technique profile="FCOLLADA">
            <visibility>1.000000</visibility>
          </technique>
        </extra>
      </node>
      <extra>
        <technique profile="MAX3D">
          <frame_rate>30.000000</frame_rate>
        </technique>
        <technique profile="FCOLLADA">
          <start_time>0.000000</start_time>
          <end_time>3.333333</end_time>
        </technique>
      </extra>
    </visual_scene>
  </library_visual_scenes>
  <scene>
    <instance_visual_scene url="#SM_Starfish_03"/>
  </scene>
</COLLADA>
