<?xml version="1.0" encoding="utf-8"?>
<COLLADA xmlns="http://www.collada.org/2005/11/COLLADASchema" version="1.4.1">
  <asset>
    <contributor>
      <author/>
      <authoring_tool>FBX COLLADA exporter</authoring_tool>
      <comments/>
    </contributor>
    <created>2024-02-10T11:42:39Z</created>
    <keywords/>
    <modified>2024-02-10T11:42:39Z</modified>
    <revision/>
    <subject/>
    <title/>
    <unit meter="0.010000" name="centimeter"/>
    <up_axis>Y_UP</up_axis>
  </asset>
  <library_materials>
    <material id="MAT_Sea_Shells" name="MAT_Sea_Shells">
      <instance_effect url="#MAT_Sea_Shells-fx"/>
    </material>
  </library_materials>
  <library_effects>
    <effect id="MAT_Sea_Shells-fx" name="MAT_Sea_Shells">
      <profile_COMMON>
        <technique sid="standard">
          <phong>
            <emission>
              <color sid="emission">0.000000  0.000000 0.000000 1.000000</color>
            </emission>
            <ambient>
              <color sid="ambient">0.588235  0.588235 0.588235 1.000000</color>
            </ambient>
            <diffuse>
              <color sid="diffuse">0.588235  0.588235 0.588235 1.000000</color>
            </diffuse>
            <specular>
              <color sid="specular">0.000000  0.000000 0.000000 1.000000</color>
            </specular>
            <shininess>
              <float sid="shininess">2.000000</float>
            </shininess>
            <reflective>
              <color sid="reflective">0.000000  0.000000 0.000000 1.000000</color>
            </reflective>
            <reflectivity>
              <float sid="reflectivity">1.000000</float>
            </reflectivity>
            <transparent opaque="RGB_ZERO">
              <color sid="transparent">1.000000  1.000000 1.000000 1.000000</color>
            </transparent>
            <transparency>
              <float sid="transparency">0.000000</float>
            </transparency>
          </phong>
        </technique>
      </profile_COMMON>
    </effect>
  </library_effects>
  <library_geometries>
    <geometry id="SM_Sand_Dollar_02_LOD0-lib" name="SM_Sand_Dollar_02_LOD0Mesh">
      <mesh>
        <source id="SM_Sand_Dollar_02_LOD0-POSITION">
          <float_array id="SM_Sand_Dollar_02_LOD0-POSITION-array" count="258">
7.916763 7.030518 0.418749
11.026840 -0.136810 0.821621
10.623398 -0.148743 0.408028
11.284317 -3.240204 0.836275
10.864548 -3.152649 0.430888
10.490265 -5.870758 0.864531
10.089447 -5.665741 0.480587
7.941986 -7.633606 0.499672
5.663162 -9.025330 0.486525
0.260330 -10.617401 0.870344
-3.821350 -9.852448 0.855346
-3.921600 -9.469788 0.374539
-7.708145 -7.686096 0.272413
-9.801254 -4.961090 0.366624
-10.042511 -5.239288 0.813756
-10.625778 -3.833405 0.415618
-10.909546 -1.877197 0.469176
-10.742737 0.900146 0.821627
-10.328644 0.917603 0.469176
-9.644363 2.887268 0.442242
-8.030716 7.045166 0.811084
-5.887024 8.658966 0.298619
-3.501434 9.806580 0.305855
0.137085 10.073700 0.397453
3.316269 9.509705 0.425881
1.732071 10.410553 0.818298
5.443100 8.893921 0.426778
1.624298 10.017670 0.424045
-1.592163 10.306030 0.358807
-7.666595 6.792603 0.337070
-8.852417 4.828918 0.387072
-8.998291 -6.498383 0.284976
-6.190460 -8.487244 0.346365
0.118851 -10.279694 0.416782
2.432831 -10.306274 0.463714
0.353149 -0.131073 -0.000000
9.737381 2.732300 0.407200
8.981506 4.948608 0.411939
10.089447 -5.665741 1.308195
10.864548 -3.152649 1.306269
10.146393 2.809814 0.817329
9.371826 5.108032 0.816879
8.981506 4.948608 1.288315
8.260513 7.261749 0.817551
7.916763 7.030518 1.278044
5.716888 9.187103 0.817958
3.514359 9.878784 0.818164
3.316269 9.509705 1.270898
0.126938 10.444885 0.816367
0.137085 10.073700 1.301909
-1.676636 10.658112 0.813411
-5.887024 8.658966 1.415170
-3.718109 10.126068 0.810127
-6.187195 8.967194 0.808819
-7.666595 6.792603 1.367485
-9.249786 5.013580 0.814387
-10.064056 2.976929 0.819430
-9.644363 2.887268 1.257121
-10.328644 0.917603 1.230188
-10.909546 -1.877197 1.230188
-11.284332 -1.974823 0.821627
-10.625778 -3.833405 1.283747
-10.897202 -4.046143 0.817667
-9.801254 -4.961090 1.332741
-9.145065 -6.853180 0.808081
-7.762985 -8.070557 0.816339
-6.123032 -8.880096 0.845806
-6.190460 -8.487244 1.433656
0.118851 -10.279694 1.403938
2.432831 -10.306274 1.366559
2.659836 -10.658112 0.882479
5.663162 -9.025330 1.344517
5.940186 -9.355713 0.885417
8.286896 -7.905365 0.881089
7.941986 -7.633606 1.319920
-3.921600 -9.469788 1.422483
-7.708145 -7.686096 1.445878
-8.998291 -6.498383 1.414087
0.353149 -0.131073 1.698953
-8.852417 4.828918 1.312290
-3.501434 9.806580 1.414170
-1.592163 10.306030 1.340555
1.624298 10.017670 1.275318
5.443100 8.893921 1.267126
9.737381 2.732300 1.295809
10.623398 -0.148743 1.302858
</float_array>
          <technique_common>
            <accessor source="#SM_Sand_Dollar_02_LOD0-POSITION-array" count="86" stride="3">
              <param name="X" type="float"/>
              <param name="Y" type="float"/>
              <param name="Z" type="float"/>
            </accessor>
          </technique_common>
        </source>
        <source id="SM_Sand_Dollar_02_LOD0-Normal0">
          <float_array id="SM_Sand_Dollar_02_LOD0-Normal0-array" count="1512">
0.295973 0.253010 -0.921079
0.450465 0.892062 -0.036156
0.762795 0.645629 -0.036141
0.919987 0.390091 -0.038128
0.295973 0.253010 -0.921079
0.762795 0.645629 -0.036141
0.362391 0.155256 -0.919004
0.295973 0.253010 -0.921079
0.919987 0.390091 -0.038128
0.382139 0.124121 -0.915731
0.362391 0.155256 -0.919004
0.919987 0.390091 -0.038128
0.951267 0.306003 -0.038128
0.382139 0.124121 -0.915731
0.919987 0.390091 -0.038128
0.395686 0.071335 -0.915611
0.382139 0.124121 -0.915731
0.951267 0.306003 -0.038128
0.981702 0.186574 -0.038093
0.395686 0.071335 -0.915611
0.951267 0.306003 -0.038128
0.380138 -0.049854 -0.923585
0.395686 0.071335 -0.915611
0.981702 0.186574 -0.038093
0.993787 -0.104567 -0.038110
0.380138 -0.049854 -0.923585
0.981702 0.186574 -0.038093
0.305848 -0.206235 -0.929475
0.380138 -0.049854 -0.923585
0.993787 -0.104567 -0.038110
0.845498 -0.532752 -0.036167
0.305848 -0.206235 -0.929475
0.993787 -0.104567 -0.038110
0.603266 -0.796806 -0.034217
0.305848 -0.206235 -0.929475
0.845498 -0.532752 -0.036167
0.229787 -0.306033 -0.923873
0.305848 -0.206235 -0.929475
0.603266 -0.796806 -0.034217
0.448903 -0.892847 -0.036187
0.229787 -0.306033 -0.923873
0.603266 -0.796806 -0.034217
0.178811 -0.350756 -0.919237
0.229787 -0.306033 -0.923873
0.448903 -0.892847 -0.036187
0.174887 -0.983851 -0.038101
0.178811 -0.350756 -0.919237
0.448903 -0.892847 -0.036187
0.083064 -0.415320 -0.905875
0.178811 -0.350756 -0.919237
0.174887 -0.983851 -0.038101
-0.098757 -0.994381 -0.038134
0.083064 -0.415320 -0.905875
0.174887 -0.983851 -0.038101
-0.036148 -0.462061 -0.886111
0.083064 -0.415320 -0.905875
-0.098757 -0.994381 -0.038134
-0.292454 -0.955518 -0.038148
-0.036148 -0.462061 -0.886111
-0.098757 -0.994381 -0.038134
-0.133894 -0.462241 -0.876587
-0.036148 -0.462061 -0.886111
-0.292454 -0.955518 -0.038148
-0.419011 -0.907262 -0.036134
-0.133894 -0.462241 -0.876587
-0.292454 -0.955518 -0.038148
-0.188782 -0.452809 -0.871393
-0.133894 -0.462241 -0.876587
-0.419011 -0.907262 -0.036134
-0.564479 -0.824737 -0.034243
-0.188782 -0.452809 -0.871393
-0.419011 -0.907262 -0.036134
-0.262833 -0.407505 -0.874562
-0.188782 -0.452809 -0.871393
-0.564479 -0.824737 -0.034243
-0.790907 -0.611086 -0.032265
-0.262833 -0.407505 -0.874562
-0.564479 -0.824737 -0.034243
-0.389868 -0.282387 -0.876505
-0.262833 -0.407505 -0.874562
-0.790907 -0.611086 -0.032265
-0.855253 -0.517081 -0.034213
-0.389868 -0.282387 -0.876505
-0.790907 -0.611086 -0.032265
-0.407500 -0.219867 -0.886342
-0.389868 -0.282387 -0.876505
-0.855253 -0.517081 -0.034213
-0.925082 -0.378044 -0.036145
-0.407500 -0.219867 -0.886342
-0.855253 -0.517081 -0.034213
-0.397870 -0.143694 -0.906119
-0.407500 -0.219867 -0.886342
-0.925082 -0.378044 -0.036145
-0.999240 0.014651 -0.036138
-0.397870 -0.143694 -0.906119
-0.925082 -0.378044 -0.036145
-0.401686 0.012708 -0.915689
-0.397870 -0.143694 -0.906119
-0.999240 0.014651 -0.036138
-0.966743 0.253178 -0.036168
-0.401686 0.012708 -0.915689
-0.999240 0.014651 -0.036138
-0.370687 0.092898 -0.924100
-0.401686 0.012708 -0.915689
-0.966743 0.253178 -0.036168
-0.940729 0.337013 -0.038100
-0.370687 0.092898 -0.924100
-0.966743 0.253178 -0.036168
-0.362875 0.118352 -0.924291
-0.370687 0.092898 -0.924100
-0.940729 0.337013 -0.038100
-0.898606 0.437096 -0.038133
-0.362875 0.118352 -0.924291
-0.940729 0.337013 -0.038100
-0.360297 0.161075 -0.918826
-0.362875 0.118352 -0.924291
-0.898606 0.437096 -0.038133
-0.797578 0.601879 -0.040127
-0.360297 0.161075 -0.918826
-0.898606 0.437096 -0.038133
-0.335499 0.241611 -0.910530
-0.360297 0.161075 -0.918826
-0.797578 0.601879 -0.040127
-0.583900 0.810736 -0.042052
-0.335499 0.241611 -0.910530
-0.797578 0.601879 -0.040127
-0.255062 0.348761 -0.901837
-0.335499 0.241611 -0.910530
-0.583900 0.810736 -0.042052
-0.336967 0.940665 -0.040047
-0.255062 0.348761 -0.901837
-0.583900 0.810736 -0.042052
-0.145649 0.431060 -0.890491
-0.255062 0.348761 -0.901837
-0.336967 0.940665 -0.040047
-0.057648 0.997609 -0.038110
-0.145649 0.431060 -0.890491
-0.336967 0.940665 -0.040047
-0.012719 0.449175 -0.893353
-0.145649 0.431060 -0.890491
-0.057648 0.997609 -0.038110
0.086951 0.995556 -0.036151
-0.012719 0.449175 -0.893353
-0.057648 0.997609 -0.038110
0.047886 0.429055 -0.902008
-0.012719 0.449175 -0.893353
0.086951 0.995556 -0.036151
0.069392 0.395775 -0.915722
0.047886 0.429055 -0.902008
0.086951 0.995556 -0.036151
0.161271 0.986247 -0.036167
0.069392 0.395775 -0.915722
0.086951 0.995556 -0.036151
0.116419 0.382516 -0.916585
0.069392 0.395775 -0.915722
0.161271 0.986247 -0.036167
0.288328 0.956849 -0.036163
0.116419 0.382516 -0.916585
0.161271 0.986247 -0.036167
0.178763 0.356477 -0.917043
0.116419 0.382516 -0.916585
0.288328 0.956849 -0.036163
0.450465 0.892062 -0.036156
0.178763 0.356477 -0.917043
0.288328 0.956849 -0.036163
0.295973 0.253010 -0.921079
0.178763 0.356477 -0.917043
0.450465 0.892062 -0.036156
0.295973 0.253010 -0.921079
0.000978 0.000978 -0.999999
0.178763 0.356477 -0.917043
0.000978 0.000978 -0.999999
0.116419 0.382516 -0.916585
0.178763 0.356477 -0.917043
0.000978 0.000978 -0.999999
0.069392 0.395775 -0.915722
0.116419 0.382516 -0.916585
0.000978 0.000978 -0.999999
0.047886 0.429055 -0.902008
0.069392 0.395775 -0.915722
0.000978 0.000978 -0.999999
-0.012719 0.449175 -0.893353
0.047886 0.429055 -0.902008
0.000978 0.000978 -0.999999
-0.145649 0.431060 -0.890491
-0.012719 0.449175 -0.893353
0.000978 0.000978 -0.999999
-0.255062 0.348761 -0.901837
-0.145649 0.431060 -0.890491
0.000978 0.000978 -0.999999
-0.335499 0.241611 -0.910530
-0.255062 0.348761 -0.901837
0.000978 0.000978 -0.999999
-0.360297 0.161075 -0.918826
-0.335499 0.241611 -0.910530
0.000978 0.000978 -0.999999
-0.362875 0.118352 -0.924291
-0.360297 0.161075 -0.918826
0.000978 0.000978 -0.999999
-0.370687 0.092898 -0.924100
-0.362875 0.118352 -0.924291
0.000978 0.000978 -0.999999
-0.401686 0.012708 -0.915689
-0.370687 0.092898 -0.924100
0.000978 0.000978 -0.999999
-0.397870 -0.143694 -0.906119
-0.401686 0.012708 -0.915689
0.000978 0.000978 -0.999999
-0.407500 -0.219867 -0.886342
-0.397870 -0.143694 -0.906119
0.000978 0.000978 -0.999999
-0.389868 -0.282387 -0.876505
-0.407500 -0.219867 -0.886342
0.000978 0.000978 -0.999999
-0.262833 -0.407505 -0.874562
-0.389868 -0.282387 -0.876505
0.000978 0.000978 -0.999999
-0.188782 -0.452809 -0.871393
-0.262833 -0.407505 -0.874562
0.000978 0.000978 -0.999999
-0.133894 -0.462241 -0.876587
-0.188782 -0.452809 -0.871393
0.000978 0.000978 -0.999999
-0.036148 -0.462061 -0.886111
-0.133894 -0.462241 -0.876587
0.000978 0.000978 -0.999999
0.083064 -0.415320 -0.905875
-0.036148 -0.462061 -0.886111
0.000978 0.000978 -0.999999
0.178811 -0.350756 -0.919237
0.083064 -0.415320 -0.905875
0.000978 0.000978 -0.999999
0.229787 -0.306033 -0.923873
0.178811 -0.350756 -0.919237
0.000978 0.000978 -0.999999
0.305848 -0.206235 -0.929475
0.229787 -0.306033 -0.923873
0.000978 0.000978 -0.999999
0.380138 -0.049854 -0.923585
0.305848 -0.206235 -0.929475
0.000978 0.000978 -0.999999
0.395686 0.071335 -0.915611
0.380138 -0.049854 -0.923585
0.000978 0.000978 -0.999999
0.382139 0.124121 -0.915731
0.395686 0.071335 -0.915611
0.000978 0.000978 -0.999999
0.362391 0.155256 -0.919004
0.382139 0.124121 -0.915731
0.362391 0.155256 -0.919004
0.000978 0.000978 -0.999999
0.295973 0.253010 -0.921079
0.337309 -0.208279 0.918064
0.603266 -0.796806 -0.034217
0.845498 -0.532752 -0.036167
0.993787 -0.104567 -0.038110
0.337309 -0.208279 0.918064
0.845498 -0.532752 -0.036167
0.415698 -0.040101 0.908618
0.337309 -0.208279 0.918064
0.993787 -0.104567 -0.038110
0.981702 0.186574 -0.038093
0.415698 -0.040101 0.908618
0.993787 -0.104567 -0.038110
0.428777 0.083024 0.899587
0.415698 -0.040101 0.908618
0.981702 0.186574 -0.038093
0.951267 0.306003 -0.038128
0.428777 0.083024 0.899587
0.981702 0.186574 -0.038093
0.415128 0.135777 0.899574
0.428777 0.083024 0.899587
0.951267 0.306003 -0.038128
0.919987 0.390091 -0.038128
0.415128 0.135777 0.899574
0.951267 0.306003 -0.038128
0.919987 0.390091 -0.038128
0.393677 0.168991 0.903582
0.415128 0.135777 0.899574
0.319860 0.274847 0.906724
0.393677 0.168991 0.903582
0.919987 0.390091 -0.038128
0.762795 0.645629 -0.036141
0.319860 0.274847 0.906724
0.919987 0.390091 -0.038128
0.450465 0.892062 -0.036156
0.319860 0.274847 0.906724
0.762795 0.645629 -0.036141
0.194597 0.384234 0.902495
0.319860 0.274847 0.906724
0.450465 0.892062 -0.036156
0.288328 0.956849 -0.036163
0.194597 0.384234 0.902495
0.450465 0.892062 -0.036156
0.126052 0.413322 0.901818
0.194597 0.384234 0.902495
0.288328 0.956849 -0.036163
0.161271 0.986247 -0.036167
0.126052 0.413322 0.901818
0.288328 0.956849 -0.036163
0.075317 0.427438 0.900902
0.126052 0.413322 0.901818
0.161271 0.986247 -0.036167
0.086951 0.995556 -0.036151
0.075317 0.427438 0.900902
0.161271 0.986247 -0.036167
0.086951 0.995556 -0.036151
0.049796 0.461777 0.885597
0.075317 0.427438 0.900902
-0.010741 0.481607 0.876322
0.049796 0.461777 0.885597
0.086951 0.995556 -0.036151
-0.057648 0.997609 -0.038110
-0.010741 0.481607 0.876322
0.086951 0.995556 -0.036151
-0.155279 0.463954 0.872144
-0.010741 0.481607 0.876322
-0.057648 0.997609 -0.038110
-0.336967 0.940665 -0.040047
-0.155279 0.463954 0.872144
-0.057648 0.997609 -0.038110
-0.278334 0.375943 0.883853
-0.155279 0.463954 0.872144
-0.336967 0.940665 -0.040047
-0.583900 0.810736 -0.042052
-0.278334 0.375943 0.883853
-0.336967 0.940665 -0.040047
-0.364401 0.260879 0.893954
-0.278334 0.375943 0.883853
-0.583900 0.810736 -0.042052
-0.797578 0.601879 -0.040127
-0.364401 0.260879 0.893954
-0.583900 0.810736 -0.042052
-0.392151 0.177050 0.902702
-0.364401 0.260879 0.893954
-0.797578 0.601879 -0.040127
-0.898606 0.437096 -0.038133
-0.392151 0.177050 0.902702
-0.797578 0.601879 -0.040127
-0.393775 0.131918 0.909692
-0.392151 0.177050 0.902702
-0.898606 0.437096 -0.038133
-0.940729 0.337013 -0.038100
-0.393775 0.131918 0.909692
-0.898606 0.437096 -0.038133
-0.403311 0.102556 0.909298
-0.393775 0.131918 0.909692
-0.940729 0.337013 -0.038100
-0.966743 0.253178 -0.036168
-0.403311 0.102556 0.909298
-0.940729 0.337013 -0.038100
-0.434970 0.014663 0.900326
-0.403311 0.102556 0.909298
-0.966743 0.253178 -0.036168
-0.999240 0.014651 -0.036138
-0.434970 0.014663 0.900326
-0.966743 0.253178 -0.036168
-0.427246 -0.155449 0.890672
-0.434970 0.014663 0.900326
-0.999240 0.014651 -0.036138
-0.925082 -0.378044 -0.036145
-0.427246 -0.155449 0.890672
-0.999240 0.014651 -0.036138
-0.432684 -0.235415 0.870267
-0.427246 -0.155449 0.890672
-0.925082 -0.378044 -0.036145
-0.855253 -0.517081 -0.034213
-0.432684 -0.235415 0.870267
-0.925082 -0.378044 -0.036145
-0.415707 -0.296402 0.859845
-0.432684 -0.235415 0.870267
-0.855253 -0.517081 -0.034213
-0.790907 -0.611086 -0.032265
-0.415707 -0.296402 0.859845
-0.855253 -0.517081 -0.034213
-0.294111 -0.419232 0.858920
-0.415707 -0.296402 0.859845
-0.790907 -0.611086 -0.032265
-0.564479 -0.824737 -0.034243
-0.294111 -0.419232 0.858920
-0.790907 -0.611086 -0.032265
-0.215910 -0.468059 0.856915
-0.294111 -0.419232 0.858920
-0.564479 -0.824737 -0.034243
-0.419011 -0.907262 -0.036134
-0.215910 -0.468059 0.856915
-0.564479 -0.824737 -0.034243
-0.147535 -0.487430 0.860608
-0.215910 -0.468059 0.856915
-0.419011 -0.907262 -0.036134
-0.292454 -0.955518 -0.038148
-0.147535 -0.487430 0.860608
-0.419011 -0.907262 -0.036134
-0.043981 -0.489618 0.870827
-0.147535 -0.487430 0.860608
-0.292454 -0.955518 -0.038148
-0.098757 -0.994381 -0.038134
-0.043981 -0.489618 0.870827
-0.292454 -0.955518 -0.038148
0.085116 -0.441270 0.893329
-0.043981 -0.489618 0.870827
-0.098757 -0.994381 -0.038134
0.174887 -0.983851 -0.038101
0.085116 -0.441270 0.893329
-0.098757 -0.994381 -0.038134
0.192405 -0.374034 0.907237
0.085116 -0.441270 0.893329
0.174887 -0.983851 -0.038101
0.448903 -0.892847 -0.036187
0.192405 -0.374034 0.907237
0.174887 -0.983851 -0.038101
0.251294 -0.323630 0.912203
0.192405 -0.374034 0.907237
0.448903 -0.892847 -0.036187
0.603266 -0.796806 -0.034217
0.251294 -0.323630 0.912203
0.448903 -0.892847 -0.036187
0.337309 -0.208279 0.918064
0.251294 -0.323630 0.912203
0.603266 -0.796806 -0.034217
0.337309 -0.208279 0.918064
-0.000978 0.006843 0.999976
0.251294 -0.323630 0.912203
-0.000978 0.006843 0.999976
0.192405 -0.374034 0.907237
0.251294 -0.323630 0.912203
-0.000978 0.006843 0.999976
0.085116 -0.441270 0.893329
0.192405 -0.374034 0.907237
-0.000978 0.006843 0.999976
-0.043981 -0.489618 0.870827
0.085116 -0.441270 0.893329
-0.000978 0.006843 0.999976
-0.147535 -0.487430 0.860608
-0.043981 -0.489618 0.870827
-0.000978 0.006843 0.999976
-0.215910 -0.468059 0.856915
-0.147535 -0.487430 0.860608
-0.000978 0.006843 0.999976
-0.294111 -0.419232 0.858920
-0.215910 -0.468059 0.856915
-0.000978 0.006843 0.999976
-0.415707 -0.296402 0.859845
-0.294111 -0.419232 0.858920
-0.000978 0.006843 0.999976
-0.432684 -0.235415 0.870267
-0.415707 -0.296402 0.859845
-0.000978 0.006843 0.999976
-0.427246 -0.155449 0.890672
-0.432684 -0.235415 0.870267
-0.000978 0.006843 0.999976
-0.434970 0.014663 0.900326
-0.427246 -0.155449 0.890672
-0.000978 0.006843 0.999976
-0.403311 0.102556 0.909298
-0.434970 0.014663 0.900326
-0.000978 0.006843 0.999976
-0.393775 0.131918 0.909692
-0.403311 0.102556 0.909298
-0.000978 0.006843 0.999976
-0.392151 0.177050 0.902702
-0.393775 0.131918 0.909692
-0.000978 0.006843 0.999976
-0.364401 0.260879 0.893954
-0.392151 0.177050 0.902702
-0.000978 0.006843 0.999976
-0.278334 0.375943 0.883853
-0.364401 0.260879 0.893954
-0.000978 0.006843 0.999976
-0.155279 0.463954 0.872144
-0.278334 0.375943 0.883853
-0.000978 0.006843 0.999976
-0.010741 0.481607 0.876322
-0.155279 0.463954 0.872144
-0.000978 0.006843 0.999976
0.049796 0.461777 0.885597
-0.010741 0.481607 0.876322
-0.000978 0.006843 0.999976
0.075317 0.427438 0.900902
0.049796 0.461777 0.885597
-0.000978 0.006843 0.999976
0.126052 0.413322 0.901818
0.075317 0.427438 0.900902
-0.000978 0.006843 0.999976
0.194597 0.384234 0.902495
0.126052 0.413322 0.901818
-0.000978 0.006843 0.999976
0.319860 0.274847 0.906724
0.194597 0.384234 0.902495
-0.000978 0.006843 0.999976
0.393677 0.168991 0.903582
0.319860 0.274847 0.906724
-0.000978 0.006843 0.999976
0.415128 0.135777 0.899574
0.393677 0.168991 0.903582
-0.000978 0.006843 0.999976
0.428777 0.083024 0.899587
0.415128 0.135777 0.899574
-0.000978 0.006843 0.999976
0.415698 -0.040101 0.908618
0.428777 0.083024 0.899587
0.415698 -0.040101 0.908618
-0.000978 0.006843 0.999976
0.337309 -0.208279 0.918064
</float_array>
          <technique_common>
            <accessor source="#SM_Sand_Dollar_02_LOD0-Normal0-array" count="504" stride="3">
              <param name="X" type="float"/>
              <param name="Y" type="float"/>
              <param name="Z" type="float"/>
            </accessor>
          </technique_common>
        </source>
        <source id="SM_Sand_Dollar_02_LOD0-UV0">
          <float_array id="SM_Sand_Dollar_02_LOD0-UV0-array" count="228">
0.506836 0.092773
0.494385 0.102539
0.505371 0.091797
0.506836 0.092773
0.494385 0.102539
0.512207 0.082031
0.512207 0.082031
0.516113 0.070801
0.510254 0.081543
0.520508 0.056152
0.521973 0.041016
0.514160 0.070313
0.518066 0.027832
0.506836 0.018066
0.516113 0.070801
0.495605 0.010742
0.479492 0.004395
0.518555 0.056152
0.467529 0.004395
0.447266 0.008301
0.520508 0.056152
0.436035 0.013184
0.427979 0.017090
0.519531 0.041504
0.421143 0.022949
0.416748 0.031250
0.521973 0.041016
0.412354 0.037109
0.410645 0.047363
0.516113 0.028809
0.413330 0.061523
0.416504 0.071777
0.518066 0.027832
0.420654 0.081543
0.426514 0.091797
0.506836 0.018066
0.435791 0.101074
0.447998 0.106934
0.505371 0.019531
0.458008 0.109375
0.466797 0.108398
0.495605 0.010742
0.474854 0.108398
0.483643 0.105957
0.494141 0.012207
0.479492 0.004395
0.478271 0.005859
0.467529 0.004395
0.466797 0.006348
0.447266 0.008301
0.446777 0.010254
0.436035 0.013184
0.435791 0.015137
0.427979 0.017090
0.428223 0.019043
0.421143 0.022949
0.421875 0.024902
0.416748 0.031250
0.417969 0.032715
0.412354 0.037109
0.413818 0.038086
0.410645 0.047363
0.412354 0.047852
0.413330 0.061523
0.415283 0.061523
0.416504 0.071777
0.418701 0.071289
0.420654 0.081543
0.422607 0.081055
0.426514 0.091797
0.428467 0.090332
0.435791 0.101074
0.437256 0.099609
0.447998 0.106934
0.448975 0.105469
0.458008 0.109375
0.458496 0.107910
0.466797 0.108398
0.467041 0.106934
0.474365 0.106445
0.474854 0.108398
0.482666 0.104004
0.483643 0.105957
0.493164 0.101074
0.468018 0.056152
0.516113 0.028809
0.519531 0.041504
0.518555 0.056152
0.514160 0.070313
0.510254 0.081543
0.505371 0.091797
0.493164 0.101074
0.482666 0.104004
0.474365 0.106445
0.467041 0.106934
0.458496 0.107910
0.448975 0.105469
0.437256 0.099609
0.428467 0.090332
0.422607 0.081055
0.418701 0.071289
0.415283 0.061523
0.412354 0.047852
0.413818 0.038086
0.417969 0.032715
0.421875 0.024902
0.428223 0.019043
0.435791 0.015137
0.446777 0.010254
0.466797 0.006348
0.478271 0.005859
0.494141 0.012207
0.505371 0.019531
0.468018 0.056152
</float_array>
          <technique_common>
            <accessor source="#SM_Sand_Dollar_02_LOD0-UV0-array" count="114" stride="2">
              <param name="S" type="float"/>
              <param name="T" type="float"/>
            </accessor>
          </technique_common>
        </source>
        <vertices id="SM_Sand_Dollar_02_LOD0-VERTEX">
          <input semantic="POSITION" source="#SM_Sand_Dollar_02_LOD0-POSITION"/>
        </vertices>
        <triangles count="168" material="MAT_Sea_Shells">
          <input semantic="VERTEX" offset="0" source="#SM_Sand_Dollar_02_LOD0-VERTEX"/>
          <input semantic="NORMAL" offset="1" source="#SM_Sand_Dollar_02_LOD0-Normal0"/>
          <input semantic="TEXCOORD" offset="2" set="0" source="#SM_Sand_Dollar_02_LOD0-UV0"/>
          <p> 0 0 2 45 1 4 43 2 3 41 3 6 0 4 2 43 5 3 37 6 8 0 7 2 41 8 6 36 9 11 37 10 8 41 11 6 40 12 7 36 13 11 41 14 6 2 15 17 36 16 11 40 17 7 1 18 9 2 19 17 40 20 7 4 21 23 2 22 17 1 23 9 3 24 10 4 25 23 1 26 9 6 27 29 4 28 23 3 29 10 5 30 12 6 31 29 3 32 10 73 33 13 6 34 29 5 35 12 7 36 38 6 37 29 73 38 13 72 39 15 7 40 38 73 41 13 8 42 44 7 43 38 72 44 15 70 45 16 8 46 44 72 47 15 34 48 46 8 49 44 70 50 16 9 51 18 34 52 46 70 53 16 33 54 48 34 55 46 9 56 18 10 57 19 33 58 48 9 59 18 11 60 50 33 61 48 10 62 19 66 63 21 11 64 50 10 65 19 32 66 52 11 67 50 66 68 21 65 69 22 32 70 52 66 71 21 12 72 54 32 73 52 65 74 22 64 75 24 12 76 54 65 77 22 31 78 56 12 79 54 64 80 24 14 81 25 31 82 56 64 83 24 13 84 58 31 85 56 14 86 25 62 87 27 13 88 58 14 89 25 15 90 60 13 91 58 62 92 27 60 93 28 15 94 60 62 95 27 16 96 62 15 97 60 60 98 28 17 99 30 16 100 62 60 101 28 18 102 64 16 103 62 17 104 30 56 105 31 18 106 64 17 107 30 19 108 66 18 109 64 56 110 31 55 111 33 19 112 66 56 113 31 30 114 68 19 115 66 55 116 33 20 117 34 30 118 68 55 119 33 29 120 70 30 121 68 20 122 34 53 123 36 29 124 70 20 125 34 21 126 72 29 127 70 53 128 36 52 129 37 21 130 72 53 131 36 22 132 74 21 133 72 52 134 37 50 135 39 22 136 74 52 137 37 28 138 76 22 139 74 50 140 39 48 141 40 28 142 76 50 143 39 23 144 78 28 145 76 48 146 40 27 147 79 23 148 78 48 149 40 25 150 42 27 151 79 48 152 40 24 153 81 27 154 79 25 155 42 46 156 43 24 157 81 25 158 42 26 159 83 24 160 81 46 161 43 45 162 4 26 163 83 46 164 43 0 165 2 26 166 83 45 167 4 0 168 2 35 169 84 26 170 83 35 171 84 24 172 81 26 173 83 35 174 84 27 175 79 24 176 81 35 177 84 23 178 78 27 179 79 35 180 84 28 181 76 23 182 78 35 183 84 22 184 74 28 185 76 35 186 84 21 187 72 22 188 74 35 189 84 29 190 70 21 191 72 35 192 84 30 193 68 29 194 70 35 195 84 19 196 66 30 197 68 35 198 84 18 199 64 19 200 66 35 201 84 16 202 62 18 203 64 35 204 84 15 205 60 16 206 62 35 207 84 13 208 58 15 209 60 35 210 84 31 211 56 13 212 58 35 213 84 12 214 54 31 215 56 35 216 84 32 217 52 12 218 54 35 219 84 11 220 50 32 221 52 35 222 84 33 223 48 11 224 50 35 225 84 34 226 46 33 227 48 35 228 84 8 229 44 34 230 46 35 231 84 7 232 38 8 233 44 35 234 84 6 235 29 7 236 38 35 237 84 4 238 23 6 239 29 35 240 84 2 241 17 4 242 23 35 243 84 36 244 11 2 245 17 35 246 84 37 247 8 36 248 11 37 249 8 35 250 84 0 251 2 38 252 85 73 253 35 5 254 32 3 255 26 38 256 85 5 257 32 39 258 86 38 259 85 3 260 26 1 261 20 39 262 86 3 263 26 85 264 87 39 265 86 1 266 20 40 267 14 85 268 87 1 269 20 84 270 88 85 271 87 40 272 14 41 273 5 84 274 88 40 275 14 41 276 5 42 277 89 84 278 88 44 279 90 42 280 89 41 281 5 43 282 0 44 283 90 41 284 5 45 285 1 44 286 90 43 287 0 83 288 91 44 289 90 45 290 1 46 291 82 83 292 91 45 293 1 47 294 92 83 295 91 46 296 82 25 297 80 47 298 92 46 299 82 82 300 93 47 301 92 25 302 80 48 303 77 82 304 93 25 305 80 48 306 77 49 307 94 82 308 93 81 309 95 49 310 94 48 311 77 50 312 75 81 313 95 48 314 77 80 315 96 81 316 95 50 317 75 52 318 73 80 319 96 50 320 75 51 321 97 80 322 96 52 323 73 53 324 71 51 325 97 52 326 73 54 327 98 51 328 97 53 329 71 20 330 69 54 331 98 53 332 71 79 333 99 54 334 98 20 335 69 55 336 67 79 337 99 20 338 69 57 339 100 79 340 99 55 341 67 56 342 65 57 343 100 55 344 67 58 345 101 57 346 100 56 347 65 17 348 63 58 349 101 56 350 65 59 351 102 58 352 101 17 353 63 60 354 61 59 355 102 17 356 63 61 357 103 59 358 102 60 359 61 62 360 59 61 361 103 60 362 61 63 363 104 61 364 103 62 365 59 14 366 57 63 367 104 62 368 59 77 369 105 63 370 104 14 371 57 64 372 55 77 373 105 14 374 57 76 375 106 77 376 105 64 377 55 65 378 53 76 379 106 64 380 55 67 381 107 76 382 106 65 383 53 66 384 51 67 385 107 65 386 53 75 387 108 67 388 107 66 389 51 10 390 49 75 391 108 66 392 51 68 393 109 75 394 108 10 395 49 9 396 47 68 397 109 10 398 49 69 399 110 68 400 109 9 401 47 70 402 45 69 403 110 9 404 47 71 405 111 69 406 110 70 407 45 72 408 41 71 409 111 70 410 45 74 411 112 71 412 111 72 413 41 73 414 35 74 415 112 72 416 41 38 417 85 74 418 112 73 419 35 38 420 85 78 421 113 74 422 112 78 423 113 71 424 111 74 425 112 78 426 113 69 427 110 71 428 111 78 429 113 68 430 109 69 431 110 78 432 113 75 433 108 68 434 109 78 435 113 67 436 107 75 437 108 78 438 113 76 439 106 67 440 107 78 441 113 77 442 105 76 443 106 78 444 113 63 445 104 77 446 105 78 447 113 61 448 103 63 449 104 78 450 113 59 451 102 61 452 103 78 453 113 58 454 101 59 455 102 78 456 113 57 457 100 58 458 101 78 459 113 79 460 99 57 461 100 78 462 113 54 463 98 79 464 99 78 465 113 51 466 97 54 467 98 78 468 113 80 469 96 51 470 97 78 471 113 81 472 95 80 473 96 78 474 113 49 475 94 81 476 95 78 477 113 82 478 93 49 479 94 78 480 113 47 481 92 82 482 93 78 483 113 83 484 91 47 485 92 78 486 113 44 487 90 83 488 91 78 489 113 42 490 89 44 491 90 78 492 113 84 493 88 42 494 89 78 495 113 85 496 87 84 497 88 78 498 113 39 499 86 85 500 87 39 501 86 78 502 113 38 503 85</p>
        </triangles>
      </mesh>
    </geometry>
    <geometry id="SM_Sand_Dollar_02_LOD1-lib" name="SM_Sand_Dollar_02_LOD1Mesh">
      <mesh>
        <source id="SM_Sand_Dollar_02_LOD1-POSITION">
          <float_array id="SM_Sand_Dollar_02_LOD1-POSITION-array" count="105">
-8.030716 7.045166 0.811084
-11.284332 -1.974823 0.821627
11.284317 -3.240204 0.836275
2.659836 -10.658112 0.882479
-8.633224 -7.278107 0.811486
8.260513 7.261749 0.817551
-1.676636 10.658112 0.813411
8.286896 -7.905365 0.881089
5.716888 9.187103 0.817958
-2.199829 10.147064 1.363984
-6.187195 8.967194 0.808819
10.490265 -5.870758 0.864531
0.353149 -0.131073 -0.000000
-10.742737 0.900146 0.821627
-3.854782 -9.724792 0.694961
1.732071 10.410553 0.818298
11.026840 -0.136810 0.821621
5.940186 -9.355713 0.885417
9.371826 5.108032 0.816879
0.353149 -0.131073 1.698953
-9.249786 5.013580 0.814387
-10.897202 -4.046143 0.817667
-8.555923 -6.905640 1.424987
1.516663 -10.295746 1.381359
-8.564529 -6.897705 0.280752
3.814835 9.373077 1.270619
10.757721 -1.821960 1.304758
7.984955 6.897156 1.278702
-5.887024 8.658966 1.415170
-8.057556 6.145203 1.349288
-3.921600 -9.469788 1.422483
10.757233 -1.815887 0.420715
1.481277 -10.295349 0.444415
-10.817734 -1.435455 1.230188
6.427765 -8.558380 1.336264
</float_array>
          <technique_common>
            <accessor source="#SM_Sand_Dollar_02_LOD1-POSITION-array" count="35" stride="3">
              <param name="X" type="float"/>
              <param name="Y" type="float"/>
              <param name="Z" type="float"/>
            </accessor>
          </technique_common>
        </source>
        <source id="SM_Sand_Dollar_02_LOD1-Normal0">
          <float_array id="SM_Sand_Dollar_02_LOD1-Normal0-array" count="594">
0.004354 -0.000002 0.999991
-0.205152 -0.607193 0.767613
-0.041806 -0.580421 0.813242
0.000954 0.009542 -0.999954
-0.960195 -0.062794 -0.272181
-0.888208 0.365978 -0.277754
0.413902 0.003505 0.910315
0.004354 -0.000002 0.999991
0.749508 -0.661902 -0.011134
0.000954 0.009542 -0.999954
-0.024528 -0.530101 -0.847580
-0.236899 -0.823400 -0.515646
0.000954 0.009542 -0.999954
-0.383966 -0.355648 -0.852106
-0.982729 -0.182524 -0.030472
0.004354 -0.000002 0.999991
-0.982729 -0.182524 -0.030472
-0.418265 -0.363660 0.832349
0.000954 0.009542 -0.999954
0.376007 0.003807 -0.926609
0.749508 -0.661902 -0.011134
0.004354 -0.000002 0.999991
0.413902 0.003505 0.910315
0.353026 0.279114 0.893010
0.004354 -0.000002 0.999991
-0.381708 0.232175 0.894647
-0.408629 0.002903 0.912696
0.000954 0.009542 -0.999954
-0.544451 0.745651 -0.384158
-0.025384 0.945102 -0.325788
0.004354 -0.000002 0.999991
-0.041806 -0.580421 0.813242
0.225868 -0.332459 0.915672
0.000954 0.009542 -0.999954
0.437249 -0.854460 -0.280556
-0.024528 -0.530101 -0.847580
0.000954 0.009542 -0.999954
0.707914 0.632404 -0.314520
0.376007 0.003807 -0.926609
0.004354 -0.000002 0.999991
0.353026 0.279114 0.893010
0.135965 0.420003 0.897280
-0.115568 0.519800 0.846435
0.135965 0.420003 0.897280
-0.025384 0.945102 -0.325788
-0.544451 0.745651 -0.384158
-0.115568 0.519800 0.846435
-0.025384 0.945102 -0.325788
0.000954 0.009542 -0.999954
-0.888208 0.365978 -0.277754
-0.544451 0.745651 -0.384158
-0.381708 0.232175 0.894647
-0.298862 0.426416 0.853728
-0.544451 0.745651 -0.384158
0.000954 0.009542 -0.999954
0.749508 -0.661902 -0.011134
0.437249 -0.854460 -0.280556
0.749508 -0.661902 -0.011134
0.004354 -0.000002 0.999991
0.225868 -0.332459 0.915672
0.707914 0.632404 -0.314520
0.000954 0.009542 -0.999954
0.471193 0.854390 -0.219080
0.000954 0.009542 -0.999954
0.110383 0.974126 -0.197215
0.471193 0.854390 -0.219080
0.004354 -0.000002 0.999991
-0.408629 0.002903 0.912696
-0.982729 -0.182524 -0.030472
-0.888208 0.365978 -0.277754
-0.960195 -0.062794 -0.272181
-0.918835 0.293501 -0.263818
0.004354 -0.000002 0.999991
-0.418265 -0.363660 0.832349
-0.205152 -0.607193 0.767613
0.000954 0.009542 -0.999954
-0.236899 -0.823400 -0.515646
-0.383966 -0.355648 -0.852106
-0.025384 0.945102 -0.325788
0.135965 0.420003 0.897280
0.110383 0.974126 -0.197215
0.000954 0.009542 -0.999954
-0.025384 0.945102 -0.325788
0.110383 0.974126 -0.197215
0.963245 0.265860 -0.038431
0.376007 0.003807 -0.926609
0.919274 0.355352 -0.169296
0.413902 0.003505 0.910315
0.749508 -0.661902 -0.011134
0.976533 -0.212470 -0.035218
0.437249 -0.854460 -0.280556
0.749508 -0.661902 -0.011134
0.636843 -0.730896 -0.245401
0.437249 -0.854460 -0.280556
0.225868 -0.332459 0.915672
0.250205 -0.967371 -0.039883
0.376007 0.003807 -0.926609
0.707914 0.632404 -0.314520
0.919274 0.355352 -0.169296
0.353026 0.279114 0.893010
0.413902 0.003505 0.910315
0.919274 0.355352 -0.169296
0.004354 -0.000002 0.999991
-0.298862 0.426416 0.853728
-0.381708 0.232175 0.894647
0.004354 -0.000002 0.999991
0.135965 0.420003 0.897280
-0.115568 0.519800 0.846435
-0.918835 0.293501 -0.263818
-0.381708 0.232175 0.894647
-0.888208 0.365978 -0.277754
-0.544451 0.745651 -0.384158
-0.888208 0.365978 -0.277754
-0.713700 0.605482 -0.352171
-0.982729 -0.182524 -0.030472
-0.408629 0.002903 0.912696
-0.960195 -0.062794 -0.272181
0.000954 0.009542 -0.999954
-0.982729 -0.182524 -0.030472
-0.960195 -0.062794 -0.272181
-0.205152 -0.607193 0.767613
-0.418265 -0.363660 0.832349
-0.635564 -0.771306 -0.033847
-0.418265 -0.363660 0.832349
-0.982729 -0.182524 -0.030472
-0.635564 -0.771306 -0.033847
0.225868 -0.332459 0.915672
-0.041806 -0.580421 0.813242
0.250205 -0.967371 -0.039883
0.250205 -0.967371 -0.039883
-0.041806 -0.580421 0.813242
-0.236899 -0.823400 -0.515646
-0.383966 -0.355648 -0.852106
-0.236899 -0.823400 -0.515646
-0.635564 -0.771306 -0.033847
-0.982729 -0.182524 -0.030472
-0.383966 -0.355648 -0.852106
-0.635564 -0.771306 -0.033847
0.135965 0.420003 0.897280
0.353026 0.279114 0.893010
0.471193 0.854390 -0.219080
0.110383 0.974126 -0.197215
0.135965 0.420003 0.897280
0.471193 0.854390 -0.219080
0.963245 0.265860 -0.038431
0.413902 0.003505 0.910315
0.976533 -0.212470 -0.035218
0.919274 0.355352 -0.169296
0.413902 0.003505 0.910315
0.963245 0.265860 -0.038431
0.707914 0.632404 -0.314520
0.353026 0.279114 0.893010
0.919274 0.355352 -0.169296
0.471193 0.854390 -0.219080
0.353026 0.279114 0.893010
0.707914 0.632404 -0.314520
0.004354 -0.000002 0.999991
-0.115568 0.519800 0.846435
-0.298862 0.426416 0.853728
-0.298862 0.426416 0.853728
-0.115568 0.519800 0.846435
-0.544451 0.745651 -0.384158
-0.713700 0.605482 -0.352171
-0.381708 0.232175 0.894647
-0.544451 0.745651 -0.384158
-0.888208 0.365978 -0.277754
-0.381708 0.232175 0.894647
-0.713700 0.605482 -0.352171
-0.236899 -0.823400 -0.515646
-0.205152 -0.607193 0.767613
-0.635564 -0.771306 -0.033847
-0.041806 -0.580421 0.813242
-0.205152 -0.607193 0.767613
-0.236899 -0.823400 -0.515646
0.749508 -0.661902 -0.011134
0.376007 0.003807 -0.926609
0.976533 -0.212470 -0.035218
0.976533 -0.212470 -0.035218
0.376007 0.003807 -0.926609
0.963245 0.265860 -0.038431
-0.024528 -0.530101 -0.847580
0.437249 -0.854460 -0.280556
0.250205 -0.967371 -0.039883
-0.236899 -0.823400 -0.515646
-0.024528 -0.530101 -0.847580
0.250205 -0.967371 -0.039883
-0.960195 -0.062794 -0.272181
-0.408629 0.002903 0.912696
-0.918835 0.293501 -0.263818
-0.408629 0.002903 0.912696
-0.381708 0.232175 0.894647
-0.918835 0.293501 -0.263818
0.636843 -0.730896 -0.245401
0.225868 -0.332459 0.915672
0.437249 -0.854460 -0.280556
0.749508 -0.661902 -0.011134
0.225868 -0.332459 0.915672
0.636843 -0.730896 -0.245401
</float_array>
          <technique_common>
            <accessor source="#SM_Sand_Dollar_02_LOD1-Normal0-array" count="198" stride="3">
              <param name="X" type="float"/>
              <param name="Y" type="float"/>
              <param name="Z" type="float"/>
            </accessor>
          </technique_common>
        </source>
        <source id="SM_Sand_Dollar_02_LOD1-UV0">
          <float_array id="SM_Sand_Dollar_02_LOD1-UV0-array" count="106">
0.521973 0.041016
0.423676 0.020921
0.506836 0.092773
0.521973 0.041016
0.506836 0.092773
0.410645 0.047363
0.426514 0.091797
0.426514 0.091797
0.479492 0.004395
0.479492 0.004395
0.506836 0.018066
0.506836 0.018066
0.455466 0.107133
0.494385 0.102539
0.494385 0.102539
0.435791 0.101074
0.435791 0.101074
0.447103 0.008952
0.468018 0.056152
0.518066 0.027832
0.518066 0.027832
0.412354 0.037109
0.412354 0.037109
0.424052 0.022893
0.468018 0.056152
0.424009 0.022932
0.512207 0.082031
0.437256 0.099609
0.426535 0.087273
0.519099 0.047993
0.458008 0.109375
0.458008 0.109375
0.473728 0.006053
0.413330 0.061523
0.410645 0.047363
0.413330 0.061523
0.423676 0.020921
0.474854 0.108398
0.474854 0.108398
0.497909 0.014664
0.505684 0.091140
0.512207 0.082031
0.520508 0.056152
0.520508 0.056152
0.473553 0.006060
0.446777 0.010254
0.412817 0.050013
0.485148 0.103364
0.420654 0.081543
0.420654 0.081543
0.519097 0.048022
0.495605 0.010742
0.495605 0.010742
</float_array>
          <technique_common>
            <accessor source="#SM_Sand_Dollar_02_LOD1-UV0-array" count="53" stride="2">
              <param name="S" type="float"/>
              <param name="T" type="float"/>
            </accessor>
          </technique_common>
        </source>
        <vertices id="SM_Sand_Dollar_02_LOD1-VERTEX">
          <input semantic="POSITION" source="#SM_Sand_Dollar_02_LOD1-POSITION"/>
        </vertices>
        <triangles count="66" material="MAT_Sea_Shells">
          <input semantic="VERTEX" offset="0" source="#SM_Sand_Dollar_02_LOD1-VERTEX"/>
          <input semantic="NORMAL" offset="1" source="#SM_Sand_Dollar_02_LOD1-Normal0"/>
          <input semantic="TEXCOORD" offset="2" set="0" source="#SM_Sand_Dollar_02_LOD1-UV0"/>
          <p> 19 0 24 30 1 45 23 2 32 12 3 18 1 4 5 20 5 49 26 6 29 19 7 24 11 8 19 12 9 18 32 10 44 14 11 17 12 12 18 24 13 25 21 14 22 19 15 24 21 16 21 22 17 23 12 18 18 31 19 50 11 20 20 19 21 24 26 22 29 27 23 40 19 24 24 29 25 28 33 26 46 12 27 18 10 28 16 6 29 30 19 30 24 23 31 32 34 32 39 12 33 18 17 34 52 32 35 44 12 36 18 5 37 2 31 38 50 19 39 24 27 40 40 25 41 47 9 42 12 25 43 47 6 44 30 10 45 15 9 46 12 6 47 31 12 48 18 20 49 49 10 50 16 29 51 28 28 52 27 10 53 15 12 54 18 11 55 20 17 56 52 11 57 19 19 58 24 34 59 39 5 60 2 12 61 18 8 62 14 12 63 18 15 64 37 8 65 14 19 66 24 33 67 46 21 68 21 20 69 49 1 70 5 13 71 35 19 72 24 22 73 23 30 74 45 12 75 18 14 76 17 24 77 25 6 78 30 25 79 47 15 80 38 12 81 18 6 82 30 15 83 37 16 84 42 31 85 50 18 86 26 26 87 29 11 88 19 2 89 3 17 90 52 11 91 20 7 92 10 17 93 51 34 94 39 3 95 8 31 96 50 5 97 2 18 98 26 27 99 40 26 100 29 18 101 26 19 102 24 28 103 27 29 104 28 19 105 24 25 106 47 9 107 12 13 108 35 29 109 28 20 110 48 10 111 16 20 112 49 0 113 7 21 114 21 33 115 46 1 116 34 12 117 18 21 118 22 1 119 5 30 120 45 22 121 23 4 122 1 22 123 23 21 124 21 4 125 36 34 126 39 23 127 32 3 128 8 3 129 8 23 130 32 14 131 17 24 132 25 14 133 17 4 134 1 21 135 22 24 136 25 4 137 1 25 138 47 27 139 40 8 140 13 15 141 37 25 142 47 8 143 13 16 144 43 26 145 29 2 146 3 18 147 26 26 148 29 16 149 43 5 150 4 27 151 40 18 152 41 8 153 13 27 154 40 5 155 4 19 156 24 9 157 12 28 158 27 28 159 27 9 160 12 10 161 15 0 162 6 29 163 28 10 164 15 20 165 48 29 166 28 0 167 6 14 168 17 30 169 45 4 170 1 23 171 32 30 172 45 14 173 17 11 174 20 31 175 50 2 176 0 2 177 0 31 178 50 16 179 42 32 180 44 17 181 52 3 182 9 14 183 17 32 184 44 3 185 9 1 186 34 33 187 46 13 188 33 33 189 46 29 190 28 13 191 35 7 192 11 34 193 39 17 194 51 11 195 19 34 196 39 7 197 11</p>
        </triangles>
      </mesh>
    </geometry>
  </library_geometries>
  <library_visual_scenes>
    <visual_scene id="SM_Sand_Dollar_02" name="SM_Sand_Dollar_02">
      <node name="SM_Sand_Dollar_02_LOD0" id="SM_Sand_Dollar_02_LOD0" layer="shells" sid="SM_Sand_Dollar_02_LOD0">
        <matrix sid="matrix">1.000000 0.000000 0.000000 0.000000 0.000000 0.000000 1.000000 0.000000 0.000000 -1.000000 0.000000 0.000000 0.000000 0.000000 0.000000 1.000000</matrix>
        <instance_geometry url="#SM_Sand_Dollar_02_LOD0-lib">
          <bind_material>
            <technique_common>
              <instance_material symbol="MAT_Sea_Shells" target="#MAT_Sea_Shells"/>
            </technique_common>
          </bind_material>
        </instance_geometry>
        <extra>
          <technique profile="FCOLLADA">
            <visibility>1.000000</visibility>
          </technique>
        </extra>
      </node>
      <node name="SM_Sand_Dollar_02_LOD1" id="SM_Sand_Dollar_02_LOD1" layer="shells" sid="SM_Sand_Dollar_02_LOD1">
        <matrix sid="matrix">1.000000 0.000000 0.000000 0.000000 0.000000 0.000000 1.000000 0.000000 0.000000 -1.000000 0.000000 0.000000 0.000000 0.000000 0.000000 1.000000</matrix>
        <instance_geometry url="#SM_Sand_Dollar_02_LOD1-lib">
          <bind_material>
            <technique_common>
              <instance_material symbol="MAT_Sea_Shells" target="#MAT_Sea_Shells"/>
            </technique_common>
          </bind_material>
        </instance_geometry>
        <extra>
          <technique profile="FCOLLADA">
            <visibility>1.000000</visibility>
          </technique>
        </extra>
      </node>
      <extra>
        <technique profile="MAX3D">
          <frame_rate>30.000000</frame_rate>
        </technique>
        <technique profile="FCOLLADA">
          <start_time>0.000000</start_time>
          <end_time>3.333333</end_time>
        </technique>
      </extra>
    </visual_scene>
  </library_visual_scenes>
  <scene>
    <instance_visual_scene url="#SM_Sand_Dollar_02"/>
  </scene>
</COLLADA>
