# 3ds Max Wavefront OBJ Exporter v0.97b - (c)2007 guruware
# File Created: 10.02.2024 08:45:26

mtllib SM_Barnacle_06.mtl

#
# object SM_Barnacle_06_LOD0
#

v  1.5771 0.0000 -1.6495
v  0.4307 0.0000 -2.3852
v  -1.2333 0.0000 -1.6981
v  -2.3145 0.0000 -0.6089
v  -2.1196 0.0000 0.6736
v  -1.1768 0.7531 0.4001
v  -0.7010 0.7531 1.0245
v  -1.2717 0.0000 1.8936
v  -0.0114 0.7101 1.1649
v  -0.1487 0.0000 2.3852
v  0.9612 0.0000 1.8680
v  0.8598 0.7101 0.6158
v  2.1181 0.0000 0.9762
v  1.1215 0.7531 -0.1219
v  2.3145 0.0000 -0.3942
v  0.7875 0.7531 -0.8354
v  0.0638 0.7101 -1.1503
v  0.4293 0.7008 0.9827
v  -0.0194 1.0598 0.2608
v  -1.1991 0.7101 -0.3548
v  -0.6898 0.7101 -0.8264
# 21 vertices

vn -0.0108 0.9247 -0.3806
vn 0.3703 0.8510 -0.3723
vn 0.0107 0.8571 -0.5150
vn -0.3179 0.8187 -0.4783
vn -0.0108 0.9247 -0.3806
vn 0.0107 0.8571 -0.5150
vn -0.2339 0.9051 -0.3552
vn -0.0108 0.9247 -0.3806
vn -0.3179 0.8187 -0.4783
vn -0.3685 0.9159 -0.1593
vn -0.2339 0.9051 -0.3552
vn -0.3179 0.8187 -0.4783
vn -0.5097 0.8385 -0.1927
vn -0.3685 0.9159 -0.1593
vn -0.3179 0.8187 -0.4783
vn -0.5498 0.8095 0.2060
vn -0.3685 0.9159 -0.1593
vn -0.5097 0.8385 -0.1927
vn -0.4054 0.9037 0.1378
vn -0.3685 0.9159 -0.1593
vn -0.5498 0.8095 0.2060
vn -0.2355 0.9001 0.3665
vn -0.4054 0.9037 0.1378
vn -0.5498 0.8095 0.2060
vn -0.3408 0.8232 0.4541
vn -0.2355 0.9001 0.3665
vn -0.5498 0.8095 0.2060
vn 0.0557 0.8928 0.4469
vn -0.2355 0.9001 0.3665
vn -0.3408 0.8232 0.4541
vn 0.0362 0.8478 0.5290
vn 0.0557 0.8928 0.4469
vn -0.3408 0.8232 0.4541
vn 0.2904 0.8301 0.4761
vn 0.0557 0.8928 0.4469
vn 0.0362 0.8478 0.5290
vn 0.2494 0.8792 0.4059
vn 0.0557 0.8928 0.4469
vn 0.2904 0.8301 0.4761
vn 0.3551 0.8970 0.2631
vn 0.2494 0.8792 0.4059
vn 0.2904 0.8301 0.4761
vn 0.4310 0.8551 0.2883
vn 0.3551 0.8970 0.2631
vn 0.2904 0.8301 0.4761
vn 0.3903 0.9205 -0.0205
vn 0.3551 0.8970 0.2631
vn 0.4310 0.8551 0.2883
vn 0.5058 0.8599 -0.0695
vn 0.3903 0.9205 -0.0205
vn 0.4310 0.8551 0.2883
vn 0.2573 0.9264 -0.2749
vn 0.3903 0.9205 -0.0205
vn 0.5058 0.8599 -0.0695
vn 0.3703 0.8510 -0.3723
vn 0.2573 0.9264 -0.2749
vn 0.5058 0.8599 -0.0695
vn -0.0108 0.9247 -0.3806
vn 0.2573 0.9264 -0.2749
vn 0.3703 0.8510 -0.3723
vn -0.0108 0.9247 -0.3806
vn 0.0205 0.9982 0.0557
vn 0.2573 0.9264 -0.2749
vn 0.0205 0.9982 0.0557
vn 0.3903 0.9205 -0.0205
vn 0.2573 0.9264 -0.2749
vn 0.0205 0.9982 0.0557
vn 0.3551 0.8970 0.2631
vn 0.3903 0.9205 -0.0205
vn 0.0205 0.9982 0.0557
vn 0.2494 0.8792 0.4059
vn 0.3551 0.8970 0.2631
vn 0.0205 0.9982 0.0557
vn 0.0557 0.8928 0.4469
vn 0.2494 0.8792 0.4059
vn 0.0205 0.9982 0.0557
vn -0.2355 0.9001 0.3665
vn 0.0557 0.8928 0.4469
vn 0.0205 0.9982 0.0557
vn -0.4054 0.9037 0.1378
vn -0.2355 0.9001 0.3665
vn 0.0205 0.9982 0.0557
vn -0.3685 0.9159 -0.1593
vn -0.4054 0.9037 0.1378
vn 0.0205 0.9982 0.0557
vn -0.2339 0.9051 -0.3552
vn -0.3685 0.9159 -0.1593
vn -0.2339 0.9051 -0.3552
vn 0.0205 0.9982 0.0557
vn -0.0108 0.9247 -0.3806
# 90 vertex normals

vt 0.0939 0.5981 0.0000
vt 0.1022 0.5962 0.0000
vt 0.0943 0.5901 0.0000
vt 0.0855 0.5906 0.0000
vt 0.0906 0.5867 0.0000
vt 0.0886 0.5828 0.0000
vt 0.0814 0.5818 0.0000
vt 0.0853 0.5747 0.0000
vt 0.0903 0.5784 0.0000
vt 0.0944 0.5757 0.0000
vt 0.0928 0.5693 0.0000
vt 0.0988 0.5764 0.0000
vt 0.1005 0.5688 0.0000
vt 0.1060 0.5742 0.0000
vt 0.1010 0.5784 0.0000
vt 0.1027 0.5813 0.0000
vt 0.1109 0.5820 0.0000
vt 0.1027 0.5862 0.0000
vt 0.1092 0.5903 0.0000
vt 0.0992 0.5898 0.0000
vt 0.0968 0.5815 0.0000
# 21 texture coords

o SM_Barnacle_06_LOD0
g SM_Barnacle_06_LOD0
usemtl MAT_Sea_Shells
s 1
f 17/3/1 1/2/2 2/1/3 
f 3/4/4 17/3/5 2/1/6 
f 21/5/7 17/3/8 3/4/9 
f 20/6/10 21/5/11 3/4/12 
f 4/7/13 20/6/14 3/4/15 
f 5/8/16 20/6/17 4/7/18 
f 6/9/19 20/6/20 5/8/21 
f 7/10/22 6/9/23 5/8/24 
f 8/11/25 7/10/26 5/8/27 
f 9/12/28 7/10/29 8/11/30 
f 10/13/31 9/12/32 8/11/33 
f 11/14/34 9/12/35 10/13/36 
f 18/15/37 9/12/38 11/14/39 
f 12/16/40 18/15/41 11/14/42 
f 13/17/43 12/16/44 11/14/45 
f 14/18/46 12/16/47 13/17/48 
f 15/19/49 14/18/50 13/17/51 
f 16/20/52 14/18/53 15/19/54 
f 1/2/55 16/20/56 15/19/57 
f 17/3/58 16/20/59 1/2/60 
f 17/3/61 19/21/62 16/20/63 
f 19/21/64 14/18/65 16/20/66 
f 19/21/67 12/16/68 14/18/69 
f 19/21/70 18/15/71 12/16/72 
f 19/21/73 9/12/74 18/15/75 
f 19/21/76 7/10/77 9/12/78 
f 19/21/79 6/9/80 7/10/81 
f 19/21/82 20/6/83 6/9/84 
f 19/21/85 21/5/86 20/6/87 
f 21/5/88 19/21/89 17/3/90 
# 30 faces

#
# object SM_Barnacle_06_LOD1
#

v  -0.0194 1.0598 0.2608
v  -2.3145 0.0000 -0.6089
v  2.1181 0.0000 0.9762
v  0.4307 0.0000 -2.3852
v  -0.1487 0.0000 2.3852
v  0.9703 0.7531 -0.4450
v  -1.2333 0.0000 -1.6981
v  2.3145 0.0000 -0.3942
v  -1.1991 0.7101 -0.3548
v  0.0638 0.7101 -1.1503
v  1.5771 0.0000 -1.6495
v  -0.4930 0.7401 1.0668
v  -1.2717 0.0000 1.8936
v  -2.1196 0.0000 0.6736
v  0.9612 0.0000 1.8680
# 15 vertices

vn -0.3840 0.9135 -0.1345
vn -0.0111 0.9159 -0.4013
vn -0.3075 0.8298 -0.4656
vn 0.2508 0.8732 0.4178
vn -0.1596 0.9141 0.3729
vn 0.0261 0.8746 0.4842
vn 0.3550 0.8612 -0.3638
vn 0.3497 0.9269 -0.1361
vn 0.4895 0.8684 -0.0794
vn -0.3505 0.8374 0.4194
vn -0.1596 0.9141 0.3729
vn -0.4876 0.8509 0.1957
vn 0.3497 0.9269 -0.1361
vn 0.0300 0.9936 0.1085
vn 0.3934 0.8906 0.2284
vn -0.3840 0.9135 -0.1345
vn 0.0300 0.9936 0.1085
vn -0.0111 0.9159 -0.4013
vn -0.3075 0.8298 -0.4656
vn -0.0111 0.9159 -0.4013
vn 0.0617 0.8731 -0.4837
vn 0.4895 0.8684 -0.0794
vn 0.3497 0.9269 -0.1361
vn 0.3934 0.8906 0.2284
vn -0.1596 0.9141 0.3729
vn -0.3840 0.9135 -0.1345
vn -0.4876 0.8509 0.1957
vn -0.5050 0.8490 -0.1557
vn -0.3840 0.9135 -0.1345
vn -0.3075 0.8298 -0.4656
vn -0.0111 0.9159 -0.4013
vn 0.3497 0.9269 -0.1361
vn 0.3550 0.8612 -0.3638
vn -0.0111 0.9159 -0.4013
vn 0.0300 0.9936 0.1085
vn 0.3497 0.9269 -0.1361
vn -0.0111 0.9159 -0.4013
vn 0.3550 0.8612 -0.3638
vn 0.0617 0.8731 -0.4837
vn 0.0300 0.9936 0.1085
vn -0.3840 0.9135 -0.1345
vn -0.1596 0.9141 0.3729
vn 0.0300 0.9936 0.1085
vn -0.1596 0.9141 0.3729
vn 0.2508 0.8732 0.4178
vn 0.0261 0.8746 0.4842
vn -0.1596 0.9141 0.3729
vn -0.3505 0.8374 0.4194
vn -0.4876 0.8509 0.1957
vn -0.3840 0.9135 -0.1345
vn -0.5050 0.8490 -0.1557
vn 0.3934 0.8906 0.2284
vn 0.0300 0.9936 0.1085
vn 0.2508 0.8732 0.4178
# 54 vertex normals

vt 0.0814 0.5818 0.0000
vt 0.1005 0.5688 0.0000
vt 0.1109 0.5820 0.0000
vt 0.0939 0.5981 0.0000
vt 0.0968 0.5815 0.0000
vt 0.1092 0.5903 0.0000
vt 0.0855 0.5906 0.0000
vt 0.0886 0.5828 0.0000
vt 0.1011 0.5878 0.0000
vt 0.1022 0.5962 0.0000
vt 0.0957 0.5759 0.0000
vt 0.0928 0.5693 0.0000
vt 0.0853 0.5747 0.0000
vt 0.0943 0.5901 0.0000
vt 0.1060 0.5742 0.0000
# 15 texture coords

o SM_Barnacle_06_LOD1
g SM_Barnacle_06_LOD1
usemtl MAT_Sea_Shells
s 1
f 30/29/91 31/35/92 28/28/93 
f 36/36/94 33/32/95 26/23/96 
f 32/31/97 27/30/98 29/27/99 
f 34/33/100 33/32/101 35/34/102 
f 27/30/103 22/26/104 24/24/105 
f 30/29/106 22/26/107 31/35/108 
f 28/28/109 31/35/110 25/25/111 
f 29/27/112 27/30/113 24/24/114 
f 33/32/115 30/29/116 35/34/117 
f 23/22/118 30/29/119 28/28/120 
f 31/35/121 27/30/122 32/31/123 
f 31/35/124 22/26/125 27/30/126 
f 31/35/127 32/31/128 25/25/129 
f 22/26/130 30/29/131 33/32/132 
f 22/26/133 33/32/134 36/36/135 
f 26/23/136 33/32/137 34/33/138 
f 35/34/139 30/29/140 23/22/141 
f 24/24/142 22/26/143 36/36/144 
# 18 faces

