# 3ds Max Wavefront OBJ Exporter v0.97b - (c)2007 guruware
# File Created: 10.02.2024 08:45:26

mtllib SM_Barnacle_04.mtl

#
# object SM_Barnacle_04_LOD0
#

v  2.4891 0.0516 -0.5331
v  2.7148 0.0000 -0.5760
v  2.3165 0.0000 -1.2974
v  2.1466 0.0464 -1.1689
v  1.4454 0.0335 -1.6496
v  1.5164 0.0000 -1.8447
v  0.5203 0.0000 -2.0649
v  -0.3358 0.0144 -1.8954
v  -0.4933 0.0000 -2.1376
v  -1.4716 0.0000 -1.8684
v  -2.2909 0.0000 -1.3013
v  -2.7148 0.0000 -0.5461
v  -2.6989 0.0000 0.3290
v  -2.2888 0.0464 -0.4794
v  -2.4109 0.0000 1.1059
v  -2.0338 0.0464 0.9461
v  -1.8376 0.0000 1.7607
v  -1.5034 0.0335 1.5041
v  -0.8797 0.0000 2.1376
v  0.1927 0.0000 2.0122
v  1.1249 0.0000 1.6116
v  1.9433 0.0000 1.0442
v  2.5677 0.0000 0.2428
v  2.3683 0.0464 0.1848
v  2.2898 0.3703 -0.4984
v  1.4169 0.3250 -1.4511
v  0.5565 0.0201 -1.8475
v  -0.8487 0.2913 -1.4184
v  -1.1927 0.0201 -1.6503
v  -1.9040 0.0335 -1.1455
v  -1.8312 0.3703 0.2058
v  -2.2969 0.0516 0.2731
v  -1.5906 0.3573 0.7626
v  -0.3884 0.2913 1.4423
v  -0.6655 0.0201 1.8160
v  0.2639 0.0144 1.7278
v  0.3810 0.2770 1.4036
v  1.0880 0.0201 1.3901
v  1.0905 0.2913 1.1399
v  1.8256 0.0335 0.8861
v  1.7489 0.3250 0.7020
v  2.0108 0.3573 -1.0424
v  1.2577 0.9308 -0.7840
v  0.6378 0.2913 -1.6269
v  -0.1241 0.2770 -1.6411
v  0.6391 0.9151 -0.8701
v  0.3349 0.9198 -0.7683
v  0.0935 0.9308 -0.5851
v  -1.4399 0.3250 -0.9783
v  -1.7879 0.3573 -0.4071
v  -0.0728 0.9462 -0.0937
v  0.0304 0.9417 0.1392
v  -1.0952 0.3250 1.2089
v  1.1561 0.9198 0.3012
v  1.4069 0.9308 0.1165
v  2.2008 0.3573 0.1102
v  1.5512 0.9417 -0.1206
v  0.8502 0.9151 0.4033
v  0.5298 0.9198 0.4082
v  0.2427 0.9308 0.3154
v  -0.0503 0.9417 -0.3481
v  0.8773 1.1586 -0.2561
v  0.9612 0.9198 -0.8753
v  1.4705 0.9417 -0.6080
v  1.5712 0.9462 -0.3746
# 65 vertices

vn 0.5620 0.8219 -0.0928
vn 0.1905 0.9778 0.0869
vn 0.2084 0.9774 -0.0342
vn 0.1497 0.9791 -0.1379
vn 0.5620 0.8219 -0.0928
vn 0.2084 0.9774 -0.0342
vn 0.4218 0.8211 -0.3846
vn 0.5620 0.8219 -0.0928
vn 0.1497 0.9791 -0.1379
vn 0.0635 0.9873 -0.1455
vn 0.4218 0.8211 -0.3846
vn 0.1497 0.9791 -0.1379
vn 0.2082 0.8433 -0.4954
vn 0.4218 0.8211 -0.3846
vn 0.0635 0.9873 -0.1455
vn 0.0558 0.8775 -0.4764
vn 0.2082 0.8433 -0.4954
vn 0.0635 0.9873 -0.1455
vn 0.0108 0.9949 -0.1008
vn 0.0558 0.8775 -0.4764
vn 0.0635 0.9873 -0.1455
vn -0.0460 0.9127 -0.4060
vn 0.0558 0.8775 -0.4764
vn 0.0108 0.9949 -0.1008
vn -0.0068 0.9977 -0.0674
vn -0.0460 0.9127 -0.4060
vn 0.0108 0.9949 -0.1008
vn -0.1457 0.9336 -0.3275
vn -0.0460 0.9127 -0.4060
vn -0.0068 0.9977 -0.0674
vn -0.0264 0.9975 -0.0655
vn -0.1457 0.9336 -0.3275
vn -0.0068 0.9977 -0.0674
vn -0.2318 0.9438 -0.2357
vn -0.1457 0.9336 -0.3275
vn -0.0264 0.9975 -0.0655
vn -0.0616 0.9961 -0.0635
vn -0.2318 0.9438 -0.2357
vn -0.0264 0.9975 -0.0655
vn -0.3082 0.9460 -0.1008
vn -0.2318 0.9438 -0.2357
vn -0.0616 0.9961 -0.0635
vn -0.1007 0.9945 -0.0284
vn -0.3082 0.9460 -0.1008
vn -0.0616 0.9961 -0.0635
vn -0.1145 0.9932 0.0225
vn -0.3082 0.9460 -0.1008
vn -0.1007 0.9945 -0.0284
vn -0.3315 0.9416 0.0596
vn -0.3082 0.9460 -0.1008
vn -0.1145 0.9932 0.0225
vn -0.0909 0.9941 0.0596
vn -0.3315 0.9416 0.0596
vn -0.1145 0.9932 0.0225
vn -0.2725 0.9427 0.1925
vn -0.3315 0.9416 0.0596
vn -0.0909 0.9941 0.0596
vn -0.0440 0.9963 0.0733
vn -0.2725 0.9427 0.1925
vn -0.0909 0.9941 0.0596
vn -0.1592 0.9466 0.2804
vn -0.2725 0.9427 0.1925
vn -0.0440 0.9963 0.0733
vn -0.0049 0.9977 0.0674
vn -0.1592 0.9466 0.2804
vn -0.0440 0.9963 0.0733
vn -0.0303 0.9410 0.3371
vn -0.1592 0.9466 0.2804
vn -0.0049 0.9977 0.0674
vn 0.0186 0.9977 0.0655
vn -0.0303 0.9410 0.3371
vn -0.0049 0.9977 0.0674
vn 0.0929 0.9185 0.3844
vn -0.0303 0.9410 0.3371
vn 0.0186 0.9977 0.0655
vn 0.0479 0.9947 0.0910
vn 0.0929 0.9185 0.3844
vn 0.0186 0.9977 0.0655
vn 0.2162 0.8815 0.4197
vn 0.0929 0.9185 0.3844
vn 0.0479 0.9947 0.0910
vn 0.1124 0.9861 0.1222
vn 0.2162 0.8815 0.4197
vn 0.0479 0.9947 0.0910
vn 0.3681 0.8387 0.4013
vn 0.2162 0.8815 0.4197
vn 0.1124 0.9861 0.1222
vn 0.5262 0.8172 0.2353
vn 0.3681 0.8387 0.4013
vn 0.1124 0.9861 0.1222
vn 0.1905 0.9778 0.0869
vn 0.5262 0.8172 0.2353
vn 0.1124 0.9861 0.1222
vn 0.5620 0.8219 -0.0928
vn 0.5262 0.8172 0.2353
vn 0.1905 0.9778 0.0869
vn 0.7380 0.6637 -0.1222
vn 0.5262 0.8172 0.2353
vn 0.5620 0.8219 -0.0928
vn 0.4218 0.8211 -0.3846
vn 0.7380 0.6637 -0.1222
vn 0.5620 0.8219 -0.0928
vn 0.5601 0.6519 -0.5112
vn 0.7380 0.6637 -0.1222
vn 0.4218 0.8211 -0.3846
vn 0.2903 0.6558 -0.6969
vn 0.5601 0.6519 -0.5112
vn 0.4218 0.8211 -0.3846
vn 0.2082 0.8433 -0.4954
vn 0.2903 0.6558 -0.6969
vn 0.4218 0.8211 -0.3846
vn 0.0772 0.6932 -0.7166
vn 0.2903 0.6558 -0.6969
vn 0.2082 0.8433 -0.4954
vn 0.0558 0.8775 -0.4764
vn 0.0772 0.6932 -0.7166
vn 0.2082 0.8433 -0.4954
vn -0.0791 0.7611 -0.6438
vn 0.0772 0.6932 -0.7166
vn 0.0558 0.8775 -0.4764
vn -0.0460 0.9127 -0.4060
vn -0.0791 0.7611 -0.6438
vn 0.0558 0.8775 -0.4764
vn -0.2278 0.8262 -0.5153
vn -0.0791 0.7611 -0.6438
vn -0.0460 0.9127 -0.4060
vn -0.1457 0.9336 -0.3275
vn -0.2278 0.8262 -0.5153
vn -0.0460 0.9127 -0.4060
vn -0.3350 0.8722 -0.3565
vn -0.2278 0.8262 -0.5153
vn -0.1457 0.9336 -0.3275
vn -0.2318 0.9438 -0.2357
vn -0.3350 0.8722 -0.3565
vn -0.1457 0.9336 -0.3275
vn -0.4099 0.8991 -0.1536
vn -0.3350 0.8722 -0.3565
vn -0.2318 0.9438 -0.2357
vn -0.3082 0.9460 -0.1008
vn -0.4099 0.8991 -0.1536
vn -0.2318 0.9438 -0.2357
vn -0.4212 0.9039 0.0752
vn -0.4099 0.8991 -0.1536
vn -0.3082 0.9460 -0.1008
vn -0.3315 0.9416 0.0596
vn -0.4212 0.9039 0.0752
vn -0.3082 0.9460 -0.1008
vn -0.2725 0.9427 0.1925
vn -0.4212 0.9039 0.0752
vn -0.3315 0.9416 0.0596
vn -0.3488 0.8961 0.2746
vn -0.4212 0.9039 0.0752
vn -0.2725 0.9427 0.1925
vn -0.1592 0.9466 0.2804
vn -0.3488 0.8961 0.2746
vn -0.2725 0.9427 0.1925
vn -0.2140 0.8785 0.4271
vn -0.3488 0.8961 0.2746
vn -0.1592 0.9466 0.2804
vn -0.0303 0.9410 0.3371
vn -0.2140 0.8785 0.4271
vn -0.1592 0.9466 0.2804
vn -0.0440 0.8400 0.5408
vn -0.2140 0.8785 0.4271
vn -0.0303 0.9410 0.3371
vn 0.0929 0.9185 0.3844
vn -0.0440 0.8400 0.5408
vn -0.0303 0.9410 0.3371
vn 0.1399 0.7740 0.6175
vn -0.0440 0.8400 0.5408
vn 0.0929 0.9185 0.3844
vn 0.2162 0.8815 0.4197
vn 0.1399 0.7740 0.6175
vn 0.0929 0.9185 0.3844
vn 0.3160 0.7014 0.6388
vn 0.1399 0.7740 0.6175
vn 0.2162 0.8815 0.4197
vn 0.3681 0.8387 0.4013
vn 0.3160 0.7014 0.6388
vn 0.2162 0.8815 0.4197
vn 0.5092 0.6519 0.5620
vn 0.3160 0.7014 0.6388
vn 0.3681 0.8387 0.4013
vn 0.5262 0.8172 0.2353
vn 0.5092 0.6519 0.5620
vn 0.3681 0.8387 0.4013
vn 0.6972 0.6464 0.3100
vn 0.5092 0.6519 0.5620
vn 0.5262 0.8172 0.2353
vn 0.7380 0.6637 -0.1222
vn 0.6972 0.6464 0.3100
vn 0.5262 0.8172 0.2353
vn 0.4588 0.8853 -0.0753
vn 0.6972 0.6464 0.3100
vn 0.7380 0.6637 -0.1222
vn 0.5601 0.6519 -0.5112
vn 0.4588 0.8853 -0.0753
vn 0.7380 0.6637 -0.1222
vn 0.3585 0.8743 -0.3272
vn 0.4588 0.8853 -0.0753
vn 0.5601 0.6519 -0.5112
vn 0.1926 0.8592 -0.4741
vn 0.3585 0.8743 -0.3272
vn 0.5601 0.6519 -0.5112
vn 0.2903 0.6558 -0.6969
vn 0.1926 0.8592 -0.4741
vn 0.5601 0.6519 -0.5112
vn 0.0459 0.8585 -0.5108
vn 0.1926 0.8592 -0.4741
vn 0.2903 0.6558 -0.6969
vn 0.0772 0.6932 -0.7166
vn 0.0459 0.8585 -0.5108
vn 0.2903 0.6558 -0.6969
vn -0.0694 0.8788 -0.4721
vn 0.0459 0.8585 -0.5108
vn 0.0772 0.6932 -0.7166
vn -0.0791 0.7611 -0.6438
vn -0.0694 0.8788 -0.4721
vn 0.0772 0.6932 -0.7166
vn -0.1670 0.9073 -0.3858
vn -0.0694 0.8788 -0.4721
vn -0.0791 0.7611 -0.6438
vn -0.2278 0.8262 -0.5153
vn -0.1670 0.9073 -0.3858
vn -0.0791 0.7611 -0.6438
vn -0.2316 0.9350 -0.2687
vn -0.1670 0.9073 -0.3858
vn -0.2278 0.8262 -0.5153
vn -0.3350 0.8722 -0.3565
vn -0.2316 0.9350 -0.2687
vn -0.2278 0.8262 -0.5153
vn -0.2648 0.9565 -0.1221
vn -0.2316 0.9350 -0.2687
vn -0.3350 0.8722 -0.3565
vn -0.4099 0.8991 -0.1536
vn -0.2648 0.9565 -0.1221
vn -0.3350 0.8722 -0.3565
vn -0.2572 0.9653 0.0440
vn -0.2648 0.9565 -0.1221
vn -0.4099 0.8991 -0.1536
vn -0.4212 0.9039 0.0752
vn -0.2572 0.9653 0.0440
vn -0.4099 0.8991 -0.1536
vn -0.3488 0.8961 0.2746
vn -0.2572 0.9653 0.0440
vn -0.4212 0.9039 0.0752
vn -0.2102 0.9573 0.1985
vn -0.2572 0.9653 0.0440
vn -0.3488 0.8961 0.2746
vn -0.2140 0.8785 0.4271
vn -0.2102 0.9573 0.1985
vn -0.3488 0.8961 0.2746
vn -0.1319 0.9370 0.3234
vn -0.2102 0.9573 0.1985
vn -0.2140 0.8785 0.4271
vn -0.0440 0.8400 0.5408
vn -0.1319 0.9370 0.3234
vn -0.2140 0.8785 0.4271
vn -0.0283 0.9101 0.4135
vn -0.1319 0.9370 0.3234
vn -0.0440 0.8400 0.5408
vn 0.1399 0.7740 0.6175
vn -0.0283 0.9101 0.4135
vn -0.0440 0.8400 0.5408
vn 0.0909 0.8809 0.4644
vn -0.0283 0.9101 0.4135
vn 0.1399 0.7740 0.6175
vn 0.3160 0.7014 0.6388
vn 0.0909 0.8809 0.4644
vn 0.1399 0.7740 0.6175
vn 0.2143 0.8601 0.4629
vn 0.0909 0.8809 0.4644
vn 0.3160 0.7014 0.6388
vn 0.5092 0.6519 0.5620
vn 0.2143 0.8601 0.4629
vn 0.3160 0.7014 0.6388
vn 0.3413 0.8578 0.3844
vn 0.2143 0.8601 0.4629
vn 0.5092 0.6519 0.5620
vn 0.6972 0.6464 0.3100
vn 0.3413 0.8578 0.3844
vn 0.5092 0.6519 0.5620
vn 0.4467 0.8729 0.1965
vn 0.3413 0.8578 0.3844
vn 0.6972 0.6464 0.3100
vn 0.4588 0.8853 -0.0753
vn 0.4467 0.8729 0.1965
vn 0.6972 0.6464 0.3100
vn 0.0186 0.9998 -0.0029
vn 0.4467 0.8729 0.1965
vn 0.4588 0.8853 -0.0753
vn 0.0186 0.9998 -0.0029
vn 0.3413 0.8578 0.3844
vn 0.4467 0.8729 0.1965
vn 0.0186 0.9998 -0.0029
vn 0.2143 0.8601 0.4629
vn 0.3413 0.8578 0.3844
vn 0.0186 0.9998 -0.0029
vn 0.0909 0.8809 0.4644
vn 0.2143 0.8601 0.4629
vn 0.0186 0.9998 -0.0029
vn -0.0283 0.9101 0.4135
vn 0.0909 0.8809 0.4644
vn 0.0186 0.9998 -0.0029
vn -0.1319 0.9370 0.3234
vn -0.0283 0.9101 0.4135
vn 0.0186 0.9998 -0.0029
vn -0.2102 0.9573 0.1985
vn -0.1319 0.9370 0.3234
vn 0.0186 0.9998 -0.0029
vn -0.2572 0.9653 0.0440
vn -0.2102 0.9573 0.1985
vn 0.0186 0.9998 -0.0029
vn -0.2648 0.9565 -0.1221
vn -0.2572 0.9653 0.0440
vn 0.0186 0.9998 -0.0029
vn -0.2316 0.9350 -0.2687
vn -0.2648 0.9565 -0.1221
vn 0.0186 0.9998 -0.0029
vn -0.1670 0.9073 -0.3858
vn -0.2316 0.9350 -0.2687
vn 0.0186 0.9998 -0.0029
vn -0.0694 0.8788 -0.4721
vn -0.1670 0.9073 -0.3858
vn 0.0186 0.9998 -0.0029
vn 0.0459 0.8585 -0.5108
vn -0.0694 0.8788 -0.4721
vn 0.0186 0.9998 -0.0029
vn 0.1926 0.8592 -0.4741
vn 0.0459 0.8585 -0.5108
vn 0.0186 0.9998 -0.0029
vn 0.3585 0.8743 -0.3272
vn 0.1926 0.8592 -0.4741
vn 0.4588 0.8853 -0.0753
vn 0.3585 0.8743 -0.3272
vn 0.0186 0.9998 -0.0029
# 336 vertex normals

vt 0.0262 0.4048 0.0000
vt 0.0184 0.4063 0.0000
vt 0.0257 0.4072 0.0000
vt 0.0330 0.4087 0.0000
vt 0.0317 0.4106 0.0000
vt 0.0381 0.4165 0.0000
vt 0.0362 0.4175 0.0000
vt 0.0381 0.4258 0.0000
vt 0.0401 0.4263 0.0000
vt 0.0385 0.4346 0.0000
vt 0.0408 0.4360 0.0000
vt 0.0362 0.4429 0.0000
vt 0.0383 0.4453 0.0000
vt 0.0315 0.4497 0.0000
vt 0.0328 0.4541 0.0000
vt 0.0252 0.4536 0.0000
vt 0.0265 0.4565 0.0000
vt 0.0166 0.4600 0.0000
vt 0.0179 0.4541 0.0000
vt 0.0104 0.4541 0.0000
vt 0.0117 0.4512 0.0000
vt 0.0035 0.4507 0.0000
vt 0.0064 0.4463 0.0000
vt 0.0009 0.4390 0.0000
vt 0.0037 0.4375 0.0000
vt 0.0017 0.4297 0.0000
vt 0.0045 0.4287 0.0000
vt 0.0055 0.4204 0.0000
vt 0.0077 0.4209 0.0000
vt 0.0108 0.4126 0.0000
vt 0.0124 0.4136 0.0000
vt 0.0190 0.4082 0.0000
vt 0.0252 0.4102 0.0000
vt 0.0301 0.4126 0.0000
vt 0.0338 0.4180 0.0000
vt 0.0353 0.4253 0.0000
vt 0.0355 0.4326 0.0000
vt 0.0335 0.4390 0.0000
vt 0.0295 0.4443 0.0000
vt 0.0244 0.4478 0.0000
vt 0.0189 0.4482 0.0000
vt 0.0139 0.4458 0.0000
vt 0.0099 0.4414 0.0000
vt 0.0078 0.4351 0.0000
vt 0.0081 0.4277 0.0000
vt 0.0105 0.4214 0.0000
vt 0.0144 0.4150 0.0000
vt 0.0197 0.4106 0.0000
vt 0.0241 0.4165 0.0000
vt 0.0262 0.4175 0.0000
vt 0.0278 0.4194 0.0000
vt 0.0286 0.4224 0.0000
vt 0.0285 0.4253 0.0000
vt 0.0276 0.4282 0.0000
vt 0.0260 0.4302 0.0000
vt 0.0238 0.4316 0.0000
vt 0.0216 0.4321 0.0000
vt 0.0195 0.4312 0.0000
vt 0.0179 0.4292 0.0000
vt 0.0170 0.4263 0.0000
vt 0.0171 0.4233 0.0000
vt 0.0180 0.4204 0.0000
vt 0.0197 0.4185 0.0000
vt 0.0218 0.4170 0.0000
vt 0.0230 0.4233 0.0000
# 65 texture coords

o SM_Barnacle_04_LOD0
g SM_Barnacle_04_LOD0
usemtl MAT_Sea_Shells
s 1
f 1/3/1 23/2/2 2/1/3 
f 3/4/4 1/3/5 2/1/6 
f 4/5/7 1/3/8 3/4/9 
f 6/6/10 4/5/11 3/4/12 
f 5/7/13 4/5/14 6/6/15 
f 27/8/16 5/7/17 6/6/18 
f 7/9/19 27/8/20 6/6/21 
f 8/10/22 27/8/23 7/9/24 
f 9/11/25 8/10/26 7/9/27 
f 29/12/28 8/10/29 9/11/30 
f 10/13/31 29/12/32 9/11/33 
f 30/14/34 29/12/35 10/13/36 
f 11/15/37 30/14/38 10/13/39 
f 14/16/40 30/14/41 11/15/42 
f 12/17/43 14/16/44 11/15/45 
f 13/18/46 14/16/47 12/17/48 
f 32/19/49 14/16/50 13/18/51 
f 15/20/52 32/19/53 13/18/54 
f 16/21/55 32/19/56 15/20/57 
f 17/22/58 16/21/59 15/20/60 
f 18/23/61 16/21/62 17/22/63 
f 19/24/64 18/23/65 17/22/66 
f 35/25/67 18/23/68 19/24/69 
f 20/26/70 35/25/71 19/24/72 
f 36/27/73 35/25/74 20/26/75 
f 21/28/76 36/27/77 20/26/78 
f 38/29/79 36/27/80 21/28/81 
f 22/30/82 38/29/83 21/28/84 
f 40/31/85 38/29/86 22/30/87 
f 24/32/88 40/31/89 22/30/90 
f 23/2/91 24/32/92 22/30/93 
f 1/3/94 24/32/95 23/2/96 
f 25/33/97 24/32/98 1/3/99 
f 4/5/100 25/33/101 1/3/102 
f 42/34/103 25/33/104 4/5/105 
f 26/35/106 42/34/107 4/5/108 
f 5/7/109 26/35/110 4/5/111 
f 44/36/112 26/35/113 5/7/114 
f 27/8/115 44/36/116 5/7/117 
f 45/37/118 44/36/119 27/8/120 
f 8/10/121 45/37/122 27/8/123 
f 28/38/124 45/37/125 8/10/126 
f 29/12/127 28/38/128 8/10/129 
f 49/39/130 28/38/131 29/12/132 
f 30/14/133 49/39/134 29/12/135 
f 50/40/136 49/39/137 30/14/138 
f 14/16/139 50/40/140 30/14/141 
f 31/41/142 50/40/143 14/16/144 
f 32/19/145 31/41/146 14/16/147 
f 16/21/148 31/41/149 32/19/150 
f 33/42/151 31/41/152 16/21/153 
f 18/23/154 33/42/155 16/21/156 
f 53/43/157 33/42/158 18/23/159 
f 35/25/160 53/43/161 18/23/162 
f 34/44/163 53/43/164 35/25/165 
f 36/27/166 34/44/167 35/25/168 
f 37/45/169 34/44/170 36/27/171 
f 38/29/172 37/45/173 36/27/174 
f 39/46/175 37/45/176 38/29/177 
f 40/31/178 39/46/179 38/29/180 
f 41/47/181 39/46/182 40/31/183 
f 24/32/184 41/47/185 40/31/186 
f 56/48/187 41/47/188 24/32/189 
f 25/33/190 56/48/191 24/32/192 
f 65/49/193 56/48/194 25/33/195 
f 42/34/196 65/49/197 25/33/198 
f 64/50/199 65/49/200 42/34/201 
f 43/51/202 64/50/203 42/34/204 
f 26/35/205 43/51/206 42/34/207 
f 63/52/208 43/51/209 26/35/210 
f 44/36/211 63/52/212 26/35/213 
f 46/53/214 63/52/215 44/36/216 
f 45/37/217 46/53/218 44/36/219 
f 47/54/220 46/53/221 45/37/222 
f 28/38/223 47/54/224 45/37/225 
f 48/55/226 47/54/227 28/38/228 
f 49/39/229 48/55/230 28/38/231 
f 61/56/232 48/55/233 49/39/234 
f 50/40/235 61/56/236 49/39/237 
f 51/57/238 61/56/239 50/40/240 
f 31/41/241 51/57/242 50/40/243 
f 33/42/244 51/57/245 31/41/246 
f 52/58/247 51/57/248 33/42/249 
f 53/43/250 52/58/251 33/42/252 
f 60/59/253 52/58/254 53/43/255 
f 34/44/256 60/59/257 53/43/258 
f 59/60/259 60/59/260 34/44/261 
f 37/45/262 59/60/263 34/44/264 
f 58/61/265 59/60/266 37/45/267 
f 39/46/268 58/61/269 37/45/270 
f 54/62/271 58/61/272 39/46/273 
f 41/47/274 54/62/275 39/46/276 
f 55/63/277 54/62/278 41/47/279 
f 56/48/280 55/63/281 41/47/282 
f 57/64/283 55/63/284 56/48/285 
f 65/49/286 57/64/287 56/48/288 
f 62/65/289 57/64/290 65/49/291 
f 62/65/292 55/63/293 57/64/294 
f 62/65/295 54/62/296 55/63/297 
f 62/65/298 58/61/299 54/62/300 
f 62/65/301 59/60/302 58/61/303 
f 62/65/304 60/59/305 59/60/306 
f 62/65/307 52/58/308 60/59/309 
f 62/65/310 51/57/311 52/58/312 
f 62/65/313 61/56/314 51/57/315 
f 62/65/316 48/55/317 61/56/318 
f 62/65/319 47/54/320 48/55/321 
f 62/65/322 46/53/323 47/54/324 
f 62/65/325 63/52/326 46/53/327 
f 62/65/328 43/51/329 63/52/330 
f 62/65/331 64/50/332 43/51/333 
f 65/49/334 64/50/335 62/65/336 
# 112 faces

#
# object SM_Barnacle_04_LOD1
#

v  0.8484 1.1521 -0.2511
v  2.7148 0.0000 -0.5760
v  -2.7148 0.0000 -0.5461
v  -0.3313 0.0000 -2.1260
v  -1.8376 0.0000 1.7607
v  0.4980 0.0000 1.8810
v  2.3165 0.0000 -1.2974
v  -2.6989 0.0000 0.3290
v  1.2577 0.9308 -0.7840
v  0.4749 0.9199 -0.7844
v  -2.2909 0.0000 -1.3013
v  1.9433 0.0000 1.0442
v  1.4069 0.9308 0.1165
v  2.3397 0.0994 0.1721
v  -1.7285 0.3648 0.4435
v  -1.8763 0.0509 -1.1355
v  2.1466 0.0464 -1.1689
v  -1.4749 0.0539 1.4835
v  0.6591 0.9201 0.3757
v  2.4703 0.0816 -0.5299
v  1.4425 0.0632 -1.6293
v  -2.1654 0.0490 0.6093
v  -1.7879 0.3573 -0.4071
v  0.0038 0.0165 -1.8771
v  -0.8797 0.0000 2.1376
v  1.8176 0.0639 0.8669
v  0.7335 0.0176 1.5354
v  2.5677 0.0000 0.2428
v  1.5472 0.9451 -0.4303
v  1.5164 0.0000 -1.8447
v  -1.4716 0.0000 -1.8684
v  -0.6655 0.0201 1.8160
v  2.0108 0.3573 -1.0424
v  -2.2888 0.0464 -0.4794
v  -2.4109 0.0000 1.1059
v  -1.1927 0.0201 -1.6503
# 36 vertices

vn 0.1163 0.9347 0.3360
vn 0.0010 0.8938 0.4486
vn -0.0195 0.9691 0.2460
vn -0.1943 0.9589 -0.2070
vn -0.1376 0.8878 -0.4393
vn -0.1063 0.9632 -0.2470
vn 0.5676 0.6580 -0.4948
vn 0.4906 0.8665 -0.0922
vn 0.4859 0.8715 -0.0654
vn -0.3897 0.9023 0.1844
vn -0.0017 1.0000 0.0029
vn -0.3975 0.9062 -0.1440
vn 0.4873 0.8477 0.2096
vn 0.3965 0.8422 0.3654
vn 0.3034 0.8697 0.3893
vn -0.0170 0.9376 -0.3472
vn 0.2051 0.8494 -0.4863
vn 0.1588 0.8692 -0.4683
vn -0.1355 0.9671 0.2151
vn 0.0010 0.8938 0.4486
vn -0.3897 0.9023 0.1844
vn 0.4906 0.8665 -0.0922
vn 0.3965 0.8422 0.3654
vn 0.4873 0.8477 0.2096
vn -0.1376 0.8878 -0.4393
vn 0.2051 0.8494 -0.4863
vn -0.0170 0.9376 -0.3472
vn -0.0017 1.0000 0.0029
vn -0.1376 0.8878 -0.4393
vn -0.3975 0.9062 -0.1440
vn -0.0017 1.0000 0.0029
vn 0.2051 0.8494 -0.4863
vn -0.1376 0.8878 -0.4393
vn -0.1943 0.9589 -0.2070
vn -0.1063 0.9632 -0.2470
vn -0.0244 0.9965 -0.0805
vn 0.3034 0.8697 0.3893
vn 0.3965 0.8422 0.3654
vn 0.1163 0.9347 0.3360
vn 0.3965 0.8422 0.3654
vn 0.0010 0.8938 0.4486
vn 0.1163 0.9347 0.3360
vn -0.0017 1.0000 0.0029
vn 0.3965 0.8422 0.3654
vn 0.4906 0.8665 -0.0922
vn 0.3512 0.9253 0.1431
vn 0.4873 0.8477 0.2096
vn 0.1662 0.9591 0.2293
vn 0.4906 0.8665 -0.0922
vn 0.4873 0.8477 0.2096
vn 0.4859 0.8715 -0.0654
vn -0.2824 0.9525 0.1138
vn -0.3897 0.9023 0.1844
vn -0.2751 0.9592 -0.0648
vn -0.1355 0.9671 0.2151
vn -0.3897 0.9023 0.1844
vn -0.2824 0.9525 0.1138
vn -0.1044 0.9942 -0.0249
vn -0.2751 0.9592 -0.0648
vn -0.0914 0.9929 -0.0763
vn -0.1027 0.9946 0.0161
vn -0.2751 0.9592 -0.0648
vn -0.1044 0.9942 -0.0249
vn 0.1588 0.8692 -0.4683
vn 0.2051 0.8494 -0.4863
vn 0.5676 0.6580 -0.4948
vn 0.3862 0.8438 -0.3726
vn 0.4859 0.8715 -0.0654
vn 0.1611 0.9736 -0.1619
vn -0.1355 0.9671 0.2151
vn -0.2824 0.9525 0.1138
vn -0.0736 0.9932 0.0906
vn 0.0194 0.9977 0.0650
vn -0.0195 0.9691 0.2460
vn 0.0016 0.9967 0.0809
vn 0.0010 0.8938 0.4486
vn -0.0017 1.0000 0.0029
vn -0.3897 0.9023 0.1844
vn -0.0017 1.0000 0.0029
vn 0.0010 0.8938 0.4486
vn 0.3965 0.8422 0.3654
vn 0.1611 0.9736 -0.1619
vn 0.4859 0.8715 -0.0654
vn 0.3075 0.9501 -0.0518
vn 0.4859 0.8715 -0.0654
vn 0.4873 0.8477 0.2096
vn 0.3512 0.9253 0.1431
vn 0.1588 0.8692 -0.4683
vn 0.3862 0.8438 -0.3726
vn 0.0869 0.9670 -0.2394
vn -0.0170 0.9376 -0.3472
vn 0.1588 0.8692 -0.4683
vn 0.0869 0.9670 -0.2394
vn -0.0736 0.9932 0.0906
vn -0.2824 0.9525 0.1138
vn -0.0839 0.9949 0.0567
vn -0.2824 0.9525 0.1138
vn -0.2751 0.9592 -0.0648
vn -0.1027 0.9946 0.0161
vn -0.3975 0.9062 -0.1440
vn -0.1376 0.8878 -0.4393
vn -0.1943 0.9589 -0.2070
vn -0.2751 0.9592 -0.0648
vn -0.1943 0.9589 -0.2070
vn -0.0914 0.9929 -0.0763
vn -0.1063 0.9632 -0.2470
vn -0.1376 0.8878 -0.4393
vn -0.0170 0.9376 -0.3472
vn -0.0049 0.9980 -0.0624
vn -0.0170 0.9376 -0.3472
vn 0.0869 0.9670 -0.2394
vn 0.0016 0.9967 0.0809
vn -0.1355 0.9671 0.2151
vn -0.0736 0.9932 0.0906
vn 0.3034 0.8697 0.3893
vn 0.1163 0.9347 0.3360
vn 0.1662 0.9591 0.2293
vn 0.4873 0.8477 0.2096
vn 0.3034 0.8697 0.3893
vn 0.1662 0.9591 0.2293
vn 0.1662 0.9591 0.2293
vn 0.1163 0.9347 0.3360
vn 0.0194 0.9977 0.0650
vn 0.1163 0.9347 0.3360
vn -0.0195 0.9691 0.2460
vn 0.0194 0.9977 0.0650
vn 0.4859 0.8715 -0.0654
vn 0.3512 0.9253 0.1431
vn 0.3075 0.9501 -0.0518
vn 0.2051 0.8494 -0.4863
vn 0.4906 0.8665 -0.0922
vn 0.5676 0.6580 -0.4948
vn -0.0017 1.0000 0.0029
vn 0.4906 0.8665 -0.0922
vn 0.2051 0.8494 -0.4863
vn 0.0869 0.9670 -0.2394
vn 0.3862 0.8438 -0.3726
vn 0.1611 0.9736 -0.1619
vn -0.0914 0.9929 -0.0763
vn -0.1943 0.9589 -0.2070
vn -0.0244 0.9965 -0.0805
vn -0.0195 0.9691 0.2460
vn -0.1355 0.9671 0.2151
vn 0.0016 0.9967 0.0809
vn -0.0195 0.9691 0.2460
vn 0.0010 0.8938 0.4486
vn -0.1355 0.9671 0.2151
vn 0.5676 0.6580 -0.4948
vn 0.4859 0.8715 -0.0654
vn 0.3862 0.8438 -0.3726
vn 0.1588 0.8692 -0.4683
vn 0.5676 0.6580 -0.4948
vn 0.3862 0.8438 -0.3726
vn -0.3897 0.9023 0.1844
vn -0.3975 0.9062 -0.1440
vn -0.2751 0.9592 -0.0648
vn -0.2751 0.9592 -0.0648
vn -0.3975 0.9062 -0.1440
vn -0.1943 0.9589 -0.2070
vn -0.0839 0.9949 0.0567
vn -0.2824 0.9525 0.1138
vn -0.1027 0.9946 0.0161
vn -0.1063 0.9632 -0.2470
vn -0.0170 0.9376 -0.3472
vn -0.0049 0.9980 -0.0624
vn -0.0244 0.9965 -0.0805
vn -0.1063 0.9632 -0.2470
vn -0.0049 0.9980 -0.0624
# 168 vertex normals

vt 0.0030 0.4267 0.0000
vt 0.0262 0.4048 0.0000
vt 0.0265 0.4565 0.0000
vt 0.0230 0.4236 0.0000
vt 0.0407 0.4345 0.0000
vt 0.0035 0.4507 0.0000
vt 0.0330 0.4087 0.0000
vt 0.0328 0.4541 0.0000
vt 0.0108 0.4126 0.0000
vt 0.0197 0.4185 0.0000
vt 0.0167 0.4472 0.0000
vt 0.0009 0.4390 0.0000
vt 0.0278 0.4194 0.0000
vt 0.0184 0.4063 0.0000
vt 0.0381 0.4165 0.0000
vt 0.0383 0.4453 0.0000
vt 0.0383 0.4312 0.0000
vt 0.0278 0.4268 0.0000
vt 0.0166 0.4600 0.0000
vt 0.0063 0.4243 0.0000
vt 0.0104 0.4541 0.0000
vt 0.0173 0.4252 0.0000
vt 0.0126 0.4137 0.0000
vt 0.0362 0.4429 0.0000
vt 0.0246 0.4167 0.0000
vt 0.0257 0.4075 0.0000
vt 0.0359 0.4175 0.0000
vt 0.0317 0.4106 0.0000
vt 0.0191 0.4086 0.0000
vt 0.0067 0.4459 0.0000
vt 0.0148 0.4526 0.0000
vt 0.0313 0.4494 0.0000
vt 0.0244 0.4478 0.0000
vt 0.0037 0.4375 0.0000
vt 0.0301 0.4126 0.0000
vt 0.0252 0.4536 0.0000
# 36 texture coords

o SM_Barnacle_04_LOD1
g SM_Barnacle_04_LOD1
usemtl MAT_Sea_Shells
s 1
f 92/85/337 84/87/338 97/99/339 
f 81/97/340 75/83/341 101/89/342 
f 98/100/343 94/90/344 85/91/345 
f 80/76/346 66/69/347 88/98/348 
f 79/94/349 78/75/350 91/88/351 
f 89/82/352 74/78/353 86/92/354 
f 83/95/355 84/87/356 80/76/357 
f 94/90/358 78/75/359 79/94/360 
f 75/83/361 74/78/362 89/82/363 
f 66/69/364 75/83/365 88/98/366 
f 66/69/367 74/78/368 75/83/369 
f 81/97/370 101/89/371 96/81/372 
f 91/88/373 78/75/374 92/85/375 
f 78/75/376 84/87/377 92/85/378 
f 66/69/379 78/75/380 94/90/381 
f 93/79/382 79/94/383 77/74/384 
f 94/90/385 79/94/386 85/91/387 
f 87/96/388 80/76/389 99/101/390 
f 83/95/391 80/76/392 87/96/393 
f 68/68/394 99/101/395 76/73/396 
f 73/84/397 99/101/398 68/68/399 
f 86/92/400 74/78/401 98/100/402 
f 82/93/403 85/91/404 72/72/405 
f 83/95/406 87/96/407 70/71/408 
f 71/66/409 97/99/410 90/77/411 
f 84/87/412 66/69/413 80/76/414 
f 66/69/415 84/87/416 78/75/417 
f 72/72/418 85/91/419 67/67/420 
f 85/91/421 79/94/422 93/79/423 
f 86/92/424 82/93/425 95/80/426 
f 89/82/427 86/92/428 95/80/429 
f 70/71/430 87/96/431 100/86/432 
f 87/96/433 99/101/434 73/84/435 
f 88/98/436 75/83/437 81/97/438 
f 99/101/439 81/97/440 76/73/441 
f 101/89/442 75/83/443 89/82/444 
f 69/70/445 89/82/446 95/80/447 
f 90/77/448 83/95/449 70/71/450 
f 91/88/451 92/85/452 77/74/453 
f 79/94/454 91/88/455 77/74/456 
f 77/74/457 92/85/458 71/66/459 
f 92/85/460 97/99/461 71/66/462 
f 85/91/463 93/79/464 67/67/465 
f 74/78/466 94/90/467 98/100/468 
f 66/69/469 94/90/470 74/78/471 
f 95/80/472 82/93/473 72/72/474 
f 76/73/475 81/97/476 96/81/477 
f 97/99/478 83/95/479 90/77/480 
f 97/99/481 84/87/482 83/95/483 
f 98/100/484 85/91/485 82/93/486 
f 86/92/487 98/100/488 82/93/489 
f 80/76/490 88/98/491 99/101/492 
f 99/101/493 88/98/494 81/97/495 
f 100/86/496 87/96/497 73/84/498 
f 101/89/499 89/82/500 69/70/501 
f 96/81/502 101/89/503 69/70/504 
# 56 faces

