# 3ds Max Wavefront OBJ Exporter v0.97b - (c)2007 guruware
# File Created: 10.02.2024 08:45:25

mtllib SM_Barnacle_02.mtl

#
# object SM_Barnacle_02_LOD0
#

v  -2.0464 0.0000 -2.6503
v  -0.4009 0.3033 -2.2959
v  -0.1239 1.4567 -0.3575
v  -1.5974 0.2771 -1.6943
v  -0.8499 1.4477 -0.1694
v  -1.1122 1.4259 0.1069
v  -2.0774 0.2124 -1.0717
v  -2.8317 0.0000 -1.9408
v  -3.2091 0.0000 -0.8513
v  -1.2601 1.4037 0.4826
v  -2.4078 0.1449 -0.1723
v  -3.2905 0.0000 0.3143
v  -2.6136 0.1163 0.6922
v  -2.3546 0.1449 1.6518
v  -1.2704 1.3944 0.9034
v  -0.8919 1.4259 1.6384
v  -1.1411 1.4037 1.3067
v  0.1849 1.4567 1.8044
v  -0.5635 1.4477 1.8306
v  -0.9108 0.2771 2.9376
v  -2.2939 0.0000 2.5704
v  -1.7573 0.2124 2.3116
v  -1.1961 0.0000 3.5127
v  -3.0822 0.0000 1.6942
v  -0.6154 0.0000 -3.7976
v  1.0078 0.0000 -3.5990
v  0.8662 0.2771 -2.4037
v  2.1813 0.0000 -3.0156
v  2.8713 0.0000 -1.9170
v  3.2657 0.0000 -0.6224
v  3.2905 0.0000 0.7838
v  2.8091 0.0000 2.0558
v  2.2215 0.2124 1.9578
v  2.0191 0.0000 3.2680
v  0.4697 0.0000 3.7976
v  1.5841 0.2771 2.7957
v  0.3617 0.3033 3.0421
v  0.9108 1.4477 1.6200
v  1.1722 1.4259 1.3435
v  1.3185 1.4037 0.9553
v  2.5801 0.1449 0.9468
v  1.3297 1.3944 0.5319
v  1.2020 1.4037 0.1309
v  0.0350 1.8820 0.7552
v  2.5600 0.1163 -0.0469
v  2.2922 0.1449 -1.0406
v  0.9548 1.4259 -0.1883
v  1.7005 0.2124 -1.9700
v  0.6257 1.4477 -0.3802
# 49 vertices

vn -0.1652 0.9727 -0.1632
vn -0.1807 0.9189 -0.3506
vn -0.1379 0.9715 -0.1927
vn -0.1652 0.9727 -0.1632
vn -0.2749 0.9127 -0.3023
vn -0.1807 0.9189 -0.3506
vn -0.2749 0.9127 -0.3023
vn -0.1612 0.8917 -0.4229
vn -0.1807 0.9189 -0.3506
vn -0.2749 0.9127 -0.3023
vn -0.2842 0.8916 -0.3525
vn -0.1612 0.8917 -0.4229
vn -0.2842 0.8916 -0.3525
vn -0.2472 0.9682 0.0381
vn -0.1612 0.8917 -0.4229
vn -0.4580 0.8643 -0.2080
vn -0.2472 0.9682 0.0381
vn -0.2842 0.8916 -0.3525
vn -0.4073 0.8936 -0.1885
vn -0.4580 0.8643 -0.2080
vn -0.2842 0.8916 -0.3525
vn -0.2749 0.9127 -0.3023
vn -0.4073 0.8936 -0.1885
vn -0.2842 0.8916 -0.3525
vn -0.1905 0.9780 -0.0850
vn -0.4073 0.8936 -0.1885
vn -0.2749 0.9127 -0.3023
vn -0.1905 0.9780 -0.0850
vn -0.2749 0.9127 -0.3023
vn -0.1652 0.9727 -0.1632
vn -0.1787 0.9836 -0.0225
vn -0.4073 0.8936 -0.1885
vn -0.1905 0.9780 -0.0850
vn -0.1787 0.9836 -0.0225
vn -0.4490 0.8891 -0.0890
vn -0.4073 0.8936 -0.1885
vn -0.4490 0.8891 -0.0890
vn -0.4580 0.8643 -0.2080
vn -0.4073 0.8936 -0.1885
vn -0.4490 0.8891 -0.0890
vn -0.5230 0.8475 -0.0909
vn -0.4580 0.8643 -0.2080
vn -0.5230 0.8475 -0.0909
vn -0.2472 0.9682 0.0381
vn -0.4580 0.8643 -0.2080
vn -0.5325 0.8452 0.0459
vn -0.2472 0.9682 0.0381
vn -0.5230 0.8475 -0.0909
vn -0.4568 0.8892 0.0264
vn -0.5325 0.8452 0.0459
vn -0.5230 0.8475 -0.0909
vn -0.4490 0.8891 -0.0890
vn -0.4568 0.8892 0.0264
vn -0.5230 0.8475 -0.0909
vn -0.1788 0.9838 0.0088
vn -0.4568 0.8892 0.0264
vn -0.4490 0.8891 -0.0890
vn -0.1788 0.9838 0.0088
vn -0.4490 0.8891 -0.0890
vn -0.1787 0.9836 -0.0225
vn -0.2102 0.9729 0.0968
vn -0.4568 0.8892 0.0264
vn -0.1788 0.9838 0.0088
vn -0.2102 0.9729 0.0968
vn -0.4445 0.8704 0.2120
vn -0.4568 0.8892 0.0264
vn -0.4445 0.8704 0.2120
vn -0.5325 0.8452 0.0459
vn -0.4568 0.8892 0.0264
vn -0.4445 0.8704 0.2120
vn -0.4954 0.8394 0.2238
vn -0.5325 0.8452 0.0459
vn -0.4954 0.8394 0.2238
vn -0.2472 0.9682 0.0381
vn -0.5325 0.8452 0.0459
vn -0.4954 0.8394 0.2238
vn -0.4037 0.8339 0.3764
vn -0.2472 0.9682 0.0381
vn -0.4037 0.8339 0.3764
vn -0.1847 0.8453 0.5013
vn -0.2472 0.9682 0.0381
vn -0.1847 0.8453 0.5013
vn -0.0186 0.8350 0.5499
vn -0.2472 0.9682 0.0381
vn -0.1847 0.8453 0.5013
vn -0.0498 0.8297 0.5560
vn -0.0186 0.8350 0.5499
vn -0.1847 0.8453 0.5013
vn -0.2122 0.8340 0.5094
vn -0.0498 0.8297 0.5560
vn -0.4037 0.8339 0.3764
vn -0.2122 0.8340 0.5094
vn -0.1847 0.8453 0.5013
vn -0.2122 0.8340 0.5094
vn -0.0596 0.9180 0.3920
vn -0.0498 0.8297 0.5560
vn -0.2122 0.8340 0.5094
vn -0.1613 0.9260 0.3413
vn -0.0596 0.9180 0.3920
vn -0.3979 0.8340 0.3823
vn -0.1613 0.9260 0.3413
vn -0.2122 0.8340 0.5094
vn -0.4037 0.8339 0.3764
vn -0.3979 0.8340 0.3823
vn -0.2122 0.8340 0.5094
vn -0.4954 0.8394 0.2238
vn -0.3979 0.8340 0.3823
vn -0.4037 0.8339 0.3764
vn -0.4445 0.8704 0.2120
vn -0.3979 0.8340 0.3823
vn -0.4954 0.8394 0.2238
vn -0.2471 0.9424 0.2256
vn -0.3979 0.8340 0.3823
vn -0.4445 0.8704 0.2120
vn -0.2471 0.9424 0.2256
vn -0.1613 0.9260 0.3413
vn -0.3979 0.8340 0.3823
vn -0.2102 0.9729 0.0968
vn -0.2471 0.9424 0.2256
vn -0.4445 0.8704 0.2120
vn -0.0010 0.9319 -0.3628
vn 0.0694 0.9784 -0.1945
vn 0.0147 0.9775 -0.2104
vn -0.0010 0.9319 -0.3628
vn 0.1085 0.9331 -0.3429
vn 0.0694 0.9784 -0.1945
vn 0.1085 0.9331 -0.3429
vn 0.1514 0.9799 -0.1299
vn 0.0694 0.9784 -0.1945
vn 0.1085 0.9331 -0.3429
vn 0.2963 0.9182 -0.2630
vn 0.1514 0.9799 -0.1299
vn 0.2963 0.9182 -0.2630
vn 0.1709 0.9836 -0.0576
vn 0.1514 0.9799 -0.1299
vn 0.2963 0.9182 -0.2630
vn 0.4035 0.9017 -0.1553
vn 0.1709 0.9836 -0.0576
vn 0.4035 0.9017 -0.1553
vn 0.1670 0.9856 -0.0244
vn 0.1709 0.9836 -0.0576
vn 0.4035 0.9017 -0.1553
vn 0.4490 0.8912 -0.0636
vn 0.1670 0.9856 -0.0244
vn 0.4490 0.8912 -0.0636
vn 0.2219 0.9747 0.0283
vn 0.1670 0.9856 -0.0244
vn 0.4490 0.8912 -0.0636
vn 0.4816 0.8742 0.0615
vn 0.2219 0.9747 0.0283
vn 0.4816 0.8742 0.0615
vn 0.2998 0.9443 0.1357
vn 0.2219 0.9747 0.0283
vn 0.4816 0.8742 0.0615
vn 0.4786 0.8485 0.2261
vn 0.2998 0.9443 0.1357
vn 0.4786 0.8485 0.2261
vn 0.2256 0.9288 0.2940
vn 0.2998 0.9443 0.1357
vn 0.4786 0.8485 0.2261
vn 0.3038 0.8527 0.4249
vn 0.2256 0.9288 0.2940
vn 0.3038 0.8527 0.4249
vn 0.1164 0.9166 0.3825
vn 0.2256 0.9288 0.2940
vn 0.3038 0.8527 0.4249
vn 0.1396 0.8388 0.5263
vn 0.1164 0.9166 0.3825
vn 0.2885 0.8616 0.4176
vn 0.1396 0.8388 0.5263
vn 0.3038 0.8527 0.4249
vn 0.4786 0.8485 0.2261
vn 0.2885 0.8616 0.4176
vn 0.3038 0.8527 0.4249
vn 0.2885 0.8616 0.4176
vn 0.1320 0.8456 0.5172
vn 0.1396 0.8388 0.5263
vn 0.2885 0.8616 0.4176
vn 0.2472 0.9684 -0.0323
vn 0.1320 0.8456 0.5172
vn 0.4841 0.8459 0.2239
vn 0.2472 0.9684 -0.0323
vn 0.2885 0.8616 0.4176
vn 0.4786 0.8485 0.2261
vn 0.4841 0.8459 0.2239
vn 0.2885 0.8616 0.4176
vn 0.5365 0.8415 0.0635
vn 0.4841 0.8459 0.2239
vn 0.4786 0.8485 0.2261
vn 0.5365 0.8415 0.0635
vn 0.2472 0.9684 -0.0323
vn 0.4841 0.8459 0.2239
vn 0.4816 0.8742 0.0615
vn 0.5365 0.8415 0.0635
vn 0.4786 0.8485 0.2261
vn 0.5288 0.8456 -0.0733
vn 0.5365 0.8415 0.0635
vn 0.4816 0.8742 0.0615
vn 0.5288 0.8456 -0.0733
vn 0.2472 0.9684 -0.0323
vn 0.5365 0.8415 0.0635
vn 0.4490 0.8912 -0.0636
vn 0.5288 0.8456 -0.0733
vn 0.4816 0.8742 0.0615
vn 0.4708 0.8622 -0.1869
vn 0.5288 0.8456 -0.0733
vn 0.4490 0.8912 -0.0636
vn 0.4708 0.8622 -0.1869
vn 0.2472 0.9684 -0.0323
vn 0.5288 0.8456 -0.0733
vn 0.4035 0.9017 -0.1553
vn 0.4708 0.8622 -0.1869
vn 0.4490 0.8912 -0.0636
vn 0.3449 0.8901 -0.2980
vn 0.4708 0.8622 -0.1869
vn 0.4035 0.9017 -0.1553
vn 0.3449 0.8901 -0.2980
vn 0.2472 0.9684 -0.0323
vn 0.4708 0.8622 -0.1869
vn 0.2963 0.9182 -0.2630
vn 0.3449 0.8901 -0.2980
vn 0.4035 0.9017 -0.1553
vn 0.1260 0.9097 -0.3957
vn 0.3449 0.8901 -0.2980
vn 0.2963 0.9182 -0.2630
vn 0.1260 0.9097 -0.3957
vn 0.2472 0.9684 -0.0323
vn 0.3449 0.8901 -0.2980
vn 0.1260 0.9097 -0.3957
vn -0.0088 0.9015 -0.4327
vn 0.2472 0.9684 -0.0323
vn 0.1260 0.9097 -0.3957
vn -0.0010 0.9319 -0.3628
vn -0.0088 0.9015 -0.4327
vn 0.1260 0.9097 -0.3957
vn 0.1085 0.9331 -0.3429
vn -0.0010 0.9319 -0.3628
vn 0.1260 0.9097 -0.3957
vn 0.2963 0.9182 -0.2630
vn 0.1085 0.9331 -0.3429
# 240 vertex normals

vt 0.8279 0.6089 0.0000
vt 0.8108 0.6085 0.0000
vt 0.8237 0.6262 0.0000
vt 0.8076 0.6213 0.0000
vt 0.7902 0.6088 0.0000
vt 0.7891 0.6160 0.0000
vt 0.7786 0.6091 0.0000
vt 0.7866 0.6191 0.0000
vt 0.8022 0.6294 0.0000
vt 0.8149 0.6384 0.0000
vt 0.8032 0.6443 0.0000
vt 0.7935 0.6340 0.0000
vt 0.7827 0.6211 0.0000
vt 0.7788 0.6218 0.0000
vt 0.7827 0.6355 0.0000
vt 0.7881 0.6467 0.0000
vt 0.7725 0.6448 0.0000
vt 0.7725 0.6340 0.0000
vt 0.7744 0.6211 0.0000
vt 0.7705 0.6191 0.0000
vt 0.7681 0.6160 0.0000
vt 0.7671 0.6090 0.0000
vt 0.7512 0.6088 0.0000
vt 0.7549 0.6213 0.0000
vt 0.7385 0.6100 0.0000
vt 0.7461 0.6262 0.0000
vt 0.7627 0.6289 0.0000
vt 0.7583 0.6375 0.0000
vt 0.8242 0.6279 0.0000
vt 0.8081 0.6233 0.0000
vt 0.8154 0.6404 0.0000
vt 0.8027 0.6311 0.0000
vt 0.8037 0.6462 0.0000
vt 0.7939 0.6360 0.0000
vt 0.7886 0.6484 0.0000
vt 0.7832 0.6372 0.0000
vt 0.7729 0.6465 0.0000
vt 0.7729 0.6360 0.0000
vt 0.7588 0.6392 0.0000
vt 0.7632 0.6309 0.0000
vt 0.7466 0.6282 0.0000
vt 0.7554 0.6230 0.0000
vt 0.7686 0.6177 0.0000
vt 0.7710 0.6209 0.0000
vt 0.7749 0.6230 0.0000
vt 0.7793 0.6238 0.0000
vt 0.7832 0.6230 0.0000
vt 0.7871 0.6209 0.0000
vt 0.7896 0.6179 0.0000
# 49 texture coords

o SM_Barnacle_02_LOD0
g SM_Barnacle_02_LOD0
usemtl MAT_Sea_Shells
s 1
f 1/3/1 2/2/2 25/1/3 
f 1/3/4 4/4/5 2/2/6 
f 4/4/7 3/5/8 2/2/9 
f 4/4/10 5/6/11 3/5/12 
f 5/6/13 44/7/14 3/5/15 
f 6/8/16 44/7/17 5/6/18 
f 7/9/19 6/8/20 5/6/21 
f 4/4/22 7/9/23 5/6/24 
f 8/10/25 7/9/26 4/4/27 
f 8/10/28 4/4/29 1/3/30 
f 9/11/31 7/9/32 8/10/33 
f 9/11/34 11/12/35 7/9/36 
f 11/12/37 6/8/38 7/9/39 
f 11/12/40 10/13/41 6/8/42 
f 10/13/43 44/7/44 6/8/45 
f 15/14/46 44/7/47 10/13/48 
f 13/15/49 15/14/50 10/13/51 
f 11/12/52 13/15/53 10/13/54 
f 12/16/55 13/15/56 11/12/57 
f 12/16/58 11/12/59 9/11/60 
f 24/17/61 13/15/62 12/16/63 
f 24/17/64 14/18/65 13/15/66 
f 14/18/67 15/14/68 13/15/69 
f 14/18/70 17/19/71 15/14/72 
f 17/19/73 44/7/74 15/14/75 
f 17/19/76 16/20/77 44/7/78 
f 16/20/79 19/21/80 44/7/81 
f 19/21/82 18/22/83 44/7/84 
f 19/21/85 37/23/86 18/22/87 
f 19/21/88 20/24/89 37/23/90 
f 16/20/91 20/24/92 19/21/93 
f 20/24/94 35/25/95 37/23/96 
f 20/24/97 23/26/98 35/25/99 
f 22/27/100 23/26/101 20/24/102 
f 16/20/103 22/27/104 20/24/105 
f 17/19/106 22/27/107 16/20/108 
f 14/18/109 22/27/110 17/19/111 
f 21/28/112 22/27/113 14/18/114 
f 21/28/115 23/26/116 22/27/117 
f 24/17/118 21/28/119 14/18/120 
f 2/2/121 26/29/122 25/1/123 
f 2/2/124 27/30/125 26/29/126 
f 27/30/127 28/31/128 26/29/129 
f 27/30/130 48/32/131 28/31/132 
f 48/32/133 29/33/134 28/31/135 
f 48/32/136 46/34/137 29/33/138 
f 46/34/139 30/35/140 29/33/141 
f 46/34/142 45/36/143 30/35/144 
f 45/36/145 31/37/146 30/35/147 
f 45/36/148 41/38/149 31/37/150 
f 41/38/151 32/39/152 31/37/153 
f 41/38/154 33/40/155 32/39/156 
f 33/40/157 34/41/158 32/39/159 
f 33/40/160 36/42/161 34/41/162 
f 36/42/163 35/25/164 34/41/165 
f 36/42/166 37/23/167 35/25/168 
f 38/43/169 37/23/170 36/42/171 
f 33/40/172 38/43/173 36/42/174 
f 38/43/175 18/22/176 37/23/177 
f 38/43/178 44/7/179 18/22/180 
f 39/44/181 44/7/182 38/43/183 
f 33/40/184 39/44/185 38/43/186 
f 40/45/187 39/44/188 33/40/189 
f 40/45/190 44/7/191 39/44/192 
f 41/38/193 40/45/194 33/40/195 
f 42/46/196 40/45/197 41/38/198 
f 42/46/199 44/7/200 40/45/201 
f 45/36/202 42/46/203 41/38/204 
f 43/47/205 42/46/206 45/36/207 
f 43/47/208 44/7/209 42/46/210 
f 46/34/211 43/47/212 45/36/213 
f 47/48/214 43/47/215 46/34/216 
f 47/48/217 44/7/218 43/47/219 
f 48/32/220 47/48/221 46/34/222 
f 49/49/223 47/48/224 48/32/225 
f 49/49/226 44/7/227 47/48/228 
f 49/49/229 3/5/230 44/7/231 
f 49/49/232 2/2/233 3/5/234 
f 49/49/235 27/30/236 2/2/237 
f 49/49/238 48/32/239 27/30/240 
# 80 faces

#
# object SM_Barnacle_02_LOD1
#

v  0.0350 1.8820 0.7552
v  -3.0320 0.0000 1.7499
v  2.0191 0.0000 3.2680
v  2.1813 0.0000 -3.0156
v  3.2905 0.0000 0.7838
v  1.2020 1.4037 0.1309
v  -2.8317 0.0000 -1.9408
v  -0.6154 0.0000 -3.7976
v  -1.1411 1.4037 1.3067
v  -1.1961 0.0000 3.5127
v  3.2657 0.0000 -0.6224
v  -1.7486 0.2567 -1.4983
v  -0.9897 1.4361 -0.0221
v  0.8641 1.4483 1.6319
v  0.8662 0.2771 -2.4037
v  2.2215 0.2124 1.9578
v  -2.1288 0.1704 1.9013
v  -3.2426 0.0000 -0.3716
v  0.4697 0.0000 3.7976
v  -0.4009 0.3033 -2.2959
v  2.2922 0.1449 -1.0406
v  0.3617 0.3033 3.0421
v  0.6257 1.4477 -0.3802
v  -2.6136 0.1163 0.6922
v  1.0078 0.0000 -3.5990
v  -0.5635 1.4477 1.8306
v  -0.9108 0.2771 2.9376
v  1.5841 0.2771 2.7957
v  1.3185 1.4037 0.9553
v  2.8091 0.0000 2.0558
v  2.8713 0.0000 -1.9170
v  2.5801 0.1449 0.9468
v  1.7005 0.2124 -1.9700
# 33 vertices

vn 0.2742 0.9334 -0.2313
vn 0.4935 0.8494 -0.1867
vn 0.3815 0.9159 -0.1252
vn -0.2135 0.8324 0.5114
vn -0.4090 0.8691 0.2782
vn -0.2387 0.8435 0.4812
vn -0.2982 0.9232 -0.2425
vn -0.4047 0.9144 0.0113
vn -0.4063 0.8733 -0.2687
vn 0.4741 0.8530 0.2180
vn 0.3060 0.8508 0.4272
vn 0.2946 0.8659 0.4043
vn 0.1493 0.9076 -0.3924
vn 0.4935 0.8494 -0.1867
vn 0.2742 0.9334 -0.2313
vn -0.2135 0.8324 0.5114
vn 0.0367 0.8523 0.5217
vn 0.3060 0.8508 0.4272
vn -0.1890 0.9819 -0.0131
vn -0.4047 0.9144 0.0113
vn -0.2982 0.9232 -0.2425
vn 0.1493 0.9076 -0.3924
vn 0.0950 0.9417 -0.3227
vn -0.1043 0.9384 -0.3295
vn -0.2135 0.8324 0.5114
vn 0.3060 0.8508 0.4272
vn -0.0085 1.0000 0.0003
vn -0.4047 0.9144 0.0113
vn -0.5218 0.8240 0.2206
vn -0.4063 0.8733 -0.2687
vn -0.2135 0.8324 0.5114
vn -0.2387 0.8435 0.4812
vn 0.0367 0.8523 0.5217
vn 0.2742 0.9334 -0.2313
vn 0.3815 0.9159 -0.1252
vn 0.1775 0.9816 -0.0700
vn -0.1833 0.9767 -0.1116
vn -0.1043 0.9384 -0.3295
vn -0.0510 0.9803 -0.1907
vn -0.1043 0.9384 -0.3295
vn 0.0545 0.9756 -0.2126
vn -0.0510 0.9803 -0.1907
vn -0.5218 0.8240 0.2206
vn -0.0085 1.0000 0.0003
vn -0.4063 0.8733 -0.2687
vn 0.1493 0.9076 -0.3924
vn -0.1043 0.9384 -0.3295
vn -0.4063 0.8733 -0.2687
vn 0.5500 0.8298 0.0942
vn -0.0085 1.0000 0.0003
vn 0.3060 0.8508 0.4272
vn 0.5500 0.8298 0.0942
vn 0.3060 0.8508 0.4272
vn 0.4741 0.8530 0.2180
vn 0.2742 0.9334 -0.2313
vn 0.1775 0.9816 -0.0700
vn 0.1458 0.9773 -0.1539
vn -0.1043 0.9384 -0.3295
vn 0.0950 0.9417 -0.3227
vn 0.0545 0.9756 -0.2126
vn 0.4741 0.8530 0.2180
vn 0.2481 0.9213 0.2996
vn 0.2988 0.9470 0.1181
vn 0.3815 0.9159 -0.1252
vn 0.5500 0.8298 0.0942
vn 0.4489 0.8928 0.0367
vn -0.2033 0.9759 0.0798
vn -0.1830 0.9226 0.3395
vn -0.4090 0.8691 0.2782
vn -0.4090 0.8691 0.2782
vn -0.5218 0.8240 0.2206
vn -0.4047 0.9144 0.0113
vn -0.1890 0.9819 -0.0131
vn -0.2982 0.9232 -0.2425
vn -0.1833 0.9767 -0.1116
vn -0.2387 0.8435 0.4812
vn 0.0288 0.9240 0.3813
vn 0.0367 0.8523 0.5217
vn -0.1833 0.9767 -0.1116
vn -0.2982 0.9232 -0.2425
vn -0.1043 0.9384 -0.3295
vn -0.2982 0.9232 -0.2425
vn -0.4063 0.8733 -0.2687
vn -0.1043 0.9384 -0.3295
vn 0.3815 0.9159 -0.1252
vn 0.4489 0.8928 0.0367
vn 0.1945 0.9808 0.0161
vn 0.3815 0.9159 -0.1252
vn 0.1945 0.9808 0.0161
vn 0.1546 0.9878 -0.0175
vn 0.2946 0.8659 0.4043
vn 0.0367 0.8523 0.5217
vn 0.0288 0.9240 0.3813
vn 0.3060 0.8508 0.4272
vn 0.0367 0.8523 0.5217
vn 0.2946 0.8659 0.4043
vn 0.1493 0.9076 -0.3924
vn -0.0085 1.0000 0.0003
vn 0.4935 0.8494 -0.1867
vn 0.1493 0.9076 -0.3924
vn -0.4063 0.8733 -0.2687
vn -0.0085 1.0000 0.0003
vn -0.2033 0.9759 0.0798
vn -0.4047 0.9144 0.0113
vn -0.1890 0.9819 -0.0131
vn -0.2033 0.9759 0.0798
vn -0.4090 0.8691 0.2782
vn -0.4047 0.9144 0.0113
vn 0.0950 0.9417 -0.3227
vn 0.1458 0.9773 -0.1539
vn 0.0545 0.9756 -0.2126
vn -0.5218 0.8240 0.2206
vn -0.2135 0.8324 0.5114
vn -0.0085 1.0000 0.0003
vn -0.5218 0.8240 0.2206
vn -0.4090 0.8691 0.2782
vn -0.2135 0.8324 0.5114
vn -0.2387 0.8435 0.4812
vn -0.1830 0.9226 0.3395
vn 0.0288 0.9240 0.3813
vn -0.4090 0.8691 0.2782
vn -0.1830 0.9226 0.3395
vn -0.2387 0.8435 0.4812
vn 0.4741 0.8530 0.2180
vn 0.2946 0.8659 0.4043
vn 0.2481 0.9213 0.2996
vn 0.2946 0.8659 0.4043
vn 0.0288 0.9240 0.3813
vn 0.2481 0.9213 0.2996
vn 0.4935 0.8494 -0.1867
vn 0.5500 0.8298 0.0942
vn 0.3815 0.9159 -0.1252
vn 0.4935 0.8494 -0.1867
vn -0.0085 1.0000 0.0003
vn 0.5500 0.8298 0.0942
vn 0.4489 0.8928 0.0367
vn 0.2988 0.9470 0.1181
vn 0.1945 0.9808 0.0161
vn 0.3815 0.9159 -0.1252
vn 0.1546 0.9878 -0.0175
vn 0.1775 0.9816 -0.0700
vn 0.4489 0.8928 0.0367
vn 0.4741 0.8530 0.2180
vn 0.2988 0.9470 0.1181
vn 0.4489 0.8928 0.0367
vn 0.5500 0.8298 0.0942
vn 0.4741 0.8530 0.2180
vn 0.0950 0.9417 -0.3227
vn 0.2742 0.9334 -0.2313
vn 0.1458 0.9773 -0.1539
vn 0.1493 0.9076 -0.3924
vn 0.2742 0.9334 -0.2313
vn 0.0950 0.9417 -0.3227
# 153 vertex normals

vt 0.8154 0.6404 0.0000
vt 0.7716 0.6443 0.0000
vt 0.7466 0.6282 0.0000
vt 0.7786 0.6091 0.0000
vt 0.8279 0.6089 0.0000
vt 0.7729 0.6465 0.0000
vt 0.7461 0.6262 0.0000
vt 0.8149 0.6384 0.0000
vt 0.7744 0.6211 0.0000
vt 0.7832 0.6230 0.0000
vt 0.7878 0.6177 0.0000
vt 0.7970 0.6453 0.0000
vt 0.7685 0.6171 0.0000
vt 0.7385 0.6100 0.0000
vt 0.8059 0.6239 0.0000
vt 0.8081 0.6233 0.0000
vt 0.7588 0.6392 0.0000
vt 0.7688 0.6321 0.0000
vt 0.7939 0.6360 0.0000
vt 0.8242 0.6279 0.0000
vt 0.7886 0.6484 0.0000
vt 0.7681 0.6160 0.0000
vt 0.7632 0.6309 0.0000
vt 0.8037 0.6462 0.0000
vt 0.7896 0.6179 0.0000
vt 0.7512 0.6088 0.0000
vt 0.8108 0.6085 0.0000
vt 0.7549 0.6213 0.0000
vt 0.7749 0.6230 0.0000
vt 0.7827 0.6355 0.0000
vt 0.7729 0.6360 0.0000
vt 0.8027 0.6311 0.0000
vt 0.7554 0.6230 0.0000
# 33 texture coords

o SM_Barnacle_02_LOD1
g SM_Barnacle_02_LOD1
usemtl MAT_Sea_Shells
s 1
f 82/81/241 55/59/242 70/68/243 
f 75/71/244 66/67/245 76/77/246 
f 61/64/247 73/79/248 62/60/249 
f 65/72/250 63/62/251 77/82/252 
f 72/74/253 55/59/254 82/81/255 
f 75/71/256 71/75/257 63/62/258 
f 67/61/259 73/79/260 61/64/261 
f 72/74/262 64/65/263 69/76/264 
f 75/71/265 63/62/266 50/53/267 
f 73/79/268 58/58/269 62/60/270 
f 75/71/271 76/77/272 71/75/273 
f 82/81/274 70/68/275 80/73/276 
f 56/57/277 69/76/278 57/54/279 
f 69/76/280 74/69/281 57/54/282 
f 58/58/283 50/53/284 62/60/285 
f 72/74/286 69/76/287 62/60/288 
f 78/78/289 50/53/290 63/62/291 
f 78/78/292 63/62/293 65/72/294 
f 82/81/295 80/73/296 53/50/297 
f 69/76/298 64/65/299 74/69/300 
f 65/72/301 52/52/302 79/66/303 
f 70/68/304 78/78/305 81/80/306 
f 51/51/307 59/56/308 66/67/309 
f 66/67/310 58/58/311 73/79/312 
f 67/61/313 61/64/314 56/57/315 
f 76/77/316 68/63/317 71/75/318 
f 56/57/319 61/64/320 69/76/321 
f 61/64/322 62/60/323 69/76/324 
f 70/68/325 81/80/326 54/55/327 
f 70/68/328 54/55/329 60/70/330 
f 77/82/331 71/75/332 68/63/333 
f 63/62/334 71/75/335 77/82/336 
f 72/74/337 50/53/338 55/59/339 
f 72/74/340 62/60/341 50/53/342 
f 51/51/343 73/79/344 67/61/345 
f 51/51/346 66/67/347 73/79/348 
f 64/65/349 53/50/350 74/69/351 
f 58/58/352 75/71/353 50/53/354 
f 58/58/355 66/67/356 75/71/357 
f 76/77/358 59/56/359 68/63/360 
f 66/67/361 59/56/362 76/77/363 
f 65/72/364 77/82/365 52/52/366 
f 77/82/367 68/63/368 52/52/369 
f 55/59/370 78/78/371 70/68/372 
f 55/59/373 50/53/374 78/78/375 
f 81/80/376 79/66/377 54/55/378 
f 70/68/379 60/70/380 80/73/381 
f 81/80/382 65/72/383 79/66/384 
f 81/80/385 78/78/386 65/72/387 
f 64/65/388 82/81/389 53/50/390 
f 72/74/391 82/81/392 64/65/393 
# 51 faces

