# 3ds Max Wavefront OBJ Exporter v0.97b - (c)2007 guruware
# File Created: 10.02.2024 08:45:27

mtllib SM_Barnacle_08.mtl

#
# object SM_Barnacle_08_LOD0
#

v  3.6122 0.0000 0.0181
v  3.2283 0.0000 1.4998
v  3.2669 0.0000 -1.4677
v  2.3737 0.0000 -2.8713
v  2.1568 0.1474 -2.3528
v  1.1224 0.0000 -3.5171
v  -0.1730 0.0000 -3.9993
v  -1.5035 0.0000 -3.8296
v  -2.1686 0.1474 -2.5476
v  -2.6985 0.0000 -3.0483
v  -3.4259 0.0000 -1.7802
v  -3.6122 0.0000 -0.1375
v  -3.4228 0.0000 1.4146
v  -2.8351 0.0000 2.8354
v  -2.8116 0.1717 1.2076
v  -2.2729 0.1474 2.3969
v  -1.6838 0.0000 3.8678
v  -0.2654 0.0000 3.9993
v  1.0364 0.0000 3.5682
v  -0.1030 0.1113 3.3888
v  2.2303 0.0000 2.7859
v  2.0530 0.1474 2.3780
v  2.8960 0.1717 1.2843
v  3.2125 0.1816 0.0206
v  2.9616 0.6962 0.0486
v  2.9279 0.1717 -1.2474
v  2.7281 0.6741 -1.0545
v  2.0755 0.6131 -2.0019
v  1.0850 0.1221 -3.0068
v  0.1822 0.5226 -2.8576
v  -0.0255 0.1113 -3.3895
v  -1.1587 0.1221 -3.2284
v  -1.6236 0.6131 -2.0901
v  -2.8051 0.1717 -1.4654
v  -2.1920 0.6741 -1.1682
v  -2.9879 0.1816 -0.1017
v  -2.3871 0.6987 -0.0695
v  -2.2124 0.6741 1.0213
v  -1.6922 0.6131 1.9959
v  -1.2913 0.1221 3.2410
v  1.0103 0.1221 3.0487
v  2.0060 0.6103 2.0271
v  2.1809 1.7379 0.4487
v  1.8482 1.7193 -0.4619
v  1.1366 0.5496 -2.5793
v  1.0578 1.7005 -0.9049
v  -0.7797 0.5496 -2.6934
v  0.0076 1.7523 0.2806
v  -0.8573 0.5496 2.6541
v  0.3268 1.7175 1.1444
v  0.1185 0.5226 2.8389
v  0.6722 1.6944 1.4172
v  1.0823 1.6834 1.5323
v  1.0709 0.5495 2.5948
v  2.7164 0.6692 1.1236
v  2.1003 1.7284 0.8966
v  1.8611 1.7088 1.2543
v  1.4973 1.6899 1.4760
v  0.0932 1.7407 0.7474
v  1.3519 2.0104 0.6516
v  0.0832 1.7475 -0.1872
v  0.3083 1.7300 -0.5819
v  0.6485 1.7106 -0.8369
v  1.4770 1.7048 -0.7717
v  2.0949 1.7336 -0.0301
v  2.6120 1.2665 0.2200
v  2.4309 1.2893 -0.5817
v  1.9515 1.2364 -1.3595
v  1.2708 1.1949 -1.8391
v  0.5746 1.1675 -2.0459
v  -0.1168 1.1825 -1.9243
v  -0.7187 1.2289 -1.4950
v  -1.1309 1.2810 -0.8384
v  -1.2890 1.3148 -0.0495
v  -1.1916 1.2992 0.5051
v  -0.8762 1.2508 1.2297
v  -0.3287 1.1983 1.7668
v  0.3513 1.1755 2.0270
v  1.0633 1.1831 2.0141
v  1.9598 1.2183 1.6277
v  2.4462 1.2786 0.9927
# 81 vertices

vn 0.6699 0.7424 0.0059
vn 0.3568 0.9163 0.1819
vn 0.4136 0.9104 0.0043
vn 0.3625 0.9181 -0.1601
vn 0.6699 0.7424 0.0059
vn 0.4136 0.9104 0.0043
vn 0.5932 0.7589 -0.2686
vn 0.6699 0.7424 0.0059
vn 0.3625 0.9181 -0.1601
vn 0.1672 0.9629 -0.2117
vn 0.5932 0.7589 -0.2686
vn 0.3625 0.9181 -0.1601
vn 0.3547 0.8377 -0.4153
vn 0.5932 0.7589 -0.2686
vn 0.1672 0.9629 -0.2117
vn 0.1868 0.8675 -0.4610
vn 0.3547 0.8377 -0.4153
vn 0.1672 0.9629 -0.2117
vn 0.0876 0.9714 -0.2209
vn 0.1868 0.8675 -0.4610
vn 0.1672 0.9629 -0.2117
vn 0.0347 0.9217 -0.3864
vn 0.1868 0.8675 -0.4610
vn 0.0876 0.9714 -0.2209
vn 0.0155 0.9825 -0.1856
vn 0.0347 0.9217 -0.3864
vn 0.0876 0.9714 -0.2209
vn -0.1156 0.9360 -0.3325
vn 0.0347 0.9217 -0.3864
vn 0.0155 0.9825 -0.1856
vn -0.0612 0.9833 -0.1714
vn -0.1156 0.9360 -0.3325
vn 0.0155 0.9825 -0.1856
vn -0.2493 0.9330 -0.2595
vn -0.1156 0.9360 -0.3325
vn -0.0612 0.9833 -0.1714
vn -0.1448 0.9789 -0.1443
vn -0.2493 0.9330 -0.2595
vn -0.0612 0.9833 -0.1714
vn -0.3839 0.9125 -0.1415
vn -0.2493 0.9330 -0.2595
vn -0.1448 0.9789 -0.1443
vn -0.2284 0.9704 -0.0790
vn -0.3839 0.9125 -0.1415
vn -0.1448 0.9789 -0.1443
vn -0.2753 0.9614 -0.0041
vn -0.3839 0.9125 -0.1415
vn -0.2284 0.9704 -0.0790
vn -0.4613 0.8873 -0.0023
vn -0.3839 0.9125 -0.1415
vn -0.2753 0.9614 -0.0041
vn -0.2507 0.9655 0.0704
vn -0.4613 0.8873 -0.0023
vn -0.2753 0.9614 -0.0041
vn -0.4155 0.9004 0.1290
vn -0.4613 0.8873 -0.0023
vn -0.2507 0.9655 0.0704
vn -0.1665 0.9778 0.1275
vn -0.4155 0.9004 0.1290
vn -0.2507 0.9655 0.0704
vn -0.2812 0.9306 0.2343
vn -0.4155 0.9004 0.1290
vn -0.1665 0.9778 0.1275
vn -0.0668 0.9850 0.1590
vn -0.2812 0.9306 0.2343
vn -0.1665 0.9778 0.1275
vn -0.1159 0.9462 0.3020
vn -0.2812 0.9306 0.2343
vn -0.0668 0.9850 0.1590
vn 0.0147 0.9828 0.1843
vn -0.1159 0.9462 0.3020
vn -0.0668 0.9850 0.1590
vn 0.0278 0.9250 0.3790
vn -0.1159 0.9462 0.3020
vn 0.0147 0.9828 0.1843
vn 0.0913 0.9716 0.2185
vn 0.0278 0.9250 0.3790
vn 0.0147 0.9828 0.1843
vn 0.1849 0.8744 0.4485
vn 0.0278 0.9250 0.3790
vn 0.0913 0.9716 0.2185
vn 0.2007 0.9470 0.2507
vn 0.1849 0.8744 0.4485
vn 0.0913 0.9716 0.2185
vn 0.3737 0.8097 0.4525
vn 0.1849 0.8744 0.4485
vn 0.2007 0.9470 0.2507
vn 0.5957 0.7449 0.3003
vn 0.3737 0.8097 0.4525
vn 0.2007 0.9470 0.2507
vn 0.3568 0.9163 0.1819
vn 0.5957 0.7449 0.3003
vn 0.2007 0.9470 0.2507
vn 0.6699 0.7424 0.0059
vn 0.5957 0.7449 0.3003
vn 0.3568 0.9163 0.1819
vn 0.8815 0.4722 -0.0012
vn 0.5957 0.7449 0.3003
vn 0.6699 0.7424 0.0059
vn 0.5932 0.7589 -0.2686
vn 0.8815 0.4722 -0.0012
vn 0.6699 0.7424 0.0059
vn 0.7712 0.5296 -0.3533
vn 0.8815 0.4722 -0.0012
vn 0.5932 0.7589 -0.2686
vn 0.5353 0.6062 -0.5881
vn 0.7712 0.5296 -0.3533
vn 0.5932 0.7589 -0.2686
vn 0.3547 0.8377 -0.4153
vn 0.5353 0.6062 -0.5881
vn 0.5932 0.7589 -0.2686
vn 0.2811 0.6803 -0.6769
vn 0.5353 0.6062 -0.5881
vn 0.3547 0.8377 -0.4153
vn 0.1868 0.8675 -0.4610
vn 0.2811 0.6803 -0.6769
vn 0.3547 0.8377 -0.4153
vn 0.0558 0.7706 -0.6349
vn 0.2811 0.6803 -0.6769
vn 0.1868 0.8675 -0.4610
vn 0.0347 0.9217 -0.3864
vn 0.0558 0.7706 -0.6349
vn 0.1868 0.8675 -0.4610
vn -0.1789 0.8277 -0.5319
vn 0.0558 0.7706 -0.6349
vn 0.0347 0.9217 -0.3864
vn -0.1156 0.9360 -0.3325
vn -0.1789 0.8277 -0.5319
vn 0.0347 0.9217 -0.3864
vn -0.3547 0.8478 -0.3943
vn -0.1789 0.8277 -0.5319
vn -0.1156 0.9360 -0.3325
vn -0.2493 0.9330 -0.2595
vn -0.3547 0.8478 -0.3943
vn -0.1156 0.9360 -0.3325
vn -0.4967 0.8410 -0.2146
vn -0.3547 0.8478 -0.3943
vn -0.2493 0.9330 -0.2595
vn -0.3839 0.9125 -0.1415
vn -0.4967 0.8410 -0.2146
vn -0.2493 0.9330 -0.2595
vn -0.5692 0.8222 -0.0029
vn -0.4967 0.8410 -0.2146
vn -0.3839 0.9125 -0.1415
vn -0.4613 0.8873 -0.0023
vn -0.5692 0.8222 -0.0029
vn -0.3839 0.9125 -0.1415
vn -0.4155 0.9004 0.1290
vn -0.5692 0.8222 -0.0029
vn -0.4613 0.8873 -0.0023
vn -0.5193 0.8318 0.1960
vn -0.5692 0.8222 -0.0029
vn -0.4155 0.9004 0.1290
vn -0.2812 0.9306 0.2343
vn -0.5193 0.8318 0.1960
vn -0.4155 0.9004 0.1290
vn -0.3769 0.8528 0.3616
vn -0.5193 0.8318 0.1960
vn -0.2812 0.9306 0.2343
vn -0.1159 0.9462 0.3020
vn -0.3769 0.8528 0.3616
vn -0.2812 0.9306 0.2343
vn -0.1868 0.8450 0.5011
vn -0.3769 0.8528 0.3616
vn -0.1159 0.9462 0.3020
vn 0.0278 0.9250 0.3790
vn -0.1868 0.8450 0.5011
vn -0.1159 0.9462 0.3020
vn 0.0233 0.7805 0.6247
vn -0.1868 0.8450 0.5011
vn 0.0278 0.9250 0.3790
vn 0.1849 0.8744 0.4485
vn 0.0233 0.7805 0.6247
vn 0.0278 0.9250 0.3790
vn 0.2588 0.6697 0.6960
vn 0.0233 0.7805 0.6247
vn 0.1849 0.8744 0.4485
vn 0.3737 0.8097 0.4525
vn 0.2588 0.6697 0.6960
vn 0.1849 0.8744 0.4485
vn 0.5413 0.5311 0.6519
vn 0.2588 0.6697 0.6960
vn 0.3737 0.8097 0.4525
vn 0.5957 0.7449 0.3003
vn 0.5413 0.5311 0.6519
vn 0.3737 0.8097 0.4525
vn 0.8106 0.4350 0.3920
vn 0.5413 0.5311 0.6519
vn 0.5957 0.7449 0.3003
vn 0.8815 0.4722 -0.0012
vn 0.8106 0.4350 0.3920
vn 0.5957 0.7449 0.3003
vn 0.5678 0.8229 0.0200
vn 0.5521 0.7888 0.2701
vn 0.7677 0.5272 0.3642
vn 0.7677 0.5272 0.3642
vn 0.8104 0.5858 0.0084
vn 0.5678 0.8229 0.0200
vn 0.7712 0.5296 -0.3533
vn 0.6787 0.6760 -0.2871
vn 0.8104 0.5858 0.0084
vn 0.8104 0.5858 0.0084
vn 0.8815 0.4722 -0.0012
vn 0.7712 0.5296 -0.3533
vn 0.5678 0.8229 0.0200
vn 0.8104 0.5858 0.0084
vn 0.6787 0.6760 -0.2871
vn 0.6787 0.6760 -0.2871
vn 0.4740 0.8631 -0.1744
vn 0.5678 0.8229 0.0200
vn 0.7712 0.5296 -0.3533
vn 0.5353 0.6062 -0.5881
vn 0.4608 0.7447 -0.4829
vn 0.4608 0.7447 -0.4829
vn 0.6787 0.6760 -0.2871
vn 0.7712 0.5296 -0.3533
vn 0.2811 0.6803 -0.6769
vn 0.2400 0.7912 -0.5625
vn 0.4608 0.7447 -0.4829
vn 0.4608 0.7447 -0.4829
vn 0.5353 0.6062 -0.5881
vn 0.2811 0.6803 -0.6769
vn 0.2400 0.7912 -0.5625
vn 0.0453 0.8324 -0.5523
vn 0.0372 0.9406 -0.3375
vn 0.0372 0.9406 -0.3375
vn 0.1672 0.9241 -0.3436
vn 0.2400 0.7912 -0.5625
vn 0.0558 0.7706 -0.6349
vn 0.0453 0.8324 -0.5523
vn 0.2400 0.7912 -0.5625
vn 0.2400 0.7912 -0.5625
vn 0.2811 0.6803 -0.6769
vn 0.0558 0.7706 -0.6349
vn 0.0453 0.8324 -0.5523
vn -0.1448 0.8732 -0.4653
vn -0.0769 0.9536 -0.2910
vn -0.0769 0.9536 -0.2910
vn 0.0372 0.9406 -0.3375
vn 0.0453 0.8324 -0.5523
vn -0.1789 0.8277 -0.5319
vn -0.1448 0.8732 -0.4653
vn 0.0453 0.8324 -0.5523
vn 0.0453 0.8324 -0.5523
vn 0.0558 0.7706 -0.6349
vn -0.1789 0.8277 -0.5319
vn -0.1448 0.8732 -0.4653
vn -0.2787 0.8979 -0.3406
vn -0.1625 0.9627 -0.2163
vn -0.1625 0.9627 -0.2163
vn -0.0769 0.9536 -0.2910
vn -0.1448 0.8732 -0.4653
vn -0.3547 0.8478 -0.3943
vn -0.2787 0.8979 -0.3406
vn -0.1448 0.8732 -0.4653
vn -0.1448 0.8732 -0.4653
vn -0.1789 0.8277 -0.5319
vn -0.3547 0.8478 -0.3943
vn -0.4967 0.8410 -0.2146
vn -0.3673 0.9105 -0.1901
vn -0.2787 0.8979 -0.3406
vn -0.2787 0.8979 -0.3406
vn -0.3547 0.8478 -0.3943
vn -0.4967 0.8410 -0.2146
vn -0.3673 0.9105 -0.1901
vn -0.4118 0.9112 -0.0102
vn -0.2683 0.9630 0.0269
vn -0.2683 0.9630 0.0269
vn -0.2243 0.9672 -0.1191
vn -0.3673 0.9105 -0.1901
vn -0.5692 0.8222 -0.0029
vn -0.4118 0.9112 -0.0102
vn -0.3673 0.9105 -0.1901
vn -0.3673 0.9105 -0.1901
vn -0.4967 0.8410 -0.2146
vn -0.5692 0.8222 -0.0029
vn -0.5193 0.8318 0.1960
vn -0.4041 0.9024 0.1499
vn -0.4118 0.9112 -0.0102
vn -0.4118 0.9112 -0.0102
vn -0.5692 0.8222 -0.0029
vn -0.5193 0.8318 0.1960
vn -0.5193 0.8318 0.1960
vn -0.3769 0.8528 0.3616
vn -0.3518 0.8878 0.2967
vn -0.3518 0.8878 0.2967
vn -0.4041 0.9024 0.1499
vn -0.5193 0.8318 0.1960
vn -0.3518 0.8878 0.2967
vn -0.2453 0.8522 0.4621
vn -0.2334 0.9140 0.3317
vn -0.2334 0.9140 0.3317
vn -0.2766 0.9431 0.1845
vn -0.3518 0.8878 0.2967
vn -0.1868 0.8450 0.5011
vn -0.2453 0.8522 0.4621
vn -0.3518 0.8878 0.2967
vn -0.3518 0.8878 0.2967
vn -0.3769 0.8528 0.3616
vn -0.1868 0.8450 0.5011
vn -0.2453 0.8522 0.4621
vn -0.0798 0.7862 0.6128
vn -0.1335 0.8735 0.4682
vn -0.1335 0.8735 0.4682
vn -0.2334 0.9140 0.3317
vn -0.2453 0.8522 0.4621
vn 0.0233 0.7805 0.6247
vn -0.0798 0.7862 0.6128
vn -0.2453 0.8522 0.4621
vn -0.2453 0.8522 0.4621
vn -0.1868 0.8450 0.5011
vn 0.0233 0.7805 0.6247
vn -0.0798 0.7862 0.6128
vn 0.1600 0.6789 0.7166
vn -0.0037 0.8340 0.5518
vn -0.0037 0.8340 0.5518
vn -0.1335 0.8735 0.4682
vn -0.0798 0.7862 0.6128
vn 0.2588 0.6697 0.6960
vn 0.1600 0.6789 0.7166
vn -0.0798 0.7862 0.6128
vn -0.0798 0.7862 0.6128
vn 0.0233 0.7805 0.6247
vn 0.2588 0.6697 0.6960
vn 0.1958 0.7833 0.5900
vn -0.0037 0.8340 0.5518
vn 0.1600 0.6789 0.7166
vn 0.5413 0.5311 0.6519
vn 0.5236 0.5394 0.6595
vn 0.1600 0.6789 0.7166
vn 0.1600 0.6789 0.7166
vn 0.2588 0.6697 0.6960
vn 0.5413 0.5311 0.6519
vn 0.1958 0.7833 0.5900
vn 0.1600 0.6789 0.7166
vn 0.5236 0.5394 0.6595
vn 0.5236 0.5394 0.6595
vn 0.4049 0.7707 0.4921
vn 0.1958 0.7833 0.5900
vn 0.8106 0.4350 0.3920
vn 0.7677 0.5272 0.3642
vn 0.5236 0.5394 0.6595
vn 0.5236 0.5394 0.6595
vn 0.5413 0.5311 0.6519
vn 0.8106 0.4350 0.3920
vn 0.4049 0.7707 0.4921
vn 0.5236 0.5394 0.6595
vn 0.7677 0.5272 0.3642
vn 0.7677 0.5272 0.3642
vn 0.5521 0.7888 0.2701
vn 0.4049 0.7707 0.4921
vn 0.0617 0.9950 0.0788
vn 0.5521 0.7888 0.2701
vn 0.5678 0.8229 0.0200
vn 0.0617 0.9950 0.0788
vn 0.4049 0.7707 0.4921
vn 0.5521 0.7888 0.2701
vn 0.0617 0.9950 0.0788
vn 0.1958 0.7833 0.5900
vn 0.4049 0.7707 0.4921
vn 0.0617 0.9950 0.0788
vn -0.0037 0.8340 0.5518
vn 0.1958 0.7833 0.5900
vn 0.0617 0.9950 0.0788
vn -0.1335 0.8735 0.4682
vn -0.0037 0.8340 0.5518
vn 0.0617 0.9950 0.0788
vn -0.2334 0.9140 0.3317
vn -0.1335 0.8735 0.4682
vn 0.0617 0.9950 0.0788
vn -0.2766 0.9431 0.1845
vn -0.2334 0.9140 0.3317
vn 0.0617 0.9950 0.0788
vn -0.2683 0.9630 0.0269
vn -0.2766 0.9431 0.1845
vn 0.0617 0.9950 0.0788
vn -0.2243 0.9672 -0.1191
vn -0.2683 0.9630 0.0269
vn 0.0617 0.9950 0.0788
vn -0.1625 0.9627 -0.2163
vn -0.2243 0.9672 -0.1191
vn 0.0617 0.9950 0.0788
vn -0.0769 0.9536 -0.2910
vn -0.1625 0.9627 -0.2163
vn 0.0617 0.9950 0.0788
vn 0.0372 0.9406 -0.3375
vn -0.0769 0.9536 -0.2910
vn 0.0617 0.9950 0.0788
vn 0.1672 0.9241 -0.3436
vn 0.0372 0.9406 -0.3375
vn 0.0617 0.9950 0.0788
vn 0.3209 0.8993 -0.2973
vn 0.1672 0.9241 -0.3436
vn 0.0617 0.9950 0.0788
vn 0.4740 0.8631 -0.1744
vn 0.3209 0.8993 -0.2973
vn 0.5678 0.8229 0.0200
vn 0.4740 0.8631 -0.1744
vn 0.0617 0.9950 0.0788
vn 0.8815 0.4722 -0.0012
vn 0.8104 0.5858 0.0084
vn 0.7677 0.5272 0.3642
vn 0.7677 0.5272 0.3642
vn 0.8106 0.4350 0.3920
vn 0.8815 0.4722 -0.0012
vn 0.3209 0.8993 -0.2973
vn 0.4740 0.8631 -0.1744
vn 0.6787 0.6760 -0.2871
vn 0.6787 0.6760 -0.2871
vn 0.4608 0.7447 -0.4829
vn 0.3209 0.8993 -0.2973
vn 0.1672 0.9241 -0.3436
vn 0.3209 0.8993 -0.2973
vn 0.4608 0.7447 -0.4829
vn 0.4608 0.7447 -0.4829
vn 0.2400 0.7912 -0.5625
vn 0.1672 0.9241 -0.3436
vn -0.2243 0.9672 -0.1191
vn -0.1625 0.9627 -0.2163
vn -0.2787 0.8979 -0.3406
vn -0.2787 0.8979 -0.3406
vn -0.3673 0.9105 -0.1901
vn -0.2243 0.9672 -0.1191
vn -0.4041 0.9024 0.1499
vn -0.2683 0.9630 0.0269
vn -0.4118 0.9112 -0.0102
vn -0.2766 0.9431 0.1845
vn -0.2683 0.9630 0.0269
vn -0.4041 0.9024 0.1499
vn -0.4041 0.9024 0.1499
vn -0.3518 0.8878 0.2967
vn -0.2766 0.9431 0.1845
# 432 vertex normals

vt 0.1623 0.3687 0.0000
vt 0.1467 0.3699 0.0000
vt 0.1618 0.3719 0.0000
vt 0.1767 0.3739 0.0000
vt 0.1742 0.3766 0.0000
vt 0.1884 0.3853 0.0000
vt 0.1835 0.3862 0.0000
vt 0.1878 0.3973 0.0000
vt 0.1923 0.3980 0.0000
vt 0.1891 0.4081 0.0000
vt 0.1940 0.4105 0.0000
vt 0.1859 0.4181 0.0000
vt 0.1905 0.4219 0.0000
vt 0.1785 0.4264 0.0000
vt 0.1822 0.4314 0.0000
vt 0.1681 0.4310 0.0000
vt 0.1703 0.4367 0.0000
vt 0.1552 0.4369 0.0000
vt 0.1555 0.4314 0.0000
vt 0.1413 0.4334 0.0000
vt 0.1438 0.4284 0.0000
vt 0.1294 0.4264 0.0000
vt 0.1338 0.4220 0.0000
vt 0.1215 0.4152 0.0000
vt 0.1272 0.4123 0.0000
vt 0.1211 0.4027 0.0000
vt 0.1264 0.4014 0.0000
vt 0.1251 0.3908 0.0000
vt 0.1297 0.3910 0.0000
vt 0.1328 0.3792 0.0000
vt 0.1365 0.3809 0.0000
vt 0.1484 0.3732 0.0000
vt 0.1610 0.3765 0.0000
vt 0.1709 0.3801 0.0000
vt 0.1787 0.3874 0.0000
vt 0.1828 0.3965 0.0000
vt 0.1838 0.4054 0.0000
vt 0.1810 0.4137 0.0000
vt 0.1746 0.4204 0.0000
vt 0.1658 0.4243 0.0000
vt 0.1560 0.4249 0.0000
vt 0.1466 0.4223 0.0000
vt 0.1385 0.4167 0.0000
vt 0.1333 0.4088 0.0000
vt 0.1322 0.3998 0.0000
vt 0.1349 0.3912 0.0000
vt 0.1410 0.3829 0.0000
vt 0.1505 0.3773 0.0000
vt 0.1558 0.3856 0.0000
vt 0.1604 0.3875 0.0000
vt 0.1636 0.3897 0.0000
vt 0.1657 0.3928 0.0000
vt 0.1664 0.3963 0.0000
vt 0.1654 0.3995 0.0000
vt 0.1630 0.4020 0.0000
vt 0.1596 0.4035 0.0000
vt 0.1558 0.4036 0.0000
vt 0.1521 0.4024 0.0000
vt 0.1492 0.4001 0.0000
vt 0.1474 0.3970 0.0000
vt 0.1462 0.3929 0.0000
vt 0.1472 0.3898 0.0000
vt 0.1494 0.3873 0.0000
vt 0.1524 0.3859 0.0000
vt 0.1538 0.3921 0.0000
vt 0.1590 0.3817 0.0000
vt 0.1655 0.3842 0.0000
vt 0.1716 0.3888 0.0000
vt 0.1749 0.3951 0.0000
vt 0.1758 0.4012 0.0000
vt 0.1740 0.4069 0.0000
vt 0.1697 0.4115 0.0000
vt 0.1638 0.4142 0.0000
vt 0.1570 0.4146 0.0000
vt 0.1524 0.4133 0.0000
vt 0.1465 0.4100 0.0000
vt 0.1424 0.4048 0.0000
vt 0.1408 0.3987 0.0000
vt 0.1417 0.3926 0.0000
vt 0.1453 0.3847 0.0000
vt 0.1523 0.3823 0.0000
# 81 texture coords

o SM_Barnacle_08_LOD0
g SM_Barnacle_08_LOD0
usemtl MAT_Sea_Shells
s 1
f 24/3/1 2/2/2 1/1/3 
f 3/4/4 24/3/5 1/1/6 
f 26/5/7 24/3/8 3/4/9 
f 4/6/10 26/5/11 3/4/12 
f 5/7/13 26/5/14 4/6/15 
f 29/8/16 5/7/17 4/6/18 
f 6/9/19 29/8/20 4/6/21 
f 31/10/22 29/8/23 6/9/24 
f 7/11/25 31/10/26 6/9/27 
f 32/12/28 31/10/29 7/11/30 
f 8/13/31 32/12/32 7/11/33 
f 9/14/34 32/12/35 8/13/36 
f 10/15/37 9/14/38 8/13/39 
f 34/16/40 9/14/41 10/15/42 
f 11/17/43 34/16/44 10/15/45 
f 12/18/46 34/16/47 11/17/48 
f 36/19/49 34/16/50 12/18/51 
f 13/20/52 36/19/53 12/18/54 
f 15/21/55 36/19/56 13/20/57 
f 14/22/58 15/21/59 13/20/60 
f 16/23/61 15/21/62 14/22/63 
f 17/24/64 16/23/65 14/22/66 
f 40/25/67 16/23/68 17/24/69 
f 18/26/70 40/25/71 17/24/72 
f 20/27/73 40/25/74 18/26/75 
f 19/28/76 20/27/77 18/26/78 
f 41/29/79 20/27/80 19/28/81 
f 21/30/82 41/29/83 19/28/84 
f 22/31/85 41/29/86 21/30/87 
f 23/32/88 22/31/89 21/30/90 
f 2/2/91 23/32/92 21/30/93 
f 24/3/94 23/32/95 2/2/96 
f 25/33/97 23/32/98 24/3/99 
f 26/5/100 25/33/101 24/3/102 
f 27/34/103 25/33/104 26/5/105 
f 28/35/106 27/34/107 26/5/108 
f 5/7/109 28/35/110 26/5/111 
f 45/36/112 28/35/113 5/7/114 
f 29/8/115 45/36/116 5/7/117 
f 30/37/118 45/36/119 29/8/120 
f 31/10/121 30/37/122 29/8/123 
f 47/38/124 30/37/125 31/10/126 
f 32/12/127 47/38/128 31/10/129 
f 33/39/130 47/38/131 32/12/132 
f 9/14/133 33/39/134 32/12/135 
f 35/40/136 33/39/137 9/14/138 
f 34/16/139 35/40/140 9/14/141 
f 37/41/142 35/40/143 34/16/144 
f 36/19/145 37/41/146 34/16/147 
f 15/21/148 37/41/149 36/19/150 
f 38/42/151 37/41/152 15/21/153 
f 16/23/154 38/42/155 15/21/156 
f 39/43/157 38/42/158 16/23/159 
f 40/25/160 39/43/161 16/23/162 
f 49/44/163 39/43/164 40/25/165 
f 20/27/166 49/44/167 40/25/168 
f 51/45/169 49/44/170 20/27/171 
f 41/29/172 51/45/173 20/27/174 
f 54/46/175 51/45/176 41/29/177 
f 22/31/178 54/46/179 41/29/180 
f 42/47/181 54/46/182 22/31/183 
f 23/32/184 42/47/185 22/31/186 
f 55/48/187 42/47/188 23/32/189 
f 25/33/190 55/48/191 23/32/192 
f 43/49/193 56/64/194 81/81/195 
f 81/81/196 66/66/197 43/49/198 
f 27/34/199 67/67/200 66/66/201 
f 66/66/202 25/33/203 27/34/204 
f 43/49/205 66/66/206 67/67/207 
f 67/67/208 65/50/209 43/49/210 
f 27/34/211 28/35/212 68/68/213 
f 68/68/214 67/67/215 27/34/216 
f 45/36/217 69/69/218 68/68/219 
f 68/68/220 28/35/221 45/36/222 
f 69/69/223 70/70/224 46/53/225 
f 46/53/226 64/52/227 69/69/228 
f 30/37/229 70/70/230 69/69/231 
f 69/69/232 45/36/233 30/37/234 
f 70/70/235 71/71/236 63/54/237 
f 63/54/238 46/53/239 70/70/240 
f 47/38/241 71/71/242 70/70/243 
f 70/70/244 30/37/245 47/38/246 
f 71/71/247 72/72/248 62/55/249 
f 62/55/250 63/54/251 71/71/252 
f 33/39/253 72/72/254 71/71/255 
f 71/71/256 47/38/257 33/39/258 
f 35/40/259 73/73/260 72/72/261 
f 72/72/262 33/39/263 35/40/264 
f 73/73/265 74/74/266 48/57/267 
f 48/57/268 61/56/269 73/73/270 
f 37/41/271 74/74/272 73/73/273 
f 73/73/274 35/40/275 37/41/276 
f 38/42/277 75/75/278 74/74/279 
f 74/74/280 37/41/281 38/42/282 
f 38/42/283 39/43/284 76/76/285 
f 76/76/286 75/75/287 38/42/288 
f 76/76/289 77/77/290 50/59/291 
f 50/59/292 59/58/293 76/76/294 
f 49/44/295 77/77/296 76/76/297 
f 76/76/298 39/43/299 49/44/300 
f 77/77/301 78/78/302 52/60/303 
f 52/60/304 50/59/305 77/77/306 
f 51/45/307 78/78/308 77/77/309 
f 77/77/310 49/44/311 51/45/312 
f 78/78/313 79/79/314 53/61/315 
f 53/61/316 52/60/317 78/78/318 
f 54/46/319 79/79/320 78/78/321 
f 78/78/322 51/45/323 54/46/324 
f 58/62/325 53/61/326 79/79/327 
f 42/47/328 80/80/329 79/79/330 
f 79/79/331 54/46/332 42/47/333 
f 58/62/334 79/79/335 80/80/336 
f 80/80/337 57/63/338 58/62/339 
f 55/48/340 81/81/341 80/80/342 
f 80/80/343 42/47/344 55/48/345 
f 57/63/346 80/80/347 81/81/348 
f 81/81/349 56/64/350 57/63/351 
f 60/65/352 56/64/353 43/49/354 
f 60/65/355 57/63/356 56/64/357 
f 60/65/358 58/62/359 57/63/360 
f 60/65/361 53/61/362 58/62/363 
f 60/65/364 52/60/365 53/61/366 
f 60/65/367 50/59/368 52/60/369 
f 60/65/370 59/58/371 50/59/372 
f 60/65/373 48/57/374 59/58/375 
f 60/65/376 61/56/377 48/57/378 
f 60/65/379 62/55/380 61/56/381 
f 60/65/382 63/54/383 62/55/384 
f 60/65/385 46/53/386 63/54/387 
f 60/65/388 64/52/389 46/53/390 
f 60/65/391 44/51/392 64/52/393 
f 60/65/394 65/50/395 44/51/396 
f 43/49/397 65/50/398 60/65/399 
f 25/33/400 66/66/401 81/81/402 
f 81/81/403 55/48/404 25/33/405 
f 44/51/406 65/50/407 67/67/408 
f 67/67/409 68/68/410 44/51/411 
f 64/52/412 44/51/413 68/68/414 
f 68/68/415 69/69/416 64/52/417 
f 61/56/418 62/55/419 72/72/420 
f 72/72/421 73/73/422 61/56/423 
f 75/75/424 48/57/425 74/74/426 
f 59/58/427 48/57/428 75/75/429 
f 75/75/430 76/76/431 59/58/432 
# 144 faces

#
# object SM_Barnacle_08_LOD1
#

v  1.3519 2.0104 0.6516
v  -0.0932 0.0000 -3.9695
v  0.1082 0.0000 3.8756
v  3.6122 0.0000 0.0181
v  -3.4259 0.0000 -1.7802
v  3.2283 0.0000 1.4998
v  1.9078 1.4409 -0.9794
v  0.5874 1.6363 1.4690
v  -3.5090 0.0000 0.7080
v  1.4594 1.6456 1.5230
v  -2.8351 0.0000 2.8354
v  0.7821 1.7113 -0.7861
v  -1.2587 1.3083 -0.2008
v  2.3737 0.0000 -2.8713
v  2.1532 0.1680 -2.3372
v  2.1606 1.7368 0.3355
v  -1.6028 0.1332 -2.9290
v  -1.2913 0.1221 3.2410
v  0.9025 1.1804 -1.9485
v  0.5283 0.1167 -3.1986
v  -0.0308 1.7025 0.5821
v  2.1674 1.6411 0.9153
v  0.3011 0.1152 3.2654
v  -0.4496 1.2081 -1.6870
v  -2.3224 0.6896 0.3345
v  2.9154 0.2032 -1.2353
v  2.0530 0.1474 2.3780
v  -2.7625 0.2066 -1.4448
v  -1.5035 0.0000 -3.8296
v  -2.8965 0.1765 0.5771
v  3.2125 0.1816 0.0206
v  -1.6838 0.0000 3.8678
v  2.2303 0.0000 2.7859
v  2.5230 1.2777 -0.1737
v  -2.6985 0.0000 -3.0483
v  2.8960 0.1717 1.2843
v  3.2669 0.0000 -1.4677
v  -2.2595 0.1581 2.3876
v  1.8661 1.6837 1.2735
# 39 vertices

vn 0.4186 0.8076 -0.4155
vn 0.7541 0.6372 -0.1595
vn 0.5672 0.7820 -0.2584
vn -0.5502 0.8306 0.0866
vn -0.2626 0.9434 0.2025
vn -0.2979 0.9485 0.1081
vn 0.1694 0.7857 0.5949
vn 0.0854 0.8982 0.4313
vn 0.3592 0.8093 0.4648
vn -0.2979 0.9485 0.1081
vn -0.0344 0.9610 -0.2743
vn -0.3944 0.9175 -0.0514
vn 0.6499 0.7072 0.2784
vn 0.5822 0.7618 0.2841
vn 0.6422 0.7665 0.0076
vn 0.4186 0.8076 -0.4155
vn 0.3036 0.8701 -0.3883
vn 0.0802 0.9128 -0.4004
vn 0.1850 0.7898 -0.5848
vn 0.0802 0.9128 -0.4004
vn -0.1522 0.9481 -0.2792
vn 0.0854 0.8982 0.4313
vn 0.1694 0.7857 0.5949
vn -0.1785 0.8801 0.4400
vn 0.0626 0.9959 0.0651
vn -0.0344 0.9610 -0.2743
vn -0.2979 0.9485 0.1081
vn -0.3472 0.9279 -0.1355
vn -0.3944 0.9175 -0.0514
vn -0.2251 0.8868 -0.4037
vn 0.0626 0.9959 0.0651
vn -0.1785 0.8801 0.4400
vn 0.1694 0.7857 0.5949
vn 0.6422 0.7665 0.0076
vn 0.7541 0.6372 -0.1595
vn 0.6499 0.7072 0.2784
vn -0.1785 0.8801 0.4400
vn -0.1084 0.9495 0.2943
vn 0.0854 0.8982 0.4313
vn -0.1522 0.9481 -0.2792
vn -0.2251 0.8868 -0.4037
vn 0.1850 0.7898 -0.5848
vn 0.0626 0.9959 0.0651
vn 0.4186 0.8076 -0.4155
vn -0.0344 0.9610 -0.2743
vn -0.2626 0.9434 0.2025
vn -0.5502 0.8306 0.0866
vn -0.4388 0.8957 0.0719
vn -0.4388 0.8957 0.0719
vn -0.5502 0.8306 0.0866
vn -0.3472 0.9279 -0.1355
vn 0.7541 0.6372 -0.1595
vn 0.6422 0.7665 0.0076
vn 0.5672 0.7820 -0.2584
vn 0.1720 0.9561 -0.2372
vn 0.5672 0.7820 -0.2584
vn 0.4015 0.8996 -0.1718
vn 0.0802 0.9128 -0.4004
vn 0.3036 0.8701 -0.3883
vn 0.1720 0.9561 -0.2372
vn 0.0626 0.9959 0.0651
vn 0.5503 0.8330 -0.0581
vn 0.4186 0.8076 -0.4155
vn 0.0626 0.9959 0.0651
vn 0.6499 0.7072 0.2784
vn 0.5503 0.8330 -0.0581
vn -0.1284 0.9820 -0.1384
vn -0.1522 0.9481 -0.2792
vn -0.0440 0.9876 -0.1509
vn -0.2251 0.8868 -0.4037
vn -0.1522 0.9481 -0.2792
vn -0.3472 0.9279 -0.1355
vn -0.2626 0.9434 0.2025
vn -0.4388 0.8957 0.0719
vn -0.1784 0.9761 0.1238
vn 0.0345 0.9798 0.1968
vn -0.1084 0.9495 0.2943
vn -0.0613 0.9844 0.1652
vn -0.0344 0.9610 -0.2743
vn 0.4186 0.8076 -0.4155
vn 0.1850 0.7898 -0.5848
vn 0.0802 0.9128 -0.4004
vn 0.1850 0.7898 -0.5848
vn 0.4186 0.8076 -0.4155
vn -0.1522 0.9481 -0.2792
vn 0.0802 0.9128 -0.4004
vn 0.0096 0.9872 -0.1591
vn 0.0096 0.9872 -0.1591
vn 0.0802 0.9128 -0.4004
vn 0.1720 0.9561 -0.2372
vn 0.0626 0.9959 0.0651
vn -0.2979 0.9485 0.1081
vn -0.1785 0.8801 0.4400
vn -0.1084 0.9495 0.2943
vn -0.1785 0.8801 0.4400
vn -0.2979 0.9485 0.1081
vn 0.0626 0.9959 0.0651
vn 0.4436 0.7549 0.4830
vn 0.6499 0.7072 0.2784
vn 0.5822 0.7618 0.2841
vn 0.6499 0.7072 0.2784
vn 0.4436 0.7549 0.4830
vn 0.0854 0.8982 0.4313
vn -0.1084 0.9495 0.2943
vn 0.0345 0.9798 0.1968
vn 0.1869 0.9477 0.2588
vn 0.0854 0.8982 0.4313
vn 0.0345 0.9798 0.1968
vn 0.1850 0.7898 -0.5848
vn -0.2251 0.8868 -0.4037
vn -0.0344 0.9610 -0.2743
vn -0.2251 0.8868 -0.4037
vn -0.3944 0.9175 -0.0514
vn -0.0344 0.9610 -0.2743
vn -0.3944 0.9175 -0.0514
vn -0.3472 0.9279 -0.1355
vn -0.5502 0.8306 0.0866
vn -0.2979 0.9485 0.1081
vn -0.3944 0.9175 -0.0514
vn -0.5502 0.8306 0.0866
vn 0.5672 0.7820 -0.2584
vn 0.3036 0.8701 -0.3883
vn 0.4186 0.8076 -0.4155
vn 0.3036 0.8701 -0.3883
vn 0.5672 0.7820 -0.2584
vn 0.1720 0.9561 -0.2372
vn 0.6422 0.7665 0.0076
vn 0.5822 0.7618 0.2841
vn 0.3568 0.9163 0.1819
vn 0.3592 0.8093 0.4648
vn 0.0854 0.8982 0.4313
vn 0.1869 0.9477 0.2588
vn -0.2701 0.9620 0.0407
vn -0.3472 0.9279 -0.1355
vn -0.2592 0.9625 -0.0803
vn -0.3472 0.9279 -0.1355
vn -0.1522 0.9481 -0.2792
vn -0.1284 0.9820 -0.1384
vn -0.0440 0.9876 -0.1509
vn -0.1522 0.9481 -0.2792
vn 0.0096 0.9872 -0.1591
vn -0.1784 0.9761 0.1238
vn -0.4388 0.8957 0.0719
vn -0.2701 0.9620 0.0407
vn -0.4388 0.8957 0.0719
vn -0.3472 0.9279 -0.1355
vn -0.2701 0.9620 0.0407
vn 0.5672 0.7820 -0.2584
vn 0.6422 0.7665 0.0076
vn 0.4015 0.8996 -0.1718
vn 0.6422 0.7665 0.0076
vn 0.3568 0.9163 0.1819
vn 0.4136 0.9104 0.0043
vn -0.0613 0.9844 0.1652
vn -0.2626 0.9434 0.2025
vn -0.1784 0.9761 0.1238
vn 0.3568 0.9163 0.1819
vn 0.5822 0.7618 0.2841
vn 0.1869 0.9477 0.2588
vn 0.4186 0.8076 -0.4155
vn 0.5503 0.8330 -0.0581
vn 0.7541 0.6372 -0.1595
vn 0.6499 0.7072 0.2784
vn 0.7541 0.6372 -0.1595
vn 0.5503 0.8330 -0.0581
vn -0.2592 0.9625 -0.0803
vn -0.3472 0.9279 -0.1355
vn -0.1284 0.9820 -0.1384
vn 0.5822 0.7618 0.2841
vn 0.3592 0.8093 0.4648
vn 0.1869 0.9477 0.2588
vn 0.4436 0.7549 0.4830
vn 0.3592 0.8093 0.4648
vn 0.5822 0.7618 0.2841
vn 0.4015 0.8996 -0.1718
vn 0.6422 0.7665 0.0076
vn 0.4136 0.9104 0.0043
vn -0.1084 0.9495 0.2943
vn -0.2626 0.9434 0.2025
vn -0.0613 0.9844 0.1652
vn -0.2979 0.9485 0.1081
vn -0.2626 0.9434 0.2025
vn -0.1084 0.9495 0.2943
vn 0.0626 0.9959 0.0651
vn 0.1694 0.7857 0.5949
vn 0.4436 0.7549 0.4830
vn 0.3592 0.8093 0.4648
vn 0.4436 0.7549 0.4830
vn 0.1694 0.7857 0.5949
# 189 vertex normals

vt 0.1222 0.3993 0.0000
vt 0.1623 0.3687 0.0000
vt 0.1939 0.4097 0.0000
vt 0.1538 0.3921 0.0000
vt 0.1703 0.4367 0.0000
vt 0.1294 0.4264 0.0000
vt 0.1583 0.4146 0.0000
vt 0.1467 0.3699 0.0000
vt 0.1569 0.3860 0.0000
vt 0.1884 0.3853 0.0000
vt 0.1467 0.3900 0.0000
vt 0.1822 0.4314 0.0000
vt 0.1215 0.4152 0.0000
vt 0.1885 0.4028 0.0000
vt 0.1682 0.3892 0.0000
vt 0.1328 0.3792 0.0000
vt 0.1754 0.3984 0.0000
vt 0.1767 0.3739 0.0000
vt 0.1276 0.3976 0.0000
vt 0.1651 0.3984 0.0000
vt 0.1826 0.4218 0.0000
vt 0.1525 0.4239 0.0000
vt 0.1477 0.4350 0.0000
vt 0.1272 0.4123 0.0000
vt 0.1905 0.4219 0.0000
vt 0.1468 0.3977 0.0000
vt 0.1833 0.3862 0.0000
vt 0.1365 0.3809 0.0000
vt 0.1484 0.3732 0.0000
vt 0.1618 0.3719 0.0000
vt 0.1739 0.3768 0.0000
vt 0.1679 0.4305 0.0000
vt 0.1495 0.4298 0.0000
vt 0.1339 0.4219 0.0000
vt 0.1523 0.3852 0.0000
vt 0.1532 0.4036 0.0000
vt 0.1492 0.3872 0.0000
vt 0.1622 0.3829 0.0000
vt 0.1717 0.4095 0.0000
# 39 texture coords

o SM_Barnacle_08_LOD1
g SM_Barnacle_08_LOD1
usemtl MAT_Sea_Shells
s 1
f 88/96/433 115/119/434 107/112/435 
f 106/103/436 119/115/437 102/117/438 
f 91/92/439 104/100/440 108/109/441 
f 102/117/442 93/101/443 94/88/444 
f 103/116/445 117/110/446 112/111/447 
f 88/96/448 96/108/449 101/95/450 
f 100/98/451 101/95/452 98/102/453 
f 104/100/454 91/92/455 89/107/456 
f 82/85/457 93/101/458 102/117/459 
f 109/113/460 94/88/461 105/120/462 
f 82/85/463 89/107/464 91/92/465 
f 112/111/466 115/119/467 103/116/468 
f 89/107/469 99/105/470 104/100/471 
f 98/102/472 105/120/473 100/98/474 
f 82/85/475 88/96/476 93/101/477 
f 119/115/478 106/103/479 111/114/480 
f 111/114/481 106/103/482 109/113/483 
f 115/119/484 112/111/485 107/112/486 
f 95/91/487 107/112/488 118/99/489 
f 101/95/490 96/108/491 95/91/492 
f 82/85/493 97/90/494 88/96/495 
f 82/85/496 103/116/497 97/90/498 
f 116/93/499 98/102/500 110/106/501 
f 105/120/502 98/102/503 109/113/504 
f 119/115/505 111/114/506 92/87/507 
f 84/82/508 99/105/509 113/94/510 
f 93/101/511 88/96/512 100/98/513 
f 101/95/514 100/98/515 88/96/516 
f 98/102/517 101/95/518 83/84/519 
f 83/84/520 101/95/521 95/91/522 
f 82/85/523 102/117/524 89/107/525 
f 99/105/526 89/107/527 102/117/528 
f 82/85/529 120/118/530 103/116/531 
f 117/110/532 103/116/533 120/118/534 
f 104/100/535 99/105/536 84/82/537 
f 114/97/538 104/100/539 84/82/540 
f 100/98/541 105/120/542 93/101/543 
f 105/120/544 94/88/545 93/101/546 
f 94/88/547 109/113/548 106/103/549 
f 102/117/550 94/88/551 106/103/552 
f 107/112/553 96/108/554 88/96/555 
f 96/108/556 107/112/557 95/91/558 
f 112/111/559 117/110/560 87/89/561 
f 108/109/562 104/100/563 114/97/564 
f 90/104/565 109/113/566 86/86/567 
f 109/113/568 98/102/569 116/93/570 
f 110/106/571 98/102/572 83/84/573 
f 92/87/574 111/114/575 90/104/576 
f 111/114/577 109/113/578 90/104/579 
f 107/112/580 112/111/581 118/99/582 
f 112/111/583 87/89/584 85/83/585 
f 113/94/586 119/115/587 92/87/588 
f 87/89/589 117/110/590 114/97/591 
f 88/96/592 97/90/593 115/119/594 
f 103/116/595 115/119/596 97/90/597 
f 86/86/598 109/113/599 116/93/600 
f 117/110/601 108/109/602 114/97/603 
f 120/118/604 108/109/605 117/110/606 
f 118/99/607 112/111/608 85/83/609 
f 99/105/610 119/115/611 113/94/612 
f 102/117/613 119/115/614 99/105/615 
f 82/85/616 91/92/617 120/118/618 
f 108/109/619 120/118/620 91/92/621 
# 63 faces

