# 3ds Max Wavefront OBJ Exporter v0.97b - (c)2007 guruware
# File Created: 10.02.2024 08:45:22

mtllib SM_Barnacle_01.mtl

#
# object SM_Barnacle_01_LOD0
#

v  2.2538 -0.0000 -2.2859
v  0.5822 -0.0000 -3.5974
v  -1.8442 -0.0000 -2.7219
v  -3.4207 0.0000 -0.7685
v  -2.6961 0.1588 -0.6550
v  -3.1366 0.0000 1.1016
v  -1.9002 0.0000 2.8806
v  -1.5906 0.1710 2.2278
v  -0.2626 0.0000 3.5974
v  1.3557 0.0000 2.8432
v  1.8345 0.1588 1.3584
v  3.4207 0.0000 1.5428
v  2.3594 0.1710 -0.1473
v  3.3291 0.0000 -0.4555
v  1.6734 0.1710 -1.6317
v  0.1857 0.1588 -2.3607
v  -1.3863 0.1588 -1.6039
v  -2.2913 0.7643 -0.4390
v  -2.5833 0.1710 0.9364
v  -2.2563 0.8206 0.7491
v  -1.3399 0.8206 1.7316
v  -0.0143 0.1588 2.5223
v  -0.2548 0.7643 1.9527
v  0.9081 0.1561 2.1153
v  1.7078 0.7555 -0.0200
v  1.3758 0.7048 1.1492
v  1.2531 1.1505 0.0977
v  0.4389 0.7521 1.6659
v  -0.5078 1.1173 1.6736
v  -1.4298 1.2155 1.2643
v  -1.3223 0.7643 -1.1812
v  -0.1365 0.7643 -1.6909
v  -0.5161 1.1884 -0.7834
v  1.0024 0.8206 -1.1954
v  0.3148 1.2872 -0.5891
v  -0.5450 1.6410 0.5856
v  -1.2517 1.1884 -0.5336
v  -2.0118 1.1884 0.0537
v  -1.9549 1.2155 0.7287
v  0.1034 1.0845 1.4406
v  0.9449 1.0544 1.0193
# 41 vertices

vn -0.0127 0.8996 -0.4366
vn 0.1222 0.9866 -0.1085
vn 0.0127 0.9912 -0.1321
vn -0.0910 0.9873 -0.1302
vn -0.0127 0.8996 -0.4366
vn 0.0127 0.9912 -0.1321
vn -0.2764 0.8469 -0.4542
vn -0.0127 0.8996 -0.4366
vn -0.0910 0.9873 -0.1302
vn -0.1906 0.9803 -0.0518
vn -0.2764 0.8469 -0.4542
vn -0.0910 0.9873 -0.1302
vn -0.4902 0.8463 -0.2084
vn -0.2764 0.8469 -0.4542
vn -0.1906 0.9803 -0.0518
vn -0.2375 0.9667 0.0948
vn -0.4902 0.8463 -0.2084
vn -0.1906 0.9803 -0.0518
vn -0.5389 0.8167 0.2064
vn -0.4902 0.8463 -0.2084
vn -0.2375 0.9667 0.0948
vn -0.2824 0.8531 0.4388
vn -0.5389 0.8167 0.2064
vn -0.2375 0.9667 0.0948
vn -0.1377 0.9759 0.1690
vn -0.2824 0.8531 0.4388
vn -0.2375 0.9667 0.0948
vn 0.0127 0.9859 0.1671
vn -0.2824 0.8531 0.4388
vn -0.1377 0.9759 0.1690
vn 0.0479 0.8852 0.4627
vn -0.2824 0.8531 0.4388
vn 0.0127 0.9859 0.1671
vn 0.0832 0.9852 0.1497
vn 0.0479 0.8852 0.4627
vn 0.0127 0.9859 0.1671
vn 0.2295 0.8858 0.4034
vn 0.0479 0.8852 0.4627
vn 0.0832 0.9852 0.1497
vn 0.3551 0.8970 0.2631
vn 0.2295 0.8858 0.4034
vn 0.0832 0.9852 0.1497
vn 0.1105 0.9909 0.0773
vn 0.3551 0.8970 0.2631
vn 0.0832 0.9852 0.1497
vn 0.4150 0.9092 -0.0322
vn 0.3551 0.8970 0.2631
vn 0.1105 0.9909 0.0773
vn 0.1457 0.9887 -0.0342
vn 0.4150 0.9092 -0.0322
vn 0.1105 0.9909 0.0773
vn 0.2865 0.9124 -0.2924
vn 0.4150 0.9092 -0.0322
vn 0.1457 0.9887 -0.0342
vn 0.1222 0.9866 -0.1085
vn 0.2865 0.9124 -0.2924
vn 0.1457 0.9887 -0.0342
vn -0.0127 0.8996 -0.4366
vn 0.2865 0.9124 -0.2924
vn 0.1222 0.9866 -0.1085
vn 0.3568 0.8318 -0.4252
vn 0.2865 0.9124 -0.2924
vn -0.0127 0.8996 -0.4366
vn -0.0460 0.7990 -0.5995
vn 0.3568 0.8318 -0.4252
vn -0.0127 0.8996 -0.4366
vn -0.2764 0.8469 -0.4542
vn -0.0460 0.7990 -0.5995
vn -0.0127 0.8996 -0.4366
vn -0.3567 0.7085 -0.6089
vn -0.0460 0.7990 -0.5995
vn -0.2764 0.8469 -0.4542
vn -0.4902 0.8463 -0.2084
vn -0.3567 0.7085 -0.6089
vn -0.2764 0.8469 -0.4542
vn -0.6928 0.6557 -0.3000
vn -0.3567 0.7085 -0.6089
vn -0.4902 0.8463 -0.2084
vn -0.5389 0.8167 0.2064
vn -0.6928 0.6557 -0.3000
vn -0.4902 0.8463 -0.2084
vn -0.7667 0.5655 0.3038
vn -0.6928 0.6557 -0.3000
vn -0.5389 0.8167 0.2064
vn -0.4038 0.6169 0.6756
vn -0.7667 0.5655 0.3038
vn -0.5389 0.8167 0.2064
vn -0.2824 0.8531 0.4388
vn -0.4038 0.6169 0.6756
vn -0.5389 0.8167 0.2064
vn 0.0655 0.6987 0.7124
vn -0.4038 0.6169 0.6756
vn -0.2824 0.8531 0.4388
vn 0.0479 0.8852 0.4627
vn 0.0655 0.6987 0.7124
vn -0.2824 0.8531 0.4388
vn 0.3353 0.7069 0.6228
vn 0.0655 0.6987 0.7124
vn 0.0479 0.8852 0.4627
vn 0.2295 0.8858 0.4034
vn 0.3353 0.7069 0.6228
vn 0.0479 0.8852 0.4627
vn 0.5349 0.7266 0.4313
vn 0.3353 0.7069 0.6228
vn 0.2295 0.8858 0.4034
vn 0.3551 0.8970 0.2631
vn 0.5349 0.7266 0.4313
vn 0.2295 0.8858 0.4034
vn 0.6089 0.7927 -0.0283
vn 0.5349 0.7266 0.4313
vn 0.3551 0.8970 0.2631
vn 0.4150 0.9092 -0.0322
vn 0.6089 0.7927 -0.0283
vn 0.3551 0.8970 0.2631
vn 0.2865 0.9124 -0.2924
vn 0.6089 0.7927 -0.0283
vn 0.4150 0.9092 -0.0322
vn 0.3568 0.8318 -0.4252
vn 0.6089 0.7927 -0.0283
vn 0.2865 0.9124 -0.2924
vn 0.3568 0.8318 -0.4252
vn 0.4192 0.9079 0.0049
vn 0.6089 0.7927 -0.0283
vn 0.4192 0.9079 0.0049
vn 0.5349 0.7266 0.4313
vn 0.6089 0.7927 -0.0283
vn 0.4192 0.9079 0.0049
vn 0.3899 0.8414 0.3743
vn 0.5349 0.7266 0.4313
vn 0.3899 0.8414 0.3743
vn 0.3353 0.7069 0.6228
vn 0.5349 0.7266 0.4313
vn 0.3899 0.8414 0.3743
vn 0.2707 0.8083 0.5229
vn 0.3353 0.7069 0.6228
vn 0.2707 0.8083 0.5229
vn 0.0655 0.6987 0.7124
vn 0.3353 0.7069 0.6228
vn 0.2707 0.8083 0.5229
vn 0.0538 0.8144 0.5778
vn 0.0655 0.6987 0.7124
vn 0.0538 0.8144 0.5778
vn -0.4038 0.6169 0.6756
vn 0.0655 0.6987 0.7124
vn 0.0538 0.8144 0.5778
vn -0.3039 0.7925 0.5287
vn -0.4038 0.6169 0.6756
vn -0.3039 0.7925 0.5287
vn -0.7667 0.5655 0.3038
vn -0.4038 0.6169 0.6756
vn -0.5381 0.8116 0.2276
vn -0.7667 0.5655 0.3038
vn -0.3039 0.7925 0.5287
vn -0.5381 0.8116 0.2276
vn -0.4467 0.8729 -0.1965
vn -0.7667 0.5655 0.3038
vn -0.4467 0.8729 -0.1965
vn -0.6928 0.6557 -0.3000
vn -0.7667 0.5655 0.3038
vn -0.4467 0.8729 -0.1965
vn -0.2201 0.8931 -0.3923
vn -0.6928 0.6557 -0.3000
vn -0.2201 0.8931 -0.3923
vn -0.3567 0.7085 -0.6089
vn -0.6928 0.6557 -0.3000
vn -0.2201 0.8931 -0.3923
vn -0.0636 0.9143 -0.4000
vn -0.3567 0.7085 -0.6089
vn -0.0636 0.9143 -0.4000
vn -0.0460 0.7990 -0.5995
vn -0.3567 0.7085 -0.6089
vn -0.0636 0.9143 -0.4000
vn 0.1867 0.9336 -0.3060
vn -0.0460 0.7990 -0.5995
vn 0.1867 0.9336 -0.3060
vn 0.3568 0.8318 -0.4252
vn -0.0460 0.7990 -0.5995
vn 0.1867 0.9336 -0.3060
vn 0.4192 0.9079 0.0049
vn 0.3568 0.8318 -0.4252
vn -0.0010 0.9973 0.0733
vn 0.4192 0.9079 0.0049
vn 0.1867 0.9336 -0.3060
vn -0.0636 0.9143 -0.4000
vn -0.0010 0.9973 0.0733
vn 0.1867 0.9336 -0.3060
vn -0.2201 0.8931 -0.3923
vn -0.0010 0.9973 0.0733
vn -0.0636 0.9143 -0.4000
vn -0.4467 0.8729 -0.1965
vn -0.0010 0.9973 0.0733
vn -0.2201 0.8931 -0.3923
vn -0.5381 0.8116 0.2276
vn -0.0010 0.9973 0.0733
vn -0.4467 0.8729 -0.1965
vn -0.3039 0.7925 0.5287
vn -0.0010 0.9973 0.0733
vn -0.5381 0.8116 0.2276
vn 0.0538 0.8144 0.5778
vn -0.0010 0.9973 0.0733
vn -0.3039 0.7925 0.5287
vn 0.2707 0.8083 0.5229
vn -0.0010 0.9973 0.0733
vn 0.0538 0.8144 0.5778
vn 0.3899 0.8414 0.3743
vn -0.0010 0.9973 0.0733
vn 0.2707 0.8083 0.5229
vn 0.3899 0.8414 0.3743
vn 0.4192 0.9079 0.0049
vn -0.0010 0.9973 0.0733
# 210 vertex normals

vt 0.3931 0.2744 0.0000
vt 0.3748 0.2891 0.0000
vt 0.3975 0.2881 0.0000
vt 0.4197 0.2842 0.0000
vt 0.4146 0.2964 0.0000
vt 0.4368 0.3057 0.0000
vt 0.4290 0.3066 0.0000
vt 0.4338 0.3262 0.0000
vt 0.4277 0.3242 0.0000
vt 0.4167 0.3384 0.0000
vt 0.4202 0.3457 0.0000
vt 0.4023 0.3535 0.0000
vt 0.3997 0.3413 0.0000
vt 0.3845 0.3452 0.0000
vt 0.3894 0.3369 0.0000
vt 0.3794 0.3286 0.0000
vt 0.3621 0.3311 0.0000
vt 0.3735 0.3125 0.0000
vt 0.3630 0.3091 0.0000
vt 0.3811 0.2959 0.0000
vt 0.3884 0.3008 0.0000
vt 0.4009 0.2954 0.0000
vt 0.4138 0.3008 0.0000
vt 0.4246 0.3091 0.0000
vt 0.4241 0.3223 0.0000
vt 0.4141 0.3330 0.0000
vt 0.4021 0.3354 0.0000
vt 0.3945 0.3320 0.0000
vt 0.3843 0.3267 0.0000
vt 0.3806 0.3140 0.0000
vt 0.3857 0.3149 0.0000
vt 0.3892 0.3252 0.0000
vt 0.3982 0.3296 0.0000
vt 0.4050 0.3320 0.0000
vt 0.4150 0.3276 0.0000
vt 0.4209 0.3218 0.0000
vt 0.4214 0.3145 0.0000
vt 0.4131 0.3081 0.0000
vt 0.4050 0.3052 0.0000
vt 0.3960 0.3076 0.0000
vt 0.4053 0.3203 0.0000
# 41 texture coords

o SM_Barnacle_01_LOD0
g SM_Barnacle_01_LOD0
usemtl MAT_Sea_Shells
s 1
f 16/3/1 1/2/2 2/1/3 
f 3/4/4 16/3/5 2/1/6 
f 17/5/7 16/3/8 3/4/9 
f 4/6/10 17/5/11 3/4/12 
f 5/7/13 17/5/14 4/6/15 
f 6/8/16 5/7/17 4/6/18 
f 19/9/19 5/7/20 6/8/21 
f 8/10/22 19/9/23 6/8/24 
f 7/11/25 8/10/26 6/8/27 
f 9/12/28 8/10/29 7/11/30 
f 22/13/31 8/10/32 9/12/33 
f 10/14/34 22/13/35 9/12/36 
f 24/15/37 22/13/38 10/14/39 
f 11/16/40 24/15/41 10/14/42 
f 12/17/43 11/16/44 10/14/45 
f 13/18/46 11/16/47 12/17/48 
f 14/19/49 13/18/50 12/17/51 
f 15/20/52 13/18/53 14/19/54 
f 1/2/55 15/20/56 14/19/57 
f 16/3/58 15/20/59 1/2/60 
f 34/21/61 15/20/62 16/3/63 
f 32/22/64 34/21/65 16/3/66 
f 17/5/67 32/22/68 16/3/69 
f 31/23/70 32/22/71 17/5/72 
f 5/7/73 31/23/74 17/5/75 
f 18/24/76 31/23/77 5/7/78 
f 19/9/79 18/24/80 5/7/81 
f 20/25/82 18/24/83 19/9/84 
f 21/26/85 20/25/86 19/9/87 
f 8/10/88 21/26/89 19/9/90 
f 23/27/91 21/26/92 8/10/93 
f 22/13/94 23/27/95 8/10/96 
f 28/28/97 23/27/98 22/13/99 
f 24/15/100 28/28/101 22/13/102 
f 26/29/103 28/28/104 24/15/105 
f 11/16/106 26/29/107 24/15/108 
f 25/30/109 26/29/110 11/16/111 
f 13/18/112 25/30/113 11/16/114 
f 15/20/115 25/30/116 13/18/117 
f 34/21/118 25/30/119 15/20/120 
f 34/21/121 27/31/122 25/30/123 
f 27/31/124 26/29/125 25/30/126 
f 27/31/127 41/32/128 26/29/129 
f 41/32/130 28/28/131 26/29/132 
f 41/32/133 40/33/134 28/28/135 
f 40/33/136 23/27/137 28/28/138 
f 40/33/139 29/34/140 23/27/141 
f 29/34/142 21/26/143 23/27/144 
f 29/34/145 30/35/146 21/26/147 
f 30/35/148 20/25/149 21/26/150 
f 39/36/151 20/25/152 30/35/153 
f 39/36/154 38/37/155 20/25/156 
f 38/37/157 18/24/158 20/25/159 
f 38/37/160 37/38/161 18/24/162 
f 37/38/163 31/23/164 18/24/165 
f 37/38/166 33/39/167 31/23/168 
f 33/39/169 32/22/170 31/23/171 
f 33/39/172 35/40/173 32/22/174 
f 35/40/175 34/21/176 32/22/177 
f 35/40/178 27/31/179 34/21/180 
f 36/41/181 27/31/182 35/40/183 
f 33/39/184 36/41/185 35/40/186 
f 37/38/187 36/41/188 33/39/189 
f 38/37/190 36/41/191 37/38/192 
f 39/36/193 36/41/194 38/37/195 
f 30/35/196 36/41/197 39/36/198 
f 29/34/199 36/41/200 30/35/201 
f 40/33/202 36/41/203 29/34/204 
f 41/32/205 36/41/206 40/33/207 
f 41/32/208 27/31/209 36/41/210 
# 70 faces

#
# object SM_Barnacle_01_LOD1
#

v  -0.2141 0.0000 3.5748
v  3.4207 0.0000 1.5428
v  0.5822 -0.0000 -3.5974
v  -3.4207 0.0000 -0.7685
v  -0.5450 1.6410 0.5856
v  -1.9002 0.0000 2.8806
v  1.1388 1.1149 0.4396
v  -2.0814 1.0827 -0.0690
v  0.0652 0.2493 -2.2257
v  3.3291 0.0000 -0.4555
v  -1.8465 1.2155 0.8392
v  0.5924 1.0988 -0.8339
v  2.1448 0.1660 0.4682
v  -1.8442 -0.0000 -2.7219
v  0.1342 0.1584 2.4567
v  -3.1366 0.0000 1.1016
v  1.6734 0.1710 -1.6317
v  -1.5906 0.1710 2.2278
v  -2.5833 0.1710 0.9364
v  2.2538 -0.0000 -2.2859
v  -2.6961 0.1588 -0.6550
v  -0.5078 1.1173 1.6736
v  -1.2987 0.9062 -0.9646
# 23 vertices

vn 0.0061 0.9975 0.0698
vn 0.5209 0.8353 0.1757
vn 0.2364 0.8979 -0.3713
vn -0.2902 0.7660 -0.5737
vn 0.0061 0.9975 0.0698
vn 0.2364 0.8979 -0.3713
vn 0.5209 0.8353 0.1757
vn 0.0398 0.7944 0.6061
vn 0.1760 0.9064 0.3840
vn -0.5244 0.8009 0.2891
vn -0.5769 0.7914 -0.2023
vn -0.5154 0.8347 0.1939
vn 0.1760 0.9064 0.3840
vn 0.0398 0.7944 0.6061
vn -0.2446 0.8888 0.3876
vn 0.3204 0.9435 0.0845
vn 0.5209 0.8353 0.1757
vn 0.1760 0.9064 0.3840
vn 0.2364 0.8979 -0.3713
vn 0.5209 0.8353 0.1757
vn 0.2525 0.9434 -0.2151
vn -0.3856 0.8959 -0.2208
vn -0.2902 0.7660 -0.5737
vn -0.0071 0.9418 -0.3361
vn -0.5154 0.8347 0.1939
vn -0.5769 0.7914 -0.2023
vn -0.3856 0.8959 -0.2208
vn -0.0993 0.9885 -0.1144
vn -0.0071 0.9418 -0.3361
vn 0.0340 0.9855 -0.1663
vn -0.0071 0.9418 -0.3361
vn 0.2525 0.9434 -0.2151
vn 0.1379 0.9821 -0.1285
vn 0.0853 0.9950 0.0524
vn 0.3204 0.9435 0.0845
vn 0.0190 0.9882 0.1520
vn -0.5244 0.8009 0.2891
vn 0.0061 0.9975 0.0698
vn -0.5769 0.7914 -0.2023
vn 0.0398 0.7944 0.6061
vn -0.5244 0.8009 0.2891
vn -0.2446 0.8888 0.3876
vn -0.2902 0.7660 -0.5737
vn 0.2364 0.8979 -0.3713
vn -0.0071 0.9418 -0.3361
vn 0.2364 0.8979 -0.3713
vn 0.2525 0.9434 -0.2151
vn -0.0071 0.9418 -0.3361
vn 0.1338 0.9905 -0.0305
vn 0.3204 0.9435 0.0845
vn 0.0853 0.9950 0.0524
vn 0.2525 0.9434 -0.2151
vn 0.5209 0.8353 0.1757
vn 0.3204 0.9435 0.0845
vn -0.1847 0.9810 -0.0601
vn -0.0071 0.9418 -0.3361
vn -0.0993 0.9885 -0.1144
vn 0.1760 0.9064 0.3840
vn -0.2446 0.8888 0.3876
vn 0.0190 0.9882 0.1520
vn 0.3204 0.9435 0.0845
vn 0.1760 0.9064 0.3840
vn 0.0190 0.9882 0.1520
vn -0.2446 0.8888 0.3876
vn -0.5244 0.8009 0.2891
vn -0.5154 0.8347 0.1939
vn 0.1379 0.9821 -0.1285
vn 0.2525 0.9434 -0.2151
vn 0.1338 0.9905 -0.0305
vn 0.2525 0.9434 -0.2151
vn 0.3204 0.9435 0.0845
vn 0.1338 0.9905 -0.0305
vn 0.0190 0.9882 0.1520
vn -0.2446 0.8888 0.3876
vn -0.1410 0.9720 0.1877
vn -0.1410 0.9720 0.1877
vn -0.2446 0.8888 0.3876
vn -0.2543 0.9627 0.0924
vn -0.5154 0.8347 0.1939
vn -0.3856 0.8959 -0.2208
vn -0.2543 0.9627 0.0924
vn -0.2446 0.8888 0.3876
vn -0.5154 0.8347 0.1939
vn -0.2543 0.9627 0.0924
vn -0.0071 0.9418 -0.3361
vn 0.1379 0.9821 -0.1285
vn 0.0340 0.9855 -0.1663
vn -0.3856 0.8959 -0.2208
vn -0.0071 0.9418 -0.3361
vn -0.1847 0.9810 -0.0601
vn -0.2543 0.9627 0.0924
vn -0.3856 0.8959 -0.2208
vn -0.1847 0.9810 -0.0601
vn 0.0398 0.7944 0.6061
vn 0.0061 0.9975 0.0698
vn -0.5244 0.8009 0.2891
vn 0.5209 0.8353 0.1757
vn 0.0061 0.9975 0.0698
vn 0.0398 0.7944 0.6061
vn -0.5769 0.7914 -0.2023
vn 0.0061 0.9975 0.0698
vn -0.2902 0.7660 -0.5737
vn -0.5769 0.7914 -0.2023
vn -0.2902 0.7660 -0.5737
vn -0.3856 0.8959 -0.2208
# 105 vertex normals

vt 0.3621 0.3311 0.0000
vt 0.4053 0.3203 0.0000
vt 0.3931 0.2744 0.0000
vt 0.4368 0.3057 0.0000
vt 0.4018 0.3533 0.0000
vt 0.4197 0.3230 0.0000
vt 0.3630 0.3091 0.0000
vt 0.4197 0.2842 0.0000
vt 0.3759 0.3191 0.0000
vt 0.3988 0.2896 0.0000
vt 0.4202 0.3457 0.0000
vt 0.4338 0.3262 0.0000
vt 0.3748 0.2891 0.0000
vt 0.4050 0.3320 0.0000
vt 0.4222 0.3131 0.0000
vt 0.3870 0.3187 0.0000
vt 0.3980 0.3406 0.0000
vt 0.3811 0.2959 0.0000
vt 0.4277 0.3242 0.0000
vt 0.4167 0.3384 0.0000
vt 0.4290 0.3066 0.0000
vt 0.4136 0.3032 0.0000
vt 0.3929 0.3049 0.0000
# 23 texture coords

o SM_Barnacle_01_LOD1
g SM_Barnacle_01_LOD1
usemtl MAT_Sea_Shells
s 1
f 46/43/211 48/57/212 53/64/213 
f 64/63/214 46/43/215 53/64/216 
f 48/57/217 63/55/218 56/58/219 
f 52/47/220 49/56/221 60/60/222 
f 56/58/223 63/55/224 59/61/225 
f 54/50/226 48/57/227 56/58/228 
f 53/64/229 48/57/230 58/59/231 
f 62/62/232 64/63/233 50/51/234 
f 60/60/235 49/56/236 62/62/237 
f 55/49/238 50/51/239 44/44/240 
f 50/51/241 58/59/242 61/54/243 
f 43/42/244 54/50/245 42/46/246 
f 52/47/247 46/43/248 49/56/249 
f 63/55/250 52/47/251 59/61/252 
f 64/63/253 53/64/254 50/51/255 
f 53/64/256 58/59/257 50/51/258 
f 51/48/259 54/50/260 43/42/261 
f 58/59/262 48/57/263 54/50/264 
f 45/45/265 50/51/266 55/49/267 
f 56/58/268 59/61/269 42/46/270 
f 54/50/271 56/58/272 42/46/273 
f 59/61/274 52/47/275 60/60/276 
f 61/54/277 58/59/278 51/48/279 
f 58/59/280 54/50/281 51/48/282 
f 42/46/283 59/61/284 47/52/285 
f 47/52/286 59/61/287 57/53/288 
f 60/60/289 62/62/290 57/53/291 
f 59/61/292 60/60/293 57/53/294 
f 50/51/295 61/54/296 44/44/297 
f 62/62/298 50/51/299 45/45/300 
f 57/53/301 62/62/302 45/45/303 
f 63/55/304 46/43/305 52/47/306 
f 48/57/307 46/43/308 63/55/309 
f 49/56/310 46/43/311 64/63/312 
f 49/56/313 64/63/314 62/62/315 
# 35 faces

