# 3ds Max Wavefront OBJ Exporter v0.97b - (c)2007 guruware
# File Created: 10.02.2024 08:45:25

mtllib SM_Barnacle_03.mtl

#
# object SM_Barnacle_03_LOD0
#

v  -2.9165 0.0000 -0.7673
v  -2.1420 0.1372 -0.6692
v  -2.6710 0.0000 0.8488
v  -1.6026 0.0000 2.3863
v  -2.0445 0.1478 0.7061
v  -0.1874 0.0000 3.0057
v  0.0272 0.1372 2.0766
v  1.2112 0.0000 2.3539
v  0.8243 0.1349 1.7249
v  -1.1866 0.1478 1.8221
v  -0.9534 0.5214 1.3933
v  -1.6308 0.4728 -0.4825
v  -1.5542 0.0000 -2.1398
v  -1.6005 0.5214 0.5442
v  -0.5157 1.0258 -0.4447
v  -0.0264 1.1986 0.3547
v  -0.4876 1.3191 0.1395
v  -0.4628 1.3332 0.4884
v  -0.8989 1.0258 -0.0960
v  -0.8676 1.0523 0.5105
v  -0.2267 1.3332 0.8022
v  0.4002 1.0201 1.0234
v  0.0744 1.0258 1.1754
v  0.0823 1.3191 0.8971
v  -0.4706 1.0523 1.0351
v  -0.0156 0.4728 1.5844
v  0.5838 0.4623 1.3365
v  0.2485 1.3161 0.8094
v  0.4196 1.3191 0.6804
v  0.7182 1.0258 0.7681
v  2.6690 0.0000 1.2302
v  2.0786 0.1478 -0.2305
v  2.9165 0.0000 -0.4968
v  1.9873 0.0000 -2.0786
v  0.5427 0.0000 -3.0057
v  -1.1585 0.1372 -1.4892
v  -0.9381 0.4728 -1.1240
v  0.0405 1.0258 -0.6894
v  -0.3139 1.3191 -0.0966
v  0.0099 1.3191 -0.1781
v  0.3361 1.3332 -0.0181
v  0.5057 1.3332 0.3375
v  0.8966 1.0523 0.1736
v  1.1693 0.4728 0.8375
v  1.6250 0.1372 1.0707
v  1.4857 0.1478 -1.5132
v  0.2001 0.1372 -2.1432
v  0.0867 0.4728 -1.5644
v  0.6143 1.0523 -0.4232
v  1.0709 0.5214 -1.1362
v  1.5252 0.5214 -0.1657
# 51 vertices

vn -0.3448 0.9270 -0.1475
vn -0.1066 0.9811 -0.1614
vn -0.1690 0.9836 -0.0635
vn -0.1925 0.9783 0.0772
vn -0.3448 0.9270 -0.1475
vn -0.1690 0.9836 -0.0635
vn -0.3842 0.9120 0.1437
vn -0.3448 0.9270 -0.1475
vn -0.1925 0.9783 0.0772
vn -0.1182 0.9814 0.1513
vn -0.3842 0.9120 0.1437
vn -0.1925 0.9783 0.0772
vn -0.2201 0.9167 0.3336
vn -0.3842 0.9120 0.1437
vn -0.1182 0.9814 0.1513
vn 0.0127 0.9862 0.1652
vn -0.2201 0.9167 0.3336
vn -0.1182 0.9814 0.1513
vn 0.0420 0.9256 0.3763
vn -0.2201 0.9167 0.3336
vn 0.0127 0.9862 0.1652
vn 0.0928 0.9841 0.1515
vn 0.0420 0.9256 0.3763
vn 0.0127 0.9862 0.1652
vn 0.2023 0.9216 0.3313
vn 0.0420 0.9256 0.3763
vn 0.0928 0.9841 0.1515
vn 0.0869 0.7161 0.6926
vn 0.0420 0.9256 0.3763
vn 0.2023 0.9216 0.3313
vn 0.0869 0.7161 0.6926
vn -0.2201 0.9167 0.3336
vn 0.0420 0.9256 0.3763
vn 0.0869 0.7161 0.6926
vn -0.3312 0.7610 0.5578
vn -0.2201 0.9167 0.3336
vn -0.3312 0.7610 0.5578
vn -0.3842 0.9120 0.1437
vn -0.2201 0.9167 0.3336
vn -0.3312 0.7610 0.5578
vn -0.5678 0.7984 0.2003
vn -0.3842 0.9120 0.1437
vn -0.5678 0.7984 0.2003
vn -0.5072 0.8317 -0.2258
vn -0.3842 0.9120 0.1437
vn -0.5072 0.8317 -0.2258
vn -0.3448 0.9270 -0.1475
vn -0.3842 0.9120 0.1437
vn -0.5072 0.8317 -0.2258
vn -0.2198 0.9155 -0.3371
vn -0.3448 0.9270 -0.1475
vn -0.2198 0.9155 -0.3371
vn -0.1066 0.9811 -0.1614
vn -0.3448 0.9270 -0.1475
vn -0.3179 0.8128 -0.4881
vn -0.2198 0.9155 -0.3371
vn -0.5072 0.8317 -0.2258
vn -0.5054 0.8359 -0.2141
vn -0.3179 0.8128 -0.4881
vn -0.5072 0.8317 -0.2258
vn -0.5678 0.7984 0.2003
vn -0.5054 0.8359 -0.2141
vn -0.5072 0.8317 -0.2258
vn -0.5054 0.8359 -0.2141
vn -0.3082 0.8268 -0.4706
vn -0.3179 0.8128 -0.4881
vn -0.5054 0.8359 -0.2141
vn -0.0988 0.9835 -0.1517
vn -0.3082 0.8268 -0.4706
vn -0.5054 0.8359 -0.2141
vn -0.1436 0.9858 -0.0870
vn -0.0988 0.9835 -0.1517
vn -0.1436 0.9858 -0.0870
vn 0.0029 0.9998 -0.0186
vn -0.0988 0.9835 -0.1517
vn -0.1612 0.9860 0.0420
vn 0.0029 0.9998 -0.0186
vn -0.1436 0.9858 -0.0870
vn -0.5638 0.8022 0.1964
vn -0.1612 0.9860 0.0420
vn -0.1436 0.9858 -0.0870
vn -0.5054 0.8359 -0.2141
vn -0.5638 0.8022 0.1964
vn -0.1436 0.9858 -0.0870
vn -0.5678 0.7984 0.2003
vn -0.5638 0.8022 0.1964
vn -0.5054 0.8359 -0.2141
vn -0.3312 0.7610 0.5578
vn -0.5638 0.8022 0.1964
vn -0.5678 0.7984 0.2003
vn -0.3312 0.7610 0.5578
vn -0.3466 0.7333 0.5849
vn -0.5638 0.8022 0.1964
vn -0.3466 0.7333 0.5849
vn -0.1612 0.9860 0.0420
vn -0.5638 0.8022 0.1964
vn -0.3466 0.7333 0.5849
vn -0.0909 0.9767 0.1945
vn -0.1612 0.9860 0.0420
vn -0.0909 0.9767 0.1945
vn 0.0029 0.9998 -0.0186
vn -0.1612 0.9860 0.0420
vn -0.0909 0.9767 0.1945
vn 0.0616 0.9595 0.2748
vn 0.0029 0.9998 -0.0186
vn 0.0616 0.9595 0.2748
vn 0.1672 0.9496 0.2650
vn 0.0029 0.9998 -0.0186
vn 0.0616 0.9595 0.2748
vn 0.4232 0.5972 0.6813
vn 0.1672 0.9496 0.2650
vn 0.0616 0.9595 0.2748
vn 0.0987 0.6458 0.7571
vn 0.4232 0.5972 0.6813
vn -0.0909 0.9767 0.1945
vn 0.0987 0.6458 0.7571
vn 0.0616 0.9595 0.2748
vn -0.3466 0.7333 0.5849
vn 0.0987 0.6458 0.7571
vn -0.0909 0.9767 0.1945
vn 0.0869 0.7161 0.6926
vn 0.0987 0.6458 0.7571
vn -0.3466 0.7333 0.5849
vn 0.0869 0.7161 0.6926
vn -0.3466 0.7333 0.5849
vn -0.3312 0.7610 0.5578
vn 0.3803 0.6873 0.6189
vn 0.0987 0.6458 0.7571
vn 0.0869 0.7161 0.6926
vn 0.0987 0.6458 0.7571
vn 0.3803 0.6873 0.6189
vn 0.4232 0.5972 0.6813
vn 0.2023 0.9216 0.3313
vn 0.3803 0.6873 0.6189
vn 0.0869 0.7161 0.6926
vn 0.4232 0.5972 0.6813
vn 0.2042 0.9625 0.1788
vn 0.1672 0.9496 0.2650
vn 0.2042 0.9625 0.1788
vn 0.0029 0.9998 -0.0186
vn 0.1672 0.9496 0.2650
vn 0.1829 0.9830 0.0186
vn 0.0029 0.9998 -0.0186
vn 0.2042 0.9625 0.1788
vn 0.6033 0.6619 0.4449
vn 0.1829 0.9830 0.0186
vn 0.2042 0.9625 0.1788
vn 0.4232 0.5972 0.6813
vn 0.6033 0.6619 0.4449
vn 0.2042 0.9625 0.1788
vn 0.3803 0.6873 0.6189
vn 0.6033 0.6619 0.4449
vn 0.4232 0.5972 0.6813
vn 0.5565 0.7228 0.4098
vn 0.6033 0.6619 0.4449
vn 0.3803 0.6873 0.6189
vn 0.2023 0.9216 0.3313
vn 0.5565 0.7228 0.4098
vn 0.3803 0.6873 0.6189
vn 0.3022 0.9280 0.2181
vn 0.5565 0.7228 0.4098
vn 0.2023 0.9216 0.3313
vn 0.0928 0.9841 0.1515
vn 0.3022 0.9280 0.2181
vn 0.2023 0.9216 0.3313
vn 0.1299 0.9875 0.0889
vn 0.3022 0.9280 0.2181
vn 0.0928 0.9841 0.1515
vn 0.3569 0.9339 -0.0205
vn 0.3022 0.9280 0.2181
vn 0.1299 0.9875 0.0889
vn 0.1575 0.9872 -0.0245
vn 0.3569 0.9339 -0.0205
vn 0.1299 0.9875 0.0889
vn 0.2514 0.9341 -0.2533
vn 0.3569 0.9339 -0.0205
vn 0.1575 0.9872 -0.0245
vn 0.1221 0.9855 -0.1182
vn 0.2514 0.9341 -0.2533
vn 0.1575 0.9872 -0.0245
vn 0.0029 0.9866 -0.1633
vn 0.2514 0.9341 -0.2533
vn 0.1221 0.9855 -0.1182
vn -0.0088 0.9350 -0.3546
vn 0.2514 0.9341 -0.2533
vn 0.0029 0.9866 -0.1633
vn -0.1066 0.9811 -0.1614
vn -0.0088 0.9350 -0.3546
vn 0.0029 0.9866 -0.1633
vn -0.2198 0.9155 -0.3371
vn -0.0088 0.9350 -0.3546
vn -0.1066 0.9811 -0.1614
vn -0.0205 0.8450 -0.5344
vn -0.0088 0.9350 -0.3546
vn -0.2198 0.9155 -0.3371
vn -0.3179 0.8128 -0.4881
vn -0.0205 0.8450 -0.5344
vn -0.2198 0.9155 -0.3371
vn -0.0127 0.8534 -0.5211
vn -0.0205 0.8450 -0.5344
vn -0.3179 0.8128 -0.4881
vn -0.3082 0.8268 -0.4706
vn -0.0127 0.8534 -0.5211
vn -0.3179 0.8128 -0.4881
vn -0.0264 0.9875 -0.1553
vn -0.0127 0.8534 -0.5211
vn -0.3082 0.8268 -0.4706
vn -0.0988 0.9835 -0.1517
vn -0.0264 0.9875 -0.1553
vn -0.3082 0.8268 -0.4706
vn 0.0029 0.9998 -0.0186
vn -0.0264 0.9875 -0.1553
vn -0.0988 0.9835 -0.1517
vn 0.0831 0.9908 -0.1066
vn -0.0264 0.9875 -0.1553
vn 0.0029 0.9998 -0.0186
vn 0.1829 0.9830 0.0186
vn 0.0831 0.9908 -0.1066
vn 0.0029 0.9998 -0.0186
vn 0.6212 0.7836 -0.0029
vn 0.0831 0.9908 -0.1066
vn 0.1829 0.9830 0.0186
vn 0.6033 0.6619 0.4449
vn 0.6212 0.7836 -0.0029
vn 0.1829 0.9830 0.0186
vn 0.5565 0.7228 0.4098
vn 0.6212 0.7836 -0.0029
vn 0.6033 0.6619 0.4449
vn 0.6005 0.7996 -0.0049
vn 0.6212 0.7836 -0.0029
vn 0.5565 0.7228 0.4098
vn 0.3022 0.9280 0.2181
vn 0.6005 0.7996 -0.0049
vn 0.5565 0.7228 0.4098
vn 0.3569 0.9339 -0.0205
vn 0.6005 0.7996 -0.0049
vn 0.3022 0.9280 0.2181
vn 0.2514 0.9341 -0.2533
vn 0.6005 0.7996 -0.0049
vn 0.3569 0.9339 -0.0205
vn 0.3742 0.8432 -0.3859
vn 0.6005 0.7996 -0.0049
vn 0.2514 0.9341 -0.2533
vn -0.0088 0.9350 -0.3546
vn 0.3742 0.8432 -0.3859
vn 0.2514 0.9341 -0.2533
vn -0.0205 0.8450 -0.5344
vn 0.3742 0.8432 -0.3859
vn -0.0088 0.9350 -0.3546
vn -0.0127 0.8534 -0.5211
vn 0.3742 0.8432 -0.3859
vn -0.0205 0.8450 -0.5344
vn 0.3604 0.8527 -0.3780
vn 0.3742 0.8432 -0.3859
vn -0.0127 0.8534 -0.5211
vn 0.3604 0.8527 -0.3780
vn 0.6005 0.7996 -0.0049
vn 0.3742 0.8432 -0.3859
vn 0.3604 0.8527 -0.3780
vn 0.6212 0.7836 -0.0029
vn 0.6005 0.7996 -0.0049
vn 0.3604 0.8527 -0.3780
vn 0.0831 0.9908 -0.1066
vn 0.6212 0.7836 -0.0029
vn 0.3604 0.8527 -0.3780
vn -0.0264 0.9875 -0.1553
vn 0.0831 0.9908 -0.1066
vn 0.3604 0.8527 -0.3780
vn -0.0127 0.8534 -0.5211
vn -0.0264 0.9875 -0.1553
# 270 vertex normals

vt 0.0927 0.6260 0.0000
vt 0.0777 0.6506 0.0000
vt 0.0809 0.6277 0.0000
vt 0.0869 0.6013 0.0000
vt 0.0776 0.6055 0.0000
vt 0.0656 0.5806 0.0000
vt 0.0606 0.5908 0.0000
vt 0.0403 0.5781 0.0000
vt 0.0383 0.5916 0.0000
vt 0.0180 0.5950 0.0000
vt 0.0250 0.6007 0.0000
vt 0.0400 0.5989 0.0000
vt 0.0573 0.5986 0.0000
vt 0.0702 0.6099 0.0000
vt 0.0725 0.6267 0.0000
vt 0.0675 0.6455 0.0000
vt 0.0624 0.6400 0.0000
vt 0.0542 0.6277 0.0000
vt 0.0487 0.6348 0.0000
vt 0.0415 0.6327 0.0000
vt 0.0439 0.6282 0.0000
vt 0.0364 0.6260 0.0000
vt 0.0424 0.6230 0.0000
vt 0.0522 0.6184 0.0000
vt 0.0445 0.6121 0.0000
vt 0.0378 0.6196 0.0000
vt 0.0328 0.6194 0.0000
vt 0.0306 0.6212 0.0000
vt 0.0312 0.6150 0.0000
vt 0.0351 0.6123 0.0000
vt 0.0300 0.6055 0.0000
vt 0.0326 0.6196 0.0000
vt 0.0376 0.6199 0.0000
vt 0.0351 0.6123 0.0000
vt 0.0400 0.5989 0.0000
vt 0.0383 0.5916 0.0000
vt 0.0417 0.5764 0.0000
vt 0.0606 0.5908 0.0000
vt 0.0671 0.5813 0.0000
vt 0.0776 0.6055 0.0000
vt 0.0869 0.6013 0.0000
vt 0.0933 0.6262 0.0000
vt 0.0809 0.6277 0.0000
vt 0.0725 0.6267 0.0000
vt 0.0542 0.6277 0.0000
vt 0.0437 0.6284 0.0000
vt 0.0422 0.6233 0.0000
vt 0.0445 0.6121 0.0000
vt 0.0573 0.5986 0.0000
vt 0.0702 0.6099 0.0000
vt 0.0522 0.6184 0.0000
# 51 texture coords

o SM_Barnacle_03_LOD0
g SM_Barnacle_03_LOD0
usemtl MAT_Sea_Shells
s 1
f 2/3/1 13/2/2 1/1/3 
f 3/4/4 2/3/5 1/1/6 
f 5/5/7 2/3/8 3/4/9 
f 4/6/10 5/5/11 3/4/12 
f 10/7/13 5/5/14 4/6/15 
f 6/8/16 10/7/17 4/6/18 
f 7/9/19 10/7/20 6/8/21 
f 8/10/22 7/9/23 6/8/24 
f 9/11/25 7/9/26 8/10/27 
f 26/12/28 7/9/29 9/11/30 
f 26/12/31 10/7/32 7/9/33 
f 26/12/34 11/13/35 10/7/36 
f 11/13/37 5/5/38 10/7/39 
f 11/13/40 14/14/41 5/5/42 
f 14/14/43 12/15/44 5/5/45 
f 12/15/46 2/3/47 5/5/48 
f 12/15/49 36/16/50 2/3/51 
f 36/16/52 13/2/53 2/3/54 
f 37/17/55 36/16/56 12/15/57 
f 19/18/58 37/17/59 12/15/60 
f 14/14/61 19/18/62 12/15/63 
f 19/18/64 15/19/65 37/17/66 
f 19/18/67 39/20/68 15/19/69 
f 19/18/70 17/21/71 39/20/72 
f 17/21/73 16/22/74 39/20/75 
f 18/23/76 16/22/77 17/21/78 
f 20/24/79 18/23/80 17/21/81 
f 19/18/82 20/24/83 17/21/84 
f 14/14/85 20/24/86 19/18/87 
f 11/13/88 20/24/89 14/14/90 
f 11/13/91 25/25/92 20/24/93 
f 25/25/94 18/23/95 20/24/96 
f 25/25/97 21/26/98 18/23/99 
f 21/26/100 16/22/101 18/23/102 
f 21/26/103 24/27/104 16/22/105 
f 24/27/106 28/28/107 16/22/108 
f 24/27/109 22/29/110 28/28/111 
f 24/27/112 23/30/113 22/29/114 
f 21/26/115 23/30/116 24/27/117 
f 25/25/118 23/30/119 21/26/120 
f 26/12/121 23/30/122 25/25/123 
f 26/12/124 25/25/125 11/13/126 
f 27/31/127 23/30/128 26/12/129 
f 23/30/130 27/31/131 22/29/132 
f 9/11/133 27/31/134 26/12/135 
f 22/29/136 29/32/137 28/28/138 
f 29/32/139 16/22/140 28/28/141 
f 42/33/142 16/22/143 29/32/144 
f 30/34/145 42/33/146 29/32/147 
f 22/29/148 30/34/149 29/32/150 
f 27/31/151 30/34/152 22/29/153 
f 44/35/154 30/34/155 27/31/156 
f 9/11/157 44/35/158 27/31/159 
f 45/36/160 44/35/161 9/11/162 
f 8/10/163 45/36/164 9/11/165 
f 31/37/166 45/36/167 8/10/168 
f 32/38/169 45/36/170 31/37/171 
f 33/39/172 32/38/173 31/37/174 
f 46/40/175 32/38/176 33/39/177 
f 34/41/178 46/40/179 33/39/180 
f 35/42/181 46/40/182 34/41/183 
f 47/43/184 46/40/185 35/42/186 
f 13/2/187 47/43/188 35/42/189 
f 36/16/190 47/43/191 13/2/192 
f 48/44/193 47/43/194 36/16/195 
f 37/17/196 48/44/197 36/16/198 
f 38/45/199 48/44/200 37/17/201 
f 15/19/202 38/45/203 37/17/204 
f 40/46/205 38/45/206 15/19/207 
f 39/20/208 40/46/209 15/19/210 
f 16/22/211 40/46/212 39/20/213 
f 41/47/214 40/46/215 16/22/216 
f 42/33/217 41/47/218 16/22/219 
f 43/48/220 41/47/221 42/33/222 
f 30/34/223 43/48/224 42/33/225 
f 44/35/226 43/48/227 30/34/228 
f 51/49/229 43/48/230 44/35/231 
f 45/36/232 51/49/233 44/35/234 
f 32/38/235 51/49/236 45/36/237 
f 46/40/238 51/49/239 32/38/240 
f 50/50/241 51/49/242 46/40/243 
f 47/43/244 50/50/245 46/40/246 
f 48/44/247 50/50/248 47/43/249 
f 38/45/250 50/50/251 48/44/252 
f 49/51/253 50/50/254 38/45/255 
f 49/51/256 51/49/257 50/50/258 
f 49/51/259 43/48/260 51/49/261 
f 49/51/262 41/47/263 43/48/264 
f 49/51/265 40/46/266 41/47/267 
f 49/51/268 38/45/269 40/46/270 
# 90 faces

#
# object SM_Barnacle_03_LOD1
#

v  0.0820 1.3105 0.9052
v  2.9165 0.0000 -0.4968
v  -2.9165 0.0000 -0.7673
v  -0.1874 0.0000 3.0057
v  -2.6710 0.0000 0.8488
v  0.5427 0.0000 -3.0057
v  0.0272 0.1372 2.0766
v  -0.4284 1.3191 0.0590
v  2.6690 0.0000 1.2302
v  2.0786 0.1478 -0.2305
v  0.2001 0.1372 -2.1432
v  -2.1389 0.1392 -0.6681
v  0.5158 1.3259 0.3332
v  -1.1760 0.1648 1.8025
v  -1.6026 0.0000 2.3863
v  0.0099 1.3191 -0.1781
v  1.6250 0.1372 1.0707
v  -1.5542 0.0000 -2.1398
v  1.9873 0.0000 -2.0786
v  1.4784 0.1543 -1.5066
v  -2.0445 0.1478 0.7061
v  -0.0264 1.1986 0.3547
v  -0.2267 1.3332 0.8022
v  -1.1585 0.1372 -1.4892
v  -0.0156 0.4728 1.5844
v  1.2112 0.0000 2.3539
v  0.4196 1.3191 0.6804
v  1.1693 0.4728 0.8375
v  0.5838 0.4623 1.3365
v  0.8243 0.1349 1.7249
v  0.3361 1.3332 -0.0181
v  0.6798 1.0251 0.7989
v  -0.4628 1.3332 0.4884
v  1.5252 0.5214 -0.1657
# 34 vertices

vn 0.0908 0.7394 0.6671
vn -0.1285 0.9470 0.2945
vn -0.2126 0.9219 0.3238
vn -0.0321 0.9633 -0.2666
vn -0.0131 0.9552 -0.2956
vn -0.1990 0.9291 -0.3117
vn 0.5354 0.7542 0.3802
vn 0.6048 0.6492 0.4613
vn 0.3629 0.7096 0.6039
vn -0.3637 0.9231 0.1248
vn -0.2339 0.9602 -0.1527
vn -0.2879 0.9492 -0.1272
vn 0.1641 0.9728 -0.1635
vn 0.5739 0.8185 -0.0268
vn 0.2322 0.9444 -0.2329
vn 0.0512 0.9440 0.3259
vn -0.2126 0.9219 0.3238
vn 0.0072 0.9862 0.1652
vn 0.0933 0.9839 0.1523
vn 0.2642 0.9428 0.2036
vn 0.1957 0.9276 0.3184
vn 0.1641 0.9728 -0.1635
vn 0.3285 0.9440 0.0323
vn 0.5739 0.8185 -0.0268
vn -0.3637 0.9231 0.1248
vn -0.2627 0.9618 0.0769
vn -0.2339 0.9602 -0.1527
vn 0.1310 0.9885 0.0760
vn 0.2642 0.9428 0.2036
vn 0.0933 0.9839 0.1523
vn 0.1707 0.9848 -0.0313
vn 0.3189 0.9476 -0.0175
vn 0.1310 0.9885 0.0760
vn 0.2322 0.9444 -0.2329
vn 0.3189 0.9476 -0.0175
vn 0.1707 0.9848 -0.0313
vn 0.0168 0.9867 -0.1617
vn 0.2322 0.9444 -0.2329
vn 0.1415 0.9802 -0.1386
vn -0.1012 0.9826 -0.1559
vn -0.0131 0.9552 -0.2956
vn 0.0168 0.9867 -0.1617
vn -0.2059 0.9761 0.0697
vn -0.2879 0.9492 -0.1272
vn -0.1700 0.9842 -0.0485
vn -0.1990 0.9291 -0.3117
vn -0.0131 0.9552 -0.2956
vn -0.1012 0.9826 -0.1559
vn 0.0829 0.8900 0.4484
vn 0.3629 0.7096 0.6039
vn 0.6048 0.6492 0.4613
vn 0.2938 0.9203 0.2585
vn 0.0260 0.9997 0.0032
vn 0.0829 0.8900 0.4484
vn -0.2126 0.9219 0.3238
vn -0.2627 0.9618 0.0769
vn -0.3637 0.9231 0.1248
vn 0.0072 0.9862 0.1652
vn -0.2126 0.9219 0.3238
vn -0.1399 0.9747 0.1741
vn -0.2126 0.9219 0.3238
vn -0.3637 0.9231 0.1248
vn -0.1399 0.9747 0.1741
vn -0.2339 0.9602 -0.1527
vn -0.0321 0.9633 -0.2666
vn -0.1990 0.9291 -0.3117
vn 0.3285 0.9440 0.0323
vn 0.1641 0.9728 -0.1635
vn 0.0260 0.9997 0.0032
vn 0.5739 0.8185 -0.0268
vn 0.3285 0.9440 0.0323
vn 0.5354 0.7542 0.3802
vn 0.3189 0.9476 -0.0175
vn 0.2642 0.9428 0.2036
vn 0.1310 0.9885 0.0760
vn -0.2879 0.9492 -0.1272
vn -0.1012 0.9826 -0.1559
vn -0.1700 0.9842 -0.0485
vn 0.1415 0.9802 -0.1386
vn 0.2322 0.9444 -0.2329
vn 0.1707 0.9848 -0.0313
vn -0.0321 0.9633 -0.2666
vn 0.2322 0.9444 -0.2329
vn -0.0131 0.9552 -0.2956
vn -0.0131 0.9552 -0.2956
vn 0.2322 0.9444 -0.2329
vn 0.0168 0.9867 -0.1617
vn -0.1399 0.9747 0.1741
vn -0.3637 0.9231 0.1248
vn -0.2059 0.9761 0.0697
vn -0.3637 0.9231 0.1248
vn -0.2879 0.9492 -0.1272
vn -0.2059 0.9761 0.0697
vn -0.2627 0.9618 0.0769
vn 0.0260 0.9997 0.0032
vn -0.2339 0.9602 -0.1527
vn 0.0260 0.9997 0.0032
vn -0.0321 0.9633 -0.2666
vn -0.2339 0.9602 -0.1527
vn -0.1285 0.9470 0.2945
vn 0.0829 0.8900 0.4484
vn 0.0260 0.9997 0.0032
vn 0.0908 0.7394 0.6671
vn 0.0829 0.8900 0.4484
vn -0.1285 0.9470 0.2945
vn -0.1990 0.9291 -0.3117
vn -0.1012 0.9826 -0.1559
vn -0.2879 0.9492 -0.1272
vn -0.2339 0.9602 -0.1527
vn -0.1990 0.9291 -0.3117
vn -0.2879 0.9492 -0.1272
vn 0.0908 0.7394 0.6671
vn -0.2126 0.9219 0.3238
vn 0.0512 0.9440 0.3259
vn 0.1957 0.9276 0.3184
vn 0.5354 0.7542 0.3802
vn 0.3629 0.7096 0.6039
vn 0.0933 0.9839 0.1523
vn 0.0512 0.9440 0.3259
vn 0.0072 0.9862 0.1652
vn 0.5354 0.7542 0.3802
vn 0.3285 0.9440 0.0323
vn 0.6048 0.6492 0.4613
vn 0.3285 0.9440 0.0323
vn 0.0260 0.9997 0.0032
vn 0.2938 0.9203 0.2585
vn 0.2642 0.9428 0.2036
vn 0.5354 0.7542 0.3802
vn 0.1957 0.9276 0.3184
vn 0.2642 0.9428 0.2036
vn 0.5739 0.8185 -0.0268
vn 0.5354 0.7542 0.3802
vn 0.3629 0.7096 0.6039
vn 0.0829 0.8900 0.4484
vn 0.0908 0.7394 0.6671
vn 0.1957 0.9276 0.3184
vn 0.3629 0.7096 0.6039
vn 0.0908 0.7394 0.6671
vn 0.1957 0.9276 0.3184
vn 0.0512 0.9440 0.3259
vn 0.0933 0.9839 0.1523
vn 0.0908 0.7394 0.6671
vn 0.0512 0.9440 0.3259
vn 0.1957 0.9276 0.3184
vn 0.1641 0.9728 -0.1635
vn 0.2322 0.9444 -0.2329
vn -0.0321 0.9633 -0.2666
vn 0.1641 0.9728 -0.1635
vn -0.0321 0.9633 -0.2666
vn 0.0260 0.9997 0.0032
vn 0.6048 0.6492 0.4613
vn 0.2938 0.9203 0.2585
vn 0.0829 0.8900 0.4484
vn 0.6048 0.6492 0.4613
vn 0.3285 0.9440 0.0323
vn 0.2938 0.9203 0.2585
vn -0.1285 0.9470 0.2945
vn 0.0260 0.9997 0.0032
vn -0.2627 0.9618 0.0769
vn -0.2126 0.9219 0.3238
vn -0.1285 0.9470 0.2945
vn -0.2627 0.9618 0.0769
vn 0.2322 0.9444 -0.2329
vn 0.5739 0.8185 -0.0268
vn 0.3189 0.9476 -0.0175
vn 0.3189 0.9476 -0.0175
vn 0.5739 0.8185 -0.0268
vn 0.2642 0.9428 0.2036
# 168 vertex normals

vt 0.0403 0.5781 0.0000
vt 0.0671 0.5813 0.0000
vt 0.0927 0.6260 0.0000
vt 0.0328 0.6192 0.0000
vt 0.0933 0.6262 0.0000
vt 0.0431 0.6297 0.0000
vt 0.0383 0.5916 0.0000
vt 0.0417 0.5764 0.0000
vt 0.0869 0.6013 0.0000
vt 0.0656 0.5806 0.0000
vt 0.0869 0.6013 0.0000
vt 0.0378 0.6197 0.0000
vt 0.0777 0.6506 0.0000
vt 0.0606 0.5908 0.0000
vt 0.0808 0.6277 0.0000
vt 0.0604 0.5912 0.0000
vt 0.0809 0.6277 0.0000
vt 0.0378 0.6196 0.0000
vt 0.0383 0.5916 0.0000
vt 0.0437 0.6284 0.0000
vt 0.0774 0.6055 0.0000
vt 0.0776 0.6055 0.0000
vt 0.0180 0.5950 0.0000
vt 0.0675 0.6455 0.0000
vt 0.0400 0.5989 0.0000
vt 0.0364 0.6260 0.0000
vt 0.0326 0.6196 0.0000
vt 0.0400 0.5989 0.0000
vt 0.0422 0.6233 0.0000
vt 0.0424 0.6230 0.0000
vt 0.0300 0.6055 0.0000
vt 0.0250 0.6007 0.0000
vt 0.0347 0.6126 0.0000
vt 0.0573 0.5986 0.0000
# 34 texture coords

o SM_Barnacle_03_LOD1
g SM_Barnacle_03_LOD1
usemtl MAT_Sea_Shells
s 1
f 76/76/271 74/69/272 65/67/273 
f 67/71/274 62/68/275 75/75/276 
f 79/79/277 83/84/278 80/82/279 
f 72/73/280 59/57/281 63/66/282 
f 82/80/283 85/85/284 71/72/285 
f 58/58/286 65/67/287 55/52/288 
f 77/74/289 68/70/290 81/83/291 
f 82/80/292 64/63/293 85/85/294 
f 72/73/295 84/81/296 59/57/297 
f 60/59/298 68/70/299 77/74/300 
f 53/53/301 61/65/302 60/59/303 
f 71/72/304 61/65/305 53/53/306 
f 57/56/307 71/72/308 70/62/309 
f 69/64/310 62/68/311 57/56/312 
f 56/60/313 63/66/314 54/54/315 
f 75/75/316 62/68/317 69/64/318 
f 52/55/319 80/82/320 83/84/321 
f 78/78/322 73/77/323 52/55/324 
f 65/67/325 84/81/326 72/73/327 
f 55/52/328 65/67/329 66/61/330 
f 65/67/331 72/73/332 66/61/333 
f 59/57/334 67/71/335 75/75/336 
f 64/63/337 82/80/338 73/77/339 
f 85/85/340 64/63/341 79/79/342 
f 61/65/343 68/70/344 60/59/345 
f 63/66/346 69/64/347 54/54/348 
f 70/62/349 71/72/350 53/53/351 
f 67/71/352 71/72/353 62/68/354 
f 62/68/355 71/72/356 57/56/357 
f 66/61/358 72/73/359 56/60/360 
f 72/73/361 63/66/362 56/60/363 
f 84/81/364 73/77/365 59/57/366 
f 73/77/367 67/71/368 59/57/369 
f 74/69/370 52/55/371 73/77/372 
f 76/76/373 52/55/374 74/69/375 
f 75/75/376 69/64/377 63/66/378 
f 59/57/379 75/75/380 63/66/381 
f 76/76/382 65/67/383 58/58/384 
f 81/83/385 79/79/386 80/82/387 
f 77/74/388 58/58/389 55/52/390 
f 79/79/391 64/63/392 83/84/393 
f 64/63/394 73/77/395 78/78/396 
f 68/70/397 79/79/398 81/83/399 
f 68/70/400 85/85/401 79/79/402 
f 80/82/403 52/55/404 76/76/405 
f 81/83/406 80/82/407 76/76/408 
f 81/83/409 58/58/410 77/74/411 
f 76/76/412 58/58/413 81/83/414 
f 82/80/415 71/72/416 67/71/417 
f 82/80/418 67/71/419 73/77/420 
f 83/84/421 78/78/422 52/55/423 
f 83/84/424 64/63/425 78/78/426 
f 74/69/427 73/77/428 84/81/429 
f 65/67/430 74/69/431 84/81/432 
f 71/72/433 85/85/434 61/65/435 
f 61/65/436 85/85/437 68/70/438 
# 56 faces

