# 3ds Max Wavefront OBJ Exporter v0.97b - (c)2007 guruware
# File Created: 10.02.2024 08:45:27

mtllib SM_Barnacle_09.mtl

#
# object SM_Barnacle_09_LOD0
#

v  0.0925 0.0000 -4.1294
v  1.9026 0.0000 -3.4911
v  -1.4277 0.0000 -3.5560
v  -2.5832 0.0000 -2.5868
v  -1.9663 0.1185 -2.3895
v  -4.2794 0.0000 -0.8556
v  -4.3541 0.0000 0.5336
v  -2.8901 0.0000 2.4173
v  -1.2913 0.1171 2.7376
v  -1.8217 0.0000 3.6395
v  0.1335 0.0000 4.1294
v  1.0368 0.0000 3.6738
v  2.3142 0.0000 3.7685
v  3.5928 0.0000 2.6006
v  1.9260 0.1361 2.7310
v  2.7735 0.1170 1.9465
v  4.0795 0.0000 1.5266
v  4.3541 0.0000 -0.4597
v  3.7346 0.0000 -1.2359
v  3.1010 0.0888 -0.3457
v  3.0067 0.0000 -2.4558
v  2.4443 0.1185 -2.2534
v  1.5674 0.1385 -3.1659
v  0.0597 0.1467 -3.7468
v  0.1315 0.5997 -3.2852
v  -1.1015 0.1385 -3.2275
v  -0.9036 0.5788 -3.0385
v  -1.6554 0.5214 -2.3266
v  -3.2446 0.0977 -0.8507
v  -1.9717 0.4345 0.0799
v  -3.4139 0.0888 0.3371
v  -2.2529 0.0972 1.9025
v  -1.0276 0.5024 1.9053
v  -0.2895 0.1361 3.3203
v  -0.1742 0.5486 2.4156
v  0.8768 0.1438 3.1315
v  0.7630 0.5671 2.4869
v  1.6194 0.5484 2.1372
v  2.3045 0.5018 1.4365
v  3.2539 0.0971 0.8130
v  2.8247 0.0976 -1.3473
v  2.0961 0.5187 -2.1771
v  0.3502 1.6761 -2.2128
v  -0.4595 1.6486 -1.8167
v  -1.9153 0.4615 -0.9347
v  -0.5600 1.6075 -0.9866
v  -1.6661 0.4535 1.0714
v  0.3761 1.6248 0.1781
v  2.7012 0.4531 0.4951
v  1.2359 1.6009 -0.1421
v  2.7748 0.4343 -0.4759
v  1.4462 1.5886 -0.5139
v  1.5326 1.5895 -0.9262
v  2.4135 0.4613 -1.3513
v  1.2536 0.5742 -2.7757
v  0.7726 1.6639 -2.1700
v  1.1077 1.6371 -1.9701
v  1.3101 1.6076 -1.6407
v  0.9239 1.6161 0.1377
v  0.7410 1.9694 -0.8626
v  0.1629 1.6490 -0.1023
v  -0.1723 1.6136 -0.2543
v  -0.4473 1.6053 -0.5766
v  -0.4117 1.6238 -1.3459
v  -0.0891 1.6696 -2.0929
v  0.3666 1.1645 -2.6143
v  -0.4428 1.1872 -2.7717
v  -1.0843 1.1275 -2.2418
v  -1.3261 1.0769 -1.1280
v  -1.3839 1.0390 -0.3939
v  -1.1675 1.0406 0.3129
v  -0.7159 1.0711 0.8992
v  -0.1125 1.1086 1.2606
v  0.5552 1.1352 1.3310
v  0.9884 1.1239 1.1567
v  1.5279 1.0877 0.7330
v  1.8991 1.0513 0.1090
v  2.0659 1.0429 -0.5926
v  2.0404 1.0621 -1.2790
v  1.7082 1.1090 -2.0975
v  1.1135 1.1760 -2.5092
# 81 vertices

vn -0.0218 0.8682 -0.4957
vn 0.1629 0.9557 -0.2451
vn 0.0015 0.9338 -0.3578
vn -0.1627 0.9542 -0.2509
vn -0.0218 0.8682 -0.4957
vn 0.0015 0.9338 -0.3578
vn -0.3035 0.8241 -0.4783
vn -0.0218 0.8682 -0.4957
vn -0.1627 0.9542 -0.2509
vn -0.1464 0.9813 -0.1246
vn -0.3035 0.8241 -0.4783
vn -0.1627 0.9542 -0.2509
vn -0.3940 0.8881 -0.2369
vn -0.3035 0.8241 -0.4783
vn -0.1464 0.9813 -0.1246
vn -0.1644 0.9841 -0.0674
vn -0.3940 0.8881 -0.2369
vn -0.1464 0.9813 -0.1246
vn -0.0941 0.9950 -0.0340
vn -0.1644 0.9841 -0.0674
vn -0.1464 0.9813 -0.1246
vn -0.1483 0.9884 0.0336
vn -0.1644 0.9841 -0.0674
vn -0.0941 0.9950 -0.0340
vn -0.0907 0.9956 0.0252
vn -0.1483 0.9884 0.0336
vn -0.0941 0.9950 -0.0340
vn -0.1868 0.9714 0.1468
vn -0.1483 0.9884 0.0336
vn -0.0907 0.9956 0.0252
vn -0.0907 0.9931 0.0749
vn -0.1868 0.9714 0.1468
vn -0.0907 0.9956 0.0252
vn -0.1701 0.9631 0.2085
vn -0.1868 0.9714 0.1468
vn -0.0907 0.9931 0.0749
vn -0.0750 0.9921 0.1011
vn -0.1701 0.9631 0.2085
vn -0.0907 0.9931 0.0749
vn -0.0552 0.9607 0.2720
vn -0.1701 0.9631 0.2085
vn -0.0750 0.9921 0.1011
vn 0.0266 0.9880 0.1523
vn -0.0552 0.9607 0.2720
vn -0.0750 0.9921 0.1011
vn 0.0125 0.9726 0.2320
vn -0.0552 0.9607 0.2720
vn 0.0266 0.9880 0.1523
vn 0.0792 0.9257 0.3698
vn -0.0552 0.9607 0.2720
vn 0.0125 0.9726 0.2320
vn 0.0592 0.9901 0.1272
vn 0.0792 0.9257 0.3698
vn 0.0125 0.9726 0.2320
vn 0.1729 0.9504 0.2587
vn 0.0792 0.9257 0.3698
vn 0.0592 0.9901 0.1272
vn 0.0956 0.9933 0.0654
vn 0.1729 0.9504 0.2587
vn 0.0592 0.9901 0.1272
vn 0.2455 0.9569 0.1548
vn 0.1729 0.9504 0.2587
vn 0.0956 0.9933 0.0654
vn 0.1017 0.9944 0.0273
vn 0.2455 0.9569 0.1548
vn 0.0956 0.9933 0.0654
vn 0.2792 0.9595 0.0385
vn 0.2455 0.9569 0.1548
vn 0.1017 0.9944 0.0273
vn 0.0765 0.9968 -0.0241
vn 0.2792 0.9595 0.0385
vn 0.1017 0.9944 0.0273
vn 0.4044 0.9130 -0.0535
vn 0.2792 0.9595 0.0385
vn 0.0765 0.9968 -0.0241
vn 0.0937 0.9945 -0.0468
vn 0.4044 0.9130 -0.0535
vn 0.0765 0.9968 -0.0241
vn 0.4044 0.9023 -0.1493
vn 0.4044 0.9130 -0.0535
vn 0.0937 0.9945 -0.0468
vn 0.1623 0.9820 -0.0964
vn 0.4044 0.9023 -0.1493
vn 0.0937 0.9945 -0.0468
vn 0.4095 0.8823 -0.2322
vn 0.4044 0.9023 -0.1493
vn 0.1623 0.9820 -0.0964
vn 0.2575 0.8785 -0.4023
vn 0.4095 0.8823 -0.2322
vn 0.1623 0.9820 -0.0964
vn 0.1629 0.9557 -0.2451
vn 0.2575 0.8785 -0.4023
vn 0.1623 0.9820 -0.0964
vn -0.0218 0.8682 -0.4957
vn 0.2575 0.8785 -0.4023
vn 0.1629 0.9557 -0.2451
vn 0.0477 0.6681 -0.7426
vn 0.2575 0.8785 -0.4023
vn -0.0218 0.8682 -0.4957
vn -0.3035 0.8241 -0.4783
vn 0.0477 0.6681 -0.7426
vn -0.0218 0.8682 -0.4957
vn -0.3883 0.5765 -0.7189
vn 0.0477 0.6681 -0.7426
vn -0.3035 0.8241 -0.4783
vn -0.6878 0.6322 -0.3568
vn -0.3883 0.5765 -0.7189
vn -0.3035 0.8241 -0.4783
vn -0.3940 0.8881 -0.2369
vn -0.6878 0.6322 -0.3568
vn -0.3035 0.8241 -0.4783
vn -0.5355 0.8401 -0.0864
vn -0.6878 0.6322 -0.3568
vn -0.3940 0.8881 -0.2369
vn -0.1644 0.9841 -0.0674
vn -0.5355 0.8401 -0.0864
vn -0.3940 0.8881 -0.2369
vn -0.4430 0.8943 0.0640
vn -0.5355 0.8401 -0.0864
vn -0.1644 0.9841 -0.0674
vn -0.1483 0.9884 0.0336
vn -0.4430 0.8943 0.0640
vn -0.1644 0.9841 -0.0674
vn -0.3965 0.8935 0.2110
vn -0.4430 0.8943 0.0640
vn -0.1483 0.9884 0.0336
vn -0.1868 0.9714 0.1468
vn -0.3965 0.8935 0.2110
vn -0.1483 0.9884 0.0336
vn -0.3194 0.8887 0.3289
vn -0.3965 0.8935 0.2110
vn -0.1868 0.9714 0.1468
vn -0.1701 0.9631 0.2085
vn -0.3194 0.8887 0.3289
vn -0.1868 0.9714 0.1468
vn -0.1579 0.9012 0.4037
vn -0.3194 0.8887 0.3289
vn -0.1701 0.9631 0.2085
vn -0.0552 0.9607 0.2720
vn -0.1579 0.9012 0.4037
vn -0.1701 0.9631 0.2085
vn 0.0923 0.8806 0.4648
vn -0.1579 0.9012 0.4037
vn -0.0552 0.9607 0.2720
vn 0.0792 0.9257 0.3698
vn 0.0923 0.8806 0.4648
vn -0.0552 0.9607 0.2720
vn 0.1729 0.9504 0.2587
vn 0.0923 0.8806 0.4648
vn 0.0792 0.9257 0.3698
vn 0.2872 0.8730 0.3942
vn 0.0923 0.8806 0.4648
vn 0.1729 0.9504 0.2587
vn 0.2455 0.9569 0.1548
vn 0.2872 0.8730 0.3942
vn 0.1729 0.9504 0.2587
vn 0.4295 0.8679 0.2496
vn 0.2872 0.8730 0.3942
vn 0.2455 0.9569 0.1548
vn 0.2792 0.9595 0.0385
vn 0.4295 0.8679 0.2496
vn 0.2455 0.9569 0.1548
vn 0.5533 0.8285 0.0862
vn 0.4295 0.8679 0.2496
vn 0.2792 0.9595 0.0385
vn 0.4044 0.9130 -0.0535
vn 0.5533 0.8285 0.0862
vn 0.2792 0.9595 0.0385
vn 0.7020 0.7082 -0.0745
vn 0.5533 0.8285 0.0862
vn 0.4044 0.9130 -0.0535
vn 0.4044 0.9023 -0.1493
vn 0.7020 0.7082 -0.0745
vn 0.4044 0.9130 -0.0535
vn 0.7129 0.6619 -0.2315
vn 0.7020 0.7082 -0.0745
vn 0.4044 0.9023 -0.1493
vn 0.4095 0.8823 -0.2322
vn 0.7129 0.6619 -0.2315
vn 0.4044 0.9023 -0.1493
vn 0.6630 0.6046 -0.4414
vn 0.7129 0.6619 -0.2315
vn 0.4095 0.8823 -0.2322
vn 0.2575 0.8785 -0.4023
vn 0.6630 0.6046 -0.4414
vn 0.4095 0.8823 -0.2322
vn 0.3789 0.6499 -0.6589
vn 0.6630 0.6046 -0.4414
vn 0.2575 0.8785 -0.4023
vn 0.0477 0.6681 -0.7426
vn 0.3789 0.6499 -0.6589
vn 0.2575 0.8785 -0.4023
vn 0.0283 0.8553 -0.5173
vn 0.1933 0.8333 -0.5179
vn 0.3604 0.5979 -0.7160
vn 0.3604 0.5979 -0.7160
vn 0.1049 0.6482 -0.7542
vn 0.0283 0.8553 -0.5173
vn -0.3883 0.5765 -0.7189
vn -0.2293 0.7264 -0.6479
vn 0.1049 0.6482 -0.7542
vn 0.1049 0.6482 -0.7542
vn 0.0477 0.6681 -0.7426
vn -0.3883 0.5765 -0.7189
vn 0.0283 0.8553 -0.5173
vn 0.1049 0.6482 -0.7542
vn -0.2293 0.7264 -0.6479
vn -0.2293 0.7264 -0.6479
vn -0.1553 0.9071 -0.3913
vn 0.0283 0.8553 -0.5173
vn -0.3883 0.5765 -0.7189
vn -0.6878 0.6322 -0.3568
vn -0.5817 0.7479 -0.3199
vn -0.5817 0.7479 -0.3199
vn -0.2293 0.7264 -0.6479
vn -0.3883 0.5765 -0.7189
vn -0.5355 0.8401 -0.0864
vn -0.6509 0.7563 -0.0660
vn -0.5817 0.7479 -0.3199
vn -0.5817 0.7479 -0.3199
vn -0.6878 0.6322 -0.3568
vn -0.5355 0.8401 -0.0864
vn -0.6509 0.7563 -0.0660
vn -0.6180 0.7836 0.0639
vn -0.4348 0.9005 0.0069
vn -0.4348 0.9005 0.0069
vn -0.4156 0.9095 -0.0083
vn -0.6509 0.7563 -0.0660
vn -0.4430 0.8943 0.0640
vn -0.6180 0.7836 0.0639
vn -0.6509 0.7563 -0.0660
vn -0.6509 0.7563 -0.0660
vn -0.5355 0.8401 -0.0864
vn -0.4430 0.8943 0.0640
vn -0.6180 0.7836 0.0639
vn -0.5032 0.8336 0.2278
vn -0.3672 0.9159 0.1624
vn -0.3672 0.9159 0.1624
vn -0.4348 0.9005 0.0069
vn -0.6180 0.7836 0.0639
vn -0.3965 0.8935 0.2110
vn -0.5032 0.8336 0.2278
vn -0.6180 0.7836 0.0639
vn -0.6180 0.7836 0.0639
vn -0.4430 0.8943 0.0640
vn -0.3965 0.8935 0.2110
vn -0.5032 0.8336 0.2278
vn -0.3563 0.8752 0.3271
vn -0.2786 0.9270 0.2509
vn -0.2786 0.9270 0.2509
vn -0.3672 0.9159 0.1624
vn -0.5032 0.8336 0.2278
vn -0.3194 0.8887 0.3289
vn -0.3563 0.8752 0.3271
vn -0.5032 0.8336 0.2278
vn -0.5032 0.8336 0.2278
vn -0.3965 0.8935 0.2110
vn -0.3194 0.8887 0.3289
vn -0.1579 0.9012 0.4037
vn -0.1934 0.9008 0.3887
vn -0.3563 0.8752 0.3271
vn -0.3563 0.8752 0.3271
vn -0.3194 0.8887 0.3289
vn -0.1579 0.9012 0.4037
vn -0.1934 0.9008 0.3887
vn 0.0386 0.9143 0.4032
vn -0.0395 0.9346 0.3534
vn -0.0395 0.9346 0.3534
vn -0.2108 0.9366 0.2798
vn -0.1934 0.9008 0.3887
vn 0.0923 0.8806 0.4648
vn 0.0386 0.9143 0.4032
vn -0.1934 0.9008 0.3887
vn -0.1934 0.9008 0.3887
vn -0.1579 0.9012 0.4037
vn 0.0923 0.8806 0.4648
vn 0.2872 0.8730 0.3942
vn 0.2322 0.8970 0.3762
vn 0.0386 0.9143 0.4032
vn 0.0386 0.9143 0.4032
vn 0.0923 0.8806 0.4648
vn 0.2872 0.8730 0.3942
vn 0.2872 0.8730 0.3942
vn 0.4295 0.8679 0.2496
vn 0.3920 0.8664 0.3095
vn 0.3920 0.8664 0.3095
vn 0.2322 0.8970 0.3762
vn 0.2872 0.8730 0.3942
vn 0.3920 0.8664 0.3095
vn 0.5564 0.8082 0.1928
vn 0.4496 0.8551 0.2582
vn 0.4496 0.8551 0.2582
vn 0.2538 0.9014 0.3507
vn 0.3920 0.8664 0.3095
vn 0.5533 0.8285 0.0862
vn 0.5564 0.8082 0.1928
vn 0.3920 0.8664 0.3095
vn 0.3920 0.8664 0.3095
vn 0.4295 0.8679 0.2496
vn 0.5533 0.8285 0.0862
vn 0.5564 0.8082 0.1928
vn 0.6775 0.7349 0.0296
vn 0.5490 0.8229 0.1465
vn 0.5490 0.8229 0.1465
vn 0.4496 0.8551 0.2582
vn 0.5564 0.8082 0.1928
vn 0.7020 0.7082 -0.0745
vn 0.6775 0.7349 0.0296
vn 0.5564 0.8082 0.1928
vn 0.5564 0.8082 0.1928
vn 0.5533 0.8285 0.0862
vn 0.7020 0.7082 -0.0745
vn 0.6775 0.7349 0.0296
vn 0.7272 0.6648 -0.1709
vn 0.5809 0.8136 -0.0264
vn 0.5809 0.8136 -0.0264
vn 0.5490 0.8229 0.1465
vn 0.6775 0.7349 0.0296
vn 0.7129 0.6619 -0.2315
vn 0.7272 0.6648 -0.1709
vn 0.6775 0.7349 0.0296
vn 0.6775 0.7349 0.0296
vn 0.7020 0.7082 -0.0745
vn 0.7129 0.6619 -0.2315
vn 0.5307 0.8265 -0.1879
vn 0.5809 0.8136 -0.0264
vn 0.7272 0.6648 -0.1709
vn 0.6630 0.6046 -0.4414
vn 0.6341 0.6078 -0.4781
vn 0.7272 0.6648 -0.1709
vn 0.7272 0.6648 -0.1709
vn 0.7129 0.6619 -0.2315
vn 0.6630 0.6046 -0.4414
vn 0.5307 0.8265 -0.1879
vn 0.7272 0.6648 -0.1709
vn 0.6341 0.6078 -0.4781
vn 0.6341 0.6078 -0.4781
vn 0.4217 0.8343 -0.3553
vn 0.5307 0.8265 -0.1879
vn 0.3789 0.6499 -0.6589
vn 0.3604 0.5979 -0.7160
vn 0.6341 0.6078 -0.4781
vn 0.6341 0.6078 -0.4781
vn 0.6630 0.6046 -0.4414
vn 0.3789 0.6499 -0.6589
vn 0.4217 0.8343 -0.3553
vn 0.6341 0.6078 -0.4781
vn 0.3604 0.5979 -0.7160
vn 0.3604 0.5979 -0.7160
vn 0.1933 0.8333 -0.5179
vn 0.4217 0.8343 -0.3553
vn 0.0934 0.9944 0.0501
vn 0.1933 0.8333 -0.5179
vn 0.0283 0.8553 -0.5173
vn 0.0934 0.9944 0.0501
vn 0.4217 0.8343 -0.3553
vn 0.1933 0.8333 -0.5179
vn 0.0934 0.9944 0.0501
vn 0.5307 0.8265 -0.1879
vn 0.4217 0.8343 -0.3553
vn 0.0934 0.9944 0.0501
vn 0.5809 0.8136 -0.0264
vn 0.5307 0.8265 -0.1879
vn 0.0934 0.9944 0.0501
vn 0.5490 0.8229 0.1465
vn 0.5809 0.8136 -0.0264
vn 0.0934 0.9944 0.0501
vn 0.4496 0.8551 0.2582
vn 0.5490 0.8229 0.1465
vn 0.0934 0.9944 0.0501
vn 0.2538 0.9014 0.3507
vn 0.4496 0.8551 0.2582
vn 0.0934 0.9944 0.0501
vn -0.0395 0.9346 0.3534
vn 0.2538 0.9014 0.3507
vn 0.0934 0.9944 0.0501
vn -0.2108 0.9366 0.2798
vn -0.0395 0.9346 0.3534
vn 0.0934 0.9944 0.0501
vn -0.2786 0.9270 0.2509
vn -0.2108 0.9366 0.2798
vn 0.0934 0.9944 0.0501
vn -0.3672 0.9159 0.1624
vn -0.2786 0.9270 0.2509
vn 0.0934 0.9944 0.0501
vn -0.4348 0.9005 0.0069
vn -0.3672 0.9159 0.1624
vn 0.0934 0.9944 0.0501
vn -0.4156 0.9095 -0.0083
vn -0.4348 0.9005 0.0069
vn 0.0934 0.9944 0.0501
vn -0.4027 0.9018 -0.1570
vn -0.4156 0.9095 -0.0083
vn 0.0934 0.9944 0.0501
vn -0.1553 0.9071 -0.3913
vn -0.4027 0.9018 -0.1570
vn 0.0283 0.8553 -0.5173
vn -0.1553 0.9071 -0.3913
vn 0.0934 0.9944 0.0501
vn 0.0477 0.6681 -0.7426
vn 0.1049 0.6482 -0.7542
vn 0.3604 0.5979 -0.7160
vn 0.3604 0.5979 -0.7160
vn 0.3789 0.6499 -0.6589
vn 0.0477 0.6681 -0.7426
vn -0.4027 0.9018 -0.1570
vn -0.1553 0.9071 -0.3913
vn -0.2293 0.7264 -0.6479
vn -0.2293 0.7264 -0.6479
vn -0.5817 0.7479 -0.3199
vn -0.4027 0.9018 -0.1570
vn -0.4156 0.9095 -0.0083
vn -0.4027 0.9018 -0.1570
vn -0.5817 0.7479 -0.3199
vn -0.5817 0.7479 -0.3199
vn -0.6509 0.7563 -0.0660
vn -0.4156 0.9095 -0.0083
vn -0.2108 0.9366 0.2798
vn -0.2786 0.9270 0.2509
vn -0.3563 0.8752 0.3271
vn -0.3563 0.8752 0.3271
vn -0.1934 0.9008 0.3887
vn -0.2108 0.9366 0.2798
vn 0.2322 0.8970 0.3762
vn -0.0395 0.9346 0.3534
vn 0.0386 0.9143 0.4032
vn 0.2538 0.9014 0.3507
vn -0.0395 0.9346 0.3534
vn 0.2322 0.8970 0.3762
vn 0.2322 0.8970 0.3762
vn 0.3920 0.8664 0.3095
vn 0.2538 0.9014 0.3507
# 432 vertex normals

vt 0.2234 0.5618 0.0000
vt 0.2426 0.5565 0.0000
vt 0.2232 0.5581 0.0000
vt 0.2077 0.5557 0.0000
vt 0.2110 0.5528 0.0000
vt 0.1963 0.5448 0.0000
vt 0.2022 0.5435 0.0000
vt 0.1913 0.5277 0.0000
vt 0.1820 0.5270 0.0000
vt 0.1905 0.5165 0.0000
vt 0.1821 0.5143 0.0000
vt 0.2018 0.5023 0.0000
vt 0.1963 0.4974 0.0000
vt 0.2112 0.4949 0.0000
vt 0.2068 0.4866 0.0000
vt 0.2209 0.4899 0.0000
vt 0.2250 0.4826 0.0000
vt 0.2335 0.4866 0.0000
vt 0.2320 0.4916 0.0000
vt 0.2454 0.4860 0.0000
vt 0.2420 0.4954 0.0000
vt 0.2574 0.4966 0.0000
vt 0.2502 0.5027 0.0000
vt 0.2623 0.5062 0.0000
vt 0.2554 0.5133 0.0000
vt 0.2663 0.5246 0.0000
vt 0.2551 0.5245 0.0000
vt 0.2613 0.5326 0.0000
vt 0.2530 0.5346 0.0000
vt 0.2544 0.5456 0.0000
vt 0.2491 0.5440 0.0000
vt 0.2395 0.5534 0.0000
vt 0.2242 0.5525 0.0000
vt 0.2141 0.5495 0.0000
vt 0.2065 0.5423 0.0000
vt 0.2034 0.5292 0.0000
vt 0.2034 0.5195 0.0000
vt 0.2070 0.5104 0.0000
vt 0.2136 0.5030 0.0000
vt 0.2219 0.4987 0.0000
vt 0.2307 0.4984 0.0000
vt 0.2387 0.5015 0.0000
vt 0.2455 0.5078 0.0000
vt 0.2498 0.5165 0.0000
vt 0.2510 0.5258 0.0000
vt 0.2483 0.5345 0.0000
vt 0.2445 0.5425 0.0000
vt 0.2360 0.5487 0.0000
vt 0.2281 0.5397 0.0000
vt 0.2245 0.5385 0.0000
vt 0.2214 0.5363 0.0000
vt 0.2214 0.5323 0.0000
vt 0.2203 0.5293 0.0000
vt 0.2213 0.5259 0.0000
vt 0.2237 0.5232 0.0000
vt 0.2266 0.5223 0.0000
vt 0.2287 0.5198 0.0000
vt 0.2334 0.5204 0.0000
vt 0.2360 0.5229 0.0000
vt 0.2376 0.5260 0.0000
vt 0.2381 0.5295 0.0000
vt 0.2361 0.5352 0.0000
vt 0.2343 0.5377 0.0000
vt 0.2315 0.5392 0.0000
vt 0.2311 0.5286 0.0000
vt 0.2264 0.5450 0.0000
vt 0.2191 0.5447 0.0000
vt 0.2133 0.5405 0.0000
vt 0.2107 0.5306 0.0000
vt 0.2103 0.5241 0.0000
vt 0.2125 0.5178 0.0000
vt 0.2169 0.5127 0.0000
vt 0.2225 0.5098 0.0000
vt 0.2286 0.5094 0.0000
vt 0.2326 0.5109 0.0000
vt 0.2377 0.5146 0.0000
vt 0.2415 0.5202 0.0000
vt 0.2431 0.5267 0.0000
vt 0.2425 0.5331 0.0000
vt 0.2389 0.5403 0.0000
vt 0.2333 0.5438 0.0000
# 81 texture coords

o SM_Barnacle_09_LOD0
g SM_Barnacle_09_LOD0
usemtl MAT_Sea_Shells
s 1
f 24/3/1 2/2/2 1/1/3 
f 3/4/4 24/3/5 1/1/6 
f 26/5/7 24/3/8 3/4/9 
f 4/6/10 26/5/11 3/4/12 
f 5/7/13 26/5/14 4/6/15 
f 29/8/16 5/7/17 4/6/18 
f 6/9/19 29/8/20 4/6/21 
f 31/10/22 29/8/23 6/9/24 
f 7/11/25 31/10/26 6/9/27 
f 32/12/28 31/10/29 7/11/30 
f 8/13/31 32/12/32 7/11/33 
f 9/14/34 32/12/35 8/13/36 
f 10/15/37 9/14/38 8/13/39 
f 34/16/40 9/14/41 10/15/42 
f 11/17/43 34/16/44 10/15/45 
f 12/18/46 34/16/47 11/17/48 
f 36/19/49 34/16/50 12/18/51 
f 13/20/52 36/19/53 12/18/54 
f 15/21/55 36/19/56 13/20/57 
f 14/22/58 15/21/59 13/20/60 
f 16/23/61 15/21/62 14/22/63 
f 17/24/64 16/23/65 14/22/66 
f 40/25/67 16/23/68 17/24/69 
f 18/26/70 40/25/71 17/24/72 
f 20/27/73 40/25/74 18/26/75 
f 19/28/76 20/27/77 18/26/78 
f 41/29/79 20/27/80 19/28/81 
f 21/30/82 41/29/83 19/28/84 
f 22/31/85 41/29/86 21/30/87 
f 23/32/88 22/31/89 21/30/90 
f 2/2/91 23/32/92 21/30/93 
f 24/3/94 23/32/95 2/2/96 
f 25/33/97 23/32/98 24/3/99 
f 26/5/100 25/33/101 24/3/102 
f 27/34/103 25/33/104 26/5/105 
f 28/35/106 27/34/107 26/5/108 
f 5/7/109 28/35/110 26/5/111 
f 45/36/112 28/35/113 5/7/114 
f 29/8/115 45/36/116 5/7/117 
f 30/37/118 45/36/119 29/8/120 
f 31/10/121 30/37/122 29/8/123 
f 47/38/124 30/37/125 31/10/126 
f 32/12/127 47/38/128 31/10/129 
f 33/39/130 47/38/131 32/12/132 
f 9/14/133 33/39/134 32/12/135 
f 35/40/136 33/39/137 9/14/138 
f 34/16/139 35/40/140 9/14/141 
f 37/41/142 35/40/143 34/16/144 
f 36/19/145 37/41/146 34/16/147 
f 15/21/148 37/41/149 36/19/150 
f 38/42/151 37/41/152 15/21/153 
f 16/23/154 38/42/155 15/21/156 
f 39/43/157 38/42/158 16/23/159 
f 40/25/160 39/43/161 16/23/162 
f 49/44/163 39/43/164 40/25/165 
f 20/27/166 49/44/167 40/25/168 
f 51/45/169 49/44/170 20/27/171 
f 41/29/172 51/45/173 20/27/174 
f 54/46/175 51/45/176 41/29/177 
f 22/31/178 54/46/179 41/29/180 
f 42/47/181 54/46/182 22/31/183 
f 23/32/184 42/47/185 22/31/186 
f 55/48/187 42/47/188 23/32/189 
f 25/33/190 55/48/191 23/32/192 
f 43/49/193 56/64/194 81/81/195 
f 81/81/196 66/66/197 43/49/198 
f 27/34/199 67/67/200 66/66/201 
f 66/66/202 25/33/203 27/34/204 
f 43/49/205 66/66/206 67/67/207 
f 67/67/208 65/50/209 43/49/210 
f 27/34/211 28/35/212 68/68/213 
f 68/68/214 67/67/215 27/34/216 
f 45/36/217 69/69/218 68/68/219 
f 68/68/220 28/35/221 45/36/222 
f 69/69/223 70/70/224 46/53/225 
f 46/53/226 64/52/227 69/69/228 
f 30/37/229 70/70/230 69/69/231 
f 69/69/232 45/36/233 30/37/234 
f 70/70/235 71/71/236 63/54/237 
f 63/54/238 46/53/239 70/70/240 
f 47/38/241 71/71/242 70/70/243 
f 70/70/244 30/37/245 47/38/246 
f 71/71/247 72/72/248 62/55/249 
f 62/55/250 63/54/251 71/71/252 
f 33/39/253 72/72/254 71/71/255 
f 71/71/256 47/38/257 33/39/258 
f 35/40/259 73/73/260 72/72/261 
f 72/72/262 33/39/263 35/40/264 
f 73/73/265 74/74/266 48/57/267 
f 48/57/268 61/56/269 73/73/270 
f 37/41/271 74/74/272 73/73/273 
f 73/73/274 35/40/275 37/41/276 
f 38/42/277 75/75/278 74/74/279 
f 74/74/280 37/41/281 38/42/282 
f 38/42/283 39/43/284 76/76/285 
f 76/76/286 75/75/287 38/42/288 
f 76/76/289 77/77/290 50/59/291 
f 50/59/292 59/58/293 76/76/294 
f 49/44/295 77/77/296 76/76/297 
f 76/76/298 39/43/299 49/44/300 
f 77/77/301 78/78/302 52/60/303 
f 52/60/304 50/59/305 77/77/306 
f 51/45/307 78/78/308 77/77/309 
f 77/77/310 49/44/311 51/45/312 
f 78/78/313 79/79/314 53/61/315 
f 53/61/316 52/60/317 78/78/318 
f 54/46/319 79/79/320 78/78/321 
f 78/78/322 51/45/323 54/46/324 
f 58/62/325 53/61/326 79/79/327 
f 42/47/328 80/80/329 79/79/330 
f 79/79/331 54/46/332 42/47/333 
f 58/62/334 79/79/335 80/80/336 
f 80/80/337 57/63/338 58/62/339 
f 55/48/340 81/81/341 80/80/342 
f 80/80/343 42/47/344 55/48/345 
f 57/63/346 80/80/347 81/81/348 
f 81/81/349 56/64/350 57/63/351 
f 60/65/352 56/64/353 43/49/354 
f 60/65/355 57/63/356 56/64/357 
f 60/65/358 58/62/359 57/63/360 
f 60/65/361 53/61/362 58/62/363 
f 60/65/364 52/60/365 53/61/366 
f 60/65/367 50/59/368 52/60/369 
f 60/65/370 59/58/371 50/59/372 
f 60/65/373 48/57/374 59/58/375 
f 60/65/376 61/56/377 48/57/378 
f 60/65/379 62/55/380 61/56/381 
f 60/65/382 63/54/383 62/55/384 
f 60/65/385 46/53/386 63/54/387 
f 60/65/388 64/52/389 46/53/390 
f 60/65/391 44/51/392 64/52/393 
f 60/65/394 65/50/395 44/51/396 
f 43/49/397 65/50/398 60/65/399 
f 25/33/400 66/66/401 81/81/402 
f 81/81/403 55/48/404 25/33/405 
f 44/51/406 65/50/407 67/67/408 
f 67/67/409 68/68/410 44/51/411 
f 64/52/412 44/51/413 68/68/414 
f 68/68/415 69/69/416 64/52/417 
f 61/56/418 62/55/419 72/72/420 
f 72/72/421 73/73/422 61/56/423 
f 75/75/424 48/57/425 74/74/426 
f 59/58/427 48/57/428 75/75/429 
f 75/75/430 76/76/431 59/58/432 
# 144 faces

#
# object SM_Barnacle_09_LOD1
#

v  -1.8325 0.0000 3.6272
v  0.7410 1.9694 -0.8626
v  -1.5392 0.0000 -3.4625
v  4.3305 0.0000 -0.4893
v  -0.4595 1.6486 -1.8167
v  -4.2794 0.0000 -0.8556
v  3.5928 0.0000 2.6006
v  -1.9357 0.4518 -0.5676
v  3.2321 0.1112 0.8004
v  0.5661 1.6699 -2.1909
v  1.9026 0.0000 -3.4911
v  0.1335 0.0000 4.1294
v  2.4416 0.1482 -2.1751
v  -1.4202 0.4723 1.3926
v  2.3142 0.0000 3.7685
v  0.0925 0.0000 -4.1294
v  1.5326 1.5895 -0.9262
v  -0.4428 1.1872 -2.7717
v  0.1315 0.5997 -3.2852
v  1.9260 0.1361 2.7310
v  -1.1015 0.1385 -3.2275
v  -4.3541 0.0000 0.5336
v  -0.2345 0.1365 3.3114
v  1.1389 1.5971 -0.0356
v  1.0373 1.1748 -2.5199
v  1.9206 0.7858 -2.1411
v  -1.0843 1.1275 -2.2418
v  1.5674 0.1385 -3.1659
v  -1.9663 0.1185 -2.3895
v  -1.3636 1.0523 -0.6519
v  -0.9252 1.0570 0.6274
v  0.2811 1.5245 0.3885
v  1.0368 0.0000 3.6738
v  -2.2529 0.0972 1.9025
v  -3.2446 0.0977 -0.8507
v  3.0067 0.0000 -2.4558
v  0.7630 0.5671 2.4869
v  1.1077 1.6371 -1.9701
v  3.1010 0.0888 -0.3457
v  2.0659 1.0429 -0.5926
v  -0.5106 1.6129 -1.1064
v  1.2536 0.5742 -2.7757
v  4.0795 0.0000 1.5266
v  2.7735 0.1170 1.9465
v  0.0597 0.1467 -3.7468
v  2.0404 1.0621 -1.2790
v  -0.9036 0.5788 -3.0385
v  -3.4139 0.0888 0.3371
# 48 vertices

vn 0.3421 0.8925 0.2941
vn 0.2413 0.9568 0.1623
vn 0.3044 0.9516 0.0423
vn -0.0574 0.9637 0.2607
vn -0.3581 0.8939 0.2697
vn -0.1709 0.9729 0.1555
vn 0.0011 0.7527 -0.6583
vn 0.2566 0.8721 -0.4166
vn -0.0256 0.8671 -0.4975
vn -0.6009 0.7341 -0.3161
vn -0.4343 0.8625 -0.2599
vn -0.4867 0.8734 -0.0144
vn 0.0853 0.9940 0.0687
vn 0.5727 0.8195 0.0176
vn 0.4137 0.8232 -0.3887
vn -0.1588 0.9844 -0.0760
vn -0.4867 0.8734 -0.0144
vn -0.4343 0.8625 -0.2599
vn 0.1564 0.9565 0.2464
vn 0.3421 0.8925 0.2941
vn 0.1152 0.8702 0.4790
vn -0.0574 0.9637 0.2607
vn -0.1148 0.9355 0.3343
vn -0.4326 0.8591 0.2737
vn -0.1148 0.9355 0.3343
vn -0.4252 0.9020 0.0742
vn -0.4326 0.8591 0.2737
vn 0.4137 0.8232 -0.3887
vn 0.7812 0.6094 -0.1354
vn 0.6260 0.6256 -0.4655
vn 0.0950 0.9953 -0.0163
vn 0.3044 0.9516 0.0423
vn 0.1076 0.9937 0.0316
vn -0.3788 0.5775 -0.7232
vn -0.1504 0.6442 -0.7499
vn 0.3517 0.6036 -0.7155
vn 0.0853 0.9940 0.0687
vn 0.0739 0.8645 -0.4971
vn -0.3777 0.9071 -0.1860
vn 0.4418 0.8613 -0.2510
vn 0.3542 0.9336 -0.0545
vn 0.0950 0.9953 -0.0163
vn -0.0574 0.9637 0.2607
vn -0.1709 0.9729 0.1555
vn -0.0713 0.9930 0.0946
vn 0.0011 0.7527 -0.6583
vn 0.3701 0.6408 -0.6726
vn 0.2566 0.8721 -0.4166
vn 0.1862 0.9713 -0.1478
vn 0.4418 0.8613 -0.2510
vn 0.0950 0.9953 -0.0163
vn -0.3581 0.8939 0.2697
vn -0.4867 0.8734 -0.0144
vn -0.1479 0.9884 0.0352
vn -0.6307 0.7738 0.0579
vn -0.4326 0.8591 0.2737
vn -0.4252 0.9020 0.0742
vn 0.3044 0.9516 0.0423
vn 0.2413 0.9568 0.1623
vn 0.1076 0.9937 0.0316
vn -0.3091 0.8159 -0.4887
vn 0.0011 0.7527 -0.6583
vn -0.0256 0.8671 -0.4975
vn 0.6926 0.7138 0.1042
vn 0.3542 0.9336 -0.0545
vn 0.4418 0.8613 -0.2510
vn 0.3542 0.9336 -0.0545
vn 0.6926 0.7138 0.1042
vn 0.3421 0.8925 0.2941
vn -0.3777 0.9071 -0.1860
vn 0.0739 0.8645 -0.4971
vn -0.1504 0.6442 -0.7499
vn -0.6009 0.7341 -0.3161
vn -0.6307 0.7738 0.0579
vn -0.4252 0.9020 0.0742
vn 0.0739 0.8645 -0.4971
vn 0.3517 0.6036 -0.7155
vn -0.1504 0.6442 -0.7499
vn 0.4137 0.8232 -0.3887
vn 0.6260 0.6256 -0.4655
vn 0.3517 0.6036 -0.7155
vn 0.1564 0.9565 0.2464
vn -0.0574 0.9637 0.2607
vn 0.0577 0.9905 0.1245
vn 0.0956 0.9933 0.0654
vn 0.1564 0.9565 0.2464
vn 0.0577 0.9905 0.1245
vn -0.3788 0.5775 -0.7232
vn -0.4343 0.8625 -0.2599
vn -0.6009 0.7341 -0.3161
vn -0.3091 0.8159 -0.4887
vn -0.0256 0.8671 -0.4975
vn -0.1798 0.9579 -0.2238
vn -0.1709 0.9729 0.1555
vn -0.3581 0.8939 0.2697
vn -0.1479 0.9884 0.0352
vn 0.0250 0.9878 0.1536
vn -0.0574 0.9637 0.2607
vn -0.0713 0.9930 0.0946
vn 0.0577 0.9905 0.1245
vn -0.0574 0.9637 0.2607
vn -0.0129 0.9199 0.3919
vn 0.0853 0.9940 0.0687
vn 0.3421 0.8925 0.2941
vn 0.5727 0.8195 0.0176
vn 0.3421 0.8925 0.2941
vn -0.1148 0.9355 0.3343
vn 0.1152 0.8702 0.4790
vn 0.3517 0.6036 -0.7155
vn 0.3701 0.6408 -0.6726
vn 0.0011 0.7527 -0.6583
vn 0.3517 0.6036 -0.7155
vn 0.0011 0.7527 -0.6583
vn -0.3788 0.5775 -0.7232
vn 0.7812 0.6094 -0.1354
vn 0.4418 0.8613 -0.2510
vn 0.6260 0.6256 -0.4655
vn 0.2566 0.8721 -0.4166
vn 0.6260 0.6256 -0.4655
vn 0.4418 0.8613 -0.2510
vn -0.1504 0.6442 -0.7499
vn -0.6009 0.7341 -0.3161
vn -0.3777 0.9071 -0.1860
vn -0.6009 0.7341 -0.3161
vn -0.1504 0.6442 -0.7499
vn -0.3788 0.5775 -0.7232
vn -0.0256 0.8671 -0.4975
vn 0.2566 0.8721 -0.4166
vn 0.1629 0.9557 -0.2451
vn 0.2566 0.8721 -0.4166
vn 0.4418 0.8613 -0.2510
vn 0.1862 0.9713 -0.1478
vn -0.1588 0.9844 -0.0760
vn -0.4343 0.8625 -0.2599
vn -0.1798 0.9579 -0.2238
vn -0.4343 0.8625 -0.2599
vn -0.3091 0.8159 -0.4887
vn -0.1798 0.9579 -0.2238
vn -0.6307 0.7738 0.0579
vn -0.4867 0.8734 -0.0144
vn -0.3581 0.8939 0.2697
vn -0.4867 0.8734 -0.0144
vn -0.6307 0.7738 0.0579
vn -0.6009 0.7341 -0.3161
vn -0.3581 0.8939 0.2697
vn -0.4326 0.8591 0.2737
vn -0.6307 0.7738 0.0579
vn -0.4326 0.8591 0.2737
vn -0.3581 0.8939 0.2697
vn -0.0574 0.9637 0.2607
vn 0.0853 0.9940 0.0687
vn -0.1148 0.9355 0.3343
vn 0.3421 0.8925 0.2941
vn 0.0853 0.9940 0.0687
vn -0.4252 0.9020 0.0742
vn -0.1148 0.9355 0.3343
vn -0.0129 0.9199 0.3919
vn -0.0574 0.9637 0.2607
vn 0.0250 0.9878 0.1536
vn -0.1709 0.9729 0.1555
vn -0.1479 0.9884 0.0352
vn -0.0913 0.9955 0.0257
vn -0.0713 0.9930 0.0946
vn -0.1709 0.9729 0.1555
vn -0.0913 0.9955 0.0257
vn -0.0913 0.9955 0.0257
vn -0.1479 0.9884 0.0352
vn -0.0940 0.9949 -0.0353
vn -0.0940 0.9949 -0.0353
vn -0.1588 0.9844 -0.0760
vn -0.1798 0.9579 -0.2238
vn 0.1629 0.9557 -0.2451
vn 0.2566 0.8721 -0.4166
vn 0.1862 0.9713 -0.1478
vn 0.1564 0.9565 0.2464
vn 0.1152 0.8702 0.4790
vn -0.0574 0.9637 0.2607
vn -0.1148 0.9355 0.3343
vn -0.0574 0.9637 0.2607
vn 0.1152 0.8702 0.4790
vn 0.0853 0.9940 0.0687
vn 0.4137 0.8232 -0.3887
vn 0.0739 0.8645 -0.4971
vn 0.3517 0.6036 -0.7155
vn 0.0739 0.8645 -0.4971
vn 0.4137 0.8232 -0.3887
vn 0.3542 0.9336 -0.0545
vn 0.3044 0.9516 0.0423
vn 0.0950 0.9953 -0.0163
vn 0.3421 0.8925 0.2941
vn 0.3044 0.9516 0.0423
vn 0.3542 0.9336 -0.0545
vn 0.4137 0.8232 -0.3887
vn 0.5727 0.8195 0.0176
vn 0.7812 0.6094 -0.1354
vn 0.3421 0.8925 0.2941
vn 0.6926 0.7138 0.1042
vn 0.5727 0.8195 0.0176
vn -0.4252 0.9020 0.0742
vn -0.3777 0.9071 -0.1860
vn -0.6009 0.7341 -0.3161
vn 0.0853 0.9940 0.0687
vn -0.3777 0.9071 -0.1860
vn -0.4252 0.9020 0.0742
vn 0.3701 0.6408 -0.6726
vn 0.3517 0.6036 -0.7155
vn 0.6260 0.6256 -0.4655
vn 0.3701 0.6408 -0.6726
vn 0.6260 0.6256 -0.4655
vn 0.2566 0.8721 -0.4166
vn 0.1076 0.9937 0.0316
vn 0.2413 0.9568 0.1623
vn 0.0956 0.9933 0.0654
vn 0.1564 0.9565 0.2464
vn 0.2413 0.9568 0.1623
vn 0.3421 0.8925 0.2941
vn 0.2413 0.9568 0.1623
vn 0.1564 0.9565 0.2464
vn 0.0956 0.9933 0.0654
vn -0.0256 0.8671 -0.4975
vn 0.1629 0.9557 -0.2451
vn -0.0024 0.9337 -0.3581
vn -0.1798 0.9579 -0.2238
vn -0.0256 0.8671 -0.4975
vn -0.0024 0.9337 -0.3581
vn 0.6926 0.7138 0.1042
vn 0.7812 0.6094 -0.1354
vn 0.5727 0.8195 0.0176
vn 0.4418 0.8613 -0.2510
vn 0.7812 0.6094 -0.1354
vn 0.6926 0.7138 0.1042
vn -0.3788 0.5775 -0.7232
vn 0.0011 0.7527 -0.6583
vn -0.3091 0.8159 -0.4887
vn -0.4343 0.8625 -0.2599
vn -0.3788 0.5775 -0.7232
vn -0.3091 0.8159 -0.4887
vn -0.1479 0.9884 0.0352
vn -0.1588 0.9844 -0.0760
vn -0.0940 0.9949 -0.0353
vn -0.1479 0.9884 0.0352
vn -0.4867 0.8734 -0.0144
vn -0.1588 0.9844 -0.0760
# 243 vertex normals

vt 0.2067 0.4867 0.0000
vt 0.2661 0.5249 0.0000
vt 0.2066 0.5547 0.0000
vt 0.2311 0.5286 0.0000
vt 0.2574 0.4966 0.0000
vt 0.1820 0.5270 0.0000
vt 0.2214 0.5363 0.0000
vt 0.2426 0.5565 0.0000
vt 0.2552 0.5134 0.0000
vt 0.2299 0.5395 0.0000
vt 0.2250 0.4826 0.0000
vt 0.2454 0.4860 0.0000
vt 0.2234 0.5618 0.0000
vt 0.2034 0.5257 0.0000
vt 0.2490 0.5431 0.0000
vt 0.2381 0.5295 0.0000
vt 0.2215 0.4900 0.0000
vt 0.1821 0.5143 0.0000
vt 0.2307 0.4984 0.0000
vt 0.2206 0.5303 0.0000
vt 0.2343 0.5377 0.0000
vt 0.2022 0.5435 0.0000
vt 0.2335 0.4866 0.0000
vt 0.2275 0.5178 0.0000
vt 0.2544 0.5456 0.0000
vt 0.2110 0.5528 0.0000
vt 0.2351 0.5219 0.0000
vt 0.2242 0.5525 0.0000
vt 0.2551 0.5245 0.0000
vt 0.2420 0.4954 0.0000
vt 0.2105 0.5264 0.0000
vt 0.2420 0.5415 0.0000
vt 0.2623 0.5062 0.0000
vt 0.2326 0.5440 0.0000
vt 0.2431 0.5267 0.0000
vt 0.2191 0.5447 0.0000
vt 0.2502 0.5027 0.0000
vt 0.2395 0.5534 0.0000
vt 0.2133 0.5405 0.0000
vt 0.2018 0.5023 0.0000
vt 0.1913 0.5277 0.0000
vt 0.2425 0.5331 0.0000
vt 0.2095 0.5075 0.0000
vt 0.2360 0.5487 0.0000
vt 0.2149 0.5151 0.0000
vt 0.2232 0.5581 0.0000
vt 0.2141 0.5495 0.0000
vt 0.1905 0.5165 0.0000
# 48 texture coords

o SM_Barnacle_09_LOD1
g SM_Barnacle_09_LOD1
usemtl MAT_Sea_Shells
s 1
f 105/108/433 125/118/434 90/90/435 
f 104/98/436 95/124/437 115/121/438 
f 100/109/439 109/119/440 126/127/441 
f 108/120/442 110/103/443 89/95/444 
f 83/85/445 98/97/446 119/102/447 
f 116/122/448 89/95/449 110/103/450 
f 101/111/451 105/108/452 118/100/453 
f 104/98/454 113/105/455 112/126/456 
f 113/105/457 122/101/458 112/126/459 
f 119/102/460 127/123/461 107/113/462 
f 85/83/463 90/90/464 124/114/465 
f 128/128/466 99/117/467 106/115/468 
f 83/85/469 91/91/470 86/88/471 
f 94/96/472 120/110/473 85/83/474 
f 104/98/475 115/121/476 82/82/477 
f 100/109/478 123/125/479 109/119/480 
f 117/106/481 94/96/482 85/83/483 
f 95/124/484 89/95/485 129/129/486 
f 111/112/487 112/126/488 122/101/489 
f 90/90/490 125/118/491 124/114/492 
f 102/107/493 100/109/494 126/127/495 
f 121/116/496 120/110/497 94/96/498 
f 120/110/499 121/116/500 105/108/501 
f 86/88/502 91/91/503 99/117/504 
f 108/120/505 111/112/506 122/101/507 
f 91/91/508 106/115/509 99/117/510 
f 119/102/511 107/113/512 106/115/513 
f 101/111/514 104/98/515 96/93/516 
f 88/86/517 101/111/518 96/93/519 
f 128/128/520 110/103/521 108/120/522 
f 102/107/523 126/127/524 84/84/525 
f 115/121/526 95/124/527 129/129/528 
f 93/92/529 104/98/530 82/82/531 
f 96/93/532 104/98/533 114/104/534 
f 83/85/535 105/108/536 98/97/537 
f 105/108/538 113/105/539 118/100/540 
f 106/115/541 123/125/542 100/109/543 
f 106/115/544 100/109/545 128/128/546 
f 127/123/547 94/96/548 107/113/549 
f 109/119/550 107/113/551 94/96/552 
f 99/117/553 108/120/554 86/88/555 
f 108/120/556 99/117/557 128/128/558 
f 126/127/559 109/119/560 92/89/561 
f 109/119/562 94/96/563 117/106/564 
f 116/122/565 110/103/566 84/84/567 
f 110/103/568 102/107/569 84/84/570 
f 111/112/571 89/95/572 95/124/573 
f 89/95/574 111/112/575 108/120/576 
f 95/124/577 112/126/578 111/112/579 
f 112/126/580 95/124/581 104/98/582 
f 83/85/583 113/105/584 105/108/585 
f 83/85/586 122/101/587 113/105/588 
f 114/104/589 104/98/590 93/92/591 
f 115/121/592 129/129/593 103/99/594 
f 82/82/595 115/121/596 103/99/597 
f 103/99/598 129/129/599 87/87/600 
f 87/87/601 116/122/602 84/84/603 
f 92/89/604 109/119/605 117/106/606 
f 101/111/607 118/100/608 104/98/609 
f 113/105/610 104/98/611 118/100/612 
f 83/85/613 119/102/614 91/91/615 
f 106/115/616 91/91/617 119/102/618 
f 120/110/619 90/90/620 85/83/621 
f 105/108/622 90/90/623 120/110/624 
f 119/102/625 98/97/626 127/123/627 
f 105/108/628 121/116/629 98/97/630 
f 122/101/631 86/88/632 108/120/633 
f 83/85/634 86/88/635 122/101/636 
f 123/125/637 106/115/638 107/113/639 
f 123/125/640 107/113/641 109/119/642 
f 124/114/643 125/118/644 88/86/645 
f 101/111/646 125/118/647 105/108/648 
f 125/118/649 101/111/650 88/86/651 
f 126/127/652 92/89/653 97/94/654 
f 84/84/655 126/127/656 97/94/657 
f 121/116/658 127/123/659 98/97/660 
f 94/96/661 127/123/662 121/116/663 
f 128/128/664 100/109/665 102/107/666 
f 110/103/667 128/128/668 102/107/669 
f 129/129/670 116/122/671 87/87/672 
f 129/129/673 89/95/674 116/122/675 
# 81 faces

