# 3ds Max Wavefront OBJ Exporter v0.97b - (c)2007 guruware
# File Created: 10.02.2024 08:45:26

mtllib SM_Barnacle_07.mtl

#
# object SM_Barnacle_07_LOD0
#

v  0.7446 -0.0000 -8.7591
v  0.5350 0.3130 -6.4754
v  -2.3583 0.0000 -8.3872
v  -1.7492 0.2870 -6.1398
v  -5.1959 0.0000 -7.4111
v  -6.9522 0.0000 -5.0072
v  -7.9709 0.0000 -0.8052
v  -5.2384 0.1556 -2.9757
v  -7.3995 0.0000 2.5565
v  -5.7171 0.0000 6.2166
v  -4.5233 0.2227 5.2258
v  -3.0995 0.0000 7.9227
v  -2.5229 0.2870 6.7741
v  -0.7200 0.0000 8.7591
v  -0.5389 0.3130 7.4536
v  2.5409 0.0000 8.6418
v  5.7857 0.0000 7.2211
v  7.8386 0.0000 3.8523
v  5.5198 0.1556 -1.5708
v  7.9709 0.0000 0.5427
v  7.3766 0.0000 -2.6188
v  4.4610 0.2227 -3.9425
v  5.9999 0.0000 -5.7757
v  2.5119 0.2870 -5.8154
v  3.1914 0.0000 -7.9209
v  -3.8405 0.2227 -4.8976
v  -5.9152 0.1271 -0.0478
v  -5.6695 0.1556 2.5268
v  -4.2815 1.0162 0.5135
v  -3.5399 1.1762 4.3923
v  1.3109 1.2839 6.1367
v  2.9490 1.1762 5.0233
v  1.8515 0.2870 7.2891
v  4.1963 0.2227 6.0258
v  5.7628 0.1556 3.5223
v  6.0058 0.1271 0.9433
v  4.0432 1.0639 -0.7576
v  3.2412 1.1762 -2.5028
v  0.3732 1.3274 -4.0974
v  1.9579 1.2839 -3.8994
v  0.9273 2.7296 0.9121
v  4.4380 1.0162 1.2226
v  4.1243 1.0639 3.2071
v  1.4004 2.6695 2.6521
v  1.1775 2.6872 3.5646
v  -0.3921 1.3274 6.3294
v  -0.0234 2.7714 4.8141
v  -2.0362 1.2839 5.7815
v  -2.2071 2.7296 4.1262
v  -2.5901 2.6872 3.2888
v  -4.2728 1.0639 2.4539
v  -3.8664 1.0639 -1.4261
v  -1.9563 2.7296 0.7010
v  -1.2565 2.7714 0.2255
v  -2.7642 1.1762 -2.9490
v  -1.2634 1.2839 -4.0243
v  -0.4627 2.7885 0.0977
v  0.3042 2.7714 0.3398
v  -2.4553 2.6872 1.4460
v  -2.6777 2.6695 2.3535
v  -1.5840 2.7714 4.6999
v  -0.8167 2.7885 4.9347
v  0.6766 2.7296 4.3373
v  1.3124 2.6872 1.7218
v  -0.7041 3.5131 3.3221
# 65 vertices

vn 0.0205 0.9630 -0.2689
vn 0.0655 0.9924 -0.1046
vn 0.0127 0.9917 -0.1280
vn -0.0361 0.9937 -0.1064
vn 0.0205 0.9630 -0.2689
vn 0.0127 0.9917 -0.1280
vn -0.0988 0.9653 -0.2416
vn 0.0205 0.9630 -0.2689
vn -0.0361 0.9937 -0.1064
vn -0.0616 0.9963 -0.0596
vn -0.0988 0.9653 -0.2416
vn -0.0361 0.9937 -0.1064
vn -0.1905 0.9663 -0.1729
vn -0.0988 0.9653 -0.2416
vn -0.0616 0.9963 -0.0596
vn -0.0674 0.9974 -0.0245
vn -0.1905 0.9663 -0.1729
vn -0.0616 0.9963 -0.0596
vn -0.2473 0.9647 -0.0909
vn -0.1905 0.9663 -0.1729
vn -0.0674 0.9974 -0.0245
vn -0.0713 0.9974 -0.0029
vn -0.2473 0.9647 -0.0909
vn -0.0674 0.9974 -0.0245
vn -0.2867 0.9578 -0.0205
vn -0.2473 0.9647 -0.0909
vn -0.0713 0.9974 -0.0029
vn -0.0947 0.9953 0.0225
vn -0.2867 0.9578 -0.0205
vn -0.0713 0.9974 -0.0029
vn -0.3255 0.9433 0.0655
vn -0.2867 0.9578 -0.0205
vn -0.0947 0.9953 0.0225
vn -0.1143 0.9893 0.0908
vn -0.3255 0.9433 0.0655
vn -0.0947 0.9953 0.0225
vn -0.3161 0.9228 0.2202
vn -0.3255 0.9433 0.0655
vn -0.1143 0.9893 0.0908
vn -0.0969 0.9794 0.1771
vn -0.3161 0.9228 0.2202
vn -0.1143 0.9893 0.0908
vn -0.2220 0.8986 0.3784
vn -0.3161 0.9228 0.2202
vn -0.0969 0.9794 0.1771
vn -0.0577 0.8927 0.4469
vn -0.2220 0.8986 0.3784
vn -0.0969 0.9794 0.1771
vn -0.0322 0.9759 0.2159
vn -0.0577 0.8927 0.4469
vn -0.0969 0.9794 0.1771
vn 0.1241 0.9157 0.3821
vn -0.0577 0.8927 0.4469
vn -0.0322 0.9759 0.2159
vn 0.0440 0.9836 0.1748
vn 0.1241 0.9157 0.3821
vn -0.0322 0.9759 0.2159
vn 0.2377 0.9438 0.2298
vn 0.1241 0.9157 0.3821
vn 0.0440 0.9836 0.1748
vn 0.0793 0.9930 0.0871
vn 0.2377 0.9438 0.2298
vn 0.0440 0.9836 0.1748
vn 0.2785 0.9567 0.0850
vn 0.2377 0.9438 0.2298
vn 0.0793 0.9930 0.0871
vn 0.0773 0.9968 0.0206
vn 0.2785 0.9567 0.0850
vn 0.0793 0.9930 0.0871
vn 0.2861 0.9581 -0.0107
vn 0.2785 0.9567 0.0850
vn 0.0773 0.9968 0.0206
vn 0.0694 0.9976 -0.0049
vn 0.2861 0.9581 -0.0107
vn 0.0773 0.9968 0.0206
vn 0.2823 0.9565 -0.0733
vn 0.2861 0.9581 -0.0107
vn 0.0694 0.9976 -0.0049
vn 0.0793 0.9967 -0.0186
vn 0.2823 0.9565 -0.0733
vn 0.0694 0.9976 -0.0049
vn 0.2552 0.9550 -0.1515
vn 0.2823 0.9565 -0.0733
vn 0.0793 0.9967 -0.0186
vn 0.0851 0.9949 -0.0538
vn 0.2552 0.9550 -0.1515
vn 0.0793 0.9967 -0.0186
vn 0.1555 0.9593 -0.2357
vn 0.2552 0.9550 -0.1515
vn 0.0851 0.9949 -0.0538
vn 0.0655 0.9924 -0.1046
vn 0.1555 0.9593 -0.2357
vn 0.0851 0.9949 -0.0538
vn 0.0205 0.9630 -0.2689
vn 0.1555 0.9593 -0.2357
vn 0.0655 0.9924 -0.1046
vn 0.0225 0.9310 -0.3644
vn 0.1555 0.9593 -0.2357
vn 0.0205 0.9630 -0.2689
vn -0.0988 0.9653 -0.2416
vn 0.0225 0.9310 -0.3644
vn 0.0205 0.9630 -0.2689
vn -0.1652 0.9217 -0.3509
vn 0.0225 0.9310 -0.3644
vn -0.0988 0.9653 -0.2416
vn -0.1905 0.9663 -0.1729
vn -0.1652 0.9217 -0.3509
vn -0.0988 0.9653 -0.2416
vn -0.3433 0.8950 -0.2846
vn -0.1652 0.9217 -0.3509
vn -0.1905 0.9663 -0.1729
vn -0.2473 0.9647 -0.0909
vn -0.3433 0.8950 -0.2846
vn -0.1905 0.9663 -0.1729
vn -0.4839 0.8574 -0.1750
vn -0.3433 0.8950 -0.2846
vn -0.2473 0.9647 -0.0909
vn -0.2867 0.9578 -0.0205
vn -0.4839 0.8574 -0.1750
vn -0.2473 0.9647 -0.0909
vn -0.5850 0.8096 -0.0479
vn -0.4839 0.8574 -0.1750
vn -0.2867 0.9578 -0.0205
vn -0.3255 0.9433 0.0655
vn -0.5850 0.8096 -0.0479
vn -0.2867 0.9578 -0.0205
vn -0.6345 0.7635 0.1202
vn -0.5850 0.8096 -0.0479
vn -0.3255 0.9433 0.0655
vn -0.3161 0.9228 0.2202
vn -0.6345 0.7635 0.1202
vn -0.3255 0.9433 0.0655
vn -0.5836 0.7165 0.3822
vn -0.6345 0.7635 0.1202
vn -0.3161 0.9228 0.2202
vn -0.2220 0.8986 0.3784
vn -0.5836 0.7165 0.3822
vn -0.3161 0.9228 0.2202
vn -0.3785 0.6915 0.6153
vn -0.5836 0.7165 0.3822
vn -0.2220 0.8986 0.3784
vn -0.0792 0.7165 0.6931
vn -0.3785 0.6915 0.6153
vn -0.2220 0.8986 0.3784
vn -0.0577 0.8927 0.4469
vn -0.0792 0.7165 0.6931
vn -0.2220 0.8986 0.3784
vn 0.2237 0.7765 0.5890
vn -0.0792 0.7165 0.6931
vn -0.0577 0.8927 0.4469
vn 0.1241 0.9157 0.3821
vn 0.2237 0.7765 0.5890
vn -0.0577 0.8927 0.4469
vn 0.4135 0.8300 0.3744
vn 0.2237 0.7765 0.5890
vn 0.1241 0.9157 0.3821
vn 0.2377 0.9438 0.2298
vn 0.4135 0.8300 0.3744
vn 0.1241 0.9157 0.3821
vn 0.4823 0.8617 0.1575
vn 0.4135 0.8300 0.3744
vn 0.2377 0.9438 0.2298
vn 0.2785 0.9567 0.0850
vn 0.4823 0.8617 0.1575
vn 0.2377 0.9438 0.2298
vn 0.4840 0.8751 -0.0049
vn 0.4823 0.8617 0.1575
vn 0.2785 0.9567 0.0850
vn 0.2861 0.9581 -0.0107
vn 0.4840 0.8751 -0.0049
vn 0.2785 0.9567 0.0850
vn 0.4550 0.8836 -0.1106
vn 0.4840 0.8751 -0.0049
vn 0.2861 0.9581 -0.0107
vn 0.2823 0.9565 -0.0733
vn 0.4550 0.8836 -0.1106
vn 0.2861 0.9581 -0.0107
vn 0.3844 0.8989 -0.2103
vn 0.4550 0.8836 -0.1106
vn 0.2823 0.9565 -0.0733
vn 0.2552 0.9550 -0.1515
vn 0.3844 0.8989 -0.2103
vn 0.2823 0.9565 -0.0733
vn 0.2162 0.9245 -0.3140
vn 0.3844 0.8989 -0.2103
vn 0.2552 0.9550 -0.1515
vn 0.1555 0.9593 -0.2357
vn 0.2162 0.9245 -0.3140
vn 0.2552 0.9550 -0.1515
vn 0.0225 0.9310 -0.3644
vn 0.2162 0.9245 -0.3140
vn 0.1555 0.9593 -0.2357
vn 0.0225 0.9310 -0.3644
vn 0.1711 0.9590 -0.2258
vn 0.2162 0.9245 -0.3140
vn 0.1711 0.9590 -0.2258
vn 0.3844 0.8989 -0.2103
vn 0.2162 0.9245 -0.3140
vn 0.1711 0.9590 -0.2258
vn 0.3101 0.9382 -0.1536
vn 0.3844 0.8989 -0.2103
vn 0.3101 0.9382 -0.1536
vn 0.4550 0.8836 -0.1106
vn 0.3844 0.8989 -0.2103
vn 0.3101 0.9382 -0.1536
vn 0.3882 0.9183 -0.0773
vn 0.4550 0.8836 -0.1106
vn 0.3882 0.9183 -0.0773
vn 0.4840 0.8751 -0.0049
vn 0.4550 0.8836 -0.1106
vn 0.3882 0.9183 -0.0773
vn 0.4310 0.9021 0.0185
vn 0.4840 0.8751 -0.0049
vn 0.4310 0.9021 0.0185
vn 0.4823 0.8617 0.1575
vn 0.4840 0.8751 -0.0049
vn 0.4310 0.9021 0.0185
vn 0.4407 0.8844 0.1534
vn 0.4823 0.8617 0.1575
vn 0.4407 0.8844 0.1534
vn 0.4135 0.8300 0.3744
vn 0.4823 0.8617 0.1575
vn 0.4407 0.8844 0.1534
vn 0.3843 0.8654 0.3217
vn 0.4135 0.8300 0.3744
vn 0.3843 0.8654 0.3217
vn 0.2237 0.7765 0.5890
vn 0.4135 0.8300 0.3744
vn 0.3843 0.8654 0.3217
vn 0.2158 0.8427 0.4932
vn 0.2237 0.7765 0.5890
vn 0.2158 0.8427 0.4932
vn -0.0792 0.7165 0.6931
vn 0.2237 0.7765 0.5890
vn 0.2158 0.8427 0.4932
vn -0.0537 0.8119 0.5814
vn -0.0792 0.7165 0.6931
vn -0.0537 0.8119 0.5814
vn -0.3785 0.6915 0.6153
vn -0.0792 0.7165 0.6931
vn -0.0537 0.8119 0.5814
vn -0.3351 0.7865 0.5188
vn -0.3785 0.6915 0.6153
vn -0.3351 0.7865 0.5188
vn -0.5228 0.7887 0.3235
vn -0.3785 0.6915 0.6153
vn -0.5228 0.7887 0.3235
vn -0.5836 0.7165 0.3822
vn -0.3785 0.6915 0.6153
vn -0.5228 0.7887 0.3235
vn -0.5722 0.8129 0.1086
vn -0.5836 0.7165 0.3822
vn -0.5722 0.8129 0.1086
vn -0.6345 0.7635 0.1202
vn -0.5836 0.7165 0.3822
vn -0.5722 0.8129 0.1086
vn -0.5363 0.8430 -0.0420
vn -0.6345 0.7635 0.1202
vn -0.5363 0.8430 -0.0420
vn -0.5850 0.8096 -0.0479
vn -0.6345 0.7635 0.1202
vn -0.5363 0.8430 -0.0420
vn -0.4409 0.8847 -0.1515
vn -0.5850 0.8096 -0.0479
vn -0.4409 0.8847 -0.1515
vn -0.4839 0.8574 -0.1750
vn -0.5850 0.8096 -0.0479
vn -0.4409 0.8847 -0.1515
vn -0.3076 0.9229 -0.2315
vn -0.4839 0.8574 -0.1750
vn -0.3076 0.9229 -0.2315
vn -0.3433 0.8950 -0.2846
vn -0.4839 0.8574 -0.1750
vn -0.3076 0.9229 -0.2315
vn -0.1477 0.9517 -0.2690
vn -0.3433 0.8950 -0.2846
vn -0.1477 0.9517 -0.2690
vn -0.1652 0.9217 -0.3509
vn -0.3433 0.8950 -0.2846
vn -0.1477 0.9517 -0.2690
vn 0.0166 0.9625 -0.2707
vn -0.1652 0.9217 -0.3509
vn 0.0166 0.9625 -0.2707
vn 0.0225 0.9310 -0.3644
vn -0.1652 0.9217 -0.3509
vn 0.0166 0.9625 -0.2707
vn 0.1711 0.9590 -0.2258
vn 0.0225 0.9310 -0.3644
vn -0.0049 0.9988 0.0479
vn 0.1711 0.9590 -0.2258
vn 0.0166 0.9625 -0.2707
vn -0.1477 0.9517 -0.2690
vn -0.0049 0.9988 0.0479
vn 0.0166 0.9625 -0.2707
vn -0.3076 0.9229 -0.2315
vn -0.0049 0.9988 0.0479
vn -0.1477 0.9517 -0.2690
vn -0.4409 0.8847 -0.1515
vn -0.0049 0.9988 0.0479
vn -0.3076 0.9229 -0.2315
vn -0.5363 0.8430 -0.0420
vn -0.0049 0.9988 0.0479
vn -0.4409 0.8847 -0.1515
vn -0.5722 0.8129 0.1086
vn -0.0049 0.9988 0.0479
vn -0.5363 0.8430 -0.0420
vn -0.5228 0.7887 0.3235
vn -0.0049 0.9988 0.0479
vn -0.5722 0.8129 0.1086
vn -0.3351 0.7865 0.5188
vn -0.0049 0.9988 0.0479
vn -0.5228 0.7887 0.3235
vn -0.0537 0.8119 0.5814
vn -0.0049 0.9988 0.0479
vn -0.3351 0.7865 0.5188
vn 0.2158 0.8427 0.4932
vn -0.0049 0.9988 0.0479
vn -0.0537 0.8119 0.5814
vn 0.3843 0.8654 0.3217
vn -0.0049 0.9988 0.0479
vn 0.2158 0.8427 0.4932
vn 0.4407 0.8844 0.1534
vn -0.0049 0.9988 0.0479
vn 0.3843 0.8654 0.3217
vn 0.4310 0.9021 0.0185
vn -0.0049 0.9988 0.0479
vn 0.4407 0.8844 0.1534
vn 0.3882 0.9183 -0.0773
vn -0.0049 0.9988 0.0479
vn 0.4310 0.9021 0.0185
vn 0.3101 0.9382 -0.1536
vn -0.0049 0.9988 0.0479
vn 0.3882 0.9183 -0.0773
vn 0.3101 0.9382 -0.1536
vn 0.1711 0.9590 -0.2258
vn -0.0049 0.9988 0.0479
# 336 vertex normals

vt 0.2197 0.8370 0.0000
vt 0.2051 0.8314 0.0000
vt 0.2139 0.8469 0.0000
vt 0.2338 0.8499 0.0000
vt 0.2241 0.8567 0.0000
vt 0.2449 0.8643 0.0000
vt 0.2306 0.8694 0.0000
vt 0.2462 0.8802 0.0000
vt 0.2317 0.8821 0.0000
vt 0.2386 0.9009 0.0000
vt 0.2262 0.8964 0.0000
vt 0.2257 0.9123 0.0000
vt 0.2173 0.9059 0.0000
vt 0.2065 0.9208 0.0000
vt 0.2036 0.9125 0.0000
vt 0.1885 0.9182 0.0000
vt 0.1891 0.9114 0.0000
vt 0.1774 0.9069 0.0000
vt 0.1743 0.9128 0.0000
vt 0.1660 0.8974 0.0000
vt 0.1586 0.9003 0.0000
vt 0.1583 0.8837 0.0000
vt 0.1470 0.8827 0.0000
vt 0.1582 0.8679 0.0000
vt 0.1470 0.8617 0.0000
vt 0.1647 0.8567 0.0000
vt 0.1563 0.8479 0.0000
vt 0.1747 0.8484 0.0000
vt 0.1687 0.8374 0.0000
vt 0.1869 0.8428 0.0000
vt 0.1849 0.8297 0.0000
vt 0.2021 0.8423 0.0000
vt 0.2075 0.8571 0.0000
vt 0.2153 0.8634 0.0000
vt 0.2195 0.8732 0.0000
vt 0.2203 0.8834 0.0000
vt 0.2166 0.8927 0.0000
vt 0.2107 0.9005 0.0000
vt 0.2013 0.9055 0.0000
vt 0.1897 0.9056 0.0000
vt 0.1799 0.9018 0.0000
vt 0.1722 0.8948 0.0000
vt 0.1675 0.8843 0.0000
vt 0.1671 0.8727 0.0000
vt 0.1715 0.8635 0.0000
vt 0.1794 0.8571 0.0000
vt 0.1886 0.8530 0.0000
vt 0.1991 0.8521 0.0000
vt 0.1946 0.8751 0.0000
vt 0.1897 0.8752 0.0000
vt 0.1854 0.8770 0.0000
vt 0.1823 0.8804 0.0000
vt 0.1805 0.8849 0.0000
vt 0.1807 0.8898 0.0000
vt 0.1827 0.8943 0.0000
vt 0.1863 0.8977 0.0000
vt 0.1907 0.8996 0.0000
vt 0.1956 0.8996 0.0000
vt 0.2000 0.8976 0.0000
vt 0.2031 0.8942 0.0000
vt 0.2047 0.8897 0.0000
vt 0.2046 0.8849 0.0000
vt 0.2025 0.8804 0.0000
vt 0.1990 0.8770 0.0000
vt 0.1906 0.8909 0.0000
# 65 texture coords

o SM_Barnacle_07_LOD0
g SM_Barnacle_07_LOD0
usemtl MAT_Sea_Shells
s 1
f 2/3/1 25/2/2 1/1/3 
f 3/4/4 2/3/5 1/1/6 
f 4/5/7 2/3/8 3/4/9 
f 5/6/10 4/5/11 3/4/12 
f 26/7/13 4/5/14 5/6/15 
f 6/8/16 26/7/17 5/6/18 
f 8/9/19 26/7/20 6/8/21 
f 7/10/22 8/9/23 6/8/24 
f 27/11/25 8/9/26 7/10/27 
f 9/12/28 27/11/29 7/10/30 
f 28/13/31 27/11/32 9/12/33 
f 10/14/34 28/13/35 9/12/36 
f 11/15/37 28/13/38 10/14/39 
f 12/16/40 11/15/41 10/14/42 
f 13/17/43 11/15/44 12/16/45 
f 15/18/46 13/17/47 12/16/48 
f 14/19/49 15/18/50 12/16/51 
f 33/20/52 15/18/53 14/19/54 
f 16/21/55 33/20/56 14/19/57 
f 34/22/58 33/20/59 16/21/60 
f 17/23/61 34/22/62 16/21/63 
f 35/24/64 34/22/65 17/23/66 
f 18/25/67 35/24/68 17/23/69 
f 36/26/70 35/24/71 18/25/72 
f 20/27/73 36/26/74 18/25/75 
f 19/28/76 36/26/77 20/27/78 
f 21/29/79 19/28/80 20/27/81 
f 22/30/82 19/28/83 21/29/84 
f 23/31/85 22/30/86 21/29/87 
f 24/32/88 22/30/89 23/31/90 
f 25/2/91 24/32/92 23/31/93 
f 2/3/94 24/32/95 25/2/96 
f 39/33/97 24/32/98 2/3/99 
f 4/5/100 39/33/101 2/3/102 
f 56/34/103 39/33/104 4/5/105 
f 26/7/106 56/34/107 4/5/108 
f 55/35/109 56/34/110 26/7/111 
f 8/9/112 55/35/113 26/7/114 
f 52/36/115 55/35/116 8/9/117 
f 27/11/118 52/36/119 8/9/120 
f 29/37/121 52/36/122 27/11/123 
f 28/13/124 29/37/125 27/11/126 
f 51/38/127 29/37/128 28/13/129 
f 11/15/130 51/38/131 28/13/132 
f 30/39/133 51/38/134 11/15/135 
f 13/17/136 30/39/137 11/15/138 
f 48/40/139 30/39/140 13/17/141 
f 46/41/142 48/40/143 13/17/144 
f 15/18/145 46/41/146 13/17/147 
f 31/42/148 46/41/149 15/18/150 
f 33/20/151 31/42/152 15/18/153 
f 32/43/154 31/42/155 33/20/156 
f 34/22/157 32/43/158 33/20/159 
f 43/44/160 32/43/161 34/22/162 
f 35/24/163 43/44/164 34/22/165 
f 42/45/166 43/44/167 35/24/168 
f 36/26/169 42/45/170 35/24/171 
f 37/46/172 42/45/173 36/26/174 
f 19/28/175 37/46/176 36/26/177 
f 38/47/178 37/46/179 19/28/180 
f 22/30/181 38/47/182 19/28/183 
f 40/48/184 38/47/185 22/30/186 
f 24/32/187 40/48/188 22/30/189 
f 39/33/190 40/48/191 24/32/192 
f 39/33/193 58/49/194 40/48/195 
f 58/49/196 38/47/197 40/48/198 
f 58/49/199 41/50/200 38/47/201 
f 41/50/202 37/46/203 38/47/204 
f 41/50/205 64/51/206 37/46/207 
f 64/51/208 42/45/209 37/46/210 
f 64/51/211 44/52/212 42/45/213 
f 44/52/214 43/44/215 42/45/216 
f 44/52/217 45/53/218 43/44/219 
f 45/53/220 32/43/221 43/44/222 
f 45/53/223 63/54/224 32/43/225 
f 63/54/226 31/42/227 32/43/228 
f 63/54/229 47/55/230 31/42/231 
f 47/55/232 46/41/233 31/42/234 
f 47/55/235 62/56/236 46/41/237 
f 62/56/238 48/40/239 46/41/240 
f 62/56/241 61/57/242 48/40/243 
f 61/57/244 49/58/245 48/40/246 
f 49/58/247 30/39/248 48/40/249 
f 49/58/250 50/59/251 30/39/252 
f 50/59/253 51/38/254 30/39/255 
f 50/59/256 60/60/257 51/38/258 
f 60/60/259 29/37/260 51/38/261 
f 60/60/262 59/61/263 29/37/264 
f 59/61/265 52/36/266 29/37/267 
f 59/61/268 53/62/269 52/36/270 
f 53/62/271 55/35/272 52/36/273 
f 53/62/274 54/63/275 55/35/276 
f 54/63/277 56/34/278 55/35/279 
f 54/63/280 57/64/281 56/34/282 
f 57/64/283 39/33/284 56/34/285 
f 57/64/286 58/49/287 39/33/288 
f 65/65/289 58/49/290 57/64/291 
f 54/63/292 65/65/293 57/64/294 
f 53/62/295 65/65/296 54/63/297 
f 59/61/298 65/65/299 53/62/300 
f 60/60/301 65/65/302 59/61/303 
f 50/59/304 65/65/305 60/60/306 
f 49/58/307 65/65/308 50/59/309 
f 61/57/310 65/65/311 49/58/312 
f 62/56/313 65/65/314 61/57/315 
f 47/55/316 65/65/317 62/56/318 
f 63/54/319 65/65/320 47/55/321 
f 45/53/322 65/65/323 63/54/324 
f 44/52/325 65/65/326 45/53/327 
f 64/51/328 65/65/329 44/52/330 
f 41/50/331 65/65/332 64/51/333 
f 41/50/334 58/49/335 65/65/336 
# 112 faces

#
# object SM_Barnacle_07_LOD1
#

v  -5.7171 0.0000 6.2166
v  5.7857 0.0000 7.2211
v  0.1522 -0.0000 -8.6881
v  -0.6638 3.4954 3.3273
v  7.6743 0.0000 -1.0351
v  -5.1959 0.0000 -7.4111
v  -1.4627 0.0000 8.4980
v  5.9999 0.0000 -5.7757
v  -5.2856 0.4043 2.4606
v  -5.4211 0.2172 -1.5750
v  -1.2044 2.7799 4.8160
v  -7.9709 0.0000 -0.8052
v  4.5415 0.2350 5.3837
v  2.4428 0.4113 -5.5766
v  7.8386 0.0000 3.8523
v  -0.5389 0.3130 7.4536
v  -0.3672 0.3028 -6.3429
v  -2.3926 2.6932 1.7004
v  -2.2071 2.7296 4.1262
v  5.8604 0.1356 0.1909
v  1.8515 0.2870 7.2891
v  -4.3461 0.3945 5.0757
v  2.5409 0.0000 8.6418
v  4.3916 0.2769 -3.8606
v  -3.8405 0.2227 -4.8976
v  -6.9522 0.0000 -5.0072
v  3.1914 0.0000 -7.9209
v  0.6156 2.7454 0.7666
v  -0.6356 1.3006 -4.0524
v  -2.4387 0.4594 6.6024
v  -7.3995 0.0000 2.5565
v  -0.0234 2.7714 4.8141
# 32 vertices

vn -0.3968 0.9073 -0.1390
vn -0.0646 0.9377 -0.3413
vn -0.1531 0.9764 -0.1525
vn 0.0268 0.9974 0.0675
vn 0.2341 0.9613 0.1451
vn 0.2357 0.9717 -0.0120
vn -0.4908 0.8184 0.2988
vn -0.3668 0.8920 0.2643
vn -0.3257 0.8027 0.4997
vn 0.1974 0.9616 -0.1905
vn 0.2357 0.9717 -0.0120
vn 0.2137 0.9707 -0.1096
vn -0.3968 0.9073 -0.1390
vn -0.2837 0.9555 -0.0808
vn -0.4093 0.9110 0.0507
vn 0.2215 0.8538 0.4712
vn -0.0273 0.8773 0.4792
vn 0.1401 0.9189 0.3687
vn -0.0646 0.9377 -0.3413
vn 0.1974 0.9616 -0.1905
vn 0.1143 0.9704 -0.2126
vn -0.4093 0.9110 0.0507
vn -0.2837 0.9555 -0.0808
vn -0.1642 0.9862 0.0232
vn -0.0596 0.9622 0.2657
vn -0.3668 0.8920 0.2643
vn -0.1578 0.9774 0.1408
vn -0.1531 0.9764 -0.1525
vn -0.0254 0.9707 -0.2391
vn -0.0553 0.9960 -0.0705
vn -0.0849 0.9964 0.0001
vn -0.2837 0.9555 -0.0808
vn -0.0751 0.9965 -0.0362
vn 0.0268 0.9974 0.0675
vn 0.2215 0.8538 0.4712
vn 0.2341 0.9613 0.1451
vn -0.4908 0.8184 0.2988
vn -0.3968 0.9073 -0.1390
vn -0.4093 0.9110 0.0507
vn -0.1578 0.9774 0.1408
vn -0.4093 0.9110 0.0507
vn -0.1642 0.9862 0.0232
vn 0.0530 0.9854 0.1615
vn 0.1401 0.9189 0.3687
vn -0.0596 0.9622 0.2657
vn 0.0775 0.9969 0.0128
vn 0.2341 0.9613 0.1451
vn 0.0682 0.9944 0.0810
vn 0.1138 0.9909 -0.0716
vn 0.2137 0.9707 -0.1096
vn 0.0844 0.9964 -0.0059
vn -0.0254 0.9707 -0.2391
vn 0.1143 0.9704 -0.2126
vn 0.0578 0.9878 -0.1444
vn 0.2137 0.9707 -0.1096
vn 0.2357 0.9717 -0.0120
vn 0.0844 0.9964 -0.0059
vn 0.1401 0.9189 0.3687
vn -0.0273 0.8773 0.4792
vn -0.0596 0.9622 0.2657
vn -0.3257 0.8027 0.4997
vn -0.3668 0.8920 0.2643
vn -0.0596 0.9622 0.2657
vn -0.0553 0.9960 -0.0705
vn -0.0254 0.9707 -0.2391
vn 0.0041 0.9919 -0.1271
vn -0.0254 0.9707 -0.2391
vn 0.0578 0.9878 -0.1444
vn 0.0041 0.9919 -0.1271
vn -0.3968 0.9073 -0.1390
vn 0.1974 0.9616 -0.1905
vn -0.0646 0.9377 -0.3413
vn -0.4908 0.8184 0.2988
vn 0.0268 0.9974 0.0675
vn -0.3968 0.9073 -0.1390
vn -0.1992 0.8116 0.5491
vn -0.4908 0.8184 0.2988
vn -0.3257 0.8027 0.4997
vn -0.1992 0.8116 0.5491
vn 0.0268 0.9974 0.0675
vn -0.4908 0.8184 0.2988
vn 0.0844 0.9964 -0.0059
vn 0.2357 0.9717 -0.0120
vn 0.0775 0.9969 0.0128
vn 0.2357 0.9717 -0.0120
vn 0.2341 0.9613 0.1451
vn 0.0775 0.9969 0.0128
vn 0.2341 0.9613 0.1451
vn 0.1401 0.9189 0.3687
vn 0.0530 0.9854 0.1615
vn 0.2215 0.8538 0.4712
vn 0.1401 0.9189 0.3687
vn 0.2341 0.9613 0.1451
vn -0.4908 0.8184 0.2988
vn -0.4093 0.9110 0.0507
vn -0.3668 0.8920 0.2643
vn -0.3668 0.8920 0.2643
vn -0.4093 0.9110 0.0507
vn -0.1578 0.9774 0.1408
vn 0.0682 0.9944 0.0810
vn 0.2341 0.9613 0.1451
vn 0.0530 0.9854 0.1615
vn 0.1143 0.9704 -0.2126
vn 0.2137 0.9707 -0.1096
vn 0.1138 0.9909 -0.0716
vn 0.1974 0.9616 -0.1905
vn 0.2137 0.9707 -0.1096
vn 0.1143 0.9704 -0.2126
vn -0.3968 0.9073 -0.1390
vn -0.1531 0.9764 -0.1525
vn -0.2837 0.9555 -0.0808
vn -0.2837 0.9555 -0.0808
vn -0.1531 0.9764 -0.1525
vn -0.0751 0.9965 -0.0362
vn -0.0751 0.9965 -0.0362
vn -0.1531 0.9764 -0.1525
vn -0.0553 0.9960 -0.0705
vn 0.0578 0.9878 -0.1444
vn 0.1143 0.9704 -0.2126
vn 0.1138 0.9909 -0.0716
vn -0.3968 0.9073 -0.1390
vn 0.0268 0.9974 0.0675
vn 0.1974 0.9616 -0.1905
vn 0.1974 0.9616 -0.1905
vn 0.0268 0.9974 0.0675
vn 0.2357 0.9717 -0.0120
vn -0.1531 0.9764 -0.1525
vn -0.0646 0.9377 -0.3413
vn -0.0254 0.9707 -0.2391
vn -0.0646 0.9377 -0.3413
vn 0.1143 0.9704 -0.2126
vn -0.0254 0.9707 -0.2391
vn -0.0273 0.8773 0.4792
vn -0.3257 0.8027 0.4997
vn -0.0596 0.9622 0.2657
vn -0.1992 0.8116 0.5491
vn -0.3257 0.8027 0.4997
vn -0.0273 0.8773 0.4792
vn -0.1642 0.9862 0.0232
vn -0.2837 0.9555 -0.0808
vn -0.0849 0.9964 0.0001
vn 0.2215 0.8538 0.4712
vn 0.0268 0.9974 0.0675
vn -0.1992 0.8116 0.5491
vn 0.2215 0.8538 0.4712
vn -0.1992 0.8116 0.5491
vn -0.0273 0.8773 0.4792
# 147 vertex normals

vt 0.2065 0.9208 0.0000
vt 0.1470 0.8827 0.0000
vt 0.2224 0.8395 0.0000
vt 0.1903 0.8907 0.0000
vt 0.2449 0.8643 0.0000
vt 0.1625 0.8427 0.0000
vt 0.2386 0.9009 0.0000
vt 0.1787 0.9145 0.0000
vt 0.1849 0.8297 0.0000
vt 0.2284 0.8885 0.0000
vt 0.1677 0.8542 0.0000
vt 0.1586 0.8799 0.0000
vt 0.1885 0.8987 0.0000
vt 0.2156 0.9042 0.0000
vt 0.2018 0.8435 0.0000
vt 0.1774 0.9069 0.0000
vt 0.1470 0.8617 0.0000
vt 0.2179 0.8508 0.0000
vt 0.2037 0.8905 0.0000
vt 0.2462 0.8802 0.0000
vt 0.1586 0.9003 0.0000
vt 0.1827 0.8943 0.0000
vt 0.2032 0.9112 0.0000
vt 0.1870 0.8434 0.0000
vt 0.2257 0.9123 0.0000
vt 0.1660 0.8974 0.0000
vt 0.2051 0.8314 0.0000
vt 0.1892 0.9104 0.0000
vt 0.1918 0.8757 0.0000
vt 0.2306 0.8694 0.0000
vt 0.1956 0.8996 0.0000
vt 0.2123 0.8610 0.0000
# 32 texture coords

o SM_Barnacle_07_LOD1
g SM_Barnacle_07_LOD1
usemtl MAT_Sea_Shells
s 1
f 83/84/337 94/97/338 90/95/339 
f 69/69/340 78/77/341 85/76/342 
f 84/96/343 87/88/344 95/93/345 
f 93/94/346 85/76/347 89/89/348 
f 83/84/349 75/75/350 74/79/351 
f 97/87/352 81/81/353 86/91/354 
f 94/97/355 93/94/356 79/80/357 
f 74/79/358 75/75/359 96/90/360 
f 72/73/361 87/88/362 66/66/363 
f 90/95/364 82/83/365 71/70/366 
f 77/72/367 75/75/368 91/85/369 
f 69/69/370 97/87/371 78/77/372 
f 84/96/373 83/84/374 74/79/375 
f 66/66/376 74/79/377 96/90/378 
f 88/86/379 86/91/380 72/73/381 
f 80/82/382 78/77/383 67/67/384 
f 73/74/385 89/89/386 70/71/387 
f 82/83/388 79/80/389 92/92/390 
f 89/89/391 85/76/392 70/71/393 
f 86/91/394 81/81/395 72/73/396 
f 95/93/397 87/88/398 72/73/399 
f 71/70/400 82/83/401 68/68/402 
f 82/83/403 92/92/404 68/68/405 
f 83/84/406 93/94/407 94/97/408 
f 84/96/409 69/69/410 83/84/411 
f 76/78/412 84/96/413 95/93/414 
f 76/78/415 69/69/416 84/96/417 
f 70/71/418 85/76/419 80/82/420 
f 85/76/421 78/77/422 80/82/423 
f 78/77/424 86/91/425 88/86/426 
f 97/87/427 86/91/428 78/77/429 
f 84/96/430 74/79/431 87/88/432 
f 87/88/433 74/79/434 66/66/435 
f 67/67/436 78/77/437 88/86/438 
f 79/80/439 89/89/440 73/74/441 
f 93/94/442 89/89/443 79/80/444 
f 83/84/445 90/95/446 75/75/447 
f 75/75/448 90/95/449 91/85/450 
f 91/85/451 90/95/452 71/70/453 
f 92/92/454 79/80/455 73/74/456 
f 83/84/457 69/69/458 93/94/459 
f 93/94/460 69/69/461 85/76/462 
f 90/95/463 94/97/464 82/83/465 
f 94/97/466 79/80/467 82/83/468 
f 81/81/469 95/93/470 72/73/471 
f 76/78/472 95/93/473 81/81/474 
f 96/90/475 75/75/476 77/72/477 
f 97/87/478 69/69/479 76/78/480 
f 97/87/481 76/78/482 81/81/483 
# 49 faces

