# 3ds Max Wavefront OBJ Exporter v0.97b - (c)2007 guruware
# File Created: 10.02.2024 08:45:27

mtllib SM_Barnacle_10.mtl

#
# object SM_Barnacle_10_LOD0
#

v  5.1740 0.0000 0.3983
v  3.9866 0.0000 2.4717
v  4.7653 0.0000 -1.4706
v  3.7963 -0.0000 -3.0522
v  3.4462 0.1502 -2.5064
v  1.6861 -0.0000 -3.7238
v  -0.0168 -0.0000 -4.2090
v  -1.8117 -0.0000 -4.0391
v  -2.8284 0.1485 -2.7439
v  -3.4958 -0.0000 -3.2508
v  -4.6136 0.0000 -1.9336
v  -5.1740 0.0000 -0.1603
v  -4.8633 0.0000 1.5390
v  -3.7153 0.0000 3.0231
v  -3.8041 0.1726 1.2260
v  -3.0112 0.1484 2.4569
v  -2.1435 0.0000 3.9973
v  -0.4401 0.0000 4.2090
v  1.0594 0.0000 4.0576
v  -0.2550 0.1125 3.5621
v  2.4623 0.0000 3.5576
v  2.3052 0.1502 2.9705
v  3.6376 0.1756 2.0765
v  4.6948 0.1860 0.3220
v  4.1027 0.7603 0.3101
v  4.3021 0.1756 -1.2422
v  4.0225 0.7338 -1.0367
v  3.2992 0.6610 -2.1321
v  1.5881 0.1238 -3.2042
v  0.3641 0.5509 -3.0568
v  0.1281 0.1125 -3.5964
v  -1.4081 0.1232 -3.4349
v  -2.1229 0.6369 -2.2800
v  -3.7765 0.1726 -1.6213
v  -2.9479 0.6956 -1.3267
v  -4.0731 0.1823 -0.1721
v  -3.2433 0.7189 -0.1723
v  -2.9952 0.6953 0.9739
v  -2.2712 0.6362 1.9836
v  -1.7017 0.1231 3.3064
v  1.0563 0.1238 3.4376
v  2.2866 0.6576 2.5190
v  2.6618 2.1250 0.6518
v  2.3456 2.0902 -0.4464
v  1.6185 0.5852 -2.7631
v  1.3738 2.0380 -0.9965
v  -0.9411 0.5750 -2.8936
v  -0.0556 2.0600 0.2059
v  -1.1830 0.5745 2.6862
v  0.3169 2.0297 1.1615
v  0.0131 0.5506 2.9919
v  0.7349 2.0140 1.5060
v  1.2306 2.0152 1.7047
v  1.1519 0.5848 2.9251
v  3.2195 0.7280 1.5989
v  2.5154 2.1096 1.1697
v  2.1920 2.0755 1.5442
v  1.7361 2.0382 1.7244
v  0.0363 2.0490 0.7105
v  1.6248 2.4969 0.7501
v  0.0632 2.0577 -0.2860
v  0.3775 2.0458 -0.6923
v  0.8371 2.0352 -0.9460
v  1.9029 2.0587 -0.8238
v  2.6089 2.1168 0.0768
v  3.2133 1.4764 0.4558
v  3.5880 1.5051 -0.5202
v  3.0676 1.4295 -1.4378
v  1.7302 1.3653 -1.9848
v  0.8263 1.3172 -2.2186
v  -0.1038 1.3194 -2.1040
v  -0.9353 1.3579 -1.6693
v  -1.5194 1.4056 -0.9954
v  -1.7542 1.4393 -0.1773
v  -1.6321 1.4249 0.4020
v  -1.2218 1.3790 1.1688
v  -0.5244 1.3328 1.7697
v  0.3149 1.3223 2.1324
v  1.1775 1.3466 2.2517
v  2.2726 1.4060 2.0172
v  2.9176 1.4910 1.3653
# 81 vertices

vn 0.4927 0.8675 0.0685
vn 0.2324 0.9472 0.2211
vn 0.3537 0.9338 0.0546
vn 0.3006 0.9450 -0.1291
vn 0.4927 0.8675 0.0685
vn 0.3537 0.9338 0.0546
vn 0.5357 0.8139 -0.2251
vn 0.4927 0.8675 0.0685
vn 0.3006 0.9450 -0.1291
vn 0.1354 0.9723 -0.1905
vn 0.5357 0.8139 -0.2251
vn 0.3006 0.9450 -0.1291
vn 0.2835 0.8721 -0.3989
vn 0.5357 0.8139 -0.2251
vn 0.1354 0.9723 -0.1905
vn 0.1338 0.8681 -0.4781
vn 0.2835 0.8721 -0.3989
vn 0.1354 0.9723 -0.1905
vn 0.0607 0.9742 -0.2172
vn 0.1338 0.8681 -0.4781
vn 0.1354 0.9723 -0.1905
vn 0.0268 0.9155 -0.4015
vn 0.1338 0.8681 -0.4781
vn 0.0607 0.9742 -0.2172
vn 0.0130 0.9826 -0.1854
vn 0.0268 0.9155 -0.4015
vn 0.0607 0.9742 -0.2172
vn -0.0946 0.9314 -0.3514
vn 0.0268 0.9155 -0.4015
vn 0.0130 0.9826 -0.1854
vn -0.0479 0.9835 -0.1742
vn -0.0946 0.9314 -0.3514
vn 0.0130 0.9826 -0.1854
vn -0.1993 0.9400 -0.2770
vn -0.0946 0.9314 -0.3514
vn -0.0479 0.9835 -0.1742
vn -0.1133 0.9825 -0.1476
vn -0.1993 0.9400 -0.2770
vn -0.0479 0.9835 -0.1742
vn -0.2948 0.9424 -0.1577
vn -0.1993 0.9400 -0.2770
vn -0.1133 0.9825 -0.1476
vn -0.1688 0.9815 -0.0899
vn -0.2948 0.9424 -0.1577
vn -0.1133 0.9825 -0.1476
vn -0.1665 0.9860 -0.0063
vn -0.2948 0.9424 -0.1577
vn -0.1688 0.9815 -0.0899
vn -0.3374 0.9414 -0.0038
vn -0.2948 0.9424 -0.1577
vn -0.1665 0.9860 -0.0063
vn -0.1446 0.9874 0.0639
vn -0.3374 0.9414 -0.0038
vn -0.1665 0.9860 -0.0063
vn -0.3011 0.9440 0.1348
vn -0.3374 0.9414 -0.0038
vn -0.1446 0.9874 0.0639
vn -0.1116 0.9864 0.1210
vn -0.3011 0.9440 0.1348
vn -0.1446 0.9874 0.0639
vn -0.2151 0.9475 0.2365
vn -0.3011 0.9440 0.1348
vn -0.1116 0.9864 0.1210
vn -0.0521 0.9876 0.1480
vn -0.2151 0.9475 0.2365
vn -0.1116 0.9864 0.1210
vn -0.1069 0.9474 0.3017
vn -0.2151 0.9475 0.2365
vn -0.0521 0.9876 0.1480
vn -0.0054 0.9855 0.1694
vn -0.1069 0.9474 0.3017
vn -0.0521 0.9876 0.1480
vn -0.0234 0.9279 0.3722
vn -0.1069 0.9474 0.3017
vn -0.0054 0.9855 0.1694
vn 0.0367 0.9806 0.1924
vn -0.0234 0.9279 0.3722
vn -0.0054 0.9855 0.1694
vn 0.0777 0.8990 0.4310
vn -0.0234 0.9279 0.3722
vn 0.0367 0.9806 0.1924
vn 0.0979 0.9699 0.2231
vn 0.0777 0.8990 0.4310
vn 0.0367 0.9806 0.1924
vn 0.2083 0.8595 0.4667
vn 0.0777 0.8990 0.4310
vn 0.0979 0.9699 0.2231
vn 0.3585 0.8711 0.3358
vn 0.2083 0.8595 0.4667
vn 0.0979 0.9699 0.2231
vn 0.2324 0.9472 0.2211
vn 0.3585 0.8711 0.3358
vn 0.0979 0.9699 0.2231
vn 0.4927 0.8675 0.0685
vn 0.3585 0.8711 0.3358
vn 0.2324 0.9472 0.2211
vn 0.7230 0.6681 0.1759
vn 0.3585 0.8711 0.3358
vn 0.4927 0.8675 0.0685
vn 0.5357 0.8139 -0.2251
vn 0.7230 0.6681 0.1759
vn 0.4927 0.8675 0.0685
vn 0.7754 0.5765 -0.2575
vn 0.7230 0.6681 0.1759
vn 0.5357 0.8139 -0.2251
vn 0.4708 0.6322 -0.6154
vn 0.7754 0.5765 -0.2575
vn 0.5357 0.8139 -0.2251
vn 0.2835 0.8721 -0.3989
vn 0.4708 0.6322 -0.6154
vn 0.5357 0.8139 -0.2251
vn 0.1982 0.6741 -0.7115
vn 0.4708 0.6322 -0.6154
vn 0.2835 0.8721 -0.3989
vn 0.1338 0.8681 -0.4781
vn 0.1982 0.6741 -0.7115
vn 0.2835 0.8721 -0.3989
vn 0.0451 0.7450 -0.6655
vn 0.1982 0.6741 -0.7115
vn 0.1338 0.8681 -0.4781
vn 0.0268 0.9155 -0.4015
vn 0.0451 0.7450 -0.6655
vn 0.1338 0.8681 -0.4781
vn -0.1477 0.8076 -0.5709
vn 0.0451 0.7450 -0.6655
vn 0.0268 0.9155 -0.4015
vn -0.0946 0.9314 -0.3514
vn -0.1477 0.8076 -0.5709
vn 0.0268 0.9155 -0.4015
vn -0.2944 0.8499 -0.4370
vn -0.1477 0.8076 -0.5709
vn -0.0946 0.9314 -0.3514
vn -0.1993 0.9400 -0.2770
vn -0.2944 0.8499 -0.4370
vn -0.0946 0.9314 -0.3514
vn -0.4193 0.8733 -0.2482
vn -0.2944 0.8499 -0.4370
vn -0.1993 0.9400 -0.2770
vn -0.2948 0.9424 -0.1577
vn -0.4193 0.8733 -0.2482
vn -0.1993 0.9400 -0.2770
vn -0.4867 0.8735 -0.0086
vn -0.4193 0.8733 -0.2482
vn -0.2948 0.9424 -0.1577
vn -0.3374 0.9414 -0.0038
vn -0.4867 0.8735 -0.0086
vn -0.2948 0.9424 -0.1577
vn -0.3011 0.9440 0.1348
vn -0.4867 0.8735 -0.0086
vn -0.3374 0.9414 -0.0038
vn -0.4381 0.8730 0.2144
vn -0.4867 0.8735 -0.0086
vn -0.3011 0.9440 0.1348
vn -0.2151 0.9475 0.2365
vn -0.4381 0.8730 0.2144
vn -0.3011 0.9440 0.1348
vn -0.3204 0.8679 0.3797
vn -0.4381 0.8730 0.2144
vn -0.2151 0.9475 0.2365
vn -0.1069 0.9474 0.3017
vn -0.3204 0.8679 0.3797
vn -0.2151 0.9475 0.2365
vn -0.1941 0.8395 0.5075
vn -0.3204 0.8679 0.3797
vn -0.1069 0.9474 0.3017
vn -0.0234 0.9279 0.3722
vn -0.1941 0.8395 0.5075
vn -0.1069 0.9474 0.3017
vn -0.0701 0.7779 0.6244
vn -0.1941 0.8395 0.5075
vn -0.0234 0.9279 0.3722
vn 0.0777 0.8990 0.4310
vn -0.0701 0.7779 0.6244
vn -0.0234 0.9279 0.3722
vn 0.1058 0.6940 0.7122
vn -0.0701 0.7779 0.6244
vn 0.0777 0.8990 0.4310
vn 0.2083 0.8595 0.4667
vn 0.1058 0.6940 0.7122
vn 0.0777 0.8990 0.4310
vn 0.3572 0.6126 0.7051
vn 0.1058 0.6940 0.7122
vn 0.2083 0.8595 0.4667
vn 0.3585 0.8711 0.3358
vn 0.3572 0.6126 0.7051
vn 0.2083 0.8595 0.4667
vn 0.5831 0.6499 0.4876
vn 0.3572 0.6126 0.7051
vn 0.3585 0.8711 0.3358
vn 0.7230 0.6681 0.1759
vn 0.5831 0.6499 0.4876
vn 0.3585 0.8711 0.3358
vn 0.5750 0.8080 0.1287
vn 0.5397 0.7663 0.3485
vn 0.6831 0.5512 0.4792
vn 0.6831 0.5512 0.4792
vn 0.7264 0.6472 0.2312
vn 0.5750 0.8080 0.1287
vn 0.7754 0.5765 -0.2575
vn 0.6545 0.7464 -0.1205
vn 0.7264 0.6472 0.2312
vn 0.7264 0.6472 0.2312
vn 0.7230 0.6681 0.1759
vn 0.7754 0.5765 -0.2575
vn 0.5750 0.8080 0.1287
vn 0.7264 0.6472 0.2312
vn 0.6545 0.7464 -0.1205
vn 0.6545 0.7464 -0.1205
vn 0.4480 0.8908 -0.0763
vn 0.5750 0.8080 0.1287
vn 0.7754 0.5765 -0.2575
vn 0.4708 0.6322 -0.6154
vn 0.4133 0.7621 -0.4983
vn 0.4133 0.7621 -0.4983
vn 0.6545 0.7464 -0.1205
vn 0.7754 0.5765 -0.2575
vn 0.1982 0.6741 -0.7115
vn 0.1767 0.7677 -0.6160
vn 0.4133 0.7621 -0.4983
vn 0.4133 0.7621 -0.4983
vn 0.4708 0.6322 -0.6154
vn 0.1982 0.6741 -0.7115
vn 0.1767 0.7677 -0.6160
vn 0.0379 0.7891 -0.6132
vn 0.0294 0.9131 -0.4067
vn 0.0294 0.9131 -0.4067
vn 0.1345 0.9088 -0.3949
vn 0.1767 0.7677 -0.6160
vn 0.0451 0.7450 -0.6655
vn 0.0379 0.7891 -0.6132
vn 0.1767 0.7677 -0.6160
vn 0.1767 0.7677 -0.6160
vn 0.1982 0.6741 -0.7115
vn 0.0451 0.7450 -0.6655
vn 0.0379 0.7891 -0.6132
vn -0.1336 0.8369 -0.5308
vn -0.0895 0.9284 -0.3607
vn -0.0895 0.9284 -0.3607
vn 0.0294 0.9131 -0.4067
vn 0.0379 0.7891 -0.6132
vn -0.1477 0.8076 -0.5709
vn -0.1336 0.8369 -0.5308
vn 0.0379 0.7891 -0.6132
vn 0.0379 0.7891 -0.6132
vn 0.0451 0.7450 -0.6655
vn -0.1477 0.8076 -0.5709
vn -0.1336 0.8369 -0.5308
vn -0.2585 0.8785 -0.4018
vn -0.1826 0.9431 -0.2780
vn -0.1826 0.9431 -0.2780
vn -0.0895 0.9284 -0.3607
vn -0.1336 0.8369 -0.5308
vn -0.2944 0.8499 -0.4370
vn -0.2585 0.8785 -0.4018
vn -0.1336 0.8369 -0.5308
vn -0.1336 0.8369 -0.5308
vn -0.1477 0.8076 -0.5709
vn -0.2944 0.8499 -0.4370
vn -0.4193 0.8733 -0.2482
vn -0.3466 0.9088 -0.2322
vn -0.2585 0.8785 -0.4018
vn -0.2585 0.8785 -0.4018
vn -0.2944 0.8499 -0.4370
vn -0.4193 0.8733 -0.2482
vn -0.3466 0.9088 -0.2322
vn -0.3935 0.9191 -0.0183
vn -0.3092 0.9507 0.0216
vn -0.3092 0.9507 0.0216
vn -0.2546 0.9536 -0.1606
vn -0.3466 0.9088 -0.2322
vn -0.4867 0.8735 -0.0086
vn -0.3935 0.9191 -0.0183
vn -0.3466 0.9088 -0.2322
vn -0.3466 0.9088 -0.2322
vn -0.4193 0.8733 -0.2482
vn -0.4867 0.8735 -0.0086
vn -0.4381 0.8730 0.2144
vn -0.3878 0.9058 0.1708
vn -0.3935 0.9191 -0.0183
vn -0.3935 0.9191 -0.0183
vn -0.4867 0.8735 -0.0086
vn -0.4381 0.8730 0.2144
vn -0.4381 0.8730 0.2144
vn -0.3204 0.8679 0.3797
vn -0.3474 0.8786 0.3276
vn -0.3474 0.8786 0.3276
vn -0.3878 0.9058 0.1708
vn -0.4381 0.8730 0.2144
vn -0.3474 0.8786 0.3276
vn -0.2790 0.8233 0.4942
vn -0.2984 0.8764 0.3780
vn -0.2984 0.8764 0.3780
vn -0.3270 0.9202 0.2153
vn -0.3474 0.8786 0.3276
vn -0.1941 0.8395 0.5075
vn -0.2790 0.8233 0.4942
vn -0.3474 0.8786 0.3276
vn -0.3474 0.8786 0.3276
vn -0.3204 0.8679 0.3797
vn -0.1941 0.8395 0.5075
vn -0.2790 0.8233 0.4942
vn -0.1743 0.7474 0.6411
vn -0.2257 0.8266 0.5156
vn -0.2257 0.8266 0.5156
vn -0.2984 0.8764 0.3780
vn -0.2790 0.8233 0.4942
vn -0.0701 0.7779 0.6244
vn -0.1743 0.7474 0.6411
vn -0.2790 0.8233 0.4942
vn -0.2790 0.8233 0.4942
vn -0.1941 0.8395 0.5075
vn -0.0701 0.7779 0.6244
vn -0.1743 0.7474 0.6411
vn 0.0182 0.6522 0.7578
vn -0.1211 0.7874 0.6044
vn -0.1211 0.7874 0.6044
vn -0.2257 0.8266 0.5156
vn -0.1743 0.7474 0.6411
vn 0.1058 0.6940 0.7122
vn 0.0182 0.6522 0.7578
vn -0.1743 0.7474 0.6411
vn -0.1743 0.7474 0.6411
vn -0.0701 0.7779 0.6244
vn 0.1058 0.6940 0.7122
vn 0.0716 0.7468 0.6612
vn -0.1211 0.7874 0.6044
vn 0.0182 0.6522 0.7578
vn 0.3572 0.6126 0.7051
vn 0.4084 0.5368 0.7383
vn 0.0182 0.6522 0.7578
vn 0.0182 0.6522 0.7578
vn 0.1058 0.6940 0.7122
vn 0.3572 0.6126 0.7051
vn 0.0716 0.7468 0.6612
vn 0.0182 0.6522 0.7578
vn 0.4084 0.5368 0.7383
vn 0.4084 0.5368 0.7383
vn 0.3286 0.7446 0.5811
vn 0.0716 0.7468 0.6612
vn 0.5831 0.6499 0.4876
vn 0.6831 0.5512 0.4792
vn 0.4084 0.5368 0.7383
vn 0.4084 0.5368 0.7383
vn 0.3572 0.6126 0.7051
vn 0.5831 0.6499 0.4876
vn 0.3286 0.7446 0.5811
vn 0.4084 0.5368 0.7383
vn 0.6831 0.5512 0.4792
vn 0.6831 0.5512 0.4792
vn 0.5397 0.7663 0.3485
vn 0.3286 0.7446 0.5811
vn 0.0313 0.9951 0.0941
vn 0.5397 0.7663 0.3485
vn 0.5750 0.8080 0.1287
vn 0.0313 0.9951 0.0941
vn 0.3286 0.7446 0.5811
vn 0.5397 0.7663 0.3485
vn 0.0313 0.9951 0.0941
vn 0.0716 0.7468 0.6612
vn 0.3286 0.7446 0.5811
vn 0.0313 0.9951 0.0941
vn -0.1211 0.7874 0.6044
vn 0.0716 0.7468 0.6612
vn 0.0313 0.9951 0.0941
vn -0.2257 0.8266 0.5156
vn -0.1211 0.7874 0.6044
vn 0.0313 0.9951 0.0941
vn -0.2984 0.8764 0.3780
vn -0.2257 0.8266 0.5156
vn 0.0313 0.9951 0.0941
vn -0.3270 0.9202 0.2153
vn -0.2984 0.8764 0.3780
vn 0.0313 0.9951 0.0941
vn -0.3092 0.9507 0.0216
vn -0.3270 0.9202 0.2153
vn 0.0313 0.9951 0.0941
vn -0.2546 0.9536 -0.1606
vn -0.3092 0.9507 0.0216
vn 0.0313 0.9951 0.0941
vn -0.1826 0.9431 -0.2780
vn -0.2546 0.9536 -0.1606
vn 0.0313 0.9951 0.0941
vn -0.0895 0.9284 -0.3607
vn -0.1826 0.9431 -0.2780
vn 0.0313 0.9951 0.0941
vn 0.0294 0.9131 -0.4067
vn -0.0895 0.9284 -0.3607
vn 0.0313 0.9951 0.0941
vn 0.1345 0.9088 -0.3949
vn 0.0294 0.9131 -0.4067
vn 0.0313 0.9951 0.0941
vn 0.2582 0.9173 -0.3033
vn 0.1345 0.9088 -0.3949
vn 0.0313 0.9951 0.0941
vn 0.4480 0.8908 -0.0763
vn 0.2582 0.9173 -0.3033
vn 0.5750 0.8080 0.1287
vn 0.4480 0.8908 -0.0763
vn 0.0313 0.9951 0.0941
vn 0.7230 0.6681 0.1759
vn 0.7264 0.6472 0.2312
vn 0.6831 0.5512 0.4792
vn 0.6831 0.5512 0.4792
vn 0.5831 0.6499 0.4876
vn 0.7230 0.6681 0.1759
vn 0.2582 0.9173 -0.3033
vn 0.4480 0.8908 -0.0763
vn 0.6545 0.7464 -0.1205
vn 0.6545 0.7464 -0.1205
vn 0.4133 0.7621 -0.4983
vn 0.2582 0.9173 -0.3033
vn 0.1345 0.9088 -0.3949
vn 0.2582 0.9173 -0.3033
vn 0.4133 0.7621 -0.4983
vn 0.4133 0.7621 -0.4983
vn 0.1767 0.7677 -0.6160
vn 0.1345 0.9088 -0.3949
vn -0.2546 0.9536 -0.1606
vn -0.1826 0.9431 -0.2780
vn -0.2585 0.8785 -0.4018
vn -0.2585 0.8785 -0.4018
vn -0.3466 0.9088 -0.2322
vn -0.2546 0.9536 -0.1606
vn -0.3878 0.9058 0.1708
vn -0.3092 0.9507 0.0216
vn -0.3935 0.9191 -0.0183
vn -0.3270 0.9202 0.2153
vn -0.3092 0.9507 0.0216
vn -0.3878 0.9058 0.1708
vn -0.3878 0.9058 0.1708
vn -0.3474 0.8786 0.3276
vn -0.3270 0.9202 0.2153
# 432 vertex normals

vt 0.7922 0.2773 0.0000
vt 0.8170 0.2774 0.0000
vt 0.7942 0.2735 0.0000
vt 0.7770 0.2707 0.0000
vt 0.7810 0.2647 0.0000
vt 0.7733 0.2501 0.0000
vt 0.7795 0.2496 0.0000
vt 0.7820 0.2317 0.0000
vt 0.7779 0.2301 0.0000
vt 0.7867 0.2189 0.0000
vt 0.7828 0.2149 0.0000
vt 0.7956 0.2088 0.0000
vt 0.7931 0.1995 0.0000
vt 0.8075 0.2021 0.0000
vt 0.8077 0.1941 0.0000
vt 0.8200 0.2007 0.0000
vt 0.8226 0.1931 0.0000
vt 0.8374 0.1968 0.0000
vt 0.8319 0.2049 0.0000
vt 0.8516 0.2054 0.0000
vt 0.8411 0.2128 0.0000
vt 0.8558 0.2204 0.0000
vt 0.8471 0.2237 0.0000
vt 0.8556 0.2364 0.0000
vt 0.8485 0.2371 0.0000
vt 0.8514 0.2507 0.0000
vt 0.8451 0.2494 0.0000
vt 0.8446 0.2625 0.0000
vt 0.8389 0.2596 0.0000
vt 0.8339 0.2727 0.0000
vt 0.8297 0.2679 0.0000
vt 0.8158 0.2743 0.0000
vt 0.7974 0.2677 0.0000
vt 0.7877 0.2607 0.0000
vt 0.7847 0.2498 0.0000
vt 0.7864 0.2342 0.0000
vt 0.7902 0.2237 0.0000
vt 0.7978 0.2152 0.0000
vt 0.8078 0.2099 0.0000
vt 0.8183 0.2087 0.0000
vt 0.8279 0.2117 0.0000
vt 0.8353 0.2182 0.0000
vt 0.8400 0.2275 0.0000
vt 0.8412 0.2385 0.0000
vt 0.8390 0.2489 0.0000
vt 0.8337 0.2575 0.0000
vt 0.8254 0.2646 0.0000
vt 0.8140 0.2679 0.0000
vt 0.8057 0.2578 0.0000
vt 0.8016 0.2544 0.0000
vt 0.8006 0.2498 0.0000
vt 0.7996 0.2451 0.0000
vt 0.8004 0.2410 0.0000
vt 0.8033 0.2378 0.0000
vt 0.8064 0.2358 0.0000
vt 0.8104 0.2353 0.0000
vt 0.8142 0.2366 0.0000
vt 0.8172 0.2392 0.0000
vt 0.8191 0.2429 0.0000
vt 0.8195 0.2477 0.0000
vt 0.8188 0.2509 0.0000
vt 0.8179 0.2545 0.0000
vt 0.8141 0.2585 0.0000
vt 0.8096 0.2586 0.0000
vt 0.8109 0.2492 0.0000
vt 0.8020 0.2624 0.0000
vt 0.7974 0.2570 0.0000
vt 0.7927 0.2503 0.0000
vt 0.7937 0.2386 0.0000
vt 0.7959 0.2313 0.0000
vt 0.8008 0.2255 0.0000
vt 0.8075 0.2218 0.0000
vt 0.8147 0.2208 0.0000
vt 0.8214 0.2228 0.0000
vt 0.8250 0.2259 0.0000
vt 0.8290 0.2319 0.0000
vt 0.8307 0.2393 0.0000
vt 0.8299 0.2468 0.0000
vt 0.8271 0.2535 0.0000
vt 0.8204 0.2599 0.0000
vt 0.8124 0.2634 0.0000
# 81 texture coords

o SM_Barnacle_10_LOD0
g SM_Barnacle_10_LOD0
usemtl MAT_Sea_Shells
s 1
f 24/3/1 2/2/2 1/1/3 
f 3/4/4 24/3/5 1/1/6 
f 26/5/7 24/3/8 3/4/9 
f 4/6/10 26/5/11 3/4/12 
f 5/7/13 26/5/14 4/6/15 
f 29/8/16 5/7/17 4/6/18 
f 6/9/19 29/8/20 4/6/21 
f 31/10/22 29/8/23 6/9/24 
f 7/11/25 31/10/26 6/9/27 
f 32/12/28 31/10/29 7/11/30 
f 8/13/31 32/12/32 7/11/33 
f 9/14/34 32/12/35 8/13/36 
f 10/15/37 9/14/38 8/13/39 
f 34/16/40 9/14/41 10/15/42 
f 11/17/43 34/16/44 10/15/45 
f 12/18/46 34/16/47 11/17/48 
f 36/19/49 34/16/50 12/18/51 
f 13/20/52 36/19/53 12/18/54 
f 15/21/55 36/19/56 13/20/57 
f 14/22/58 15/21/59 13/20/60 
f 16/23/61 15/21/62 14/22/63 
f 17/24/64 16/23/65 14/22/66 
f 40/25/67 16/23/68 17/24/69 
f 18/26/70 40/25/71 17/24/72 
f 20/27/73 40/25/74 18/26/75 
f 19/28/76 20/27/77 18/26/78 
f 41/29/79 20/27/80 19/28/81 
f 21/30/82 41/29/83 19/28/84 
f 22/31/85 41/29/86 21/30/87 
f 23/32/88 22/31/89 21/30/90 
f 2/2/91 23/32/92 21/30/93 
f 24/3/94 23/32/95 2/2/96 
f 25/33/97 23/32/98 24/3/99 
f 26/5/100 25/33/101 24/3/102 
f 27/34/103 25/33/104 26/5/105 
f 28/35/106 27/34/107 26/5/108 
f 5/7/109 28/35/110 26/5/111 
f 45/36/112 28/35/113 5/7/114 
f 29/8/115 45/36/116 5/7/117 
f 30/37/118 45/36/119 29/8/120 
f 31/10/121 30/37/122 29/8/123 
f 47/38/124 30/37/125 31/10/126 
f 32/12/127 47/38/128 31/10/129 
f 33/39/130 47/38/131 32/12/132 
f 9/14/133 33/39/134 32/12/135 
f 35/40/136 33/39/137 9/14/138 
f 34/16/139 35/40/140 9/14/141 
f 37/41/142 35/40/143 34/16/144 
f 36/19/145 37/41/146 34/16/147 
f 15/21/148 37/41/149 36/19/150 
f 38/42/151 37/41/152 15/21/153 
f 16/23/154 38/42/155 15/21/156 
f 39/43/157 38/42/158 16/23/159 
f 40/25/160 39/43/161 16/23/162 
f 49/44/163 39/43/164 40/25/165 
f 20/27/166 49/44/167 40/25/168 
f 51/45/169 49/44/170 20/27/171 
f 41/29/172 51/45/173 20/27/174 
f 54/46/175 51/45/176 41/29/177 
f 22/31/178 54/46/179 41/29/180 
f 42/47/181 54/46/182 22/31/183 
f 23/32/184 42/47/185 22/31/186 
f 55/48/187 42/47/188 23/32/189 
f 25/33/190 55/48/191 23/32/192 
f 43/49/193 56/64/194 81/81/195 
f 81/81/196 66/66/197 43/49/198 
f 27/34/199 67/67/200 66/66/201 
f 66/66/202 25/33/203 27/34/204 
f 43/49/205 66/66/206 67/67/207 
f 67/67/208 65/50/209 43/49/210 
f 27/34/211 28/35/212 68/68/213 
f 68/68/214 67/67/215 27/34/216 
f 45/36/217 69/69/218 68/68/219 
f 68/68/220 28/35/221 45/36/222 
f 69/69/223 70/70/224 46/53/225 
f 46/53/226 64/52/227 69/69/228 
f 30/37/229 70/70/230 69/69/231 
f 69/69/232 45/36/233 30/37/234 
f 70/70/235 71/71/236 63/54/237 
f 63/54/238 46/53/239 70/70/240 
f 47/38/241 71/71/242 70/70/243 
f 70/70/244 30/37/245 47/38/246 
f 71/71/247 72/72/248 62/55/249 
f 62/55/250 63/54/251 71/71/252 
f 33/39/253 72/72/254 71/71/255 
f 71/71/256 47/38/257 33/39/258 
f 35/40/259 73/73/260 72/72/261 
f 72/72/262 33/39/263 35/40/264 
f 73/73/265 74/74/266 48/57/267 
f 48/57/268 61/56/269 73/73/270 
f 37/41/271 74/74/272 73/73/273 
f 73/73/274 35/40/275 37/41/276 
f 38/42/277 75/75/278 74/74/279 
f 74/74/280 37/41/281 38/42/282 
f 38/42/283 39/43/284 76/76/285 
f 76/76/286 75/75/287 38/42/288 
f 76/76/289 77/77/290 50/59/291 
f 50/59/292 59/58/293 76/76/294 
f 49/44/295 77/77/296 76/76/297 
f 76/76/298 39/43/299 49/44/300 
f 77/77/301 78/78/302 52/60/303 
f 52/60/304 50/59/305 77/77/306 
f 51/45/307 78/78/308 77/77/309 
f 77/77/310 49/44/311 51/45/312 
f 78/78/313 79/79/314 53/61/315 
f 53/61/316 52/60/317 78/78/318 
f 54/46/319 79/79/320 78/78/321 
f 78/78/322 51/45/323 54/46/324 
f 58/62/325 53/61/326 79/79/327 
f 42/47/328 80/80/329 79/79/330 
f 79/79/331 54/46/332 42/47/333 
f 58/62/334 79/79/335 80/80/336 
f 80/80/337 57/63/338 58/62/339 
f 55/48/340 81/81/341 80/80/342 
f 80/80/343 42/47/344 55/48/345 
f 57/63/346 80/80/347 81/81/348 
f 81/81/349 56/64/350 57/63/351 
f 60/65/352 56/64/353 43/49/354 
f 60/65/355 57/63/356 56/64/357 
f 60/65/358 58/62/359 57/63/360 
f 60/65/361 53/61/362 58/62/363 
f 60/65/364 52/60/365 53/61/366 
f 60/65/367 50/59/368 52/60/369 
f 60/65/370 59/58/371 50/59/372 
f 60/65/373 48/57/374 59/58/375 
f 60/65/376 61/56/377 48/57/378 
f 60/65/379 62/55/380 61/56/381 
f 60/65/382 63/54/383 62/55/384 
f 60/65/385 46/53/386 63/54/387 
f 60/65/388 64/52/389 46/53/390 
f 60/65/391 44/51/392 64/52/393 
f 60/65/394 65/50/395 44/51/396 
f 43/49/397 65/50/398 60/65/399 
f 25/33/400 66/66/401 81/81/402 
f 81/81/403 55/48/404 25/33/405 
f 44/51/406 65/50/407 67/67/408 
f 67/67/409 68/68/410 44/51/411 
f 64/52/412 44/51/413 68/68/414 
f 68/68/415 69/69/416 64/52/417 
f 61/56/418 62/55/419 72/72/420 
f 72/72/421 73/73/422 61/56/423 
f 75/75/424 48/57/425 74/74/426 
f 59/58/427 48/57/428 75/75/429 
f 75/75/430 76/76/431 59/58/432 
# 144 faces

#
# object SM_Barnacle_10_LOD1
#

v  -3.4958 -0.0000 -3.2508
v  1.0594 0.0000 4.0576
v  4.7653 0.0000 -1.4706
v  -4.8633 0.0000 1.5390
v  2.5154 2.1096 1.1697
v  -0.0168 -0.0000 -4.2090
v  5.1740 0.0000 0.3983
v  1.3738 2.0380 -0.9965
v  0.3169 2.0297 1.1615
v  -2.1435 0.0000 3.9973
v  3.7963 -0.0000 -3.0522
v  2.2866 0.6576 2.5190
v  3.5880 1.5051 -0.5202
v  -5.1740 0.0000 -0.1603
v  3.9866 0.0000 2.4717
v  1.6248 2.4969 0.7501
v  -1.8117 -0.0000 -4.0391
v  0.3775 2.0458 -0.6923
v  1.2306 2.0152 1.7047
v  -1.7017 0.1231 3.3064
v  0.1281 0.1125 -3.5964
v  -4.6136 0.0000 -1.9336
v  -3.0112 0.1484 2.4569
v  -3.7153 0.0000 3.0231
v  3.4462 0.1502 -2.5064
v  1.0563 0.1238 3.4376
v  -4.0731 0.1823 -0.1721
v  0.8263 1.3172 -2.2186
v  4.3021 0.1756 -1.2422
v  -1.7542 1.4393 -0.1773
v  2.4623 0.0000 3.5576
v  4.1027 0.7603 0.3101
v  2.1920 2.0755 1.5442
v  3.0676 1.4295 -1.4378
v  -3.7765 0.1726 -1.6213
v  -2.8284 0.1485 -2.7439
v  -3.8041 0.1726 1.2260
v  -1.5194 1.4056 -0.9954
v  -1.4081 0.1232 -3.4349
v  -0.4401 0.0000 4.2090
v  2.6089 2.1168 0.0768
v  3.6376 0.1756 2.0765
v  -0.2550 0.1125 3.5621
v  2.9176 1.4910 1.3653
v  3.2195 0.7280 1.5989
v  -0.1038 1.3194 -2.1040
v  0.3149 1.3223 2.1324
v  2.3052 0.1502 2.9705
v  4.6948 0.1860 0.3220
v  4.0225 0.7338 -1.0367
v  -0.0556 2.0600 0.2059
v  1.5881 0.1238 -3.2042
v  -1.2218 1.3790 1.1688
v  3.2133 1.4764 0.4558
v  -3.2433 0.7189 -0.1723
v  -0.9353 1.3579 -1.6693
v  -2.9952 0.6953 0.9739
v  -0.5244 1.3328 1.7697
v  1.7361 2.0382 1.7244
v  1.1775 1.3466 2.2517
v  2.6618 2.1250 0.6518
v  1.9029 2.0587 -0.8238
v  -2.9479 0.6956 -1.3267
v  1.7302 1.3653 -1.9848
v  2.3456 2.0902 -0.4464
# 65 vertices

vn 0.4143 0.7537 -0.5102
vn 0.1770 0.7604 -0.6249
vn 0.1477 0.9124 -0.3819
vn 0.1477 0.9124 -0.3819
vn 0.2733 0.9215 -0.2760
vn 0.4143 0.7537 -0.5102
vn -0.3440 0.9082 -0.2385
vn -0.4170 0.8750 -0.2459
vn -0.4865 0.8737 -0.0079
vn -0.4865 0.8737 -0.0079
vn -0.3876 0.9218 0.0012
vn -0.3440 0.9082 -0.2385
vn -0.1153 0.9440 0.3092
vn -0.2799 0.8156 0.5064
vn -0.3531 0.8828 0.3098
vn -0.3531 0.8828 0.3098
vn -0.2134 0.9480 0.2362
vn -0.1153 0.9440 0.3092
vn 0.6861 0.7155 0.1315
vn 0.7332 0.6421 0.2240
vn 0.6797 0.5464 0.4893
vn 0.6797 0.5464 0.4893
vn 0.5919 0.6152 0.5207
vn 0.6861 0.7155 0.1315
vn 0.7779 0.5750 -0.2536
vn 0.7612 0.6483 -0.0143
vn 0.7332 0.6421 0.2240
vn 0.7332 0.6421 0.2240
vn 0.6861 0.7155 0.1315
vn 0.7779 0.5750 -0.2536
vn -0.1984 0.9405 -0.2758
vn -0.2562 0.8774 -0.4056
vn -0.1334 0.8443 -0.5189
vn -0.1334 0.8443 -0.5189
vn -0.1002 0.9288 -0.3568
vn -0.1984 0.9405 -0.2758
vn 0.4143 0.7537 -0.5102
vn 0.2730 0.8799 -0.3888
vn 0.1453 0.8635 -0.4829
vn 0.1453 0.8635 -0.4829
vn 0.1770 0.7604 -0.6249
vn 0.4143 0.7537 -0.5102
vn 0.0254 0.9952 0.0945
vn -0.1811 0.9462 -0.2683
vn -0.3072 0.9516 0.0103
vn 0.3658 0.6134 0.6999
vn 0.3464 0.7435 0.5720
vn 0.0832 0.7509 0.6551
vn 0.0832 0.7509 0.6551
vn 0.0098 0.6389 0.7692
vn 0.3658 0.6134 0.6999
vn -0.1153 0.9440 0.3092
vn -0.2134 0.9480 0.2362
vn -0.0521 0.9876 0.1480
vn 0.0768 0.8909 0.4476
vn 0.0098 0.6389 0.7692
vn -0.1799 0.7362 0.6524
vn -0.1799 0.7362 0.6524
vn -0.0260 0.9221 0.3861
vn 0.0768 0.8909 0.4476
vn 0.3585 0.8711 0.3358
vn 0.2179 0.8554 0.4699
vn 0.0979 0.9699 0.2231
vn 0.4143 0.7537 -0.5102
vn 0.7612 0.6483 -0.0143
vn 0.7779 0.5750 -0.2536
vn 0.7779 0.5750 -0.2536
vn 0.2730 0.8799 -0.3888
vn 0.4143 0.7537 -0.5102
vn -0.3876 0.9218 0.0012
vn -0.4865 0.8737 -0.0079
vn -0.4349 0.8745 0.2147
vn 0.6861 0.7155 0.1315
vn 0.5919 0.6152 0.5207
vn 0.3585 0.8711 0.3358
vn 0.0254 0.9952 0.0945
vn -0.1443 0.7963 0.5874
vn 0.0832 0.7509 0.6551
vn 0.5670 0.8153 0.1179
vn 0.7332 0.6421 0.2240
vn 0.7612 0.6483 -0.0143
vn 0.7612 0.6483 -0.0143
vn 0.3834 0.9139 -0.1333
vn 0.5670 0.8153 0.1179
vn -0.4170 0.8750 -0.2459
vn -0.3440 0.9082 -0.2385
vn -0.2562 0.8774 -0.4056
vn -0.2562 0.8774 -0.4056
vn -0.1984 0.9405 -0.2758
vn -0.4170 0.8750 -0.2459
vn 0.0254 0.9952 0.0945
vn 0.0142 0.9162 -0.4005
vn -0.1811 0.9462 -0.2683
vn -0.2799 0.8156 0.5064
vn -0.1153 0.9440 0.3092
vn -0.0260 0.9221 0.3861
vn -0.0260 0.9221 0.3861
vn -0.1799 0.7362 0.6524
vn -0.2799 0.8156 0.5064
vn 0.0254 0.9952 0.0945
vn -0.3070 0.8919 0.3319
vn -0.1443 0.7963 0.5874
vn -0.0054 0.9855 0.1694
vn -0.1153 0.9440 0.3092
vn -0.0521 0.9876 0.1480
vn 0.0768 0.8909 0.4476
vn -0.0260 0.9221 0.3861
vn 0.0367 0.9806 0.1924
vn -0.0479 0.9835 -0.1742
vn -0.1002 0.9288 -0.3568
vn 0.0110 0.9820 -0.1885
vn 0.0110 0.9820 -0.1885
vn 0.1453 0.8635 -0.4829
vn 0.1358 0.9720 -0.1916
vn -0.1665 0.9860 -0.0063
vn -0.2948 0.9424 -0.1577
vn -0.1688 0.9815 -0.0899
vn -0.1116 0.9864 0.1210
vn -0.3011 0.9440 0.1348
vn -0.1446 0.9874 0.0639
vn -0.3011 0.9440 0.1348
vn -0.3374 0.9414 -0.0038
vn -0.1446 0.9874 0.0639
vn -0.0521 0.9876 0.1480
vn -0.2134 0.9480 0.2362
vn -0.1116 0.9864 0.1210
vn 0.1453 0.8635 -0.4829
vn 0.2730 0.8799 -0.3888
vn 0.1358 0.9720 -0.1916
vn 0.2730 0.8799 -0.3888
vn 0.5378 0.8128 -0.2240
vn 0.1358 0.9720 -0.1916
vn 0.3585 0.8711 0.3358
vn 0.3658 0.6134 0.6999
vn 0.2179 0.8554 0.4699
vn 0.0098 0.6389 0.7692
vn 0.0768 0.8909 0.4476
vn 0.3658 0.6134 0.6999
vn -0.1446 0.9874 0.0639
vn -0.3374 0.9414 -0.0038
vn -0.1665 0.9860 -0.0063
vn -0.3374 0.9414 -0.0038
vn -0.2948 0.9424 -0.1577
vn -0.1665 0.9860 -0.0063
vn -0.1334 0.8443 -0.5189
vn -0.2562 0.8774 -0.4056
vn -0.1811 0.9462 -0.2683
vn -0.1811 0.9462 -0.2683
vn 0.0142 0.9162 -0.4005
vn -0.1334 0.8443 -0.5189
vn 0.1358 0.9720 -0.1916
vn 0.5378 0.8128 -0.2240
vn 0.3006 0.9450 -0.1291
vn 0.5378 0.8128 -0.2240
vn 0.4927 0.8675 0.0685
vn 0.3006 0.9450 -0.1291
vn 0.0254 0.9952 0.0945
vn -0.3072 0.9516 0.0103
vn -0.3070 0.8919 0.3319
vn -0.4349 0.8745 0.2147
vn -0.2134 0.9480 0.2362
vn -0.3531 0.8828 0.3098
vn -0.3531 0.8828 0.3098
vn -0.3876 0.9218 0.0012
vn -0.4349 0.8745 0.2147
vn 0.0979 0.9699 0.2231
vn 0.0768 0.8909 0.4476
vn 0.0367 0.9806 0.1924
vn 0.5378 0.8128 -0.2240
vn 0.6861 0.7155 0.1315
vn 0.4927 0.8675 0.0685
vn 0.6861 0.7155 0.1315
vn 0.3585 0.8711 0.3358
vn 0.4927 0.8675 0.0685
vn 0.6797 0.5464 0.4893
vn 0.5423 0.7713 0.3333
vn 0.3464 0.7435 0.5720
vn 0.3464 0.7435 0.5720
vn 0.3658 0.6134 0.6999
vn 0.6797 0.5464 0.4893
vn 0.0254 0.9952 0.0945
vn 0.3464 0.7435 0.5720
vn 0.5423 0.7713 0.3333
vn 0.2733 0.9215 -0.2760
vn 0.3834 0.9139 -0.1333
vn 0.7612 0.6483 -0.0143
vn 0.7612 0.6483 -0.0143
vn 0.4143 0.7537 -0.5102
vn 0.2733 0.9215 -0.2760
vn -0.1688 0.9815 -0.0899
vn -0.2948 0.9424 -0.1577
vn -0.1133 0.9825 -0.1476
vn -0.2948 0.9424 -0.1577
vn -0.1984 0.9405 -0.2758
vn -0.1133 0.9825 -0.1476
vn -0.1133 0.9825 -0.1476
vn -0.1984 0.9405 -0.2758
vn -0.0479 0.9835 -0.1742
vn -0.1984 0.9405 -0.2758
vn -0.1002 0.9288 -0.3568
vn -0.0479 0.9835 -0.1742
vn -0.2134 0.9480 0.2362
vn -0.3011 0.9440 0.1348
vn -0.1116 0.9864 0.1210
vn -0.3440 0.9082 -0.2385
vn -0.3876 0.9218 0.0012
vn -0.3072 0.9516 0.0103
vn -0.3072 0.9516 0.0103
vn -0.1811 0.9462 -0.2683
vn -0.3440 0.9082 -0.2385
vn -0.1002 0.9288 -0.3568
vn -0.1334 0.8443 -0.5189
vn 0.0320 0.7981 -0.6017
vn 0.0320 0.7981 -0.6017
vn 0.0217 0.9089 -0.4164
vn -0.1002 0.9288 -0.3568
vn -0.1002 0.9288 -0.3568
vn 0.0217 0.9089 -0.4164
vn 0.0110 0.9820 -0.1885
vn 0.0367 0.9806 0.1924
vn -0.0260 0.9221 0.3861
vn -0.0054 0.9855 0.1694
vn 0.0254 0.9952 0.0945
vn 0.2733 0.9215 -0.2760
vn 0.1477 0.9124 -0.3819
vn 0.5670 0.8153 0.1179
vn 0.3834 0.9139 -0.1333
vn 0.0254 0.9952 0.0945
vn 0.4927 0.8675 0.0685
vn 0.3585 0.8711 0.3358
vn 0.2324 0.9472 0.2211
vn 0.2324 0.9472 0.2211
vn 0.3585 0.8711 0.3358
vn 0.0979 0.9699 0.2231
vn -0.0260 0.9221 0.3861
vn -0.1153 0.9440 0.3092
vn -0.0054 0.9855 0.1694
vn 0.5919 0.6152 0.5207
vn 0.6797 0.5464 0.4893
vn 0.3658 0.6134 0.6999
vn 0.5919 0.6152 0.5207
vn 0.3658 0.6134 0.6999
vn 0.3585 0.8711 0.3358
vn 0.0320 0.7981 -0.6017
vn -0.1334 0.8443 -0.5189
vn 0.0142 0.9162 -0.4005
vn -0.1443 0.7963 0.5874
vn -0.3070 0.8919 0.3319
vn -0.2799 0.8156 0.5064
vn -0.2799 0.8156 0.5064
vn -0.1799 0.7362 0.6524
vn -0.1443 0.7963 0.5874
vn 0.3658 0.6134 0.6999
vn 0.0768 0.8909 0.4476
vn 0.2179 0.8554 0.4699
vn 0.2179 0.8554 0.4699
vn 0.0768 0.8909 0.4476
vn 0.0979 0.9699 0.2231
vn 0.3006 0.9450 -0.1291
vn 0.4927 0.8675 0.0685
vn 0.3537 0.9338 0.0546
vn 0.4927 0.8675 0.0685
vn 0.2324 0.9472 0.2211
vn 0.3537 0.9338 0.0546
vn 0.2730 0.8799 -0.3888
vn 0.7779 0.5750 -0.2536
vn 0.5378 0.8128 -0.2240
vn 0.7779 0.5750 -0.2536
vn 0.6861 0.7155 0.1315
vn 0.5378 0.8128 -0.2240
vn -0.3876 0.9218 0.0012
vn -0.3531 0.8828 0.3098
vn -0.3070 0.8919 0.3319
vn -0.3070 0.8919 0.3319
vn -0.3072 0.9516 0.0103
vn -0.3876 0.9218 0.0012
vn 0.0217 0.9089 -0.4164
vn 0.0320 0.7981 -0.6017
vn 0.1770 0.7604 -0.6249
vn 0.1770 0.7604 -0.6249
vn 0.1453 0.8635 -0.4829
vn 0.0217 0.9089 -0.4164
vn 0.0217 0.9089 -0.4164
vn 0.1453 0.8635 -0.4829
vn 0.0110 0.9820 -0.1885
vn 0.5670 0.8153 0.1179
vn 0.5423 0.7713 0.3333
vn 0.6797 0.5464 0.4893
vn 0.6797 0.5464 0.4893
vn 0.7332 0.6421 0.2240
vn 0.5670 0.8153 0.1179
vn -0.3011 0.9440 0.1348
vn -0.4865 0.8737 -0.0079
vn -0.3374 0.9414 -0.0038
vn -0.3374 0.9414 -0.0038
vn -0.4865 0.8737 -0.0079
vn -0.2948 0.9424 -0.1577
vn -0.2562 0.8774 -0.4056
vn -0.3440 0.9082 -0.2385
vn -0.1811 0.9462 -0.2683
vn -0.2134 0.9480 0.2362
vn -0.4349 0.8745 0.2147
vn -0.3011 0.9440 0.1348
vn -0.4349 0.8745 0.2147
vn -0.4865 0.8737 -0.0079
vn -0.3011 0.9440 0.1348
vn -0.3531 0.8828 0.3098
vn -0.2799 0.8156 0.5064
vn -0.3070 0.8919 0.3319
vn 0.0254 0.9952 0.0945
vn 0.0832 0.7509 0.6551
vn 0.3464 0.7435 0.5720
vn 0.0832 0.7509 0.6551
vn -0.1443 0.7963 0.5874
vn 0.0098 0.6389 0.7692
vn -0.1799 0.7362 0.6524
vn 0.0098 0.6389 0.7692
vn -0.1443 0.7963 0.5874
vn 0.0254 0.9952 0.0945
vn 0.5423 0.7713 0.3333
vn 0.5670 0.8153 0.1179
vn 0.0254 0.9952 0.0945
vn 0.1477 0.9124 -0.3819
vn 0.0142 0.9162 -0.4005
vn 0.1770 0.7604 -0.6249
vn 0.0320 0.7981 -0.6017
vn 0.0142 0.9162 -0.4005
vn 0.0142 0.9162 -0.4005
vn 0.1477 0.9124 -0.3819
vn 0.1770 0.7604 -0.6249
vn -0.4865 0.8737 -0.0079
vn -0.4170 0.8750 -0.2459
vn -0.2948 0.9424 -0.1577
vn -0.2948 0.9424 -0.1577
vn -0.4170 0.8750 -0.2459
vn -0.1984 0.9405 -0.2758
vn 0.0254 0.9952 0.0945
vn 0.3834 0.9139 -0.1333
vn 0.2733 0.9215 -0.2760
# 339 vertex normals

vt 0.8077 0.1941 0.0000
vt 0.8446 0.2625 0.0000
vt 0.7770 0.2707 0.0000
vt 0.8516 0.2054 0.0000
vt 0.8096 0.2586 0.0000
vt 0.7828 0.2149 0.0000
vt 0.7922 0.2773 0.0000
vt 0.8004 0.2410 0.0000
vt 0.8191 0.2429 0.0000
vt 0.8556 0.2364 0.0000
vt 0.7733 0.2501 0.0000
vt 0.8254 0.2646 0.0000
vt 0.7974 0.2570 0.0000
vt 0.8374 0.1968 0.0000
vt 0.8170 0.2774 0.0000
vt 0.8109 0.2492 0.0000
vt 0.7931 0.1995 0.0000
vt 0.8064 0.2358 0.0000
vt 0.8188 0.2509 0.0000
vt 0.8485 0.2371 0.0000
vt 0.7867 0.2189 0.0000
vt 0.8226 0.1931 0.0000
vt 0.8471 0.2237 0.0000
vt 0.8558 0.2204 0.0000
vt 0.7795 0.2496 0.0000
vt 0.8389 0.2596 0.0000
vt 0.8319 0.2049 0.0000
vt 0.7959 0.2313 0.0000
vt 0.7810 0.2647 0.0000
vt 0.8214 0.2228 0.0000
vt 0.8339 0.2727 0.0000
vt 0.7974 0.2677 0.0000
vt 0.8141 0.2585 0.0000
vt 0.7927 0.2503 0.0000
vt 0.8200 0.2007 0.0000
vt 0.8075 0.2021 0.0000
vt 0.8411 0.2128 0.0000
vt 0.8147 0.2208 0.0000
vt 0.7956 0.2088 0.0000
vt 0.8514 0.2507 0.0000
vt 0.8016 0.2544 0.0000
vt 0.8158 0.2743 0.0000
vt 0.8451 0.2494 0.0000
vt 0.8124 0.2634 0.0000
vt 0.8140 0.2679 0.0000
vt 0.8008 0.2255 0.0000
vt 0.8299 0.2468 0.0000
vt 0.8297 0.2679 0.0000
vt 0.7942 0.2735 0.0000
vt 0.7877 0.2607 0.0000
vt 0.8142 0.2366 0.0000
vt 0.7820 0.2317 0.0000
vt 0.8290 0.2319 0.0000
vt 0.8020 0.2624 0.0000
vt 0.8279 0.2117 0.0000
vt 0.8075 0.2218 0.0000
vt 0.8353 0.2182 0.0000
vt 0.8307 0.2393 0.0000
vt 0.8179 0.2545 0.0000
vt 0.8271 0.2535 0.0000
vt 0.8057 0.2578 0.0000
vt 0.7996 0.2451 0.0000
vt 0.8183 0.2087 0.0000
vt 0.7937 0.2386 0.0000
vt 0.8006 0.2498 0.0000
# 65 texture coords

o SM_Barnacle_10_LOD1
g SM_Barnacle_10_LOD1
usemtl MAT_Sea_Shells
s 1
f 115/115/433 145/145/434 143/143/435 
f 143/143/436 146/146/437 115/115/438 
f 119/119/439 144/144/440 136/136/441 
f 136/136/442 111/111/443 119/119/444 
f 101/101/445 139/139/446 134/134/447 
f 134/134/448 104/104/449 101/101/450 
f 113/113/451 135/135/452 125/125/453 
f 125/125/454 126/126/455 113/113/456 
f 131/131/457 94/94/458 135/135/459 
f 135/135/460 113/113/461 131/131/462 
f 117/117/463 137/137/464 127/127/465 
f 127/127/466 120/120/467 117/117/468 
f 115/115/469 106/106/470 133/133/471 
f 133/133/472 145/145/473 115/115/474 
f 97/97/475 99/99/476 132/132/477 
f 93/93/478 114/114/479 140/140/480 
f 140/140/481 141/141/482 93/93/483 
f 101/101/484 104/104/485 91/91/486 
f 107/107/487 141/141/488 128/128/489 
f 128/128/490 124/124/491 107/107/492 
f 123/123/493 129/129/494 112/112/495 
f 115/115/496 94/94/497 131/131/498 
f 131/131/499 106/106/500 115/115/501 
f 111/111/502 136/136/503 138/138/504 
f 113/113/505 126/126/506 123/123/507 
f 97/97/508 100/100/509 140/140/510 
f 142/142/511 135/135/512 94/94/513 
f 94/94/514 122/122/515 142/142/516 
f 144/144/517 119/119/518 137/137/519 
f 137/137/520 117/117/521 144/144/522 
f 97/97/523 89/89/524 99/99/525 
f 139/139/526 101/101/527 124/124/528 
f 124/124/529 128/128/530 139/139/531 
f 97/97/532 90/90/533 100/100/534 
f 121/121/535 101/101/536 91/91/537 
f 107/107/538 124/124/539 83/83/540 
f 98/98/541 120/120/542 87/87/543 
f 87/87/544 133/133/545 92/92/546 
f 95/95/547 116/116/548 103/103/549 
f 105/105/550 118/118/551 85/85/552 
f 118/118/553 108/108/554 85/85/555 
f 91/91/556 104/104/557 105/105/558 
f 133/133/559 106/106/560 92/92/561 
f 106/106/562 110/110/563 92/92/564 
f 123/123/565 93/93/566 129/129/567 
f 141/141/568 107/107/569 93/93/570 
f 85/85/571 108/108/572 95/95/573 
f 108/108/574 116/116/575 95/95/576 
f 127/127/577 137/137/578 99/99/579 
f 99/99/580 89/89/581 127/127/582 
f 92/92/583 110/110/584 84/84/585 
f 110/110/586 130/130/587 84/84/588 
f 97/97/589 132/132/590 90/90/591 
f 138/138/592 104/104/593 134/134/594 
f 134/134/595 111/111/596 138/138/597 
f 112/112/598 107/107/599 83/83/600 
f 110/110/601 113/113/602 130/130/603 
f 113/113/604 123/123/605 130/130/606 
f 125/125/607 86/86/608 114/114/609 
f 114/114/610 93/93/611 125/125/612 
f 97/97/613 114/114/614 86/86/615 
f 146/146/616 122/122/617 94/94/618 
f 94/94/619 115/115/620 146/146/621 
f 103/103/622 116/116/623 82/82/624 
f 116/116/625 117/117/626 82/82/627 
f 82/82/628 117/117/629 98/98/630 
f 117/117/631 120/120/632 98/98/633 
f 104/104/634 118/118/635 105/105/636 
f 119/119/637 111/111/638 132/132/639 
f 132/132/640 99/99/641 119/119/642 
f 120/120/643 127/127/644 109/109/645 
f 109/109/646 102/102/647 120/120/648 
f 120/120/649 102/102/650 87/87/651 
f 83/83/652 124/124/653 121/121/654 
f 97/97/655 146/146/656 143/143/657 
f 142/142/658 122/122/659 97/97/660 
f 130/130/661 123/123/662 96/96/663 
f 96/96/664 123/123/665 112/112/666 
f 124/124/667 101/101/668 121/121/669 
f 126/126/670 125/125/671 93/93/672 
f 126/126/673 93/93/674 123/123/675 
f 109/109/676 127/127/677 89/89/678 
f 100/100/679 90/90/680 139/139/681 
f 139/139/682 128/128/683 100/100/684 
f 93/93/685 107/107/686 129/129/687 
f 129/129/688 107/107/689 112/112/690 
f 84/84/691 130/130/692 88/88/693 
f 130/130/694 96/96/695 88/88/696 
f 106/106/697 131/131/698 110/110/699 
f 131/131/700 113/113/701 110/110/702 
f 111/111/703 134/134/704 90/90/705 
f 90/90/706 132/132/707 111/111/708 
f 102/102/709 109/109/710 145/145/711 
f 145/145/712 133/133/713 102/102/714 
f 102/102/715 133/133/716 87/87/717 
f 142/142/718 86/86/719 125/125/720 
f 125/125/721 135/135/722 142/142/723 
f 118/118/724 136/136/725 108/108/726 
f 108/108/727 136/136/728 116/116/729 
f 137/137/730 119/119/731 99/99/732 
f 104/104/733 138/138/734 118/118/735 
f 138/138/736 136/136/737 118/118/738 
f 134/134/739 139/139/740 90/90/741 
f 97/97/742 140/140/743 114/114/744 
f 140/140/745 100/100/746 141/141/747 
f 128/128/748 141/141/749 100/100/750 
f 97/97/751 86/86/752 142/142/753 
f 97/97/754 143/143/755 89/89/756 
f 145/145/757 109/109/758 89/89/759 
f 89/89/760 143/143/761 145/145/762 
f 136/136/763 144/144/764 116/116/765 
f 116/116/766 144/144/767 117/117/768 
f 97/97/769 122/122/770 146/146/771 
# 113 faces

