# 3ds Max Wavefront OBJ Exporter v0.97b - (c)2007 guruware
# File Created: 10.02.2024 08:45:26

mtllib SM_Barnacle_05.mtl

#
# object SM_Barnacle_05_LOD0
#

v  3.6122 -0.0000 0.0125
v  3.2283 0.0000 1.0380
v  3.2669 -0.0000 -1.0159
v  2.3737 -0.0000 -1.9873
v  2.1568 0.0998 -1.6284
v  1.1224 -0.0000 -2.4343
v  -0.1730 -0.0000 -2.7680
v  -1.5035 -0.0000 -2.6506
v  -2.1686 0.0998 -1.7633
v  -2.6985 -0.0000 -2.1098
v  -3.4259 -0.0000 -1.2321
v  -3.6122 -0.0000 -0.0952
v  -3.4228 0.0000 0.9790
v  -2.8351 0.0000 1.9624
v  -2.8116 0.1163 0.8358
v  -2.2729 0.0998 1.6589
v  -1.6838 0.0000 2.6769
v  -0.2654 0.0000 2.7680
v  1.0364 0.0000 2.4696
v  -0.1030 0.0754 2.3455
v  2.2303 0.0000 1.9282
v  2.0530 0.0998 1.6458
v  2.8960 0.1163 0.8889
v  3.2125 0.1230 0.0143
v  2.9540 0.4732 0.0122
v  2.9279 0.1163 -0.8634
v  2.7281 0.4565 -0.7357
v  2.0755 0.4152 -1.3856
v  1.0850 0.0827 -2.0811
v  0.1822 0.3539 -1.9778
v  -0.0255 0.0754 -2.3459
v  -1.1587 0.0827 -2.2345
v  -1.6236 0.4152 -1.4466
v  -2.8051 0.1163 -1.0143
v  -2.1920 0.4565 -0.8086
v  -2.9879 0.1230 -0.0704
v  -2.3870 0.4732 -0.0481
v  -2.2124 0.4565 0.7068
v  -1.6922 0.4152 1.3814
v  -1.2913 0.0827 2.2431
v  1.0103 0.0827 2.1101
v  1.9989 0.4152 1.3969
v  2.0225 1.2089 0.0029
v  1.7224 1.1893 -0.5836
v  1.1366 0.3722 -1.7852
v  0.9647 1.1692 -0.8337
v  -0.7797 0.3722 -1.8642
v  -0.1083 1.2089 -0.0212
v  -0.8573 0.3722 1.8369
v  0.1945 1.1893 0.5653
v  0.1185 0.3539 1.9648
v  0.5340 1.1751 0.7479
v  0.9378 1.1692 0.8152
v  1.0709 0.3722 1.7961
v  2.7025 0.4565 0.7567
v  1.9391 1.2032 0.3176
v  1.7033 1.1893 0.5824
v  1.3457 1.1751 0.7571
v  -0.0320 1.2032 0.2953
v  1.1232 1.4802 -0.0073
v  -0.0217 1.2032 -0.3358
v  0.2135 1.1893 -0.6007
v  0.5589 1.1751 -0.7755
v  1.3706 1.1751 -0.7664
v  1.9494 1.2032 -0.3135
# 65 vertices

vn 0.5755 0.8178 0.0107
vn 0.2474 0.9533 0.1731
vn 0.2903 0.9569 0.0049
vn 0.2415 0.9591 -0.1476
vn 0.5755 0.8178 0.0107
vn 0.2903 0.9569 0.0049
vn 0.4901 0.8168 -0.3042
vn 0.5755 0.8178 0.0107
vn 0.2415 0.9591 -0.1476
vn 0.1359 0.9686 -0.2082
vn 0.4901 0.8168 -0.3042
vn 0.2415 0.9591 -0.1476
vn 0.2983 0.8381 -0.4567
vn 0.4901 0.8168 -0.3042
vn 0.1359 0.9686 -0.2082
vn 0.1436 0.8688 -0.4740
vn 0.2983 0.8381 -0.4567
vn 0.1359 0.9686 -0.2082
vn 0.0636 0.9747 -0.2141
vn 0.1436 0.8688 -0.4740
vn 0.1359 0.9686 -0.2082
vn 0.0323 0.9045 -0.4253
vn 0.1436 0.8688 -0.4740
vn 0.0636 0.9747 -0.2141
vn 0.0166 0.9811 -0.1927
vn 0.0323 0.9045 -0.4253
vn 0.0636 0.9747 -0.2141
vn -0.0850 0.9296 -0.3587
vn 0.0323 0.9045 -0.4253
vn 0.0166 0.9811 -0.1927
vn -0.0401 0.9848 -0.1692
vn -0.0850 0.9296 -0.3587
vn 0.0166 0.9811 -0.1927
vn -0.1887 0.9417 -0.2787
vn -0.0850 0.9296 -0.3587
vn -0.0401 0.9848 -0.1692
vn -0.0967 0.9857 -0.1378
vn -0.1887 0.9417 -0.2787
vn -0.0401 0.9848 -0.1692
vn -0.2865 0.9457 -0.1535
vn -0.1887 0.9417 -0.2787
vn -0.0967 0.9857 -0.1378
vn -0.1555 0.9848 -0.0773
vn -0.2865 0.9457 -0.1535
vn -0.0967 0.9857 -0.1378
vn -0.1848 0.9828 0.0010
vn -0.2865 0.9457 -0.1535
vn -0.1555 0.9848 -0.0773
vn -0.3373 0.9414 0.0010
vn -0.2865 0.9457 -0.1535
vn -0.1848 0.9828 0.0010
vn -0.1651 0.9840 0.0674
vn -0.3373 0.9414 0.0010
vn -0.1848 0.9828 0.0010
vn -0.3042 0.9420 0.1418
vn -0.3373 0.9414 0.0010
vn -0.1651 0.9840 0.0674
vn -0.1105 0.9866 0.1203
vn -0.3042 0.9420 0.1418
vn -0.1651 0.9840 0.0674
vn -0.2102 0.9453 0.2493
vn -0.3042 0.9420 0.1418
vn -0.1105 0.9866 0.1203
vn -0.0440 0.9862 0.1593
vn -0.2102 0.9453 0.2493
vn -0.1105 0.9866 0.1203
vn -0.0929 0.9375 0.3353
vn -0.2102 0.9453 0.2493
vn -0.0440 0.9862 0.1593
vn 0.0166 0.9816 0.1904
vn -0.0929 0.9375 0.3353
vn -0.0440 0.9862 0.1593
vn 0.0264 0.9112 0.4112
vn -0.0929 0.9375 0.3353
vn 0.0166 0.9816 0.1904
vn 0.0713 0.9720 0.2237
vn 0.0264 0.9112 0.4112
vn 0.0166 0.9816 0.1904
vn 0.1437 0.8708 0.4701
vn 0.0264 0.9112 0.4112
vn 0.0713 0.9720 0.2237
vn 0.1515 0.9590 0.2395
vn 0.1437 0.8708 0.4701
vn 0.0713 0.9720 0.2237
vn 0.3003 0.8264 0.4763
vn 0.1437 0.8708 0.4701
vn 0.1515 0.9590 0.2395
vn 0.4834 0.8096 0.3330
vn 0.3003 0.8264 0.4763
vn 0.1515 0.9590 0.2395
vn 0.2474 0.9533 0.1731
vn 0.4834 0.8096 0.3330
vn 0.1515 0.9590 0.2395
vn 0.5755 0.8178 0.0107
vn 0.4834 0.8096 0.3330
vn 0.2474 0.9533 0.1731
vn 0.7244 0.6892 0.0127
vn 0.4834 0.8096 0.3330
vn 0.5755 0.8178 0.0107
vn 0.4901 0.8168 -0.3042
vn 0.7244 0.6892 0.0127
vn 0.5755 0.8178 0.0107
vn 0.6231 0.6778 -0.3903
vn 0.7244 0.6892 0.0127
vn 0.4901 0.8168 -0.3042
vn 0.3955 0.6846 -0.6123
vn 0.6231 0.6778 -0.3903
vn 0.4901 0.8168 -0.3042
vn 0.2983 0.8381 -0.4567
vn 0.3955 0.6846 -0.6123
vn 0.4901 0.8168 -0.3042
vn 0.1945 0.7242 -0.6616
vn 0.3955 0.6846 -0.6123
vn 0.2983 0.8381 -0.4567
vn 0.1436 0.8688 -0.4740
vn 0.1945 0.7242 -0.6616
vn 0.2983 0.8381 -0.4567
vn 0.0342 0.7892 -0.6132
vn 0.1945 0.7242 -0.6616
vn 0.1436 0.8688 -0.4740
vn 0.0323 0.9045 -0.4253
vn 0.0342 0.7892 -0.6132
vn 0.1436 0.8688 -0.4740
vn -0.1221 0.8487 -0.5147
vn 0.0342 0.7892 -0.6132
vn 0.0323 0.9045 -0.4253
vn -0.0850 0.9296 -0.3587
vn -0.1221 0.8487 -0.5147
vn 0.0323 0.9045 -0.4253
vn -0.2455 0.8891 -0.3863
vn -0.1221 0.8487 -0.5147
vn -0.0850 0.9296 -0.3587
vn -0.1887 0.9417 -0.2787
vn -0.2455 0.8891 -0.3863
vn -0.0850 0.9296 -0.3587
vn -0.3486 0.9130 -0.2119
vn -0.2455 0.8891 -0.3863
vn -0.1887 0.9417 -0.2787
vn -0.2865 0.9457 -0.1535
vn -0.3486 0.9130 -0.2119
vn -0.1887 0.9417 -0.2787
vn -0.3977 0.9175 -0.0029
vn -0.3486 0.9130 -0.2119
vn -0.2865 0.9457 -0.1535
vn -0.3373 0.9414 0.0010
vn -0.3977 0.9175 -0.0029
vn -0.2865 0.9457 -0.1535
vn -0.3042 0.9420 0.1418
vn -0.3977 0.9175 -0.0029
vn -0.3373 0.9414 0.0010
vn -0.3631 0.9112 0.1948
vn -0.3977 0.9175 -0.0029
vn -0.3042 0.9420 0.1418
vn -0.2102 0.9453 0.2493
vn -0.3631 0.9112 0.1948
vn -0.3042 0.9420 0.1418
vn -0.2651 0.8949 0.3590
vn -0.3631 0.9112 0.1948
vn -0.2102 0.9453 0.2493
vn -0.0929 0.9375 0.3353
vn -0.2651 0.8949 0.3590
vn -0.2102 0.9453 0.2493
vn -0.1300 0.8611 0.4916
vn -0.2651 0.8949 0.3590
vn -0.0929 0.9375 0.3353
vn 0.0264 0.9112 0.4112
vn -0.1300 0.8611 0.4916
vn -0.0929 0.9375 0.3353
vn 0.0245 0.8013 0.5978
vn -0.1300 0.8611 0.4916
vn 0.0264 0.9112 0.4112
vn 0.1437 0.8708 0.4701
vn 0.0245 0.8013 0.5978
vn 0.0264 0.9112 0.4112
vn 0.1866 0.7317 0.6555
vn 0.0245 0.8013 0.5978
vn 0.1437 0.8708 0.4701
vn 0.3003 0.8264 0.4763
vn 0.1866 0.7317 0.6555
vn 0.1437 0.8708 0.4701
vn 0.3859 0.6810 0.6224
vn 0.1866 0.7317 0.6555
vn 0.3003 0.8264 0.4763
vn 0.4834 0.8096 0.3330
vn 0.3859 0.6810 0.6224
vn 0.3003 0.8264 0.4763
vn 0.6106 0.6731 0.4172
vn 0.3859 0.6810 0.6224
vn 0.4834 0.8096 0.3330
vn 0.7244 0.6892 0.0127
vn 0.6106 0.6731 0.4172
vn 0.4834 0.8096 0.3330
vn 0.4647 0.8854 0.0068
vn 0.6106 0.6731 0.4172
vn 0.7244 0.6892 0.0127
vn 0.6231 0.6778 -0.3903
vn 0.4647 0.8854 0.0068
vn 0.7244 0.6892 0.0127
vn 0.4114 0.8745 -0.2570
vn 0.4647 0.8854 0.0068
vn 0.6231 0.6778 -0.3903
vn 0.2747 0.8594 -0.4312
vn 0.4114 0.8745 -0.2570
vn 0.6231 0.6778 -0.3903
vn 0.3955 0.6846 -0.6123
vn 0.2747 0.8594 -0.4312
vn 0.6231 0.6778 -0.3903
vn 0.1359 0.8590 -0.4935
vn 0.2747 0.8594 -0.4312
vn 0.3955 0.6846 -0.6123
vn 0.1945 0.7242 -0.6616
vn 0.1359 0.8590 -0.4935
vn 0.3955 0.6846 -0.6123
vn 0.0147 0.8792 -0.4763
vn 0.1359 0.8590 -0.4935
vn 0.1945 0.7242 -0.6616
vn 0.0342 0.7892 -0.6132
vn 0.0147 0.8792 -0.4763
vn 0.1945 0.7242 -0.6616
vn -0.0948 0.9075 -0.4093
vn 0.0147 0.8792 -0.4763
vn 0.0342 0.7892 -0.6132
vn -0.1221 0.8487 -0.5147
vn -0.0948 0.9075 -0.4093
vn 0.0342 0.7892 -0.6132
vn -0.1788 0.9351 -0.3058
vn -0.0948 0.9075 -0.4093
vn -0.1221 0.8487 -0.5147
vn -0.2455 0.8891 -0.3863
vn -0.1788 0.9351 -0.3058
vn -0.1221 0.8487 -0.5147
vn -0.2375 0.9569 -0.1671
vn -0.1788 0.9351 -0.3058
vn -0.2455 0.8891 -0.3863
vn -0.3486 0.9130 -0.2119
vn -0.2375 0.9569 -0.1671
vn -0.2455 0.8891 -0.3863
vn -0.2611 0.9653 -0.0029
vn -0.2375 0.9569 -0.1671
vn -0.3486 0.9130 -0.2119
vn -0.3977 0.9175 -0.0029
vn -0.2611 0.9653 -0.0029
vn -0.3486 0.9130 -0.2119
vn -0.3631 0.9112 0.1948
vn -0.2611 0.9653 -0.0029
vn -0.3977 0.9175 -0.0029
vn -0.2434 0.9571 0.1574
vn -0.2611 0.9653 -0.0029
vn -0.3631 0.9112 0.1948
vn -0.2651 0.8949 0.3590
vn -0.2434 0.9571 0.1574
vn -0.3631 0.9112 0.1948
vn -0.1885 0.9365 0.2959
vn -0.2434 0.9571 0.1574
vn -0.2651 0.8949 0.3590
vn -0.1300 0.8611 0.4916
vn -0.1885 0.9365 0.2959
vn -0.2651 0.8949 0.3590
vn -0.1026 0.9100 0.4017
vn -0.1885 0.9365 0.2959
vn -0.1300 0.8611 0.4916
vn 0.0245 0.8013 0.5978
vn -0.1026 0.9100 0.4017
vn -0.1300 0.8611 0.4916
vn 0.0049 0.8813 0.4725
vn -0.1026 0.9100 0.4017
vn 0.0245 0.8013 0.5978
vn 0.1866 0.7317 0.6555
vn 0.0049 0.8813 0.4725
vn 0.0245 0.8013 0.5978
vn 0.1282 0.8599 0.4940
vn 0.0049 0.8813 0.4725
vn 0.1866 0.7317 0.6555
vn 0.3859 0.6810 0.6224
vn 0.1282 0.8599 0.4940
vn 0.1866 0.7317 0.6555
vn 0.2668 0.8571 0.4407
vn 0.1282 0.8599 0.4940
vn 0.3859 0.6810 0.6224
vn 0.6106 0.6731 0.4172
vn 0.2668 0.8571 0.4407
vn 0.3859 0.6810 0.6224
vn 0.4038 0.8732 0.2728
vn 0.2668 0.8571 0.4407
vn 0.6106 0.6731 0.4172
vn 0.4647 0.8854 0.0068
vn 0.4038 0.8732 0.2728
vn 0.6106 0.6731 0.4172
vn 0.0186 0.9998 0.0010
vn 0.4038 0.8732 0.2728
vn 0.4647 0.8854 0.0068
vn 0.0186 0.9998 0.0010
vn 0.2668 0.8571 0.4407
vn 0.4038 0.8732 0.2728
vn 0.0186 0.9998 0.0010
vn 0.1282 0.8599 0.4940
vn 0.2668 0.8571 0.4407
vn 0.0186 0.9998 0.0010
vn 0.0049 0.8813 0.4725
vn 0.1282 0.8599 0.4940
vn 0.0186 0.9998 0.0010
vn -0.1026 0.9100 0.4017
vn 0.0049 0.8813 0.4725
vn 0.0186 0.9998 0.0010
vn -0.1885 0.9365 0.2959
vn -0.1026 0.9100 0.4017
vn 0.0186 0.9998 0.0010
vn -0.2434 0.9571 0.1574
vn -0.1885 0.9365 0.2959
vn 0.0186 0.9998 0.0010
vn -0.2611 0.9653 -0.0029
vn -0.2434 0.9571 0.1574
vn 0.0186 0.9998 0.0010
vn -0.2375 0.9569 -0.1671
vn -0.2611 0.9653 -0.0029
vn 0.0186 0.9998 0.0010
vn -0.1788 0.9351 -0.3058
vn -0.2375 0.9569 -0.1671
vn 0.0186 0.9998 0.0010
vn -0.0948 0.9075 -0.4093
vn -0.1788 0.9351 -0.3058
vn 0.0186 0.9998 0.0010
vn 0.0147 0.8792 -0.4763
vn -0.0948 0.9075 -0.4093
vn 0.0186 0.9998 0.0010
vn 0.1359 0.8590 -0.4935
vn 0.0147 0.8792 -0.4763
vn 0.0186 0.9998 0.0010
vn 0.2747 0.8594 -0.4312
vn 0.1359 0.8590 -0.4935
vn 0.0186 0.9998 0.0010
vn 0.4114 0.8745 -0.2570
vn 0.2747 0.8594 -0.4312
vn 0.4647 0.8854 0.0068
vn 0.4114 0.8745 -0.2570
vn 0.0186 0.9998 0.0010
# 336 vertex normals

vt 0.0957 0.4517 0.0000
vt 0.0942 0.4600 0.0000
vt 0.0983 0.4531 0.0000
vt 0.1018 0.4468 0.0000
vt 0.1034 0.4487 0.0000
vt 0.1112 0.4438 0.0000
vt 0.1112 0.4468 0.0000
vt 0.1198 0.4482 0.0000
vt 0.1208 0.4458 0.0000
vt 0.1278 0.4507 0.0000
vt 0.1304 0.4482 0.0000
vt 0.1346 0.4556 0.0000
vt 0.1384 0.4541 0.0000
vt 0.1393 0.4624 0.0000
vt 0.1439 0.4624 0.0000
vt 0.1405 0.4697 0.0000
vt 0.1453 0.4707 0.0000
vt 0.1422 0.4785 0.0000
vt 0.1381 0.4766 0.0000
vt 0.1368 0.4849 0.0000
vt 0.1335 0.4814 0.0000
vt 0.1294 0.4888 0.0000
vt 0.1270 0.4849 0.0000
vt 0.1194 0.4888 0.0000
vt 0.1185 0.4849 0.0000
vt 0.1100 0.4839 0.0000
vt 0.1105 0.4810 0.0000
vt 0.1028 0.4771 0.0000
vt 0.1043 0.4751 0.0000
vt 0.0972 0.4692 0.0000
vt 0.0994 0.4683 0.0000
vt 0.0969 0.4600 0.0000
vt 0.0999 0.4541 0.0000
vt 0.1042 0.4502 0.0000
vt 0.1108 0.4487 0.0000
vt 0.1183 0.4497 0.0000
vt 0.1251 0.4521 0.0000
vt 0.1309 0.4565 0.0000
vt 0.1346 0.4624 0.0000
vt 0.1357 0.4688 0.0000
vt 0.1342 0.4741 0.0000
vt 0.1301 0.4785 0.0000
vt 0.1243 0.4805 0.0000
vt 0.1173 0.4805 0.0000
vt 0.1106 0.4775 0.0000
vt 0.1052 0.4727 0.0000
vt 0.1007 0.4668 0.0000
vt 0.0987 0.4600 0.0000
vt 0.1059 0.4580 0.0000
vt 0.1075 0.4561 0.0000
vt 0.1100 0.4551 0.0000
vt 0.1130 0.4556 0.0000
vt 0.1158 0.4565 0.0000
vt 0.1182 0.4585 0.0000
vt 0.1197 0.4609 0.0000
vt 0.1202 0.4634 0.0000
vt 0.1196 0.4658 0.0000
vt 0.1179 0.4673 0.0000
vt 0.1154 0.4683 0.0000
vt 0.1125 0.4683 0.0000
vt 0.1097 0.4673 0.0000
vt 0.1074 0.4653 0.0000
vt 0.1057 0.4629 0.0000
vt 0.1052 0.4600 0.0000
vt 0.1116 0.4609 0.0000
# 65 texture coords

o SM_Barnacle_05_LOD0
g SM_Barnacle_05_LOD0
usemtl MAT_Sea_Shells
s 1
f 24/3/1 2/2/2 1/1/3 
f 3/4/4 24/3/5 1/1/6 
f 26/5/7 24/3/8 3/4/9 
f 4/6/10 26/5/11 3/4/12 
f 5/7/13 26/5/14 4/6/15 
f 29/8/16 5/7/17 4/6/18 
f 6/9/19 29/8/20 4/6/21 
f 31/10/22 29/8/23 6/9/24 
f 7/11/25 31/10/26 6/9/27 
f 32/12/28 31/10/29 7/11/30 
f 8/13/31 32/12/32 7/11/33 
f 9/14/34 32/12/35 8/13/36 
f 10/15/37 9/14/38 8/13/39 
f 34/16/40 9/14/41 10/15/42 
f 11/17/43 34/16/44 10/15/45 
f 12/18/46 34/16/47 11/17/48 
f 36/19/49 34/16/50 12/18/51 
f 13/20/52 36/19/53 12/18/54 
f 15/21/55 36/19/56 13/20/57 
f 14/22/58 15/21/59 13/20/60 
f 16/23/61 15/21/62 14/22/63 
f 17/24/64 16/23/65 14/22/66 
f 40/25/67 16/23/68 17/24/69 
f 18/26/70 40/25/71 17/24/72 
f 20/27/73 40/25/74 18/26/75 
f 19/28/76 20/27/77 18/26/78 
f 41/29/79 20/27/80 19/28/81 
f 21/30/82 41/29/83 19/28/84 
f 22/31/85 41/29/86 21/30/87 
f 23/32/88 22/31/89 21/30/90 
f 2/2/91 23/32/92 21/30/93 
f 24/3/94 23/32/95 2/2/96 
f 25/33/97 23/32/98 24/3/99 
f 26/5/100 25/33/101 24/3/102 
f 27/34/103 25/33/104 26/5/105 
f 28/35/106 27/34/107 26/5/108 
f 5/7/109 28/35/110 26/5/111 
f 45/36/112 28/35/113 5/7/114 
f 29/8/115 45/36/116 5/7/117 
f 30/37/118 45/36/119 29/8/120 
f 31/10/121 30/37/122 29/8/123 
f 47/38/124 30/37/125 31/10/126 
f 32/12/127 47/38/128 31/10/129 
f 33/39/130 47/38/131 32/12/132 
f 9/14/133 33/39/134 32/12/135 
f 35/40/136 33/39/137 9/14/138 
f 34/16/139 35/40/140 9/14/141 
f 37/41/142 35/40/143 34/16/144 
f 36/19/145 37/41/146 34/16/147 
f 15/21/148 37/41/149 36/19/150 
f 38/42/151 37/41/152 15/21/153 
f 16/23/154 38/42/155 15/21/156 
f 39/43/157 38/42/158 16/23/159 
f 40/25/160 39/43/161 16/23/162 
f 49/44/163 39/43/164 40/25/165 
f 20/27/166 49/44/167 40/25/168 
f 51/45/169 49/44/170 20/27/171 
f 41/29/172 51/45/173 20/27/174 
f 54/46/175 51/45/176 41/29/177 
f 22/31/178 54/46/179 41/29/180 
f 42/47/181 54/46/182 22/31/183 
f 23/32/184 42/47/185 22/31/186 
f 55/48/187 42/47/188 23/32/189 
f 25/33/190 55/48/191 23/32/192 
f 43/49/193 55/48/194 25/33/195 
f 27/34/196 43/49/197 25/33/198 
f 65/50/199 43/49/200 27/34/201 
f 44/51/202 65/50/203 27/34/204 
f 28/35/205 44/51/206 27/34/207 
f 64/52/208 44/51/209 28/35/210 
f 45/36/211 64/52/212 28/35/213 
f 46/53/214 64/52/215 45/36/216 
f 30/37/217 46/53/218 45/36/219 
f 63/54/220 46/53/221 30/37/222 
f 47/38/223 63/54/224 30/37/225 
f 62/55/226 63/54/227 47/38/228 
f 33/39/229 62/55/230 47/38/231 
f 61/56/232 62/55/233 33/39/234 
f 35/40/235 61/56/236 33/39/237 
f 48/57/238 61/56/239 35/40/240 
f 37/41/241 48/57/242 35/40/243 
f 38/42/244 48/57/245 37/41/246 
f 59/58/247 48/57/248 38/42/249 
f 39/43/250 59/58/251 38/42/252 
f 50/59/253 59/58/254 39/43/255 
f 49/44/256 50/59/257 39/43/258 
f 52/60/259 50/59/260 49/44/261 
f 51/45/262 52/60/263 49/44/264 
f 53/61/265 52/60/266 51/45/267 
f 54/46/268 53/61/269 51/45/270 
f 58/62/271 53/61/272 54/46/273 
f 42/47/274 58/62/275 54/46/276 
f 57/63/277 58/62/278 42/47/279 
f 55/48/280 57/63/281 42/47/282 
f 56/64/283 57/63/284 55/48/285 
f 43/49/286 56/64/287 55/48/288 
f 60/65/289 56/64/290 43/49/291 
f 60/65/292 57/63/293 56/64/294 
f 60/65/295 58/62/296 57/63/297 
f 60/65/298 53/61/299 58/62/300 
f 60/65/301 52/60/302 53/61/303 
f 60/65/304 50/59/305 52/60/306 
f 60/65/307 59/58/308 50/59/309 
f 60/65/310 48/57/311 59/58/312 
f 60/65/313 61/56/314 48/57/315 
f 60/65/316 62/55/317 61/56/318 
f 60/65/319 63/54/320 62/55/321 
f 60/65/322 46/53/323 63/54/324 
f 60/65/325 64/52/326 46/53/327 
f 60/65/328 44/51/329 64/52/330 
f 60/65/331 65/50/332 44/51/333 
f 43/49/334 65/50/335 60/65/336 
# 112 faces

#
# object SM_Barnacle_05_LOD1
#

v  1.0922 1.4734 -0.0077
v  2.2303 0.0000 1.9282
v  -3.4259 -0.0000 -1.2321
v  -2.8351 0.0000 1.9624
v  -0.0848 -0.0000 -2.7453
v  -3.6122 -0.0000 -0.0952
v  3.6122 -0.0000 0.0125
v  0.1540 0.0000 2.6718
v  1.7965 1.1938 -0.4955
v  2.1509 0.1226 -1.6109
v  -2.6985 -0.0000 -2.1098
v  1.4388 1.1823 0.6629
v  2.3737 -0.0000 -1.9873
v  2.0485 0.1262 1.6250
v  0.7341 1.1754 -0.7622
v  -1.8787 0.1023 1.8756
v  -2.3126 0.4660 0.2738
v  3.1903 0.1531 0.0141
v  2.8924 0.1767 -0.8407
v  2.8598 0.1799 0.8642
v  1.9965 1.2071 0.1008
v  -1.7312 0.0924 -1.9673
v  -2.7161 0.1657 -0.9844
v  -1.6838 0.0000 2.6769
v  -2.8988 0.1196 0.3872
v  0.5738 0.0798 2.2024
v  0.4118 0.0782 -2.2417
v  3.2669 -0.0000 -1.0159
v  3.2283 0.0000 1.0380
v  -1.5035 -0.0000 -2.6506
v  0.1945 1.1893 0.5653
v  -3.4228 0.0000 0.9790
# 32 vertices

vn 0.2377 0.8657 0.4405
vn 0.2013 0.8483 0.4898
vn 0.0467 0.9203 0.3884
vn -0.1138 0.9618 -0.2488
vn -0.0583 0.8929 -0.4464
vn 0.0426 0.9216 -0.3858
vn -0.1352 0.9643 0.2276
vn -0.1697 0.9273 0.3337
vn -0.3866 0.9178 0.0906
vn 0.0426 0.9216 -0.3858
vn 0.3558 0.8511 -0.3860
vn 0.2169 0.8865 -0.4087
vn -0.3866 0.9178 0.0906
vn 0.0111 0.9999 -0.0021
vn -0.2299 0.9647 -0.1285
vn 0.4903 0.8638 0.1161
vn 0.4334 0.8488 0.3028
vn 0.4833 0.8754 0.0062
vn 0.0467 0.9203 0.3884
vn 0.2013 0.8483 0.4898
vn -0.1352 0.9643 0.2276
vn -0.0583 0.8929 -0.4464
vn 0.3558 0.8511 -0.3860
vn 0.0426 0.9216 -0.3858
vn 0.4903 0.8638 0.1161
vn 0.2013 0.8483 0.4898
vn 0.4334 0.8488 0.3028
vn 0.1337 0.9590 -0.2500
vn 0.4471 0.8536 -0.2674
vn 0.3391 0.9216 -0.1887
vn 0.4471 0.8536 -0.2674
vn 0.4903 0.8638 0.1161
vn 0.4833 0.8754 0.0062
vn -0.2299 0.9647 -0.1285
vn -0.0583 0.8929 -0.4464
vn -0.1138 0.9618 -0.2488
vn 0.2013 0.8483 0.4898
vn -0.1697 0.9273 0.3337
vn -0.1352 0.9643 0.2276
vn 0.0111 0.9999 -0.0021
vn 0.2013 0.8483 0.4898
vn 0.4903 0.8638 0.1161
vn 0.0426 0.9216 -0.3858
vn 0.2169 0.8865 -0.4087
vn 0.1337 0.9590 -0.2500
vn 0.4833 0.8754 0.0062
vn 0.4334 0.8488 0.3028
vn 0.3378 0.9167 0.2137
vn 0.2377 0.8657 0.4405
vn 0.0467 0.9203 0.3884
vn 0.1587 0.9396 0.3034
vn 0.0111 0.9999 -0.0021
vn 0.3558 0.8511 -0.3860
vn -0.0583 0.8929 -0.4464
vn 0.0111 0.9999 -0.0021
vn -0.0583 0.8929 -0.4464
vn -0.2299 0.9647 -0.1285
vn -0.1352 0.9643 0.2276
vn -0.2905 0.9536 0.0793
vn -0.1040 0.9899 0.0964
vn 0.0077 0.9856 0.1687
vn -0.1352 0.9643 0.2276
vn -0.0276 0.9907 0.1332
vn -0.2905 0.9536 0.0793
vn -0.2299 0.9647 -0.1285
vn -0.1863 0.9825 0.0064
vn -0.1040 0.9899 0.0964
vn -0.2905 0.9536 0.0793
vn -0.1517 0.9863 0.0650
vn 0.4471 0.8536 -0.2674
vn 0.4833 0.8754 0.0062
vn 0.3391 0.9216 -0.1887
vn 0.4833 0.8754 0.0062
vn 0.3378 0.9167 0.2137
vn 0.3411 0.9400 0.0047
vn 0.2169 0.8865 -0.4087
vn 0.4471 0.8536 -0.2674
vn 0.1337 0.9590 -0.2500
vn 0.2169 0.8865 -0.4087
vn 0.3558 0.8511 -0.3860
vn 0.4471 0.8536 -0.2674
vn 0.4334 0.8488 0.3028
vn 0.2013 0.8483 0.4898
vn 0.2377 0.8657 0.4405
vn 0.4334 0.8488 0.3028
vn 0.2377 0.8657 0.4405
vn 0.1587 0.9396 0.3034
vn 0.3558 0.8511 -0.3860
vn 0.4903 0.8638 0.1161
vn 0.4471 0.8536 -0.2674
vn 0.4903 0.8638 0.1161
vn 0.3558 0.8511 -0.3860
vn 0.0111 0.9999 -0.0021
vn -0.2299 0.9647 -0.1285
vn -0.1138 0.9618 -0.2488
vn -0.0989 0.9839 -0.1487
vn -0.0276 0.9893 -0.1430
vn -0.1138 0.9618 -0.2488
vn 0.0029 0.9879 -0.1553
vn -0.1975 0.9764 -0.0871
vn -0.2299 0.9647 -0.1285
vn -0.0989 0.9839 -0.1487
vn -0.1863 0.9825 0.0064
vn -0.2299 0.9647 -0.1285
vn -0.1975 0.9764 -0.0871
vn -0.0276 0.9907 0.1332
vn -0.1352 0.9643 0.2276
vn -0.1040 0.9899 0.0964
vn -0.2905 0.9536 0.0793
vn -0.3866 0.9178 0.0906
vn -0.2299 0.9647 -0.1285
vn -0.1352 0.9643 0.2276
vn -0.3866 0.9178 0.0906
vn -0.2905 0.9536 0.0793
vn 0.1587 0.9396 0.3034
vn 0.0467 0.9203 0.3884
vn 0.0077 0.9856 0.1687
vn 0.0467 0.9203 0.3884
vn -0.1352 0.9643 0.2276
vn 0.0077 0.9856 0.1687
vn 0.0029 0.9879 -0.1553
vn 0.0426 0.9216 -0.3858
vn 0.1337 0.9590 -0.2500
vn -0.1138 0.9618 -0.2488
vn 0.0426 0.9216 -0.3858
vn 0.0029 0.9879 -0.1553
vn 0.3391 0.9216 -0.1887
vn 0.4833 0.8754 0.0062
vn 0.3411 0.9400 0.0047
vn 0.3378 0.9167 0.2137
vn 0.4334 0.8488 0.3028
vn 0.1587 0.9396 0.3034
vn -0.0989 0.9839 -0.1487
vn -0.1138 0.9618 -0.2488
vn -0.0276 0.9893 -0.1430
vn -0.1697 0.9273 0.3337
vn 0.0111 0.9999 -0.0021
vn -0.3866 0.9178 0.0906
vn 0.0111 0.9999 -0.0021
vn -0.1697 0.9273 0.3337
vn 0.2013 0.8483 0.4898
vn -0.1517 0.9863 0.0650
vn -0.2905 0.9536 0.0793
vn -0.1863 0.9825 0.0064
# 144 vertex normals

vt 0.0972 0.4692 0.0000
vt 0.1297 0.4481 0.0000
vt 0.1453 0.4707 0.0000
vt 0.1118 0.4611 0.0000
vt 0.1294 0.4888 0.0000
vt 0.0957 0.4517 0.0000
vt 0.1077 0.4817 0.0000
vt 0.1112 0.4438 0.0000
vt 0.1422 0.4785 0.0000
vt 0.1071 0.4644 0.0000
vt 0.0942 0.4600 0.0000
vt 0.1194 0.4888 0.0000
vt 0.1092 0.4554 0.0000
vt 0.1018 0.4468 0.0000
vt 0.1246 0.4497 0.0000
vt 0.1439 0.4624 0.0000
vt 0.1170 0.4579 0.0000
vt 0.1384 0.4541 0.0000
vt 0.1067 0.4774 0.0000
vt 0.1368 0.4849 0.0000
vt 0.1112 0.4469 0.0000
vt 0.0995 0.4681 0.0000
vt 0.1324 0.4760 0.0000
vt 0.1154 0.4683 0.0000
vt 0.0984 0.4532 0.0000
vt 0.1035 0.4490 0.0000
vt 0.0973 0.4600 0.0000
vt 0.1057 0.4586 0.0000
vt 0.1373 0.4594 0.0000
vt 0.1398 0.4696 0.0000
vt 0.1236 0.4847 0.0000
vt 0.1358 0.4790 0.0000
# 32 texture coords

o SM_Barnacle_05_LOD1
g SM_Barnacle_05_LOD1
usemtl MAT_Sea_Shells
s 1
f 79/87/337 77/75/338 91/84/339 
f 87/94/340 80/82/341 92/80/342 
f 81/96/343 96/89/344 82/88/345 
f 92/80/346 74/78/347 75/86/348 
f 82/88/349 66/69/350 88/95/351 
f 86/93/352 85/92/353 83/90/354 
f 91/84/355 77/75/356 81/96/357 
f 80/82/358 74/78/359 92/80/360 
f 86/93/361 77/75/362 85/92/363 
f 78/73/364 84/91/365 93/79/366 
f 84/91/367 86/93/368 83/90/369 
f 88/95/370 80/82/371 87/94/372 
f 77/75/373 96/89/374 81/96/375 
f 66/69/376 77/75/377 86/93/378 
f 92/80/379 75/86/380 78/73/381 
f 83/90/382 85/92/383 94/76/384 
f 79/87/385 91/84/386 67/66/387 
f 66/69/388 74/78/389 80/82/390 
f 66/69/391 80/82/392 88/95/393 
f 81/96/394 90/97/395 69/70/396 
f 73/72/397 81/96/398 89/77/399 
f 90/97/400 88/95/401 71/74/402 
f 69/70/403 90/97/404 97/85/405 
f 84/91/406 83/90/407 93/79/408 
f 83/90/409 94/76/410 72/71/411 
f 75/86/412 84/91/413 78/73/414 
f 75/86/415 74/78/416 84/91/417 
f 85/92/418 77/75/419 79/87/420 
f 85/92/421 79/87/422 67/66/423 
f 74/78/424 86/93/425 84/91/426 
f 86/93/427 74/78/428 66/69/429 
f 88/95/430 87/94/431 76/81/432 
f 95/83/433 87/94/434 70/67/435 
f 68/68/436 88/95/437 76/81/438 
f 71/74/439 88/95/440 68/68/441 
f 89/77/442 81/96/443 69/70/444 
f 90/97/445 82/88/446 88/95/447 
f 81/96/448 82/88/449 90/97/450 
f 67/66/451 91/84/452 73/72/453 
f 91/84/454 81/96/455 73/72/456 
f 70/67/457 92/80/458 78/73/459 
f 87/94/460 92/80/461 70/67/462 
f 93/79/463 83/90/464 72/71/465 
f 94/76/466 85/92/467 67/66/468 
f 76/81/469 87/94/470 95/83/471 
f 96/89/472 66/69/473 82/88/474 
f 66/69/475 96/89/476 77/75/477 
f 97/85/478 90/97/479 71/74/480 
# 48 faces

