# 3ds Max Wavefront OBJ Exporter v0.97b - (c)2007 guruware
# File Created: 10.02.2024 08:35:50

mtllib SM_Coral_Table_Acropora_08.mtl

#
# object SM_Coral_Table_Acropora_08_LOD0
#

v  15.9459 2.8614 4.6559
v  11.1902 3.7276 -5.1281
v  11.9866 3.3496 -0.2115
v  15.4573 2.4808 12.2255
v  5.7080 3.9631 -10.1900
v  10.1172 2.7252 14.6927
v  5.1528 3.1433 15.0737
v  2.8071 4.2651 -12.8940
v  -0.1448 3.4627 13.8038
v  -9.2115 5.7670 -14.3788
v  -12.8577 5.8458 -12.4951
v  -15.9435 4.3703 -4.2363
v  -14.2626 3.0111 3.5827
v  8.9279 1.8340 2.6152
v  5.4617 2.3931 -3.6569
v  8.4267 3.8448 -8.9704
v  -1.0918 3.2051 -8.6198
v  -1.9166 4.8870 -15.0537
v  -7.2648 2.1808 0.6985
v  -5.5373 3.3137 11.1740
v  -2.9021 1.9382 4.4941
v  7.5952 1.7453 5.0199
v  2.4429 1.9292 6.4440
v  -0.2670 0.1980 -2.1857
v  -8.1053 2.8487 -3.2110
v  -6.5624 3.5385 -7.3404
v  2.7205 2.6935 -6.1879
v  15.9768 2.6647 4.6376
v  11.2288 3.5332 -5.1545
v  12.0318 3.1595 -0.2542
v  15.4688 2.2813 12.2334
v  5.7260 3.7698 -10.2379
v  10.1098 2.5266 14.7147
v  5.1390 2.9458 15.1020
v  2.8132 4.0710 -12.9417
v  -0.1611 3.2664 13.8387
v  -9.2394 5.5751 -14.4281
v  -12.8888 5.6541 -12.5430
v  -15.9768 4.1765 -4.2730
v  -14.2881 2.8128 3.5783
v  8.9669 1.6388 2.5964
v  5.5048 2.2035 -3.7036
v  8.4517 3.6506 -9.0115
v  -1.1008 3.0151 -8.6817
v  -1.9346 4.6938 -15.1019
v  -7.3024 1.9844 0.7010
v  -5.5538 3.1169 11.2052
v  -2.9279 1.7430 4.5291
v  7.6088 1.5465 5.0368
v  2.4361 1.7325 6.4796
v  -0.2701 0.0000 -2.2134
v  -8.1489 2.6568 -3.2467
v  -6.5963 3.3490 -7.3945
v  2.7471 2.5054 -6.2506
# 54 vertices

vn -0.0682 0.9941 -0.0844
vn 0.0368 0.9932 -0.1102
vn -0.0573 0.9976 -0.0393
vn -0.1547 0.9837 0.0919
vn -0.0682 0.9941 -0.0844
vn -0.0573 0.9976 -0.0393
vn -0.1952 0.9763 0.0938
vn -0.0682 0.9941 -0.0844
vn -0.1547 0.9837 0.0919
vn -0.2258 0.9505 0.2134
vn -0.1952 0.9763 0.0938
vn -0.1547 0.9837 0.0919
vn -0.2159 0.9481 0.2333
vn -0.1952 0.9763 0.0938
vn -0.2258 0.9505 0.2134
vn -0.1926 0.9723 0.1321
vn -0.2159 0.9481 0.2333
vn -0.2258 0.9505 0.2134
vn -0.1250 0.9707 0.2053
vn -0.2159 0.9481 0.2333
vn -0.1926 0.9723 0.1321
vn -0.1326 0.9402 0.3138
vn -0.2159 0.9481 0.2333
vn -0.1250 0.9707 0.2053
vn -0.0900 0.9667 0.2395
vn -0.1326 0.9402 0.3138
vn -0.1250 0.9707 0.2053
vn -0.0303 0.9707 0.2382
vn -0.1326 0.9402 0.3138
vn -0.0900 0.9667 0.2395
vn 0.0453 0.9497 0.3099
vn -0.1326 0.9402 0.3138
vn -0.0303 0.9707 0.2382
vn 0.0903 0.9663 0.2410
vn 0.0453 0.9497 0.3099
vn -0.0303 0.9707 0.2382
vn 0.1395 0.9591 0.2463
vn 0.0453 0.9497 0.3099
vn 0.0903 0.9663 0.2410
vn 0.1697 0.9477 0.2704
vn 0.0453 0.9497 0.3099
vn 0.1395 0.9591 0.2463
vn 0.1552 0.9584 0.2394
vn 0.1697 0.9477 0.2704
vn 0.1395 0.9591 0.2463
vn 0.1661 0.9688 0.1837
vn 0.1697 0.9477 0.2704
vn 0.1552 0.9584 0.2394
vn 0.2183 0.9594 0.1786
vn 0.1697 0.9477 0.2704
vn 0.1661 0.9688 0.1837
vn 0.1273 0.9916 0.0218
vn 0.2183 0.9594 0.1786
vn 0.1661 0.9688 0.1837
vn 0.1879 0.9821 -0.0127
vn 0.2183 0.9594 0.1786
vn 0.1273 0.9916 0.0218
vn 0.0829 0.9843 -0.1559
vn 0.1879 0.9821 -0.0127
vn 0.1273 0.9916 0.0218
vn 0.1286 0.9762 -0.1746
vn 0.1879 0.9821 -0.0127
vn 0.0829 0.9843 -0.1559
vn 0.0815 0.9813 -0.1744
vn 0.1286 0.9762 -0.1746
vn 0.0829 0.9843 -0.1559
vn 0.0340 0.9834 -0.1780
vn 0.1286 0.9762 -0.1746
vn 0.0815 0.9813 -0.1744
vn 0.0690 0.9875 -0.1417
vn 0.0340 0.9834 -0.1780
vn 0.0815 0.9813 -0.1744
vn -0.0682 0.9941 -0.0844
vn 0.0340 0.9834 -0.1780
vn 0.0690 0.9875 -0.1417
vn -0.0682 0.9941 -0.0844
vn 0.0690 0.9875 -0.1417
vn 0.0368 0.9932 -0.1102
vn 0.0159 0.9902 0.1387
vn 0.0340 0.9834 -0.1780
vn -0.0682 0.9941 -0.0844
vn 0.0159 0.9902 0.1387
vn 0.1286 0.9762 -0.1746
vn 0.0340 0.9834 -0.1780
vn 0.0159 0.9902 0.1387
vn 0.1879 0.9821 -0.0127
vn 0.1286 0.9762 -0.1746
vn 0.0159 0.9902 0.1387
vn 0.2183 0.9594 0.1786
vn 0.1879 0.9821 -0.0127
vn 0.0159 0.9902 0.1387
vn 0.1697 0.9477 0.2704
vn 0.2183 0.9594 0.1786
vn 0.0159 0.9902 0.1387
vn 0.0453 0.9497 0.3099
vn 0.1697 0.9477 0.2704
vn 0.0159 0.9902 0.1387
vn -0.1326 0.9402 0.3138
vn 0.0453 0.9497 0.3099
vn 0.0159 0.9902 0.1387
vn -0.2159 0.9481 0.2333
vn -0.1326 0.9402 0.3138
vn 0.0159 0.9902 0.1387
vn -0.1952 0.9763 0.0938
vn -0.2159 0.9481 0.2333
vn -0.0682 0.9941 -0.0844
vn -0.1952 0.9763 0.0938
vn 0.0159 0.9902 0.1387
vn 0.0574 -0.9976 0.0392
vn -0.0369 -0.9932 0.1101
vn 0.0681 -0.9941 0.0840
vn 0.0574 -0.9976 0.0392
vn 0.0681 -0.9941 0.0840
vn 0.1547 -0.9837 -0.0919
vn 0.1547 -0.9837 -0.0919
vn 0.0681 -0.9941 0.0840
vn 0.1950 -0.9763 -0.0939
vn 0.1547 -0.9837 -0.0919
vn 0.1950 -0.9763 -0.0939
vn 0.2257 -0.9507 -0.2129
vn 0.2257 -0.9507 -0.2129
vn 0.1950 -0.9763 -0.0939
vn 0.2153 -0.9484 -0.2326
vn 0.2257 -0.9507 -0.2129
vn 0.2153 -0.9484 -0.2326
vn 0.1925 -0.9724 -0.1319
vn 0.1925 -0.9724 -0.1319
vn 0.2153 -0.9484 -0.2326
vn 0.1249 -0.9707 -0.2052
vn 0.1249 -0.9707 -0.2052
vn 0.2153 -0.9484 -0.2326
vn 0.1318 -0.9406 -0.3129
vn 0.1249 -0.9707 -0.2052
vn 0.1318 -0.9406 -0.3129
vn 0.0899 -0.9668 -0.2394
vn 0.0899 -0.9668 -0.2394
vn 0.1318 -0.9406 -0.3129
vn 0.0303 -0.9708 -0.2381
vn 0.0303 -0.9708 -0.2381
vn 0.1318 -0.9406 -0.3129
vn -0.0454 -0.9498 -0.3096
vn 0.0303 -0.9708 -0.2381
vn -0.0454 -0.9498 -0.3096
vn -0.0903 -0.9663 -0.2409
vn -0.0903 -0.9663 -0.2409
vn -0.0454 -0.9498 -0.3096
vn -0.1395 -0.9591 -0.2462
vn -0.1395 -0.9591 -0.2462
vn -0.0454 -0.9498 -0.3096
vn -0.1695 -0.9478 -0.2702
vn -0.1395 -0.9591 -0.2462
vn -0.1695 -0.9478 -0.2702
vn -0.1552 -0.9584 -0.2394
vn -0.1552 -0.9584 -0.2394
vn -0.1695 -0.9478 -0.2702
vn -0.1661 -0.9689 -0.1836
vn -0.1661 -0.9689 -0.1836
vn -0.1695 -0.9478 -0.2702
vn -0.2179 -0.9595 -0.1784
vn -0.1661 -0.9689 -0.1836
vn -0.2179 -0.9595 -0.1784
vn -0.1272 -0.9916 -0.0217
vn -0.1272 -0.9916 -0.0217
vn -0.2179 -0.9595 -0.1784
vn -0.1875 -0.9822 0.0127
vn -0.1272 -0.9916 -0.0217
vn -0.1875 -0.9822 0.0127
vn -0.0829 -0.9843 0.1559
vn -0.0829 -0.9843 0.1559
vn -0.1875 -0.9822 0.0127
vn -0.1283 -0.9764 0.1739
vn -0.0829 -0.9843 0.1559
vn -0.1283 -0.9764 0.1739
vn -0.0815 -0.9813 0.1743
vn -0.0815 -0.9813 0.1743
vn -0.1283 -0.9764 0.1739
vn -0.0340 -0.9835 0.1775
vn -0.0815 -0.9813 0.1743
vn -0.0340 -0.9835 0.1775
vn -0.0690 -0.9875 0.1416
vn -0.0690 -0.9875 0.1416
vn -0.0340 -0.9835 0.1775
vn 0.0681 -0.9941 0.0840
vn -0.0369 -0.9932 0.1101
vn -0.0690 -0.9875 0.1416
vn 0.0681 -0.9941 0.0840
vn 0.0681 -0.9941 0.0840
vn -0.0340 -0.9835 0.1775
vn -0.0161 -0.9902 -0.1387
vn -0.0340 -0.9835 0.1775
vn -0.1283 -0.9764 0.1739
vn -0.0161 -0.9902 -0.1387
vn -0.1283 -0.9764 0.1739
vn -0.1875 -0.9822 0.0127
vn -0.0161 -0.9902 -0.1387
vn -0.1875 -0.9822 0.0127
vn -0.2179 -0.9595 -0.1784
vn -0.0161 -0.9902 -0.1387
vn -0.2179 -0.9595 -0.1784
vn -0.1695 -0.9478 -0.2702
vn -0.0161 -0.9902 -0.1387
vn -0.1695 -0.9478 -0.2702
vn -0.0454 -0.9498 -0.3096
vn -0.0161 -0.9902 -0.1387
vn -0.0454 -0.9498 -0.3096
vn 0.1318 -0.9406 -0.3129
vn -0.0161 -0.9902 -0.1387
vn 0.1318 -0.9406 -0.3129
vn 0.2153 -0.9484 -0.2326
vn -0.0161 -0.9902 -0.1387
vn 0.2153 -0.9484 -0.2326
vn 0.1950 -0.9763 -0.0939
vn -0.0161 -0.9902 -0.1387
vn -0.0161 -0.9902 -0.1387
vn 0.1950 -0.9763 -0.0939
vn 0.0681 -0.9941 0.0840
vn 0.2575 0.0968 0.9614
vn 0.8217 0.0705 0.5656
vn 0.8236 0.0699 0.5629
vn 0.8236 0.0699 0.5629
vn 0.2576 0.0974 0.9613
vn 0.2575 0.0968 0.9614
vn 0.8217 0.0705 0.5656
vn 0.9434 0.1762 -0.2809
vn 0.9400 0.1745 -0.2931
vn 0.9400 0.1745 -0.2931
vn 0.8236 0.0699 0.5629
vn 0.8217 0.0705 0.5656
vn 0.9434 0.1762 -0.2809
vn 0.8846 0.2913 -0.3642
vn 0.8813 0.2913 -0.3720
vn 0.8813 0.2913 -0.3720
vn 0.9400 0.1745 -0.2931
vn 0.9434 0.1762 -0.2809
vn 0.8846 0.2913 -0.3642
vn 0.9038 0.2280 -0.3621
vn 0.9035 0.2288 -0.3624
vn 0.9035 0.2288 -0.3624
vn 0.8813 0.2913 -0.3720
vn 0.8846 0.2913 -0.3642
vn 0.9038 0.2280 -0.3621
vn 0.6200 0.2385 -0.7475
vn 0.6201 0.2382 -0.7474
vn 0.6201 0.2382 -0.7474
vn 0.9035 0.2288 -0.3624
vn 0.9038 0.2280 -0.3621
vn 0.6200 0.2385 -0.7475
vn 0.5482 0.2483 -0.7987
vn 0.5480 0.2486 -0.7987
vn 0.5480 0.2486 -0.7987
vn 0.6201 0.2382 -0.7474
vn 0.6200 0.2385 -0.7475
vn 0.5482 0.2483 -0.7987
vn 0.5592 0.2136 -0.8010
vn 0.5609 0.2146 -0.7996
vn 0.5609 0.2146 -0.7996
vn 0.5480 0.2486 -0.7987
vn 0.5482 0.2483 -0.7987
vn 0.5592 0.2136 -0.8010
vn 0.1881 0.2213 -0.9569
vn 0.1910 0.2214 -0.9563
vn 0.1910 0.2214 -0.9563
vn 0.5609 0.2146 -0.7996
vn 0.5592 0.2136 -0.8010
vn 0.1881 0.2213 -0.9569
vn -0.2513 0.2749 -0.9281
vn -0.2521 0.2748 -0.9279
vn -0.2521 0.2748 -0.9279
vn 0.1910 0.2214 -0.9563
vn 0.1881 0.2213 -0.9569
vn -0.2513 0.2749 -0.9281
vn -0.7318 0.2743 -0.6238
vn -0.7318 0.2743 -0.6239
vn -0.7318 0.2743 -0.6239
vn -0.2521 0.2748 -0.9279
vn -0.2513 0.2749 -0.9281
vn -0.7318 0.2743 -0.6238
vn -0.9834 0.1765 -0.0408
vn -0.9835 0.1766 -0.0405
vn -0.9835 0.1766 -0.0405
vn -0.7318 0.2743 -0.6239
vn -0.7318 0.2743 -0.6238
vn -0.9834 0.1765 -0.0408
vn -0.8528 0.0987 0.5128
vn -0.8510 0.0978 0.5160
vn -0.8510 0.0978 0.5160
vn -0.9835 0.1766 -0.0405
vn -0.9834 0.1765 -0.0408
vn -0.8528 0.0987 0.5128
vn -0.5486 0.1758 0.8174
vn -0.5475 0.1751 0.8183
vn -0.5475 0.1751 0.8183
vn -0.8510 0.0978 0.5160
vn -0.8528 0.0987 0.5128
vn -0.5486 0.1758 0.8174
vn -0.3289 0.1911 0.9248
vn -0.3287 0.1913 0.9249
vn -0.3287 0.1913 0.9249
vn -0.5475 0.1751 0.8183
vn -0.5486 0.1758 0.8174
vn -0.3289 0.1911 0.9248
vn -0.0661 0.1458 0.9871
vn -0.0687 0.1467 0.9868
vn -0.0687 0.1467 0.9868
vn -0.3287 0.1913 0.9249
vn -0.3289 0.1911 0.9248
vn -0.0661 0.1458 0.9871
vn 0.2575 0.0968 0.9614
vn 0.2576 0.0974 0.9613
vn 0.2576 0.0974 0.9613
vn -0.0687 0.1467 0.9868
vn -0.0661 0.1458 0.9871
# 312 vertex normals

vt 0.6533 0.2324 0.0000
vt 0.6382 0.2251 0.0000
vt 0.6309 0.2529 0.0000
vt 0.6533 0.2324 0.0000
vt 0.6309 0.2529 0.0000
vt 0.6548 0.2539 0.0000
vt 0.6548 0.2539 0.0000
vt 0.6309 0.2529 0.0000
vt 0.6348 0.2598 0.0000
vt 0.6548 0.2539 0.0000
vt 0.6348 0.2598 0.0000
vt 0.6436 0.2681 0.0000
vt 0.6436 0.2681 0.0000
vt 0.6348 0.2598 0.0000
vt 0.6245 0.2778 0.0000
vt 0.6436 0.2681 0.0000
vt 0.6245 0.2778 0.0000
vt 0.6411 0.2822 0.0000
vt 0.6411 0.2822 0.0000
vt 0.6245 0.2778 0.0000
vt 0.6333 0.2930 0.0000
vt 0.6333 0.2930 0.0000
vt 0.6245 0.2778 0.0000
vt 0.6167 0.2852 0.0000
vt 0.6333 0.2930 0.0000
vt 0.6167 0.2852 0.0000
vt 0.6255 0.2964 0.0000
vt 0.6255 0.2964 0.0000
vt 0.6167 0.2852 0.0000
vt 0.6172 0.3042 0.0000
vt 0.6172 0.3042 0.0000
vt 0.6167 0.2852 0.0000
vt 0.6060 0.2920 0.0000
vt 0.6172 0.3042 0.0000
vt 0.6060 0.2920 0.0000
vt 0.6035 0.3105 0.0000
vt 0.6035 0.3105 0.0000
vt 0.6060 0.2920 0.0000
vt 0.5825 0.3086 0.0000
vt 0.5825 0.3086 0.0000
vt 0.6060 0.2920 0.0000
vt 0.5903 0.2886 0.0000
vt 0.5825 0.3086 0.0000
vt 0.5903 0.2886 0.0000
vt 0.5723 0.3032 0.0000
vt 0.5723 0.3032 0.0000
vt 0.5903 0.2886 0.0000
vt 0.5635 0.2793 0.0000
vt 0.5635 0.2793 0.0000
vt 0.5903 0.2886 0.0000
vt 0.5859 0.2764 0.0000
vt 0.5635 0.2793 0.0000
vt 0.5859 0.2764 0.0000
vt 0.5684 0.2568 0.0000
vt 0.5684 0.2568 0.0000
vt 0.5859 0.2764 0.0000
vt 0.5884 0.2651 0.0000
vt 0.5684 0.2568 0.0000
vt 0.5884 0.2651 0.0000
vt 0.5933 0.2354 0.0000
vt 0.5933 0.2354 0.0000
vt 0.5884 0.2651 0.0000
vt 0.6006 0.2544 0.0000
vt 0.5933 0.2354 0.0000
vt 0.6006 0.2544 0.0000
vt 0.6089 0.2275 0.0000
vt 0.6089 0.2275 0.0000
vt 0.6006 0.2544 0.0000
vt 0.6162 0.2490 0.0000
vt 0.6089 0.2275 0.0000
vt 0.6162 0.2490 0.0000
vt 0.6240 0.2241 0.0000
vt 0.6240 0.2241 0.0000
vt 0.6162 0.2490 0.0000
vt 0.6309 0.2529 0.0000
vt 0.6382 0.2251 0.0000
vt 0.6240 0.2241 0.0000
vt 0.6309 0.2529 0.0000
vt 0.6309 0.2529 0.0000
vt 0.6162 0.2490 0.0000
vt 0.6084 0.2734 0.0000
vt 0.6162 0.2490 0.0000
vt 0.6006 0.2544 0.0000
vt 0.6084 0.2734 0.0000
vt 0.6006 0.2544 0.0000
vt 0.5884 0.2651 0.0000
vt 0.6084 0.2734 0.0000
vt 0.5884 0.2651 0.0000
vt 0.5859 0.2764 0.0000
vt 0.6084 0.2734 0.0000
vt 0.5859 0.2764 0.0000
vt 0.5903 0.2886 0.0000
vt 0.6084 0.2734 0.0000
vt 0.5903 0.2886 0.0000
vt 0.6060 0.2920 0.0000
vt 0.6084 0.2734 0.0000
vt 0.6060 0.2920 0.0000
vt 0.6167 0.2852 0.0000
vt 0.6084 0.2734 0.0000
vt 0.6167 0.2852 0.0000
vt 0.6245 0.2778 0.0000
vt 0.6084 0.2734 0.0000
vt 0.6245 0.2778 0.0000
vt 0.6348 0.2598 0.0000
vt 0.6084 0.2734 0.0000
vt 0.6084 0.2734 0.0000
vt 0.6348 0.2598 0.0000
vt 0.6309 0.2529 0.0000
vt 0.0000 0.0000 0.0000
vt 0.0000 0.0500 0.0000
vt 0.0599 0.0000 0.0000
vt 0.0599 0.0500 0.0000
vt 0.1372 0.0000 0.0000
vt 0.1372 0.0500 0.0000
vt 0.2013 0.0000 0.0000
vt 0.2013 0.0500 0.0000
vt 0.2521 0.0000 0.0000
vt 0.2521 0.0500 0.0000
vt 0.3003 0.0000 0.0000
vt 0.3003 0.0500 0.0000
vt 0.3306 0.0000 0.0000
vt 0.3306 0.0500 0.0000
vt 0.3711 0.0000 0.0000
vt 0.3711 0.0500 0.0000
vt 0.4244 0.0000 0.0000
vt 0.4244 0.0500 0.0000
vt 0.4995 0.0000 0.0000
vt 0.4995 0.0500 0.0000
vt 0.5412 0.0000 0.0000
vt 0.5412 0.0500 0.0000
vt 0.6322 0.0000 0.0000
vt 0.6322 0.0500 0.0000
vt 0.7148 0.0000 0.0000
vt 0.7148 0.0500 0.0000
vt 0.8325 0.0000 0.0000
vt 0.8325 0.0500 0.0000
vt 0.8936 0.0000 0.0000
vt 0.8936 0.0500 0.0000
vt 0.9491 0.0000 0.0000
vt 0.9491 0.0500 0.0000
vt 1.0000 0.0000 0.0000
vt 1.0000 0.0500 0.0000
# 142 texture coords

o SM_Coral_Table_Acropora_08_LOD0
g SM_Coral_Table_Acropora_08_LOD0
usemtl MAT_Coral_Table
s 1
f 22/3/1 6/2/2 4/1/3 
f 1/6/4 22/5/5 4/4/6 
f 14/9/7 22/8/8 1/7/9 
f 3/12/10 14/11/11 1/10/12 
f 15/15/13 14/14/14 3/13/15 
f 2/18/16 15/17/17 3/16/18 
f 16/21/19 15/20/20 2/19/21 
f 27/24/22 15/23/23 16/22/24 
f 5/27/25 27/26/26 16/25/27 
f 8/30/28 27/29/29 5/28/30 
f 17/33/31 27/32/32 8/31/33 
f 18/36/34 17/35/35 8/34/36 
f 10/39/37 17/38/38 18/37/39 
f 26/42/40 17/41/41 10/40/42 
f 11/45/43 26/44/44 10/43/45 
f 12/48/46 26/47/47 11/46/48 
f 25/51/49 26/50/50 12/49/51 
f 13/54/52 25/53/53 12/52/54 
f 19/57/55 25/56/56 13/55/57 
f 20/60/58 19/59/59 13/58/60 
f 21/63/61 19/62/62 20/61/63 
f 9/66/64 21/65/65 20/64/66 
f 23/69/67 21/68/68 9/67/69 
f 7/72/70 23/71/71 9/70/72 
f 22/75/73 23/74/74 7/73/75 
f 22/78/76 7/77/77 6/76/78 
f 24/81/79 23/80/80 22/79/81 
f 24/84/82 21/83/83 23/82/84 
f 24/87/85 19/86/86 21/85/87 
f 24/90/88 25/89/89 19/88/90 
f 24/93/91 26/92/92 25/91/93 
f 24/96/94 17/95/95 26/94/96 
f 24/99/97 27/98/98 17/97/99 
f 24/102/100 15/101/101 27/100/102 
f 24/105/103 14/104/104 15/103/105 
f 22/108/106 14/107/107 24/106/108 
f 31/1/109 33/2/110 49/3/111 
f 31/4/112 49/5/113 28/6/114 
f 28/7/115 49/8/116 41/9/117 
f 28/10/118 41/11/119 30/12/120 
f 30/13/121 41/14/122 42/15/123 
f 30/16/124 42/17/125 29/18/126 
f 29/19/127 42/20/128 43/21/129 
f 43/22/130 42/23/131 54/24/132 
f 43/25/133 54/26/134 32/27/135 
f 32/28/136 54/29/137 35/30/138 
f 35/31/139 54/32/140 44/33/141 
f 35/34/142 44/35/143 45/36/144 
f 45/37/145 44/38/146 37/39/147 
f 37/40/148 44/41/149 53/42/150 
f 37/43/151 53/44/152 38/45/153 
f 38/46/154 53/47/155 39/48/156 
f 39/49/157 53/50/158 52/51/159 
f 39/52/160 52/53/161 40/54/162 
f 40/55/163 52/56/164 46/57/165 
f 40/58/166 46/59/167 47/60/168 
f 47/61/169 46/62/170 48/63/171 
f 47/64/172 48/65/173 36/66/174 
f 36/67/175 48/68/176 50/69/177 
f 36/70/178 50/71/179 34/72/180 
f 34/73/181 50/74/182 49/75/183 
f 33/76/184 34/77/185 49/78/186 
f 49/79/187 50/80/188 51/81/189 
f 50/82/190 48/83/191 51/84/192 
f 48/85/193 46/86/194 51/87/195 
f 46/88/196 52/89/197 51/90/198 
f 52/91/199 53/92/200 51/93/201 
f 53/94/202 44/95/203 51/96/204 
f 44/97/205 54/98/206 51/99/207 
f 54/100/208 42/101/209 51/102/210 
f 42/103/211 41/104/212 51/105/213 
f 51/106/214 41/107/215 49/108/216 
s 2
f 33/142/217 31/140/218 4/139/219 
f 4/139/220 6/141/221 33/142/222 
f 31/140/223 28/138/224 1/137/225 
f 1/137/226 4/139/227 31/140/228 
f 28/138/229 30/136/230 3/135/231 
f 3/135/232 1/137/233 28/138/234 
f 30/136/235 29/134/236 2/133/237 
f 2/133/238 3/135/239 30/136/240 
f 29/134/241 43/132/242 16/131/243 
f 16/131/244 2/133/245 29/134/246 
f 43/132/247 32/130/248 5/129/249 
f 5/129/250 16/131/251 43/132/252 
f 32/130/253 35/128/254 8/127/255 
f 8/127/256 5/129/257 32/130/258 
f 35/128/259 45/126/260 18/125/261 
f 18/125/262 8/127/263 35/128/264 
f 45/126/265 37/124/266 10/123/267 
f 10/123/268 18/125/269 45/126/270 
f 37/124/271 38/122/272 11/121/273 
f 11/121/274 10/123/275 37/124/276 
f 38/122/277 39/120/278 12/119/279 
f 12/119/280 11/121/281 38/122/282 
f 39/120/283 40/118/284 13/117/285 
f 13/117/286 12/119/287 39/120/288 
f 40/118/289 47/116/290 20/115/291 
f 20/115/292 13/117/293 40/118/294 
f 47/116/295 36/114/296 9/113/297 
f 9/113/298 20/115/299 47/116/300 
f 36/114/301 34/112/302 7/111/303 
f 7/111/304 9/113/305 36/114/306 
f 34/112/307 33/110/308 6/109/309 
f 6/109/310 7/111/311 34/112/312 
# 104 faces

#
# object SM_Coral_Table_Acropora_08_LOD1
#

v  -14.2881 2.8128 3.5783
v  15.4688 2.2813 12.2334
v  8.4517 3.6506 -9.0115
v  -12.8888 5.6541 -12.5430
v  5.1390 2.9458 15.1020
v  -0.2670 0.1980 -2.1857
v  -1.9166 4.8870 -15.0537
v  -0.2701 0.0000 -2.2134
v  15.9768 2.6647 4.6376
v  -15.9768 4.1765 -4.2730
v  11.1902 3.7276 -5.1281
v  -5.5373 3.3137 11.1740
v  11.9866 3.3496 -0.2115
v  -9.2115 5.7670 -14.3788
v  10.1172 2.7252 14.6927
v  -7.2648 2.1808 0.6985
v  2.8132 4.0710 -12.9417
v  5.5048 2.2035 -3.7036
v  -1.0918 3.2051 -8.6198
v  -0.1611 3.2664 13.8387
v  8.9279 1.8340 2.6152
v  -7.3024 1.9844 0.7010
v  5.4617 2.3931 -3.6569
v  -1.1008 3.0151 -8.6817
v  5.7080 3.9631 -10.1900
v  7.6088 1.5465 5.0368
v  -2.9021 1.9382 4.4941
v  -6.5963 3.3490 -7.3945
v  -6.5624 3.5385 -7.3404
v  7.5952 1.7453 5.0199
v  8.9669 1.6388 2.5964
v  -8.1489 2.6568 -3.2467
v  -8.1053 2.8487 -3.2110
v  2.4361 1.7325 6.4796
v  2.4429 1.9292 6.4440
v  -2.9279 1.7430 4.5291
v  2.7471 2.5054 -6.2506
v  2.7205 2.6935 -6.1879
v  -0.1448 3.4627 13.8038
v  5.1528 3.1433 15.0737
v  -9.2394 5.5751 -14.4281
v  2.8071 4.2651 -12.8940
v  -15.9435 4.3703 -4.2363
# 43 vertices

vn -0.0340 -0.9835 0.1775
vn -0.1383 -0.9736 0.1816
vn -0.0161 -0.9902 -0.1387
vn 0.0159 0.9902 0.1387
vn -0.1241 0.9418 0.3124
vn 0.0453 0.9497 0.3099
vn -0.1661 -0.9689 -0.1836
vn -0.1695 -0.9478 -0.2702
vn -0.2179 -0.9595 -0.1784
vn 0.0159 0.9902 0.1387
vn 0.1648 0.9493 0.2678
vn 0.2138 0.9595 0.1835
vn 0.0815 0.9813 -0.1744
vn 0.1286 0.9762 -0.1746
vn -0.8893 0.1466 0.4332
vn 0.0691 -0.9938 0.0873
vn -0.0340 -0.9835 0.1775
vn -0.0161 -0.9902 -0.1387
vn 0.8238 0.3841 -0.4170
vn -0.1849 0.9775 0.1015
vn 0.9794 0.1171 -0.1647
vn -0.0583 0.9949 -0.0828
vn 0.0690 0.9875 -0.1417
vn 0.8691 0.0021 0.4946
vn 0.8238 0.3841 -0.4170
vn 0.2057 -0.9728 -0.1064
vn 0.2279 -0.9456 -0.2322
vn 0.1328 0.1673 -0.9769
vn 0.0453 0.9497 0.3099
vn -0.0303 0.9707 0.2382
vn 0.0367 -0.9677 -0.2495
vn 0.1353 -0.9383 -0.3182
vn -0.0462 -0.9473 -0.3170
vn -0.2179 -0.9595 -0.1784
vn -0.1695 -0.9478 -0.2702
vn -0.0161 -0.9902 -0.1387
vn -0.0161 -0.9902 -0.1387
vn 0.2057 -0.9728 -0.1064
vn 0.0691 -0.9938 0.0873
vn 0.9794 0.1171 -0.1647
vn -0.0583 0.9949 -0.0828
vn 0.8059 0.0179 0.5918
vn 0.2138 0.9595 0.1835
vn 0.1648 0.9493 0.2678
vn 0.1613 0.9692 0.1863
vn -0.9753 0.1432 -0.1680
vn -0.1695 -0.9478 -0.2702
vn -0.1661 -0.9689 -0.1836
vn 0.0453 0.9497 0.3099
vn -0.1241 0.9418 0.3124
vn -0.0303 0.9707 0.2382
vn 0.9081 0.2363 -0.3458
vn 0.2279 -0.9456 -0.2322
vn 0.6479 0.1709 -0.7423
vn 0.1286 0.9762 -0.1746
vn 0.1753 0.9845 -0.0102
vn -0.8893 0.1466 0.4332
vn -0.1383 -0.9736 0.1816
vn -0.1881 -0.9820 0.0189
vn -0.0161 -0.9902 -0.1387
vn -0.2130 0.9512 0.2232
vn -0.1849 0.9775 0.1015
vn 0.8238 0.3841 -0.4170
vn 0.8238 0.3841 -0.4170
vn 0.2279 -0.9456 -0.2322
vn 0.9081 0.2363 -0.3458
vn 0.1613 0.9692 0.1863
vn 0.1648 0.9493 0.2678
vn -0.9753 0.1432 -0.1680
vn -0.1331 -0.9578 -0.2547
vn -0.1695 -0.9478 -0.2702
vn -0.9753 0.1432 -0.1680
vn 0.8691 0.0021 0.4946
vn -0.0510 -0.9880 0.1461
vn 0.0691 -0.9938 0.0873
vn -0.0583 0.9949 -0.0828
vn 0.8691 0.0021 0.4946
vn 0.8059 0.0179 0.5918
vn -0.5807 -0.0751 0.8106
vn 0.2138 0.9595 0.1835
vn 0.1613 0.9692 0.1863
vn -0.8893 0.1466 0.4332
vn 0.1753 0.9845 -0.0102
vn -0.5807 -0.0751 0.8106
vn -0.0303 0.9707 0.2382
vn -0.1241 0.9418 0.3124
vn 0.8957 0.2851 -0.3413
vn 0.8957 0.2851 -0.3413
vn 0.1353 -0.9383 -0.3182
vn 0.0367 -0.9677 -0.2495
vn -0.0462 -0.9473 -0.3170
vn 0.1353 -0.9383 -0.3182
vn -0.0161 -0.9902 -0.1387
vn 0.2279 -0.9456 -0.2322
vn 0.2057 -0.9728 -0.1064
vn -0.0161 -0.9902 -0.1387
vn -0.9753 0.1432 -0.1680
vn 0.1648 0.9493 0.2678
vn 0.1152 0.9599 0.2557
vn 0.1152 0.9599 0.2557
vn 0.0453 0.9497 0.3099
vn 0.1328 0.1673 -0.9769
vn -0.0510 -0.9880 0.1461
vn -0.0340 -0.9835 0.1775
vn 0.0691 -0.9938 0.0873
vn 0.0690 0.9875 -0.1417
vn 0.0340 0.9834 -0.1780
vn 0.0815 0.9813 -0.1744
vn -0.0583 0.9949 -0.0828
vn 0.0340 0.9834 -0.1780
vn 0.0690 0.9875 -0.1417
vn 0.0159 0.9902 0.1387
vn -0.1849 0.9775 0.1015
vn -0.2130 0.9512 0.2232
vn -0.1661 -0.9689 -0.1836
vn -0.2179 -0.9595 -0.1784
vn -0.5807 -0.0751 0.8106
vn -0.5807 -0.0751 0.8106
vn -0.1881 -0.9820 0.0189
vn -0.8893 0.1466 0.4332
vn 0.6479 0.1709 -0.7423
vn -0.2130 0.9512 0.2232
vn 0.9081 0.2363 -0.3458
vn 0.9081 0.2363 -0.3458
vn -0.2130 0.9512 0.2232
vn 0.8238 0.3841 -0.4170
vn 0.1328 0.1673 -0.9769
vn -0.0462 -0.9473 -0.3170
vn -0.1331 -0.9578 -0.2547
vn 0.0367 -0.9677 -0.2495
vn -0.0462 -0.9473 -0.3170
vn 0.1328 0.1673 -0.9769
vn 0.8957 0.2851 -0.3413
vn -0.1241 0.9418 0.3124
vn 0.6479 0.1709 -0.7423
vn 0.6479 0.1709 -0.7423
vn 0.1353 -0.9383 -0.3182
vn 0.8957 0.2851 -0.3413
vn 0.8059 0.0179 0.5918
vn 0.0691 -0.9938 0.0873
vn 0.9794 0.1171 -0.1647
vn 0.8059 0.0179 0.5918
vn 0.8691 0.0021 0.4946
vn 0.0691 -0.9938 0.0873
vn 0.0159 0.9902 0.1387
vn 0.0340 0.9834 -0.1780
vn -0.0583 0.9949 -0.0828
vn 0.0159 0.9902 0.1387
vn 0.1753 0.9845 -0.0102
vn 0.1286 0.9762 -0.1746
vn -0.1695 -0.9478 -0.2702
vn -0.0462 -0.9473 -0.3170
vn -0.0161 -0.9902 -0.1387
vn -0.1331 -0.9578 -0.2547
vn -0.0462 -0.9473 -0.3170
vn -0.1695 -0.9478 -0.2702
vn 0.0159 0.9902 0.1387
vn 0.0453 0.9497 0.3099
vn 0.1648 0.9493 0.2678
vn 0.1648 0.9493 0.2678
vn 0.0453 0.9497 0.3099
vn 0.1152 0.9599 0.2557
vn -0.0583 0.9949 -0.0828
vn -0.1849 0.9775 0.1015
vn 0.0159 0.9902 0.1387
vn -0.1849 0.9775 0.1015
vn -0.0583 0.9949 -0.0828
vn 0.9794 0.1171 -0.1647
vn 0.9794 0.1171 -0.1647
vn 0.2057 -0.9728 -0.1064
vn 0.8238 0.3841 -0.4170
vn 0.9794 0.1171 -0.1647
vn 0.0691 -0.9938 0.0873
vn 0.2057 -0.9728 -0.1064
vn -0.1881 -0.9820 0.0189
vn -0.2179 -0.9595 -0.1784
vn -0.0161 -0.9902 -0.1387
vn -0.5807 -0.0751 0.8106
vn -0.2179 -0.9595 -0.1784
vn -0.1881 -0.9820 0.0189
vn 0.0159 0.9902 0.1387
vn 0.2138 0.9595 0.1835
vn 0.1753 0.9845 -0.0102
vn 0.1753 0.9845 -0.0102
vn 0.2138 0.9595 0.1835
vn -0.5807 -0.0751 0.8106
vn -0.0938 -0.9796 0.1777
vn -0.0340 -0.9835 0.1775
vn -0.0510 -0.9880 0.1461
vn -0.0938 -0.9796 0.1777
vn -0.1383 -0.9736 0.1816
vn -0.0340 -0.9835 0.1775
vn 0.0159 0.9902 0.1387
vn 0.1286 0.9762 -0.1746
vn 0.0340 0.9834 -0.1780
vn 0.0340 0.9834 -0.1780
vn 0.1286 0.9762 -0.1746
vn 0.0815 0.9813 -0.1744
vn -0.8893 0.1466 0.4332
vn -0.1383 -0.9736 0.1816
vn -0.0938 -0.9796 0.1777
vn -0.8893 0.1466 0.4332
vn -0.1881 -0.9820 0.0189
vn -0.1383 -0.9736 0.1816
vn 0.1353 -0.9383 -0.3182
vn 0.2279 -0.9456 -0.2322
vn -0.0161 -0.9902 -0.1387
vn 0.6479 0.1709 -0.7423
vn 0.2279 -0.9456 -0.2322
vn 0.1353 -0.9383 -0.3182
vn 0.0159 0.9902 0.1387
vn -0.2130 0.9512 0.2232
vn -0.1241 0.9418 0.3124
vn -0.1241 0.9418 0.3124
vn -0.2130 0.9512 0.2232
vn 0.6479 0.1709 -0.7423
vn -0.3274 0.1911 0.9253
vn -0.0680 0.1463 0.9869
vn -0.0687 0.1467 0.9868
vn -0.0687 0.1467 0.9868
vn -0.3284 0.1915 0.9249
vn -0.3274 0.1911 0.9253
vn -0.4344 0.1923 0.8799
vn -0.3274 0.1911 0.9253
vn -0.3284 0.1915 0.9249
vn 0.0871 0.1354 0.9869
vn -0.0687 0.1467 0.9868
vn -0.0680 0.1463 0.9869
vn -0.6280 0.2791 -0.7264
vn -0.2492 0.2747 -0.9287
vn -0.2531 0.2750 -0.9276
vn 0.2339 0.2473 -0.9403
vn -0.2531 0.2750 -0.9276
vn -0.2492 0.2747 -0.9287
vn 0.2339 0.2473 -0.9403
vn 0.5618 0.2139 -0.7991
vn 0.5595 0.2142 -0.8007
vn 0.6795 0.1950 -0.7073
vn 0.5595 0.2142 -0.8007
vn 0.5618 0.2139 -0.7991
vn -0.9657 0.1224 0.2290
vn -0.9835 0.1765 -0.0407
vn -0.9834 0.1766 -0.0408
vn -0.6280 0.2791 -0.7264
vn -0.9834 0.1766 -0.0408
vn -0.9835 0.1765 -0.0407
# 246 vertex normals

vt 0.6533 0.2324 0.0000
vt 0.5684 0.2568 0.0000
vt 0.6333 0.2930 0.0000
vt 0.6333 0.2930 0.0000
vt 0.5723 0.3032 0.0000
vt 0.5723 0.3032 0.0000
vt 0.6240 0.2241 0.0000
vt 0.6084 0.2734 0.0000
vt 0.6533 0.2324 0.0000
vt 0.6240 0.2241 0.0000
vt 0.6084 0.2734 0.0000
vt 0.6084 0.2734 0.0000
vt 0.6084 0.2734 0.0000
vt 0.6035 0.3105 0.0000
vt 0.6084 0.2734 0.0000
vt 0.6084 0.2734 0.0000
vt 0.6084 0.2734 0.0000
vt 0.6548 0.2539 0.0000
vt 0.6548 0.2539 0.0000
vt 0.6548 0.2539 0.0000
vt 0.5635 0.2793 0.0000
vt 0.5635 0.2793 0.0000
vt 0.6411 0.2822 0.0000
vt 0.6411 0.2822 0.0000
vt 0.5933 0.2354 0.0000
vt 0.5933 0.2354 0.0000
vt 0.6436 0.2681 0.0000
vt 0.6436 0.2681 0.0000
vt 0.6436 0.2681 0.0000
vt 0.5825 0.3086 0.0000
vt 0.5825 0.3086 0.0000
vt 0.6382 0.2251 0.0000
vt 0.6382 0.2251 0.0000
vt 0.5684 0.2568 0.0000
vt 0.5884 0.2651 0.0000
vt 0.5635 0.2793 0.0000
vt 0.5933 0.2354 0.0000
vt 0.5884 0.2651 0.0000
vt 0.5884 0.2651 0.0000
vt 0.6172 0.3042 0.0000
vt 0.6172 0.3042 0.0000
vt 0.6172 0.3042 0.0000
vt 0.6245 0.2778 0.0000
vt 0.6245 0.2778 0.0000
vt 0.6245 0.2778 0.0000
vt 0.6245 0.2778 0.0000
vt 0.6245 0.2778 0.0000
vt 0.6060 0.2920 0.0000
vt 0.6060 0.2920 0.0000
vt 0.6035 0.3105 0.0000
vt 0.6060 0.2920 0.0000
vt 0.6060 0.2920 0.0000
vt 0.6060 0.2920 0.0000
vt 0.6240 0.2241 0.0000
vt 0.6089 0.2275 0.0000
vt 0.6089 0.2275 0.0000
vt 0.6089 0.2275 0.0000
vt 0.6348 0.2598 0.0000
vt 0.6348 0.2598 0.0000
vt 0.6348 0.2598 0.0000
vt 0.6348 0.2598 0.0000
vt 0.5884 0.2651 0.0000
vt 0.6255 0.2964 0.0000
vt 0.6255 0.2964 0.0000
vt 0.6309 0.2529 0.0000
vt 0.6309 0.2529 0.0000
vt 0.6309 0.2529 0.0000
vt 0.6309 0.2529 0.0000
vt 0.6309 0.2529 0.0000
vt 0.6309 0.2529 0.0000
vt 0.6006 0.2544 0.0000
vt 0.6006 0.2544 0.0000
vt 0.6006 0.2544 0.0000
vt 0.6006 0.2544 0.0000
vt 0.5903 0.2886 0.0000
vt 0.6060 0.2920 0.0000
vt 0.6084 0.2734 0.0000
vt 0.5825 0.3086 0.0000
vt 0.5903 0.2886 0.0000
vt 0.5903 0.2886 0.0000
vt 0.5903 0.2886 0.0000
vt 0.5903 0.2886 0.0000
vt 0.5903 0.2886 0.0000
vt 0.6348 0.2598 0.0000
vt 0.6309 0.2529 0.0000
vt 0.5884 0.2651 0.0000
vt 0.5859 0.2764 0.0000
vt 0.6084 0.2734 0.0000
vt 0.5684 0.2568 0.0000
vt 0.5859 0.2764 0.0000
vt 0.5859 0.2764 0.0000
vt 0.5859 0.2764 0.0000
vt 0.5859 0.2764 0.0000
vt 0.6162 0.2490 0.0000
vt 0.6162 0.2490 0.0000
vt 0.6162 0.2490 0.0000
vt 0.6162 0.2490 0.0000
vt 0.6162 0.2490 0.0000
vt 0.6006 0.2544 0.0000
vt 0.6167 0.2852 0.0000
vt 0.6245 0.2778 0.0000
vt 0.6084 0.2734 0.0000
vt 0.6333 0.2930 0.0000
vt 0.6167 0.2852 0.0000
vt 0.6167 0.2852 0.0000
vt 0.6167 0.2852 0.0000
vt 0.6167 0.2852 0.0000
vt 0.6167 0.2852 0.0000
vt 0.0599 0.0500 0.0000
vt 0.1372 0.0000 0.0000
vt 0.1372 0.0500 0.0000
vt 0.2013 0.0000 0.0000
vt 0.0000 0.0000 0.0000
vt 0.0599 0.0000 0.0000
vt 0.3306 0.0500 0.0000
vt 0.3711 0.0000 0.0000
vt 0.3711 0.0500 0.0000
vt 0.4244 0.0000 0.0000
vt 0.4995 0.0000 0.0000
vt 0.4995 0.0500 0.0000
vt 0.5412 0.0000 0.0000
vt 0.2521 0.0500 0.0000
vt 0.3003 0.0000 0.0000
vt 0.3003 0.0500 0.0000
# 124 texture coords

o SM_Coral_Table_Acropora_08_LOD1
g SM_Coral_Table_Acropora_08_LOD1
usemtl MAT_Coral_Table
s 1
f 88/239/313 90/241/314 62/158/315 
f 60/153/316 92/247/317 73/194/318 
f 64/163/319 82/223/320 86/233/321 
f 60/155/322 83/222/323 87/234/324 
f 93/199/325 81/216/326 66/168/327 
f 80/211/328 88/238/329 62/157/330 
f 67/171/331 75/202/332 63/162/333 
f 84/210/334 94/152/335 69/174/336 
f 67/169/337 85/203/338 72/187/339 
f 61/156/340 73/195/341 96/183/342 
f 71/184/343 91/248/344 78/193/345 
f 86/234/346 82/222/347 62/155/348 
f 62/159/349 85/226/350 80/212/351 
f 63/161/352 84/207/353 56/151/354 
f 87/233/355 83/223/356 97/163/357 
f 58/147/358 82/225/359 64/164/360 
f 73/193/361 92/248/362 96/184/363 
f 65/166/364 72/189/365 57/146/366 
f 81/215/367 70/181/368 66/167/369 
f 90/214/370 76/204/371 62/154/372 
f 77/187/373 75/203/374 67/169/375 
f 67/170/376 72/188/377 65/165/378 
f 97/164/379 83/225/380 58/147/381 
f 95/173/382 82/224/383 58/148/384 
f 69/174/385 59/152/386 80/210/387 
f 84/208/388 69/175/389 56/143/390 
f 55/176/391 87/235/392 97/178/393 
f 66/179/394 70/180/395 55/144/396 
f 96/182/397 92/250/398 79/206/399 
f 79/206/400 91/250/401 71/182/402 
f 78/194/403 91/247/404 62/153/405 
f 72/186/406 85/201/407 62/150/408 
f 58/148/409 83/224/410 68/173/411 
f 68/172/412 73/191/413 61/192/414 
f 59/196/415 88/240/416 80/209/417 
f 94/149/418 89/236/419 93/198/420 
f 84/209/421 89/240/422 94/196/423 
f 60/150/424 75/201/425 77/186/426 
f 64/178/427 86/235/428 55/176/429 
f 55/144/430 76/180/431 66/179/432 
f 57/146/433 77/189/434 65/166/435 
f 65/165/436 77/188/437 67/170/438 
f 61/192/439 78/191/440 95/172/441 
f 71/183/442 78/195/443 61/156/444 
f 79/205/445 92/249/446 57/145/447 
f 57/145/448 91/249/449 79/205/450 
f 56/151/451 80/207/452 63/161/453 
f 56/143/454 69/175/455 80/208/456 
f 60/157/457 89/238/458 84/211/459 
f 60/154/460 70/204/461 81/214/462 
f 82/217/463 78/218/464 62/219/465 
f 95/220/466 78/190/467 82/221/468 
f 60/219/469 73/218/470 83/217/471 
f 83/221/472 73/190/473 68/220/474 
f 84/212/475 75/226/476 60/159/477 
f 75/200/478 84/227/479 63/160/480 
f 63/162/481 85/202/482 67/171/483 
f 63/160/484 80/227/485 85/200/486 
f 76/228/487 86/229/488 62/230/489 
f 55/231/490 86/232/491 76/177/492 
f 60/230/493 87/229/494 70/228/495 
f 70/177/496 87/232/497 55/231/498 
f 74/198/499 88/236/500 59/149/501 
f 74/197/502 90/213/503 88/237/504 
f 60/158/505 81/241/506 89/239/507 
f 89/237/508 81/213/509 93/197/510 
f 66/168/511 90/216/512 74/199/513 
f 66/167/514 76/181/515 90/215/516 
f 91/242/517 72/243/518 62/244/519 
f 57/245/520 72/185/521 91/246/522 
f 60/244/523 77/243/524 92/242/525 
f 92/246/526 77/185/527 57/245/528 
s 2
f 74/253/529 59/251/530 94/256/531 
f 94/256/532 93/252/533 74/253/534 
f 66/254/535 74/253/536 93/252/537 
f 69/255/538 94/256/539 59/251/540 
f 58/257/541 68/258/542 95/259/543 
f 61/260/544 95/259/545 68/258/546 
f 61/260/547 96/261/548 71/262/549 
f 79/263/550 71/262/551 96/261/552 
f 55/264/553 97/265/554 64/266/555 
f 58/257/556 64/266/557 97/265/558 
# 82 faces

#
# object SM_Coral_Table_Acropora_08_LOD2
#

v  -14.2881 2.8128 3.5783
v  15.4688 2.2813 12.2334
v  8.4517 3.6506 -9.0115
v  -12.8888 5.6541 -12.5430
v  5.1390 2.9458 15.1020
v  -0.2670 0.1980 -2.1857
v  -1.9166 4.8870 -15.0537
v  -0.2701 0.0000 -2.2134
v  15.9768 2.6647 4.6376
v  -15.9768 4.1765 -4.2730
v  11.1902 3.7276 -5.1281
v  -5.5373 3.3137 11.1740
v  11.9866 3.3496 -0.2115
v  -9.2115 5.7670 -14.3788
v  10.1172 2.7252 14.6927
v  -7.2648 2.1808 0.6985
v  2.8132 4.0710 -12.9417
v  5.5048 2.2035 -3.7036
v  -1.0918 3.2051 -8.6198
v  -0.1611 3.2664 13.8387
v  8.9279 1.8340 2.6152
v  -7.3024 1.9844 0.7010
v  5.4617 2.3931 -3.6569
v  -1.1008 3.0151 -8.6817
v  5.7080 3.9631 -10.1900
v  7.6088 1.5465 5.0368
v  -2.9021 1.9382 4.4941
v  -6.5963 3.3490 -7.3945
v  -6.5624 3.5385 -7.3404
v  7.5952 1.7453 5.0199
# 30 vertices

vn 0.9972 -0.0696 0.0290
vn -0.5795 0.1949 0.7913
vn -0.0223 -0.9882 -0.1515
vn 0.0172 0.9898 0.1411
vn -0.2013 0.9508 0.2353
vn 0.0441 0.9538 0.2970
vn -0.9890 0.1368 -0.0561
vn -0.1701 -0.9506 -0.2596
vn -0.1872 -0.9823 -0.0102
vn 0.0172 0.9898 0.1411
vn 0.1602 0.9549 0.2501
vn 0.1708 0.9852 0.0160
vn 0.9972 -0.0696 0.0290
vn 0.1166 0.9793 -0.1655
vn -0.5795 0.1949 0.7913
vn 0.0581 -0.9932 0.1009
vn 0.9972 -0.0696 0.0290
vn -0.0223 -0.9882 -0.1515
vn 0.6222 0.4722 -0.6244
vn -0.1849 0.9775 0.1015
vn 0.9850 0.0964 0.1432
vn -0.0493 0.9956 -0.0793
vn -0.9806 0.0336 -0.1931
vn 0.2573 0.1053 0.9606
vn 0.6222 0.4722 -0.6244
vn 0.9850 0.0964 0.1432
vn 0.2127 -0.9392 -0.2694
vn 0.1471 0.2163 -0.9652
vn 0.0441 0.9538 0.2970
vn 0.5480 0.1530 -0.8224
vn 0.5480 0.1530 -0.8224
vn 0.2127 -0.9392 -0.2694
vn -0.0380 -0.9487 -0.3140
vn -0.1872 -0.9823 -0.0102
vn -0.1701 -0.9506 -0.2596
vn -0.0223 -0.9882 -0.1515
vn -0.0223 -0.9882 -0.1515
vn 0.9850 0.0964 0.1432
vn 0.0581 -0.9932 0.1009
vn 0.9850 0.0964 0.1432
vn -0.0493 0.9956 -0.0793
vn 0.8059 0.0179 0.5918
vn 0.1708 0.9852 0.0160
vn 0.1602 0.9549 0.2501
vn -0.9890 0.1368 -0.0561
vn -0.7375 0.2496 -0.6275
vn -0.1701 -0.9506 -0.2596
vn -0.9890 0.1368 -0.0561
vn 0.0441 0.9538 0.2970
vn -0.2013 0.9508 0.2353
vn 0.5480 0.1530 -0.8224
vn 0.9081 0.2363 -0.3458
vn 0.2127 -0.9392 -0.2694
vn 0.6050 0.1526 -0.7815
vn 0.1166 0.9793 -0.1655
vn 0.1708 0.9852 0.0160
vn -0.5795 0.1949 0.7913
vn -0.5795 0.1949 0.7913
vn -0.1872 -0.9823 -0.0102
vn -0.0223 -0.9882 -0.1515
vn -0.2013 0.9508 0.2353
vn -0.1849 0.9775 0.1015
vn 0.6222 0.4722 -0.6244
vn 0.6222 0.4722 -0.6244
vn 0.2127 -0.9392 -0.2694
vn 0.9081 0.2363 -0.3458
vn -0.9890 0.1368 -0.0561
vn 0.1602 0.9549 0.2501
vn -0.7375 0.2496 -0.6275
vn -0.2809 0.3000 -0.9116
vn -0.1701 -0.9506 -0.2596
vn -0.7375 0.2496 -0.6275
vn 0.2573 0.1053 0.9606
vn -0.9806 0.0336 -0.1931
vn 0.0581 -0.9932 0.1009
vn -0.0493 0.9956 -0.0793
vn 0.2573 0.1053 0.9606
vn 0.8059 0.0179 0.5918
vn -0.8708 0.0219 0.4912
vn 0.1708 0.9852 0.0160
vn -0.9890 0.1368 -0.0561
vn -0.5795 0.1949 0.7913
vn 0.1708 0.9852 0.0160
vn -0.8708 0.0219 0.4912
vn 0.5480 0.1530 -0.8224
vn -0.2013 0.9508 0.2353
vn 0.5919 0.3259 -0.7372
vn 0.5919 0.3259 -0.7372
vn 0.2127 -0.9392 -0.2694
vn 0.5480 0.1530 -0.8224
vn -0.0380 -0.9487 -0.3140
vn 0.2127 -0.9392 -0.2694
vn -0.0223 -0.9882 -0.1515
vn 0.2127 -0.9392 -0.2694
vn 0.9850 0.0964 0.1432
vn -0.0223 -0.9882 -0.1515
vn -0.7375 0.2496 -0.6275
vn 0.1602 0.9549 0.2501
vn -0.2809 0.3000 -0.9116
vn -0.2809 0.3000 -0.9116
vn 0.0441 0.9538 0.2970
vn 0.1471 0.2163 -0.9652
vn -0.9806 0.0336 -0.1931
vn 0.9972 -0.0696 0.0290
vn 0.0581 -0.9932 0.1009
vn -0.9806 0.0336 -0.1931
vn 0.1166 0.9793 -0.1655
vn 0.9972 -0.0696 0.0290
vn -0.0493 0.9956 -0.0793
vn 0.1166 0.9793 -0.1655
vn -0.9806 0.0336 -0.1931
vn 0.0172 0.9898 0.1411
vn -0.1849 0.9775 0.1015
vn -0.2013 0.9508 0.2353
vn -0.9890 0.1368 -0.0561
vn -0.1872 -0.9823 -0.0102
vn -0.8708 0.0219 0.4912
vn -0.8708 0.0219 0.4912
vn -0.1872 -0.9823 -0.0102
vn -0.5795 0.1949 0.7913
vn 0.6050 0.1526 -0.7815
vn -0.2013 0.9508 0.2353
vn 0.9081 0.2363 -0.3458
vn 0.9081 0.2363 -0.3458
vn -0.2013 0.9508 0.2353
vn 0.6222 0.4722 -0.6244
vn 0.1471 0.2163 -0.9652
vn -0.0380 -0.9487 -0.3140
vn -0.2809 0.3000 -0.9116
vn 0.5480 0.1530 -0.8224
vn -0.0380 -0.9487 -0.3140
vn 0.1471 0.2163 -0.9652
vn 0.5919 0.3259 -0.7372
vn -0.2013 0.9508 0.2353
vn 0.6050 0.1526 -0.7815
vn 0.6050 0.1526 -0.7815
vn 0.2127 -0.9392 -0.2694
vn 0.5919 0.3259 -0.7372
vn 0.8059 0.0179 0.5918
vn 0.0581 -0.9932 0.1009
vn 0.9850 0.0964 0.1432
vn 0.8059 0.0179 0.5918
vn 0.2573 0.1053 0.9606
vn 0.0581 -0.9932 0.1009
vn 0.0172 0.9898 0.1411
vn 0.1166 0.9793 -0.1655
vn -0.0493 0.9956 -0.0793
vn 0.0172 0.9898 0.1411
vn 0.1708 0.9852 0.0160
vn 0.1166 0.9793 -0.1655
vn -0.1701 -0.9506 -0.2596
vn -0.0380 -0.9487 -0.3140
vn -0.0223 -0.9882 -0.1515
vn -0.2809 0.3000 -0.9116
vn -0.0380 -0.9487 -0.3140
vn -0.1701 -0.9506 -0.2596
vn 0.0172 0.9898 0.1411
vn 0.0441 0.9538 0.2970
vn 0.1602 0.9549 0.2501
vn 0.1602 0.9549 0.2501
vn 0.0441 0.9538 0.2970
vn -0.2809 0.3000 -0.9116
vn -0.0493 0.9956 -0.0793
vn -0.1849 0.9775 0.1015
vn 0.0172 0.9898 0.1411
vn -0.1849 0.9775 0.1015
vn -0.0493 0.9956 -0.0793
vn 0.9850 0.0964 0.1432
# 168 vertex normals

vt 0.6533 0.2324 0.0000
vt 0.5684 0.2568 0.0000
vt 0.6333 0.2930 0.0000
vt 0.6333 0.2930 0.0000
vt 0.5723 0.3032 0.0000
vt 0.5723 0.3032 0.0000
vt 0.6240 0.2241 0.0000
vt 0.6084 0.2734 0.0000
vt 0.6533 0.2324 0.0000
vt 0.6240 0.2241 0.0000
vt 0.6084 0.2734 0.0000
vt 0.6084 0.2734 0.0000
vt 0.6084 0.2734 0.0000
vt 0.6035 0.3105 0.0000
vt 0.6084 0.2734 0.0000
vt 0.6084 0.2734 0.0000
vt 0.6084 0.2734 0.0000
vt 0.6548 0.2539 0.0000
vt 0.6548 0.2539 0.0000
vt 0.6548 0.2539 0.0000
vt 0.5635 0.2793 0.0000
vt 0.5635 0.2793 0.0000
vt 0.6411 0.2822 0.0000
vt 0.6411 0.2822 0.0000
vt 0.5933 0.2354 0.0000
vt 0.5933 0.2354 0.0000
vt 0.6436 0.2681 0.0000
vt 0.6436 0.2681 0.0000
vt 0.6436 0.2681 0.0000
vt 0.5825 0.3086 0.0000
vt 0.5825 0.3086 0.0000
vt 0.6382 0.2251 0.0000
vt 0.6382 0.2251 0.0000
vt 0.5684 0.2568 0.0000
vt 0.5884 0.2651 0.0000
vt 0.5635 0.2793 0.0000
vt 0.5933 0.2354 0.0000
vt 0.5884 0.2651 0.0000
vt 0.5884 0.2651 0.0000
vt 0.6172 0.3042 0.0000
vt 0.6172 0.3042 0.0000
vt 0.6172 0.3042 0.0000
vt 0.6245 0.2778 0.0000
vt 0.6245 0.2778 0.0000
vt 0.6245 0.2778 0.0000
vt 0.6245 0.2778 0.0000
vt 0.6245 0.2778 0.0000
vt 0.6060 0.2920 0.0000
vt 0.6060 0.2920 0.0000
vt 0.6035 0.3105 0.0000
vt 0.6060 0.2920 0.0000
vt 0.6060 0.2920 0.0000
vt 0.6060 0.2920 0.0000
vt 0.6240 0.2241 0.0000
vt 0.6089 0.2275 0.0000
vt 0.6089 0.2275 0.0000
vt 0.6089 0.2275 0.0000
vt 0.6348 0.2598 0.0000
vt 0.6348 0.2598 0.0000
vt 0.6348 0.2598 0.0000
vt 0.6348 0.2598 0.0000
vt 0.5884 0.2651 0.0000
vt 0.6255 0.2964 0.0000
vt 0.6255 0.2964 0.0000
vt 0.6309 0.2529 0.0000
vt 0.6309 0.2529 0.0000
vt 0.6309 0.2529 0.0000
vt 0.6309 0.2529 0.0000
vt 0.6309 0.2529 0.0000
vt 0.6309 0.2529 0.0000
vt 0.6006 0.2544 0.0000
vt 0.6006 0.2544 0.0000
vt 0.6006 0.2544 0.0000
vt 0.6006 0.2544 0.0000
vt 0.5903 0.2886 0.0000
vt 0.6060 0.2920 0.0000
vt 0.6084 0.2734 0.0000
vt 0.5825 0.3086 0.0000
vt 0.5903 0.2886 0.0000
vt 0.5903 0.2886 0.0000
vt 0.5903 0.2886 0.0000
vt 0.5903 0.2886 0.0000
vt 0.5903 0.2886 0.0000
vt 0.6348 0.2598 0.0000
vt 0.6309 0.2529 0.0000
# 85 texture coords

o SM_Coral_Table_Acropora_08_LOD2
g SM_Coral_Table_Acropora_08_LOD2
usemtl MAT_Coral_Table
s 1
f 117/321/559 109/291/560 105/282/561 
f 103/277/562 120/309/563 116/318/564 
f 107/287/565 125/347/566 119/301/567 
f 103/279/568 126/346/569 113/301/570 
f 117/323/571 124/340/572 109/292/573 
f 123/335/574 117/321/575 105/281/576 
f 110/295/577 118/326/578 106/286/579 
f 127/334/580 102/276/581 112/298/582 
f 110/293/583 106/284/584 115/311/585 
f 104/280/586 116/319/587 114/307/588 
f 114/308/589 115/309/590 121/317/591 
f 119/301/592 125/346/593 105/279/594 
f 105/283/595 106/284/596 123/336/597 
f 106/285/598 127/331/599 99/275/600 
f 113/301/601 126/347/602 107/287/603 
f 101/271/604 125/349/605 107/288/606 
f 116/317/607 120/309/608 114/308/609 
f 108/290/610 115/313/611 100/270/612 
f 124/339/613 113/305/614 109/291/615 
f 109/291/616 119/328/617 105/278/618 
f 120/311/619 118/327/620 110/293/621 
f 110/294/622 115/312/623 108/289/624 
f 107/288/625 126/349/626 101/271/627 
f 111/297/628 125/348/629 101/272/630 
f 112/298/631 102/276/632 123/334/633 
f 127/332/634 112/299/635 99/267/636 
f 98/300/637 113/301/638 107/302/639 
f 109/303/640 113/304/641 98/268/642 
f 114/306/643 120/309/644 122/330/645 
f 122/330/646 115/309/647 114/306/648 
f 121/318/649 115/309/650 105/277/651 
f 115/310/652 106/284/653 105/274/654 
f 101/272/655 126/348/656 111/297/657 
f 111/296/658 116/315/659 104/316/660 
f 102/320/661 117/321/662 123/333/663 
f 102/273/664 124/337/665 117/322/666 
f 127/333/667 124/337/668 102/320/669 
f 103/274/670 118/325/671 120/310/672 
f 107/302/673 119/301/674 98/300/675 
f 98/268/676 119/304/677 109/303/678 
f 100/270/679 120/313/680 108/290/681 
f 108/289/682 120/312/683 110/294/684 
f 104/316/685 121/315/686 111/296/687 
f 114/307/688 121/319/689 104/280/690 
f 122/329/691 120/309/692 100/269/693 
f 100/269/694 115/309/695 122/329/696 
f 99/275/697 123/331/698 106/285/699 
f 99/267/700 112/299/701 123/332/702 
f 103/281/703 124/337/704 127/335/705 
f 103/278/706 113/328/707 124/338/708 
f 125/341/709 121/342/710 105/343/711 
f 111/344/712 121/314/713 125/345/714 
f 103/343/715 116/342/716 126/341/717 
f 126/345/718 116/314/719 111/344/720 
f 127/336/721 118/350/722 103/283/723 
f 118/324/724 127/351/725 106/284/726 
# 56 faces

