# 3ds Max Wavefront OBJ Exporter v0.97b - (c)2007 guruware
# File Created: 10.02.2024 08:45:28

mtllib SM_Chiton_04.mtl

#
# object SM_Chiton_04_LOD0
#

v  -1.6507 0.0000 25.3052
v  -1.4088 0.2363 21.9341
v  5.5498 0.0000 24.5957
v  12.6847 0.0000 20.1568
v  16.0006 0.0000 13.2512
v  16.0624 0.0000 3.5117
v  15.5295 0.0000 -5.3022
v  14.7866 0.0334 2.8997
v  14.3639 0.0645 -4.7246
v  12.6264 0.1377 -13.5323
v  7.4335 0.2079 -19.1907
v  13.8647 0.0000 -14.4123
v  8.4445 0.0000 -21.6121
v  1.8316 0.0000 -25.3052
v  -4.7371 0.0000 -24.3862
v  -4.1613 0.2079 -21.4076
v  -11.4062 0.0000 -21.4188
v  -15.5120 0.0000 -10.1816
v  -16.0624 0.0000 -0.2734
v  -14.7208 0.0334 -0.4079
v  -15.0147 0.0000 11.5975
v  -13.5408 0.0000 18.7528
v  -11.6963 0.1377 16.3472
v  -7.1156 0.2079 20.3106
v  -8.0864 0.0000 23.6975
v  4.9015 0.2079 21.0381
v  11.3827 0.1377 17.1864
v  4.2649 1.5550 18.7043
v  9.8031 1.4061 15.0462
v  14.2191 0.0645 11.0253
v  12.5342 1.2508 9.4989
v  10.9489 1.4061 -12.3637
v  1.6441 1.6152 -18.9837
v  1.6334 0.2363 -21.7927
v  -10.0055 0.1377 -18.1559
v  -14.2730 0.0645 -8.8557
v  -13.6370 0.0645 9.6166
v  -12.2289 1.2508 8.0918
v  -1.2270 1.6152 19.7045
v  7.9006 3.9248 12.6813
v  10.7672 3.5869 7.6529
v  13.2855 1.1849 2.3938
v  12.9975 1.2508 -4.4743
v  9.4190 3.9248 -11.5920
v  6.7319 1.5550 -16.8493
v  -3.6849 1.5550 -18.7979
v  -8.8826 1.4061 -15.8393
v  -3.2002 4.2488 -16.1071
v  -12.7162 1.2508 -7.9510
v  -11.9943 3.4436 -1.1526
v  -13.2472 1.1849 -0.6265
v  -10.9776 3.5869 6.0718
v  -8.8760 3.9248 11.4194
v  -10.3151 1.4061 14.1052
v  -5.3798 4.2488 15.6557
v  -6.2686 1.5550 17.9957
v  -1.0233 4.3798 17.7493
v  3.5363 4.2488 16.4161
v  -0.8645 7.6988 13.5797
v  2.5550 7.5685 12.7771
v  11.9781 3.4436 1.6782
v  6.7076 7.3251 -7.9454
v  11.9210 3.5869 -4.5546
v  5.8499 4.2488 -14.6504
v  0.9248 7.6867 -10.8086
v  1.5331 4.3798 -15.8807
v  -2.4423 7.5273 -10.6803
v  -7.7756 3.9248 -13.4194
v  -11.2311 3.5869 -7.4350
v  -8.1117 7.0958 4.1263
v  -4.0336 7.6159 11.8686
v  -0.6082 10.2637 8.0481
v  1.3329 10.1540 7.8125
v  5.9566 7.3251 9.6429
v  7.8765 7.0958 5.7663
v  4.2404 9.9120 3.3435
v  4.3547 9.8688 0.4338
v  8.5462 6.9989 1.0679
v  4.1757 9.9105 -2.0129
v  8.3468 7.0958 -3.4837
v  3.3524 9.7800 -4.0588
v  3.9949 7.6147 -9.8150
v  1.9948 9.5428 -6.2103
v  -5.6393 7.3018 -9.3971
v  -8.0273 7.0958 -5.6191
v  -4.1248 9.8352 -2.8030
v  -4.6443 9.8688 -0.5073
v  -8.7153 6.9989 -0.8982
v  -4.4789 9.9120 1.9061
v  -6.5774 7.3251 8.0391
v  -3.6545 10.0155 4.0182
v  -2.2979 10.2338 6.9196
v  -2.9962 9.5122 -4.4901
v  -1.4380 9.4132 -6.5344
v  0.3152 9.5823 -6.6554
v  3.4071 10.0155 5.6617
v  0.3851 11.4945 0.4364
v  -5.8289 2.1211 -16.8859
v  -7.8676 2.2229 -15.6555
v  -5.6303 3.2984 -15.7422
v  -3.8999 2.1718 -17.9859
v  -4.9569 1.2963 -18.6222
v  -3.7044 1.0488 -20.6006
v  -4.4227 1.1360 -20.2598
v  -5.0816 0.5010 -21.9780
v  -5.4893 0.8360 -21.5498
v  -7.1257 0.5111 -22.0296
v  -7.1987 0.0360 -22.7303
v  -9.0570 0.0093 -22.3195
v  -8.6544 0.3178 -21.2899
v  -9.9967 0.0627 -20.6721
v  -9.2075 0.4344 -20.3527
v  -9.5321 0.3943 -19.1346
v  -10.9811 0.0835 -18.2797
v  -9.0688 0.7783 -17.5200
v  -9.7469 0.8502 -16.6180
v  -7.7028 1.4322 -16.5291
v  -7.3821 1.6395 -17.5474
v  -6.0942 1.7651 -17.8333
v  -5.3872 1.7613 -19.0133
v  -5.0076 1.6960 -20.2560
v  -5.7699 1.5252 -21.2550
v  -7.1531 1.2653 -21.5189
v  -8.2083 1.0787 -21.0201
v  -8.6265 1.0660 -20.3382
v  -9.1075 1.0413 -19.3033
v  -8.6902 1.2914 -18.1015
v  -8.4412 1.7179 -18.5305
v  -8.7204 1.4656 -19.5009
v  -8.2602 1.4830 -20.3926
v  -7.8836 1.5210 -20.9791
v  -6.8613 1.7745 -21.2190
v  -6.0854 1.9182 -21.0912
v  -5.6214 2.0233 -20.5474
v  -5.9160 2.0755 -19.5683
v  -6.3950 2.0652 -18.8929
v  -7.2430 2.0659 -18.5479
v  -7.2821 2.2793 -20.1299
v  -3.7004 6.2528 14.1335
v  -2.8054 5.6145 15.2423
v  -2.7881 6.5867 13.9795
v  -4.2266 6.9150 12.7072
v  -4.7394 6.1629 13.3484
v  -5.8856 5.9085 12.1909
v  -5.7783 5.9425 12.7685
v  -6.6831 4.9124 12.7658
v  -6.6036 5.2036 13.2131
v  -6.9108 4.4517 14.1215
v  -7.1306 3.8930 13.8936
v  -6.9580 3.3800 15.0850
v  -6.4386 4.0534 15.1499
v  -5.9628 3.5239 15.9395
v  -5.8484 4.0877 15.6183
v  -5.0677 4.2844 16.0094
v  -4.2818 3.6792 16.8086
v  -4.0426 4.8941 15.9838
v  -3.3533 4.5802 16.2830
v  -3.5081 5.6843 15.2180
v  -4.2229 5.9640 15.1445
v  -4.3891 6.3439 14.3119
v  -5.1395 6.3041 13.7054
v  -5.9300 6.1226 13.2858
v  -6.5810 5.6059 13.6047
v  -6.7505 5.0075 14.3943
v  -6.4200 4.6977 15.0893
v  -5.9833 4.7089 15.4423
v  -5.3131 4.7656 15.8778
v  -4.5605 5.2748 15.8266
v  -4.9335 5.5201 15.7189
v  -5.5271 5.0942 15.7105
v  -6.1018 5.0558 15.3049
v  -6.4830 5.0675 14.9973
v  -6.6595 5.4607 14.3734
v  -6.5772 5.7910 13.9273
v  -6.2237 6.0934 13.7253
v  -5.6009 6.2381 14.0532
v  -5.1715 6.2324 14.4449
v  -4.9779 6.0646 15.0342
v  -6.0746 5.8691 14.9104
# 179 vertices

vn -0.0205 0.9578 0.2867
vn -0.0303 0.9983 0.0498
vn -0.0049 0.9980 0.0635
vn 0.0206 0.9983 0.0538
vn -0.0205 0.9578 0.2867
vn -0.0049 0.9980 0.0635
vn 0.0988 0.9613 0.2573
vn -0.0205 0.9578 0.2867
vn 0.0206 0.9983 0.0538
vn 0.0361 0.9989 0.0284
vn 0.0988 0.9613 0.2573
vn 0.0206 0.9983 0.0538
vn 0.1984 0.9661 0.1650
vn 0.0988 0.9613 0.2573
vn 0.0361 0.9989 0.0284
vn 0.0381 0.9992 0.0069
vn 0.1984 0.9661 0.1650
vn 0.0361 0.9989 0.0284
vn 0.2825 0.9570 0.0655
vn 0.1984 0.9661 0.1650
vn 0.0381 0.9992 0.0069
vn 0.0362 0.9993 -0.0010
vn 0.2825 0.9570 0.0655
vn 0.0381 0.9992 0.0069
vn 0.3355 0.9420 0.0049
vn 0.2825 0.9570 0.0655
vn 0.0362 0.9993 -0.0010
vn 0.0596 0.9982 -0.0049
vn 0.3355 0.9420 0.0049
vn 0.0362 0.9993 -0.0010
vn 0.3510 0.9355 -0.0420
vn 0.3355 0.9420 0.0049
vn 0.0596 0.9982 -0.0049
vn 0.2960 0.9446 -0.1416
vn 0.3510 0.9355 -0.0420
vn 0.0596 0.9982 -0.0049
vn 0.0752 0.9966 -0.0322
vn 0.2960 0.9446 -0.1416
vn 0.0596 0.9982 -0.0049
vn 0.1827 0.9546 -0.2354
vn 0.2960 0.9446 -0.1416
vn 0.0752 0.9966 -0.0322
vn 0.0538 0.9967 -0.0616
vn 0.1827 0.9546 -0.2354
vn 0.0752 0.9966 -0.0322
vn 0.0498 0.9641 -0.2607
vn 0.1827 0.9546 -0.2354
vn 0.0538 0.9967 -0.0616
vn 0.0127 0.9976 -0.0675
vn 0.0498 0.9641 -0.2607
vn 0.0538 0.9967 -0.0616
vn -0.0186 0.9982 -0.0576
vn 0.0498 0.9641 -0.2607
vn 0.0127 0.9976 -0.0675
vn -0.0792 0.9667 -0.2434
vn 0.0498 0.9641 -0.2607
vn -0.0186 0.9982 -0.0576
vn -0.0381 0.9988 -0.0303
vn -0.0792 0.9667 -0.2434
vn -0.0186 0.9982 -0.0576
vn -0.2104 0.9618 -0.1751
vn -0.0792 0.9667 -0.2434
vn -0.0381 0.9988 -0.0303
vn -0.0440 0.9990 -0.0088
vn -0.2104 0.9618 -0.1751
vn -0.0381 0.9988 -0.0303
vn -0.3101 0.9480 -0.0714
vn -0.2104 0.9618 -0.1751
vn -0.0440 0.9990 -0.0088
vn -0.0362 0.9993 0.0010
vn -0.3101 0.9480 -0.0714
vn -0.0440 0.9990 -0.0088
vn -0.3372 0.9414 0.0088
vn -0.3101 0.9480 -0.0714
vn -0.0362 0.9993 0.0010
vn -0.3199 0.9457 0.0577
vn -0.3372 0.9414 0.0088
vn -0.0362 0.9993 0.0010
vn -0.0440 0.9990 0.0049
vn -0.3199 0.9457 0.0577
vn -0.0362 0.9993 0.0010
vn -0.2492 0.9586 0.1379
vn -0.3199 0.9457 0.0577
vn -0.0440 0.9990 0.0049
vn -0.0479 0.9986 0.0225
vn -0.2492 0.9586 0.1379
vn -0.0440 0.9990 0.0049
vn -0.1418 0.9610 0.2375
vn -0.2492 0.9586 0.1379
vn -0.0479 0.9986 0.0225
vn -0.0303 0.9983 0.0498
vn -0.1418 0.9610 0.2375
vn -0.0479 0.9986 0.0225
vn -0.0205 0.9578 0.2867
vn -0.1418 0.9610 0.2375
vn -0.0303 0.9983 0.0498
vn -0.0479 0.7669 0.6399
vn -0.1418 0.9610 0.2375
vn -0.0205 0.9578 0.2867
vn 0.0988 0.9613 0.2573
vn -0.0479 0.7669 0.6399
vn -0.0205 0.9578 0.2867
vn 0.2509 0.7859 0.5652
vn -0.0479 0.7669 0.6399
vn 0.0988 0.9613 0.2573
vn 0.1984 0.9661 0.1650
vn 0.2509 0.7859 0.5652
vn 0.0988 0.9613 0.2573
vn 0.4504 0.8159 0.3625
vn 0.2509 0.7859 0.5652
vn 0.1984 0.9661 0.1650
vn 0.2825 0.9570 0.0655
vn 0.4504 0.8159 0.3625
vn 0.1984 0.9661 0.1650
vn 0.6192 0.7680 0.1634
vn 0.4504 0.8159 0.3625
vn 0.2825 0.9570 0.0655
vn 0.3355 0.9420 0.0049
vn 0.6192 0.7680 0.1634
vn 0.2825 0.9570 0.0655
vn 0.7374 0.6749 0.0283
vn 0.6192 0.7680 0.1634
vn 0.3355 0.9420 0.0049
vn 0.3510 0.9355 -0.0420
vn 0.7374 0.6749 0.0283
vn 0.3355 0.9420 0.0049
vn 0.7567 0.6453 -0.1044
vn 0.7374 0.6749 0.0283
vn 0.3510 0.9355 -0.0420
vn 0.6269 0.7051 -0.3315
vn 0.7567 0.6453 -0.1044
vn 0.3510 0.9355 -0.0420
vn 0.2960 0.9446 -0.1416
vn 0.6269 0.7051 -0.3315
vn 0.3510 0.9355 -0.0420
vn 0.3685 0.7712 -0.5190
vn 0.6269 0.7051 -0.3315
vn 0.2960 0.9446 -0.1416
vn 0.1827 0.9546 -0.2354
vn 0.3685 0.7712 -0.5190
vn 0.2960 0.9446 -0.1416
vn 0.1047 0.8147 -0.5703
vn 0.3685 0.7712 -0.5190
vn 0.1827 0.9546 -0.2354
vn 0.0498 0.9641 -0.2607
vn 0.1047 0.8147 -0.5703
vn 0.1827 0.9546 -0.2354
vn -0.1690 0.8216 -0.5444
vn 0.1047 0.8147 -0.5703
vn 0.0498 0.9641 -0.2607
vn -0.0792 0.9667 -0.2434
vn -0.1690 0.8216 -0.5444
vn 0.0498 0.9641 -0.2607
vn -0.2104 0.9618 -0.1751
vn -0.1690 0.8216 -0.5444
vn -0.0792 0.9667 -0.2434
vn -0.4743 0.7813 -0.4058
vn -0.1690 0.8216 -0.5444
vn -0.2104 0.9618 -0.1751
vn -0.3101 0.9480 -0.0714
vn -0.4743 0.7813 -0.4058
vn -0.2104 0.9618 -0.1751
vn -0.6871 0.7047 -0.1769
vn -0.4743 0.7813 -0.4058
vn -0.3101 0.9480 -0.0714
vn -0.3372 0.9414 0.0088
vn -0.6871 0.7047 -0.1769
vn -0.3101 0.9480 -0.0714
vn -0.7441 0.6679 0.0147
vn -0.6871 0.7047 -0.1769
vn -0.3372 0.9414 0.0088
vn -0.6934 0.7072 0.1379
vn -0.7441 0.6679 0.0147
vn -0.3372 0.9414 0.0088
vn -0.3199 0.9457 0.0577
vn -0.6934 0.7072 0.1379
vn -0.3372 0.9414 0.0088
vn -0.5506 0.7774 0.3041
vn -0.6934 0.7072 0.1379
vn -0.3199 0.9457 0.0577
vn -0.2492 0.9586 0.1379
vn -0.5506 0.7774 0.3041
vn -0.3199 0.9457 0.0577
vn -0.3432 0.7852 0.5154
vn -0.5506 0.7774 0.3041
vn -0.2492 0.9586 0.1379
vn -0.1418 0.9610 0.2375
vn -0.3432 0.7852 0.5154
vn -0.2492 0.9586 0.1379
vn -0.0479 0.7669 0.6399
vn -0.3432 0.7852 0.5154
vn -0.1418 0.9610 0.2375
vn -0.0616 0.7145 0.6969
vn -0.3432 0.7852 0.5154
vn -0.0479 0.7669 0.6399
vn 0.2509 0.7859 0.5652
vn -0.0616 0.7145 0.6969
vn -0.0479 0.7669 0.6399
vn 0.3353 0.7106 0.6186
vn -0.0616 0.7145 0.6969
vn 0.2509 0.7859 0.5652
vn 0.4504 0.8159 0.3625
vn 0.3353 0.7106 0.6186
vn 0.2509 0.7859 0.5652
vn 0.5605 0.7151 0.4177
vn 0.3353 0.7106 0.6186
vn 0.4504 0.8159 0.3625
vn 0.6192 0.7680 0.1634
vn 0.5605 0.7151 0.4177
vn 0.4504 0.8159 0.3625
vn 0.7051 0.6778 0.2083
vn 0.5605 0.7151 0.4177
vn 0.6192 0.7680 0.1634
vn 0.7374 0.6749 0.0283
vn 0.7051 0.6778 0.2083
vn 0.6192 0.7680 0.1634
vn 0.7859 0.6161 0.0517
vn 0.7051 0.6778 0.2083
vn 0.7374 0.6749 0.0283
vn 0.7567 0.6453 -0.1044
vn 0.7859 0.6161 0.0517
vn 0.7374 0.6749 0.0283
vn 0.7873 0.6054 -0.1164
vn 0.7859 0.6161 0.0517
vn 0.7567 0.6453 -0.1044
vn 0.6269 0.7051 -0.3315
vn 0.7873 0.6054 -0.1164
vn 0.7567 0.6453 -0.1044
vn 0.6409 0.6742 -0.3670
vn 0.7873 0.6054 -0.1164
vn 0.6269 0.7051 -0.3315
vn 0.3647 0.7480 -0.5544
vn 0.6409 0.6742 -0.3670
vn 0.6269 0.7051 -0.3315
vn 0.3685 0.7712 -0.5190
vn 0.3647 0.7480 -0.5544
vn 0.6269 0.7051 -0.3315
vn 0.1007 0.7868 -0.6089
vn 0.3647 0.7480 -0.5544
vn 0.3685 0.7712 -0.5190
vn 0.1047 0.8147 -0.5703
vn 0.1007 0.7868 -0.6089
vn 0.3685 0.7712 -0.5190
vn -0.1829 0.7894 -0.5859
vn 0.1007 0.7868 -0.6089
vn 0.1047 0.8147 -0.5703
vn -0.1690 0.8216 -0.5444
vn -0.1829 0.7894 -0.5859
vn 0.1047 0.8147 -0.5703
vn -0.4743 0.7813 -0.4058
vn -0.1829 0.7894 -0.5859
vn -0.1690 0.8216 -0.5444
vn -0.5125 0.7313 -0.4500
vn -0.1829 0.7894 -0.5859
vn -0.4743 0.7813 -0.4058
vn -0.6871 0.7047 -0.1769
vn -0.5125 0.7313 -0.4500
vn -0.4743 0.7813 -0.4058
vn -0.7366 0.6428 -0.2104
vn -0.5125 0.7313 -0.4500
vn -0.6871 0.7047 -0.1769
vn -0.7989 0.6014 0.0088
vn -0.7366 0.6428 -0.2104
vn -0.6871 0.7047 -0.1769
vn -0.7441 0.6679 0.0147
vn -0.7989 0.6014 0.0088
vn -0.6871 0.7047 -0.1769
vn -0.7583 0.6311 0.1634
vn -0.7989 0.6014 0.0088
vn -0.7441 0.6679 0.0147
vn -0.6934 0.7072 0.1379
vn -0.7583 0.6311 0.1634
vn -0.7441 0.6679 0.0147
vn -0.6447 0.6897 0.3297
vn -0.7583 0.6311 0.1634
vn -0.6934 0.7072 0.1379
vn -0.5506 0.7774 0.3041
vn -0.6447 0.6897 0.3297
vn -0.6934 0.7072 0.1379
vn -0.4449 0.7109 0.5446
vn -0.6447 0.6897 0.3297
vn -0.5506 0.7774 0.3041
vn -0.3432 0.7852 0.5154
vn -0.4449 0.7109 0.5446
vn -0.5506 0.7774 0.3041
vn -0.0616 0.7145 0.6969
vn -0.4449 0.7109 0.5446
vn -0.3432 0.7852 0.5154
vn -0.0635 0.8513 0.5209
vn -0.4449 0.7109 0.5446
vn -0.0616 0.7145 0.6969
vn 0.3353 0.7106 0.6186
vn -0.0635 0.8513 0.5209
vn -0.0616 0.7145 0.6969
vn 0.3062 0.8208 0.4823
vn -0.0635 0.8513 0.5209
vn 0.3353 0.7106 0.6186
vn 0.5605 0.7151 0.4177
vn 0.3062 0.8208 0.4823
vn 0.3353 0.7106 0.6186
vn 0.5266 0.7787 0.3409
vn 0.3062 0.8208 0.4823
vn 0.5605 0.7151 0.4177
vn 0.7051 0.6778 0.2083
vn 0.5266 0.7787 0.3409
vn 0.5605 0.7151 0.4177
vn 0.6286 0.7596 0.1671
vn 0.5266 0.7787 0.3409
vn 0.7051 0.6778 0.2083
vn 0.7859 0.6161 0.0517
vn 0.6286 0.7596 0.1671
vn 0.7051 0.6778 0.2083
vn 0.6456 0.7629 0.0361
vn 0.6286 0.7596 0.1671
vn 0.7859 0.6161 0.0517
vn 0.6069 0.7888 -0.0968
vn 0.6456 0.7629 0.0361
vn 0.7859 0.6161 0.0517
vn 0.7873 0.6054 -0.1164
vn 0.6069 0.7888 -0.0968
vn 0.7859 0.6161 0.0517
vn 0.4716 0.8368 -0.2782
vn 0.6069 0.7888 -0.0968
vn 0.7873 0.6054 -0.1164
vn 0.6409 0.6742 -0.3670
vn 0.4716 0.8368 -0.2782
vn 0.7873 0.6054 -0.1164
vn 0.2629 0.8709 -0.4153
vn 0.4716 0.8368 -0.2782
vn 0.6409 0.6742 -0.3670
vn 0.3647 0.7480 -0.5544
vn 0.2629 0.8709 -0.4153
vn 0.6409 0.6742 -0.3670
vn 0.0557 0.8820 -0.4679
vn 0.2629 0.8709 -0.4153
vn 0.3647 0.7480 -0.5544
vn 0.1007 0.7868 -0.6089
vn 0.0557 0.8820 -0.4679
vn 0.3647 0.7480 -0.5544
vn -0.1651 0.8823 -0.4407
vn 0.0557 0.8820 -0.4679
vn 0.1007 0.7868 -0.6089
vn -0.1829 0.7894 -0.5859
vn -0.1651 0.8823 -0.4407
vn 0.1007 0.7868 -0.6089
vn -0.5125 0.7313 -0.4500
vn -0.1651 0.8823 -0.4407
vn -0.1829 0.7894 -0.5859
vn -0.3863 0.8538 -0.3491
vn -0.1651 0.8823 -0.4407
vn -0.5125 0.7313 -0.4500
vn -0.7366 0.6428 -0.2104
vn -0.3863 0.8538 -0.3491
vn -0.5125 0.7313 -0.4500
vn -0.5704 0.7994 -0.1888
vn -0.3863 0.8538 -0.3491
vn -0.7366 0.6428 -0.2104
vn -0.7989 0.6014 0.0088
vn -0.5704 0.7994 -0.1888
vn -0.7366 0.6428 -0.2104
vn -0.6555 0.7552 -0.0088
vn -0.5704 0.7994 -0.1888
vn -0.7989 0.6014 0.0088
vn -0.6440 0.7535 0.1319
vn -0.6555 0.7552 -0.0088
vn -0.7989 0.6014 0.0088
vn -0.7583 0.6311 0.1634
vn -0.6440 0.7535 0.1319
vn -0.7989 0.6014 0.0088
vn -0.5828 0.7722 0.2529
vn -0.6440 0.7535 0.1319
vn -0.7583 0.6311 0.1634
vn -0.6447 0.6897 0.3297
vn -0.5828 0.7722 0.2529
vn -0.7583 0.6311 0.1634
vn -0.4209 0.8135 0.4014
vn -0.5828 0.7722 0.2529
vn -0.6447 0.6897 0.3297
vn -0.4449 0.7109 0.5446
vn -0.4209 0.8135 0.4014
vn -0.6447 0.6897 0.3297
vn -0.0635 0.8513 0.5209
vn -0.4209 0.8135 0.4014
vn -0.4449 0.7109 0.5446
vn -0.0420 0.9566 0.2883
vn -0.4209 0.8135 0.4014
vn -0.0635 0.8513 0.5209
vn 0.3062 0.8208 0.4823
vn -0.0420 0.9566 0.2883
vn -0.0635 0.8513 0.5209
vn 0.2044 0.9396 0.2747
vn -0.0420 0.9566 0.2883
vn 0.3062 0.8208 0.4823
vn 0.5266 0.7787 0.3409
vn 0.2044 0.9396 0.2747
vn 0.3062 0.8208 0.4823
vn 0.3724 0.9079 0.1925
vn 0.2044 0.9396 0.2747
vn 0.5266 0.7787 0.3409
vn 0.6286 0.7596 0.1671
vn 0.3724 0.9079 0.1925
vn 0.5266 0.7787 0.3409
vn 0.4587 0.8850 0.0792
vn 0.3724 0.9079 0.1925
vn 0.6286 0.7596 0.1671
vn 0.6456 0.7629 0.0361
vn 0.4587 0.8850 0.0792
vn 0.6286 0.7596 0.1671
vn 0.6456 0.7629 0.0361
vn 0.4763 0.8793 0.0049
vn 0.4587 0.8850 0.0792
vn 0.4308 0.8977 -0.0928
vn 0.4763 0.8793 0.0049
vn 0.6456 0.7629 0.0361
vn 0.6069 0.7888 -0.0968
vn 0.4308 0.8977 -0.0928
vn 0.6456 0.7629 0.0361
vn 0.3218 0.9204 -0.2220
vn 0.4308 0.8977 -0.0928
vn 0.6069 0.7888 -0.0968
vn 0.4716 0.8368 -0.2782
vn 0.3218 0.9204 -0.2220
vn 0.6069 0.7888 -0.0968
vn 0.1867 0.9355 -0.3001
vn 0.3218 0.9204 -0.2220
vn 0.4716 0.8368 -0.2782
vn 0.2629 0.8709 -0.4153
vn 0.1867 0.9355 -0.3001
vn 0.4716 0.8368 -0.2782
vn 0.0557 0.8820 -0.4679
vn 0.1867 0.9355 -0.3001
vn 0.2629 0.8709 -0.4153
vn 0.0557 0.8820 -0.4679
vn 0.0108 0.9420 -0.3355
vn 0.1867 0.9355 -0.3001
vn -0.1672 0.9378 -0.3042
vn 0.0108 0.9420 -0.3355
vn 0.0557 0.8820 -0.4679
vn -0.1651 0.8823 -0.4407
vn -0.1672 0.9378 -0.3042
vn 0.0557 0.8820 -0.4679
vn -0.3863 0.8538 -0.3491
vn -0.1672 0.9378 -0.3042
vn -0.1651 0.8823 -0.4407
vn -0.2493 0.9298 -0.2709
vn -0.1672 0.9378 -0.3042
vn -0.3863 0.8538 -0.3491
vn -0.5704 0.7994 -0.1888
vn -0.2493 0.9298 -0.2709
vn -0.3863 0.8538 -0.3491
vn -0.3449 0.9214 -0.1788
vn -0.2493 0.9298 -0.2709
vn -0.5704 0.7994 -0.1888
vn -0.6555 0.7552 -0.0088
vn -0.3449 0.9214 -0.1788
vn -0.5704 0.7994 -0.1888
vn -0.6555 0.7552 -0.0088
vn -0.4404 0.8973 -0.0303
vn -0.3449 0.9214 -0.1788
vn -0.4371 0.8966 0.0714
vn -0.4404 0.8973 -0.0303
vn -0.6555 0.7552 -0.0088
vn -0.6440 0.7535 0.1319
vn -0.4371 0.8966 0.0714
vn -0.6555 0.7552 -0.0088
vn -0.4113 0.9016 0.1339
vn -0.4371 0.8966 0.0714
vn -0.6440 0.7535 0.1319
vn -0.5828 0.7722 0.2529
vn -0.4113 0.9016 0.1339
vn -0.6440 0.7535 0.1319
vn -0.2961 0.9313 0.2120
vn -0.4113 0.9016 0.1339
vn -0.5828 0.7722 0.2529
vn -0.4209 0.8135 0.4014
vn -0.2961 0.9313 0.2120
vn -0.5828 0.7722 0.2529
vn -0.0420 0.9566 0.2883
vn -0.2961 0.9313 0.2120
vn -0.4209 0.8135 0.4014
vn 0.0108 0.9984 -0.0557
vn -0.2961 0.9313 0.2120
vn -0.0420 0.9566 0.2883
vn 0.0108 0.9984 -0.0557
vn -0.4113 0.9016 0.1339
vn -0.2961 0.9313 0.2120
vn 0.0108 0.9984 -0.0557
vn -0.4371 0.8966 0.0714
vn -0.4113 0.9016 0.1339
vn 0.0108 0.9984 -0.0557
vn -0.4404 0.8973 -0.0303
vn -0.4371 0.8966 0.0714
vn 0.0108 0.9984 -0.0557
vn -0.3449 0.9214 -0.1788
vn -0.4404 0.8973 -0.0303
vn 0.0108 0.9984 -0.0557
vn -0.2493 0.9298 -0.2709
vn -0.3449 0.9214 -0.1788
vn 0.0108 0.9984 -0.0557
vn -0.1672 0.9378 -0.3042
vn -0.2493 0.9298 -0.2709
vn 0.0108 0.9984 -0.0557
vn 0.0108 0.9420 -0.3355
vn -0.1672 0.9378 -0.3042
vn 0.0108 0.9984 -0.0557
vn 0.1867 0.9355 -0.3001
vn 0.0108 0.9420 -0.3355
vn 0.0108 0.9984 -0.0557
vn 0.3218 0.9204 -0.2220
vn 0.1867 0.9355 -0.3001
vn 0.0108 0.9984 -0.0557
vn 0.4308 0.8977 -0.0928
vn 0.3218 0.9204 -0.2220
vn 0.0108 0.9984 -0.0557
vn 0.4763 0.8793 0.0049
vn 0.4308 0.8977 -0.0928
vn 0.0108 0.9984 -0.0557
vn 0.4587 0.8850 0.0792
vn 0.4763 0.8793 0.0049
vn 0.0108 0.9984 -0.0557
vn 0.3724 0.9079 0.1925
vn 0.4587 0.8850 0.0792
vn 0.0108 0.9984 -0.0557
vn 0.2044 0.9396 0.2747
vn 0.3724 0.9079 0.1925
vn -0.0420 0.9566 0.2883
vn 0.2044 0.9396 0.2747
vn 0.0108 0.9984 -0.0557
vn -0.2925 0.8065 -0.5137
vn -0.2931 0.6864 -0.6655
vn -0.3629 0.6801 -0.6370
vn -0.3814 0.7758 -0.5026
vn -0.2925 0.8065 -0.5137
vn -0.3629 0.6801 -0.6370
vn 0.0927 0.9784 -0.1848
vn -0.2925 0.8065 -0.5137
vn -0.3814 0.7758 -0.5026
vn -0.1086 0.9508 -0.2900
vn 0.0927 0.9784 -0.1848
vn -0.3814 0.7758 -0.5026
vn 0.2943 0.9305 -0.2181
vn 0.0927 0.9784 -0.1848
vn -0.1086 0.9508 -0.2900
vn 0.1045 0.8607 -0.4983
vn 0.2943 0.9305 -0.2181
vn -0.1086 0.9508 -0.2900
vn 0.2427 0.7230 -0.6468
vn 0.2943 0.9305 -0.2181
vn 0.1045 0.8607 -0.4983
vn -0.1129 0.7512 -0.6503
vn 0.2427 0.7230 -0.6468
vn 0.1045 0.8607 -0.4983
vn -0.0690 0.8290 -0.5549
vn -0.1129 0.7512 -0.6503
vn 0.1045 0.8607 -0.4983
vn -0.2225 0.9396 -0.2599
vn -0.1129 0.7512 -0.6503
vn -0.0690 0.8290 -0.5549
vn -0.4052 0.8308 -0.3815
vn -0.1129 0.7512 -0.6503
vn -0.2225 0.9396 -0.2599
vn -0.3188 0.9327 -0.1684
vn -0.4052 0.8308 -0.3815
vn -0.2225 0.9396 -0.2599
vn -0.5450 0.7917 -0.2759
vn -0.4052 0.8308 -0.3815
vn -0.3188 0.9327 -0.1684
vn -0.5465 0.8329 -0.0870
vn -0.5450 0.7917 -0.2759
vn -0.3188 0.9327 -0.1684
vn -0.2723 0.9481 -0.1644
vn -0.5465 0.8329 -0.0870
vn -0.3188 0.9327 -0.1684
vn -0.4460 0.8927 -0.0651
vn -0.5465 0.8329 -0.0870
vn -0.2723 0.9481 -0.1644
vn -0.2369 0.9106 -0.3386
vn -0.4460 0.8927 -0.0651
vn -0.2723 0.9481 -0.1644
vn -0.3353 0.8731 -0.3540
vn -0.4460 0.8927 -0.0651
vn -0.2369 0.9106 -0.3386
vn -0.2931 0.6864 -0.6655
vn -0.3353 0.8731 -0.3540
vn -0.2369 0.9106 -0.3386
vn -0.2925 0.8065 -0.5137
vn -0.3353 0.8731 -0.3540
vn -0.2931 0.6864 -0.6655
vn -0.2459 0.9515 0.1848
vn -0.3353 0.8731 -0.3540
vn -0.2925 0.8065 -0.5137
vn 0.0957 0.9928 -0.0715
vn -0.2459 0.9515 0.1848
vn -0.2925 0.8065 -0.5137
vn 0.0927 0.9784 -0.1848
vn 0.0957 0.9928 -0.0715
vn -0.2925 0.8065 -0.5137
vn 0.5014 0.8424 0.1976
vn 0.0957 0.9928 -0.0715
vn 0.0927 0.9784 -0.1848
vn 0.2943 0.9305 -0.2181
vn 0.5014 0.8424 0.1976
vn 0.0927 0.9784 -0.1848
vn 0.6192 0.7618 -0.1904
vn 0.5014 0.8424 0.1976
vn 0.2943 0.9305 -0.2181
vn 0.2427 0.7230 -0.6468
vn 0.6192 0.7618 -0.1904
vn 0.2943 0.9305 -0.2181
vn 0.3783 0.5316 -0.7578
vn 0.6192 0.7618 -0.1904
vn 0.2427 0.7230 -0.6468
vn -0.1892 0.5383 -0.8213
vn 0.3783 0.5316 -0.7578
vn 0.2427 0.7230 -0.6468
vn -0.1129 0.7512 -0.6503
vn -0.1892 0.5383 -0.8213
vn 0.2427 0.7230 -0.6468
vn -0.5978 0.5368 -0.5954
vn -0.1892 0.5383 -0.8213
vn -0.1129 0.7512 -0.6503
vn -0.4052 0.8308 -0.3815
vn -0.5978 0.5368 -0.5954
vn -0.1129 0.7512 -0.6503
vn -0.7060 0.5937 -0.3861
vn -0.5978 0.5368 -0.5954
vn -0.4052 0.8308 -0.3815
vn -0.5450 0.7917 -0.2759
vn -0.7060 0.5937 -0.3861
vn -0.4052 0.8308 -0.3815
vn -0.7999 0.5956 -0.0729
vn -0.7060 0.5937 -0.3861
vn -0.5450 0.7917 -0.2759
vn -0.5465 0.8329 -0.0870
vn -0.7999 0.5956 -0.0729
vn -0.5450 0.7917 -0.2759
vn -0.6386 0.7318 0.2382
vn -0.7999 0.5956 -0.0729
vn -0.5465 0.8329 -0.0870
vn -0.4460 0.8927 -0.0651
vn -0.6386 0.7318 0.2382
vn -0.5465 0.8329 -0.0870
vn -0.3353 0.8731 -0.3540
vn -0.6386 0.7318 0.2382
vn -0.4460 0.8927 -0.0651
vn -0.2459 0.9515 0.1848
vn -0.6386 0.7318 0.2382
vn -0.3353 0.8731 -0.3540
vn -0.2459 0.9515 0.1848
vn -0.5297 0.8199 0.2173
vn -0.6386 0.7318 0.2382
vn -0.5297 0.8199 0.2173
vn -0.7999 0.5956 -0.0729
vn -0.6386 0.7318 0.2382
vn -0.5297 0.8199 0.2173
vn -0.6811 0.7111 -0.1747
vn -0.7999 0.5956 -0.0729
vn -0.6811 0.7111 -0.1747
vn -0.7060 0.5937 -0.3861
vn -0.7999 0.5956 -0.0729
vn -0.6811 0.7111 -0.1747
vn -0.6447 0.6801 -0.3491
vn -0.7060 0.5937 -0.3861
vn -0.6447 0.6801 -0.3491
vn -0.5978 0.5368 -0.5954
vn -0.7060 0.5937 -0.3861
vn -0.6447 0.6801 -0.3491
vn -0.5091 0.6395 -0.5761
vn -0.5978 0.5368 -0.5954
vn -0.5091 0.6395 -0.5761
vn -0.1892 0.5383 -0.8213
vn -0.5978 0.5368 -0.5954
vn -0.5091 0.6395 -0.5761
vn -0.1164 0.7051 -0.6994
vn -0.1892 0.5383 -0.8213
vn -0.1164 0.7051 -0.6994
vn 0.3783 0.5316 -0.7578
vn -0.1892 0.5383 -0.8213
vn 0.1757 0.7580 -0.6282
vn 0.3783 0.5316 -0.7578
vn -0.1164 0.7051 -0.6994
vn 0.1757 0.7580 -0.6282
vn 0.4012 0.8754 -0.2698
vn 0.3783 0.5316 -0.7578
vn 0.4012 0.8754 -0.2698
vn 0.6192 0.7618 -0.1904
vn 0.3783 0.5316 -0.7578
vn 0.4012 0.8754 -0.2698
vn 0.2735 0.9568 0.0990
vn 0.6192 0.7618 -0.1904
vn 0.2735 0.9568 0.0990
vn 0.5014 0.8424 0.1976
vn 0.6192 0.7618 -0.1904
vn 0.2735 0.9568 0.0990
vn 0.1662 0.9703 0.1759
vn 0.5014 0.8424 0.1976
vn 0.1662 0.9703 0.1759
vn 0.0957 0.9928 -0.0715
vn 0.5014 0.8424 0.1976
vn 0.1662 0.9703 0.1759
vn -0.1019 0.9635 0.2476
vn 0.0957 0.9928 -0.0715
vn -0.1019 0.9635 0.2476
vn -0.2459 0.9515 0.1848
vn 0.0957 0.9928 -0.0715
vn -0.1019 0.9635 0.2476
vn -0.5297 0.8199 0.2173
vn -0.2459 0.9515 0.1848
vn -0.2154 0.9617 -0.1695
vn -0.5297 0.8199 0.2173
vn -0.1019 0.9635 0.2476
vn 0.1662 0.9703 0.1759
vn -0.2154 0.9617 -0.1695
vn -0.1019 0.9635 0.2476
vn 0.2735 0.9568 0.0990
vn -0.2154 0.9617 -0.1695
vn 0.1662 0.9703 0.1759
vn 0.4012 0.8754 -0.2698
vn -0.2154 0.9617 -0.1695
vn 0.2735 0.9568 0.0990
vn 0.1757 0.7580 -0.6282
vn -0.2154 0.9617 -0.1695
vn 0.4012 0.8754 -0.2698
vn -0.1164 0.7051 -0.6994
vn -0.2154 0.9617 -0.1695
vn 0.1757 0.7580 -0.6282
vn -0.5091 0.6395 -0.5761
vn -0.2154 0.9617 -0.1695
vn -0.1164 0.7051 -0.6994
vn -0.6447 0.6801 -0.3491
vn -0.2154 0.9617 -0.1695
vn -0.5091 0.6395 -0.5761
vn -0.6811 0.7111 -0.1747
vn -0.2154 0.9617 -0.1695
vn -0.6447 0.6801 -0.3491
vn -0.6811 0.7111 -0.1747
vn -0.5297 0.8199 0.2173
vn -0.2154 0.9617 -0.1695
vn -0.0716 0.9095 0.4095
vn 0.0018 0.7873 0.6166
vn -0.2055 0.8129 0.5450
vn -0.4503 0.7641 0.4619
vn -0.0716 0.9095 0.4095
vn -0.2055 0.8129 0.5450
vn -0.2512 0.9634 0.0937
vn -0.0716 0.9095 0.4095
vn -0.4503 0.7641 0.4619
vn -0.5994 0.7866 0.1482
vn -0.2512 0.9634 0.0937
vn -0.4503 0.7641 0.4619
vn -0.4478 0.8794 -0.1617
vn -0.2512 0.9634 0.0937
vn -0.5994 0.7866 0.1482
vn -0.8524 0.5107 -0.1121
vn -0.4478 0.8794 -0.1617
vn -0.5994 0.7866 0.1482
vn -0.8695 0.4431 -0.2182
vn -0.4478 0.8794 -0.1617
vn -0.8524 0.5107 -0.1121
vn -0.9404 0.2914 0.1752
vn -0.8695 0.4431 -0.2182
vn -0.8524 0.5107 -0.1121
vn -0.9396 0.3158 0.1319
vn -0.9404 0.2914 0.1752
vn -0.8524 0.5107 -0.1121
vn -0.7320 0.4283 0.5299
vn -0.9404 0.2914 0.1752
vn -0.9396 0.3158 0.1319
vn -0.7086 0.3101 0.6338
vn -0.9404 0.2914 0.1752
vn -0.7320 0.4283 0.5299
vn -0.5281 0.4712 0.7065
vn -0.7086 0.3101 0.6338
vn -0.7320 0.4283 0.5299
vn -0.5540 0.3132 0.7714
vn -0.7086 0.3101 0.6338
vn -0.5281 0.4712 0.7065
vn -0.3559 0.3549 0.8645
vn -0.5540 0.3132 0.7714
vn -0.5281 0.4712 0.7065
vn -0.3012 0.5409 0.7853
vn -0.3559 0.3549 0.8645
vn -0.5281 0.4712 0.7065
vn -0.0424 0.5665 0.8230
vn -0.3559 0.3549 0.8645
vn -0.3012 0.5409 0.7853
vn -0.0387 0.6359 0.7708
vn -0.0424 0.5665 0.8230
vn -0.3012 0.5409 0.7853
vn 0.1315 0.7847 0.6058
vn -0.0424 0.5665 0.8230
vn -0.0387 0.6359 0.7708
vn 0.0018 0.7873 0.6166
vn 0.1315 0.7847 0.6058
vn -0.0387 0.6359 0.7708
vn -0.0716 0.9095 0.4095
vn 0.1315 0.7847 0.6058
vn 0.0018 0.7873 0.6166
vn 0.1645 0.8133 0.5582
vn 0.1315 0.7847 0.6058
vn -0.0716 0.9095 0.4095
vn 0.0712 0.9897 0.1245
vn 0.1645 0.8133 0.5582
vn -0.0716 0.9095 0.4095
vn -0.2512 0.9634 0.0937
vn 0.0712 0.9897 0.1245
vn -0.0716 0.9095 0.4095
vn -0.0351 0.9884 -0.1475
vn 0.0712 0.9897 0.1245
vn -0.2512 0.9634 0.0937
vn -0.4478 0.8794 -0.1617
vn -0.0351 0.9884 -0.1475
vn -0.2512 0.9634 0.0937
vn -0.3969 0.8570 -0.3285
vn -0.0351 0.9884 -0.1475
vn -0.4478 0.8794 -0.1617
vn -0.8695 0.4431 -0.2182
vn -0.3969 0.8570 -0.3285
vn -0.4478 0.8794 -0.1617
vn -0.8684 0.3992 -0.2941
vn -0.3969 0.8570 -0.3285
vn -0.8695 0.4431 -0.2182
vn -0.9630 0.1611 0.2163
vn -0.8684 0.3992 -0.2941
vn -0.8695 0.4431 -0.2182
vn -0.9404 0.2914 0.1752
vn -0.9630 0.1611 0.2163
vn -0.8695 0.4431 -0.2182
vn -0.7733 0.0612 0.6311
vn -0.9630 0.1611 0.2163
vn -0.9404 0.2914 0.1752
vn -0.7086 0.3101 0.6338
vn -0.7733 0.0612 0.6311
vn -0.9404 0.2914 0.1752
vn -0.5924 0.1005 0.7994
vn -0.7733 0.0612 0.6311
vn -0.7086 0.3101 0.6338
vn -0.5540 0.3132 0.7714
vn -0.5924 0.1005 0.7994
vn -0.7086 0.3101 0.6338
vn -0.3228 0.1658 0.9318
vn -0.5924 0.1005 0.7994
vn -0.5540 0.3132 0.7714
vn -0.3559 0.3549 0.8645
vn -0.3228 0.1658 0.9318
vn -0.5540 0.3132 0.7714
vn 0.0502 0.4539 0.8896
vn -0.3228 0.1658 0.9318
vn -0.3559 0.3549 0.8645
vn -0.0424 0.5665 0.8230
vn 0.0502 0.4539 0.8896
vn -0.3559 0.3549 0.8645
vn 0.1315 0.7847 0.6058
vn 0.0502 0.4539 0.8896
vn -0.0424 0.5665 0.8230
vn 0.1645 0.8133 0.5582
vn 0.0502 0.4539 0.8896
vn 0.1315 0.7847 0.6058
vn 0.1645 0.8133 0.5582
vn -0.0985 0.5660 0.8185
vn 0.0502 0.4539 0.8896
vn -0.0985 0.5660 0.8185
vn -0.3228 0.1658 0.9318
vn 0.0502 0.4539 0.8896
vn -0.0985 0.5660 0.8185
vn -0.4400 0.2995 0.8466
vn -0.3228 0.1658 0.9318
vn -0.4400 0.2995 0.8466
vn -0.5924 0.1005 0.7994
vn -0.3228 0.1658 0.9318
vn -0.4400 0.2995 0.8466
vn -0.5918 0.2375 0.7703
vn -0.5924 0.1005 0.7994
vn -0.5918 0.2375 0.7703
vn -0.7733 0.0612 0.6311
vn -0.5924 0.1005 0.7994
vn -0.5918 0.2375 0.7703
vn -0.7842 0.1916 0.5902
vn -0.7733 0.0612 0.6311
vn -0.7842 0.1916 0.5902
vn -0.9630 0.1611 0.2163
vn -0.7733 0.0612 0.6311
vn -0.7842 0.1916 0.5902
vn -0.8996 0.3702 0.2317
vn -0.9630 0.1611 0.2163
vn -0.8996 0.3702 0.2317
vn -0.8684 0.3992 -0.2941
vn -0.9630 0.1611 0.2163
vn -0.8333 0.5528 -0.0038
vn -0.8684 0.3992 -0.2941
vn -0.8996 0.3702 0.2317
vn -0.8333 0.5528 -0.0038
vn -0.5220 0.8467 -0.1027
vn -0.8684 0.3992 -0.2941
vn -0.5220 0.8467 -0.1027
vn -0.3969 0.8570 -0.3285
vn -0.8684 0.3992 -0.2941
vn -0.5220 0.8467 -0.1027
vn -0.2093 0.9716 0.1107
vn -0.3969 0.8570 -0.3285
vn -0.2093 0.9716 0.1107
vn -0.0351 0.9884 -0.1475
vn -0.3969 0.8570 -0.3285
vn -0.2093 0.9716 0.1107
vn -0.1476 0.9624 0.2279
vn -0.0351 0.9884 -0.1475
vn -0.1476 0.9624 0.2279
vn 0.0712 0.9897 0.1245
vn -0.0351 0.9884 -0.1475
vn -0.1476 0.9624 0.2279
vn -0.0932 0.8701 0.4839
vn 0.0712 0.9897 0.1245
vn -0.0932 0.8701 0.4839
vn 0.1645 0.8133 0.5582
vn 0.0712 0.9897 0.1245
vn -0.0932 0.8701 0.4839
vn -0.0985 0.5660 0.8185
vn 0.1645 0.8133 0.5582
vn -0.4917 0.7050 0.5111
vn -0.0985 0.5660 0.8185
vn -0.0932 0.8701 0.4839
vn -0.1476 0.9624 0.2279
vn -0.4917 0.7050 0.5111
vn -0.0932 0.8701 0.4839
vn -0.2093 0.9716 0.1107
vn -0.4917 0.7050 0.5111
vn -0.1476 0.9624 0.2279
vn -0.5220 0.8467 -0.1027
vn -0.4917 0.7050 0.5111
vn -0.2093 0.9716 0.1107
vn -0.8333 0.5528 -0.0038
vn -0.4917 0.7050 0.5111
vn -0.5220 0.8467 -0.1027
vn -0.8996 0.3702 0.2317
vn -0.4917 0.7050 0.5111
vn -0.8333 0.5528 -0.0038
vn -0.7842 0.1916 0.5902
vn -0.4917 0.7050 0.5111
vn -0.8996 0.3702 0.2317
vn -0.5918 0.2375 0.7703
vn -0.4917 0.7050 0.5111
vn -0.7842 0.1916 0.5902
vn -0.4400 0.2995 0.8466
vn -0.4917 0.7050 0.5111
vn -0.5918 0.2375 0.7703
vn -0.4400 0.2995 0.8466
vn -0.0985 0.5660 0.8185
vn -0.4917 0.7050 0.5111
# 948 vertex normals

vt 0.9676 0.0976 0.0000
vt 0.9619 0.0664 0.0000
vt 0.9516 0.0977 0.0000
vt 0.9622 0.1319 0.0000
vt 0.9457 0.1274 0.0000
vt 0.9394 0.1632 0.0000
vt 0.9260 0.1569 0.0000
vt 0.9065 0.1780 0.0000
vt 0.8968 0.1694 0.0000
vt 0.8620 0.1773 0.0000
vt 0.8595 0.1708 0.0000
vt 0.8222 0.1727 0.0000
vt 0.8251 0.1667 0.0000
vt 0.7854 0.1555 0.0000
vt 0.7810 0.1613 0.0000
vt 0.7607 0.1289 0.0000
vt 0.7489 0.1336 0.0000
vt 0.7503 0.1004 0.0000
vt 0.7335 0.1005 0.0000
vt 0.7400 0.0694 0.0000
vt 0.7539 0.0732 0.0000
vt 0.7562 0.0390 0.0000
vt 0.7707 0.0460 0.0000
vt 0.8087 0.0213 0.0000
vt 0.8144 0.0275 0.0000
vt 0.8539 0.0200 0.0000
vt 0.8530 0.0267 0.0000
vt 0.8980 0.0348 0.0000
vt 0.9073 0.0284 0.0000
vt 0.9284 0.0468 0.0000
vt 0.9401 0.0390 0.0000
vt 0.9456 0.0702 0.0000
vt 0.9399 0.0978 0.0000
vt 0.9339 0.1232 0.0000
vt 0.9159 0.1482 0.0000
vt 0.8900 0.1599 0.0000
vt 0.8577 0.1623 0.0000
vt 0.8270 0.1586 0.0000
vt 0.7920 0.1467 0.0000
vt 0.7728 0.1258 0.0000
vt 0.7646 0.1011 0.0000
vt 0.7670 0.0764 0.0000
vt 0.7818 0.0527 0.0000
vt 0.8185 0.0362 0.0000
vt 0.8515 0.0354 0.0000
vt 0.8904 0.0425 0.0000
vt 0.9170 0.0536 0.0000
vt 0.9335 0.0738 0.0000
vt 0.9277 0.0983 0.0000
vt 0.9213 0.1185 0.0000
vt 0.9041 0.1378 0.0000
vt 0.8814 0.1493 0.0000
vt 0.8548 0.1532 0.0000
vt 0.8276 0.1514 0.0000
vt 0.7974 0.1378 0.0000
vt 0.7851 0.1206 0.0000
vt 0.7807 0.1010 0.0000
vt 0.7809 0.0797 0.0000
vt 0.7939 0.0600 0.0000
vt 0.8210 0.0458 0.0000
vt 0.8489 0.0435 0.0000
vt 0.8801 0.0499 0.0000
vt 0.9029 0.0607 0.0000
vt 0.9202 0.0784 0.0000
vt 0.9075 0.0980 0.0000
vt 0.9033 0.1122 0.0000
vt 0.8894 0.1256 0.0000
vt 0.8728 0.1324 0.0000
vt 0.8530 0.1344 0.0000
vt 0.8341 0.1327 0.0000
vt 0.8153 0.1248 0.0000
vt 0.8077 0.1132 0.0000
vt 0.8039 0.0999 0.0000
vt 0.8055 0.0850 0.0000
vt 0.8121 0.0720 0.0000
vt 0.8291 0.0636 0.0000
vt 0.8490 0.0617 0.0000
vt 0.8698 0.0656 0.0000
vt 0.8858 0.0727 0.0000
vt 0.9011 0.0845 0.0000
vt 0.8843 0.0981 0.0000
vt 0.8829 0.1058 0.0000
vt 0.8734 0.1138 0.0000
vt 0.8635 0.1171 0.0000
vt 0.8514 0.1165 0.0000
vt 0.8413 0.1151 0.0000
vt 0.8328 0.1118 0.0000
vt 0.8240 0.1053 0.0000
vt 0.8224 0.0979 0.0000
vt 0.8233 0.0907 0.0000
vt 0.8324 0.0847 0.0000
vt 0.8399 0.0807 0.0000
vt 0.8496 0.0789 0.0000
vt 0.8596 0.0803 0.0000
vt 0.8683 0.0842 0.0000
vt 0.8801 0.0904 0.0000
vt 0.8523 0.1000 0.0000
vt 0.3971 0.2882 0.0000
vt 0.3743 0.2892 0.0000
vt 0.3914 0.2739 0.0000
vt 0.4185 0.2841 0.0000
vt 0.4149 0.2977 0.0000
vt 0.4359 0.3070 0.0000
vt 0.4285 0.3082 0.0000
vt 0.4337 0.3284 0.0000
vt 0.4277 0.3265 0.0000
vt 0.4160 0.3406 0.0000
vt 0.4193 0.3478 0.0000
vt 0.4012 0.3540 0.0000
vt 0.3988 0.3437 0.0000
vt 0.3841 0.3459 0.0000
vt 0.3887 0.3387 0.0000
vt 0.3788 0.3308 0.0000
vt 0.3629 0.3322 0.0000
vt 0.3740 0.3147 0.0000
vt 0.3642 0.3110 0.0000
vt 0.3801 0.2983 0.0000
vt 0.3888 0.3031 0.0000
vt 0.4007 0.2973 0.0000
vt 0.4124 0.3037 0.0000
vt 0.4219 0.3115 0.0000
vt 0.4211 0.3234 0.0000
vt 0.4123 0.3334 0.0000
vt 0.4013 0.3358 0.0000
vt 0.3941 0.3332 0.0000
vt 0.3850 0.3276 0.0000
vt 0.3817 0.3156 0.0000
vt 0.3873 0.3165 0.0000
vt 0.3899 0.3256 0.0000
vt 0.3977 0.3299 0.0000
vt 0.4037 0.3317 0.0000
vt 0.4120 0.3276 0.0000
vt 0.4166 0.3225 0.0000
vt 0.4174 0.3164 0.0000
vt 0.4108 0.3104 0.0000
vt 0.4039 0.3075 0.0000
vt 0.3960 0.3096 0.0000
vt 0.4038 0.3208 0.0000
vt 0.3975 0.2881 0.0000
vt 0.3748 0.2891 0.0000
vt 0.3931 0.2744 0.0000
vt 0.4197 0.2842 0.0000
vt 0.4146 0.2964 0.0000
vt 0.4368 0.3057 0.0000
vt 0.4290 0.3066 0.0000
vt 0.4338 0.3262 0.0000
vt 0.4277 0.3242 0.0000
vt 0.4167 0.3384 0.0000
vt 0.4202 0.3457 0.0000
vt 0.4023 0.3535 0.0000
vt 0.3997 0.3413 0.0000
vt 0.3845 0.3452 0.0000
vt 0.3894 0.3369 0.0000
vt 0.3794 0.3286 0.0000
vt 0.3621 0.3311 0.0000
vt 0.3735 0.3125 0.0000
vt 0.3630 0.3091 0.0000
vt 0.3811 0.2959 0.0000
vt 0.3884 0.3008 0.0000
vt 0.4009 0.2954 0.0000
vt 0.4138 0.3008 0.0000
vt 0.4246 0.3091 0.0000
vt 0.4241 0.3223 0.0000
vt 0.4141 0.3330 0.0000
vt 0.4021 0.3354 0.0000
vt 0.3945 0.3320 0.0000
vt 0.3843 0.3267 0.0000
vt 0.3806 0.3140 0.0000
vt 0.3857 0.3149 0.0000
vt 0.3892 0.3252 0.0000
vt 0.3982 0.3296 0.0000
vt 0.4050 0.3320 0.0000
vt 0.4150 0.3276 0.0000
vt 0.4209 0.3218 0.0000
vt 0.4214 0.3145 0.0000
vt 0.4131 0.3081 0.0000
vt 0.4050 0.3052 0.0000
vt 0.3960 0.3076 0.0000
vt 0.4053 0.3203 0.0000
# 179 texture coords

o SM_Chiton_04_LOD0
g SM_Chiton_04_LOD0
usemtl MAT_Sea_Shells
s 1
f 2/3/1 25/2/2 1/1/3 
f 3/4/4 2/3/5 1/1/6 
f 26/5/7 2/3/8 3/4/9 
f 4/6/10 26/5/11 3/4/12 
f 27/7/13 26/5/14 4/6/15 
f 5/8/16 27/7/17 4/6/18 
f 30/9/19 27/7/20 5/8/21 
f 6/10/22 30/9/23 5/8/24 
f 8/11/25 30/9/26 6/10/27 
f 7/12/28 8/11/29 6/10/30 
f 9/13/31 8/11/32 7/12/33 
f 10/14/34 9/13/35 7/12/36 
f 12/15/37 10/14/38 7/12/39 
f 11/16/40 10/14/41 12/15/42 
f 13/17/43 11/16/44 12/15/45 
f 34/18/46 11/16/47 13/17/48 
f 14/19/49 34/18/50 13/17/51 
f 15/20/52 34/18/53 14/19/54 
f 16/21/55 34/18/56 15/20/57 
f 17/22/58 16/21/59 15/20/60 
f 35/23/61 16/21/62 17/22/63 
f 18/24/64 35/23/65 17/22/66 
f 36/25/67 35/23/68 18/24/69 
f 19/26/70 36/25/71 18/24/72 
f 20/27/73 36/25/74 19/26/75 
f 37/28/76 20/27/77 19/26/78 
f 21/29/79 37/28/80 19/26/81 
f 23/30/82 37/28/83 21/29/84 
f 22/31/85 23/30/86 21/29/87 
f 24/32/88 23/30/89 22/31/90 
f 25/2/91 24/32/92 22/31/93 
f 2/3/94 24/32/95 25/2/96 
f 39/33/97 24/32/98 2/3/99 
f 26/5/100 39/33/101 2/3/102 
f 28/34/103 39/33/104 26/5/105 
f 27/7/106 28/34/107 26/5/108 
f 29/35/109 28/34/110 27/7/111 
f 30/9/112 29/35/113 27/7/114 
f 31/36/115 29/35/116 30/9/117 
f 8/11/118 31/36/119 30/9/120 
f 42/37/121 31/36/122 8/11/123 
f 9/13/124 42/37/125 8/11/126 
f 43/38/127 42/37/128 9/13/129 
f 32/39/130 43/38/131 9/13/132 
f 10/14/133 32/39/134 9/13/135 
f 45/40/136 32/39/137 10/14/138 
f 11/16/139 45/40/140 10/14/141 
f 33/41/142 45/40/143 11/16/144 
f 34/18/145 33/41/146 11/16/147 
f 46/42/148 33/41/149 34/18/150 
f 16/21/151 46/42/152 34/18/153 
f 35/23/154 46/42/155 16/21/156 
f 47/43/157 46/42/158 35/23/159 
f 36/25/160 47/43/161 35/23/162 
f 49/44/163 47/43/164 36/25/165 
f 20/27/166 49/44/167 36/25/168 
f 51/45/169 49/44/170 20/27/171 
f 38/46/172 51/45/173 20/27/174 
f 37/28/175 38/46/176 20/27/177 
f 54/47/178 38/46/179 37/28/180 
f 23/30/181 54/47/182 37/28/183 
f 56/48/184 54/47/185 23/30/186 
f 24/32/187 56/48/188 23/30/189 
f 39/33/190 56/48/191 24/32/192 
f 57/49/193 56/48/194 39/33/195 
f 28/34/196 57/49/197 39/33/198 
f 58/50/199 57/49/200 28/34/201 
f 29/35/202 58/50/203 28/34/204 
f 40/51/205 58/50/206 29/35/207 
f 31/36/208 40/51/209 29/35/210 
f 41/52/211 40/51/212 31/36/213 
f 42/37/214 41/52/215 31/36/216 
f 61/53/217 41/52/218 42/37/219 
f 43/38/220 61/53/221 42/37/222 
f 63/54/223 61/53/224 43/38/225 
f 32/39/226 63/54/227 43/38/228 
f 44/55/229 63/54/230 32/39/231 
f 64/56/232 44/55/233 32/39/234 
f 45/40/235 64/56/236 32/39/237 
f 66/57/238 64/56/239 45/40/240 
f 33/41/241 66/57/242 45/40/243 
f 48/58/244 66/57/245 33/41/246 
f 46/42/247 48/58/248 33/41/249 
f 47/43/250 48/58/251 46/42/252 
f 68/59/253 48/58/254 47/43/255 
f 49/44/256 68/59/257 47/43/258 
f 69/60/259 68/59/260 49/44/261 
f 50/61/262 69/60/263 49/44/264 
f 51/45/265 50/61/266 49/44/267 
f 52/62/268 50/61/269 51/45/270 
f 38/46/271 52/62/272 51/45/273 
f 53/63/274 52/62/275 38/46/276 
f 54/47/277 53/63/278 38/46/279 
f 55/64/280 53/63/281 54/47/282 
f 56/48/283 55/64/284 54/47/285 
f 57/49/286 55/64/287 56/48/288 
f 59/65/289 55/64/290 57/49/291 
f 58/50/292 59/65/293 57/49/294 
f 60/66/295 59/65/296 58/50/297 
f 40/51/298 60/66/299 58/50/300 
f 74/67/301 60/66/302 40/51/303 
f 41/52/304 74/67/305 40/51/306 
f 75/68/307 74/67/308 41/52/309 
f 61/53/310 75/68/311 41/52/312 
f 78/69/313 75/68/314 61/53/315 
f 80/70/316 78/69/317 61/53/318 
f 63/54/319 80/70/320 61/53/321 
f 62/71/322 80/70/323 63/54/324 
f 44/55/325 62/71/326 63/54/327 
f 82/72/328 62/71/329 44/55/330 
f 64/56/331 82/72/332 44/55/333 
f 65/73/334 82/72/335 64/56/336 
f 66/57/337 65/73/338 64/56/339 
f 67/74/340 65/73/341 66/57/342 
f 48/58/343 67/74/344 66/57/345 
f 68/59/346 67/74/347 48/58/348 
f 84/75/349 67/74/350 68/59/351 
f 69/60/352 84/75/353 68/59/354 
f 85/76/355 84/75/356 69/60/357 
f 50/61/358 85/76/359 69/60/360 
f 88/77/361 85/76/362 50/61/363 
f 70/78/364 88/77/365 50/61/366 
f 52/62/367 70/78/368 50/61/369 
f 90/79/370 70/78/371 52/62/372 
f 53/63/373 90/79/374 52/62/375 
f 71/80/376 90/79/377 53/63/378 
f 55/64/379 71/80/380 53/63/381 
f 59/65/382 71/80/383 55/64/384 
f 72/81/385 71/80/386 59/65/387 
f 60/66/388 72/81/389 59/65/390 
f 73/82/391 72/81/392 60/66/393 
f 74/67/394 73/82/395 60/66/396 
f 96/83/397 73/82/398 74/67/399 
f 75/68/400 96/83/401 74/67/402 
f 76/84/403 96/83/404 75/68/405 
f 78/69/406 76/84/407 75/68/408 
f 78/69/409 77/85/410 76/84/411 
f 79/86/412 77/85/413 78/69/414 
f 80/70/415 79/86/416 78/69/417 
f 81/87/418 79/86/419 80/70/420 
f 62/71/421 81/87/422 80/70/423 
f 83/88/424 81/87/425 62/71/426 
f 82/72/427 83/88/428 62/71/429 
f 65/73/430 83/88/431 82/72/432 
f 65/73/433 95/89/434 83/88/435 
f 94/90/436 95/89/437 65/73/438 
f 67/74/439 94/90/440 65/73/441 
f 84/75/442 94/90/443 67/74/444 
f 93/91/445 94/90/446 84/75/447 
f 85/76/448 93/91/449 84/75/450 
f 86/92/451 93/91/452 85/76/453 
f 88/77/454 86/92/455 85/76/456 
f 88/77/457 87/93/458 86/92/459 
f 89/94/460 87/93/461 88/77/462 
f 70/78/463 89/94/464 88/77/465 
f 91/95/466 89/94/467 70/78/468 
f 90/79/469 91/95/470 70/78/471 
f 92/96/472 91/95/473 90/79/474 
f 71/80/475 92/96/476 90/79/477 
f 72/81/478 92/96/479 71/80/480 
f 97/97/481 92/96/482 72/81/483 
f 97/97/484 91/95/485 92/96/486 
f 97/97/487 89/94/488 91/95/489 
f 97/97/490 87/93/491 89/94/492 
f 97/97/493 86/92/494 87/93/495 
f 97/97/496 93/91/497 86/92/498 
f 97/97/499 94/90/500 93/91/501 
f 97/97/502 95/89/503 94/90/504 
f 97/97/505 83/88/506 95/89/507 
f 97/97/508 81/87/509 83/88/510 
f 97/97/511 79/86/512 81/87/513 
f 97/97/514 77/85/515 79/86/516 
f 97/97/517 76/84/518 77/85/519 
f 97/97/520 96/83/521 76/84/522 
f 97/97/523 73/82/524 96/83/525 
f 72/81/526 73/82/527 97/97/528 
f 98/98/529 99/99/530 100/100/531 
f 101/101/532 98/98/533 100/100/534 
f 102/102/535 98/98/536 101/101/537 
f 103/103/538 102/102/539 101/101/540 
f 104/104/541 102/102/542 103/103/543 
f 105/105/544 104/104/545 103/103/546 
f 106/106/547 104/104/548 105/105/549 
f 107/107/550 106/106/551 105/105/552 
f 108/108/553 107/107/554 105/105/555 
f 109/109/556 107/107/557 108/108/558 
f 110/110/559 107/107/560 109/109/561 
f 111/111/562 110/110/563 109/109/564 
f 112/112/565 110/110/566 111/111/567 
f 113/113/568 112/112/569 111/111/570 
f 114/114/571 113/113/572 111/111/573 
f 115/115/574 113/113/575 114/114/576 
f 116/116/577 115/115/578 114/114/579 
f 117/117/580 115/115/581 116/116/582 
f 99/99/583 117/117/584 116/116/585 
f 98/98/586 117/117/587 99/99/588 
f 118/118/589 117/117/590 98/98/591 
f 119/119/592 118/118/593 98/98/594 
f 102/102/595 119/119/596 98/98/597 
f 120/120/598 119/119/599 102/102/600 
f 104/104/601 120/120/602 102/102/603 
f 121/121/604 120/120/605 104/104/606 
f 106/106/607 121/121/608 104/104/609 
f 122/122/610 121/121/611 106/106/612 
f 123/123/613 122/122/614 106/106/615 
f 107/107/616 123/123/617 106/106/618 
f 124/124/619 123/123/620 107/107/621 
f 110/110/622 124/124/623 107/107/624 
f 125/125/625 124/124/626 110/110/627 
f 112/112/628 125/125/629 110/110/630 
f 126/126/631 125/125/632 112/112/633 
f 113/113/634 126/126/635 112/112/636 
f 127/127/637 126/126/638 113/113/639 
f 115/115/640 127/127/641 113/113/642 
f 117/117/643 127/127/644 115/115/645 
f 118/118/646 127/127/647 117/117/648 
f 118/118/649 128/128/650 127/127/651 
f 128/128/652 126/126/653 127/127/654 
f 128/128/655 129/129/656 126/126/657 
f 129/129/658 125/125/659 126/126/660 
f 129/129/661 130/130/662 125/125/663 
f 130/130/664 124/124/665 125/125/666 
f 130/130/667 131/131/668 124/124/669 
f 131/131/670 123/123/671 124/124/672 
f 131/131/673 132/132/674 123/123/675 
f 132/132/676 122/122/677 123/123/678 
f 133/133/679 122/122/680 132/132/681 
f 133/133/682 134/134/683 122/122/684 
f 134/134/685 121/121/686 122/122/687 
f 134/134/688 135/135/689 121/121/690 
f 135/135/691 120/120/692 121/121/693 
f 135/135/694 136/136/695 120/120/696 
f 136/136/697 119/119/698 120/120/699 
f 136/136/700 137/137/701 119/119/702 
f 137/137/703 118/118/704 119/119/705 
f 137/137/706 128/128/707 118/118/708 
f 138/138/709 128/128/710 137/137/711 
f 136/136/712 138/138/713 137/137/714 
f 135/135/715 138/138/716 136/136/717 
f 134/134/718 138/138/719 135/135/720 
f 133/133/721 138/138/722 134/134/723 
f 132/132/724 138/138/725 133/133/726 
f 131/131/727 138/138/728 132/132/729 
f 130/130/730 138/138/731 131/131/732 
f 129/129/733 138/138/734 130/130/735 
f 129/129/736 128/128/737 138/138/738 
f 139/139/739 140/140/740 141/141/741 
f 142/142/742 139/139/743 141/141/744 
f 143/143/745 139/139/746 142/142/747 
f 144/144/748 143/143/749 142/142/750 
f 145/145/751 143/143/752 144/144/753 
f 146/146/754 145/145/755 144/144/756 
f 147/147/757 145/145/758 146/146/759 
f 148/148/760 147/147/761 146/146/762 
f 149/149/763 148/148/764 146/146/765 
f 150/150/766 148/148/767 149/149/768 
f 151/151/769 148/148/770 150/150/771 
f 152/152/772 151/151/773 150/150/774 
f 153/153/775 151/151/776 152/152/777 
f 154/154/778 153/153/779 152/152/780 
f 155/155/781 154/154/782 152/152/783 
f 156/156/784 154/154/785 155/155/786 
f 157/157/787 156/156/788 155/155/789 
f 158/158/790 156/156/791 157/157/792 
f 140/140/793 158/158/794 157/157/795 
f 139/139/796 158/158/797 140/140/798 
f 159/159/799 158/158/800 139/139/801 
f 160/160/802 159/159/803 139/139/804 
f 143/143/805 160/160/806 139/139/807 
f 161/161/808 160/160/809 143/143/810 
f 145/145/811 161/161/812 143/143/813 
f 162/162/814 161/161/815 145/145/816 
f 147/147/817 162/162/818 145/145/819 
f 163/163/820 162/162/821 147/147/822 
f 164/164/823 163/163/824 147/147/825 
f 148/148/826 164/164/827 147/147/828 
f 165/165/829 164/164/830 148/148/831 
f 151/151/832 165/165/833 148/148/834 
f 166/166/835 165/165/836 151/151/837 
f 153/153/838 166/166/839 151/151/840 
f 167/167/841 166/166/842 153/153/843 
f 154/154/844 167/167/845 153/153/846 
f 168/168/847 167/167/848 154/154/849 
f 156/156/850 168/168/851 154/154/852 
f 158/158/853 168/168/854 156/156/855 
f 159/159/856 168/168/857 158/158/858 
f 159/159/859 169/169/860 168/168/861 
f 169/169/862 167/167/863 168/168/864 
f 169/169/865 170/170/866 167/167/867 
f 170/170/868 166/166/869 167/167/870 
f 170/170/871 171/171/872 166/166/873 
f 171/171/874 165/165/875 166/166/876 
f 171/171/877 172/172/878 165/165/879 
f 172/172/880 164/164/881 165/165/882 
f 172/172/883 173/173/884 164/164/885 
f 173/173/886 163/163/887 164/164/888 
f 174/174/889 163/163/890 173/173/891 
f 174/174/892 175/175/893 163/163/894 
f 175/175/895 162/162/896 163/163/897 
f 175/175/898 176/176/899 162/162/900 
f 176/176/901 161/161/902 162/162/903 
f 176/176/904 177/177/905 161/161/906 
f 177/177/907 160/160/908 161/161/909 
f 177/177/910 178/178/911 160/160/912 
f 178/178/913 159/159/914 160/160/915 
f 178/178/916 169/169/917 159/159/918 
f 179/179/919 169/169/920 178/178/921 
f 177/177/922 179/179/923 178/178/924 
f 176/176/925 179/179/926 177/177/927 
f 175/175/928 179/179/929 176/176/930 
f 174/174/931 179/179/932 175/175/933 
f 173/173/934 179/179/935 174/174/936 
f 172/172/937 179/179/938 173/173/939 
f 171/171/940 179/179/941 172/172/942 
f 170/170/943 179/179/944 171/171/945 
f 170/170/946 169/169/947 179/179/948 
# 316 faces

#
# object SM_Chiton_04_LOD1
#

v  5.7854 8.8242 -2.5805
v  -8.0864 0.0000 23.6975
v  13.8647 0.0000 -14.4123
v  -11.4062 0.0000 -21.4188
v  12.6847 0.0000 20.1568
v  1.8316 0.0000 -25.3052
v  -3.1800 10.1037 4.8919
v  15.6550 0.0000 -3.2264
v  -0.8645 7.6988 13.5797
v  -4.1248 9.8352 -2.8030
v  -3.5776 2.1511 -18.2024
v  4.1890 1.8355 18.4660
v  -11.8387 0.1323 15.8535
v  7.1973 0.6615 -18.4024
v  -6.2975 5.9223 14.1572
v  -4.0618 3.8926 16.6841
v  -6.0148 5.7472 12.2840
v  -15.5120 0.0000 -10.1816
v  0.3152 9.5823 -6.6554
v  -6.0214 1.9388 -20.8662
v  -10.9811 0.0835 -18.2797
v  -4.2015 0.8511 -21.0978
v  -5.6303 3.2984 -15.7422
v  3.4071 10.0155 5.6617
v  -8.6357 1.9679 -15.2995
v  -13.5947 0.0000 18.4909
v  12.5342 1.2508 9.4989
v  14.3639 0.0645 -4.7246
v  -7.0053 3.5207 14.7584
v  -4.1973 0.2224 21.1408
v  -12.3157 1.8808 -7.8118
v  -8.4297 0.0183 -22.4582
v  2.6998 7.6451 -10.2342
v  -5.9317 1.8079 -17.6014
v  -4.7859 7.3620 -9.7397
v  -8.5587 1.6118 -18.9387
v  -7.5439 7.1807 5.5744
v  10.9489 1.4061 -12.3637
v  -2.7926 6.3360 14.3052
v  8.4445 0.0000 -21.6121
v  -8.7462 1.5811 -16.1055
v  -14.2827 0.3757 -0.4729
v  5.5498 0.0000 24.5957
v  0.2030 10.2178 7.9496
v  -1.2270 1.6152 19.7045
v  16.0006 0.0000 13.2512
v  1.6095 2.4750 -18.0187
v  11.9271 3.5718 -3.8938
v  -4.0336 7.6159 11.8686
v  9.8031 1.4061 15.0462
v  -4.8206 5.5906 15.6276
v  5.8499 4.2488 -14.6504
v  -8.2294 7.0673 -4.2323
v  -0.8671 0.2240 -21.6266
v  -6.1847 1.8094 17.7747
v  -7.7028 1.4322 -16.5291
v  -7.3688 2.1700 -20.2522
v  -10.0055 0.1377 -18.1559
v  6.7076 7.3251 -7.9454
v  6.8797 7.2149 7.7790
v  -10.3151 1.4061 14.1052
v  -1.6507 0.0000 25.3052
v  0.3851 11.4945 0.4364
v  -4.7371 0.0000 -24.3862
v  -4.2266 6.9150 12.7072
v  -16.0624 0.0000 -0.2734
v  4.9015 0.2079 21.0381
v  -9.3908 0.4118 -19.6648
v  2.5550 7.5685 12.7771
v  -14.2730 0.0645 -8.8557
v  -11.9943 3.4436 -1.1526
v  -3.8999 2.1718 -17.9859
v  -12.2289 1.2508 8.0918
v  11.3827 0.1377 17.1864
v  -1.0233 4.3798 17.7493
v  9.4190 3.9248 -11.5920
v  14.2191 0.0645 11.0253
v  13.0712 1.2339 -2.7168
# 78 vertices

vn -0.7524 0.6408 0.1523
vn -0.6308 0.7606 0.1536
vn -0.7576 0.6527 0.0042
vn 0.8054 0.5865 -0.0854
vn 0.5829 0.7803 0.2266
vn 0.6037 0.7854 0.1368
vn -0.3368 0.8446 -0.4161
vn 0.1401 0.8734 -0.4664
vn 0.0845 0.8108 -0.5792
vn -0.0677 0.8338 0.5479
vn -0.3818 0.7355 0.5597
vn -0.0464 0.7105 0.7021
vn 0.0845 0.8108 -0.5792
vn 0.1401 0.8734 -0.4664
vn 0.3375 0.7834 -0.5218
vn 0.5012 0.8607 -0.0895
vn 0.5829 0.7803 0.2266
vn 0.8054 0.5865 -0.0854
vn 0.0511 0.9975 -0.0492
vn -0.3906 0.9104 -0.1364
vn -0.3872 0.9106 0.1446
vn 0.4427 0.8310 0.3369
vn 0.3175 0.8134 0.4874
vn 0.2474 0.7883 0.5633
vn -0.0677 0.8338 0.5479
vn -0.4222 0.8122 0.4025
vn -0.3818 0.7355 0.5597
vn 0.0511 0.9975 -0.0492
vn -0.3872 0.9106 0.1446
vn 0.0338 0.9522 0.3035
vn -0.6579 0.7293 -0.1878
vn -0.3368 0.8446 -0.4161
vn -0.4528 0.8107 -0.3712
vn -0.6308 0.7606 0.1536
vn -0.6159 0.7741 -0.1465
vn -0.7576 0.6527 0.0042
vn -0.0102 0.9611 -0.2759
vn 0.2253 0.9095 -0.3494
vn 0.0813 0.9864 -0.1431
vn -0.0320 0.9990 -0.0314
vn -0.0102 0.9611 -0.2759
vn -0.0188 0.9983 -0.0546
vn 0.0870 0.9628 0.2557
vn -0.0402 0.6967 0.7162
vn -0.0864 0.9576 0.2748
vn 0.1706 0.9756 0.1385
vn 0.2474 0.7883 0.5633
vn 0.0870 0.9628 0.2557
vn 0.0162 0.9984 0.0542
vn -0.0864 0.9576 0.2748
vn -0.0008 0.9986 0.0538
vn -0.0412 0.9989 0.0242
vn -0.2160 0.9682 0.1262
vn -0.1920 0.9814 0.0063
vn 0.6199 0.6750 -0.4001
vn 0.4637 0.8400 -0.2818
vn 0.8054 0.5865 -0.0854
vn 0.0813 0.9864 -0.1431
vn 0.2253 0.9095 -0.3494
vn 0.3032 0.9413 -0.1485
vn -0.6590 0.7271 0.1923
vn -0.1129 0.8717 0.4768
vn -0.5873 0.8084 0.0380
vn -0.2147 0.6536 0.7257
vn -0.7798 0.3221 0.5368
vn -0.2355 0.4354 0.8689
vn -0.0440 0.9990 -0.0092
vn -0.1785 0.9686 -0.1729
vn -0.0320 0.9990 -0.0314
vn 0.0511 0.9975 -0.0492
vn 0.4093 0.8879 0.2099
vn 0.5012 0.8607 -0.0895
vn -0.3368 0.8446 -0.4161
vn 0.0359 0.9405 -0.3379
vn 0.1401 0.8734 -0.4664
vn -0.5356 0.8186 -0.2076
vn -0.2557 0.9398 -0.2266
vn -0.3741 0.7370 -0.5628
vn 0.2350 0.8610 -0.4510
vn -0.1702 0.9390 -0.2988
vn 0.2560 0.8570 -0.4473
vn -0.2557 0.9398 -0.2266
vn -0.6411 0.7612 0.0980
vn -0.1702 0.9390 -0.2988
vn 0.0511 0.9975 -0.0492
vn 0.0338 0.9522 0.3035
vn 0.4093 0.8879 0.2099
vn 0.5829 0.7803 0.2266
vn 0.3175 0.8134 0.4874
vn 0.4427 0.8310 0.3369
vn -0.4528 0.8107 -0.3712
vn -0.3368 0.8446 -0.4161
vn -0.1731 0.8180 -0.5485
vn -0.1785 0.9686 -0.1729
vn -0.0102 0.9611 -0.2759
vn -0.0320 0.9990 -0.0314
vn -0.0280 0.9986 0.0442
vn -0.0864 0.9576 0.2748
vn -0.0412 0.9989 0.0242
vn 0.3254 0.9447 -0.0415
vn 0.2417 0.9684 0.0613
vn 0.0510 0.9987 -0.0015
vn 0.4427 0.8310 0.3369
vn 0.2474 0.7883 0.5633
vn 0.1706 0.9756 0.1385
vn 0.3032 0.9413 -0.1485
vn 0.5476 0.7913 -0.2719
vn 0.3254 0.9447 -0.0415
vn 0.3032 0.9413 -0.1485
vn 0.3254 0.9447 -0.0415
vn 0.0510 0.9987 -0.0015
vn -0.7798 0.3221 0.5368
vn -0.6590 0.7271 0.1923
vn -0.5873 0.8084 0.0380
vn -0.3818 0.7355 0.5597
vn -0.4222 0.8122 0.4025
vn -0.5301 0.7988 0.2845
vn -0.0864 0.9576 0.2748
vn -0.2160 0.9682 0.1262
vn -0.0412 0.9989 0.0242
vn -0.2160 0.9682 0.1262
vn -0.5173 0.8556 0.0175
vn -0.1920 0.9814 0.0063
vn -0.6579 0.7293 -0.1878
vn -0.4528 0.8107 -0.3712
vn -0.3161 0.9452 -0.0813
vn -0.3741 0.7370 -0.5628
vn 0.2350 0.8610 -0.4510
vn 0.2560 0.8570 -0.4473
vn 0.1401 0.8734 -0.4664
vn 0.4637 0.8400 -0.2818
vn 0.6199 0.6750 -0.4001
vn 0.1401 0.8734 -0.4664
vn 0.0359 0.9405 -0.3379
vn 0.4637 0.8400 -0.2818
vn -0.1702 0.9390 -0.2988
vn -0.1909 0.7876 -0.5859
vn -0.3102 0.7656 -0.5635
vn 0.2560 0.8570 -0.4473
vn -0.1702 0.9390 -0.2988
vn -0.2387 0.8635 -0.4443
vn -0.6159 0.7741 -0.1465
vn -0.3368 0.8446 -0.4161
vn -0.6579 0.7293 -0.1878
vn -0.3906 0.9104 -0.1364
vn 0.0359 0.9405 -0.3379
vn -0.3368 0.8446 -0.4161
vn -0.1702 0.9390 -0.2988
vn -0.6411 0.7612 0.0980
vn -0.5277 0.4545 -0.7177
vn -0.3009 0.9276 -0.2215
vn -0.5356 0.8186 -0.2076
vn -0.3741 0.7370 -0.5628
vn -0.6308 0.7606 0.1536
vn -0.3872 0.9106 0.1446
vn -0.6159 0.7741 -0.1465
vn 0.0338 0.9522 0.3035
vn -0.3872 0.9106 0.1446
vn -0.4222 0.8122 0.4025
vn 0.3375 0.7834 -0.5218
vn 0.1401 0.8734 -0.4664
vn 0.6199 0.6750 -0.4001
vn 0.2253 0.9095 -0.3494
vn 0.5476 0.7913 -0.2719
vn 0.3032 0.9413 -0.1485
vn -0.1129 0.8717 0.4768
vn -0.2147 0.6536 0.7257
vn -0.2355 0.4354 0.8689
vn 0.0133 0.9986 -0.0510
vn -0.0102 0.9611 -0.2759
vn 0.0813 0.9864 -0.1431
vn -0.5277 0.4545 -0.7177
vn -0.5356 0.8186 -0.2076
vn -0.3009 0.9276 -0.2215
vn -0.7576 0.6527 0.0042
vn -0.6159 0.7741 -0.1465
vn -0.6579 0.7293 -0.1878
vn -0.5173 0.8556 0.0175
vn -0.6579 0.7293 -0.1878
vn -0.3161 0.9452 -0.0813
vn 0.0870 0.9628 0.2557
vn -0.0864 0.9576 0.2748
vn 0.0162 0.9984 0.0542
vn 0.0338 0.9522 0.3035
vn -0.4222 0.8122 0.4025
vn -0.0677 0.8338 0.5479
vn 0.5829 0.7803 0.2266
vn 0.0338 0.9522 0.3035
vn 0.3175 0.8134 0.4874
vn 0.2474 0.7883 0.5633
vn -0.0677 0.8338 0.5479
vn -0.0464 0.7105 0.7021
vn 0.2474 0.7883 0.5633
vn -0.0402 0.6967 0.7162
vn 0.0870 0.9628 0.2557
vn 0.0510 0.9987 -0.0015
vn 0.2417 0.9684 0.0613
vn 0.0364 0.9993 0.0054
vn -0.1731 0.8180 -0.5485
vn -0.3368 0.8446 -0.4161
vn 0.0845 0.8108 -0.5792
vn -0.1785 0.9686 -0.1729
vn -0.1731 0.8180 -0.5485
vn -0.0102 0.9611 -0.2759
vn 0.5476 0.7913 -0.2719
vn 0.8054 0.5865 -0.0854
vn 0.7861 0.6172 -0.0337
vn 0.8054 0.5865 -0.0854
vn 0.6037 0.7854 0.1368
vn 0.7861 0.6172 -0.0337
vn -0.4222 0.8122 0.4025
vn -0.3872 0.9106 0.1446
vn -0.6308 0.7606 0.1536
vn -0.4222 0.8122 0.4025
vn -0.6308 0.7606 0.1536
vn -0.5301 0.7988 0.2845
vn 0.2417 0.9684 0.0613
vn 0.4427 0.8310 0.3369
vn 0.1706 0.9756 0.1385
vn 0.6037 0.7854 0.1368
vn 0.5829 0.7803 0.2266
vn 0.4427 0.8310 0.3369
vn -0.7798 0.3221 0.5368
vn -0.2147 0.6536 0.7257
vn -0.6590 0.7271 0.1923
vn -0.6590 0.7271 0.1923
vn -0.2147 0.6536 0.7257
vn -0.1129 0.8717 0.4768
vn 0.2253 0.9095 -0.3494
vn 0.3375 0.7834 -0.5218
vn 0.5476 0.7913 -0.2719
vn 0.0845 0.8108 -0.5792
vn 0.3375 0.7834 -0.5218
vn 0.2253 0.9095 -0.3494
vn -0.6159 0.7741 -0.1465
vn -0.3906 0.9104 -0.1364
vn -0.3368 0.8446 -0.4161
vn -0.3872 0.9106 0.1446
vn -0.3906 0.9104 -0.1364
vn -0.6159 0.7741 -0.1465
vn -0.0102 0.9611 -0.2759
vn 0.0845 0.8108 -0.5792
vn 0.2253 0.9095 -0.3494
vn -0.1731 0.8180 -0.5485
vn 0.0845 0.8108 -0.5792
vn -0.0102 0.9611 -0.2759
vn -0.0864 0.9576 0.2748
vn -0.3818 0.7355 0.5597
vn -0.2160 0.9682 0.1262
vn -0.0402 0.6967 0.7162
vn -0.3818 0.7355 0.5597
vn -0.0864 0.9576 0.2748
vn -0.1702 0.9390 -0.2988
vn -0.5277 0.4545 -0.7177
vn -0.1909 0.7876 -0.5859
vn -0.1909 0.7876 -0.5859
vn -0.5277 0.4545 -0.7177
vn -0.3009 0.9276 -0.2215
vn 0.2350 0.8610 -0.4510
vn -0.2557 0.9398 -0.2266
vn -0.1702 0.9390 -0.2988
vn -0.2557 0.9398 -0.2266
vn 0.2350 0.8610 -0.4510
vn -0.3741 0.7370 -0.5628
vn -0.3161 0.9452 -0.0813
vn -0.4528 0.8107 -0.3712
vn -0.1785 0.9686 -0.1729
vn -0.4528 0.8107 -0.3712
vn -0.1731 0.8180 -0.5485
vn -0.1785 0.9686 -0.1729
vn 0.0359 0.9405 -0.3379
vn 0.5012 0.8607 -0.0895
vn 0.4637 0.8400 -0.2818
vn 0.4637 0.8400 -0.2818
vn 0.5012 0.8607 -0.0895
vn 0.8054 0.5865 -0.0854
vn 0.5012 0.8607 -0.0895
vn 0.4093 0.8879 0.2099
vn 0.5829 0.7803 0.2266
vn 0.4093 0.8879 0.2099
vn 0.0338 0.9522 0.3035
vn 0.5829 0.7803 0.2266
vn -0.3818 0.7355 0.5597
vn -0.5301 0.7988 0.2845
vn -0.2160 0.9682 0.1262
vn -0.2160 0.9682 0.1262
vn -0.7524 0.6408 0.1523
vn -0.5173 0.8556 0.0175
vn -0.0864 0.9576 0.2748
vn -0.0280 0.9986 0.0442
vn -0.0008 0.9986 0.0538
vn 0.0511 0.9975 -0.0492
vn 0.5012 0.8607 -0.0895
vn 0.0359 0.9405 -0.3379
vn 0.0511 0.9975 -0.0492
vn 0.0359 0.9405 -0.3379
vn -0.3906 0.9104 -0.1364
vn -0.0188 0.9983 -0.0546
vn -0.0102 0.9611 -0.2759
vn 0.0133 0.9986 -0.0510
vn -0.5873 0.8084 0.0380
vn -0.1129 0.8717 0.4768
vn -0.5140 0.5480 0.6599
vn -0.5173 0.8556 0.0175
vn -0.3161 0.9452 -0.0813
vn -0.1920 0.9814 0.0063
vn 0.0375 0.9987 0.0334
vn 0.0870 0.9628 0.2557
vn 0.0162 0.9984 0.0542
vn 0.1706 0.9756 0.1385
vn 0.0870 0.9628 0.2557
vn 0.0375 0.9987 0.0334
vn -0.6411 0.7612 0.0980
vn -0.2557 0.9398 -0.2266
vn -0.5356 0.8186 -0.2076
vn -0.5277 0.4545 -0.7177
vn -0.6411 0.7612 0.0980
vn -0.5356 0.8186 -0.2076
vn 0.3175 0.8134 0.4874
vn -0.0677 0.8338 0.5479
vn 0.2474 0.7883 0.5633
vn 0.3175 0.8134 0.4874
vn 0.0338 0.9522 0.3035
vn -0.0677 0.8338 0.5479
vn -0.3161 0.9452 -0.0813
vn -0.1785 0.9686 -0.1729
vn -0.0440 0.9990 -0.0092
vn -0.1920 0.9814 0.0063
vn -0.3161 0.9452 -0.0813
vn -0.0440 0.9990 -0.0092
vn -0.5173 0.8556 0.0175
vn -0.7576 0.6527 0.0042
vn -0.6579 0.7293 -0.1878
vn -0.7524 0.6408 0.1523
vn -0.7576 0.6527 0.0042
vn -0.5173 0.8556 0.0175
vn -0.2387 0.8635 -0.4443
vn -0.1702 0.9390 -0.2988
vn -0.3102 0.7656 -0.5635
vn -0.5301 0.7988 0.2845
vn -0.7524 0.6408 0.1523
vn -0.2160 0.9682 0.1262
vn -0.5301 0.7988 0.2845
vn -0.6308 0.7606 0.1536
vn -0.7524 0.6408 0.1523
vn 0.0364 0.9993 0.0054
vn 0.1706 0.9756 0.1385
vn 0.0375 0.9987 0.0334
vn 0.2417 0.9684 0.0613
vn 0.1706 0.9756 0.1385
vn 0.0364 0.9993 0.0054
vn -0.0464 0.7105 0.7021
vn -0.3818 0.7355 0.5597
vn -0.0402 0.6967 0.7162
vn 0.2474 0.7883 0.5633
vn -0.0464 0.7105 0.7021
vn -0.0402 0.6967 0.7162
vn 0.6199 0.6750 -0.4001
vn 0.8054 0.5865 -0.0854
vn 0.5476 0.7913 -0.2719
vn 0.3375 0.7834 -0.5218
vn 0.6199 0.6750 -0.4001
vn 0.5476 0.7913 -0.2719
vn 0.7861 0.6172 -0.0337
vn 0.6037 0.7854 0.1368
vn 0.2417 0.9684 0.0613
vn 0.6037 0.7854 0.1368
vn 0.4427 0.8310 0.3369
vn 0.2417 0.9684 0.0613
vn 0.5476 0.7913 -0.2719
vn 0.7861 0.6172 -0.0337
vn 0.3254 0.9447 -0.0415
vn 0.3254 0.9447 -0.0415
vn 0.7861 0.6172 -0.0337
vn 0.2417 0.9684 0.0613
# 375 vertex normals

vt 0.9619 0.0664 0.0000
vt 0.7810 0.1613 0.0000
vt 0.7562 0.0390 0.0000
vt 0.8385 0.1219 0.0000
vt 0.9394 0.1632 0.0000
vt 0.7335 0.1005 0.0000
vt 0.8718 0.0864 0.0000
vt 0.8399 0.0807 0.0000
vt 0.8087 0.0213 0.0000
vt 0.9389 0.0386 0.0000
vt 0.8316 0.1738 0.0000
vt 0.4351 0.3147 0.0000
vt 0.3629 0.3322 0.0000
vt 0.3914 0.2739 0.0000
vt 0.4073 0.3519 0.0000
vt 0.4363 0.3090 0.0000
vt 0.3623 0.3258 0.0000
vt 0.3883 0.2782 0.0000
vt 0.9065 0.1780 0.0000
vt 0.9262 0.0460 0.0000
vt 0.7701 0.0771 0.0000
vt 0.9075 0.0980 0.0000
vt 0.8734 0.1138 0.0000
vt 0.4072 0.3514 0.0000
vt 0.8224 0.0979 0.0000
vt 0.8900 0.1599 0.0000
vt 0.3884 0.3204 0.0000
vt 0.9487 0.0843 0.0000
vt 0.9159 0.1482 0.0000
vt 0.8523 0.1000 0.0000
vt 0.7648 0.1278 0.0000
vt 0.7845 0.0544 0.0000
vt 0.8192 0.0388 0.0000
vt 0.4163 0.3187 0.0000
vt 0.4161 0.3207 0.0000
vt 0.7489 0.1336 0.0000
vt 0.9622 0.1319 0.0000
vt 0.7920 0.1467 0.0000
vt 0.3801 0.2983 0.0000
vt 0.8103 0.0755 0.0000
vt 0.8757 0.0683 0.0000
vt 0.3862 0.3127 0.0000
vt 0.8251 0.1667 0.0000
vt 0.8153 0.1248 0.0000
vt 0.9170 0.0536 0.0000
vt 0.7400 0.0694 0.0000
vt 0.4007 0.2947 0.0000
vt 0.9676 0.0976 0.0000
vt 0.7696 0.1011 0.0000
vt 0.9033 0.1122 0.0000
vt 0.4185 0.2841 0.0000
vt 0.8525 0.0293 0.0000
vt 0.8349 0.0631 0.0000
vt 0.8837 0.1013 0.0000
vt 0.8539 0.0200 0.0000
vt 0.4038 0.3223 0.0000
vt 0.9326 0.1227 0.0000
vt 0.8968 0.1694 0.0000
vt 0.8814 0.1289 0.0000
vt 0.7851 0.1206 0.0000
vt 0.4197 0.2842 0.0000
vt 0.9323 0.0742 0.0000
vt 0.9399 0.0978 0.0000
vt 0.8348 0.1595 0.0000
vt 0.7519 0.0887 0.0000
vt 0.8305 0.1516 0.0000
vt 0.7707 0.0460 0.0000
vt 0.8904 0.0425 0.0000
vt 0.3831 0.3343 0.0000
vt 0.9011 0.0845 0.0000
vt 0.3696 0.2994 0.0000
vt 0.8144 0.0275 0.0000
vt 0.7974 0.1378 0.0000
vt 0.9277 0.0983 0.0000
vt 0.8061 0.1076 0.0000
vt 0.9260 0.1569 0.0000
vt 0.9457 0.1274 0.0000
vt 0.8489 0.0435 0.0000
# 78 texture coords

o SM_Chiton_04_LOD1
g SM_Chiton_04_LOD1
usemtl MAT_Sea_Shells
s 1
f 252/247/949 216/220/950 250/257/951 
f 227/245/952 239/238/953 206/205/954 
f 214/219/955 212/254/956 226/228/957 
f 188/201/958 234/241/959 254/253/960 
f 226/228/961 212/254/962 231/239/963 
f 180/183/964 239/238/965 227/245/966 
f 242/209/967 189/187/968 186/186/969 
f 229/208/970 248/229/971 191/236/972 
f 188/201/973 228/249/974 234/241/975 
f 242/209/976 186/186/977 223/233/978 
f 210/212/979 214/219/980 204/211/981 
f 216/220/982 232/232/983 250/257/984 
f 233/244/985 193/210/986 219/215/987 
f 183/182/988 233/244/989 243/225/990 
f 246/256/991 224/242/992 209/207/993 
f 253/255/994 191/236/995 246/256/996 
f 222/216/997 209/207/998 241/227/999 
f 205/189/1000 192/199/1001 245/234/1002 
f 255/252/1003 238/223/1004 227/245/1005 
f 219/215/1006 193/210/1007 182/181/1008 
f 194/213/1009 218/197/1010 196/195/1011 
f 230/221/1012 208/203/1013 195/196/1014 
f 197/188/1015 237/246/1016 183/182/1017 
f 242/209/1018 203/202/1019 180/183/1020 
f 214/219/1021 198/204/1022 212/254/1023 
f 247/248/1024 236/235/1025 211/194/1026 
f 199/214/1027 213/226/1028 201/191/1029 
f 236/235/1030 215/206/1031 213/226/1032 
f 242/209/1033 223/233/1034 203/202/1035 
f 239/238/1036 248/229/1037 229/208/1038 
f 204/211/1039 214/219/1040 190/200/1041 
f 237/246/1042 233/244/1043 183/182/1044 
f 181/180/1045 209/207/1046 205/189/1047 
f 207/222/1048 256/237/1049 187/190/1050 
f 229/208/1051 191/236/1052 253/255/1053 
f 182/181/1054 217/217/1055 207/222/1056 
f 182/181/1057 207/222/1058 187/190/1059 
f 208/203/1060 194/213/1061 196/195/1062 
f 234/241/1063 228/249/1064 240/224/1065 
f 209/207/1066 192/199/1067 205/189/1068 
f 192/199/1069 221/231/1070 245/234/1071 
f 210/212/1072 204/211/1073 249/251/1074 
f 211/194/1075 199/214/1076 201/191/1077 
f 212/254/1078 238/223/1079 255/252/1080 
f 212/254/1081 198/204/1082 238/223/1083 
f 213/226/1084 220/250/1085 202/193/1086 
f 201/191/1087 213/226/1088 251/230/1089 
f 232/232/1090 214/219/1091 210/212/1092 
f 189/187/1093 198/204/1094 214/219/1095 
f 213/226/1096 215/206/1097 235/218/1098 
f 200/192/1099 247/248/1100 211/194/1101 
f 216/220/1102 186/186/1103 232/232/1104 
f 223/233/1105 186/186/1106 228/249/1107 
f 231/239/1108 212/254/1109 255/252/1110 
f 193/210/1111 217/217/1112 182/181/1113 
f 218/197/1114 230/221/1115 195/196/1116 
f 185/185/1117 233/244/1118 219/215/1119 
f 235/218/1120 247/248/1121 200/192/1122 
f 250/257/1123 232/232/1124 210/212/1125 
f 221/231/1126 210/212/1127 249/251/1128 
f 246/256/1129 209/207/1130 222/216/1131 
f 223/233/1132 228/249/1133 188/201/1134 
f 239/238/1135 223/233/1136 248/229/1137 
f 191/236/1138 188/201/1139 254/253/1140 
f 191/236/1141 224/242/1142 246/256/1143 
f 187/190/1144 256/237/1145 225/198/1146 
f 190/200/1147 214/219/1148 226/228/1149 
f 237/246/1150 190/200/1151 233/244/1152 
f 217/217/1153 227/245/1154 257/243/1155 
f 227/245/1156 206/205/1157 257/243/1158 
f 228/249/1159 186/186/1160 216/220/1161 
f 228/249/1162 216/220/1163 240/224/1164 
f 256/237/1165 229/208/1166 253/255/1167 
f 206/205/1168 239/238/1169 229/208/1170 
f 208/203/1171 230/221/1172 194/213/1173 
f 194/213/1174 230/221/1175 218/197/1176 
f 193/210/1177 231/239/1178 217/217/1179 
f 226/228/1180 231/239/1181 193/210/1182 
f 232/232/1183 189/187/1184 214/219/1185 
f 186/186/1186 189/187/1187 232/232/1188 
f 233/244/1189 226/228/1190 193/210/1191 
f 190/200/1192 226/228/1193 233/244/1194 
f 209/207/1195 234/241/1196 192/199/1197 
f 224/242/1198 234/241/1199 209/207/1200 
f 213/226/1201 235/218/1202 220/250/1203 
f 220/250/1204 235/218/1205 200/192/1206 
f 199/214/1207 236/235/1208 213/226/1209 
f 236/235/1210 199/214/1211 211/194/1212 
f 249/251/1213 204/211/1214 237/246/1215 
f 204/211/1216 190/200/1217 237/246/1218 
f 198/204/1219 180/183/1220 238/223/1221 
f 238/223/1222 180/183/1223 227/245/1224 
f 180/183/1225 203/202/1226 239/238/1227 
f 203/202/1228 223/233/1229 239/238/1230 
f 234/241/1231 240/224/1232 192/199/1233 
f 192/199/1234 252/247/1235 221/231/1236 
f 209/207/1237 181/180/1238 241/227/1239 
f 242/209/1240 180/183/1241 198/204/1242 
f 242/209/1243 198/204/1244 189/187/1245 
f 243/225/1246 233/244/1247 185/185/1248 
f 196/195/1249 218/197/1250 244/240/1251 
f 221/231/1252 249/251/1253 245/234/1254 
f 184/184/1255 246/256/1256 222/216/1257 
f 253/255/1258 246/256/1259 184/184/1260 
f 215/206/1261 236/235/1262 247/248/1263 
f 235/218/1264 215/206/1265 247/248/1266 
f 248/229/1267 188/201/1268 191/236/1269 
f 248/229/1270 223/233/1271 188/201/1272 
f 249/251/1273 237/246/1274 197/188/1275 
f 245/234/1276 249/251/1277 197/188/1278 
f 221/231/1279 250/257/1280 210/212/1281 
f 252/247/1282 250/257/1283 221/231/1284 
f 251/230/1285 213/226/1286 202/193/1287 
f 240/224/1288 252/247/1289 192/199/1290 
f 240/224/1291 216/220/1292 252/247/1293 
f 225/198/1294 253/255/1295 184/184/1296 
f 256/237/1297 253/255/1298 225/198/1299 
f 254/253/1300 234/241/1301 224/242/1302 
f 191/236/1303 254/253/1304 224/242/1305 
f 255/252/1306 227/245/1307 217/217/1308 
f 231/239/1309 255/252/1310 217/217/1311 
f 257/243/1312 206/205/1313 256/237/1314 
f 206/205/1315 229/208/1316 256/237/1317 
f 217/217/1318 257/243/1319 207/222/1320 
f 207/222/1321 257/243/1322 256/237/1323 
# 125 faces

