# 3ds Max Wavefront OBJ Exporter v0.97b - (c)2007 guruware
# File Created: 10.02.2024 08:35:50

mtllib SM_Coral_Table_Acropora_07.mtl

#
# object SM_Coral_Table_Acropora_07_LOD0
#

v  -19.9678 7.8072 14.0238
v  -18.1528 7.9758 18.4282
v  -7.7315 6.9728 -24.8792
v  10.2690 6.6789 -3.4386
v  1.3630 8.5261 22.1261
v  -5.8398 8.5261 25.0792
v  19.8415 8.1350 16.0322
v  -16.3965 5.0357 -16.6419
v  -19.9150 4.7707 -12.0469
v  -20.6901 4.7707 -7.3490
v  -21.5407 5.2012 -2.1932
v  -2.1138 8.5261 25.0792
v  -11.1134 4.8356 9.9196
v  -13.3233 8.2712 21.4005
v  -7.1540 4.9417 11.6840
v  -10.2340 8.4063 21.9568
v  -3.0939 5.0491 13.2451
v  4.6360 8.5261 22.8380
v  0.2809 4.8858 12.1245
v  10.2260 8.4984 20.6686
v  14.7511 8.4185 20.1379
v  21.5505 7.7191 11.2827
v  19.7516 7.0438 3.5122
v  15.5435 6.7925 -1.7302
v  5.7347 3.4597 -0.1595
v  7.1077 6.3770 -3.6472
v  9.7271 6.6833 -8.9287
v  8.8835 7.1042 -15.8157
v  0.8636 2.3386 -9.3798
v  5.8014 7.2517 -20.1707
v  -1.5956 7.2418 -25.0629
v  -2.8348 1.9696 -11.8259
v  -12.2878 6.3214 -22.7202
v  -12.6091 5.9411 -20.7538
v  -11.9945 2.3913 -5.3179
v  -17.4827 4.7707 -12.7799
v  -19.0193 5.7798 1.0159
v  -20.5467 6.6606 5.5477
v  -13.0974 3.6767 2.8054
v  -12.8074 3.2372 -0.3911
v  -4.0740 0.1986 1.4111
v  -8.1810 1.7092 -10.6546
v  2.8265 2.8258 -3.7589
v  8.7383 4.2462 6.3469
v  5.3385 4.6667 10.7745
v  -20.0187 7.6159 14.0526
v  -18.1870 7.7835 18.4710
v  -7.7320 6.7860 -24.9506
v  10.3033 6.5167 -3.5504
v  1.3768 8.3365 22.1882
v  -5.8532 8.3344 25.1345
v  19.8745 7.9418 16.0719
v  -16.4360 4.8455 -16.6896
v  -19.9487 4.5757 -12.0762
v  -20.7427 4.5777 -7.3499
v  -21.5948 5.0116 -2.1594
v  -2.0963 8.3346 25.1340
v  -11.1537 4.6466 9.9713
v  -13.3362 8.0801 21.4582
v  -7.1763 4.7540 11.7493
v  -10.2531 8.2160 22.0153
v  -3.0936 4.8602 13.3107
v  4.6429 8.3361 22.8997
v  0.2934 4.6992 12.1952
v  10.2367 8.3097 20.7339
v  14.7710 8.2272 20.1927
v  21.5948 7.5252 11.3043
v  19.7990 6.8497 3.5045
v  15.5917 6.6023 -1.7685
v  5.8063 3.2769 -0.1979
v  7.2011 6.2064 -3.6937
v  9.8245 6.5086 -8.9328
v  8.9584 6.9233 -15.8564
v  0.9261 2.1510 -9.4095
v  5.8561 7.0692 -20.2318
v  -1.5723 7.0565 -25.1345
v  -2.8118 1.7775 -11.8768
v  -12.3081 6.1333 -22.7852
v  -12.6652 5.7565 -20.8065
v  -12.0481 2.1986 -5.3185
v  -17.5154 4.5770 -12.8176
v  -19.0835 5.5955 1.0594
v  -20.6056 6.4717 5.5766
v  -13.1633 3.4905 2.8371
v  -12.8711 3.0493 -0.3661
v  -4.0764 -0.0000 1.4348
v  -8.2079 1.5146 -10.6921
v  2.9116 2.6454 -3.7740
v  8.7853 4.0528 6.3658
v  5.3621 4.4770 10.8333
# 90 vertices

vn 0.2011 0.9449 -0.2584
vn 0.2543 0.9564 -0.1438
vn 0.1705 0.9619 -0.2139
vn 0.0647 0.9553 -0.2884
vn 0.2011 0.9449 -0.2584
vn 0.1705 0.9619 -0.2139
vn 0.1116 0.9385 -0.3267
vn 0.2011 0.9449 -0.2584
vn 0.0647 0.9553 -0.2884
vn 0.0957 0.9515 -0.2922
vn 0.1116 0.9385 -0.3267
vn 0.0647 0.9553 -0.2884
vn 0.0669 0.9587 -0.2765
vn 0.1116 0.9385 -0.3267
vn 0.0957 0.9515 -0.2922
vn -0.0014 0.9447 -0.3280
vn 0.1116 0.9385 -0.3267
vn 0.0669 0.9587 -0.2765
vn -0.0874 0.9577 -0.2742
vn -0.0014 0.9447 -0.3280
vn 0.0669 0.9587 -0.2765
vn -0.0692 0.9481 -0.3102
vn -0.0014 0.9447 -0.3280
vn -0.0874 0.9577 -0.2742
vn -0.0621 0.9334 -0.3535
vn -0.0014 0.9447 -0.3280
vn -0.0692 0.9481 -0.3102
vn -0.0349 0.9505 -0.3088
vn -0.0621 0.9334 -0.3535
vn -0.0692 0.9481 -0.3102
vn -0.0536 0.9435 -0.3271
vn -0.0621 0.9334 -0.3535
vn -0.0349 0.9505 -0.3088
vn -0.1176 0.9485 -0.2942
vn -0.0621 0.9334 -0.3535
vn -0.0536 0.9435 -0.3271
vn -0.0995 0.9565 -0.2741
vn -0.1176 0.9485 -0.2942
vn -0.0536 0.9435 -0.3271
vn -0.2352 0.9673 -0.0949
vn -0.1176 0.9485 -0.2942
vn -0.0995 0.9565 -0.2741
vn -0.1652 0.9661 -0.1985
vn -0.2352 0.9673 -0.0949
vn -0.0995 0.9565 -0.2741
vn -0.2211 0.9693 -0.1079
vn -0.2352 0.9673 -0.0949
vn -0.1652 0.9661 -0.1985
vn -0.2367 0.9708 0.0383
vn -0.2352 0.9673 -0.0949
vn -0.2211 0.9693 -0.1079
vn -0.2412 0.9514 0.1917
vn -0.2352 0.9673 -0.0949
vn -0.2367 0.9708 0.0383
vn -0.3577 0.9140 0.1917
vn -0.2352 0.9673 -0.0949
vn -0.2412 0.9514 0.1917
vn -0.1718 0.8112 0.5589
vn -0.3577 0.9140 0.1917
vn -0.2412 0.9514 0.1917
vn -0.4674 0.8530 0.2322
vn -0.3577 0.9140 0.1917
vn -0.1718 0.8112 0.5589
vn -0.4251 0.9020 0.0759
vn -0.3577 0.9140 0.1917
vn -0.4674 0.8530 0.2322
vn -0.4870 0.8732 0.0203
vn -0.4251 0.9020 0.0759
vn -0.4674 0.8530 0.2322
vn -0.3123 0.9383 0.1487
vn -0.4251 0.9020 0.0759
vn -0.4870 0.8732 0.0203
vn -0.3741 0.9047 0.2037
vn -0.3123 0.9383 0.1487
vn -0.4870 0.8732 0.0203
vn -0.2734 0.9122 0.3053
vn -0.3123 0.9383 0.1487
vn -0.3741 0.9047 0.2037
vn -0.1154 0.9603 0.2540
vn -0.3123 0.9383 0.1487
vn -0.2734 0.9122 0.3053
vn -0.1167 0.9264 0.3581
vn -0.1154 0.9603 0.2540
vn -0.2734 0.9122 0.3053
vn 0.0024 0.9341 0.3571
vn -0.1154 0.9603 0.2540
vn -0.1167 0.9264 0.3581
vn 0.1014 0.9403 0.3249
vn -0.1154 0.9603 0.2540
vn 0.0024 0.9341 0.3571
vn 0.1346 0.9729 0.1878
vn -0.1154 0.9603 0.2540
vn 0.1014 0.9403 0.3249
vn 0.2803 0.9229 0.2638
vn 0.1346 0.9729 0.1878
vn 0.1014 0.9403 0.3249
vn 0.1978 0.9508 0.2383
vn 0.1346 0.9729 0.1878
vn 0.2803 0.9229 0.2638
vn 0.2677 0.9635 0.0031
vn 0.1346 0.9729 0.1878
vn 0.1978 0.9508 0.2383
vn 0.1636 0.9684 0.1885
vn 0.2677 0.9635 0.0031
vn 0.1978 0.9508 0.2383
vn 0.1682 0.9748 0.1467
vn 0.2677 0.9635 0.0031
vn 0.1636 0.9684 0.1885
vn 0.2629 0.9648 0.0045
vn 0.2677 0.9635 0.0031
vn 0.1682 0.9748 0.1467
vn 0.2702 0.9478 -0.1691
vn 0.2677 0.9635 0.0031
vn 0.2629 0.9648 0.0045
vn 0.3187 0.9396 -0.1251
vn 0.2677 0.9635 0.0031
vn 0.2702 0.9478 -0.1691
vn 0.3208 0.9217 -0.2179
vn 0.3187 0.9396 -0.1251
vn 0.2702 0.9478 -0.1691
vn 0.3296 0.9307 -0.1587
vn 0.3187 0.9396 -0.1251
vn 0.3208 0.9217 -0.2179
vn 0.2945 0.9446 -0.1446
vn 0.3296 0.9307 -0.1587
vn 0.3208 0.9217 -0.2179
vn 0.2011 0.9449 -0.2584
vn 0.3296 0.9307 -0.1587
vn 0.2945 0.9446 -0.1446
vn 0.2011 0.9449 -0.2584
vn 0.2945 0.9446 -0.1446
vn 0.2543 0.9564 -0.1438
vn 0.0118 0.9929 -0.1187
vn 0.3296 0.9307 -0.1587
vn 0.2011 0.9449 -0.2584
vn 0.0118 0.9929 -0.1187
vn 0.3187 0.9396 -0.1251
vn 0.3296 0.9307 -0.1587
vn 0.0118 0.9929 -0.1187
vn 0.2677 0.9635 0.0031
vn 0.3187 0.9396 -0.1251
vn 0.0118 0.9929 -0.1187
vn 0.1346 0.9729 0.1878
vn 0.2677 0.9635 0.0031
vn 0.0118 0.9929 -0.1187
vn -0.1154 0.9603 0.2540
vn 0.1346 0.9729 0.1878
vn 0.0118 0.9929 -0.1187
vn -0.3123 0.9383 0.1487
vn -0.1154 0.9603 0.2540
vn 0.0118 0.9929 -0.1187
vn -0.4251 0.9020 0.0759
vn -0.3123 0.9383 0.1487
vn 0.0118 0.9929 -0.1187
vn -0.3577 0.9140 0.1917
vn -0.4251 0.9020 0.0759
vn 0.0118 0.9929 -0.1187
vn -0.2352 0.9673 -0.0949
vn -0.3577 0.9140 0.1917
vn 0.0118 0.9929 -0.1187
vn -0.1176 0.9485 -0.2942
vn -0.2352 0.9673 -0.0949
vn 0.0118 0.9929 -0.1187
vn -0.0621 0.9334 -0.3535
vn -0.1176 0.9485 -0.2942
vn 0.0118 0.9929 -0.1187
vn -0.0014 0.9447 -0.3280
vn -0.0621 0.9334 -0.3535
vn 0.0118 0.9929 -0.1187
vn 0.1116 0.9385 -0.3267
vn -0.0014 0.9447 -0.3280
vn 0.2011 0.9449 -0.2584
vn 0.1116 0.9385 -0.3267
vn 0.0118 0.9929 -0.1187
vn -0.1705 -0.9619 0.2139
vn -0.2541 -0.9564 0.1439
vn -0.2010 -0.9450 0.2582
vn -0.1705 -0.9619 0.2139
vn -0.2010 -0.9450 0.2582
vn -0.0647 -0.9553 0.2884
vn -0.0647 -0.9553 0.2884
vn -0.2010 -0.9450 0.2582
vn -0.1114 -0.9387 0.3263
vn -0.0647 -0.9553 0.2884
vn -0.1114 -0.9387 0.3263
vn -0.0956 -0.9516 0.2922
vn -0.0956 -0.9516 0.2922
vn -0.1114 -0.9387 0.3263
vn -0.0669 -0.9587 0.2765
vn -0.0669 -0.9587 0.2765
vn -0.1114 -0.9387 0.3263
vn 0.0014 -0.9447 0.3278
vn -0.0669 -0.9587 0.2765
vn 0.0014 -0.9447 0.3278
vn 0.0876 -0.9577 0.2740
vn 0.0876 -0.9577 0.2740
vn 0.0014 -0.9447 0.3278
vn 0.0690 -0.9482 0.3102
vn 0.0690 -0.9482 0.3102
vn 0.0014 -0.9447 0.3278
vn 0.0620 -0.9335 0.3532
vn 0.0690 -0.9482 0.3102
vn 0.0620 -0.9335 0.3532
vn 0.0348 -0.9505 0.3088
vn 0.0348 -0.9505 0.3088
vn 0.0620 -0.9335 0.3532
vn 0.0537 -0.9435 0.3270
vn 0.0537 -0.9435 0.3270
vn 0.0620 -0.9335 0.3532
vn 0.1176 -0.9486 0.2939
vn 0.0537 -0.9435 0.3270
vn 0.1176 -0.9486 0.2939
vn 0.0995 -0.9566 0.2740
vn 0.0995 -0.9566 0.2740
vn 0.1176 -0.9486 0.2939
vn 0.2351 -0.9673 0.0948
vn 0.0995 -0.9566 0.2740
vn 0.2351 -0.9673 0.0948
vn 0.1651 -0.9661 0.1985
vn 0.1651 -0.9661 0.1985
vn 0.2351 -0.9673 0.0948
vn 0.2212 -0.9693 0.1079
vn 0.2212 -0.9693 0.1079
vn 0.2351 -0.9673 0.0948
vn 0.2366 -0.9709 -0.0384
vn 0.2366 -0.9709 -0.0384
vn 0.2351 -0.9673 0.0948
vn 0.2412 -0.9512 -0.1924
vn 0.2412 -0.9512 -0.1924
vn 0.2351 -0.9673 0.0948
vn 0.3569 -0.9144 -0.1910
vn 0.2412 -0.9512 -0.1924
vn 0.3569 -0.9144 -0.1910
vn 0.1704 -0.8129 -0.5570
vn 0.1704 -0.8129 -0.5570
vn 0.3569 -0.9144 -0.1910
vn 0.4635 -0.8548 -0.2334
vn 0.4635 -0.8548 -0.2334
vn 0.3569 -0.9144 -0.1910
vn 0.4243 -0.9023 -0.0758
vn 0.4635 -0.8548 -0.2334
vn 0.4243 -0.9023 -0.0758
vn 0.4872 -0.8730 -0.0196
vn 0.4872 -0.8730 -0.0196
vn 0.4243 -0.9023 -0.0758
vn 0.3120 -0.9384 -0.1485
vn 0.4872 -0.8730 -0.0196
vn 0.3120 -0.9384 -0.1485
vn 0.3742 -0.9047 -0.2036
vn 0.3742 -0.9047 -0.2036
vn 0.3120 -0.9384 -0.1485
vn 0.2733 -0.9122 -0.3053
vn 0.2733 -0.9122 -0.3053
vn 0.3120 -0.9384 -0.1485
vn 0.1153 -0.9604 -0.2538
vn 0.2733 -0.9122 -0.3053
vn 0.1153 -0.9604 -0.2538
vn 0.1167 -0.9264 -0.3580
vn 0.1167 -0.9264 -0.3580
vn 0.1153 -0.9604 -0.2538
vn -0.0024 -0.9341 -0.3570
vn -0.0024 -0.9341 -0.3570
vn 0.1153 -0.9604 -0.2538
vn -0.1018 -0.9404 -0.3246
vn -0.1018 -0.9404 -0.3246
vn 0.1153 -0.9604 -0.2538
vn -0.1344 -0.9730 -0.1877
vn -0.1018 -0.9404 -0.3246
vn -0.1344 -0.9730 -0.1877
vn -0.2763 -0.9236 -0.2656
vn -0.2763 -0.9236 -0.2656
vn -0.1344 -0.9730 -0.1877
vn -0.1975 -0.9508 -0.2386
vn -0.1975 -0.9508 -0.2386
vn -0.1344 -0.9730 -0.1877
vn -0.2673 -0.9636 -0.0031
vn -0.1975 -0.9508 -0.2386
vn -0.2673 -0.9636 -0.0031
vn -0.1637 -0.9685 -0.1878
vn -0.1637 -0.9685 -0.1878
vn -0.2673 -0.9636 -0.0031
vn -0.1679 -0.9748 -0.1467
vn -0.1679 -0.9748 -0.1467
vn -0.2673 -0.9636 -0.0031
vn -0.2629 -0.9648 -0.0046
vn -0.2629 -0.9648 -0.0046
vn -0.2673 -0.9636 -0.0031
vn -0.2701 -0.9478 0.1695
vn -0.2701 -0.9478 0.1695
vn -0.2673 -0.9636 -0.0031
vn -0.3180 -0.9398 0.1251
vn -0.2701 -0.9478 0.1695
vn -0.3180 -0.9398 0.1251
vn -0.3208 -0.9219 0.2171
vn -0.3208 -0.9219 0.2171
vn -0.3180 -0.9398 0.1251
vn -0.3292 -0.9308 0.1587
vn -0.3208 -0.9219 0.2171
vn -0.3292 -0.9308 0.1587
vn -0.2946 -0.9446 0.1445
vn -0.2946 -0.9446 0.1445
vn -0.3292 -0.9308 0.1587
vn -0.2010 -0.9450 0.2582
vn -0.2541 -0.9564 0.1439
vn -0.2946 -0.9446 0.1445
vn -0.2010 -0.9450 0.2582
vn -0.2010 -0.9450 0.2582
vn -0.3292 -0.9308 0.1587
vn -0.0117 -0.9929 0.1187
vn -0.3292 -0.9308 0.1587
vn -0.3180 -0.9398 0.1251
vn -0.0117 -0.9929 0.1187
vn -0.3180 -0.9398 0.1251
vn -0.2673 -0.9636 -0.0031
vn -0.0117 -0.9929 0.1187
vn -0.2673 -0.9636 -0.0031
vn -0.1344 -0.9730 -0.1877
vn -0.0117 -0.9929 0.1187
vn -0.1344 -0.9730 -0.1877
vn 0.1153 -0.9604 -0.2538
vn -0.0117 -0.9929 0.1187
vn 0.1153 -0.9604 -0.2538
vn 0.3120 -0.9384 -0.1485
vn -0.0117 -0.9929 0.1187
vn 0.3120 -0.9384 -0.1485
vn 0.4243 -0.9023 -0.0758
vn -0.0117 -0.9929 0.1187
vn 0.4243 -0.9023 -0.0758
vn 0.3569 -0.9144 -0.1910
vn -0.0117 -0.9929 0.1187
vn 0.3569 -0.9144 -0.1910
vn 0.2351 -0.9673 0.0948
vn -0.0117 -0.9929 0.1187
vn 0.2351 -0.9673 0.0948
vn 0.1176 -0.9486 0.2939
vn -0.0117 -0.9929 0.1187
vn 0.1176 -0.9486 0.2939
vn 0.0620 -0.9335 0.3532
vn -0.0117 -0.9929 0.1187
vn 0.0620 -0.9335 0.3532
vn 0.0014 -0.9447 0.3278
vn -0.0117 -0.9929 0.1187
vn 0.0014 -0.9447 0.3278
vn -0.1114 -0.9387 0.3263
vn -0.0117 -0.9929 0.1187
vn -0.0117 -0.9929 0.1187
vn -0.1114 -0.9387 0.3263
vn -0.2010 -0.9450 0.2582
vn -0.9401 0.2789 0.1961
vn -0.7401 0.2685 0.6166
vn -0.7419 0.2689 0.6142
vn -0.7419 0.2689 0.6142
vn -0.9398 0.2799 0.1961
vn -0.9401 0.2789 0.1961
vn -0.7401 0.2685 0.6166
vn -0.3550 0.2926 0.8879
vn -0.3542 0.2923 0.8883
vn -0.3542 0.2923 0.8883
vn -0.7419 0.2689 0.6142
vn -0.7401 0.2685 0.6166
vn -0.3550 0.2926 0.8879
vn -0.3779 0.3058 0.8739
vn -0.3795 0.3059 0.8732
vn -0.3795 0.3059 0.8732
vn -0.3542 0.2923 0.8883
vn -0.3550 0.2926 0.8879
vn -0.3779 0.3058 0.8739
vn -0.2926 0.2838 0.9131
vn -0.2958 0.2841 0.9120
vn -0.2958 0.2841 0.9120
vn -0.3795 0.3059 0.8732
vn -0.3779 0.3058 0.8739
vn -0.2926 0.2838 0.9131
vn 0.3280 0.2877 0.8998
vn 0.3331 0.2874 0.8980
vn 0.3331 0.2874 0.8980
vn -0.2958 0.2841 0.9120
vn -0.2926 0.2838 0.9131
vn 0.3280 0.2877 0.8998
vn 0.2320 0.3180 0.9193
vn 0.2278 0.3176 0.9204
vn 0.2278 0.3176 0.9204
vn 0.3331 0.2874 0.8980
vn 0.3280 0.2877 0.8998
vn 0.2320 0.3180 0.9193
vn 0.0767 0.3109 0.9473
vn 0.0722 0.3105 0.9478
vn 0.0722 0.3105 0.9478
vn 0.2278 0.3176 0.9204
vn 0.2320 0.3180 0.9193
vn 0.0767 0.3109 0.9473
vn 0.2320 0.3296 0.9152
vn 0.2297 0.3300 0.9156
vn 0.2297 0.3300 0.9156
vn 0.0722 0.3105 0.9478
vn 0.0767 0.3109 0.9473
vn 0.2320 0.3296 0.9152
vn 0.3823 0.2908 0.8771
vn 0.3772 0.2918 0.8790
vn 0.3772 0.2918 0.8790
vn 0.2297 0.3300 0.9156
vn 0.2320 0.3296 0.9152
vn 0.3823 0.2908 0.8771
vn 0.7979 0.2494 0.5488
vn 0.7985 0.2492 0.5480
vn 0.7985 0.2492 0.5480
vn 0.3772 0.2918 0.8790
vn 0.3823 0.2908 0.8771
vn 0.7979 0.2494 0.5488
vn 0.9731 0.2270 0.0399
vn 0.9735 0.2260 0.0363
vn 0.9735 0.2260 0.0363
vn 0.7985 0.2492 0.5480
vn 0.7979 0.2494 0.5488
vn 0.9731 0.2270 0.0399
vn 0.8696 0.2305 -0.4366
vn 0.8690 0.2290 -0.4387
vn 0.8690 0.2290 -0.4387
vn 0.9735 0.2260 0.0363
vn 0.9731 0.2270 0.0399
vn 0.8696 0.2305 -0.4366
vn 0.5439 0.3003 -0.7836
vn 0.5271 0.2933 -0.7976
vn 0.5271 0.2933 -0.7976
vn 0.8690 0.2290 -0.4387
vn 0.8696 0.2305 -0.4366
vn 0.5439 0.3003 -0.7836
vn 0.1282 0.5759 -0.8074
vn 0.1258 0.5776 -0.8066
vn 0.1258 0.5776 -0.8066
vn 0.5271 0.2933 -0.7976
vn 0.5439 0.3003 -0.7836
vn 0.1282 0.5759 -0.8074
vn 0.7256 0.5214 -0.4491
vn 0.7206 0.5312 -0.4456
vn 0.7206 0.5312 -0.4456
vn 0.1258 0.5776 -0.8066
vn 0.1282 0.5759 -0.8074
vn 0.7256 0.5214 -0.4491
vn 0.8628 0.4761 0.1699
vn 0.8603 0.4744 0.1867
vn 0.8603 0.4744 0.1867
vn 0.7206 0.5312 -0.4456
vn 0.7256 0.5214 -0.4491
vn 0.8628 0.4761 0.1699
vn 0.8512 0.4219 -0.3122
vn 0.8522 0.4228 -0.3083
vn 0.8522 0.4228 -0.3083
vn 0.8603 0.4744 0.1867
vn 0.8628 0.4761 0.1699
vn 0.8512 0.4219 -0.3122
vn 0.6382 0.4093 -0.6521
vn 0.6386 0.4099 -0.6513
vn 0.6386 0.4099 -0.6513
vn 0.8522 0.4228 -0.3083
vn 0.8512 0.4219 -0.3122
vn 0.6382 0.4093 -0.6521
vn 0.2435 0.3762 -0.8940
vn 0.2460 0.3765 -0.8931
vn 0.2460 0.3765 -0.8931
vn 0.6386 0.4099 -0.6513
vn 0.6382 0.4093 -0.6521
vn 0.2435 0.3762 -0.8940
vn -0.2486 0.3466 -0.9045
vn -0.2482 0.3464 -0.9046
vn -0.2482 0.3464 -0.9046
vn 0.2460 0.3765 -0.8931
vn 0.2435 0.3762 -0.8940
vn -0.2486 0.3466 -0.9045
vn -0.7900 0.2802 -0.5454
vn -0.8011 0.2706 -0.5339
vn -0.8011 0.2706 -0.5339
vn -0.2482 0.3464 -0.9046
vn -0.2486 0.3466 -0.9045
vn -0.7900 0.2802 -0.5454
vn -0.8572 0.3636 -0.3646
vn -0.8668 0.3567 -0.3485
vn -0.8668 0.3567 -0.3485
vn -0.8011 0.2706 -0.5339
vn -0.7900 0.2802 -0.5454
vn -0.8572 0.3636 -0.3646
vn -0.8538 0.2858 -0.4352
vn -0.8535 0.2874 -0.4347
vn -0.8535 0.2874 -0.4347
vn -0.8668 0.3567 -0.3485
vn -0.8572 0.3636 -0.3646
vn -0.8538 0.2858 -0.4352
vn -0.6945 0.2478 -0.6755
vn -0.7012 0.2495 -0.6679
vn -0.7012 0.2495 -0.6679
vn -0.8535 0.2874 -0.4347
vn -0.8538 0.2858 -0.4352
vn -0.6945 0.2478 -0.6755
vn -0.7332 0.2244 -0.6420
vn -0.7330 0.2242 -0.6422
vn -0.7330 0.2242 -0.6422
vn -0.7012 0.2495 -0.6679
vn -0.6945 0.2478 -0.6755
vn -0.7332 0.2244 -0.6420
vn -0.9508 0.2595 -0.1691
vn -0.9510 0.2589 -0.1692
vn -0.9510 0.2589 -0.1692
vn -0.7330 0.2242 -0.6422
vn -0.7332 0.2244 -0.6420
vn -0.9508 0.2595 -0.1691
vn -0.9328 0.3025 0.1958
vn -0.9309 0.3024 0.2050
vn -0.9309 0.3024 0.2050
vn -0.9510 0.2589 -0.1692
vn -0.9508 0.2595 -0.1691
vn -0.9328 0.3025 0.1958
vn -0.9324 0.3477 0.0986
vn -0.9338 0.3455 0.0931
vn -0.9338 0.3455 0.0931
vn -0.9309 0.3024 0.2050
vn -0.9328 0.3025 0.1958
vn -0.9324 0.3477 0.0986
vn -0.9488 0.2705 -0.1628
vn -0.9480 0.2697 -0.1693
vn -0.9480 0.2697 -0.1693
vn -0.9338 0.3455 0.0931
vn -0.9324 0.3477 0.0986
vn -0.9488 0.2705 -0.1628
vn -0.9401 0.2789 0.1961
vn -0.9398 0.2799 0.1961
vn -0.9398 0.2799 0.1961
vn -0.9480 0.2697 -0.1693
vn -0.9488 0.2705 -0.1628
# 528 vertex normals

vt 0.8779 0.0195 0.0000
vt 0.8730 0.0317 0.0000
vt 0.8984 0.0439 0.0000
vt 0.8779 0.0195 0.0000
vt 0.8984 0.0439 0.0000
vt 0.8921 0.0107 0.0000
vt 0.8921 0.0107 0.0000
vt 0.8984 0.0439 0.0000
vt 0.9097 0.0386 0.0000
vt 0.8921 0.0107 0.0000
vt 0.9097 0.0386 0.0000
vt 0.9009 0.0093 0.0000
vt 0.9009 0.0093 0.0000
vt 0.9097 0.0386 0.0000
vt 0.9136 0.0000 0.0000
vt 0.9136 0.0000 0.0000
vt 0.9097 0.0386 0.0000
vt 0.9214 0.0342 0.0000
vt 0.9136 0.0000 0.0000
vt 0.9214 0.0342 0.0000
vt 0.9243 0.0000 0.0000
vt 0.9243 0.0000 0.0000
vt 0.9214 0.0342 0.0000
vt 0.9341 0.0088 0.0000
vt 0.9341 0.0088 0.0000
vt 0.9214 0.0342 0.0000
vt 0.9312 0.0376 0.0000
vt 0.9341 0.0088 0.0000
vt 0.9312 0.0376 0.0000
vt 0.9434 0.0068 0.0000
vt 0.9434 0.0068 0.0000
vt 0.9312 0.0376 0.0000
vt 0.9595 0.0127 0.0000
vt 0.9595 0.0127 0.0000
vt 0.9312 0.0376 0.0000
vt 0.9453 0.0415 0.0000
vt 0.9595 0.0127 0.0000
vt 0.9453 0.0415 0.0000
vt 0.9727 0.0146 0.0000
vt 0.9727 0.0146 0.0000
vt 0.9453 0.0415 0.0000
vt 0.9551 0.0542 0.0000
vt 0.9727 0.0146 0.0000
vt 0.9551 0.0542 0.0000
vt 0.9873 0.0264 0.0000
vt 0.9873 0.0264 0.0000
vt 0.9551 0.0542 0.0000
vt 0.9922 0.0400 0.0000
vt 0.9922 0.0400 0.0000
vt 0.9551 0.0542 0.0000
vt 0.9868 0.0620 0.0000
vt 0.9868 0.0620 0.0000
vt 0.9551 0.0542 0.0000
vt 0.9746 0.0771 0.0000
vt 0.9746 0.0771 0.0000
vt 0.9551 0.0542 0.0000
vt 0.9468 0.0728 0.0000
vt 0.9746 0.0771 0.0000
vt 0.9468 0.0728 0.0000
vt 0.9595 0.0820 0.0000
vt 0.9595 0.0820 0.0000
vt 0.9468 0.0728 0.0000
vt 0.9507 0.0825 0.0000
vt 0.9507 0.0825 0.0000
vt 0.9468 0.0728 0.0000
vt 0.9385 0.0830 0.0000
vt 0.9507 0.0825 0.0000
vt 0.9385 0.0830 0.0000
vt 0.9580 0.0977 0.0000
vt 0.9580 0.0977 0.0000
vt 0.9385 0.0830 0.0000
vt 0.9326 0.0991 0.0000
vt 0.9580 0.0977 0.0000
vt 0.9326 0.0991 0.0000
vt 0.9556 0.1177 0.0000
vt 0.9556 0.1177 0.0000
vt 0.9326 0.0991 0.0000
vt 0.9468 0.1299 0.0000
vt 0.9468 0.1299 0.0000
vt 0.9326 0.0991 0.0000
vt 0.9219 0.1060 0.0000
vt 0.9468 0.1299 0.0000
vt 0.9219 0.1060 0.0000
vt 0.9258 0.1440 0.0000
vt 0.9258 0.1440 0.0000
vt 0.9219 0.1060 0.0000
vt 0.9082 0.1436 0.0000
vt 0.9082 0.1436 0.0000
vt 0.9219 0.1060 0.0000
vt 0.8950 0.1372 0.0000
vt 0.8950 0.1372 0.0000
vt 0.9219 0.1060 0.0000
vt 0.9067 0.1025 0.0000
vt 0.8950 0.1372 0.0000
vt 0.9067 0.1025 0.0000
vt 0.8940 0.1318 0.0000
vt 0.8940 0.1318 0.0000
vt 0.9067 0.1025 0.0000
vt 0.8833 0.1201 0.0000
vt 0.8833 0.1201 0.0000
vt 0.9067 0.1025 0.0000
vt 0.8960 0.0874 0.0000
vt 0.8833 0.1201 0.0000
vt 0.8960 0.0874 0.0000
vt 0.8799 0.1089 0.0000
vt 0.8799 0.1089 0.0000
vt 0.8960 0.0874 0.0000
vt 0.8730 0.1069 0.0000
vt 0.8730 0.1069 0.0000
vt 0.8960 0.0874 0.0000
vt 0.8711 0.0933 0.0000
vt 0.8711 0.0933 0.0000
vt 0.8960 0.0874 0.0000
vt 0.8687 0.0786 0.0000
vt 0.8687 0.0786 0.0000
vt 0.8960 0.0874 0.0000
vt 0.8936 0.0732 0.0000
vt 0.8687 0.0786 0.0000
vt 0.8936 0.0732 0.0000
vt 0.8755 0.0693 0.0000
vt 0.8755 0.0693 0.0000
vt 0.8936 0.0732 0.0000
vt 0.8926 0.0640 0.0000
vt 0.8755 0.0693 0.0000
vt 0.8926 0.0640 0.0000
vt 0.8711 0.0562 0.0000
vt 0.8711 0.0562 0.0000
vt 0.8926 0.0640 0.0000
vt 0.8984 0.0439 0.0000
vt 0.8730 0.0317 0.0000
vt 0.8711 0.0562 0.0000
vt 0.8984 0.0439 0.0000
vt 0.8984 0.0439 0.0000
vt 0.8926 0.0640 0.0000
vt 0.9185 0.0684 0.0000
vt 0.8926 0.0640 0.0000
vt 0.8936 0.0732 0.0000
vt 0.9185 0.0684 0.0000
vt 0.8936 0.0732 0.0000
vt 0.8960 0.0874 0.0000
vt 0.9185 0.0684 0.0000
vt 0.8960 0.0874 0.0000
vt 0.9067 0.1025 0.0000
vt 0.9185 0.0684 0.0000
vt 0.9067 0.1025 0.0000
vt 0.9219 0.1060 0.0000
vt 0.9185 0.0684 0.0000
vt 0.9219 0.1060 0.0000
vt 0.9326 0.0991 0.0000
vt 0.9185 0.0684 0.0000
vt 0.9326 0.0991 0.0000
vt 0.9385 0.0830 0.0000
vt 0.9185 0.0684 0.0000
vt 0.9385 0.0830 0.0000
vt 0.9468 0.0728 0.0000
vt 0.9185 0.0684 0.0000
vt 0.9468 0.0728 0.0000
vt 0.9551 0.0542 0.0000
vt 0.9185 0.0684 0.0000
vt 0.9551 0.0542 0.0000
vt 0.9453 0.0415 0.0000
vt 0.9185 0.0684 0.0000
vt 0.9453 0.0415 0.0000
vt 0.9312 0.0376 0.0000
vt 0.9185 0.0684 0.0000
vt 0.9312 0.0376 0.0000
vt 0.9214 0.0342 0.0000
vt 0.9185 0.0684 0.0000
vt 0.9214 0.0342 0.0000
vt 0.9097 0.0386 0.0000
vt 0.9185 0.0684 0.0000
vt 0.9185 0.0684 0.0000
vt 0.9097 0.0386 0.0000
vt 0.8984 0.0439 0.0000
vt 0.0000 0.0000 0.0000
vt 0.0000 0.0500 0.0000
vt 0.0305 0.0000 0.0000
vt 0.0305 0.0500 0.0000
vt 0.0668 0.0000 0.0000
vt 0.0668 0.0500 0.0000
vt 0.0869 0.0000 0.0000
vt 0.0869 0.0500 0.0000
vt 0.1214 0.0000 0.0000
vt 0.1214 0.0500 0.0000
vt 0.1452 0.0000 0.0000
vt 0.1452 0.0500 0.0000
vt 0.1744 0.0000 0.0000
vt 0.1744 0.0500 0.0000
vt 0.1958 0.0000 0.0000
vt 0.1958 0.0500 0.0000
vt 0.2342 0.0000 0.0000
vt 0.2342 0.0500 0.0000
vt 0.2633 0.0000 0.0000
vt 0.2633 0.0500 0.0000
vt 0.3052 0.0000 0.0000
vt 0.3052 0.0500 0.0000
vt 0.3376 0.0000 0.0000
vt 0.3376 0.0500 0.0000
vt 0.3888 0.0000 0.0000
vt 0.3888 0.0500 0.0000
vt 0.4318 0.0000 0.0000
vt 0.4318 0.0500 0.0000
vt 0.4673 0.0000 0.0000
vt 0.4673 0.0500 0.0000
vt 0.4876 0.0000 0.0000
vt 0.4876 0.0500 0.0000
vt 0.5254 0.0000 0.0000
vt 0.5254 0.0500 0.0000
vt 0.5699 0.0000 0.0000
vt 0.5699 0.0500 0.0000
vt 0.6040 0.0000 0.0000
vt 0.6040 0.0500 0.0000
vt 0.6607 0.0000 0.0000
vt 0.6607 0.0500 0.0000
vt 0.7000 0.0000 0.0000
vt 0.7000 0.0500 0.0000
vt 0.7325 0.0000 0.0000
vt 0.7325 0.0500 0.0000
vt 0.7455 0.0000 0.0000
vt 0.7455 0.0500 0.0000
vt 0.7817 0.0000 0.0000
vt 0.7817 0.0500 0.0000
vt 0.8075 0.0000 0.0000
vt 0.8075 0.0500 0.0000
vt 0.8237 0.0000 0.0000
vt 0.8237 0.0500 0.0000
vt 0.8542 0.0000 0.0000
vt 0.8542 0.0500 0.0000
vt 0.8877 0.0000 0.0000
vt 0.8877 0.0500 0.0000
vt 0.9141 0.0000 0.0000
vt 0.9141 0.0500 0.0000
vt 0.9452 0.0000 0.0000
vt 0.9452 0.0500 0.0000
vt 1.0000 0.0000 0.0000
vt 1.0000 0.0500 0.0000
# 236 texture coords

o SM_Coral_Table_Acropora_07_LOD0
g SM_Coral_Table_Acropora_07_LOD0
usemtl MAT_Coral_Table
s 1
f 13/3/1 1/2/2 2/1/3 
f 14/6/4 13/5/5 2/4/6 
f 15/9/7 13/8/8 14/7/9 
f 16/12/10 15/11/11 14/10/12 
f 6/15/13 15/14/14 16/13/15 
f 17/18/16 15/17/17 6/16/18 
f 12/21/19 17/20/20 6/19/21 
f 5/24/22 17/23/23 12/22/24 
f 19/27/25 17/26/26 5/25/27 
f 18/30/28 19/29/29 5/28/30 
f 20/33/31 19/32/32 18/31/33 
f 45/36/34 19/35/35 20/34/36 
f 21/39/37 45/38/38 20/37/39 
f 44/42/40 45/41/41 21/40/42 
f 7/45/43 44/44/44 21/43/45 
f 22/48/46 44/47/47 7/46/48 
f 23/51/49 44/50/50 22/49/51 
f 24/54/52 44/53/53 23/52/54 
f 25/57/55 44/56/56 24/55/57 
f 4/60/58 25/59/59 24/58/60 
f 26/63/61 25/62/62 4/61/63 
f 43/66/64 25/65/65 26/64/66 
f 27/69/67 43/68/68 26/67/69 
f 29/72/70 43/71/71 27/70/72 
f 28/75/73 29/74/74 27/73/75 
f 30/78/76 29/77/77 28/76/78 
f 32/81/79 29/80/80 30/79/81 
f 31/84/82 32/83/83 30/82/84 
f 3/87/85 32/86/86 31/85/87 
f 33/90/88 32/89/89 3/88/90 
f 42/93/91 32/92/92 33/91/93 
f 34/96/94 42/95/95 33/94/96 
f 8/99/97 42/98/98 34/97/99 
f 35/102/100 42/101/101 8/100/102 
f 36/105/103 35/104/104 8/103/105 
f 9/108/106 35/107/107 36/106/108 
f 10/111/109 35/110/110 9/109/111 
f 11/114/112 35/113/113 10/112/114 
f 40/117/115 35/116/116 11/115/117 
f 37/120/118 40/119/119 11/118/120 
f 39/123/121 40/122/122 37/121/123 
f 38/126/124 39/125/125 37/124/126 
f 13/129/127 39/128/128 38/127/129 
f 13/132/130 38/131/131 1/130/132 
f 41/135/133 39/134/134 13/133/135 
f 41/138/136 40/137/137 39/136/138 
f 41/141/139 35/140/140 40/139/141 
f 41/144/142 42/143/143 35/142/144 
f 41/147/145 32/146/146 42/145/147 
f 41/150/148 29/149/149 32/148/150 
f 41/153/151 43/152/152 29/151/153 
f 41/156/154 25/155/155 43/154/156 
f 41/159/157 44/158/158 25/157/159 
f 41/162/160 45/161/161 44/160/162 
f 41/165/163 19/164/164 45/163/165 
f 41/168/166 17/167/167 19/166/168 
f 41/171/169 15/170/170 17/169/171 
f 13/174/172 15/173/173 41/172/174 
f 47/1/175 46/2/176 58/3/177 
f 47/4/178 58/5/179 59/6/180 
f 59/7/181 58/8/182 60/9/183 
f 59/10/184 60/11/185 61/12/186 
f 61/13/187 60/14/188 51/15/189 
f 51/16/190 60/17/191 62/18/192 
f 51/19/193 62/20/194 57/21/195 
f 57/22/196 62/23/197 50/24/198 
f 50/25/199 62/26/200 64/27/201 
f 50/28/202 64/29/203 63/30/204 
f 63/31/205 64/32/206 65/33/207 
f 65/34/208 64/35/209 90/36/210 
f 65/37/211 90/38/212 66/39/213 
f 66/40/214 90/41/215 89/42/216 
f 66/43/217 89/44/218 52/45/219 
f 52/46/220 89/47/221 67/48/222 
f 67/49/223 89/50/224 68/51/225 
f 68/52/226 89/53/227 69/54/228 
f 69/55/229 89/56/230 70/57/231 
f 69/58/232 70/59/233 49/60/234 
f 49/61/235 70/62/236 71/63/237 
f 71/64/238 70/65/239 88/66/240 
f 71/67/241 88/68/242 72/69/243 
f 72/70/244 88/71/245 74/72/246 
f 72/73/247 74/74/248 73/75/249 
f 73/76/250 74/77/251 75/78/252 
f 75/79/253 74/80/254 77/81/255 
f 75/82/256 77/83/257 76/84/258 
f 76/85/259 77/86/260 48/87/261 
f 48/88/262 77/89/263 78/90/264 
f 78/91/265 77/92/266 87/93/267 
f 78/94/268 87/95/269 79/96/270 
f 79/97/271 87/98/272 53/99/273 
f 53/100/274 87/101/275 80/102/276 
f 53/103/277 80/104/278 81/105/279 
f 81/106/280 80/107/281 54/108/282 
f 54/109/283 80/110/284 55/111/285 
f 55/112/286 80/113/287 56/114/288 
f 56/115/289 80/116/290 85/117/291 
f 56/118/292 85/119/293 82/120/294 
f 82/121/295 85/122/296 84/123/297 
f 82/124/298 84/125/299 83/126/300 
f 83/127/301 84/128/302 58/129/303 
f 46/130/304 83/131/305 58/132/306 
f 58/133/307 84/134/308 86/135/309 
f 84/136/310 85/137/311 86/138/312 
f 85/139/313 80/140/314 86/141/315 
f 80/142/316 87/143/317 86/144/318 
f 87/145/319 77/146/320 86/147/321 
f 77/148/322 74/149/323 86/150/324 
f 74/151/325 88/152/326 86/153/327 
f 88/154/328 70/155/329 86/156/330 
f 70/157/331 89/158/332 86/159/333 
f 89/160/334 90/161/335 86/162/336 
f 90/163/337 64/164/338 86/165/339 
f 64/166/340 62/167/341 86/168/342 
f 62/169/343 60/170/344 86/171/345 
f 86/172/346 60/173/347 58/174/348 
s 2
f 46/236/349 47/234/350 2/233/351 
f 2/233/352 1/235/353 46/236/354 
f 47/234/355 59/232/356 14/231/357 
f 14/231/358 2/233/359 47/234/360 
f 59/232/361 61/230/362 16/229/363 
f 16/229/364 14/231/365 59/232/366 
f 61/230/367 51/228/368 6/227/369 
f 6/227/370 16/229/371 61/230/372 
f 51/228/373 57/226/374 12/225/375 
f 12/225/376 6/227/377 51/228/378 
f 57/226/379 50/224/380 5/223/381 
f 5/223/382 12/225/383 57/226/384 
f 50/224/385 63/222/386 18/221/387 
f 18/221/388 5/223/389 50/224/390 
f 63/222/391 65/220/392 20/219/393 
f 20/219/394 18/221/395 63/222/396 
f 65/220/397 66/218/398 21/217/399 
f 21/217/400 20/219/401 65/220/402 
f 66/218/403 52/216/404 7/215/405 
f 7/215/406 21/217/407 66/218/408 
f 52/216/409 67/214/410 22/213/411 
f 22/213/412 7/215/413 52/216/414 
f 67/214/415 68/212/416 23/211/417 
f 23/211/418 22/213/419 67/214/420 
f 68/212/421 69/210/422 24/209/423 
f 24/209/424 23/211/425 68/212/426 
f 69/210/427 49/208/428 4/207/429 
f 4/207/430 24/209/431 69/210/432 
f 49/208/433 71/206/434 26/205/435 
f 26/205/436 4/207/437 49/208/438 
f 71/206/439 72/204/440 27/203/441 
f 27/203/442 26/205/443 71/206/444 
f 72/204/445 73/202/446 28/201/447 
f 28/201/448 27/203/449 72/204/450 
f 73/202/451 75/200/452 30/199/453 
f 30/199/454 28/201/455 73/202/456 
f 75/200/457 76/198/458 31/197/459 
f 31/197/460 30/199/461 75/200/462 
f 76/198/463 48/196/464 3/195/465 
f 3/195/466 31/197/467 76/198/468 
f 48/196/469 78/194/470 33/193/471 
f 33/193/472 3/195/473 48/196/474 
f 78/194/475 79/192/476 34/191/477 
f 34/191/478 33/193/479 78/194/480 
f 79/192/481 53/190/482 8/189/483 
f 8/189/484 34/191/485 79/192/486 
f 53/190/487 81/188/488 36/187/489 
f 36/187/490 8/189/491 53/190/492 
f 81/188/493 54/186/494 9/185/495 
f 9/185/496 36/187/497 81/188/498 
f 54/186/499 55/184/500 10/183/501 
f 10/183/502 9/185/503 54/186/504 
f 55/184/505 56/182/506 11/181/507 
f 11/181/508 10/183/509 55/184/510 
f 56/182/511 82/180/512 37/179/513 
f 37/179/514 11/181/515 56/182/516 
f 82/180/517 83/178/518 38/177/519 
f 38/177/520 37/179/521 82/180/522 
f 83/178/523 46/176/524 1/175/525 
f 1/175/526 38/177/527 83/178/528 
# 176 faces

#
# object SM_Coral_Table_Acropora_07_LOD1
#

v  -2.1138 8.5261 25.0792
v  -19.9487 4.5757 -12.0762
v  7.1077 6.3770 -3.6472
v  21.5948 7.5252 11.3043
v  -12.3081 6.1333 -22.7852
v  -4.0764 -0.0000 1.4348
v  -18.1528 7.9758 18.4282
v  -4.0740 0.1986 1.4111
v  8.8835 7.1042 -15.8157
v  -19.0193 5.7798 1.0159
v  15.5917 6.6023 -1.7685
v  14.7710 8.2272 20.1927
v  -1.5956 7.2418 -25.0629
v  -2.8118 1.7775 -11.8768
v  -10.2531 8.2160 22.0153
v  1.3768 8.3365 22.1882
v  -2.8348 1.9696 -11.8259
v  9.7271 6.6833 -8.9287
v  -21.5948 5.0116 -2.1594
v  5.8063 3.2769 -0.1979
v  -17.4827 4.7707 -12.7799
v  19.8415 8.1350 16.0322
v  5.7347 3.4597 -0.1595
v  19.7990 6.8497 3.5045
v  -3.0936 4.8602 13.3107
v  4.6360 8.5261 22.8380
v  -7.7320 6.7860 -24.9506
v  -19.9678 7.8072 14.0238
v  -5.8532 8.3344 25.1345
v  -20.5467 6.6606 5.5477
v  -8.2079 1.5146 -10.6921
v  -8.1810 1.7092 -10.6546
v  5.8014 7.2517 -20.1707
v  -16.3965 5.0357 -16.6419
v  -3.0939 5.0491 13.2451
v  10.2260 8.4984 20.6686
v  8.7383 4.2462 6.3469
v  2.9116 2.6454 -3.7740
v  2.8265 2.8258 -3.7589
v  -12.0481 2.1986 -5.3185
v  -13.3233 8.2712 21.4005
v  -11.1537 4.6466 9.9713
v  -12.6091 5.9411 -20.7538
v  -11.1134 4.8356 9.9196
v  0.9261 2.1510 -9.4095
v  0.8636 2.3386 -9.3798
v  8.7853 4.0528 6.3658
v  -11.9945 2.3913 -5.3179
v  10.2690 6.6789 -3.4386
v  -12.8711 3.0493 -0.3661
v  5.3621 4.4770 10.8333
v  5.3385 4.6667 10.7745
v  -12.8074 3.2372 -0.3911
v  0.2934 4.6992 12.1952
v  0.2809 4.8858 12.1245
v  -20.6056 6.4717 5.5766
v  -20.6901 4.7707 -7.3490
v  -7.1763 4.7540 11.7493
v  -7.1540 4.9417 11.6840
v  -13.3362 8.0801 21.4582
v  10.2367 8.3097 20.7339
v  5.8561 7.0692 -20.2318
v  14.7511 8.4185 20.1379
v  -5.8398 8.5261 25.0792
v  -16.4360 4.8455 -16.6896
v  1.3630 8.5261 22.1261
v  -21.5407 5.2012 -2.1932
v  -19.0835 5.5955 1.0594
v  -12.2878 6.3214 -22.7202
v  9.8245 6.5086 -8.9328
v  15.5435 6.7925 -1.7302
v  -13.0974 3.6767 2.8054
# 72 vertices

vn 0.0118 0.9929 -0.1187
vn -0.1176 0.9485 -0.2942
vn -0.2301 0.9685 -0.0952
vn -0.2045 -0.9417 0.2672
vn -0.3056 -0.9392 0.1564
vn -0.0102 -0.9930 0.1180
vn 0.2362 -0.9670 0.0959
vn 0.1176 -0.9486 0.2939
vn -0.0102 -0.9930 0.1180
vn 0.0118 0.9929 -0.1187
vn -0.2301 0.9685 -0.0952
vn -0.3577 0.9140 0.1917
vn -0.4517 0.1843 -0.8729
vn -0.1159 0.9606 0.2524
vn -0.2734 0.9122 0.3053
vn -0.8186 0.4256 0.3857
vn -0.1352 -0.9726 -0.1890
vn -0.2039 -0.9475 -0.2465
vn 0.2798 -0.9100 -0.3058
vn 0.1157 -0.9597 -0.2561
vn -0.4517 0.1843 -0.8729
vn 0.2382 -0.9492 -0.2055
vn 0.3621 -0.9095 -0.2044
vn -0.2655 0.5769 -0.7725
vn 0.1176 -0.9486 0.2939
vn 0.0627 -0.9328 0.3548
vn -0.0102 -0.9930 0.1180
vn 0.2011 0.9449 -0.2584
vn 0.1111 0.9392 -0.3250
vn 0.0118 0.9929 -0.1187
vn 0.0118 0.9929 -0.1187
vn 0.3296 0.9307 -0.1587
vn 0.2011 0.9449 -0.2584
vn 0.1978 0.9508 0.2383
vn 0.1346 0.9729 0.1878
vn -0.8186 0.4256 0.3857
vn 0.4939 -0.8692 -0.0249
vn 0.3144 -0.9373 -0.1501
vn 0.9696 0.2395 0.0494
vn 0.9696 0.2395 0.0494
vn -0.3123 0.9383 0.1487
vn -0.4870 0.8732 0.0203
vn 0.2702 0.9478 -0.1691
vn 0.2661 0.9639 0.0019
vn -0.6060 0.1717 -0.7767
vn -0.6060 0.1717 -0.7767
vn -0.2715 -0.9624 -0.0051
vn -0.2767 -0.9490 0.1510
vn 0.2382 -0.9492 -0.2055
vn 0.2362 -0.9670 0.0959
vn 0.3621 -0.9095 -0.2044
vn -0.3577 0.9140 0.1917
vn -0.2301 0.9685 -0.0952
vn -0.2290 0.9522 0.2023
vn 0.5051 0.1161 0.8552
vn 0.0627 -0.9328 0.3548
vn 0.0455 -0.9409 0.3355
vn 0.0118 0.9929 -0.1187
vn -0.0621 0.9334 -0.3535
vn -0.1176 0.9485 -0.2942
vn 0.6336 0.2106 -0.7445
vn -0.1159 0.9606 0.2524
vn -0.4517 0.1843 -0.8729
vn -0.4517 0.1843 -0.8729
vn 0.1157 -0.9597 -0.2561
vn 0.6336 0.2106 -0.7445
vn 0.4939 -0.8692 -0.0249
vn 0.4318 -0.8989 -0.0747
vn 0.3144 -0.9373 -0.1501
vn -0.2039 -0.9475 -0.2465
vn -0.1352 -0.9726 -0.1890
vn -0.2715 -0.9624 -0.0051
vn -0.0102 -0.9930 0.1180
vn -0.1114 -0.9387 0.3263
vn -0.2045 -0.9417 0.2672
vn 0.1111 0.9392 -0.3250
vn 0.2011 0.9449 -0.2584
vn 0.0900 0.9577 -0.2732
vn 0.0504 0.9601 -0.2752
vn 0.1111 0.9392 -0.3250
vn 0.1149 0.4567 0.8822
vn 0.7418 0.0865 0.6650
vn 0.0016 -0.9442 0.3294
vn 0.0800 -0.9456 0.3153
vn 0.2661 0.9639 0.0019
vn 0.1346 0.9729 0.1878
vn 0.1978 0.9508 0.2383
vn 0.0118 0.9929 -0.1187
vn -0.4251 0.9020 0.0759
vn -0.3123 0.9383 0.1487
vn -0.3123 0.9383 0.1487
vn -0.4251 0.9020 0.0759
vn -0.4870 0.8732 0.0203
vn 0.1240 0.9849 0.1207
vn 0.4318 -0.8989 -0.0747
vn 0.4939 -0.8692 -0.0249
vn 0.3187 0.9396 -0.1251
vn 0.2661 0.9639 0.0019
vn 0.2702 0.9478 -0.1691
vn -0.2767 -0.9490 0.1510
vn -0.3164 -0.9409 0.1209
vn -0.3292 -0.9207 0.2099
vn 0.3144 -0.9373 -0.1501
vn 0.4318 -0.8989 -0.0747
vn -0.0102 -0.9930 0.1180
vn 0.3621 -0.9095 -0.2044
vn 0.2362 -0.9670 0.0959
vn -0.0102 -0.9930 0.1180
vn -0.9284 0.3078 0.2081
vn -0.2715 -0.9624 -0.0051
vn -0.7361 0.1413 -0.6620
vn -0.7361 0.1413 -0.6620
vn 0.2661 0.9639 0.0019
vn -0.9284 0.3078 0.2081
vn 0.9705 0.0873 -0.2247
vn -0.2301 0.9685 -0.0952
vn -0.0995 0.9565 -0.2741
vn 0.1141 -0.9567 0.2678
vn 0.2362 -0.9670 0.0959
vn 0.9705 0.0873 -0.2247
vn -0.4870 0.8732 0.0203
vn -0.4251 0.9020 0.0759
vn 0.1240 0.9849 0.1207
vn -0.2655 0.5769 -0.7725
vn -0.3577 0.9140 0.1917
vn -0.2290 0.9522 0.2023
vn -0.2290 0.9522 0.2023
vn -0.2301 0.9685 -0.0952
vn 0.9543 0.0666 0.2914
vn 0.9543 0.0666 0.2914
vn 0.2362 -0.9670 0.0959
vn 0.2382 -0.9492 -0.2055
vn -0.0807 -0.9550 0.2853
vn -0.2045 -0.9417 0.2672
vn -0.1114 -0.9387 0.3263
vn 0.1149 0.4567 0.8822
vn -0.1114 -0.9387 0.3263
vn -0.0386 -0.9583 0.2830
vn -0.0536 0.9435 -0.3271
vn -0.0621 0.9334 -0.3535
vn 0.5051 0.1161 0.8552
vn 0.0800 -0.9456 0.3153
vn 0.0627 -0.9328 0.3548
vn 0.5051 0.1161 0.8552
vn 0.1204 0.9433 0.3095
vn -0.1159 0.9606 0.2524
vn 0.6336 0.2106 -0.7445
vn 0.6336 0.2106 -0.7445
vn 0.1157 -0.9597 -0.2561
vn -0.1445 -0.9397 -0.3099
vn -0.6808 0.2858 0.6744
vn -0.3056 -0.9392 0.1564
vn -0.2045 -0.9417 0.2672
vn 0.0900 0.9577 -0.2732
vn 0.2011 0.9449 -0.2584
vn -0.9939 0.1011 -0.0450
vn 0.7418 0.0865 0.6650
vn -0.0014 0.9447 -0.3280
vn 0.0504 0.9601 -0.2752
vn -0.0386 -0.9583 0.2830
vn 0.0016 -0.9442 0.3294
vn 0.7418 0.0865 0.6650
vn 0.0118 0.9929 -0.1187
vn 0.3187 0.9396 -0.1251
vn 0.3296 0.9307 -0.1587
vn -0.3292 -0.9207 0.2099
vn -0.3164 -0.9409 0.1209
vn -0.3056 -0.9392 0.1564
vn -0.1352 -0.9726 -0.1890
vn 0.1157 -0.9597 -0.2561
vn -0.0102 -0.9930 0.1180
vn -0.1445 -0.9397 -0.3099
vn 0.1157 -0.9597 -0.2561
vn -0.1352 -0.9726 -0.1890
vn 0.0118 0.9929 -0.1187
vn -0.1159 0.9606 0.2524
vn 0.1346 0.9729 0.1878
vn 0.1346 0.9729 0.1878
vn -0.1159 0.9606 0.2524
vn 0.1204 0.9433 0.3095
vn 0.9696 0.2395 0.0494
vn 0.3144 -0.9373 -0.1501
vn 0.2798 -0.9100 -0.3058
vn -0.2734 0.9122 0.3053
vn -0.3123 0.9383 0.1487
vn 0.9696 0.2395 0.0494
vn -0.2039 -0.9475 -0.2465
vn -0.2715 -0.9624 -0.0051
vn -0.9284 0.3078 0.2081
vn -0.9284 0.3078 0.2081
vn 0.2661 0.9639 0.0019
vn 0.1978 0.9508 0.2383
vn 0.5051 0.1161 0.8552
vn -0.0621 0.9334 -0.3535
vn -0.0692 0.9481 -0.3102
vn -0.0692 0.9481 -0.3102
vn -0.0014 0.9447 -0.3280
vn 0.7418 0.0865 0.6650
vn 0.0455 -0.9409 0.3355
vn 0.0627 -0.9328 0.3548
vn 0.1176 -0.9486 0.2939
vn -0.2301 0.9685 -0.0952
vn -0.1176 0.9485 -0.2942
vn -0.0995 0.9565 -0.2741
vn 0.9543 0.0666 0.2914
vn -0.2301 0.9685 -0.0952
vn 0.9798 0.1780 0.0910
vn 0.9798 0.1780 0.0910
vn -0.2301 0.9685 -0.0952
vn 0.9705 0.0873 -0.2247
vn 0.4318 -0.8989 -0.0747
vn 0.3621 -0.9095 -0.2044
vn -0.0102 -0.9930 0.1180
vn 0.1240 0.9849 0.1207
vn 0.3621 -0.9095 -0.2044
vn 0.4318 -0.8989 -0.0747
vn 0.0118 0.9929 -0.1187
vn -0.3577 0.9140 0.1917
vn -0.4251 0.9020 0.0759
vn -0.4251 0.9020 0.0759
vn -0.3577 0.9140 0.1917
vn 0.1240 0.9849 0.1207
vn -0.3056 -0.9392 0.1564
vn -0.3164 -0.9409 0.1209
vn -0.0102 -0.9930 0.1180
vn -0.2715 -0.9624 -0.0051
vn -0.1352 -0.9726 -0.1890
vn -0.0102 -0.9930 0.1180
vn -0.0807 -0.9550 0.2853
vn -0.1114 -0.9387 0.3263
vn 0.1149 0.4567 0.8822
vn 0.1149 0.4567 0.8822
vn 0.1111 0.9392 -0.3250
vn 0.0900 0.9577 -0.2732
vn -0.9939 0.1011 -0.0450
vn -0.2045 -0.9417 0.2672
vn -0.0807 -0.9550 0.2853
vn -0.9939 0.1011 -0.0450
vn -0.6808 0.2858 0.6744
vn -0.2045 -0.9417 0.2672
vn -0.8186 0.4256 0.3857
vn 0.1346 0.9729 0.1878
vn 0.1204 0.9433 0.3095
vn -0.1445 -0.9397 -0.3099
vn -0.1352 -0.9726 -0.1890
vn -0.8186 0.4256 0.3857
vn 0.2011 0.9449 -0.2584
vn 0.2945 0.9446 -0.1446
vn -0.6808 0.2858 0.6744
vn 0.2011 0.9449 -0.2584
vn -0.6808 0.2858 0.6744
vn -0.9939 0.1011 -0.0450
vn 0.1157 -0.9597 -0.2561
vn 0.3144 -0.9373 -0.1501
vn -0.0102 -0.9930 0.1180
vn 0.2798 -0.9100 -0.3058
vn 0.3144 -0.9373 -0.1501
vn 0.1157 -0.9597 -0.2561
vn 0.0118 0.9929 -0.1187
vn -0.3123 0.9383 0.1487
vn -0.1159 0.9606 0.2524
vn -0.1159 0.9606 0.2524
vn -0.3123 0.9383 0.1487
vn -0.2734 0.9122 0.3053
vn 0.9798 0.1780 0.0910
vn 0.2362 -0.9670 0.0959
vn 0.9543 0.0666 0.2914
vn 0.9705 0.0873 -0.2247
vn 0.2362 -0.9670 0.0959
vn 0.9798 0.1780 0.0910
vn 0.0118 0.9929 -0.1187
vn 0.1346 0.9729 0.1878
vn 0.2661 0.9639 0.0019
vn 0.0118 0.9929 -0.1187
vn 0.2661 0.9639 0.0019
vn 0.3187 0.9396 -0.1251
vn -0.2655 0.5769 -0.7725
vn 0.3621 -0.9095 -0.2044
vn 0.1240 0.9849 0.1207
vn 0.1240 0.9849 0.1207
vn -0.3577 0.9140 0.1917
vn -0.2655 0.5769 -0.7725
vn -0.3164 -0.9409 0.1209
vn -0.2715 -0.9624 -0.0051
vn -0.0102 -0.9930 0.1180
vn -0.2767 -0.9490 0.1510
vn -0.2715 -0.9624 -0.0051
vn -0.3164 -0.9409 0.1209
vn 0.1141 -0.9567 0.2678
vn 0.1176 -0.9486 0.2939
vn 0.2362 -0.9670 0.0959
vn 0.0455 -0.9409 0.3355
vn 0.1176 -0.9486 0.2939
vn 0.1141 -0.9567 0.2678
vn -0.0995 0.9565 -0.2741
vn -0.1176 0.9485 -0.2942
vn -0.0536 0.9435 -0.3271
vn -0.1176 0.9485 -0.2942
vn -0.0621 0.9334 -0.3535
vn -0.0536 0.9435 -0.3271
vn 0.3296 0.9307 -0.1587
vn 0.3187 0.9396 -0.1251
vn 0.3208 0.9217 -0.2179
vn 0.3208 0.9217 -0.2179
vn 0.3187 0.9396 -0.1251
vn 0.2702 0.9478 -0.1691
vn 0.0627 -0.9328 0.3548
vn 0.0016 -0.9442 0.3294
vn -0.0102 -0.9930 0.1180
vn 0.0800 -0.9456 0.3153
vn 0.0016 -0.9442 0.3294
vn 0.0627 -0.9328 0.3548
vn 0.0118 0.9929 -0.1187
vn -0.0014 0.9447 -0.3280
vn -0.0621 0.9334 -0.3535
vn -0.0621 0.9334 -0.3535
vn -0.0014 0.9447 -0.3280
vn -0.0692 0.9481 -0.3102
vn -0.9533 0.3009 0.0244
vn -0.9480 0.2697 -0.1693
vn -0.9486 0.2706 -0.1643
vn -0.9480 0.2697 -0.1693
vn -0.9338 0.3455 0.0931
vn -0.9324 0.3477 0.0986
vn -0.9324 0.3477 0.0986
vn -0.9486 0.2706 -0.1643
vn -0.9480 0.2697 -0.1693
vn -0.7361 0.1413 -0.6620
vn -0.2715 -0.9624 -0.0051
vn -0.6060 0.1717 -0.7767
vn -0.6060 0.1717 -0.7767
vn 0.2661 0.9639 0.0019
vn -0.7361 0.1413 -0.6620
vn 0.0016 -0.9442 0.3294
vn -0.1114 -0.9387 0.3263
vn -0.0102 -0.9930 0.1180
vn -0.0386 -0.9583 0.2830
vn -0.1114 -0.9387 0.3263
vn 0.0016 -0.9442 0.3294
vn 0.0118 0.9929 -0.1187
vn 0.1111 0.9392 -0.3250
vn -0.0014 0.9447 -0.3280
vn -0.0014 0.9447 -0.3280
vn 0.1111 0.9392 -0.3250
vn 0.0504 0.9601 -0.2752
vn -0.3285 0.2903 0.8988
vn -0.3577 0.2923 0.8869
vn -0.3531 0.2925 0.8887
vn -0.5156 0.2797 0.8099
vn -0.3531 0.2925 0.8887
vn -0.3577 0.2923 0.8869
vn 0.2312 0.3296 0.9154
vn 0.3797 0.2911 0.8781
vn 0.3772 0.2918 0.8790
vn 0.3772 0.2918 0.8790
vn 0.2300 0.3302 0.9154
vn 0.2312 0.3296 0.9154
vn -0.0074 0.3144 0.9493
vn 0.2312 0.3296 0.9154
vn 0.2300 0.3302 0.9154
vn 0.5037 0.4063 -0.7624
vn 0.6391 0.4096 -0.6510
vn 0.6378 0.4096 -0.6522
vn 0.8269 0.4502 -0.3370
vn 0.6378 0.4096 -0.6522
vn 0.6391 0.4096 -0.6510
vn 0.6127 0.2759 0.7406
vn 0.3772 0.2918 0.8790
vn 0.3797 0.2911 0.8781
vn 0.2958 0.2970 0.9079
vn -0.2925 0.2838 0.9132
vn -0.2979 0.2837 0.9115
vn -0.3285 0.2903 0.8988
vn -0.2979 0.2837 0.9115
vn -0.2925 0.2838 0.9132
vn -0.9350 0.2560 -0.2454
vn -0.8529 0.2867 -0.4363
vn -0.8523 0.2869 -0.4374
vn -0.9434 0.1979 -0.2661
vn -0.8523 0.2869 -0.4374
vn -0.8529 0.2867 -0.4363
vn -0.0074 0.3144 0.9493
vn 0.2281 0.3179 0.9203
vn 0.2346 0.3179 0.9187
vn 0.2958 0.2970 0.9079
vn 0.2346 0.3179 0.9187
vn 0.2281 0.3179 0.9203
vn -0.9316 0.3030 0.2007
vn -0.9324 0.3477 0.0986
vn -0.9338 0.3455 0.0931
vn -0.9338 0.3455 0.0931
vn -0.9310 0.3022 0.2047
vn -0.9316 0.3030 0.2007
vn -0.9543 0.2405 -0.1775
vn -0.9316 0.3030 0.2007
vn -0.9310 0.3022 0.2047
vn -0.9434 0.1979 -0.2661
vn -0.8046 0.2696 -0.5291
vn -0.7808 0.2776 -0.5597
vn -0.4416 0.3352 -0.8322
vn -0.7808 0.2776 -0.5597
vn -0.8046 0.2696 -0.5291
vn 0.8269 0.4502 -0.3370
vn 0.8601 0.4754 0.1849
vn 0.8626 0.4772 0.1681
vn 0.7966 0.4345 0.4203
vn 0.8626 0.4772 0.1681
vn 0.8601 0.4754 0.1849
vn 0.2925 0.2595 -0.9204
vn 0.5248 0.2939 -0.7989
vn 0.5471 0.2963 -0.7829
vn 0.7366 0.3080 -0.6022
vn 0.5471 0.2963 -0.7829
vn 0.5248 0.2939 -0.7989
vn 0.2011 0.9449 -0.2584
vn 0.3296 0.9307 -0.1587
vn 0.2945 0.9446 -0.1446
vn 0.2945 0.9446 -0.1446
vn 0.3296 0.9307 -0.1587
vn 0.3208 0.9217 -0.2179
# 420 vertex normals

vt 0.8730 0.1069 0.0000
vt 0.9243 0.0000 0.0000
vt 0.9507 0.0825 0.0000
vt 0.8730 0.1069 0.0000
vt 0.9922 0.0400 0.0000
vt 0.8950 0.1372 0.0000
vt 0.9507 0.0825 0.0000
vt 0.8950 0.1372 0.0000
vt 0.9185 0.0684 0.0000
vt 0.9185 0.0684 0.0000
vt 0.9185 0.0684 0.0000
vt 0.9185 0.0684 0.0000
vt 0.8779 0.0195 0.0000
vt 0.9185 0.0684 0.0000
vt 0.8779 0.0195 0.0000
vt 0.9185 0.0684 0.0000
vt 0.9185 0.0684 0.0000
vt 0.9556 0.1177 0.0000
vt 0.9556 0.1177 0.0000
vt 0.8755 0.0693 0.0000
vt 0.9185 0.0684 0.0000
vt 0.8755 0.0693 0.0000
vt 0.9746 0.0771 0.0000
vt 0.9746 0.0771 0.0000
vt 0.9727 0.0146 0.0000
vt 0.9727 0.0146 0.0000
vt 0.9258 0.1440 0.0000
vt 0.9258 0.1440 0.0000
vt 0.9219 0.1060 0.0000
vt 0.9219 0.1060 0.0000
vt 0.9219 0.1060 0.0000
vt 0.9219 0.1060 0.0000
vt 0.9009 0.0093 0.0000
vt 0.9009 0.0093 0.0000
vt 0.9243 0.0000 0.0000
vt 0.9341 0.0088 0.0000
vt 0.9341 0.0088 0.0000
vt 0.9580 0.0977 0.0000
vt 0.9580 0.0977 0.0000
vt 0.9580 0.0977 0.0000
vt 0.8687 0.0786 0.0000
vt 0.8687 0.0786 0.0000
vt 0.8687 0.0786 0.0000
vt 0.9468 0.0728 0.0000
vt 0.9468 0.0728 0.0000
vt 0.9468 0.0728 0.0000
vt 0.9468 0.0728 0.0000
vt 0.8799 0.1089 0.0000
vt 0.8799 0.1089 0.0000
vt 0.9873 0.0264 0.0000
vt 0.9727 0.0146 0.0000
vt 0.9746 0.0771 0.0000
vt 0.9868 0.0620 0.0000
vt 0.9214 0.0342 0.0000
vt 0.9214 0.0342 0.0000
vt 0.9214 0.0342 0.0000
vt 0.9434 0.0068 0.0000
vt 0.9434 0.0068 0.0000
vt 0.9219 0.1060 0.0000
vt 0.9082 0.1436 0.0000
vt 0.9082 0.1436 0.0000
vt 0.8730 0.0317 0.0000
vt 0.8730 0.0317 0.0000
vt 0.9136 0.0000 0.0000
vt 0.9214 0.0342 0.0000
vt 0.9136 0.0000 0.0000
vt 0.9185 0.0684 0.0000
vt 0.8711 0.0562 0.0000
vt 0.8711 0.0562 0.0000
vt 0.9067 0.1025 0.0000
vt 0.9219 0.1060 0.0000
vt 0.9185 0.0684 0.0000
vt 0.8950 0.1372 0.0000
vt 0.9067 0.1025 0.0000
vt 0.9067 0.1025 0.0000
vt 0.9067 0.1025 0.0000
vt 0.9468 0.1299 0.0000
vt 0.9468 0.1299 0.0000
vt 0.8833 0.1201 0.0000
vt 0.8833 0.1201 0.0000
vt 0.8833 0.1201 0.0000
vt 0.9595 0.0127 0.0000
vt 0.9595 0.0127 0.0000
vt 0.9868 0.0620 0.0000
vt 0.9551 0.0542 0.0000
vt 0.9922 0.0400 0.0000
vt 0.9551 0.0542 0.0000
vt 0.9873 0.0264 0.0000
vt 0.9551 0.0542 0.0000
vt 0.9551 0.0542 0.0000
vt 0.9551 0.0542 0.0000
vt 0.9551 0.0542 0.0000
vt 0.9551 0.0542 0.0000
vt 0.9551 0.0542 0.0000
vt 0.9385 0.0830 0.0000
vt 0.9468 0.0728 0.0000
vt 0.9185 0.0684 0.0000
vt 0.9507 0.0825 0.0000
vt 0.9385 0.0830 0.0000
vt 0.9385 0.0830 0.0000
vt 0.9385 0.0830 0.0000
vt 0.9385 0.0830 0.0000
vt 0.8960 0.0874 0.0000
vt 0.8960 0.0874 0.0000
vt 0.9067 0.1025 0.0000
vt 0.8960 0.0874 0.0000
vt 0.8960 0.0874 0.0000
vt 0.8960 0.0874 0.0000
vt 0.8960 0.0874 0.0000
vt 0.8921 0.0107 0.0000
vt 0.8921 0.0107 0.0000
vt 0.8921 0.0107 0.0000
vt 0.8984 0.0439 0.0000
vt 0.8984 0.0439 0.0000
vt 0.8984 0.0439 0.0000
vt 0.8984 0.0439 0.0000
vt 0.8984 0.0439 0.0000
vt 0.8984 0.0439 0.0000
vt 0.8940 0.1318 0.0000
vt 0.9067 0.1025 0.0000
vt 0.8940 0.1318 0.0000
vt 0.9219 0.1060 0.0000
vt 0.9326 0.0991 0.0000
vt 0.9185 0.0684 0.0000
vt 0.9468 0.1299 0.0000
vt 0.9326 0.0991 0.0000
vt 0.9326 0.0991 0.0000
vt 0.9326 0.0991 0.0000
vt 0.9326 0.0991 0.0000
vt 0.9326 0.0991 0.0000
vt 0.8960 0.0874 0.0000
vt 0.9595 0.0820 0.0000
vt 0.9468 0.0728 0.0000
vt 0.9595 0.0820 0.0000
vt 0.8936 0.0732 0.0000
vt 0.8936 0.0732 0.0000
vt 0.8936 0.0732 0.0000
vt 0.8936 0.0732 0.0000
vt 0.8936 0.0732 0.0000
vt 0.9453 0.0415 0.0000
vt 0.9595 0.0127 0.0000
vt 0.9453 0.0415 0.0000
vt 0.9453 0.0415 0.0000
vt 0.9453 0.0415 0.0000
vt 0.9453 0.0415 0.0000
vt 0.9312 0.0376 0.0000
vt 0.9214 0.0342 0.0000
vt 0.9185 0.0684 0.0000
vt 0.9341 0.0088 0.0000
vt 0.9312 0.0376 0.0000
vt 0.9312 0.0376 0.0000
vt 0.9312 0.0376 0.0000
vt 0.9312 0.0376 0.0000
vt 0.9312 0.0376 0.0000
vt 0.0000 0.0000 0.0000
vt 0.0305 0.0000 0.0000
vt 0.0305 0.0500 0.0000
vt 0.0668 0.0000 0.0000
vt 0.8960 0.0874 0.0000
vt 0.8711 0.0933 0.0000
vt 0.8711 0.0933 0.0000
vt 0.9214 0.0342 0.0000
vt 0.9097 0.0386 0.0000
vt 0.9185 0.0684 0.0000
vt 0.9136 0.0000 0.0000
vt 0.9097 0.0386 0.0000
vt 0.9097 0.0386 0.0000
vt 0.9097 0.0386 0.0000
vt 0.9097 0.0386 0.0000
vt 0.9097 0.0386 0.0000
vt 0.8877 0.0500 0.0000
vt 0.9141 0.0000 0.0000
vt 0.9141 0.0500 0.0000
vt 0.9452 0.0000 0.0000
vt 0.7325 0.0500 0.0000
vt 0.7455 0.0000 0.0000
vt 0.7455 0.0500 0.0000
vt 0.7817 0.0000 0.0000
vt 0.3376 0.0000 0.0000
vt 0.3888 0.0000 0.0000
vt 0.3888 0.0500 0.0000
vt 0.4318 0.0000 0.0000
vt 0.7000 0.0000 0.0000
vt 0.7325 0.0000 0.0000
vt 0.8237 0.0000 0.0000
vt 0.8542 0.0000 0.0000
vt 0.8542 0.0500 0.0000
vt 0.1744 0.0000 0.0000
vt 0.1958 0.0000 0.0000
vt 0.1958 0.0500 0.0000
vt 0.2342 0.0000 0.0000
vt 0.8075 0.0000 0.0000
vt 0.8075 0.0500 0.0000
vt 0.0869 0.0000 0.0000
vt 0.0869 0.0500 0.0000
vt 0.1214 0.0000 0.0000
vt 0.0668 0.0500 0.0000
vt 0.2633 0.0000 0.0000
vt 0.2633 0.0500 0.0000
vt 0.3052 0.0500 0.0000
vt 0.4673 0.0000 0.0000
vt 0.4673 0.0500 0.0000
vt 0.4876 0.0000 0.0000
vt 0.5254 0.0000 0.0000
vt 0.5699 0.0000 0.0000
vt 0.5699 0.0500 0.0000
vt 0.6040 0.0500 0.0000
vt 0.8984 0.0439 0.0000
vt 0.8926 0.0640 0.0000
vt 0.8711 0.0562 0.0000
vt 0.8926 0.0640 0.0000
vt 0.8755 0.0693 0.0000
vt 0.8926 0.0640 0.0000
vt 0.8926 0.0640 0.0000
vt 0.8926 0.0640 0.0000
# 215 texture coords

o SM_Coral_Table_Acropora_07_LOD1
g SM_Coral_Table_Acropora_07_LOD1
usemtl MAT_Coral_Table
s 1
f 98/248/529 142/381/530 127/326/531 
f 132/351/532 146/304/533 96/247/534 
f 137/326/535 141/381/536 96/248/537 
f 98/246/538 127/328/539 113/281/540 
f 103/264/541 107/268/542 123/314/543 
f 133/357/544 121/312/545 155/316/546 
f 152/314/547 104/268/548 103/264/549 
f 101/260/550 110/283/551 139/370/552 
f 141/380/553 144/387/554 96/250/555 
f 134/353/556 149/404/557 98/253/558 
f 98/247/559 162/451/560 134/351/561 
f 124/316/562 122/312/563 133/357/564 
f 160/276/565 135/365/566 99/254/567 
f 99/254/568 136/365/569 108/276/570 
f 157/279/571 138/345/572 147/397/573 
f 147/397/574 130/345/575 109/279/576 
f 101/259/577 137/329/578 110/282/579 
f 113/282/580 127/329/581 161/259/582 
f 116/293/583 144/390/584 151/319/585 
f 98/250/586 145/387/587 142/380/588 
f 117/297/589 107/267/590 103/263/591 
f 103/263/592 104/267/593 117/297/594 
f 160/274/595 128/337/596 135/363/597 
f 155/317/598 121/311/599 130/342/600 
f 96/253/601 148/404/602 132/353/603 
f 149/403/604 134/354/605 131/348/606 
f 154/302/607 149/406/608 105/269/609 
f 91/238/610 115/292/611 106/272/612 
f 138/342/613 122/311/614 124/317/615 
f 98/252/616 129/336/617 136/364/618 
f 136/363/619 129/337/620 108/274/621 
f 93/243/622 128/338/623 160/275/624 
f 143/372/625 138/339/626 157/277/627 
f 109/278/628 140/375/629 158/256/630 
f 135/364/631 128/336/632 96/252/633 
f 110/281/634 137/328/635 96/246/636 
f 111/284/637 130/344/638 92/237/639 
f 92/237/640 138/344/641 111/284/642 
f 112/286/643 127/327/644 153/287/645 
f 102/287/646 137/327/647 112/286/648 
f 108/275/649 129/338/650 93/243/651 
f 139/370/652 113/283/653 161/260/654 
f 161/288/655 127/330/656 114/289/657 
f 114/289/658 137/330/659 101/288/660 
f 150/348/661 132/354/662 148/403/663 
f 105/269/664 148/406/665 119/302/666 
f 126/319/667 145/390/668 116/293/669 
f 106/273/670 144/389/671 116/294/672 
f 159/242/673 107/295/674 117/296/675 
f 117/296/676 104/295/677 95/242/678 
f 118/298/679 146/305/680 132/352/681 
f 131/347/682 134/349/683 97/249/684 
f 91/271/685 125/301/686 154/300/687 
f 119/300/688 115/301/689 91/271/690 
f 98/303/691 143/373/692 162/450/693 
f 158/258/694 140/374/695 146/304/696 
f 121/306/697 104/307/698 96/308/699 
f 95/309/700 104/266/701 121/310/702 
f 98/308/703 107/307/704 122/306/705 
f 122/310/706 107/266/707 159/309/708 
f 99/255/709 135/366/710 152/313/711 
f 123/313/712 136/366/713 99/255/714 
f 155/315/715 130/343/716 111/285/717 
f 111/285/718 138/343/719 124/315/720 
f 116/294/721 145/389/722 156/273/723 
f 156/272/724 125/292/725 91/238/726 
f 151/318/727 144/388/728 141/379/729 
f 127/325/730 142/376/731 153/261/732 
f 114/320/733 127/321/734 94/322/735 
f 94/241/736 127/323/737 112/324/738 
f 128/331/739 110/332/740 96/333/741 
f 93/334/742 110/280/743 128/335/744 
f 98/333/745 113/332/746 129/331/747 
f 129/335/748 113/280/749 93/334/750 
f 146/304/751 140/373/752 96/303/753 
f 130/340/754 121/341/755 96/245/756 
f 150/346/757 148/405/758 105/270/759 
f 105/270/760 149/405/761 131/346/762 
f 97/249/763 132/349/764 150/347/765 
f 97/251/766 118/299/767 132/350/768 
f 133/355/769 122/356/770 159/244/771 
f 95/244/772 121/356/773 133/355/774 
f 134/352/775 120/305/776 118/298/777 
f 134/350/778 118/299/779 97/251/780 
f 104/358/781 135/359/782 96/360/783 
f 152/361/784 135/362/785 104/265/786 
f 98/360/787 136/359/788 107/358/789 
f 107/265/790 136/362/791 123/361/792 
f 94/322/793 137/321/794 114/320/795 
f 112/324/796 137/323/797 94/241/798 
f 98/245/799 122/341/800 138/340/801 
f 98/257/802 138/367/803 143/371/804 
f 139/368/805 110/369/806 93/239/807 
f 93/239/808 113/369/809 139/368/810 
f 140/371/811 130/367/812 96/257/813 
f 109/277/814 130/339/815 140/372/816 
f 102/261/817 141/376/818 137/325/819 
f 151/377/820 141/378/821 102/262/822 
f 153/262/823 142/378/824 126/377/825 
f 142/379/826 145/388/827 126/318/828 
f 162/449/829 143/374/830 100/258/831 
f 100/256/832 143/375/833 157/278/834 
f 144/382/835 115/383/836 96/384/837 
f 106/385/838 115/291/839 144/386/840 
f 98/384/841 125/383/842 145/382/843 
f 145/386/844 125/291/845 156/385/846 
s 2
f 118/391/847 120/392/848 146/393/849 
f 120/392/850 100/394/851 158/433/852 
f 158/433/853 146/393/854 120/392/855 
s 1
f 92/240/856 130/395/857 147/396/858 
f 147/396/859 138/395/860 92/240/861 
f 115/398/862 148/399/863 96/400/864 
f 119/401/865 148/402/866 115/290/867 
f 98/400/868 149/399/869 125/398/870 
f 125/290/871 149/402/872 154/401/873 
s 2
f 105/407/874 131/408/875 150/409/876 
f 97/410/877 150/409/878 131/408/879 
f 151/413/880 102/411/881 153/420/882 
f 153/420/883 126/412/884 151/413/885 
f 116/414/886 151/413/887 126/412/888 
f 103/415/889 123/416/890 152/417/891 
f 99/418/892 152/417/893 123/416/894 
f 112/419/895 153/420/896 102/411/897 
f 91/421/898 154/422/899 119/423/900 
f 105/407/901 119/423/902 154/422/903 
f 111/424/904 124/425/905 155/426/906 
f 133/427/907 155/426/908 124/425/909 
f 116/414/910 156/428/911 106/429/912 
f 91/421/913 106/429/914 156/428/915 
f 109/431/916 158/433/917 100/394/918 
f 100/394/919 157/430/920 109/431/921 
f 147/432/922 109/431/923 157/430/924 
f 133/427/925 159/434/926 95/435/927 
f 117/436/928 95/435/929 159/434/930 
f 99/418/931 108/437/932 160/438/933 
f 93/439/934 160/438/935 108/437/936 
f 139/440/937 161/441/938 101/442/939 
f 114/443/940 101/442/941 161/441/942 
s 1
f 134/444/943 162/445/944 120/446/945 
f 120/304/946 162/447/947 100/448/948 
# 140 faces

#
# object SM_Coral_Table_Acropora_07_LOD2
#

v  -2.1138 8.5261 25.0792
v  -19.9487 4.5757 -12.0762
v  7.1077 6.3770 -3.6472
v  21.5948 7.5252 11.3043
v  -12.3081 6.1333 -22.7852
v  -4.0764 -0.0000 1.4348
v  -18.1528 7.9758 18.4282
v  -4.0740 0.1986 1.4111
v  8.8835 7.1042 -15.8157
v  -19.0193 5.7798 1.0159
v  15.5917 6.6023 -1.7685
v  14.7710 8.2272 20.1927
v  -1.5956 7.2418 -25.0629
v  -2.8118 1.7775 -11.8768
v  -10.2531 8.2160 22.0153
v  1.3768 8.3365 22.1882
v  -2.8348 1.9696 -11.8259
v  9.7271 6.6833 -8.9287
v  -21.5948 5.0116 -2.1594
v  5.8063 3.2769 -0.1979
v  -17.4827 4.7707 -12.7799
v  19.8415 8.1350 16.0322
v  5.7347 3.4597 -0.1595
v  19.7990 6.8497 3.5045
v  -3.0936 4.8602 13.3107
v  4.6360 8.5261 22.8380
v  -7.7320 6.7860 -24.9506
v  -19.9678 7.8072 14.0238
v  -5.8532 8.3344 25.1345
v  -20.5467 6.6606 5.5477
v  -8.2079 1.5146 -10.6921
v  -8.1810 1.7092 -10.6546
v  5.8014 7.2517 -20.1707
v  -16.3965 5.0357 -16.6419
v  -3.0939 5.0491 13.2451
v  10.2260 8.4984 20.6686
v  8.7383 4.2462 6.3469
v  2.9116 2.6454 -3.7740
v  2.8265 2.8258 -3.7589
v  -12.0481 2.1986 -5.3185
v  -13.3233 8.2712 21.4005
v  -11.1537 4.6466 9.9713
v  -12.6091 5.9411 -20.7538
v  -11.1134 4.8356 9.9196
v  0.9261 2.1510 -9.4095
v  0.8636 2.3386 -9.3798
v  8.7853 4.0528 6.3658
v  -11.9945 2.3913 -5.3179
v  10.2690 6.6789 -3.4386
v  -12.8711 3.0493 -0.3661
# 50 vertices

vn 0.0119 0.9931 -0.1164
vn -0.1891 0.3782 0.9062
vn -0.2230 0.9686 -0.1097
vn -0.2062 -0.9414 0.2668
vn -0.9553 0.2953 0.0151
vn -0.0148 -0.9932 0.1154
vn 0.2513 -0.9647 0.0786
vn 0.7750 0.1923 0.6020
vn -0.0148 -0.9932 0.1154
vn 0.0119 0.9931 -0.1164
vn -0.2230 0.9686 -0.1097
vn -0.3526 0.9158 0.1925
vn 0.2266 0.3468 -0.9102
vn -0.1185 0.9608 0.2506
vn 0.6205 0.3848 -0.6833
vn -0.8182 0.5420 -0.1917
vn -0.1416 -0.9714 -0.1905
vn -0.8235 0.2436 -0.5123
vn 0.6205 0.3848 -0.6833
vn 0.1200 -0.9585 -0.2585
vn 0.2266 0.3468 -0.9102
vn 0.6605 0.2499 -0.7080
vn 0.3621 -0.9095 -0.2044
vn 0.1645 0.5966 -0.7855
vn 0.7750 0.1923 0.6020
vn -0.0252 -0.9404 0.3391
vn -0.0148 -0.9932 0.1154
vn 0.1958 0.9439 -0.2661
vn 0.0234 0.9436 -0.3304
vn 0.0119 0.9931 -0.1164
vn 0.0119 0.9931 -0.1164
vn -0.9553 0.2953 0.0151
vn 0.1958 0.9439 -0.2661
vn -0.8235 0.2436 -0.5123
vn 0.1358 0.9737 0.1831
vn -0.8182 0.5420 -0.1917
vn 0.9025 0.4287 0.0419
vn 0.3204 -0.9347 -0.1537
vn 0.8523 0.3886 -0.3501
vn 0.8523 0.3886 -0.3501
vn -0.3123 0.9383 0.1487
vn 0.9025 0.4287 0.0419
vn -0.9806 0.1257 -0.1504
vn 0.2724 0.9621 -0.0086
vn -0.7337 0.1410 -0.6647
vn -0.7337 0.1410 -0.6647
vn -0.2719 -0.9623 -0.0084
vn -0.9806 0.1257 -0.1504
vn 0.6605 0.2499 -0.7080
vn 0.2513 -0.9647 0.0786
vn 0.3621 -0.9095 -0.2044
vn -0.3526 0.9158 0.1925
vn -0.2230 0.9686 -0.1097
vn 0.6605 0.2499 -0.7080
vn 0.1585 0.2795 0.9470
vn -0.0252 -0.9404 0.3391
vn -0.1891 0.3782 0.9062
vn 0.0119 0.9931 -0.1164
vn 0.0234 0.9436 -0.3304
vn -0.1891 0.3782 0.9062
vn -0.2585 0.3170 -0.9125
vn -0.1185 0.9608 0.2506
vn 0.2266 0.3468 -0.9102
vn 0.2266 0.3468 -0.9102
vn 0.1200 -0.9585 -0.2585
vn -0.2585 0.3170 -0.9125
vn 0.9025 0.4287 0.0419
vn 0.4356 -0.8966 -0.0798
vn 0.3204 -0.9347 -0.1537
vn -0.8235 0.2436 -0.5123
vn -0.1416 -0.9714 -0.1905
vn -0.2719 -0.9623 -0.0084
vn -0.0148 -0.9932 0.1154
vn -0.0252 -0.9404 0.3391
vn -0.2062 -0.9414 0.2668
vn 0.0234 0.9436 -0.3304
vn 0.1958 0.9439 -0.2661
vn -0.3738 0.2854 0.8825
vn -0.2884 0.2187 0.9322
vn 0.0234 0.9436 -0.3304
vn -0.3326 0.3216 0.8865
vn 0.2947 0.2724 0.9159
vn -0.0252 -0.9404 0.3391
vn 0.1254 0.4225 0.8977
vn 0.2724 0.9621 -0.0086
vn 0.1358 0.9737 0.1831
vn -0.8235 0.2436 -0.5123
vn 0.0119 0.9931 -0.1164
vn -0.4251 0.9020 0.0759
vn -0.3123 0.9383 0.1487
vn -0.3123 0.9383 0.1487
vn -0.4251 0.9020 0.0759
vn 0.9025 0.4287 0.0419
vn 0.2595 0.9359 -0.2385
vn 0.4356 -0.8966 -0.0798
vn 0.9025 0.4287 0.0419
vn -0.6394 0.5256 0.5611
vn 0.2724 0.9621 -0.0086
vn -0.9806 0.1257 -0.1504
vn -0.9806 0.1257 -0.1504
vn -0.3205 -0.9376 0.1345
vn -0.6394 0.5256 0.5611
vn 0.3204 -0.9347 -0.1537
vn 0.4356 -0.8966 -0.0798
vn -0.0148 -0.9932 0.1154
vn 0.3621 -0.9095 -0.2044
vn 0.2513 -0.9647 0.0786
vn -0.0148 -0.9932 0.1154
vn -0.7520 0.3799 -0.5387
vn -0.2719 -0.9623 -0.0084
vn -0.7337 0.1410 -0.6647
vn -0.7337 0.1410 -0.6647
vn 0.2724 0.9621 -0.0086
vn -0.7520 0.3799 -0.5387
vn 0.7887 0.2488 0.5621
vn -0.2230 0.9686 -0.1097
vn 0.7750 0.1923 0.6020
vn 0.7750 0.1923 0.6020
vn 0.2513 -0.9647 0.0786
vn 0.7887 0.2488 0.5621
vn 0.9025 0.4287 0.0419
vn -0.4251 0.9020 0.0759
vn 0.2595 0.9359 -0.2385
vn 0.1645 0.5966 -0.7855
vn -0.3526 0.9158 0.1925
vn 0.6605 0.2499 -0.7080
vn 0.6605 0.2499 -0.7080
vn -0.2230 0.9686 -0.1097
vn 0.8880 0.1845 -0.4211
vn 0.8880 0.1845 -0.4211
vn 0.2513 -0.9647 0.0786
vn 0.6605 0.2499 -0.7080
vn -0.3738 0.2854 0.8825
vn -0.2062 -0.9414 0.2668
vn -0.0252 -0.9404 0.3391
vn -0.3326 0.3216 0.8865
vn -0.0252 -0.9404 0.3391
vn -0.2884 0.2187 0.9322
vn -0.1891 0.3782 0.9062
vn 0.0234 0.9436 -0.3304
vn 0.1585 0.2795 0.9470
vn 0.1254 0.4225 0.8977
vn -0.0252 -0.9404 0.3391
vn 0.1585 0.2795 0.9470
vn -0.7054 0.2435 -0.6656
vn -0.1185 0.9608 0.2506
vn -0.2585 0.3170 -0.9125
vn -0.2585 0.3170 -0.9125
vn 0.1200 -0.9585 -0.2585
vn -0.7054 0.2435 -0.6656
vn -0.9326 0.2910 0.2137
vn -0.9553 0.2953 0.0151
vn -0.2062 -0.9414 0.2668
vn -0.3738 0.2854 0.8825
vn 0.1958 0.9439 -0.2661
vn -0.7302 0.2328 0.6424
vn 0.2947 0.2724 0.9159
vn 0.0234 0.9436 -0.3304
vn -0.2884 0.2187 0.9322
vn -0.2884 0.2187 0.9322
vn -0.0252 -0.9404 0.3391
vn 0.2947 0.2724 0.9159
vn 0.0119 0.9931 -0.1164
vn -0.6394 0.5256 0.5611
vn -0.9553 0.2953 0.0151
vn -0.6394 0.5256 0.5611
vn -0.3205 -0.9376 0.1345
vn -0.9553 0.2953 0.0151
vn -0.1416 -0.9714 -0.1905
vn 0.1200 -0.9585 -0.2585
vn -0.0148 -0.9932 0.1154
vn -0.7054 0.2435 -0.6656
vn 0.1200 -0.9585 -0.2585
vn -0.1416 -0.9714 -0.1905
vn 0.0119 0.9931 -0.1164
vn -0.1185 0.9608 0.2506
vn 0.1358 0.9737 0.1831
vn 0.1358 0.9737 0.1831
vn -0.1185 0.9608 0.2506
vn -0.7054 0.2435 -0.6656
vn 0.8523 0.3886 -0.3501
vn 0.3204 -0.9347 -0.1537
vn 0.6205 0.3848 -0.6833
vn 0.6205 0.3848 -0.6833
vn -0.3123 0.9383 0.1487
vn 0.8523 0.3886 -0.3501
vn -0.8235 0.2436 -0.5123
vn -0.2719 -0.9623 -0.0084
vn -0.7520 0.3799 -0.5387
vn -0.7520 0.3799 -0.5387
vn 0.2724 0.9621 -0.0086
vn -0.8235 0.2436 -0.5123
vn 0.1585 0.2795 0.9470
vn 0.0234 0.9436 -0.3304
vn 0.1254 0.4225 0.8977
vn 0.1254 0.4225 0.8977
vn 0.0234 0.9436 -0.3304
vn 0.2947 0.2724 0.9159
vn -0.1891 0.3782 0.9062
vn -0.0252 -0.9404 0.3391
vn 0.7750 0.1923 0.6020
vn -0.2230 0.9686 -0.1097
vn -0.1891 0.3782 0.9062
vn 0.7750 0.1923 0.6020
vn 0.8880 0.1845 -0.4211
vn -0.2230 0.9686 -0.1097
vn 0.9798 0.1780 0.0910
vn 0.9798 0.1780 0.0910
vn -0.2230 0.9686 -0.1097
vn 0.7887 0.2488 0.5621
vn 0.4356 -0.8966 -0.0798
vn 0.3621 -0.9095 -0.2044
vn -0.0148 -0.9932 0.1154
vn 0.2595 0.9359 -0.2385
vn 0.3621 -0.9095 -0.2044
vn 0.4356 -0.8966 -0.0798
vn 0.0119 0.9931 -0.1164
vn -0.3526 0.9158 0.1925
vn -0.4251 0.9020 0.0759
vn -0.4251 0.9020 0.0759
vn -0.3526 0.9158 0.1925
vn 0.2595 0.9359 -0.2385
vn -0.9553 0.2953 0.0151
vn -0.3205 -0.9376 0.1345
vn -0.0148 -0.9932 0.1154
vn -0.2719 -0.9623 -0.0084
vn -0.1416 -0.9714 -0.1905
vn -0.0148 -0.9932 0.1154
vn -0.3738 0.2854 0.8825
vn -0.0252 -0.9404 0.3391
vn -0.3326 0.3216 0.8865
vn -0.3326 0.3216 0.8865
vn 0.0234 0.9436 -0.3304
vn -0.3738 0.2854 0.8825
vn -0.7302 0.2328 0.6424
vn -0.2062 -0.9414 0.2668
vn -0.3738 0.2854 0.8825
vn -0.7302 0.2328 0.6424
vn -0.9326 0.2910 0.2137
vn -0.2062 -0.9414 0.2668
vn -0.8182 0.5420 -0.1917
vn 0.1358 0.9737 0.1831
vn -0.7054 0.2435 -0.6656
vn -0.7054 0.2435 -0.6656
vn -0.1416 -0.9714 -0.1905
vn -0.8182 0.5420 -0.1917
vn 0.1958 0.9439 -0.2661
vn -0.9553 0.2953 0.0151
vn -0.9326 0.2910 0.2137
vn 0.1958 0.9439 -0.2661
vn -0.9326 0.2910 0.2137
vn -0.7302 0.2328 0.6424
vn 0.1200 -0.9585 -0.2585
vn 0.3204 -0.9347 -0.1537
vn -0.0148 -0.9932 0.1154
vn 0.6205 0.3848 -0.6833
vn 0.3204 -0.9347 -0.1537
vn 0.1200 -0.9585 -0.2585
vn 0.0119 0.9931 -0.1164
vn -0.3123 0.9383 0.1487
vn -0.1185 0.9608 0.2506
vn -0.1185 0.9608 0.2506
vn -0.3123 0.9383 0.1487
vn 0.6205 0.3848 -0.6833
vn 0.9798 0.1780 0.0910
vn 0.2513 -0.9647 0.0786
vn 0.8880 0.1845 -0.4211
vn 0.7887 0.2488 0.5621
vn 0.2513 -0.9647 0.0786
vn 0.9798 0.1780 0.0910
vn 0.0119 0.9931 -0.1164
vn 0.1358 0.9737 0.1831
vn 0.2724 0.9621 -0.0086
vn 0.0119 0.9931 -0.1164
vn 0.2724 0.9621 -0.0086
vn -0.6394 0.5256 0.5611
vn 0.1645 0.5966 -0.7855
vn 0.3621 -0.9095 -0.2044
vn 0.2595 0.9359 -0.2385
vn 0.2595 0.9359 -0.2385
vn -0.3526 0.9158 0.1925
vn 0.1645 0.5966 -0.7855
vn -0.3205 -0.9376 0.1345
vn -0.2719 -0.9623 -0.0084
vn -0.0148 -0.9932 0.1154
vn -0.9806 0.1257 -0.1504
vn -0.2719 -0.9623 -0.0084
vn -0.3205 -0.9376 0.1345
# 288 vertex normals

vt 0.8730 0.1069 0.0000
vt 0.9243 0.0000 0.0000
vt 0.9507 0.0825 0.0000
vt 0.8730 0.1069 0.0000
vt 0.9922 0.0400 0.0000
vt 0.8950 0.1372 0.0000
vt 0.9507 0.0825 0.0000
vt 0.8950 0.1372 0.0000
vt 0.9185 0.0684 0.0000
vt 0.9185 0.0684 0.0000
vt 0.9185 0.0684 0.0000
vt 0.9185 0.0684 0.0000
vt 0.8779 0.0195 0.0000
vt 0.9185 0.0684 0.0000
vt 0.8779 0.0195 0.0000
vt 0.9185 0.0684 0.0000
vt 0.9185 0.0684 0.0000
vt 0.9556 0.1177 0.0000
vt 0.9556 0.1177 0.0000
vt 0.8755 0.0693 0.0000
vt 0.9185 0.0684 0.0000
vt 0.8755 0.0693 0.0000
vt 0.9746 0.0771 0.0000
vt 0.9746 0.0771 0.0000
vt 0.9727 0.0146 0.0000
vt 0.9727 0.0146 0.0000
vt 0.9258 0.1440 0.0000
vt 0.9258 0.1440 0.0000
vt 0.9219 0.1060 0.0000
vt 0.9219 0.1060 0.0000
vt 0.9219 0.1060 0.0000
vt 0.9219 0.1060 0.0000
vt 0.9009 0.0093 0.0000
vt 0.9009 0.0093 0.0000
vt 0.9243 0.0000 0.0000
vt 0.9341 0.0088 0.0000
vt 0.9341 0.0088 0.0000
vt 0.9580 0.0977 0.0000
vt 0.9580 0.0977 0.0000
vt 0.9580 0.0977 0.0000
vt 0.8687 0.0786 0.0000
vt 0.8687 0.0786 0.0000
vt 0.8687 0.0786 0.0000
vt 0.9468 0.0728 0.0000
vt 0.9468 0.0728 0.0000
vt 0.9468 0.0728 0.0000
vt 0.9468 0.0728 0.0000
vt 0.8799 0.1089 0.0000
vt 0.8799 0.1089 0.0000
vt 0.9873 0.0264 0.0000
vt 0.9727 0.0146 0.0000
vt 0.9746 0.0771 0.0000
vt 0.9868 0.0620 0.0000
vt 0.9214 0.0342 0.0000
vt 0.9214 0.0342 0.0000
vt 0.9214 0.0342 0.0000
vt 0.9434 0.0068 0.0000
vt 0.9434 0.0068 0.0000
vt 0.9219 0.1060 0.0000
vt 0.9082 0.1436 0.0000
vt 0.9082 0.1436 0.0000
vt 0.8730 0.0317 0.0000
vt 0.8730 0.0317 0.0000
vt 0.9136 0.0000 0.0000
vt 0.9214 0.0342 0.0000
vt 0.9136 0.0000 0.0000
vt 0.9185 0.0684 0.0000
vt 0.8711 0.0562 0.0000
vt 0.8711 0.0562 0.0000
vt 0.9067 0.1025 0.0000
vt 0.9219 0.1060 0.0000
vt 0.9185 0.0684 0.0000
vt 0.8950 0.1372 0.0000
vt 0.9067 0.1025 0.0000
vt 0.9067 0.1025 0.0000
vt 0.9067 0.1025 0.0000
vt 0.9468 0.1299 0.0000
vt 0.9468 0.1299 0.0000
vt 0.8833 0.1201 0.0000
vt 0.8833 0.1201 0.0000
vt 0.8833 0.1201 0.0000
vt 0.9595 0.0127 0.0000
vt 0.9595 0.0127 0.0000
vt 0.9868 0.0620 0.0000
vt 0.9551 0.0542 0.0000
vt 0.9922 0.0400 0.0000
vt 0.9551 0.0542 0.0000
vt 0.9873 0.0264 0.0000
vt 0.9551 0.0542 0.0000
vt 0.9551 0.0542 0.0000
vt 0.9551 0.0542 0.0000
vt 0.9551 0.0542 0.0000
vt 0.9551 0.0542 0.0000
vt 0.9551 0.0542 0.0000
vt 0.9385 0.0830 0.0000
vt 0.9468 0.0728 0.0000
vt 0.9185 0.0684 0.0000
vt 0.9507 0.0825 0.0000
vt 0.9385 0.0830 0.0000
vt 0.9385 0.0830 0.0000
vt 0.9385 0.0830 0.0000
vt 0.9385 0.0830 0.0000
vt 0.8960 0.0874 0.0000
vt 0.8960 0.0874 0.0000
vt 0.9067 0.1025 0.0000
vt 0.8960 0.0874 0.0000
vt 0.8960 0.0874 0.0000
vt 0.8960 0.0874 0.0000
vt 0.8960 0.0874 0.0000
vt 0.8921 0.0107 0.0000
vt 0.8921 0.0107 0.0000
vt 0.8921 0.0107 0.0000
vt 0.8984 0.0439 0.0000
vt 0.8984 0.0439 0.0000
vt 0.8984 0.0439 0.0000
vt 0.8984 0.0439 0.0000
vt 0.8984 0.0439 0.0000
vt 0.8984 0.0439 0.0000
vt 0.8940 0.1318 0.0000
vt 0.9067 0.1025 0.0000
vt 0.8940 0.1318 0.0000
vt 0.9219 0.1060 0.0000
vt 0.9326 0.0991 0.0000
vt 0.9185 0.0684 0.0000
vt 0.9468 0.1299 0.0000
vt 0.9326 0.0991 0.0000
vt 0.9326 0.0991 0.0000
vt 0.9326 0.0991 0.0000
vt 0.9326 0.0991 0.0000
vt 0.9326 0.0991 0.0000
vt 0.8960 0.0874 0.0000
vt 0.9595 0.0820 0.0000
vt 0.9468 0.0728 0.0000
vt 0.9595 0.0820 0.0000
vt 0.8936 0.0732 0.0000
vt 0.8936 0.0732 0.0000
vt 0.8936 0.0732 0.0000
vt 0.8936 0.0732 0.0000
vt 0.8936 0.0732 0.0000
# 139 texture coords

o SM_Coral_Table_Acropora_07_LOD2
g SM_Coral_Table_Acropora_07_LOD2
usemtl MAT_Coral_Table
s 1
f 170/463/949 198/533/950 199/541/951 
f 204/566/952 192/519/953 168/462/954 
f 209/541/955 174/477/956 168/463/957 
f 170/461/958 199/543/959 185/496/960 
f 175/479/961 179/483/962 195/529/963 
f 205/572/964 193/527/965 196/531/966 
f 195/529/967 176/483/968 175/479/969 
f 173/475/970 182/498/971 211/585/972 
f 174/477/973 187/506/974 168/465/975 
f 206/568/976 197/505/977 170/468/978 
f 170/462/979 192/519/980 206/566/981 
f 196/531/982 194/527/983 205/572/984 
f 180/491/985 207/580/986 171/469/987 
f 171/469/988 208/580/989 180/491/990 
f 181/494/991 210/560/992 164/455/993 
f 164/455/994 202/560/995 181/494/996 
f 173/474/997 209/544/998 182/497/999 
f 185/497/1000 199/544/1001 173/474/1002 
f 188/508/1003 187/506/1004 198/534/1005 
f 170/465/1006 197/506/1007 198/533/1008 
f 189/512/1009 179/482/1010 175/478/1011 
f 175/478/1012 176/482/1013 189/512/1014 
f 180/489/1015 200/552/1016 207/578/1017 
f 196/532/1018 193/526/1019 202/557/1020 
f 168/468/1021 187/505/1022 204/568/1023 
f 197/505/1024 206/569/1025 203/563/1026 
f 191/517/1027 197/505/1028 177/484/1029 
f 163/453/1030 187/507/1031 178/487/1032 
f 210/557/1033 194/526/1034 196/532/1035 
f 170/467/1036 201/551/1037 208/579/1038 
f 208/578/1039 201/552/1040 180/489/1041 
f 165/458/1042 200/553/1043 180/490/1044 
f 172/471/1045 210/554/1046 181/492/1047 
f 181/493/1048 212/590/1049 172/471/1050 
f 207/579/1051 200/551/1052 168/467/1053 
f 182/496/1054 209/543/1055 168/461/1056 
f 183/499/1057 202/559/1058 164/452/1059 
f 164/452/1060 210/559/1061 183/499/1062 
f 184/501/1063 199/542/1064 174/502/1065 
f 174/502/1066 209/542/1067 184/501/1068 
f 180/490/1069 201/553/1070 165/458/1071 
f 211/585/1072 185/498/1073 173/475/1074 
f 173/503/1075 199/545/1076 186/504/1077 
f 186/504/1078 209/545/1079 173/503/1080 
f 203/563/1081 204/569/1082 187/505/1083 
f 177/484/1084 187/505/1085 191/517/1086 
f 198/534/1087 197/506/1088 188/508/1089 
f 178/488/1090 187/506/1091 188/509/1092 
f 167/457/1093 179/510/1094 189/511/1095 
f 189/511/1096 176/510/1097 167/457/1098 
f 190/513/1099 192/520/1100 204/567/1101 
f 203/562/1102 206/564/1103 169/464/1104 
f 163/486/1105 197/516/1106 191/515/1107 
f 191/515/1108 187/516/1109 163/486/1110 
f 170/518/1111 172/471/1112 192/519/1113 
f 172/473/1114 212/589/1115 192/519/1116 
f 193/521/1117 176/522/1118 168/523/1119 
f 167/524/1120 176/481/1121 193/525/1122 
f 170/523/1123 179/522/1124 194/521/1125 
f 194/525/1126 179/481/1127 167/524/1128 
f 171/470/1129 207/581/1130 195/528/1131 
f 195/528/1132 208/581/1133 171/470/1134 
f 196/530/1135 202/558/1136 183/500/1137 
f 183/500/1138 210/558/1139 196/530/1140 
f 188/509/1141 197/506/1142 178/488/1143 
f 178/487/1144 197/507/1145 163/453/1146 
f 198/533/1147 187/506/1148 174/477/1149 
f 199/540/1150 198/533/1151 174/476/1152 
f 186/535/1153 199/536/1154 166/537/1155 
f 166/456/1156 199/538/1157 184/539/1158 
f 200/546/1159 182/547/1160 168/548/1161 
f 165/549/1162 182/495/1163 200/550/1164 
f 170/548/1165 185/547/1166 201/546/1167 
f 201/550/1168 185/495/1169 165/549/1170 
f 192/519/1171 212/588/1172 168/518/1173 
f 202/555/1174 193/556/1175 168/460/1176 
f 203/561/1177 187/505/1178 177/485/1179 
f 177/485/1180 197/505/1181 203/561/1182 
f 169/464/1183 204/564/1184 203/562/1185 
f 169/466/1186 190/514/1187 204/565/1188 
f 205/570/1189 194/571/1190 167/459/1191 
f 167/459/1192 193/571/1193 205/570/1194 
f 206/567/1195 192/520/1196 190/513/1197 
f 206/565/1198 190/514/1199 169/466/1200 
f 176/573/1201 207/574/1202 168/575/1203 
f 195/576/1204 207/577/1205 176/480/1206 
f 170/575/1207 208/574/1208 179/573/1209 
f 179/480/1210 208/577/1211 195/576/1212 
f 166/537/1213 209/536/1214 186/535/1215 
f 184/539/1216 209/538/1217 166/456/1218 
f 170/460/1219 194/556/1220 210/555/1221 
f 170/472/1222 210/582/1223 172/471/1224 
f 211/583/1225 182/584/1226 165/454/1227 
f 165/454/1228 185/584/1229 211/583/1230 
f 212/586/1231 202/582/1232 168/472/1233 
f 181/492/1234 202/554/1235 212/587/1236 
# 96 faces

