# 3ds Max Wavefront OBJ Exporter v0.97b - (c)2007 guruware
# File Created: 10.02.2024 08:36:02

mtllib SM_Coral_Table_Acropora_04.mtl

#
# object SM_Coral_Table_Acropora_04_LOD0
#

v  -37.2592 8.2139 0.6333
v  -34.0675 8.2139 -19.0909
v  23.4608 7.3495 -22.8011
v  7.4844 7.1528 30.7354
v  -25.3524 8.6259 15.4860
v  -30.3349 9.6058 11.9561
v  -8.8046 7.1528 32.5729
v  -13.2183 8.6259 29.6894
v  -15.6072 8.6259 22.1266
v  19.2638 8.6259 23.0135
v  16.3801 8.6259 28.7726
v  -37.7006 8.2139 -11.4396
v  -34.5095 9.6058 7.0060
v  -14.8621 9.6058 -32.5465
v  -13.1162 8.6259 16.5513
v  30.1380 8.2182 -18.6727
v  37.6934 8.4929 -4.2263
v  34.0714 7.5129 6.7977
v  -23.9267 8.6259 16.1425
v  -25.9855 9.6058 13.2739
v  -19.6176 4.8967 -0.4989
v  -23.0075 9.6058 -29.6949
v  -8.0611 9.6058 -31.0790
v  -0.5433 4.8967 -17.0341
v  36.0481 7.9543 -11.7131
v  37.0160 8.4929 2.8094
v  17.5195 4.8967 0.5931
v  33.5327 7.5129 11.3482
v  15.7784 4.8967 4.8556
v  26.7008 7.5129 15.8295
v  19.3236 8.6259 26.2944
v  18.0102 8.6259 20.8741
v  2.7556 3.9167 14.5323
v  8.0178 3.9167 9.6100
v  0.7752 7.1528 28.9296
v  -4.1022 7.1528 32.4831
v  -13.2131 8.6259 18.6527
v  -14.9940 8.6259 25.1002
v  -5.3887 3.9167 15.4484
v  -18.5671 8.6259 15.2202
v  -13.9801 4.8967 5.8125
v  -7.5454 4.8967 7.4496
v  -3.0375 3.9167 15.4039
v  17.0347 3.5091 -6.7017
v  10.7405 3.5091 -12.1935
v  -8.4212 4.8967 -17.0616
v  -18.0230 4.8967 -10.3456
v  -1.9694 0.1997 -1.7202
v  15.1254 8.3464 -31.3124
v  5.9928 3.2491 -16.2096
v  0.8940 9.5775 -32.4937
v  15.1254 8.7693 -31.3124
v  21.3300 7.2945 -27.4974
v  -37.2942 8.0187 0.6593
v  -34.0927 8.0175 -19.1190
v  23.5025 7.1549 -22.8215
v  7.5038 6.9566 30.7689
v  -25.3115 8.4515 15.3970
v  -30.3722 9.4151 12.0031
v  -8.8408 6.9583 32.6024
v  -13.2895 8.4394 29.7021
v  -15.6072 8.4259 22.1266
v  19.2638 8.4259 23.0135
v  16.4163 8.4300 28.7912
v  -37.7348 8.0169 -11.4469
v  -34.5464 9.4148 7.0522
v  -14.8680 9.4139 -32.6024
v  -13.1861 8.4407 16.5800
v  30.1744 8.0244 -18.7058
v  37.7348 8.2973 -4.2189
v  34.1047 7.3158 6.7898
v  -23.9253 8.4369 16.0770
v  -26.0054 9.4105 13.3121
v  -19.6600 4.7021 -0.4808
v  -23.0271 9.4121 -29.7405
v  -8.0577 9.4157 -31.1407
v  -0.5639 4.7073 -17.0948
v  36.0901 7.7593 -11.7269
v  37.0529 8.2964 2.8036
v  17.5581 4.7016 0.6142
v  33.5569 7.3148 11.3619
v  15.8128 4.7012 4.8803
v  26.7120 7.3164 15.8652
v  19.3236 8.4259 26.2944
v  18.0503 8.4313 20.8973
v  2.7743 3.7214 14.5709
v  8.0578 3.7234 9.6423
v  0.7845 6.9573 28.9705
v  -4.0918 6.9567 32.5209
v  -13.3017 8.4466 18.6511
v  -14.9940 8.4259 25.1002
v  -5.4421 3.7255 15.4725
v  -18.5948 8.4334 15.2669
v  -14.0130 4.7075 5.8683
v  -7.6142 4.7143 7.4942
v  -3.0327 3.7212 15.4456
v  17.0726 3.3127 -6.7045
v  10.7721 3.3136 -12.2219
v  -8.4344 4.7043 -17.1146
v  -18.0566 4.7012 -10.3710
v  -1.9792 0.0000 -1.7174
v  15.0598 8.3464 -31.1235
v  5.9911 3.0550 -16.2575
v  0.8822 9.3878 -32.5560
v  15.0701 8.6153 -31.1974
v  21.3489 7.0996 -27.5380
# 106 vertices

vn -0.0071 0.9447 0.3278
vn 0.0999 0.9765 -0.1909
vn -0.2049 0.8718 0.4449
vn 0.1385 0.9624 -0.2335
vn 0.0999 0.9765 -0.1909
vn -0.0071 0.9447 0.3278
vn 0.1385 0.9624 -0.2335
vn 0.1645 0.9462 -0.2788
vn 0.0999 0.9765 -0.1909
vn 0.1645 0.9462 -0.2788
vn 0.1864 0.9539 -0.2351
vn 0.0999 0.9765 -0.1909
vn 0.1645 0.9462 -0.2788
vn 0.1845 0.9554 -0.2305
vn 0.1864 0.9539 -0.2351
vn 0.1645 0.9462 -0.2788
vn 0.2120 0.9731 -0.0905
vn 0.1845 0.9554 -0.2305
vn 0.2120 0.9731 -0.0905
vn 0.1752 0.9759 -0.1300
vn 0.1845 0.9554 -0.2305
vn 0.2120 0.9731 -0.0905
vn 0.1708 0.9846 0.0365
vn 0.1752 0.9759 -0.1300
vn 0.2120 0.9731 -0.0905
vn 0.1681 0.9775 0.1272
vn 0.1708 0.9846 0.0365
vn 0.1681 0.9775 0.1272
vn 0.1263 0.9820 0.1407
vn 0.1708 0.9846 0.0365
vn 0.1681 0.9775 0.1272
vn 0.0983 0.9687 0.2279
vn 0.1263 0.9820 0.1407
vn 0.1681 0.9775 0.1272
vn 0.0660 0.9619 0.2653
vn 0.0983 0.9687 0.2279
vn 0.0660 0.9619 0.2653
vn 0.0299 0.9597 0.2794
vn 0.0983 0.9687 0.2279
vn 0.0660 0.9619 0.2653
vn -0.0167 0.9510 0.3089
vn 0.0299 0.9597 0.2794
vn 0.0660 0.9619 0.2653
vn 0.1029 0.9472 0.3037
vn -0.0167 0.9510 0.3089
vn 0.1029 0.9472 0.3037
vn 0.0593 0.9484 0.3115
vn -0.0167 0.9510 0.3089
vn 0.1029 0.9472 0.3037
vn 0.0085 0.9709 0.2394
vn 0.0593 0.9484 0.3115
vn -0.1582 0.9772 0.1417
vn -0.2086 0.9727 0.1020
vn -0.0943 0.9747 0.2026
vn -0.1582 0.9772 0.1417
vn -0.1824 0.9692 0.1657
vn -0.2086 0.9727 0.1020
vn -0.1582 0.9772 0.1417
vn -0.1893 0.9818 0.0142
vn -0.1824 0.9692 0.1657
vn -0.1893 0.9818 0.0142
vn -0.2099 0.9753 0.0689
vn -0.1824 0.9692 0.1657
vn -0.1893 0.9818 0.0142
vn -0.2068 0.9777 -0.0369
vn -0.2099 0.9753 0.0689
vn -0.1893 0.9818 0.0142
vn -0.1928 0.9755 -0.1055
vn -0.2068 0.9777 -0.0369
vn -0.1928 0.9755 -0.1055
vn -0.1845 0.9824 0.0289
vn -0.2068 0.9777 -0.0369
vn -0.1928 0.9755 -0.1055
vn -0.1661 0.9853 0.0395
vn -0.1845 0.9824 0.0289
vn -0.1928 0.9755 -0.1055
vn -0.1720 0.9773 -0.1236
vn -0.1661 0.9853 0.0395
vn -0.1720 0.9773 -0.1236
vn -0.1209 0.9903 -0.0684
vn -0.1661 0.9853 0.0395
vn -0.1720 0.9773 -0.1236
vn -0.0559 0.9823 -0.1785
vn -0.1209 0.9903 -0.0684
vn -0.1720 0.9773 -0.1236
vn -0.2009 0.9727 -0.1164
vn -0.0559 0.9823 -0.1785
vn -0.2002 0.9664 -0.1613
vn -0.2009 0.9727 -0.1164
vn -0.1720 0.9773 -0.1236
vn -0.2002 0.9664 -0.1613
vn -0.1812 0.9791 -0.0928
vn -0.2009 0.9727 -0.1164
vn -0.2009 0.9727 -0.1164
vn -0.1812 0.9791 -0.0928
vn -0.0000 1.0000 -0.0000
vn -0.2009 0.9727 -0.1164
vn -0.0000 1.0000 -0.0000
vn -0.0000 1.0000 -0.0000
vn -0.2002 0.9664 -0.1613
vn -0.0935 0.9768 -0.1928
vn -0.1812 0.9791 -0.0928
vn -0.0935 0.9768 -0.1928
vn -0.0970 0.9811 -0.1676
vn -0.1812 0.9791 -0.0928
vn -0.0935 0.9768 -0.1928
vn -0.0466 0.9777 -0.2047
vn -0.0970 0.9811 -0.1676
vn -0.0935 0.9768 -0.1928
vn -0.0241 0.9778 -0.2082
vn -0.0466 0.9777 -0.2047
vn -0.0241 0.9778 -0.2082
vn -0.0517 0.9806 -0.1890
vn -0.0466 0.9777 -0.2047
vn -0.0241 0.9778 -0.2082
vn 0.2672 0.9561 -0.1205
vn -0.0517 0.9806 -0.1890
vn 0.2672 0.9561 -0.1205
vn 0.1813 0.9723 -0.1476
vn -0.0517 0.9806 -0.1890
vn 0.2672 0.9561 -0.1205
vn 0.3557 0.9325 -0.0633
vn 0.1813 0.9723 -0.1476
vn 0.2672 0.9561 -0.1205
vn 0.4429 0.8965 0.0080
vn 0.3557 0.9325 -0.0633
vn 0.4429 0.8965 0.0080
vn -0.0000 1.0000 -0.0000
vn 0.3557 0.9325 -0.0633
vn -0.0000 1.0000 -0.0000
vn 0.4429 0.8965 0.0080
vn 0.0000 1.0000 -0.0000
vn 0.2672 0.9561 -0.1205
vn 0.3491 0.9260 -0.1440
vn 0.4429 0.8965 0.0080
vn 0.2672 0.9561 -0.1205
vn 0.3440 0.9121 -0.2231
vn 0.3491 0.9260 -0.1440
vn 0.3440 0.9121 -0.2231
vn 0.1385 0.9624 -0.2335
vn 0.3491 0.9260 -0.1440
vn 0.3440 0.9121 -0.2231
vn 0.1645 0.9462 -0.2788
vn 0.1385 0.9624 -0.2335
vn 0.0490 0.9987 -0.0138
vn 0.1645 0.9462 -0.2788
vn 0.3440 0.9121 -0.2231
vn 0.2672 0.9561 -0.1205
vn 0.0490 0.9987 -0.0138
vn 0.3440 0.9121 -0.2231
vn -0.0241 0.9778 -0.2082
vn 0.0490 0.9987 -0.0138
vn 0.2672 0.9561 -0.1205
vn -0.0935 0.9768 -0.1928
vn 0.0490 0.9987 -0.0138
vn -0.0241 0.9778 -0.2082
vn -0.2002 0.9664 -0.1613
vn 0.0490 0.9987 -0.0138
vn -0.0935 0.9768 -0.1928
vn -0.1720 0.9773 -0.1236
vn 0.0490 0.9987 -0.0138
vn -0.2002 0.9664 -0.1613
vn -0.1928 0.9755 -0.1055
vn 0.0490 0.9987 -0.0138
vn -0.1720 0.9773 -0.1236
vn -0.1893 0.9818 0.0142
vn 0.0490 0.9987 -0.0138
vn -0.1928 0.9755 -0.1055
vn -0.1582 0.9772 0.1417
vn 0.0490 0.9987 -0.0138
vn -0.1893 0.9818 0.0142
vn 0.0085 0.9709 0.2394
vn 0.0490 0.9987 -0.0138
vn -0.1582 0.9772 0.1417
vn 0.1029 0.9472 0.3037
vn 0.0490 0.9987 -0.0138
vn 0.0085 0.9709 0.2394
vn 0.0660 0.9619 0.2653
vn 0.0490 0.9987 -0.0138
vn 0.1029 0.9472 0.3037
vn 0.1681 0.9775 0.1272
vn 0.0490 0.9987 -0.0138
vn 0.0660 0.9619 0.2653
vn 0.2120 0.9731 -0.0905
vn 0.0490 0.9987 -0.0138
vn 0.1681 0.9775 0.1272
vn 0.2120 0.9731 -0.0905
vn 0.1645 0.9462 -0.2788
vn 0.0490 0.9987 -0.0138
vn 0.0085 0.9709 0.2394
vn 0.2766 0.7700 -0.5749
vn 0.0593 0.9484 0.3115
vn -0.0943 0.9747 0.2026
vn 0.2766 0.7700 -0.5749
vn 0.0085 0.9709 0.2394
vn 0.0085 0.9709 0.2394
vn -0.1582 0.9772 0.1417
vn -0.0943 0.9747 0.2026
vn 0.0593 0.9484 0.3115
vn 0.2766 0.7700 -0.5749
vn 0.3280 0.0000 -0.9447
vn 0.2766 0.7700 -0.5749
vn -0.0943 0.9747 0.2026
vn 0.3280 0.0000 -0.9447
vn 0.2202 -0.8563 -0.4672
vn -0.0995 -0.9761 0.1933
vn 0.0089 -0.9411 -0.3381
vn 0.0089 -0.9411 -0.3381
vn -0.0995 -0.9761 0.1933
vn -0.1380 -0.9621 0.2352
vn -0.0995 -0.9761 0.1933
vn -0.1640 -0.9462 0.2789
vn -0.1380 -0.9621 0.2352
vn -0.0995 -0.9761 0.1933
vn -0.1864 -0.9540 0.2350
vn -0.1640 -0.9462 0.2789
vn -0.1864 -0.9540 0.2350
vn -0.1845 -0.9555 0.2303
vn -0.1640 -0.9462 0.2789
vn -0.1845 -0.9555 0.2303
vn -0.2119 -0.9731 0.0905
vn -0.1640 -0.9462 0.2789
vn -0.1845 -0.9555 0.2303
vn -0.1751 -0.9759 0.1301
vn -0.2119 -0.9731 0.0905
vn -0.1751 -0.9759 0.1301
vn -0.1708 -0.9846 -0.0365
vn -0.2119 -0.9731 0.0905
vn -0.1708 -0.9846 -0.0365
vn -0.1680 -0.9776 -0.1271
vn -0.2119 -0.9731 0.0905
vn -0.1708 -0.9846 -0.0365
vn -0.1263 -0.9820 -0.1408
vn -0.1680 -0.9776 -0.1271
vn -0.1263 -0.9820 -0.1408
vn -0.0983 -0.9687 -0.2279
vn -0.1680 -0.9776 -0.1271
vn -0.0983 -0.9687 -0.2279
vn -0.0659 -0.9620 -0.2651
vn -0.1680 -0.9776 -0.1271
vn -0.0983 -0.9687 -0.2279
vn -0.0299 -0.9597 -0.2794
vn -0.0659 -0.9620 -0.2651
vn -0.0299 -0.9597 -0.2794
vn 0.0165 -0.9510 -0.3088
vn -0.0659 -0.9620 -0.2651
vn 0.0165 -0.9510 -0.3088
vn -0.1026 -0.9473 -0.3034
vn -0.0659 -0.9620 -0.2651
vn 0.0165 -0.9510 -0.3088
vn -0.0563 -0.9471 -0.3160
vn -0.1026 -0.9473 -0.3034
vn -0.0563 -0.9471 -0.3160
vn -0.0083 -0.9706 -0.2404
vn -0.1026 -0.9473 -0.3034
vn 0.0968 -0.9722 -0.2133
vn 0.2084 -0.9727 -0.1022
vn 0.1580 -0.9772 -0.1416
vn 0.2084 -0.9727 -0.1022
vn 0.1824 -0.9692 -0.1656
vn 0.1580 -0.9772 -0.1416
vn 0.1824 -0.9692 -0.1656
vn 0.1892 -0.9818 -0.0141
vn 0.1580 -0.9772 -0.1416
vn 0.1824 -0.9692 -0.1656
vn 0.2098 -0.9753 -0.0690
vn 0.1892 -0.9818 -0.0141
vn 0.2098 -0.9753 -0.0690
vn 0.2068 -0.9777 0.0369
vn 0.1892 -0.9818 -0.0141
vn 0.2068 -0.9777 0.0369
vn 0.1926 -0.9756 0.1053
vn 0.1892 -0.9818 -0.0141
vn 0.2068 -0.9777 0.0369
vn 0.1844 -0.9824 -0.0289
vn 0.1926 -0.9756 0.1053
vn 0.1844 -0.9824 -0.0289
vn 0.1660 -0.9853 -0.0396
vn 0.1926 -0.9756 0.1053
vn 0.1660 -0.9853 -0.0396
vn 0.1719 -0.9773 0.1235
vn 0.1926 -0.9756 0.1053
vn 0.1660 -0.9853 -0.0396
vn 0.1209 -0.9903 0.0684
vn 0.1719 -0.9773 0.1235
vn 0.1209 -0.9903 0.0684
vn 0.0557 -0.9823 0.1786
vn 0.1719 -0.9773 0.1235
vn 0.0557 -0.9823 0.1786
vn 0.2006 -0.9727 0.1167
vn 0.1719 -0.9773 0.1235
vn 0.1719 -0.9773 0.1235
vn 0.2006 -0.9727 0.1167
vn 0.2001 -0.9665 0.1611
vn 0.2006 -0.9727 0.1167
vn 0.1814 -0.9790 0.0931
vn 0.2001 -0.9665 0.1611
vn -0.0022 -1.0000 -0.0005
vn 0.1814 -0.9790 0.0931
vn 0.2006 -0.9727 0.1167
vn -0.0047 -1.0000 0.0001
vn -0.0022 -1.0000 -0.0005
vn 0.2006 -0.9727 0.1167
vn 0.1814 -0.9790 0.0931
vn 0.0934 -0.9768 0.1927
vn 0.2001 -0.9665 0.1611
vn 0.1814 -0.9790 0.0931
vn 0.0970 -0.9811 0.1676
vn 0.0934 -0.9768 0.1927
vn 0.0970 -0.9811 0.1676
vn 0.0468 -0.9777 0.2046
vn 0.0934 -0.9768 0.1927
vn 0.0468 -0.9777 0.2046
vn 0.0224 -0.9779 0.2080
vn 0.0934 -0.9768 0.1927
vn 0.0468 -0.9777 0.2046
vn 0.0512 -0.9807 0.1888
vn 0.0224 -0.9779 0.2080
vn 0.0512 -0.9807 0.1888
vn -0.2685 -0.9558 0.1202
vn 0.0224 -0.9779 0.2080
vn 0.0512 -0.9807 0.1888
vn -0.1812 -0.9723 0.1476
vn -0.2685 -0.9558 0.1202
vn -0.1812 -0.9723 0.1476
vn -0.3562 -0.9322 0.0638
vn -0.2685 -0.9558 0.1202
vn -0.3562 -0.9322 0.0638
vn -0.4429 -0.8965 -0.0090
vn -0.2685 -0.9558 0.1202
vn -0.3562 -0.9322 0.0638
vn 0.0093 -1.0000 -0.0008
vn -0.4429 -0.8965 -0.0090
vn 0.0068 -1.0000 -0.0014
vn -0.4429 -0.8965 -0.0090
vn 0.0093 -1.0000 -0.0008
vn -0.4429 -0.8965 -0.0090
vn -0.3488 -0.9262 0.1431
vn -0.2685 -0.9558 0.1202
vn -0.3488 -0.9262 0.1431
vn -0.3424 -0.9127 0.2231
vn -0.2685 -0.9558 0.1202
vn -0.3488 -0.9262 0.1431
vn -0.1380 -0.9621 0.2352
vn -0.3424 -0.9127 0.2231
vn -0.1380 -0.9621 0.2352
vn -0.1640 -0.9462 0.2789
vn -0.3424 -0.9127 0.2231
vn -0.3424 -0.9127 0.2231
vn -0.1640 -0.9462 0.2789
vn -0.0489 -0.9987 0.0137
vn -0.3424 -0.9127 0.2231
vn -0.0489 -0.9987 0.0137
vn -0.2685 -0.9558 0.1202
vn -0.2685 -0.9558 0.1202
vn -0.0489 -0.9987 0.0137
vn 0.0224 -0.9779 0.2080
vn 0.0224 -0.9779 0.2080
vn -0.0489 -0.9987 0.0137
vn 0.0934 -0.9768 0.1927
vn 0.0934 -0.9768 0.1927
vn -0.0489 -0.9987 0.0137
vn 0.2001 -0.9665 0.1611
vn 0.2001 -0.9665 0.1611
vn -0.0489 -0.9987 0.0137
vn 0.1719 -0.9773 0.1235
vn 0.1719 -0.9773 0.1235
vn -0.0489 -0.9987 0.0137
vn 0.1926 -0.9756 0.1053
vn 0.1926 -0.9756 0.1053
vn -0.0489 -0.9987 0.0137
vn 0.1892 -0.9818 -0.0141
vn 0.1892 -0.9818 -0.0141
vn -0.0489 -0.9987 0.0137
vn 0.1580 -0.9772 -0.1416
vn 0.1580 -0.9772 -0.1416
vn -0.0489 -0.9987 0.0137
vn -0.0083 -0.9706 -0.2404
vn -0.0083 -0.9706 -0.2404
vn -0.0489 -0.9987 0.0137
vn -0.1026 -0.9473 -0.3034
vn -0.1026 -0.9473 -0.3034
vn -0.0489 -0.9987 0.0137
vn -0.0659 -0.9620 -0.2651
vn -0.0659 -0.9620 -0.2651
vn -0.0489 -0.9987 0.0137
vn -0.1680 -0.9776 -0.1271
vn -0.1680 -0.9776 -0.1271
vn -0.0489 -0.9987 0.0137
vn -0.2119 -0.9731 0.0905
vn -0.0489 -0.9987 0.0137
vn -0.1640 -0.9462 0.2789
vn -0.2119 -0.9731 0.0905
vn -0.0563 -0.9471 -0.3160
vn -0.2874 -0.6921 0.6621
vn -0.0083 -0.9706 -0.2404
vn -0.0083 -0.9706 -0.2404
vn -0.2874 -0.6921 0.6621
vn 0.0968 -0.9722 -0.2133
vn 0.0968 -0.9722 -0.2133
vn 0.1580 -0.9772 -0.1416
vn -0.0083 -0.9706 -0.2404
vn -0.2816 0.2645 0.9223
vn -0.2874 -0.6921 0.6621
vn -0.0563 -0.9471 -0.3160
vn -0.2816 0.2645 0.9223
vn 0.0968 -0.9722 -0.2133
vn -0.2874 -0.6921 0.6621
vn -0.7261 0.1926 0.6600
vn -0.7220 -0.4341 0.5387
vn -0.7241 -0.4311 0.5384
vn -0.7241 -0.4311 0.5384
vn -0.5976 0.2137 0.7728
vn -0.7261 0.1926 0.6600
vn -0.7220 -0.4341 0.5387
vn -0.1437 -0.3198 0.9365
vn -0.1278 -0.3344 0.9337
vn -0.1278 -0.3344 0.9337
vn -0.7241 -0.4311 0.5384
vn -0.7220 -0.4341 0.5387
vn -0.1437 -0.3198 0.9365
vn -0.0268 0.2390 0.9706
vn -0.0575 0.2370 0.9698
vn -0.0575 0.2370 0.9698
vn -0.1278 -0.3344 0.9337
vn -0.1437 -0.3198 0.9365
vn -0.5283 0.2979 0.7950
vn -0.7261 0.1926 0.6600
vn -0.5976 0.2137 0.7728
vn -0.5976 0.2137 0.7728
vn -0.5207 0.2987 0.7998
vn -0.5283 0.2979 0.7950
vn -0.8309 0.2770 0.4826
vn -0.5283 0.2979 0.7950
vn -0.5207 0.2987 0.7998
vn -0.5207 0.2987 0.7998
vn -0.8313 0.2765 0.4822
vn -0.8309 0.2770 0.4826
vn -0.9608 0.1987 0.1933
vn -0.8309 0.2770 0.4826
vn -0.8313 0.2765 0.4822
vn -0.8313 0.2765 0.4822
vn -0.9605 0.1983 0.1954
vn -0.9608 0.1987 0.1933
vn -0.9643 0.1747 -0.1990
vn -0.9608 0.1987 0.1933
vn -0.9605 0.1983 0.1954
vn -0.9605 0.1983 0.1954
vn -0.9644 0.1747 -0.1986
vn -0.9643 0.1747 -0.1990
vn -0.8027 0.1845 -0.5671
vn -0.9643 0.1747 -0.1990
vn -0.9644 0.1747 -0.1986
vn -0.9644 0.1747 -0.1986
vn -0.8021 0.1847 -0.5679
vn -0.8027 0.1845 -0.5671
vn -0.5179 0.2452 -0.8196
vn -0.8027 0.1845 -0.5671
vn -0.8021 0.1847 -0.5679
vn -0.8021 0.1847 -0.5679
vn -0.5156 0.2457 -0.8209
vn -0.5179 0.2452 -0.8196
vn -0.0621 0.2807 -0.9578
vn -0.5179 0.2452 -0.8196
vn -0.5156 0.2457 -0.8209
vn -0.5156 0.2457 -0.8209
vn -0.0579 0.2812 -0.9579
vn -0.0621 0.2807 -0.9578
vn 0.0258 0.3089 -0.9508
vn -0.0621 0.2807 -0.9578
vn -0.0579 0.2812 -0.9579
vn -0.0579 0.2812 -0.9579
vn 0.0279 0.3093 -0.9506
vn 0.0258 0.3089 -0.9508
vn -0.0159 0.3126 -0.9497
vn 0.0258 0.3089 -0.9508
vn 0.0279 0.3093 -0.9506
vn 0.0279 0.3093 -0.9506
vn -0.0145 0.3087 -0.9511
vn -0.0159 0.3126 -0.9497
vn 0.7228 0.2227 -0.6541
vn 0.7437 0.1953 -0.6393
vn 0.7465 0.2046 -0.6332
vn 0.7465 0.2046 -0.6332
vn 0.7225 0.2238 -0.6541
vn 0.7228 0.2227 -0.6541
vn 0.6245 0.2440 -0.7419
vn 0.7228 0.2227 -0.6541
vn 0.7225 0.2238 -0.6541
vn 0.7225 0.2238 -0.6541
vn 0.6261 0.2441 -0.7405
vn 0.6245 0.2440 -0.7419
vn 0.8728 0.2190 -0.4361
vn 0.6245 0.2440 -0.7419
vn 0.6261 0.2441 -0.7405
vn 0.6261 0.2441 -0.7405
vn 0.8716 0.2184 -0.4390
vn 0.8728 0.2190 -0.4361
vn 0.9768 0.2044 -0.0640
vn 0.8728 0.2190 -0.4361
vn 0.8716 0.2184 -0.4390
vn 0.8716 0.2184 -0.4390
vn 0.9767 0.2038 -0.0670
vn 0.9768 0.2044 -0.0640
vn 0.9159 0.1614 0.3676
vn 0.9768 0.2044 -0.0640
vn 0.9767 0.2038 -0.0670
vn 0.9767 0.2038 -0.0670
vn 0.9169 0.1611 0.3653
vn 0.9159 0.1614 0.3676
vn 0.9162 0.1397 0.3756
vn 0.9159 0.1614 0.3676
vn 0.9169 0.1611 0.3653
vn 0.9169 0.1611 0.3653
vn 0.9160 0.1389 0.3763
vn 0.9162 0.1397 0.3756
vn 0.8432 0.1393 0.5193
vn 0.9162 0.1397 0.3756
vn 0.9160 0.1389 0.3763
vn 0.9160 0.1389 0.3763
vn 0.8417 0.1392 0.5217
vn 0.8432 0.1393 0.5193
vn 0.5256 0.1805 0.8313
vn 0.8432 0.1393 0.5193
vn 0.8417 0.1392 0.5217
vn 0.8417 0.1392 0.5217
vn 0.5254 0.1812 0.8313
vn 0.5256 0.1805 0.8313
vn 0.9446 0.2236 0.2402
vn 0.5256 0.1805 0.8313
vn 0.5254 0.1812 0.8313
vn 0.5254 0.1812 0.8313
vn 0.9489 0.2184 0.2279
vn 0.9446 0.2236 0.2402
vn 0.4327 0.1609 0.8871
vn 0.9125 0.0000 0.4090
vn 0.9124 0.0034 0.4093
vn 0.9124 0.0034 0.4093
vn 0.4210 0.1629 0.8923
vn 0.4327 0.1609 0.8871
vn 0.9125 0.0000 0.4090
vn 0.9628 0.0031 -0.2703
vn 0.9627 0.0000 -0.2707
vn 0.9627 0.0000 -0.2707
vn 0.9124 0.0034 0.4093
vn 0.9125 0.0000 0.4090
vn 0.9628 0.0031 -0.2703
vn 0.9446 0.2236 0.2402
vn 0.9489 0.2184 0.2279
vn 0.9489 0.2184 0.2279
vn 0.9627 0.0000 -0.2707
vn 0.9628 0.0031 -0.2703
vn -0.0345 0.1645 0.9858
vn 0.4327 0.1609 0.8871
vn 0.4210 0.1629 0.8923
vn 0.4210 0.1629 0.8923
vn -0.0401 0.1648 0.9855
vn -0.0345 0.1645 0.9858
vn 0.1757 0.2091 0.9620
vn -0.0345 0.1645 0.9858
vn -0.0401 0.1648 0.9855
vn -0.0401 0.1648 0.9855
vn 0.1802 0.2095 0.9611
vn 0.1757 0.2091 0.9620
vn 0.3098 0.1960 0.9304
vn 0.1757 0.2091 0.9620
vn 0.1802 0.2095 0.9611
vn 0.1802 0.2095 0.9611
vn 0.3138 0.1952 0.9292
vn 0.3098 0.1960 0.9304
vn -0.2385 0.1896 0.9524
vn 0.3098 0.1960 0.9304
vn 0.3138 0.1952 0.9292
vn 0.3138 0.1952 0.9292
vn -0.2400 0.1893 0.9521
vn -0.2385 0.1896 0.9524
vn -0.7216 0.3169 0.6156
vn -0.2385 0.1896 0.9524
vn -0.2400 0.1893 0.9521
vn -0.2400 0.1893 0.9521
vn -0.7133 0.3096 0.6288
vn -0.7216 0.3169 0.6156
vn -0.9594 0.0046 0.2821
vn -0.7216 0.3169 0.6156
vn -0.7133 0.3096 0.6288
vn -0.7133 0.3096 0.6288
vn -0.9593 0.0000 0.2824
vn -0.9594 0.0046 0.2821
vn -0.8516 0.4174 -0.3171
vn -0.9819 0.0000 -0.1894
vn -0.9817 0.0061 -0.1902
vn -0.9817 0.0061 -0.1902
vn -0.8625 0.4247 -0.2751
vn -0.8516 0.4174 -0.3171
vn -0.9819 0.0000 -0.1894
vn -0.9594 0.0046 0.2821
vn -0.9593 0.0000 0.2824
vn -0.9593 0.0000 0.2824
vn -0.9817 0.0061 -0.1902
vn -0.9819 0.0000 -0.1894
vn -0.7161 0.3660 0.5944
vn -0.8516 0.4174 -0.3171
vn -0.8625 0.4247 -0.2751
vn -0.8625 0.4247 -0.2751
vn -0.7606 0.3700 0.5335
vn -0.7161 0.3660 0.5944
vn -0.0268 0.2390 0.9706
vn -0.7161 0.3660 0.5944
vn -0.7606 0.3700 0.5335
vn -0.7606 0.3700 0.5335
vn -0.0575 0.2370 0.9698
vn -0.0268 0.2390 0.9706
vn -0.1225 -0.9914 -0.0464
vn -0.0159 0.3126 -0.9497
vn -0.0145 0.3087 -0.9511
vn -0.0145 0.3087 -0.9511
vn -0.1190 -0.9916 -0.0514
vn -0.1225 -0.9914 -0.0464
vn 0.7437 0.1953 -0.6393
vn -0.1225 -0.9914 -0.0464
vn -0.1190 -0.9916 -0.0514
vn -0.1190 -0.9916 -0.0514
vn 0.7465 0.2046 -0.6332
vn 0.7437 0.1953 -0.6393
# 624 vertex normals

vt 0.5215 0.1968 0.0000
vt 0.4465 0.0596 0.0000
vt 0.4446 0.0659 0.0000
vt 0.4504 0.0576 0.0000
vt 0.4504 0.0576 0.0000
vt 0.4446 0.0659 0.0000
vt 0.4658 0.0601 0.0000
vt 0.4446 0.0659 0.0000
vt 0.4790 0.0874 0.0000
vt 0.4658 0.0601 0.0000
vt 0.4446 0.0659 0.0000
vt 0.4321 0.0693 0.0000
vt 0.4790 0.0874 0.0000
vt 0.4321 0.0693 0.0000
vt 0.4202 0.0835 0.0000
vt 0.4790 0.0874 0.0000
vt 0.4202 0.0835 0.0000
vt 0.4629 0.1055 0.0000
vt 0.4790 0.0874 0.0000
vt 0.4202 0.0835 0.0000
vt 0.4124 0.1021 0.0000
vt 0.4629 0.1055 0.0000
vt 0.4124 0.1021 0.0000
vt 0.4109 0.1367 0.0000
vt 0.4629 0.1055 0.0000
vt 0.4109 0.1367 0.0000
vt 0.4675 0.1338 0.0000
vt 0.4629 0.1055 0.0000
vt 0.4109 0.1367 0.0000
vt 0.4214 0.1582 0.0000
vt 0.4675 0.1338 0.0000
vt 0.4214 0.1582 0.0000
vt 0.4531 0.1890 0.0000
vt 0.4675 0.1338 0.0000
vt 0.4531 0.1890 0.0000
vt 0.4951 0.1528 0.0000
vt 0.4675 0.1338 0.0000
vt 0.4531 0.1890 0.0000
vt 0.4766 0.1968 0.0000
vt 0.4951 0.1528 0.0000
vt 0.4766 0.1968 0.0000
vt 0.4961 0.1929 0.0000
vt 0.4951 0.1528 0.0000
vt 0.4961 0.1929 0.0000
vt 0.5176 0.1528 0.0000
vt 0.4951 0.1528 0.0000
vt 0.4961 0.1929 0.0000
vt 0.5215 0.1968 0.0000
vt 0.5176 0.1528 0.0000
vt 0.5215 0.1968 0.0000
vt 0.5381 0.1514 0.0000
vt 0.5176 0.1528 0.0000
vt 0.5625 0.1934 0.0000
vt 0.5498 0.1392 0.0000
vt 0.5801 0.1826 0.0000
vt 0.5864 0.1689 0.0000
vt 0.5498 0.1392 0.0000
vt 0.5864 0.1689 0.0000
vt 0.6055 0.1572 0.0000
vt 0.5498 0.1392 0.0000
vt 0.6055 0.1572 0.0000
vt 0.5679 0.1230 0.0000
vt 0.5498 0.1392 0.0000
vt 0.6055 0.1572 0.0000
vt 0.6226 0.1377 0.0000
vt 0.5679 0.1230 0.0000
vt 0.6226 0.1377 0.0000
vt 0.6270 0.1157 0.0000
vt 0.5679 0.1230 0.0000
vt 0.6270 0.1157 0.0000
vt 0.5693 0.1025 0.0000
vt 0.5679 0.1230 0.0000
vt 0.6270 0.1157 0.0000
vt 0.6250 0.0957 0.0000
vt 0.5693 0.1025 0.0000
vt 0.6250 0.0957 0.0000
vt 0.6167 0.0845 0.0000
vt 0.5693 0.1025 0.0000
vt 0.6167 0.0845 0.0000
vt 0.5645 0.0903 0.0000
vt 0.5693 0.1025 0.0000
vt 0.6167 0.0845 0.0000
vt 0.6152 0.0713 0.0000
vt 0.5645 0.0903 0.0000
vt 0.6152 0.0713 0.0000
vt 0.5957 0.0586 0.0000
vt 0.5645 0.0903 0.0000
vt 0.5957 0.0586 0.0000
vt 0.5708 0.0439 0.0000
vt 0.5645 0.0903 0.0000
vt 0.5645 0.0903 0.0000
vt 0.5708 0.0439 0.0000
vt 0.5420 0.0767 0.0000
vt 0.5708 0.0439 0.0000
vt 0.5659 0.0215 0.0000
vt 0.5420 0.0767 0.0000
vt 0.5742 0.0283 0.0000
vt 0.5659 0.0215 0.0000
vt 0.5708 0.0439 0.0000
vt 0.5742 0.0381 0.0000
vt 0.5742 0.0283 0.0000
vt 0.5708 0.0439 0.0000
vt 0.5659 0.0215 0.0000
vt 0.5269 0.0625 0.0000
vt 0.5420 0.0767 0.0000
vt 0.5659 0.0215 0.0000
vt 0.5405 0.0156 0.0000
vt 0.5269 0.0625 0.0000
vt 0.5405 0.0156 0.0000
vt 0.5215 0.0210 0.0000
vt 0.5269 0.0625 0.0000
vt 0.5215 0.0210 0.0000
vt 0.5103 0.0601 0.0000
vt 0.5269 0.0625 0.0000
vt 0.5215 0.0210 0.0000
vt 0.5073 0.0107 0.0000
vt 0.5103 0.0601 0.0000
vt 0.5073 0.0107 0.0000
vt 0.5034 0.0596 0.0000
vt 0.5103 0.0601 0.0000
vt 0.5073 0.0107 0.0000
vt 0.4939 0.0103 0.0000
vt 0.5034 0.0596 0.0000
vt 0.4939 0.0103 0.0000
vt 0.4812 0.0186 0.0000
vt 0.5034 0.0596 0.0000
vt 0.4812 0.0186 0.0000
vt 0.4812 0.0503 0.0000
vt 0.5034 0.0596 0.0000
vt 0.4812 0.0186 0.0000
vt 0.4761 0.0317 0.0000
vt 0.4812 0.0503 0.0000
vt 0.4744 0.0405 0.0000
vt 0.4812 0.0503 0.0000
vt 0.4761 0.0317 0.0000
vt 0.4812 0.0503 0.0000
vt 0.4814 0.0562 0.0000
vt 0.5034 0.0596 0.0000
vt 0.4814 0.0562 0.0000
vt 0.4976 0.0825 0.0000
vt 0.5034 0.0596 0.0000
vt 0.4814 0.0562 0.0000
vt 0.4658 0.0601 0.0000
vt 0.4976 0.0825 0.0000
vt 0.4658 0.0601 0.0000
vt 0.4790 0.0874 0.0000
vt 0.4976 0.0825 0.0000
vt 0.4976 0.0825 0.0000
vt 0.4790 0.0874 0.0000
vt 0.5132 0.1089 0.0000
vt 0.4976 0.0825 0.0000
vt 0.5132 0.1089 0.0000
vt 0.5034 0.0596 0.0000
vt 0.5034 0.0596 0.0000
vt 0.5132 0.1089 0.0000
vt 0.5103 0.0601 0.0000
vt 0.5103 0.0601 0.0000
vt 0.5132 0.1089 0.0000
vt 0.5269 0.0625 0.0000
vt 0.5269 0.0625 0.0000
vt 0.5132 0.1089 0.0000
vt 0.5420 0.0767 0.0000
vt 0.5420 0.0767 0.0000
vt 0.5132 0.1089 0.0000
vt 0.5645 0.0903 0.0000
vt 0.5645 0.0903 0.0000
vt 0.5132 0.1089 0.0000
vt 0.5693 0.1025 0.0000
vt 0.5693 0.1025 0.0000
vt 0.5132 0.1089 0.0000
vt 0.5679 0.1230 0.0000
vt 0.5679 0.1230 0.0000
vt 0.5132 0.1089 0.0000
vt 0.5498 0.1392 0.0000
vt 0.5498 0.1392 0.0000
vt 0.5132 0.1089 0.0000
vt 0.5381 0.1514 0.0000
vt 0.5381 0.1514 0.0000
vt 0.5132 0.1089 0.0000
vt 0.5176 0.1528 0.0000
vt 0.5176 0.1528 0.0000
vt 0.5132 0.1089 0.0000
vt 0.4951 0.1528 0.0000
vt 0.4951 0.1528 0.0000
vt 0.5132 0.1089 0.0000
vt 0.4675 0.1338 0.0000
vt 0.4675 0.1338 0.0000
vt 0.5132 0.1089 0.0000
vt 0.4629 0.1055 0.0000
vt 0.5132 0.1089 0.0000
vt 0.4790 0.0874 0.0000
vt 0.4629 0.1055 0.0000
vt 0.5381 0.1514 0.0000
vt 0.5381 0.1514 0.0000
vt 0.5215 0.1968 0.0000
vt 0.5625 0.1934 0.0000
vt 0.5625 0.1934 0.0000
vt 0.5801 0.1826 0.0000
vt 0.0000 0.0000 0.0000
vt 0.0000 0.0500 0.0000
vt 0.0106 0.0000 0.0000
vt 0.0106 0.0500 0.0000
vt 0.0172 0.0000 0.0000
vt 0.0172 0.0500 0.0000
vt 0.0402 0.0000 0.0000
vt 0.0402 0.0500 0.0000
vt 0.0639 0.0000 0.0000
vt 0.0639 0.0500 0.0000
vt 0.0728 0.0000 0.0000
vt 0.0728 0.0500 0.0000
vt 0.0906 0.0000 0.0000
vt 0.0906 0.0500 0.0000
vt 0.1034 0.0000 0.0000
vt 0.1034 0.0500 0.0000
vt 0.1242 0.0000 0.0000
vt 0.1242 0.0500 0.0000
vt 0.1474 0.0000 0.0000
vt 0.1474 0.0500 0.0000
vt 0.1672 0.0000 0.0000
vt 0.1672 0.0500 0.0000
vt 0.1927 0.0000 0.0000
vt 0.1927 0.0500 0.0000
vt 0.2221 0.0000 0.0000
vt 0.2221 0.0500 0.0000
vt 0.2611 0.0000 0.0000
vt 0.2611 0.0500 0.0000
vt 0.2774 0.0000 0.0000
vt 0.2774 0.0500 0.0000
vt 0.2912 0.0000 0.0000
vt 0.2912 0.0500 0.0000
vt 0.3017 0.0000 0.0000
vt 0.3017 0.0500 0.0000
vt 0.3444 0.0000 0.0000
vt 0.3444 0.0500 0.0000
vt 0.3790 0.0000 0.0000
vt 0.3790 0.0500 0.0000
vt 0.3983 0.0000 0.0000
vt 0.3983 0.0500 0.0000
vt 0.4197 0.0000 0.0000
vt 0.4197 0.0500 0.0000
vt 0.4496 0.0000 0.0000
vt 0.4496 0.0500 0.0000
vt 0.4820 0.0000 0.0000
vt 0.4820 0.0500 0.0000
vt 0.5206 0.0000 0.0000
vt 0.5206 0.0500 0.0000
vt 0.5540 0.0000 0.0000
vt 0.5540 0.0500 0.0000
vt 0.5758 0.0000 0.0000
vt 0.5758 0.0500 0.0000
vt 0.6069 0.0000 0.0000
vt 0.6069 0.0500 0.0000
vt 0.6675 0.0000 0.0000
vt 0.6675 0.0500 0.0000
vt 0.7058 0.0000 0.0000
vt 0.7058 0.0500 0.0000
vt 0.7352 0.0000 0.0000
vt 0.7352 0.0500 0.0000
vt 0.7717 0.0000 0.0000
vt 0.7717 0.0500 0.0000
vt 0.8367 0.0000 0.0000
vt 0.8367 0.0500 0.0000
vt 0.8725 0.0000 0.0000
vt 0.8725 0.0500 0.0000
vt 0.9235 0.0000 0.0000
vt 0.9235 0.0500 0.0000
vt 0.9534 0.0000 0.0000
vt 0.9534 0.0500 0.0000
vt 0.9808 0.0000 0.0000
vt 0.9808 0.0500 0.0000
vt 1.0000 0.0000 0.0000
vt 1.0000 0.0500 0.0000
# 272 texture coords

o SM_Coral_Table_Acropora_04_LOD0
g SM_Coral_Table_Acropora_04_LOD0
usemtl MAT_Coral_Table
s 1
f 19/4/1 20/3/2 5/2/3 
f 40/7/4 20/6/5 19/5/6 
f 40/10/7 41/9/8 20/8/9 
f 41/13/10 6/12/11 20/11/12 
f 41/16/13 13/15/14 6/14/15 
f 41/19/16 21/18/17 13/17/18 
f 21/22/19 1/21/20 13/20/21 
f 21/25/22 12/24/23 1/23/24 
f 21/28/25 47/27/26 12/26/27 
f 47/31/28 2/30/29 12/29/30 
f 47/34/31 22/33/32 2/32/33 
f 47/37/34 46/36/35 22/35/36 
f 46/40/37 14/39/38 22/38/39 
f 46/43/40 23/42/41 14/41/42 
f 46/46/43 24/45/44 23/44/45 
f 24/49/46 51/48/47 23/47/48 
f 24/52/49 50/51/50 51/50/51 
f 45/57/52 3/56/53 53/55/54 
f 45/60/55 16/59/56 3/58/57 
f 45/63/58 44/62/59 16/61/60 
f 44/66/61 25/65/62 16/64/63 
f 44/69/64 17/68/65 25/67/66 
f 44/72/67 27/71/68 17/70/69 
f 27/75/70 26/74/71 17/73/72 
f 27/78/73 18/77/74 26/76/75 
f 27/81/76 29/80/77 18/79/78 
f 29/84/79 28/83/80 18/82/81 
f 29/87/82 30/86/83 28/85/84 
f 29/90/85 32/89/86 30/88/87 
f 34/93/88 32/92/89 29/91/90 
f 34/96/91 11/95/92 32/94/93 
f 32/99/94 11/98/95 31/97/96 
f 32/102/97 31/101/98 10/100/99 
f 34/105/100 33/104/101 11/103/102 
f 33/108/103 4/107/104 11/106/105 
f 33/111/106 35/110/107 4/109/108 
f 33/114/109 43/113/110 35/112/111 
f 43/117/112 36/116/113 35/115/114 
f 43/120/115 39/119/116 36/118/117 
f 39/123/118 7/122/119 36/121/120 
f 39/126/121 8/125/122 7/124/123 
f 39/129/124 37/128/125 8/127/126 
f 37/132/127 38/131/128 8/130/129 
f 38/135/130 37/134/131 9/133/132 
f 39/138/133 15/137/134 37/136/135 
f 39/141/136 42/140/137 15/139/138 
f 42/144/139 40/143/140 15/142/141 
f 42/147/142 41/146/143 40/145/144 
f 48/150/145 41/149/146 42/148/147 
f 39/153/148 48/152/149 42/151/150 
f 43/156/151 48/155/152 39/154/153 
f 33/159/154 48/158/155 43/157/156 
f 34/162/157 48/161/158 33/160/159 
f 29/165/160 48/164/161 34/163/162 
f 27/168/163 48/167/164 29/166/165 
f 44/171/166 48/170/167 27/169/168 
f 45/174/169 48/173/170 44/172/171 
f 50/177/172 48/176/173 45/175/174 
f 24/180/175 48/179/176 50/178/177 
f 46/183/178 48/182/179 24/181/180 
f 47/186/181 48/185/182 46/184/183 
f 21/189/184 48/188/185 47/187/186 
f 21/192/187 41/191/188 48/190/189 
f 50/194/190 52/196/191 51/195/192 
f 53/198/193 52/197/194 50/193/195 
f 50/193/196 45/54/197 53/198/198 
f 51/1/199 52/196/200 49/53/201 
f 52/196/202 53/198/203 49/53/204 
f 58/2/205 73/3/206 72/4/207 
f 72/5/208 73/6/209 93/7/210 
f 73/8/211 94/9/212 93/10/213 
f 73/11/214 59/12/215 94/13/216 
f 59/14/217 66/15/218 94/16/219 
f 66/17/220 74/18/221 94/19/222 
f 66/20/223 54/21/224 74/22/225 
f 54/23/226 65/24/227 74/25/228 
f 65/26/229 100/27/230 74/28/231 
f 65/29/232 55/30/233 100/31/234 
f 55/32/235 75/33/236 100/34/237 
f 75/35/238 99/36/239 100/37/240 
f 75/38/241 67/39/242 99/40/243 
f 67/41/244 76/42/245 99/43/246 
f 76/44/247 77/45/248 99/46/249 
f 76/47/250 104/48/251 77/49/252 
f 104/50/253 103/51/254 77/52/255 
f 106/55/256 56/56/257 98/57/258 
f 56/58/259 69/59/260 98/60/261 
f 69/61/262 97/62/263 98/63/264 
f 69/64/265 78/65/266 97/66/267 
f 78/67/268 70/68/269 97/69/270 
f 70/70/271 80/71/272 97/72/273 
f 70/73/274 79/74/275 80/75/276 
f 79/76/277 71/77/278 80/78/279 
f 71/79/280 82/80/281 80/81/282 
f 71/82/283 81/83/284 82/84/285 
f 81/85/286 83/86/287 82/87/288 
f 83/88/289 85/89/290 82/90/291 
f 82/91/292 85/92/293 87/93/294 
f 85/94/295 64/95/296 87/96/297 
f 84/97/298 64/98/299 85/99/300 
f 63/100/301 84/101/302 85/102/303 
f 64/103/304 86/104/305 87/105/306 
f 64/106/307 57/107/308 86/108/309 
f 57/109/310 88/110/311 86/111/312 
f 88/112/313 96/113/314 86/114/315 
f 88/115/316 89/116/317 96/117/318 
f 89/118/319 92/119/320 96/120/321 
f 89/121/322 60/122/323 92/123/324 
f 60/124/325 61/125/326 92/126/327 
f 61/127/328 90/128/329 92/129/330 
f 61/130/331 91/131/332 90/132/333 
f 62/133/334 90/134/335 91/135/336 
f 90/136/337 68/137/338 92/138/339 
f 68/139/340 95/140/341 92/141/342 
f 68/142/343 93/143/344 95/144/345 
f 93/145/346 94/146/347 95/147/348 
f 95/148/349 94/149/350 101/150/351 
f 95/151/352 101/152/353 92/153/354 
f 92/154/355 101/155/356 96/156/357 
f 96/157/358 101/158/359 86/159/360 
f 86/160/361 101/161/362 87/162/363 
f 87/163/364 101/164/365 82/165/366 
f 82/166/367 101/167/368 80/168/369 
f 80/169/370 101/170/371 97/171/372 
f 97/172/373 101/173/374 98/174/375 
f 98/175/376 101/176/377 103/177/378 
f 103/178/379 101/179/380 77/180/381 
f 77/181/382 101/182/383 99/183/384 
f 99/184/385 101/185/386 100/186/387 
f 100/187/388 101/188/389 74/189/390 
f 101/190/391 94/191/392 74/192/393 
f 104/195/394 105/196/395 103/194/396 
f 103/193/397 105/197/398 106/198/399 
f 106/198/400 98/54/401 103/193/402 
f 102/53/403 105/196/404 104/1/405 
f 102/53/406 106/198/407 105/196/408 
s 2
f 73/272/409 58/270/410 5/269/411 
f 5/269/412 20/271/413 73/272/414 
f 58/270/415 72/268/416 19/267/417 
f 19/267/418 5/269/419 58/270/420 
f 72/268/421 93/266/422 40/265/423 
f 40/265/424 19/267/425 72/268/426 
f 59/202/427 73/200/428 20/199/429 
f 20/199/430 6/201/431 59/202/432 
f 66/204/433 59/202/434 6/201/435 
f 6/201/436 13/203/437 66/204/438 
f 54/206/439 66/204/440 13/203/441 
f 13/203/442 1/205/443 54/206/444 
f 65/208/445 54/206/446 1/205/447 
f 1/205/448 12/207/449 65/208/450 
f 55/210/451 65/208/452 12/207/453 
f 12/207/454 2/209/455 55/210/456 
f 75/212/457 55/210/458 2/209/459 
f 2/209/460 22/211/461 75/212/462 
f 67/214/463 75/212/464 22/211/465 
f 22/211/466 14/213/467 67/214/468 
f 76/216/469 67/214/470 14/213/471 
f 14/213/472 23/215/473 76/216/474 
f 104/218/475 76/216/476 23/215/477 
f 23/215/478 51/217/479 104/218/480 
f 56/224/481 106/222/482 53/221/483 
f 53/221/484 3/223/485 56/224/486 
f 69/226/487 56/224/488 3/223/489 
f 3/223/490 16/225/491 69/226/492 
f 78/228/493 69/226/494 16/225/495 
f 16/225/496 25/227/497 78/228/498 
f 70/230/499 78/228/500 25/227/501 
f 25/227/502 17/229/503 70/230/504 
f 79/232/505 70/230/506 17/229/507 
f 17/229/508 26/231/509 79/232/510 
f 71/234/511 79/232/512 26/231/513 
f 26/231/514 18/233/515 71/234/516 
f 81/236/517 71/234/518 18/233/519 
f 18/233/520 28/235/521 81/236/522 
f 83/238/523 81/236/524 28/235/525 
f 28/235/526 30/237/527 83/238/528 
f 85/240/529 83/238/530 30/237/531 
f 30/237/532 32/239/533 85/240/534 
f 64/246/535 84/244/536 31/243/537 
f 31/243/538 11/245/539 64/246/540 
f 84/244/541 63/242/542 10/241/543 
f 10/241/544 31/243/545 84/244/546 
f 63/242/547 85/240/548 32/239/549 
f 32/239/550 10/241/551 63/242/552 
f 57/248/553 64/246/554 11/245/555 
f 11/245/556 4/247/557 57/248/558 
f 88/250/559 57/248/560 4/247/561 
f 4/247/562 35/249/563 88/250/564 
f 89/252/565 88/250/566 35/249/567 
f 35/249/568 36/251/569 89/252/570 
f 60/254/571 89/252/572 36/251/573 
f 36/251/574 7/253/575 60/254/576 
f 61/256/577 60/254/578 7/253/579 
f 7/253/580 8/255/581 61/256/582 
f 91/258/583 61/256/584 8/255/585 
f 8/255/586 38/257/587 91/258/588 
f 90/262/589 62/260/590 9/259/591 
f 9/259/592 37/261/593 90/262/594 
f 62/260/595 91/258/596 38/257/597 
f 38/257/598 9/259/599 62/260/600 
f 68/264/601 90/262/602 37/261/603 
f 37/261/604 15/263/605 68/264/606 
f 93/266/607 68/264/608 15/263/609 
f 15/263/610 40/265/611 93/266/612 
f 102/220/613 104/218/614 51/217/615 
f 51/217/616 49/219/617 102/220/618 
f 106/222/619 102/220/620 49/219/621 
f 49/219/622 53/221/623 106/222/624 
# 208 faces

#
# object SM_Coral_Table_Acropora_04_LOD1
#

v  -13.1861 8.4407 16.5800
v  21.3489 7.0996 -27.5380
v  37.0160 8.4929 2.8094
v  -37.7348 8.0169 -11.4469
v  -14.8621 9.6058 -32.5465
v  19.3236 8.6259 26.2944
v  -8.8408 6.9583 32.6024
v  -1.9792 0.0000 -1.7174
v  -1.9694 0.1997 -1.7202
v  -25.3524 8.6259 15.4860
v  33.5327 7.5129 11.3482
v  -37.2942 8.0187 0.6593
v  0.7845 6.9573 28.9705
v  36.0481 7.9543 -11.7131
v  -15.6072 8.6259 22.1266
v  18.0102 8.6259 20.8741
v  0.8940 9.5775 -32.4937
v  23.4608 7.3495 -22.8011
v  -13.2183 8.6259 29.6894
v  -23.0075 9.6058 -29.6949
v  -26.0054 9.4105 13.3121
v  15.8128 4.7012 4.8803
v  15.0598 8.3464 -31.1235
v  15.7784 4.8967 4.8556
v  -34.0927 8.0175 -19.1190
v  7.4844 7.1528 30.7354
v  -34.5464 9.4148 7.0522
v  -4.1022 7.1528 32.4831
v  5.9911 3.0550 -16.2575
v  30.1380 8.2182 -18.6727
v  -30.3722 9.4151 12.0031
v  34.0714 7.5129 6.7977
v  -18.5671 8.6259 15.2202
v  -8.0577 9.4157 -31.1407
v  37.6934 8.4929 -4.2263
v  5.9928 3.2491 -16.2096
v  16.4163 8.4300 28.7912
v  -5.4421 3.7255 15.4725
v  -19.6176 4.8967 -0.4989
v  -18.0230 4.8967 -10.3456
v  -7.5454 4.8967 7.4496
v  19.2638 8.4259 23.0135
v  -13.3017 8.4466 18.6511
v  -5.3887 3.9167 15.4484
v  -18.0566 4.7012 -10.3710
v  -19.6600 4.7021 -0.4808
v  17.0726 3.3127 -6.7045
v  17.0347 3.5091 -6.7017
v  26.7120 7.3164 15.8652
v  8.0178 3.9167 9.6100
v  -23.9253 8.4369 16.0770
v  -14.0130 4.7075 5.8683
v  8.0578 3.7234 9.6423
v  -7.6142 4.7143 7.4942
v  -13.9801 4.8967 5.8125
v  17.5581 4.7016 0.6142
v  17.5195 4.8967 0.5931
v  -14.9940 8.4259 25.1002
v  -8.4344 4.7043 -17.1146
v  2.7556 3.9167 14.5323
v  -8.4212 4.8967 -17.0616
v  15.1254 8.7693 -31.3124
v  2.7743 3.7214 14.5709
v  10.7721 3.3136 -12.2219
v  10.7405 3.5091 -12.1935
v  15.1254 8.3464 -31.3124
v  -0.5639 4.7073 -17.0948
v  18.0503 8.4313 20.8973
v  -0.5433 4.8967 -17.0341
v  16.3801 8.6259 28.7726
v  -18.5948 8.4334 15.2669
v  -13.2131 8.6259 18.6527
v  -25.9855 9.6058 13.2739
v  0.8822 9.3878 -32.5560
v  -3.0327 3.7212 15.4456
v  -8.0611 9.6058 -31.0790
v  37.7348 8.2973 -4.2189
v  0.7752 7.1528 28.9296
v  -37.7006 8.2139 -11.4396
v  -4.0918 6.9567 32.5209
v  21.3300 7.2945 -27.4974
v  -23.0271 9.4121 -29.7405
v  34.1047 7.3158 6.7898
v  30.1744 8.0244 -18.7058
v  -34.5095 9.6058 7.0060
# 85 vertices

vn 0.0939 -0.9765 0.1942
vn -0.0489 -0.9987 0.0137
vn 0.2001 -0.9665 0.1611
vn -0.0899 0.9770 -0.1932
vn -0.0291 -0.0671 0.9973
vn -0.1812 0.9791 -0.0928
vn 0.2103 0.9734 -0.0905
vn 0.1638 0.9464 -0.2785
vn 0.0490 0.9987 -0.0141
vn -0.0489 -0.9987 0.0137
vn -0.1640 -0.9462 0.2789
vn -0.2119 -0.9731 0.0905
vn 0.1869 -0.9682 -0.1665
vn 0.6718 -0.0011 -0.7407
vn 0.1905 -0.9816 -0.0145
vn 0.1664 0.9780 0.1260
vn 0.0490 0.9987 -0.0141
vn 0.0660 0.9619 0.2653
vn 0.2001 -0.9665 0.1611
vn -0.0489 -0.9987 0.0137
vn 0.1729 -0.9771 0.1240
vn -0.2002 0.9664 -0.1613
vn -0.1788 0.9763 -0.1218
vn -0.1706 0.9778 -0.1220
vn -0.5268 0.2860 0.8004
vn -0.4462 -0.8949 -0.0018
vn -0.2696 -0.9553 0.1217
vn 0.2466 0.9605 -0.1292
vn 0.3427 0.9134 -0.2197
vn -0.0556 0.5539 -0.8308
vn -0.0624 -0.9456 -0.3192
vn -0.0123 -0.9396 -0.3420
vn -0.0092 -0.9712 -0.2382
vn -0.0913 -0.9676 -0.2355
vn -0.0665 -0.9616 -0.2665
vn -0.1680 -0.9776 -0.1271
vn -0.1582 0.9772 0.1417
vn -0.1893 0.9818 0.0142
vn -0.1824 0.9692 0.1657
vn 0.0085 0.9709 0.2394
vn 0.2766 0.7700 -0.5749
vn 0.0593 0.9484 0.3115
vn 0.3427 0.9134 -0.2197
vn 0.1638 0.9464 -0.2785
vn 0.1429 0.9659 -0.2161
vn -0.3424 -0.9127 0.2231
vn -0.1640 -0.9462 0.2789
vn -0.0489 -0.9987 0.0137
vn 0.2111 -0.9767 0.0378
vn 0.1936 -0.9754 0.1054
vn 0.1905 -0.9816 -0.0145
vn -0.1706 0.9778 -0.1220
vn -0.1788 0.9763 -0.1218
vn 0.9294 0.0124 0.3688
vn -0.1680 -0.9776 -0.1271
vn -0.0489 -0.9987 0.0137
vn -0.2119 -0.9731 0.0905
vn 0.2103 0.9734 -0.0905
vn 0.0490 0.9987 -0.0141
vn 0.1664 0.9780 0.1260
vn 0.0587 -0.9768 0.2061
vn 0.0512 -0.9807 0.1888
vn 0.0224 -0.9779 0.2080
vn -0.0899 0.9770 -0.1932
vn 0.2466 0.9605 -0.1292
vn -0.0359 0.9795 -0.1980
vn -0.1893 0.9818 0.0142
vn 0.0490 0.9987 -0.0141
vn -0.1928 0.9755 -0.1055
vn 0.6718 -0.0011 -0.7407
vn 0.2111 -0.9767 0.0378
vn 0.1905 -0.9816 -0.0145
vn 0.4316 0.9019 -0.0182
vn -0.9365 -0.0869 0.3397
vn -0.5268 0.2860 0.8004
vn -0.5268 0.2860 0.8004
vn -0.9365 -0.0869 0.3397
vn -0.4462 -0.8949 -0.0018
vn 0.1729 -0.9771 0.1240
vn 0.2015 -0.9718 0.1222
vn 0.2001 -0.9665 0.1611
vn -0.2002 0.9664 -0.1613
vn -0.1812 0.9791 -0.0928
vn -0.1788 0.9763 -0.1218
vn 0.0020 -0.9510 -0.3092
vn -0.0624 -0.9456 -0.3192
vn -0.1026 -0.9473 -0.3034
vn 0.1029 0.9472 0.3037
vn 0.0593 0.9484 0.3115
vn -0.0167 0.9510 0.3089
vn -0.1582 0.9772 0.1417
vn 0.8817 0.3941 -0.2595
vn -0.0943 0.9747 0.2026
vn 0.1275 -0.9713 -0.2009
vn 0.8817 0.3941 -0.2595
vn 0.1589 -0.9770 -0.1424
vn 0.2466 0.9605 -0.1292
vn 0.4316 0.9019 -0.0182
vn -0.5268 0.2860 0.8004
vn -0.9663 -0.0228 0.2564
vn -0.5268 0.2860 0.8004
vn -0.2696 -0.9553 0.1217
vn 0.1664 0.9780 0.1260
vn 0.0660 0.9619 0.2653
vn 0.0927 0.9689 0.2294
vn -0.0913 -0.9676 -0.2355
vn 0.0052 0.1355 -0.9908
vn -0.0665 -0.9616 -0.2665
vn -0.3096 -0.3950 0.8650
vn -0.1156 -0.9728 0.2008
vn -0.1380 -0.9621 0.2352
vn 0.1429 0.9659 -0.2161
vn 0.0918 0.9740 -0.2069
vn -0.3096 -0.3950 0.8650
vn 0.8864 0.4072 0.2204
vn 0.1713 -0.9844 -0.0409
vn 0.1936 -0.9754 0.1054
vn 0.9294 0.0124 0.3688
vn 0.2015 -0.9718 0.1222
vn 0.1729 -0.9771 0.1240
vn 0.0085 0.9709 0.2394
vn -0.1582 0.9772 0.1417
vn -0.0943 0.9747 0.2026
vn -0.0943 0.9747 0.2026
vn 0.2766 0.7700 -0.5749
vn 0.0085 0.9709 0.2394
vn 0.1275 -0.9713 -0.2009
vn 0.1589 -0.9770 -0.1424
vn -0.0092 -0.9712 -0.2382
vn -0.0092 -0.9712 -0.2382
vn -0.0123 -0.9396 -0.3420
vn 0.1275 -0.9713 -0.2009
vn -0.1893 0.9818 0.0142
vn -0.1928 0.9755 -0.1055
vn -0.2068 0.9777 -0.0369
vn -0.1928 0.9755 -0.1055
vn -0.1661 0.9853 0.0395
vn 0.8864 0.4072 0.2204
vn 0.1664 0.9780 0.1260
vn 0.0927 0.9689 0.2294
vn -0.4338 0.0105 -0.9010
vn -0.1708 -0.9846 -0.0365
vn -0.1680 -0.9776 -0.1271
vn -0.2119 -0.9731 0.0905
vn 0.0587 -0.9768 0.2061
vn 0.0224 -0.9779 0.2080
vn 0.0939 -0.9765 0.1942
vn -0.0899 0.9770 -0.1932
vn -0.0359 0.9795 -0.1980
vn -0.0291 -0.0671 0.9973
vn 0.2103 0.9734 -0.0905
vn 0.1678 0.9853 0.0315
vn -0.9708 -0.2051 -0.1244
vn -0.1845 -0.9555 0.2303
vn -0.2119 -0.9731 0.0905
vn -0.1640 -0.9462 0.2789
vn 0.2466 0.9605 -0.1292
vn -0.0786 0.9805 -0.1803
vn -0.0359 0.9795 -0.1980
vn 0.0512 -0.9807 0.1888
vn -0.9663 -0.0228 0.2564
vn -0.2696 -0.9553 0.1217
vn 0.1869 -0.9682 -0.1665
vn 0.1905 -0.9816 -0.0145
vn 0.1589 -0.9770 -0.1424
vn -0.0624 -0.9456 -0.3192
vn -0.0092 -0.9712 -0.2382
vn -0.1026 -0.9473 -0.3034
vn 0.8817 0.3941 -0.2595
vn 0.1869 -0.9682 -0.1665
vn 0.1589 -0.9770 -0.1424
vn -0.1582 0.9772 0.1417
vn -0.1824 0.9692 0.1657
vn 0.8817 0.3941 -0.2595
vn -0.1156 -0.9728 0.2008
vn -0.1640 -0.9462 0.2789
vn -0.1380 -0.9621 0.2352
vn 0.1638 0.9464 -0.2785
vn 0.1789 0.9564 -0.2307
vn -0.3650 0.1106 0.9244
vn 0.1713 -0.9844 -0.0409
vn 0.0078 0.0227 0.9997
vn 0.1729 -0.9771 0.1240
vn -0.1706 0.9778 -0.1220
vn 0.0078 0.0227 0.9997
vn -0.1661 0.9853 0.0395
vn -0.1380 -0.9621 0.2352
vn -0.1640 -0.9462 0.2789
vn -0.3424 -0.9127 0.2231
vn 0.3427 0.9134 -0.2197
vn 0.1429 0.9659 -0.2161
vn -0.0556 0.5539 -0.8308
vn 0.0660 0.9619 0.2653
vn 0.1029 0.9472 0.3037
vn -0.0167 0.9510 0.3089
vn 0.0052 0.1355 -0.9908
vn 0.0020 -0.9510 -0.3092
vn -0.0665 -0.9616 -0.2665
vn 0.2111 -0.9767 0.0378
vn 0.8864 0.4072 0.2204
vn 0.1936 -0.9754 0.1054
vn -0.1928 0.9755 -0.1055
vn 0.8864 0.4072 0.2204
vn -0.2068 0.9777 -0.0369
vn -0.1582 0.9772 0.1417
vn 0.0490 0.9987 -0.0141
vn -0.1893 0.9818 0.0142
vn 0.1029 0.9472 0.3037
vn 0.0085 0.9709 0.2394
vn 0.0593 0.9484 0.3115
vn -0.1788 0.9763 -0.1218
vn -0.1812 0.9791 -0.0928
vn 0.9868 0.0026 0.1620
vn 0.9868 0.0026 0.1620
vn 0.1946 -0.9754 0.1038
vn 0.2015 -0.9718 0.1222
vn 0.0224 -0.9779 0.2080
vn -0.0489 -0.9987 0.0137
vn 0.0939 -0.9765 0.1942
vn -0.3424 -0.9127 0.2231
vn -0.0489 -0.9987 0.0137
vn -0.2696 -0.9553 0.1217
vn 0.2103 0.9734 -0.0905
vn -0.9708 -0.2051 -0.1244
vn 0.1789 0.9564 -0.2307
vn 0.1638 0.9464 -0.2785
vn 0.2103 0.9734 -0.0905
vn 0.1789 0.9564 -0.2307
vn 0.1664 0.9780 0.1260
vn -0.4338 0.0105 -0.9010
vn 0.1678 0.9853 0.0315
vn 0.2103 0.9734 -0.0905
vn 0.1664 0.9780 0.1260
vn 0.1678 0.9853 0.0315
vn 0.2466 0.9605 -0.1292
vn 0.0490 0.9987 -0.0141
vn 0.3427 0.9134 -0.2197
vn 0.0490 0.9987 -0.0141
vn 0.1638 0.9464 -0.2785
vn 0.3427 0.9134 -0.2197
vn 0.9685 -0.2488 -0.0025
vn 0.9868 0.0026 0.1620
vn 0.2015 -0.9718 0.1222
vn -0.1788 0.9763 -0.1218
vn 0.9868 0.0026 0.1620
vn 0.9685 -0.2488 -0.0025
vn 0.2466 0.9605 -0.1292
vn -0.0556 0.5539 -0.8308
vn 0.4316 0.9019 -0.0182
vn -0.4462 -0.8949 -0.0018
vn -0.0556 0.5539 -0.8308
vn -0.2696 -0.9553 0.1217
vn 0.2466 0.9605 -0.1292
vn -0.5268 0.2860 0.8004
vn -0.9663 -0.0228 0.2564
vn 0.2466 0.9605 -0.1292
vn -0.9663 -0.0228 0.2564
vn -0.0786 0.9805 -0.1803
vn -0.4338 0.0105 -0.9010
vn -0.0913 -0.9676 -0.2355
vn -0.1680 -0.9776 -0.1271
vn -0.1708 -0.9846 -0.0365
vn -0.4338 0.0105 -0.9010
vn -0.1680 -0.9776 -0.1271
vn -0.9708 -0.2051 -0.1244
vn -0.1708 -0.9846 -0.0365
vn -0.2119 -0.9731 0.0905
vn -0.1845 -0.9555 0.2303
vn -0.9708 -0.2051 -0.1244
vn -0.2119 -0.9731 0.0905
vn 0.1905 -0.9816 -0.0145
vn -0.0489 -0.9987 0.0137
vn 0.1589 -0.9770 -0.1424
vn 0.1936 -0.9754 0.1054
vn -0.0489 -0.9987 0.0137
vn 0.1905 -0.9816 -0.0145
vn -0.1893 0.9818 0.0142
vn -0.2068 0.9777 -0.0369
vn 0.6718 -0.0011 -0.7407
vn -0.1893 0.9818 0.0142
vn 0.6718 -0.0011 -0.7407
vn -0.1824 0.9692 0.1657
vn -0.1706 0.9778 -0.1220
vn 0.9294 0.0124 0.3688
vn 0.0078 0.0227 0.9997
vn 0.0078 0.0227 0.9997
vn 0.9294 0.0124 0.3688
vn 0.1729 -0.9771 0.1240
vn -0.2002 0.9664 -0.1613
vn -0.0899 0.9770 -0.1932
vn -0.1812 0.9791 -0.0928
vn -0.1706 0.9778 -0.1220
vn 0.0490 0.9987 -0.0141
vn -0.2002 0.9664 -0.1613
vn -0.3096 -0.3950 0.8650
vn 0.0918 0.9740 -0.2069
vn -0.3906 -0.4646 0.7947
vn -0.3906 -0.4646 0.7947
vn -0.1156 -0.9728 0.2008
vn -0.3096 -0.3950 0.8650
vn -0.3650 0.1106 0.9244
vn -0.1845 -0.9555 0.2303
vn -0.1640 -0.9462 0.2789
vn -0.1156 -0.9728 0.2008
vn -0.3650 0.1106 0.9244
vn -0.1640 -0.9462 0.2789
vn 0.1946 -0.9754 0.1038
vn 0.0939 -0.9765 0.1942
vn 0.2001 -0.9665 0.1611
vn 0.2015 -0.9718 0.1222
vn 0.1946 -0.9754 0.1038
vn 0.2001 -0.9665 0.1611
vn -0.0556 0.5539 -0.8308
vn -0.1380 -0.9621 0.2352
vn -0.3424 -0.9127 0.2231
vn -0.0556 0.5539 -0.8308
vn -0.3424 -0.9127 0.2231
vn -0.2696 -0.9553 0.1217
vn 0.1638 0.9464 -0.2785
vn -0.3650 0.1106 0.9244
vn 0.0918 0.9740 -0.2069
vn 0.1429 0.9659 -0.2161
vn 0.1638 0.9464 -0.2785
vn 0.0918 0.9740 -0.2069
vn 0.1729 -0.9771 0.1240
vn -0.0489 -0.9987 0.0137
vn 0.1936 -0.9754 0.1054
vn 0.1713 -0.9844 -0.0409
vn 0.1729 -0.9771 0.1240
vn 0.1936 -0.9754 0.1054
vn -0.1928 0.9755 -0.1055
vn 0.0490 0.9987 -0.0141
vn -0.1706 0.9778 -0.1220
vn -0.1928 0.9755 -0.1055
vn -0.1706 0.9778 -0.1220
vn -0.1661 0.9853 0.0395
vn -0.9365 -0.0869 0.3397
vn 0.4316 0.9019 -0.0182
vn -0.9793 0.0064 0.2024
vn -0.9793 0.0064 0.2024
vn -0.4462 -0.8949 -0.0018
vn -0.9365 -0.0869 0.3397
vn 0.0020 -0.9510 -0.3092
vn -0.1026 -0.9473 -0.3034
vn -0.0665 -0.9616 -0.2665
vn -0.0665 -0.9616 -0.2665
vn -0.0489 -0.9987 0.0137
vn -0.1680 -0.9776 -0.1271
vn -0.2002 0.9664 -0.1613
vn 0.0490 0.9987 -0.0141
vn -0.0899 0.9770 -0.1932
vn -0.0899 0.9770 -0.1932
vn 0.0490 0.9987 -0.0141
vn 0.2466 0.9605 -0.1292
vn 0.0660 0.9619 0.2653
vn -0.0167 0.9510 0.3089
vn 0.0052 0.1355 -0.9908
vn 0.0660 0.9619 0.2653
vn 0.0052 0.1355 -0.9908
vn 0.0927 0.9689 0.2294
vn 0.2766 0.7700 -0.5749
vn -0.0943 0.9747 0.2026
vn 0.3280 0.0000 -0.9447
vn 0.0593 0.9484 0.3115
vn 0.2766 0.7700 -0.5749
vn 0.3280 0.0000 -0.9447
vn -0.0291 -0.0671 0.9973
vn 0.0587 -0.9768 0.2061
vn 0.0939 -0.9765 0.1942
vn 0.1946 -0.9754 0.1038
vn -0.0291 -0.0671 0.9973
vn 0.0939 -0.9765 0.1942
vn 0.1589 -0.9770 -0.1424
vn -0.0489 -0.9987 0.0137
vn -0.0092 -0.9712 -0.2382
vn 0.0085 0.9709 0.2394
vn 0.0490 0.9987 -0.0141
vn -0.1582 0.9772 0.1417
vn -0.1190 -0.9916 -0.0514
vn 0.7474 0.2038 -0.6324
vn 0.7419 0.1954 -0.6414
vn 0.7419 0.1954 -0.6414
vn -0.1225 -0.9914 -0.0464
vn -0.1190 -0.9916 -0.0514
vn -0.1225 -0.9914 -0.0464
vn -0.0159 0.3126 -0.9497
vn -0.0145 0.3087 -0.9511
vn -0.0145 0.3087 -0.9511
vn -0.1190 -0.9916 -0.0514
vn -0.1225 -0.9914 -0.0464
vn -0.1026 -0.9473 -0.3034
vn -0.0489 -0.9987 0.0137
vn -0.0665 -0.9616 -0.2665
vn -0.0092 -0.9712 -0.2382
vn -0.0489 -0.9987 0.0137
vn -0.1026 -0.9473 -0.3034
vn 0.8615 0.1189 -0.4937
vn 0.9447 0.2238 0.2399
vn 0.9422 0.2243 0.2488
vn 0.5113 0.2053 0.8345
vn 0.9422 0.2243 0.2488
vn 0.9447 0.2238 0.2399
vn 0.0660 0.9619 0.2653
vn 0.0490 0.9987 -0.0141
vn 0.1029 0.9472 0.3037
vn 0.1029 0.9472 0.3037
vn 0.0490 0.9987 -0.0141
vn 0.0085 0.9709 0.2394
vn -0.0640 0.1654 0.9841
vn 0.4297 0.1637 0.8880
vn 0.4205 0.1624 0.8926
vn 0.6325 0.1883 0.7513
vn 0.4205 0.1624 0.8926
vn 0.4297 0.1637 0.8880
vn -0.8463 0.4661 0.2579
vn -0.0576 0.2432 0.9683
vn -0.0264 0.2392 0.9706
vn 0.1469 0.2132 0.9659
vn -0.0264 0.2392 0.9706
vn -0.0576 0.2432 0.9683
vn -0.8463 0.4661 0.2579
vn -0.8504 0.4229 -0.3130
vn -0.8589 0.4269 -0.2829
vn -0.7614 0.3808 -0.5247
vn -0.8589 0.4269 -0.2829
vn -0.8504 0.4229 -0.3130
vn -0.4855 0.2540 0.8365
vn -0.7158 0.2039 0.6679
vn -0.6030 0.2121 0.7690
vn -0.9278 0.1608 0.3367
vn -0.6030 0.2121 0.7690
vn -0.7158 0.2039 0.6679
vn -0.0159 0.3126 -0.9497
vn 0.0242 0.3092 -0.9507
vn 0.0279 0.3093 -0.9506
vn 0.0279 0.3093 -0.9506
vn -0.0145 0.3087 -0.9511
vn -0.0159 0.3126 -0.9497
vn -0.2696 -0.9553 0.1217
vn -0.0489 -0.9987 0.0137
vn 0.0224 -0.9779 0.2080
vn 0.0512 -0.9807 0.1888
vn -0.2696 -0.9553 0.1217
vn 0.0224 -0.9779 0.2080
vn -0.0328 0.2899 -0.9565
vn 0.0279 0.3093 -0.9506
vn 0.0242 0.3092 -0.9507
vn 0.8993 0.1566 0.4084
vn 0.9768 0.2042 -0.0645
vn 0.9766 0.2040 -0.0674
vn 0.8812 0.2234 -0.4166
vn 0.9766 0.2040 -0.0674
vn 0.9768 0.2042 -0.0645
vn 0.1802 0.2095 0.9611
vn 0.3176 0.1958 0.9278
vn 0.3098 0.1960 0.9304
vn 0.3098 0.1960 0.9304
vn 0.1797 0.2096 0.9611
vn 0.1802 0.2095 0.9611
vn -0.0640 0.1654 0.9841
vn 0.1802 0.2095 0.9611
vn 0.1797 0.2096 0.9611
vn -0.8295 0.1945 -0.5235
vn -0.9643 0.1747 -0.1991
vn -0.9645 0.1747 -0.1982
vn -0.9473 0.2266 0.2265
vn -0.9645 0.1747 -0.1982
vn -0.9643 0.1747 -0.1991
vn 0.0169 0.1903 0.9816
vn 0.3098 0.1960 0.9304
vn 0.3176 0.1958 0.9278
vn 0.7670 0.2062 -0.6076
vn 0.7419 0.1954 -0.6414
vn 0.7474 0.2038 -0.6324
vn -0.0328 0.2899 -0.9565
vn -0.5192 0.2453 -0.8187
vn -0.5148 0.2455 -0.8214
vn -0.8295 0.1945 -0.5235
vn -0.5148 0.2455 -0.8214
vn -0.5192 0.2453 -0.8187
vn 0.9802 0.1606 0.1161
vn 0.9164 0.1395 0.3752
vn 0.9162 0.1394 0.3756
vn 0.8993 0.1566 0.4084
vn 0.9162 0.1394 0.3756
vn 0.9164 0.1395 0.3752
vn 0.8812 0.2234 -0.4166
vn 0.6242 0.2443 -0.7420
vn 0.6257 0.2444 -0.7408
vn 0.7670 0.2062 -0.6076
vn 0.6257 0.2444 -0.7408
vn 0.6242 0.2443 -0.7420
vn -0.9473 0.2266 0.2265
vn -0.8310 0.2769 0.4825
vn -0.8314 0.2769 0.4818
vn -0.4855 0.2540 0.8365
vn -0.8314 0.2769 0.4818
vn -0.8310 0.2769 0.4825
# 498 vertex normals

vt 0.4814 0.0562 0.0000
vt 0.5801 0.1826 0.0000
vt 0.6250 0.0957 0.0000
vt 0.4109 0.1367 0.0000
vt 0.5801 0.1826 0.0000
vt 0.6250 0.0957 0.0000
vt 0.4766 0.1968 0.0000
vt 0.5742 0.0283 0.0000
vt 0.4939 0.0103 0.0000
vt 0.4814 0.0562 0.0000
vt 0.4939 0.0103 0.0000
vt 0.4766 0.1968 0.0000
vt 0.5132 0.1089 0.0000
vt 0.5132 0.1089 0.0000
vt 0.5132 0.1089 0.0000
vt 0.5132 0.1089 0.0000
vt 0.5132 0.1089 0.0000
vt 0.5132 0.1089 0.0000
vt 0.5132 0.1089 0.0000
vt 0.5132 0.1089 0.0000
vt 0.5132 0.1089 0.0000
vt 0.4465 0.0596 0.0000
vt 0.4814 0.0562 0.0000
vt 0.6152 0.0713 0.0000
vt 0.5132 0.1089 0.0000
vt 0.4124 0.1021 0.0000
vt 0.5215 0.0210 0.0000
vt 0.5215 0.0210 0.0000
vt 0.5215 0.0210 0.0000
vt 0.6226 0.1377 0.0000
vt 0.6226 0.1377 0.0000
vt 0.4744 0.0405 0.0000
vt 0.5708 0.0439 0.0000
vt 0.5708 0.0439 0.0000
vt 0.5708 0.0439 0.0000
vt 0.5215 0.1968 0.0000
vt 0.5215 0.1968 0.0000
vt 0.5864 0.1689 0.0000
vt 0.5864 0.1689 0.0000
vt 0.4812 0.0186 0.0000
vt 0.4812 0.0186 0.0000
vt 0.4812 0.0186 0.0000
vt 0.4531 0.1890 0.0000
vt 0.4531 0.1890 0.0000
vt 0.4446 0.0659 0.0000
vt 0.4446 0.0659 0.0000
vt 0.6152 0.0713 0.0000
vt 0.5645 0.0903 0.0000
vt 0.5645 0.0903 0.0000
vt 0.5645 0.0903 0.0000
vt 0.5645 0.0903 0.0000
vt 0.5625 0.1934 0.0000
vt 0.4531 0.1890 0.0000
vt 0.4214 0.1582 0.0000
vt 0.4214 0.1582 0.0000
vt 0.5405 0.0156 0.0000
vt 0.5405 0.0156 0.0000
vt 0.4202 0.0835 0.0000
vt 0.4109 0.1367 0.0000
vt 0.4124 0.1021 0.0000
vt 0.5073 0.0107 0.0000
vt 0.5073 0.0107 0.0000
vt 0.5381 0.1514 0.0000
vt 0.5215 0.1968 0.0000
vt 0.5381 0.1514 0.0000
vt 0.5381 0.1514 0.0000
vt 0.5381 0.1514 0.0000
vt 0.6055 0.1572 0.0000
vt 0.6055 0.1572 0.0000
vt 0.6055 0.1572 0.0000
vt 0.4321 0.0693 0.0000
vt 0.4202 0.0835 0.0000
vt 0.4321 0.0693 0.0000
vt 0.6167 0.0845 0.0000
vt 0.5645 0.0903 0.0000
vt 0.6167 0.0845 0.0000
vt 0.4658 0.0601 0.0000
vt 0.4658 0.0601 0.0000
vt 0.4658 0.0601 0.0000
vt 0.4658 0.0601 0.0000
vt 0.4961 0.1929 0.0000
vt 0.4961 0.1929 0.0000
vt 0.4961 0.1929 0.0000
vt 0.6270 0.1157 0.0000
vt 0.6270 0.1157 0.0000
vt 0.6270 0.1157 0.0000
vt 0.5132 0.1089 0.0000
vt 0.5708 0.0439 0.0000
vt 0.5659 0.0215 0.0000
vt 0.5659 0.0215 0.0000
vt 0.5659 0.0215 0.0000
vt 0.5034 0.0596 0.0000
vt 0.5034 0.0596 0.0000
vt 0.5034 0.0596 0.0000
vt 0.5034 0.0596 0.0000
vt 0.5034 0.0596 0.0000
vt 0.4629 0.1055 0.0000
vt 0.4202 0.0835 0.0000
vt 0.4629 0.1055 0.0000
vt 0.4629 0.1055 0.0000
vt 0.4629 0.1055 0.0000
vt 0.4629 0.1055 0.0000
vt 0.4675 0.1338 0.0000
vt 0.4109 0.1367 0.0000
vt 0.4629 0.1055 0.0000
vt 0.4675 0.1338 0.0000
vt 0.4675 0.1338 0.0000
vt 0.4675 0.1338 0.0000
vt 0.4675 0.1338 0.0000
vt 0.4675 0.1338 0.0000
vt 0.4976 0.0825 0.0000
vt 0.4976 0.0825 0.0000
vt 0.4976 0.0825 0.0000
vt 0.4976 0.0825 0.0000
vt 0.4976 0.0825 0.0000
vt 0.5742 0.0381 0.0000
vt 0.5742 0.0283 0.0000
vt 0.5708 0.0439 0.0000
vt 0.4812 0.0503 0.0000
vt 0.5034 0.0596 0.0000
vt 0.4812 0.0503 0.0000
vt 0.4812 0.0503 0.0000
vt 0.5034 0.0596 0.0000
vt 0.5679 0.1230 0.0000
vt 0.5679 0.1230 0.0000
vt 0.5679 0.1230 0.0000
vt 0.5679 0.1230 0.0000
vt 0.5679 0.1230 0.0000
vt 0.5679 0.1230 0.0000
vt 0.5645 0.0903 0.0000
vt 0.5957 0.0586 0.0000
vt 0.5957 0.0586 0.0000
vt 0.5420 0.0767 0.0000
vt 0.5659 0.0215 0.0000
vt 0.5420 0.0767 0.0000
vt 0.5420 0.0767 0.0000
vt 0.5420 0.0767 0.0000
vt 0.4504 0.0576 0.0000
vt 0.4446 0.0659 0.0000
vt 0.4504 0.0576 0.0000
vt 0.4790 0.0874 0.0000
vt 0.4446 0.0659 0.0000
vt 0.4790 0.0874 0.0000
vt 0.4790 0.0874 0.0000
vt 0.4790 0.0874 0.0000
vt 0.4790 0.0874 0.0000
vt 0.4790 0.0874 0.0000
vt 0.4790 0.0874 0.0000
vt 0.5420 0.0767 0.0000
vt 0.5645 0.0903 0.0000
vt 0.5132 0.1089 0.0000
vt 0.5693 0.1025 0.0000
vt 0.6167 0.0845 0.0000
vt 0.5693 0.1025 0.0000
vt 0.5693 0.1025 0.0000
vt 0.5693 0.1025 0.0000
vt 0.5693 0.1025 0.0000
vt 0.5693 0.1025 0.0000
vt 0.4761 0.0317 0.0000
vt 0.4812 0.0503 0.0000
vt 0.4761 0.0317 0.0000
vt 0.4951 0.1528 0.0000
vt 0.4951 0.1528 0.0000
vt 0.4951 0.1528 0.0000
vt 0.4951 0.1528 0.0000
vt 0.4951 0.1528 0.0000
vt 0.5269 0.0625 0.0000
vt 0.5269 0.0625 0.0000
vt 0.5269 0.0625 0.0000
vt 0.5269 0.0625 0.0000
vt 0.5269 0.0625 0.0000
vt 0.5269 0.0625 0.0000
vt 0.5625 0.1934 0.0000
vt 0.5215 0.1968 0.0000
vt 0.5625 0.1934 0.0000
vt 0.5498 0.1392 0.0000
vt 0.5498 0.1392 0.0000
vt 0.5132 0.1089 0.0000
vt 0.5498 0.1392 0.0000
vt 0.5498 0.1392 0.0000
vt 0.5498 0.1392 0.0000
vt 0.5498 0.1392 0.0000
vt 0.1927 0.0500 0.0000
vt 0.1672 0.0500 0.0000
vt 0.1672 0.0000 0.0000
vt 0.1474 0.0000 0.0000
vt 0.5176 0.1528 0.0000
vt 0.5132 0.1089 0.0000
vt 0.4951 0.1528 0.0000
vt 0.5381 0.1514 0.0000
vt 0.5176 0.1528 0.0000
vt 0.5176 0.1528 0.0000
vt 0.5176 0.1528 0.0000
vt 0.5176 0.1528 0.0000
vt 0.4496 0.0500 0.0000
vt 0.4197 0.0500 0.0000
vt 0.4197 0.0000 0.0000
vt 0.3983 0.0500 0.0000
vt 0.5540 0.0000 0.0000
vt 0.5206 0.0500 0.0000
vt 0.5206 0.0000 0.0000
vt 0.4820 0.0000 0.0000
vt 0.8725 0.0500 0.0000
vt 0.9235 0.0000 0.0000
vt 0.9235 0.0500 0.0000
vt 0.9534 0.0500 0.0000
vt 0.8367 0.0500 0.0000
vt 0.8367 0.0000 0.0000
vt 0.7717 0.0000 0.0000
vt 0.0106 0.0500 0.0000
vt 0.0000 0.0500 0.0000
vt 0.0000 0.0000 0.0000
vt 0.9808 0.0000 0.0000
vt 1.0000 0.0000 0.0000
vt 1.0000 0.0500 0.0000
vt 0.1474 0.0500 0.0000
vt 0.1242 0.0500 0.0000
vt 0.5034 0.0596 0.0000
vt 0.5132 0.1089 0.0000
vt 0.5103 0.0601 0.0000
vt 0.5073 0.0107 0.0000
vt 0.5103 0.0601 0.0000
vt 0.5103 0.0601 0.0000
vt 0.5103 0.0601 0.0000
vt 0.5103 0.0601 0.0000
vt 0.1242 0.0000 0.0000
vt 0.1034 0.0000 0.0000
vt 0.3017 0.0000 0.0000
vt 0.2912 0.0500 0.0000
vt 0.2912 0.0000 0.0000
vt 0.2774 0.0000 0.0000
vt 0.6069 0.0000 0.0000
vt 0.5758 0.0500 0.0000
vt 0.5758 0.0000 0.0000
vt 0.0728 0.0500 0.0000
vt 0.0639 0.0500 0.0000
vt 0.0639 0.0000 0.0000
vt 0.0402 0.0500 0.0000
vt 0.6675 0.0500 0.0000
vt 0.6069 0.0500 0.0000
vt 0.1927 0.0000 0.0000
vt 0.2221 0.0000 0.0000
vt 0.0906 0.0500 0.0000
vt 0.0906 0.0000 0.0000
vt 0.3790 0.0000 0.0000
vt 0.3444 0.0500 0.0000
vt 0.3444 0.0000 0.0000
vt 0.2611 0.0500 0.0000
vt 0.2611 0.0000 0.0000
vt 0.0172 0.0500 0.0000
vt 0.0172 0.0000 0.0000
# 251 texture coords

o SM_Coral_Table_Acropora_04_LOD1
g SM_Coral_Table_Acropora_04_LOD1
usemtl MAT_Coral_Table
s 1
f 169/439/625 114/287/626 159/421/627 
f 166/443/628 132/328/629 176/362/630 
f 145/373/631 161/419/632 115/290/633 
f 114/290/634 158/419/635 152/373/636 
f 190/341/637 120/302/638 153/399/639 
f 146/379/640 115/286/641 167/435/642 
f 159/407/643 114/288/644 128/323/645 
f 156/408/646 122/305/647 130/322/648 
f 125/312/649 149/393/650 144/367/651 
f 150/395/652 147/385/653 107/273/654 
f 180/309/655 129/324/656 135/338/657 
f 188/315/658 165/436/659 151/381/660 
f 171/454/661 154/398/662 136/342/663 
f 142/338/664 168/445/665 123/309/666 
f 147/386/667 161/418/668 139/349/669 
f 160/384/670 158/417/671 114/292/672 
f 183/357/673 162/427/674 153/400/675 
f 130/321/676 122/307/677 155/404/678 
f 151/380/679 114/297/680 152/372/681 
f 145/372/682 115/297/683 146/380/684 
f 119/299/685 186/333/686 181/496/687 
f 166/442/688 150/364/689 184/300/690 
f 154/397/691 115/291/692 163/429/693 
f 120/303/694 183/358/695 153/401/696 
f 178/394/697 164/433/698 125/314/699 
f 125/314/700 164/433/701 149/394/702 
f 128/322/703 174/305/704 159/408/705 
f 156/409/706 176/363/707 122/306/708 
f 140/355/709 180/308/710 173/465/711 
f 175/465/712 123/308/713 182/355/714 
f 171/451/715 124/310/716 187/277/717 
f 108/277/718 124/310/719 170/451/720 
f 150/367/721 178/393/722 125/312/723 
f 113/281/724 125/313/725 144/368/726 
f 146/381/727 167/436/728 126/315/729 
f 188/316/730 111/279/731 165/437/732 
f 157/412/733 127/317/734 177/351/735 
f 139/351/736 179/317/737 157/412/738 
f 109/275/739 189/348/740 162/430/741 
f 155/404/742 174/307/743 128/321/744 
f 142/339/745 171/448/746 187/274/747 
f 187/274/748 168/447/749 142/339/750 
f 108/274/751 170/448/752 135/339/753 
f 135/339/754 129/324/755 108/274/756 
f 154/400/757 163/427/758 141/357/759 
f 163/430/760 138/348/761 109/275/762 
f 146/382/763 126/325/764 131/326/765 
f 110/276/766 151/378/767 152/377/768 
f 119/300/769 181/495/770 169/442/771 
f 166/444/772 184/301/773 132/329/774 
f 145/374/775 185/331/776 118/332/777 
f 133/330/778 152/371/779 158/420/780 
f 150/364/781 134/333/782 184/299/783 
f 186/334/784 113/283/785 144/366/786 
f 190/342/787 153/398/788 170/454/789 
f 180/336/790 135/337/791 173/466/792 
f 124/311/793 190/340/794 170/452/795 
f 171/452/796 136/340/797 124/311/798 
f 127/318/799 158/416/800 177/352/801 
f 161/413/802 191/344/803 137/345/804 
f 189/346/805 117/319/806 128/347/807 
f 130/347/808 117/319/809 138/346/810 
f 177/349/811 158/418/812 160/386/813 
f 147/387/814 139/350/815 107/295/816 
f 167/434/817 175/464/818 182/353/819 
f 111/284/820 140/354/821 165/438/822 
f 183/356/823 109/278/824 162/428/825 
f 163/428/826 109/278/827 141/356/828 
f 171/453/829 115/359/830 154/396/831 
f 175/466/832 142/337/833 123/336/834 
f 122/360/835 176/361/836 112/280/837 
f 112/280/838 143/361/839 174/360/840 
f 181/497/841 114/293/842 169/440/843 
f 160/383/844 114/289/845 144/365/846 
f 145/369/847 118/298/848 191/370/849 
f 161/420/850 145/371/851 191/330/852 
f 146/375/853 131/327/854 185/376/855 
f 145/377/856 146/378/857 185/276/858 
f 150/365/859 115/289/860 147/383/861 
f 115/292/862 161/417/863 147/384/864 
f 148/388/865 112/389/866 174/390/867 
f 122/390/868 112/389/869 148/388/870 
f 150/392/871 107/282/872 178/391/873 
f 149/391/874 107/282/875 144/392/876 
f 150/368/877 125/313/878 113/281/879 
f 150/366/880 113/283/881 134/334/882 
f 131/326/883 188/325/884 151/382/885 
f 110/376/886 131/327/887 151/375/888 
f 118/332/889 110/331/890 152/374/891 
f 133/370/892 118/298/893 152/369/894 
f 153/396/895 114/359/896 170/453/897 
f 162/429/898 114/291/899 153/397/900 
f 154/401/901 141/358/902 120/303/903 
f 154/399/904 120/302/905 136/341/906 
f 130/402/907 155/403/908 117/296/909 
f 117/296/910 155/403/911 128/402/912 
f 156/405/913 166/441/914 176/406/915 
f 130/323/916 115/288/917 156/407/918 
f 157/410/919 179/411/920 116/294/921 
f 116/294/922 127/411/923 157/410/924 
f 137/345/925 133/344/926 158/413/927 
f 127/414/928 137/343/929 158/415/930 
f 143/406/931 169/441/932 159/405/933 
f 174/306/934 143/363/935 159/409/936 
f 107/295/937 177/350/938 160/387/939 
f 107/273/940 160/385/941 144/395/942 
f 161/415/943 137/343/944 179/414/945 
f 139/352/946 161/416/947 179/318/948 
f 128/422/949 114/423/950 162/424/951 
f 189/425/952 128/320/953 162/426/954 
f 163/424/955 115/423/956 130/422/957 
f 163/426/958 130/320/959 138/425/960 
f 164/431/961 178/432/962 121/304/963 
f 121/304/964 149/432/965 164/431/966 
f 140/353/967 173/464/968 165/434/969 
f 165/435/970 114/286/971 151/379/972 
f 156/421/973 115/287/974 166/439/975 
f 166/440/976 115/293/977 150/364/978 
f 167/438/979 182/354/980 111/284/981 
f 167/437/982 111/279/983 126/316/984 
f 168/445/985 187/274/986 172/324/987 
f 123/446/988 168/445/989 172/324/990 
f 132/329/991 119/301/992 169/444/993 
f 143/362/994 132/328/995 169/443/996 
f 170/449/997 114/450/998 135/335/999 
f 142/335/1000 115/450/1001 171/449/1002 
s 2
f 172/457/1003 187/513/1004 108/455/1005 
f 108/455/1006 129/456/1007 172/457/1008 
f 129/456/1009 180/488/1010 123/458/1011 
f 123/458/1012 172/457/1013 129/456/1014 
s 1
f 173/459/1015 114/460/1016 165/461/1017 
f 135/462/1018 114/285/1019 173/463/1020 
s 2
f 148/467/1021 174/468/1022 122/469/1023 
f 155/470/1024 122/469/1025 174/468/1026 
s 1
f 167/461/1027 115/460/1028 175/459/1029 
f 175/463/1030 115/285/1031 142/462/1032 
s 2
f 132/471/1033 143/472/1034 176/473/1035 
f 112/474/1036 176/473/1037 143/472/1038 
f 107/475/1039 139/476/1040 177/477/1041 
f 157/478/1042 177/477/1043 139/476/1044 
f 107/475/1045 149/479/1046 178/480/1047 
f 121/481/1048 178/480/1049 149/479/1050 
f 137/482/1051 127/483/1052 179/484/1053 
f 116/485/1054 179/486/1055 127/487/1056 
f 180/488/1057 140/489/1058 182/498/1059 
f 182/498/1060 123/458/1061 180/488/1062 
s 1
f 144/490/1063 114/491/1064 181/492/1065 
f 186/493/1066 144/364/1067 181/494/1068 
s 2
f 111/499/1069 182/498/1070 140/489/1071 
f 109/500/1072 183/501/1073 141/502/1074 
f 120/503/1075 141/502/1076 183/501/1077 
f 184/506/1078 134/504/1079 186/512/1080 
f 186/512/1081 119/505/1082 184/506/1083 
f 132/471/1084 184/506/1085 119/505/1086 
f 131/507/1087 110/508/1088 185/509/1089 
f 118/510/1090 185/509/1091 110/508/1092 
f 113/511/1093 186/512/1094 134/504/1095 
f 124/514/1096 108/455/1097 187/513/1098 
f 111/499/1099 188/515/1100 126/516/1101 
f 131/507/1102 126/516/1103 188/515/1104 
f 117/517/1105 189/518/1106 138/519/1107 
f 109/500/1108 138/519/1109 189/518/1110 
f 120/503/1111 190/520/1112 136/521/1113 
f 124/514/1114 136/521/1115 190/520/1116 
f 118/510/1117 133/522/1118 191/523/1119 
f 137/482/1120 191/523/1121 133/522/1122 
# 166 faces

#
# object SM_Coral_Table_Acropora_04_LOD2
#

v  -13.1861 8.4407 16.5800
v  21.3489 7.0996 -27.5380
v  37.0160 8.4929 2.8094
v  -37.7348 8.0169 -11.4469
v  -14.8621 9.6058 -32.5465
v  19.3236 8.6259 26.2944
v  -8.8408 6.9583 32.6024
v  -1.9792 0.0000 -1.7174
v  -1.9694 0.1997 -1.7202
v  -25.3524 8.6259 15.4860
v  33.5327 7.5129 11.3482
v  -37.2942 8.0187 0.6593
v  0.7845 6.9573 28.9705
v  36.0481 7.9543 -11.7131
v  -15.6072 8.6259 22.1266
v  18.0102 8.6259 20.8741
v  0.8940 9.5775 -32.4937
v  23.4608 7.3495 -22.8011
v  -13.2183 8.6259 29.6894
v  -23.0075 9.6058 -29.6949
v  -26.0054 9.4105 13.3121
v  15.8128 4.7012 4.8803
v  15.0598 8.3464 -31.1235
v  15.7784 4.8967 4.8556
v  -34.0927 8.0175 -19.1190
v  7.4844 7.1528 30.7354
v  -34.5464 9.4148 7.0522
v  -4.1022 7.1528 32.4831
v  5.9911 3.0550 -16.2575
v  30.1380 8.2182 -18.6727
v  -30.3722 9.4151 12.0031
v  34.0714 7.5129 6.7977
v  -18.5671 8.6259 15.2202
v  -8.0577 9.4157 -31.1407
v  37.6934 8.4929 -4.2263
v  5.9928 3.2491 -16.2096
v  16.4163 8.4300 28.7912
v  -5.4421 3.7255 15.4725
v  -19.6176 4.8967 -0.4989
v  -18.0230 4.8967 -10.3456
v  -7.5454 4.8967 7.4496
v  19.2638 8.4259 23.0135
v  -13.3017 8.4466 18.6511
v  -5.3887 3.9167 15.4484
v  -18.0566 4.7012 -10.3710
v  -19.6600 4.7021 -0.4808
v  17.0726 3.3127 -6.7045
v  17.0347 3.5091 -6.7017
v  26.7120 7.3164 15.8652
v  8.0178 3.9167 9.6100
v  -23.9253 8.4369 16.0770
v  -14.0130 4.7075 5.8683
v  8.0578 3.7234 9.6423
v  -7.6142 4.7143 7.4942
v  -13.9801 4.8967 5.8125
v  17.5581 4.7016 0.6142
v  17.5195 4.8967 0.5931
v  -14.9940 8.4259 25.1002
v  -13.2183 8.6259 29.6894
v  -13.3017 8.4466 18.6511
v  -13.3017 8.4466 18.6511
v  -13.2183 8.6259 29.6894
v  -18.5671 8.6259 15.2202
v  -26.0054 9.4105 13.3121
v  16.4163 8.4300 28.7912
v  18.0102 8.6259 20.8741
v  19.3236 8.6259 26.2944
v  18.0102 8.6259 20.8741
v  -23.9253 8.4369 16.0770
v  -26.0054 9.4105 13.3121
v  -26.0054 9.4105 13.3121
v  -23.9253 8.4369 16.0770
v  18.0102 8.6259 20.8741
v  16.4163 8.4300 28.7912
v  -26.0054 9.4105 13.3121
v  -18.5671 8.6259 15.2202
v  -14.9940 8.4259 25.1002
v  -13.3017 8.4466 18.6511
v  19.3236 8.6259 26.2944
v  -25.3524 8.6259 15.4860
v  -15.6072 8.6259 22.1266
v  -26.0054 9.4105 13.3121
v  -18.5671 8.6259 15.2202
v  19.2638 8.4259 23.0135
v  -5.3887 3.9167 15.4484
v  -14.0130 4.7075 5.8683
v  8.0578 3.7234 9.6423
v  -13.9801 4.8967 5.8125
v  -14.9940 8.4259 25.1002
# 89 vertices

vn 0.4054 0.1523 0.9014
vn -0.0494 -0.9987 0.0128
vn 0.2000 -0.9661 0.1634
vn 0.0505 0.9986 -0.0128
vn 0.4054 0.1523 0.9014
vn -0.2194 0.9755 -0.0128
vn 0.2059 0.9746 -0.0883
vn 0.1596 0.9476 -0.2768
vn 0.0505 0.9986 -0.0128
vn -0.0494 -0.9987 0.0128
vn -0.1623 -0.9449 0.2842
vn -0.2119 -0.9731 0.0905
vn 0.6519 0.2660 -0.7101
vn 0.8907 0.1713 -0.4212
vn 0.1979 -0.9802 -0.0113
vn 0.1622 0.9779 0.1316
vn 0.0505 0.9986 -0.0128
vn 0.2632 0.2110 -0.9414
vn 0.2000 -0.9661 0.1634
vn -0.0494 -0.9987 0.0128
vn 0.1754 -0.9763 0.1267
vn -0.2199 0.9647 -0.1452
vn -0.2639 0.9638 -0.0387
vn -0.1706 0.9778 -0.1220
vn -0.3067 -0.9512 0.0350
vn -0.4173 -0.9087 0.0098
vn -0.2620 -0.9563 0.1297
vn 0.2202 0.9657 -0.1379
vn 0.3427 0.9134 -0.2197
vn -0.6558 0.6215 0.4285
vn -0.1953 0.3362 -0.9213
vn 0.3444 0.2997 -0.8897
vn -0.0114 -0.9687 -0.2480
vn -0.7298 0.2195 -0.6474
vn -0.0494 -0.9987 0.0128
vn -0.1765 -0.9765 -0.1238
vn 0.0082 0.9703 0.2417
vn -0.1929 0.9812 0.0082
vn 0.6519 0.2660 -0.7101
vn 0.0082 0.9703 0.2417
vn 0.3444 0.2997 -0.8897
vn -0.1953 0.3362 -0.9213
vn 0.3427 0.9134 -0.2197
vn 0.1596 0.9476 -0.2768
vn -0.2115 0.2893 0.9336
vn -0.3449 -0.9114 0.2243
vn -0.1623 -0.9449 0.2842
vn -0.0494 -0.9987 0.0128
vn 0.9754 0.2097 -0.0685
vn 0.1982 -0.9744 0.1065
vn 0.1979 -0.9802 -0.0113
vn -0.1706 0.9778 -0.1220
vn -0.2639 0.9638 -0.0387
vn 0.5252 0.1235 0.8419
vn -0.1765 -0.9765 -0.1238
vn -0.0494 -0.9987 0.0128
vn -0.2119 -0.9731 0.0905
vn 0.2059 0.9746 -0.0883
vn 0.0505 0.9986 -0.0128
vn 0.1622 0.9779 0.1316
vn -0.2167 0.2596 0.9411
vn 0.2816 0.1866 0.9412
vn -0.2620 -0.9563 0.1297
vn 0.0505 0.9986 -0.0128
vn 0.2202 0.9657 -0.1379
vn -0.2167 0.2596 0.9411
vn -0.1929 0.9812 0.0082
vn 0.0505 0.9986 -0.0128
vn -0.1928 0.9755 -0.1055
vn 0.8907 0.1713 -0.4212
vn 0.9754 0.2097 -0.0685
vn 0.1979 -0.9802 -0.0113
vn -0.0719 0.9973 -0.0157
vn -0.0719 0.9973 -0.0157
vn -0.0719 0.9973 -0.0157
vn -0.3067 -0.9512 0.0350
vn 0.0397 -0.9992 0.0072
vn -0.4173 -0.9087 0.0098
vn 0.1754 -0.9763 0.1267
vn -0.2639 0.9638 -0.0387
vn 0.2000 -0.9661 0.1634
vn -0.2199 0.9647 -0.1452
vn -0.2194 0.9755 -0.0128
vn -0.2639 0.9638 -0.0387
vn 0.0532 0.3265 -0.9437
vn -0.1953 0.3362 -0.9213
vn -0.0494 -0.9987 0.0128
vn 0.0505 0.9986 -0.0128
vn -0.1953 0.3362 -0.9213
vn 0.0532 0.3265 -0.9437
vn 0.0082 0.9703 0.2417
vn 0.6515 0.2243 -0.7248
vn 0.7577 0.1218 -0.6411
vn 0.7577 0.1218 -0.6411
vn 0.6515 0.2243 -0.7248
vn -0.0114 -0.9687 -0.2480
vn 0.4913 0.8708 -0.0179
vn 0.4913 0.8708 -0.0179
vn 0.4913 0.8708 -0.0179
vn -0.2422 0.0680 0.9678
vn -0.3067 -0.9512 0.0350
vn -0.2620 -0.9563 0.1297
vn 0.1622 0.9779 0.1316
vn 0.2632 0.2110 -0.9414
vn -0.7298 0.2195 -0.6474
vn -0.7298 0.2195 -0.6474
vn 0.2632 0.2110 -0.9414
vn -0.0494 -0.9987 0.0128
vn 1.0000 0.0000 -0.0000
vn 1.0000 0.0000 -0.0000
vn 0.0146 0.9362 0.3511
vn 0.0146 0.9362 0.3511
vn 1.0000 0.0000 -0.0000
vn 1.0000 0.0000 -0.0000
vn 0.9217 0.1953 0.3352
vn 0.9124 0.0923 0.3988
vn 0.1982 -0.9744 0.1065
vn 0.5252 0.1235 0.8419
vn -0.2639 0.9638 -0.0387
vn 0.1754 -0.9763 0.1267
vn 0.7577 0.1218 -0.6411
vn 0.3444 0.2997 -0.8897
vn 0.0082 0.9703 0.2417
vn -0.0114 -0.9687 -0.2480
vn 0.3444 0.2997 -0.8897
vn 0.7577 0.1218 -0.6411
vn -0.1929 0.9812 0.0082
vn -0.1928 0.9755 -0.1055
vn 0.9754 0.2097 -0.0685
vn -0.1928 0.9755 -0.1055
vn 0.9124 0.0923 0.3988
vn 0.9217 0.1953 0.3352
vn 0.1622 0.9779 0.1316
vn -0.7298 0.2195 -0.6474
vn -0.8128 0.1342 -0.5669
vn -0.9673 0.1483 -0.2060
vn -0.1765 -0.9765 -0.1238
vn -0.2119 -0.9731 0.0905
vn -0.2167 0.2596 0.9411
vn -0.2620 -0.9563 0.1297
vn 0.4054 0.1523 0.9014
vn 0.0505 0.9986 -0.0128
vn -0.2167 0.2596 0.9411
vn 0.4054 0.1523 0.9014
vn 0.2059 0.9746 -0.0883
vn -0.9673 0.1483 -0.2060
vn -0.9735 0.1200 0.1945
vn -0.8292 0.2998 0.4717
vn -0.2119 -0.9731 0.0905
vn -0.1623 -0.9449 0.2842
vn 0.2202 0.9657 -0.1379
vn 0.2816 0.1866 0.9412
vn -0.2167 0.2596 0.9411
vn 0.2816 0.1866 0.9412
vn -0.2422 0.0680 0.9678
vn -0.2620 -0.9563 0.1297
vn 0.6519 0.2660 -0.7101
vn 0.1979 -0.9802 -0.0113
vn -0.0114 -0.9687 -0.2480
vn -0.1953 0.3362 -0.9213
vn -0.0114 -0.9687 -0.2480
vn -0.0494 -0.9987 0.0128
vn 0.6515 0.2243 -0.7248
vn 0.6519 0.2660 -0.7101
vn -0.0114 -0.9687 -0.2480
vn 0.0082 0.9703 0.2417
vn 0.6519 0.2660 -0.7101
vn 0.6515 0.2243 -0.7248
vn -0.1771 -0.9355 0.3057
vn -0.1771 -0.9355 0.3057
vn -0.1771 -0.9355 0.3057
vn 0.1596 0.9476 -0.2768
vn -0.8292 0.2998 0.4717
vn -0.6023 0.2522 0.7574
vn 0.9124 0.0923 0.3988
vn 0.8648 0.1204 0.4875
vn 0.1754 -0.9763 0.1267
vn -0.1706 0.9778 -0.1220
vn 0.8648 0.1204 0.4875
vn 0.9124 0.0923 0.3988
vn -0.2115 0.2893 0.9336
vn -0.1623 -0.9449 0.2842
vn -0.3449 -0.9114 0.2243
vn 0.3427 0.9134 -0.2197
vn -0.2115 0.2893 0.9336
vn -0.6558 0.6215 0.4285
vn 0.2632 0.2110 -0.9414
vn 0.0505 0.9986 -0.0128
vn 0.0532 0.3265 -0.9437
vn 0.2632 0.2110 -0.9414
vn 0.0532 0.3265 -0.9437
vn -0.0494 -0.9987 0.0128
vn 0.9754 0.2097 -0.0685
vn 0.9217 0.1953 0.3352
vn 0.1982 -0.9744 0.1065
vn -0.1928 0.9755 -0.1055
vn 0.9217 0.1953 0.3352
vn 0.9754 0.2097 -0.0685
vn 0.0082 0.9703 0.2417
vn 0.0505 0.9986 -0.0128
vn -0.1929 0.9812 0.0082
vn 0.0505 0.9986 -0.0128
vn 0.0082 0.9703 0.2417
vn -0.1953 0.3362 -0.9213
vn -0.2639 0.9638 -0.0387
vn -0.2194 0.9755 -0.0128
vn -0.0239 0.9997 0.0058
vn 0.0557 -0.9984 -0.0135
vn 0.0557 -0.9984 -0.0135
vn 0.0557 -0.9984 -0.0135
vn -0.2620 -0.9563 0.1297
vn -0.0494 -0.9987 0.0128
vn 0.4054 0.1523 0.9014
vn -0.3449 -0.9114 0.2243
vn -0.0494 -0.9987 0.0128
vn -0.2620 -0.9563 0.1297
vn 0.2059 0.9746 -0.0883
vn -0.9735 0.1200 0.1945
vn -0.8292 0.2998 0.4717
vn 0.1596 0.9476 -0.2768
vn 0.2059 0.9746 -0.0883
vn -0.8292 0.2998 0.4717
vn 0.1622 0.9779 0.1316
vn -0.8128 0.1342 -0.5669
vn -0.9673 0.1483 -0.2060
vn 0.2059 0.9746 -0.0883
vn 0.1622 0.9779 0.1316
vn -0.9673 0.1483 -0.2060
vn 0.2202 0.9657 -0.1379
vn 0.0505 0.9986 -0.0128
vn 0.3427 0.9134 -0.2197
vn 0.0505 0.9986 -0.0128
vn 0.1596 0.9476 -0.2768
vn 0.3427 0.9134 -0.2197
vn -0.2620 -0.9630 0.0635
vn -0.2620 -0.9630 0.0635
vn -0.2620 -0.9630 0.0635
vn -0.2639 0.9638 -0.0387
vn -0.0239 0.9997 0.0058
vn 0.2620 0.9630 -0.0635
vn 0.2202 0.9657 -0.1379
vn -0.6558 0.6215 0.4285
vn -0.4173 -0.9087 0.0098
vn -0.4173 -0.9087 0.0098
vn -0.6558 0.6215 0.4285
vn -0.2620 -0.9563 0.1297
vn 0.2202 0.9657 -0.1379
vn -0.3067 -0.9512 0.0350
vn -0.2422 0.0680 0.9678
vn 0.2202 0.9657 -0.1379
vn -0.2422 0.0680 0.9678
vn 0.2816 0.1866 0.9412
vn -0.8128 0.1342 -0.5669
vn -0.7298 0.2195 -0.6474
vn -0.1765 -0.9765 -0.1238
vn -0.9673 0.1483 -0.2060
vn -0.8128 0.1342 -0.5669
vn -0.1765 -0.9765 -0.1238
vn -0.9735 0.1200 0.1945
vn -0.9673 0.1483 -0.2060
vn -0.2119 -0.9731 0.0905
vn -0.8292 0.2998 0.4717
vn -0.9735 0.1200 0.1945
vn -0.2119 -0.9731 0.0905
vn 0.1979 -0.9802 -0.0113
vn -0.0494 -0.9987 0.0128
vn -0.0114 -0.9687 -0.2480
vn 0.1982 -0.9744 0.1065
vn -0.0494 -0.9987 0.0128
vn 0.1979 -0.9802 -0.0113
vn -0.1929 0.9812 0.0082
vn 0.9754 0.2097 -0.0685
vn 0.8907 0.1713 -0.4212
vn -0.1929 0.9812 0.0082
vn 0.8907 0.1713 -0.4212
vn 0.6519 0.2660 -0.7101
vn -0.1706 0.9778 -0.1220
vn 0.5252 0.1235 0.8419
vn 0.8648 0.1204 0.4875
vn 0.8648 0.1204 0.4875
vn 0.5252 0.1235 0.8419
vn 0.1754 -0.9763 0.1267
vn -0.2199 0.9647 -0.1452
vn 0.0505 0.9986 -0.0128
vn -0.2194 0.9755 -0.0128
vn -0.1706 0.9778 -0.1220
vn 0.0505 0.9986 -0.0128
vn -0.2199 0.9647 -0.1452
vn -0.0183 0.9387 0.3443
vn -0.0183 0.9387 0.3443
vn -0.0183 0.9387 0.3443
vn 0.0183 -0.9387 -0.3443
vn 0.0183 -0.9387 -0.3443
vn 0.0183 -0.9387 -0.3443
vn -0.6023 0.2522 0.7574
vn -0.8292 0.2998 0.4717
vn -0.1623 -0.9449 0.2842
vn -0.2583 0.4341 0.8630
vn -0.6023 0.2522 0.7574
vn -0.1623 -0.9449 0.2842
vn -0.2194 0.9755 -0.0128
vn 0.4054 0.1523 0.9014
vn 0.2000 -0.9661 0.1634
vn 0.3899 -0.9192 0.0558
vn 0.3899 -0.9192 0.0558
vn 0.3899 -0.9192 0.0558
vn -0.6558 0.6215 0.4285
vn -0.2115 0.2893 0.9336
vn -0.3449 -0.9114 0.2243
vn -0.6558 0.6215 0.4285
vn -0.3449 -0.9114 0.2243
vn -0.2620 -0.9563 0.1297
vn 0.1596 0.9476 -0.2768
vn -0.6023 0.2522 0.7574
vn -0.2583 0.4341 0.8630
vn 0.1734 0.9416 -0.2887
vn 0.1734 0.9416 -0.2887
vn 0.1734 0.9416 -0.2887
vn 0.1754 -0.9763 0.1267
vn -0.0494 -0.9987 0.0128
vn 0.1982 -0.9744 0.1065
vn 0.9124 0.0923 0.3988
vn 0.1754 -0.9763 0.1267
vn 0.1982 -0.9744 0.1065
vn -0.1928 0.9755 -0.1055
vn 0.0505 0.9986 -0.0128
vn -0.1706 0.9778 -0.1220
vn -0.1928 0.9755 -0.1055
vn -0.1706 0.9778 -0.1220
vn 0.9124 0.0923 0.3988
vn 0.1353 0.9900 0.0387
vn 0.1353 0.9900 0.0387
vn 0.1353 0.9900 0.0387
vn -0.1353 -0.9900 -0.0387
vn -0.4173 -0.9087 0.0098
vn 0.0397 -0.9992 0.0072
# 336 vertex normals

vt 0.4814 0.0562 0.0000
vt 0.5801 0.1826 0.0000
vt 0.6250 0.0957 0.0000
vt 0.4109 0.1367 0.0000
vt 0.5801 0.1826 0.0000
vt 0.6250 0.0957 0.0000
vt 0.4766 0.1968 0.0000
vt 0.5742 0.0283 0.0000
vt 0.4939 0.0103 0.0000
vt 0.4814 0.0562 0.0000
vt 0.4939 0.0103 0.0000
vt 0.4766 0.1968 0.0000
vt 0.5132 0.1089 0.0000
vt 0.5132 0.1089 0.0000
vt 0.5132 0.1089 0.0000
vt 0.5132 0.1089 0.0000
vt 0.5132 0.1089 0.0000
vt 0.5132 0.1089 0.0000
vt 0.5132 0.1089 0.0000
vt 0.5132 0.1089 0.0000
vt 0.5132 0.1089 0.0000
vt 0.4465 0.0596 0.0000
vt 0.4814 0.0562 0.0000
vt 0.6152 0.0713 0.0000
vt 0.5132 0.1089 0.0000
vt 0.4124 0.1021 0.0000
vt 0.5215 0.0210 0.0000
vt 0.5215 0.0210 0.0000
vt 0.5215 0.0210 0.0000
vt 0.6226 0.1377 0.0000
vt 0.6226 0.1377 0.0000
vt 0.4744 0.0405 0.0000
vt 0.5708 0.0439 0.0000
vt 0.5708 0.0439 0.0000
vt 0.5708 0.0439 0.0000
vt 0.5215 0.1968 0.0000
vt 0.5215 0.1968 0.0000
vt 0.5864 0.1689 0.0000
vt 0.5864 0.1689 0.0000
vt 0.4812 0.0186 0.0000
vt 0.4812 0.0186 0.0000
vt 0.4812 0.0186 0.0000
vt 0.4531 0.1890 0.0000
vt 0.4531 0.1890 0.0000
vt 0.4446 0.0659 0.0000
vt 0.4446 0.0659 0.0000
vt 0.6152 0.0713 0.0000
vt 0.5645 0.0903 0.0000
vt 0.5645 0.0903 0.0000
vt 0.5645 0.0903 0.0000
vt 0.5645 0.0903 0.0000
vt 0.5625 0.1934 0.0000
vt 0.4531 0.1890 0.0000
vt 0.4214 0.1582 0.0000
vt 0.4214 0.1582 0.0000
vt 0.5405 0.0156 0.0000
vt 0.5405 0.0156 0.0000
vt 0.4202 0.0835 0.0000
vt 0.4109 0.1367 0.0000
vt 0.4124 0.1021 0.0000
vt 0.5073 0.0107 0.0000
vt 0.5073 0.0107 0.0000
vt 0.5381 0.1514 0.0000
vt 0.5215 0.1968 0.0000
vt 0.5381 0.1514 0.0000
vt 0.5381 0.1514 0.0000
vt 0.5381 0.1514 0.0000
vt 0.6055 0.1572 0.0000
vt 0.6055 0.1572 0.0000
vt 0.6055 0.1572 0.0000
vt 0.4321 0.0693 0.0000
vt 0.4202 0.0835 0.0000
vt 0.4321 0.0693 0.0000
vt 0.6167 0.0845 0.0000
vt 0.5645 0.0903 0.0000
vt 0.6167 0.0845 0.0000
vt 0.4658 0.0601 0.0000
vt 0.4658 0.0601 0.0000
vt 0.4658 0.0601 0.0000
vt 0.4658 0.0601 0.0000
vt 0.4961 0.1929 0.0000
vt 0.4961 0.1929 0.0000
vt 0.4961 0.1929 0.0000
vt 0.6270 0.1157 0.0000
vt 0.6270 0.1157 0.0000
vt 0.6270 0.1157 0.0000
vt 0.5132 0.1089 0.0000
vt 0.5708 0.0439 0.0000
vt 0.5659 0.0215 0.0000
vt 0.5659 0.0215 0.0000
vt 0.5659 0.0215 0.0000
vt 0.5034 0.0596 0.0000
vt 0.5034 0.0596 0.0000
vt 0.5034 0.0596 0.0000
vt 0.5034 0.0596 0.0000
vt 0.5034 0.0596 0.0000
vt 0.4629 0.1055 0.0000
vt 0.4202 0.0835 0.0000
vt 0.4629 0.1055 0.0000
vt 0.4629 0.1055 0.0000
vt 0.4629 0.1055 0.0000
vt 0.4629 0.1055 0.0000
vt 0.4675 0.1338 0.0000
vt 0.4109 0.1367 0.0000
vt 0.4629 0.1055 0.0000
vt 0.4675 0.1338 0.0000
vt 0.4675 0.1338 0.0000
vt 0.4675 0.1338 0.0000
vt 0.4675 0.1338 0.0000
vt 0.4675 0.1338 0.0000
vt 0.4976 0.0825 0.0000
vt 0.4976 0.0825 0.0000
vt 0.4976 0.0825 0.0000
vt 0.4976 0.0825 0.0000
vt 0.4976 0.0825 0.0000
vt 0.5742 0.0381 0.0000
vt 0.5742 0.0283 0.0000
vt 0.5708 0.0439 0.0000
vt 0.4812 0.0503 0.0000
vt 0.5034 0.0596 0.0000
vt 0.4812 0.0503 0.0000
vt 0.4812 0.0503 0.0000
vt 0.5034 0.0596 0.0000
vt 0.5679 0.1230 0.0000
vt 0.5679 0.1230 0.0000
vt 0.5679 0.1230 0.0000
vt 0.5679 0.1230 0.0000
vt 0.5679 0.1230 0.0000
vt 0.5679 0.1230 0.0000
vt 0.5645 0.0903 0.0000
vt 0.5957 0.0586 0.0000
vt 0.5957 0.0586 0.0000
vt 0.5420 0.0767 0.0000
vt 0.5659 0.0215 0.0000
vt 0.5420 0.0767 0.0000
vt 0.5420 0.0767 0.0000
vt 0.5420 0.0767 0.0000
vt 0.4504 0.0576 0.0000
vt 0.4446 0.0659 0.0000
vt 0.4504 0.0576 0.0000
vt 0.4790 0.0874 0.0000
vt 0.4446 0.0659 0.0000
vt 0.4790 0.0874 0.0000
vt 0.4790 0.0874 0.0000
vt 0.4790 0.0874 0.0000
vt 0.4790 0.0874 0.0000
vt 0.4790 0.0874 0.0000
vt 0.4790 0.0874 0.0000
vt 0.5420 0.0767 0.0000
vt 0.5645 0.0903 0.0000
vt 0.5132 0.1089 0.0000
vt 0.5693 0.1025 0.0000
vt 0.6167 0.0845 0.0000
vt 0.5693 0.1025 0.0000
vt 0.5693 0.1025 0.0000
vt 0.5693 0.1025 0.0000
vt 0.5693 0.1025 0.0000
vt 0.5693 0.1025 0.0000
vt 0.4761 0.0317 0.0000
vt 0.4812 0.0503 0.0000
vt 0.4761 0.0317 0.0000
# 161 texture coords

o SM_Coral_Table_Acropora_04_LOD2
g SM_Coral_Table_Acropora_04_LOD2
usemtl MAT_Coral_Table
s 1
f 217/579/1123 199/538/1124 244/672/1125 
f 200/544/1126 217/579/1127 228/613/1128 
f 230/624/1129 246/670/1130 200/541/1131 
f 199/541/1132 277/670/1133 237/624/1134 
f 221/592/1135 205/553/1136 238/650/1137 
f 231/630/1138 200/537/1139 196/530/1140 
f 244/658/1141 199/539/1142 213/574/1143 
f 241/659/1144 207/556/1145 215/573/1146 
f 210/563/1147 234/644/1148 229/618/1149 
f 276/646/1150 232/636/1151 192/524/1152 
f 208/560/1153 214/575/1154 220/589/1155 
f 211/566/1156 199/537/1157 236/632/1158 
f 227/586/1159 239/649/1160 221/593/1161 
f 227/589/1162 214/575/1163 208/560/1164 
f 232/637/1165 246/669/1166 224/600/1167 
f 245/635/1168 277/668/1169 199/543/1170 
f 226/608/1171 247/678/1172 238/651/1173 
f 215/572/1174 207/558/1175 240/655/1176 
f 236/631/1177 199/548/1178 237/623/1179 
f 230/623/1180 200/548/1181 231/631/1182 
f 204/550/1183 219/584/1184 229/615/1185 
f 200/544/1186 276/615/1187 204/551/1188 
f 239/648/1189 200/542/1190 248/680/1191 
f 205/554/1192 226/609/1193 238/652/1194 
f 251/645/1195 249/684/1196 250/565/1197 
f 210/565/1198 280/684/1199 234/645/1200 
f 213/573/1201 207/556/1202 244/659/1203 
f 241/660/1204 228/614/1205 207/557/1206 
f 225/606/1207 208/559/1208 199/536/1209 
f 200/536/1210 208/559/1211 225/606/1212 
f 227/586/1213 209/561/1214 193/528/1215 
f 193/528/1216 209/561/1217 220/586/1218 
f 235/618/1219 252/644/1220 253/563/1221 
f 198/532/1222 210/564/1223 229/619/1224 
f 231/632/1225 196/530/1226 211/566/1227 
f 211/567/1228 196/530/1229 199/537/1230 
f 242/663/1231 273/568/1232 274/602/1233 
f 274/602/1234 273/568/1235 242/663/1236 
f 194/526/1237 223/599/1238 247/681/1239 
f 240/655/1240 207/558/1241 213/572/1242 
f 193/525/1243 214/575/1244 227/590/1245 
f 220/590/1246 214/575/1247 193/525/1248 
f 239/651/1249 248/678/1250 226/608/1251 
f 248/681/1252 223/599/1253 194/526/1254 
f 231/633/1255 211/576/1256 216/577/1257 
f 195/527/1258 236/629/1259 237/628/1260 
f 204/551/1261 229/615/1262 217/579/1263 
f 200/544/1264 204/552/1265 217/580/1266 
f 230/625/1267 195/582/1268 203/583/1269 
f 218/581/1270 237/622/1271 277/671/1272 
f 276/615/1273 219/584/1274 204/550/1275 
f 219/585/1276 198/534/1277 229/617/1278 
f 221/593/1279 238/649/1280 220/586/1281 
f 208/587/1282 220/588/1283 199/536/1284 
f 209/562/1285 221/591/1286 220/586/1287 
f 227/586/1288 221/591/1289 209/562/1290 
f 255/569/1291 243/667/1292 254/603/1293 
f 246/664/1294 218/595/1295 222/596/1296 
f 223/597/1297 202/570/1298 213/598/1299 
f 215/598/1300 202/570/1301 223/597/1302 
f 224/600/1303 277/669/1304 245/637/1305 
f 232/638/1306 224/601/1307 192/546/1308 
f 196/530/1309 200/536/1310 225/604/1311 
f 196/535/1312 225/605/1313 199/537/1314 
f 226/607/1315 194/529/1316 247/679/1317 
f 248/679/1318 194/529/1319 226/607/1320 
f 227/586/1321 200/610/1322 239/647/1323 
f 200/536/1324 227/588/1325 208/587/1326 
f 207/611/1327 228/612/1328 270/531/1329 
f 197/531/1330 256/612/1331 257/611/1332 
f 229/615/1333 199/544/1334 217/579/1335 
f 245/634/1336 199/540/1337 229/616/1338 
f 230/620/1339 203/549/1340 218/621/1341 
f 246/671/1342 230/622/1343 218/581/1344 
f 231/626/1345 216/578/1346 195/627/1347 
f 230/628/1348 231/629/1349 195/527/1350 
f 276/616/1351 200/540/1352 232/634/1353 
f 200/543/1354 246/668/1355 232/635/1356 
f 233/639/1357 258/640/1358 259/641/1359 
f 207/641/1360 270/640/1361 275/639/1362 
f 276/643/1363 192/533/1364 234/642/1365 
f 234/642/1366 192/533/1367 229/643/1368 
f 276/619/1369 210/564/1370 198/532/1371 
f 276/617/1372 198/534/1373 219/585/1374 
f 216/577/1375 211/576/1376 236/633/1377 
f 195/627/1378 216/578/1379 236/626/1380 
f 203/583/1381 195/582/1382 237/625/1383 
f 218/621/1384 203/549/1385 237/620/1386 
f 238/647/1387 199/610/1388 220/586/1389 
f 247/680/1390 199/542/1391 238/648/1392 
f 239/652/1393 226/609/1394 205/554/1395 
f 239/650/1396 205/553/1397 221/592/1398 
f 215/653/1399 240/654/1400 202/547/1401 
f 202/547/1402 240/654/1403 213/653/1404 
f 241/656/1405 200/544/1406 228/657/1407 
f 215/574/1408 200/539/1409 241/658/1410 
f 260/661/1411 261/662/1412 201/545/1413 
f 271/545/1414 262/662/1415 263/661/1416 
f 222/596/1417 218/595/1418 277/664/1419 
f 212/665/1420 222/594/1421 277/666/1422 
f 228/657/1423 217/579/1424 244/656/1425 
f 264/557/1426 265/614/1427 278/660/1428 
f 192/546/1429 224/601/1430 245/638/1431 
f 192/524/1432 245/636/1433 229/646/1434 
f 246/666/1435 222/594/1436 212/665/1437 
f 267/603/1438 279/667/1439 266/569/1440 
f 213/673/1441 199/674/1442 247/675/1443 
f 223/676/1444 213/571/1445 247/677/1446 
f 248/675/1447 200/674/1448 215/673/1449 
f 248/677/1450 215/571/1451 223/676/1452 
f 268/682/1453 269/683/1454 206/555/1455 
f 272/555/1456 234/683/1457 280/682/1458 
# 112 faces

