# 3ds Max Wavefront OBJ Exporter v0.97b - (c)2007 guruware
# File Created: 10.02.2024 08:45:28

mtllib SM_Chiton_02.mtl

#
# object SM_Chiton_02_LOD0
#

v  -4.8337 0.0000 -0.3032
v  -3.4729 0.8339 0.8499
v  -4.5482 0.0000 0.9592
v  -3.8510 0.0000 2.0799
v  -2.3275 0.0000 2.9209
v  -1.6486 0.7192 2.4907
v  -0.5966 0.0000 3.2807
v  -0.2863 0.6943 2.7922
v  1.1267 0.0000 3.2830
v  3.1259 0.0000 2.9320
v  4.4336 0.0000 1.7300
v  4.8337 0.0000 0.4078
v  4.1136 0.8566 0.3886
v  4.7405 0.0000 -0.9054
v  4.0206 0.8339 -0.6967
v  3.8252 0.0000 -2.2389
v  1.9364 0.7192 -2.5350
v  2.0814 0.0000 -3.1103
v  0.1434 0.0000 -3.2830
v  -1.2891 0.7192 -2.4994
v  -1.9912 0.0000 -3.0458
v  -3.5483 0.0000 -2.5258
v  -3.3007 0.8339 -1.2009
v  -4.4185 0.0000 -1.5584
v  -3.6314 0.8566 -0.1904
v  -2.8303 0.7777 1.8034
v  1.1595 0.7192 2.8121
v  2.7973 0.7777 2.4281
v  3.7757 0.8339 1.4303
v  2.2204 1.6693 0.9055
v  2.4504 1.6806 0.2962
v  2.3478 1.6693 -0.3376
v  3.3193 0.7777 -1.7567
v  1.9103 1.6418 -0.9010
v  1.1929 1.6138 -1.3090
v  0.3410 1.6021 -1.4968
v  0.3703 0.6943 -2.7353
v  -1.2953 1.6418 -1.1390
v  -2.5403 0.7777 -2.0119
v  -1.8396 1.6693 -0.6485
v  -0.5317 1.6138 -1.4370
v  0.2292 2.0144 0.1310
v  1.6748 1.6418 1.3958
v  0.8853 1.6138 1.6920
v  0.0080 1.6021 1.7515
v  -0.8393 1.6138 1.5639
v  -1.5307 1.6418 1.1578
v  -1.9670 1.6693 0.5946
v  -2.0764 1.6806 -0.0398
# 49 vertices

vn -0.5216 0.8523 -0.0382
vn -0.4955 0.8122 -0.3079
vn -0.5796 0.8142 -0.0342
vn -0.5641 0.7890 0.2434
vn -0.5216 0.8523 -0.0382
vn -0.5796 0.8142 -0.0342
vn -0.5053 0.8318 0.2297
vn -0.5216 0.8523 -0.0382
vn -0.5641 0.7890 0.2434
vn -0.4408 0.7418 0.5053
vn -0.5053 0.8318 0.2297
vn -0.5641 0.7890 0.2434
vn -0.3922 0.7893 0.4724
vn -0.5053 0.8318 0.2297
vn -0.4408 0.7418 0.5053
vn -0.2533 0.6581 0.7090
vn -0.3922 0.7893 0.4724
vn -0.4408 0.7418 0.5053
vn -0.2278 0.7265 0.6483
vn -0.3922 0.7893 0.4724
vn -0.2533 0.6581 0.7090
vn -0.0850 0.5911 0.8021
vn -0.2278 0.7265 0.6483
vn -0.2533 0.6581 0.7090
vn -0.0753 0.6853 0.7244
vn -0.2278 0.7265 0.6483
vn -0.0850 0.5911 0.8021
vn 0.0733 0.5642 0.8224
vn -0.0753 0.6853 0.7244
vn -0.0850 0.5911 0.8021
vn 0.0694 0.6856 0.7247
vn -0.0753 0.6853 0.7244
vn 0.0733 0.5642 0.8224
vn 0.2983 0.7364 0.6073
vn 0.0694 0.6856 0.7247
vn 0.0733 0.5642 0.8224
vn 0.3570 0.6035 0.7130
vn 0.2983 0.7364 0.6073
vn 0.0733 0.5642 0.8224
vn 0.5229 0.7769 0.3508
vn 0.2983 0.7364 0.6073
vn 0.3570 0.6035 0.7130
vn 0.6478 0.6400 0.4133
vn 0.5229 0.7769 0.3508
vn 0.3570 0.6035 0.7130
vn 0.6065 0.7921 0.0693
vn 0.5229 0.7769 0.3508
vn 0.6478 0.6400 0.4133
vn 0.7517 0.6540 0.0850
vn 0.6065 0.7921 0.0693
vn 0.6478 0.6400 0.4133
vn 0.5628 0.7957 -0.2241
vn 0.6065 0.7921 0.0693
vn 0.7517 0.6540 0.0850
vn 0.7014 0.6662 -0.2534
vn 0.5628 0.7957 -0.2241
vn 0.7517 0.6540 0.0850
vn 0.4933 0.6575 -0.5695
vn 0.5628 0.7957 -0.2241
vn 0.7014 0.6662 -0.2534
vn 0.4021 0.7758 -0.4862
vn 0.5628 0.7957 -0.2241
vn 0.4933 0.6575 -0.5695
vn 0.2161 0.6345 -0.7421
vn 0.4021 0.7758 -0.4862
vn 0.4933 0.6575 -0.5695
vn 0.1888 0.7443 -0.6406
vn 0.4021 0.7758 -0.4862
vn 0.2161 0.6345 -0.7421
vn 0.0029 0.7264 -0.6873
vn 0.1888 0.7443 -0.6406
vn 0.2161 0.6345 -0.7421
vn -0.0049 0.6343 -0.7731
vn 0.0029 0.7264 -0.6873
vn 0.2161 0.6345 -0.7421
vn -0.1377 0.7493 -0.6477
vn 0.0029 0.7264 -0.6873
vn -0.0049 0.6343 -0.7731
vn -0.1574 0.6855 -0.7109
vn -0.1377 0.7493 -0.6477
vn -0.0049 0.6343 -0.7731
vn -0.2963 0.8067 -0.5114
vn -0.1377 0.7493 -0.6477
vn -0.1574 0.6855 -0.7109
vn -0.3313 0.7692 -0.5464
vn -0.2963 0.8067 -0.5114
vn -0.1574 0.6855 -0.7109
vn -0.4447 0.8453 -0.2961
vn -0.2963 0.8067 -0.5114
vn -0.3313 0.7692 -0.5464
vn -0.4955 0.8122 -0.3079
vn -0.4447 0.8453 -0.2961
vn -0.3313 0.7692 -0.5464
vn -0.5216 0.8523 -0.0382
vn -0.4447 0.8453 -0.2961
vn -0.4955 0.8122 -0.3079
vn -0.3061 0.9516 -0.0284
vn -0.4447 0.8453 -0.2961
vn -0.5216 0.8523 -0.0382
vn -0.5053 0.8318 0.2297
vn -0.3061 0.9516 -0.0284
vn -0.5216 0.8523 -0.0382
vn -0.2923 0.9433 0.1574
vn -0.3061 0.9516 -0.0284
vn -0.5053 0.8318 0.2297
vn -0.3922 0.7893 0.4724
vn -0.2923 0.9433 0.1574
vn -0.5053 0.8318 0.2297
vn -0.2279 0.9223 0.3120
vn -0.2923 0.9433 0.1574
vn -0.3922 0.7893 0.4724
vn -0.2278 0.7265 0.6483
vn -0.2279 0.9223 0.3120
vn -0.3922 0.7893 0.4724
vn -0.1340 0.9005 0.4136
vn -0.2279 0.9223 0.3120
vn -0.2278 0.7265 0.6483
vn -0.0753 0.6853 0.7244
vn -0.1340 0.9005 0.4136
vn -0.2278 0.7265 0.6483
vn -0.0421 0.8915 0.4511
vn -0.1340 0.9005 0.4136
vn -0.0753 0.6853 0.7244
vn 0.0694 0.6856 0.7247
vn -0.0421 0.8915 0.4511
vn -0.0753 0.6853 0.7244
vn 0.0479 0.9001 0.4330
vn -0.0421 0.8915 0.4511
vn 0.0694 0.6856 0.7247
vn 0.1573 0.9253 0.3449
vn 0.0479 0.9001 0.4330
vn 0.0694 0.6856 0.7247
vn 0.2983 0.7364 0.6073
vn 0.1573 0.9253 0.3449
vn 0.0694 0.6856 0.7247
vn 0.2535 0.9463 0.2006
vn 0.1573 0.9253 0.3449
vn 0.2983 0.7364 0.6073
vn 0.5229 0.7769 0.3508
vn 0.2535 0.9463 0.2006
vn 0.2983 0.7364 0.6073
vn 0.2943 0.9552 0.0323
vn 0.2535 0.9463 0.2006
vn 0.5229 0.7769 0.3508
vn 0.6065 0.7921 0.0693
vn 0.2943 0.9552 0.0323
vn 0.5229 0.7769 0.3508
vn 0.5628 0.7957 -0.2241
vn 0.2943 0.9552 0.0323
vn 0.6065 0.7921 0.0693
vn 0.2747 0.9510 -0.1417
vn 0.2943 0.9552 0.0323
vn 0.5628 0.7957 -0.2241
vn 0.4021 0.7758 -0.4862
vn 0.2747 0.9510 -0.1417
vn 0.5628 0.7957 -0.2241
vn 0.2062 0.9351 -0.2883
vn 0.2747 0.9510 -0.1417
vn 0.4021 0.7758 -0.4862
vn 0.1888 0.7443 -0.6406
vn 0.2062 0.9351 -0.2883
vn 0.4021 0.7758 -0.4862
vn 0.1104 0.9175 -0.3821
vn 0.2062 0.9351 -0.2883
vn 0.1888 0.7443 -0.6406
vn 0.0029 0.7264 -0.6873
vn 0.1104 0.9175 -0.3821
vn 0.1888 0.7443 -0.6406
vn 0.0146 0.9052 -0.4248
vn 0.1104 0.9175 -0.3821
vn 0.0029 0.7264 -0.6873
vn -0.0753 0.9064 -0.4156
vn 0.0146 0.9052 -0.4248
vn 0.0029 0.7264 -0.6873
vn -0.1377 0.7493 -0.6477
vn -0.0753 0.9064 -0.4156
vn 0.0029 0.7264 -0.6873
vn -0.1691 0.9254 -0.3391
vn -0.0753 0.9064 -0.4156
vn -0.1377 0.7493 -0.6477
vn -0.2963 0.8067 -0.5114
vn -0.1691 0.9254 -0.3391
vn -0.1377 0.7493 -0.6477
vn -0.2592 0.9439 -0.2044
vn -0.1691 0.9254 -0.3391
vn -0.2963 0.8067 -0.5114
vn -0.4447 0.8453 -0.2961
vn -0.2592 0.9439 -0.2044
vn -0.2963 0.8067 -0.5114
vn -0.3061 0.9516 -0.0284
vn -0.2592 0.9439 -0.2044
vn -0.4447 0.8453 -0.2961
vn 0.0010 1.0000 0.0010
vn -0.2592 0.9439 -0.2044
vn -0.3061 0.9516 -0.0284
vn 0.0010 1.0000 0.0010
vn -0.1691 0.9254 -0.3391
vn -0.2592 0.9439 -0.2044
vn 0.0010 1.0000 0.0010
vn -0.0753 0.9064 -0.4156
vn -0.1691 0.9254 -0.3391
vn 0.0010 1.0000 0.0010
vn 0.0146 0.9052 -0.4248
vn -0.0753 0.9064 -0.4156
vn 0.0010 1.0000 0.0010
vn 0.1104 0.9175 -0.3821
vn 0.0146 0.9052 -0.4248
vn 0.0010 1.0000 0.0010
vn 0.2062 0.9351 -0.2883
vn 0.1104 0.9175 -0.3821
vn 0.0010 1.0000 0.0010
vn 0.2747 0.9510 -0.1417
vn 0.2062 0.9351 -0.2883
vn 0.0010 1.0000 0.0010
vn 0.2943 0.9552 0.0323
vn 0.2747 0.9510 -0.1417
vn 0.0010 1.0000 0.0010
vn 0.2535 0.9463 0.2006
vn 0.2943 0.9552 0.0323
vn 0.0010 1.0000 0.0010
vn 0.1573 0.9253 0.3449
vn 0.2535 0.9463 0.2006
vn 0.0010 1.0000 0.0010
vn 0.0479 0.9001 0.4330
vn 0.1573 0.9253 0.3449
vn 0.0010 1.0000 0.0010
vn -0.0421 0.8915 0.4511
vn 0.0479 0.9001 0.4330
vn 0.0010 1.0000 0.0010
vn -0.1340 0.9005 0.4136
vn -0.0421 0.8915 0.4511
vn 0.0010 1.0000 0.0010
vn -0.2279 0.9223 0.3120
vn -0.1340 0.9005 0.4136
vn 0.0010 1.0000 0.0010
vn -0.2923 0.9433 0.1574
vn -0.2279 0.9223 0.3120
vn -0.3061 0.9516 -0.0284
vn -0.2923 0.9433 0.1574
vn 0.0010 1.0000 0.0010
# 240 vertex normals

vt 0.2786 0.8911 0.0000
vt 0.2659 0.8953 0.0000
vt 0.2795 0.9045 0.0000
vt 0.2922 0.8932 0.0000
vt 0.2903 0.9061 0.0000
vt 0.3030 0.9001 0.0000
vt 0.2993 0.9120 0.0000
vt 0.3113 0.9165 0.0000
vt 0.3064 0.9243 0.0000
vt 0.3149 0.9341 0.0000
vt 0.3091 0.9373 0.0000
vt 0.3152 0.9516 0.0000
vt 0.3093 0.9515 0.0000
vt 0.3059 0.9678 0.0000
vt 0.3115 0.9718 0.0000
vt 0.2959 0.9773 0.0000
vt 0.2993 0.9851 0.0000
vt 0.2856 0.9806 0.0000
vt 0.2859 0.9892 0.0000
vt 0.2749 0.9797 0.0000
vt 0.2725 0.9882 0.0000
vt 0.2590 0.9789 0.0000
vt 0.2644 0.9729 0.0000
vt 0.2502 0.9612 0.0000
vt 0.2571 0.9592 0.0000
vt 0.2546 0.9438 0.0000
vt 0.2473 0.9416 0.0000
vt 0.2576 0.9275 0.0000
vt 0.2507 0.9199 0.0000
vt 0.2617 0.9150 0.0000
vt 0.2561 0.9041 0.0000
vt 0.2698 0.9077 0.0000
vt 0.2813 0.9194 0.0000
vt 0.2876 0.9205 0.0000
vt 0.2932 0.9249 0.0000
vt 0.2974 0.9318 0.0000
vt 0.2993 0.9402 0.0000
vt 0.2986 0.9489 0.0000
vt 0.2957 0.9568 0.0000
vt 0.2908 0.9622 0.0000
vt 0.2847 0.9645 0.0000
vt 0.2783 0.9635 0.0000
vt 0.2727 0.9591 0.0000
vt 0.2688 0.9520 0.0000
vt 0.2668 0.9435 0.0000
vt 0.2673 0.9348 0.0000
vt 0.2703 0.9272 0.0000
vt 0.2751 0.9218 0.0000
vt 0.2830 0.9424 0.0000
# 49 texture coords

o SM_Chiton_02_LOD0
g SM_Chiton_02_LOD0
usemtl MAT_Sea_Shells
s 1
f 25/3/1 24/2/2 1/1/3 
f 3/4/4 25/3/5 1/1/6 
f 2/5/7 25/3/8 3/4/9 
f 4/6/10 2/5/11 3/4/12 
f 26/7/13 2/5/14 4/6/15 
f 5/8/16 26/7/17 4/6/18 
f 6/9/19 26/7/20 5/8/21 
f 7/10/22 6/9/23 5/8/24 
f 8/11/25 6/9/26 7/10/27 
f 9/12/28 8/11/29 7/10/30 
f 27/13/31 8/11/32 9/12/33 
f 28/14/34 27/13/35 9/12/36 
f 10/15/37 28/14/38 9/12/39 
f 29/16/40 28/14/41 10/15/42 
f 11/17/43 29/16/44 10/15/45 
f 13/18/46 29/16/47 11/17/48 
f 12/19/49 13/18/50 11/17/51 
f 15/20/52 13/18/53 12/19/54 
f 14/21/55 15/20/56 12/19/57 
f 16/22/58 15/20/59 14/21/60 
f 33/23/61 15/20/62 16/22/63 
f 18/24/64 33/23/65 16/22/66 
f 17/25/67 33/23/68 18/24/69 
f 37/26/70 17/25/71 18/24/72 
f 19/27/73 37/26/74 18/24/75 
f 20/28/76 37/26/77 19/27/78 
f 21/29/79 20/28/80 19/27/81 
f 39/30/82 20/28/83 21/29/84 
f 22/31/85 39/30/86 21/29/87 
f 23/32/88 39/30/89 22/31/90 
f 24/2/91 23/32/92 22/31/93 
f 25/3/94 23/32/95 24/2/96 
f 49/33/97 23/32/98 25/3/99 
f 2/5/100 49/33/101 25/3/102 
f 48/34/103 49/33/104 2/5/105 
f 26/7/106 48/34/107 2/5/108 
f 47/35/109 48/34/110 26/7/111 
f 6/9/112 47/35/113 26/7/114 
f 46/36/115 47/35/116 6/9/117 
f 8/11/118 46/36/119 6/9/120 
f 45/37/121 46/36/122 8/11/123 
f 27/13/124 45/37/125 8/11/126 
f 44/38/127 45/37/128 27/13/129 
f 43/39/130 44/38/131 27/13/132 
f 28/14/133 43/39/134 27/13/135 
f 30/40/136 43/39/137 28/14/138 
f 29/16/139 30/40/140 28/14/141 
f 31/41/142 30/40/143 29/16/144 
f 13/18/145 31/41/146 29/16/147 
f 15/20/148 31/41/149 13/18/150 
f 32/42/151 31/41/152 15/20/153 
f 33/23/154 32/42/155 15/20/156 
f 34/43/157 32/42/158 33/23/159 
f 17/25/160 34/43/161 33/23/162 
f 35/44/163 34/43/164 17/25/165 
f 37/26/166 35/44/167 17/25/168 
f 36/45/169 35/44/170 37/26/171 
f 41/46/172 36/45/173 37/26/174 
f 20/28/175 41/46/176 37/26/177 
f 38/47/178 41/46/179 20/28/180 
f 39/30/181 38/47/182 20/28/183 
f 40/48/184 38/47/185 39/30/186 
f 23/32/187 40/48/188 39/30/189 
f 49/33/190 40/48/191 23/32/192 
f 42/49/193 40/48/194 49/33/195 
f 42/49/196 38/47/197 40/48/198 
f 42/49/199 41/46/200 38/47/201 
f 42/49/202 36/45/203 41/46/204 
f 42/49/205 35/44/206 36/45/207 
f 42/49/208 34/43/209 35/44/210 
f 42/49/211 32/42/212 34/43/213 
f 42/49/214 31/41/215 32/42/216 
f 42/49/217 30/40/218 31/41/219 
f 42/49/220 43/39/221 30/40/222 
f 42/49/223 44/38/224 43/39/225 
f 42/49/226 45/37/227 44/38/228 
f 42/49/229 46/36/230 45/37/231 
f 42/49/232 47/35/233 46/36/234 
f 42/49/235 48/34/236 47/35/237 
f 49/33/238 48/34/239 42/49/240 
# 80 faces

#
# object SM_Chiton_02_LOD1
#

v  4.7715 0.0000 -0.4682
v  -3.8897 0.0000 -2.1463
v  3.1259 0.0000 2.9320
v  2.4504 1.6806 0.2962
v  -3.8510 0.0000 2.0799
v  2.0814 0.0000 -3.1103
v  -0.9889 1.6278 1.3668
v  0.4370 0.0000 3.2821
v  -0.5317 1.6138 -1.4370
v  1.1595 0.7192 2.8121
v  -4.7545 0.0000 0.0471
v  3.8252 0.0000 -2.2389
v  3.8849 0.8413 1.0936
v  -2.0764 1.6806 -0.0398
v  -1.0398 0.0000 -3.1515
v  0.2292 2.0144 0.1310
v  4.0206 0.8339 -0.6967
v  1.6017 1.6298 -1.0765
v  1.4178 0.7109 -2.6013
v  4.4336 0.0000 1.7300
v  2.7973 0.7777 2.4281
v  1.6748 1.6418 1.3958
v  -2.3275 0.0000 2.9209
v  -3.4729 0.8339 0.8499
v  3.3193 0.7777 -1.7567
# 25 vertices

vn 0.1579 0.9176 0.3648
vn -0.1709 0.8900 0.4226
vn 0.0666 0.6474 0.7592
vn 0.6063 0.7703 -0.1976
vn 0.3168 0.9480 0.0307
vn 0.5818 0.7751 0.2465
vn -0.4025 0.8310 -0.3840
vn -0.1136 0.8857 -0.4501
vn -0.1398 0.7267 -0.6726
vn -0.3377 0.9397 -0.0545
vn -0.1136 0.8857 -0.4501
vn -0.4025 0.8310 -0.3840
vn 0.0966 0.7357 -0.6704
vn 0.1772 0.9230 -0.3417
vn 0.3991 0.7775 -0.4860
vn 0.0666 0.6474 0.7592
vn -0.1709 0.8900 0.4226
vn -0.2354 0.7564 0.6103
vn -0.4429 0.7838 0.4353
vn -0.4993 0.8350 0.2313
vn -0.5768 0.8166 -0.0218
vn 0.5818 0.7751 0.2465
vn 0.3168 0.9480 0.0307
vn 0.3363 0.7266 0.5991
vn -0.0027 1.0000 0.0078
vn -0.1136 0.8857 -0.4501
vn -0.3377 0.9397 -0.0545
vn 0.1772 0.9230 -0.3417
vn 0.3168 0.9480 0.0307
vn 0.6063 0.7703 -0.1976
vn 0.3597 0.6327 0.6859
vn 0.3363 0.7266 0.5991
vn -0.0330 0.5822 0.8124
vn 0.0666 0.6474 0.7592
vn -0.2354 0.7564 0.6103
vn -0.0330 0.5822 0.8124
vn -0.3377 0.9397 -0.0545
vn -0.4025 0.8310 -0.3840
vn -0.5768 0.8166 -0.0218
vn 0.3991 0.7775 -0.4860
vn 0.1772 0.9230 -0.3417
vn 0.6063 0.7703 -0.1976
vn 0.7673 0.6319 -0.1095
vn 0.5818 0.7751 0.2465
vn 0.6247 0.6875 0.3702
vn 0.5818 0.7751 0.2465
vn 0.3363 0.7266 0.5991
vn 0.3597 0.6327 0.6859
vn -0.3377 0.9397 -0.0545
vn -0.1709 0.8900 0.4226
vn -0.0027 1.0000 0.0078
vn -0.4429 0.7838 0.4353
vn -0.1709 0.8900 0.4226
vn -0.4993 0.8350 0.2313
vn -0.1398 0.7267 -0.6726
vn -0.1136 0.8857 -0.4501
vn 0.0966 0.7357 -0.6704
vn -0.0027 1.0000 0.0078
vn 0.3168 0.9480 0.0307
vn 0.1772 0.9230 -0.3417
vn -0.0027 1.0000 0.0078
vn -0.1709 0.8900 0.4226
vn 0.1579 0.9176 0.3648
vn 0.5171 0.6464 -0.5610
vn 0.6063 0.7703 -0.1976
vn 0.7673 0.6319 -0.1095
vn 0.6063 0.7703 -0.1976
vn 0.5818 0.7751 0.2465
vn 0.7673 0.6319 -0.1095
vn -0.1136 0.8857 -0.4501
vn 0.1772 0.9230 -0.3417
vn 0.0966 0.7357 -0.6704
vn -0.0027 1.0000 0.0078
vn 0.1772 0.9230 -0.3417
vn -0.1136 0.8857 -0.4501
vn 0.0966 0.7357 -0.6704
vn 0.3991 0.7775 -0.4860
vn 0.1983 0.6678 -0.7175
vn -0.1398 0.7267 -0.6726
vn 0.0966 0.7357 -0.6704
vn 0.1983 0.6678 -0.7175
vn 0.6247 0.6875 0.3702
vn 0.5818 0.7751 0.2465
vn 0.3597 0.6327 0.6859
vn 0.3363 0.7266 0.5991
vn 0.1579 0.9176 0.3648
vn 0.0666 0.6474 0.7592
vn 0.3363 0.7266 0.5991
vn 0.0666 0.6474 0.7592
vn -0.0330 0.5822 0.8124
vn -0.0027 1.0000 0.0078
vn 0.1579 0.9176 0.3648
vn 0.3168 0.9480 0.0307
vn 0.3168 0.9480 0.0307
vn 0.1579 0.9176 0.3648
vn 0.3363 0.7266 0.5991
vn -0.2354 0.7564 0.6103
vn -0.1709 0.8900 0.4226
vn -0.4429 0.7838 0.4353
vn -0.4993 0.8350 0.2313
vn -0.3377 0.9397 -0.0545
vn -0.5768 0.8166 -0.0218
vn -0.1709 0.8900 0.4226
vn -0.3377 0.9397 -0.0545
vn -0.4993 0.8350 0.2313
vn 0.1983 0.6678 -0.7175
vn 0.3991 0.7775 -0.4860
vn 0.5171 0.6464 -0.5610
vn 0.3991 0.7775 -0.4860
vn 0.6063 0.7703 -0.1976
vn 0.5171 0.6464 -0.5610
# 111 vertex normals

vt 0.2599 0.9006 0.0000
vt 0.2954 0.9303 0.0000
vt 0.3115 0.9718 0.0000
vt 0.3030 0.9001 0.0000
vt 0.2769 0.9885 0.0000
vt 0.2813 0.9194 0.0000
vt 0.2502 0.9612 0.0000
vt 0.2847 0.9645 0.0000
vt 0.2993 0.9851 0.0000
vt 0.2824 0.8917 0.0000
vt 0.2673 0.9348 0.0000
vt 0.3151 0.9446 0.0000
vt 0.2590 0.9789 0.0000
vt 0.2830 0.9424 0.0000
vt 0.2926 0.9784 0.0000
vt 0.3113 0.9165 0.0000
vt 0.2563 0.9541 0.0000
vt 0.3093 0.9515 0.0000
vt 0.2749 0.9797 0.0000
vt 0.2492 0.9296 0.0000
vt 0.2710 0.9560 0.0000
vt 0.3059 0.9678 0.0000
vt 0.2644 0.9729 0.0000
vt 0.2957 0.9568 0.0000
vt 0.2903 0.9061 0.0000
# 25 texture coords

o SM_Chiton_02_LOD1
g SM_Chiton_02_LOD1
usemtl MAT_Sea_Shells
s 1
f 71/73/241 56/51/242 59/67/243 
f 66/68/244 53/57/245 62/64/246 
f 51/50/247 58/60/248 64/69/249 
f 63/55/250 58/60/251 51/50/252 
f 68/66/253 67/70/254 74/72/255 
f 59/67/256 56/51/257 72/65/258 
f 54/53/259 73/74/260 60/59/261 
f 62/64/262 53/57/263 70/71/264 
f 65/63/265 58/60/266 63/55/267 
f 67/70/268 53/57/269 66/68/270 
f 52/52/271 70/71/272 57/61/273 
f 59/67/274 72/65/275 57/61/276 
f 63/55/277 51/50/278 60/59/279 
f 74/72/280 67/70/281 66/68/282 
f 50/54/283 62/64/284 69/58/285 
f 62/64/286 70/71/287 52/52/288 
f 63/55/289 56/51/290 65/63/291 
f 54/53/292 56/51/293 73/74/294 
f 64/69/295 58/60/296 68/66/297 
f 65/63/298 53/57/299 67/70/300 
f 65/63/301 56/51/302 71/73/303 
f 61/62/304 66/68/305 50/54/306 
f 66/68/307 62/64/308 50/54/309 
f 58/60/310 67/70/311 68/66/312 
f 65/63/313 67/70/314 58/60/315 
f 68/66/316 74/72/317 55/56/318 
f 64/69/319 68/66/320 55/56/321 
f 69/58/322 62/64/323 52/52/324 
f 70/71/325 71/73/326 59/67/327 
f 70/71/328 59/67/329 57/61/330 
f 65/63/331 71/73/332 53/57/333 
f 53/57/334 71/73/335 70/71/336 
f 72/65/337 56/51/338 54/53/339 
f 73/74/340 63/55/341 60/59/342 
f 56/51/343 63/55/344 73/74/345 
f 55/56/346 74/72/347 61/62/348 
f 74/72/349 66/68/350 61/62/351 
# 37 faces

