# 3ds Max Wavefront OBJ Exporter v0.97b - (c)2007 guruware
# File Created: 10.02.2024 08:45:28

mtllib SM_Chiton_01.mtl

#
# object SM_Chiton_01_LOD0
#

v  5.5138 0.0000 -1.0531
v  4.4492 0.0000 -2.6040
v  2.4210 0.0000 -3.6177
v  2.2523 0.8365 -2.9485
v  0.1669 0.0000 -3.8185
v  -1.4994 0.8365 -2.9071
v  -2.3160 0.0000 -3.5426
v  -4.1271 0.0000 -2.9378
v  -2.9546 0.9046 -2.3401
v  -4.1034 0.9700 -1.3968
v  -5.1393 0.0000 -1.8126
v  -5.6222 0.0000 -0.3527
v  -4.3037 0.9700 0.9886
v  -5.2901 0.0000 1.1156
v  -4.4792 0.0000 2.4192
v  -3.2919 0.9046 2.0976
v  -2.7071 0.0000 3.3974
v  -1.9175 0.8365 2.8970
v  -0.6939 0.0000 3.8159
v  1.3486 0.8365 3.2709
v  3.2536 0.9046 2.8242
v  1.3105 0.0000 3.8185
v  3.6358 0.0000 3.4103
v  5.1569 0.0000 2.0122
v  5.6222 0.0000 0.4744
v  4.6764 0.9700 -0.8103
v  4.7846 0.9964 0.4520
v  3.8607 0.9046 -2.0432
v  0.4308 0.8076 -3.1814
v  -0.6183 1.7610 -1.6714
v  -4.6689 0.9964 -0.2214
v  -2.9887 1.8371 0.6916
v  -1.7803 1.7935 1.3468
v  -0.9761 1.7610 1.8191
v  -0.3330 0.8076 3.2477
v  1.0297 1.7610 1.9681
v  1.9480 1.7935 1.6236
v  3.0018 1.8890 1.0532
v  3.2328 1.9548 0.3447
v  4.3916 0.9700 1.6636
v  3.1819 1.8890 -0.3926
v  0.0094 1.7474 2.0372
v  -3.1976 1.8715 -0.0462
v  -2.7266 1.8621 -0.7542
v  -1.5065 1.7935 -1.3247
v  0.0061 2.3430 0.1524
v  0.3966 1.7474 -1.7409
v  1.3875 1.7610 -1.5225
v  2.2219 1.7935 -1.0479
# 49 vertices

vn 0.5737 0.7809 -0.2473
vn 0.7517 0.6540 0.0850
vn 0.7014 0.6662 -0.2534
vn 0.4933 0.6575 -0.5695
vn 0.5737 0.7809 -0.2473
vn 0.7014 0.6662 -0.2534
vn 0.3860 0.7769 -0.4974
vn 0.5737 0.7809 -0.2473
vn 0.4933 0.6575 -0.5695
vn 0.2161 0.6345 -0.7421
vn 0.3860 0.7769 -0.4974
vn 0.4933 0.6575 -0.5695
vn 0.1827 0.7611 -0.6224
vn 0.3860 0.7769 -0.4974
vn 0.2161 0.6345 -0.7421
vn 0.0010 0.7451 -0.6670
vn 0.1827 0.7611 -0.6224
vn 0.2161 0.6345 -0.7421
vn -0.0049 0.6343 -0.7731
vn 0.0010 0.7451 -0.6670
vn 0.2161 0.6345 -0.7421
vn -0.1338 0.7667 -0.6280
vn 0.0010 0.7451 -0.6670
vn -0.0049 0.6343 -0.7731
vn -0.1574 0.6855 -0.7109
vn -0.1338 0.7667 -0.6280
vn -0.0049 0.6343 -0.7731
vn -0.2707 0.8005 -0.5347
vn -0.1338 0.7667 -0.6280
vn -0.1574 0.6855 -0.7109
vn -0.3294 0.7498 -0.5738
vn -0.2707 0.8005 -0.5347
vn -0.1574 0.6855 -0.7109
vn -0.4529 0.8090 -0.3747
vn -0.2707 0.8005 -0.5347
vn -0.3294 0.7498 -0.5738
vn -0.5431 0.7524 -0.3728
vn -0.4529 0.8090 -0.3747
vn -0.3294 0.7498 -0.5738
vn -0.5974 0.8008 -0.0420
vn -0.4529 0.8090 -0.3747
vn -0.5431 0.7524 -0.3728
vn -0.6888 0.7240 -0.0381
vn -0.5974 0.8008 -0.0420
vn -0.5431 0.7524 -0.3728
vn -0.6244 0.7162 0.3117
vn -0.5974 0.8008 -0.0420
vn -0.6888 0.7240 -0.0381
vn -0.5327 0.7829 0.3215
vn -0.5974 0.8008 -0.0420
vn -0.6244 0.7162 0.3117
vn -0.4465 0.7162 0.5364
vn -0.5327 0.7829 0.3215
vn -0.6244 0.7162 0.3117
vn -0.3706 0.7754 0.5114
vn -0.5327 0.7829 0.3215
vn -0.4465 0.7162 0.5364
vn -0.2533 0.6581 0.7090
vn -0.3706 0.7754 0.5114
vn -0.4465 0.7162 0.5364
vn -0.2200 0.7442 0.6307
vn -0.3706 0.7754 0.5114
vn -0.2533 0.6581 0.7090
vn -0.0850 0.5911 0.8021
vn -0.2200 0.7442 0.6307
vn -0.2533 0.6581 0.7090
vn -0.0734 0.7052 0.7052
vn -0.2200 0.7442 0.6307
vn -0.0850 0.5911 0.8021
vn 0.0733 0.5642 0.8224
vn -0.0734 0.7052 0.7052
vn -0.0850 0.5911 0.8021
vn 0.0675 0.7055 0.7055
vn -0.0734 0.7052 0.7052
vn 0.0733 0.5642 0.8224
vn 0.2823 0.7415 0.6086
vn 0.0675 0.7055 0.7055
vn 0.0733 0.5642 0.8224
vn 0.3570 0.6035 0.7130
vn 0.2823 0.7415 0.6086
vn 0.0733 0.5642 0.8224
vn 0.5271 0.7637 0.3726
vn 0.2823 0.7415 0.6086
vn 0.3570 0.6035 0.7130
vn 0.6478 0.6400 0.4133
vn 0.5271 0.7637 0.3726
vn 0.3570 0.6035 0.7130
vn 0.6388 0.7659 0.0734
vn 0.5271 0.7637 0.3726
vn 0.6478 0.6400 0.4133
vn 0.7517 0.6540 0.0850
vn 0.6388 0.7659 0.0734
vn 0.6478 0.6400 0.4133
vn 0.5737 0.7809 -0.2473
vn 0.6388 0.7659 0.0734
vn 0.7517 0.6540 0.0850
vn 0.2707 0.9390 -0.2120
vn 0.6388 0.7659 0.0734
vn 0.5737 0.7809 -0.2473
vn 0.3860 0.7769 -0.4974
vn 0.2707 0.9390 -0.2120
vn 0.5737 0.7809 -0.2473
vn 0.1846 0.9232 -0.3370
vn 0.2707 0.9390 -0.2120
vn 0.3860 0.7769 -0.4974
vn 0.1827 0.7611 -0.6224
vn 0.1846 0.9232 -0.3370
vn 0.3860 0.7769 -0.4974
vn 0.1105 0.9182 -0.3804
vn 0.1846 0.9232 -0.3370
vn 0.1827 0.7611 -0.6224
vn 0.0010 0.7451 -0.6670
vn 0.1105 0.9182 -0.3804
vn 0.1827 0.7611 -0.6224
vn 0.0146 0.9052 -0.4248
vn 0.1105 0.9182 -0.3804
vn 0.0010 0.7451 -0.6670
vn -0.0752 0.9057 -0.4172
vn 0.0146 0.9052 -0.4248
vn 0.0010 0.7451 -0.6670
vn -0.1338 0.7667 -0.6280
vn -0.0752 0.9057 -0.4172
vn 0.0010 0.7451 -0.6670
vn -0.1436 0.9096 -0.3898
vn -0.0752 0.9057 -0.4172
vn -0.1338 0.7667 -0.6280
vn -0.2707 0.8005 -0.5347
vn -0.1436 0.9096 -0.3898
vn -0.1338 0.7667 -0.6280
vn -0.2354 0.9288 -0.2862
vn -0.1436 0.9096 -0.3898
vn -0.2707 0.8005 -0.5347
vn -0.4529 0.8090 -0.3747
vn -0.2354 0.9288 -0.2862
vn -0.2707 0.8005 -0.5347
vn -0.3255 0.9452 -0.0264
vn -0.2354 0.9288 -0.2862
vn -0.4529 0.8090 -0.3747
vn -0.5974 0.8008 -0.0420
vn -0.3255 0.9452 -0.0264
vn -0.4529 0.8090 -0.3747
vn -0.5327 0.7829 0.3215
vn -0.3255 0.9452 -0.0264
vn -0.5974 0.8008 -0.0420
vn -0.2866 0.9223 0.2592
vn -0.3255 0.9452 -0.0264
vn -0.5327 0.7829 0.3215
vn -0.3706 0.7754 0.5114
vn -0.2866 0.9223 0.2592
vn -0.5327 0.7829 0.3215
vn -0.2061 0.9017 0.3800
vn -0.2866 0.9223 0.2592
vn -0.3706 0.7754 0.5114
vn -0.2200 0.7442 0.6307
vn -0.2061 0.9017 0.3800
vn -0.3706 0.7754 0.5114
vn -0.1359 0.8985 0.4175
vn -0.2061 0.9017 0.3800
vn -0.2200 0.7442 0.6307
vn -0.0734 0.7052 0.7052
vn -0.1359 0.8985 0.4175
vn -0.2200 0.7442 0.6307
vn -0.0420 0.8907 0.4527
vn -0.1359 0.8985 0.4175
vn -0.0734 0.7052 0.7052
vn 0.0675 0.7055 0.7055
vn -0.0420 0.8907 0.4527
vn -0.0734 0.7052 0.7052
vn 0.0479 0.9013 0.4306
vn -0.0420 0.8907 0.4527
vn 0.0675 0.7055 0.7055
vn 0.1340 0.9143 0.3823
vn 0.0479 0.9013 0.4306
vn 0.0675 0.7055 0.7055
vn 0.2823 0.7415 0.6086
vn 0.1340 0.9143 0.3823
vn 0.0675 0.7055 0.7055
vn 0.2413 0.9331 0.2667
vn 0.1340 0.9143 0.3823
vn 0.2823 0.7415 0.6086
vn 0.5271 0.7637 0.3726
vn 0.2413 0.9331 0.2667
vn 0.2823 0.7415 0.6086
vn 0.3213 0.9462 0.0381
vn 0.2413 0.9331 0.2667
vn 0.5271 0.7637 0.3726
vn 0.6388 0.7659 0.0734
vn 0.3213 0.9462 0.0381
vn 0.5271 0.7637 0.3726
vn 0.2707 0.9390 -0.2120
vn 0.3213 0.9462 0.0381
vn 0.6388 0.7659 0.0734
vn -0.0068 1.0000 0.0010
vn 0.3213 0.9462 0.0381
vn 0.2707 0.9390 -0.2120
vn -0.0068 1.0000 0.0010
vn 0.2413 0.9331 0.2667
vn 0.3213 0.9462 0.0381
vn -0.0068 1.0000 0.0010
vn 0.1340 0.9143 0.3823
vn 0.2413 0.9331 0.2667
vn -0.0068 1.0000 0.0010
vn 0.0479 0.9013 0.4306
vn 0.1340 0.9143 0.3823
vn -0.0068 1.0000 0.0010
vn -0.0420 0.8907 0.4527
vn 0.0479 0.9013 0.4306
vn -0.0068 1.0000 0.0010
vn -0.1359 0.8985 0.4175
vn -0.0420 0.8907 0.4527
vn -0.0068 1.0000 0.0010
vn -0.2061 0.9017 0.3800
vn -0.1359 0.8985 0.4175
vn -0.0068 1.0000 0.0010
vn -0.2866 0.9223 0.2592
vn -0.2061 0.9017 0.3800
vn -0.0068 1.0000 0.0010
vn -0.3255 0.9452 -0.0264
vn -0.2866 0.9223 0.2592
vn -0.0068 1.0000 0.0010
vn -0.2354 0.9288 -0.2862
vn -0.3255 0.9452 -0.0264
vn -0.0068 1.0000 0.0010
vn -0.1436 0.9096 -0.3898
vn -0.2354 0.9288 -0.2862
vn -0.0068 1.0000 0.0010
vn -0.0752 0.9057 -0.4172
vn -0.1436 0.9096 -0.3898
vn -0.0068 1.0000 0.0010
vn 0.0146 0.9052 -0.4248
vn -0.0752 0.9057 -0.4172
vn -0.0068 1.0000 0.0010
vn 0.1105 0.9182 -0.3804
vn 0.0146 0.9052 -0.4248
vn -0.0068 1.0000 0.0010
vn 0.1846 0.9232 -0.3370
vn 0.1105 0.9182 -0.3804
vn 0.2707 0.9390 -0.2120
vn 0.1846 0.9232 -0.3370
vn -0.0068 1.0000 0.0010
# 240 vertex normals

vt 0.3655 0.8860 0.0000
vt 0.3513 0.8843 0.0000
vt 0.3630 0.8947 0.0000
vt 0.3799 0.8962 0.0000
vt 0.3745 0.9023 0.0000
vt 0.3894 0.9155 0.0000
vt 0.3826 0.9174 0.0000
vt 0.3848 0.9345 0.0000
vt 0.3911 0.9370 0.0000
vt 0.3823 0.9526 0.0000
vt 0.3892 0.9606 0.0000
vt 0.3772 0.9663 0.0000
vt 0.3821 0.9757 0.0000
vt 0.3684 0.9771 0.0000
vt 0.3726 0.9876 0.0000
vt 0.3577 0.9824 0.0000
vt 0.3591 0.9922 0.0000
vt 0.3455 0.9890 0.0000
vt 0.3467 0.9789 0.0000
vt 0.3333 0.9813 0.0000
vt 0.3367 0.9694 0.0000
vt 0.3242 0.9644 0.0000
vt 0.3293 0.9565 0.0000
vt 0.3210 0.9452 0.0000
vt 0.3262 0.9417 0.0000
vt 0.3203 0.9261 0.0000
vt 0.3259 0.9259 0.0000
vt 0.3301 0.9081 0.0000
vt 0.3242 0.9039 0.0000
vt 0.3406 0.8974 0.0000
vt 0.3372 0.8894 0.0000
vt 0.3516 0.8937 0.0000
vt 0.3594 0.9088 0.0000
vt 0.3652 0.9177 0.0000
vt 0.3696 0.9255 0.0000
vt 0.3716 0.9349 0.0000
vt 0.3711 0.9444 0.0000
vt 0.3679 0.9527 0.0000
vt 0.3625 0.9641 0.0000
vt 0.3562 0.9686 0.0000
vt 0.3494 0.9666 0.0000
vt 0.3435 0.9553 0.0000
vt 0.3391 0.9477 0.0000
vt 0.3372 0.9385 0.0000
vt 0.3379 0.9289 0.0000
vt 0.3411 0.9203 0.0000
vt 0.3462 0.9104 0.0000
vt 0.3525 0.9083 0.0000
vt 0.3542 0.9385 0.0000
# 49 texture coords

o SM_Chiton_01_LOD0
g SM_Chiton_01_LOD0
usemtl MAT_Sea_Shells
s 1
f 26/3/1 25/2/2 1/1/3 
f 2/4/4 26/3/5 1/1/6 
f 28/5/7 26/3/8 2/4/9 
f 3/6/10 28/5/11 2/4/12 
f 4/7/13 28/5/14 3/6/15 
f 29/8/16 4/7/17 3/6/18 
f 5/9/19 29/8/20 3/6/21 
f 6/10/22 29/8/23 5/9/24 
f 7/11/25 6/10/26 5/9/27 
f 9/12/28 6/10/29 7/11/30 
f 8/13/31 9/12/32 7/11/33 
f 10/14/34 9/12/35 8/13/36 
f 11/15/37 10/14/38 8/13/39 
f 31/16/40 10/14/41 11/15/42 
f 12/17/43 31/16/44 11/15/45 
f 14/18/46 31/16/47 12/17/48 
f 13/19/49 31/16/50 14/18/51 
f 15/20/52 13/19/53 14/18/54 
f 16/21/55 13/19/56 15/20/57 
f 17/22/58 16/21/59 15/20/60 
f 18/23/61 16/21/62 17/22/63 
f 19/24/64 18/23/65 17/22/66 
f 35/25/67 18/23/68 19/24/69 
f 22/26/70 35/25/71 19/24/72 
f 20/27/73 35/25/74 22/26/75 
f 21/28/76 20/27/77 22/26/78 
f 23/29/79 21/28/80 22/26/81 
f 40/30/82 21/28/83 23/29/84 
f 24/31/85 40/30/86 23/29/87 
f 27/32/88 40/30/89 24/31/90 
f 25/2/91 27/32/92 24/31/93 
f 26/3/94 27/32/95 25/2/96 
f 41/33/97 27/32/98 26/3/99 
f 28/5/100 41/33/101 26/3/102 
f 49/34/103 41/33/104 28/5/105 
f 4/7/106 49/34/107 28/5/108 
f 48/35/109 49/34/110 4/7/111 
f 29/8/112 48/35/113 4/7/114 
f 47/36/115 48/35/116 29/8/117 
f 30/37/118 47/36/119 29/8/120 
f 6/10/121 30/37/122 29/8/123 
f 45/38/124 30/37/125 6/10/126 
f 9/12/127 45/38/128 6/10/129 
f 44/39/130 45/38/131 9/12/132 
f 10/14/133 44/39/134 9/12/135 
f 43/40/136 44/39/137 10/14/138 
f 31/16/139 43/40/140 10/14/141 
f 13/19/142 43/40/143 31/16/144 
f 32/41/145 43/40/146 13/19/147 
f 16/21/148 32/41/149 13/19/150 
f 33/42/151 32/41/152 16/21/153 
f 18/23/154 33/42/155 16/21/156 
f 34/43/157 33/42/158 18/23/159 
f 35/25/160 34/43/161 18/23/162 
f 42/44/163 34/43/164 35/25/165 
f 20/27/166 42/44/167 35/25/168 
f 36/45/169 42/44/170 20/27/171 
f 37/46/172 36/45/173 20/27/174 
f 21/28/175 37/46/176 20/27/177 
f 38/47/178 37/46/179 21/28/180 
f 40/30/181 38/47/182 21/28/183 
f 39/48/184 38/47/185 40/30/186 
f 27/32/187 39/48/188 40/30/189 
f 41/33/190 39/48/191 27/32/192 
f 46/49/193 39/48/194 41/33/195 
f 46/49/196 38/47/197 39/48/198 
f 46/49/199 37/46/200 38/47/201 
f 46/49/202 36/45/203 37/46/204 
f 46/49/205 42/44/206 36/45/207 
f 46/49/208 34/43/209 42/44/210 
f 46/49/211 33/42/212 34/43/213 
f 46/49/214 32/41/215 33/42/216 
f 46/49/217 43/40/218 32/41/219 
f 46/49/220 44/39/221 43/40/222 
f 46/49/223 45/38/224 44/39/225 
f 46/49/226 30/37/227 45/38/228 
f 46/49/229 47/36/230 30/37/231 
f 46/49/232 48/35/233 47/36/234 
f 46/49/235 49/34/236 48/35/237 
f 41/33/238 49/34/239 46/49/240 
# 80 faces

#
# object SM_Chiton_01_LOD1
#

v  3.6358 0.0000 3.4103
v  -4.6916 0.0000 2.0778
v  4.4492 0.0000 -2.6040
v  0.1406 1.7610 -1.6151
v  -2.7071 0.0000 3.3974
v  -4.4244 0.0000 -2.6073
v  0.2671 1.7610 1.9114
v  3.2328 1.9548 0.3447
v  5.5498 0.0000 -0.5448
v  2.6209 0.8820 2.9726
v  -3.1426 1.8624 0.1482
v  3.8607 0.9046 -2.0432
v  -5.6222 0.0000 -0.3527
v  -1.1466 0.0000 -3.6725
v  0.4329 0.0000 3.8174
v  1.2309 0.8203 -3.0791
v  4.5236 0.9788 1.2566
v  0.0061 2.3430 0.1524
v  5.1569 0.0000 2.0122
v  2.4210 0.0000 -3.6177
v  4.6764 0.9700 -0.8103
# 21 vertices

vn -0.0370 0.8912 -0.4521
vn 0.3036 0.9519 0.0424
vn 0.3714 0.7907 -0.4867
vn -0.1427 0.8174 -0.5582
vn 0.0471 0.7549 -0.6542
vn 0.1974 0.6879 -0.6985
vn -0.2269 0.7995 0.5562
vn -0.3615 0.9320 0.0262
vn -0.4644 0.7936 0.3932
vn 0.1859 0.7519 0.6325
vn -0.0387 0.8647 0.5007
vn -0.2269 0.7995 0.5562
vn -0.5934 0.8034 -0.0498
vn -0.3615 0.9320 0.0262
vn -0.3467 0.8340 -0.4291
vn 0.3036 0.9519 0.0424
vn -0.0370 0.8912 -0.4521
vn -0.0237 0.9997 -0.0028
vn -0.3615 0.9320 0.0262
vn -0.0370 0.8912 -0.4521
vn -0.3467 0.8340 -0.4291
vn 0.7676 0.6314 -0.1100
vn 0.5848 0.7625 0.2770
vn 0.6228 0.6890 0.3706
vn 0.3036 0.9519 0.0424
vn -0.0387 0.8647 0.5007
vn 0.1859 0.7519 0.6325
vn 0.0471 0.7549 -0.6542
vn 0.3714 0.7907 -0.4867
vn 0.1974 0.6879 -0.6985
vn 0.5848 0.7625 0.2770
vn 0.1859 0.7519 0.6325
vn 0.3488 0.6931 0.6308
vn 0.3488 0.6931 0.6308
vn 0.1859 0.7519 0.6325
vn -0.0549 0.7583 0.6495
vn -0.0237 0.9997 -0.0028
vn -0.0370 0.8912 -0.4521
vn -0.3615 0.9320 0.0262
vn -0.0387 0.8647 0.5007
vn -0.3615 0.9320 0.0262
vn -0.2269 0.7995 0.5562
vn 0.6243 0.7526 -0.2092
vn 0.5848 0.7625 0.2770
vn 0.7676 0.6314 -0.1100
vn 0.5171 0.6464 -0.5610
vn 0.6243 0.7526 -0.2092
vn 0.7676 0.6314 -0.1100
vn -0.3615 0.9320 0.0262
vn -0.5934 0.8034 -0.0498
vn -0.4644 0.7936 0.3932
vn -0.3467 0.8340 -0.4291
vn 0.0471 0.7549 -0.6542
vn -0.1427 0.8174 -0.5582
vn 0.1859 0.7519 0.6325
vn -0.2269 0.7995 0.5562
vn -0.0549 0.7583 0.6495
vn 0.0471 0.7549 -0.6542
vn -0.0370 0.8912 -0.4521
vn 0.3714 0.7907 -0.4867
vn -0.3467 0.8340 -0.4291
vn -0.0370 0.8912 -0.4521
vn 0.0471 0.7549 -0.6542
vn 0.5848 0.7625 0.2770
vn 0.3036 0.9519 0.0424
vn 0.1859 0.7519 0.6325
vn 0.3036 0.9519 0.0424
vn 0.5848 0.7625 0.2770
vn 0.6243 0.7526 -0.2092
vn -0.0237 0.9997 -0.0028
vn -0.0387 0.8647 0.5007
vn 0.3036 0.9519 0.0424
vn -0.0237 0.9997 -0.0028
vn -0.3615 0.9320 0.0262
vn -0.0387 0.8647 0.5007
vn 0.6228 0.6890 0.3706
vn 0.5848 0.7625 0.2770
vn 0.3488 0.6931 0.6308
vn 0.1974 0.6879 -0.6985
vn 0.3714 0.7907 -0.4867
vn 0.5171 0.6464 -0.5610
vn 0.3714 0.7907 -0.4867
vn 0.3036 0.9519 0.0424
vn 0.6243 0.7526 -0.2092
vn 0.3714 0.7907 -0.4867
vn 0.6243 0.7526 -0.2092
vn 0.5171 0.6464 -0.5610
# 87 vertex normals

vt 0.3799 0.8962 0.0000
vt 0.3364 0.9833 0.0000
vt 0.3242 0.9039 0.0000
vt 0.3793 0.9792 0.0000
vt 0.3705 0.9372 0.0000
vt 0.3384 0.9361 0.0000
vt 0.3525 0.9083 0.0000
vt 0.3544 0.9681 0.0000
vt 0.3591 0.9922 0.0000
vt 0.3372 0.8894 0.0000
vt 0.3608 0.8854 0.0000
vt 0.3242 0.9644 0.0000
vt 0.3901 0.9495 0.0000
vt 0.3542 0.9385 0.0000
vt 0.3287 0.9140 0.0000
vt 0.3745 0.9023 0.0000
vt 0.3838 0.9270 0.0000
vt 0.3443 0.8961 0.0000
vt 0.3894 0.9155 0.0000
vt 0.3206 0.9345 0.0000
vt 0.3630 0.8947 0.0000
# 21 texture coords

o SM_Chiton_01_LOD1
g SM_Chiton_01_LOD1
usemtl MAT_Sea_Shells
s 1
f 53/54/241 57/56/242 61/65/243 
f 63/62/244 65/66/245 69/68/246 
f 54/61/247 60/57/248 51/51/249 
f 59/64/250 56/55/251 54/61/252 
f 62/58/253 60/57/254 55/53/255 
f 57/56/256 53/54/257 67/63/258 
f 60/57/259 53/54/260 55/53/261 
f 58/60/262 66/67/263 68/59/264 
f 57/56/265 56/55/266 59/64/267 
f 65/66/268 61/65/269 69/68/270 
f 66/67/271 59/64/272 50/52/273 
f 50/52/274 59/64/275 64/69/276 
f 67/63/277 53/54/278 60/57/279 
f 56/55/280 60/57/281 54/61/282 
f 70/70/283 66/67/284 58/60/285 
f 52/50/286 70/70/287 58/60/288 
f 60/57/289 62/58/290 51/51/291 
f 55/53/292 65/66/293 63/62/294 
f 59/64/295 54/61/296 64/69/297 
f 65/66/298 53/54/299 61/65/300 
f 55/53/301 53/54/302 65/66/303 
f 66/67/304 57/56/305 59/64/306 
f 57/56/307 66/67/308 70/70/309 
f 67/63/310 56/55/311 57/56/312 
f 67/63/313 60/57/314 56/55/315 
f 68/59/316 66/67/317 50/52/318 
f 69/68/319 61/65/320 52/50/321 
f 61/65/322 57/56/323 70/70/324 
f 61/65/325 70/70/326 52/50/327 
# 29 faces

