# 3ds Max Wavefront OBJ Exporter v0.97b - (c)2007 guruware
# File Created: 10.02.2024 08:45:28

mtllib SM_Chiton_03.mtl

#
# object SM_Chiton_03_LOD0
#

v  -1.6507 0.0000 25.3052
v  -1.4088 0.2363 21.9341
v  5.5498 0.0000 24.5957
v  12.6847 0.0000 20.1568
v  16.0007 0.0000 13.2512
v  16.0624 0.0000 3.5117
v  15.5295 0.0000 -5.3022
v  14.7866 0.0334 2.8997
v  14.3639 0.0645 -4.7246
v  12.6264 0.1377 -13.5323
v  7.4336 0.2079 -19.1907
v  13.8648 0.0000 -14.4123
v  8.4445 0.0000 -21.6121
v  1.8316 0.0000 -25.3052
v  -4.7371 0.0000 -24.3862
v  -4.1613 0.2079 -21.4076
v  -11.4061 0.0000 -21.4188
v  -15.5120 0.0000 -10.1816
v  -16.0624 0.0000 -0.2734
v  -14.7207 0.0334 -0.4079
v  -15.0147 0.0000 11.5975
v  -13.5408 0.0000 18.7528
v  -11.6963 0.1377 16.3472
v  -7.1156 0.2079 20.3106
v  -8.0864 0.0000 23.6975
v  4.9016 0.2079 21.0381
v  11.3827 0.1377 17.1864
v  4.2649 1.5550 18.7043
v  9.8031 1.4061 15.0462
v  14.2191 0.0645 11.0253
v  12.5342 1.2508 9.4989
v  10.9489 1.4061 -12.3637
v  1.6441 1.6152 -18.9837
v  1.6334 0.2363 -21.7927
v  -10.0055 0.1377 -18.1559
v  -14.2730 0.0645 -8.8557
v  -13.6369 0.0645 9.6166
v  -12.2289 1.2508 8.0918
v  -1.2270 1.6152 19.7045
v  7.9006 3.9248 12.6813
v  10.7672 3.5869 7.6529
v  13.2855 1.1849 2.3938
v  12.9975 1.2508 -4.4743
v  9.4190 3.9248 -11.5920
v  6.7319 1.5550 -16.8493
v  -3.6849 1.5550 -18.7979
v  -8.8826 1.4061 -15.8392
v  -3.2001 4.2488 -16.1071
v  -12.7162 1.2508 -7.9510
v  -11.9943 3.4436 -1.1526
v  -13.2472 1.1849 -0.6265
v  -10.9776 3.5869 6.0718
v  -8.8760 3.9248 11.4194
v  -10.3151 1.4061 14.1052
v  -5.3798 4.2488 15.6557
v  -6.2686 1.5550 17.9957
v  -1.0233 4.3798 17.7493
v  3.5363 4.2488 16.4161
v  -0.8645 7.6988 13.5797
v  2.5551 7.5685 12.7771
v  11.9781 3.4436 1.6782
v  6.7076 7.3251 -7.9454
v  11.9211 3.5869 -4.5546
v  5.8499 4.2488 -14.6504
v  0.9248 7.6867 -10.8086
v  1.5331 4.3798 -15.8807
v  -2.4423 7.5273 -10.6803
v  -7.7756 3.9248 -13.4194
v  -11.2311 3.5869 -7.4350
v  -8.1117 7.0958 4.1263
v  -4.0336 7.6159 11.8686
v  -0.6082 10.2637 8.0481
v  1.3329 10.1540 7.8125
v  5.9566 7.3251 9.6429
v  7.8765 7.0958 5.7663
v  4.2404 9.9120 3.3435
v  4.3547 9.8688 0.4338
v  8.5462 6.9989 1.0679
v  4.1757 9.9105 -2.0129
v  8.3468 7.0958 -3.4837
v  3.3524 9.7800 -4.0588
v  3.9949 7.6147 -9.8150
v  1.9948 9.5428 -6.2103
v  -5.6393 7.3018 -9.3971
v  -8.0273 7.0958 -5.6191
v  -4.1248 9.8352 -2.8030
v  -4.6443 9.8688 -0.5073
v  -8.7153 6.9989 -0.8982
v  -4.4789 9.9120 1.9061
v  -6.5774 7.3251 8.0391
v  -3.6545 10.0155 4.0182
v  -2.2979 10.2338 6.9196
v  -2.9962 9.5122 -4.4901
v  -1.4380 9.4132 -6.5344
v  0.3152 9.5823 -6.6554
v  3.4071 10.0155 5.6617
v  0.3851 11.4945 0.4364
v  -0.8149 7.9447 12.2465
v  0.0615 8.0545 12.0800
v  0.8403 8.2642 11.6456
v  0.6865 8.7040 11.3033
v  1.4275 8.6749 10.6729
v  1.6816 9.1239 9.5591
v  1.6875 9.5604 8.4451
v  1.4494 10.0563 7.1477
v  1.1524 10.2059 7.5283
v  0.6191 10.3519 6.2851
v  -0.3188 10.5556 6.6383
v  -0.2967 10.4140 6.0074
v  -1.2076 10.3515 6.0487
v  -2.1346 10.0802 6.6212
v  -2.7436 9.6128 7.7358
v  -2.4281 9.7772 8.0138
v  -2.8683 9.1169 8.9862
v  -2.4111 8.9286 10.1834
v  -2.7093 8.5834 10.3695
v  -2.0652 8.6629 11.0511
v  -2.3528 8.2044 11.3835
v  -1.4846 8.5344 11.5930
v  -1.6842 8.0127 11.9600
v  -0.7575 8.4973 11.8381
v  -0.0056 8.5522 11.7395
v  1.1879 8.9877 10.4998
v  0.4614 9.9091 10.2126
v  1.4102 9.3351 9.5802
v  1.4274 9.7373 8.6163
v  0.5965 10.1238 9.6537
v  0.5564 10.3578 9.0790
v  0.4326 10.4798 6.8737
v  0.0021 10.7238 8.2062
v  -0.4281 10.7740 8.0494
v  -1.1011 10.4787 6.6773
v  -1.8653 10.2144 7.1146
v  -0.8756 10.7191 8.1041
v  -2.5757 9.3378 9.0558
v  -1.1063 9.6297 10.8565
v  -1.4502 9.7328 10.4821
v  -1.6575 9.8979 9.9661
v  -1.6970 10.1116 9.3869
v  -1.5625 10.3466 8.8325
v  -1.2736 10.5668 8.3751
v  0.3481 10.5754 8.5638
v  -0.5646 10.4687 9.6162
v  0.1715 9.7414 10.6708
v  -0.2286 9.6343 10.9587
v  -0.6775 9.5962 11.0250
# 146 vertices

vn -0.0205 0.9578 0.2867
vn -0.0303 0.9983 0.0498
vn -0.0049 0.9980 0.0635
vn 0.0206 0.9983 0.0538
vn -0.0205 0.9578 0.2867
vn -0.0049 0.9980 0.0635
vn 0.0988 0.9613 0.2573
vn -0.0205 0.9578 0.2867
vn 0.0206 0.9983 0.0538
vn 0.0361 0.9989 0.0284
vn 0.0988 0.9613 0.2573
vn 0.0206 0.9983 0.0538
vn 0.1984 0.9661 0.1650
vn 0.0988 0.9613 0.2573
vn 0.0361 0.9989 0.0284
vn 0.0381 0.9992 0.0069
vn 0.1984 0.9661 0.1650
vn 0.0361 0.9989 0.0284
vn 0.2825 0.9570 0.0655
vn 0.1984 0.9661 0.1650
vn 0.0381 0.9992 0.0069
vn 0.0362 0.9993 -0.0010
vn 0.2825 0.9570 0.0655
vn 0.0381 0.9992 0.0069
vn 0.3355 0.9420 0.0049
vn 0.2825 0.9570 0.0655
vn 0.0362 0.9993 -0.0010
vn 0.0596 0.9982 -0.0049
vn 0.3355 0.9420 0.0049
vn 0.0362 0.9993 -0.0010
vn 0.3510 0.9355 -0.0420
vn 0.3355 0.9420 0.0049
vn 0.0596 0.9982 -0.0049
vn 0.2960 0.9446 -0.1416
vn 0.3510 0.9355 -0.0420
vn 0.0596 0.9982 -0.0049
vn 0.0752 0.9966 -0.0322
vn 0.2960 0.9446 -0.1416
vn 0.0596 0.9982 -0.0049
vn 0.1827 0.9546 -0.2354
vn 0.2960 0.9446 -0.1416
vn 0.0752 0.9966 -0.0322
vn 0.0538 0.9967 -0.0616
vn 0.1827 0.9546 -0.2354
vn 0.0752 0.9966 -0.0322
vn 0.0498 0.9641 -0.2607
vn 0.1827 0.9546 -0.2354
vn 0.0538 0.9967 -0.0616
vn 0.0127 0.9976 -0.0675
vn 0.0498 0.9641 -0.2607
vn 0.0538 0.9967 -0.0616
vn -0.0186 0.9982 -0.0576
vn 0.0498 0.9641 -0.2607
vn 0.0127 0.9976 -0.0675
vn -0.0792 0.9667 -0.2434
vn 0.0498 0.9641 -0.2607
vn -0.0186 0.9982 -0.0576
vn -0.0381 0.9988 -0.0303
vn -0.0792 0.9667 -0.2434
vn -0.0186 0.9982 -0.0576
vn -0.2104 0.9618 -0.1751
vn -0.0792 0.9667 -0.2434
vn -0.0381 0.9988 -0.0303
vn -0.0440 0.9990 -0.0088
vn -0.2104 0.9618 -0.1751
vn -0.0381 0.9988 -0.0303
vn -0.3101 0.9480 -0.0714
vn -0.2104 0.9618 -0.1751
vn -0.0440 0.9990 -0.0088
vn -0.0362 0.9993 0.0010
vn -0.3101 0.9480 -0.0714
vn -0.0440 0.9990 -0.0088
vn -0.3372 0.9414 0.0088
vn -0.3101 0.9480 -0.0714
vn -0.0362 0.9993 0.0010
vn -0.3199 0.9457 0.0577
vn -0.3372 0.9414 0.0088
vn -0.0362 0.9993 0.0010
vn -0.0440 0.9990 0.0049
vn -0.3199 0.9457 0.0577
vn -0.0362 0.9993 0.0010
vn -0.2492 0.9586 0.1379
vn -0.3199 0.9457 0.0577
vn -0.0440 0.9990 0.0049
vn -0.0479 0.9986 0.0225
vn -0.2492 0.9586 0.1379
vn -0.0440 0.9990 0.0049
vn -0.1418 0.9610 0.2375
vn -0.2492 0.9586 0.1379
vn -0.0479 0.9986 0.0225
vn -0.0303 0.9983 0.0498
vn -0.1418 0.9610 0.2375
vn -0.0479 0.9986 0.0225
vn -0.0205 0.9578 0.2867
vn -0.1418 0.9610 0.2375
vn -0.0303 0.9983 0.0498
vn -0.0479 0.7669 0.6399
vn -0.1418 0.9610 0.2375
vn -0.0205 0.9578 0.2867
vn 0.0988 0.9613 0.2573
vn -0.0479 0.7669 0.6399
vn -0.0205 0.9578 0.2867
vn 0.2509 0.7859 0.5652
vn -0.0479 0.7669 0.6399
vn 0.0988 0.9613 0.2573
vn 0.1984 0.9661 0.1650
vn 0.2509 0.7859 0.5652
vn 0.0988 0.9613 0.2573
vn 0.4504 0.8159 0.3625
vn 0.2509 0.7859 0.5652
vn 0.1984 0.9661 0.1650
vn 0.2825 0.9570 0.0655
vn 0.4504 0.8159 0.3625
vn 0.1984 0.9661 0.1650
vn 0.6192 0.7680 0.1634
vn 0.4504 0.8159 0.3625
vn 0.2825 0.9570 0.0655
vn 0.3355 0.9420 0.0049
vn 0.6192 0.7680 0.1634
vn 0.2825 0.9570 0.0655
vn 0.7374 0.6749 0.0283
vn 0.6192 0.7680 0.1634
vn 0.3355 0.9420 0.0049
vn 0.3510 0.9355 -0.0420
vn 0.7374 0.6749 0.0283
vn 0.3355 0.9420 0.0049
vn 0.7567 0.6453 -0.1044
vn 0.7374 0.6749 0.0283
vn 0.3510 0.9355 -0.0420
vn 0.6269 0.7051 -0.3315
vn 0.7567 0.6453 -0.1044
vn 0.3510 0.9355 -0.0420
vn 0.2960 0.9446 -0.1416
vn 0.6269 0.7051 -0.3315
vn 0.3510 0.9355 -0.0420
vn 0.3685 0.7712 -0.5190
vn 0.6269 0.7051 -0.3315
vn 0.2960 0.9446 -0.1416
vn 0.1827 0.9546 -0.2354
vn 0.3685 0.7712 -0.5190
vn 0.2960 0.9446 -0.1416
vn 0.1047 0.8147 -0.5703
vn 0.3685 0.7712 -0.5190
vn 0.1827 0.9546 -0.2354
vn 0.0498 0.9641 -0.2607
vn 0.1047 0.8147 -0.5703
vn 0.1827 0.9546 -0.2354
vn -0.1690 0.8217 -0.5443
vn 0.1047 0.8147 -0.5703
vn 0.0498 0.9641 -0.2607
vn -0.0792 0.9667 -0.2434
vn -0.1690 0.8217 -0.5443
vn 0.0498 0.9641 -0.2607
vn -0.2104 0.9618 -0.1751
vn -0.1690 0.8217 -0.5443
vn -0.0792 0.9667 -0.2434
vn -0.4743 0.7813 -0.4058
vn -0.1690 0.8217 -0.5443
vn -0.2104 0.9618 -0.1751
vn -0.3101 0.9480 -0.0714
vn -0.4743 0.7813 -0.4058
vn -0.2104 0.9618 -0.1751
vn -0.6871 0.7047 -0.1769
vn -0.4743 0.7813 -0.4058
vn -0.3101 0.9480 -0.0714
vn -0.3372 0.9414 0.0088
vn -0.6871 0.7047 -0.1769
vn -0.3101 0.9480 -0.0714
vn -0.7441 0.6679 0.0147
vn -0.6871 0.7047 -0.1769
vn -0.3372 0.9414 0.0088
vn -0.6934 0.7072 0.1379
vn -0.7441 0.6679 0.0147
vn -0.3372 0.9414 0.0088
vn -0.3199 0.9457 0.0577
vn -0.6934 0.7072 0.1379
vn -0.3372 0.9414 0.0088
vn -0.5506 0.7774 0.3041
vn -0.6934 0.7072 0.1379
vn -0.3199 0.9457 0.0577
vn -0.2492 0.9586 0.1379
vn -0.5506 0.7774 0.3041
vn -0.3199 0.9457 0.0577
vn -0.3432 0.7852 0.5154
vn -0.5506 0.7774 0.3041
vn -0.2492 0.9586 0.1379
vn -0.1418 0.9610 0.2375
vn -0.3432 0.7852 0.5154
vn -0.2492 0.9586 0.1379
vn -0.0479 0.7669 0.6399
vn -0.3432 0.7852 0.5154
vn -0.1418 0.9610 0.2375
vn -0.0616 0.7145 0.6969
vn -0.3432 0.7852 0.5154
vn -0.0479 0.7669 0.6399
vn 0.2509 0.7859 0.5652
vn -0.0616 0.7145 0.6969
vn -0.0479 0.7669 0.6399
vn 0.3353 0.7106 0.6186
vn -0.0616 0.7145 0.6969
vn 0.2509 0.7859 0.5652
vn 0.4504 0.8159 0.3625
vn 0.3353 0.7106 0.6186
vn 0.2509 0.7859 0.5652
vn 0.5605 0.7151 0.4177
vn 0.3353 0.7106 0.6186
vn 0.4504 0.8159 0.3625
vn 0.6192 0.7680 0.1634
vn 0.5605 0.7151 0.4177
vn 0.4504 0.8159 0.3625
vn 0.7051 0.6778 0.2083
vn 0.5605 0.7151 0.4177
vn 0.6192 0.7680 0.1634
vn 0.7374 0.6749 0.0283
vn 0.7051 0.6778 0.2083
vn 0.6192 0.7680 0.1634
vn 0.7859 0.6161 0.0517
vn 0.7051 0.6778 0.2083
vn 0.7374 0.6749 0.0283
vn 0.7567 0.6453 -0.1044
vn 0.7859 0.6161 0.0517
vn 0.7374 0.6749 0.0283
vn 0.7873 0.6054 -0.1164
vn 0.7859 0.6161 0.0517
vn 0.7567 0.6453 -0.1044
vn 0.6269 0.7051 -0.3315
vn 0.7873 0.6054 -0.1164
vn 0.7567 0.6453 -0.1044
vn 0.6409 0.6742 -0.3670
vn 0.7873 0.6054 -0.1164
vn 0.6269 0.7051 -0.3315
vn 0.3647 0.7480 -0.5544
vn 0.6409 0.6742 -0.3670
vn 0.6269 0.7051 -0.3315
vn 0.3685 0.7712 -0.5190
vn 0.3647 0.7480 -0.5544
vn 0.6269 0.7051 -0.3315
vn 0.1007 0.7868 -0.6089
vn 0.3647 0.7480 -0.5544
vn 0.3685 0.7712 -0.5190
vn 0.1047 0.8147 -0.5703
vn 0.1007 0.7868 -0.6089
vn 0.3685 0.7712 -0.5190
vn -0.1829 0.7894 -0.5859
vn 0.1007 0.7868 -0.6089
vn 0.1047 0.8147 -0.5703
vn -0.1690 0.8217 -0.5443
vn -0.1829 0.7894 -0.5859
vn 0.1047 0.8147 -0.5703
vn -0.4743 0.7813 -0.4058
vn -0.1829 0.7894 -0.5859
vn -0.1690 0.8217 -0.5443
vn -0.5125 0.7313 -0.4500
vn -0.1829 0.7894 -0.5859
vn -0.4743 0.7813 -0.4058
vn -0.6871 0.7047 -0.1769
vn -0.5125 0.7313 -0.4500
vn -0.4743 0.7813 -0.4058
vn -0.7366 0.6428 -0.2104
vn -0.5125 0.7313 -0.4500
vn -0.6871 0.7047 -0.1769
vn -0.7989 0.6014 0.0088
vn -0.7366 0.6428 -0.2104
vn -0.6871 0.7047 -0.1769
vn -0.7441 0.6679 0.0147
vn -0.7989 0.6014 0.0088
vn -0.6871 0.7047 -0.1769
vn -0.7583 0.6311 0.1634
vn -0.7989 0.6014 0.0088
vn -0.7441 0.6679 0.0147
vn -0.6934 0.7072 0.1379
vn -0.7583 0.6311 0.1634
vn -0.7441 0.6679 0.0147
vn -0.6447 0.6897 0.3297
vn -0.7583 0.6311 0.1634
vn -0.6934 0.7072 0.1379
vn -0.5506 0.7774 0.3041
vn -0.6447 0.6897 0.3297
vn -0.6934 0.7072 0.1379
vn -0.4449 0.7109 0.5446
vn -0.6447 0.6897 0.3297
vn -0.5506 0.7774 0.3041
vn -0.3432 0.7852 0.5154
vn -0.4449 0.7109 0.5446
vn -0.5506 0.7774 0.3041
vn -0.0616 0.7145 0.6969
vn -0.4449 0.7109 0.5446
vn -0.3432 0.7852 0.5154
vn -0.0635 0.8513 0.5209
vn -0.4449 0.7109 0.5446
vn -0.0616 0.7145 0.6969
vn 0.3353 0.7106 0.6186
vn -0.0635 0.8513 0.5209
vn -0.0616 0.7145 0.6969
vn 0.3062 0.8208 0.4823
vn -0.0635 0.8513 0.5209
vn 0.3353 0.7106 0.6186
vn 0.5605 0.7151 0.4177
vn 0.3062 0.8208 0.4823
vn 0.3353 0.7106 0.6186
vn 0.5266 0.7787 0.3409
vn 0.3062 0.8208 0.4823
vn 0.5605 0.7151 0.4177
vn 0.7051 0.6778 0.2083
vn 0.5266 0.7787 0.3409
vn 0.5605 0.7151 0.4177
vn 0.6286 0.7596 0.1671
vn 0.5266 0.7787 0.3409
vn 0.7051 0.6778 0.2083
vn 0.7859 0.6161 0.0517
vn 0.6286 0.7596 0.1671
vn 0.7051 0.6778 0.2083
vn 0.6456 0.7629 0.0361
vn 0.6286 0.7596 0.1671
vn 0.7859 0.6161 0.0517
vn 0.6069 0.7888 -0.0968
vn 0.6456 0.7629 0.0361
vn 0.7859 0.6161 0.0517
vn 0.7873 0.6054 -0.1164
vn 0.6069 0.7888 -0.0968
vn 0.7859 0.6161 0.0517
vn 0.4716 0.8368 -0.2782
vn 0.6069 0.7888 -0.0968
vn 0.7873 0.6054 -0.1164
vn 0.6409 0.6742 -0.3670
vn 0.4716 0.8368 -0.2782
vn 0.7873 0.6054 -0.1164
vn 0.2629 0.8709 -0.4153
vn 0.4716 0.8368 -0.2782
vn 0.6409 0.6742 -0.3670
vn 0.3647 0.7480 -0.5544
vn 0.2629 0.8709 -0.4153
vn 0.6409 0.6742 -0.3670
vn 0.0557 0.8820 -0.4679
vn 0.2629 0.8709 -0.4153
vn 0.3647 0.7480 -0.5544
vn 0.1007 0.7868 -0.6089
vn 0.0557 0.8820 -0.4679
vn 0.3647 0.7480 -0.5544
vn -0.1651 0.8823 -0.4407
vn 0.0557 0.8820 -0.4679
vn 0.1007 0.7868 -0.6089
vn -0.1829 0.7894 -0.5859
vn -0.1651 0.8823 -0.4407
vn 0.1007 0.7868 -0.6089
vn -0.5125 0.7313 -0.4500
vn -0.1651 0.8823 -0.4407
vn -0.1829 0.7894 -0.5859
vn -0.3863 0.8538 -0.3491
vn -0.1651 0.8823 -0.4407
vn -0.5125 0.7313 -0.4500
vn -0.7366 0.6428 -0.2104
vn -0.3863 0.8538 -0.3491
vn -0.5125 0.7313 -0.4500
vn -0.5704 0.7994 -0.1888
vn -0.3863 0.8538 -0.3491
vn -0.7366 0.6428 -0.2104
vn -0.7989 0.6014 0.0088
vn -0.5704 0.7994 -0.1888
vn -0.7366 0.6428 -0.2104
vn -0.6555 0.7552 -0.0088
vn -0.5704 0.7994 -0.1888
vn -0.7989 0.6014 0.0088
vn -0.6440 0.7535 0.1319
vn -0.6555 0.7552 -0.0088
vn -0.7989 0.6014 0.0088
vn -0.7583 0.6311 0.1634
vn -0.6440 0.7535 0.1319
vn -0.7989 0.6014 0.0088
vn -0.5828 0.7722 0.2529
vn -0.6440 0.7535 0.1319
vn -0.7583 0.6311 0.1634
vn -0.6447 0.6897 0.3297
vn -0.5828 0.7722 0.2529
vn -0.7583 0.6311 0.1634
vn -0.4209 0.8135 0.4014
vn -0.5828 0.7722 0.2529
vn -0.6447 0.6897 0.3297
vn -0.4449 0.7109 0.5446
vn -0.4209 0.8135 0.4014
vn -0.6447 0.6897 0.3297
vn -0.0635 0.8513 0.5209
vn -0.4209 0.8135 0.4014
vn -0.4449 0.7109 0.5446
vn -0.0420 0.9566 0.2883
vn -0.4209 0.8135 0.4014
vn -0.0635 0.8513 0.5209
vn 0.3062 0.8208 0.4823
vn -0.0420 0.9566 0.2883
vn -0.0635 0.8513 0.5209
vn 0.2044 0.9396 0.2747
vn -0.0420 0.9566 0.2883
vn 0.3062 0.8208 0.4823
vn 0.5266 0.7787 0.3409
vn 0.2044 0.9396 0.2747
vn 0.3062 0.8208 0.4823
vn 0.3724 0.9079 0.1925
vn 0.2044 0.9396 0.2747
vn 0.5266 0.7787 0.3409
vn 0.6286 0.7596 0.1671
vn 0.3724 0.9079 0.1925
vn 0.5266 0.7787 0.3409
vn 0.4587 0.8850 0.0792
vn 0.3724 0.9079 0.1925
vn 0.6286 0.7596 0.1671
vn 0.6456 0.7629 0.0361
vn 0.4587 0.8850 0.0792
vn 0.6286 0.7596 0.1671
vn 0.6456 0.7629 0.0361
vn 0.4763 0.8793 0.0049
vn 0.4587 0.8850 0.0792
vn 0.4308 0.8977 -0.0928
vn 0.4763 0.8793 0.0049
vn 0.6456 0.7629 0.0361
vn 0.6069 0.7888 -0.0968
vn 0.4308 0.8977 -0.0928
vn 0.6456 0.7629 0.0361
vn 0.3218 0.9204 -0.2220
vn 0.4308 0.8977 -0.0928
vn 0.6069 0.7888 -0.0968
vn 0.4716 0.8368 -0.2782
vn 0.3218 0.9204 -0.2220
vn 0.6069 0.7888 -0.0968
vn 0.1867 0.9355 -0.3001
vn 0.3218 0.9204 -0.2220
vn 0.4716 0.8368 -0.2782
vn 0.2629 0.8709 -0.4153
vn 0.1867 0.9355 -0.3001
vn 0.4716 0.8368 -0.2782
vn 0.0557 0.8820 -0.4679
vn 0.1867 0.9355 -0.3001
vn 0.2629 0.8709 -0.4153
vn 0.0557 0.8820 -0.4679
vn 0.0108 0.9420 -0.3355
vn 0.1867 0.9355 -0.3001
vn -0.1672 0.9378 -0.3042
vn 0.0108 0.9420 -0.3355
vn 0.0557 0.8820 -0.4679
vn -0.1651 0.8823 -0.4407
vn -0.1672 0.9378 -0.3042
vn 0.0557 0.8820 -0.4679
vn -0.3863 0.8538 -0.3491
vn -0.1672 0.9378 -0.3042
vn -0.1651 0.8823 -0.4407
vn -0.2493 0.9298 -0.2709
vn -0.1672 0.9378 -0.3042
vn -0.3863 0.8538 -0.3491
vn -0.5704 0.7994 -0.1888
vn -0.2493 0.9298 -0.2709
vn -0.3863 0.8538 -0.3491
vn -0.3449 0.9214 -0.1788
vn -0.2493 0.9298 -0.2709
vn -0.5704 0.7994 -0.1888
vn -0.6555 0.7552 -0.0088
vn -0.3449 0.9214 -0.1788
vn -0.5704 0.7994 -0.1888
vn -0.6555 0.7552 -0.0088
vn -0.4404 0.8973 -0.0303
vn -0.3449 0.9214 -0.1788
vn -0.4371 0.8966 0.0714
vn -0.4404 0.8973 -0.0303
vn -0.6555 0.7552 -0.0088
vn -0.6440 0.7535 0.1319
vn -0.4371 0.8966 0.0714
vn -0.6555 0.7552 -0.0088
vn -0.4113 0.9016 0.1339
vn -0.4371 0.8966 0.0714
vn -0.6440 0.7535 0.1319
vn -0.5828 0.7722 0.2529
vn -0.4113 0.9016 0.1339
vn -0.6440 0.7535 0.1319
vn -0.2961 0.9313 0.2120
vn -0.4113 0.9016 0.1339
vn -0.5828 0.7722 0.2529
vn -0.4209 0.8135 0.4014
vn -0.2961 0.9313 0.2120
vn -0.5828 0.7722 0.2529
vn -0.0420 0.9566 0.2883
vn -0.2961 0.9313 0.2120
vn -0.4209 0.8135 0.4014
vn 0.0108 0.9984 -0.0557
vn -0.2961 0.9313 0.2120
vn -0.0420 0.9566 0.2883
vn 0.0108 0.9984 -0.0557
vn -0.4113 0.9016 0.1339
vn -0.2961 0.9313 0.2120
vn 0.0108 0.9984 -0.0557
vn -0.4371 0.8966 0.0714
vn -0.4113 0.9016 0.1339
vn 0.0108 0.9984 -0.0557
vn -0.4404 0.8973 -0.0303
vn -0.4371 0.8966 0.0714
vn 0.0108 0.9984 -0.0557
vn -0.3449 0.9214 -0.1788
vn -0.4404 0.8973 -0.0303
vn 0.0108 0.9984 -0.0557
vn -0.2493 0.9298 -0.2709
vn -0.3449 0.9214 -0.1788
vn 0.0108 0.9984 -0.0557
vn -0.1672 0.9378 -0.3042
vn -0.2493 0.9298 -0.2709
vn 0.0108 0.9984 -0.0557
vn 0.0108 0.9420 -0.3355
vn -0.1672 0.9378 -0.3042
vn 0.0108 0.9984 -0.0557
vn 0.1867 0.9355 -0.3001
vn 0.0108 0.9420 -0.3355
vn 0.0108 0.9984 -0.0557
vn 0.3218 0.9204 -0.2220
vn 0.1867 0.9355 -0.3001
vn 0.0108 0.9984 -0.0557
vn 0.4308 0.8977 -0.0928
vn 0.3218 0.9204 -0.2220
vn 0.0108 0.9984 -0.0557
vn 0.4763 0.8793 0.0049
vn 0.4308 0.8977 -0.0928
vn 0.0108 0.9984 -0.0557
vn 0.4587 0.8850 0.0792
vn 0.4763 0.8793 0.0049
vn 0.0108 0.9984 -0.0557
vn 0.3724 0.9079 0.1925
vn 0.4587 0.8850 0.0792
vn 0.0108 0.9984 -0.0557
vn 0.2044 0.9396 0.2747
vn 0.3724 0.9079 0.1925
vn -0.0420 0.9566 0.2883
vn 0.2044 0.9396 0.2747
vn 0.0108 0.9984 -0.0557
vn -0.0792 0.5992 0.7967
vn -0.3119 0.6347 0.7070
vn -0.0713 0.5986 0.7978
vn 0.1828 0.5972 0.7810
vn -0.0792 0.5992 0.7967
vn -0.0713 0.5986 0.7978
vn 0.1925 0.5992 0.7771
vn -0.0792 0.5992 0.7967
vn 0.1828 0.5972 0.7810
vn 0.4014 0.6358 0.6593
vn 0.1925 0.5992 0.7771
vn 0.1828 0.5972 0.7810
vn 0.4249 0.6243 0.6555
vn 0.1925 0.5992 0.7771
vn 0.4014 0.6358 0.6593
vn 0.5506 0.6758 0.4900
vn 0.4249 0.6243 0.6555
vn 0.4014 0.6358 0.6593
vn 0.5779 0.6541 0.4880
vn 0.4249 0.6243 0.6555
vn 0.5506 0.6758 0.4900
vn 0.6113 0.7072 0.3551
vn 0.5779 0.6541 0.4880
vn 0.5506 0.6758 0.4900
vn 0.6383 0.6871 0.3470
vn 0.5779 0.6541 0.4880
vn 0.6113 0.7072 0.3551
vn 0.6320 0.7414 0.2256
vn 0.6383 0.6871 0.3470
vn 0.6113 0.7072 0.3551
vn 0.6271 0.7424 0.2358
vn 0.6320 0.7414 0.2256
vn 0.6113 0.7072 0.3551
vn 0.5113 0.8573 0.0597
vn 0.6320 0.7414 0.2256
vn 0.6271 0.7424 0.2358
vn 0.5188 0.8530 0.0576
vn 0.5113 0.8573 0.0597
vn 0.6271 0.7424 0.2358
vn 0.2725 0.9562 -0.1064
vn 0.5113 0.8573 0.0597
vn 0.5188 0.8530 0.0576
vn 0.2710 0.9540 -0.1282
vn 0.2725 0.9562 -0.1064
vn 0.5188 0.8530 0.0576
vn 0.0205 0.9850 -0.1711
vn 0.2725 0.9562 -0.1064
vn 0.2710 0.9540 -0.1282
vn 0.0244 0.9798 -0.1983
vn 0.0205 0.9850 -0.1711
vn 0.2710 0.9540 -0.1282
vn -0.2377 0.9618 -0.1360
vn 0.0205 0.9850 -0.1711
vn 0.0244 0.9798 -0.1983
vn -0.2239 0.9628 -0.1515
vn -0.2377 0.9618 -0.1360
vn 0.0244 0.9798 -0.1983
vn -0.4445 0.8957 -0.0127
vn -0.2377 0.9618 -0.1360
vn -0.2239 0.9628 -0.1515
vn -0.4623 0.8865 -0.0186
vn -0.2377 0.9618 -0.1360
vn -0.4445 0.8957 -0.0127
vn -0.5736 0.8042 0.1554
vn -0.4623 0.8865 -0.0186
vn -0.4445 0.8957 -0.0127
vn -0.5994 0.7892 0.1339
vn -0.4623 0.8865 -0.0186
vn -0.5736 0.8042 0.1554
vn -0.6132 0.7345 0.2905
vn -0.5994 0.7892 0.1339
vn -0.5736 0.8042 0.1554
vn -0.6526 0.7075 0.2710
vn -0.5994 0.7892 0.1339
vn -0.6132 0.7345 0.2905
vn -0.6346 0.6659 0.3921
vn -0.6526 0.7075 0.2710
vn -0.6132 0.7345 0.2905
vn -0.5875 0.7047 0.3979
vn -0.6346 0.6659 0.3921
vn -0.6132 0.7345 0.2905
vn -0.5287 0.6480 0.5483
vn -0.6346 0.6659 0.3921
vn -0.5875 0.7047 0.3979
vn -0.4861 0.6817 0.5468
vn -0.5287 0.6480 0.5483
vn -0.5875 0.7047 0.3979
vn -0.3375 0.6191 0.7091
vn -0.5287 0.6480 0.5483
vn -0.4861 0.6817 0.5468
vn -0.3119 0.6347 0.7070
vn -0.3375 0.6191 0.7091
vn -0.4861 0.6817 0.5468
vn -0.0792 0.5992 0.7967
vn -0.3375 0.6191 0.7091
vn -0.3119 0.6347 0.7070
vn -0.0773 0.7384 0.6699
vn -0.3375 0.6191 0.7091
vn -0.0792 0.5992 0.7967
vn 0.1925 0.5992 0.7771
vn -0.0773 0.7384 0.6699
vn -0.0792 0.5992 0.7967
vn 0.1378 0.7439 0.6539
vn -0.0773 0.7384 0.6699
vn 0.1925 0.5992 0.7771
vn 0.4249 0.6243 0.6555
vn 0.1378 0.7439 0.6539
vn 0.1925 0.5992 0.7771
vn 0.3159 0.7540 0.5759
vn 0.1378 0.7439 0.6539
vn 0.4249 0.6243 0.6555
vn 0.5779 0.6541 0.4880
vn 0.3159 0.7540 0.5759
vn 0.4249 0.6243 0.6555
vn 0.4288 0.7727 0.4680
vn 0.3159 0.7540 0.5759
vn 0.5779 0.6541 0.4880
vn 0.6383 0.6871 0.3470
vn 0.4288 0.7727 0.4680
vn 0.5779 0.6541 0.4880
vn 0.4703 0.8027 0.3667
vn 0.4288 0.7727 0.4680
vn 0.6383 0.6871 0.3470
vn 0.6320 0.7414 0.2256
vn 0.4703 0.8027 0.3667
vn 0.6383 0.6871 0.3470
vn 0.4511 0.8484 0.2770
vn 0.4703 0.8027 0.3667
vn 0.6320 0.7414 0.2256
vn 0.3571 0.9186 0.1692
vn 0.4511 0.8484 0.2770
vn 0.6320 0.7414 0.2256
vn 0.5113 0.8573 0.0597
vn 0.3571 0.9186 0.1692
vn 0.6320 0.7414 0.2256
vn 0.1927 0.9789 0.0674
vn 0.3571 0.9186 0.1692
vn 0.5113 0.8573 0.0597
vn 0.2725 0.9562 -0.1064
vn 0.1927 0.9789 0.0674
vn 0.5113 0.8573 0.0597
vn -0.0049 0.9997 0.0225
vn 0.1927 0.9789 0.0674
vn 0.2725 0.9562 -0.1064
vn 0.0205 0.9850 -0.1711
vn -0.0049 0.9997 0.0225
vn 0.2725 0.9562 -0.1064
vn -0.2377 0.9618 -0.1360
vn -0.0049 0.9997 0.0225
vn 0.0205 0.9850 -0.1711
vn -0.2102 0.9769 0.0381
vn -0.0049 0.9997 0.0225
vn -0.2377 0.9618 -0.1360
vn -0.4623 0.8865 -0.0186
vn -0.2102 0.9769 0.0381
vn -0.2377 0.9618 -0.1360
vn -0.3784 0.9199 0.1026
vn -0.2102 0.9769 0.0381
vn -0.4623 0.8865 -0.0186
vn -0.5994 0.7892 0.1339
vn -0.3784 0.9199 0.1026
vn -0.4623 0.8865 -0.0186
vn -0.4838 0.8533 0.1946
vn -0.3784 0.9199 0.1026
vn -0.5994 0.7892 0.1339
vn -0.6526 0.7075 0.2710
vn -0.4838 0.8533 0.1946
vn -0.5994 0.7892 0.1339
vn -0.5266 0.7983 0.2922
vn -0.4838 0.8533 0.1946
vn -0.6526 0.7075 0.2710
vn -0.5169 0.7631 0.3879
vn -0.5266 0.7983 0.2922
vn -0.6526 0.7075 0.2710
vn -0.6346 0.6659 0.3921
vn -0.5169 0.7631 0.3879
vn -0.6526 0.7075 0.2710
vn -0.4355 0.7486 0.5000
vn -0.5169 0.7631 0.3879
vn -0.6346 0.6659 0.3921
vn -0.5287 0.6480 0.5483
vn -0.4355 0.7486 0.5000
vn -0.6346 0.6659 0.3921
vn -0.2827 0.7406 0.6096
vn -0.4355 0.7486 0.5000
vn -0.5287 0.6480 0.5483
vn -0.3375 0.6191 0.7091
vn -0.2827 0.7406 0.6096
vn -0.5287 0.6480 0.5483
vn -0.0773 0.7384 0.6699
vn -0.2827 0.7406 0.6096
vn -0.3375 0.6191 0.7091
vn -0.0479 0.9308 0.3624
vn -0.2827 0.7406 0.6096
vn -0.0773 0.7384 0.6699
vn -0.0479 0.9308 0.3624
vn -0.4355 0.7486 0.5000
vn -0.2827 0.7406 0.6096
vn -0.0479 0.9308 0.3624
vn -0.5169 0.7631 0.3879
vn -0.4355 0.7486 0.5000
vn -0.0479 0.9308 0.3624
vn -0.5266 0.7983 0.2922
vn -0.5169 0.7631 0.3879
vn -0.0479 0.9308 0.3624
vn -0.4838 0.8533 0.1946
vn -0.5266 0.7983 0.2922
vn -0.0479 0.9308 0.3624
vn -0.3784 0.9199 0.1026
vn -0.4838 0.8533 0.1946
vn -0.0479 0.9308 0.3624
vn -0.2102 0.9769 0.0381
vn -0.3784 0.9199 0.1026
vn -0.0479 0.9308 0.3624
vn -0.0049 0.9997 0.0225
vn -0.2102 0.9769 0.0381
vn -0.0479 0.9308 0.3624
vn 0.1927 0.9789 0.0674
vn -0.0049 0.9997 0.0225
vn -0.0479 0.9308 0.3624
vn 0.3571 0.9186 0.1692
vn 0.1927 0.9789 0.0674
vn -0.0479 0.9308 0.3624
vn 0.4511 0.8484 0.2770
vn 0.3571 0.9186 0.1692
vn -0.0479 0.9308 0.3624
vn 0.4703 0.8027 0.3667
vn 0.4511 0.8484 0.2770
vn -0.0479 0.9308 0.3624
vn 0.4288 0.7727 0.4680
vn 0.4703 0.8027 0.3667
vn -0.0479 0.9308 0.3624
vn 0.3159 0.7540 0.5759
vn 0.4288 0.7727 0.4680
vn -0.0479 0.9308 0.3624
vn 0.1378 0.7439 0.6539
vn 0.3159 0.7540 0.5759
vn -0.0773 0.7384 0.6699
vn 0.1378 0.7439 0.6539
vn -0.0479 0.9308 0.3624
# 768 vertex normals

vt 0.0091 0.3027 0.0000
vt 0.0170 0.3315 0.0000
vt 0.0241 0.3013 0.0000
vt 0.0114 0.2700 0.0000
vt 0.0272 0.2729 0.0000
vt 0.0302 0.2388 0.0000
vt 0.0433 0.2437 0.0000
vt 0.0599 0.2222 0.0000
vt 0.0696 0.2295 0.0000
vt 0.1017 0.2192 0.0000
vt 0.1046 0.2251 0.0000
vt 0.1394 0.2202 0.0000
vt 0.1372 0.2261 0.0000
vt 0.1754 0.2334 0.0000
vt 0.1791 0.2275 0.0000
vt 0.2008 0.2563 0.0000
vt 0.2115 0.2510 0.0000
vt 0.2129 0.2822 0.0000
vt 0.2286 0.2808 0.0000
vt 0.2251 0.3105 0.0000
vt 0.2118 0.3081 0.0000
vt 0.2124 0.3403 0.0000
vt 0.1982 0.3350 0.0000
vt 0.1646 0.3613 0.0000
vt 0.1587 0.3560 0.0000
vt 0.1223 0.3662 0.0000
vt 0.1226 0.3599 0.0000
vt 0.0796 0.3560 0.0000
vt 0.0714 0.3628 0.0000
vt 0.0500 0.3472 0.0000
vt 0.0397 0.3555 0.0000
vt 0.0320 0.3267 0.0000
vt 0.0351 0.3003 0.0000
vt 0.0386 0.2759 0.0000
vt 0.0535 0.2510 0.0000
vt 0.0768 0.2378 0.0000
vt 0.1070 0.2329 0.0000
vt 0.1361 0.2339 0.0000
vt 0.1699 0.2422 0.0000
vt 0.1897 0.2603 0.0000
vt 0.1995 0.2827 0.0000
vt 0.1992 0.3062 0.0000
vt 0.1873 0.3296 0.0000
vt 0.1542 0.3481 0.0000
vt 0.1232 0.3516 0.0000
vt 0.0861 0.3481 0.0000
vt 0.0602 0.3398 0.0000
vt 0.0430 0.3223 0.0000
vt 0.0464 0.2988 0.0000
vt 0.0508 0.2793 0.0000
vt 0.0654 0.2598 0.0000
vt 0.0858 0.2471 0.0000
vt 0.1105 0.2412 0.0000
vt 0.1361 0.2407 0.0000
vt 0.1656 0.2510 0.0000
vt 0.1786 0.2661 0.0000
vt 0.1843 0.2842 0.0000
vt 0.1859 0.3042 0.0000
vt 0.1753 0.3237 0.0000
vt 0.1510 0.3394 0.0000
vt 0.1250 0.3438 0.0000
vt 0.0952 0.3403 0.0000
vt 0.0729 0.3320 0.0000
vt 0.0551 0.3169 0.0000
vt 0.0655 0.2974 0.0000
vt 0.0683 0.2837 0.0000
vt 0.0802 0.2700 0.0000
vt 0.0953 0.2622 0.0000
vt 0.1136 0.2588 0.0000
vt 0.1316 0.2588 0.0000
vt 0.1499 0.2646 0.0000
vt 0.1580 0.2749 0.0000
vt 0.1626 0.2871 0.0000
vt 0.1624 0.3013 0.0000
vt 0.1572 0.3140 0.0000
vt 0.1420 0.3232 0.0000
vt 0.1234 0.3267 0.0000
vt 0.1036 0.3247 0.0000
vt 0.0880 0.3193 0.0000
vt 0.0726 0.3096 0.0000
vt 0.0873 0.2954 0.0000
vt 0.0880 0.2881 0.0000
vt 0.0962 0.2798 0.0000
vt 0.1052 0.2759 0.0000
vt 0.1166 0.2754 0.0000
vt 0.1262 0.2759 0.0000
vt 0.1345 0.2783 0.0000
vt 0.1433 0.2837 0.0000
vt 0.1454 0.2905 0.0000
vt 0.1451 0.2974 0.0000
vt 0.1371 0.3037 0.0000
vt 0.1304 0.3081 0.0000
vt 0.1214 0.3105 0.0000
vt 0.1119 0.3101 0.0000
vt 0.1035 0.3071 0.0000
vt 0.0919 0.3022 0.0000
vt 0.1171 0.2910 0.0000
vt 0.0955 0.2959 0.0000
vt 0.0945 0.2925 0.0000
vt 0.0934 0.2959 0.0000
vt 0.0948 0.2988 0.0000
vt 0.0930 0.2988 0.0000
vt 0.0930 0.3018 0.0000
vt 0.0912 0.3013 0.0000
vt 0.0891 0.3042 0.0000
vt 0.0881 0.3032 0.0000
vt 0.0847 0.3047 0.0000
vt 0.0845 0.3037 0.0000
vt 0.0806 0.3042 0.0000
vt 0.0803 0.3047 0.0000
vt 0.0762 0.3027 0.0000
vt 0.0751 0.3042 0.0000
vt 0.0736 0.3003 0.0000
vt 0.0717 0.3008 0.0000
vt 0.0727 0.2974 0.0000
vt 0.0707 0.2974 0.0000
vt 0.0729 0.2944 0.0000
vt 0.0709 0.2939 0.0000
vt 0.0733 0.2905 0.0000
vt 0.0748 0.2920 0.0000
vt 0.0778 0.2886 0.0000
vt 0.0785 0.2896 0.0000
vt 0.0828 0.2881 0.0000
vt 0.0827 0.2891 0.0000
vt 0.0872 0.2900 0.0000
vt 0.0883 0.2886 0.0000
vt 0.0905 0.2910 0.0000
vt 0.0922 0.2900 0.0000
vt 0.0925 0.2935 0.0000
vt 0.0891 0.2964 0.0000
vt 0.0888 0.2979 0.0000
vt 0.0877 0.2993 0.0000
vt 0.0859 0.3008 0.0000
vt 0.0837 0.3013 0.0000
vt 0.0814 0.3008 0.0000
vt 0.0793 0.3003 0.0000
vt 0.0779 0.2988 0.0000
vt 0.0773 0.2974 0.0000
vt 0.0775 0.2954 0.0000
vt 0.0787 0.2939 0.0000
vt 0.0806 0.2930 0.0000
vt 0.0828 0.2925 0.0000
vt 0.0851 0.2930 0.0000
vt 0.0870 0.2935 0.0000
vt 0.0885 0.2949 0.0000
vt 0.0831 0.2969 0.0000
# 146 texture coords

o SM_Chiton_03_LOD0
g SM_Chiton_03_LOD0
usemtl MAT_Sea_Shells
s 1
f 2/3/1 25/2/2 1/1/3 
f 3/4/4 2/3/5 1/1/6 
f 26/5/7 2/3/8 3/4/9 
f 4/6/10 26/5/11 3/4/12 
f 27/7/13 26/5/14 4/6/15 
f 5/8/16 27/7/17 4/6/18 
f 30/9/19 27/7/20 5/8/21 
f 6/10/22 30/9/23 5/8/24 
f 8/11/25 30/9/26 6/10/27 
f 7/12/28 8/11/29 6/10/30 
f 9/13/31 8/11/32 7/12/33 
f 10/14/34 9/13/35 7/12/36 
f 12/15/37 10/14/38 7/12/39 
f 11/16/40 10/14/41 12/15/42 
f 13/17/43 11/16/44 12/15/45 
f 34/18/46 11/16/47 13/17/48 
f 14/19/49 34/18/50 13/17/51 
f 15/20/52 34/18/53 14/19/54 
f 16/21/55 34/18/56 15/20/57 
f 17/22/58 16/21/59 15/20/60 
f 35/23/61 16/21/62 17/22/63 
f 18/24/64 35/23/65 17/22/66 
f 36/25/67 35/23/68 18/24/69 
f 19/26/70 36/25/71 18/24/72 
f 20/27/73 36/25/74 19/26/75 
f 37/28/76 20/27/77 19/26/78 
f 21/29/79 37/28/80 19/26/81 
f 23/30/82 37/28/83 21/29/84 
f 22/31/85 23/30/86 21/29/87 
f 24/32/88 23/30/89 22/31/90 
f 25/2/91 24/32/92 22/31/93 
f 2/3/94 24/32/95 25/2/96 
f 39/33/97 24/32/98 2/3/99 
f 26/5/100 39/33/101 2/3/102 
f 28/34/103 39/33/104 26/5/105 
f 27/7/106 28/34/107 26/5/108 
f 29/35/109 28/34/110 27/7/111 
f 30/9/112 29/35/113 27/7/114 
f 31/36/115 29/35/116 30/9/117 
f 8/11/118 31/36/119 30/9/120 
f 42/37/121 31/36/122 8/11/123 
f 9/13/124 42/37/125 8/11/126 
f 43/38/127 42/37/128 9/13/129 
f 32/39/130 43/38/131 9/13/132 
f 10/14/133 32/39/134 9/13/135 
f 45/40/136 32/39/137 10/14/138 
f 11/16/139 45/40/140 10/14/141 
f 33/41/142 45/40/143 11/16/144 
f 34/18/145 33/41/146 11/16/147 
f 46/42/148 33/41/149 34/18/150 
f 16/21/151 46/42/152 34/18/153 
f 35/23/154 46/42/155 16/21/156 
f 47/43/157 46/42/158 35/23/159 
f 36/25/160 47/43/161 35/23/162 
f 49/44/163 47/43/164 36/25/165 
f 20/27/166 49/44/167 36/25/168 
f 51/45/169 49/44/170 20/27/171 
f 38/46/172 51/45/173 20/27/174 
f 37/28/175 38/46/176 20/27/177 
f 54/47/178 38/46/179 37/28/180 
f 23/30/181 54/47/182 37/28/183 
f 56/48/184 54/47/185 23/30/186 
f 24/32/187 56/48/188 23/30/189 
f 39/33/190 56/48/191 24/32/192 
f 57/49/193 56/48/194 39/33/195 
f 28/34/196 57/49/197 39/33/198 
f 58/50/199 57/49/200 28/34/201 
f 29/35/202 58/50/203 28/34/204 
f 40/51/205 58/50/206 29/35/207 
f 31/36/208 40/51/209 29/35/210 
f 41/52/211 40/51/212 31/36/213 
f 42/37/214 41/52/215 31/36/216 
f 61/53/217 41/52/218 42/37/219 
f 43/38/220 61/53/221 42/37/222 
f 63/54/223 61/53/224 43/38/225 
f 32/39/226 63/54/227 43/38/228 
f 44/55/229 63/54/230 32/39/231 
f 64/56/232 44/55/233 32/39/234 
f 45/40/235 64/56/236 32/39/237 
f 66/57/238 64/56/239 45/40/240 
f 33/41/241 66/57/242 45/40/243 
f 48/58/244 66/57/245 33/41/246 
f 46/42/247 48/58/248 33/41/249 
f 47/43/250 48/58/251 46/42/252 
f 68/59/253 48/58/254 47/43/255 
f 49/44/256 68/59/257 47/43/258 
f 69/60/259 68/59/260 49/44/261 
f 50/61/262 69/60/263 49/44/264 
f 51/45/265 50/61/266 49/44/267 
f 52/62/268 50/61/269 51/45/270 
f 38/46/271 52/62/272 51/45/273 
f 53/63/274 52/62/275 38/46/276 
f 54/47/277 53/63/278 38/46/279 
f 55/64/280 53/63/281 54/47/282 
f 56/48/283 55/64/284 54/47/285 
f 57/49/286 55/64/287 56/48/288 
f 59/65/289 55/64/290 57/49/291 
f 58/50/292 59/65/293 57/49/294 
f 60/66/295 59/65/296 58/50/297 
f 40/51/298 60/66/299 58/50/300 
f 74/67/301 60/66/302 40/51/303 
f 41/52/304 74/67/305 40/51/306 
f 75/68/307 74/67/308 41/52/309 
f 61/53/310 75/68/311 41/52/312 
f 78/69/313 75/68/314 61/53/315 
f 80/70/316 78/69/317 61/53/318 
f 63/54/319 80/70/320 61/53/321 
f 62/71/322 80/70/323 63/54/324 
f 44/55/325 62/71/326 63/54/327 
f 82/72/328 62/71/329 44/55/330 
f 64/56/331 82/72/332 44/55/333 
f 65/73/334 82/72/335 64/56/336 
f 66/57/337 65/73/338 64/56/339 
f 67/74/340 65/73/341 66/57/342 
f 48/58/343 67/74/344 66/57/345 
f 68/59/346 67/74/347 48/58/348 
f 84/75/349 67/74/350 68/59/351 
f 69/60/352 84/75/353 68/59/354 
f 85/76/355 84/75/356 69/60/357 
f 50/61/358 85/76/359 69/60/360 
f 88/77/361 85/76/362 50/61/363 
f 70/78/364 88/77/365 50/61/366 
f 52/62/367 70/78/368 50/61/369 
f 90/79/370 70/78/371 52/62/372 
f 53/63/373 90/79/374 52/62/375 
f 71/80/376 90/79/377 53/63/378 
f 55/64/379 71/80/380 53/63/381 
f 59/65/382 71/80/383 55/64/384 
f 72/81/385 71/80/386 59/65/387 
f 60/66/388 72/81/389 59/65/390 
f 73/82/391 72/81/392 60/66/393 
f 74/67/394 73/82/395 60/66/396 
f 96/83/397 73/82/398 74/67/399 
f 75/68/400 96/83/401 74/67/402 
f 76/84/403 96/83/404 75/68/405 
f 78/69/406 76/84/407 75/68/408 
f 78/69/409 77/85/410 76/84/411 
f 79/86/412 77/85/413 78/69/414 
f 80/70/415 79/86/416 78/69/417 
f 81/87/418 79/86/419 80/70/420 
f 62/71/421 81/87/422 80/70/423 
f 83/88/424 81/87/425 62/71/426 
f 82/72/427 83/88/428 62/71/429 
f 65/73/430 83/88/431 82/72/432 
f 65/73/433 95/89/434 83/88/435 
f 94/90/436 95/89/437 65/73/438 
f 67/74/439 94/90/440 65/73/441 
f 84/75/442 94/90/443 67/74/444 
f 93/91/445 94/90/446 84/75/447 
f 85/76/448 93/91/449 84/75/450 
f 86/92/451 93/91/452 85/76/453 
f 88/77/454 86/92/455 85/76/456 
f 88/77/457 87/93/458 86/92/459 
f 89/94/460 87/93/461 88/77/462 
f 70/78/463 89/94/464 88/77/465 
f 91/95/466 89/94/467 70/78/468 
f 90/79/469 91/95/470 70/78/471 
f 92/96/472 91/95/473 90/79/474 
f 71/80/475 92/96/476 90/79/477 
f 72/81/478 92/96/479 71/80/480 
f 97/97/481 92/96/482 72/81/483 
f 97/97/484 91/95/485 92/96/486 
f 97/97/487 89/94/488 91/95/489 
f 97/97/490 87/93/491 89/94/492 
f 97/97/493 86/92/494 87/93/495 
f 97/97/496 93/91/497 86/92/498 
f 97/97/499 94/90/500 93/91/501 
f 97/97/502 95/89/503 94/90/504 
f 97/97/505 83/88/506 95/89/507 
f 97/97/508 81/87/509 83/88/510 
f 97/97/511 79/86/512 81/87/513 
f 97/97/514 77/85/515 79/86/516 
f 97/97/517 76/84/518 77/85/519 
f 97/97/520 96/83/521 76/84/522 
f 97/97/523 73/82/524 96/83/525 
f 72/81/526 73/82/527 97/97/528 
f 121/100/529 120/99/530 98/98/531 
f 99/101/532 121/100/533 98/98/534 
f 122/102/535 121/100/536 99/101/537 
f 100/103/538 122/102/539 99/101/540 
f 101/104/541 122/102/542 100/103/543 
f 102/105/544 101/104/545 100/103/546 
f 123/106/547 101/104/548 102/105/549 
f 103/107/550 123/106/551 102/105/552 
f 125/108/553 123/106/554 103/107/555 
f 126/109/556 125/108/557 103/107/558 
f 104/110/559 126/109/560 103/107/561 
f 106/111/562 126/109/563 104/110/564 
f 105/112/565 106/111/566 104/110/567 
f 129/113/568 106/111/569 105/112/570 
f 107/114/571 129/113/572 105/112/573 
f 108/115/574 129/113/575 107/114/576 
f 109/116/577 108/115/578 107/114/579 
f 132/117/580 108/115/581 109/116/582 
f 110/118/583 132/117/584 109/116/585 
f 111/119/586 132/117/587 110/118/588 
f 133/120/589 132/117/590 111/119/591 
f 112/121/592 133/120/593 111/119/594 
f 113/122/595 133/120/596 112/121/597 
f 114/123/598 113/122/599 112/121/600 
f 135/124/601 113/122/602 114/123/603 
f 115/125/604 135/124/605 114/123/606 
f 116/126/607 115/125/608 114/123/609 
f 117/127/610 115/125/611 116/126/612 
f 118/128/613 117/127/614 116/126/615 
f 119/129/616 117/127/617 118/128/618 
f 120/99/619 119/129/620 118/128/621 
f 121/100/622 119/129/623 120/99/624 
f 146/130/625 119/129/626 121/100/627 
f 122/102/628 146/130/629 121/100/630 
f 145/131/631 146/130/632 122/102/633 
f 101/104/634 145/131/635 122/102/636 
f 144/132/637 145/131/638 101/104/639 
f 123/106/640 144/132/641 101/104/642 
f 124/133/643 144/132/644 123/106/645 
f 125/108/646 124/133/647 123/106/648 
f 127/134/649 124/133/650 125/108/651 
f 126/109/652 127/134/653 125/108/654 
f 128/135/655 127/134/656 126/109/657 
f 142/136/658 128/135/659 126/109/660 
f 106/111/661 142/136/662 126/109/663 
f 130/137/664 142/136/665 106/111/666 
f 129/113/667 130/137/668 106/111/669 
f 131/138/670 130/137/671 129/113/672 
f 108/115/673 131/138/674 129/113/675 
f 132/117/676 131/138/677 108/115/678 
f 134/139/679 131/138/680 132/117/681 
f 133/120/682 134/139/683 132/117/684 
f 141/140/685 134/139/686 133/120/687 
f 113/122/688 141/140/689 133/120/690 
f 140/141/691 141/140/692 113/122/693 
f 135/124/694 140/141/695 113/122/696 
f 139/142/697 140/141/698 135/124/699 
f 138/143/700 139/142/701 135/124/702 
f 115/125/703 138/143/704 135/124/705 
f 137/144/706 138/143/707 115/125/708 
f 117/127/709 137/144/710 115/125/711 
f 136/145/712 137/144/713 117/127/714 
f 119/129/715 136/145/716 117/127/717 
f 146/130/718 136/145/719 119/129/720 
f 143/146/721 136/145/722 146/130/723 
f 143/146/724 137/144/725 136/145/726 
f 143/146/727 138/143/728 137/144/729 
f 143/146/730 139/142/731 138/143/732 
f 143/146/733 140/141/734 139/142/735 
f 143/146/736 141/140/737 140/141/738 
f 143/146/739 134/139/740 141/140/741 
f 143/146/742 131/138/743 134/139/744 
f 143/146/745 130/137/746 131/138/747 
f 143/146/748 142/136/749 130/137/750 
f 143/146/751 128/135/752 142/136/753 
f 143/146/754 127/134/755 128/135/756 
f 143/146/757 124/133/758 127/134/759 
f 143/146/760 144/132/761 124/133/762 
f 143/146/763 145/131/764 144/132/765 
f 146/130/766 145/131/767 143/146/768 
# 256 faces

#
# object SM_Chiton_03_LOD1
#

v  -11.4061 0.0000 -21.4188
v  -8.0864 0.0000 23.6975
v  13.8648 0.0000 -14.4123
v  5.9630 8.7044 -2.6431
v  12.6847 0.0000 20.1568
v  1.8316 0.0000 -25.3052
v  -0.8645 7.6988 13.5797
v  -3.1800 10.1037 4.8919
v  15.6550 0.0000 -3.2264
v  -3.5776 2.1511 -18.2024
v  -11.8387 0.1323 15.8535
v  -4.0173 9.8045 -2.9635
v  4.1890 1.8355 18.4660
v  7.1973 0.6615 -18.4024
v  -0.8001 9.8958 10.4507
v  -2.1785 8.1544 11.5339
v  -0.9053 10.3723 6.0350
v  -15.5120 0.0000 -10.1816
v  -7.5439 7.1807 5.5744
v  3.4071 10.0155 5.6617
v  -8.6357 1.9679 -15.2995
v  -13.5947 0.0000 18.4909
v  0.8227 9.5704 -6.5209
v  13.7000 0.4299 10.5551
v  13.7947 0.5793 -3.8406
v  -4.1973 0.2224 21.1408
v  -12.3156 1.8808 -7.8118
v  -4.7535 7.3643 -9.7527
v  1.1576 10.1602 6.8445
v  10.9489 1.4061 -12.3637
v  8.4445 0.0000 -21.6121
v  1.1344 8.4699 11.1584
v  0.3851 11.4945 0.4364
v  -14.2827 0.3757 -0.4729
v  5.5498 0.0000 24.5957
v  0.2030 10.2178 7.9496
v  -1.2270 1.6152 19.7045
v  16.0007 0.0000 13.2512
v  1.6096 2.4750 -18.0187
v  11.9271 3.5718 -3.8938
v  -4.0336 7.6159 11.8686
v  -0.1485 10.5965 8.4873
v  9.8031 1.4061 15.0462
v  -8.1411 7.0797 -4.8380
v  5.8499 4.2488 -14.6504
v  -0.8671 0.2240 -21.6266
v  -6.1847 1.8094 17.7747
v  2.7252 7.6445 -10.2259
v  6.7076 7.3251 -7.9454
v  -10.0055 0.1377 -18.1559
v  6.8797 7.2149 7.7790
v  -2.4705 9.8224 7.2360
v  -10.3151 1.4061 14.1052
v  -1.6507 0.0000 25.3052
v  -4.7371 0.0000 -24.3862
v  -0.5628 7.9763 12.1986
v  -16.0624 0.0000 -0.2734
v  4.9016 0.2079 21.0381
v  2.5551 7.5685 12.7771
v  -14.2730 0.0645 -8.8557
v  -11.9943 3.4436 -1.1526
v  -12.2289 1.2508 8.0918
v  11.3827 0.1377 17.1864
v  -1.0233 4.3798 17.7493
v  9.4190 3.9248 -11.5920
# 65 vertices

vn 0.5108 0.8556 -0.0834
vn 0.5726 0.7881 0.2259
vn 0.7600 0.6445 -0.0836
vn 0.0847 0.8108 -0.5792
vn 0.1378 0.8729 -0.4681
vn 0.3374 0.7833 -0.5221
vn -0.6307 0.7611 0.1515
vn -0.6068 0.7767 -0.1689
vn -0.7558 0.6548 0.0045
vn 0.0338 0.9522 0.3035
vn -0.3882 0.9106 0.1417
vn -0.4222 0.8122 0.4025
vn -0.6596 0.7275 -0.1888
vn -0.3273 0.8473 -0.4182
vn -0.4527 0.8109 -0.3709
vn 0.7600 0.6445 -0.0836
vn 0.5726 0.7881 0.2259
vn 0.3941 0.9127 0.1083
vn -0.0677 0.8338 0.5479
vn -0.3818 0.7355 0.5597
vn -0.0464 0.7105 0.7021
vn -0.3273 0.8473 -0.4182
vn 0.1378 0.8729 -0.4681
vn 0.0847 0.8108 -0.5792
vn 0.0477 0.9976 -0.0504
vn 0.4091 0.8881 0.2096
vn 0.5108 0.8556 -0.0834
vn 0.4379 0.8275 0.3515
vn 0.3175 0.8134 0.4874
vn 0.2474 0.7883 0.5633
vn -0.0102 0.9611 -0.2759
vn 0.2253 0.9095 -0.3494
vn 0.0813 0.9864 -0.1431
vn -0.0320 0.9990 -0.0314
vn -0.0102 0.9611 -0.2759
vn -0.0188 0.9983 -0.0546
vn -0.0412 0.9989 0.0242
vn -0.2160 0.9682 0.1262
vn -0.1920 0.9814 0.0063
vn 0.0162 0.9984 0.0542
vn -0.0864 0.9576 0.2748
vn -0.0008 0.9986 0.0538
vn 0.0477 0.9976 -0.0504
vn 0.0631 0.9423 -0.3287
vn -0.3762 0.9150 -0.1456
vn -0.6307 0.7611 0.1515
vn -0.3882 0.9106 0.1417
vn -0.6068 0.7767 -0.1689
vn 0.1688 0.9755 0.1415
vn 0.2474 0.7883 0.5633
vn 0.0870 0.9628 0.2557
vn 0.0870 0.9628 0.2557
vn -0.0402 0.6967 0.7162
vn -0.0864 0.9576 0.2748
vn 0.6200 0.6749 -0.4001
vn 0.4664 0.8381 -0.2829
vn 0.7600 0.6445 -0.0836
vn 0.0813 0.9864 -0.1431
vn 0.2253 0.9095 -0.3494
vn 0.3051 0.9392 -0.1577
vn -0.4154 0.6943 0.5876
vn -0.1224 0.8574 0.4999
vn -0.4301 0.8921 0.1383
vn 0.3621 0.9313 0.0405
vn 0.1265 0.9723 0.1964
vn 0.3762 0.7381 0.5600
vn -0.0440 0.9990 -0.0092
vn -0.1785 0.9686 -0.1729
vn -0.0320 0.9990 -0.0314
vn -0.7524 0.6408 0.1523
vn -0.6307 0.7611 0.1515
vn -0.7558 0.6548 0.0045
vn -0.0677 0.8338 0.5479
vn -0.4222 0.8122 0.4025
vn -0.3818 0.7355 0.5597
vn 0.0477 0.9976 -0.0504
vn 0.0338 0.9522 0.3035
vn 0.4091 0.8881 0.2096
vn 0.5726 0.7881 0.2259
vn 0.3175 0.8134 0.4874
vn 0.4379 0.8275 0.3515
vn -0.4527 0.8109 -0.3709
vn -0.3273 0.8473 -0.4182
vn -0.1733 0.8179 -0.5486
vn -0.1785 0.9686 -0.1729
vn -0.0102 0.9611 -0.2759
vn -0.0320 0.9990 -0.0314
vn -0.0280 0.9986 0.0442
vn -0.0864 0.9576 0.2748
vn -0.0412 0.9989 0.0242
vn 0.1378 0.8729 -0.4681
vn 0.4664 0.8381 -0.2829
vn 0.6200 0.6749 -0.4001
vn 0.0477 0.9976 -0.0504
vn 0.5108 0.8556 -0.0834
vn 0.0631 0.9423 -0.3287
vn 0.4379 0.8275 0.3515
vn 0.2474 0.7883 0.5633
vn 0.1688 0.9755 0.1415
vn 0.5903 0.8047 -0.0625
vn 0.3941 0.9127 0.1083
vn 0.2950 0.9554 -0.0119
vn 0.3051 0.9392 -0.1577
vn 0.5403 0.7938 -0.2794
vn 0.5903 0.8047 -0.0625
vn 0.3051 0.9392 -0.1577
vn 0.5903 0.8047 -0.0625
vn 0.2950 0.9554 -0.0119
vn -0.0864 0.9576 0.2748
vn -0.2160 0.9682 0.1262
vn -0.0412 0.9989 0.0242
vn -0.3818 0.7355 0.5597
vn -0.4222 0.8122 0.4025
vn -0.5301 0.7988 0.2845
vn -0.6596 0.7275 -0.1888
vn -0.4527 0.8109 -0.3709
vn -0.3161 0.9452 -0.0813
vn -0.2160 0.9682 0.1262
vn -0.5173 0.8556 0.0175
vn -0.1920 0.9814 0.0063
vn -0.6068 0.7767 -0.1689
vn -0.3273 0.8473 -0.4182
vn -0.6596 0.7275 -0.1888
vn -0.3762 0.9150 -0.1456
vn 0.0631 0.9423 -0.3287
vn -0.3273 0.8473 -0.4182
vn -0.1254 0.9907 -0.0519
vn 0.1265 0.9723 0.1964
vn 0.3621 0.9313 0.0405
vn 0.3374 0.7833 -0.5221
vn 0.1378 0.8729 -0.4681
vn 0.6200 0.6749 -0.4001
vn 0.2253 0.9095 -0.3494
vn 0.5403 0.7938 -0.2794
vn 0.3051 0.9392 -0.1577
vn 0.0133 0.9986 -0.0510
vn -0.0102 0.9611 -0.2759
vn 0.0813 0.9864 -0.1431
vn 0.3762 0.7381 0.5600
vn -0.1224 0.8574 0.4999
vn -0.0008 0.6732 0.7394
vn 0.0477 0.9976 -0.0504
vn -0.3882 0.9106 0.1417
vn 0.0338 0.9522 0.3035
vn 0.0477 0.9976 -0.0504
vn -0.3762 0.9150 -0.1456
vn -0.3882 0.9106 0.1417
vn -0.7558 0.6548 0.0045
vn -0.6068 0.7767 -0.1689
vn -0.6596 0.7275 -0.1888
vn -0.5173 0.8556 0.0175
vn -0.6596 0.7275 -0.1888
vn -0.3161 0.9452 -0.0813
vn 0.0870 0.9628 0.2557
vn -0.0864 0.9576 0.2748
vn 0.0162 0.9984 0.0542
vn 0.5726 0.7881 0.2259
vn 0.0338 0.9522 0.3035
vn 0.3175 0.8134 0.4874
vn 0.0338 0.9522 0.3035
vn -0.4222 0.8122 0.4025
vn -0.0677 0.8338 0.5479
vn 0.2474 0.7883 0.5633
vn -0.0677 0.8338 0.5479
vn -0.0464 0.7105 0.7021
vn 0.2474 0.7883 0.5633
vn -0.0402 0.6967 0.7162
vn 0.0870 0.9628 0.2557
vn 0.2950 0.9554 -0.0119
vn 0.3941 0.9127 0.1083
vn 0.1125 0.9925 0.0479
vn -0.1785 0.9686 -0.1729
vn -0.1733 0.8179 -0.5486
vn -0.0102 0.9611 -0.2759
vn -0.1733 0.8179 -0.5486
vn -0.3273 0.8473 -0.4182
vn 0.0847 0.8108 -0.5792
vn 0.5403 0.7938 -0.2794
vn 0.7600 0.6445 -0.0836
vn 0.5903 0.8047 -0.0625
vn 0.7600 0.6445 -0.0836
vn 0.3941 0.9127 0.1083
vn 0.5903 0.8047 -0.0625
vn -0.4222 0.8122 0.4025
vn -0.6307 0.7611 0.1515
vn -0.5301 0.7988 0.2845
vn -0.4222 0.8122 0.4025
vn -0.3882 0.9106 0.1417
vn -0.6307 0.7611 0.1515
vn -0.1224 0.8574 0.4999
vn 0.1265 0.9723 0.1964
vn -0.4301 0.8921 0.1383
vn 0.1265 0.9723 0.1964
vn -0.1224 0.8574 0.4999
vn 0.3762 0.7381 0.5600
vn 0.3941 0.9127 0.1083
vn 0.4379 0.8275 0.3515
vn 0.1688 0.9755 0.1415
vn 0.3941 0.9127 0.1083
vn 0.5726 0.7881 0.2259
vn 0.4379 0.8275 0.3515
vn -0.6068 0.7767 -0.1689
vn -0.3762 0.9150 -0.1456
vn -0.3273 0.8473 -0.4182
vn -0.3882 0.9106 0.1417
vn -0.3762 0.9150 -0.1456
vn -0.6068 0.7767 -0.1689
vn 0.2253 0.9095 -0.3494
vn 0.3374 0.7833 -0.5221
vn 0.5403 0.7938 -0.2794
vn 0.0847 0.8108 -0.5792
vn 0.3374 0.7833 -0.5221
vn 0.2253 0.9095 -0.3494
vn -0.1733 0.8179 -0.5486
vn 0.0847 0.8108 -0.5792
vn -0.0102 0.9611 -0.2759
vn -0.0102 0.9611 -0.2759
vn 0.0847 0.8108 -0.5792
vn 0.2253 0.9095 -0.3494
vn -0.0864 0.9576 0.2748
vn -0.3818 0.7355 0.5597
vn -0.2160 0.9682 0.1262
vn -0.0402 0.6967 0.7162
vn -0.3818 0.7355 0.5597
vn -0.0864 0.9576 0.2748
vn 0.1378 0.8729 -0.4681
vn 0.0631 0.9423 -0.3287
vn 0.4664 0.8381 -0.2829
vn -0.3273 0.8473 -0.4182
vn 0.0631 0.9423 -0.3287
vn 0.1378 0.8729 -0.4681
vn 0.0631 0.9423 -0.3287
vn 0.5108 0.8556 -0.0834
vn 0.4664 0.8381 -0.2829
vn 0.4664 0.8381 -0.2829
vn 0.5108 0.8556 -0.0834
vn 0.7600 0.6445 -0.0836
vn -0.4527 0.8109 -0.3709
vn -0.1733 0.8179 -0.5486
vn -0.1785 0.9686 -0.1729
vn -0.3161 0.9452 -0.0813
vn -0.4527 0.8109 -0.3709
vn -0.1785 0.9686 -0.1729
vn 0.4091 0.8881 0.2096
vn 0.0338 0.9522 0.3035
vn 0.5726 0.7881 0.2259
vn 0.5108 0.8556 -0.0834
vn 0.4091 0.8881 0.2096
vn 0.5726 0.7881 0.2259
vn -0.4301 0.8921 0.1383
vn 0.1265 0.9723 0.1964
vn -0.1254 0.9907 -0.0519
vn -0.3818 0.7355 0.5597
vn -0.5301 0.7988 0.2845
vn -0.2160 0.9682 0.1262
vn -0.2160 0.9682 0.1262
vn -0.7524 0.6408 0.1523
vn -0.5173 0.8556 0.0175
vn -0.0864 0.9576 0.2748
vn -0.0280 0.9986 0.0442
vn -0.0008 0.9986 0.0538
vn -0.0188 0.9983 -0.0546
vn -0.0102 0.9611 -0.2759
vn 0.0133 0.9986 -0.0510
vn -0.1224 0.8574 0.4999
vn -0.4154 0.6943 0.5876
vn -0.0008 0.6732 0.7394
vn -0.5173 0.8556 0.0175
vn -0.3161 0.9452 -0.0813
vn -0.1920 0.9814 0.0063
vn 0.0375 0.9987 0.0334
vn 0.0870 0.9628 0.2557
vn 0.0162 0.9984 0.0542
vn 0.1688 0.9755 0.1415
vn 0.0870 0.9628 0.2557
vn 0.0375 0.9987 0.0334
vn 0.3175 0.8134 0.4874
vn 0.0338 0.9522 0.3035
vn -0.0677 0.8338 0.5479
vn 0.3175 0.8134 0.4874
vn -0.0677 0.8338 0.5479
vn 0.2474 0.7883 0.5633
vn -0.3161 0.9452 -0.0813
vn -0.1785 0.9686 -0.1729
vn -0.0440 0.9990 -0.0092
vn -0.1920 0.9814 0.0063
vn -0.3161 0.9452 -0.0813
vn -0.0440 0.9990 -0.0092
vn -0.5173 0.8556 0.0175
vn -0.7558 0.6548 0.0045
vn -0.6596 0.7275 -0.1888
vn -0.7524 0.6408 0.1523
vn -0.7558 0.6548 0.0045
vn -0.5173 0.8556 0.0175
vn -0.5301 0.7988 0.2845
vn -0.7524 0.6408 0.1523
vn -0.2160 0.9682 0.1262
vn -0.5301 0.7988 0.2845
vn -0.6307 0.7611 0.1515
vn -0.7524 0.6408 0.1523
vn 0.1125 0.9925 0.0479
vn 0.1688 0.9755 0.1415
vn 0.0375 0.9987 0.0334
vn 0.3941 0.9127 0.1083
vn 0.1688 0.9755 0.1415
vn 0.1125 0.9925 0.0479
vn -0.0464 0.7105 0.7021
vn -0.3818 0.7355 0.5597
vn -0.0402 0.6967 0.7162
vn 0.2474 0.7883 0.5633
vn -0.0464 0.7105 0.7021
vn -0.0402 0.6967 0.7162
vn 0.6200 0.6749 -0.4001
vn 0.7600 0.6445 -0.0836
vn 0.5403 0.7938 -0.2794
vn 0.3374 0.7833 -0.5221
vn 0.6200 0.6749 -0.4001
vn 0.5403 0.7938 -0.2794
# 318 vertex normals

vt 0.0170 0.3315 0.0000
vt 0.1791 0.2275 0.0000
vt 0.2124 0.3403 0.0000
vt 0.1285 0.2686 0.0000
vt 0.0302 0.2388 0.0000
vt 0.2286 0.2808 0.0000
vt 0.1000 0.3054 0.0000
vt 0.1310 0.3077 0.0000
vt 0.1646 0.3613 0.0000
vt 0.0928 0.2907 0.0000
vt 0.0911 0.3030 0.0000
vt 0.0709 0.2951 0.0000
vt 0.0409 0.3557 0.0000
vt 0.1305 0.2200 0.0000
vt 0.0867 0.2960 0.0000
vt 0.0599 0.2222 0.0000
vt 0.0522 0.3478 0.0000
vt 0.1963 0.3057 0.0000
vt 0.0655 0.2974 0.0000
vt 0.0962 0.2798 0.0000
vt 0.1448 0.2885 0.0000
vt 0.0718 0.2320 0.0000
vt 0.0739 0.3030 0.0000
vt 0.0280 0.3137 0.0000
vt 0.0535 0.2510 0.0000
vt 0.1171 0.2910 0.0000
vt 0.1971 0.2577 0.0000
vt 0.1846 0.3283 0.0000
vt 0.1533 0.3458 0.0000
vt 0.0790 0.2984 0.0000
vt 0.2115 0.2510 0.0000
vt 0.0114 0.2700 0.0000
vt 0.1699 0.2422 0.0000
vt 0.0758 0.2894 0.0000
vt 0.1586 0.3104 0.0000
vt 0.0978 0.3227 0.0000
vt 0.1334 0.2294 0.0000
vt 0.1499 0.2646 0.0000
vt 0.0602 0.3398 0.0000
vt 0.2251 0.3105 0.0000
vt 0.0091 0.3027 0.0000
vt 0.1948 0.2832 0.0000
vt 0.0683 0.2837 0.0000
vt 0.1228 0.3574 0.0000
vt 0.1389 0.3238 0.0000
vt 0.0876 0.2923 0.0000
vt 0.1223 0.3662 0.0000
vt 0.0399 0.2762 0.0000
vt 0.0874 0.2663 0.0000
vt 0.1786 0.2661 0.0000
vt 0.0442 0.3218 0.0000
vt 0.0351 0.3003 0.0000
vt 0.0953 0.2967 0.0000
vt 0.2124 0.2934 0.0000
vt 0.1334 0.2408 0.0000
vt 0.1982 0.3350 0.0000
vt 0.0861 0.3481 0.0000
vt 0.0726 0.3096 0.0000
vt 0.1587 0.3560 0.0000
vt 0.1656 0.2510 0.0000
vt 0.0464 0.2988 0.0000
vt 0.1599 0.2800 0.0000
vt 0.0433 0.2437 0.0000
vt 0.0272 0.2729 0.0000
vt 0.1250 0.3438 0.0000
# 65 texture coords

o SM_Chiton_03_LOD1
g SM_Chiton_03_LOD1
usemtl MAT_Sea_Shells
s 1
f 150/150/769 197/195/770 186/201/771 
f 185/188/772 194/208/773 191/196/774 
f 165/182/775 190/191/776 207/211/777 
f 182/192/778 154/153/779 187/204/780 
f 173/175/781 174/181/782 167/174/783 
f 186/201/784 197/195/785 170/168/786 
f 153/165/787 193/197/788 210/207/789 
f 174/181/790 194/208/791 185/188/792 
f 179/172/793 166/166/794 150/150/795 
f 189/171/796 205/189/797 159/194/798 
f 192/200/799 160/173/800 177/177/801 
f 147/149/802 192/200/803 201/186/804 
f 168/159/805 157/163/806 203/193/807 
f 181/178/808 172/170/809 200/187/810 
f 179/172/811 169/167/812 158/154/813 
f 165/182/814 154/153/815 190/191/816 
f 209/209/817 159/194/818 204/210/819 
f 204/210/820 183/198/821 172/170/822 
f 211/206/823 195/184/824 186/201/825 
f 177/177/826 160/173/827 149/148/828 
f 162/156/829 161/161/830 198/180/831 
f 175/169/832 188/176/833 178/157/834 
f 164/155/835 196/202/836 147/149/837 
f 208/203/838 165/182/839 207/211/840 
f 153/165/841 187/204/842 193/197/843 
f 179/172/844 182/192/845 166/166/846 
f 197/195/847 205/189/848 189/171/849 
f 167/174/850 174/181/851 156/164/852 
f 196/202/853 192/200/854 147/149/855 
f 148/147/856 172/170/857 168/159/858 
f 194/208/859 195/184/860 211/206/861 
f 179/172/862 150/150/863 169/167/864 
f 189/171/865 159/194/866 209/209/867 
f 171/183/868 170/168/869 155/160/870 
f 149/148/871 176/179/872 171/183/873 
f 149/148/874 171/183/875 155/160/876 
f 172/170/877 157/163/878 168/159/879 
f 193/197/880 187/204/881 199/185/882 
f 173/175/883 167/174/884 206/205/885 
f 157/163/886 180/190/887 203/193/888 
f 190/191/889 174/181/890 173/175/891 
f 158/154/892 169/167/893 174/181/894 
f 163/158/895 188/176/896 175/169/897 
f 191/196/898 194/208/899 211/206/900 
f 160/173/901 176/179/902 149/148/903 
f 152/152/904 192/200/905 177/177/906 
f 178/157/907 161/161/908 202/199/909 
f 179/172/910 154/153/911 182/192/912 
f 179/172/913 158/154/914 154/153/915 
f 207/211/916 190/191/917 173/175/918 
f 180/190/919 173/175/920 206/205/921 
f 204/210/922 172/170/923 181/178/924 
f 197/195/925 182/192/926 205/189/927 
f 182/192/928 187/204/929 153/165/930 
f 159/194/931 153/165/932 210/207/933 
f 159/194/934 183/198/935 204/210/936 
f 155/160/937 170/168/938 184/162/939 
f 196/202/940 156/164/941 192/200/942 
f 156/164/943 174/181/944 185/188/945 
f 176/179/946 186/201/947 171/183/948 
f 186/201/949 170/168/950 171/183/951 
f 187/204/952 165/182/953 199/185/954 
f 187/204/955 154/153/956 165/182/957 
f 161/161/958 188/176/959 198/180/960 
f 188/176/961 161/161/962 178/157/963 
f 170/168/964 189/171/965 209/209/966 
f 170/168/967 197/195/968 189/171/969 
f 190/191/970 158/154/971 174/181/972 
f 154/153/973 158/154/974 190/191/975 
f 160/173/976 191/196/977 176/179/978 
f 185/188/979 191/196/980 160/173/981 
f 156/164/982 185/188/983 192/200/984 
f 192/200/985 185/188/986 160/173/987 
f 172/170/988 193/197/989 157/163/990 
f 183/198/991 193/197/992 172/170/993 
f 194/208/994 169/167/995 195/184/996 
f 174/181/997 169/167/998 194/208/999 
f 169/167/1000 150/150/1001 195/184/1002 
f 195/184/1003 150/150/1004 186/201/1005 
f 167/174/1006 156/164/1007 196/202/1008 
f 206/205/1009 167/174/1010 196/202/1011 
f 166/166/1012 182/192/1013 197/195/1014 
f 150/150/1015 166/166/1016 197/195/1017 
f 198/180/1018 188/176/1019 163/158/1020 
f 193/197/1021 199/185/1022 157/163/1023 
f 157/163/1024 208/203/1025 180/190/1026 
f 172/170/1027 148/147/1028 200/187/1029 
f 201/186/1030 192/200/1031 152/152/1032 
f 161/161/1033 162/156/1034 202/199/1035 
f 180/190/1036 206/205/1037 203/193/1038 
f 151/151/1039 204/210/1040 181/178/1041 
f 209/209/1042 204/210/1043 151/151/1044 
f 205/189/1045 182/192/1046 153/165/1047 
f 205/189/1048 153/165/1049 159/194/1050 
f 206/205/1051 196/202/1052 164/155/1053 
f 203/193/1054 206/205/1055 164/155/1056 
f 180/190/1057 207/211/1058 173/175/1059 
f 208/203/1060 207/211/1061 180/190/1062 
f 199/185/1063 208/203/1064 157/163/1065 
f 199/185/1066 165/182/1067 208/203/1068 
f 184/162/1069 209/209/1070 151/151/1071 
f 170/168/1072 209/209/1073 184/162/1074 
f 210/207/1075 193/197/1076 183/198/1077 
f 159/194/1078 210/207/1079 183/198/1080 
f 211/206/1081 186/201/1082 176/179/1083 
f 191/196/1084 211/206/1085 176/179/1086 
# 106 faces

