# 3ds Max Wavefront OBJ Exporter v0.97b - (c)2007 guruware
# File Created: 10.02.2024 08:35:49

mtllib SM_Coral_Table_Acropora_05.mtl

#
# object SM_Coral_Table_Acropora_05_LOD0
#

v  17.7481 7.1750 6.7447
v  23.8305 7.8981 -0.4866
v  26.0399 7.6210 6.9561
v  20.2917 7.0199 9.0698
v  23.5379 7.2789 8.9932
v  -21.3570 7.0085 8.9869
v  14.7492 6.7885 7.5866
v  -13.0120 7.1528 21.7806
v  -15.3914 7.1528 19.2257
v  -10.4684 8.3845 -20.4540
v  13.1750 5.0878 21.6790
v  16.2819 5.2458 19.6814
v  17.1605 5.7570 15.1871
v  11.3782 5.2501 11.5051
v  8.2991 4.3319 8.8395
v  16.0051 7.2077 -20.5655
v  2.6598 6.1079 24.1768
v  -4.4572 7.9722 -24.2753
v  -15.5742 8.0888 -17.1277
v  -26.3594 6.7849 -2.4393
v  26.3563 7.7637 4.7971
v  12.4222 6.0146 5.3182
v  25.5815 7.8605 1.9049
v  13.0423 4.9447 1.5374
v  24.9861 7.8402 -4.0281
v  12.3572 4.9794 -2.8743
v  23.7719 7.6227 -9.4720
v  21.6048 7.5045 -11.5768
v  20.2454 7.3624 -14.4743
v  16.9666 7.3765 -15.8033
v  13.9040 7.1581 -23.4445
v  6.8162 5.5866 -12.5835
v  4.8741 7.4286 -24.8215
v  -5.3700 6.4193 -11.0950
v  -18.8844 7.6640 -13.8857
v  -22.0235 7.2001 -12.2898
v  -11.1476 5.8273 -7.0134
v  -23.4279 6.8922 -5.4189
v  -13.3155 5.0768 -2.0881
v  -21.3873 7.1268 15.1175
v  -19.5416 7.1525 17.8751
v  -1.6121 6.6902 24.8116
v  -0.9418 4.0301 11.5378
v  -6.6418 4.2417 10.0219
v  -10.8143 4.4070 3.6250
v  2.3012 5.9983 -13.2753
v  10.6666 5.0859 -6.6466
v  -0.2716 0.1995 -1.7314
v  10.2523 4.6347 6.8634
v  12.0670 5.8666 5.1213
v  6.0753 4.1126 1.7963
v  2.8579 3.8754 10.0508
v  8.0756 4.1707 11.4094
v  9.5091 5.1334 12.0737
v  15.5765 5.9856 13.0236
v  6.0251 5.6141 22.4543
v  17.6933 5.5200 17.5038
v  10.4627 5.1909 22.8313
v  14.5458 5.1356 20.2573
v  10.0055 4.4820 8.4854
v  3.9020 3.7951 4.8415
v  17.7714 6.9797 6.7806
v  23.8770 7.7039 -0.4980
v  26.0566 7.4220 6.9449
v  20.3020 6.8212 9.0497
v  23.5534 7.0800 8.9789
v  -21.3978 6.8128 8.9933
v  14.7831 6.5940 7.6182
v  -13.0373 6.9575 21.8153
v  -15.4146 6.9581 19.2653
v  -10.4893 8.1878 -20.4839
v  13.1575 4.8899 21.6554
v  16.2874 5.0470 19.6599
v  17.1522 5.5579 15.1703
v  11.4021 5.0524 11.5234
v  8.3249 4.1336 8.8378
v  16.0329 7.0098 -20.5738
v  2.6438 5.9119 24.2136
v  -4.4773 7.7749 -24.3013
v  -15.5853 7.8926 -17.1652
v  -26.3852 6.5866 -2.4437
v  26.3852 7.5659 4.7933
v  12.4701 5.8237 5.3540
v  25.6272 7.6673 1.8802
v  13.0850 4.7511 1.5643
v  25.0309 7.6454 -4.0211
v  12.4118 4.7877 -2.8906
v  23.8105 7.4269 -9.4843
v  21.6406 7.3085 -11.5935
v  20.2739 7.1657 -14.4966
v  16.9911 7.1792 -15.8254
v  13.9153 6.9595 -23.4659
v  6.8320 5.3921 -12.6273
v  4.8659 7.2308 -24.8499
v  -5.3974 6.2302 -11.1544
v  -18.8891 7.4695 -13.9324
v  -22.0339 7.0026 -12.3197
v  -11.1797 5.6368 -7.0649
v  -23.4504 6.6952 -5.4451
v  -13.3607 4.8830 -2.1076
v  -21.4230 6.9306 15.1332
v  -19.5669 6.9566 17.9062
v  -1.6315 6.4948 24.8499
v  -0.9499 3.8348 11.5803
v  -6.6717 4.0472 10.0577
v  -10.8673 4.2145 3.6382
v  2.2851 5.8070 -13.3312
v  10.7120 4.8942 -6.6812
v  -0.2707 0.0000 -1.7462
v  10.3088 4.4446 6.8373
v  12.1303 5.6773 5.1326
v  6.1196 3.9291 1.8624
v  2.8746 3.6783 10.0801
v  8.1134 3.9755 11.4314
v  9.5618 4.9423 12.1002
v  15.5844 5.7858 13.0237
v  6.0254 5.4149 22.4721
v  17.6835 5.3217 17.4800
v  10.4457 4.9929 22.8086
v  14.5254 4.9422 20.2106
v  10.0332 4.2839 8.4824
v  3.9688 3.6074 4.8588
# 122 vertices

vn -0.0835 0.9949 0.0559
vn -0.0519 0.9936 0.1005
vn -0.0776 0.9944 0.0716
vn -0.1447 0.9893 0.0187
vn -0.0519 0.9936 0.1005
vn -0.0835 0.9949 0.0559
vn -0.1447 0.9893 0.0187
vn -0.1163 0.9768 -0.1797
vn -0.0519 0.9936 0.1005
vn -0.1447 0.9893 0.0187
vn -0.2393 0.9544 -0.1786
vn -0.1163 0.9768 -0.1797
vn -0.1163 0.9768 -0.1797
vn -0.2393 0.9544 -0.1786
vn -0.1697 0.9728 -0.1578
vn -0.2133 0.9677 -0.1341
vn -0.2393 0.9544 -0.1786
vn -0.1447 0.9893 0.0187
vn -0.2282 0.9658 0.1233
vn -0.2133 0.9677 -0.1341
vn -0.1447 0.9893 0.0187
vn -0.2324 0.9709 0.0573
vn -0.2133 0.9677 -0.1341
vn -0.2282 0.9658 0.1233
vn -0.2727 0.9587 0.0814
vn -0.2133 0.9677 -0.1341
vn -0.2324 0.9709 0.0573
vn -0.2239 0.9740 -0.0351
vn -0.2727 0.9587 0.0814
vn -0.2324 0.9709 0.0573
vn -0.1930 0.9793 0.0614
vn -0.2727 0.9587 0.0814
vn -0.2239 0.9740 -0.0351
vn -0.2272 0.9584 0.1727
vn -0.2727 0.9587 0.0814
vn -0.1930 0.9793 0.0614
vn -0.1791 0.9803 0.0836
vn -0.2272 0.9584 0.1727
vn -0.1930 0.9793 0.0614
vn -0.1426 0.9835 0.1115
vn -0.2272 0.9584 0.1727
vn -0.1791 0.9803 0.0836
vn -0.1228 0.9863 0.1103
vn -0.2272 0.9584 0.1727
vn -0.1426 0.9835 0.1115
vn -0.0790 0.9725 0.2193
vn -0.2272 0.9584 0.1727
vn -0.1228 0.9863 0.1103
vn -0.1388 0.9895 0.0412
vn -0.0790 0.9725 0.2193
vn -0.1228 0.9863 0.1103
vn -0.0563 0.9927 0.1069
vn -0.0790 0.9725 0.2193
vn -0.1388 0.9895 0.0412
vn 0.0409 0.9890 0.1418
vn -0.0790 0.9725 0.2193
vn -0.0563 0.9927 0.1069
vn 0.0804 0.9568 0.2795
vn -0.0790 0.9725 0.2193
vn 0.0409 0.9890 0.1418
vn 0.1005 0.9864 0.1297
vn 0.0804 0.9568 0.2795
vn 0.0409 0.9890 0.1418
vn 0.1367 0.9452 0.2965
vn 0.0804 0.9568 0.2795
vn 0.1005 0.9864 0.1297
vn 0.1044 0.9832 0.1496
vn 0.1367 0.9452 0.2965
vn 0.1005 0.9864 0.1297
vn 0.0559 0.9807 0.1873
vn 0.1367 0.9452 0.2965
vn 0.1044 0.9832 0.1496
vn 0.1608 0.9527 0.2579
vn 0.1367 0.9452 0.2965
vn 0.0559 0.9807 0.1873
vn 0.0235 0.9721 0.2334
vn 0.1608 0.9527 0.2579
vn 0.0559 0.9807 0.1873
vn 0.0521 0.9874 0.1495
vn 0.1608 0.9527 0.2579
vn 0.0235 0.9721 0.2334
vn 0.1126 0.9850 0.1310
vn 0.1608 0.9527 0.2579
vn 0.0521 0.9874 0.1495
vn 0.2260 0.9692 0.0977
vn 0.1608 0.9527 0.2579
vn 0.1126 0.9850 0.1310
vn 0.1292 0.9914 0.0223
vn 0.2260 0.9692 0.0977
vn 0.1126 0.9850 0.1310
vn 0.2037 0.9785 -0.0318
vn 0.2260 0.9692 0.0977
vn 0.1292 0.9914 0.0223
vn 0.2648 0.9621 -0.0660
vn 0.2260 0.9692 0.0977
vn 0.2037 0.9785 -0.0318
vn 0.1785 0.9808 -0.0786
vn 0.2648 0.9621 -0.0660
vn 0.2037 0.9785 -0.0318
vn 0.1496 0.9724 -0.1792
vn 0.2648 0.9621 -0.0660
vn 0.1785 0.9808 -0.0786
vn 0.1265 0.9797 -0.1553
vn 0.1496 0.9724 -0.1792
vn 0.1785 0.9808 -0.0786
vn 0.1157 0.9734 -0.1979
vn 0.1496 0.9724 -0.1792
vn 0.1265 0.9797 -0.1553
vn 0.1264 0.9767 -0.1734
vn 0.1496 0.9724 -0.1792
vn 0.1157 0.9734 -0.1979
vn 0.0973 0.9767 -0.1913
vn 0.1496 0.9724 -0.1792
vn 0.1264 0.9767 -0.1734
vn 0.0404 0.9762 -0.2129
vn 0.1496 0.9724 -0.1792
vn 0.0973 0.9767 -0.1913
vn 0.0802 0.9797 -0.1839
vn 0.0404 0.9762 -0.2129
vn 0.0973 0.9767 -0.1913
vn -0.0014 0.9960 -0.0888
vn 0.0404 0.9762 -0.2129
vn 0.0802 0.9797 -0.1839
vn -0.0014 0.9960 -0.0888
vn -0.0836 0.9857 -0.1462
vn 0.0404 0.9762 -0.2129
vn -0.0836 0.9857 -0.1462
vn -0.0047 0.9973 0.0736
vn 0.0404 0.9762 -0.2129
vn -0.0047 0.9973 0.0736
vn 0.1496 0.9724 -0.1792
vn 0.0404 0.9762 -0.2129
vn -0.0047 0.9973 0.0736
vn 0.2648 0.9621 -0.0660
vn 0.1496 0.9724 -0.1792
vn -0.0047 0.9973 0.0736
vn 0.2260 0.9692 0.0977
vn 0.2648 0.9621 -0.0660
vn -0.0047 0.9973 0.0736
vn 0.1608 0.9527 0.2579
vn 0.2260 0.9692 0.0977
vn -0.0047 0.9973 0.0736
vn 0.1367 0.9452 0.2965
vn 0.1608 0.9527 0.2579
vn -0.0047 0.9973 0.0736
vn 0.0804 0.9568 0.2795
vn 0.1367 0.9452 0.2965
vn -0.0047 0.9973 0.0736
vn -0.0790 0.9725 0.2193
vn 0.0804 0.9568 0.2795
vn -0.0047 0.9973 0.0736
vn -0.2272 0.9584 0.1727
vn -0.0790 0.9725 0.2193
vn -0.0047 0.9973 0.0736
vn -0.2727 0.9587 0.0814
vn -0.2272 0.9584 0.1727
vn -0.0047 0.9973 0.0736
vn -0.2133 0.9677 -0.1341
vn -0.2727 0.9587 0.0814
vn -0.2215 0.9173 -0.3308
vn -0.2133 0.9677 -0.1341
vn -0.0047 0.9973 0.0736
vn -0.2215 0.9173 -0.3308
vn -0.3167 0.9469 -0.0564
vn -0.2133 0.9677 -0.1341
vn -0.3167 0.9469 -0.0564
vn -0.2393 0.9544 -0.1786
vn -0.2133 0.9677 -0.1341
vn -0.3167 0.9469 -0.0564
vn -0.2825 0.9503 0.1306
vn -0.2393 0.9544 -0.1786
vn -0.2215 0.9173 -0.3308
vn -0.2825 0.9503 0.1306
vn -0.3167 0.9469 -0.0564
vn -0.2215 0.9173 -0.3308
vn -0.1385 0.9902 0.0150
vn -0.2825 0.9503 0.1306
vn -0.3342 0.9385 -0.0868
vn -0.1385 0.9902 0.0150
vn -0.2215 0.9173 -0.3308
vn -0.0047 0.9973 0.0736
vn -0.3342 0.9385 -0.0868
vn -0.2215 0.9173 -0.3308
vn -0.0836 0.9857 -0.1462
vn -0.3342 0.9385 -0.0868
vn -0.0047 0.9973 0.0736
vn -0.1890 0.9758 -0.1101
vn -0.3342 0.9385 -0.0868
vn -0.0836 0.9857 -0.1462
vn -0.0014 0.9960 -0.0888
vn -0.1890 0.9758 -0.1101
vn -0.0836 0.9857 -0.1462
vn -0.0014 0.9960 -0.0888
vn -0.2634 0.9555 -0.1327
vn -0.1890 0.9758 -0.1101
vn -0.0014 0.9960 -0.0888
vn -0.1195 0.9886 -0.0913
vn -0.2634 0.9555 -0.1327
vn -0.0014 0.9960 -0.0888
vn -0.0396 0.9992 -0.0008
vn -0.1195 0.9886 -0.0913
vn -0.0014 0.9960 -0.0888
vn 0.0418 0.9956 0.0836
vn -0.0396 0.9992 -0.0008
vn -0.0014 0.9960 -0.0888
vn 0.0491 0.9916 0.1193
vn 0.0418 0.9956 0.0836
vn 0.1022 0.9671 0.2331
vn 0.0491 0.9916 0.1193
vn -0.0014 0.9960 -0.0888
vn 0.0491 0.9916 0.1193
vn 0.1022 0.9671 0.2331
vn -0.0275 0.9938 0.1074
vn 0.0850 0.9899 0.1135
vn 0.1022 0.9671 0.2331
vn -0.0014 0.9960 -0.0888
vn 0.1022 0.9671 0.2331
vn 0.0850 0.9899 0.1135
vn 0.0876 0.9892 0.1178
vn -0.1289 0.9916 0.0087
vn -0.3342 0.9385 -0.0868
vn -0.1890 0.9758 -0.1101
vn -0.3342 0.9385 -0.0868
vn -0.1289 0.9916 0.0087
vn -0.1385 0.9902 0.0150
vn 0.0776 -0.9944 -0.0717
vn 0.0508 -0.9934 -0.1024
vn 0.0833 -0.9949 -0.0561
vn 0.0833 -0.9949 -0.0561
vn 0.0508 -0.9934 -0.1024
vn 0.1450 -0.9893 -0.0188
vn 0.0508 -0.9934 -0.1024
vn 0.1164 -0.9771 0.1779
vn 0.1450 -0.9893 -0.0188
vn 0.1164 -0.9771 0.1779
vn 0.2424 -0.9539 0.1768
vn 0.1450 -0.9893 -0.0188
vn 0.1697 -0.9728 0.1576
vn 0.2424 -0.9539 0.1768
vn 0.1164 -0.9771 0.1779
vn 0.1450 -0.9893 -0.0188
vn 0.2424 -0.9539 0.1768
vn 0.2131 -0.9677 0.1348
vn 0.1450 -0.9893 -0.0188
vn 0.2131 -0.9677 0.1348
vn 0.2277 -0.9659 -0.1231
vn 0.2277 -0.9659 -0.1231
vn 0.2131 -0.9677 0.1348
vn 0.2319 -0.9711 -0.0570
vn 0.2319 -0.9711 -0.0570
vn 0.2131 -0.9677 0.1348
vn 0.2722 -0.9588 -0.0808
vn 0.2319 -0.9711 -0.0570
vn 0.2722 -0.9588 -0.0808
vn 0.2237 -0.9740 0.0354
vn 0.2237 -0.9740 0.0354
vn 0.2722 -0.9588 -0.0808
vn 0.1929 -0.9793 -0.0613
vn 0.1929 -0.9793 -0.0613
vn 0.2722 -0.9588 -0.0808
vn 0.2268 -0.9586 -0.1725
vn 0.1929 -0.9793 -0.0613
vn 0.2268 -0.9586 -0.1725
vn 0.1790 -0.9803 -0.0836
vn 0.1790 -0.9803 -0.0836
vn 0.2268 -0.9586 -0.1725
vn 0.1426 -0.9835 -0.1114
vn 0.1426 -0.9835 -0.1114
vn 0.2268 -0.9586 -0.1725
vn 0.1227 -0.9863 -0.1102
vn 0.1227 -0.9863 -0.1102
vn 0.2268 -0.9586 -0.1725
vn 0.0790 -0.9725 -0.2191
vn 0.1227 -0.9863 -0.1102
vn 0.0790 -0.9725 -0.2191
vn 0.1386 -0.9895 -0.0410
vn 0.1386 -0.9895 -0.0410
vn 0.0790 -0.9725 -0.2191
vn 0.0562 -0.9927 -0.1068
vn 0.0562 -0.9927 -0.1068
vn 0.0790 -0.9725 -0.2191
vn -0.0410 -0.9891 -0.1416
vn -0.0410 -0.9891 -0.1416
vn 0.0790 -0.9725 -0.2191
vn -0.0802 -0.9570 -0.2789
vn -0.0410 -0.9891 -0.1416
vn -0.0802 -0.9570 -0.2789
vn -0.1005 -0.9865 -0.1295
vn -0.1005 -0.9865 -0.1295
vn -0.0802 -0.9570 -0.2789
vn -0.1364 -0.9455 -0.2958
vn -0.1005 -0.9865 -0.1295
vn -0.1364 -0.9455 -0.2958
vn -0.1043 -0.9833 -0.1494
vn -0.1043 -0.9833 -0.1494
vn -0.1364 -0.9455 -0.2958
vn -0.0558 -0.9807 -0.1872
vn -0.0558 -0.9807 -0.1872
vn -0.1364 -0.9455 -0.2958
vn -0.1604 -0.9529 -0.2575
vn -0.0558 -0.9807 -0.1872
vn -0.1604 -0.9529 -0.2575
vn -0.0236 -0.9722 -0.2329
vn -0.0236 -0.9722 -0.2329
vn -0.1604 -0.9529 -0.2575
vn -0.0520 -0.9874 -0.1493
vn -0.0520 -0.9874 -0.1493
vn -0.1604 -0.9529 -0.2575
vn -0.1125 -0.9850 -0.1307
vn -0.1125 -0.9850 -0.1307
vn -0.1604 -0.9529 -0.2575
vn -0.2257 -0.9693 -0.0976
vn -0.1125 -0.9850 -0.1307
vn -0.2257 -0.9693 -0.0976
vn -0.1291 -0.9914 -0.0221
vn -0.1291 -0.9914 -0.0221
vn -0.2257 -0.9693 -0.0976
vn -0.2037 -0.9785 0.0317
vn -0.2037 -0.9785 0.0317
vn -0.2257 -0.9693 -0.0976
vn -0.2643 -0.9622 0.0656
vn -0.2037 -0.9785 0.0317
vn -0.2643 -0.9622 0.0656
vn -0.1785 -0.9808 0.0786
vn -0.1785 -0.9808 0.0786
vn -0.2643 -0.9622 0.0656
vn -0.1494 -0.9724 0.1789
vn -0.1785 -0.9808 0.0786
vn -0.1494 -0.9724 0.1789
vn -0.1265 -0.9797 0.1553
vn -0.1265 -0.9797 0.1553
vn -0.1494 -0.9724 0.1789
vn -0.1158 -0.9734 0.1978
vn -0.1158 -0.9734 0.1978
vn -0.1494 -0.9724 0.1789
vn -0.1264 -0.9767 0.1733
vn -0.1264 -0.9767 0.1733
vn -0.1494 -0.9724 0.1789
vn -0.0973 -0.9767 0.1913
vn -0.0973 -0.9767 0.1913
vn -0.1494 -0.9724 0.1789
vn -0.0404 -0.9763 0.2126
vn -0.0973 -0.9767 0.1913
vn -0.0404 -0.9763 0.2126
vn -0.0801 -0.9797 0.1839
vn -0.0801 -0.9797 0.1839
vn -0.0404 -0.9763 0.2126
vn 0.0014 -0.9960 0.0892
vn -0.0404 -0.9763 0.2126
vn 0.0838 -0.9857 0.1460
vn 0.0014 -0.9960 0.0892
vn -0.0404 -0.9763 0.2126
vn 0.0044 -0.9973 -0.0739
vn 0.0838 -0.9857 0.1460
vn -0.0404 -0.9763 0.2126
vn -0.1494 -0.9724 0.1789
vn 0.0044 -0.9973 -0.0739
vn -0.1494 -0.9724 0.1789
vn -0.2643 -0.9622 0.0656
vn 0.0044 -0.9973 -0.0739
vn -0.2643 -0.9622 0.0656
vn -0.2257 -0.9693 -0.0976
vn 0.0044 -0.9973 -0.0739
vn -0.2257 -0.9693 -0.0976
vn -0.1604 -0.9529 -0.2575
vn 0.0044 -0.9973 -0.0739
vn -0.1604 -0.9529 -0.2575
vn -0.1364 -0.9455 -0.2958
vn 0.0044 -0.9973 -0.0739
vn -0.1364 -0.9455 -0.2958
vn -0.0802 -0.9570 -0.2789
vn 0.0044 -0.9973 -0.0739
vn -0.0802 -0.9570 -0.2789
vn 0.0790 -0.9725 -0.2191
vn 0.0044 -0.9973 -0.0739
vn 0.0790 -0.9725 -0.2191
vn 0.2268 -0.9586 -0.1725
vn 0.0044 -0.9973 -0.0739
vn 0.2268 -0.9586 -0.1725
vn 0.2722 -0.9588 -0.0808
vn 0.0044 -0.9973 -0.0739
vn 0.2722 -0.9588 -0.0808
vn 0.2131 -0.9677 0.1348
vn 0.0044 -0.9973 -0.0739
vn 0.0044 -0.9973 -0.0739
vn 0.2131 -0.9677 0.1348
vn 0.2221 -0.9197 0.3238
vn 0.2131 -0.9677 0.1348
vn 0.3143 -0.9470 0.0662
vn 0.2221 -0.9197 0.3238
vn 0.2131 -0.9677 0.1348
vn 0.2424 -0.9539 0.1768
vn 0.3143 -0.9470 0.0662
vn 0.2424 -0.9539 0.1768
vn 0.2824 -0.9500 -0.1336
vn 0.3143 -0.9470 0.0662
vn 0.3143 -0.9470 0.0662
vn 0.2824 -0.9500 -0.1336
vn 0.2221 -0.9197 0.3238
vn 0.2824 -0.9500 -0.1336
vn 0.1382 -0.9903 -0.0168
vn 0.2221 -0.9197 0.3238
vn 0.2221 -0.9197 0.3238
vn 0.1382 -0.9903 -0.0168
vn 0.3308 -0.9398 0.0863
vn 0.2221 -0.9197 0.3238
vn 0.3308 -0.9398 0.0863
vn 0.0044 -0.9973 -0.0739
vn 0.0044 -0.9973 -0.0739
vn 0.3308 -0.9398 0.0863
vn 0.0838 -0.9857 0.1460
vn 0.0838 -0.9857 0.1460
vn 0.3308 -0.9398 0.0863
vn 0.1885 -0.9758 0.1105
vn 0.0838 -0.9857 0.1460
vn 0.1885 -0.9758 0.1105
vn 0.0014 -0.9960 0.0892
vn 0.1885 -0.9758 0.1105
vn 0.2599 -0.9565 0.1322
vn 0.0014 -0.9960 0.0892
vn 0.2599 -0.9565 0.1322
vn 0.1192 -0.9887 0.0913
vn 0.0014 -0.9960 0.0892
vn 0.1192 -0.9887 0.0913
vn 0.0395 -0.9992 0.0008
vn 0.0014 -0.9960 0.0892
vn 0.0395 -0.9992 0.0008
vn -0.0421 -0.9956 -0.0836
vn 0.0014 -0.9960 0.0892
vn -0.0421 -0.9956 -0.0836
vn -0.0493 -0.9916 -0.1193
vn 0.0014 -0.9960 0.0892
vn 0.0014 -0.9960 0.0892
vn -0.0493 -0.9916 -0.1193
vn -0.1043 -0.9661 -0.2363
vn 0.0250 -0.9937 -0.1092
vn -0.1043 -0.9661 -0.2363
vn -0.0493 -0.9916 -0.1193
vn 0.0014 -0.9960 0.0892
vn -0.1043 -0.9661 -0.2363
vn -0.0859 -0.9896 -0.1155
vn -0.0883 -0.9889 -0.1193
vn -0.0859 -0.9896 -0.1155
vn -0.1043 -0.9661 -0.2363
vn 0.1885 -0.9758 0.1105
vn 0.3308 -0.9398 0.0863
vn 0.1281 -0.9917 -0.0091
vn 0.1382 -0.9903 -0.0168
vn 0.1281 -0.9917 -0.0091
vn 0.3308 -0.9398 0.0863
vn -0.3436 -0.1115 0.9325
vn 0.3483 -0.0397 0.9366
vn 0.3484 -0.0407 0.9365
vn 0.3484 -0.0407 0.9365
vn -0.3418 -0.1090 0.9334
vn -0.3436 -0.1115 0.9325
vn 0.3483 -0.0397 0.9366
vn 0.8663 0.0468 0.4974
vn 0.8670 0.0445 0.4964
vn 0.8670 0.0445 0.4964
vn 0.3484 -0.0407 0.9365
vn 0.3483 -0.0397 0.9366
vn 0.8663 0.0468 0.4974
vn 0.9881 0.1477 -0.0420
vn 0.9882 0.1435 -0.0528
vn 0.9882 0.1435 -0.0528
vn 0.8670 0.0445 0.4964
vn 0.8663 0.0468 0.4974
vn -0.2748 0.1392 0.9514
vn -0.3436 -0.1115 0.9325
vn -0.3418 -0.1090 0.9334
vn -0.3418 -0.1090 0.9334
vn -0.2092 0.1526 0.9659
vn -0.2748 0.1392 0.9514
vn -0.1073 0.1578 0.9816
vn -0.2630 0.1098 0.9585
vn -0.2628 0.1089 0.9587
vn -0.2628 0.1089 0.9587
vn -0.2359 0.1145 0.9650
vn -0.1073 0.1578 0.9816
vn -0.2630 0.1098 0.9585
vn -0.2748 0.1392 0.9514
vn -0.2092 0.1526 0.9659
vn -0.2092 0.1526 0.9659
vn -0.2628 0.1089 0.9587
vn -0.2630 0.1098 0.9585
vn 0.9881 0.1477 -0.0420
vn 0.8757 0.2582 -0.4080
vn 0.8751 0.2568 -0.4102
vn 0.8751 0.2568 -0.4102
vn 0.9882 0.1435 -0.0528
vn 0.9881 0.1477 -0.0420
vn 0.8757 0.2582 -0.4080
vn 0.9598 0.2387 -0.1479
vn 0.9576 0.2395 -0.1598
vn 0.9576 0.2395 -0.1598
vn 0.8751 0.2568 -0.4102
vn 0.8757 0.2582 -0.4080
vn 0.9598 0.2387 -0.1479
vn 0.9735 0.2251 0.0404
vn 0.9735 0.2249 0.0415
vn 0.9735 0.2249 0.0415
vn 0.9576 0.2395 -0.1598
vn 0.9598 0.2387 -0.1479
vn 0.9735 0.2251 0.0404
vn 0.8515 0.1983 -0.4853
vn 0.8514 0.1983 -0.4855
vn 0.8514 0.1983 -0.4855
vn 0.9735 0.2249 0.0415
vn 0.9735 0.2251 0.0404
vn 0.8515 0.1983 -0.4853
vn 0.7945 0.1938 -0.5755
vn 0.7937 0.1940 -0.5765
vn 0.7937 0.1940 -0.5765
vn 0.8514 0.1983 -0.4855
vn 0.8515 0.1983 -0.4853
vn 0.7945 0.1938 -0.5755
vn 0.6742 0.1787 -0.7166
vn 0.6723 0.1793 -0.7182
vn 0.6723 0.1793 -0.7182
vn 0.7937 0.1940 -0.5765
vn 0.7945 0.1938 -0.5755
vn 0.6742 0.1787 -0.7166
vn 0.7620 0.1651 -0.6262
vn 0.7529 0.1653 -0.6371
vn 0.7529 0.1653 -0.6371
vn 0.6723 0.1793 -0.7182
vn 0.6742 0.1787 -0.7166
vn 0.7620 0.1651 -0.6262
vn 0.9039 0.1432 -0.4030
vn 0.9046 0.1437 -0.4013
vn 0.9046 0.1437 -0.4013
vn 0.7529 0.1653 -0.6371
vn 0.7620 0.1651 -0.6262
vn 0.9039 0.1432 -0.4030
vn 0.5158 0.1209 -0.8482
vn 0.5154 0.1213 -0.8483
vn 0.5154 0.1213 -0.8483
vn 0.9046 0.1437 -0.4013
vn 0.9039 0.1432 -0.4030
vn 0.5158 0.1209 -0.8482
vn 0.0521 0.1397 -0.9888
vn 0.0526 0.1396 -0.9888
vn 0.0526 0.1396 -0.9888
vn 0.5154 0.1213 -0.8483
vn 0.5158 0.1209 -0.8482
vn 0.0521 0.1397 -0.9888
vn -0.2944 0.1542 -0.9432
vn -0.2954 0.1541 -0.9428
vn -0.2954 0.1541 -0.9428
vn 0.0526 0.1396 -0.9888
vn 0.0521 0.1397 -0.9888
vn -0.2944 0.1542 -0.9432
vn -0.5312 0.1823 -0.8274
vn -0.5312 0.1821 -0.8275
vn -0.5312 0.1821 -0.8275
vn -0.2954 0.1541 -0.9428
vn -0.2944 0.1542 -0.9432
vn -0.5312 0.1823 -0.8274
vn -0.6250 0.1809 -0.7594
vn -0.6255 0.1806 -0.7591
vn -0.6255 0.1806 -0.7591
vn -0.5312 0.1821 -0.8275
vn -0.5312 0.1823 -0.8274
vn -0.6250 0.1809 -0.7594
vn -0.5903 0.2009 -0.7818
vn -0.5891 0.2020 -0.7824
vn -0.5891 0.2020 -0.7824
vn -0.6255 0.1806 -0.7591
vn -0.6250 0.1809 -0.7594
vn -0.5903 0.2009 -0.7818
vn -0.7995 0.1315 -0.5860
vn -0.7969 0.1325 -0.5895
vn -0.7969 0.1325 -0.5895
vn -0.5891 0.2020 -0.7824
vn -0.5903 0.2009 -0.7818
vn -0.7995 0.1315 -0.5860
vn -0.8759 0.1596 -0.4553
vn -0.8713 0.1606 -0.4637
vn -0.8713 0.1606 -0.4637
vn -0.7969 0.1325 -0.5895
vn -0.7995 0.1315 -0.5860
vn -0.8759 0.1596 -0.4553
vn -0.9756 0.1317 -0.1757
vn -0.9748 0.1322 -0.1798
vn -0.9748 0.1322 -0.1798
vn -0.8713 0.1606 -0.4637
vn -0.8759 0.1596 -0.4553
vn -0.9756 0.1317 -0.1757
vn -0.9585 0.2057 0.1974
vn -0.9600 0.2055 0.1901
vn -0.9600 0.2055 0.1901
vn -0.9748 0.1322 -0.1798
vn -0.9756 0.1317 -0.1757
vn -0.9585 0.2057 0.1974
vn -0.9396 0.1936 0.2823
vn -0.9406 0.1938 0.2788
vn -0.9406 0.1938 0.2788
vn -0.9600 0.2055 0.1901
vn -0.9585 0.2057 0.1974
vn -0.9396 0.1936 0.2823
vn -0.5936 0.2008 0.7793
vn -0.5899 0.2002 0.7822
vn -0.5899 0.2002 0.7822
vn -0.9406 0.1938 0.2788
vn -0.9396 0.1936 0.2823
vn -0.5936 0.2008 0.7793
vn -0.5255 0.2290 0.8194
vn -0.5231 0.2286 0.8210
vn -0.5231 0.2286 0.8210
vn -0.5899 0.2002 0.7822
vn -0.5936 0.2008 0.7793
vn -0.5255 0.2290 0.8194
vn -0.4985 0.2139 0.8401
vn -0.4988 0.2140 0.8399
vn -0.4988 0.2140 0.8399
vn -0.5231 0.2286 0.8210
vn -0.5255 0.2290 0.8194
vn -0.4985 0.2139 0.8401
vn -0.0386 0.1957 0.9799
vn -0.0387 0.1958 0.9799
vn -0.0387 0.1958 0.9799
vn -0.4988 0.2140 0.8399
vn -0.4985 0.2139 0.8401
vn -0.0386 0.1957 0.9799
vn 0.3210 0.1486 0.9353
vn 0.3212 0.1494 0.9351
vn 0.3212 0.1494 0.9351
vn -0.0387 0.1958 0.9799
vn -0.0386 0.1957 0.9799
vn 0.3210 0.1486 0.9353
vn 0.1853 0.0847 0.9790
vn 0.2201 0.0877 0.9715
vn 0.2201 0.0877 0.9715
vn 0.3212 0.1494 0.9351
vn 0.3210 0.1486 0.9353
vn 0.8223 0.1761 0.5412
vn -0.1073 0.1578 0.9816
vn -0.2359 0.1145 0.9650
vn -0.2359 0.1145 0.9650
vn 0.8143 0.1602 0.5579
vn 0.8223 0.1761 0.5412
vn 0.7141 0.0955 0.6935
vn 0.8223 0.1761 0.5412
vn 0.8143 0.1602 0.5579
vn 0.8143 0.1602 0.5579
vn 0.7166 0.0900 0.6916
vn 0.7141 0.0955 0.6935
vn 0.0869 -0.1136 -0.9897
vn 0.8829 0.1171 -0.4547
vn 0.8455 0.1051 -0.5236
vn 0.8455 0.1051 -0.5236
vn 0.0645 -0.1161 -0.9911
vn 0.0869 -0.1136 -0.9897
vn 0.0340 -0.0910 -0.9953
vn 0.0869 -0.1136 -0.9897
vn 0.0645 -0.1161 -0.9911
vn 0.0645 -0.1161 -0.9911
vn 0.0318 -0.0875 -0.9957
vn 0.0340 -0.0910 -0.9953
vn 0.5989 0.0225 -0.8005
vn 0.0340 -0.0910 -0.9953
vn 0.0318 -0.0875 -0.9957
vn 0.0318 -0.0875 -0.9957
vn 0.6014 0.0230 -0.7986
vn 0.5989 0.0225 -0.8005
vn 0.9092 -0.0028 -0.4162
vn 0.5989 0.0225 -0.8005
vn 0.6014 0.0230 -0.7986
vn 0.6014 0.0230 -0.7986
vn 0.9092 -0.0031 -0.4165
vn 0.9092 -0.0028 -0.4162
vn 0.9842 -0.0684 0.1633
vn 0.9092 -0.0028 -0.4162
vn 0.9092 -0.0031 -0.4165
vn 0.9092 -0.0031 -0.4165
vn 0.9844 -0.0664 0.1629
vn 0.9842 -0.0684 0.1633
vn 0.5293 -0.2456 0.8121
vn 0.6077 -0.0706 0.7910
vn 0.6080 -0.0746 0.7904
vn 0.6080 -0.0746 0.7904
vn 0.5287 -0.2486 0.8116
vn 0.5293 -0.2456 0.8121
vn 0.6077 -0.0706 0.7910
vn 0.9842 -0.0684 0.1633
vn 0.9844 -0.0664 0.1629
vn 0.9844 -0.0664 0.1629
vn 0.6080 -0.0746 0.7904
vn 0.6077 -0.0706 0.7910
vn 0.1853 0.0847 0.9790
vn 0.1532 -0.1257 0.9802
vn 0.1531 -0.1227 0.9806
vn 0.1531 -0.1227 0.9806
vn 0.2201 0.0877 0.9715
vn 0.1853 0.0847 0.9790
vn 0.1532 -0.1257 0.9802
vn 0.5602 -0.1497 0.8147
vn 0.5602 -0.1466 0.8153
vn 0.5602 -0.1466 0.8153
vn 0.1531 -0.1227 0.9806
vn 0.1532 -0.1257 0.9802
vn 0.5602 -0.1497 0.8147
vn 0.5293 -0.2456 0.8121
vn 0.5287 -0.2486 0.8116
vn 0.5287 -0.2486 0.8116
vn 0.5602 -0.1466 0.8153
vn 0.5602 -0.1497 0.8147
vn 0.8829 0.1171 -0.4547
vn 0.7410 0.0904 0.6654
vn 0.7408 0.0929 0.6653
vn 0.7408 0.0929 0.6653
vn 0.8455 0.1051 -0.5236
vn 0.8829 0.1171 -0.4547
vn 0.7410 0.0904 0.6654
vn 0.7141 0.0955 0.6935
vn 0.7166 0.0900 0.6916
vn 0.7166 0.0900 0.6916
vn 0.7408 0.0929 0.6653
vn 0.7410 0.0904 0.6654
# 720 vertex normals

vt 0.4197 0.3027 0.0000
vt 0.4290 0.3027 0.0000
vt 0.4126 0.2969 0.0000
vt 0.4116 0.2905 0.0000
vt 0.4363 0.2964 0.0000
vt 0.4517 0.2920 0.0000
vt 0.4451 0.2988 0.0000
vt 0.4500 0.2813 0.0000
vt 0.4138 0.2822 0.0000
vt 0.4189 0.2754 0.0000
vt 0.4519 0.2686 0.0000
vt 0.4155 0.2651 0.0000
vt 0.4192 0.2495 0.0000
vt 0.4568 0.2578 0.0000
vt 0.4253 0.2437 0.0000
vt 0.4292 0.2354 0.0000
vt 0.4385 0.2314 0.0000
vt 0.4678 0.2407 0.0000
vt 0.4414 0.2178 0.0000
vt 0.4473 0.2095 0.0000
vt 0.4734 0.2056 0.0000
vt 0.4807 0.2388 0.0000
vt 0.5000 0.2070 0.0000
vt 0.5024 0.2451 0.0000
vt 0.5171 0.2183 0.0000
vt 0.5317 0.2275 0.0000
vt 0.5190 0.2568 0.0000
vt 0.5415 0.2368 0.0000
vt 0.5503 0.2417 0.0000
vt 0.5542 0.2612 0.0000
vt 0.5254 0.2710 0.0000
vt 0.5625 0.2700 0.0000
vt 0.5483 0.3027 0.0000
vt 0.5181 0.2871 0.0000
vt 0.5483 0.3203 0.0000
vt 0.5063 0.3057 0.0000
vt 0.5430 0.3281 0.0000
vt 0.5313 0.3320 0.0000
vt 0.5244 0.3394 0.0000
vt 0.4919 0.3481 0.0000
vt 0.4900 0.3101 0.0000
vt 0.4797 0.3462 0.0000
vt 0.4700 0.3413 0.0000
vt 0.4790 0.3066 0.0000
vt 0.4880 0.2720 0.0000
vt 0.4697 0.2822 0.0000
vt 0.4526 0.2915 0.0000
vt 0.4578 0.2964 0.0000
vt 0.4585 0.3013 0.0000
vt 0.4761 0.2905 0.0000
vt 0.4641 0.3096 0.0000
vt 0.4600 0.3115 0.0000
vt 0.4546 0.3101 0.0000
vt 0.4426 0.3145 0.0000
vt 0.4380 0.3203 0.0000
vt 0.4365 0.3271 0.0000
vt 0.4456 0.3350 0.0000
vt 0.4407 0.3335 0.0000
vt 0.4573 0.3423 0.0000
vt 0.4495 0.3389 0.0000
vt 0.4634 0.3022 0.0000
vt 0.0000 0.0000 0.0000
vt 0.0000 0.0500 0.0000
vt 0.0172 0.0000 0.0000
vt 0.0172 0.0500 0.0000
vt 0.0344 0.0000 0.0000
vt 0.0344 0.0500 0.0000
vt 0.0459 0.0000 0.0000
vt 0.0459 0.0500 0.0000
vt 0.0618 0.0000 0.0000
vt 0.0618 0.0500 0.0000
vt 0.0774 0.0000 0.0000
vt 0.0774 0.0500 0.0000
vt 0.0971 0.0000 0.0000
vt 0.0971 0.0500 0.0000
vt 0.1266 0.0000 0.0000
vt 0.1266 0.0500 0.0000
vt 0.1426 0.0000 0.0000
vt 0.1426 0.0500 0.0000
vt 0.1595 0.0000 0.0000
vt 0.1595 0.0500 0.0000
vt 0.1782 0.0000 0.0000
vt 0.1782 0.0500 0.0000
vt 0.2039 0.0000 0.0000
vt 0.2039 0.0500 0.0000
vt 0.2228 0.0000 0.0000
vt 0.2228 0.0500 0.0000
vt 0.2711 0.0000 0.0000
vt 0.2711 0.0500 0.0000
vt 0.3205 0.0000 0.0000
vt 0.3205 0.0500 0.0000
vt 0.3582 0.0000 0.0000
vt 0.3582 0.0500 0.0000
vt 0.3905 0.0000 0.0000
vt 0.3905 0.0500 0.0000
vt 0.4151 0.0000 0.0000
vt 0.4151 0.0500 0.0000
vt 0.4339 0.0000 0.0000
vt 0.4339 0.0500 0.0000
vt 0.4710 0.0000 0.0000
vt 0.4710 0.0500 0.0000
vt 0.4931 0.0000 0.0000
vt 0.4931 0.0500 0.0000
vt 0.5590 0.0000 0.0000
vt 0.5590 0.0500 0.0000
vt 0.5914 0.0000 0.0000
vt 0.5914 0.0500 0.0000
vt 0.6089 0.0000 0.0000
vt 0.6089 0.0500 0.0000
vt 0.6320 0.0000 0.0000
vt 0.6320 0.0500 0.0000
vt 0.6505 0.0000 0.0000
vt 0.6505 0.0500 0.0000
vt 0.7128 0.0000 0.0000
vt 0.7128 0.0500 0.0000
vt 0.7359 0.0000 0.0000
vt 0.7359 0.0500 0.0000
vt 0.7560 0.0000 0.0000
vt 0.7560 0.0500 0.0000
vt 0.7797 0.0000 0.0000
vt 0.7797 0.0500 0.0000
vt 0.7953 0.0000 0.0000
vt 0.7953 0.0500 0.0000
vt 0.8057 0.0000 0.0000
vt 0.8057 0.0500 0.0000
vt 0.8154 0.0000 0.0000
vt 0.8154 0.0500 0.0000
vt 0.8292 0.0000 0.0000
vt 0.8292 0.0500 0.0000
vt 0.8418 0.0000 0.0000
vt 0.8418 0.0500 0.0000
vt 0.8560 0.0000 0.0000
vt 0.8560 0.0500 0.0000
vt 0.8799 0.0000 0.0000
vt 0.8799 0.0500 0.0000
vt 0.8903 0.0000 0.0000
vt 0.8903 0.0500 0.0000
vt 0.9001 0.0000 0.0000
vt 0.9001 0.0500 0.0000
vt 0.9137 0.0000 0.0000
vt 0.9137 0.0500 0.0000
vt 0.9230 0.0000 0.0000
vt 0.9230 0.0500 0.0000
vt 0.9317 0.0000 0.0000
vt 0.9317 0.0500 0.0000
vt 0.9475 0.0000 0.0000
vt 0.9475 0.0500 0.0000
vt 0.9652 0.0000 0.0000
vt 0.9652 0.0500 0.0000
vt 0.9818 0.0000 0.0000
vt 0.9818 0.0500 0.0000
vt 1.0000 0.0000 0.0000
vt 1.0000 0.0500 0.0000
# 153 texture coords

o SM_Coral_Table_Acropora_05_LOD0
g SM_Coral_Table_Acropora_05_LOD0
usemtl MAT_Coral_Table
s 1
f 3/3/1 4/2/2 5/1/3 
f 21/4/4 4/2/5 3/3/6 
f 21/4/7 1/5/8 4/2/9 
f 21/4/10 22/6/11 1/5/12 
f 1/5/13 22/6/14 7/7/15 
f 24/8/16 22/6/17 21/4/18 
f 23/9/19 24/8/20 21/4/21 
f 2/10/22 24/8/23 23/9/24 
f 26/11/25 24/8/26 2/10/27 
f 25/12/28 26/11/29 2/10/30 
f 27/13/31 26/11/32 25/12/33 
f 47/14/34 26/11/35 27/13/36 
f 28/15/37 47/14/38 27/13/39 
f 29/16/40 47/14/41 28/15/42 
f 30/17/43 47/14/44 29/16/45 
f 32/18/46 47/14/47 30/17/48 
f 16/19/49 32/18/50 30/17/51 
f 31/20/52 32/18/53 16/19/54 
f 33/21/55 32/18/56 31/20/57 
f 46/22/58 32/18/59 33/21/60 
f 18/23/61 46/22/62 33/21/63 
f 34/24/64 46/22/65 18/23/66 
f 10/25/67 34/24/68 18/23/69 
f 19/26/70 34/24/71 10/25/72 
f 37/27/73 34/24/74 19/26/75 
f 35/28/76 37/27/77 19/26/78 
f 36/29/79 37/27/80 35/28/81 
f 38/30/82 37/27/83 36/29/84 
f 39/31/85 37/27/86 38/30/87 
f 20/32/88 39/31/89 38/30/90 
f 6/33/91 39/31/92 20/32/93 
f 45/34/94 39/31/95 6/33/96 
f 40/35/97 45/34/98 6/33/99 
f 44/36/100 45/34/101 40/35/102 
f 41/37/103 44/36/104 40/35/105 
f 9/38/106 44/36/107 41/37/108 
f 8/39/109 44/36/110 9/38/111 
f 42/40/112 44/36/113 8/39/114 
f 43/41/115 44/36/116 42/40/117 
f 17/42/118 43/41/119 42/40/120 
f 56/43/121 43/41/122 17/42/123 
f 56/43/124 52/44/125 43/41/126 
f 52/44/127 48/45/128 43/41/129 
f 48/45/130 44/36/131 43/41/132 
f 48/45/133 45/34/134 44/36/135 
f 48/45/136 39/31/137 45/34/138 
f 48/45/139 37/27/140 39/31/141 
f 48/45/142 34/24/143 37/27/144 
f 48/45/145 46/22/146 34/24/147 
f 48/45/148 32/18/149 46/22/150 
f 48/45/151 47/14/152 32/18/153 
f 48/45/154 26/11/155 47/14/156 
f 48/45/157 24/8/158 26/11/159 
f 51/46/160 24/8/161 48/45/162 
f 51/46/163 50/47/164 24/8/165 
f 50/47/166 22/6/167 24/8/168 
f 50/47/169 49/48/170 22/6/171 
f 51/46/172 49/48/173 50/47/174 
f 51/46/175 60/49/176 49/48/177 
f 61/50/178 60/49/179 51/46/180 
f 48/45/181 61/50/182 51/46/183 
f 52/44/184 61/50/185 48/45/186 
f 53/51/187 61/50/188 52/44/189 
f 56/43/190 53/51/191 52/44/192 
f 56/43/193 54/52/194 53/51/195 
f 56/43/196 14/53/197 54/52/198 
f 56/43/199 55/54/200 14/53/201 
f 56/43/202 13/55/203 55/54/204 
f 56/43/205 57/56/206 13/55/207 
f 59/57/208 57/56/209 56/43/210 
f 57/56/211 59/57/212 12/58/213 
f 58/59/214 59/57/215 56/43/216 
f 59/57/217 58/59/218 11/60/219 
f 15/61/220 61/50/221 53/51/222 
f 61/50/223 15/61/224 60/49/225 
f 66/1/226 65/2/227 64/3/228 
f 64/3/229 65/2/230 82/4/231 
f 65/2/232 62/5/233 82/4/234 
f 62/5/235 83/6/236 82/4/237 
f 68/7/238 83/6/239 62/5/240 
f 82/4/241 83/6/242 85/8/243 
f 82/4/244 85/8/245 84/9/246 
f 84/9/247 85/8/248 63/10/249 
f 63/10/250 85/8/251 87/11/252 
f 63/10/253 87/11/254 86/12/255 
f 86/12/256 87/11/257 88/13/258 
f 88/13/259 87/11/260 108/14/261 
f 88/13/262 108/14/263 89/15/264 
f 89/15/265 108/14/266 90/16/267 
f 90/16/268 108/14/269 91/17/270 
f 91/17/271 108/14/272 93/18/273 
f 91/17/274 93/18/275 77/19/276 
f 77/19/277 93/18/278 92/20/279 
f 92/20/280 93/18/281 94/21/282 
f 94/21/283 93/18/284 107/22/285 
f 94/21/286 107/22/287 79/23/288 
f 79/23/289 107/22/290 95/24/291 
f 79/23/292 95/24/293 71/25/294 
f 71/25/295 95/24/296 80/26/297 
f 80/26/298 95/24/299 98/27/300 
f 80/26/301 98/27/302 96/28/303 
f 96/28/304 98/27/305 97/29/306 
f 97/29/307 98/27/308 99/30/309 
f 99/30/310 98/27/311 100/31/312 
f 99/30/313 100/31/314 81/32/315 
f 81/32/316 100/31/317 67/33/318 
f 67/33/319 100/31/320 106/34/321 
f 67/33/322 106/34/323 101/35/324 
f 101/35/325 106/34/326 105/36/327 
f 101/35/328 105/36/329 102/37/330 
f 102/37/331 105/36/332 70/38/333 
f 70/38/334 105/36/335 69/39/336 
f 69/39/337 105/36/338 103/40/339 
f 103/40/340 105/36/341 104/41/342 
f 103/40/343 104/41/344 78/42/345 
f 78/42/346 104/41/347 117/43/348 
f 104/41/349 113/44/350 117/43/351 
f 104/41/352 109/45/353 113/44/354 
f 104/41/355 105/36/356 109/45/357 
f 105/36/358 106/34/359 109/45/360 
f 106/34/361 100/31/362 109/45/363 
f 100/31/364 98/27/365 109/45/366 
f 98/27/367 95/24/368 109/45/369 
f 95/24/370 107/22/371 109/45/372 
f 107/22/373 93/18/374 109/45/375 
f 93/18/376 108/14/377 109/45/378 
f 108/14/379 87/11/380 109/45/381 
f 87/11/382 85/8/383 109/45/384 
f 109/45/385 85/8/386 112/46/387 
f 85/8/388 111/47/389 112/46/390 
f 85/8/391 83/6/392 111/47/393 
f 83/6/394 110/48/395 111/47/396 
f 111/47/397 110/48/398 112/46/399 
f 110/48/400 121/49/401 112/46/402 
f 112/46/403 121/49/404 122/50/405 
f 112/46/406 122/50/407 109/45/408 
f 109/45/409 122/50/410 113/44/411 
f 113/44/412 122/50/413 114/51/414 
f 113/44/415 114/51/416 117/43/417 
f 114/51/418 115/52/419 117/43/420 
f 115/52/421 75/53/422 117/43/423 
f 75/53/424 116/54/425 117/43/426 
f 116/54/427 74/55/428 117/43/429 
f 74/55/430 118/56/431 117/43/432 
f 117/43/433 118/56/434 120/57/435 
f 73/58/436 120/57/437 118/56/438 
f 117/43/439 120/57/440 119/59/441 
f 72/60/442 119/59/443 120/57/444 
f 114/51/445 122/50/446 76/61/447 
f 121/49/448 76/61/449 122/50/450 
s 2
f 65/153/451 66/151/452 5/150/453 
f 5/150/454 4/152/455 65/153/456 
f 66/151/457 64/149/458 3/148/459 
f 3/148/460 5/150/461 66/151/462 
f 64/149/463 82/147/464 21/146/465 
f 21/146/466 3/148/467 64/149/468 
f 62/65/469 65/63/470 4/62/471 
f 4/62/472 1/64/473 62/65/474 
f 83/69/475 68/67/476 7/66/477 
f 7/66/478 22/68/479 83/69/480 
f 68/67/481 62/65/482 1/64/483 
f 1/64/484 7/66/485 68/67/486 
f 82/147/487 84/145/488 23/144/489 
f 23/144/490 21/146/491 82/147/492 
f 84/145/493 63/143/494 2/142/495 
f 2/142/496 23/144/497 84/145/498 
f 63/143/499 86/141/500 25/140/501 
f 25/140/502 2/142/503 63/143/504 
f 86/141/505 88/139/506 27/138/507 
f 27/138/508 25/140/509 86/141/510 
f 88/139/511 89/137/512 28/136/513 
f 28/136/514 27/138/515 88/139/516 
f 89/137/517 90/135/518 29/134/519 
f 29/134/520 28/136/521 89/137/522 
f 90/135/523 91/133/524 30/132/525 
f 30/132/526 29/134/527 90/135/528 
f 91/133/529 77/131/530 16/130/531 
f 16/130/532 30/132/533 91/133/534 
f 77/131/535 92/129/536 31/128/537 
f 31/128/538 16/130/539 77/131/540 
f 92/129/541 94/127/542 33/126/543 
f 33/126/544 31/128/545 92/129/546 
f 94/127/547 79/125/548 18/124/549 
f 18/124/550 33/126/551 94/127/552 
f 79/125/553 71/123/554 10/122/555 
f 10/122/556 18/124/557 79/125/558 
f 71/123/559 80/121/560 19/120/561 
f 19/120/562 10/122/563 71/123/564 
f 80/121/565 96/119/566 35/118/567 
f 35/118/568 19/120/569 80/121/570 
f 96/119/571 97/117/572 36/116/573 
f 36/116/574 35/118/575 96/119/576 
f 97/117/577 99/115/578 38/114/579 
f 38/114/580 36/116/581 97/117/582 
f 99/115/583 81/113/584 20/112/585 
f 20/112/586 38/114/587 99/115/588 
f 81/113/589 67/111/590 6/110/591 
f 6/110/592 20/112/593 81/113/594 
f 67/111/595 101/109/596 40/108/597 
f 40/108/598 6/110/599 67/111/600 
f 101/109/601 102/107/602 41/106/603 
f 41/106/604 40/108/605 101/109/606 
f 102/107/607 70/105/608 9/104/609 
f 9/104/610 41/106/611 102/107/612 
f 70/105/613 69/103/614 8/102/615 
f 8/102/616 9/104/617 70/105/618 
f 69/103/619 103/101/620 42/100/621 
f 42/100/622 8/102/623 69/103/624 
f 103/101/625 78/99/626 17/98/627 
f 17/98/628 42/100/629 103/101/630 
f 78/99/631 117/97/632 56/96/633 
f 56/96/634 17/98/635 78/99/636 
f 110/71/637 83/69/638 22/68/639 
f 22/68/640 49/70/641 110/71/642 
f 121/73/643 110/71/644 49/70/645 
f 49/70/646 60/72/647 121/73/648 
f 115/79/649 114/77/650 53/76/651 
f 53/76/652 54/78/653 115/79/654 
f 75/81/655 115/79/656 54/78/657 
f 54/78/658 14/80/659 75/81/660 
f 116/83/661 75/81/662 14/80/663 
f 14/80/664 55/82/665 116/83/666 
f 74/85/667 116/83/668 55/82/669 
f 55/82/670 13/84/671 74/85/672 
f 118/87/673 74/85/674 13/84/675 
f 13/84/676 57/86/677 118/87/678 
f 120/91/679 73/89/680 12/88/681 
f 12/88/682 59/90/683 120/91/684 
f 73/89/685 118/87/686 57/86/687 
f 57/86/688 12/88/689 73/89/690 
f 117/97/691 119/95/692 58/94/693 
f 58/94/694 56/96/695 117/97/696 
f 119/95/697 72/93/698 11/92/699 
f 11/92/700 58/94/701 119/95/702 
f 72/93/703 120/91/704 59/90/705 
f 59/90/706 11/92/707 72/93/708 
f 114/77/709 76/75/710 15/74/711 
f 15/74/712 53/76/713 114/77/714 
f 76/75/715 121/73/716 60/72/717 
f 60/72/718 15/74/719 76/75/720 
# 240 faces

#
# object SM_Coral_Table_Acropora_05_LOD1
#

v  26.0399 7.6210 6.9561
v  -19.5669 6.9566 17.9062
v  -22.0339 7.0026 -12.3197
v  8.1134 3.9755 11.4314
v  16.9911 7.1792 -15.8254
v  17.6933 5.5200 17.5038
v  6.0254 5.4149 22.4721
v  -4.4572 7.9722 -24.2753
v  -0.2707 0.0000 -1.7462
v  -0.2716 0.1995 -1.7314
v  14.7492 6.7885 7.5866
v  -26.3852 6.5866 -2.4437
v  13.9040 7.1581 -23.4445
v  23.8770 7.7039 -0.4980
v  23.8105 7.4269 -9.4843
v  6.1196 3.9291 1.8624
v  6.0753 4.1126 1.7963
v  20.2917 7.0199 9.0698
v  -13.3155 5.0768 -2.0881
v  10.0332 4.2839 8.4824
v  -1.6121 6.6902 24.8116
v  -13.0120 7.1528 21.7806
v  15.5844 5.7858 13.0237
v  -13.3607 4.8830 -2.1076
v  12.4701 5.8237 5.3540
v  6.8162 5.5866 -12.5835
v  6.8320 5.3921 -12.6273
v  16.2819 5.2458 19.6814
v  -21.3570 7.0085 8.9869
v  13.0850 4.7511 1.5643
v  13.0423 4.9447 1.5374
v  9.5091 5.1334 12.0737
v  2.8579 3.8754 10.0508
v  -15.5742 8.0888 -17.1277
v  17.7714 6.9797 6.7806
v  10.4627 5.1909 22.8313
v  20.2739 7.1657 -14.4966
v  -23.4279 6.8922 -5.4189
v  -15.4146 6.9581 19.2653
v  24.9861 7.8402 -4.0281
v  8.2991 4.3319 8.8395
v  23.5379 7.2789 8.9932
v  4.8659 7.2308 -24.8499
v  2.8746 3.6783 10.0801
v  -21.4230 6.9306 15.1332
v  -11.1797 5.6368 -7.0649
v  -11.1476 5.8273 -7.0134
v  16.0329 7.0098 -20.5738
v  -6.6418 4.2417 10.0219
v  14.5254 4.9422 20.2106
v  12.4118 4.7877 -2.8906
v  12.3572 4.9794 -2.8743
v  2.6598 6.1079 24.1768
v  10.3088 4.4446 6.8373
v  11.4021 5.0524 11.5234
v  26.3852 7.5659 4.7933
v  21.6048 7.5045 -11.5768
v  25.5815 7.8605 1.9049
v  -18.8891 7.4695 -13.9324
v  -6.6717 4.0472 10.0577
v  17.1605 5.7570 15.1871
v  13.1575 4.8899 21.6554
v  -5.3974 6.2302 -11.1544
v  -5.3700 6.4193 -11.0950
v  -10.8673 4.2145 3.6382
v  -10.8143 4.4070 3.6250
v  -0.9499 3.8348 11.5803
v  -0.9418 4.0301 11.5378
v  -10.4893 8.1878 -20.4839
v  2.2851 5.8070 -13.3312
v  2.3012 5.9983 -13.2753
v  10.7120 4.8942 -6.6812
v  10.6666 5.0859 -6.6466
v  3.9020 3.7951 4.8415
v  3.9688 3.6074 4.8588
v  6.0251 5.6141 22.4543
v  12.4222 6.0146 5.3182
v  26.3563 7.7637 4.7971
v  14.5458 5.1356 20.2573
v  8.0756 4.1707 11.4094
v  4.8741 7.4286 -24.8215
v  -23.4504 6.6952 -5.4451
v  20.3020 6.8212 9.0497
v  -21.3978 6.8128 8.9933
v  -15.5853 7.8926 -17.1652
v  10.0055 4.4820 8.4854
v  23.7719 7.6227 -9.4720
v  -1.6315 6.4948 24.8499
v  -4.4773 7.7749 -24.3013
v  -21.3873 7.1268 15.1175
v  16.9666 7.3765 -15.8033
v  17.6835 5.3217 17.4800
v  23.8305 7.8981 -0.4866
v  10.2523 4.6347 6.8634
v  17.7481 7.1750 6.7447
v  10.4457 4.9929 22.8086
v  2.6438 5.9119 24.2136
v  -13.0373 6.9575 21.8153
# 98 vertices

vn -0.1494 -0.9724 0.1789
vn -0.2643 -0.9622 0.0656
vn 0.0044 -0.9973 -0.0739
vn -0.0047 0.9973 0.0736
vn 0.2648 0.9621 -0.0660
vn 0.1480 0.9729 -0.1778
vn -0.0404 -0.9763 0.2126
vn -0.1494 -0.9724 0.1789
vn 0.0044 -0.9973 -0.0739
vn -0.0047 0.9973 0.0736
vn 0.0804 0.9568 0.2795
vn 0.1353 0.9462 0.2938
vn 0.1726 -0.9848 -0.0171
vn 0.1983 -0.9656 0.1679
vn 0.2128 -0.9675 0.1365
vn -0.1930 0.9793 0.0614
vn -0.2727 0.9587 0.0814
vn 0.9134 0.1716 -0.3690
vn 0.0011 0.9957 -0.0922
vn 0.6142 0.0532 -0.7874
vn 0.1048 -0.1110 -0.9883
vn 0.1048 -0.1110 -0.9883
vn 0.6142 0.0532 -0.7874
vn 0.0031 -0.9962 0.0870
vn -0.0047 0.9973 0.0736
vn 0.1480 0.9729 -0.1778
vn 0.0404 0.9762 -0.2129
vn -0.0973 -0.9767 0.1913
vn -0.1494 -0.9724 0.1789
vn -0.0404 -0.9763 0.2126
vn -0.1005 -0.9865 -0.1295
vn -0.0802 -0.9570 -0.2789
vn -0.1364 -0.9455 -0.2958
vn 0.1353 0.9462 0.2938
vn 0.0804 0.9568 0.2795
vn 0.0882 0.9877 0.1290
vn -0.1364 -0.9455 -0.2958
vn -0.0802 -0.9570 -0.2789
vn 0.0044 -0.9973 -0.0739
vn 0.9134 0.1716 -0.3690
vn 0.2739 -0.9583 -0.0810
vn 0.1957 -0.9778 -0.0748
vn -0.2118 0.9678 -0.1362
vn -0.2027 0.9670 -0.1543
vn -0.1447 0.9893 0.0187
vn -0.1890 0.9758 -0.1101
vn -0.3342 0.9385 -0.0868
vn -0.0836 0.9857 -0.1462
vn -0.2223 0.9170 -0.3311
vn -0.2843 0.9490 0.1366
vn -0.2027 0.9670 -0.1543
vn 0.1983 -0.9656 0.1679
vn 0.2848 -0.9481 -0.1416
vn 0.2229 -0.9194 0.3242
vn 0.1995 0.9793 -0.0350
vn 0.2230 0.9698 0.0983
vn -0.7243 -0.1817 0.6651
vn -0.1005 -0.9865 -0.1295
vn -0.1364 -0.9455 -0.2958
vn -0.4717 0.2494 -0.8458
vn 0.0409 0.9890 0.1418
vn -0.0776 0.9728 0.2182
vn 0.9357 0.0486 -0.3494
vn 0.1227 -0.9863 -0.1102
vn 0.2278 -0.9582 -0.1730
vn 0.0800 -0.9719 -0.2213
vn 0.4817 0.3606 -0.7987
vn -0.2118 0.9678 -0.1362
vn -0.1447 0.9893 0.0187
vn 0.1726 -0.9848 -0.0171
vn 0.2128 -0.9675 0.1365
vn 0.4817 0.3606 -0.7987
vn -0.0885 0.1737 -0.9808
vn 0.2278 -0.9582 -0.1730
vn 0.9409 -0.0146 0.3384
vn 0.9409 -0.0146 0.3384
vn -0.2263 0.9588 0.1719
vn -0.0885 0.1737 -0.9808
vn 0.0800 -0.9719 -0.2213
vn 0.2278 -0.9582 -0.1730
vn 0.0044 -0.9973 -0.0739
vn 0.0044 -0.9973 -0.0739
vn 0.3325 -0.9390 0.0880
vn 0.0838 -0.9857 0.1460
vn -0.0047 0.9973 0.0736
vn -0.2263 0.9588 0.1719
vn -0.0776 0.9728 0.2182
vn -0.0836 0.9857 -0.1462
vn -0.3342 0.9385 -0.0868
vn -0.0047 0.9973 0.0736
vn -0.1447 0.9893 0.0187
vn -0.1163 0.9768 -0.1797
vn -0.0519 0.9936 0.1005
vn 0.0675 -0.9945 -0.0805
vn 0.1117 -0.9747 0.1935
vn 0.1726 -0.9848 -0.0171
vn -0.4717 0.2494 -0.8458
vn 0.1353 0.9462 0.2938
vn 0.0882 0.9877 0.1290
vn 0.1021 0.9837 0.1477
vn 0.1572 0.9538 0.2558
vn -0.2387 0.0304 -0.9706
vn 0.1650 0.5230 0.8362
vn -0.3342 0.9385 -0.0868
vn -0.1890 0.9758 -0.1101
vn 0.2344 -0.9665 0.1043
vn 0.3325 -0.9390 0.0880
vn 0.1650 0.5230 0.8362
vn 0.0011 0.9957 -0.0922
vn -0.1890 0.9758 -0.1101
vn -0.0836 0.9857 -0.1462
vn -0.0973 -0.9767 0.1913
vn -0.0404 -0.9763 0.2126
vn -0.0801 -0.9797 0.1839
vn 0.1480 0.9729 -0.1778
vn 0.2648 0.9621 -0.0660
vn 0.1889 0.9808 -0.0484
vn -0.1785 -0.9808 0.0786
vn -0.2643 -0.9622 0.0656
vn -0.1494 -0.9724 0.1789
vn 0.6142 0.0532 -0.7874
vn -0.1988 0.1475 -0.9689
vn 0.0031 -0.9962 0.0870
vn 0.0011 0.9957 -0.0922
vn -0.1988 0.1475 -0.9689
vn 0.6142 0.0532 -0.7874
vn -0.2387 0.0304 -0.9706
vn -0.1604 -0.9529 -0.2575
vn -0.1125 -0.9850 -0.1307
vn -0.7243 -0.1817 0.6651
vn -0.2257 -0.9693 -0.0976
vn -0.2037 -0.9785 0.0317
vn -0.1447 0.9893 0.0187
vn -0.2027 0.9670 -0.1543
vn -0.1163 0.9768 -0.1797
vn 0.1117 -0.9747 0.1935
vn 0.1983 -0.9656 0.1679
vn 0.1726 -0.9848 -0.0171
vn 0.1519 -0.0240 -0.9881
vn -0.0776 0.9728 0.2182
vn -0.1076 0.9883 0.1085
vn -0.0776 0.9728 0.2182
vn -0.2263 0.9588 0.1719
vn -0.1076 0.9883 0.1085
vn 0.1227 -0.9863 -0.1102
vn 0.0800 -0.9719 -0.2213
vn 0.1519 -0.0240 -0.9881
vn 0.9357 0.0486 -0.3494
vn 0.0800 -0.9719 -0.2213
vn -0.0313 -0.9892 -0.1432
vn 0.1168 0.9596 0.2560
vn 0.0491 0.9916 0.1193
vn 0.0011 0.9957 -0.0922
vn 0.0031 -0.9962 0.0870
vn -0.0523 -0.9869 -0.1524
vn -0.0847 -0.9731 -0.2145
vn -0.2037 -0.9785 0.0317
vn -0.2643 -0.9622 0.0656
vn -0.1785 -0.9808 0.0786
vn 0.1889 0.9808 -0.0484
vn 0.2648 0.9621 -0.0660
vn 0.1995 0.9793 -0.0350
vn 0.2128 -0.9675 0.1365
vn 0.1983 -0.9656 0.1679
vn 0.2229 -0.9194 0.3242
vn 0.0044 -0.9973 -0.0739
vn 0.2128 -0.9675 0.1365
vn 0.2229 -0.9194 0.3242
vn -0.2223 0.9170 -0.3311
vn -0.2027 0.9670 -0.1543
vn -0.2118 0.9678 -0.1362
vn -0.2223 0.9170 -0.3311
vn -0.2118 0.9678 -0.1362
vn -0.0047 0.9973 0.0736
vn 0.0011 0.9957 -0.0922
vn 0.7333 0.6504 -0.1979
vn -0.1890 0.9758 -0.1101
vn 0.2344 -0.9665 0.1043
vn 0.7333 0.6504 -0.1979
vn 0.0031 -0.9962 0.0870
vn 0.0802 0.9797 -0.1839
vn 0.0404 0.9762 -0.2129
vn 0.0973 0.9767 -0.1913
vn 0.0404 0.9762 -0.2129
vn 0.1480 0.9729 -0.1778
vn 0.0973 0.9767 -0.1913
vn -0.0558 -0.9807 -0.1872
vn -0.1604 -0.9529 -0.2575
vn -0.9953 0.0819 -0.0515
vn -0.9953 0.0819 -0.0515
vn 0.1572 0.9538 0.2558
vn 0.0459 0.9820 0.1831
vn -0.1163 0.9768 -0.1797
vn -0.2027 0.9670 -0.1543
vn -0.2948 0.1965 0.9351
vn -0.2948 0.1965 0.9351
vn 0.1983 -0.9656 0.1679
vn 0.1117 -0.9747 0.1935
vn 0.0984 0.9859 0.1350
vn 0.1168 0.9596 0.2560
vn 0.0011 0.9957 -0.0922
vn 0.0031 -0.9962 0.0870
vn -0.0847 -0.9731 -0.2145
vn -0.0859 -0.9896 -0.1155
vn -0.1076 0.9883 0.1085
vn -0.2263 0.9588 0.1719
vn 0.9409 -0.0146 0.3384
vn 0.9409 -0.0146 0.3384
vn 0.2278 -0.9582 -0.1730
vn 0.1227 -0.9863 -0.1102
vn -0.1125 -0.9850 -0.1307
vn -0.2257 -0.9693 -0.0976
vn -0.7243 -0.1817 0.6651
vn -0.7243 -0.1817 0.6651
vn 0.2230 0.9698 0.0983
vn 0.1021 0.9837 0.1477
vn 0.0973 0.9767 -0.1913
vn 0.1480 0.9729 -0.1778
vn 0.1007 0.9771 -0.1874
vn -0.1264 -0.9767 0.1733
vn -0.1494 -0.9724 0.1789
vn -0.0973 -0.9767 0.1913
vn 0.9134 0.1716 -0.3690
vn -0.2727 0.9587 0.0814
vn -0.2324 0.9709 0.0573
vn 0.2430 -0.9691 -0.0429
vn 0.2739 -0.9583 -0.0810
vn 0.9134 0.1716 -0.3690
vn -0.3342 0.9385 -0.0868
vn 0.1650 0.5230 0.8362
vn -0.1385 0.9902 0.0150
vn 0.1059 -0.9937 0.0379
vn 0.1650 0.5230 0.8362
vn 0.3325 -0.9390 0.0880
vn 0.6253 0.0600 0.7781
vn 0.0675 -0.9945 -0.0805
vn 0.5740 0.0615 0.8165
vn 0.5740 0.0615 0.8165
vn -0.0519 0.9936 0.1005
vn 0.6253 0.0600 0.7781
vn 0.0882 0.9877 0.1290
vn 0.0804 0.9568 0.2795
vn 0.0409 0.9890 0.1418
vn -0.0313 -0.9892 -0.1432
vn -0.0802 -0.9570 -0.2789
vn -0.1005 -0.9865 -0.1295
vn 0.0838 -0.9857 0.1460
vn 0.2344 -0.9665 0.1043
vn 0.0031 -0.9962 0.0870
vn 0.0838 -0.9857 0.1460
vn 0.3325 -0.9390 0.0880
vn 0.2344 -0.9665 0.1043
vn 0.2521 0.0285 0.9673
vn 0.1480 0.9729 -0.1778
vn 0.1889 0.9808 -0.0484
vn -0.1785 -0.9808 0.0786
vn -0.1494 -0.9724 0.1789
vn 0.2521 0.0285 0.9673
vn -0.2257 -0.9693 -0.0976
vn -0.1604 -0.9529 -0.2575
vn 0.0044 -0.9973 -0.0739
vn -0.1125 -0.9850 -0.1307
vn -0.1604 -0.9529 -0.2575
vn -0.2257 -0.9693 -0.0976
vn -0.0047 0.9973 0.0736
vn 0.1572 0.9538 0.2558
vn 0.2230 0.9698 0.0983
vn 0.2230 0.9698 0.0983
vn 0.1572 0.9538 0.2558
vn 0.1021 0.9837 0.1477
vn 0.1519 -0.0240 -0.9881
vn 0.0800 -0.9719 -0.2213
vn 0.9357 0.0486 -0.3494
vn 0.9357 0.0486 -0.3494
vn -0.0776 0.9728 0.2182
vn 0.1519 -0.0240 -0.9881
vn 0.1007 0.9771 -0.1874
vn 0.1480 0.9729 -0.1778
vn -0.9757 0.1371 -0.1707
vn -0.9757 0.1371 -0.1707
vn 0.1480 0.9729 -0.1778
vn 0.2521 0.0285 0.9673
vn 0.0491 0.9916 0.1193
vn 0.1168 0.9596 0.2560
vn 0.6365 0.1369 0.7590
vn 0.6365 0.1369 0.7590
vn -0.0847 -0.9731 -0.2145
vn -0.0523 -0.9869 -0.1524
vn 0.2739 -0.9583 -0.0810
vn 0.2128 -0.9675 0.1365
vn 0.0044 -0.9973 -0.0739
vn 0.2430 -0.9691 -0.0429
vn 0.2128 -0.9675 0.1365
vn 0.2739 -0.9583 -0.0810
vn -0.0047 0.9973 0.0736
vn -0.2118 0.9678 -0.1362
vn -0.2727 0.9587 0.0814
vn -0.2727 0.9587 0.0814
vn -0.2118 0.9678 -0.1362
vn -0.2324 0.9709 0.0573
vn 0.0011 0.9957 -0.0922
vn 0.0404 0.9762 -0.2129
vn 0.0802 0.9797 -0.1839
vn -0.0801 -0.9797 0.1839
vn -0.0404 -0.9763 0.2126
vn 0.0031 -0.9962 0.0870
vn -0.2223 0.9170 -0.3311
vn -0.1385 0.9902 0.0150
vn -0.2843 0.9490 0.1366
vn 0.2848 -0.9481 -0.1416
vn 0.1059 -0.9937 0.0379
vn 0.2229 -0.9194 0.3242
vn 0.0011 0.9957 -0.0922
vn 0.1048 -0.1110 -0.9883
vn 0.7333 0.6504 -0.1979
vn 0.7333 0.6504 -0.1979
vn 0.1048 -0.1110 -0.9883
vn 0.0031 -0.9962 0.0870
vn -0.1447 0.9893 0.0187
vn -0.0519 0.9936 0.1005
vn 0.5740 0.0615 0.8165
vn 0.5740 0.0615 0.8165
vn 0.0675 -0.9945 -0.0805
vn 0.1726 -0.9848 -0.0171
vn -0.0885 0.1737 -0.9808
vn -0.2263 0.9588 0.1719
vn -0.1930 0.9793 0.0614
vn 0.1957 -0.9778 -0.0748
vn 0.2278 -0.9582 -0.1730
vn -0.0885 0.1737 -0.9808
vn -0.2324 0.9709 0.0573
vn -0.2118 0.9678 -0.1362
vn 0.4817 0.3606 -0.7987
vn 0.4817 0.3606 -0.7987
vn 0.2128 -0.9675 0.1365
vn 0.2430 -0.9691 -0.0429
vn -0.2387 0.0304 -0.9706
vn 0.1572 0.9538 0.2558
vn -0.9953 0.0819 -0.0515
vn -0.9953 0.0819 -0.0515
vn -0.1604 -0.9529 -0.2575
vn -0.2387 0.0304 -0.9706
vn -0.9757 0.1371 -0.1707
vn -0.1494 -0.9724 0.1789
vn -0.1264 -0.9767 0.1733
vn 0.2521 0.0285 0.9673
vn -0.1494 -0.9724 0.1789
vn -0.9757 0.1371 -0.1707
vn -0.1988 0.1475 -0.9689
vn -0.0523 -0.9869 -0.1524
vn 0.0031 -0.9962 0.0870
vn 0.0011 0.9957 -0.0922
vn 0.0491 0.9916 0.1193
vn -0.1988 0.1475 -0.9689
vn 0.1168 0.9596 0.2560
vn 0.0984 0.9859 0.1350
vn 0.4946 -0.3602 0.7910
vn 0.4946 -0.3602 0.7910
vn -0.0859 -0.9896 -0.1155
vn -0.0847 -0.9731 -0.2145
vn -0.1604 -0.9529 -0.2575
vn -0.1364 -0.9455 -0.2958
vn 0.0044 -0.9973 -0.0739
vn -0.0558 -0.9807 -0.1872
vn -0.1364 -0.9455 -0.2958
vn -0.1604 -0.9529 -0.2575
vn -0.0047 0.9973 0.0736
vn 0.1353 0.9462 0.2938
vn 0.1572 0.9538 0.2558
vn 0.1572 0.9538 0.2558
vn 0.1353 0.9462 0.2938
vn 0.0459 0.9820 0.1831
vn -0.2643 -0.9622 0.0656
vn -0.2257 -0.9693 -0.0976
vn 0.0044 -0.9973 -0.0739
vn -0.2037 -0.9785 0.0317
vn -0.2257 -0.9693 -0.0976
vn -0.2643 -0.9622 0.0656
vn -0.0047 0.9973 0.0736
vn 0.2230 0.9698 0.0983
vn 0.2648 0.9621 -0.0660
vn 0.2648 0.9621 -0.0660
vn 0.2230 0.9698 0.0983
vn 0.1995 0.9793 -0.0350
vn -0.0404 -0.9763 0.2126
vn 0.0044 -0.9973 -0.0739
vn 0.0838 -0.9857 0.1460
vn -0.0404 -0.9763 0.2126
vn 0.0838 -0.9857 0.1460
vn 0.0031 -0.9962 0.0870
vn -0.0836 0.9857 -0.1462
vn -0.0047 0.9973 0.0736
vn 0.0404 0.9762 -0.2129
vn 0.0011 0.9957 -0.0922
vn -0.0836 0.9857 -0.1462
vn 0.0404 0.9762 -0.2129
vn -0.4717 0.2494 -0.8458
vn -0.1364 -0.9455 -0.2958
vn -0.0558 -0.9807 -0.1872
vn 0.0459 0.9820 0.1831
vn 0.1353 0.9462 0.2938
vn -0.4717 0.2494 -0.8458
vn -0.0802 -0.9570 -0.2789
vn 0.0800 -0.9719 -0.2213
vn 0.0044 -0.9973 -0.0739
vn -0.0313 -0.9892 -0.1432
vn 0.0800 -0.9719 -0.2213
vn -0.0802 -0.9570 -0.2789
vn -0.0047 0.9973 0.0736
vn -0.0776 0.9728 0.2182
vn 0.0804 0.9568 0.2795
vn 0.0804 0.9568 0.2795
vn -0.0776 0.9728 0.2182
vn 0.0409 0.9890 0.1418
vn 0.2278 -0.9582 -0.1730
vn 0.2739 -0.9583 -0.0810
vn 0.0044 -0.9973 -0.0739
vn 0.1957 -0.9778 -0.0748
vn 0.2739 -0.9583 -0.0810
vn 0.2278 -0.9582 -0.1730
vn -0.0047 0.9973 0.0736
vn -0.2727 0.9587 0.0814
vn -0.2263 0.9588 0.1719
vn -0.2263 0.9588 0.1719
vn -0.2727 0.9587 0.0814
vn -0.1930 0.9793 0.0614
vn -0.0047 0.9973 0.0736
vn -0.3342 0.9385 -0.0868
vn -0.2223 0.9170 -0.3311
vn -0.3342 0.9385 -0.0868
vn -0.1385 0.9902 0.0150
vn -0.2223 0.9170 -0.3311
vn 0.2229 -0.9194 0.3242
vn 0.3325 -0.9390 0.0880
vn 0.0044 -0.9973 -0.0739
vn 0.2229 -0.9194 0.3242
vn 0.1059 -0.9937 0.0379
vn 0.3325 -0.9390 0.0880
vn 0.1853 0.0847 0.9790
vn 0.1533 -0.1256 0.9802
vn 0.1480 -0.1223 0.9814
vn 0.1480 -0.1223 0.9814
vn 0.2201 0.0877 0.9715
vn 0.1853 0.0847 0.9790
vn 0.2201 0.0877 0.9715
vn 0.3212 0.1494 0.9351
vn 0.3210 0.1486 0.9353
vn 0.3210 0.1486 0.9353
vn 0.1853 0.0847 0.9790
vn 0.2201 0.0877 0.9715
vn -0.2359 0.1145 0.9650
vn 0.8143 0.1602 0.5579
vn 0.8223 0.1761 0.5412
vn 0.8223 0.1761 0.5412
vn -0.0944 0.1604 0.9825
vn -0.2359 0.1145 0.9650
vn -0.2425 0.0994 0.9650
vn -0.2359 0.1145 0.9650
vn -0.0944 0.1604 0.9825
vn 0.8874 0.1872 -0.4213
vn 0.9878 0.1455 -0.0555
vn 0.9883 0.1454 -0.0469
vn 0.9783 0.1402 0.1526
vn 0.9883 0.1454 -0.0469
vn 0.9878 0.1455 -0.0555
vn 0.5914 -0.2002 0.7811
vn 0.5370 -0.2509 0.8054
vn 0.5221 -0.2517 0.8149
vn 0.5673 -0.2033 0.7980
vn 0.5221 -0.2517 0.8149
vn 0.5370 -0.2509 0.8054
vn 0.6288 0.1083 0.7700
vn 0.8459 0.1048 -0.5229
vn 0.8873 0.1216 -0.4448
vn 0.4306 -0.0185 -0.9024
vn 0.8873 0.1216 -0.4448
vn 0.8459 0.1048 -0.5229
vn 0.0512 0.1397 -0.9889
vn -0.2942 0.1540 -0.9433
vn -0.2930 0.1540 -0.9436
vn -0.2930 0.1540 -0.9436
vn 0.0524 0.1397 -0.9888
vn 0.0512 0.1397 -0.9889
vn 0.1533 0.1341 -0.9790
vn 0.0512 0.1397 -0.9889
vn 0.0524 0.1397 -0.9888
vn -0.8580 0.2032 -0.4718
vn -0.8728 0.1610 -0.4608
vn -0.8765 0.1605 -0.4539
vn -0.9714 0.1368 -0.1940
vn -0.8765 0.1605 -0.4539
vn -0.8728 0.1610 -0.4608
vn -0.3418 -0.1090 0.9334
vn -0.2090 0.1529 0.9659
vn -0.2848 0.1374 0.9487
vn -0.2848 0.1374 0.9487
vn -0.3511 -0.1123 0.9296
vn -0.3418 -0.1090 0.9334
vn 0.0314 -0.0989 0.9946
vn -0.3418 -0.1090 0.9334
vn -0.3511 -0.1123 0.9296
vn -0.9585 0.2057 0.1974
vn -0.9396 0.1936 0.2823
vn -0.9422 0.1936 0.2734
vn -0.9422 0.1936 0.2734
vn -0.9601 0.2060 0.1890
vn -0.9585 0.2057 0.1974
vn -0.8580 0.2032 -0.4718
vn -0.9585 0.2057 0.1974
vn -0.9601 0.2060 0.1890
vn -0.7001 0.1723 -0.6929
vn -0.6250 0.1807 -0.7594
vn -0.6248 0.1808 -0.7596
vn -0.5332 0.1763 -0.8274
vn -0.6248 0.1808 -0.7596
vn -0.6250 0.1807 -0.7594
vn 0.6288 0.1083 0.7700
vn 0.7318 0.0985 0.6743
vn 0.7165 0.0897 0.6918
vn 0.7318 0.0985 0.6743
vn 0.8223 0.1761 0.5412
vn 0.8143 0.1602 0.5579
vn 0.8143 0.1602 0.5579
vn 0.7165 0.0897 0.6918
vn 0.7318 0.0985 0.6743
vn 0.6805 0.1786 -0.7107
vn 0.8515 0.1982 -0.4854
vn 0.8531 0.1983 -0.4826
vn 0.9729 0.2108 0.0951
vn 0.8531 0.1983 -0.4826
vn 0.8515 0.1982 -0.4854
vn -0.0386 0.1957 0.9799
vn 0.3210 0.1486 0.9353
vn 0.3212 0.1494 0.9351
vn 0.3212 0.1494 0.9351
vn -0.0387 0.1958 0.9799
vn -0.0386 0.1957 0.9799
vn -0.0387 0.1958 0.9799
vn -0.4944 0.2137 0.8425
vn -0.4985 0.2139 0.8401
vn -0.4985 0.2139 0.8401
vn -0.0386 0.1957 0.9799
vn -0.0387 0.1958 0.9799
vn -0.5332 0.1763 -0.8274
vn -0.2930 0.1540 -0.9436
vn -0.2942 0.1540 -0.9433
vn -0.8164 0.1922 0.5446
vn -0.9422 0.1936 0.2734
vn -0.9396 0.1936 0.2823
vn 0.9691 0.1432 -0.2007
vn 0.7545 0.1651 -0.6352
vn 0.7620 0.1650 -0.6262
vn 0.3715 0.1489 -0.9164
vn 0.7620 0.1650 -0.6262
vn 0.7545 0.1651 -0.6352
vn 0.5673 -0.2033 0.7980
vn 0.9836 -0.0687 0.1669
vn 0.9839 -0.0686 0.1652
vn 0.9739 -0.0210 -0.2261
vn 0.9839 -0.0686 0.1652
vn 0.9836 -0.0687 0.1669
vn 0.9729 0.2108 0.0951
vn 0.9580 0.2386 -0.1588
vn 0.9604 0.2383 -0.1444
vn 0.8874 0.1872 -0.4213
vn 0.9604 0.2383 -0.1444
vn 0.9580 0.2386 -0.1588
vn -0.2425 0.0994 0.9650
vn -0.2848 0.1374 0.9487
vn -0.2090 0.1529 0.9659
vn 0.5914 -0.2002 0.7811
vn 0.1480 -0.1223 0.9814
vn 0.1533 -0.1256 0.9802
vn -0.7149 0.2110 0.6666
vn -0.4985 0.2139 0.8401
vn -0.4944 0.2137 0.8425
# 576 vertex normals

vt 0.5430 0.3281 0.0000
vt 0.5503 0.2417 0.0000
vt 0.4126 0.2969 0.0000
vt 0.4641 0.3096 0.0000
vt 0.4385 0.2314 0.0000
vt 0.4365 0.3271 0.0000
vt 0.4700 0.3413 0.0000
vt 0.5000 0.2070 0.0000
vt 0.4880 0.2720 0.0000
vt 0.4451 0.2988 0.0000
vt 0.5625 0.2700 0.0000
vt 0.4473 0.2095 0.0000
vt 0.4189 0.2754 0.0000
vt 0.4192 0.2495 0.0000
vt 0.4697 0.2822 0.0000
vt 0.4290 0.3027 0.0000
vt 0.5254 0.2710 0.0000
vt 0.4585 0.3013 0.0000
vt 0.4919 0.3481 0.0000
vt 0.5244 0.3394 0.0000
vt 0.4426 0.3145 0.0000
vt 0.4517 0.2920 0.0000
vt 0.4678 0.2407 0.0000
vt 0.4407 0.3335 0.0000
vt 0.5483 0.3027 0.0000
vt 0.4500 0.2813 0.0000
vt 0.4600 0.3115 0.0000
vt 0.4790 0.3066 0.0000
vt 0.5317 0.2275 0.0000
vt 0.4363 0.2964 0.0000
vt 0.4573 0.3423 0.0000
vt 0.4292 0.2354 0.0000
vt 0.5542 0.2612 0.0000
vt 0.5313 0.3320 0.0000
vt 0.4155 0.2651 0.0000
vt 0.4634 0.3022 0.0000
vt 0.4197 0.3027 0.0000
vt 0.4734 0.2056 0.0000
vt 0.5483 0.3203 0.0000
vt 0.5190 0.2568 0.0000
vt 0.4414 0.2178 0.0000
vt 0.5063 0.3057 0.0000
vt 0.4456 0.3350 0.0000
vt 0.4519 0.2686 0.0000
vt 0.4797 0.3462 0.0000
vt 0.4578 0.2964 0.0000
vt 0.4546 0.3101 0.0000
vt 0.4116 0.2905 0.0000
vt 0.4253 0.2437 0.0000
vt 0.4138 0.2822 0.0000
vt 0.5415 0.2368 0.0000
vt 0.4380 0.3203 0.0000
vt 0.4495 0.3389 0.0000
vt 0.5024 0.2451 0.0000
vt 0.5181 0.2871 0.0000
vt 0.4900 0.3101 0.0000
vt 0.5171 0.2183 0.0000
vt 0.4807 0.2388 0.0000
vt 0.4568 0.2578 0.0000
vt 0.4761 0.2905 0.0000
vt 0.3905 0.0000 0.0000
vt 0.4151 0.0000 0.0000
vt 0.4151 0.0500 0.0000
vt 0.4339 0.0000 0.0000
vt 0.0618 0.0500 0.0000
vt 0.0459 0.0500 0.0000
vt 0.0459 0.0000 0.0000
vt 0.0344 0.0000 0.0000
vt 0.9317 0.0000 0.0000
vt 0.9475 0.0000 0.0000
vt 0.9475 0.0500 0.0000
vt 0.9652 0.0000 0.0000
vt 0.3582 0.0500 0.0000
vt 0.3205 0.0500 0.0000
vt 0.3205 0.0000 0.0000
vt 0.2711 0.0000 0.0000
vt 0.0971 0.0000 0.0000
vt 0.1266 0.0000 0.0000
vt 0.1266 0.0500 0.0000
vt 0.1426 0.0000 0.0000
vt 0.8057 0.0000 0.0000
vt 0.8154 0.0000 0.0000
vt 0.8154 0.0500 0.0000
vt 0.8292 0.0000 0.0000
vt 0.6505 0.0500 0.0000
vt 0.7128 0.0000 0.0000
vt 0.7128 0.0500 0.0000
vt 0.7359 0.0500 0.0000
vt 0.0172 0.0500 0.0000
vt 0.0000 0.0500 0.0000
vt 0.0000 0.0000 0.0000
vt 0.9818 0.0000 0.0000
vt 1.0000 0.0000 0.0000
vt 1.0000 0.0500 0.0000
vt 0.6089 0.0500 0.0000
vt 0.6320 0.0000 0.0000
vt 0.6320 0.0500 0.0000
vt 0.7560 0.0500 0.0000
vt 0.7797 0.0000 0.0000
vt 0.7797 0.0500 0.0000
vt 0.7953 0.0500 0.0000
vt 0.0774 0.0500 0.0000
vt 0.0774 0.0000 0.0000
vt 0.8903 0.0000 0.0000
vt 0.9001 0.0000 0.0000
vt 0.9001 0.0500 0.0000
vt 0.9137 0.0000 0.0000
vt 0.4710 0.0000 0.0000
vt 0.4710 0.0500 0.0000
vt 0.4931 0.0000 0.0000
vt 0.8057 0.0500 0.0000
vt 0.5914 0.0500 0.0000
vt 0.6089 0.0000 0.0000
vt 0.8418 0.0500 0.0000
vt 0.8560 0.0000 0.0000
vt 0.8560 0.0500 0.0000
vt 0.8799 0.0500 0.0000
vt 0.2228 0.0500 0.0000
vt 0.2228 0.0000 0.0000
vt 0.2039 0.0000 0.0000
vt 0.9230 0.0000 0.0000
vt 0.9230 0.0500 0.0000
vt 0.0618 0.0000 0.0000
vt 0.0172 0.0000 0.0000
vt 0.3905 0.0500 0.0000
vt 0.4339 0.0500 0.0000
vt 0.4931 0.0500 0.0000
vt 0.5590 0.0500 0.0000
# 128 texture coords

o SM_Coral_Table_Acropora_05_LOD1
g SM_Coral_Table_Acropora_05_LOD1
usemtl MAT_Coral_Table
s 1
f 182/195/721 187/208/722 131/162/723 
f 132/162/724 188/208/725 171/195/726 
f 189/209/727 182/195/728 131/162/729 
f 132/162/730 193/211/731 186/207/732 
f 178/201/733 147/175/734 152/179/735 
f 209/167/736 174/197/737 162/188/738 
f 198/160/739 145/174/740 177/200/741 
f 177/200/742 145/174/743 129/160/744 
f 132/162/745 171/195/746 190/209/747 
f 210/172/748 182/195/749 189/209/750 
f 211/161/751 192/211/752 185/207/753 
f 186/207/754 193/211/755 130/161/756 
f 185/207/757 192/211/758 131/162/759 
f 162/188/760 173/197/761 137/167/762 
f 153/179/763 199/175/764 200/201/765 
f 202/157/766 196/213/767 155/181/768 
f 139/168/769 216/199/770 199/175/771 
f 147/175/772 176/199/773 138/168/774 
f 151/178/775 141/170/776 134/164/777 
f 211/161/778 185/207/779 191/210/780 
f 203/191/781 148/176/782 135/165/783 
f 127/158/784 194/212/785 149/176/786 
f 180/203/787 153/179/788 200/201/789 
f 178/201/790 152/179/791 180/203/792 
f 179/202/793 194/212/794 159/185/795 
f 159/185/796 195/212/797 179/202/798 
f 149/176/799 194/212/800 131/162/801 
f 131/162/802 197/213/803 166/181/804 
f 132/162/805 195/212/806 148/176/807 
f 155/181/808 196/213/809 132/162/810 
f 200/201/811 217/183/812 140/169/813 
f 205/169/814 157/183/815 178/201/816 
f 191/210/817 186/207/818 130/161/819 
f 160/186/820 169/193/821 125/155/822 
f 163/189/823 196/213/824 202/157/825 
f 126/157/826 197/213/827 163/189/828 
f 198/160/829 202/157/830 155/181/831 
f 210/172/832 189/209/833 219/198/834 
f 171/195/835 188/208/836 212/192/837 
f 167/192/838 187/208/839 182/195/840 
f 145/174/841 183/205/842 129/160/843 
f 198/160/844 183/205/845 145/174/846 
f 125/155/847 168/193/848 204/186/849 
f 134/164/850 146/170/851 206/178/852 
f 200/201/853 199/175/854 217/183/855 
f 157/183/856 147/175/857 178/201/858 
f 170/194/859 148/176/860 213/158/861 
f 148/176/862 195/212/863 213/158/864 
f 127/158/865 149/176/866 170/194/867 
f 135/165/868 149/176/869 165/191/870 
f 201/196/871 128/159/872 198/160/873 
f 129/160/874 214/159/875 172/196/876 
f 206/178/877 187/208/878 167/192/879 
f 212/192/880 188/208/881 151/178/882 
f 152/179/883 147/175/884 138/168/885 
f 131/162/886 152/179/887 138/168/888 
f 139/168/889 199/175/890 153/179/891 
f 139/168/892 153/179/893 132/162/894 
f 198/160/895 154/180/896 202/157/897 
f 126/157/898 154/180/899 129/160/900 
f 175/198/901 190/209/902 143/172/903 
f 190/209/904 171/195/905 143/172/906 
f 207/182/907 168/193/908 181/204/909 
f 181/204/910 169/193/911 156/182/912 
f 217/183/913 199/175/914 133/163/915 
f 133/163/916 147/175/917 157/183/918 
f 158/184/919 201/196/920 198/160/921 
f 129/160/922 172/196/923 218/184/924 
f 213/158/925 195/212/926 159/185/927 
f 159/185/928 194/212/929 127/158/930 
f 204/186/931 146/170/932 134/164/933 
f 134/164/934 141/170/935 160/186/936 
f 143/172/937 171/195/938 144/173/939 
f 220/173/940 182/195/941 210/172/942 
f 162/188/943 174/197/944 215/166/945 
f 136/166/946 173/197/947 162/188/948 
f 196/213/949 163/189/950 208/171/951 
f 142/171/952 163/189/953 197/213/954 
f 164/190/955 205/169/956 123/156/957 
f 123/156/958 140/169/959 164/190/960 
f 130/161/961 193/211/962 203/191/963 
f 165/191/964 192/211/965 211/161/966 
f 166/181/967 126/157/968 129/160/969 
f 166/181/970 197/213/971 126/157/972 
f 124/154/973 171/195/974 212/192/975 
f 167/192/976 182/195/977 124/154/978 
f 146/170/979 168/193/980 131/162/981 
f 204/186/982 168/193/983 146/170/984 
f 132/162/985 169/193/986 141/170/987 
f 141/170/988 169/193/989 160/186/990 
f 170/194/991 149/176/992 135/165/993 
f 135/165/994 148/176/995 170/194/996 
f 144/173/997 171/195/998 161/187/999 
f 161/187/1000 171/195/1001 124/154/1002 
f 128/159/1003 201/196/1004 150/177/1005 
f 150/177/1006 172/196/1007 214/159/1008 
f 173/197/1009 152/179/1010 131/162/1011 
f 136/166/1012 152/179/1013 173/197/1014 
f 132/162/1015 153/179/1016 174/197/1017 
f 174/197/1018 153/179/1019 215/166/1020 
f 198/160/1021 190/209/1022 175/198/1023 
f 219/198/1024 189/209/1025 129/160/1026 
f 139/168/1027 208/171/1028 216/199/1029 
f 176/199/1030 142/171/1031 138/168/1032 
f 198/160/1033 177/200/1034 154/180/1035 
f 154/180/1036 177/200/1037 129/160/1038 
f 200/201/1039 140/169/1040 123/156/1041 
f 123/156/1042 205/169/1043 178/201/1044 
f 179/202/1045 195/212/1046 209/167/1047 
f 137/167/1048 194/212/1049 179/202/1050 
f 215/166/1051 153/179/1052 180/203/1053 
f 180/203/1054 152/179/1055 136/166/1056 
f 125/155/1057 169/193/1058 181/204/1059 
f 181/204/1060 168/193/1061 125/155/1062 
f 161/187/1063 182/195/1064 220/173/1065 
f 124/154/1066 182/195/1067 161/187/1068 
f 183/205/1069 214/159/1070 129/160/1071 
f 198/160/1072 128/159/1073 183/205/1074 
f 201/196/1075 158/184/1076 184/206/1077 
f 184/206/1078 218/184/1079 172/196/1080 
f 168/193/1081 185/207/1082 131/162/1083 
f 207/182/1084 185/207/1085 168/193/1086 
f 132/162/1087 186/207/1088 169/193/1089 
f 169/193/1090 186/207/1091 156/182/1092 
f 187/208/1093 146/170/1094 131/162/1095 
f 206/178/1096 146/170/1097 187/208/1098 
f 132/162/1099 141/170/1100 188/208/1101 
f 188/208/1102 141/170/1103 151/178/1104 
f 189/209/1105 131/162/1106 166/181/1107 
f 189/209/1108 166/181/1109 129/160/1110 
f 155/181/1111 132/162/1112 190/209/1113 
f 198/160/1114 155/181/1115 190/209/1116 
f 191/210/1117 185/207/1118 207/182/1119 
f 156/182/1120 186/207/1121 191/210/1122 
f 192/211/1123 149/176/1124 131/162/1125 
f 165/191/1126 149/176/1127 192/211/1128 
f 132/162/1129 148/176/1130 193/211/1131 
f 193/211/1132 148/176/1133 203/191/1134 
f 194/212/1135 173/197/1136 131/162/1137 
f 137/167/1138 173/197/1139 194/212/1140 
f 132/162/1141 174/197/1142 195/212/1143 
f 195/212/1144 174/197/1145 209/167/1146 
f 132/162/1147 196/213/1148 139/168/1149 
f 196/213/1150 208/171/1151 139/168/1152 
f 138/168/1153 197/213/1154 131/162/1155 
f 138/168/1156 142/171/1157 197/213/1158 
s 2
f 129/216/1159 218/278/1160 158/214/1161 
f 158/214/1162 198/215/1163 129/216/1164 
f 198/215/1165 175/217/1166 219/279/1167 
f 219/279/1168 129/216/1169 198/215/1170 
f 199/220/1171 216/276/1172 176/218/1173 
f 176/218/1174 147/219/1175 199/220/1176 
f 133/221/1177 199/220/1178 147/219/1179 
f 180/222/1180 200/223/1181 178/224/1182 
f 123/225/1183 178/224/1184 200/223/1185 
f 184/226/1186 172/227/1187 201/228/1188 
f 150/229/1189 201/228/1190 172/227/1191 
f 163/230/1192 202/231/1193 126/232/1194 
f 154/233/1195 126/232/1196 202/231/1197 
f 165/236/1198 211/264/1199 130/234/1200 
f 130/234/1201 203/235/1202 165/236/1203 
f 135/237/1204 165/236/1205 203/235/1206 
f 134/238/1207 160/239/1208 204/240/1209 
f 125/241/1210 204/240/1211 160/239/1212 
f 140/244/1213 217/277/1214 157/242/1215 
f 157/242/1216 205/243/1217 140/244/1218 
f 164/245/1219 140/246/1220 205/247/1221 
f 206/250/1222 167/248/1223 212/266/1224 
f 212/266/1225 151/249/1226 206/250/1227 
f 134/238/1228 206/250/1229 151/249/1230 
f 181/251/1231 156/252/1232 207/253/1233 
f 191/254/1234 207/253/1235 156/252/1236 
f 163/230/1237 142/255/1238 208/256/1239 
f 142/255/1240 176/218/1241 216/276/1242 
f 216/276/1243 208/256/1244 142/255/1245 
f 179/257/1246 209/258/1247 137/259/1248 
f 162/260/1249 137/259/1250 209/258/1251 
f 210/262/1252 219/279/1253 175/217/1254 
f 175/217/1255 143/261/1256 210/262/1257 
f 143/261/1258 144/263/1259 220/280/1260 
f 220/280/1261 210/262/1262 143/261/1263 
f 191/254/1264 130/234/1265 211/264/1266 
f 124/265/1267 212/266/1268 167/248/1269 
f 170/267/1270 213/268/1271 127/269/1272 
f 159/270/1273 127/269/1274 213/268/1275 
f 150/229/1276 214/271/1277 128/272/1278 
f 183/273/1279 128/272/1280 214/271/1281 
f 162/260/1282 215/274/1283 136/275/1284 
f 180/222/1285 136/275/1286 215/274/1287 
f 133/221/1288 157/242/1289 217/277/1290 
f 184/226/1291 158/214/1292 218/278/1293 
f 161/281/1294 220/280/1295 144/263/1296 
# 192 faces

#
# object SM_Coral_Table_Acropora_05_LOD2
#

v  26.0399 7.6210 6.9561
v  -19.5669 6.9566 17.9062
v  -22.0339 7.0026 -12.3197
v  8.1134 3.9755 11.4314
v  16.9911 7.1792 -15.8254
v  17.6933 5.5200 17.5038
v  6.0254 5.4149 22.4721
v  -4.4572 7.9722 -24.2753
v  -0.2707 0.0000 -1.7462
v  -0.2716 0.1995 -1.7314
v  14.7492 6.7885 7.5866
v  -26.3852 6.5866 -2.4437
v  13.9040 7.1581 -23.4445
v  23.8770 7.7039 -0.4980
v  23.8105 7.4269 -9.4843
v  6.1196 3.9291 1.8624
v  6.0753 4.1126 1.7963
v  20.2917 7.0199 9.0698
v  -13.3155 5.0768 -2.0881
v  10.0332 4.2839 8.4824
v  -1.6121 6.6902 24.8116
v  -13.0120 7.1528 21.7806
v  15.5844 5.7858 13.0237
v  -13.3607 4.8830 -2.1076
v  12.4701 5.8237 5.3540
v  6.8162 5.5866 -12.5835
v  6.8320 5.3921 -12.6273
v  16.2819 5.2458 19.6814
v  -21.3570 7.0085 8.9869
v  13.0850 4.7511 1.5643
v  13.0423 4.9447 1.5374
v  9.5091 5.1334 12.0737
v  2.8579 3.8754 10.0508
v  -15.5742 8.0888 -17.1277
v  17.7714 6.9797 6.7806
v  10.4627 5.1909 22.8313
v  20.2739 7.1657 -14.4966
v  -23.4279 6.8922 -5.4189
v  -15.4146 6.9581 19.2653
v  24.9861 7.8402 -4.0281
v  8.2991 4.3319 8.8395
v  23.5379 7.2789 8.9932
v  4.8659 7.2308 -24.8499
v  2.8746 3.6783 10.0801
v  -21.4230 6.9306 15.1332
v  -11.1797 5.6368 -7.0649
v  -11.1476 5.8273 -7.0134
v  16.0329 7.0098 -20.5738
v  -6.6418 4.2417 10.0219
v  14.5254 4.9422 20.2106
v  12.4118 4.7877 -2.8906
v  12.3572 4.9794 -2.8743
v  2.6598 6.1079 24.1768
v  10.3088 4.4446 6.8373
v  11.4021 5.0524 11.5234
v  26.3852 7.5659 4.7933
v  21.6048 7.5045 -11.5768
v  25.5815 7.8605 1.9049
v  -18.8891 7.4695 -13.9324
v  -6.6717 4.0472 10.0577
v  17.1605 5.7570 15.1871
v  13.1575 4.8899 21.6554
v  -5.3974 6.2302 -11.1544
v  -5.3700 6.4193 -11.0950
v  -10.8673 4.2145 3.6382
v  -10.8143 4.4070 3.6250
v  -0.9499 3.8348 11.5803
v  6.0254 5.4149 22.4721
v  15.5844 5.7858 13.0237
v  15.5844 5.7858 13.0237
v  6.0254 5.4149 22.4721
v  26.3852 7.5659 4.7933
v  12.4701 5.8237 5.3540
v  12.4701 5.8237 5.3540
v  26.3852 7.5659 4.7933
v  6.0254 5.4149 22.4721
v  8.1134 3.9755 11.4314
v  14.5254 4.9422 20.2106
v  6.0254 5.4149 22.4721
v  6.0254 5.4149 22.4721
v  14.5254 4.9422 20.2106
v  8.1134 3.9755 11.4314
v  6.0254 5.4149 22.4721
v  17.6933 5.5200 17.5038
v  14.5254 4.9422 20.2106
v  14.5254 4.9422 20.2106
v  17.6933 5.5200 17.5038
v  6.0254 5.4149 22.4721
v  11.4021 5.0524 11.5234
v  11.4021 5.0524 11.5234
v  6.0254 5.4149 22.4721
v  26.3852 7.5659 4.7933
v  20.2917 7.0199 9.0698
v  26.0399 7.6210 6.9561
v  20.2917 7.0199 9.0698
v  17.6933 5.5200 17.5038
v  6.0254 5.4149 22.4721
v  6.0254 5.4149 22.4721
v  17.6933 5.5200 17.5038
v  26.0399 7.6210 6.9561
v  6.0254 5.4149 22.4721
v  20.2917 7.0199 9.0698
v  12.4701 5.8237 5.3540
v  16.2819 5.2458 19.6814
v  9.5091 5.1334 12.0737
v  17.7714 6.9797 6.7806
v  10.4627 5.1909 22.8313
v  2.8746 3.6783 10.0801
v  14.5254 4.9422 20.2106
v  26.3852 7.5659 4.7933
v  17.1605 5.7570 15.1871
v  6.0254 5.4149 22.4721
v  9.5091 5.1334 12.0737
v  17.7714 6.9797 6.7806
v  10.4627 5.1909 22.8313
v  26.3852 7.5659 4.7933
v  17.1605 5.7570 15.1871
v  9.5091 5.1334 12.0737
v  17.7714 6.9797 6.7806
v  17.1605 5.7570 15.1871
# 120 vertices

vn -0.1488 -0.9715 0.1847
vn -0.2699 -0.9607 0.0655
vn 0.0057 -0.9964 -0.0850
vn -0.0055 0.9967 0.0807
vn 0.2634 0.9626 -0.0627
vn 0.1222 0.9763 -0.1784
vn -0.0434 -0.9749 0.2186
vn -0.1488 -0.9715 0.1847
vn 0.0057 -0.9964 -0.0850
vn -0.0055 0.9967 0.0807
vn -0.0583 0.9783 0.1987
vn 0.1186 0.9498 0.2895
vn 0.8619 0.1189 0.4930
vn 0.0618 0.3017 0.9514
vn 0.2128 -0.9675 0.1365
vn 0.8601 0.1372 -0.4913
vn -0.2554 0.9620 0.0969
vn 0.9732 0.2289 0.0238
vn 1.0000 0.0000 -0.0000
vn 1.0000 0.0000 -0.0000
vn 1.0000 0.0000 -0.0000
vn 1.0000 0.0000 -0.0000
vn 1.0000 0.0000 -0.0000
vn 1.0000 0.0000 -0.0000
vn -0.0055 0.9967 0.0807
vn 0.1222 0.9763 -0.1784
vn -0.0282 0.9885 -0.1487
vn -0.2981 0.2106 0.9310
vn -0.1488 -0.9715 0.1847
vn -0.0434 -0.9749 0.2186
vn -0.2665 0.1466 -0.9526
vn 0.0636 -0.9763 -0.2068
vn -0.1222 -0.9470 -0.2972
vn 0.1186 0.9498 0.2895
vn -0.0583 0.9783 0.1987
vn -0.2665 0.1466 -0.9526
vn -0.1222 -0.9470 -0.2972
vn 0.0636 -0.9763 -0.2068
vn 0.0057 -0.9964 -0.0850
vn 0.9732 0.2289 0.0238
vn 0.2632 -0.9596 -0.0992
vn 0.8601 0.1372 -0.4913
vn -0.2068 0.9717 -0.1145
vn 0.0618 0.3017 0.9514
vn 0.8619 0.1189 0.4930
vn -0.2348 0.9574 -0.1679
vn -0.2330 0.9184 -0.3196
vn -0.0282 0.9885 -0.1487
vn -0.2330 0.9184 -0.3196
vn 0.9171 0.0630 0.3937
vn 0.0618 0.3017 0.9514
vn 0.0618 0.3017 0.9514
vn 0.9171 0.0630 0.3937
vn 0.2394 -0.9162 0.3214
vn -0.9515 0.2671 0.1527
vn 0.2230 0.9698 0.0983
vn -0.9872 0.0732 -0.1415
vn -0.2665 0.1466 -0.9526
vn -0.1222 -0.9470 -0.2972
vn -0.6115 0.2083 -0.7633
vn 0.0343 0.1038 -0.9940
vn -0.0583 0.9783 0.1987
vn 0.5213 0.1135 -0.8458
vn 0.8131 0.2332 -0.5333
vn 0.2632 -0.9596 -0.0992
vn 0.0636 -0.9763 -0.2068
vn 0.8878 0.2858 -0.3607
vn -0.2068 0.9717 -0.1145
vn 0.8619 0.1189 0.4930
vn 0.8619 0.1189 0.4930
vn 0.2128 -0.9675 0.1365
vn 0.8878 0.2858 -0.3607
vn 0.7837 0.2874 -0.5506
vn 0.2632 -0.9596 -0.0992
vn 0.6576 0.1127 -0.7449
vn 0.6576 0.1127 -0.7449
vn -0.2554 0.9620 0.0969
vn 0.7837 0.2874 -0.5506
vn 0.0636 -0.9763 -0.2068
vn 0.2632 -0.9596 -0.0992
vn 0.0057 -0.9964 -0.0850
vn 0.0057 -0.9964 -0.0850
vn 0.2394 -0.9162 0.3214
vn 0.1042 -0.9836 0.1471
vn -0.0055 0.9967 0.0807
vn -0.2554 0.9620 0.0969
vn -0.0583 0.9783 0.1987
vn -0.0282 0.9885 -0.1487
vn -0.2330 0.9184 -0.3196
vn -0.0055 0.9967 0.0807
vn 0.0623 -0.9972 -0.0415
vn 1.0000 0.0000 -0.0000
vn -0.0623 0.9961 0.0623
vn -0.0623 0.9961 0.0623
vn 1.0000 0.0000 -0.0000
vn 0.0623 -0.9972 -0.0415
vn -0.6115 0.2083 -0.7633
vn 0.1186 0.9498 0.2895
vn -0.2665 0.1466 -0.9526
vn -0.8279 0.2358 -0.5089
vn 0.1572 0.9538 0.2558
vn -0.8231 0.0670 -0.5640
vn 0.8323 0.4396 0.3376
vn -0.2330 0.9184 -0.3196
vn -0.2348 0.9574 -0.1679
vn -0.2348 0.9574 -0.1679
vn 0.2394 -0.9162 0.3214
vn 0.8323 0.4396 0.3376
vn -0.0118 0.9993 -0.0351
vn -0.2348 0.9574 -0.1679
vn -0.0282 0.9885 -0.1487
vn -0.2981 0.2106 0.9310
vn -0.0434 -0.9749 0.2186
vn 0.2993 0.1407 0.9437
vn 0.1222 0.9763 -0.1784
vn 0.2634 0.9626 -0.0627
vn -0.9209 0.1598 0.3555
vn -0.9209 0.1598 0.3555
vn -0.2699 -0.9607 0.0655
vn -0.1488 -0.9715 0.1847
vn 0.0149 -0.9996 -0.0242
vn 0.0149 -0.9996 -0.0242
vn 0.0149 -0.9996 -0.0242
vn -0.0149 0.9996 0.0242
vn -0.0149 0.9996 0.0242
vn -0.0149 0.9996 0.0242
vn -0.8231 0.0670 -0.5640
vn -0.1646 -0.9511 -0.2614
vn -0.8279 0.2358 -0.5089
vn -0.9872 0.0732 -0.1415
vn -0.2326 -0.9676 -0.0985
vn -0.9515 0.2671 0.1527
vn -0.1304 0.9496 -0.2850
vn -0.1304 0.9496 -0.2850
vn -0.1304 0.9496 -0.2850
vn 0.1304 -0.9496 0.2850
vn 0.1304 -0.9496 0.2850
vn 0.1304 -0.9496 0.2850
vn 0.8979 0.0911 -0.4306
vn -0.0583 0.9783 0.1987
vn 0.8131 0.2332 -0.5333
vn -0.0583 0.9783 0.1987
vn -0.2554 0.9620 0.0969
vn 0.8131 0.2332 -0.5333
vn 0.8131 0.2332 -0.5333
vn 0.0636 -0.9763 -0.2068
vn 0.8979 0.0911 -0.4306
vn 0.5213 0.1135 -0.8458
vn 0.0636 -0.9763 -0.2068
vn 0.0343 0.1038 -0.9940
vn -0.1162 -0.9300 -0.3487
vn 1.0000 0.0000 -0.0000
vn 0.1488 0.9155 0.3738
vn 0.1488 0.9155 0.3738
vn 1.0000 0.0000 -0.0000
vn -0.1162 -0.9300 -0.3487
vn -0.9515 0.2671 0.1527
vn -0.2699 -0.9607 0.0655
vn -0.9209 0.1598 0.3555
vn -0.9209 0.1598 0.3555
vn 0.2634 0.9626 -0.0627
vn -0.9515 0.2671 0.1527
vn 0.2128 -0.9675 0.1365
vn 0.0618 0.3017 0.9514
vn 0.2394 -0.9162 0.3214
vn 0.0057 -0.9964 -0.0850
vn 0.2128 -0.9675 0.1365
vn 0.2394 -0.9162 0.3214
vn -0.2330 0.9184 -0.3196
vn 0.0618 0.3017 0.9514
vn -0.2068 0.9717 -0.1145
vn -0.2330 0.9184 -0.3196
vn -0.2068 0.9717 -0.1145
vn -0.0055 0.9967 0.0807
vn -0.0118 0.9993 -0.0351
vn -0.5648 0.7978 -0.2108
vn -0.2348 0.9574 -0.1679
vn 0.5648 -0.7978 0.2108
vn 0.5648 -0.7978 0.2108
vn 0.5648 -0.7978 0.2108
vn 0.2993 0.1407 0.9437
vn -0.0282 0.9885 -0.1487
vn -0.2981 0.2106 0.9310
vn -0.0282 0.9885 -0.1487
vn 0.1222 0.9763 -0.1784
vn -0.2981 0.2106 0.9310
vn -0.6115 0.2083 -0.7633
vn -0.1646 -0.9511 -0.2614
vn -0.5762 0.2177 -0.7878
vn -0.5762 0.2177 -0.7878
vn 0.1572 0.9538 0.2558
vn -0.6115 0.2083 -0.7633
vn -0.1111 0.8889 -0.4444
vn 1.0000 0.0000 -0.0000
vn 1.0000 0.0000 -0.0000
vn 1.0000 0.0000 -0.0000
vn 1.0000 0.0000 -0.0000
vn -0.1111 0.8889 -0.4444
vn 0.0516 0.9986 -0.0147
vn 0.0516 0.9986 -0.0147
vn 0.0516 0.9986 -0.0147
vn -0.0516 -0.9986 0.0147
vn -0.0516 -0.9986 0.0147
vn -0.0516 -0.9986 0.0147
vn 0.8131 0.2332 -0.5333
vn -0.2554 0.9620 0.0969
vn 0.6576 0.1127 -0.7449
vn 0.6576 0.1127 -0.7449
vn 0.2632 -0.9596 -0.0992
vn 0.8131 0.2332 -0.5333
vn -0.8279 0.2358 -0.5089
vn -0.2326 -0.9676 -0.0985
vn -0.9872 0.0732 -0.1415
vn -0.9872 0.0732 -0.1415
vn 0.2230 0.9698 0.0983
vn -0.8279 0.2358 -0.5089
vn -0.2981 0.2106 0.9310
vn 0.1222 0.9763 -0.1784
vn -0.4939 0.2132 0.8430
vn -0.4939 0.2132 0.8430
vn -0.1488 -0.9715 0.1847
vn -0.2981 0.2106 0.9310
vn 0.9732 0.2289 0.0238
vn -0.2554 0.9620 0.0969
vn 0.9299 0.3030 -0.2085
vn 0.9299 0.3030 -0.2085
vn 0.2632 -0.9596 -0.0992
vn 0.9732 0.2289 0.0238
vn -0.2330 0.9184 -0.3196
vn 0.8323 0.4396 0.3376
vn 0.6740 0.0055 0.7388
vn 0.6740 0.0055 0.7388
vn 0.8323 0.4396 0.3376
vn 0.2394 -0.9162 0.3214
vn 1.0000 0.0000 -0.0000
vn 1.0000 0.0000 -0.0000
vn 0.0829 -0.9946 -0.0622
vn 0.0829 -0.9946 -0.0622
vn 1.0000 0.0000 -0.0000
vn 1.0000 0.0000 -0.0000
vn -0.2665 0.1466 -0.9526
vn -0.0583 0.9783 0.1987
vn 0.0343 0.1038 -0.9940
vn 0.0343 0.1038 -0.9940
vn 0.0636 -0.9763 -0.2068
vn -0.2665 0.1466 -0.9526
vn 0.0218 -0.9908 0.1333
vn 0.0218 -0.9908 0.1333
vn 0.0218 -0.9908 0.1333
vn 0.1042 -0.9836 0.1471
vn 0.2394 -0.9162 0.3214
vn -0.2348 0.9574 -0.1679
vn -0.6421 0.1646 0.7487
vn 0.1222 0.9763 -0.1784
vn -0.9209 0.1598 0.3555
vn -0.9209 0.1598 0.3555
vn -0.1488 -0.9715 0.1847
vn -0.6421 0.1646 0.7487
vn -0.2326 -0.9676 -0.0985
vn -0.1646 -0.9511 -0.2614
vn 0.0057 -0.9964 -0.0850
vn -0.8279 0.2358 -0.5089
vn -0.1646 -0.9511 -0.2614
vn -0.2326 -0.9676 -0.0985
vn -0.0055 0.9967 0.0807
vn 0.1572 0.9538 0.2558
vn 0.2230 0.9698 0.0983
vn 0.2230 0.9698 0.0983
vn 0.1572 0.9538 0.2558
vn -0.8279 0.2358 -0.5089
vn 0.8979 0.0911 -0.4306
vn 0.0636 -0.9763 -0.2068
vn 0.5213 0.1135 -0.8458
vn 0.5213 0.1135 -0.8458
vn -0.0583 0.9783 0.1987
vn 0.8979 0.0911 -0.4306
vn -0.4939 0.2132 0.8430
vn 0.1222 0.9763 -0.1784
vn -0.4917 0.2494 0.8343
vn -0.4917 0.2494 0.8343
vn 0.1222 0.9763 -0.1784
vn -0.6421 0.1646 0.7487
vn -0.1653 0.9861 0.0171
vn -0.1653 0.9861 0.0171
vn -0.1653 0.9861 0.0171
vn 0.1653 -0.9861 -0.0171
vn 0.1653 -0.9861 -0.0171
vn 0.1653 -0.9861 -0.0171
vn 0.2632 -0.9596 -0.0992
vn 0.2128 -0.9675 0.1365
vn 0.0057 -0.9964 -0.0850
vn 0.9299 0.3030 -0.2085
vn 0.2128 -0.9675 0.1365
vn 0.2632 -0.9596 -0.0992
vn -0.0055 0.9967 0.0807
vn -0.2068 0.9717 -0.1145
vn -0.2554 0.9620 0.0969
vn -0.2554 0.9620 0.0969
vn -0.2068 0.9717 -0.1145
vn 0.9299 0.3030 -0.2085
vn -0.0118 0.9993 -0.0351
vn -0.0282 0.9885 -0.1487
vn 0.2993 0.1407 0.9437
vn 0.2993 0.1407 0.9437
vn -0.0434 -0.9749 0.2186
vn -0.0118 0.9993 -0.0351
vn -0.2330 0.9184 -0.3196
vn 0.6740 0.0055 0.7388
vn 0.9171 0.0630 0.3937
vn 0.9171 0.0630 0.3937
vn 0.6740 0.0055 0.7388
vn 0.2394 -0.9162 0.3214
vn 0.0387 0.9992 -0.0141
vn 0.0387 0.9992 -0.0141
vn 0.0387 0.9992 -0.0141
vn -0.0387 -0.9992 0.0141
vn -0.0387 -0.9992 0.0141
vn -0.0387 -0.9992 0.0141
vn -0.1200 0.9918 -0.0444
vn -0.1200 0.9918 -0.0444
vn -0.1200 0.9918 -0.0444
vn 0.1200 -0.9918 0.0444
vn 0.1200 -0.9918 0.0444
vn 0.1200 -0.9918 0.0444
vn 0.7837 0.2874 -0.5506
vn -0.2554 0.9620 0.0969
vn 0.8601 0.1372 -0.4913
vn 0.8601 0.1372 -0.4913
vn 0.2632 -0.9596 -0.0992
vn 0.7837 0.2874 -0.5506
vn 0.9299 0.3030 -0.2085
vn -0.2068 0.9717 -0.1145
vn 0.8878 0.2858 -0.3607
vn 0.8878 0.2858 -0.3607
vn 0.2128 -0.9675 0.1365
vn 0.9299 0.3030 -0.2085
vn -0.8231 0.0670 -0.5640
vn 0.1572 0.9538 0.2558
vn -0.5762 0.2177 -0.7878
vn -0.5762 0.2177 -0.7878
vn -0.1646 -0.9511 -0.2614
vn -0.8231 0.0670 -0.5640
vn -0.4917 0.2494 0.8343
vn -0.1488 -0.9715 0.1847
vn -0.4939 0.2132 0.8430
vn -0.6421 0.1646 0.7487
vn -0.1488 -0.9715 0.1847
vn -0.4917 0.2494 0.8343
vn -0.0313 -0.9950 -0.0946
vn -0.0313 -0.9950 -0.0946
vn -0.0313 -0.9950 -0.0946
vn 0.0313 0.9950 0.0946
vn 0.0313 0.9950 0.0946
vn 0.0313 0.9950 0.0946
vn 0.2038 0.9511 0.2321
vn 1.0000 0.0000 -0.0000
vn -0.2394 -0.9577 -0.1596
vn -0.2394 -0.9577 -0.1596
vn 1.0000 0.0000 -0.0000
vn 0.2038 0.9511 0.2321
vn -0.1646 -0.9511 -0.2614
vn -0.1222 -0.9470 -0.2972
vn 0.0057 -0.9964 -0.0850
vn -0.6115 0.2083 -0.7633
vn -0.1222 -0.9470 -0.2972
vn -0.1646 -0.9511 -0.2614
vn -0.0055 0.9967 0.0807
vn 0.1186 0.9498 0.2895
vn 0.1572 0.9538 0.2558
vn 0.1572 0.9538 0.2558
vn 0.1186 0.9498 0.2895
vn -0.6115 0.2083 -0.7633
vn -0.2699 -0.9607 0.0655
vn -0.2326 -0.9676 -0.0985
vn 0.0057 -0.9964 -0.0850
vn -0.9515 0.2671 0.1527
vn -0.2326 -0.9676 -0.0985
vn -0.2699 -0.9607 0.0655
vn -0.0055 0.9967 0.0807
vn 0.2230 0.9698 0.0983
vn 0.2634 0.9626 -0.0627
vn 0.2634 0.9626 -0.0627
vn 0.2230 0.9698 0.0983
vn -0.9515 0.2671 0.1527
vn -0.0434 -0.9749 0.2186
vn 0.0057 -0.9964 -0.0850
vn 0.1042 -0.9836 0.1471
vn -0.0434 -0.9749 0.2186
vn 0.1042 -0.9836 0.1471
vn -0.0118 0.9993 -0.0351
# 390 vertex normals

vt 0.5430 0.3281 0.0000
vt 0.5503 0.2417 0.0000
vt 0.4126 0.2969 0.0000
vt 0.4641 0.3096 0.0000
vt 0.4385 0.2314 0.0000
vt 0.4365 0.3271 0.0000
vt 0.4700 0.3413 0.0000
vt 0.5000 0.2070 0.0000
vt 0.4880 0.2720 0.0000
vt 0.4451 0.2988 0.0000
vt 0.5625 0.2700 0.0000
vt 0.4473 0.2095 0.0000
vt 0.4189 0.2754 0.0000
vt 0.4192 0.2495 0.0000
vt 0.4697 0.2822 0.0000
vt 0.4290 0.3027 0.0000
vt 0.5254 0.2710 0.0000
vt 0.4585 0.3013 0.0000
vt 0.4919 0.3481 0.0000
vt 0.5244 0.3394 0.0000
vt 0.4426 0.3145 0.0000
vt 0.4517 0.2920 0.0000
vt 0.4678 0.2407 0.0000
vt 0.4407 0.3335 0.0000
vt 0.5483 0.3027 0.0000
vt 0.4500 0.2813 0.0000
vt 0.4600 0.3115 0.0000
vt 0.4790 0.3066 0.0000
vt 0.5317 0.2275 0.0000
vt 0.4363 0.2964 0.0000
vt 0.4573 0.3423 0.0000
vt 0.4292 0.2354 0.0000
vt 0.5542 0.2612 0.0000
vt 0.5313 0.3320 0.0000
vt 0.4155 0.2651 0.0000
vt 0.4634 0.3022 0.0000
vt 0.4197 0.3027 0.0000
vt 0.4734 0.2056 0.0000
vt 0.5483 0.3203 0.0000
vt 0.5190 0.2568 0.0000
vt 0.4414 0.2178 0.0000
vt 0.5063 0.3057 0.0000
vt 0.4456 0.3350 0.0000
vt 0.4519 0.2686 0.0000
vt 0.4797 0.3462 0.0000
vt 0.4578 0.2964 0.0000
vt 0.4546 0.3101 0.0000
vt 0.4116 0.2905 0.0000
vt 0.4253 0.2437 0.0000
vt 0.4138 0.2822 0.0000
vt 0.5415 0.2368 0.0000
vt 0.4380 0.3203 0.0000
vt 0.4495 0.3389 0.0000
vt 0.5024 0.2451 0.0000
vt 0.5181 0.2871 0.0000
vt 0.4900 0.3101 0.0000
# 56 texture coords

o SM_Coral_Table_Acropora_05_LOD2
g SM_Coral_Table_Acropora_05_LOD2
usemtl MAT_Coral_Table
s 1
f 280/323/1297 285/336/1298 229/290/1299 
f 230/290/1300 286/336/1301 269/323/1302 
f 287/337/1303 280/323/1304 229/290/1305 
f 230/290/1306 246/304/1307 284/335/1308 
f 330/329/1309 245/303/1310 250/307/1311 
f 235/295/1312 272/325/1313 260/316/1314 
f 321/288/1315 243/302/1316 275/328/1317 
f 275/328/1318 243/302/1319 321/288/1320 
f 230/290/1321 269/323/1322 253/309/1323 
f 241/300/1324 280/323/1325 287/337/1326 
f 228/289/1327 247/304/1328 283/335/1329 
f 284/335/1330 246/304/1331 228/289/1332 
f 283/335/1333 247/304/1334 229/290/1335 
f 260/316/1336 271/325/1337 235/295/1338 
f 251/307/1339 245/303/1340 330/329/1341 
f 224/285/1342 237/296/1343 253/309/1344 
f 237/296/1345 274/327/1346 245/303/1347 
f 245/303/1348 274/327/1349 236/296/1350 
f 249/306/1351 239/298/1352 232/292/1353 
f 228/289/1354 283/335/1355 254/310/1356 
f 263/319/1357 246/304/1358 233/293/1359 
f 225/286/1360 271/325/1361 247/304/1362 
f 278/331/1363 251/307/1364 330/329/1365 
f 330/329/1366 250/307/1367 278/331/1368 
f 277/330/1369 271/325/1370 257/313/1371 
f 257/313/1372 272/325/1373 277/330/1374 
f 247/304/1375 271/325/1376 229/290/1377 
f 229/290/1378 236/296/1379 328/309/1380 
f 230/290/1381 272/325/1382 246/304/1383 
f 253/309/1384 237/296/1385 230/290/1386 
f 336/329/1387 334/311/1388 238/297/1389 
f 238/297/1390 334/311/1391 336/329/1392 
f 254/310/1393 284/335/1394 228/289/1395 
f 258/314/1396 267/321/1397 223/283/1398 
f 261/317/1399 237/296/1400 224/285/1401 
f 224/285/1402 236/296/1403 261/317/1404 
f 227/288/1405 224/285/1406 253/309/1407 
f 241/300/1408 287/337/1409 273/326/1410 
f 269/323/1411 286/336/1412 265/320/1413 
f 265/320/1414 285/336/1415 280/323/1416 
f 289/302/1417 281/333/1418 288/288/1419 
f 291/288/1420 331/333/1421 290/302/1422 
f 223/283/1423 266/321/1424 258/314/1425 
f 232/292/1426 244/298/1427 249/306/1428 
f 292/329/1429 293/303/1430 255/311/1431 
f 326/311/1432 294/303/1433 295/329/1434 
f 268/322/1435 246/304/1436 225/286/1437 
f 246/304/1438 272/325/1439 225/286/1440 
f 225/286/1441 247/304/1442 268/322/1443 
f 233/293/1444 247/304/1445 263/319/1446 
f 270/324/1447 226/287/1448 332/288/1449 
f 332/288/1450 226/287/1451 270/324/1452 
f 249/306/1453 285/336/1454 265/320/1455 
f 265/320/1456 286/336/1457 249/306/1458 
f 250/307/1459 245/303/1460 236/296/1461 
f 229/290/1462 250/307/1463 236/296/1464 
f 237/296/1465 245/303/1466 251/307/1467 
f 237/296/1468 251/307/1469 230/290/1470 
f 227/288/1471 252/308/1472 224/285/1473 
f 297/285/1474 325/308/1475 296/288/1476 
f 273/326/1477 253/309/1478 241/300/1479 
f 253/309/1480 269/323/1481 241/300/1482 
f 254/310/1483 266/321/1484 279/332/1485 
f 279/332/1486 267/321/1487 254/310/1488 
f 339/311/1489 323/303/1490 231/291/1491 
f 231/291/1492 323/303/1493 339/311/1494 
f 256/312/1495 298/324/1496 299/288/1497 
f 300/288/1498 301/324/1499 327/312/1500 
f 225/286/1501 272/325/1502 257/313/1503 
f 257/313/1504 271/325/1505 225/286/1506 
f 258/314/1507 244/298/1508 232/292/1509 
f 232/292/1510 239/298/1511 258/314/1512 
f 241/300/1513 269/323/1514 242/301/1515 
f 242/301/1516 280/323/1517 241/300/1518 
f 260/316/1519 272/325/1520 234/294/1521 
f 234/294/1522 271/325/1523 260/316/1524 
f 237/296/1525 261/317/1526 240/299/1527 
f 240/299/1528 261/317/1529 236/296/1530 
f 262/318/1531 322/297/1532 320/284/1533 
f 320/284/1534 322/297/1535 262/318/1536 
f 228/289/1537 246/304/1538 263/319/1539 
f 263/319/1540 247/304/1541 228/289/1542 
f 264/309/1543 302/285/1544 303/288/1545 
f 328/309/1546 236/296/1547 224/285/1548 
f 222/282/1549 269/323/1550 265/320/1551 
f 265/320/1552 280/323/1553 222/282/1554 
f 244/298/1555 266/321/1556 229/290/1557 
f 258/314/1558 266/321/1559 244/298/1560 
f 230/290/1561 267/321/1562 239/298/1563 
f 239/298/1564 267/321/1565 258/314/1566 
f 268/322/1567 247/304/1568 233/293/1569 
f 233/293/1570 246/304/1571 268/322/1572 
f 242/301/1573 269/323/1574 259/315/1575 
f 259/315/1576 269/323/1577 222/282/1578 
f 304/287/1579 305/324/1580 248/305/1581 
f 324/305/1582 306/324/1583 307/287/1584 
f 271/325/1585 250/307/1586 229/290/1587 
f 234/294/1588 250/307/1589 271/325/1590 
f 230/290/1591 251/307/1592 272/325/1593 
f 272/325/1594 251/307/1595 234/294/1596 
f 227/288/1597 253/309/1598 273/326/1599 
f 273/326/1600 287/337/1601 227/288/1602 
f 237/296/1603 240/299/1604 274/327/1605 
f 274/327/1606 240/299/1607 236/296/1608 
f 308/288/1609 309/328/1610 333/308/1611 
f 338/308/1612 310/328/1613 311/288/1614 
f 312/329/1615 313/297/1616 221/284/1617 
f 314/284/1618 315/297/1619 276/329/1620 
f 277/330/1621 272/325/1622 235/295/1623 
f 235/295/1624 271/325/1625 277/330/1626 
f 234/294/1627 251/307/1628 278/331/1629 
f 278/331/1630 250/307/1631 234/294/1632 
f 223/283/1633 267/321/1634 279/332/1635 
f 279/332/1636 266/321/1637 223/283/1638 
f 259/315/1639 280/323/1640 242/301/1641 
f 222/282/1642 280/323/1643 259/315/1644 
f 337/333/1645 316/287/1646 317/288/1647 
f 318/288/1648 319/287/1649 340/333/1650 
f 329/324/1651 335/312/1652 282/334/1653 
f 282/334/1654 335/312/1655 329/324/1656 
f 266/321/1657 283/335/1658 229/290/1659 
f 254/310/1660 283/335/1661 266/321/1662 
f 230/290/1663 284/335/1664 267/321/1665 
f 267/321/1666 284/335/1667 254/310/1668 
f 285/336/1669 244/298/1670 229/290/1671 
f 249/306/1672 244/298/1673 285/336/1674 
f 230/290/1675 239/298/1676 286/336/1677 
f 286/336/1678 239/298/1679 249/306/1680 
f 287/337/1681 229/290/1682 328/309/1683 
f 287/337/1684 328/309/1685 227/288/1686 
# 130 faces

