# 3ds Max Wavefront OBJ Exporter v0.97b - (c)2007 guruware
# File Created: 10.02.2024 08:45:32

mtllib SM_Limpet_03.mtl

#
# object SM_Limpet_03_LOD0
#

v  -3.6693 0.0000 0.4655
v  -3.5248 -0.0000 -0.7228
v  -2.5583 0.8176 0.3181
v  -3.2663 0.0000 1.5812
v  -2.3412 0.0000 2.4497
v  -1.1261 0.0000 2.9507
v  0.2379 0.0000 3.0023
v  1.5386 0.0000 2.5972
v  1.5578 0.6958 1.9635
v  2.6706 0.0000 1.7847
v  2.5019 0.7477 1.3241
v  3.5284 0.0000 0.6798
v  3.1507 0.7975 0.4684
v  3.2565 0.8176 -0.4533
v  3.6693 -0.0000 -0.5081
v  2.9140 0.7975 -1.3156
v  3.2235 -0.0000 -1.6181
v  2.1073 -0.0000 -2.4612
v  0.8026 -0.0000 -2.9504
v  -0.5588 -0.0000 -3.0023
v  -1.8621 -0.0000 -2.5968
v  -1.9447 0.7477 -1.4405
v  -2.9043 -0.0000 -1.7963
v  -2.4590 0.7975 -0.6027
v  -2.2223 0.7975 1.1813
v  -1.5074 0.7477 1.8560
v  -0.3664 1.6984 0.4114
v  -0.0705 1.6816 0.6978
v  0.3338 1.6646 0.8616
v  -0.5337 0.6958 2.2410
v  0.7882 1.6574 0.8777
v  0.5379 0.6737 2.2794
v  1.2251 1.6646 0.7434
v  1.5861 1.6816 0.4780
v  1.8336 1.7053 -0.2646
v  1.6976 1.6984 -0.6306
v  1.4011 1.6816 -0.9168
v  2.0645 0.7477 -1.9724
v  0.9864 0.6958 -2.3436
v  -0.0806 0.6737 -2.3826
v  -1.1051 0.6958 -2.0661
v  0.0920 1.6646 -0.9607
v  -0.2556 1.6816 -0.6970
v  -0.5059 1.7053 0.0459
v  -0.4665 1.6984 -0.3434
v  0.5265 1.6574 -1.0947
v  0.9833 1.6646 -1.0789
v  1.7977 1.6984 0.1243
v  0.6982 2.0327 -0.1139
# 49 vertices

vn -0.4877 0.8708 0.0616
vn -0.5638 0.8003 -0.2042
vn -0.5795 0.8120 0.0694
vn -0.4840 0.8066 0.3393
vn -0.4877 0.8708 0.0616
vn -0.5795 0.8120 0.0694
vn -0.4092 0.8604 0.3037
vn -0.4877 0.8708 0.0616
vn -0.4840 0.8066 0.3393
vn -0.3177 0.7830 0.5347
vn -0.4092 0.8604 0.3037
vn -0.4840 0.8066 0.3393
vn -0.2708 0.8321 0.4840
vn -0.4092 0.8604 0.3037
vn -0.3177 0.7830 0.5347
vn -0.1222 0.7517 0.6481
vn -0.2708 0.8321 0.4840
vn -0.3177 0.7830 0.5347
vn -0.1026 0.7985 0.5932
vn -0.2708 0.8321 0.4840
vn -0.1222 0.7517 0.6481
vn 0.1006 0.7006 0.7064
vn -0.1026 0.7985 0.5932
vn -0.1222 0.7517 0.6481
vn 0.0909 0.7577 0.6462
vn -0.1026 0.7985 0.5932
vn 0.1006 0.7006 0.7064
vn 0.3431 0.6187 0.7067
vn 0.0909 0.7577 0.6462
vn 0.1006 0.7006 0.7064
vn 0.2962 0.7106 0.6382
vn 0.0909 0.7577 0.6462
vn 0.3431 0.6187 0.7067
vn 0.5820 0.5272 0.6192
vn 0.2962 0.7106 0.6382
vn 0.3431 0.6187 0.7067
vn 0.4960 0.6760 0.5449
vn 0.2962 0.7106 0.6382
vn 0.5820 0.5272 0.6192
vn 0.8128 0.4763 0.3355
vn 0.4960 0.6760 0.5449
vn 0.5820 0.5272 0.6192
vn 0.6771 0.6771 0.2882
vn 0.4960 0.6760 0.5449
vn 0.8128 0.4763 0.3355
vn 0.8818 0.4570 -0.1165
vn 0.6771 0.6771 0.2882
vn 0.8128 0.4763 0.3355
vn 0.7278 0.6789 -0.0967
vn 0.6771 0.6771 0.2882
vn 0.8818 0.4570 -0.1165
vn 0.5779 0.6777 -0.4547
vn 0.7278 0.6789 -0.0967
vn 0.8818 0.4570 -0.1165
vn 0.6976 0.4765 -0.5352
vn 0.5779 0.6777 -0.4547
vn 0.8818 0.4570 -0.1165
vn 0.3376 0.6763 -0.6547
vn 0.5779 0.6777 -0.4547
vn 0.6976 0.4765 -0.5352
vn 0.4015 0.5266 -0.7493
vn 0.3376 0.6763 -0.6547
vn 0.6976 0.4765 -0.5352
vn 0.1202 0.7107 -0.6931
vn 0.3376 0.6763 -0.6547
vn 0.4015 0.5266 -0.7493
vn 0.1476 0.6189 -0.7715
vn 0.1202 0.7107 -0.6931
vn 0.4015 0.5266 -0.7493
vn -0.0811 0.7574 -0.6479
vn 0.1202 0.7107 -0.6931
vn 0.1476 0.6189 -0.7715
vn -0.0870 0.7005 -0.7083
vn -0.0811 0.7574 -0.6479
vn 0.1476 0.6189 -0.7715
vn -0.2531 0.7984 -0.5463
vn -0.0811 0.7574 -0.6479
vn -0.0870 0.7005 -0.7083
vn -0.2883 0.7516 -0.5933
vn -0.2531 0.7984 -0.5463
vn -0.0870 0.7005 -0.7083
vn -0.3899 0.8315 -0.3957
vn -0.2531 0.7984 -0.5463
vn -0.2883 0.7516 -0.5933
vn -0.4528 0.7814 -0.4293
vn -0.3899 0.8315 -0.3957
vn -0.2883 0.7516 -0.5933
vn -0.4782 0.8577 -0.1888
vn -0.3899 0.8315 -0.3957
vn -0.4528 0.7814 -0.4293
vn -0.5638 0.8003 -0.2042
vn -0.4782 0.8577 -0.1888
vn -0.4528 0.7814 -0.4293
vn -0.4877 0.8708 0.0616
vn -0.4782 0.8577 -0.1888
vn -0.5638 0.8003 -0.2042
vn -0.3253 0.9446 0.0440
vn -0.4782 0.8577 -0.1888
vn -0.4877 0.8708 0.0616
vn -0.4092 0.8604 0.3037
vn -0.3253 0.9446 0.0440
vn -0.4877 0.8708 0.0616
vn -0.2729 0.9361 0.2220
vn -0.3253 0.9446 0.0440
vn -0.4092 0.8604 0.3037
vn -0.2708 0.8321 0.4840
vn -0.2729 0.9361 0.2220
vn -0.4092 0.8604 0.3037
vn -0.1789 0.9161 0.3588
vn -0.2729 0.9361 0.2220
vn -0.2708 0.8321 0.4840
vn -0.1026 0.7985 0.5932
vn -0.1789 0.9161 0.3588
vn -0.2708 0.8321 0.4840
vn -0.0635 0.8955 0.4404
vn -0.1789 0.9161 0.3588
vn -0.1026 0.7985 0.5932
vn 0.0909 0.7577 0.6462
vn -0.0635 0.8955 0.4404
vn -0.1026 0.7985 0.5932
vn 0.0635 0.8804 0.4700
vn -0.0635 0.8955 0.4404
vn 0.0909 0.7577 0.6462
vn 0.2962 0.7106 0.6382
vn 0.0635 0.8804 0.4700
vn 0.0909 0.7577 0.6462
vn 0.1907 0.8751 0.4449
vn 0.0635 0.8804 0.4700
vn 0.2962 0.7106 0.6382
vn 0.4960 0.6760 0.5449
vn 0.1907 0.8751 0.4449
vn 0.2962 0.7106 0.6382
vn 0.3058 0.8843 0.3528
vn 0.1907 0.8751 0.4449
vn 0.4960 0.6760 0.5449
vn 0.3884 0.9051 0.1732
vn 0.3058 0.8843 0.3528
vn 0.4960 0.6760 0.5449
vn 0.6771 0.6771 0.2882
vn 0.3884 0.9051 0.1732
vn 0.4960 0.6760 0.5449
vn 0.4018 0.9141 -0.0538
vn 0.3884 0.9051 0.1732
vn 0.6771 0.6771 0.2882
vn 0.7278 0.6789 -0.0967
vn 0.4018 0.9141 -0.0538
vn 0.6771 0.6771 0.2882
vn 0.5779 0.6777 -0.4547
vn 0.4018 0.9141 -0.0538
vn 0.7278 0.6789 -0.0967
vn 0.3297 0.9049 -0.2690
vn 0.4018 0.9141 -0.0538
vn 0.5779 0.6777 -0.4547
vn 0.3376 0.6763 -0.6547
vn 0.3297 0.9049 -0.2690
vn 0.5779 0.6777 -0.4547
vn 0.2024 0.8849 -0.4195
vn 0.3297 0.9049 -0.2690
vn 0.3376 0.6763 -0.6547
vn 0.0694 0.8746 -0.4798
vn 0.2024 0.8849 -0.4195
vn 0.3376 0.6763 -0.6547
vn 0.1202 0.7107 -0.6931
vn 0.0694 0.8746 -0.4798
vn 0.3376 0.6763 -0.6547
vn -0.0616 0.8805 -0.4701
vn 0.0694 0.8746 -0.4798
vn 0.1202 0.7107 -0.6931
vn -0.0811 0.7574 -0.6479
vn -0.0616 0.8805 -0.4701
vn 0.1202 0.7107 -0.6931
vn -0.1748 0.8955 -0.4092
vn -0.0616 0.8805 -0.4701
vn -0.0811 0.7574 -0.6479
vn -0.2531 0.7984 -0.5463
vn -0.1748 0.8955 -0.4092
vn -0.0811 0.7574 -0.6479
vn -0.2668 0.9158 -0.3001
vn -0.1748 0.8955 -0.4092
vn -0.2531 0.7984 -0.5463
vn -0.3899 0.8315 -0.3957
vn -0.2668 0.9158 -0.3001
vn -0.2531 0.7984 -0.5463
vn -0.3218 0.9361 -0.1418
vn -0.2668 0.9158 -0.3001
vn -0.3899 0.8315 -0.3957
vn -0.4782 0.8577 -0.1888
vn -0.3218 0.9361 -0.1418
vn -0.3899 0.8315 -0.3957
vn -0.3253 0.9446 0.0440
vn -0.3218 0.9361 -0.1418
vn -0.4782 0.8577 -0.1888
vn 0.0029 1.0000 -0.0010
vn -0.3218 0.9361 -0.1418
vn -0.3253 0.9446 0.0440
vn 0.0029 1.0000 -0.0010
vn -0.2668 0.9158 -0.3001
vn -0.3218 0.9361 -0.1418
vn 0.0029 1.0000 -0.0010
vn -0.1748 0.8955 -0.4092
vn -0.2668 0.9158 -0.3001
vn 0.0029 1.0000 -0.0010
vn -0.0616 0.8805 -0.4701
vn -0.1748 0.8955 -0.4092
vn 0.0029 1.0000 -0.0010
vn 0.0694 0.8746 -0.4798
vn -0.0616 0.8805 -0.4701
vn 0.0029 1.0000 -0.0010
vn 0.2024 0.8849 -0.4195
vn 0.0694 0.8746 -0.4798
vn 0.0029 1.0000 -0.0010
vn 0.3297 0.9049 -0.2690
vn 0.2024 0.8849 -0.4195
vn 0.0029 1.0000 -0.0010
vn 0.4018 0.9141 -0.0538
vn 0.3297 0.9049 -0.2690
vn 0.0029 1.0000 -0.0010
vn 0.3884 0.9051 0.1732
vn 0.4018 0.9141 -0.0538
vn 0.0029 1.0000 -0.0010
vn 0.3058 0.8843 0.3528
vn 0.3884 0.9051 0.1732
vn 0.0029 1.0000 -0.0010
vn 0.1907 0.8751 0.4449
vn 0.3058 0.8843 0.3528
vn 0.0029 1.0000 -0.0010
vn 0.0635 0.8804 0.4700
vn 0.1907 0.8751 0.4449
vn 0.0029 1.0000 -0.0010
vn -0.0635 0.8955 0.4404
vn 0.0635 0.8804 0.4700
vn 0.0029 1.0000 -0.0010
vn -0.1789 0.9161 0.3588
vn -0.0635 0.8955 0.4404
vn 0.0029 1.0000 -0.0010
vn -0.2729 0.9361 0.2220
vn -0.1789 0.9161 0.3588
vn -0.3253 0.9446 0.0440
vn -0.2729 0.9361 0.2220
vn 0.0029 1.0000 -0.0010
# 240 vertex normals

vt 0.5322 0.7507 0.0000
vt 0.5356 0.7648 0.0000
vt 0.5459 0.7507 0.0000
vt 0.5352 0.7366 0.0000
vt 0.5483 0.7397 0.0000
vt 0.5449 0.7246 0.0000
vt 0.5562 0.7305 0.0000
vt 0.5591 0.7168 0.0000
vt 0.5669 0.7244 0.0000
vt 0.5752 0.7139 0.0000
vt 0.5801 0.7222 0.0000
vt 0.5918 0.7168 0.0000
vt 0.5928 0.7244 0.0000
vt 0.6064 0.7246 0.0000
vt 0.6055 0.7305 0.0000
vt 0.6187 0.7366 0.0000
vt 0.6143 0.7397 0.0000
vt 0.6221 0.7507 0.0000
vt 0.6172 0.7507 0.0000
vt 0.6143 0.7617 0.0000
vt 0.6187 0.7648 0.0000
vt 0.6055 0.7710 0.0000
vt 0.6064 0.7767 0.0000
vt 0.5928 0.7772 0.0000
vt 0.5918 0.7848 0.0000
vt 0.5801 0.7793 0.0000
vt 0.5752 0.7876 0.0000
vt 0.5669 0.7772 0.0000
vt 0.5591 0.7848 0.0000
vt 0.5562 0.7710 0.0000
vt 0.5449 0.7767 0.0000
vt 0.5483 0.7617 0.0000
vt 0.5708 0.7507 0.0000
vt 0.5723 0.7461 0.0000
vt 0.5752 0.7422 0.0000
vt 0.5796 0.7395 0.0000
vt 0.5854 0.7388 0.0000
vt 0.5908 0.7395 0.0000
vt 0.5957 0.7422 0.0000
vt 0.5986 0.7461 0.0000
vt 0.5996 0.7507 0.0000
vt 0.5986 0.7554 0.0000
vt 0.5957 0.7593 0.0000
vt 0.5908 0.7620 0.0000
vt 0.5854 0.7628 0.0000
vt 0.5796 0.7620 0.0000
vt 0.5752 0.7593 0.0000
vt 0.5723 0.7554 0.0000
vt 0.5859 0.7507 0.0000
# 49 texture coords

o SM_Limpet_03_LOD0
g SM_Limpet_03_LOD0
usemtl MAT_Sea_Shells
s 1
f 3/3/1 2/2/2 1/1/3 
f 4/4/4 3/3/5 1/1/6 
f 25/5/7 3/3/8 4/4/9 
f 5/6/10 25/5/11 4/4/12 
f 26/7/13 25/5/14 5/6/15 
f 6/8/16 26/7/17 5/6/18 
f 30/9/19 26/7/20 6/8/21 
f 7/10/22 30/9/23 6/8/24 
f 32/11/25 30/9/26 7/10/27 
f 8/12/28 32/11/29 7/10/30 
f 9/13/31 32/11/32 8/12/33 
f 10/14/34 9/13/35 8/12/36 
f 11/15/37 9/13/38 10/14/39 
f 12/16/40 11/15/41 10/14/42 
f 13/17/43 11/15/44 12/16/45 
f 15/18/46 13/17/47 12/16/48 
f 14/19/49 13/17/50 15/18/51 
f 16/20/52 14/19/53 15/18/54 
f 17/21/55 16/20/56 15/18/57 
f 38/22/58 16/20/59 17/21/60 
f 18/23/61 38/22/62 17/21/63 
f 39/24/64 38/22/65 18/23/66 
f 19/25/67 39/24/68 18/23/69 
f 40/26/70 39/24/71 19/25/72 
f 20/27/73 40/26/74 19/25/75 
f 41/28/76 40/26/77 20/27/78 
f 21/29/79 41/28/80 20/27/81 
f 22/30/82 41/28/83 21/29/84 
f 23/31/85 22/30/86 21/29/87 
f 24/32/88 22/30/89 23/31/90 
f 2/2/91 24/32/92 23/31/93 
f 3/3/94 24/32/95 2/2/96 
f 44/33/97 24/32/98 3/3/99 
f 25/5/100 44/33/101 3/3/102 
f 27/34/103 44/33/104 25/5/105 
f 26/7/106 27/34/107 25/5/108 
f 28/35/109 27/34/110 26/7/111 
f 30/9/112 28/35/113 26/7/114 
f 29/36/115 28/35/116 30/9/117 
f 32/11/118 29/36/119 30/9/120 
f 31/37/121 29/36/122 32/11/123 
f 9/13/124 31/37/125 32/11/126 
f 33/38/127 31/37/128 9/13/129 
f 11/15/130 33/38/131 9/13/132 
f 34/39/133 33/38/134 11/15/135 
f 48/40/136 34/39/137 11/15/138 
f 13/17/139 48/40/140 11/15/141 
f 35/41/142 48/40/143 13/17/144 
f 14/19/145 35/41/146 13/17/147 
f 16/20/148 35/41/149 14/19/150 
f 36/42/151 35/41/152 16/20/153 
f 38/22/154 36/42/155 16/20/156 
f 37/43/157 36/42/158 38/22/159 
f 47/44/160 37/43/161 38/22/162 
f 39/24/163 47/44/164 38/22/165 
f 46/45/166 47/44/167 39/24/168 
f 40/26/169 46/45/170 39/24/171 
f 42/46/172 46/45/173 40/26/174 
f 41/28/175 42/46/176 40/26/177 
f 43/47/178 42/46/179 41/28/180 
f 22/30/181 43/47/182 41/28/183 
f 45/48/184 43/47/185 22/30/186 
f 24/32/187 45/48/188 22/30/189 
f 44/33/190 45/48/191 24/32/192 
f 49/49/193 45/48/194 44/33/195 
f 49/49/196 43/47/197 45/48/198 
f 49/49/199 42/46/200 43/47/201 
f 49/49/202 46/45/203 42/46/204 
f 49/49/205 47/44/206 46/45/207 
f 49/49/208 37/43/209 47/44/210 
f 49/49/211 36/42/212 37/43/213 
f 49/49/214 35/41/215 36/42/216 
f 49/49/217 48/40/218 35/41/219 
f 49/49/220 34/39/221 48/40/222 
f 49/49/223 33/38/224 34/39/225 
f 49/49/226 31/37/227 33/38/228 
f 49/49/229 29/36/230 31/37/231 
f 49/49/232 28/35/233 29/36/234 
f 49/49/235 27/34/236 28/35/237 
f 44/33/238 27/34/239 49/49/240 
# 80 faces

#
# object SM_Limpet_03_LOD1
#

v  0.8026 -0.0000 -2.9504
v  1.5386 0.0000 2.5972
v  -3.2663 0.0000 1.5812
v  0.2527 1.8419 -0.1076
v  3.2235 -0.0000 -1.6181
v  -3.5248 -0.0000 -0.7228
v  3.5284 0.0000 0.6798
v  -1.8621 -0.0000 -2.5968
v  -1.1261 0.0000 2.9507
v  2.9140 0.7975 -1.3156
v  -3.6693 0.0000 0.4655
v  0.3338 1.6646 0.8616
v  3.1507 0.7975 0.4684
v  -2.4590 0.7975 -0.6027
v  -2.2223 0.7975 1.1813
v  0.0920 1.6646 -0.9607
v  0.2379 0.0000 3.0023
v  -0.5588 -0.0000 -3.0023
v  3.6693 -0.0000 -0.5081
v  -2.9043 -0.0000 -1.7963
v  -2.3412 0.0000 2.4497
v  2.6706 0.0000 1.7847
# 22 vertices

vn -0.4379 0.8915 -0.1159
vn -0.0584 0.9238 -0.3784
vn -0.2807 0.8216 -0.4961
vn 0.6181 0.7475 0.2434
vn 0.8293 0.5478 -0.1100
vn 0.5302 0.7363 -0.4205
vn 0.5302 0.7363 -0.4205
vn -0.0110 0.9999 -0.0088
vn 0.6181 0.7475 0.2434
vn -0.1416 0.8216 0.5522
vn 0.0417 0.9279 0.3705
vn -0.3887 0.8928 0.2277
vn 0.1313 0.7515 -0.6465
vn -0.0584 0.9238 -0.3784
vn 0.5302 0.7363 -0.4205
vn -0.0110 0.9999 -0.0088
vn -0.4379 0.8915 -0.1159
vn -0.5163 0.8541 0.0619
vn 0.6181 0.7475 0.2434
vn 0.0417 0.9279 0.3705
vn 0.2730 0.7701 0.5765
vn -0.0894 0.7857 -0.6121
vn -0.0584 0.9238 -0.3784
vn 0.1313 0.7515 -0.6465
vn 0.2730 0.7701 0.5765
vn 0.0417 0.9279 0.3705
vn 0.0733 0.7857 0.6142
vn -0.0110 0.9999 -0.0088
vn 0.0417 0.9279 0.3705
vn 0.6181 0.7475 0.2434
vn -0.0584 0.9238 -0.3784
vn -0.0110 0.9999 -0.0088
vn 0.5302 0.7363 -0.4205
vn 0.1313 0.7515 -0.6465
vn 0.5302 0.7363 -0.4205
vn 0.6556 0.4766 -0.5857
vn -0.3887 0.8928 0.2277
vn -0.0110 0.9999 -0.0088
vn -0.5163 0.8541 0.0619
vn 0.0417 0.9279 0.3705
vn -0.0110 0.9999 -0.0088
vn -0.3887 0.8928 0.2277
vn 0.8114 0.4747 0.3410
vn 0.6181 0.7475 0.2434
vn 0.4761 0.6644 0.5761
vn 0.8293 0.5478 -0.1100
vn 0.6181 0.7475 0.2434
vn 0.8114 0.4747 0.3410
vn -0.4118 0.8212 -0.3951
vn -0.4379 0.8915 -0.1159
vn -0.2807 0.8216 -0.4961
vn -0.5163 0.8541 0.0619
vn -0.4379 0.8915 -0.1159
vn -0.5761 0.7972 -0.1806
vn -0.1416 0.8216 0.5522
vn -0.3887 0.8928 0.2277
vn -0.2884 0.8225 0.4901
vn -0.3887 0.8928 0.2277
vn -0.5163 0.8541 0.0619
vn -0.4983 0.8089 0.3122
vn -0.0110 0.9999 -0.0088
vn -0.0584 0.9238 -0.3784
vn -0.4379 0.8915 -0.1159
vn 0.0733 0.7857 0.6142
vn 0.0417 0.9279 0.3705
vn -0.1416 0.8216 0.5522
vn -0.2807 0.8216 -0.4961
vn -0.0584 0.9238 -0.3784
vn -0.0894 0.7857 -0.6121
vn 0.6556 0.4766 -0.5857
vn 0.5302 0.7363 -0.4205
vn 0.8293 0.5478 -0.1100
vn -0.5761 0.7972 -0.1806
vn -0.4379 0.8915 -0.1159
vn -0.4118 0.8212 -0.3951
vn -0.2884 0.8225 0.4901
vn -0.3887 0.8928 0.2277
vn -0.4983 0.8089 0.3122
vn 0.6181 0.7475 0.2434
vn 0.2730 0.7701 0.5765
vn 0.4761 0.6644 0.5761
# 81 vertex normals

vt 0.5352 0.7366 0.0000
vt 0.5918 0.7168 0.0000
vt 0.5918 0.7848 0.0000
vt 0.5813 0.7514 0.0000
vt 0.6187 0.7648 0.0000
vt 0.5356 0.7648 0.0000
vt 0.6187 0.7366 0.0000
vt 0.5591 0.7848 0.0000
vt 0.5591 0.7168 0.0000
vt 0.6143 0.7617 0.0000
vt 0.5322 0.7507 0.0000
vt 0.5796 0.7395 0.0000
vt 0.6143 0.7397 0.0000
vt 0.5483 0.7617 0.0000
vt 0.5483 0.7397 0.0000
vt 0.5796 0.7620 0.0000
vt 0.5752 0.7139 0.0000
vt 0.5752 0.7876 0.0000
vt 0.6221 0.7507 0.0000
vt 0.5449 0.7767 0.0000
vt 0.5449 0.7246 0.0000
vt 0.6064 0.7246 0.0000
# 22 texture coords

o SM_Limpet_03_LOD1
g SM_Limpet_03_LOD1
usemtl MAT_Sea_Shells
s 1
f 63/63/241 65/65/242 57/57/243 
f 62/62/244 68/68/245 59/59/246 
f 59/59/247 53/53/248 62/62/249 
f 58/58/250 61/61/251 64/64/252 
f 50/52/253 65/65/254 59/59/255 
f 53/53/256 63/63/257 60/60/258 
f 62/62/259 61/61/260 51/51/261 
f 67/67/262 65/65/263 50/52/264 
f 51/51/265 61/61/266 66/66/267 
f 53/53/268 61/61/269 62/62/270 
f 65/65/271 53/53/272 59/59/273 
f 50/52/274 59/59/275 54/54/276 
f 64/64/277 53/53/278 60/60/279 
f 61/61/280 53/53/281 64/64/282 
f 56/56/283 62/62/284 71/71/285 
f 68/68/286 62/62/287 56/56/288 
f 69/69/289 63/63/290 57/57/291 
f 60/60/292 63/63/293 55/55/294 
f 58/58/295 64/64/296 70/70/297 
f 64/64/298 60/60/299 52/50/300 
f 53/53/301 65/65/302 63/63/303 
f 66/66/304 61/61/305 58/58/306 
f 57/57/307 65/65/308 67/67/309 
f 54/54/310 59/59/311 68/68/312 
f 55/55/313 63/63/314 69/69/315 
f 70/70/316 64/64/317 52/50/318 
f 62/62/319 51/51/320 71/71/321 
# 27 faces

