# 3ds Max Wavefront OBJ Exporter v0.97b - (c)2007 guruware
# File Created: 10.02.2024 08:45:31

mtllib SM_Limpet_01.mtl

#
# object SM_Limpet_01_LOD0
#

v  -3.8169 -0.0000 -1.2533
v  -4.1647 0.0000 0.0215
v  -3.8188 0.0000 1.2820
v  -2.9494 0.0000 2.3943
v  -2.6129 0.8643 1.0010
v  -1.8234 0.0000 3.2942
v  -1.9629 0.8104 1.8654
v  -0.2522 0.0000 3.4094
v  0.1967 0.7302 2.6291
v  1.3690 0.7541 2.5381
v  1.2531 0.0000 3.2615
v  2.6650 0.0000 2.6586
v  3.7562 0.0000 1.4299
v  3.2811 0.8643 1.0392
v  4.1647 0.0000 0.0189
v  3.5395 0.8862 0.0213
v  3.9324 -0.0000 -1.3155
v  3.3477 0.8643 -0.9994
v  2.7976 -0.0000 -2.5766
v  0.2395 0.7302 -2.6718
v  1.3465 -0.0000 -3.3335
v  -0.9397 0.7541 -2.3456
v  -0.1809 -0.0000 -3.4094
v  -1.6943 -0.0000 -3.0271
v  -3.0046 -0.0000 -2.3297
v  -2.6258 0.8643 -0.9552
v  -2.8664 0.8862 0.0252
v  -0.5087 1.8409 0.4384
v  -0.9938 0.7541 2.4641
v  0.1795 1.8042 1.0220
v  0.6655 1.7964 1.1041
v  1.1540 1.8042 1.0220
v  2.5081 0.8104 2.0094
v  1.8575 1.8409 -0.3869
v  1.1540 1.8042 -0.9705
v  2.6024 0.8104 -1.9401
v  1.4528 0.7541 -2.5701
v  0.6655 1.7964 -1.0525
v  0.1795 1.8042 -0.9705
v  -1.9589 0.8104 -1.7837
v  -0.5086 1.8409 -0.3869
v  -0.2316 1.8226 -0.7367
v  1.5798 1.8226 -0.7367
v  1.9515 1.8483 0.0258
v  1.8575 1.8409 0.4384
v  1.5798 1.8226 0.7882
v  -0.2316 1.8226 0.7882
v  0.7101 2.2031 0.0258
v  -0.6064 1.8483 0.0258
# 49 vertices

vn -0.4802 0.8772 0.0010
vn -0.5113 0.8163 -0.2688
vn -0.5617 0.8274 0.0010
vn -0.5147 0.8136 0.2705
vn -0.4802 0.8772 0.0010
vn -0.5617 0.8274 0.0010
vn -0.4412 0.8637 0.2436
vn -0.4802 0.8772 0.0010
vn -0.5147 0.8136 0.2705
vn -0.4002 0.8053 0.4374
vn -0.4412 0.8637 0.2436
vn -0.5147 0.8136 0.2705
vn -0.3413 0.8459 0.4098
vn -0.4412 0.8637 0.2436
vn -0.4002 0.8053 0.4374
vn -0.1964 0.7924 0.5775
vn -0.3413 0.8459 0.4098
vn -0.4002 0.8053 0.4374
vn -0.1711 0.8223 0.5427
vn -0.3413 0.8459 0.4098
vn -0.1964 0.7924 0.5775
vn -0.0010 0.7302 0.6833
vn -0.1711 0.8223 0.5427
vn -0.1964 0.7924 0.5775
vn -0.0068 0.7792 0.6267
vn -0.1711 0.8223 0.5427
vn -0.0010 0.7302 0.6833
vn 0.1809 0.6716 0.7185
vn -0.0068 0.7792 0.6267
vn -0.0010 0.7302 0.6833
vn 0.1574 0.7518 0.6403
vn -0.0068 0.7792 0.6267
vn 0.1809 0.6716 0.7185
vn 0.4688 0.6117 0.6372
vn 0.1574 0.7518 0.6403
vn 0.1809 0.6716 0.7185
vn 0.3980 0.7324 0.5525
vn 0.1574 0.7518 0.6403
vn 0.4688 0.6117 0.6372
vn 0.7226 0.5720 0.3882
vn 0.3980 0.7324 0.5525
vn 0.4688 0.6117 0.6372
vn 0.6070 0.7223 0.3314
vn 0.3980 0.7324 0.5525
vn 0.7226 0.5720 0.3882
vn 0.8157 0.5773 0.0381
vn 0.6070 0.7223 0.3314
vn 0.7226 0.5720 0.3882
vn 0.6810 0.7318 0.0264
vn 0.6070 0.7223 0.3314
vn 0.8157 0.5773 0.0381
vn 0.6011 0.7399 -0.3020
vn 0.6810 0.7318 0.0264
vn 0.8157 0.5773 0.0381
vn 0.7213 0.5980 -0.3494
vn 0.6011 0.7399 -0.3020
vn 0.8157 0.5773 0.0381
vn 0.4093 0.7395 -0.5344
vn 0.6011 0.7399 -0.3020
vn 0.7213 0.5980 -0.3494
vn 0.4860 0.6190 -0.6170
vn 0.4093 0.7395 -0.5344
vn 0.7213 0.5980 -0.3494
vn 0.1711 0.7635 -0.6227
vn 0.4093 0.7395 -0.5344
vn 0.4860 0.6190 -0.6170
vn 0.1987 0.6782 -0.7075
vn 0.1711 0.7635 -0.6227
vn 0.4860 0.6190 -0.6170
vn -0.0499 0.7870 -0.6150
vn 0.1711 0.7635 -0.6227
vn 0.1987 0.6782 -0.7075
vn -0.0616 0.7289 -0.6819
vn -0.0499 0.7870 -0.6150
vn 0.1987 0.6782 -0.7075
vn -0.1966 0.8071 -0.5567
vn -0.0499 0.7870 -0.6150
vn -0.0616 0.7289 -0.6819
vn -0.2259 0.7617 -0.6072
vn -0.1966 0.8071 -0.5567
vn -0.0616 0.7289 -0.6819
vn -0.3257 0.8383 -0.4372
vn -0.1966 0.8071 -0.5567
vn -0.2259 0.7617 -0.6072
vn -0.3764 0.7948 -0.4761
vn -0.3257 0.8383 -0.4372
vn -0.2259 0.7617 -0.6072
vn -0.4373 0.8657 -0.2436
vn -0.3257 0.8383 -0.4372
vn -0.3764 0.7948 -0.4761
vn -0.5113 0.8163 -0.2688
vn -0.4373 0.8657 -0.2436
vn -0.3764 0.7948 -0.4761
vn -0.4802 0.8772 0.0010
vn -0.4373 0.8657 -0.2436
vn -0.5113 0.8163 -0.2688
vn -0.3273 0.9449 0.0010
vn -0.4373 0.8657 -0.2436
vn -0.4802 0.8772 0.0010
vn -0.4412 0.8637 0.2436
vn -0.3273 0.9449 0.0010
vn -0.4802 0.8772 0.0010
vn -0.2999 0.9367 0.1807
vn -0.3273 0.9449 0.0010
vn -0.4412 0.8637 0.2436
vn -0.3413 0.8459 0.4098
vn -0.2999 0.9367 0.1807
vn -0.4412 0.8637 0.2436
vn -0.2257 0.9196 0.3215
vn -0.2999 0.9367 0.1807
vn -0.3413 0.8459 0.4098
vn -0.1711 0.8223 0.5427
vn -0.2257 0.9196 0.3215
vn -0.3413 0.8459 0.4098
vn -0.1183 0.9001 0.4193
vn -0.2257 0.9196 0.3215
vn -0.1711 0.8223 0.5427
vn -0.0068 0.7792 0.6267
vn -0.1183 0.9001 0.4193
vn -0.1711 0.8223 0.5427
vn -0.0049 0.8867 0.4624
vn -0.1183 0.9001 0.4193
vn -0.0068 0.7792 0.6267
vn 0.1574 0.7518 0.6403
vn -0.0049 0.8867 0.4624
vn -0.0068 0.7792 0.6267
vn 0.1106 0.8876 0.4472
vn -0.0049 0.8867 0.4624
vn 0.1574 0.7518 0.6403
vn 0.3980 0.7324 0.5525
vn 0.1106 0.8876 0.4472
vn 0.1574 0.7518 0.6403
vn 0.2494 0.8970 0.3649
vn 0.1106 0.8876 0.4472
vn 0.3980 0.7324 0.5525
vn 0.6070 0.7223 0.3314
vn 0.2494 0.8970 0.3649
vn 0.3980 0.7324 0.5525
vn 0.3604 0.9093 0.2080
vn 0.2494 0.8970 0.3649
vn 0.6070 0.7223 0.3314
vn 0.4000 0.9165 0.0068
vn 0.3604 0.9093 0.2080
vn 0.6070 0.7223 0.3314
vn 0.6810 0.7318 0.0264
vn 0.4000 0.9165 0.0068
vn 0.6070 0.7223 0.3314
vn 0.3569 0.9124 -0.2005
vn 0.4000 0.9165 0.0068
vn 0.6810 0.7318 0.0264
vn 0.6011 0.7399 -0.3020
vn 0.3569 0.9124 -0.2005
vn 0.6810 0.7318 0.0264
vn 0.4093 0.7395 -0.5344
vn 0.3569 0.9124 -0.2005
vn 0.6011 0.7399 -0.3020
vn 0.2494 0.9009 -0.3551
vn 0.3569 0.9124 -0.2005
vn 0.4093 0.7395 -0.5344
vn 0.1164 0.8928 -0.4352
vn 0.2494 0.9009 -0.3551
vn 0.4093 0.7395 -0.5344
vn 0.1711 0.7635 -0.6227
vn 0.1164 0.8928 -0.4352
vn 0.4093 0.7395 -0.5344
vn -0.0186 0.8925 -0.4507
vn 0.1164 0.8928 -0.4352
vn 0.1711 0.7635 -0.6227
vn -0.0499 0.7870 -0.6150
vn -0.0186 0.8925 -0.4507
vn 0.1711 0.7635 -0.6227
vn -0.1281 0.8987 -0.4195
vn -0.0186 0.8925 -0.4507
vn -0.0499 0.7870 -0.6150
vn -0.1966 0.8071 -0.5567
vn -0.1281 0.8987 -0.4195
vn -0.0499 0.7870 -0.6150
vn -0.2237 0.9174 -0.3292
vn -0.1281 0.8987 -0.4195
vn -0.1966 0.8071 -0.5567
vn -0.3257 0.8383 -0.4372
vn -0.2237 0.9174 -0.3292
vn -0.1966 0.8071 -0.5567
vn -0.2980 0.9369 -0.1827
vn -0.2237 0.9174 -0.3292
vn -0.3257 0.8383 -0.4372
vn -0.4373 0.8657 -0.2436
vn -0.2980 0.9369 -0.1827
vn -0.3257 0.8383 -0.4372
vn -0.3273 0.9449 0.0010
vn -0.2980 0.9369 -0.1827
vn -0.4373 0.8657 -0.2436
vn 0.0029 1.0000 -0.0010
vn -0.2980 0.9369 -0.1827
vn -0.3273 0.9449 0.0010
vn 0.0029 1.0000 -0.0010
vn -0.2237 0.9174 -0.3292
vn -0.2980 0.9369 -0.1827
vn 0.0029 1.0000 -0.0010
vn -0.1281 0.8987 -0.4195
vn -0.2237 0.9174 -0.3292
vn 0.0029 1.0000 -0.0010
vn -0.0186 0.8925 -0.4507
vn -0.1281 0.8987 -0.4195
vn 0.0029 1.0000 -0.0010
vn 0.1164 0.8928 -0.4352
vn -0.0186 0.8925 -0.4507
vn 0.0029 1.0000 -0.0010
vn 0.2494 0.9009 -0.3551
vn 0.1164 0.8928 -0.4352
vn 0.0029 1.0000 -0.0010
vn 0.3569 0.9124 -0.2005
vn 0.2494 0.9009 -0.3551
vn 0.0029 1.0000 -0.0010
vn 0.4000 0.9165 0.0068
vn 0.3569 0.9124 -0.2005
vn 0.0029 1.0000 -0.0010
vn 0.3604 0.9093 0.2080
vn 0.4000 0.9165 0.0068
vn 0.0029 1.0000 -0.0010
vn 0.2494 0.8970 0.3649
vn 0.3604 0.9093 0.2080
vn 0.0029 1.0000 -0.0010
vn 0.1106 0.8876 0.4472
vn 0.2494 0.8970 0.3649
vn 0.0029 1.0000 -0.0010
vn -0.0049 0.8867 0.4624
vn 0.1106 0.8876 0.4472
vn 0.0029 1.0000 -0.0010
vn -0.1183 0.9001 0.4193
vn -0.0049 0.8867 0.4624
vn 0.0029 1.0000 -0.0010
vn -0.2257 0.9196 0.3215
vn -0.1183 0.9001 0.4193
vn 0.0029 1.0000 -0.0010
vn -0.2999 0.9367 0.1807
vn -0.2257 0.9196 0.3215
vn -0.3273 0.9449 0.0010
vn -0.2999 0.9367 0.1807
vn 0.0029 1.0000 -0.0010
# 240 vertex normals

vt 0.7773 0.3574 0.0000
vt 0.7646 0.3735 0.0000
vt 0.7900 0.3745 0.0000
vt 0.7964 0.3506 0.0000
vt 0.8042 0.3691 0.0000
vt 0.8184 0.3511 0.0000
vt 0.8208 0.3696 0.0000
vt 0.8398 0.3574 0.0000
vt 0.8364 0.3760 0.0000
vt 0.8555 0.3760 0.0000
vt 0.8491 0.3892 0.0000
vt 0.8662 0.3970 0.0000
vt 0.8584 0.4048 0.0000
vt 0.8711 0.4194 0.0000
vt 0.8618 0.4233 0.0000
vt 0.8628 0.4434 0.0000
vt 0.8569 0.4414 0.0000
vt 0.8506 0.4600 0.0000
vt 0.8467 0.4536 0.0000
vt 0.8325 0.4604 0.0000
vt 0.8325 0.4688 0.0000
vt 0.8140 0.4595 0.0000
vt 0.8081 0.4688 0.0000
vt 0.7964 0.4507 0.0000
vt 0.7852 0.4575 0.0000
vt 0.7842 0.4370 0.0000
vt 0.7705 0.4390 0.0000
vt 0.7778 0.4194 0.0000
vt 0.7612 0.4165 0.0000
vt 0.7759 0.4019 0.0000
vt 0.7583 0.3936 0.0000
vt 0.7798 0.3862 0.0000
vt 0.8101 0.4023 0.0000
vt 0.8159 0.3999 0.0000
vt 0.8228 0.4004 0.0000
vt 0.8291 0.4033 0.0000
vt 0.8345 0.4087 0.0000
vt 0.8379 0.4155 0.0000
vt 0.8389 0.4229 0.0000
vt 0.8369 0.4292 0.0000
vt 0.8325 0.4341 0.0000
vt 0.8267 0.4365 0.0000
vt 0.8198 0.4360 0.0000
vt 0.8135 0.4331 0.0000
vt 0.8081 0.4277 0.0000
vt 0.8047 0.4209 0.0000
vt 0.8037 0.4141 0.0000
vt 0.8057 0.4072 0.0000
vt 0.8218 0.4189 0.0000
# 49 texture coords

o SM_Limpet_01_LOD0
g SM_Limpet_01_LOD0
usemtl MAT_Sea_Shells
s 1
f 27/3/1 1/2/2 2/1/3 
f 3/4/4 27/3/5 2/1/6 
f 5/5/7 27/3/8 3/4/9 
f 4/6/10 5/5/11 3/4/12 
f 7/7/13 5/5/14 4/6/15 
f 6/8/16 7/7/17 4/6/18 
f 29/9/19 7/7/20 6/8/21 
f 8/10/22 29/9/23 6/8/24 
f 9/11/25 29/9/26 8/10/27 
f 11/12/28 9/11/29 8/10/30 
f 10/13/31 9/11/32 11/12/33 
f 12/14/34 10/13/35 11/12/36 
f 33/15/37 10/13/38 12/14/39 
f 13/16/40 33/15/41 12/14/42 
f 14/17/43 33/15/44 13/16/45 
f 15/18/46 14/17/47 13/16/48 
f 16/19/49 14/17/50 15/18/51 
f 18/20/52 16/19/53 15/18/54 
f 17/21/55 18/20/56 15/18/57 
f 36/22/58 18/20/59 17/21/60 
f 19/23/61 36/22/62 17/21/63 
f 37/24/64 36/22/65 19/23/66 
f 21/25/67 37/24/68 19/23/69 
f 20/26/70 37/24/71 21/25/72 
f 23/27/73 20/26/74 21/25/75 
f 22/28/76 20/26/77 23/27/78 
f 24/29/79 22/28/80 23/27/81 
f 40/30/82 22/28/83 24/29/84 
f 25/31/85 40/30/86 24/29/87 
f 26/32/88 40/30/89 25/31/90 
f 1/2/91 26/32/92 25/31/93 
f 27/3/94 26/32/95 1/2/96 
f 49/33/97 26/32/98 27/3/99 
f 5/5/100 49/33/101 27/3/102 
f 28/34/103 49/33/104 5/5/105 
f 7/7/106 28/34/107 5/5/108 
f 47/35/109 28/34/110 7/7/111 
f 29/9/112 47/35/113 7/7/114 
f 30/36/115 47/35/116 29/9/117 
f 9/11/118 30/36/119 29/9/120 
f 31/37/121 30/36/122 9/11/123 
f 10/13/124 31/37/125 9/11/126 
f 32/38/127 31/37/128 10/13/129 
f 33/15/130 32/38/131 10/13/132 
f 46/39/133 32/38/134 33/15/135 
f 14/17/136 46/39/137 33/15/138 
f 45/40/139 46/39/140 14/17/141 
f 44/41/142 45/40/143 14/17/144 
f 16/19/145 44/41/146 14/17/147 
f 34/42/148 44/41/149 16/19/150 
f 18/20/151 34/42/152 16/19/153 
f 36/22/154 34/42/155 18/20/156 
f 43/43/157 34/42/158 36/22/159 
f 35/44/160 43/43/161 36/22/162 
f 37/24/163 35/44/164 36/22/165 
f 38/45/166 35/44/167 37/24/168 
f 20/26/169 38/45/170 37/24/171 
f 39/46/172 38/45/173 20/26/174 
f 22/28/175 39/46/176 20/26/177 
f 42/47/178 39/46/179 22/28/180 
f 40/30/181 42/47/182 22/28/183 
f 41/48/184 42/47/185 40/30/186 
f 26/32/187 41/48/188 40/30/189 
f 49/33/190 41/48/191 26/32/192 
f 48/49/193 41/48/194 49/33/195 
f 48/49/196 42/47/197 41/48/198 
f 48/49/199 39/46/200 42/47/201 
f 48/49/202 38/45/203 39/46/204 
f 48/49/205 35/44/206 38/45/207 
f 48/49/208 43/43/209 35/44/210 
f 48/49/211 34/42/212 43/43/213 
f 48/49/214 44/41/215 34/42/216 
f 48/49/217 45/40/218 44/41/219 
f 48/49/220 46/39/221 45/40/222 
f 48/49/223 32/38/224 46/39/225 
f 48/49/226 31/37/227 32/38/228 
f 48/49/229 30/36/230 31/37/231 
f 48/49/232 47/35/233 30/36/234 
f 48/49/235 28/34/236 47/35/237 
f 49/33/238 28/34/239 48/49/240 
# 80 faces

#
# object SM_Limpet_01_LOD1
#

v  0.7101 2.2031 0.0258
v  -3.0046 -0.0000 -2.3297
v  3.9324 -0.0000 -1.3155
v  -1.8234 0.0000 3.2942
v  1.3465 -0.0000 -3.3335
v  1.7706 1.8356 0.4606
v  -3.6283 0.0000 1.5257
v  3.7562 0.0000 1.4299
v  2.6024 0.8104 -1.9401
v  -0.8728 -0.0000 -3.2346
v  -4.1647 0.0000 0.0215
v  0.7306 0.0000 3.3128
v  3.2811 0.8643 1.0392
v  3.4402 0.8749 -0.5069
v  0.6010 1.8042 -0.9705
v  -2.3169 0.8398 1.3947
v  -2.3108 0.8388 -1.3466
v  0.1939 1.8102 0.9380
v  1.7797 1.8358 -0.4850
v  0.0539 0.7340 -2.6205
v  1.2495 0.7517 2.5473
v  -2.8664 0.8862 0.0252
v  2.7976 -0.0000 -2.5766
v  4.1647 0.0000 0.0189
v  2.6650 0.0000 2.6586
v  -0.5595 1.8448 -0.1722
v  2.5081 0.8104 2.0094
v  -3.8169 -0.0000 -1.2533
v  1.4528 0.7541 -2.5700
# 29 vertices

vn 0.4653 0.6159 -0.6357
vn 0.4314 0.7422 -0.5129
vn 0.6885 0.6399 -0.3413
vn -0.3863 0.8590 0.3360
vn -0.3011 0.9499 -0.0840
vn -0.4760 0.8794 0.0085
vn 0.3979 0.7309 0.5546
vn 0.1292 0.7534 0.6447
vn 0.4271 0.6062 0.6709
vn -0.3554 0.8602 -0.3658
vn -0.0342 0.8954 -0.4439
vn -0.1068 0.7832 -0.6125
vn 0.3377 0.9100 -0.2404
vn 0.3280 0.9126 0.2439
vn 0.6421 0.7543 -0.1370
vn 0.3280 0.9126 0.2439
vn -0.1091 0.9056 0.4099
vn 0.1292 0.7534 0.6447
vn -0.2248 0.8204 0.5258
vn -0.1091 0.9056 0.4099
vn -0.3863 0.8590 0.3360
vn 0.7892 0.6129 0.0390
vn 0.6233 0.7273 0.2873
vn 0.7170 0.5693 0.4023
vn 0.1766 0.7648 -0.6196
vn -0.0342 0.8954 -0.4439
vn 0.4314 0.7422 -0.5129
vn 0.0021 0.9998 0.0206
vn 0.3280 0.9126 0.2439
vn 0.3377 0.9100 -0.2404
vn -0.1068 0.7832 -0.6125
vn -0.0342 0.8954 -0.4439
vn 0.1766 0.7648 -0.6196
vn -0.3011 0.9499 -0.0840
vn -0.3554 0.8602 -0.3658
vn -0.4760 0.8794 0.0085
vn 0.1292 0.7534 0.6447
vn -0.1091 0.9056 0.4099
vn -0.2248 0.8204 0.5258
vn 0.6421 0.7543 -0.1370
vn 0.3280 0.9126 0.2439
vn 0.6233 0.7273 0.2873
vn 0.3979 0.7309 0.5546
vn 0.3280 0.9126 0.2439
vn 0.1292 0.7534 0.6447
vn 0.4314 0.7422 -0.5129
vn 0.6421 0.7543 -0.1370
vn 0.6885 0.6399 -0.3413
vn 0.6421 0.7543 -0.1370
vn 0.6233 0.7273 0.2873
vn 0.7892 0.6129 0.0390
vn 0.0021 0.9998 0.0206
vn 0.3377 0.9100 -0.2404
vn -0.0342 0.8954 -0.4439
vn -0.3011 0.9499 -0.0840
vn -0.0342 0.8954 -0.4439
vn -0.3554 0.8602 -0.3658
vn -0.3863 0.8590 0.3360
vn -0.4760 0.8794 0.0085
vn -0.5051 0.8079 0.3037
vn -0.2248 0.8204 0.5258
vn -0.3863 0.8590 0.3360
vn -0.5051 0.8079 0.3037
vn -0.3497 0.8201 -0.4530
vn -0.3554 0.8602 -0.3658
vn -0.1906 0.7687 -0.6105
vn -0.5081 0.8257 -0.2451
vn -0.3554 0.8602 -0.3658
vn -0.3497 0.8201 -0.4530
vn 0.0021 0.9998 0.0206
vn -0.1091 0.9056 0.4099
vn 0.3280 0.9126 0.2439
vn -0.1091 0.9056 0.4099
vn -0.3011 0.9499 -0.0840
vn -0.3863 0.8590 0.3360
vn 0.4314 0.7422 -0.5129
vn 0.3377 0.9100 -0.2404
vn 0.6421 0.7543 -0.1370
vn -0.0342 0.8954 -0.4439
vn 0.3377 0.9100 -0.2404
vn 0.4314 0.7422 -0.5129
vn -0.1906 0.7687 -0.6105
vn -0.1068 0.7832 -0.6125
vn 0.1463 0.6825 -0.7161
vn -0.3554 0.8602 -0.3658
vn -0.1068 0.7832 -0.6125
vn -0.1906 0.7687 -0.6105
vn 0.1292 0.7534 0.6447
vn -0.2248 0.8204 0.5258
vn 0.0768 0.6849 0.7246
vn 0.4271 0.6062 0.6709
vn 0.1292 0.7534 0.6447
vn 0.0768 0.6849 0.7246
vn -0.5051 0.8079 0.3037
vn -0.4760 0.8794 0.0085
vn -0.5637 0.8258 0.0185
vn -0.4760 0.8794 0.0085
vn -0.3554 0.8602 -0.3658
vn -0.5081 0.8257 -0.2451
vn 0.1766 0.7648 -0.6196
vn 0.4314 0.7422 -0.5129
vn 0.4653 0.6159 -0.6357
vn 0.6885 0.6399 -0.3413
vn 0.6421 0.7543 -0.1370
vn 0.7892 0.6129 0.0390
vn 0.7170 0.5693 0.4023
vn 0.3979 0.7309 0.5546
vn 0.4271 0.6062 0.6709
vn -0.3011 0.9499 -0.0840
vn -0.1091 0.9056 0.4099
vn 0.0021 0.9998 0.0206
vn 0.0021 0.9998 0.0206
vn -0.0342 0.8954 -0.4439
vn -0.3011 0.9499 -0.0840
vn 0.6233 0.7273 0.2873
vn 0.3979 0.7309 0.5546
vn 0.7170 0.5693 0.4023
vn 0.6233 0.7273 0.2873
vn 0.3280 0.9126 0.2439
vn 0.3979 0.7309 0.5546
vn -0.4760 0.8794 0.0085
vn -0.5081 0.8257 -0.2451
vn -0.5637 0.8258 0.0185
vn -0.1068 0.7832 -0.6125
vn 0.1766 0.7648 -0.6196
vn 0.1463 0.6825 -0.7161
vn 0.1463 0.6825 -0.7161
vn 0.1766 0.7648 -0.6196
vn 0.4653 0.6159 -0.6357
# 129 vertex normals

vt 0.8398 0.3574 0.0000
vt 0.8325 0.4688 0.0000
vt 0.7583 0.3936 0.0000
vt 0.8218 0.4189 0.0000
vt 0.8625 0.3897 0.0000
vt 0.7852 0.4575 0.0000
vt 0.7773 0.3574 0.0000
vt 0.8628 0.4434 0.0000
vt 0.8012 0.3507 0.0000
vt 0.7663 0.4287 0.0000
vt 0.8364 0.4280 0.0000
vt 0.8711 0.4194 0.0000
vt 0.8081 0.4688 0.0000
vt 0.8394 0.4572 0.0000
vt 0.8085 0.4262 0.0000
vt 0.7900 0.3745 0.0000
vt 0.8118 0.3694 0.0000
vt 0.8283 0.4043 0.0000
vt 0.8506 0.4600 0.0000
vt 0.7832 0.4342 0.0000
vt 0.8569 0.4414 0.0000
vt 0.7646 0.3735 0.0000
vt 0.8140 0.4595 0.0000
vt 0.8575 0.4032 0.0000
vt 0.8618 0.4233 0.0000
vt 0.8079 0.4047 0.0000
vt 0.7964 0.4507 0.0000
vt 0.7779 0.3936 0.0000
vt 0.8247 0.4364 0.0000
# 29 texture coords

o SM_Limpet_01_LOD1
g SM_Limpet_01_LOD1
usemtl MAT_Sea_Shells
s 1
f 72/62/241 58/72/242 52/51/243 
f 65/66/244 75/75/245 71/65/246 
f 76/74/247 70/73/248 74/61/249 
f 66/77/250 64/64/251 69/69/252 
f 68/78/253 55/60/254 63/63/255 
f 55/60/256 67/67/257 70/73/258 
f 53/50/259 67/67/260 65/66/261 
f 73/68/262 62/70/263 57/57/264 
f 78/76/265 64/64/266 58/72/267 
f 50/53/268 55/60/269 68/78/270 
f 69/69/271 64/64/272 78/76/273 
f 75/75/274 66/77/275 71/65/276 
f 70/73/277 67/67/278 53/50/279 
f 63/63/280 55/60/281 62/70/282 
f 76/74/283 55/60/284 70/73/285 
f 58/72/286 63/63/287 52/51/288 
f 63/63/289 62/70/290 73/68/291 
f 50/53/292 68/78/293 64/64/294 
f 75/75/295 64/64/296 66/77/297 
f 65/66/298 71/65/299 56/58/300 
f 53/50/301 65/66/302 56/58/303 
f 51/52/304 66/77/305 59/59/306 
f 77/71/307 66/77/308 51/52/309 
f 50/53/310 67/67/311 55/60/312 
f 67/67/313 75/75/314 65/66/315 
f 58/72/316 68/78/317 63/63/318 
f 64/64/319 68/78/320 58/72/321 
f 59/59/322 69/69/323 54/55/324 
f 66/77/325 69/69/326 59/59/327 
f 70/73/328 53/50/329 61/54/330 
f 74/61/331 70/73/332 61/54/333 
f 56/58/334 71/65/335 60/56/336 
f 71/65/337 66/77/338 77/71/339 
f 78/76/340 58/72/341 72/62/342 
f 52/51/343 63/63/344 73/68/345 
f 57/57/346 76/74/347 74/61/348 
f 75/75/349 67/67/350 50/53/351 
f 50/53/352 64/64/353 75/75/354 
f 62/70/355 76/74/356 57/57/357 
f 62/70/358 55/60/359 76/74/360 
f 71/65/361 77/71/362 60/56/363 
f 69/69/364 78/76/365 54/55/366 
f 54/55/367 78/76/368 72/62/369 
# 43 faces

