# 3ds Max Wavefront OBJ Exporter v0.97b - (c)2007 guruware
# File Created: 10.02.2024 08:45:32

mtllib SM_Limpet_04.mtl

#
# object SM_Limpet_04_LOD0
#

v  -2.9703 -0.0000 -0.1213
v  -2.8281 0.0000 0.7646
v  -2.3573 0.0000 1.5808
v  -1.9504 0.5801 0.5897
v  -1.5030 0.5439 1.1888
v  -1.4194 0.0000 2.1831
v  -0.7765 0.5061 1.5998
v  -0.2540 0.0000 2.2760
v  0.8205 0.0000 2.0472
v  0.0781 0.4901 1.7253
v  1.8093 0.0000 1.6170
v  1.7358 0.5439 1.2523
v  2.6415 0.0000 0.8975
v  2.5928 0.5947 0.0501
v  2.9703 0.0000 0.0589
v  2.6993 -0.0000 -0.7913
v  1.7755 1.2405 0.0293
v  2.3620 0.5801 0.7000
v  1.6980 1.2354 0.3044
v  1.1714 1.2108 0.6820
v  1.4876 1.2232 0.5336
v  0.9161 0.5061 1.5901
v  0.4592 1.2108 0.6630
v  0.1637 1.2232 0.4981
v  -0.0314 1.2354 0.2581
v  -1.9119 0.5801 -0.7399
v  -2.0934 0.5947 -0.0751
v  -2.8026 -0.0000 -1.0541
v  -2.1931 -0.0000 -1.7667
v  -1.2035 -0.0000 -2.1964
v  -1.4045 0.5439 -1.2920
v  0.1874 0.4901 -1.7338
v  -0.1077 -0.0000 -2.2760
v  0.9535 -0.0000 -1.9850
v  1.9650 -0.0000 -1.5412
v  1.5201 1.2232 -0.4894
v  2.4047 0.5801 -0.6092
v  1.7156 1.2354 -0.2493
v  0.8126 1.2056 0.7275
v  -0.0941 1.2405 -0.0207
v  -0.0138 1.2354 -0.2956
v  0.1962 1.2232 -0.5248
v  -0.6582 0.5061 -1.6470
v  0.8585 1.2056 -0.7192
v  0.5017 1.2108 -0.6736
v  0.9864 1.4786 0.0082
v  1.2139 1.2108 -0.6545
v  1.8408 0.5439 -1.1884
v  1.0223 0.5061 -1.5518
# 49 vertices

vn -0.4287 0.9034 -0.0088
vn -0.4660 0.8490 -0.2491
vn -0.5427 0.8399 -0.0068
vn -0.4998 0.8402 0.2103
vn -0.4287 0.9034 -0.0088
vn -0.5427 0.8399 -0.0068
vn -0.3979 0.8966 0.1946
vn -0.4287 0.9034 -0.0088
vn -0.4998 0.8402 0.2103
vn -0.3607 0.8436 0.3978
vn -0.3979 0.8966 0.1946
vn -0.4998 0.8402 0.2103
vn -0.2979 0.8799 0.3701
vn -0.3979 0.8966 0.1946
vn -0.3607 0.8436 0.3978
vn -0.1691 0.8123 0.5582
vn -0.2979 0.8799 0.3701
vn -0.3607 0.8436 0.3978
vn -0.1496 0.8401 0.5213
vn -0.2979 0.8799 0.3701
vn -0.1691 0.8123 0.5582
vn 0.0361 0.7316 0.6808
vn -0.1496 0.8401 0.5213
vn -0.1691 0.8123 0.5582
vn 0.0205 0.7729 0.6342
vn -0.1496 0.8401 0.5213
vn 0.0361 0.7316 0.6808
vn 0.2219 0.6325 0.7420
vn 0.0205 0.7729 0.6342
vn 0.0361 0.7316 0.6808
vn 0.1906 0.7009 0.6873
vn 0.0205 0.7729 0.6342
vn 0.2219 0.6325 0.7420
vn 0.4386 0.5481 0.7122
vn 0.1906 0.7009 0.6873
vn 0.2219 0.6325 0.7420
vn 0.3922 0.6504 0.6504
vn 0.1906 0.7009 0.6873
vn 0.4386 0.5481 0.7122
vn 0.6991 0.5172 0.4937
vn 0.3922 0.6504 0.6504
vn 0.4386 0.5481 0.7122
vn 0.6233 0.6468 0.4394
vn 0.3922 0.6504 0.6504
vn 0.6991 0.5172 0.4937
vn 0.7477 0.6636 0.0244
vn 0.6233 0.6468 0.4394
vn 0.6991 0.5172 0.4937
vn 0.8486 0.5283 0.0283
vn 0.7477 0.6636 0.0244
vn 0.6991 0.5172 0.4937
vn 0.7298 0.5227 -0.4406
vn 0.7477 0.6636 0.0244
vn 0.8486 0.5283 0.0283
vn 0.7298 0.5227 -0.4406
vn 0.6496 0.6516 -0.3917
vn 0.7477 0.6636 0.0244
vn 0.6496 0.6516 -0.3917
vn 0.4647 0.8854 0.0147
vn 0.7477 0.6636 0.0244
vn 0.4647 0.8854 0.0147
vn 0.6233 0.6468 0.4394
vn 0.7477 0.6636 0.0244
vn 0.4647 0.8854 0.0147
vn 0.3999 0.8732 0.2787
vn 0.6233 0.6468 0.4394
vn 0.3999 0.8732 0.2787
vn 0.2609 0.8569 0.4446
vn 0.6233 0.6468 0.4394
vn 0.2609 0.8569 0.4446
vn 0.3922 0.6504 0.6504
vn 0.6233 0.6468 0.4394
vn 0.2609 0.8569 0.4446
vn 0.1203 0.8599 0.4960
vn 0.3922 0.6504 0.6504
vn 0.1203 0.8599 0.4960
vn 0.1906 0.7009 0.6873
vn 0.3922 0.6504 0.6504
vn 0.1203 0.8599 0.4960
vn -0.0010 0.8813 0.4725
vn 0.1906 0.7009 0.6873
vn -0.0010 0.8813 0.4725
vn 0.0205 0.7729 0.6342
vn 0.1906 0.7009 0.6873
vn -0.0010 0.8813 0.4725
vn -0.1084 0.9094 0.4015
vn 0.0205 0.7729 0.6342
vn -0.1084 0.9094 0.4015
vn -0.1496 0.8401 0.5213
vn 0.0205 0.7729 0.6342
vn -0.1084 0.9094 0.4015
vn -0.1924 0.9368 0.2921
vn -0.1496 0.8401 0.5213
vn -0.1924 0.9368 0.2921
vn -0.2979 0.8799 0.3701
vn -0.1496 0.8401 0.5213
vn -0.1924 0.9368 0.2921
vn -0.2454 0.9572 0.1535
vn -0.2979 0.8799 0.3701
vn -0.2454 0.9572 0.1535
vn -0.3979 0.8966 0.1946
vn -0.2979 0.8799 0.3701
vn -0.2454 0.9572 0.1535
vn -0.2611 0.9653 -0.0068
vn -0.3979 0.8966 0.1946
vn -0.2611 0.9653 -0.0068
vn -0.4287 0.9034 -0.0088
vn -0.3979 0.8966 0.1946
vn -0.2611 0.9653 -0.0068
vn -0.3742 0.8999 -0.2238
vn -0.4287 0.9034 -0.0088
vn -0.3742 0.8999 -0.2238
vn -0.4660 0.8490 -0.2491
vn -0.4287 0.9034 -0.0088
vn -0.3742 0.8999 -0.2238
vn -0.3099 0.8340 -0.4566
vn -0.4660 0.8490 -0.2491
vn -0.3742 0.8999 -0.2238
vn -0.2611 0.8732 -0.4116
vn -0.3099 0.8340 -0.4566
vn -0.2611 0.8732 -0.4116
vn -0.1378 0.7887 -0.5991
vn -0.3099 0.8340 -0.4566
vn -0.2611 0.8732 -0.4116
vn -0.1223 0.8269 -0.5490
vn -0.1378 0.7887 -0.5991
vn -0.1223 0.8269 -0.5490
vn 0.0655 0.7124 -0.6987
vn -0.1378 0.7887 -0.5991
vn -0.1223 0.8269 -0.5490
vn 0.0499 0.7615 -0.6462
vn 0.0655 0.7124 -0.6987
vn 0.0499 0.7615 -0.6462
vn 0.2491 0.6184 -0.7454
vn 0.0655 0.7124 -0.6987
vn 0.0499 0.7615 -0.6462
vn 0.2201 0.6917 -0.6878
vn 0.2491 0.6184 -0.7454
vn 0.2201 0.6917 -0.6878
vn 0.4685 0.5546 -0.6876
vn 0.2491 0.6184 -0.7454
vn 0.2201 0.6917 -0.6878
vn 0.4212 0.6558 -0.6265
vn 0.4685 0.5546 -0.6876
vn 0.4212 0.6558 -0.6265
vn 0.7298 0.5227 -0.4406
vn 0.4685 0.5546 -0.6876
vn 0.4212 0.6558 -0.6265
vn 0.6496 0.6516 -0.3917
vn 0.7298 0.5227 -0.4406
vn 0.2824 0.8590 -0.4271
vn 0.6496 0.6516 -0.3917
vn 0.4212 0.6558 -0.6265
vn 0.2824 0.8590 -0.4271
vn 0.4152 0.8744 -0.2511
vn 0.6496 0.6516 -0.3917
vn 0.4152 0.8744 -0.2511
vn 0.4647 0.8854 0.0147
vn 0.6496 0.6516 -0.3917
vn 0.0186 0.9998 0.0010
vn 0.4647 0.8854 0.0147
vn 0.4152 0.8744 -0.2511
vn 0.2824 0.8590 -0.4271
vn 0.0186 0.9998 0.0010
vn 0.4152 0.8744 -0.2511
vn 0.0186 0.9998 0.0010
vn 0.3999 0.8732 0.2787
vn 0.4647 0.8854 0.0147
vn 0.0186 0.9998 0.0010
vn 0.2609 0.8569 0.4446
vn 0.3999 0.8732 0.2787
vn 0.0186 0.9998 0.0010
vn 0.1203 0.8599 0.4960
vn 0.2609 0.8569 0.4446
vn 0.0186 0.9998 0.0010
vn -0.0010 0.8813 0.4725
vn 0.1203 0.8599 0.4960
vn 0.0186 0.9998 0.0010
vn -0.1084 0.9094 0.4015
vn -0.0010 0.8813 0.4725
vn 0.0186 0.9998 0.0010
vn -0.1924 0.9368 0.2921
vn -0.1084 0.9094 0.4015
vn 0.0186 0.9998 0.0010
vn -0.2454 0.9572 0.1535
vn -0.1924 0.9368 0.2921
vn 0.0186 0.9998 0.0010
vn -0.2611 0.9653 -0.0068
vn -0.2454 0.9572 0.1535
vn 0.0186 0.9998 0.0010
vn -0.2355 0.9567 -0.1710
vn -0.2611 0.9653 -0.0068
vn -0.2355 0.9567 -0.1710
vn -0.3742 0.8999 -0.2238
vn -0.2611 0.9653 -0.0068
vn -0.2355 0.9567 -0.1710
vn -0.2611 0.8732 -0.4116
vn -0.3742 0.8999 -0.2238
vn -0.2355 0.9567 -0.1710
vn -0.1748 0.9347 -0.3096
vn -0.2611 0.8732 -0.4116
vn 0.0186 0.9998 0.0010
vn -0.1748 0.9347 -0.3096
vn -0.2355 0.9567 -0.1710
vn -0.1748 0.9347 -0.3096
vn -0.1223 0.8269 -0.5490
vn -0.2611 0.8732 -0.4116
vn -0.1748 0.9347 -0.3096
vn -0.0889 0.9072 -0.4111
vn -0.1223 0.8269 -0.5490
vn 0.0186 0.9998 0.0010
vn -0.0889 0.9072 -0.4111
vn -0.1748 0.9347 -0.3096
vn -0.0889 0.9072 -0.4111
vn 0.0499 0.7615 -0.6462
vn -0.1223 0.8269 -0.5490
vn -0.0889 0.9072 -0.4111
vn 0.0225 0.8791 -0.4762
vn 0.0499 0.7615 -0.6462
vn 0.0186 0.9998 0.0010
vn 0.0225 0.8791 -0.4762
vn -0.0889 0.9072 -0.4111
vn 0.1436 0.8589 -0.4915
vn 0.0225 0.8791 -0.4762
vn 0.0186 0.9998 0.0010
vn 0.2824 0.8590 -0.4271
vn 0.1436 0.8589 -0.4915
vn 0.0186 0.9998 0.0010
vn 0.4212 0.6558 -0.6265
vn 0.1436 0.8589 -0.4915
vn 0.2824 0.8590 -0.4271
vn 0.2201 0.6917 -0.6878
vn 0.1436 0.8589 -0.4915
vn 0.4212 0.6558 -0.6265
vn 0.2201 0.6917 -0.6878
vn 0.0225 0.8791 -0.4762
vn 0.1436 0.8589 -0.4915
vn 0.0225 0.8791 -0.4762
vn 0.2201 0.6917 -0.6878
vn 0.0499 0.7615 -0.6462
# 240 vertex normals

vt 0.9033 0.5723 0.0000
vt 0.9014 0.5581 0.0000
vt 0.8901 0.5725 0.0000
vt 0.9004 0.5854 0.0000
vt 0.8877 0.5823 0.0000
vt 0.8931 0.5974 0.0000
vt 0.8809 0.5911 0.0000
vt 0.8789 0.6060 0.0000
vt 0.8696 0.5969 0.0000
vt 0.8618 0.6067 0.0000
vt 0.8569 0.5984 0.0000
vt 0.8462 0.6028 0.0000
vt 0.8447 0.5957 0.0000
vt 0.8315 0.5957 0.0000
vt 0.8330 0.5901 0.0000
vt 0.8198 0.5845 0.0000
vt 0.8242 0.5815 0.0000
vt 0.8208 0.5715 0.0000
vt 0.8154 0.5715 0.0000
vt 0.8198 0.5588 0.0000
vt 0.8242 0.5618 0.0000
vt 0.8330 0.5718 0.0000
vt 0.8340 0.5759 0.0000
vt 0.8369 0.5796 0.0000
vt 0.8418 0.5820 0.0000
vt 0.8467 0.5828 0.0000
vt 0.8521 0.5820 0.0000
vt 0.8564 0.5798 0.0000
vt 0.8594 0.5762 0.0000
vt 0.8608 0.5720 0.0000
vt 0.8877 0.5623 0.0000
vt 0.8926 0.5471 0.0000
vt 0.8809 0.5537 0.0000
vt 0.8784 0.5400 0.0000
vt 0.8701 0.5481 0.0000
vt 0.8623 0.5381 0.0000
vt 0.8574 0.5461 0.0000
vt 0.8462 0.5420 0.0000
vt 0.8452 0.5483 0.0000
vt 0.8311 0.5481 0.0000
vt 0.8330 0.5535 0.0000
vt 0.8369 0.5642 0.0000
vt 0.8340 0.5676 0.0000
vt 0.8447 0.5720 0.0000
vt 0.8599 0.5679 0.0000
vt 0.8564 0.5645 0.0000
vt 0.8521 0.5620 0.0000
vt 0.8472 0.5610 0.0000
vt 0.8418 0.5618 0.0000
# 49 texture coords

o SM_Limpet_04_LOD0
g SM_Limpet_04_LOD0
usemtl MAT_Sea_Shells
s 1
f 27/3/1 28/2/2 1/1/3 
f 2/4/4 27/3/5 1/1/6 
f 4/5/7 27/3/8 2/4/9 
f 3/6/10 4/5/11 2/4/12 
f 5/7/13 4/5/14 3/6/15 
f 6/8/16 5/7/17 3/6/18 
f 7/9/19 5/7/20 6/8/21 
f 8/10/22 7/9/23 6/8/24 
f 10/11/25 7/9/26 8/10/27 
f 9/12/28 10/11/29 8/10/30 
f 22/13/31 10/11/32 9/12/33 
f 11/14/34 22/13/35 9/12/36 
f 12/15/37 22/13/38 11/14/39 
f 13/16/40 12/15/41 11/14/42 
f 18/17/43 12/15/44 13/16/45 
f 14/18/46 18/17/47 13/16/48 
f 15/19/49 14/18/50 13/16/51 
f 16/20/52 14/18/53 15/19/54 
f 16/20/55 37/21/56 14/18/57 
f 37/21/58 17/22/59 14/18/60 
f 17/22/61 18/17/62 14/18/63 
f 17/22/64 19/23/65 18/17/66 
f 19/23/67 21/24/68 18/17/69 
f 21/24/70 12/15/71 18/17/72 
f 21/24/73 20/25/74 12/15/75 
f 20/25/76 22/13/77 12/15/78 
f 20/25/79 39/26/80 22/13/81 
f 39/26/82 10/11/83 22/13/84 
f 39/26/85 23/27/86 10/11/87 
f 23/27/88 7/9/89 10/11/90 
f 23/27/91 24/28/92 7/9/93 
f 24/28/94 5/7/95 7/9/96 
f 24/28/97 25/29/98 5/7/99 
f 25/29/100 4/5/101 5/7/102 
f 25/29/103 40/30/104 4/5/105 
f 40/30/106 27/3/107 4/5/108 
f 40/30/109 26/31/110 27/3/111 
f 26/31/112 28/2/113 27/3/114 
f 26/31/115 29/32/116 28/2/117 
f 26/31/118 31/33/119 29/32/120 
f 31/33/121 30/34/122 29/32/123 
f 31/33/124 43/35/125 30/34/126 
f 43/35/127 33/36/128 30/34/129 
f 43/35/130 32/37/131 33/36/132 
f 32/37/133 34/38/134 33/36/135 
f 32/37/136 49/39/137 34/38/138 
f 49/39/139 35/40/140 34/38/141 
f 49/39/142 48/41/143 35/40/144 
f 48/41/145 16/20/146 35/40/147 
f 48/41/148 37/21/149 16/20/150 
f 36/42/151 37/21/152 48/41/153 
f 36/42/154 38/43/155 37/21/156 
f 38/43/157 17/22/158 37/21/159 
f 46/44/160 17/22/161 38/43/162 
f 36/42/163 46/44/164 38/43/165 
f 46/44/166 19/23/167 17/22/168 
f 46/44/169 21/24/170 19/23/171 
f 46/44/172 20/25/173 21/24/174 
f 46/44/175 39/26/176 20/25/177 
f 46/44/178 23/27/179 39/26/180 
f 46/44/181 24/28/182 23/27/183 
f 46/44/184 25/29/185 24/28/186 
f 46/44/187 40/30/188 25/29/189 
f 46/44/190 41/45/191 40/30/192 
f 41/45/193 26/31/194 40/30/195 
f 41/45/196 31/33/197 26/31/198 
f 41/45/199 42/46/200 31/33/201 
f 46/44/202 42/46/203 41/45/204 
f 42/46/205 43/35/206 31/33/207 
f 42/46/208 45/47/209 43/35/210 
f 46/44/211 45/47/212 42/46/213 
f 45/47/214 32/37/215 43/35/216 
f 45/47/217 44/48/218 32/37/219 
f 46/44/220 44/48/221 45/47/222 
f 47/49/223 44/48/224 46/44/225 
f 36/42/226 47/49/227 46/44/228 
f 48/41/229 47/49/230 36/42/231 
f 49/39/232 47/49/233 48/41/234 
f 49/39/235 44/48/236 47/49/237 
f 44/48/238 49/39/239 32/37/240 
# 80 faces

#
# object SM_Limpet_04_LOD1
#

v  -2.8026 -0.0000 -1.0541
v  2.9703 0.0000 0.0589
v  -1.4194 0.0000 2.1831
v  -0.1077 -0.0000 -2.2760
v  2.6415 0.0000 0.8975
v  1.9650 -0.0000 -1.5412
v  -0.2540 0.0000 2.2760
v  -2.8281 0.0000 0.7646
v  2.6993 -0.0000 -0.7913
v  1.8093 0.0000 1.6170
v  -2.3573 0.0000 1.5808
v  -1.2035 -0.0000 -2.1964
v  -2.1931 -0.0000 -1.7667
v  -2.9703 -0.0000 -0.1213
v  0.8205 0.0000 2.0472
v  0.9535 -0.0000 -1.9850
v  0.9445 1.4693 0.0071
v  1.5201 1.2232 -0.4894
v  1.4876 1.2232 0.5336
v  2.4047 0.5801 -0.6092
v  0.1637 1.2232 0.4981
v  -1.9119 0.5801 -0.7399
v  -1.7440 0.5634 0.8660
v  1.5867 0.5370 1.3137
v  0.1962 1.2232 -0.5248
v  1.7518 0.5398 -1.2279
v  -0.9192 0.5193 -1.5229
v  2.3620 0.5801 0.7000
v  2.5928 0.5947 0.0501
v  1.7755 1.2405 0.0293
v  -2.0934 0.5947 -0.0751
v  0.8585 1.2056 -0.7192
v  0.8126 1.2056 0.7275
# 33 vertices

vn 0.0500 0.8601 -0.5077
vn 0.3778 0.6613 -0.6480
vn 0.0269 0.7790 -0.6265
vn 0.0219 0.8629 0.5049
vn -0.1852 0.8546 0.4852
vn 0.0105 0.7844 0.6202
vn 0.3149 0.8583 -0.4051
vn 0.4682 0.8835 0.0149
vn 0.6537 0.6352 -0.4113
vn -0.2402 0.9457 0.2189
vn -0.3294 0.9003 0.2846
vn -0.1852 0.8546 0.4852
vn 0.0500 0.8601 -0.5077
vn 0.0269 0.7790 -0.6265
vn -0.1617 0.8519 -0.4981
vn 0.3778 0.6613 -0.6480
vn 0.7207 0.5294 -0.4475
vn 0.4650 0.5746 -0.6735
vn -0.5004 0.8451 0.1882
vn -0.4235 0.9058 0.0171
vn -0.5610 0.8278 -0.0072
vn 0.0219 0.8629 0.5049
vn 0.0105 0.7844 0.6202
vn 0.3338 0.6630 0.6701
vn 0.3778 0.6613 -0.6480
vn 0.6537 0.6352 -0.4113
vn 0.7207 0.5294 -0.4475
vn -0.1996 0.9429 -0.2665
vn -0.1617 0.8519 -0.4981
vn -0.3535 0.9023 -0.2468
vn -0.3535 0.9023 -0.2468
vn -0.1617 0.8519 -0.4981
vn -0.3201 0.8468 -0.4248
vn 0.0122 0.9999 0.0011
vn -0.4235 0.9058 0.0171
vn -0.3294 0.9003 0.2846
vn -0.3294 0.9003 0.2846
vn -0.4235 0.9058 0.0171
vn -0.5004 0.8451 0.1882
vn 0.3338 0.6630 0.6701
vn 0.0105 0.7844 0.6202
vn 0.1809 0.6939 0.6970
vn 0.4682 0.8835 0.0149
vn 0.6245 0.6304 0.4610
vn 0.7581 0.6516 0.0246
vn 0.2942 0.8560 0.4250
vn 0.3338 0.6630 0.6701
vn 0.6245 0.6304 0.4610
vn 0.3778 0.6613 -0.6480
vn 0.4650 0.5746 -0.6735
vn 0.2172 0.6720 -0.7080
vn 0.0269 0.7790 -0.6265
vn 0.3778 0.6613 -0.6480
vn 0.2172 0.6720 -0.7080
vn 0.2942 0.8560 0.4250
vn 0.0219 0.8629 0.5049
vn 0.3338 0.6630 0.6701
vn 0.0122 0.9999 0.0011
vn 0.4682 0.8835 0.0149
vn 0.3149 0.8583 -0.4051
vn 0.8438 0.5360 0.0267
vn 0.7581 0.6516 0.0246
vn 0.6866 0.5267 0.5011
vn 0.7207 0.5294 -0.4475
vn 0.7581 0.6516 0.0246
vn 0.8438 0.5360 0.0267
vn -0.2402 0.9457 0.2189
vn 0.0122 0.9999 0.0011
vn -0.3294 0.9003 0.2846
vn 0.0122 0.9999 0.0011
vn 0.0219 0.8629 0.5049
vn 0.2942 0.8560 0.4250
vn -0.3535 0.9023 -0.2468
vn -0.3201 0.8468 -0.4248
vn -0.4844 0.8431 -0.2333
vn -0.4235 0.9058 0.0171
vn -0.4844 0.8431 -0.2333
vn -0.5610 0.8278 -0.0072
vn -0.3687 0.8573 0.3593
vn -0.3294 0.9003 0.2846
vn -0.5004 0.8451 0.1882
vn -0.1852 0.8546 0.4852
vn -0.3294 0.9003 0.2846
vn -0.3687 0.8573 0.3593
vn 0.6866 0.5267 0.5011
vn 0.3338 0.6630 0.6701
vn 0.4390 0.5729 0.6921
vn 0.4390 0.5729 0.6921
vn 0.3338 0.6630 0.6701
vn 0.1809 0.6939 0.6970
vn -0.1996 0.9429 -0.2665
vn -0.3535 0.9023 -0.2468
vn 0.0122 0.9999 0.0011
vn 0.3149 0.8583 -0.4051
vn 0.0500 0.8601 -0.5077
vn 0.0122 0.9999 0.0011
vn 0.3778 0.6613 -0.6480
vn 0.0500 0.8601 -0.5077
vn 0.3149 0.8583 -0.4051
vn 0.3149 0.8583 -0.4051
vn 0.6537 0.6352 -0.4113
vn 0.3778 0.6613 -0.6480
vn -0.1617 0.8519 -0.4981
vn -0.1462 0.8123 -0.5647
vn -0.3201 0.8468 -0.4248
vn -0.1617 0.8519 -0.4981
vn 0.0269 0.7790 -0.6265
vn -0.1462 0.8123 -0.5647
vn 0.7581 0.6516 0.0246
vn 0.6245 0.6304 0.4610
vn 0.6866 0.5267 0.5011
vn 0.6245 0.6304 0.4610
vn 0.3338 0.6630 0.6701
vn 0.6866 0.5267 0.5011
vn 0.7207 0.5294 -0.4475
vn 0.6537 0.6352 -0.4113
vn 0.7581 0.6516 0.0246
vn 0.6537 0.6352 -0.4113
vn 0.4682 0.8835 0.0149
vn 0.7581 0.6516 0.0246
vn 0.4682 0.8835 0.0149
vn 0.2942 0.8560 0.4250
vn 0.6245 0.6304 0.4610
vn 0.0122 0.9999 0.0011
vn 0.2942 0.8560 0.4250
vn 0.4682 0.8835 0.0149
vn 0.0122 0.9999 0.0011
vn -0.3535 0.9023 -0.2468
vn -0.4235 0.9058 0.0171
vn -0.3535 0.9023 -0.2468
vn -0.4844 0.8431 -0.2333
vn -0.4235 0.9058 0.0171
vn 0.0122 0.9999 0.0011
vn 0.0500 0.8601 -0.5077
vn -0.1996 0.9429 -0.2665
vn -0.1996 0.9429 -0.2665
vn 0.0500 0.8601 -0.5077
vn -0.1617 0.8519 -0.4981
vn 0.0219 0.8629 0.5049
vn -0.2402 0.9457 0.2189
vn -0.1852 0.8546 0.4852
vn 0.0122 0.9999 0.0011
vn -0.2402 0.9457 0.2189
vn 0.0219 0.8629 0.5049
# 144 vertex normals

vt 0.8154 0.5715 0.0000
vt 0.9014 0.5581 0.0000
vt 0.8789 0.6060 0.0000
vt 0.8454 0.5720 0.0000
vt 0.8623 0.5381 0.0000
vt 0.8198 0.5845 0.0000
vt 0.8877 0.5623 0.0000
vt 0.8311 0.5481 0.0000
vt 0.8618 0.6067 0.0000
vt 0.9004 0.5854 0.0000
vt 0.8369 0.5796 0.0000
vt 0.8369 0.5642 0.0000
vt 0.8198 0.5588 0.0000
vt 0.8315 0.5957 0.0000
vt 0.8931 0.5974 0.0000
vt 0.8901 0.5725 0.0000
vt 0.8564 0.5645 0.0000
vt 0.8784 0.5400 0.0000
vt 0.8926 0.5471 0.0000
vt 0.8564 0.5798 0.0000
vt 0.8343 0.5529 0.0000
vt 0.8330 0.5718 0.0000
vt 0.9033 0.5723 0.0000
vt 0.8462 0.6028 0.0000
vt 0.8242 0.5815 0.0000
vt 0.8242 0.5618 0.0000
vt 0.8208 0.5715 0.0000
vt 0.8472 0.5610 0.0000
vt 0.8845 0.5863 0.0000
vt 0.8467 0.5828 0.0000
vt 0.8351 0.5911 0.0000
vt 0.8462 0.5420 0.0000
vt 0.8739 0.5501 0.0000
# 33 texture coords

o SM_Limpet_04_LOD1
g SM_Limpet_04_LOD1
usemtl MAT_Sea_Shells
s 1
f 81/77/241 75/70/242 53/54/243 
f 82/79/244 52/52/245 56/58/246 
f 67/61/247 79/71/248 69/75/249 
f 70/69/250 72/78/251 52/52/252 
f 81/77/253 53/54/254 76/82/255 
f 75/70/256 58/62/257 55/57/258 
f 57/59/259 80/65/260 63/72/261 
f 82/79/262 56/58/263 73/80/264 
f 75/70/265 69/75/266 58/62/267 
f 74/66/268 76/82/269 71/56/270 
f 71/56/271 76/82/272 62/68/273 
f 66/53/274 80/65/275 72/78/276 
f 72/78/277 80/65/278 57/59/279 
f 73/80/280 56/58/281 64/73/282 
f 79/71/283 77/74/284 78/76/285 
f 68/60/286 73/80/287 77/74/288 
f 75/70/289 55/57/290 65/81/291 
f 53/54/292 75/70/293 65/81/294 
f 68/60/295 82/79/296 73/80/297 
f 66/53/298 79/71/299 67/61/300 
f 51/50/301 78/76/302 54/55/303 
f 58/62/304 78/76/305 51/50/306 
f 70/69/307 66/53/308 72/78/309 
f 66/53/310 82/79/311 68/60/312 
f 71/56/313 62/68/314 50/51/315 
f 80/65/316 50/51/317 63/72/318 
f 60/64/319 72/78/320 57/59/321 
f 52/52/322 72/78/323 60/64/324 
f 54/55/325 73/80/326 59/63/327 
f 59/63/328 73/80/329 64/73/330 
f 74/66/331 71/56/332 66/53/333 
f 67/61/334 81/77/335 66/53/336 
f 75/70/337 81/77/338 67/61/339 
f 67/61/340 69/75/341 75/70/342 
f 76/82/343 61/67/344 62/68/345 
f 76/82/346 53/54/347 61/67/348 
f 78/76/349 77/74/350 54/55/351 
f 77/74/352 73/80/353 54/55/354 
f 58/62/355 69/75/356 78/76/357 
f 69/75/358 79/71/359 78/76/360 
f 79/71/361 68/60/362 77/74/363 
f 66/53/364 68/60/365 79/71/366 
f 66/53/367 71/56/368 80/65/369 
f 71/56/370 50/51/371 80/65/372 
f 66/53/373 81/77/374 74/66/375 
f 74/66/376 81/77/377 76/82/378 
f 82/79/379 70/69/380 52/52/381 
f 66/53/382 70/69/383 82/79/384 
# 48 faces

