# 3ds Max Wavefront OBJ Exporter v0.97b - (c)2007 guruware
# File Created: 10.02.2024 08:45:31

mtllib SM_Limpet_02.mtl

#
# object SM_Limpet_02_LOD0
#

v  -3.9721 -0.0000 -1.4276
v  -4.2976 -0.0000 -0.0000
v  -3.9721 0.0000 1.4275
v  -3.0411 0.0000 2.6376
v  -2.6908 0.9822 1.1083
v  -1.9272 0.9209 2.0479
v  -1.6390 0.0000 3.4463
v  0.0181 0.0000 3.7302
v  0.5014 0.8298 2.8961
v  1.7757 0.8569 2.6756
v  1.6676 0.0000 3.4463
v  3.0550 0.0000 2.6376
v  2.8363 0.9209 2.0479
v  3.5361 0.9822 1.1082
v  3.9757 0.0000 1.4275
v  3.7800 1.0070 -0.0000
v  4.2976 0.0000 -0.0000
v  3.9757 -0.0000 -1.4275
v  3.0550 -0.0000 -2.6377
v  2.8363 0.9209 -2.0479
v  1.6676 -0.0000 -3.4463
v  1.7757 0.8569 -2.6757
v  0.0181 -0.0000 -3.7303
v  -1.6390 -0.0000 -3.4463
v  -3.0412 -0.0000 -2.6377
v  -2.6908 0.9822 -1.1083
v  -2.9612 1.0070 -0.0000
v  -0.3002 2.0919 0.4689
v  -0.8007 0.8569 2.6756
v  0.4814 2.0502 1.1320
v  1.0249 2.0414 1.2253
v  1.5611 2.0502 1.1320
v  3.5361 0.9822 -1.1083
v  1.5611 2.0502 -1.1321
v  0.5014 0.8298 -2.8961
v  1.0248 2.0414 -1.2254
v  -0.8007 0.8569 -2.6757
v  0.4814 2.0502 -1.1321
v  -1.9272 0.9209 -2.0479
v  -0.3002 2.0919 -0.4689
v  0.0147 2.0712 -0.8665
v  2.0104 2.0712 -0.8665
v  2.3082 2.0919 -0.4689
v  2.4122 2.1004 -0.0000
v  2.3082 2.0919 0.4689
v  2.0104 2.0712 0.8664
v  0.0147 2.0712 0.8664
v  1.0825 2.5036 -0.0001
v  -0.4114 2.1004 -0.0000
# 49 vertices

vn -0.4977 0.8673 0.0010
vn -0.5366 0.7986 -0.2727
vn -0.5936 0.8048 0.0010
vn -0.5366 0.7986 0.2727
vn -0.4977 0.8673 0.0010
vn -0.5936 0.8048 0.0010
vn -0.4524 0.8569 0.2472
vn -0.4977 0.8673 0.0010
vn -0.5366 0.7986 0.2727
vn -0.3920 0.7812 0.4859
vn -0.4524 0.8569 0.2472
vn -0.5366 0.7986 0.2727
vn -0.3352 0.8317 0.4427
vn -0.4524 0.8569 0.2472
vn -0.3920 0.7812 0.4859
vn -0.2062 0.7516 0.6265
vn -0.3352 0.8317 0.4427
vn -0.3920 0.7812 0.4859
vn -0.1788 0.7981 0.5754
vn -0.3352 0.8317 0.4427
vn -0.2062 0.7516 0.6265
vn 0.0068 0.7002 0.7139
vn -0.1788 0.7981 0.5754
vn -0.2062 0.7516 0.6265
vn 0.0049 0.7579 0.6523
vn -0.1788 0.7981 0.5754
vn 0.0068 0.7002 0.7139
vn 0.2649 0.6228 0.7362
vn 0.0049 0.7579 0.6523
vn 0.0068 0.7002 0.7139
vn 0.2296 0.7122 0.6634
vn 0.0049 0.7579 0.6523
vn 0.2649 0.6228 0.7362
vn 0.5544 0.5407 0.6326
vn 0.2296 0.7122 0.6634
vn 0.2649 0.6228 0.7362
vn 0.4781 0.6698 0.5681
vn 0.2296 0.7122 0.6634
vn 0.5544 0.5407 0.6326
vn 0.7945 0.4798 0.3723
vn 0.4781 0.6698 0.5681
vn 0.5544 0.5407 0.6326
vn 0.6884 0.6434 0.3349
vn 0.4781 0.6698 0.5681
vn 0.7945 0.4798 0.3723
vn 0.8879 0.4601 -0.0010
vn 0.6884 0.6434 0.3349
vn 0.7945 0.4798 0.3723
vn 0.7731 0.6343 -0.0010
vn 0.6884 0.6434 0.3349
vn 0.8879 0.4601 -0.0010
vn 0.6884 0.6434 -0.3349
vn 0.7731 0.6343 -0.0010
vn 0.8879 0.4601 -0.0010
vn 0.7945 0.4798 -0.3723
vn 0.6884 0.6434 -0.3349
vn 0.8879 0.4601 -0.0010
vn 0.4781 0.6698 -0.5681
vn 0.6884 0.6434 -0.3349
vn 0.7945 0.4798 -0.3723
vn 0.5544 0.5407 -0.6326
vn 0.4781 0.6698 -0.5681
vn 0.7945 0.4798 -0.3723
vn 0.2296 0.7122 -0.6634
vn 0.4781 0.6698 -0.5681
vn 0.5544 0.5407 -0.6326
vn 0.2649 0.6228 -0.7362
vn 0.2296 0.7122 -0.6634
vn 0.5544 0.5407 -0.6326
vn 0.0049 0.7579 -0.6523
vn 0.2296 0.7122 -0.6634
vn 0.2649 0.6228 -0.7362
vn 0.0068 0.7002 -0.7139
vn 0.0049 0.7579 -0.6523
vn 0.2649 0.6228 -0.7362
vn -0.1788 0.7981 -0.5754
vn 0.0049 0.7579 -0.6523
vn 0.0068 0.7002 -0.7139
vn -0.2062 0.7516 -0.6265
vn -0.1788 0.7981 -0.5754
vn 0.0068 0.7002 -0.7139
vn -0.3352 0.8317 -0.4427
vn -0.1788 0.7981 -0.5754
vn -0.2062 0.7516 -0.6265
vn -0.3920 0.7812 -0.4859
vn -0.3352 0.8317 -0.4427
vn -0.2062 0.7516 -0.6265
vn -0.4524 0.8569 -0.2472
vn -0.3352 0.8317 -0.4427
vn -0.3920 0.7812 -0.4859
vn -0.5366 0.7986 -0.2727
vn -0.4524 0.8569 -0.2472
vn -0.3920 0.7812 -0.4859
vn -0.4977 0.8673 0.0010
vn -0.4524 0.8569 -0.2472
vn -0.5366 0.7986 -0.2727
vn -0.3273 0.9449 0.0010
vn -0.4524 0.8569 -0.2472
vn -0.4977 0.8673 0.0010
vn -0.4524 0.8569 0.2472
vn -0.3273 0.9449 0.0010
vn -0.4977 0.8673 0.0010
vn -0.3003 0.9361 0.1829
vn -0.3273 0.9449 0.0010
vn -0.4524 0.8569 0.2472
vn -0.3352 0.8317 0.4427
vn -0.3003 0.9361 0.1829
vn -0.4524 0.8569 0.2472
vn -0.2240 0.9165 0.3316
vn -0.3003 0.9361 0.1829
vn -0.3352 0.8317 0.4427
vn -0.1788 0.7981 0.5754
vn -0.2240 0.9165 0.3316
vn -0.3352 0.8317 0.4427
vn -0.1201 0.8954 0.4287
vn -0.2240 0.9165 0.3316
vn -0.1788 0.7981 0.5754
vn 0.0049 0.7579 0.6523
vn -0.1201 0.8954 0.4287
vn -0.1788 0.7981 0.5754
vn 0.0029 0.8805 0.4740
vn -0.1201 0.8954 0.4287
vn 0.0049 0.7579 0.6523
vn 0.2296 0.7122 0.6634
vn 0.0029 0.8805 0.4740
vn 0.0049 0.7579 0.6523
vn 0.1438 0.8737 0.4647
vn 0.0029 0.8805 0.4740
vn 0.2296 0.7122 0.6634
vn 0.4781 0.6698 0.5681
vn 0.1438 0.8737 0.4647
vn 0.2296 0.7122 0.6634
vn 0.2925 0.8756 0.3845
vn 0.1438 0.8737 0.4647
vn 0.4781 0.6698 0.5681
vn 0.6884 0.6434 0.3349
vn 0.2925 0.8756 0.3845
vn 0.4781 0.6698 0.5681
vn 0.4152 0.8823 0.2218
vn 0.2925 0.8756 0.3845
vn 0.6884 0.6434 0.3349
vn 0.7731 0.6343 -0.0010
vn 0.4152 0.8823 0.2218
vn 0.6884 0.6434 0.3349
vn 0.4647 0.8854 -0.0010
vn 0.4152 0.8823 0.2218
vn 0.7731 0.6343 -0.0010
vn 0.4152 0.8823 -0.2218
vn 0.4647 0.8854 -0.0010
vn 0.7731 0.6343 -0.0010
vn 0.6884 0.6434 -0.3349
vn 0.4152 0.8823 -0.2218
vn 0.7731 0.6343 -0.0010
vn 0.2925 0.8756 -0.3845
vn 0.4152 0.8823 -0.2218
vn 0.6884 0.6434 -0.3349
vn 0.4781 0.6698 -0.5681
vn 0.2925 0.8756 -0.3845
vn 0.6884 0.6434 -0.3349
vn 0.1438 0.8737 -0.4647
vn 0.2925 0.8756 -0.3845
vn 0.4781 0.6698 -0.5681
vn 0.2296 0.7122 -0.6634
vn 0.1438 0.8737 -0.4647
vn 0.4781 0.6698 -0.5681
vn 0.0029 0.8805 -0.4740
vn 0.1438 0.8737 -0.4647
vn 0.2296 0.7122 -0.6634
vn 0.0049 0.7579 -0.6523
vn 0.0029 0.8805 -0.4740
vn 0.2296 0.7122 -0.6634
vn -0.1201 0.8954 -0.4287
vn 0.0029 0.8805 -0.4740
vn 0.0049 0.7579 -0.6523
vn -0.1788 0.7981 -0.5754
vn -0.1201 0.8954 -0.4287
vn 0.0049 0.7579 -0.6523
vn -0.2240 0.9165 -0.3316
vn -0.1201 0.8954 -0.4287
vn -0.1788 0.7981 -0.5754
vn -0.3352 0.8317 -0.4427
vn -0.2240 0.9165 -0.3316
vn -0.1788 0.7981 -0.5754
vn -0.3003 0.9361 -0.1829
vn -0.2240 0.9165 -0.3316
vn -0.3352 0.8317 -0.4427
vn -0.4524 0.8569 -0.2472
vn -0.3003 0.9361 -0.1829
vn -0.3352 0.8317 -0.4427
vn -0.3273 0.9449 0.0010
vn -0.3003 0.9361 -0.1829
vn -0.4524 0.8569 -0.2472
vn 0.0088 1.0000 -0.0010
vn -0.3003 0.9361 -0.1829
vn -0.3273 0.9449 0.0010
vn 0.0088 1.0000 -0.0010
vn -0.2240 0.9165 -0.3316
vn -0.3003 0.9361 -0.1829
vn 0.0088 1.0000 -0.0010
vn -0.1201 0.8954 -0.4287
vn -0.2240 0.9165 -0.3316
vn 0.0088 1.0000 -0.0010
vn 0.0029 0.8805 -0.4740
vn -0.1201 0.8954 -0.4287
vn 0.0088 1.0000 -0.0010
vn 0.1438 0.8737 -0.4647
vn 0.0029 0.8805 -0.4740
vn 0.0088 1.0000 -0.0010
vn 0.2925 0.8756 -0.3845
vn 0.1438 0.8737 -0.4647
vn 0.0088 1.0000 -0.0010
vn 0.4152 0.8823 -0.2218
vn 0.2925 0.8756 -0.3845
vn 0.0088 1.0000 -0.0010
vn 0.4647 0.8854 -0.0010
vn 0.4152 0.8823 -0.2218
vn 0.0088 1.0000 -0.0010
vn 0.4152 0.8823 0.2218
vn 0.4647 0.8854 -0.0010
vn 0.0088 1.0000 -0.0010
vn 0.2925 0.8756 0.3845
vn 0.4152 0.8823 0.2218
vn 0.0088 1.0000 -0.0010
vn 0.1438 0.8737 0.4647
vn 0.2925 0.8756 0.3845
vn 0.0088 1.0000 -0.0010
vn 0.0029 0.8805 0.4740
vn 0.1438 0.8737 0.4647
vn 0.0088 1.0000 -0.0010
vn -0.1201 0.8954 0.4287
vn 0.0029 0.8805 0.4740
vn 0.0088 1.0000 -0.0010
vn -0.2240 0.9165 0.3316
vn -0.1201 0.8954 0.4287
vn 0.0088 1.0000 -0.0010
vn -0.3003 0.9361 0.1829
vn -0.2240 0.9165 0.3316
vn -0.3273 0.9449 0.0010
vn -0.3003 0.9361 0.1829
vn 0.0088 1.0000 -0.0010
# 240 vertex normals

vt 0.1256 0.1836 0.0000
vt 0.1283 0.2002 0.0000
vt 0.1366 0.1841 0.0000
vt 0.1294 0.1670 0.0000
vt 0.1401 0.1714 0.0000
vt 0.1406 0.1543 0.0000
vt 0.1492 0.1616 0.0000
vt 0.1559 0.1470 0.0000
vt 0.1624 0.1548 0.0000
vt 0.1732 0.1445 0.0000
vt 0.1774 0.1528 0.0000
vt 0.1904 0.1479 0.0000
vt 0.1919 0.1558 0.0000
vt 0.2057 0.1563 0.0000
vt 0.2037 0.1631 0.0000
vt 0.2166 0.1694 0.0000
vt 0.2114 0.1743 0.0000
vt 0.2209 0.1870 0.0000
vt 0.2139 0.1865 0.0000
vt 0.2106 0.1987 0.0000
vt 0.2155 0.2036 0.0000
vt 0.2021 0.2090 0.0000
vt 0.2036 0.2163 0.0000
vt 0.1898 0.2158 0.0000
vt 0.1877 0.2236 0.0000
vt 0.1752 0.2178 0.0000
vt 0.1704 0.2256 0.0000
vt 0.1603 0.2148 0.0000
vt 0.1533 0.2222 0.0000
vt 0.1476 0.2070 0.0000
vt 0.1386 0.2134 0.0000
vt 0.1393 0.1963 0.0000
vt 0.1653 0.1851 0.0000
vt 0.1669 0.1792 0.0000
vt 0.1708 0.1748 0.0000
vt 0.1765 0.1719 0.0000
vt 0.1831 0.1714 0.0000
vt 0.1895 0.1724 0.0000
vt 0.1947 0.1758 0.0000
vt 0.1981 0.1807 0.0000
vt 0.1992 0.1860 0.0000
vt 0.1978 0.1914 0.0000
vt 0.1941 0.1958 0.0000
vt 0.1886 0.1987 0.0000
vt 0.1821 0.1997 0.0000
vt 0.1755 0.1987 0.0000
vt 0.1700 0.1953 0.0000
vt 0.1665 0.1904 0.0000
vt 0.1823 0.1855 0.0000
# 49 texture coords

o SM_Limpet_02_LOD0
g SM_Limpet_02_LOD0
usemtl MAT_Sea_Shells
s 1
f 27/3/1 1/2/2 2/1/3 
f 3/4/4 27/3/5 2/1/6 
f 5/5/7 27/3/8 3/4/9 
f 4/6/10 5/5/11 3/4/12 
f 6/7/13 5/5/14 4/6/15 
f 7/8/16 6/7/17 4/6/18 
f 29/9/19 6/7/20 7/8/21 
f 8/10/22 29/9/23 7/8/24 
f 9/11/25 29/9/26 8/10/27 
f 11/12/28 9/11/29 8/10/30 
f 10/13/31 9/11/32 11/12/33 
f 12/14/34 10/13/35 11/12/36 
f 13/15/37 10/13/38 12/14/39 
f 15/16/40 13/15/41 12/14/42 
f 14/17/43 13/15/44 15/16/45 
f 17/18/46 14/17/47 15/16/48 
f 16/19/49 14/17/50 17/18/51 
f 33/20/52 16/19/53 17/18/54 
f 18/21/55 33/20/56 17/18/57 
f 20/22/58 33/20/59 18/21/60 
f 19/23/61 20/22/62 18/21/63 
f 22/24/64 20/22/65 19/23/66 
f 21/25/67 22/24/68 19/23/69 
f 35/26/70 22/24/71 21/25/72 
f 23/27/73 35/26/74 21/25/75 
f 37/28/76 35/26/77 23/27/78 
f 24/29/79 37/28/80 23/27/81 
f 39/30/82 37/28/83 24/29/84 
f 25/31/85 39/30/86 24/29/87 
f 26/32/88 39/30/89 25/31/90 
f 1/2/91 26/32/92 25/31/93 
f 27/3/94 26/32/95 1/2/96 
f 49/33/97 26/32/98 27/3/99 
f 5/5/100 49/33/101 27/3/102 
f 28/34/103 49/33/104 5/5/105 
f 6/7/106 28/34/107 5/5/108 
f 47/35/109 28/34/110 6/7/111 
f 29/9/112 47/35/113 6/7/114 
f 30/36/115 47/35/116 29/9/117 
f 9/11/118 30/36/119 29/9/120 
f 31/37/121 30/36/122 9/11/123 
f 10/13/124 31/37/125 9/11/126 
f 32/38/127 31/37/128 10/13/129 
f 13/15/130 32/38/131 10/13/132 
f 46/39/133 32/38/134 13/15/135 
f 14/17/136 46/39/137 13/15/138 
f 45/40/139 46/39/140 14/17/141 
f 16/19/142 45/40/143 14/17/144 
f 44/41/145 45/40/146 16/19/147 
f 43/42/148 44/41/149 16/19/150 
f 33/20/151 43/42/152 16/19/153 
f 42/43/154 43/42/155 33/20/156 
f 20/22/157 42/43/158 33/20/159 
f 34/44/160 42/43/161 20/22/162 
f 22/24/163 34/44/164 20/22/165 
f 36/45/166 34/44/167 22/24/168 
f 35/26/169 36/45/170 22/24/171 
f 38/46/172 36/45/173 35/26/174 
f 37/28/175 38/46/176 35/26/177 
f 41/47/178 38/46/179 37/28/180 
f 39/30/181 41/47/182 37/28/183 
f 40/48/184 41/47/185 39/30/186 
f 26/32/187 40/48/188 39/30/189 
f 49/33/190 40/48/191 26/32/192 
f 48/49/193 40/48/194 49/33/195 
f 48/49/196 41/47/197 40/48/198 
f 48/49/199 38/46/200 41/47/201 
f 48/49/202 36/45/203 38/46/204 
f 48/49/205 34/44/206 36/45/207 
f 48/49/208 42/43/209 34/44/210 
f 48/49/211 43/42/212 42/43/213 
f 48/49/214 44/41/215 43/42/216 
f 48/49/217 45/40/218 44/41/219 
f 48/49/220 46/39/221 45/40/222 
f 48/49/223 32/38/224 46/39/225 
f 48/49/226 31/37/227 32/38/228 
f 48/49/229 30/36/230 31/37/231 
f 48/49/232 47/35/233 30/36/234 
f 48/49/235 28/34/236 47/35/237 
f 49/33/238 28/34/239 48/49/240 
# 80 faces

#
# object SM_Limpet_02_LOD1
#

v  -1.6390 -0.0000 -3.4463
v  3.0550 0.0000 2.6376
v  -3.9721 0.0000 1.4275
v  3.0550 -0.0000 -2.6377
v  -1.6390 0.0000 3.4463
v  4.2976 0.0000 -0.0000
v  -3.9721 -0.0000 -1.4276
v  -4.2976 -0.0000 -0.0000
v  1.6676 -0.0000 -3.4463
v  1.6676 0.0000 3.4463
v  0.0181 0.0000 3.7302
v  0.0181 -0.0000 -3.7303
v  -3.0411 0.0000 2.6376
v  -3.0412 -0.0000 -2.6377
v  3.9757 0.0000 1.4275
v  3.9757 -0.0000 -1.4275
v  1.0825 2.5036 -0.0001
v  2.2434 2.0881 0.3639
v  1.6729 2.0610 -0.9894
v  3.6604 0.9948 0.5436
v  0.5715 2.0548 1.0642
v  -2.8424 0.9961 -0.4870
v  2.5598 0.9042 -2.2115
v  2.5599 0.9042 2.2115
v  -1.3762 0.8896 -2.3549
v  3.5361 0.9822 -1.1083
v  -0.2128 2.0866 -0.4456
v  -1.2798 0.8841 2.4086
v  -2.6908 0.9822 1.1083
# 29 vertices

vn 0.3926 0.7195 0.5728
vn -0.0810 0.9005 0.4273
vn -0.0040 0.7841 0.6206
vn -0.0099 0.7915 -0.6111
vn 0.2030 0.8833 -0.4227
vn 0.3867 0.6997 -0.6008
vn -0.4442 0.8653 0.2322
vn -0.2692 0.9478 -0.1707
vn -0.4670 0.8747 -0.1296
vn 0.6786 0.6603 -0.3217
vn 0.7211 0.6683 0.1829
vn 0.8640 0.5034 -0.0058
vn -0.0040 0.7841 0.6206
vn -0.0810 0.9005 0.4273
vn -0.2192 0.8279 0.5163
vn -0.2359 0.8406 -0.4876
vn 0.2030 0.8833 -0.4227
vn -0.0099 0.7915 -0.6111
vn -0.5406 0.8103 0.2262
vn -0.4670 0.8747 -0.1296
vn -0.5606 0.8279 0.0183
vn 0.7211 0.6683 0.1829
vn 0.4149 0.8934 0.1722
vn 0.3926 0.7195 0.5728
vn -0.2192 0.8279 0.5163
vn -0.0810 0.9005 0.4273
vn -0.4442 0.8653 0.2322
vn -0.2192 0.8279 0.5163
vn -0.4442 0.8653 0.2322
vn -0.3976 0.7967 0.4553
vn -0.4670 0.8747 -0.1296
vn -0.2692 0.9478 -0.1707
vn -0.2359 0.8406 -0.4876
vn -0.4670 0.8747 -0.1296
vn -0.2359 0.8406 -0.4876
vn -0.3888 0.8243 -0.4115
vn -0.0099 0.7915 -0.6111
vn 0.3867 0.6997 -0.6008
vn 0.1824 0.7258 -0.6633
vn 0.3926 0.7195 0.5728
vn -0.0040 0.7841 0.6206
vn 0.1824 0.7258 0.6633
vn 0.3867 0.6997 -0.6008
vn 0.2030 0.8833 -0.4227
vn 0.6786 0.6603 -0.3217
vn 0.6786 0.6603 -0.3217
vn 0.4149 0.8934 0.1722
vn 0.7211 0.6683 0.1829
vn 0.2030 0.8833 -0.4227
vn 0.4149 0.8934 0.1722
vn 0.6786 0.6603 -0.3217
vn 0.4149 0.8934 0.1722
vn -0.0810 0.9005 0.4273
vn 0.3926 0.7195 0.5728
vn 0.0093 1.0000 0.0017
vn 0.4149 0.8934 0.1722
vn 0.2030 0.8833 -0.4227
vn -0.2692 0.9478 -0.1707
vn 0.2030 0.8833 -0.4227
vn -0.2359 0.8406 -0.4876
vn 0.8640 0.5034 -0.0058
vn 0.7211 0.6683 0.1829
vn 0.7311 0.5623 0.3863
vn 0.7211 0.6683 0.1829
vn 0.3926 0.7195 0.5728
vn 0.7311 0.5623 0.3863
vn 0.0093 1.0000 0.0017
vn -0.0810 0.9005 0.4273
vn 0.4149 0.8934 0.1722
vn -0.0810 0.9005 0.4273
vn -0.2692 0.9478 -0.1707
vn -0.4442 0.8653 0.2322
vn -0.5107 0.8208 -0.2559
vn -0.4670 0.8747 -0.1296
vn -0.3888 0.8243 -0.4115
vn -0.4670 0.8747 -0.1296
vn -0.5107 0.8208 -0.2559
vn -0.5606 0.8279 0.0183
vn 0.5439 0.5825 -0.6040
vn 0.3867 0.6997 -0.6008
vn 0.7677 0.5032 -0.3968
vn 0.1824 0.7258 -0.6633
vn 0.3867 0.6997 -0.6008
vn 0.5439 0.5825 -0.6040
vn 0.5439 0.5825 0.6041
vn 0.3926 0.7195 0.5728
vn 0.1824 0.7258 0.6633
vn 0.7311 0.5623 0.3863
vn 0.3926 0.7195 0.5728
vn 0.5439 0.5825 0.6041
vn -0.3888 0.8243 -0.4115
vn -0.2359 0.8406 -0.4876
vn -0.2065 0.7822 -0.5878
vn -0.2065 0.7822 -0.5878
vn -0.2359 0.8406 -0.4876
vn -0.0099 0.7915 -0.6111
vn 0.3867 0.6997 -0.6008
vn 0.6786 0.6603 -0.3217
vn 0.7677 0.5032 -0.3968
vn 0.7677 0.5032 -0.3968
vn 0.6786 0.6603 -0.3217
vn 0.8640 0.5034 -0.0058
vn 0.0093 1.0000 0.0017
vn 0.2030 0.8833 -0.4227
vn -0.2692 0.9478 -0.1707
vn -0.2692 0.9478 -0.1707
vn -0.0810 0.9005 0.4273
vn 0.0093 1.0000 0.0017
vn -0.2123 0.7789 0.5901
vn -0.2192 0.8279 0.5163
vn -0.3976 0.7967 0.4553
vn -0.0040 0.7841 0.6206
vn -0.2192 0.8279 0.5163
vn -0.2123 0.7789 0.5901
vn -0.3976 0.7967 0.4553
vn -0.4442 0.8653 0.2322
vn -0.5406 0.8103 0.2262
vn -0.4442 0.8653 0.2322
vn -0.4670 0.8747 -0.1296
vn -0.5406 0.8103 0.2262
# 120 vertex normals

vt 0.1533 0.2222 0.0000
vt 0.1823 0.1855 0.0000
vt 0.2057 0.1563 0.0000
vt 0.1294 0.1670 0.0000
vt 0.2036 0.2163 0.0000
vt 0.1559 0.1470 0.0000
vt 0.2209 0.1870 0.0000
vt 0.1283 0.2002 0.0000
vt 0.1776 0.1729 0.0000
vt 0.2127 0.1805 0.0000
vt 0.2106 0.1987 0.0000
vt 0.1256 0.1836 0.0000
vt 0.1877 0.2236 0.0000
vt 0.1904 0.1479 0.0000
vt 0.1378 0.1894 0.0000
vt 0.1967 0.1786 0.0000
vt 0.1401 0.1714 0.0000
vt 0.1732 0.1445 0.0000
vt 0.1704 0.2256 0.0000
vt 0.1675 0.1903 0.0000
vt 0.1900 0.1971 0.0000
vt 0.1406 0.1543 0.0000
vt 0.1386 0.2134 0.0000
vt 0.2166 0.1694 0.0000
vt 0.2155 0.2036 0.0000
vt 0.2006 0.1612 0.0000
vt 0.1989 0.2108 0.0000
vt 0.1567 0.1577 0.0000
vt 0.1538 0.2109 0.0000
# 29 texture coords

o SM_Limpet_02_LOD1
g SM_Limpet_02_LOD1
usemtl MAT_Sea_Shells
s 1
f 73/75/241 70/58/242 60/67/243 
f 61/68/244 68/70/245 72/76/246 
f 78/66/247 76/69/248 71/64/249 
f 75/60/250 69/59/251 55/56/252 
f 60/67/253 70/58/254 77/77/255 
f 74/78/256 68/70/257 61/68/258 
f 52/53/259 71/64/260 57/61/261 
f 69/59/262 67/65/263 73/75/264 
f 77/77/265 70/58/266 78/66/267 
f 77/77/268 78/66/269 62/71/270 
f 71/64/271 76/69/272 74/78/273 
f 71/64/274 74/78/275 63/72/276 
f 61/68/277 72/76/278 58/62/279 
f 73/75/280 60/67/281 59/63/282 
f 72/76/283 68/70/284 75/60/285 
f 75/60/286 67/65/287 69/59/288 
f 68/70/289 67/65/290 75/60/291 
f 67/65/292 70/58/293 73/75/294 
f 66/51/295 67/65/296 68/70/297 
f 76/69/298 68/70/299 74/78/300 
f 55/56/301 69/59/302 64/73/303 
f 69/59/304 73/75/305 64/73/306 
f 66/51/307 70/58/308 67/65/309 
f 70/58/310 76/69/311 78/66/312 
f 56/57/313 71/64/314 63/72/315 
f 71/64/316 56/57/317 57/61/318 
f 53/54/319 72/76/320 65/74/321 
f 58/62/322 72/76/323 53/54/324 
f 51/52/325 73/75/326 59/63/327 
f 64/73/328 73/75/329 51/52/330 
f 63/72/331 74/78/332 50/50/333 
f 50/50/334 74/78/335 61/68/336 
f 72/76/337 75/60/338 65/74/339 
f 65/74/340 75/60/341 55/56/342 
f 66/51/343 68/70/344 76/69/345 
f 76/69/346 70/58/347 66/51/348 
f 54/55/349 77/77/350 62/71/351 
f 60/67/352 77/77/353 54/55/354 
f 62/71/355 78/66/356 52/53/357 
f 78/66/358 71/64/359 52/53/360 
# 40 faces

