# 3ds Max Wavefront OBJ Exporter v0.97b - (c)2007 guruware
# File Created: 10.02.2024 08:45:32

mtllib SM_Seaslug_01.mtl

#
# object SM_Seaslug_01_LOD0
#

v  6.4194 0.9581 -22.9695
v  10.7186 1.3746 18.0531
v  10.6689 1.6679 22.5191
v  10.2365 0.7682 19.0579
v  10.4993 1.4681 22.8188
v  9.8603 0.2987 20.6857
v  8.6957 0.2675 21.9391
v  9.8005 1.3714 23.7266
v  9.2717 1.3972 24.0767
v  5.2780 0.7610 23.1740
v  8.4229 1.6689 24.4395
v  3.8655 1.3613 23.4052
v  3.4532 2.7202 23.7049
v  -2.3836 1.4890 20.1364
v  -2.7094 3.6151 20.6672
v  -7.4851 4.3819 14.5898
v  -10.5436 2.0443 0.1804
v  -10.3984 4.3853 -8.0104
v  -7.3392 2.0359 -13.6852
v  -0.9027 4.1412 -22.3873
v  -0.3318 2.1082 -22.1895
v  3.8505 1.6326 -24.3239
v  10.6731 2.1868 22.4163
v  9.1693 1.5161 11.7113
v  6.7201 1.9465 7.8070
v  5.6162 4.3942 3.3044
v  5.0186 2.0443 3.4677
v  5.9170 2.0180 -5.7529
v  8.6593 4.3648 -10.6824
v  8.2467 2.1748 -11.0025
v  11.0177 2.8787 -17.4691
v  10.1165 4.2167 -13.0985
v  10.7206 4.7252 -17.6613
v  7.5797 4.3586 -8.1156
v  7.0009 6.5511 -8.2975
v  6.5649 4.3528 -5.7029
v  5.3193 4.3799 -0.9383
v  6.7592 6.4950 7.8279
v  7.3251 4.2212 7.5924
v  9.7921 3.6530 11.5439
v  10.8754 4.0389 18.1694
v  11.1614 2.7432 17.9397
v  10.5309 2.6539 22.4598
v  9.3214 5.7629 11.8974
v  7.9704 7.8347 12.8910
v  5.0186 6.7222 3.4677
v  4.6821 6.6979 -0.8942
v  2.8049 9.1170 -0.6034
v  3.9401 9.0699 -5.7994
v  5.9533 6.6635 -5.8264
v  6.3290 8.1886 -11.4069
v  8.1156 6.4315 -10.9265
v  9.5736 6.2276 -13.3250
v  9.8485 5.8714 -18.3651
v  9.9535 3.0650 -21.8036
v  9.7030 3.5026 -22.0573
v  6.9970 6.9382 -20.7888
v  9.3457 3.8023 -22.4773
v  8.8645 3.9160 -22.9576
v  8.3201 3.7983 -23.4223
v  5.4967 6.6017 -22.1536
v  7.8245 3.4997 -23.8178
v  4.2510 5.7534 -23.3506
v  7.5226 3.0431 -24.1200
v  3.2961 2.7656 -24.4571
v  3.4563 4.3977 -24.1391
v  -0.6236 6.1574 -21.8895
v  0.4648 7.5900 -20.7738
v  2.1920 8.7132 -19.2051
v  8.5199 6.6757 -19.4550
v  8.2803 7.6594 -14.2301
v  4.6161 9.6092 -12.9472
v  6.4253 8.7411 -15.6674
v  4.2866 9.2742 -17.4136
v  2.1132 10.3423 -14.4286
v  -4.3017 6.6355 -18.4509
v  -4.8699 4.3370 -18.7476
v  -7.3562 6.7155 -13.8468
v  -7.9648 4.3619 -14.0297
v  -9.7650 6.7908 -7.9786
v  -10.5436 6.8072 0.1804
v  -11.1614 4.4013 0.2043
v  -9.4885 6.6905 7.4309
v  -10.0861 4.4013 7.5941
v  -2.2312 5.6017 20.3229
v  3.6974 4.0302 23.4661
v  4.5438 5.0157 22.8504
v  8.2458 2.6539 24.3100
v  8.8587 3.2537 23.6801
v  8.7850 5.7065 19.7245
v  10.2535 3.0328 22.6510
v  10.0414 5.0913 18.7906
v  7.2966 5.9446 20.8224
v  5.1345 8.8770 8.5005
v  2.6976 10.6423 9.5464
v  0.1006 10.8817 -0.3421
v  3.3166 9.1238 3.9327
v  1.3782 10.8464 -6.4034
v  5.0975 8.6429 -8.5163
v  2.9470 10.2469 -9.5741
v  0.7695 10.8841 4.6285
v  5.9430 8.9674 14.3716
v  5.8095 5.6476 21.9223
v  1.1590 8.6824 17.8632
v  3.5508 9.2694 16.1172
v  -0.8694 7.3398 19.3424
v  -6.9354 6.6892 14.2950
v  -5.3710 9.1185 13.4555
v  -0.1676 11.3429 10.8530
v  -5.2395 10.8841 6.2701
v  -2.2350 11.5025 5.4493
v  -6.1505 10.8841 0.0100
v  -3.0421 11.5024 -0.1170
v  -5.1255 10.8589 -7.3388
v  -1.8490 11.4711 -6.8333
v  -2.9477 10.4170 -11.7931
v  0.0683 10.9242 -10.5215
v  -0.4691 9.9469 -15.9929
v  -2.7529 8.6064 -17.4872
v  -5.6037 8.8634 -13.1097
v  -7.9290 9.1050 -7.8143
v  -3.0021 10.8238 12.2337
v  -7.7866 9.1240 6.9659
v  -8.7839 9.1252 0.1121
v  8.7520 1.4697 24.2926
v  -0.4060 0.6048 19.9096
v  -5.1962 0.9617 13.6569
v  -6.9287 2.0465 14.2962
v  -9.4885 2.0443 7.4308
v  -7.7866 1.0126 6.9658
v  -8.7839 1.0126 0.1121
v  -9.7368 2.0269 -7.9355
v  -7.8814 0.9920 -7.7058
v  -4.3589 2.0454 -18.3704
v  0.9948 1.3278 -21.3186
v  7.6549 1.9494 -24.2619
v  8.4825 1.3904 -23.5966
v  9.0577 1.3122 -23.1931
v  7.8858 0.8984 -21.6657
v  9.5218 1.3951 -22.7172
v  9.8459 1.6230 -22.2636
v  10.6769 1.6844 -17.7972
v  9.8327 2.1541 -13.5915
v  7.0459 2.0940 -8.2965
v  5.3264 1.0878 -8.6940
v  4.0587 0.9725 -5.9219
v  4.6697 2.0317 -0.8685
v  3.3166 1.0126 3.9327
v  8.4376 0.6465 13.4630
v  7.5451 0.2757 16.3323
v  5.6370 -0.0000 18.6072
v  7.1561 0.3266 22.9041
v  -2.2996 0.3779 13.0922
v  -6.1504 0.6316 0.0100
v  -5.0929 0.6061 -7.2678
v  -5.5546 1.0147 -12.8416
v  -2.8011 1.0388 -17.3786
v  -0.4746 0.6922 -15.9852
v  2.9444 0.9869 -19.9769
v  4.9746 1.1996 -23.8638
v  2.1958 0.6081 -14.4975
v  5.0983 0.8700 -18.2459
v  7.0750 0.9949 -16.3351
v  9.1239 0.9742 -20.1438
v  9.9982 1.2292 -18.6905
v  8.7655 1.3425 -14.7289
v  6.6752 1.2106 -11.6431
v  -2.8946 0.6478 -11.6227
v  -1.8490 0.4664 -6.8333
v  -5.2395 0.6316 6.2700
v  -2.2350 0.4978 5.4493
v  2.7586 0.2709 19.8142
v  3.7047 0.2356 10.7917
v  0.8841 0.0796 12.1373
v  0.7695 0.6316 4.6285
v  0.0857 0.6301 -0.2989
v  -3.0440 0.4978 -0.1105
v  1.0397 0.6049 -5.8989
v  2.5655 0.7022 -9.1081
v  0.1108 0.5350 -10.5468
v  4.1888 0.8058 -12.5221
v  2.8246 1.0048 -0.6505
v  5.5348 0.8103 9.0439
v  8.4563 3.0328 24.0307
v  9.3902 3.3152 23.3242
v  9.8670 3.2537 22.9574
v  9.6826 1.8446 23.6798
v  10.2124 1.3965 23.2669
v  8.2395 2.1836 24.4571
v  7.4828 2.4673 -24.2990
v  8.0051 1.6010 -24.0065
v  10.0311 1.9978 -21.9208
v  10.0716 2.5058 -21.7585
v  9.6474 1.9762 -22.5291
v  9.3982 1.9652 -22.8737
v  9.1414 1.9593 -23.1389
v  8.8088 1.9582 -23.3719
v  8.3991 1.9538 -23.7092
# 198 vertices

vn 0.0303 -0.9759 -0.2162
vn 0.0203 -0.9996 -0.0205
vn -0.0534 -0.9948 -0.0871
vn 0.0303 -0.9759 -0.2162
vn 0.0942 -0.9919 -0.0857
vn 0.0203 -0.9996 -0.0205
vn 0.9374 -0.1948 0.2885
vn 0.6218 -0.7799 -0.0723
vn 0.8370 -0.5365 -0.1080
vn 0.8466 -0.3093 0.4331
vn 0.6218 -0.7799 -0.0723
vn 0.9374 -0.1948 0.2885
vn 0.8466 -0.3093 0.4331
vn 0.4974 -0.8657 0.0560
vn 0.6218 -0.7799 -0.0723
vn 0.7657 -0.3259 0.5545
vn 0.4974 -0.8657 0.0560
vn 0.8466 -0.3093 0.4331
vn 0.7657 -0.3259 0.5545
vn 0.1825 -0.9579 0.2218
vn 0.4974 -0.8657 0.0560
vn 0.5975 -0.4066 0.6911
vn 0.1825 -0.9579 0.2218
vn 0.7657 -0.3259 0.5545
vn 0.4076 -0.3498 0.8435
vn 0.1825 -0.9579 0.2218
vn 0.5975 -0.4066 0.6911
vn 0.4076 -0.3498 0.8435
vn -0.0060 -0.9168 0.3994
vn 0.1825 -0.9579 0.2218
vn 0.2766 -0.3949 0.8761
vn -0.0060 -0.9168 0.3994
vn 0.4076 -0.3498 0.8435
vn 0.2766 -0.3949 0.8761
vn -0.1629 -0.8174 0.5526
vn -0.0060 -0.9168 0.3994
vn -0.2878 -0.5575 0.7787
vn 0.1306 -0.2550 0.9581
vn 0.1332 0.1278 0.9828
vn 0.1332 0.1278 0.9828
vn -0.3153 -0.0384 0.9482
vn -0.2878 -0.5575 0.7787
vn -0.5461 -0.6066 0.5778
vn -0.2878 -0.5575 0.7787
vn -0.3153 -0.0384 0.9482
vn -0.3153 -0.0384 0.9482
vn -0.6320 0.0000 0.7749
vn -0.5461 -0.6066 0.5778
vn -0.6320 0.0000 0.7749
vn -0.8712 0.0092 0.4908
vn -0.7202 -0.5830 0.3760
vn -0.7202 -0.5830 0.3760
vn -0.5461 -0.6066 0.5778
vn -0.6320 0.0000 0.7749
vn -0.7202 -0.5830 0.3760
vn -0.8712 0.0092 0.4908
vn -0.9687 0.0035 0.2481
vn -0.9687 0.0035 0.2481
vn -0.7803 -0.5925 0.2000
vn -0.7202 -0.5830 0.3760
vn -0.9996 -0.0017 0.0270
vn -0.8065 -0.5909 0.0205
vn -0.7803 -0.5925 0.2000
vn -0.7803 -0.5925 0.2000
vn -0.9687 0.0035 0.2481
vn -0.9996 -0.0017 0.0270
vn -0.9721 -0.0089 -0.2343
vn -0.7741 -0.6028 -0.1934
vn -0.8065 -0.5909 0.0205
vn -0.8065 -0.5909 0.0205
vn -0.9996 -0.0017 0.0270
vn -0.9721 -0.0089 -0.2343
vn -0.8847 -0.0183 -0.4659
vn -0.6878 -0.6272 -0.3655
vn -0.7741 -0.6028 -0.1934
vn -0.7741 -0.6028 -0.1934
vn -0.9721 -0.0089 -0.2343
vn -0.8847 -0.0183 -0.4659
vn -0.7637 -0.0018 -0.6456
vn -0.6120 -0.6073 -0.5065
vn -0.6878 -0.6272 -0.3655
vn -0.6878 -0.6272 -0.3655
vn -0.8847 -0.0183 -0.4659
vn -0.7637 -0.0018 -0.6456
vn -0.5657 0.0309 -0.8240
vn -0.4835 -0.5932 -0.6437
vn -0.6120 -0.6073 -0.5065
vn -0.6120 -0.6073 -0.5065
vn -0.7637 -0.0018 -0.6456
vn -0.5657 0.0309 -0.8240
vn -0.4835 -0.5932 -0.6437
vn -0.5657 0.0309 -0.8240
vn -0.2409 -0.0339 -0.9700
vn -0.2409 -0.0339 -0.9700
vn -0.1886 -0.5874 -0.7870
vn -0.4835 -0.5932 -0.6437
vn -0.1886 -0.5874 -0.7870
vn -0.2409 -0.0339 -0.9700
vn 0.3338 0.1367 -0.9327
vn 0.3338 0.1367 -0.9327
vn 0.3000 -0.1857 -0.9357
vn -0.1886 -0.5874 -0.7870
vn 0.8370 -0.5365 -0.1080
vn 0.9322 0.1249 0.3398
vn 0.9374 -0.1948 0.2885
vn 0.8370 -0.5365 -0.1080
vn 0.9969 -0.0463 -0.0633
vn 0.9322 0.1249 0.3398
vn 0.7143 -0.6044 -0.3530
vn 0.9969 -0.0463 -0.0633
vn 0.8370 -0.5365 -0.1080
vn 0.9261 -0.0118 -0.3771
vn 0.9969 -0.0463 -0.0633
vn 0.7143 -0.6044 -0.3530
vn 0.7032 -0.5919 -0.3939
vn 0.9261 -0.0118 -0.3771
vn 0.7143 -0.6044 -0.3530
vn 0.8931 0.0046 -0.4499
vn 0.9261 -0.0118 -0.3771
vn 0.7032 -0.5919 -0.3939
vn 0.7592 -0.6238 -0.1860
vn 0.8931 0.0046 -0.4499
vn 0.7032 -0.5919 -0.3939
vn 0.9745 0.0045 -0.2242
vn 0.8931 0.0046 -0.4499
vn 0.7592 -0.6238 -0.1860
vn 0.7701 -0.6340 0.0706
vn 0.9745 0.0045 -0.2242
vn 0.7592 -0.6238 -0.1860
vn 0.9954 -0.0005 0.0960
vn 0.9745 0.0045 -0.2242
vn 0.7701 -0.6340 0.0706
vn 0.7420 -0.6220 0.2501
vn 0.9954 -0.0005 0.0960
vn 0.7701 -0.6340 0.0706
vn 0.9461 0.0017 0.3239
vn 0.9954 -0.0005 0.0960
vn 0.7420 -0.6220 0.2501
vn 0.7379 -0.6024 0.3045
vn 0.9461 0.0017 0.3239
vn 0.7420 -0.6220 0.2501
vn 0.9222 0.0140 0.3864
vn 0.9461 0.0017 0.3239
vn 0.7379 -0.6024 0.3045
vn 0.8910 0.0283 0.4531
vn 0.9222 0.0140 0.3864
vn 0.7379 -0.6024 0.3045
vn 0.7069 -0.6043 0.3676
vn 0.8910 0.0283 0.4531
vn 0.7379 -0.6024 0.3045
vn 0.9280 0.0422 0.3701
vn 0.8910 0.0283 0.4531
vn 0.7069 -0.6043 0.3676
vn 0.7510 -0.5715 0.3307
vn 0.9280 0.0422 0.3701
vn 0.7069 -0.6043 0.3676
vn 0.9973 -0.0720 0.0158
vn 0.9280 0.0422 0.3701
vn 0.7510 -0.5715 0.3307
vn 0.7928 -0.6085 0.0356
vn 0.9973 -0.0720 0.0158
vn 0.7510 -0.5715 0.3307
vn 0.9334 0.0836 -0.3489
vn 0.9973 -0.0720 0.0158
vn 0.7928 -0.6085 0.0356
vn 0.9334 0.0836 -0.3489
vn 0.7928 -0.6085 0.0356
vn 0.9433 -0.1231 -0.3083
vn 0.8950 0.2195 -0.3883
vn 0.9973 -0.0720 0.0158
vn 0.9334 0.0836 -0.3489
vn 0.8950 0.2195 -0.3883
vn 0.9306 0.3571 -0.0804
vn 0.9973 -0.0720 0.0158
vn 0.9306 0.3571 -0.0804
vn 0.9280 0.0422 0.3701
vn 0.9973 -0.0720 0.0158
vn 0.9306 0.3571 -0.0804
vn 0.8177 0.5156 0.2560
vn 0.9280 0.0422 0.3701
vn 0.8177 0.5156 0.2560
vn 0.8910 0.0283 0.4531
vn 0.9280 0.0422 0.3701
vn 0.8177 0.5156 0.2560
vn 0.7709 0.5256 0.3599
vn 0.8910 0.0283 0.4531
vn 0.7709 0.5256 0.3599
vn 0.9222 0.0140 0.3864
vn 0.8910 0.0283 0.4531
vn 0.7709 0.5256 0.3599
vn 0.8155 0.4869 0.3128
vn 0.9222 0.0140 0.3864
vn 0.8155 0.4869 0.3128
vn 0.9461 0.0017 0.3239
vn 0.9222 0.0140 0.3864
vn 0.8155 0.4869 0.3128
vn 0.8443 0.4647 0.2668
vn 0.9461 0.0017 0.3239
vn 0.8443 0.4647 0.2668
vn 0.9954 -0.0005 0.0960
vn 0.9461 0.0017 0.3239
vn 0.8443 0.4647 0.2668
vn 0.8875 0.4547 0.0748
vn 0.9954 -0.0005 0.0960
vn 0.8875 0.4547 0.0748
vn 0.9745 0.0045 -0.2242
vn 0.9954 -0.0005 0.0960
vn 0.8875 0.4547 0.0748
vn 0.8734 0.4453 -0.1970
vn 0.9745 0.0045 -0.2242
vn 0.8734 0.4453 -0.1970
vn 0.8188 0.4461 -0.3612
vn 0.9745 0.0045 -0.2242
vn 0.8188 0.4461 -0.3612
vn 0.8931 0.0046 -0.4499
vn 0.9745 0.0045 -0.2242
vn 0.8188 0.4461 -0.3612
vn 0.8581 0.4367 -0.2702
vn 0.8931 0.0046 -0.4499
vn 0.8581 0.4367 -0.2702
vn 0.9261 -0.0118 -0.3771
vn 0.8931 0.0046 -0.4499
vn 0.8581 0.4367 -0.2702
vn 0.9132 0.4062 0.0322
vn 0.9261 -0.0118 -0.3771
vn 0.9132 0.4062 0.0322
vn 0.9969 -0.0463 -0.0633
vn 0.9261 -0.0118 -0.3771
vn 0.9132 0.4062 0.0322
vn 0.8632 0.3110 0.3978
vn 0.9969 -0.0463 -0.0633
vn 0.9969 -0.0463 -0.0633
vn 0.8632 0.3110 0.3978
vn 0.9322 0.1249 0.3398
vn 0.7135 0.6767 0.1817
vn 0.8632 0.3110 0.3978
vn 0.9132 0.4062 0.0322
vn 0.8581 0.4367 -0.2702
vn 0.7135 0.6767 0.1817
vn 0.9132 0.4062 0.0322
vn 0.6642 0.7433 -0.0790
vn 0.7135 0.6767 0.1817
vn 0.8581 0.4367 -0.2702
vn 0.8188 0.4461 -0.3612
vn 0.6642 0.7433 -0.0790
vn 0.8581 0.4367 -0.2702
vn 0.6418 0.7381 -0.2080
vn 0.6642 0.7433 -0.0790
vn 0.8188 0.4461 -0.3612
vn 0.8734 0.4453 -0.1970
vn 0.6418 0.7381 -0.2080
vn 0.8188 0.4461 -0.3612
vn 0.6640 0.7325 -0.1499
vn 0.6418 0.7381 -0.2080
vn 0.8734 0.4453 -0.1970
vn 0.6722 0.7396 0.0338
vn 0.6640 0.7325 -0.1499
vn 0.8734 0.4453 -0.1970
vn 0.8875 0.4547 0.0748
vn 0.6722 0.7396 0.0338
vn 0.8734 0.4453 -0.1970
vn 0.6551 0.7397 0.1539
vn 0.6722 0.7396 0.0338
vn 0.8875 0.4547 0.0748
vn 0.8443 0.4647 0.2668
vn 0.6551 0.7397 0.1539
vn 0.8875 0.4547 0.0748
vn 0.6461 0.7445 0.1683
vn 0.6551 0.7397 0.1539
vn 0.8443 0.4647 0.2668
vn 0.8155 0.4869 0.3128
vn 0.6461 0.7445 0.1683
vn 0.8443 0.4647 0.2668
vn 0.5994 0.7790 0.1842
vn 0.6461 0.7445 0.1683
vn 0.8155 0.4869 0.3128
vn 0.7709 0.5256 0.3599
vn 0.5994 0.7790 0.1842
vn 0.8155 0.4869 0.3128
vn 0.6023 0.7941 0.0817
vn 0.5994 0.7790 0.1842
vn 0.7709 0.5256 0.3599
vn 0.8177 0.5156 0.2560
vn 0.6023 0.7941 0.0817
vn 0.7709 0.5256 0.3599
vn 0.7448 0.6345 -0.2067
vn 0.6023 0.7941 0.0817
vn 0.8177 0.5156 0.2560
vn 0.9306 0.3571 -0.0804
vn 0.7448 0.6345 -0.2067
vn 0.8177 0.5156 0.2560
vn 0.8950 0.2195 -0.3883
vn 0.7448 0.6345 -0.2067
vn 0.9306 0.3571 -0.0804
vn 0.8406 0.3321 -0.4279
vn 0.7448 0.6345 -0.2067
vn 0.8950 0.2195 -0.3883
vn 0.5694 0.7582 -0.3176
vn 0.7448 0.6345 -0.2067
vn 0.8406 0.3321 -0.4279
vn 0.7439 0.4223 -0.5179
vn 0.5694 0.7582 -0.3176
vn 0.8406 0.3321 -0.4279
vn 0.3843 0.8006 -0.4597
vn 0.5694 0.7582 -0.3176
vn 0.7439 0.4223 -0.5179
vn 0.5990 0.4625 -0.6537
vn 0.3843 0.8006 -0.4597
vn 0.7439 0.4223 -0.5179
vn 0.4741 0.4336 -0.7663
vn 0.3843 0.8006 -0.4597
vn 0.5990 0.4625 -0.6537
vn 0.2136 0.7711 -0.5999
vn 0.3843 0.8006 -0.4597
vn 0.4741 0.4336 -0.7663
vn 0.3753 0.3921 -0.8399
vn 0.2136 0.7711 -0.5999
vn 0.4741 0.4336 -0.7663
vn 0.0489 0.6378 -0.7686
vn 0.2136 0.7711 -0.5999
vn 0.3753 0.3921 -0.8399
vn 0.3232 0.2879 -0.9015
vn 0.0489 0.6378 -0.7686
vn 0.3753 0.3921 -0.8399
vn -0.1203 0.3599 -0.9252
vn 0.0489 0.6378 -0.7686
vn 0.3232 0.2879 -0.9015
vn 0.3232 0.2879 -0.9015
vn 0.3338 0.1367 -0.9327
vn -0.2409 -0.0339 -0.9700
vn -0.2409 -0.0339 -0.9700
vn -0.1203 0.3599 -0.9252
vn 0.3232 0.2879 -0.9015
vn -0.5657 0.0309 -0.8240
vn -0.1203 0.3599 -0.9252
vn -0.2409 -0.0339 -0.9700
vn -0.4237 0.5111 -0.7478
vn -0.1203 0.3599 -0.9252
vn -0.5657 0.0309 -0.8240
vn -0.4237 0.5111 -0.7478
vn 0.0489 0.6378 -0.7686
vn -0.1203 0.3599 -0.9252
vn -0.4237 0.5111 -0.7478
vn -0.1991 0.7851 -0.5864
vn 0.0489 0.6378 -0.7686
vn -0.1991 0.7851 -0.5864
vn 0.2136 0.7711 -0.5999
vn 0.0489 0.6378 -0.7686
vn -0.1991 0.7851 -0.5864
vn 0.0012 0.8866 -0.4625
vn 0.2136 0.7711 -0.5999
vn 0.0012 0.8866 -0.4625
vn 0.3843 0.8006 -0.4597
vn 0.2136 0.7711 -0.5999
vn 0.0012 0.8866 -0.4625
vn 0.2340 0.9283 -0.2889
vn 0.3843 0.8006 -0.4597
vn 0.2340 0.9283 -0.2889
vn 0.5694 0.7582 -0.3176
vn 0.3843 0.8006 -0.4597
vn 0.2340 0.9283 -0.2889
vn 0.4537 0.8872 -0.0836
vn 0.5694 0.7582 -0.3176
vn 0.4537 0.8872 -0.0836
vn 0.7448 0.6345 -0.2067
vn 0.5694 0.7582 -0.3176
vn 0.4537 0.8872 -0.0836
vn 0.6023 0.7941 0.0817
vn 0.7448 0.6345 -0.2067
vn 0.4537 0.8872 -0.0836
vn 0.5994 0.7790 0.1842
vn 0.6023 0.7941 0.0817
vn 0.4396 0.8979 0.0246
vn 0.5994 0.7790 0.1842
vn 0.4537 0.8872 -0.0836
vn 0.2340 0.9283 -0.2889
vn 0.4396 0.8979 0.0246
vn 0.4537 0.8872 -0.0836
vn 0.1439 0.9771 -0.1568
vn 0.4396 0.8979 0.0246
vn 0.2340 0.9283 -0.2889
vn -0.1446 0.9357 -0.3219
vn 0.1439 0.9771 -0.1568
vn 0.2340 0.9283 -0.2889
vn 0.0012 0.8866 -0.4625
vn -0.1446 0.9357 -0.3219
vn 0.2340 0.9283 -0.2889
vn -0.4030 0.7878 -0.4658
vn -0.1446 0.9357 -0.3219
vn 0.0012 0.8866 -0.4625
vn -0.1991 0.7851 -0.5864
vn -0.4030 0.7878 -0.4658
vn 0.0012 0.8866 -0.4625
vn -0.6458 0.4805 -0.5933
vn -0.4030 0.7878 -0.4658
vn -0.1991 0.7851 -0.5864
vn -0.4237 0.5111 -0.7478
vn -0.6458 0.4805 -0.5933
vn -0.1991 0.7851 -0.5864
vn -0.7637 -0.0018 -0.6456
vn -0.6458 0.4805 -0.5933
vn -0.4237 0.5111 -0.7478
vn -0.7637 -0.0018 -0.6456
vn -0.4237 0.5111 -0.7478
vn -0.5657 0.0309 -0.8240
vn -0.7786 0.4611 -0.4256
vn -0.6458 0.4805 -0.5933
vn -0.7637 -0.0018 -0.6456
vn -0.8847 -0.0183 -0.4659
vn -0.7786 0.4611 -0.4256
vn -0.7637 -0.0018 -0.6456
vn -0.8728 0.4365 -0.2182
vn -0.7786 0.4611 -0.4256
vn -0.8847 -0.0183 -0.4659
vn -0.9721 -0.0089 -0.2343
vn -0.8728 0.4365 -0.2182
vn -0.8847 -0.0183 -0.4659
vn -0.9026 0.4297 0.0242
vn -0.8728 0.4365 -0.2182
vn -0.9721 -0.0089 -0.2343
vn -0.9996 -0.0017 0.0270
vn -0.9026 0.4297 0.0242
vn -0.9721 -0.0089 -0.2343
vn -0.8762 0.4253 0.2267
vn -0.9026 0.4297 0.0242
vn -0.9996 -0.0017 0.0270
vn -0.9687 0.0035 0.2481
vn -0.8762 0.4253 0.2267
vn -0.9996 -0.0017 0.0270
vn -0.7646 0.4383 0.4725
vn -0.8762 0.4253 0.2267
vn -0.9687 0.0035 0.2481
vn -0.8712 0.0092 0.4908
vn -0.7646 0.4383 0.4725
vn -0.9687 0.0035 0.2481
vn -0.5050 0.4724 0.7223
vn -0.7646 0.4383 0.4725
vn -0.8712 0.0092 0.4908
vn -0.6320 0.0000 0.7749
vn -0.5050 0.4724 0.7223
vn -0.8712 0.0092 0.4908
vn -0.2056 0.4140 0.8868
vn -0.5050 0.4724 0.7223
vn -0.6320 0.0000 0.7749
vn -0.3153 -0.0384 0.9482
vn -0.2056 0.4140 0.8868
vn -0.6320 0.0000 0.7749
vn 0.2032 0.3762 0.9040
vn -0.2056 0.4140 0.8868
vn -0.3153 -0.0384 0.9482
vn 0.2032 0.3762 0.9040
vn -0.3153 -0.0384 0.9482
vn 0.1332 0.1278 0.9828
vn -0.0203 0.6833 0.7298
vn -0.2056 0.4140 0.8868
vn 0.2032 0.3762 0.9040
vn 0.3025 0.5226 0.7971
vn -0.0203 0.6833 0.7298
vn 0.2032 0.3762 0.9040
vn 0.1511 0.7969 0.5849
vn -0.0203 0.6833 0.7298
vn 0.3025 0.5226 0.7971
vn 0.3808 0.5706 0.7277
vn 0.1511 0.7969 0.5849
vn 0.3025 0.5226 0.7971
vn 0.3186 0.8310 0.4560
vn 0.1511 0.7969 0.5849
vn 0.3808 0.5706 0.7277
vn 0.4814 0.5717 0.6644
vn 0.3186 0.8310 0.4560
vn 0.3808 0.5706 0.7277
vn 0.6190 0.5529 0.5577
vn 0.3186 0.8310 0.4560
vn 0.4814 0.5717 0.6644
vn 0.5023 0.8003 0.3274
vn 0.3186 0.8310 0.4560
vn 0.6190 0.5529 0.5577
vn 0.7549 0.4624 0.4652
vn 0.5023 0.8003 0.3274
vn 0.6190 0.5529 0.5577
vn 0.7135 0.6767 0.1817
vn 0.5023 0.8003 0.3274
vn 0.7549 0.4624 0.4652
vn 0.8632 0.3110 0.3978
vn 0.7135 0.6767 0.1817
vn 0.7549 0.4624 0.4652
vn 0.7135 0.6767 0.1817
vn 0.4213 0.8950 0.1469
vn 0.5023 0.8003 0.3274
vn 0.4213 0.8950 0.1469
vn 0.3186 0.8310 0.4560
vn 0.5023 0.8003 0.3274
vn 0.6642 0.7433 -0.0790
vn 0.4213 0.8950 0.1469
vn 0.7135 0.6767 0.1817
vn 0.6418 0.7381 -0.2080
vn 0.4213 0.8950 0.1469
vn 0.6642 0.7433 -0.0790
vn 0.3944 0.9186 -0.0247
vn 0.4213 0.8950 0.1469
vn 0.6418 0.7381 -0.2080
vn 0.6640 0.7325 -0.1499
vn 0.3944 0.9186 -0.0247
vn 0.6418 0.7381 -0.2080
vn 0.3630 0.9287 -0.0760
vn 0.3944 0.9186 -0.0247
vn 0.6640 0.7325 -0.1499
vn 0.3601 0.9329 0.0092
vn 0.3630 0.9287 -0.0760
vn 0.6640 0.7325 -0.1499
vn 0.6722 0.7396 0.0338
vn 0.3601 0.9329 0.0092
vn 0.6640 0.7325 -0.1499
vn 0.3675 0.9290 0.0447
vn 0.3601 0.9329 0.0092
vn 0.6722 0.7396 0.0338
vn 0.6551 0.7397 0.1539
vn 0.3675 0.9290 0.0447
vn 0.6722 0.7396 0.0338
vn 0.4128 0.9101 0.0370
vn 0.3675 0.9290 0.0447
vn 0.6551 0.7397 0.1539
vn 0.6461 0.7445 0.1683
vn 0.4128 0.9101 0.0370
vn 0.6551 0.7397 0.1539
vn 0.5994 0.7790 0.1842
vn 0.4128 0.9101 0.0370
vn 0.6461 0.7445 0.1683
vn 0.4396 0.8979 0.0246
vn 0.4128 0.9101 0.0370
vn 0.5994 0.7790 0.1842
vn 0.1439 0.9771 -0.1568
vn 0.4128 0.9101 0.0370
vn 0.4396 0.8979 0.0246
vn 0.0748 0.9911 -0.1102
vn 0.4128 0.9101 0.0370
vn 0.1439 0.9771 -0.1568
vn 0.0748 0.9911 -0.1102
vn 0.3675 0.9290 0.0447
vn 0.4128 0.9101 0.0370
vn 0.0748 0.9911 -0.1102
vn 0.0039 0.9980 -0.0636
vn 0.3675 0.9290 0.0447
vn 0.0039 0.9980 -0.0636
vn 0.3601 0.9329 0.0092
vn 0.3675 0.9290 0.0447
vn 0.0039 0.9980 -0.0636
vn -0.0189 0.9998 -0.0017
vn 0.3601 0.9329 0.0092
vn -0.0189 0.9998 -0.0017
vn 0.3630 0.9287 -0.0760
vn 0.3601 0.9329 0.0092
vn -0.0189 0.9998 -0.0017
vn -0.0096 0.9998 0.0166
vn 0.3630 0.9287 -0.0760
vn -0.0096 0.9998 0.0166
vn 0.0785 0.9865 0.1435
vn 0.3630 0.9287 -0.0760
vn 0.0785 0.9865 0.1435
vn 0.3944 0.9186 -0.0247
vn 0.3630 0.9287 -0.0760
vn 0.0785 0.9865 0.1435
vn 0.1965 0.9210 0.3362
vn 0.3944 0.9186 -0.0247
vn 0.1965 0.9210 0.3362
vn 0.4213 0.8950 0.1469
vn 0.3944 0.9186 -0.0247
vn 0.1965 0.9210 0.3362
vn 0.3186 0.8310 0.4560
vn 0.4213 0.8950 0.1469
vn 0.1965 0.9210 0.3362
vn 0.1511 0.7969 0.5849
vn 0.3186 0.8310 0.4560
vn 0.1965 0.9210 0.3362
vn -0.0465 0.8721 0.4871
vn 0.1511 0.7969 0.5849
vn 0.0785 0.9865 0.1435
vn -0.0465 0.8721 0.4871
vn 0.1965 0.9210 0.3362
vn -0.0465 0.8721 0.4871
vn -0.0203 0.6833 0.7298
vn 0.1511 0.7969 0.5849
vn -0.0465 0.8721 0.4871
vn -0.2836 0.7444 0.6045
vn -0.0203 0.6833 0.7298
vn -0.2836 0.7444 0.6045
vn -0.2056 0.4140 0.8868
vn -0.0203 0.6833 0.7298
vn -0.2836 0.7444 0.6045
vn -0.5050 0.4724 0.7223
vn -0.2056 0.4140 0.8868
vn -0.2836 0.7444 0.6045
vn -0.7646 0.4383 0.4725
vn -0.5050 0.4724 0.7223
vn -0.2836 0.7444 0.6045
vn -0.5527 0.7264 0.4084
vn -0.7646 0.4383 0.4725
vn -0.0465 0.8721 0.4871
vn -0.5527 0.7264 0.4084
vn -0.2836 0.7444 0.6045
vn -0.2599 0.9195 0.2948
vn -0.5527 0.7264 0.4084
vn -0.0465 0.8721 0.4871
vn 0.0785 0.9865 0.1435
vn -0.2599 0.9195 0.2948
vn -0.0465 0.8721 0.4871
vn -0.3765 0.9206 0.1040
vn -0.2599 0.9195 0.2948
vn 0.0785 0.9865 0.1435
vn -0.0096 0.9998 0.0166
vn -0.3765 0.9206 0.1040
vn 0.0785 0.9865 0.1435
vn -0.3946 0.9188 0.0032
vn -0.3765 0.9206 0.1040
vn -0.0096 0.9998 0.0166
vn -0.0189 0.9998 -0.0017
vn -0.3946 0.9188 0.0032
vn -0.0096 0.9998 0.0166
vn -0.3462 0.9277 -0.1400
vn -0.3946 0.9188 0.0032
vn -0.0189 0.9998 -0.0017
vn 0.0039 0.9980 -0.0636
vn -0.3462 0.9277 -0.1400
vn -0.0189 0.9998 -0.0017
vn -0.2430 0.9416 -0.2331
vn -0.3462 0.9277 -0.1400
vn 0.0039 0.9980 -0.0636
vn 0.0748 0.9911 -0.1102
vn -0.2430 0.9416 -0.2331
vn 0.0039 0.9980 -0.0636
vn -0.1446 0.9357 -0.3219
vn -0.2430 0.9416 -0.2331
vn 0.0748 0.9911 -0.1102
vn -0.1446 0.9357 -0.3219
vn 0.0748 0.9911 -0.1102
vn 0.1439 0.9771 -0.1568
vn -0.4030 0.7878 -0.4658
vn -0.2430 0.9416 -0.2331
vn -0.1446 0.9357 -0.3219
vn -0.5333 0.7766 -0.3354
vn -0.2430 0.9416 -0.2331
vn -0.4030 0.7878 -0.4658
vn -0.5333 0.7766 -0.3354
vn -0.3462 0.9277 -0.1400
vn -0.2430 0.9416 -0.2331
vn -0.6458 0.4805 -0.5933
vn -0.5333 0.7766 -0.3354
vn -0.4030 0.7878 -0.4658
vn -0.7786 0.4611 -0.4256
vn -0.5333 0.7766 -0.3354
vn -0.6458 0.4805 -0.5933
vn -0.6471 0.7392 -0.1866
vn -0.5333 0.7766 -0.3354
vn -0.7786 0.4611 -0.4256
vn -0.6471 0.7392 -0.1866
vn -0.3462 0.9277 -0.1400
vn -0.5333 0.7766 -0.3354
vn -0.6471 0.7392 -0.1866
vn -0.3946 0.9188 0.0032
vn -0.3462 0.9277 -0.1400
vn -0.6471 0.7392 -0.1866
vn -0.6908 0.7229 0.0141
vn -0.3946 0.9188 0.0032
vn -0.6908 0.7229 0.0141
vn -0.3765 0.9206 0.1040
vn -0.3946 0.9188 0.0032
vn -0.6908 0.7229 0.0141
vn -0.6746 0.7168 0.1763
vn -0.3765 0.9206 0.1040
vn -0.6746 0.7168 0.1763
vn -0.2599 0.9195 0.2948
vn -0.3765 0.9206 0.1040
vn -0.6746 0.7168 0.1763
vn -0.5527 0.7264 0.4084
vn -0.2599 0.9195 0.2948
vn -0.6746 0.7168 0.1763
vn -0.8762 0.4253 0.2267
vn -0.5527 0.7264 0.4084
vn -0.5527 0.7264 0.4084
vn -0.8762 0.4253 0.2267
vn -0.7646 0.4383 0.4725
vn -0.9026 0.4297 0.0242
vn -0.8762 0.4253 0.2267
vn -0.6746 0.7168 0.1763
vn -0.6908 0.7229 0.0141
vn -0.9026 0.4297 0.0242
vn -0.6746 0.7168 0.1763
vn -0.6908 0.7229 0.0141
vn -0.8728 0.4365 -0.2182
vn -0.9026 0.4297 0.0242
vn -0.6471 0.7392 -0.1866
vn -0.8728 0.4365 -0.2182
vn -0.6908 0.7229 0.0141
vn -0.6471 0.7392 -0.1866
vn -0.7786 0.4611 -0.4256
vn -0.8728 0.4365 -0.2182
vn 0.1306 -0.2550 0.9581
vn -0.2878 -0.5575 0.7787
vn -0.1629 -0.8174 0.5526
vn -0.1629 -0.8174 0.5526
vn 0.2766 -0.3949 0.8761
vn 0.1306 -0.2550 0.9581
vn -0.2333 -0.9266 0.2950
vn -0.1629 -0.8174 0.5526
vn -0.2878 -0.5575 0.7787
vn -0.2878 -0.5575 0.7787
vn -0.5461 -0.6066 0.5778
vn -0.2333 -0.9266 0.2950
vn -0.3320 -0.9313 0.1496
vn -0.2333 -0.9266 0.2950
vn -0.5461 -0.6066 0.5778
vn -0.5461 -0.6066 0.5778
vn -0.7202 -0.5830 0.3760
vn -0.3320 -0.9313 0.1496
vn -0.7202 -0.5830 0.3760
vn -0.7803 -0.5925 0.2000
vn -0.3319 -0.9396 0.0836
vn -0.3319 -0.9396 0.0836
vn -0.3320 -0.9313 0.1496
vn -0.7202 -0.5830 0.3760
vn -0.3319 -0.9396 0.0836
vn -0.7803 -0.5925 0.2000
vn -0.8065 -0.5909 0.0205
vn -0.8065 -0.5909 0.0205
vn -0.3433 -0.9392 0.0078
vn -0.3319 -0.9396 0.0836
vn -0.7741 -0.6028 -0.1934
vn -0.3198 -0.9433 -0.0885
vn -0.3433 -0.9392 0.0078
vn -0.3433 -0.9392 0.0078
vn -0.8065 -0.5909 0.0205
vn -0.7741 -0.6028 -0.1934
vn -0.3198 -0.9433 -0.0885
vn -0.7741 -0.6028 -0.1934
vn -0.6878 -0.6272 -0.3655
vn -0.6878 -0.6272 -0.3655
vn -0.2668 -0.9521 -0.1492
vn -0.3198 -0.9433 -0.0885
vn -0.2668 -0.9521 -0.1492
vn -0.6878 -0.6272 -0.3655
vn -0.6120 -0.6073 -0.5065
vn -0.6120 -0.6073 -0.5065
vn -0.2386 -0.9471 -0.2145
vn -0.2668 -0.9521 -0.1492
vn -0.4835 -0.5932 -0.6437
vn -0.1949 -0.9483 -0.2507
vn -0.2386 -0.9471 -0.2145
vn -0.2386 -0.9471 -0.2145
vn -0.6120 -0.6073 -0.5065
vn -0.4835 -0.5932 -0.6437
vn -0.1886 -0.5874 -0.7870
vn -0.0346 -0.8822 -0.4696
vn -0.1949 -0.9483 -0.2507
vn -0.1949 -0.9483 -0.2507
vn -0.4835 -0.5932 -0.6437
vn -0.1886 -0.5874 -0.7870
vn -0.0346 -0.8822 -0.4696
vn -0.1886 -0.5874 -0.7870
vn 0.3000 -0.1857 -0.9357
vn 0.3000 -0.1857 -0.9357
vn 0.3548 -0.5018 -0.7888
vn -0.0346 -0.8822 -0.4696
vn 0.0303 -0.9759 -0.2162
vn -0.0346 -0.8822 -0.4696
vn 0.3548 -0.5018 -0.7888
vn 0.3970 -0.6371 -0.6606
vn 0.0303 -0.9759 -0.2162
vn 0.3548 -0.5018 -0.7888
vn 0.3970 -0.6371 -0.6606
vn 0.0942 -0.9919 -0.0857
vn 0.0303 -0.9759 -0.2162
vn 0.4926 -0.6445 -0.5848
vn 0.0942 -0.9919 -0.0857
vn 0.3970 -0.6371 -0.6606
vn 0.6801 -0.5947 -0.4286
vn 0.0942 -0.9919 -0.0857
vn 0.4926 -0.6445 -0.5848
vn 0.2488 -0.9678 -0.0388
vn 0.0942 -0.9919 -0.0857
vn 0.6801 -0.5947 -0.4286
vn 0.8542 -0.4068 -0.3239
vn 0.2488 -0.9678 -0.0388
vn 0.6801 -0.5947 -0.4286
vn 0.4480 -0.8939 -0.0174
vn 0.2488 -0.9678 -0.0388
vn 0.8542 -0.4068 -0.3239
vn 0.9433 -0.1231 -0.3083
vn 0.4480 -0.8939 -0.0174
vn 0.8542 -0.4068 -0.3239
vn 0.7928 -0.6085 0.0356
vn 0.4480 -0.8939 -0.0174
vn 0.9433 -0.1231 -0.3083
vn 0.3076 -0.9406 0.1440
vn 0.4480 -0.8939 -0.0174
vn 0.7928 -0.6085 0.0356
vn 0.7510 -0.5715 0.3307
vn 0.3076 -0.9406 0.1440
vn 0.7928 -0.6085 0.0356
vn 0.2923 -0.9478 0.1274
vn 0.3076 -0.9406 0.1440
vn 0.7510 -0.5715 0.3307
vn 0.7069 -0.6043 0.3676
vn 0.2923 -0.9478 0.1274
vn 0.7510 -0.5715 0.3307
vn 0.7379 -0.6024 0.3045
vn 0.2923 -0.9478 0.1274
vn 0.7069 -0.6043 0.3676
vn 0.3082 -0.9455 0.1047
vn 0.2923 -0.9478 0.1274
vn 0.7379 -0.6024 0.3045
vn 0.7420 -0.6220 0.2501
vn 0.3082 -0.9455 0.1047
vn 0.7379 -0.6024 0.3045
vn 0.2954 -0.9515 0.0858
vn 0.3082 -0.9455 0.1047
vn 0.7420 -0.6220 0.2501
vn 0.7701 -0.6340 0.0706
vn 0.2954 -0.9515 0.0858
vn 0.7420 -0.6220 0.2501
vn 0.3008 -0.9535 0.0205
vn 0.2954 -0.9515 0.0858
vn 0.7701 -0.6340 0.0706
vn 0.7592 -0.6238 -0.1860
vn 0.3008 -0.9535 0.0205
vn 0.7701 -0.6340 0.0706
vn 0.3035 -0.9482 -0.0937
vn 0.3008 -0.9535 0.0205
vn 0.7592 -0.6238 -0.1860
vn 0.7032 -0.5919 -0.3939
vn 0.3035 -0.9482 -0.0937
vn 0.7592 -0.6238 -0.1860
vn 0.3073 -0.9254 -0.2219
vn 0.3035 -0.9482 -0.0937
vn 0.7032 -0.5919 -0.3939
vn 0.7143 -0.6044 -0.3530
vn 0.3073 -0.9254 -0.2219
vn 0.7032 -0.5919 -0.3939
vn 0.3605 -0.9205 -0.1505
vn 0.3073 -0.9254 -0.2219
vn 0.7143 -0.6044 -0.3530
vn 0.8370 -0.5365 -0.1080
vn 0.3605 -0.9205 -0.1505
vn 0.7143 -0.6044 -0.3530
vn 0.6218 -0.7799 -0.0723
vn 0.3605 -0.9205 -0.1505
vn 0.8370 -0.5365 -0.1080
vn 0.1487 -0.9869 -0.0633
vn 0.3605 -0.9205 -0.1505
vn 0.6218 -0.7799 -0.0723
vn 0.4974 -0.8657 0.0560
vn 0.1487 -0.9869 -0.0633
vn 0.6218 -0.7799 -0.0723
vn 0.0089 -0.9998 0.0158
vn 0.1487 -0.9869 -0.0633
vn 0.4974 -0.8657 0.0560
vn 0.1825 -0.9579 0.2218
vn 0.0089 -0.9998 0.0158
vn 0.4974 -0.8657 0.0560
vn -0.0060 -0.9168 0.3994
vn 0.0089 -0.9998 0.0158
vn 0.1825 -0.9579 0.2218
vn -0.0894 -0.9880 0.1257
vn 0.0089 -0.9998 0.0158
vn -0.0060 -0.9168 0.3994
vn -0.1629 -0.8174 0.5526
vn -0.0894 -0.9880 0.1257
vn -0.0060 -0.9168 0.3994
vn -0.2333 -0.9266 0.2950
vn -0.0894 -0.9880 0.1257
vn -0.1629 -0.8174 0.5526
vn -0.1333 -0.9903 0.0394
vn -0.0894 -0.9880 0.1257
vn -0.2333 -0.9266 0.2950
vn -0.3320 -0.9313 0.1496
vn -0.1333 -0.9903 0.0394
vn -0.2333 -0.9266 0.2950
vn -0.1000 -0.9949 0.0157
vn -0.1333 -0.9903 0.0394
vn -0.3320 -0.9313 0.1496
vn -0.3319 -0.9396 0.0836
vn -0.1000 -0.9949 0.0157
vn -0.3320 -0.9313 0.1496
vn -0.3433 -0.9392 0.0078
vn -0.1000 -0.9949 0.0157
vn -0.3319 -0.9396 0.0836
vn -0.0972 -0.9953 0.0023
vn -0.1000 -0.9949 0.0157
vn -0.3433 -0.9392 0.0078
vn -0.3198 -0.9433 -0.0885
vn -0.0972 -0.9953 0.0023
vn -0.3433 -0.9392 0.0078
vn -0.0888 -0.9956 -0.0293
vn -0.0972 -0.9953 0.0023
vn -0.3198 -0.9433 -0.0885
vn -0.2668 -0.9521 -0.1492
vn -0.0888 -0.9956 -0.0293
vn -0.3198 -0.9433 -0.0885
vn -0.0687 -0.9965 -0.0479
vn -0.0888 -0.9956 -0.0293
vn -0.2668 -0.9521 -0.1492
vn -0.2386 -0.9471 -0.2145
vn -0.0687 -0.9965 -0.0479
vn -0.2668 -0.9521 -0.1492
vn -0.0501 -0.9958 -0.0770
vn -0.0687 -0.9965 -0.0479
vn -0.2386 -0.9471 -0.2145
vn -0.1949 -0.9483 -0.2507
vn -0.0501 -0.9958 -0.0770
vn -0.2386 -0.9471 -0.2145
vn -0.0534 -0.9948 -0.0871
vn -0.0501 -0.9958 -0.0770
vn -0.1949 -0.9483 -0.2507
vn -0.0346 -0.8822 -0.4696
vn -0.0534 -0.9948 -0.0871
vn -0.1949 -0.9483 -0.2507
vn -0.0534 -0.9948 -0.0871
vn -0.0346 -0.8822 -0.4696
vn 0.0303 -0.9759 -0.2162
vn 0.0347 -0.9992 -0.0195
vn -0.0501 -0.9958 -0.0770
vn -0.0534 -0.9948 -0.0871
vn 0.0203 -0.9996 -0.0205
vn 0.0347 -0.9992 -0.0195
vn -0.0534 -0.9948 -0.0871
vn 0.1032 -0.9939 0.0395
vn 0.0347 -0.9992 -0.0195
vn 0.0203 -0.9996 -0.0205
vn 0.2488 -0.9678 -0.0388
vn 0.1032 -0.9939 0.0395
vn 0.0203 -0.9996 -0.0205
vn 0.2488 -0.9678 -0.0388
vn 0.0203 -0.9996 -0.0205
vn 0.0942 -0.9919 -0.0857
vn 0.4480 -0.8939 -0.0174
vn 0.1032 -0.9939 0.0395
vn 0.2488 -0.9678 -0.0388
vn 0.3076 -0.9406 0.1440
vn 0.1032 -0.9939 0.0395
vn 0.4480 -0.8939 -0.0174
vn 0.2923 -0.9478 0.1274
vn 0.1032 -0.9939 0.0395
vn 0.3076 -0.9406 0.1440
vn 0.1081 -0.9938 0.0275
vn 0.1032 -0.9939 0.0395
vn 0.2923 -0.9478 0.1274
vn 0.1081 -0.9938 0.0275
vn 0.0347 -0.9992 -0.0195
vn 0.1032 -0.9939 0.0395
vn 0.1081 -0.9938 0.0275
vn 0.0198 -0.9997 -0.0112
vn 0.0347 -0.9992 -0.0195
vn 0.0198 -0.9997 -0.0112
vn -0.0501 -0.9958 -0.0770
vn 0.0347 -0.9992 -0.0195
vn 0.0198 -0.9997 -0.0112
vn -0.0687 -0.9965 -0.0479
vn -0.0501 -0.9958 -0.0770
vn 0.0198 -0.9997 -0.0112
vn -0.0007 -1.0000 -0.0059
vn -0.0687 -0.9965 -0.0479
vn -0.0007 -1.0000 -0.0059
vn -0.0888 -0.9956 -0.0293
vn -0.0687 -0.9965 -0.0479
vn -0.0007 -1.0000 -0.0059
vn -0.0045 -1.0000 0.0021
vn -0.0888 -0.9956 -0.0293
vn -0.0045 -1.0000 0.0021
vn -0.0972 -0.9953 0.0023
vn -0.0888 -0.9956 -0.0293
vn -0.0045 -1.0000 0.0021
vn -0.0133 -0.9997 -0.0207
vn -0.0972 -0.9953 0.0023
vn -0.0133 -0.9997 -0.0207
vn -0.1000 -0.9949 0.0157
vn -0.0972 -0.9953 0.0023
vn -0.0133 -0.9997 -0.0207
vn -0.1333 -0.9903 0.0394
vn -0.1000 -0.9949 0.0157
vn -0.0133 -0.9997 -0.0207
vn -0.0300 -0.9994 -0.0161
vn -0.1333 -0.9903 0.0394
vn -0.0300 -0.9994 -0.0161
vn -0.0894 -0.9880 0.1257
vn -0.1333 -0.9903 0.0394
vn -0.0300 -0.9994 -0.0161
vn 0.0089 -0.9998 0.0158
vn -0.0894 -0.9880 0.1257
vn -0.0300 -0.9994 -0.0161
vn 0.1487 -0.9869 -0.0633
vn 0.0089 -0.9998 0.0158
vn -0.0300 -0.9994 -0.0161
vn 0.0946 -0.9915 -0.0894
vn 0.1487 -0.9869 -0.0633
vn 0.0946 -0.9915 -0.0894
vn 0.3605 -0.9205 -0.1505
vn 0.1487 -0.9869 -0.0633
vn 0.0946 -0.9915 -0.0894
vn 0.3073 -0.9254 -0.2219
vn 0.3605 -0.9205 -0.1505
vn 0.0811 -0.9954 -0.0504
vn 0.3073 -0.9254 -0.2219
vn 0.0946 -0.9915 -0.0894
vn -0.0300 -0.9994 -0.0161
vn 0.0811 -0.9954 -0.0504
vn 0.0946 -0.9915 -0.0894
vn -0.0133 -0.9997 -0.0207
vn 0.0811 -0.9954 -0.0504
vn -0.0300 -0.9994 -0.0161
vn -0.0045 -1.0000 0.0021
vn 0.0811 -0.9954 -0.0504
vn -0.0133 -0.9997 -0.0207
vn 0.0857 -0.9963 0.0041
vn 0.0811 -0.9954 -0.0504
vn -0.0045 -1.0000 0.0021
vn -0.0007 -1.0000 -0.0059
vn 0.0857 -0.9963 0.0041
vn -0.0045 -1.0000 0.0021
vn 0.0833 -0.9964 0.0184
vn 0.0857 -0.9963 0.0041
vn -0.0007 -1.0000 -0.0059
vn 0.0198 -0.9997 -0.0112
vn 0.0833 -0.9964 0.0184
vn -0.0007 -1.0000 -0.0059
vn 0.0988 -0.9950 0.0147
vn 0.0833 -0.9964 0.0184
vn 0.0198 -0.9997 -0.0112
vn 0.1081 -0.9938 0.0275
vn 0.0988 -0.9950 0.0147
vn 0.0198 -0.9997 -0.0112
vn 0.3082 -0.9455 0.1047
vn 0.0988 -0.9950 0.0147
vn 0.1081 -0.9938 0.0275
vn 0.3082 -0.9455 0.1047
vn 0.1081 -0.9938 0.0275
vn 0.2923 -0.9478 0.1274
vn 0.2954 -0.9515 0.0858
vn 0.0988 -0.9950 0.0147
vn 0.3082 -0.9455 0.1047
vn 0.2954 -0.9515 0.0858
vn 0.0833 -0.9964 0.0184
vn 0.0988 -0.9950 0.0147
vn 0.3008 -0.9535 0.0205
vn 0.0833 -0.9964 0.0184
vn 0.2954 -0.9515 0.0858
vn 0.3008 -0.9535 0.0205
vn 0.0857 -0.9963 0.0041
vn 0.0833 -0.9964 0.0184
vn 0.3035 -0.9482 -0.0937
vn 0.0857 -0.9963 0.0041
vn 0.3008 -0.9535 0.0205
vn 0.3035 -0.9482 -0.0937
vn 0.0811 -0.9954 -0.0504
vn 0.0857 -0.9963 0.0041
vn 0.0811 -0.9954 -0.0504
vn 0.3035 -0.9482 -0.0937
vn 0.3073 -0.9254 -0.2219
vn 0.2032 0.3762 0.9040
vn 0.6154 0.2531 0.7465
vn 0.3025 0.5226 0.7971
vn 0.6154 0.2531 0.7465
vn 0.3808 0.5706 0.7277
vn 0.3025 0.5226 0.7971
vn 0.6154 0.2531 0.7465
vn 0.4814 0.5717 0.6644
vn 0.3808 0.5706 0.7277
vn 0.6154 0.2531 0.7465
vn 0.6190 0.5529 0.5577
vn 0.4814 0.5717 0.6644
vn 0.6154 0.2531 0.7465
vn 0.7549 0.4624 0.4652
vn 0.6190 0.5529 0.5577
vn 0.6154 0.2531 0.7465
vn 0.8632 0.3110 0.3978
vn 0.7549 0.4624 0.4652
vn 0.6154 0.2531 0.7465
vn 0.9322 0.1249 0.3398
vn 0.8632 0.3110 0.3978
vn 0.6154 0.2531 0.7465
vn 0.9374 -0.1948 0.2885
vn 0.9322 0.1249 0.3398
vn 0.6154 0.2531 0.7465
vn 0.8466 -0.3093 0.4331
vn 0.9374 -0.1948 0.2885
vn 0.6154 0.2531 0.7465
vn 0.7657 -0.3259 0.5545
vn 0.8466 -0.3093 0.4331
vn 0.6154 0.2531 0.7465
vn 0.5975 -0.4066 0.6911
vn 0.7657 -0.3259 0.5545
vn 0.6154 0.2531 0.7465
vn 0.4076 -0.3498 0.8435
vn 0.5975 -0.4066 0.6911
vn 0.6154 0.2531 0.7465
vn 0.2766 -0.3949 0.8761
vn 0.4076 -0.3498 0.8435
vn 0.6154 0.2531 0.7465
vn 0.1306 -0.2550 0.9581
vn 0.2766 -0.3949 0.8761
vn 0.6154 0.2531 0.7465
vn 0.1332 0.1278 0.9828
vn 0.1306 -0.2550 0.9581
vn 0.1332 0.1278 0.9828
vn 0.6154 0.2531 0.7465
vn 0.2032 0.3762 0.9040
vn 0.8167 0.0850 -0.5707
vn 0.7565 0.0726 -0.6499
vn 0.8406 0.3321 -0.4279
vn 0.8406 0.3321 -0.4279
vn 0.8950 0.2195 -0.3883
vn 0.8167 0.0850 -0.5707
vn 0.9433 -0.1231 -0.3083
vn 0.8542 -0.4068 -0.3239
vn 0.8167 0.0850 -0.5707
vn 0.8167 0.0850 -0.5707
vn 0.8542 -0.4068 -0.3239
vn 0.6801 -0.5947 -0.4286
vn 0.6801 -0.5947 -0.4286
vn 0.7565 0.0726 -0.6499
vn 0.8167 0.0850 -0.5707
vn 0.7565 0.0726 -0.6499
vn 0.6801 -0.5947 -0.4286
vn 0.4926 -0.6445 -0.5848
vn 0.4926 -0.6445 -0.5848
vn 0.6521 0.0697 -0.7549
vn 0.7565 0.0726 -0.6499
vn 0.6521 0.0697 -0.7549
vn 0.4926 -0.6445 -0.5848
vn 0.3970 -0.6371 -0.6606
vn 0.3970 -0.6371 -0.6606
vn 0.5988 0.0644 -0.7983
vn 0.6521 0.0697 -0.7549
vn 0.5988 0.0644 -0.7983
vn 0.3970 -0.6371 -0.6606
vn 0.3548 -0.5018 -0.7888
vn 0.3548 -0.5018 -0.7888
vn 0.6179 0.0543 -0.7844
vn 0.5988 0.0644 -0.7983
vn 0.6179 0.0543 -0.7844
vn 0.3548 -0.5018 -0.7888
vn 0.3000 -0.1857 -0.9357
vn 0.9334 0.0836 -0.3489
vn 0.9433 -0.1231 -0.3083
vn 0.8167 0.0850 -0.5707
vn 0.8167 0.0850 -0.5707
vn 0.8950 0.2195 -0.3883
vn 0.9334 0.0836 -0.3489
vn 0.7565 0.0726 -0.6499
vn 0.6521 0.0697 -0.7549
vn 0.7439 0.4223 -0.5179
vn 0.7439 0.4223 -0.5179
vn 0.8406 0.3321 -0.4279
vn 0.7565 0.0726 -0.6499
vn 0.6521 0.0697 -0.7549
vn 0.5988 0.0644 -0.7983
vn 0.5990 0.4625 -0.6537
vn 0.5990 0.4625 -0.6537
vn 0.7439 0.4223 -0.5179
vn 0.6521 0.0697 -0.7549
vn 0.5988 0.0644 -0.7983
vn 0.6179 0.0543 -0.7844
vn 0.4741 0.4336 -0.7663
vn 0.4741 0.4336 -0.7663
vn 0.5990 0.4625 -0.6537
vn 0.5988 0.0644 -0.7983
vn 0.3232 0.2879 -0.9015
vn 0.3753 0.3921 -0.8399
vn 0.4741 0.4336 -0.7663
vn 0.4741 0.4336 -0.7663
vn 0.6179 0.0543 -0.7844
vn 0.3232 0.2879 -0.9015
vn 0.3000 -0.1857 -0.9357
vn 0.3338 0.1367 -0.9327
vn 0.3232 0.2879 -0.9015
vn 0.3232 0.2879 -0.9015
vn 0.6179 0.0543 -0.7844
vn 0.3000 -0.1857 -0.9357
# 1176 vertex normals

vt 0.6481 0.9019 0.0000
vt 0.6411 0.8892 0.0000
vt 0.6666 0.8867 0.0000
vt 0.6613 0.8781 0.0000
vt 0.4578 0.8264 0.0000
vt 0.4518 0.8295 0.0000
vt 0.4334 0.8226 0.0000
vt 0.4318 0.8241 0.0000
vt 0.4430 0.8314 0.0000
vt 0.4292 0.8257 0.0000
vt 0.4357 0.8361 0.0000
vt 0.4264 0.8275 0.0000
vt 0.4241 0.8301 0.0000
vt 0.4297 0.8430 0.0000
vt 0.4221 0.8326 0.0000
vt 0.4261 0.8525 0.0000
vt 0.4096 0.8980 0.0000
vt 0.4026 0.8986 0.0000
vt 0.4020 0.8711 0.0000
vt 0.4045 0.8721 0.0000
vt 0.4286 0.9293 0.0000
vt 0.4203 0.9359 0.0000
vt 0.4611 0.9534 0.0000
vt 0.4547 0.9636 0.0000
vt 0.4975 0.9675 0.0000
vt 0.4948 0.9790 0.0000
vt 0.5358 0.9721 0.0000
vt 0.5359 0.9840 0.0000
vt 0.5778 0.9679 0.0000
vt 0.5810 0.9793 0.0000
vt 0.6093 0.9561 0.0000
vt 0.6147 0.9667 0.0000
vt 0.6341 0.9400 0.0000
vt 0.6420 0.9483 0.0000
vt 0.6531 0.9185 0.0000
vt 0.6628 0.9218 0.0000
vt 0.6676 0.8968 0.0000
vt 0.6737 0.8950 0.0000
vt 0.6684 0.8733 0.0000
vt 0.6708 0.8719 0.0000
vt 0.4342 0.8399 0.0000
vt 0.4138 0.8555 0.0000
vt 0.4120 0.8537 0.0000
vt 0.4366 0.8464 0.0000
vt 0.4704 0.8335 0.0000
vt 0.4710 0.8442 0.0000
vt 0.4965 0.8375 0.0000
vt 0.4953 0.8491 0.0000
vt 0.5198 0.8413 0.0000
vt 0.5193 0.8533 0.0000
vt 0.5403 0.8421 0.0000
vt 0.5413 0.8540 0.0000
vt 0.5647 0.8397 0.0000
vt 0.5666 0.8512 0.0000
vt 0.5786 0.8379 0.0000
vt 0.5801 0.8492 0.0000
vt 0.5945 0.8471 0.0000
vt 0.5944 0.8360 0.0000
vt 0.6094 0.8452 0.0000
vt 0.6125 0.8354 0.0000
vt 0.6342 0.8436 0.0000
vt 0.6380 0.8387 0.0000
vt 0.6563 0.8544 0.0000
vt 0.6585 0.8530 0.0000
vt 0.6551 0.8569 0.0000
vt 0.6319 0.8522 0.0000
vt 0.6088 0.8550 0.0000
vt 0.5951 0.8577 0.0000
vt 0.5808 0.8602 0.0000
vt 0.5673 0.8629 0.0000
vt 0.5412 0.8661 0.0000
vt 0.5185 0.8653 0.0000
vt 0.4947 0.8607 0.0000
vt 0.4710 0.8545 0.0000
vt 0.4376 0.8528 0.0000
vt 0.4147 0.8577 0.0000
vt 0.4367 0.8598 0.0000
vt 0.4690 0.8666 0.0000
vt 0.4932 0.8750 0.0000
vt 0.5170 0.8803 0.0000
vt 0.5397 0.8818 0.0000
vt 0.5659 0.8784 0.0000
vt 0.5800 0.8741 0.0000
vt 0.5950 0.8702 0.0000
vt 0.6107 0.8646 0.0000
vt 0.6331 0.8596 0.0000
vt 0.6551 0.8598 0.0000
vt 0.6361 0.8679 0.0000
vt 0.6561 0.8629 0.0000
vt 0.6408 0.8763 0.0000
vt 0.6577 0.8661 0.0000
vt 0.6600 0.8691 0.0000
vt 0.6466 0.8841 0.0000
vt 0.6626 0.8718 0.0000
vt 0.6530 0.8905 0.0000
vt 0.6655 0.8732 0.0000
vt 0.6600 0.8950 0.0000
vt 0.6445 0.9137 0.0000
vt 0.6369 0.9071 0.0000
vt 0.6288 0.8980 0.0000
vt 0.6210 0.8874 0.0000
vt 0.6150 0.8758 0.0000
vt 0.6005 0.8821 0.0000
vt 0.6055 0.8954 0.0000
vt 0.6119 0.9082 0.0000
vt 0.6195 0.9204 0.0000
vt 0.6269 0.9309 0.0000
vt 0.6045 0.9454 0.0000
vt 0.5756 0.9561 0.0000
vt 0.5361 0.9600 0.0000
vt 0.5006 0.9563 0.0000
vt 0.4671 0.9438 0.0000
vt 0.4360 0.9227 0.0000
vt 0.4155 0.8953 0.0000
vt 0.4069 0.8720 0.0000
vt 0.4206 0.8903 0.0000
vt 0.4092 0.8709 0.0000
vt 0.4255 0.8836 0.0000
vt 0.4112 0.8687 0.0000
vt 0.4303 0.8758 0.0000
vt 0.4129 0.8658 0.0000
vt 0.4142 0.8630 0.0000
vt 0.4341 0.8675 0.0000
vt 0.4149 0.8603 0.0000
vt 0.4647 0.8786 0.0000
vt 0.4906 0.8899 0.0000
vt 0.5147 0.8961 0.0000
vt 0.5384 0.8982 0.0000
vt 0.5676 0.8938 0.0000
vt 0.5834 0.8877 0.0000
vt 0.5864 0.9026 0.0000
vt 0.5687 0.9100 0.0000
vt 0.5374 0.9144 0.0000
vt 0.5116 0.9117 0.0000
vt 0.4865 0.9045 0.0000
vt 0.4586 0.8910 0.0000
vt 0.4512 0.9032 0.0000
vt 0.4433 0.9141 0.0000
vt 0.4742 0.9315 0.0000
vt 0.4809 0.9183 0.0000
vt 0.5082 0.9270 0.0000
vt 0.5369 0.9302 0.0000
vt 0.5707 0.9261 0.0000
vt 0.5918 0.9179 0.0000
vt 0.5987 0.9326 0.0000
vt 0.5735 0.9420 0.0000
vt 0.5364 0.9458 0.0000
vt 0.5044 0.9421 0.0000
vt 0.4387 0.8844 0.0000
vt 0.4670 0.9143 0.0000
vt 0.4995 0.9330 0.0000
vt 0.5340 0.9440 0.0000
vt 0.5750 0.9463 0.0000
vt 0.6035 0.9391 0.0000
vt 0.6294 0.9290 0.0000
vt 0.6534 0.9133 0.0000
vt 0.6699 0.8950 0.0000
vt 0.6742 0.8795 0.0000
vt 0.6721 0.8766 0.0000
vt 0.6704 0.8734 0.0000
vt 0.6686 0.8704 0.0000
vt 0.6547 0.8703 0.0000
vt 0.6668 0.8679 0.0000
vt 0.6481 0.8643 0.0000
vt 0.6657 0.8652 0.0000
vt 0.6442 0.8593 0.0000
vt 0.6266 0.8667 0.0000
vt 0.6214 0.8590 0.0000
vt 0.6086 0.8745 0.0000
vt 0.6065 0.8645 0.0000
vt 0.5915 0.8682 0.0000
vt 0.5921 0.8789 0.0000
vt 0.5773 0.8717 0.0000
vt 0.5766 0.8829 0.0000
vt 0.5511 0.8736 0.0000
vt 0.5482 0.8844 0.0000
vt 0.5294 0.8681 0.0000
vt 0.5248 0.8778 0.0000
vt 0.5087 0.8555 0.0000
vt 0.5001 0.8619 0.0000
vt 0.4898 0.8401 0.0000
vt 0.4794 0.8435 0.0000
vt 0.4638 0.8460 0.0000
vt 0.4505 0.8543 0.0000
vt 0.4418 0.8681 0.0000
vt 0.4725 0.8995 0.0000
vt 0.5053 0.9203 0.0000
vt 0.5368 0.9303 0.0000
vt 0.5752 0.9314 0.0000
vt 0.5996 0.9241 0.0000
vt 0.6243 0.9157 0.0000
vt 0.6191 0.9005 0.0000
vt 0.6332 0.8771 0.0000
vt 0.6108 0.8884 0.0000
vt 0.5968 0.9076 0.0000
vt 0.5759 0.9143 0.0000
vt 0.5402 0.9144 0.0000
vt 0.5121 0.9054 0.0000
vt 0.4801 0.8838 0.0000
vt 0.4893 0.8702 0.0000
vt 0.5190 0.8905 0.0000
vt 0.5439 0.8983 0.0000
vt 0.5737 0.8985 0.0000
vt 0.5917 0.8936 0.0000
vt 0.4060 0.8621 0.0000
vt 0.6622 0.8566 0.0000
vt 0.6640 0.8587 0.0000
vt 0.6654 0.8606 0.0000
vt 0.6668 0.8629 0.0000
vt 0.6684 0.8659 0.0000
vt 0.4204 0.8340 0.0000
vt 0.6764 0.8815 0.0000
vt 0.6730 0.8712 0.0000
vt 0.6740 0.8734 0.0000
vt 0.6751 0.8762 0.0000
vt 0.4225 0.8598 0.0000
vt 0.4350 0.8952 0.0000
vt 0.4615 0.9241 0.0000
vt 0.4952 0.9428 0.0000
vt 0.5318 0.9544 0.0000
vt 0.5746 0.9575 0.0000
vt 0.6067 0.9503 0.0000
vt 0.6337 0.9391 0.0000
vt 0.6573 0.9217 0.0000
vt 0.6719 0.9015 0.0000
vt 0.6696 0.8674 0.0000
vt 0.6716 0.8693 0.0000
vt 0.4242 0.8255 0.0000
vt 0.5147 0.8961 0.0000
vt 0.5374 0.9144 0.0000
vt 0.5116 0.9117 0.0000
# 231 texture coords

o SM_Seaslug_01_LOD0
g SM_Seaslug_01_LOD0
usemtl MAT_Sea_Shells
s 1
f 1/3/1 162/2/2 159/1/3 
f 1/3/4 139/4/5 162/2/6 
f 3/7/7 4/6/8 2/5/9 
f 5/8/10 4/6/11 3/7/12 
f 5/8/13 6/9/14 4/6/15 
f 188/10/16 6/9/17 5/8/18 
f 188/10/19 7/11/20 6/9/21 
f 8/12/22 7/11/23 188/10/24 
f 9/13/25 7/11/26 8/12/27 
f 9/13/28 152/14/29 7/11/30 
f 125/15/31 152/14/32 9/13/33 
f 125/15/34 10/16/35 152/14/36 
f 12/18/37 11/19/38 189/20/39 
f 189/20/40 13/17/41 12/18/42 
f 14/22/43 12/18/44 13/17/45 
f 13/17/46 15/21/47 14/22/48 
f 15/21/49 16/23/50 128/24/51 
f 128/24/52 14/22/53 15/21/54 
f 128/24/55 16/23/56 84/25/57 
f 84/25/58 129/26/59 128/24/60 
f 82/27/61 17/28/62 129/26/63 
f 129/26/64 84/25/65 82/27/66 
f 18/29/67 132/30/68 17/28/69 
f 17/28/70 82/27/71 18/29/72 
f 79/31/73 19/32/74 132/30/75 
f 132/30/76 18/29/77 79/31/78 
f 77/33/79 134/34/80 19/32/81 
f 19/32/82 79/31/83 77/33/84 
f 20/35/85 21/36/86 134/34/87 
f 134/34/88 77/33/89 20/35/90 
f 21/36/91 20/35/92 65/37/93 
f 65/37/94 22/38/95 21/36/96 
f 22/38/97 65/37/98 190/39/99 
f 190/39/100 136/40/101 22/38/102 
f 2/41/103 23/42/104 3/43/105 
f 2/41/106 42/44/107 23/42/108 
f 24/45/109 42/44/110 2/41/111 
f 40/46/112 42/44/113 24/45/114 
f 25/47/115 40/46/116 24/45/117 
f 39/48/118 40/46/119 25/47/120 
f 27/49/121 39/48/122 25/47/123 
f 26/50/124 39/48/125 27/49/126 
f 147/51/127 26/50/128 27/49/129 
f 37/52/130 26/50/131 147/51/132 
f 28/53/133 37/52/134 147/51/135 
f 36/54/136 37/52/137 28/53/138 
f 144/55/139 36/54/140 28/53/141 
f 34/56/142 36/54/143 144/55/144 
f 29/57/145 34/56/146 144/55/147 
f 30/58/148 29/57/149 144/55/150 
f 32/59/151 29/57/152 30/58/153 
f 143/60/154 32/59/155 30/58/156 
f 31/61/157 32/59/158 143/60/159 
f 142/62/160 31/61/161 143/60/162 
f 193/63/163 31/61/164 142/62/165 
f 193/63/166 142/62/167 192/64/168 
f 55/65/169 31/61/170 193/63/171 
f 55/65/172 33/66/173 31/61/174 
f 33/66/175 32/59/176 31/61/177 
f 33/66/178 53/67/179 32/59/180 
f 53/67/181 29/57/182 32/59/183 
f 53/67/184 52/68/185 29/57/186 
f 52/68/187 34/56/188 29/57/189 
f 52/68/190 35/69/191 34/56/192 
f 35/69/193 36/54/194 34/56/195 
f 35/69/196 50/70/197 36/54/198 
f 50/70/199 37/52/200 36/54/201 
f 50/70/202 47/71/203 37/52/204 
f 47/71/205 26/50/206 37/52/207 
f 47/71/208 46/72/209 26/50/210 
f 46/72/211 38/73/212 26/50/213 
f 38/73/214 39/48/215 26/50/216 
f 38/73/217 44/74/218 39/48/219 
f 44/74/220 40/46/221 39/48/222 
f 44/74/223 41/75/224 40/46/225 
f 41/75/226 42/44/227 40/46/228 
f 41/75/229 43/76/230 42/44/231 
f 42/44/232 43/76/233 23/42/234 
f 92/77/235 43/76/236 41/75/237 
f 44/74/238 92/77/239 41/75/240 
f 45/78/241 92/77/242 44/74/243 
f 38/73/244 45/78/245 44/74/246 
f 94/79/247 45/78/248 38/73/249 
f 46/72/250 94/79/251 38/73/252 
f 97/80/253 94/79/254 46/72/255 
f 48/81/256 97/80/257 46/72/258 
f 47/71/259 48/81/260 46/72/261 
f 49/82/262 48/81/263 47/71/264 
f 50/70/265 49/82/266 47/71/267 
f 99/83/268 49/82/269 50/70/270 
f 35/69/271 99/83/272 50/70/273 
f 51/84/274 99/83/275 35/69/276 
f 52/68/277 51/84/278 35/69/279 
f 71/85/280 51/84/281 52/68/282 
f 53/67/283 71/85/284 52/68/285 
f 54/86/286 71/85/287 53/67/288 
f 33/66/289 54/86/290 53/67/291 
f 55/65/292 54/86/293 33/66/294 
f 56/87/295 54/86/296 55/65/297 
f 70/88/298 54/86/299 56/87/300 
f 58/89/301 70/88/302 56/87/303 
f 57/90/304 70/88/305 58/89/306 
f 59/91/307 57/90/308 58/89/309 
f 60/92/310 57/90/311 59/91/312 
f 61/93/313 57/90/314 60/92/315 
f 62/94/316 61/93/317 60/92/318 
f 63/95/319 61/93/320 62/94/321 
f 64/96/322 63/95/323 62/94/324 
f 66/97/325 63/95/326 64/96/327 
f 64/96/328 190/39/329 65/37/330 
f 65/37/331 66/97/332 64/96/333 
f 20/35/334 66/97/335 65/37/336 
f 67/98/337 66/97/338 20/35/339 
f 67/98/340 63/95/341 66/97/342 
f 67/98/343 68/99/344 63/95/345 
f 68/99/346 61/93/347 63/95/348 
f 68/99/349 69/100/350 61/93/351 
f 69/100/352 57/90/353 61/93/354 
f 69/100/355 74/101/356 57/90/357 
f 74/101/358 70/88/359 57/90/360 
f 74/101/361 73/102/362 70/88/363 
f 73/102/364 54/86/365 70/88/366 
f 73/102/367 71/85/368 54/86/369 
f 73/102/370 51/84/371 71/85/372 
f 72/103/373 51/84/374 73/102/375 
f 74/101/376 72/103/377 73/102/378 
f 75/104/379 72/103/380 74/101/381 
f 118/105/382 75/104/383 74/101/384 
f 69/100/385 118/105/386 74/101/387 
f 119/106/388 118/105/389 69/100/390 
f 68/99/391 119/106/392 69/100/393 
f 76/107/394 119/106/395 68/99/396 
f 67/98/397 76/107/398 68/99/399 
f 77/33/400 76/107/401 67/98/402 
f 77/33/403 67/98/404 20/35/405 
f 78/108/406 76/107/407 77/33/408 
f 79/31/409 78/108/410 77/33/411 
f 80/109/412 78/108/413 79/31/414 
f 18/29/415 80/109/416 79/31/417 
f 81/110/418 80/109/419 18/29/420 
f 82/27/421 81/110/422 18/29/423 
f 83/111/424 81/110/425 82/27/426 
f 84/25/427 83/111/428 82/27/429 
f 107/112/430 83/111/431 84/25/432 
f 16/23/433 107/112/434 84/25/435 
f 85/113/436 107/112/437 16/23/438 
f 15/21/439 85/113/440 16/23/441 
f 86/114/442 85/113/443 15/21/444 
f 13/17/445 86/114/446 15/21/447 
f 88/115/448 86/114/449 13/17/450 
f 88/115/451 13/17/452 189/20/453 
f 87/116/454 86/114/455 88/115/456 
f 184/117/457 87/116/458 88/115/459 
f 103/118/460 87/116/461 184/117/462 
f 89/119/463 103/118/464 184/117/465 
f 93/120/466 103/118/467 89/119/468 
f 185/121/469 93/120/470 89/119/471 
f 186/122/472 93/120/473 185/121/474 
f 90/123/475 93/120/476 186/122/477 
f 91/124/478 90/123/479 186/122/480 
f 92/77/481 90/123/482 91/124/483 
f 43/76/484 92/77/485 91/124/486 
f 92/77/487 102/125/488 90/123/489 
f 102/125/490 93/120/491 90/123/492 
f 45/78/493 102/125/494 92/77/495 
f 94/79/496 102/125/497 45/78/498 
f 95/126/499 102/125/500 94/79/501 
f 97/80/502 95/126/503 94/79/504 
f 101/127/505 95/126/506 97/80/507 
f 96/128/508 101/127/509 97/80/510 
f 48/81/511 96/128/512 97/80/513 
f 98/129/514 96/128/515 48/81/516 
f 49/82/517 98/129/518 48/81/519 
f 100/130/520 98/129/521 49/82/522 
f 99/83/523 100/130/524 49/82/525 
f 51/84/526 100/130/527 99/83/528 
f 72/103/529 100/130/530 51/84/531 
f 75/104/532 100/130/533 72/103/534 
f 117/131/535 100/130/536 75/104/537 
f 117/131/538 98/129/539 100/130/540 
f 117/131/541 115/132/542 98/129/543 
f 115/132/544 96/128/545 98/129/546 
f 115/132/547 113/133/548 96/128/549 
f 113/133/550 101/127/551 96/128/552 
f 113/230/553 111/231/554 101/229/555 
f 111/134/556 109/135/557 101/127/558 
f 109/135/559 95/126/560 101/127/561 
f 109/135/562 105/136/563 95/126/564 
f 105/136/565 102/125/566 95/126/567 
f 105/136/568 93/120/569 102/125/570 
f 105/136/571 103/118/572 93/120/573 
f 105/136/574 104/137/575 103/118/576 
f 109/135/577 104/137/578 105/136/579 
f 104/137/580 87/116/581 103/118/582 
f 104/137/583 106/138/584 87/116/585 
f 106/138/586 86/114/587 87/116/588 
f 106/138/589 85/113/590 86/114/591 
f 106/138/592 107/112/593 85/113/594 
f 106/138/595 108/139/596 107/112/597 
f 104/137/598 108/139/599 106/138/600 
f 122/140/601 108/139/602 104/137/603 
f 109/135/604 122/140/605 104/137/606 
f 110/141/607 122/140/608 109/135/609 
f 111/134/610 110/141/611 109/135/612 
f 112/142/613 110/141/614 111/134/615 
f 113/133/616 112/142/617 111/134/618 
f 114/143/619 112/142/620 113/133/621 
f 115/132/622 114/143/623 113/133/624 
f 116/144/625 114/143/626 115/132/627 
f 117/131/628 116/144/629 115/132/630 
f 118/105/631 116/144/632 117/131/633 
f 118/105/634 117/131/635 75/104/636 
f 119/106/637 116/144/638 118/105/639 
f 120/145/640 116/144/641 119/106/642 
f 120/145/643 114/143/644 116/144/645 
f 76/107/646 120/145/647 119/106/648 
f 78/108/649 120/145/650 76/107/651 
f 121/146/652 120/145/653 78/108/654 
f 121/146/655 114/143/656 120/145/657 
f 121/146/658 112/142/659 114/143/660 
f 121/146/661 124/147/662 112/142/663 
f 124/147/664 110/141/665 112/142/666 
f 124/147/667 123/148/668 110/141/669 
f 123/148/670 122/140/671 110/141/672 
f 123/148/673 108/139/674 122/140/675 
f 123/148/676 83/111/677 108/139/678 
f 108/139/679 83/111/680 107/112/681 
f 81/110/682 83/111/683 123/148/684 
f 124/147/685 81/110/686 123/148/687 
f 124/147/688 80/109/689 81/110/690 
f 121/146/691 80/109/692 124/147/693 
f 121/146/694 78/108/695 80/109/696 
f 11/211/697 12/216/698 10/16/699 
f 10/16/700 125/15/701 11/211/702 
f 126/149/703 10/16/704 12/216/705 
f 12/216/706 14/217/707 126/149/708 
f 127/150/709 126/149/710 14/217/711 
f 14/217/712 128/218/713 127/150/714 
f 128/218/715 129/219/716 130/151/717 
f 130/151/718 127/150/719 128/218/720 
f 130/151/721 129/219/722 17/220/723 
f 17/220/724 131/152/725 130/151/726 
f 132/221/727 133/153/728 131/152/729 
f 131/152/730 17/220/731 132/221/732 
f 133/153/733 132/221/734 19/222/735 
f 19/222/736 156/154/737 133/153/738 
f 156/154/739 19/222/740 134/223/741 
f 134/223/742 157/155/743 156/154/744 
f 21/224/745 135/156/746 157/155/747 
f 157/155/748 134/223/749 21/224/750 
f 22/225/751 160/157/752 135/156/753 
f 135/156/754 21/224/755 22/225/756 
f 160/157/757 22/225/758 136/212/759 
f 136/212/760 191/158/761 160/157/762 
f 1/3/763 160/157/764 191/158/765 
f 137/159/766 1/3/767 191/158/768 
f 137/159/769 139/4/770 1/3/771 
f 138/160/772 139/4/773 137/159/774 
f 140/161/775 139/4/776 138/160/777 
f 164/162/778 139/4/779 140/161/780 
f 141/163/781 164/162/782 140/161/783 
f 165/164/784 164/162/785 141/163/786 
f 192/165/787 165/164/788 141/163/789 
f 142/166/790 165/164/791 192/165/792 
f 166/167/793 165/164/794 142/166/795 
f 143/168/796 166/167/797 142/166/798 
f 167/169/799 166/167/800 143/168/801 
f 30/170/802 167/169/803 143/168/804 
f 144/171/805 167/169/806 30/170/807 
f 145/172/808 167/169/809 144/171/810 
f 28/173/811 145/172/812 144/171/813 
f 146/174/814 145/172/815 28/173/816 
f 147/175/817 146/174/818 28/173/819 
f 182/176/820 146/174/821 147/175/822 
f 27/177/823 182/176/824 147/175/825 
f 148/178/826 182/176/827 27/177/828 
f 25/179/829 148/178/830 27/177/831 
f 183/180/832 148/178/833 25/179/834 
f 24/181/835 183/180/836 25/179/837 
f 149/182/838 183/180/839 24/181/840 
f 2/5/841 149/182/842 24/181/843 
f 4/6/844 149/182/845 2/5/846 
f 150/183/847 149/182/848 4/6/849 
f 6/9/850 150/183/851 4/6/852 
f 151/184/853 150/183/854 6/9/855 
f 7/11/856 151/184/857 6/9/858 
f 152/14/859 151/184/860 7/11/861 
f 172/185/862 151/184/863 152/14/864 
f 10/16/865 172/185/866 152/14/867 
f 126/149/868 172/185/869 10/16/870 
f 153/186/871 172/185/872 126/149/873 
f 127/150/874 153/186/875 126/149/876 
f 170/187/877 153/186/878 127/150/879 
f 130/151/880 170/187/881 127/150/882 
f 131/152/883 170/187/884 130/151/885 
f 154/188/886 170/187/887 131/152/888 
f 133/153/889 154/188/890 131/152/891 
f 155/189/892 154/188/893 133/153/894 
f 156/154/895 155/189/896 133/153/897 
f 168/190/898 155/189/899 156/154/900 
f 157/155/901 168/190/902 156/154/903 
f 158/191/904 168/190/905 157/155/906 
f 135/156/907 158/191/908 157/155/909 
f 159/1/910 158/191/911 135/156/912 
f 160/157/913 159/1/914 135/156/915 
f 159/1/916 160/157/917 1/3/918 
f 161/192/919 158/191/920 159/1/921 
f 162/2/922 161/192/923 159/1/924 
f 163/193/925 161/192/926 162/2/927 
f 164/162/928 163/193/929 162/2/930 
f 164/162/931 162/2/932 139/4/933 
f 165/164/934 163/193/935 164/162/936 
f 166/167/937 163/193/938 165/164/939 
f 167/169/940 163/193/941 166/167/942 
f 181/194/943 163/193/944 167/169/945 
f 181/194/946 161/192/947 163/193/948 
f 181/194/949 180/195/950 161/192/951 
f 180/195/952 158/191/953 161/192/954 
f 180/195/955 168/190/956 158/191/957 
f 180/195/958 169/196/959 168/190/960 
f 169/196/961 155/189/962 168/190/963 
f 169/196/964 177/197/965 155/189/966 
f 177/197/967 154/188/968 155/189/969 
f 177/197/970 171/198/971 154/188/972 
f 171/198/973 170/187/974 154/188/975 
f 171/198/976 153/186/977 170/187/978 
f 171/198/979 174/199/980 153/186/981 
f 174/199/982 172/185/983 153/186/984 
f 174/199/985 151/184/986 172/185/987 
f 174/199/988 150/183/989 151/184/990 
f 174/199/991 173/200/992 150/183/993 
f 173/200/994 149/182/995 150/183/996 
f 173/200/997 183/180/998 149/182/999 
f 175/201/1000 183/180/1001 173/200/1002 
f 174/199/1003 175/201/1004 173/200/1005 
f 171/198/1006 175/201/1007 174/199/1008 
f 177/197/1009 175/201/1010 171/198/1011 
f 176/202/1012 175/201/1013 177/197/1014 
f 169/196/1015 176/202/1016 177/197/1017 
f 178/203/1018 176/202/1019 169/196/1020 
f 180/195/1021 178/203/1022 169/196/1023 
f 179/204/1024 178/203/1025 180/195/1026 
f 181/194/1027 179/204/1028 180/195/1029 
f 145/172/1030 179/204/1031 181/194/1032 
f 145/172/1033 181/194/1034 167/169/1035 
f 146/174/1036 179/204/1037 145/172/1038 
f 146/174/1039 178/203/1040 179/204/1041 
f 182/176/1042 178/203/1043 146/174/1044 
f 182/176/1045 176/202/1046 178/203/1047 
f 148/178/1048 176/202/1049 182/176/1050 
f 148/178/1051 175/201/1052 176/202/1053 
f 175/201/1054 148/178/1055 183/180/1056 
f 88/115/1057 187/205/1058 184/117/1059 
f 187/205/1060 89/119/1061 184/117/1062 
f 187/205/1063 185/121/1064 89/119/1065 
f 187/205/1066 186/122/1067 185/121/1068 
f 187/205/1069 91/124/1070 186/122/1071 
f 187/205/1072 43/76/1073 91/124/1074 
f 187/205/1075 23/42/1076 43/76/1077 
f 187/205/1078 3/43/1079 23/42/1080 
f 187/228/1081 5/8/1082 3/7/1083 
f 187/228/1084 188/10/1085 5/8/1086 
f 187/228/1087 8/12/1088 188/10/1089 
f 187/228/1090 9/13/1091 8/12/1092 
f 187/228/1093 125/15/1094 9/13/1095 
f 187/228/1096 11/211/1097 125/15/1098 
f 187/205/1099 189/20/1100 11/19/1101 
f 189/20/1102 187/205/1103 88/115/1104 
f 194/206/1105 195/207/1106 56/87/1107 
f 56/87/1108 55/65/1109 194/206/1110 
f 192/165/1111 141/163/1112 194/226/1113 
f 194/226/1114 141/163/1115 140/161/1116 
f 140/161/1117 195/227/1118 194/226/1119 
f 195/227/1120 140/161/1121 138/160/1122 
f 138/160/1123 196/213/1124 195/227/1125 
f 196/213/1126 138/160/1127 137/159/1128 
f 137/159/1129 197/214/1130 196/213/1131 
f 197/214/1132 137/159/1133 191/158/1134 
f 191/158/1135 198/215/1136 197/214/1137 
f 198/215/1138 191/158/1139 136/212/1140 
f 193/63/1141 192/64/1142 194/206/1143 
f 194/206/1144 55/65/1145 193/63/1146 
f 195/207/1147 196/208/1148 58/89/1149 
f 58/89/1150 56/87/1151 195/207/1152 
f 196/208/1153 197/209/1154 59/91/1155 
f 59/91/1156 58/89/1157 196/208/1158 
f 197/209/1159 198/210/1160 60/92/1161 
f 60/92/1162 59/91/1163 197/209/1164 
f 64/96/1165 62/94/1166 60/92/1167 
f 60/92/1168 198/210/1169 64/96/1170 
f 136/40/1171 190/39/1172 64/96/1173 
f 64/96/1174 198/210/1175 136/40/1176 
# 392 faces

#
# object SM_Seaslug_01_LOD1
#

v  -10.5436 2.0443 0.1804
v  9.7907 1.9854 -22.2827
v  8.6897 1.7062 24.2786
v  -5.8486 10.8841 2.0843
v  4.9320 2.0288 -1.8958
v  -3.0942 8.6372 -16.9631
v  -2.3836 1.4890 20.1364
v  -0.1676 11.3429 10.8530
v  10.6769 1.6844 -17.7972
v  0.2246 10.8822 0.5795
v  -5.1385 2.0429 -17.1448
v  4.5416 5.9513 -23.0713
v  4.7954 6.6949 -1.3339
v  9.4366 6.2467 -13.0997
v  10.6689 1.6679 22.5191
v  -9.8031 7.7826 0.1517
v  3.8505 1.6326 -24.3239
v  -7.2145 5.5174 14.4447
v  9.7865 0.2967 20.7651
v  8.5867 1.6184 10.7827
v  4.9785 5.2327 22.5317
v  -9.7368 2.0269 -7.9355
v  -4.8699 4.3370 -18.7476
v  8.7320 6.6668 12.3309
v  9.6803 3.2778 23.1010
v  -11.1614 4.4013 0.2043
v  3.6865 9.5691 -16.5894
v  7.8467 0.9524 -21.5025
v  7.3649 8.1255 -14.4573
v  -5.1255 10.8589 -7.3388
v  3.0301 1.0056 0.4811
v  -6.9287 2.0465 14.2962
v  3.8655 1.3613 23.4052
v  -0.7776 5.0452 -22.1641
v  7.6549 1.9494 -24.2619
v  -1.9082 6.0140 20.0903
v  -5.3710 9.1185 13.4555
v  -2.9511 1.0375 -17.1315
v  -10.3984 4.3853 -8.0104
v  5.9483 4.3606 4.1379
v  10.4143 5.1277 -17.9084
v  11.0801 3.1117 18.0051
v  -8.9920 7.7651 -7.9094
v  5.0186 2.0443 3.4677
v  3.5509 3.2442 23.6094
v  9.2673 3.6474 -22.5258
v  5.1615 9.0661 14.9419
v  -0.2857 0.5777 19.6739
v  7.5228 6.8476 -20.3283
v  -7.8667 0.9645 -5.7571
v  7.9546 0.6212 13.1766
v  9.6749 2.1562 -13.3338
v  3.3438 3.2517 -24.3624
v  1.0769 7.9880 -20.2179
v  5.5972 4.3738 -2.0013
v  -9.8847 5.1729 7.5391
v  10.0414 5.0913 18.7906
v  9.7921 3.6530 11.5439
v  1.1590 8.6824 17.8632
v  -5.1841 6.6586 -17.1209
v  -1.8490 11.4711 -6.8333
v  10.7186 1.3746 18.0531
v  6.8983 0.3862 22.9411
v  -7.7866 9.1240 6.9659
v  -0.3318 2.1082 -22.1895
v  -2.7094 3.6151 20.6672
v  -6.7068 0.9914 9.7549
v  -0.4691 9.9469 -15.9929
v  4.0586 0.0264 16.4585
v  9.5218 1.3951 -22.7172
v  5.3276 6.6818 4.2417
v  3.6966 9.0722 4.8875
v  2.8412 9.1155 -0.7696
v  -9.4885 2.0443 7.4308
v  9.8991 4.2388 -12.7381
v  -7.9648 4.3619 -14.0297
v  7.9325 5.8429 20.3533
v  2.6976 10.6423 9.5464
v  -0.7312 0.6501 -14.2763
v  -0.8255 0.5693 3.5174
v  -2.7778 11.5024 1.7056
v  8.2458 2.6539 24.3100
v  -3.0021 10.8238 12.2337
# 83 vertices

vn 0.5399 0.8417 -0.0080
vn 0.3649 0.9309 -0.0141
vn 0.6797 0.7315 0.0537
vn 0.0942 -0.9884 -0.1191
vn 0.0004 -0.9999 -0.0146
vn -0.0349 -0.9984 -0.0455
vn -0.5882 0.6959 0.4121
vn -0.9484 0.1826 0.2593
vn -0.8488 0.2294 0.4764
vn -0.7732 0.5981 -0.2110
vn -0.6810 0.5100 -0.5255
vn -0.8925 0.0081 -0.4509
vn 0.7621 0.6290 -0.1535
vn 0.3900 0.8994 0.1973
vn 0.7434 0.6464 0.1716
vn 0.0004 -0.9999 -0.0146
vn -0.2114 -0.9476 0.2395
vn -0.2600 -0.9645 -0.0466
vn -0.5153 0.3068 -0.8002
vn -0.5188 -0.5330 -0.6684
vn -0.6284 -0.6336 -0.4512
vn 0.2311 0.9420 -0.2434
vn 0.3649 0.9309 -0.0141
vn 0.5399 0.8417 -0.0080
vn -0.4309 0.5687 0.7007
vn -0.2735 0.1951 0.9419
vn 0.0255 0.7229 0.6905
vn 0.0004 -0.9999 -0.0146
vn -0.0113 -0.9999 -0.0054
vn -0.2114 -0.9476 0.2395
vn -0.7732 0.5981 -0.2110
vn -0.4069 0.9017 -0.1463
vn -0.4517 0.7479 -0.4865
vn -0.0312 0.8630 0.5043
vn -0.5882 0.6959 0.4121
vn -0.4309 0.5687 0.7007
vn 0.4507 0.7923 -0.4111
vn 0.8919 0.4331 -0.1300
vn 0.7032 0.4081 -0.5822
vn 0.0942 -0.9884 -0.1191
vn -0.0349 -0.9984 -0.0455
vn -0.1541 -0.6346 -0.7573
vn 0.6744 0.7216 -0.1564
vn 0.3900 0.8994 0.1973
vn 0.7621 0.6290 -0.1535
vn -0.0214 0.9997 0.0079
vn -0.4180 0.9081 0.0231
vn 0.0726 0.9870 0.1437
vn -0.9979 0.0594 0.0260
vn -0.8071 0.5904 0.0027
vn -0.9705 0.0569 -0.2344
vn -0.7554 -0.6548 0.0252
vn -0.2600 -0.9645 -0.0466
vn -0.2853 -0.9541 0.0914
vn -0.1247 0.9416 -0.3127
vn 0.0486 0.9967 -0.0652
vn 0.2311 0.9420 -0.2434
vn -0.5153 0.3068 -0.8002
vn 0.0860 0.6612 -0.7452
vn -0.2043 0.1668 -0.9646
vn 0.7621 0.6290 -0.1535
vn 0.9911 0.1246 -0.0457
vn 0.9481 -0.0082 -0.3179
vn 0.8202 0.5430 0.1800
vn 0.8719 0.4790 0.1011
vn 0.9823 0.0077 0.1872
vn 0.7361 -0.6380 0.2260
vn 0.9581 0.0469 0.2826
vn 0.8264 -0.5272 0.1978
vn 0.7032 0.4081 -0.5822
vn 0.8919 0.4331 -0.1300
vn 0.7971 -0.6032 0.0283
vn 0.6129 0.5299 0.5862
vn 0.0255 0.7229 0.6905
vn 0.1656 0.3173 0.9337
vn -0.2114 -0.9476 0.2395
vn -0.0113 -0.9999 -0.0054
vn 0.0158 -0.8956 0.4446
vn -0.8071 0.5904 0.0027
vn -0.9484 0.1826 0.2593
vn -0.6961 0.6946 0.1818
vn -0.7732 0.5981 -0.2110
vn -0.4180 0.9081 0.0231
vn -0.4069 0.9017 -0.1463
vn -0.2043 0.1668 -0.9646
vn 0.0860 0.6612 -0.7452
vn 0.3204 -0.3172 -0.8926
vn 0.0942 -0.9884 -0.1191
vn -0.1541 -0.6346 -0.7573
vn 0.3204 -0.3172 -0.8926
vn -0.2735 0.1951 0.9419
vn -0.4309 0.5687 0.7007
vn -0.6230 0.0369 0.7814
vn -0.7369 -0.5531 0.3887
vn -0.8488 0.2294 0.4764
vn -0.9484 0.1826 0.2593
vn 0.8479 -0.2707 0.4558
vn 0.0158 -0.8956 0.4446
vn 0.4481 -0.8852 0.1251
vn 0.8332 -0.5352 -0.1392
vn 0.3335 -0.9326 -0.1382
vn 0.7328 -0.6027 -0.3158
vn 0.8687 -0.4070 -0.2823
vn 0.9627 0.0088 -0.2705
vn 0.7328 -0.6027 -0.3158
vn 0.3335 -0.9326 -0.1382
vn 0.2971 -0.9548 -0.0042
vn 0.7328 -0.6027 -0.3158
vn 0.3900 0.8994 0.1973
vn 0.0255 0.7229 0.6905
vn 0.3567 0.8369 0.4151
vn 0.0726 0.9870 0.1437
vn -0.2612 0.9216 0.2871
vn -0.0312 0.8630 0.5043
vn -0.6284 -0.6336 -0.4512
vn -0.8925 0.0081 -0.4509
vn -0.7112 -0.0407 -0.7018
vn -0.0349 -0.9984 -0.0455
vn 0.0004 -0.9999 -0.0146
vn -0.2600 -0.9645 -0.0466
vn -0.6810 0.5100 -0.5255
vn -0.4517 0.7479 -0.4865
vn -0.1493 0.7989 -0.5827
vn -0.7732 0.5981 -0.2110
vn -0.4517 0.7479 -0.4865
vn -0.6810 0.5100 -0.5255
vn 0.6744 0.7216 -0.1564
vn 0.7621 0.6290 -0.1535
vn 0.8676 0.4450 -0.2219
vn 0.7621 0.6290 -0.1535
vn 0.9481 -0.0082 -0.3179
vn 0.9627 0.0088 -0.2705
vn 0.3362 -0.3726 0.8650
vn 0.8479 -0.2707 0.4558
vn 0.6129 0.5299 0.5862
vn 0.7621 0.6290 -0.1535
vn 0.7434 0.6464 0.1716
vn 0.9911 0.1246 -0.0457
vn -0.9484 0.1826 0.2593
vn -0.7880 -0.5827 0.1986
vn -0.7369 -0.5531 0.3887
vn -0.7554 -0.6548 0.0252
vn -0.9979 0.0594 0.0260
vn -0.9705 0.0569 -0.2344
vn 0.0860 0.6612 -0.7452
vn 0.4507 0.7923 -0.4111
vn 0.7032 0.4081 -0.5822
vn -0.1493 0.7989 -0.5827
vn -0.1247 0.9416 -0.3127
vn 0.2311 0.9420 -0.2434
vn 0.2971 -0.9548 -0.0042
vn 0.0942 -0.9884 -0.1191
vn 0.7361 -0.6380 0.2260
vn 0.7971 -0.6032 0.0283
vn 0.0942 -0.9884 -0.1191
vn 0.6229 -0.5705 -0.5353
vn 0.8202 0.5430 0.1800
vn 0.5399 0.8417 -0.0080
vn 0.8719 0.4790 0.1011
vn 0.8919 0.4331 -0.1300
vn 0.9581 0.0469 0.2826
vn 0.7971 -0.6032 0.0283
vn -0.0214 0.9997 0.0079
vn 0.0726 0.9870 0.1437
vn 0.3649 0.9309 -0.0141
vn 0.0486 0.9967 -0.0652
vn 0.3649 0.9309 -0.0141
vn 0.2311 0.9420 -0.2434
vn 0.2971 -0.9548 -0.0042
vn 0.7361 -0.6380 0.2260
vn 0.8264 -0.5272 0.1978
vn 0.7328 -0.6027 -0.3158
vn 0.2971 -0.9548 -0.0042
vn 0.8687 -0.4070 -0.2823
vn -0.2600 -0.9645 -0.0466
vn -0.2114 -0.9476 0.2395
vn -0.2853 -0.9541 0.0914
vn -0.6230 0.0369 0.7814
vn -0.8488 0.2294 0.4764
vn -0.7369 -0.5531 0.3887
vn 0.3362 -0.3726 0.8650
vn 0.0158 -0.8956 0.4446
vn 0.8479 -0.2707 0.4558
vn 0.0255 0.7229 0.6905
vn -0.2735 0.1951 0.9419
vn 0.1656 0.3173 0.9337
vn -0.5153 0.3068 -0.8002
vn -0.6810 0.5100 -0.5255
vn -0.1493 0.7989 -0.5827
vn -0.6284 -0.6336 -0.4512
vn -0.7112 -0.0407 -0.7018
vn -0.5153 0.3068 -0.8002
vn 0.6229 -0.5705 -0.5353
vn 0.0942 -0.9884 -0.1191
vn 0.3204 -0.3172 -0.8926
vn 0.3204 -0.3172 -0.8926
vn 0.0860 0.6612 -0.7452
vn 0.7032 0.4081 -0.5822
vn -0.4309 0.5687 0.7007
vn -0.5882 0.6959 0.4121
vn -0.8488 0.2294 0.4764
vn -0.6230 0.0369 0.7814
vn -0.4309 0.5687 0.7007
vn -0.8488 0.2294 0.4764
vn -0.4180 0.9081 0.0231
vn -0.2612 0.9216 0.2871
vn 0.0726 0.9870 0.1437
vn -0.6961 0.6946 0.1818
vn -0.9484 0.1826 0.2593
vn -0.5882 0.6959 0.4121
vn -0.6284 -0.6336 -0.4512
vn -0.2436 -0.9463 -0.2125
vn -0.2600 -0.9645 -0.0466
vn -0.2436 -0.9463 -0.2125
vn -0.6284 -0.6336 -0.4512
vn -0.5188 -0.5330 -0.6684
vn -0.9705 0.0569 -0.2344
vn -0.7356 -0.6448 -0.2077
vn -0.7554 -0.6548 0.0252
vn -0.8925 0.0081 -0.4509
vn -0.6284 -0.6336 -0.4512
vn -0.7356 -0.6448 -0.2077
vn 0.6797 0.7315 0.0537
vn 0.6744 0.7216 -0.1564
vn 0.8676 0.4450 -0.2219
vn 0.8719 0.4790 0.1011
vn 0.9627 0.0088 -0.2705
vn 0.9823 0.0077 0.1872
vn 0.8919 0.4331 -0.1300
vn 0.5399 0.8417 -0.0080
vn 0.8202 0.5430 0.1800
vn 0.5399 0.8417 -0.0080
vn 0.8919 0.4331 -0.1300
vn 0.4507 0.7923 -0.4111
vn 0.7434 0.6464 0.1716
vn 0.8479 -0.2707 0.4558
vn 0.9911 0.1246 -0.0457
vn 0.7328 -0.6027 -0.3158
vn 0.9911 0.1246 -0.0457
vn 0.8332 -0.5352 -0.1392
vn -0.7732 0.5981 -0.2110
vn -0.8071 0.5904 0.0027
vn -0.4180 0.9081 0.0231
vn -0.8071 0.5904 0.0027
vn -0.7732 0.5981 -0.2110
vn -0.9705 0.0569 -0.2344
vn 0.8264 -0.5272 0.1978
vn 0.9627 0.0088 -0.2705
vn 0.8687 -0.4070 -0.2823
vn 0.8687 -0.4070 -0.2823
vn 0.2971 -0.9548 -0.0042
vn 0.8264 -0.5272 0.1978
vn 0.3362 -0.3726 0.8650
vn -0.2735 0.1951 0.9419
vn -0.2824 -0.5400 0.7928
vn -0.5320 -0.6235 0.5729
vn -0.2824 -0.5400 0.7928
vn -0.2735 0.1951 0.9419
vn 0.7032 0.4081 -0.5822
vn 0.7971 -0.6032 0.0283
vn 0.9136 0.0407 -0.4046
vn 0.9136 0.0407 -0.4046
vn 0.3204 -0.3172 -0.8926
vn 0.7032 0.4081 -0.5822
vn 0.4597 0.8878 -0.0232
vn 0.3900 0.8994 0.1973
vn 0.6744 0.7216 -0.1564
vn 0.0726 0.9870 0.1437
vn -0.0312 0.8630 0.5043
vn 0.3900 0.8994 0.1973
vn -0.2824 -0.5400 0.7928
vn -0.5320 -0.6235 0.5729
vn -0.2114 -0.9476 0.2395
vn -0.2853 -0.9541 0.0914
vn -0.2114 -0.9476 0.2395
vn -0.5320 -0.6235 0.5729
vn 0.2311 0.9420 -0.2434
vn 0.5399 0.8417 -0.0080
vn 0.4507 0.7923 -0.4111
vn -0.1493 0.7989 -0.5827
vn 0.2311 0.9420 -0.2434
vn 0.4507 0.7923 -0.4111
vn -0.2600 -0.9645 -0.0466
vn -0.7554 -0.6548 0.0252
vn -0.7356 -0.6448 -0.2077
vn -0.2600 -0.9645 -0.0466
vn -0.7356 -0.6448 -0.2077
vn -0.6284 -0.6336 -0.4512
vn -0.0113 -0.9999 -0.0054
vn 0.0004 -0.9999 -0.0146
vn 0.3335 -0.9326 -0.1382
vn 0.4481 -0.8852 0.1251
vn 0.3335 -0.9326 -0.1382
vn 0.8332 -0.5352 -0.1392
vn 0.7361 -0.6380 0.2260
vn 0.0942 -0.9884 -0.1191
vn 0.7971 -0.6032 0.0283
vn 0.7971 -0.6032 0.0283
vn 0.9581 0.0469 0.2826
vn 0.7361 -0.6380 0.2260
vn -0.5188 -0.5330 -0.6684
vn -0.5153 0.3068 -0.8002
vn -0.2043 0.1668 -0.9646
vn -0.1541 -0.6346 -0.7573
vn -0.2043 0.1668 -0.9646
vn 0.3204 -0.3172 -0.8926
vn -0.1493 0.7989 -0.5827
vn 0.4507 0.7923 -0.4111
vn 0.0860 0.6612 -0.7452
vn -0.5153 0.3068 -0.8002
vn -0.1493 0.7989 -0.5827
vn 0.0860 0.6612 -0.7452
vn 0.9823 0.0077 0.1872
vn 0.9627 0.0088 -0.2705
vn 0.8264 -0.5272 0.1978
vn 0.9581 0.0469 0.2826
vn 0.9823 0.0077 0.1872
vn 0.8264 -0.5272 0.1978
vn -0.7880 -0.5827 0.1986
vn -0.9484 0.1826 0.2593
vn -0.9979 0.0594 0.0260
vn -0.9484 0.1826 0.2593
vn -0.8071 0.5904 0.0027
vn -0.9979 0.0594 0.0260
vn 0.3567 0.8369 0.4151
vn 0.0255 0.7229 0.6905
vn 0.6129 0.5299 0.5862
vn 0.8479 -0.2707 0.4558
vn 0.7434 0.6464 0.1716
vn 0.6129 0.5299 0.5862
vn 0.9481 -0.0082 -0.3179
vn 0.9911 0.1246 -0.0457
vn 0.7328 -0.6027 -0.3158
vn 0.9627 0.0088 -0.2705
vn 0.9481 -0.0082 -0.3179
vn 0.7328 -0.6027 -0.3158
vn 0.3900 0.8994 0.1973
vn -0.0312 0.8630 0.5043
vn 0.0255 0.7229 0.6905
vn -0.0312 0.8630 0.5043
vn -0.4309 0.5687 0.7007
vn 0.0255 0.7229 0.6905
vn -0.8925 0.0081 -0.4509
vn -0.6810 0.5100 -0.5255
vn -0.7112 -0.0407 -0.7018
vn -0.7112 -0.0407 -0.7018
vn -0.6810 0.5100 -0.5255
vn -0.5153 0.3068 -0.8002
vn -0.1247 0.9416 -0.3127
vn -0.4069 0.9017 -0.1463
vn 0.0486 0.9967 -0.0652
vn -0.4069 0.9017 -0.1463
vn -0.4180 0.9081 0.0231
vn -0.0214 0.9997 0.0079
vn 0.8332 -0.5352 -0.1392
vn 0.9911 0.1246 -0.0457
vn 0.8479 -0.2707 0.4558
vn 0.8479 -0.2707 0.4558
vn 0.4481 -0.8852 0.1251
vn 0.8332 -0.5352 -0.1392
vn -0.2114 -0.9476 0.2395
vn 0.0158 -0.8956 0.4446
vn -0.2824 -0.5400 0.7928
vn 0.3362 -0.3726 0.8650
vn -0.2824 -0.5400 0.7928
vn 0.0158 -0.8956 0.4446
vn -0.6961 0.6946 0.1818
vn -0.2612 0.9216 0.2871
vn -0.4180 0.9081 0.0231
vn -0.8071 0.5904 0.0027
vn -0.6961 0.6946 0.1818
vn -0.4180 0.9081 0.0231
vn -0.2436 -0.9463 -0.2125
vn -0.5188 -0.5330 -0.6684
vn -0.1541 -0.6346 -0.7573
vn -0.2043 0.1668 -0.9646
vn -0.1541 -0.6346 -0.7573
vn -0.5188 -0.5330 -0.6684
vn -0.7369 -0.5531 0.3887
vn -0.5320 -0.6235 0.5729
vn -0.6230 0.0369 0.7814
vn -0.2735 0.1951 0.9419
vn -0.6230 0.0369 0.7814
vn -0.5320 -0.6235 0.5729
vn -0.7369 -0.5531 0.3887
vn -0.7880 -0.5827 0.1986
vn -0.2853 -0.9541 0.0914
vn -0.5320 -0.6235 0.5729
vn -0.7369 -0.5531 0.3887
vn -0.2853 -0.9541 0.0914
vn -0.4517 0.7479 -0.4865
vn -0.4069 0.9017 -0.1463
vn -0.1247 0.9416 -0.3127
vn -0.4517 0.7479 -0.4865
vn -0.1247 0.9416 -0.3127
vn -0.1493 0.7989 -0.5827
vn -0.0113 -0.9999 -0.0054
vn 0.3335 -0.9326 -0.1382
vn 0.4481 -0.8852 0.1251
vn 0.0158 -0.8956 0.4446
vn -0.0113 -0.9999 -0.0054
vn 0.4481 -0.8852 0.1251
vn 0.9136 0.0407 -0.4046
vn 0.6229 -0.5705 -0.5353
vn 0.3204 -0.3172 -0.8926
vn 0.9136 0.0407 -0.4046
vn 0.7971 -0.6032 0.0283
vn 0.6229 -0.5705 -0.5353
vn 0.8719 0.4790 0.1011
vn 0.8676 0.4450 -0.2219
vn 0.9627 0.0088 -0.2705
vn 0.8676 0.4450 -0.2219
vn 0.7621 0.6290 -0.1535
vn 0.9627 0.0088 -0.2705
vn 0.6797 0.7315 0.0537
vn 0.3649 0.9309 -0.0141
vn 0.6744 0.7216 -0.1564
vn 0.3649 0.9309 -0.0141
vn 0.4597 0.8878 -0.0232
vn 0.6744 0.7216 -0.1564
vn 0.8719 0.4790 0.1011
vn 0.6797 0.7315 0.0537
vn 0.8676 0.4450 -0.2219
vn 0.5399 0.8417 -0.0080
vn 0.6797 0.7315 0.0537
vn 0.8719 0.4790 0.1011
vn -0.9979 0.0594 0.0260
vn -0.7554 -0.6548 0.0252
vn -0.7880 -0.5827 0.1986
vn -0.2853 -0.9541 0.0914
vn -0.7880 -0.5827 0.1986
vn -0.7554 -0.6548 0.0252
vn 0.8202 0.5430 0.1800
vn 0.9823 0.0077 0.1872
vn 0.9581 0.0469 0.2826
vn 0.8919 0.4331 -0.1300
vn 0.8202 0.5430 0.1800
vn 0.9581 0.0469 0.2826
vn -0.9705 0.0569 -0.2344
vn -0.7732 0.5981 -0.2110
vn -0.8925 0.0081 -0.4509
vn -0.7356 -0.6448 -0.2077
vn -0.9705 0.0569 -0.2344
vn -0.8925 0.0081 -0.4509
vn 0.7434 0.6464 0.1716
vn 0.3567 0.8369 0.4151
vn 0.6129 0.5299 0.5862
vn 0.7434 0.6464 0.1716
vn 0.3900 0.8994 0.1973
vn 0.3567 0.8369 0.4151
vn 0.0726 0.9870 0.1437
vn 0.3900 0.8994 0.1973
vn 0.4597 0.8878 -0.0232
vn 0.0726 0.9870 0.1437
vn 0.4597 0.8878 -0.0232
vn 0.3649 0.9309 -0.0141
vn -0.1541 -0.6346 -0.7573
vn -0.0349 -0.9984 -0.0455
vn -0.2436 -0.9463 -0.2125
vn -0.0349 -0.9984 -0.0455
vn -0.2600 -0.9645 -0.0466
vn -0.2436 -0.9463 -0.2125
vn 0.2971 -0.9548 -0.0042
vn 0.0004 -0.9999 -0.0146
vn 0.0942 -0.9884 -0.1191
vn 0.0004 -0.9999 -0.0146
vn 0.2971 -0.9548 -0.0042
vn 0.3335 -0.9326 -0.1382
vn 0.0486 0.9967 -0.0652
vn -0.0214 0.9997 0.0079
vn 0.3649 0.9309 -0.0141
vn 0.0486 0.9967 -0.0652
vn -0.4069 0.9017 -0.1463
vn -0.0214 0.9997 0.0079
vn 0.1656 0.3173 0.9337
vn -0.2735 0.1951 0.9419
vn 0.3362 -0.3726 0.8650
vn 0.3362 -0.3726 0.8650
vn 0.6129 0.5299 0.5862
vn 0.1656 0.3173 0.9337
vn -0.2612 0.9216 0.2871
vn -0.5882 0.6959 0.4121
vn -0.0312 0.8630 0.5043
vn -0.6961 0.6946 0.1818
vn -0.5882 0.6959 0.4121
vn -0.2612 0.9216 0.2871
# 486 vertex normals

vt 0.6606 0.8552 0.0000
vt 0.5359 0.9840 0.0000
vt 0.4028 0.8692 0.0000
vt 0.6680 0.8668 0.0000
vt 0.4212 0.8322 0.0000
vt 0.5318 0.9544 0.0000
vt 0.5274 0.9292 0.0000
vt 0.5455 0.8416 0.0000
vt 0.5566 0.8732 0.0000
vt 0.4203 0.9359 0.0000
vt 0.4350 0.8952 0.0000
vt 0.6719 0.9015 0.0000
vt 0.6737 0.8950 0.0000
vt 0.4865 0.9045 0.0000
vt 0.6349 0.9531 0.0000
vt 0.6267 0.9420 0.0000
vt 0.6170 0.9218 0.0000
vt 0.4742 0.9315 0.0000
vt 0.6075 0.8552 0.0000
vt 0.6380 0.8387 0.0000
vt 0.6442 0.8593 0.0000
vt 0.4120 0.8537 0.0000
vt 0.4334 0.8226 0.0000
vt 0.4766 0.8345 0.0000
vt 0.4943 0.8438 0.0000
vt 0.6515 0.8890 0.0000
vt 0.5778 0.9679 0.0000
vt 0.5435 0.8658 0.0000
vt 0.5340 0.8979 0.0000
vt 0.4640 0.9487 0.0000
vt 0.6341 0.9400 0.0000
vt 0.4137 0.8641 0.0000
vt 0.6567 0.8629 0.0000
vt 0.5650 0.9445 0.0000
vt 0.6167 0.8896 0.0000
vt 0.4701 0.8597 0.0000
vt 0.5707 0.9261 0.0000
vt 0.4223 0.8880 0.0000
vt 0.4425 0.8317 0.0000
vt 0.6493 0.9163 0.0000
vt 0.5146 0.8525 0.0000
vt 0.6200 0.8596 0.0000
vt 0.6107 0.8354 0.0000
vt 0.5425 0.8823 0.0000
vt 0.4377 0.9207 0.0000
vt 0.5358 0.9721 0.0000
vt 0.4710 0.8442 0.0000
vt 0.4615 0.9241 0.0000
vt 0.4547 0.9636 0.0000
vt 0.6605 0.8781 0.0000
vt 0.6764 0.8815 0.0000
vt 0.6708 0.8719 0.0000
vt 0.5687 0.9100 0.0000
vt 0.6106 0.8695 0.0000
vt 0.6323 0.8548 0.0000
vt 0.4986 0.9637 0.0000
vt 0.4225 0.8598 0.0000
vt 0.4026 0.8986 0.0000
vt 0.6204 0.9350 0.0000
vt 0.4512 0.9032 0.0000
vt 0.4369 0.8482 0.0000
vt 0.5746 0.9575 0.0000
vt 0.5810 0.9793 0.0000
vt 0.4401 0.8840 0.0000
vt 0.5362 0.9541 0.0000
vt 0.4120 0.8969 0.0000
vt 0.5470 0.8534 0.0000
vt 0.5294 0.8681 0.0000
vt 0.5198 0.8413 0.0000
vt 0.4367 0.8598 0.0000
vt 0.5120 0.8792 0.0000
vt 0.5143 0.8645 0.0000
vt 0.6392 0.8734 0.0000
vt 0.6280 0.9296 0.0000
vt 0.4627 0.8826 0.0000
vt 0.6119 0.9082 0.0000
vt 0.6072 0.8455 0.0000
vt 0.6686 0.8704 0.0000
vt 0.4292 0.8443 0.0000
vt 0.4860 0.9252 0.0000
vt 0.6093 0.9561 0.0000
vt 0.6153 0.9154 0.0000
vt 0.4286 0.9293 0.0000
vt 0.4342 0.8399 0.0000
vt 0.4578 0.8264 0.0000
vt 0.4805 0.8462 0.0000
vt 0.5747 0.9501 0.0000
vt 0.5233 0.8997 0.0000
vt 0.5290 0.9136 0.0000
vt 0.5405 0.8816 0.0000
vt 0.4809 0.9183 0.0000
vt 0.4952 0.9428 0.0000
vt 0.4948 0.9790 0.0000
vt 0.5044 0.9421 0.0000
vt 0.6341 0.9039 0.0000
vt 0.6628 0.9218 0.0000
vt 0.6573 0.9217 0.0000
vt 0.4319 0.8723 0.0000
vt 0.4069 0.8720 0.0000
vt 0.4906 0.8899 0.0000
vt 0.6654 0.8963 0.0000
vt 0.4603 0.8641 0.0000
# 102 texture coords

o SM_Seaslug_01_LOD1
g SM_Seaslug_01_LOD1
usemtl MAT_Sea_Shells
s 1
f 227/285/1177 208/260/1178 271/321/1179 
f 226/281/1180 278/319/1181 277/313/1182 
f 235/249/1183 254/287/1184 216/261/1185 
f 241/318/1186 258/290/1187 274/312/1188 
f 222/267/1189 245/306/1190 255/301/1191 
f 278/319/1192 246/295/1193 248/265/1194 
f 232/271/1195 263/327/1196 209/246/1197 
f 225/266/1198 208/260/1199 227/285/1200 
f 234/276/1201 243/297/1202 219/269/1203 
f 278/319/1204 267/333/1205 246/295/1206 
f 241/318/1207 228/268/1208 204/248/1209 
f 257/291/1210 235/249/1211 234/276/1212 
f 247/304/1213 239/286/1214 244/264/1215 
f 226/281/1216 277/313/1217 215/243/1218 
f 270/302/1219 245/306/1220 222/267/1221 
f 279/320/1222 202/238/1223 206/245/1224 
f 224/277/1225 214/296/1226 237/258/1227 
f 199/237/1228 248/265/1229 265/311/1230 
f 266/307/1231 259/284/1232 225/266/1233 
f 232/271/1234 210/257/1235 251/332/1236 
f 222/267/1237 240/292/1238 256/278/1239 
f 212/250/1240 211/259/1241 253/298/1242 
f 250/274/1243 273/308/1244 203/239/1245 
f 244/264/1246 239/286/1247 207/251/1248 
f 223/263/1249 219/269/1250 280/330/1251 
f 246/295/1252 267/333/1253 261/310/1254 
f 214/296/1255 254/287/1256 262/325/1257 
f 241/318/1258 202/238/1259 228/268/1260 
f 251/332/1261 210/257/1262 233/283/1263 
f 226/281/1264 215/243/1265 233/282/1266 
f 243/297/1267 234/276/1268 264/314/1269 
f 230/280/1270 216/261/1271 254/287/1272 
f 213/254/1273 261/310/1274 217/270/1275 
f 260/316/1276 249/317/1277 218/256/1278 
f 242/300/1279 238/272/1280 218/255/1281 
f 249/317/1282 229/275/1283 218/256/1284 
f 245/306/1285 219/269/1286 275/329/1287 
f 206/245/1288 281/322/1289 257/291/1290 
f 209/246/1291 274/312/1292 221/262/1293 
f 277/313/1294 278/319/1295 248/265/1296 
f 258/290/1297 204/248/1298 252/326/1299 
f 241/318/1300 204/248/1301 258/290/1302 
f 270/302/1303 222/267/1304 269/303/1305 
f 222/267/1306 256/278/1307 238/272/1308 
f 201/234/1309 213/253/1310 223/263/1311 
f 222/267/1312 255/301/1313 240/292/1314 
f 254/287/1315 272/324/1316 230/280/1317 
f 199/233/1318 224/277/1319 237/258/1320 
f 210/257/1321 247/304/1322 244/264/1323 
f 252/326/1324 266/307/1325 225/266/1326 
f 229/275/1327 226/281/1328 250/273/1329 
f 207/252/1330 226/281/1331 268/309/1332 
f 212/250/1333 227/285/1334 211/259/1335 
f 239/286/1336 273/308/1337 207/251/1338 
f 279/320/1339 206/245/1340 208/260/1341 
f 259/284/1342 208/260/1343 225/266/1344 
f 229/275/1345 250/273/1346 203/240/1347 
f 218/256/1348 229/275/1349 242/299/1350 
f 248/265/1351 246/295/1352 265/311/1353 
f 264/314/1354 216/261/1355 230/280/1356 
f 201/236/1357 261/310/1358 213/254/1359 
f 219/269/1360 243/297/1361 280/330/1362 
f 232/271/1363 258/290/1364 252/326/1365 
f 209/246/1366 221/262/1367 232/271/1368 
f 268/309/1369 226/281/1370 233/282/1371 
f 233/283/1372 210/257/1373 244/264/1374 
f 234/276/1375 235/249/1376 216/261/1377 
f 264/314/1378 234/276/1379 216/261/1380 
f 202/238/1381 281/322/1382 206/245/1383 
f 262/325/1384 254/287/1385 235/249/1386 
f 209/247/1387 236/305/1388 248/265/1389 
f 236/305/1390 209/247/1391 263/328/1392 
f 237/258/1393 220/294/1394 199/233/1395 
f 274/312/1396 209/246/1397 220/294/1398 
f 271/321/1399 270/302/1400 269/303/1401 
f 211/259/1402 238/272/1403 253/298/1404 
f 239/286/1405 227/285/1406 212/250/1407 
f 227/285/1408 239/286/1409 247/304/1410 
f 255/301/1411 213/253/1412 240/292/1413 
f 218/255/1414 240/292/1415 260/315/1416 
f 241/318/1417 214/296/1418 202/238/1419 
f 214/296/1420 241/318/1421 237/258/1422 
f 203/239/1423 238/272/1424 242/300/1425 
f 242/299/1426 229/275/1427 203/240/1428 
f 201/234/1429 243/297/1430 231/289/1431 
f 205/241/1432 231/289/1433 243/297/1434 
f 244/264/1435 207/251/1436 200/232/1437 
f 200/232/1438 233/283/1439 244/264/1440 
f 276/331/1441 245/306/1442 270/302/1443 
f 206/245/1444 257/291/1445 245/306/1446 
f 231/288/1447 205/242/1448 246/295/1449 
f 265/311/1450 246/295/1451 205/242/1452 
f 225/266/1453 227/285/1454 247/304/1455 
f 252/326/1456 225/266/1457 247/304/1458 
f 248/265/1459 199/237/1460 220/293/1461 
f 248/265/1462 220/293/1463 209/247/1464 
f 267/333/1465 278/319/1466 249/317/1467 
f 217/270/1468 249/317/1469 260/316/1470 
f 250/273/1471 226/281/1472 207/252/1473 
f 207/251/1474 273/308/1475 250/274/1476 
f 263/327/1477 232/271/1478 251/332/1479 
f 215/244/1480 251/332/1481 233/283/1482 
f 252/326/1483 247/304/1484 210/257/1485 
f 232/271/1486 252/326/1487 210/257/1488 
f 253/298/1489 238/272/1490 203/239/1491 
f 273/308/1492 253/298/1493 203/239/1494 
f 272/324/1495 254/287/1496 224/277/1497 
f 254/287/1498 214/296/1499 224/277/1500 
f 275/329/1501 219/269/1502 223/263/1503 
f 213/253/1504 255/301/1505 223/263/1506 
f 256/278/1507 240/292/1508 218/255/1509 
f 238/272/1510 256/278/1511 218/255/1512 
f 245/306/1513 257/291/1514 219/269/1515 
f 257/291/1516 234/276/1517 219/269/1518 
f 274/312/1519 258/290/1520 221/262/1521 
f 221/262/1522 258/290/1523 232/271/1524 
f 266/307/1525 228/268/1526 259/284/1527 
f 228/268/1528 202/238/1529 279/320/1530 
f 260/315/1531 240/292/1532 213/253/1533 
f 213/254/1534 217/270/1535 260/316/1536 
f 246/295/1537 261/310/1538 231/288/1539 
f 201/236/1540 231/288/1541 261/310/1542 
f 262/325/1543 281/322/1544 202/238/1545 
f 214/296/1546 262/325/1547 202/238/1548 
f 236/305/1549 263/328/1550 215/243/1551 
f 251/332/1552 215/244/1553 263/327/1554 
f 230/280/1555 205/241/1556 264/314/1557 
f 243/297/1558 264/314/1559 205/241/1560 
f 230/279/1561 272/323/1562 265/311/1563 
f 205/242/1564 230/279/1565 265/311/1566 
f 204/248/1567 228/268/1568 266/307/1569 
f 204/248/1570 266/307/1571 252/326/1572 
f 267/333/1573 249/317/1574 217/270/1575 
f 261/310/1576 267/333/1577 217/270/1578 
f 200/235/1579 268/309/1580 233/282/1581 
f 200/235/1582 207/252/1583 268/309/1584 
f 211/259/1585 269/303/1586 238/272/1587 
f 269/303/1588 222/267/1589 238/272/1590 
f 271/321/1591 208/260/1592 270/302/1593 
f 208/260/1594 276/331/1595 270/302/1596 
f 211/259/1597 271/321/1598 269/303/1599 
f 227/285/1600 271/321/1601 211/259/1602 
f 224/277/1603 199/233/1604 272/324/1605 
f 265/311/1606 272/323/1607 199/237/1608 
f 212/250/1609 253/298/1610 273/308/1611 
f 239/286/1612 212/250/1613 273/308/1614 
f 237/258/1615 241/318/1616 274/312/1617 
f 220/294/1618 237/258/1619 274/312/1620 
f 255/301/1621 275/329/1622 223/263/1623 
f 255/301/1624 245/306/1625 275/329/1626 
f 206/245/1627 245/306/1628 276/331/1629 
f 206/245/1630 276/331/1631 208/260/1632 
f 215/243/1633 277/313/1634 236/305/1635 
f 277/313/1636 248/265/1637 236/305/1638 
f 229/275/1639 278/319/1640 226/281/1641 
f 278/319/1642 229/275/1643 249/317/1644 
f 259/284/1645 279/320/1646 208/260/1647 
f 259/284/1648 228/268/1649 279/320/1650 
f 280/330/1651 243/297/1652 201/234/1653 
f 201/234/1654 223/263/1655 280/330/1656 
f 281/322/1657 235/249/1658 257/291/1659 
f 262/325/1660 235/249/1661 281/322/1662 
# 162 faces

