# 3ds Max Wavefront OBJ Exporter v0.97b - (c)2007 guruware
# File Created: 10.02.2024 08:45:40

mtllib SM_Sand_Dollar_05.mtl

#
# object SM_Sand_Dollar_05_LOD0
#

v  6.8644 0.0912 -2.8038
v  7.2406 0.3585 -2.9575
v  6.3763 0.3589 -4.2891
v  5.0790 0.3591 -5.4380
v  4.8151 0.1009 -5.1555
v  3.6733 0.3593 -6.8461
v  1.9997 0.3593 -7.2872
v  -0.1885 0.3582 -6.8857
v  -1.4854 0.0565 -6.1919
v  -4.0191 0.3548 -5.9273
v  -5.5682 0.3539 -5.7171
v  -5.2789 0.0171 -5.4201
v  -6.4038 0.0423 -4.4418
v  -7.3703 0.3571 -3.4258
v  -6.9873 0.0750 -3.2478
v  -7.7860 0.3600 -1.6627
v  -7.6806 0.3613 0.3235
v  -7.3815 0.1111 -1.5763
v  -7.2815 0.1287 0.3068
v  -5.0350 0.3590 3.9469
v  -4.4761 0.3567 5.1617
v  -2.7230 0.3535 6.5821
v  -2.5815 0.0082 6.2401
v  1.2509 0.3780 7.2872
v  1.1859 0.0484 6.9086
v  1.8595 0.3841 7.0981
v  1.7629 0.0668 6.7293
v  6.0655 0.1486 4.7788
v  7.0492 0.1361 3.6048
v  6.3979 0.4003 5.0407
v  7.3815 0.1036 1.5394
v  7.1925 0.0881 -1.3627
v  7.0950 0.0887 -0.2093
v  7.5867 0.3588 -1.4374
v  4.8714 0.1400 5.8105
v  3.9922 0.1251 6.1875
v  2.4881 0.0944 5.9383
v  -0.9650 -0.0000 6.7614
v  -4.2436 0.0616 4.8936
v  -4.7734 0.0936 3.7419
v  -6.5917 0.1287 1.7175
v  0.6228 0.0158 0.0683
v  -3.8103 0.0219 -5.6194
v  -0.1787 0.0818 -6.5279
v  1.8958 0.0992 -6.9085
v  3.4824 0.1004 -6.4904
v  6.0450 0.0957 -4.0662
v  -1.0179 0.3590 7.1320
v  1.1859 0.7594 6.9086
v  -2.5815 0.7466 6.2401
v  -4.2436 0.6934 4.8936
v  -6.5917 0.6263 1.7175
v  -6.9530 0.3613 1.8116
v  -7.2815 0.6263 0.3068
v  -7.3815 0.6439 -1.5763
v  -6.4038 0.7161 -4.4418
v  -6.9873 0.6800 -3.2478
v  -6.7548 0.3552 -4.6853
v  -5.2789 0.7473 -5.4201
v  -1.5668 0.3565 -6.5313
v  -1.4854 0.6985 -6.1919
v  1.8958 0.6558 -6.9085
v  -0.1787 0.6732 -6.5279
v  4.8151 0.6505 -5.1555
v  6.0450 0.6576 -4.0662
v  6.8644 0.6643 -2.8038
v  7.4839 0.3617 -0.2208
v  7.0950 0.6738 -0.2093
v  7.7861 0.3712 1.6237
v  7.4355 0.3895 3.8024
v  5.1384 0.4033 6.1289
v  4.2110 0.4015 6.5267
v  2.4881 0.7399 5.9383
v  2.6245 0.3938 6.2638
v  1.7629 0.7521 6.7293
v  3.9922 0.7155 6.1875
v  4.8714 0.7011 5.8105
v  6.0655 0.6850 4.7788
v  7.0492 0.6773 3.6048
v  7.3815 0.6761 1.5394
v  7.1925 0.6692 -1.3627
v  3.4824 0.6529 -6.4904
v  0.6228 0.7390 0.0683
v  -3.8103 0.7466 -5.6194
v  -4.7734 0.6614 3.7419
v  -0.9650 0.7674 6.7614
# 86 vertices

vn 0.9971 -0.0322 -0.0693
vn 0.2669 -0.9569 -0.1144
vn 0.9202 -0.0323 -0.3902
vn 0.2669 -0.9569 -0.1144
vn 0.7558 -0.0303 -0.6541
vn 0.9202 -0.0323 -0.3902
vn 0.2669 -0.9569 -0.1144
vn 0.2220 -0.9554 -0.1946
vn 0.7558 -0.0303 -0.6541
vn 0.2220 -0.9554 -0.1946
vn 0.6850 -0.0283 -0.7280
vn 0.7558 -0.0303 -0.6541
vn 0.2023 -0.9548 -0.2179
vn 0.6850 -0.0283 -0.7280
vn 0.2220 -0.9554 -0.1946
vn 0.2023 -0.9548 -0.2179
vn 0.1436 -0.9583 -0.2471
vn 0.6850 -0.0283 -0.7280
vn 0.1436 -0.9583 -0.2471
vn 0.4998 -0.0303 -0.8656
vn 0.6850 -0.0283 -0.7280
vn 0.1436 -0.9583 -0.2471
vn 0.0323 -0.0323 -0.9990
vn 0.4998 -0.0303 -0.8656
vn 0.1436 -0.9583 -0.2471
vn 0.0127 -0.9532 -0.3021
vn 0.0323 -0.0323 -0.9990
vn 0.0127 -0.9532 -0.3021
vn -0.2080 -0.0322 -0.9776
vn 0.0323 -0.0323 -0.9990
vn 0.0127 -0.9532 -0.3021
vn -0.0616 -0.9429 -0.3273
vn -0.2080 -0.0322 -0.9776
vn -0.0616 -0.9429 -0.3273
vn -0.2357 -0.0342 -0.9712
vn -0.2080 -0.0322 -0.9776
vn -0.0733 -0.9357 -0.3451
vn -0.2357 -0.0342 -0.9712
vn -0.0616 -0.9429 -0.3273
vn -0.0733 -0.9357 -0.3451
vn -0.0636 -0.9275 -0.3685
vn -0.2357 -0.0342 -0.9712
vn -0.0636 -0.9275 -0.3685
vn -0.1809 -0.0381 -0.9828
vn -0.2357 -0.0342 -0.9712
vn -0.0636 -0.9275 -0.3685
vn -0.1379 -0.9400 -0.3120
vn -0.1809 -0.0381 -0.9828
vn -0.1379 -0.9400 -0.3120
vn -0.3981 -0.0401 -0.9165
vn -0.1809 -0.0381 -0.9828
vn -0.1379 -0.9400 -0.3120
vn -0.2532 -0.9511 -0.1770
vn -0.3981 -0.0401 -0.9165
vn -0.2532 -0.9511 -0.1770
vn -0.7968 -0.0362 -0.6032
vn -0.3981 -0.0401 -0.9165
vn -0.2532 -0.9511 -0.1770
vn -0.9450 -0.0322 -0.3254
vn -0.7968 -0.0362 -0.6032
vn -0.2532 -0.9511 -0.1770
vn -0.2827 -0.9556 -0.0831
vn -0.9450 -0.0322 -0.3254
vn -0.2827 -0.9556 -0.0831
vn -0.9962 -0.0303 -0.0811
vn -0.9450 -0.0322 -0.3254
vn -0.2827 -0.9556 -0.0831
vn -0.2784 -0.9604 -0.0147
vn -0.9962 -0.0303 -0.0811
vn -0.2784 -0.9604 -0.0147
vn -0.9658 -0.0303 0.2573
vn -0.9962 -0.0303 -0.0811
vn -0.2784 -0.9604 -0.0147
vn -0.2669 -0.9609 0.0733
vn -0.9658 -0.0303 0.2573
vn -0.2669 -0.9609 0.0733
vn -0.8263 -0.0323 0.5623
vn -0.9658 -0.0303 0.2573
vn -0.2669 -0.9609 0.0733
vn -0.2513 -0.9533 0.1672
vn -0.8263 -0.0323 0.5623
vn -0.2513 -0.9533 0.1672
vn -0.8442 -0.0323 0.5351
vn -0.8263 -0.0323 0.5623
vn -0.2904 -0.9415 0.1711
vn -0.8442 -0.0323 0.5351
vn -0.2513 -0.9533 0.1672
vn -0.2904 -0.9415 0.1711
vn -0.2886 -0.9362 0.2006
vn -0.8442 -0.0323 0.5351
vn -0.2886 -0.9362 0.2006
vn -0.7959 -0.0342 0.6045
vn -0.8442 -0.0323 0.5351
vn -0.2886 -0.9362 0.2006
vn -0.1807 -0.9329 0.3116
vn -0.7959 -0.0342 0.6045
vn -0.1807 -0.9329 0.3116
vn -0.4814 -0.0322 0.8759
vn -0.7959 -0.0342 0.6045
vn -0.1807 -0.9329 0.3116
vn -0.0616 -0.9314 0.3587
vn -0.4814 -0.0322 0.8759
vn -0.0616 -0.9314 0.3587
vn -0.1885 -0.0342 0.9815
vn -0.4814 -0.0322 0.8759
vn -0.0616 -0.9314 0.3587
vn 0.0597 -0.9359 0.3472
vn -0.1885 -0.0342 0.9815
vn 0.0597 -0.9359 0.3472
vn 0.1221 -0.0362 0.9919
vn -0.1885 -0.0342 0.9815
vn 0.0597 -0.9359 0.3472
vn 0.5505 -0.0362 0.8341
vn 0.1221 -0.0362 0.9919
vn 0.0597 -0.9359 0.3472
vn 0.2139 -0.9328 0.2901
vn 0.5505 -0.0362 0.8341
vn 0.2139 -0.9328 0.2901
vn 0.3353 -0.0401 0.9413
vn 0.5505 -0.0362 0.8341
vn 0.1301 -0.9398 0.3159
vn 0.3353 -0.0401 0.9413
vn 0.2139 -0.9328 0.2901
vn 0.1301 -0.9398 0.3159
vn 0.0440 -0.9458 0.3218
vn 0.3353 -0.0401 0.9413
vn 0.0440 -0.9458 0.3218
vn 0.1007 -0.0342 0.9943
vn 0.3353 -0.0401 0.9413
vn 0.0440 -0.9458 0.3218
vn 0.1594 -0.9572 0.2415
vn 0.1007 -0.0342 0.9943
vn 0.1594 -0.9572 0.2415
vn 0.5328 -0.0303 0.8457
vn 0.1007 -0.0342 0.9943
vn 0.1594 -0.9572 0.2415
vn 0.1965 -0.9606 0.1965
vn 0.5328 -0.0303 0.8457
vn 0.1965 -0.9606 0.1965
vn 0.7127 -0.0283 0.7009
vn 0.5328 -0.0303 0.8457
vn 0.1965 -0.9606 0.1965
vn 0.2415 -0.9629 0.1202
vn 0.7127 -0.0283 0.7009
vn 0.2415 -0.9629 0.1202
vn 0.9100 -0.0303 0.4135
vn 0.7127 -0.0283 0.7009
vn 0.2415 -0.9629 0.1202
vn 0.9995 -0.0322 -0.0029
vn 0.9100 -0.0303 0.4135
vn 0.2415 -0.9629 0.1202
vn 0.2903 -0.9569 0.0088
vn 0.9995 -0.0322 -0.0029
vn 0.2903 -0.9569 0.0088
vn 0.9988 -0.0323 -0.0382
vn 0.9995 -0.0322 -0.0029
vn 0.3039 -0.9527 -0.0068
vn 0.9988 -0.0323 -0.0382
vn 0.2903 -0.9569 0.0088
vn 0.3039 -0.9527 -0.0068
vn 0.2980 -0.9544 -0.0205
vn 0.9988 -0.0323 -0.0382
vn 0.2980 -0.9544 -0.0205
vn 0.9971 -0.0322 -0.0693
vn 0.9988 -0.0323 -0.0382
vn 0.2980 -0.9544 -0.0205
vn 0.2669 -0.9569 -0.1144
vn 0.9971 -0.0322 -0.0693
vn 0.2980 -0.9544 -0.0205
vn 0.0049 -1.0000 0.0010
vn 0.2669 -0.9569 -0.1144
vn 0.3039 -0.9527 -0.0068
vn 0.0049 -1.0000 0.0010
vn 0.2980 -0.9544 -0.0205
vn 0.2903 -0.9569 0.0088
vn 0.0049 -1.0000 0.0010
vn 0.3039 -0.9527 -0.0068
vn 0.2415 -0.9629 0.1202
vn 0.0049 -1.0000 0.0010
vn 0.2903 -0.9569 0.0088
vn 0.1965 -0.9606 0.1965
vn 0.0049 -1.0000 0.0010
vn 0.2415 -0.9629 0.1202
vn 0.1594 -0.9572 0.2415
vn 0.0049 -1.0000 0.0010
vn 0.1965 -0.9606 0.1965
vn 0.0440 -0.9458 0.3218
vn 0.0049 -1.0000 0.0010
vn 0.1594 -0.9572 0.2415
vn 0.1301 -0.9398 0.3159
vn 0.0049 -1.0000 0.0010
vn 0.0440 -0.9458 0.3218
vn 0.2139 -0.9328 0.2901
vn 0.0049 -1.0000 0.0010
vn 0.1301 -0.9398 0.3159
vn 0.0597 -0.9359 0.3472
vn 0.0049 -1.0000 0.0010
vn 0.2139 -0.9328 0.2901
vn -0.0616 -0.9314 0.3587
vn 0.0049 -1.0000 0.0010
vn 0.0597 -0.9359 0.3472
vn -0.1807 -0.9329 0.3116
vn 0.0049 -1.0000 0.0010
vn -0.0616 -0.9314 0.3587
vn -0.2886 -0.9362 0.2006
vn 0.0049 -1.0000 0.0010
vn -0.1807 -0.9329 0.3116
vn -0.2904 -0.9415 0.1711
vn 0.0049 -1.0000 0.0010
vn -0.2886 -0.9362 0.2006
vn -0.2513 -0.9533 0.1672
vn 0.0049 -1.0000 0.0010
vn -0.2904 -0.9415 0.1711
vn -0.2669 -0.9609 0.0733
vn 0.0049 -1.0000 0.0010
vn -0.2513 -0.9533 0.1672
vn -0.2784 -0.9604 -0.0147
vn 0.0049 -1.0000 0.0010
vn -0.2669 -0.9609 0.0733
vn -0.2827 -0.9556 -0.0831
vn 0.0049 -1.0000 0.0010
vn -0.2784 -0.9604 -0.0147
vn -0.2532 -0.9511 -0.1770
vn 0.0049 -1.0000 0.0010
vn -0.2827 -0.9556 -0.0831
vn -0.1379 -0.9400 -0.3120
vn 0.0049 -1.0000 0.0010
vn -0.2532 -0.9511 -0.1770
vn -0.0636 -0.9275 -0.3685
vn 0.0049 -1.0000 0.0010
vn -0.1379 -0.9400 -0.3120
vn -0.0733 -0.9357 -0.3451
vn 0.0049 -1.0000 0.0010
vn -0.0636 -0.9275 -0.3685
vn -0.0616 -0.9429 -0.3273
vn 0.0049 -1.0000 0.0010
vn -0.0733 -0.9357 -0.3451
vn 0.0127 -0.9532 -0.3021
vn 0.0049 -1.0000 0.0010
vn -0.0616 -0.9429 -0.3273
vn 0.1436 -0.9583 -0.2471
vn 0.0049 -1.0000 0.0010
vn 0.0127 -0.9532 -0.3021
vn 0.2023 -0.9548 -0.2179
vn 0.0049 -1.0000 0.0010
vn 0.1436 -0.9583 -0.2471
vn 0.2220 -0.9554 -0.1946
vn 0.0049 -1.0000 0.0010
vn 0.2023 -0.9548 -0.2179
vn 0.2669 -0.9569 -0.1144
vn 0.0049 -1.0000 0.0010
vn 0.2220 -0.9554 -0.1946
vn 0.5505 -0.0362 0.8341
vn 0.0479 0.9246 0.3779
vn 0.1221 -0.0362 0.9919
vn 0.0479 0.9246 0.3779
vn -0.1885 -0.0342 0.9815
vn 0.1221 -0.0362 0.9919
vn 0.0479 0.9246 0.3779
vn -0.0791 0.9192 0.3859
vn -0.1885 -0.0342 0.9815
vn -0.0791 0.9192 0.3859
vn -0.4814 -0.0322 0.8759
vn -0.1885 -0.0342 0.9815
vn -0.0791 0.9192 0.3859
vn -0.1963 0.9209 0.3369
vn -0.4814 -0.0322 0.8759
vn -0.1963 0.9209 0.3369
vn -0.7959 -0.0342 0.6045
vn -0.4814 -0.0322 0.8759
vn -0.1963 0.9209 0.3369
vn -0.3120 0.9243 0.2200
vn -0.7959 -0.0342 0.6045
vn -0.3120 0.9243 0.2200
vn -0.8442 -0.0323 0.5351
vn -0.7959 -0.0342 0.6045
vn -0.3136 0.9310 0.1866
vn -0.8442 -0.0323 0.5351
vn -0.3120 0.9243 0.2200
vn -0.3136 0.9310 0.1866
vn -0.2767 0.9434 0.1828
vn -0.8442 -0.0323 0.5351
vn -0.2767 0.9434 0.1828
vn -0.8263 -0.0323 0.5623
vn -0.8442 -0.0323 0.5351
vn -0.2767 0.9434 0.1828
vn -0.2940 0.9524 0.0811
vn -0.8263 -0.0323 0.5623
vn -0.2940 0.9524 0.0811
vn -0.9658 -0.0303 0.2573
vn -0.8263 -0.0323 0.5623
vn -0.2940 0.9524 0.0811
vn -0.3079 0.9513 -0.0166
vn -0.9658 -0.0303 0.2573
vn -0.3079 0.9513 -0.0166
vn -0.9962 -0.0303 -0.0811
vn -0.9658 -0.0303 0.2573
vn -0.3079 0.9513 -0.0166
vn -0.3119 0.9454 -0.0948
vn -0.9962 -0.0303 -0.0811
vn -0.3119 0.9454 -0.0948
vn -0.9450 -0.0322 -0.3254
vn -0.9962 -0.0303 -0.0811
vn -0.3119 0.9454 -0.0948
vn -0.2806 0.9395 -0.1965
vn -0.9450 -0.0322 -0.3254
vn -0.2806 0.9395 -0.1965
vn -0.7968 -0.0362 -0.6032
vn -0.9450 -0.0322 -0.3254
vn -0.2806 0.9395 -0.1965
vn -0.3981 -0.0401 -0.9165
vn -0.7968 -0.0362 -0.6032
vn -0.2806 0.9395 -0.1965
vn -0.1535 0.9281 -0.3393
vn -0.3981 -0.0401 -0.9165
vn -0.1535 0.9281 -0.3393
vn -0.1809 -0.0381 -0.9828
vn -0.3981 -0.0401 -0.9165
vn -0.1535 0.9281 -0.3393
vn -0.0694 0.9122 -0.4038
vn -0.1809 -0.0381 -0.9828
vn -0.0694 0.9122 -0.4038
vn -0.2357 -0.0342 -0.9712
vn -0.1809 -0.0381 -0.9828
vn -0.0811 0.9230 -0.3761
vn -0.2357 -0.0342 -0.9712
vn -0.0694 0.9122 -0.4038
vn -0.0811 0.9230 -0.3761
vn -0.0694 0.9316 -0.3568
vn -0.2357 -0.0342 -0.9712
vn -0.0694 0.9316 -0.3568
vn -0.2080 -0.0322 -0.9776
vn -0.2357 -0.0342 -0.9712
vn -0.0694 0.9316 -0.3568
vn 0.0127 0.9434 -0.3314
vn -0.2080 -0.0322 -0.9776
vn 0.0127 0.9434 -0.3314
vn 0.0323 -0.0323 -0.9990
vn -0.2080 -0.0322 -0.9776
vn 0.0127 0.9434 -0.3314
vn 0.1575 0.9496 -0.2709
vn 0.0323 -0.0323 -0.9990
vn 0.1575 0.9496 -0.2709
vn 0.4998 -0.0303 -0.8656
vn 0.0323 -0.0323 -0.9990
vn 0.1575 0.9496 -0.2709
vn 0.6850 -0.0283 -0.7280
vn 0.4998 -0.0303 -0.8656
vn 0.2220 0.9456 -0.2377
vn 0.6850 -0.0283 -0.7280
vn 0.1575 0.9496 -0.2709
vn 0.2220 0.9456 -0.2377
vn 0.2414 0.9470 -0.2120
vn 0.6850 -0.0283 -0.7280
vn 0.2414 0.9470 -0.2120
vn 0.7558 -0.0303 -0.6541
vn 0.6850 -0.0283 -0.7280
vn 0.2414 0.9470 -0.2120
vn 0.2942 0.9471 -0.1280
vn 0.7558 -0.0303 -0.6541
vn 0.2942 0.9471 -0.1280
vn 0.9202 -0.0323 -0.3902
vn 0.7558 -0.0303 -0.6541
vn 0.2942 0.9471 -0.1280
vn 0.9971 -0.0322 -0.0693
vn 0.9202 -0.0323 -0.3902
vn 0.2942 0.9471 -0.1280
vn 0.3273 0.9446 -0.0244
vn 0.9971 -0.0322 -0.0693
vn 0.3273 0.9446 -0.0244
vn 0.9988 -0.0323 -0.0382
vn 0.9971 -0.0322 -0.0693
vn 0.3331 0.9427 -0.0166
vn 0.9988 -0.0323 -0.0382
vn 0.3273 0.9446 -0.0244
vn 0.3331 0.9427 -0.0166
vn 0.3198 0.9475 -0.0049
vn 0.9988 -0.0323 -0.0382
vn 0.3198 0.9475 -0.0049
vn 0.9995 -0.0322 -0.0029
vn 0.9988 -0.0323 -0.0382
vn 0.3198 0.9475 -0.0049
vn 0.2691 0.9558 0.1184
vn 0.9995 -0.0322 -0.0029
vn 0.2691 0.9558 0.1184
vn 0.9100 -0.0303 0.4135
vn 0.9995 -0.0322 -0.0029
vn 0.2691 0.9558 0.1184
vn 0.7127 -0.0283 0.7009
vn 0.9100 -0.0303 0.4135
vn 0.2691 0.9558 0.1184
vn 0.2177 0.9540 0.2060
vn 0.7127 -0.0283 0.7009
vn 0.2177 0.9540 0.2060
vn 0.5328 -0.0303 0.8457
vn 0.7127 -0.0283 0.7009
vn 0.2177 0.9540 0.2060
vn 0.1709 0.9507 0.2589
vn 0.5328 -0.0303 0.8457
vn 0.1709 0.9507 0.2589
vn 0.1007 -0.0342 0.9943
vn 0.5328 -0.0303 0.8457
vn 0.1709 0.9507 0.2589
vn 0.0420 0.9376 0.3451
vn 0.1007 -0.0342 0.9943
vn 0.0420 0.9376 0.3451
vn 0.3353 -0.0401 0.9413
vn 0.1007 -0.0342 0.9943
vn 0.1280 0.9313 0.3410
vn 0.3353 -0.0401 0.9413
vn 0.0420 0.9376 0.3451
vn 0.1280 0.9313 0.3410
vn 0.2141 0.9237 0.3177
vn 0.3353 -0.0401 0.9413
vn 0.2141 0.9237 0.3177
vn 0.5505 -0.0362 0.8341
vn 0.3353 -0.0401 0.9413
vn 0.2141 0.9237 0.3177
vn 0.0479 0.9246 0.3779
vn 0.5505 -0.0362 0.8341
vn 0.2141 0.9237 0.3177
vn 0.0010 1.0000 -0.0029
vn 0.0479 0.9246 0.3779
vn 0.1280 0.9313 0.3410
vn 0.0010 1.0000 -0.0029
vn 0.2141 0.9237 0.3177
vn 0.0420 0.9376 0.3451
vn 0.0010 1.0000 -0.0029
vn 0.1280 0.9313 0.3410
vn 0.1709 0.9507 0.2589
vn 0.0010 1.0000 -0.0029
vn 0.0420 0.9376 0.3451
vn 0.2177 0.9540 0.2060
vn 0.0010 1.0000 -0.0029
vn 0.1709 0.9507 0.2589
vn 0.2691 0.9558 0.1184
vn 0.0010 1.0000 -0.0029
vn 0.2177 0.9540 0.2060
vn 0.3198 0.9475 -0.0049
vn 0.0010 1.0000 -0.0029
vn 0.2691 0.9558 0.1184
vn 0.3331 0.9427 -0.0166
vn 0.0010 1.0000 -0.0029
vn 0.3198 0.9475 -0.0049
vn 0.3273 0.9446 -0.0244
vn 0.0010 1.0000 -0.0029
vn 0.3331 0.9427 -0.0166
vn 0.2942 0.9471 -0.1280
vn 0.0010 1.0000 -0.0029
vn 0.3273 0.9446 -0.0244
vn 0.2414 0.9470 -0.2120
vn 0.0010 1.0000 -0.0029
vn 0.2942 0.9471 -0.1280
vn 0.2220 0.9456 -0.2377
vn 0.0010 1.0000 -0.0029
vn 0.2414 0.9470 -0.2120
vn 0.1575 0.9496 -0.2709
vn 0.0010 1.0000 -0.0029
vn 0.2220 0.9456 -0.2377
vn 0.0127 0.9434 -0.3314
vn 0.0010 1.0000 -0.0029
vn 0.1575 0.9496 -0.2709
vn -0.0694 0.9316 -0.3568
vn 0.0010 1.0000 -0.0029
vn 0.0127 0.9434 -0.3314
vn -0.0811 0.9230 -0.3761
vn 0.0010 1.0000 -0.0029
vn -0.0694 0.9316 -0.3568
vn -0.0694 0.9122 -0.4038
vn 0.0010 1.0000 -0.0029
vn -0.0811 0.9230 -0.3761
vn -0.1535 0.9281 -0.3393
vn 0.0010 1.0000 -0.0029
vn -0.0694 0.9122 -0.4038
vn -0.2806 0.9395 -0.1965
vn 0.0010 1.0000 -0.0029
vn -0.1535 0.9281 -0.3393
vn -0.3119 0.9454 -0.0948
vn 0.0010 1.0000 -0.0029
vn -0.2806 0.9395 -0.1965
vn -0.3079 0.9513 -0.0166
vn 0.0010 1.0000 -0.0029
vn -0.3119 0.9454 -0.0948
vn -0.2940 0.9524 0.0811
vn 0.0010 1.0000 -0.0029
vn -0.3079 0.9513 -0.0166
vn -0.2767 0.9434 0.1828
vn 0.0010 1.0000 -0.0029
vn -0.2940 0.9524 0.0811
vn -0.3136 0.9310 0.1866
vn 0.0010 1.0000 -0.0029
vn -0.2767 0.9434 0.1828
vn -0.3120 0.9243 0.2200
vn 0.0010 1.0000 -0.0029
vn -0.3136 0.9310 0.1866
vn -0.1963 0.9209 0.3369
vn 0.0010 1.0000 -0.0029
vn -0.3120 0.9243 0.2200
vn -0.0791 0.9192 0.3859
vn 0.0010 1.0000 -0.0029
vn -0.1963 0.9209 0.3369
vn 0.0479 0.9246 0.3779
vn 0.0010 1.0000 -0.0029
vn -0.0791 0.9192 0.3859
# 504 vertex normals

vt 0.3884 0.8062 0.0000
vt 0.3850 0.8047 0.0000
vt 0.3916 0.7921 0.0000
vt 0.3804 0.8185 0.0000
vt 0.3774 0.8164 0.0000
vt 0.3684 0.8291 0.0000
vt 0.3660 0.8265 0.0000
vt 0.3538 0.8389 0.0000
vt 0.3555 0.8422 0.0000
vt 0.3398 0.8462 0.0000
vt 0.3389 0.8428 0.0000
vt 0.3196 0.8425 0.0000
vt 0.3198 0.8392 0.0000
vt 0.3069 0.8392 0.0000
vt 0.3076 0.8362 0.0000
vt 0.2861 0.8308 0.0000
vt 0.2842 0.8336 0.0000
vt 0.2725 0.8290 0.0000
vt 0.2698 0.8317 0.0000
vt 0.2620 0.8199 0.0000
vt 0.2588 0.8221 0.0000
vt 0.2532 0.8104 0.0000
vt 0.2566 0.8088 0.0000
vt 0.2494 0.7942 0.0000
vt 0.2529 0.7933 0.0000
vt 0.2502 0.7758 0.0000
vt 0.2539 0.7759 0.0000
vt 0.2571 0.7620 0.0000
vt 0.2603 0.7628 0.0000
vt 0.2747 0.7422 0.0000
vt 0.2771 0.7441 0.0000
vt 0.2820 0.7334 0.0000
vt 0.2800 0.7310 0.0000
vt 0.2974 0.7209 0.0000
vt 0.2961 0.7178 0.0000
vt 0.3125 0.7161 0.0000
vt 0.3120 0.7129 0.0000
vt 0.3323 0.7148 0.0000
vt 0.3330 0.7114 0.0000
vt 0.3386 0.7131 0.0000
vt 0.3376 0.7163 0.0000
vt 0.3457 0.7207 0.0000
vt 0.3445 0.7239 0.0000
vt 0.3584 0.7214 0.0000
vt 0.3604 0.7185 0.0000
vt 0.3665 0.7249 0.0000
vt 0.3689 0.7222 0.0000
vt 0.3777 0.7346 0.0000
vt 0.3806 0.7322 0.0000
vt 0.3867 0.7454 0.0000
vt 0.3901 0.7437 0.0000
vt 0.3936 0.7637 0.0000
vt 0.3899 0.7645 0.0000
vt 0.3906 0.7808 0.0000
vt 0.3872 0.7806 0.0000
vt 0.3879 0.7914 0.0000
vt 0.3271 0.7781 0.0000
vt 0.3330 0.7114 0.0000
vt 0.3323 0.7148 0.0000
vt 0.3386 0.7131 0.0000
vt 0.3120 0.7129 0.0000
vt 0.3125 0.7161 0.0000
vt 0.2961 0.7178 0.0000
vt 0.2974 0.7209 0.0000
vt 0.2800 0.7310 0.0000
vt 0.2820 0.7334 0.0000
vt 0.2747 0.7422 0.0000
vt 0.2771 0.7441 0.0000
vt 0.2603 0.7628 0.0000
vt 0.2571 0.7620 0.0000
vt 0.2539 0.7759 0.0000
vt 0.2502 0.7758 0.0000
vt 0.2529 0.7933 0.0000
vt 0.2494 0.7942 0.0000
vt 0.2566 0.8088 0.0000
vt 0.2532 0.8104 0.0000
vt 0.2620 0.8199 0.0000
vt 0.2588 0.8221 0.0000
vt 0.2698 0.8317 0.0000
vt 0.2725 0.8290 0.0000
vt 0.2842 0.8336 0.0000
vt 0.2861 0.8308 0.0000
vt 0.3069 0.8392 0.0000
vt 0.3076 0.8362 0.0000
vt 0.3198 0.8392 0.0000
vt 0.3196 0.8425 0.0000
vt 0.3389 0.8428 0.0000
vt 0.3398 0.8462 0.0000
vt 0.3538 0.8389 0.0000
vt 0.3555 0.8422 0.0000
vt 0.3684 0.8291 0.0000
vt 0.3660 0.8265 0.0000
vt 0.3774 0.8164 0.0000
vt 0.3804 0.8185 0.0000
vt 0.3850 0.8047 0.0000
vt 0.3884 0.8062 0.0000
vt 0.3916 0.7921 0.0000
vt 0.3879 0.7914 0.0000
vt 0.3906 0.7808 0.0000
vt 0.3872 0.7806 0.0000
vt 0.3899 0.7645 0.0000
vt 0.3936 0.7637 0.0000
vt 0.3867 0.7454 0.0000
vt 0.3901 0.7437 0.0000
vt 0.3806 0.7322 0.0000
vt 0.3777 0.7346 0.0000
vt 0.3689 0.7222 0.0000
vt 0.3665 0.7249 0.0000
vt 0.3604 0.7185 0.0000
vt 0.3584 0.7214 0.0000
vt 0.3457 0.7207 0.0000
vt 0.3445 0.7239 0.0000
vt 0.3376 0.7163 0.0000
vt 0.3271 0.7781 0.0000
# 114 texture coords

o SM_Sand_Dollar_05_LOD0
g SM_Sand_Dollar_05_LOD0
usemtl MAT_Sea_Shells
s 1
f 34/3/1 1/2/2 2/1/3 
f 1/2/4 3/4/5 2/1/6 
f 1/2/7 47/5/8 3/4/9 
f 47/5/10 4/6/11 3/4/12 
f 5/7/13 4/6/14 47/5/15 
f 5/7/16 46/8/17 4/6/18 
f 46/8/19 6/9/20 4/6/21 
f 46/8/22 7/10/23 6/9/24 
f 46/8/25 45/11/26 7/10/27 
f 45/11/28 8/12/29 7/10/30 
f 45/11/31 44/13/32 8/12/33 
f 44/13/34 60/14/35 8/12/36 
f 9/15/37 60/14/38 44/13/39 
f 9/15/40 43/16/41 60/14/42 
f 43/16/43 10/17/44 60/14/45 
f 43/16/46 12/18/47 10/17/48 
f 12/18/49 11/19/50 10/17/51 
f 12/18/52 13/20/53 11/19/54 
f 13/20/55 58/21/56 11/19/57 
f 13/20/58 14/22/59 58/21/60 
f 13/20/61 15/23/62 14/22/63 
f 15/23/64 16/24/65 14/22/66 
f 15/23/67 18/25/68 16/24/69 
f 18/25/70 17/26/71 16/24/72 
f 18/25/73 19/27/74 17/26/75 
f 19/27/76 53/28/77 17/26/78 
f 19/27/79 41/29/80 53/28/81 
f 41/29/82 20/30/83 53/28/84 
f 40/31/85 20/30/86 41/29/87 
f 40/31/88 39/32/89 20/30/90 
f 39/32/91 21/33/92 20/30/93 
f 39/32/94 23/34/95 21/33/96 
f 23/34/97 22/35/98 21/33/99 
f 23/34/100 38/36/101 22/35/102 
f 38/36/103 48/37/104 22/35/105 
f 38/36/106 25/38/107 48/37/108 
f 25/38/109 24/39/110 48/37/111 
f 25/38/112 26/40/113 24/39/114 
f 25/38/115 27/41/116 26/40/117 
f 27/41/118 74/42/119 26/40/120 
f 37/43/121 74/42/122 27/41/123 
f 37/43/124 36/44/125 74/42/126 
f 36/44/127 72/45/128 74/42/129 
f 36/44/130 35/46/131 72/45/132 
f 35/46/133 71/47/134 72/45/135 
f 35/46/136 28/48/137 71/47/138 
f 28/48/139 30/49/140 71/47/141 
f 28/48/142 29/50/143 30/49/144 
f 29/50/145 70/51/146 30/49/147 
f 29/50/148 69/52/149 70/51/150 
f 29/50/151 31/53/152 69/52/153 
f 31/53/154 67/54/155 69/52/156 
f 33/55/157 67/54/158 31/53/159 
f 33/55/160 32/56/161 67/54/162 
f 32/56/163 34/3/164 67/54/165 
f 32/56/166 1/2/167 34/3/168 
f 32/56/169 42/57/170 1/2/171 
f 33/55/172 42/57/173 32/56/174 
f 31/53/175 42/57/176 33/55/177 
f 29/50/178 42/57/179 31/53/180 
f 28/48/181 42/57/182 29/50/183 
f 35/46/184 42/57/185 28/48/186 
f 36/44/187 42/57/188 35/46/189 
f 37/43/190 42/57/191 36/44/192 
f 27/41/193 42/57/194 37/43/195 
f 25/38/196 42/57/197 27/41/198 
f 38/36/199 42/57/200 25/38/201 
f 23/34/202 42/57/203 38/36/204 
f 39/32/205 42/57/206 23/34/207 
f 40/31/208 42/57/209 39/32/210 
f 41/29/211 42/57/212 40/31/213 
f 19/27/214 42/57/215 41/29/216 
f 18/25/217 42/57/218 19/27/219 
f 15/23/220 42/57/221 18/25/222 
f 13/20/223 42/57/224 15/23/225 
f 12/18/226 42/57/227 13/20/228 
f 43/16/229 42/57/230 12/18/231 
f 9/15/232 42/57/233 43/16/234 
f 44/13/235 42/57/236 9/15/237 
f 45/11/238 42/57/239 44/13/240 
f 46/8/241 42/57/242 45/11/243 
f 5/7/244 42/57/245 46/8/246 
f 47/5/247 42/57/248 5/7/249 
f 1/2/250 42/57/251 47/5/252 
f 26/60/253 49/59/254 24/58/255 
f 49/59/256 48/61/257 24/58/258 
f 49/59/259 86/62/260 48/61/261 
f 86/62/262 22/63/263 48/61/264 
f 86/62/265 50/64/266 22/63/267 
f 50/64/268 21/65/269 22/63/270 
f 50/64/271 51/66/272 21/65/273 
f 51/66/274 20/67/275 21/65/276 
f 85/68/277 20/67/278 51/66/279 
f 85/68/280 52/69/281 20/67/282 
f 52/69/283 53/70/284 20/67/285 
f 52/69/286 54/71/287 53/70/288 
f 54/71/289 17/72/290 53/70/291 
f 54/71/292 55/73/293 17/72/294 
f 55/73/295 16/74/296 17/72/297 
f 55/73/298 57/75/299 16/74/300 
f 57/75/301 14/76/302 16/74/303 
f 57/75/304 56/77/305 14/76/306 
f 56/77/307 58/78/308 14/76/309 
f 56/77/310 11/79/311 58/78/312 
f 56/77/313 59/80/314 11/79/315 
f 59/80/316 10/81/317 11/79/318 
f 59/80/319 84/82/320 10/81/321 
f 84/82/322 60/83/323 10/81/324 
f 61/84/325 60/83/326 84/82/327 
f 61/84/328 63/85/329 60/83/330 
f 63/85/331 8/86/332 60/83/333 
f 63/85/334 62/87/335 8/86/336 
f 62/87/337 7/88/338 8/86/339 
f 62/87/340 82/89/341 7/88/342 
f 82/89/343 6/90/344 7/88/345 
f 82/89/346 4/91/347 6/90/348 
f 64/92/349 4/91/350 82/89/351 
f 64/92/352 65/93/353 4/91/354 
f 65/93/355 3/94/356 4/91/357 
f 65/93/358 66/95/359 3/94/360 
f 66/95/361 2/96/362 3/94/363 
f 66/95/364 34/97/365 2/96/366 
f 66/95/367 81/98/368 34/97/369 
f 81/98/370 67/99/371 34/97/372 
f 68/100/373 67/99/374 81/98/375 
f 68/100/376 80/101/377 67/99/378 
f 80/101/379 69/102/380 67/99/381 
f 80/101/382 79/103/383 69/102/384 
f 79/103/385 70/104/386 69/102/387 
f 79/103/388 30/105/389 70/104/390 
f 79/103/391 78/106/392 30/105/393 
f 78/106/394 71/107/395 30/105/396 
f 78/106/397 77/108/398 71/107/399 
f 77/108/400 72/109/401 71/107/402 
f 77/108/403 76/110/404 72/109/405 
f 76/110/406 74/111/407 72/109/408 
f 73/112/409 74/111/410 76/110/411 
f 73/112/412 75/113/413 74/111/414 
f 75/113/415 26/60/416 74/111/417 
f 75/113/418 49/59/419 26/60/420 
f 75/113/421 83/114/422 49/59/423 
f 73/112/424 83/114/425 75/113/426 
f 76/110/427 83/114/428 73/112/429 
f 77/108/430 83/114/431 76/110/432 
f 78/106/433 83/114/434 77/108/435 
f 79/103/436 83/114/437 78/106/438 
f 80/101/439 83/114/440 79/103/441 
f 68/100/442 83/114/443 80/101/444 
f 81/98/445 83/114/446 68/100/447 
f 66/95/448 83/114/449 81/98/450 
f 65/93/451 83/114/452 66/95/453 
f 64/92/454 83/114/455 65/93/456 
f 82/89/457 83/114/458 64/92/459 
f 62/87/460 83/114/461 82/89/462 
f 63/85/463 83/114/464 62/87/465 
f 61/84/466 83/114/467 63/85/468 
f 84/82/469 83/114/470 61/84/471 
f 59/80/472 83/114/473 84/82/474 
f 56/77/475 83/114/476 59/80/477 
f 57/75/478 83/114/479 56/77/480 
f 55/73/481 83/114/482 57/75/483 
f 54/71/484 83/114/485 55/73/486 
f 52/69/487 83/114/488 54/71/489 
f 85/68/490 83/114/491 52/69/492 
f 51/66/493 83/114/494 85/68/495 
f 50/64/496 83/114/497 51/66/498 
f 86/62/499 83/114/500 50/64/501 
f 49/59/502 83/114/503 86/62/504 
# 168 faces

#
# object SM_Sand_Dollar_05_LOD1
#

v  -5.5682 0.3539 -5.7171
v  -2.7230 0.3535 6.5821
v  7.5703 0.3593 -1.2431
v  1.9117 0.3593 -7.2711
v  4.2110 0.4015 6.5267
v  -7.6806 0.3613 0.3235
v  7.4355 0.3895 3.8024
v  -4.4761 0.3567 5.1617
v  1.6199 0.3817 7.1726
v  6.3763 0.3589 -4.2891
v  -7.7860 0.3600 -1.6627
v  1.5580 0.7547 6.7930
v  -5.1902 0.0173 -5.3832
v  7.7861 0.3712 1.6237
v  -6.7548 0.3552 -4.6853
v  2.6245 0.3938 6.2638
v  3.6733 0.3593 -6.8461
v  -1.0179 0.3590 7.1320
v  -6.9530 0.3613 1.8116
v  7.2406 0.3585 -2.9575
v  -5.0350 0.3590 3.9469
v  -5.7756 0.7335 -4.9882
v  5.1384 0.4033 6.1289
v  -2.2372 0.7510 6.3512
v  -4.4118 0.6832 4.5279
v  2.7305 0.6543 -6.6885
v  7.2955 0.6730 0.2186
v  -6.8821 0.6263 1.1236
v  1.5527 0.0601 6.7946
v  4.1779 0.7125 6.1079
v  -2.2176 0.0064 6.3575
v  2.4846 0.7399 5.9272
v  6.7169 0.6631 -3.0310
v  7.2976 0.0968 0.2512
v  -7.3703 0.3571 -3.4258
# 35 vertices

vn 0.1163 -0.2614 0.9582
vn -0.1454 -0.9404 -0.3074
vn 0.8001 -0.0408 0.5985
vn -0.2271 0.9347 -0.2735
vn 0.1046 0.9619 0.2527
vn 0.0863 0.9432 -0.3207
vn 0.0863 0.9432 -0.3207
vn 0.1046 0.9619 0.2527
vn 0.2950 0.9430 -0.1538
vn 0.8992 -0.2180 -0.3794
vn -0.1454 -0.9404 -0.3074
vn 0.5730 -0.1565 -0.8044
vn -0.3320 0.9220 0.1990
vn 0.1046 0.9619 0.2527
vn -0.1358 0.9827 -0.1262
vn -0.1511 -0.9299 0.3353
vn -0.1454 -0.9404 -0.3074
vn 0.2096 -0.9243 0.3190
vn -0.9973 -0.0672 0.0296
vn 0.1046 0.9619 0.2527
vn -0.2271 0.9347 -0.2735
vn -0.7789 -0.2056 0.5925
vn -0.1454 -0.9404 -0.3074
vn -0.7578 -0.4519 0.4707
vn 0.3335 0.9426 -0.0167
vn 0.1046 0.9619 0.2527
vn 0.8001 -0.0408 0.5985
vn 0.2738 -0.9618 -0.0034
vn -0.1454 -0.9404 -0.3074
vn 0.8992 -0.2180 -0.3794
vn -0.1631 0.9189 0.3591
vn 0.1046 0.9619 0.2527
vn -0.3320 0.9220 0.1990
vn -0.7578 -0.4519 0.4707
vn -0.1454 -0.9404 -0.3074
vn -0.1511 -0.9299 0.3353
vn 0.8001 -0.0408 0.5985
vn 0.1046 0.9619 0.2527
vn 0.0713 0.9483 0.3094
vn 0.4176 -0.4376 0.7963
vn -0.1454 -0.9404 -0.3074
vn 0.1163 -0.2614 0.9582
vn 0.2950 0.9430 -0.1538
vn 0.1046 0.9619 0.2527
vn 0.3335 0.9426 -0.0167
vn 0.2738 -0.9618 -0.0034
vn 0.8992 -0.2180 -0.3794
vn 0.9845 -0.0424 -0.1701
vn -0.9973 -0.0672 0.0296
vn -0.2271 0.9347 -0.2735
vn -0.9987 -0.0364 0.0352
vn -0.9987 -0.0364 0.0352
vn -0.1454 -0.9404 -0.3074
vn -0.7789 -0.2056 0.5925
vn 0.1046 0.9619 0.2527
vn 0.4176 -0.4376 0.7963
vn 0.0713 0.9483 0.3094
vn 0.1730 0.8947 0.4118
vn -0.1299 -0.0337 0.9910
vn 0.3274 -0.0311 0.9444
vn -0.8624 -0.1032 -0.4957
vn -0.1454 -0.9404 -0.3074
vn -0.9987 -0.0364 0.0352
vn -0.1454 -0.9404 -0.3074
vn -0.4271 0.0244 -0.9039
vn -0.0241 -0.1431 -0.9894
vn 0.8001 -0.0408 0.5985
vn -0.1454 -0.9404 -0.3074
vn 0.2738 -0.9618 -0.0034
vn 0.3335 0.9426 -0.0167
vn 0.8001 -0.0408 0.5985
vn 0.9923 -0.0281 0.1208
vn -0.1454 -0.9404 -0.3074
vn -0.8624 -0.1032 -0.4957
vn -0.4271 0.0244 -0.9039
vn -0.2271 0.9347 -0.2735
vn -0.9520 -0.1531 -0.2651
vn -0.9987 -0.0364 0.0352
vn 0.2096 -0.9243 0.3190
vn -0.1454 -0.9404 -0.3074
vn 0.4176 -0.4376 0.7963
vn 0.1730 0.8947 0.4118
vn 0.3274 -0.0311 0.9444
vn 0.4176 -0.4376 0.7963
vn 0.5730 -0.1565 -0.8044
vn -0.1454 -0.9404 -0.3074
vn -0.0241 -0.1431 -0.9894
vn 0.0863 0.9432 -0.3207
vn -0.0241 -0.1431 -0.9894
vn -0.2271 0.9347 -0.2735
vn -0.1631 0.9189 0.3591
vn -0.7788 -0.1657 0.6050
vn -0.5224 -0.0346 0.8520
vn -0.1511 -0.9299 0.3353
vn 0.2096 -0.9243 0.3190
vn -0.1299 -0.0337 0.9910
vn -0.1358 0.9827 -0.1262
vn -0.7789 -0.2056 0.5925
vn -0.7578 -0.4519 0.4707
vn -0.9987 -0.0364 0.0352
vn -0.7789 -0.2056 0.5925
vn -0.9973 -0.0672 0.0296
vn 0.2950 0.9430 -0.1538
vn 0.9845 -0.0424 -0.1701
vn 0.8992 -0.2180 -0.3794
vn 0.8992 -0.2180 -0.3794
vn 0.5730 -0.1565 -0.8044
vn 0.6940 -0.2017 -0.6912
vn -0.1631 0.9189 0.3591
vn -0.3320 0.9220 0.1990
vn -0.7788 -0.1657 0.6050
vn -0.7578 -0.4519 0.4707
vn -0.1511 -0.9299 0.3353
vn -0.7788 -0.1657 0.6050
vn -0.2271 0.9347 -0.2735
vn -0.0241 -0.1431 -0.9894
vn -0.4271 0.0244 -0.9039
vn -0.2271 0.9347 -0.2735
vn -0.4271 0.0244 -0.9039
vn -0.8624 -0.1032 -0.4957
vn 0.1163 -0.2614 0.9582
vn 0.8001 -0.0408 0.5985
vn 0.6266 -0.1934 0.7550
vn 0.0713 0.9483 0.3094
vn 0.4176 -0.4376 0.7963
vn 0.1163 -0.2614 0.9582
vn 0.1730 0.8947 0.4118
vn -0.1631 0.9189 0.3591
vn -0.1299 -0.0337 0.9910
vn -0.1631 0.9189 0.3591
vn -0.5224 -0.0346 0.8520
vn -0.1299 -0.0337 0.9910
vn -0.3320 0.9220 0.1990
vn -0.7578 -0.4519 0.4707
vn -0.7788 -0.1657 0.6050
vn -0.3320 0.9220 0.1990
vn -0.1358 0.9827 -0.1262
vn -0.7578 -0.4519 0.4707
vn 0.0863 0.9432 -0.3207
vn 0.5730 -0.1565 -0.8044
vn -0.0241 -0.1431 -0.9894
vn 0.0863 0.9432 -0.3207
vn 0.6940 -0.2017 -0.6912
vn 0.5730 -0.1565 -0.8044
vn 0.3335 0.9426 -0.0167
vn 0.9923 -0.0281 0.1208
vn 0.9845 -0.0424 -0.1701
vn 0.2950 0.9430 -0.1538
vn 0.3335 0.9426 -0.0167
vn 0.9845 -0.0424 -0.1701
vn -0.1358 0.9827 -0.1262
vn -0.9973 -0.0672 0.0296
vn -0.7789 -0.2056 0.5925
vn -0.1358 0.9827 -0.1262
vn 0.1046 0.9619 0.2527
vn -0.9973 -0.0672 0.0296
vn 0.2096 -0.9243 0.3190
vn 0.4176 -0.4376 0.7963
vn 0.3274 -0.0311 0.9444
vn 0.2096 -0.9243 0.3190
vn 0.3274 -0.0311 0.9444
vn -0.1299 -0.0337 0.9910
vn 0.0713 0.9483 0.3094
vn 0.1163 -0.2614 0.9582
vn 0.6266 -0.1934 0.7550
vn 0.0713 0.9483 0.3094
vn 0.6266 -0.1934 0.7550
vn 0.8001 -0.0408 0.5985
vn -0.1511 -0.9299 0.3353
vn -0.5224 -0.0346 0.8520
vn -0.7788 -0.1657 0.6050
vn -0.1511 -0.9299 0.3353
vn -0.1299 -0.0337 0.9910
vn -0.5224 -0.0346 0.8520
vn 0.1046 0.9619 0.2527
vn 0.1730 0.8947 0.4118
vn 0.4176 -0.4376 0.7963
vn 0.1730 0.8947 0.4118
vn 0.1046 0.9619 0.2527
vn -0.1631 0.9189 0.3591
vn 0.2950 0.9430 -0.1538
vn 0.6940 -0.2017 -0.6912
vn 0.0863 0.9432 -0.3207
vn 0.2950 0.9430 -0.1538
vn 0.8992 -0.2180 -0.3794
vn 0.6940 -0.2017 -0.6912
vn 0.8001 -0.0408 0.5985
vn 0.2738 -0.9618 -0.0034
vn 0.9923 -0.0281 0.1208
vn 0.2738 -0.9618 -0.0034
vn 0.9845 -0.0424 -0.1701
vn 0.9923 -0.0281 0.1208
vn -0.8624 -0.1032 -0.4957
vn -0.9987 -0.0364 0.0352
vn -0.9520 -0.1531 -0.2651
vn -0.2271 0.9347 -0.2735
vn -0.8624 -0.1032 -0.4957
vn -0.9520 -0.1531 -0.2651
# 198 vertex normals

vt 0.3914 0.7903 0.0000
vt 0.2961 0.7178 0.0000
vt 0.2698 0.8317 0.0000
vt 0.3914 0.7903 0.0000
vt 0.3604 0.7185 0.0000
vt 0.3604 0.7185 0.0000
vt 0.2961 0.7178 0.0000
vt 0.2502 0.7758 0.0000
vt 0.2502 0.7758 0.0000
vt 0.3390 0.8460 0.0000
vt 0.2698 0.8317 0.0000
vt 0.3390 0.8460 0.0000
vt 0.3901 0.7437 0.0000
vt 0.3364 0.7125 0.0000
vt 0.3364 0.7125 0.0000
vt 0.3804 0.8185 0.0000
vt 0.3804 0.8185 0.0000
vt 0.2800 0.7310 0.0000
vt 0.2800 0.7310 0.0000
vt 0.2588 0.8221 0.0000
vt 0.2588 0.8221 0.0000
vt 0.3457 0.7207 0.0000
vt 0.3457 0.7207 0.0000
vt 0.3357 0.7158 0.0000
vt 0.3008 0.7198 0.0000
vt 0.3836 0.8068 0.0000
vt 0.3555 0.8422 0.0000
vt 0.3555 0.8422 0.0000
vt 0.2733 0.8286 0.0000
vt 0.2576 0.7683 0.0000
vt 0.3601 0.7222 0.0000
vt 0.2678 0.8250 0.0000
vt 0.3006 0.7199 0.0000
vt 0.3936 0.7637 0.0000
vt 0.3936 0.7637 0.0000
vt 0.2804 0.7368 0.0000
vt 0.2571 0.7620 0.0000
vt 0.2571 0.7620 0.0000
vt 0.3890 0.7767 0.0000
vt 0.3884 0.8062 0.0000
vt 0.3884 0.8062 0.0000
vt 0.3467 0.8407 0.0000
vt 0.2494 0.7942 0.0000
vt 0.2494 0.7942 0.0000
vt 0.3444 0.7240 0.0000
vt 0.3357 0.7158 0.0000
vt 0.3890 0.7764 0.0000
vt 0.3120 0.7129 0.0000
vt 0.3120 0.7129 0.0000
vt 0.2747 0.7422 0.0000
vt 0.2747 0.7422 0.0000
vt 0.3689 0.7222 0.0000
vt 0.3689 0.7222 0.0000
vt 0.2532 0.8104 0.0000
vt 0.2532 0.8104 0.0000
# 55 texture coords

o SM_Sand_Dollar_05_LOD1
g SM_Sand_Dollar_05_LOD1
usemtl MAT_Sea_Shells
s 1
f 91/120/505 99/143/506 93/127/507 
f 108/146/508 118/159/509 112/156/510 
f 112/156/511 118/159/512 119/140/513 
f 106/154/514 99/143/515 103/142/516 
f 111/150/517 118/159/518 114/144/519 
f 117/139/520 99/143/521 115/160/522 
f 92/122/523 118/159/524 108/146/525 
f 105/151/526 99/143/527 107/165/528 
f 113/153/529 118/159/530 93/127/531 
f 120/161/532 99/143/533 106/154/534 
f 110/147/535 118/159/536 111/150/537 
f 107/165/538 99/143/539 117/139/540 
f 93/127/541 118/159/542 116/145/543 
f 102/137/544 99/143/545 91/120/546 
f 119/140/547 118/159/548 113/153/549 
f 120/161/550 106/154/551 89/115/552 
f 92/122/553 108/146/554 97/158/555 
f 97/157/556 99/143/557 105/151/558 
f 118/159/559 102/136/560 116/145/561 
f 98/138/562 104/162/563 95/129/564 
f 101/134/565 99/143/566 97/157/567 
f 99/143/568 87/125/569 90/124/570 
f 93/127/571 99/143/572 120/161/573 
f 113/153/574 93/127/575 100/148/576 
f 99/143/577 101/134/578 87/125/579 
f 108/146/580 121/168/581 97/158/582 
f 115/160/583 99/143/584 102/137/585 
f 98/138/586 95/129/587 102/136/588 
f 103/142/589 99/143/590 90/124/591 
f 112/156/592 90/124/593 108/146/594 
f 110/147/595 94/133/596 88/121/597 
f 117/139/598 115/160/599 104/163/600 
f 114/144/601 105/152/602 107/164/603 
f 97/157/604 105/151/605 92/123/606 
f 119/140/607 89/118/608 106/155/609 
f 106/154/610 103/142/611 96/130/612 
f 110/147/613 111/150/614 94/133/615 
f 107/165/616 117/139/617 94/132/618 
f 108/146/619 90/124/620 87/125/621 
f 108/146/622 87/117/623 101/135/624 
f 91/120/625 93/127/626 109/167/627 
f 116/145/628 102/136/629 91/119/630 
f 98/138/631 110/147/632 104/162/633 
f 110/147/634 88/121/635 104/162/636 
f 111/150/637 107/164/638 94/133/639 
f 111/150/640 114/144/641 107/164/642 
f 112/156/643 103/141/644 90/126/645 
f 112/156/646 96/130/647 103/141/648 
f 113/153/649 100/148/650 89/118/651 
f 119/140/652 113/153/653 89/118/654 
f 114/144/655 92/122/656 105/152/657 
f 114/144/658 118/159/659 92/122/660 
f 115/160/661 102/137/662 95/128/663 
f 115/160/664 95/128/665 104/163/666 
f 116/145/667 91/119/668 109/166/669 
f 116/145/670 109/166/671 93/127/672 
f 117/139/673 88/116/674 94/132/675 
f 117/139/676 104/163/677 88/116/678 
f 118/159/679 98/138/680 102/136/681 
f 98/138/682 118/159/683 110/147/684 
f 119/140/685 96/130/686 112/156/687 
f 119/140/688 106/155/689 96/131/690 
f 93/127/691 120/161/692 100/149/693 
f 120/161/694 89/115/695 100/149/696 
f 101/134/697 97/157/698 121/169/699 
f 108/146/700 101/135/701 121/168/702 
# 66 faces

