# 3ds Max Wavefront OBJ Exporter v0.97b - (c)2007 guruware
# File Created: 10.02.2024 08:45:38

mtllib SM_Sand_Dollar_01.mtl

#
# object SM_Sand_Dollar_01_LOD0
#

v  -5.9455 1.5795 -4.1348
v  -8.7176 1.5999 -4.0566
v  -9.1208 1.0142 -4.2791
v  -10.4964 1.0371 -2.9455
v  -10.0606 1.5689 -2.8191
v  -10.3844 1.5298 -2.2974
v  -10.8292 1.0476 -2.2240
v  -10.4502 1.0497 0.7194
v  -8.6437 1.4689 5.1241
v  -6.2409 0.9987 9.2787
v  -2.9829 1.4633 10.5640
v  0.8113 1.4560 10.4162
v  2.1564 1.4481 9.5200
v  2.3535 0.9788 10.0394
v  3.4049 1.4374 9.6841
v  8.5757 0.9790 7.8246
v  8.5188 1.4346 6.4680
v  8.7539 0.9786 5.0015
v  9.0010 1.5027 3.6106
v  9.5014 0.9775 3.7714
v  10.4459 0.9776 2.9594
v  9.8721 1.5795 2.8550
v  10.3402 1.5806 1.4175
v  10.8292 0.9766 1.4256
v  10.2242 1.5308 -2.8859
v  10.6239 0.9767 -3.1105
v  8.2871 1.4732 -6.7193
v  8.5762 0.9776 -7.0396
v  5.4072 0.9796 -10.2481
v  0.4822 1.3875 -10.5337
v  0.4289 0.9804 -10.9469
v  -4.5971 0.9800 -9.8438
v  -6.5775 1.4371 -7.1756
v  -6.9727 0.9792 -7.3614
v  -7.1700 0.9790 -6.5420
v  -5.8410 0.9777 -4.9203
v  -5.6412 1.4945 -4.8484
v  -6.6431 1.4434 -6.4629
v  -5.7328 1.4186 -8.7116
v  -4.3170 1.4030 -9.5803
v  -2.6859 1.3875 -9.8029
v  5.2521 1.4156 -9.7820
v  0.7063 1.9800 1.1493
v  8.2164 1.4623 4.9671
v  8.1745 1.4300 7.7251
v  6.4291 1.4260 8.9472
v  -6.0958 1.4669 8.8395
v  -8.8808 1.4811 3.6613
v  -10.0218 1.5068 0.4231
v  -9.1771 1.5882 -3.3165
v  -7.5596 1.6085 -4.7896
v  -7.1510 1.6126 -4.8488
v  -5.8424 0.4007 -4.0601
v  -7.1510 0.3875 -4.8488
v  -7.2206 0.9856 -5.2175
v  -7.7383 0.9950 -5.1996
v  -9.1771 0.4942 -3.3165
v  -9.6409 1.0232 -3.3991
v  -10.3844 0.5873 -2.2974
v  -9.2531 1.0440 3.9919
v  -8.9876 1.0269 5.5247
v  -2.9829 0.5291 10.5640
v  -6.0958 0.5530 8.8395
v  -2.8732 0.9839 10.9469
v  0.9851 0.9794 10.7885
v  0.8113 0.5283 10.4162
v  2.1564 0.5332 9.5200
v  3.4049 0.5403 9.6841
v  3.6594 0.9790 10.1247
v  6.6753 0.9788 9.3058
v  8.5188 0.5459 6.4680
v  8.9208 0.9793 6.4753
v  9.0010 0.4777 3.6106
v  10.2242 0.4550 -2.8859
v  8.2871 0.5073 -6.7193
v  0.4822 0.5930 -10.5337
v  -2.6859 0.5930 -9.8029
v  -2.8706 0.9804 -10.1376
v  -5.7328 0.5618 -8.7116
v  -6.1083 0.9796 -8.9039
v  -6.6431 0.5371 -6.4629
v  -6.0250 0.9760 -4.4340
v  -5.4755 0.4859 -4.8484
v  5.2521 0.5648 -9.7820
v  10.3402 0.4149 1.4175
v  9.8721 0.4225 2.8550
v  8.2164 0.5181 4.9671
v  8.1745 0.5478 7.7251
v  6.4291 0.5487 8.9472
v  -8.6437 0.6049 5.1241
v  -8.8808 0.6248 3.6613
v  -10.0218 0.6111 0.4231
v  -10.0606 0.5383 -2.8191
v  0.7063 -0.0000 1.1493
v  -8.7176 0.4648 -4.0566
# 95 vertices

vn -0.2628 -0.0928 -0.9604
vn 0.1887 0.7911 -0.5818
vn -0.0284 0.8419 -0.5388
vn 0.1809 -0.0420 -0.9826
vn 0.1887 0.7911 -0.5818
vn -0.2628 -0.0928 -0.9604
vn -0.1556 0.8798 -0.4492
vn 0.1887 0.7911 -0.5818
vn 0.1809 -0.0420 -0.9826
vn -0.3591 0.1947 -0.9128
vn -0.1556 0.8798 -0.4492
vn 0.1809 -0.0420 -0.9826
vn -0.3294 0.8905 -0.3138
vn -0.1556 0.8798 -0.4492
vn -0.3591 0.1947 -0.9128
vn -0.7048 -0.0323 -0.7087
vn -0.3294 0.8905 -0.3138
vn -0.3591 0.1947 -0.9128
vn -0.3295 0.8811 -0.3393
vn -0.3294 0.8905 -0.3138
vn -0.7048 -0.0323 -0.7087
vn -0.6871 -0.0186 -0.7263
vn -0.3295 0.8811 -0.3393
vn -0.7048 -0.0323 -0.7087
vn -0.3429 0.8861 -0.3117
vn -0.3295 0.8811 -0.3393
vn -0.6871 -0.0186 -0.7263
vn -0.7128 -0.0186 -0.7011
vn -0.3429 0.8861 -0.3117
vn -0.6871 -0.0186 -0.7263
vn -0.4130 0.9090 -0.0556
vn -0.3429 0.8861 -0.3117
vn -0.7128 -0.0186 -0.7011
vn -0.9845 -0.0147 -0.1750
vn -0.4130 0.9090 -0.0556
vn -0.7128 -0.0186 -0.7011
vn -0.3841 0.9180 0.0987
vn -0.4130 0.9090 -0.0556
vn -0.9845 -0.0147 -0.1750
vn -0.9718 -0.0107 0.2354
vn -0.3841 0.9180 0.0987
vn -0.9845 -0.0147 -0.1750
vn -0.3879 0.9155 0.1065
vn -0.3841 0.9180 0.0987
vn -0.9718 -0.0107 0.2354
vn -0.9679 -0.0088 0.2510
vn -0.3879 0.9155 0.1065
vn -0.9718 -0.0107 0.2354
vn -0.3742 0.9136 0.1593
vn -0.3879 0.9155 0.1065
vn -0.9679 -0.0088 0.2510
vn -0.9256 -0.0088 0.3783
vn -0.3742 0.9136 0.1593
vn -0.9679 -0.0088 0.2510
vn -0.2768 0.9048 0.3237
vn -0.3742 0.9136 0.1593
vn -0.9256 -0.0088 0.3783
vn -0.6502 -0.0108 0.7597
vn -0.2768 0.9048 0.3237
vn -0.9256 -0.0088 0.3783
vn -0.0968 0.8951 0.4353
vn -0.2768 0.9048 0.3237
vn -0.6502 -0.0108 0.7597
vn -0.2201 -0.0127 0.9754
vn -0.0968 0.8951 0.4353
vn -0.6502 -0.0108 0.7597
vn 0.1222 0.9059 0.4056
vn -0.0968 0.8951 0.4353
vn -0.2201 -0.0127 0.9754
vn 0.2766 -0.0127 0.9609
vn 0.1222 0.9059 0.4056
vn -0.2201 -0.0127 0.9754
vn 0.2220 -0.0127 0.9750
vn 0.1222 0.9059 0.4056
vn 0.2766 -0.0127 0.9609
vn 0.2220 -0.0127 0.9750
vn 0.0929 0.9178 0.3861
vn 0.1222 0.9059 0.4056
vn 0.0342 0.9124 0.4078
vn 0.0929 0.9178 0.3861
vn 0.2220 -0.0127 0.9750
vn 0.0792 -0.0108 0.9968
vn 0.0342 0.9124 0.4078
vn 0.2220 -0.0127 0.9750
vn 0.1846 0.9055 0.3820
vn 0.0342 0.9124 0.4078
vn 0.0792 -0.0108 0.9968
vn 0.4374 -0.0108 0.8992
vn 0.1846 0.9055 0.3820
vn 0.0792 -0.0108 0.9968
vn 0.3473 0.9066 0.2397
vn 0.1846 0.9055 0.3820
vn 0.4374 -0.0108 0.8992
vn 0.8242 -0.0108 0.5662
vn 0.3473 0.9066 0.2397
vn 0.4374 -0.0108 0.8992
vn 0.4191 0.9074 0.0303
vn 0.3473 0.9066 0.2397
vn 0.8242 -0.0108 0.5662
vn 0.9980 -0.0127 0.0616
vn 0.4191 0.9074 0.0303
vn 0.8242 -0.0108 0.5662
vn 0.9797 -0.0127 0.2002
vn 0.4191 0.9074 0.0303
vn 0.9980 -0.0127 0.0616
vn 0.9797 -0.0127 0.2002
vn 0.3845 0.9188 0.0891
vn 0.4191 0.9074 0.0303
vn 0.3178 0.8947 0.3139
vn 0.3845 0.9188 0.0891
vn 0.9797 -0.0127 0.2002
vn 0.7497 -0.0147 0.6616
vn 0.3178 0.8947 0.3139
vn 0.9797 -0.0127 0.2002
vn 0.3528 0.8980 0.2629
vn 0.3178 0.8947 0.3139
vn 0.7497 -0.0147 0.6616
vn 0.8321 -0.0186 0.5544
vn 0.3528 0.8980 0.2629
vn 0.7497 -0.0147 0.6616
vn 0.4385 0.8975 0.0479
vn 0.3528 0.8980 0.2629
vn 0.8321 -0.0186 0.5544
vn 0.9930 -0.0186 0.1164
vn 0.4385 0.8975 0.0479
vn 0.8321 -0.0186 0.5544
vn 0.4271 0.8962 -0.1202
vn 0.4385 0.8975 0.0479
vn 0.9930 -0.0186 0.1164
vn 0.9668 -0.0147 -0.2552
vn 0.4271 0.8962 -0.1202
vn 0.9930 -0.0186 0.1164
vn 0.3433 0.9027 -0.2592
vn 0.4271 0.8962 -0.1202
vn 0.9668 -0.0147 -0.2552
vn 0.8089 -0.0127 -0.5878
vn 0.3433 0.9027 -0.2592
vn 0.9668 -0.0147 -0.2552
vn 0.1732 0.9209 -0.3493
vn 0.3433 0.9027 -0.2592
vn 0.8089 -0.0127 -0.5878
vn 0.4570 -0.0127 -0.8894
vn 0.1732 0.9209 -0.3493
vn 0.8089 -0.0127 -0.5878
vn -0.0206 0.9170 -0.3983
vn 0.1732 0.9209 -0.3493
vn 0.4570 -0.0127 -0.8894
vn -0.0479 -0.0127 -0.9988
vn -0.0206 0.9170 -0.3983
vn 0.4570 -0.0127 -0.8894
vn -0.0791 0.8998 -0.4290
vn -0.0206 0.9170 -0.3983
vn -0.0479 -0.0127 -0.9988
vn -0.2335 -0.0655 -0.9702
vn -0.0791 0.8998 -0.4290
vn -0.0479 -0.0127 -0.9988
vn -0.1456 0.8961 -0.4192
vn -0.0791 0.8998 -0.4290
vn -0.2335 -0.0655 -0.9702
vn -0.3330 0.2197 -0.9170
vn -0.1456 0.8961 -0.4192
vn -0.2335 -0.0655 -0.9702
vn -0.3330 0.2197 -0.9170
vn -0.2946 0.9091 -0.2945
vn -0.1456 0.8961 -0.4192
vn -0.7002 -0.0928 -0.7079
vn -0.2946 0.9091 -0.2945
vn -0.3330 0.2197 -0.9170
vn -0.3787 0.9149 -0.1399
vn -0.2946 0.9091 -0.2945
vn -0.7002 -0.0928 -0.7079
vn -0.8922 0.2961 -0.3410
vn -0.3787 0.9149 -0.1399
vn -0.7002 -0.0928 -0.7079
vn -0.9690 -0.0596 0.2396
vn -0.3787 0.9149 -0.1399
vn -0.8922 0.2961 -0.3410
vn -0.4429 0.8887 0.1183
vn -0.3787 0.9149 -0.1399
vn -0.9690 -0.0596 0.2396
vn -0.9908 -0.0988 0.0929
vn -0.4429 0.8887 0.1183
vn -0.9690 -0.0596 0.2396
vn -0.5149 0.8569 0.0225
vn -0.4429 0.8887 0.1183
vn -0.9908 -0.0988 0.0929
vn -0.2628 -0.0928 -0.9604
vn -0.5149 0.8569 0.0225
vn -0.9908 -0.0988 0.0929
vn -0.0284 0.8419 -0.5388
vn -0.5149 0.8569 0.0225
vn -0.2628 -0.0928 -0.9604
vn -0.0284 0.8419 -0.5388
vn 0.0029 1.0000 -0.0068
vn -0.5149 0.8569 0.0225
vn 0.0029 1.0000 -0.0068
vn -0.4429 0.8887 0.1183
vn -0.5149 0.8569 0.0225
vn 0.0029 1.0000 -0.0068
vn -0.3787 0.9149 -0.1399
vn -0.4429 0.8887 0.1183
vn 0.0029 1.0000 -0.0068
vn -0.2946 0.9091 -0.2945
vn -0.3787 0.9149 -0.1399
vn 0.0029 1.0000 -0.0068
vn -0.1456 0.8961 -0.4192
vn -0.2946 0.9091 -0.2945
vn 0.0029 1.0000 -0.0068
vn -0.0791 0.8998 -0.4290
vn -0.1456 0.8961 -0.4192
vn 0.0029 1.0000 -0.0068
vn -0.0206 0.9170 -0.3983
vn -0.0791 0.8998 -0.4290
vn 0.0029 1.0000 -0.0068
vn 0.1732 0.9209 -0.3493
vn -0.0206 0.9170 -0.3983
vn 0.0029 1.0000 -0.0068
vn 0.3433 0.9027 -0.2592
vn 0.1732 0.9209 -0.3493
vn 0.0029 1.0000 -0.0068
vn 0.4271 0.8962 -0.1202
vn 0.3433 0.9027 -0.2592
vn 0.0029 1.0000 -0.0068
vn 0.4385 0.8975 0.0479
vn 0.4271 0.8962 -0.1202
vn 0.0029 1.0000 -0.0068
vn 0.3528 0.8980 0.2629
vn 0.4385 0.8975 0.0479
vn 0.0029 1.0000 -0.0068
vn 0.3178 0.8947 0.3139
vn 0.3528 0.8980 0.2629
vn 0.0029 1.0000 -0.0068
vn 0.3845 0.9188 0.0891
vn 0.3178 0.8947 0.3139
vn 0.0029 1.0000 -0.0068
vn 0.4191 0.9074 0.0303
vn 0.3845 0.9188 0.0891
vn 0.0029 1.0000 -0.0068
vn 0.3473 0.9066 0.2397
vn 0.4191 0.9074 0.0303
vn 0.0029 1.0000 -0.0068
vn 0.1846 0.9055 0.3820
vn 0.3473 0.9066 0.2397
vn 0.0029 1.0000 -0.0068
vn 0.0342 0.9124 0.4078
vn 0.1846 0.9055 0.3820
vn 0.0029 1.0000 -0.0068
vn 0.0929 0.9178 0.3861
vn 0.0342 0.9124 0.4078
vn 0.0029 1.0000 -0.0068
vn 0.1222 0.9059 0.4056
vn 0.0929 0.9178 0.3861
vn 0.0029 1.0000 -0.0068
vn -0.0968 0.8951 0.4353
vn 0.1222 0.9059 0.4056
vn 0.0029 1.0000 -0.0068
vn -0.2768 0.9048 0.3237
vn -0.0968 0.8951 0.4353
vn 0.0029 1.0000 -0.0068
vn -0.3742 0.9136 0.1593
vn -0.2768 0.9048 0.3237
vn 0.0029 1.0000 -0.0068
vn -0.3879 0.9155 0.1065
vn -0.3742 0.9136 0.1593
vn 0.0029 1.0000 -0.0068
vn -0.3841 0.9180 0.0987
vn -0.3879 0.9155 0.1065
vn 0.0029 1.0000 -0.0068
vn -0.4130 0.9090 -0.0556
vn -0.3841 0.9180 0.0987
vn 0.0029 1.0000 -0.0068
vn -0.3429 0.8861 -0.3117
vn -0.4130 0.9090 -0.0556
vn 0.0029 1.0000 -0.0068
vn -0.3295 0.8811 -0.3393
vn -0.3429 0.8861 -0.3117
vn 0.0029 1.0000 -0.0068
vn -0.3294 0.8905 -0.3138
vn -0.3295 0.8811 -0.3393
vn 0.0029 1.0000 -0.0068
vn -0.1556 0.8798 -0.4492
vn -0.3294 0.8905 -0.3138
vn 0.0029 1.0000 -0.0068
vn 0.1887 0.7911 -0.5818
vn -0.1556 0.8798 -0.4492
vn 0.1887 0.7911 -0.5818
vn 0.0029 1.0000 -0.0068
vn -0.0284 0.8419 -0.5388
vn 0.0870 -0.8514 -0.5172
vn -0.2628 -0.0928 -0.9604
vn -0.0108 -0.8737 -0.4863
vn 0.0870 -0.8514 -0.5172
vn 0.1809 -0.0420 -0.9826
vn -0.2628 -0.0928 -0.9604
vn 0.0870 -0.8514 -0.5172
vn -0.3591 0.1947 -0.9128
vn 0.1809 -0.0420 -0.9826
vn 0.0870 -0.8514 -0.5172
vn -0.7048 -0.0323 -0.7087
vn -0.3591 0.1947 -0.9128
vn -0.3079 -0.9060 -0.2903
vn -0.7048 -0.0323 -0.7087
vn 0.0870 -0.8514 -0.5172
vn -0.3079 -0.9060 -0.2903
vn -0.3332 -0.8884 -0.3157
vn -0.7048 -0.0323 -0.7087
vn -0.3332 -0.8884 -0.3157
vn -0.6871 -0.0186 -0.7263
vn -0.7048 -0.0323 -0.7087
vn -0.3332 -0.8884 -0.3157
vn -0.3470 -0.8924 -0.2883
vn -0.6871 -0.0186 -0.7263
vn -0.3470 -0.8924 -0.2883
vn -0.7128 -0.0186 -0.7011
vn -0.6871 -0.0186 -0.7263
vn -0.3470 -0.8924 -0.2883
vn -0.4092 -0.9113 -0.0459
vn -0.7128 -0.0186 -0.7011
vn -0.4092 -0.9113 -0.0459
vn -0.9845 -0.0147 -0.1750
vn -0.7128 -0.0186 -0.7011
vn -0.4092 -0.9113 -0.0459
vn -0.3819 -0.9191 0.0967
vn -0.9845 -0.0147 -0.1750
vn -0.3819 -0.9191 0.0967
vn -0.9718 -0.0107 0.2354
vn -0.9845 -0.0147 -0.1750
vn -0.3819 -0.9191 0.0967
vn -0.3883 -0.9166 0.0949
vn -0.9718 -0.0107 0.2354
vn -0.3883 -0.9166 0.0949
vn -0.9679 -0.0088 0.2510
vn -0.9718 -0.0107 0.2354
vn -0.3883 -0.9166 0.0949
vn -0.3761 -0.9154 0.1436
vn -0.9679 -0.0088 0.2510
vn -0.3761 -0.9154 0.1436
vn -0.9256 -0.0088 0.3783
vn -0.9679 -0.0088 0.2510
vn -0.3761 -0.9154 0.1436
vn -0.2786 -0.9084 0.3119
vn -0.9256 -0.0088 0.3783
vn -0.2786 -0.9084 0.3119
vn -0.6502 -0.0108 0.7597
vn -0.9256 -0.0088 0.3783
vn -0.2786 -0.9084 0.3119
vn -0.0988 -0.9006 0.4233
vn -0.6502 -0.0108 0.7597
vn -0.0988 -0.9006 0.4233
vn -0.2201 -0.0127 0.9754
vn -0.6502 -0.0108 0.7597
vn -0.0988 -0.9006 0.4233
vn 0.1162 -0.9111 0.3955
vn -0.2201 -0.0127 0.9754
vn 0.1162 -0.9111 0.3955
vn 0.2766 -0.0127 0.9609
vn -0.2201 -0.0127 0.9754
vn 0.1162 -0.9111 0.3955
vn 0.2220 -0.0127 0.9750
vn 0.2766 -0.0127 0.9609
vn 0.0889 -0.9231 0.3741
vn 0.2220 -0.0127 0.9750
vn 0.1162 -0.9111 0.3955
vn 0.0889 -0.9231 0.3741
vn 0.0322 -0.9170 0.3975
vn 0.2220 -0.0127 0.9750
vn 0.0322 -0.9170 0.3975
vn 0.0792 -0.0108 0.9968
vn 0.2220 -0.0127 0.9750
vn 0.0322 -0.9170 0.3975
vn 0.1809 -0.9102 0.3725
vn 0.0792 -0.0108 0.9968
vn 0.1809 -0.9102 0.3725
vn 0.4374 -0.0108 0.8992
vn 0.0792 -0.0108 0.9968
vn 0.1809 -0.9102 0.3725
vn 0.3414 -0.9104 0.2337
vn 0.4374 -0.0108 0.8992
vn 0.3414 -0.9104 0.2337
vn 0.8242 -0.0108 0.5662
vn 0.4374 -0.0108 0.8992
vn 0.3414 -0.9104 0.2337
vn 0.4079 -0.9126 0.0284
vn 0.8242 -0.0108 0.5662
vn 0.4079 -0.9126 0.0284
vn 0.9980 -0.0127 0.0616
vn 0.8242 -0.0108 0.5662
vn 0.4079 -0.9126 0.0284
vn 0.9797 -0.0127 0.2002
vn 0.9980 -0.0127 0.0616
vn 0.3742 -0.9233 0.0870
vn 0.9797 -0.0127 0.2002
vn 0.4079 -0.9126 0.0284
vn 0.3742 -0.9233 0.0870
vn 0.3100 -0.9027 0.2983
vn 0.9797 -0.0127 0.2002
vn 0.3100 -0.9027 0.2983
vn 0.7497 -0.0147 0.6616
vn 0.9797 -0.0127 0.2002
vn 0.3100 -0.9027 0.2983
vn 0.3429 -0.9057 0.2491
vn 0.7497 -0.0147 0.6616
vn 0.3429 -0.9057 0.2491
vn 0.8321 -0.0186 0.5544
vn 0.7497 -0.0147 0.6616
vn 0.3429 -0.9057 0.2491
vn 0.4234 -0.9046 0.0499
vn 0.8321 -0.0186 0.5544
vn 0.4234 -0.9046 0.0499
vn 0.9930 -0.0186 0.1164
vn 0.8321 -0.0186 0.5544
vn 0.4234 -0.9046 0.0499
vn 0.4155 -0.9024 -0.1144
vn 0.9930 -0.0186 0.1164
vn 0.4155 -0.9024 -0.1144
vn 0.9668 -0.0147 -0.2552
vn 0.9930 -0.0186 0.1164
vn 0.4155 -0.9024 -0.1144
vn 0.3334 -0.9086 -0.2514
vn 0.9668 -0.0147 -0.2552
vn 0.3334 -0.9086 -0.2514
vn 0.8089 -0.0127 -0.5878
vn 0.9668 -0.0147 -0.2552
vn 0.3334 -0.9086 -0.2514
vn 0.1690 -0.9254 -0.3391
vn 0.8089 -0.0127 -0.5878
vn 0.1690 -0.9254 -0.3391
vn 0.4570 -0.0127 -0.8894
vn 0.8089 -0.0127 -0.5878
vn 0.1690 -0.9254 -0.3391
vn -0.0205 -0.9215 -0.3879
vn 0.4570 -0.0127 -0.8894
vn -0.0205 -0.9215 -0.3879
vn -0.0479 -0.0127 -0.9988
vn 0.4570 -0.0127 -0.8894
vn -0.0205 -0.9215 -0.3879
vn -0.1085 -0.9272 -0.3586
vn -0.0479 -0.0127 -0.9988
vn -0.1085 -0.9272 -0.3586
vn -0.2335 -0.0655 -0.9702
vn -0.0479 -0.0127 -0.9988
vn -0.2822 -0.9093 -0.3057
vn -0.2335 -0.0655 -0.9702
vn -0.1085 -0.9272 -0.3586
vn -0.2822 -0.9093 -0.3057
vn -0.7002 -0.0928 -0.7079
vn -0.2335 -0.0655 -0.9702
vn -0.7002 -0.0928 -0.7079
vn -0.3330 0.2197 -0.9170
vn -0.2335 -0.0655 -0.9702
vn -0.3898 -0.9172 0.0831
vn -0.7002 -0.0928 -0.7079
vn -0.2822 -0.9093 -0.3057
vn -0.3898 -0.9172 0.0831
vn -0.8922 0.2961 -0.3410
vn -0.7002 -0.0928 -0.7079
vn -0.3898 -0.9172 0.0831
vn -0.9690 -0.0596 0.2396
vn -0.8922 0.2961 -0.3410
vn -0.3898 -0.9172 0.0831
vn -0.9908 -0.0988 0.0929
vn -0.9690 -0.0596 0.2396
vn -0.3898 -0.9172 0.0831
vn -0.4528 -0.8909 0.0361
vn -0.9908 -0.0988 0.0929
vn -0.4528 -0.8909 0.0361
vn -0.2628 -0.0928 -0.9604
vn -0.9908 -0.0988 0.0929
vn -0.4528 -0.8909 0.0361
vn -0.0108 -0.8737 -0.4863
vn -0.2628 -0.0928 -0.9604
vn -0.4528 -0.8909 0.0361
vn -0.0010 -1.0000 0.0029
vn -0.0108 -0.8737 -0.4863
vn -0.3898 -0.9172 0.0831
vn -0.0010 -1.0000 0.0029
vn -0.4528 -0.8909 0.0361
vn -0.2822 -0.9093 -0.3057
vn -0.0010 -1.0000 0.0029
vn -0.3898 -0.9172 0.0831
vn -0.1085 -0.9272 -0.3586
vn -0.0010 -1.0000 0.0029
vn -0.2822 -0.9093 -0.3057
vn -0.0205 -0.9215 -0.3879
vn -0.0010 -1.0000 0.0029
vn -0.1085 -0.9272 -0.3586
vn 0.1690 -0.9254 -0.3391
vn -0.0010 -1.0000 0.0029
vn -0.0205 -0.9215 -0.3879
vn 0.3334 -0.9086 -0.2514
vn -0.0010 -1.0000 0.0029
vn 0.1690 -0.9254 -0.3391
vn 0.4155 -0.9024 -0.1144
vn -0.0010 -1.0000 0.0029
vn 0.3334 -0.9086 -0.2514
vn 0.4234 -0.9046 0.0499
vn -0.0010 -1.0000 0.0029
vn 0.4155 -0.9024 -0.1144
vn 0.3429 -0.9057 0.2491
vn -0.0010 -1.0000 0.0029
vn 0.4234 -0.9046 0.0499
vn 0.3100 -0.9027 0.2983
vn -0.0010 -1.0000 0.0029
vn 0.3429 -0.9057 0.2491
vn 0.3742 -0.9233 0.0870
vn -0.0010 -1.0000 0.0029
vn 0.3100 -0.9027 0.2983
vn 0.4079 -0.9126 0.0284
vn -0.0010 -1.0000 0.0029
vn 0.3742 -0.9233 0.0870
vn 0.3414 -0.9104 0.2337
vn -0.0010 -1.0000 0.0029
vn 0.4079 -0.9126 0.0284
vn 0.1809 -0.9102 0.3725
vn -0.0010 -1.0000 0.0029
vn 0.3414 -0.9104 0.2337
vn 0.0322 -0.9170 0.3975
vn -0.0010 -1.0000 0.0029
vn 0.1809 -0.9102 0.3725
vn 0.0889 -0.9231 0.3741
vn -0.0010 -1.0000 0.0029
vn 0.0322 -0.9170 0.3975
vn 0.1162 -0.9111 0.3955
vn -0.0010 -1.0000 0.0029
vn 0.0889 -0.9231 0.3741
vn -0.0988 -0.9006 0.4233
vn -0.0010 -1.0000 0.0029
vn 0.1162 -0.9111 0.3955
vn -0.2786 -0.9084 0.3119
vn -0.0010 -1.0000 0.0029
vn -0.0988 -0.9006 0.4233
vn -0.3761 -0.9154 0.1436
vn -0.0010 -1.0000 0.0029
vn -0.2786 -0.9084 0.3119
vn -0.3883 -0.9166 0.0949
vn -0.0010 -1.0000 0.0029
vn -0.3761 -0.9154 0.1436
vn -0.3819 -0.9191 0.0967
vn -0.0010 -1.0000 0.0029
vn -0.3883 -0.9166 0.0949
vn -0.4092 -0.9113 -0.0459
vn -0.0010 -1.0000 0.0029
vn -0.3819 -0.9191 0.0967
vn -0.3470 -0.8924 -0.2883
vn -0.0010 -1.0000 0.0029
vn -0.4092 -0.9113 -0.0459
vn -0.3332 -0.8884 -0.3157
vn -0.0010 -1.0000 0.0029
vn -0.3470 -0.8924 -0.2883
vn -0.3079 -0.9060 -0.2903
vn -0.0010 -1.0000 0.0029
vn -0.3332 -0.8884 -0.3157
vn 0.0870 -0.8514 -0.5172
vn -0.0010 -1.0000 0.0029
vn -0.3079 -0.9060 -0.2903
vn -0.0108 -0.8737 -0.4863
vn -0.0010 -1.0000 0.0029
vn 0.0870 -0.8514 -0.5172
# 558 vertex normals

vt 0.5713 0.1230 0.0000
vt 0.5615 0.1274 0.0000
vt 0.5698 0.1245 0.0000
vt 0.5698 0.1245 0.0000
vt 0.5605 0.1309 0.0000
vt 0.5605 0.1309 0.0000
vt 0.5562 0.1304 0.0000
vt 0.5454 0.1230 0.0000
vt 0.5576 0.1274 0.0000
vt 0.5410 0.1162 0.0000
vt 0.5342 0.1123 0.0000
vt 0.5562 0.1304 0.0000
vt 0.5317 0.1064 0.0000
vt 0.5347 0.0830 0.0000
vt 0.5483 0.1211 0.0000
vt 0.5444 0.0566 0.0000
vt 0.5464 0.0444 0.0000
vt 0.5454 0.1230 0.0000
vt 0.5684 0.0146 0.0000
vt 0.5952 0.0010 0.0000
vt 0.5449 0.1152 0.0000
vt 0.6260 0.0024 0.0000
vt 0.6372 0.0083 0.0000
vt 0.5410 0.1162 0.0000
vt 0.6475 0.0078 0.0000
vt 0.6719 0.0142 0.0000
vt 0.5376 0.1113 0.0000
vt 0.6870 0.0264 0.0000
vt 0.6899 0.0371 0.0000
vt 0.5342 0.1123 0.0000
vt 0.6885 0.0488 0.0000
vt 0.6943 0.0586 0.0000
vt 0.5352 0.1074 0.0000
vt 0.7021 0.0649 0.0000
vt 0.7051 0.0776 0.0000
vt 0.5317 0.1064 0.0000
vt 0.7036 0.1138 0.0000
vt 0.6870 0.1450 0.0000
vt 0.5381 0.0854 0.0000
vt 0.6616 0.1709 0.0000
vt 0.6216 0.1768 0.0000
vt 0.5347 0.0830 0.0000
vt 0.5952 0.1699 0.0000
vt 0.5815 0.1675 0.0000
vt 0.5474 0.0596 0.0000
vt 0.5693 0.1602 0.0000
vt 0.5625 0.1479 0.0000
vt 0.5444 0.0566 0.0000
vt 0.5610 0.1411 0.0000
vt 0.5713 0.1284 0.0000
vt 0.5493 0.0479 0.0000
vt 0.5464 0.0444 0.0000
vt 0.5693 0.0181 0.0000
vt 0.5684 0.0146 0.0000
vt 0.5942 0.0044 0.0000
vt 0.5952 0.0010 0.0000
vt 0.6250 0.0054 0.0000
vt 0.6260 0.0024 0.0000
vt 0.6372 0.0083 0.0000
vt 0.6357 0.0127 0.0000
vt 0.6455 0.0112 0.0000
vt 0.6475 0.0078 0.0000
vt 0.6699 0.0171 0.0000
vt 0.6719 0.0142 0.0000
vt 0.6836 0.0269 0.0000
vt 0.6870 0.0264 0.0000
vt 0.6865 0.0371 0.0000
vt 0.6899 0.0371 0.0000
vt 0.6885 0.0488 0.0000
vt 0.6841 0.0488 0.0000
vt 0.6904 0.0601 0.0000
vt 0.6943 0.0586 0.0000
vt 0.6973 0.0659 0.0000
vt 0.7021 0.0649 0.0000
vt 0.7012 0.0776 0.0000
vt 0.7051 0.0776 0.0000
vt 0.7002 0.1118 0.0000
vt 0.7036 0.1138 0.0000
vt 0.6846 0.1426 0.0000
vt 0.6870 0.1450 0.0000
vt 0.6602 0.1670 0.0000
vt 0.6616 0.1709 0.0000
vt 0.6221 0.1733 0.0000
vt 0.6216 0.1768 0.0000
vt 0.5967 0.1675 0.0000
vt 0.5952 0.1699 0.0000
vt 0.5835 0.1655 0.0000
vt 0.5815 0.1675 0.0000
vt 0.5723 0.1587 0.0000
vt 0.5693 0.1602 0.0000
vt 0.5654 0.1465 0.0000
vt 0.5625 0.1479 0.0000
vt 0.5610 0.1411 0.0000
vt 0.5649 0.1406 0.0000
vt 0.5713 0.1284 0.0000
vt 0.5732 0.1274 0.0000
vt 0.6240 0.0801 0.0000
vt 0.5708 0.1226 0.0000
vt 0.5615 0.1274 0.0000
vt 0.5483 0.1211 0.0000
vt 0.5449 0.1152 0.0000
vt 0.5376 0.1113 0.0000
vt 0.5352 0.1074 0.0000
vt 0.5381 0.0854 0.0000
vt 0.5474 0.0596 0.0000
vt 0.5493 0.0479 0.0000
vt 0.5693 0.0181 0.0000
vt 0.5942 0.0044 0.0000
vt 0.6250 0.0054 0.0000
vt 0.6357 0.0127 0.0000
vt 0.6455 0.0112 0.0000
vt 0.6699 0.0171 0.0000
vt 0.6836 0.0269 0.0000
vt 0.6865 0.0371 0.0000
vt 0.6841 0.0488 0.0000
vt 0.6904 0.0601 0.0000
vt 0.6973 0.0659 0.0000
vt 0.7012 0.0776 0.0000
vt 0.7002 0.1118 0.0000
vt 0.6846 0.1426 0.0000
vt 0.6602 0.1670 0.0000
vt 0.6221 0.1733 0.0000
vt 0.5967 0.1675 0.0000
vt 0.5723 0.1587 0.0000
vt 0.5649 0.1406 0.0000
vt 0.5732 0.1274 0.0000
vt 0.6240 0.0801 0.0000
# 127 texture coords

o SM_Sand_Dollar_01_LOD0
g SM_Sand_Dollar_01_LOD0
usemtl MAT_Sea_Shells
s 1
f 82/4/1 52/2/2 1/1/3 
f 55/5/4 52/2/5 82/4/6 
f 51/9/7 52/2/8 55/5/9 
f 56/7/10 51/9/11 55/5/12 
f 2/15/13 51/9/14 56/7/15 
f 3/8/16 2/15/17 56/7/18 
f 50/21/19 2/15/20 3/8/21 
f 58/10/22 50/21/23 3/8/24 
f 5/27/25 50/21/26 58/10/27 
f 4/11/28 5/27/29 58/10/30 
f 6/33/31 5/27/32 4/11/33 
f 7/13/34 6/33/35 4/11/36 
f 49/39/37 6/33/38 7/13/39 
f 8/14/40 49/39/41 7/13/42 
f 48/45/43 49/39/44 8/14/45 
f 60/16/46 48/45/47 8/14/48 
f 9/51/49 48/45/50 60/16/51 
f 61/17/52 9/51/53 60/16/54 
f 47/53/55 9/51/56 61/17/57 
f 10/19/58 47/53/59 61/17/60 
f 11/55/61 47/53/62 10/19/63 
f 64/20/64 11/55/65 10/19/66 
f 12/57/67 11/55/68 64/20/69 
f 65/22/70 12/57/71 64/20/72 
f 14/23/73 12/57/74 65/22/75 
f 14/23/76 13/60/77 12/57/78 
f 15/61/79 13/60/80 14/23/81 
f 69/25/82 15/61/83 14/23/84 
f 46/63/85 15/61/86 69/25/87 
f 70/26/88 46/63/89 69/25/90 
f 45/65/91 46/63/92 70/26/93 
f 16/28/94 45/65/95 70/26/96 
f 17/67/97 45/65/98 16/28/99 
f 72/29/100 17/67/101 16/28/102 
f 18/31/103 17/67/104 72/29/105 
f 18/31/106 44/70/107 17/67/108 
f 19/71/109 44/70/110 18/31/111 
f 20/32/112 19/71/113 18/31/114 
f 22/73/115 19/71/116 20/32/117 
f 21/34/118 22/73/119 20/32/120 
f 23/75/121 22/73/122 21/34/123 
f 24/35/124 23/75/125 21/34/126 
f 25/77/127 23/75/128 24/35/129 
f 26/37/130 25/77/131 24/35/132 
f 27/79/133 25/77/134 26/37/135 
f 28/38/136 27/79/137 26/37/138 
f 42/81/139 27/79/140 28/38/141 
f 29/40/142 42/81/143 28/38/144 
f 30/83/145 42/81/146 29/40/147 
f 31/41/148 30/83/149 29/40/150 
f 41/85/151 30/83/152 31/41/153 
f 78/43/154 41/85/155 31/41/156 
f 40/87/157 41/85/158 78/43/159 
f 32/44/160 40/87/161 78/43/162 
f 32/44/163 39/89/164 40/87/165 
f 80/46/166 39/89/167 32/44/168 
f 33/91/169 39/89/170 80/46/171 
f 34/47/172 33/91/173 80/46/174 
f 35/49/175 33/91/176 34/47/177 
f 38/94/178 33/91/179 35/49/180 
f 36/50/181 38/94/182 35/49/183 
f 37/96/184 38/94/185 36/50/186 
f 82/4/187 37/96/188 36/50/189 
f 1/1/190 37/96/191 82/4/192 
f 1/1/193 43/97/194 37/96/195 
f 43/97/196 38/94/197 37/96/198 
f 43/97/199 33/91/200 38/94/201 
f 43/97/202 39/89/203 33/91/204 
f 43/97/205 40/87/206 39/89/207 
f 43/97/208 41/85/209 40/87/210 
f 43/97/211 30/83/212 41/85/213 
f 43/97/214 42/81/215 30/83/216 
f 43/97/217 27/79/218 42/81/219 
f 43/97/220 25/77/221 27/79/222 
f 43/97/223 23/75/224 25/77/225 
f 43/97/226 22/73/227 23/75/228 
f 43/97/229 19/71/230 22/73/231 
f 43/97/232 44/70/233 19/71/234 
f 43/97/235 17/67/236 44/70/237 
f 43/97/238 45/65/239 17/67/240 
f 43/97/241 46/63/242 45/65/243 
f 43/97/244 15/61/245 46/63/246 
f 43/97/247 13/60/248 15/61/249 
f 43/97/250 12/57/251 13/60/252 
f 43/97/253 11/55/254 12/57/255 
f 43/97/256 47/53/257 11/55/258 
f 43/97/259 9/51/260 47/53/261 
f 43/97/262 48/45/263 9/51/264 
f 43/97/265 49/39/266 48/45/267 
f 43/97/268 6/33/269 49/39/270 
f 43/97/271 5/27/272 6/33/273 
f 43/97/274 50/21/275 5/27/276 
f 43/97/277 2/15/278 50/21/279 
f 43/97/280 51/9/281 2/15/282 
f 43/97/283 52/2/284 51/9/285 
f 52/2/286 43/97/287 1/1/288 
f 54/99/289 82/3/290 53/98/291 
f 54/99/292 55/6/293 82/3/294 
f 54/99/295 56/12/296 55/6/297 
f 54/99/298 3/18/299 56/12/300 
f 95/100/301 3/18/302 54/99/303 
f 95/100/304 57/101/305 3/18/306 
f 57/101/307 58/24/308 3/18/309 
f 57/101/310 93/102/311 58/24/312 
f 93/102/313 4/30/314 58/24/315 
f 93/102/316 59/103/317 4/30/318 
f 59/103/319 7/36/320 4/30/321 
f 59/103/322 92/104/323 7/36/324 
f 92/104/325 8/42/326 7/36/327 
f 92/104/328 91/105/329 8/42/330 
f 91/105/331 60/48/332 8/42/333 
f 91/105/334 90/106/335 60/48/336 
f 90/106/337 61/52/338 60/48/339 
f 90/106/340 63/107/341 61/52/342 
f 63/107/343 10/54/344 61/52/345 
f 63/107/346 62/108/347 10/54/348 
f 62/108/349 64/56/350 10/54/351 
f 62/108/352 66/109/353 64/56/354 
f 66/109/355 65/58/356 64/56/357 
f 66/109/358 14/59/359 65/58/360 
f 67/110/361 14/59/362 66/109/363 
f 67/110/364 68/111/365 14/59/366 
f 68/111/367 69/62/368 14/59/369 
f 68/111/370 89/112/371 69/62/372 
f 89/112/373 70/64/374 69/62/375 
f 89/112/376 88/113/377 70/64/378 
f 88/113/379 16/66/380 70/64/381 
f 88/113/382 71/114/383 16/66/384 
f 71/114/385 72/68/386 16/66/387 
f 71/114/388 18/69/389 72/68/390 
f 87/115/391 18/69/392 71/114/393 
f 87/115/394 73/116/395 18/69/396 
f 73/116/397 20/72/398 18/69/399 
f 73/116/400 86/117/401 20/72/402 
f 86/117/403 21/74/404 20/72/405 
f 86/117/406 85/118/407 21/74/408 
f 85/118/409 24/76/410 21/74/411 
f 85/118/412 74/119/413 24/76/414 
f 74/119/415 26/78/416 24/76/417 
f 74/119/418 75/120/419 26/78/420 
f 75/120/421 28/80/422 26/78/423 
f 75/120/424 84/121/425 28/80/426 
f 84/121/427 29/82/428 28/80/429 
f 84/121/430 76/122/431 29/82/432 
f 76/122/433 31/84/434 29/82/435 
f 76/122/436 77/123/437 31/84/438 
f 77/123/439 78/86/440 31/84/441 
f 79/124/442 78/86/443 77/123/444 
f 79/124/445 80/90/446 78/86/447 
f 80/90/448 32/88/449 78/86/450 
f 81/125/451 80/90/452 79/124/453 
f 81/125/454 34/92/455 80/90/456 
f 81/125/457 35/93/458 34/92/459 
f 81/125/460 36/95/461 35/93/462 
f 81/125/463 83/126/464 36/95/465 
f 83/126/466 82/3/467 36/95/468 
f 83/126/469 53/98/470 82/3/471 
f 83/126/472 94/127/473 53/98/474 
f 81/125/475 94/127/476 83/126/477 
f 79/124/478 94/127/479 81/125/480 
f 77/123/481 94/127/482 79/124/483 
f 76/122/484 94/127/485 77/123/486 
f 84/121/487 94/127/488 76/122/489 
f 75/120/490 94/127/491 84/121/492 
f 74/119/493 94/127/494 75/120/495 
f 85/118/496 94/127/497 74/119/498 
f 86/117/499 94/127/500 85/118/501 
f 73/116/502 94/127/503 86/117/504 
f 87/115/505 94/127/506 73/116/507 
f 71/114/508 94/127/509 87/115/510 
f 88/113/511 94/127/512 71/114/513 
f 89/112/514 94/127/515 88/113/516 
f 68/111/517 94/127/518 89/112/519 
f 67/110/520 94/127/521 68/111/522 
f 66/109/523 94/127/524 67/110/525 
f 62/108/526 94/127/527 66/109/528 
f 63/107/529 94/127/530 62/108/531 
f 90/106/532 94/127/533 63/107/534 
f 91/105/535 94/127/536 90/106/537 
f 92/104/538 94/127/539 91/105/540 
f 59/103/541 94/127/542 92/104/543 
f 93/102/544 94/127/545 59/103/546 
f 57/101/547 94/127/548 93/102/549 
f 95/100/550 94/127/551 57/101/552 
f 54/99/553 94/127/554 95/100/555 
f 53/98/556 94/127/557 54/99/558 
# 186 faces

#
# object SM_Sand_Dollar_01_LOD1
#

v  -2.8732 0.9839 10.9469
v  10.4459 0.9776 2.9594
v  -10.6459 1.0418 -2.6215
v  5.4072 0.9796 -10.2481
v  -6.0250 0.9760 -4.4340
v  -6.1083 0.9796 -8.9039
v  2.6693 0.9788 10.0600
v  8.5757 0.9790 7.8246
v  -8.9876 1.0269 5.5247
v  10.6239 0.9767 -3.1105
v  0.7063 1.9800 1.1493
v  0.4289 0.9804 -10.9469
v  0.7063 -0.0000 1.1493
v  8.7539 0.9786 5.0015
v  -7.1700 0.9790 -6.5420
v  6.6753 0.9788 9.3058
v  8.5762 0.9776 -7.0396
v  -10.4502 1.0497 0.7194
v  -6.2409 0.9987 9.2787
v  -7.2206 0.9856 -5.2175
v  -9.3270 1.0177 -3.9303
v  -5.9455 1.5795 -4.1348
v  0.9851 0.9794 10.7885
v  9.7152 1.5657 2.9911
v  1.3446 1.4529 10.0609
v  -9.5745 1.5801 -3.2670
v  8.9208 0.9793 6.4753
v  -4.5971 0.9800 -9.8438
v  9.8103 1.5185 -3.7049
v  10.0267 0.4200 2.3801
v  -9.2713 1.4862 2.9830
v  8.2689 1.4312 7.3803
v  1.3368 0.5302 10.0661
v  -9.7243 0.5199 -3.1290
v  -5.6998 0.7877 -4.8925
v  -7.1510 1.6126 -4.8488
v  -5.1695 1.4124 -9.0573
v  10.8292 0.9766 1.4256
v  8.2667 0.5473 7.3885
# 39 vertices

vn 0.0029 1.0000 0.0093
vn -0.3637 0.9223 0.1310
vn -0.5744 -0.0084 0.8185
vn 0.3478 -0.0088 -0.9375
vn -0.0049 -1.0000 0.0011
vn 0.0895 -0.0137 -0.9959
vn 0.0029 1.0000 0.0093
vn 0.3478 -0.0088 -0.9375
vn 0.0895 -0.0137 -0.9959
vn 0.3579 -0.9230 0.1414
vn -0.0049 -1.0000 0.0011
vn 0.9455 -0.2390 -0.2213
vn 0.0029 1.0000 0.0093
vn 0.0171 0.7832 -0.6215
vn -0.3983 0.8535 -0.3358
vn -0.0079 -0.3050 -0.9523
vn -0.0049 -1.0000 0.0011
vn -0.3786 -0.8751 -0.3013
vn -0.7900 -0.2076 -0.5769
vn -0.0049 -1.0000 0.0011
vn -0.9990 -0.0455 0.0039
vn 0.0029 1.0000 0.0093
vn -0.2420 0.9096 -0.3378
vn -0.9990 -0.0455 0.0039
vn 0.0029 1.0000 0.0093
vn -0.4570 -0.0020 0.8895
vn 0.0889 0.9317 0.3521
vn -0.8449 -0.1239 0.5204
vn -0.0049 -1.0000 0.0011
vn -0.5744 -0.0084 0.8185
vn 0.3483 -0.9199 0.1803
vn -0.0049 -1.0000 0.0011
vn 0.9409 -0.0268 0.3375
vn 0.0029 1.0000 0.0093
vn 0.0889 0.9317 0.3521
vn 0.2600 -0.0034 0.9656
vn 0.0029 1.0000 0.0093
vn -0.3983 0.8535 -0.3358
vn -0.3637 0.9223 0.1310
vn -0.3786 -0.8751 -0.3013
vn -0.0049 -1.0000 0.0011
vn -0.9737 -0.1242 0.1912
vn 0.0029 1.0000 0.0093
vn 0.3973 0.8995 -0.1816
vn 0.3478 -0.0088 -0.9375
vn 0.9455 -0.2390 -0.2213
vn -0.0049 -1.0000 0.0011
vn 0.7445 -0.1368 -0.6535
vn 0.0029 1.0000 0.0093
vn 0.3382 0.9112 0.2355
vn 0.3973 0.8995 -0.1816
vn 0.0029 1.0000 0.0093
vn 0.3565 0.9161 0.1836
vn 0.9409 -0.0268 0.3375
vn 0.0029 1.0000 0.0093
vn 0.0895 -0.0137 -0.9959
vn -0.2420 0.9096 -0.3378
vn 0.0895 -0.0137 -0.9959
vn -0.0049 -1.0000 0.0011
vn -0.7900 -0.2076 -0.5769
vn 0.0858 -0.9358 0.3421
vn -0.0049 -1.0000 0.0011
vn 0.2600 -0.0034 0.9656
vn -0.4570 -0.0020 0.8895
vn -0.0049 -1.0000 0.0011
vn 0.0858 -0.9358 0.3421
vn 0.3973 0.8995 -0.1816
vn 0.3382 0.9112 0.2355
vn 0.9983 0.0450 0.0375
vn 0.9409 -0.0268 0.3375
vn -0.0049 -1.0000 0.0011
vn 0.3579 -0.9230 0.1414
vn -0.9990 -0.0455 0.0039
vn -0.0049 -1.0000 0.0011
vn -0.3697 -0.9217 0.1179
vn 0.0029 1.0000 0.0093
vn -0.9990 -0.0455 0.0039
vn 0.1831 0.8535 -0.4878
vn 0.2600 -0.0034 0.9656
vn -0.0049 -1.0000 0.0011
vn 0.3483 -0.9199 0.1803
vn 0.0029 1.0000 0.0093
vn 0.2600 -0.0034 0.9656
vn 0.3565 0.9161 0.1836
vn 0.3478 -0.0088 -0.9375
vn 0.3973 0.8995 -0.1816
vn 0.7445 -0.1368 -0.6535
vn 0.7445 -0.1368 -0.6535
vn -0.0049 -1.0000 0.0011
vn 0.3478 -0.0088 -0.9375
vn -0.5744 -0.0084 0.8185
vn -0.3637 0.9223 0.1310
vn -0.8449 -0.1239 0.5204
vn -0.9737 -0.1242 0.1912
vn -0.0049 -1.0000 0.0011
vn -0.8449 -0.1239 0.5204
vn -0.5744 -0.0084 0.8185
vn -0.0049 -1.0000 0.0011
vn -0.4570 -0.0020 0.8895
vn 0.0029 1.0000 0.0093
vn -0.5744 -0.0084 0.8185
vn -0.4570 -0.0020 0.8895
vn 0.0321 -0.4457 -0.8946
vn -0.0049 -1.0000 0.0011
vn -0.0079 -0.3050 -0.9523
vn -0.3983 0.8535 -0.3358
vn 0.0171 0.7832 -0.6215
vn -0.0079 -0.3050 -0.9523
vn -0.3786 -0.8751 -0.3013
vn -0.5712 -0.0400 -0.8199
vn -0.0079 -0.3050 -0.9523
vn -0.3637 0.9223 0.1310
vn -0.3983 0.8535 -0.3358
vn -0.9794 0.0247 -0.2006
vn 0.1831 0.8535 -0.4878
vn -0.9990 -0.0455 0.0039
vn -0.3697 -0.9217 0.1179
vn -0.0079 -0.3050 -0.9523
vn 0.0171 0.7832 -0.6215
vn 0.0321 -0.4457 -0.8946
vn 0.1646 -0.0107 0.9863
vn 0.0889 0.9317 0.3521
vn -0.4570 -0.0020 0.8895
vn 0.0858 -0.9358 0.3421
vn 0.1646 -0.0107 0.9863
vn -0.4570 -0.0020 0.8895
vn 0.8932 -0.0103 0.4496
vn 0.3382 0.9112 0.2355
vn 0.9409 -0.0268 0.3375
vn 0.0029 1.0000 0.0093
vn 0.9409 -0.0268 0.3375
vn 0.3382 0.9112 0.2355
vn 0.2600 -0.0034 0.9656
vn 0.0889 0.9317 0.3521
vn 0.2117 -0.0084 0.9773
vn 0.2117 -0.0084 0.9773
vn 0.0889 0.9317 0.3521
vn 0.1646 -0.0107 0.9863
vn -0.5712 -0.0400 -0.8199
vn -0.3983 0.8535 -0.3358
vn -0.0079 -0.3050 -0.9523
vn -0.9794 0.0247 -0.2006
vn -0.3983 0.8535 -0.3358
vn -0.5712 -0.0400 -0.8199
vn 0.3483 -0.9199 0.1803
vn 0.9409 -0.0268 0.3375
vn 0.9997 -0.0101 -0.0244
vn 0.8089 -0.0087 0.5879
vn 0.3565 0.9161 0.1836
vn 0.2600 -0.0034 0.9656
vn -0.7900 -0.2076 -0.5769
vn -0.2833 -0.2861 -0.9154
vn 0.0895 -0.0137 -0.9959
vn -0.9990 -0.0455 0.0039
vn -0.2420 0.9096 -0.3378
vn -0.7900 -0.2076 -0.5769
vn 0.9455 -0.2390 -0.2213
vn 0.3973 0.8995 -0.1816
vn 0.9983 0.0450 0.0375
vn 0.7445 -0.1368 -0.6535
vn 0.3973 0.8995 -0.1816
vn 0.9455 -0.2390 -0.2213
vn 0.3579 -0.9230 0.1414
vn 0.8932 -0.0103 0.4496
vn 0.9409 -0.0268 0.3375
vn 0.3579 -0.9230 0.1414
vn 0.9455 -0.2390 -0.2213
vn 0.9983 0.0450 0.0375
vn -0.9737 -0.1242 0.1912
vn -0.3637 0.9223 0.1310
vn -0.9794 0.0247 -0.2006
vn -0.8449 -0.1239 0.5204
vn -0.3637 0.9223 0.1310
vn -0.9737 -0.1242 0.1912
vn 0.9409 -0.0268 0.3375
vn 0.3565 0.9161 0.1836
vn 0.9997 -0.0101 -0.0244
vn 0.9997 -0.0101 -0.0244
vn 0.3565 0.9161 0.1836
vn 0.8089 -0.0087 0.5879
vn 0.0858 -0.9358 0.3421
vn 0.2600 -0.0034 0.9656
vn 0.2117 -0.0084 0.9773
vn 0.0858 -0.9358 0.3421
vn 0.2117 -0.0084 0.9773
vn 0.1646 -0.0107 0.9863
vn -0.3786 -0.8751 -0.3013
vn -0.9737 -0.1242 0.1912
vn -0.9794 0.0247 -0.2006
vn -0.3786 -0.8751 -0.3013
vn -0.9794 0.0247 -0.2006
vn -0.5712 -0.0400 -0.8199
vn 0.0321 -0.4457 -0.8946
vn 0.1831 0.8535 -0.4878
vn -0.3697 -0.9217 0.1179
vn -0.3697 -0.9217 0.1179
vn -0.0049 -1.0000 0.0011
vn 0.0321 -0.4457 -0.8946
vn 0.0321 -0.4457 -0.8946
vn 0.0171 0.7832 -0.6215
vn 0.1831 0.8535 -0.4878
vn 0.0171 0.7832 -0.6215
vn 0.0029 1.0000 0.0093
vn 0.1831 0.8535 -0.4878
vn -0.2833 -0.2861 -0.9154
vn -0.2420 0.9096 -0.3378
vn 0.0895 -0.0137 -0.9959
vn -0.7900 -0.2076 -0.5769
vn -0.2420 0.9096 -0.3378
vn -0.2833 -0.2861 -0.9154
vn 0.9983 0.0450 0.0375
vn 0.3382 0.9112 0.2355
vn 0.8932 -0.0103 0.4496
vn 0.3579 -0.9230 0.1414
vn 0.9983 0.0450 0.0375
vn 0.8932 -0.0103 0.4496
vn 0.3483 -0.9199 0.1803
vn 0.8089 -0.0087 0.5879
vn 0.2600 -0.0034 0.9656
vn 0.3483 -0.9199 0.1803
vn 0.9997 -0.0101 -0.0244
vn 0.8089 -0.0087 0.5879
# 222 vertex normals

vt 0.5331 0.1097 0.0000
vt 0.5952 0.0010 0.0000
vt 0.7021 0.0649 0.0000
vt 0.6616 0.1709 0.0000
vt 0.6616 0.1709 0.0000
vt 0.5698 0.1245 0.0000
vt 0.5698 0.1245 0.0000
vt 0.5693 0.1602 0.0000
vt 0.5693 0.1602 0.0000
vt 0.6870 0.0264 0.0000
vt 0.6870 0.0264 0.0000
vt 0.5464 0.0444 0.0000
vt 0.5464 0.0444 0.0000
vt 0.6240 0.0801 0.0000
vt 0.5952 0.0010 0.0000
vt 0.6397 0.0082 0.0000
vt 0.6397 0.0082 0.0000
vt 0.7036 0.1138 0.0000
vt 0.7036 0.1138 0.0000
vt 0.6240 0.0801 0.0000
vt 0.5610 0.1411 0.0000
vt 0.6216 0.1768 0.0000
vt 0.6216 0.1768 0.0000
vt 0.5605 0.1309 0.0000
vt 0.6885 0.0488 0.0000
vt 0.6885 0.0488 0.0000
vt 0.5684 0.0146 0.0000
vt 0.5684 0.0146 0.0000
vt 0.5415 0.1149 0.0000
vt 0.5615 0.1274 0.0000
vt 0.6870 0.1450 0.0000
vt 0.6870 0.1450 0.0000
vt 0.6719 0.0142 0.0000
vt 0.6719 0.0142 0.0000
vt 0.6260 0.0024 0.0000
vt 0.6260 0.0024 0.0000
vt 0.5403 0.1138 0.0000
vt 0.6986 0.0698 0.0000
vt 0.5767 0.1614 0.0000
vt 0.5347 0.0830 0.0000
vt 0.5347 0.0830 0.0000
vt 0.5713 0.1230 0.0000
vt 0.6844 0.0297 0.0000
vt 0.6960 0.0649 0.0000
vt 0.6293 0.0083 0.0000
vt 0.5437 0.1203 0.0000
vt 0.5437 0.1203 0.0000
vt 0.5720 0.1280 0.0000
vt 0.5442 0.0650 0.0000
vt 0.6844 0.0296 0.0000
vt 0.5815 0.1675 0.0000
vt 0.6292 0.0082 0.0000
vt 0.6969 0.1184 0.0000
vt 0.5331 0.1097 0.0000
vt 0.7051 0.0776 0.0000
vt 0.7021 0.0649 0.0000
vt 0.7051 0.0776 0.0000
vt 0.6899 0.0371 0.0000
vt 0.6899 0.0371 0.0000
# 59 texture coords

o SM_Sand_Dollar_01_LOD1
g SM_Sand_Dollar_01_LOD1
usemtl MAT_Sea_Shells
s 1
f 106/141/559 126/176/560 114/154/561 
f 99/132/562 108/147/563 107/149/564 
f 106/141/565 99/131/566 107/150/567 
f 125/165/568 108/147/569 105/145/570 
f 106/141/571 131/157/572 121/156/573 
f 115/151/574 108/147/575 129/164/576 
f 101/136/577 108/147/578 110/148/579 
f 106/141/580 132/166/581 110/148/582 
f 106/141/583 96/142/584 120/172/585 
f 104/140/586 108/147/587 114/155/588 
f 134/177/589 108/147/590 109/152/591 
f 106/141/592 120/172/593 111/160/594 
f 106/141/595 121/156/596 126/176/597 
f 129/164/598 108/147/599 113/168/600 
f 106/141/601 124/180/602 99/131/603 
f 105/145/604 108/147/605 112/159/606 
f 106/141/607 119/171/608 124/180/609 
f 106/141/610 127/170/611 109/153/612 
f 106/141/613 107/150/614 132/166/615 
f 107/149/616 108/147/617 101/136/618 
f 128/179/619 108/147/620 111/161/621 
f 96/129/622 108/147/623 128/179/624 
f 124/180/625 119/171/626 133/184/627 
f 109/152/628 108/147/629 125/165/630 
f 110/148/631 108/147/632 130/175/633 
f 106/141/634 110/148/635 117/169/636 
f 111/161/637 108/147/638 134/177/639 
f 106/141/640 111/160/641 127/170/642 
f 99/131/643 124/180/644 112/158/645 
f 112/159/646 108/147/647 99/132/648 
f 114/154/649 126/176/650 104/139/651 
f 113/168/652 108/147/653 104/140/654 
f 114/155/655 108/147/656 96/129/657 
f 106/141/658 114/154/659 96/142/660 
f 100/134/661 108/147/662 115/151/663 
f 121/156/664 131/157/665 115/151/666 
f 129/164/667 116/173/668 115/151/669 
f 126/176/670 121/156/671 98/128/672 
f 117/169/673 110/148/674 130/175/675 
f 115/151/676 131/157/677 100/133/678 
f 118/162/679 120/172/680 96/142/681 
f 128/179/682 118/163/683 96/129/684 
f 97/130/685 119/171/686 109/153/687 
f 106/141/688 109/153/689 119/171/690 
f 111/160/691 120/172/692 102/144/693 
f 102/144/694 120/172/695 118/162/696 
f 116/174/697 121/156/698 115/151/699 
f 98/128/700 121/156/701 116/174/702 
f 134/177/703 109/152/704 122/185/705 
f 103/138/706 127/170/707 111/160/708 
f 101/136/709 123/178/710 107/149/711 
f 110/148/712 132/166/713 101/135/714 
f 105/146/715 124/180/716 133/184/717 
f 112/158/718 124/180/719 105/146/720 
f 125/165/721 97/130/722 109/152/723 
f 125/165/724 105/145/725 133/182/726 
f 113/167/727 126/176/728 98/128/729 
f 104/139/730 126/176/731 113/167/732 
f 109/153/733 127/170/734 122/186/735 
f 122/186/736 127/170/737 103/138/738 
f 128/179/739 111/161/740 102/143/741 
f 128/179/742 102/143/743 118/163/744 
f 129/164/745 113/168/746 98/181/747 
f 129/164/748 98/181/749 116/173/750 
f 100/133/751 117/169/752 130/175/753 
f 130/175/754 108/147/755 100/134/756 
f 100/133/757 131/157/758 117/169/759 
f 131/157/760 106/141/761 117/169/762 
f 123/178/763 132/166/764 107/150/765 
f 101/135/766 132/166/767 123/178/768 
f 133/184/769 119/171/770 97/130/771 
f 125/165/772 133/182/773 97/183/774 
f 134/177/775 103/137/776 111/161/777 
f 134/177/778 122/185/779 103/137/780 
# 74 faces

