# 3ds Max Wavefront OBJ Exporter v0.97b - (c)2007 guruware
# File Created: 10.02.2024 08:45:40

mtllib SM_Sand_Dollar_06.mtl

#
# object SM_Sand_Dollar_06_LOD0
#

v  7.9168 0.4187 -7.0305
v  11.0268 0.8216 0.1368
v  10.6234 0.4080 0.1487
v  11.2843 0.8363 3.2402
v  10.8645 0.4309 3.1526
v  10.4903 0.8645 5.8708
v  10.0894 0.4806 5.6657
v  7.9420 0.4997 7.6336
v  5.6632 0.4865 9.0253
v  0.2603 0.8703 10.6174
v  -3.8214 0.8553 9.8524
v  -3.9216 0.3745 9.4698
v  -7.7081 0.2724 7.6861
v  -9.8013 0.3666 4.9611
v  -10.0425 0.8138 5.2393
v  -10.6258 0.4156 3.8334
v  -10.9095 0.4692 1.8772
v  -10.7427 0.8216 -0.9001
v  -10.3286 0.4692 -0.9176
v  -9.6444 0.4422 -2.8873
v  -8.0307 0.8111 -7.0452
v  -5.8870 0.2986 -8.6590
v  -3.5014 0.3059 -9.8066
v  0.1371 0.3975 -10.0737
v  3.3163 0.4259 -9.5097
v  1.7321 0.8183 -10.4106
v  5.4431 0.4268 -8.8939
v  1.6243 0.4240 -10.0177
v  -1.5922 0.3588 -10.3060
v  -7.6666 0.3371 -6.7926
v  -8.8524 0.3871 -4.8289
v  -8.9983 0.2850 6.4984
v  -6.1905 0.3464 8.4872
v  0.1189 0.4168 10.2797
v  2.4328 0.4637 10.3063
v  0.3531 -0.0000 0.1311
v  9.7374 0.4072 -2.7323
v  8.9815 0.4119 -4.9486
v  10.0894 1.3082 5.6657
v  10.8645 1.3063 3.1526
v  10.1464 0.8173 -2.8098
v  9.3718 0.8169 -5.1080
v  8.9815 1.2883 -4.9486
v  8.2605 0.8176 -7.2617
v  7.9168 1.2780 -7.0305
v  5.7169 0.8180 -9.1871
v  3.5144 0.8182 -9.8788
v  3.3163 1.2709 -9.5097
v  0.1269 0.8164 -10.4449
v  0.1371 1.3019 -10.0737
v  -1.6766 0.8134 -10.6581
v  -5.8870 1.4152 -8.6590
v  -3.7181 0.8101 -10.1261
v  -6.1872 0.8088 -8.9672
v  -7.6666 1.3675 -6.7926
v  -9.2498 0.8144 -5.0136
v  -10.0641 0.8194 -2.9769
v  -9.6444 1.2571 -2.8873
v  -10.3286 1.2302 -0.9176
v  -10.9095 1.2302 1.8772
v  -11.2843 0.8216 1.9748
v  -10.6258 1.2837 3.8334
v  -10.8972 0.8177 4.0461
v  -9.8013 1.3327 4.9611
v  -9.1451 0.8081 6.8532
v  -7.7630 0.8163 8.0706
v  -6.1230 0.8458 8.8801
v  -6.1905 1.4337 8.4872
v  0.1189 1.4039 10.2797
v  2.4328 1.3666 10.3063
v  2.6598 0.8825 10.6581
v  5.6632 1.3445 9.0253
v  5.9402 0.8854 9.3557
v  8.2869 0.8811 7.9054
v  7.9420 1.3199 7.6336
v  -3.9216 1.4225 9.4698
v  -7.7081 1.4459 7.6861
v  -8.9983 1.4141 6.4984
v  0.3531 1.6990 0.1311
v  -8.8524 1.3123 -4.8289
v  -3.5014 1.4142 -9.8066
v  -1.5922 1.3406 -10.3060
v  1.6243 1.2753 -10.0177
v  5.4431 1.2671 -8.8939
v  9.7374 1.2958 -2.7323
v  10.6234 1.3029 0.1487
# 86 vertices

vn 0.2960 -0.9211 -0.2530
vn 0.4505 -0.0362 -0.8921
vn 0.7628 -0.0361 -0.6456
vn 0.9200 -0.0381 -0.3901
vn 0.2960 -0.9211 -0.2530
vn 0.7628 -0.0361 -0.6456
vn 0.3624 -0.9190 -0.1553
vn 0.2960 -0.9211 -0.2530
vn 0.9200 -0.0381 -0.3901
vn 0.3821 -0.9157 -0.1241
vn 0.3624 -0.9190 -0.1553
vn 0.9200 -0.0381 -0.3901
vn 0.9513 -0.0381 -0.3060
vn 0.3821 -0.9157 -0.1241
vn 0.9200 -0.0381 -0.3901
vn 0.3957 -0.9156 -0.0713
vn 0.3821 -0.9157 -0.1241
vn 0.9513 -0.0381 -0.3060
vn 0.9817 -0.0381 -0.1866
vn 0.3957 -0.9156 -0.0713
vn 0.9513 -0.0381 -0.3060
vn 0.3801 -0.9236 0.0499
vn 0.3957 -0.9156 -0.0713
vn 0.9817 -0.0381 -0.1866
vn 0.9938 -0.0381 0.1046
vn 0.3801 -0.9236 0.0499
vn 0.9817 -0.0381 -0.1866
vn 0.3058 -0.9295 0.2062
vn 0.3801 -0.9236 0.0499
vn 0.9938 -0.0381 0.1046
vn 0.8455 -0.0362 0.5328
vn 0.3058 -0.9295 0.2062
vn 0.9938 -0.0381 0.1046
vn 0.6033 -0.0342 0.7968
vn 0.3058 -0.9295 0.2062
vn 0.8455 -0.0362 0.5328
vn 0.2298 -0.9239 0.3060
vn 0.3058 -0.9295 0.2062
vn 0.6033 -0.0342 0.7968
vn 0.4489 -0.0362 0.8928
vn 0.2298 -0.9239 0.3060
vn 0.6033 -0.0342 0.7968
vn 0.1788 -0.9192 0.3508
vn 0.2298 -0.9239 0.3060
vn 0.4489 -0.0362 0.8928
vn 0.1749 -0.0381 0.9839
vn 0.1788 -0.9192 0.3508
vn 0.4489 -0.0362 0.8928
vn 0.0831 -0.9059 0.4153
vn 0.1788 -0.9192 0.3508
vn 0.1749 -0.0381 0.9839
vn -0.0988 -0.0381 0.9944
vn 0.0831 -0.9059 0.4153
vn 0.1749 -0.0381 0.9839
vn -0.0361 -0.8861 0.4621
vn 0.0831 -0.9059 0.4153
vn -0.0988 -0.0381 0.9944
vn -0.2925 -0.0381 0.9555
vn -0.0361 -0.8861 0.4621
vn -0.0988 -0.0381 0.9944
vn -0.1339 -0.8766 0.4622
vn -0.0361 -0.8861 0.4621
vn -0.2925 -0.0381 0.9555
vn -0.4190 -0.0361 0.9073
vn -0.1339 -0.8766 0.4622
vn -0.2925 -0.0381 0.9555
vn -0.1888 -0.8714 0.4528
vn -0.1339 -0.8766 0.4622
vn -0.4190 -0.0361 0.9073
vn -0.5645 -0.0342 0.8247
vn -0.1888 -0.8714 0.4528
vn -0.4190 -0.0361 0.9073
vn -0.2628 -0.8746 0.4075
vn -0.1888 -0.8714 0.4528
vn -0.5645 -0.0342 0.8247
vn -0.7909 -0.0323 0.6111
vn -0.2628 -0.8746 0.4075
vn -0.5645 -0.0342 0.8247
vn -0.3899 -0.8765 0.2824
vn -0.2628 -0.8746 0.4075
vn -0.7909 -0.0323 0.6111
vn -0.8553 -0.0342 0.5171
vn -0.3899 -0.8765 0.2824
vn -0.7909 -0.0323 0.6111
vn -0.4075 -0.8863 0.2199
vn -0.3899 -0.8765 0.2824
vn -0.8553 -0.0342 0.5171
vn -0.9251 -0.0361 0.3780
vn -0.4075 -0.8863 0.2199
vn -0.8553 -0.0342 0.5171
vn -0.3979 -0.9061 0.1437
vn -0.4075 -0.8863 0.2199
vn -0.9251 -0.0361 0.3780
vn -0.9992 -0.0361 -0.0147
vn -0.3979 -0.9061 0.1437
vn -0.9251 -0.0361 0.3780
vn -0.4017 -0.9157 -0.0127
vn -0.3979 -0.9061 0.1437
vn -0.9992 -0.0361 -0.0147
vn -0.9667 -0.0362 -0.2532
vn -0.4017 -0.9157 -0.0127
vn -0.9992 -0.0361 -0.0147
vn -0.3707 -0.9241 -0.0929
vn -0.4017 -0.9157 -0.0127
vn -0.9667 -0.0362 -0.2532
vn -0.9407 -0.0381 -0.3370
vn -0.3707 -0.9241 -0.0929
vn -0.9667 -0.0362 -0.2532
vn -0.3629 -0.9243 -0.1184
vn -0.3707 -0.9241 -0.0929
vn -0.9407 -0.0381 -0.3370
vn -0.8986 -0.0381 -0.4371
vn -0.3629 -0.9243 -0.1184
vn -0.9407 -0.0381 -0.3370
vn -0.3603 -0.9188 -0.1611
vn -0.3629 -0.9243 -0.1184
vn -0.8986 -0.0381 -0.4371
vn -0.7976 -0.0401 -0.6019
vn -0.3603 -0.9188 -0.1611
vn -0.8986 -0.0381 -0.4371
vn -0.3355 -0.9105 -0.2416
vn -0.3603 -0.9188 -0.1611
vn -0.7976 -0.0401 -0.6019
vn -0.5839 -0.0421 -0.8107
vn -0.3355 -0.9105 -0.2416
vn -0.7976 -0.0401 -0.6019
vn -0.2551 -0.9018 -0.3488
vn -0.3355 -0.9105 -0.2416
vn -0.5839 -0.0421 -0.8107
vn -0.3370 -0.0400 -0.9407
vn -0.2551 -0.9018 -0.3488
vn -0.5839 -0.0421 -0.8107
vn -0.1456 -0.8905 -0.4311
vn -0.2551 -0.9018 -0.3488
vn -0.3370 -0.0400 -0.9407
vn -0.0576 -0.0381 -0.9976
vn -0.1456 -0.8905 -0.4311
vn -0.3370 -0.0400 -0.9407
vn -0.0127 -0.8934 -0.4492
vn -0.1456 -0.8905 -0.4311
vn -0.0576 -0.0381 -0.9976
vn 0.0870 -0.0362 -0.9956
vn -0.0127 -0.8934 -0.4492
vn -0.0576 -0.0381 -0.9976
vn 0.0479 -0.9020 -0.4291
vn -0.0127 -0.8934 -0.4492
vn 0.0870 -0.0362 -0.9956
vn 0.0694 -0.9157 -0.3958
vn 0.0479 -0.9020 -0.4291
vn 0.0870 -0.0362 -0.9956
vn 0.1613 -0.0362 -0.9862
vn 0.0694 -0.9157 -0.3958
vn 0.0870 -0.0362 -0.9956
vn 0.1164 -0.9166 -0.3825
vn 0.0694 -0.9157 -0.3958
vn 0.1613 -0.0362 -0.9862
vn 0.2883 -0.0362 -0.9568
vn 0.1164 -0.9166 -0.3825
vn 0.1613 -0.0362 -0.9862
vn 0.1788 -0.9170 -0.3565
vn 0.1164 -0.9166 -0.3825
vn 0.2883 -0.0362 -0.9568
vn 0.4505 -0.0362 -0.8921
vn 0.1788 -0.9170 -0.3565
vn 0.2883 -0.0362 -0.9568
vn 0.2960 -0.9211 -0.2530
vn 0.1788 -0.9170 -0.3565
vn 0.4505 -0.0362 -0.8921
vn 0.2960 -0.9211 -0.2530
vn 0.0010 -1.0000 -0.0010
vn 0.1788 -0.9170 -0.3565
vn 0.0010 -1.0000 -0.0010
vn 0.1164 -0.9166 -0.3825
vn 0.1788 -0.9170 -0.3565
vn 0.0010 -1.0000 -0.0010
vn 0.0694 -0.9157 -0.3958
vn 0.1164 -0.9166 -0.3825
vn 0.0010 -1.0000 -0.0010
vn 0.0479 -0.9020 -0.4291
vn 0.0694 -0.9157 -0.3958
vn 0.0010 -1.0000 -0.0010
vn -0.0127 -0.8934 -0.4492
vn 0.0479 -0.9020 -0.4291
vn 0.0010 -1.0000 -0.0010
vn -0.1456 -0.8905 -0.4311
vn -0.0127 -0.8934 -0.4492
vn 0.0010 -1.0000 -0.0010
vn -0.2551 -0.9018 -0.3488
vn -0.1456 -0.8905 -0.4311
vn 0.0010 -1.0000 -0.0010
vn -0.3355 -0.9105 -0.2416
vn -0.2551 -0.9018 -0.3488
vn 0.0010 -1.0000 -0.0010
vn -0.3603 -0.9188 -0.1611
vn -0.3355 -0.9105 -0.2416
vn 0.0010 -1.0000 -0.0010
vn -0.3629 -0.9243 -0.1184
vn -0.3603 -0.9188 -0.1611
vn 0.0010 -1.0000 -0.0010
vn -0.3707 -0.9241 -0.0929
vn -0.3629 -0.9243 -0.1184
vn 0.0010 -1.0000 -0.0010
vn -0.4017 -0.9157 -0.0127
vn -0.3707 -0.9241 -0.0929
vn 0.0010 -1.0000 -0.0010
vn -0.3979 -0.9061 0.1437
vn -0.4017 -0.9157 -0.0127
vn 0.0010 -1.0000 -0.0010
vn -0.4075 -0.8863 0.2199
vn -0.3979 -0.9061 0.1437
vn 0.0010 -1.0000 -0.0010
vn -0.3899 -0.8765 0.2824
vn -0.4075 -0.8863 0.2199
vn 0.0010 -1.0000 -0.0010
vn -0.2628 -0.8746 0.4075
vn -0.3899 -0.8765 0.2824
vn 0.0010 -1.0000 -0.0010
vn -0.1888 -0.8714 0.4528
vn -0.2628 -0.8746 0.4075
vn 0.0010 -1.0000 -0.0010
vn -0.1339 -0.8766 0.4622
vn -0.1888 -0.8714 0.4528
vn 0.0010 -1.0000 -0.0010
vn -0.0361 -0.8861 0.4621
vn -0.1339 -0.8766 0.4622
vn 0.0010 -1.0000 -0.0010
vn 0.0831 -0.9059 0.4153
vn -0.0361 -0.8861 0.4621
vn 0.0010 -1.0000 -0.0010
vn 0.1788 -0.9192 0.3508
vn 0.0831 -0.9059 0.4153
vn 0.0010 -1.0000 -0.0010
vn 0.2298 -0.9239 0.3060
vn 0.1788 -0.9192 0.3508
vn 0.0010 -1.0000 -0.0010
vn 0.3058 -0.9295 0.2062
vn 0.2298 -0.9239 0.3060
vn 0.0010 -1.0000 -0.0010
vn 0.3801 -0.9236 0.0499
vn 0.3058 -0.9295 0.2062
vn 0.0010 -1.0000 -0.0010
vn 0.3957 -0.9156 -0.0713
vn 0.3801 -0.9236 0.0499
vn 0.0010 -1.0000 -0.0010
vn 0.3821 -0.9157 -0.1241
vn 0.3957 -0.9156 -0.0713
vn 0.0010 -1.0000 -0.0010
vn 0.3624 -0.9190 -0.1553
vn 0.3821 -0.9157 -0.1241
vn 0.3624 -0.9190 -0.1553
vn 0.0010 -1.0000 -0.0010
vn 0.2960 -0.9211 -0.2530
vn 0.3373 0.9181 0.2083
vn 0.6033 -0.0342 0.7968
vn 0.8455 -0.0362 0.5328
vn 0.9938 -0.0381 0.1046
vn 0.3373 0.9181 0.2083
vn 0.8455 -0.0362 0.5328
vn 0.4157 0.9086 0.0401
vn 0.3373 0.9181 0.2083
vn 0.9938 -0.0381 0.1046
vn 0.9817 -0.0381 -0.1866
vn 0.4157 0.9086 0.0401
vn 0.9938 -0.0381 0.1046
vn 0.4288 0.8996 -0.0830
vn 0.4157 0.9086 0.0401
vn 0.9817 -0.0381 -0.1866
vn 0.9513 -0.0381 -0.3060
vn 0.4288 0.8996 -0.0830
vn 0.9817 -0.0381 -0.1866
vn 0.4151 0.8996 -0.1358
vn 0.4288 0.8996 -0.0830
vn 0.9513 -0.0381 -0.3060
vn 0.9200 -0.0381 -0.3901
vn 0.4151 0.8996 -0.1358
vn 0.9513 -0.0381 -0.3060
vn 0.9200 -0.0381 -0.3901
vn 0.3937 0.9036 -0.1690
vn 0.4151 0.8996 -0.1358
vn 0.3199 0.9067 -0.2748
vn 0.3937 0.9036 -0.1690
vn 0.9200 -0.0381 -0.3901
vn 0.7628 -0.0361 -0.6456
vn 0.3199 0.9067 -0.2748
vn 0.9200 -0.0381 -0.3901
vn 0.4505 -0.0362 -0.8921
vn 0.3199 0.9067 -0.2748
vn 0.7628 -0.0361 -0.6456
vn 0.1946 0.9025 -0.3842
vn 0.3199 0.9067 -0.2748
vn 0.4505 -0.0362 -0.8921
vn 0.2883 -0.0362 -0.9568
vn 0.1946 0.9025 -0.3842
vn 0.4505 -0.0362 -0.8921
vn 0.1261 0.9018 -0.4133
vn 0.1946 0.9025 -0.3842
vn 0.2883 -0.0362 -0.9568
vn 0.1613 -0.0362 -0.9862
vn 0.1261 0.9018 -0.4133
vn 0.2883 -0.0362 -0.9568
vn 0.0753 0.9009 -0.4274
vn 0.1261 0.9018 -0.4133
vn 0.1613 -0.0362 -0.9862
vn 0.0870 -0.0362 -0.9956
vn 0.0753 0.9009 -0.4274
vn 0.1613 -0.0362 -0.9862
vn 0.0870 -0.0362 -0.9956
vn 0.0498 0.8856 -0.4618
vn 0.0753 0.9009 -0.4274
vn -0.0107 0.8763 -0.4816
vn 0.0498 0.8856 -0.4618
vn 0.0870 -0.0362 -0.9956
vn -0.0576 -0.0381 -0.9976
vn -0.0107 0.8763 -0.4816
vn 0.0870 -0.0362 -0.9956
vn -0.1553 0.8721 -0.4640
vn -0.0107 0.8763 -0.4816
vn -0.0576 -0.0381 -0.9976
vn -0.3370 -0.0400 -0.9407
vn -0.1553 0.8721 -0.4640
vn -0.0576 -0.0381 -0.9976
vn -0.2783 0.8839 -0.3759
vn -0.1553 0.8721 -0.4640
vn -0.3370 -0.0400 -0.9407
vn -0.5839 -0.0421 -0.8107
vn -0.2783 0.8839 -0.3759
vn -0.3370 -0.0400 -0.9407
vn -0.3644 0.8940 -0.2609
vn -0.2783 0.8839 -0.3759
vn -0.5839 -0.0421 -0.8107
vn -0.7976 -0.0401 -0.6019
vn -0.3644 0.8940 -0.2609
vn -0.5839 -0.0421 -0.8107
vn -0.3922 0.9027 -0.1770
vn -0.3644 0.8940 -0.2609
vn -0.7976 -0.0401 -0.6019
vn -0.8986 -0.0381 -0.4371
vn -0.3922 0.9027 -0.1770
vn -0.7976 -0.0401 -0.6019
vn -0.3938 0.9097 -0.1319
vn -0.3922 0.9027 -0.1770
vn -0.8986 -0.0381 -0.4371
vn -0.9407 -0.0381 -0.3370
vn -0.3938 0.9097 -0.1319
vn -0.8986 -0.0381 -0.4371
vn -0.4033 0.9093 -0.1026
vn -0.3938 0.9097 -0.1319
vn -0.9407 -0.0381 -0.3370
vn -0.9667 -0.0362 -0.2532
vn -0.4033 0.9093 -0.1026
vn -0.9407 -0.0381 -0.3370
vn -0.4350 0.9003 -0.0147
vn -0.4033 0.9093 -0.1026
vn -0.9667 -0.0362 -0.2532
vn -0.9992 -0.0361 -0.0147
vn -0.4350 0.9003 -0.0147
vn -0.9667 -0.0362 -0.2532
vn -0.4272 0.8907 0.1554
vn -0.4350 0.9003 -0.0147
vn -0.9992 -0.0361 -0.0147
vn -0.9251 -0.0361 0.3780
vn -0.4272 0.8907 0.1554
vn -0.9992 -0.0361 -0.0147
vn -0.4327 0.8703 0.2354
vn -0.4272 0.8907 0.1554
vn -0.9251 -0.0361 0.3780
vn -0.8553 -0.0342 0.5171
vn -0.4327 0.8703 0.2354
vn -0.9251 -0.0361 0.3780
vn -0.4157 0.8598 0.2964
vn -0.4327 0.8703 0.2354
vn -0.8553 -0.0342 0.5171
vn -0.7909 -0.0323 0.6111
vn -0.4157 0.8598 0.2964
vn -0.8553 -0.0342 0.5171
vn -0.2941 0.8589 0.4192
vn -0.4157 0.8598 0.2964
vn -0.7909 -0.0323 0.6111
vn -0.5645 -0.0342 0.8247
vn -0.2941 0.8589 0.4192
vn -0.7909 -0.0323 0.6111
vn -0.2159 0.8569 0.4681
vn -0.2941 0.8589 0.4192
vn -0.5645 -0.0342 0.8247
vn -0.4190 -0.0361 0.9073
vn -0.2159 0.8569 0.4681
vn -0.5645 -0.0342 0.8247
vn -0.1475 0.8606 0.4874
vn -0.2159 0.8569 0.4681
vn -0.4190 -0.0361 0.9073
vn -0.2925 -0.0381 0.9555
vn -0.1475 0.8606 0.4874
vn -0.4190 -0.0361 0.9073
vn -0.0440 0.8708 0.4896
vn -0.1475 0.8606 0.4874
vn -0.2925 -0.0381 0.9555
vn -0.0988 -0.0381 0.9944
vn -0.0440 0.8708 0.4896
vn -0.2925 -0.0381 0.9555
vn 0.0851 0.8933 0.4413
vn -0.0440 0.8708 0.4896
vn -0.0988 -0.0381 0.9944
vn 0.1749 -0.0381 0.9839
vn 0.0851 0.8933 0.4413
vn -0.0988 -0.0381 0.9944
vn 0.1924 0.9072 0.3740
vn 0.0851 0.8933 0.4413
vn 0.1749 -0.0381 0.9839
vn 0.4489 -0.0362 0.8928
vn 0.1924 0.9072 0.3740
vn 0.1749 -0.0381 0.9839
vn 0.2513 0.9122 0.3236
vn 0.1924 0.9072 0.3740
vn 0.4489 -0.0362 0.8928
vn 0.6033 -0.0342 0.7968
vn 0.2513 0.9122 0.3236
vn 0.4489 -0.0362 0.8928
vn 0.3373 0.9181 0.2083
vn 0.2513 0.9122 0.3236
vn 0.6033 -0.0342 0.7968
vn 0.3373 0.9181 0.2083
vn -0.0010 1.0000 -0.0068
vn 0.2513 0.9122 0.3236
vn -0.0010 1.0000 -0.0068
vn 0.1924 0.9072 0.3740
vn 0.2513 0.9122 0.3236
vn -0.0010 1.0000 -0.0068
vn 0.0851 0.8933 0.4413
vn 0.1924 0.9072 0.3740
vn -0.0010 1.0000 -0.0068
vn -0.0440 0.8708 0.4896
vn 0.0851 0.8933 0.4413
vn -0.0010 1.0000 -0.0068
vn -0.1475 0.8606 0.4874
vn -0.0440 0.8708 0.4896
vn -0.0010 1.0000 -0.0068
vn -0.2159 0.8569 0.4681
vn -0.1475 0.8606 0.4874
vn -0.0010 1.0000 -0.0068
vn -0.2941 0.8589 0.4192
vn -0.2159 0.8569 0.4681
vn -0.0010 1.0000 -0.0068
vn -0.4157 0.8598 0.2964
vn -0.2941 0.8589 0.4192
vn -0.0010 1.0000 -0.0068
vn -0.4327 0.8703 0.2354
vn -0.4157 0.8598 0.2964
vn -0.0010 1.0000 -0.0068
vn -0.4272 0.8907 0.1554
vn -0.4327 0.8703 0.2354
vn -0.0010 1.0000 -0.0068
vn -0.4350 0.9003 -0.0147
vn -0.4272 0.8907 0.1554
vn -0.0010 1.0000 -0.0068
vn -0.4033 0.9093 -0.1026
vn -0.4350 0.9003 -0.0147
vn -0.0010 1.0000 -0.0068
vn -0.3938 0.9097 -0.1319
vn -0.4033 0.9093 -0.1026
vn -0.0010 1.0000 -0.0068
vn -0.3922 0.9027 -0.1770
vn -0.3938 0.9097 -0.1319
vn -0.0010 1.0000 -0.0068
vn -0.3644 0.8940 -0.2609
vn -0.3922 0.9027 -0.1770
vn -0.0010 1.0000 -0.0068
vn -0.2783 0.8839 -0.3759
vn -0.3644 0.8940 -0.2609
vn -0.0010 1.0000 -0.0068
vn -0.1553 0.8721 -0.4640
vn -0.2783 0.8839 -0.3759
vn -0.0010 1.0000 -0.0068
vn -0.0107 0.8763 -0.4816
vn -0.1553 0.8721 -0.4640
vn -0.0010 1.0000 -0.0068
vn 0.0498 0.8856 -0.4618
vn -0.0107 0.8763 -0.4816
vn -0.0010 1.0000 -0.0068
vn 0.0753 0.9009 -0.4274
vn 0.0498 0.8856 -0.4618
vn -0.0010 1.0000 -0.0068
vn 0.1261 0.9018 -0.4133
vn 0.0753 0.9009 -0.4274
vn -0.0010 1.0000 -0.0068
vn 0.1946 0.9025 -0.3842
vn 0.1261 0.9018 -0.4133
vn -0.0010 1.0000 -0.0068
vn 0.3199 0.9067 -0.2748
vn 0.1946 0.9025 -0.3842
vn -0.0010 1.0000 -0.0068
vn 0.3937 0.9036 -0.1690
vn 0.3199 0.9067 -0.2748
vn -0.0010 1.0000 -0.0068
vn 0.4151 0.8996 -0.1358
vn 0.3937 0.9036 -0.1690
vn -0.0010 1.0000 -0.0068
vn 0.4288 0.8996 -0.0830
vn 0.4151 0.8996 -0.1358
vn -0.0010 1.0000 -0.0068
vn 0.4157 0.9086 0.0401
vn 0.4288 0.8996 -0.0830
vn 0.4157 0.9086 0.0401
vn -0.0010 1.0000 -0.0068
vn 0.3373 0.9181 0.2083
# 504 vertex normals

vt 0.5158 0.1957 0.0000
vt 0.5086 0.2097 0.0000
vt 0.5140 0.1954 0.0000
vt 0.5158 0.1957 0.0000
vt 0.5086 0.2097 0.0000
vt 0.5161 0.1837 0.0000
vt 0.5161 0.1837 0.0000
vt 0.5149 0.1720 0.0000
vt 0.5141 0.1841 0.0000
vt 0.5127 0.1569 0.0000
vt 0.5077 0.1427 0.0000
vt 0.5129 0.1723 0.0000
vt 0.4986 0.1324 0.0000
vt 0.4844 0.1283 0.0000
vt 0.5149 0.1720 0.0000
vt 0.4712 0.1265 0.0000
vt 0.4540 0.1275 0.0000
vt 0.5109 0.1577 0.0000
vt 0.4432 0.1325 0.0000
vt 0.4266 0.1446 0.0000
vt 0.5127 0.1569 0.0000
vt 0.4185 0.1537 0.0000
vt 0.4129 0.1606 0.0000
vt 0.5057 0.1441 0.0000
vt 0.4092 0.1687 0.0000
vt 0.4088 0.1781 0.0000
vt 0.5077 0.1427 0.0000
vt 0.4073 0.1852 0.0000
vt 0.4100 0.1952 0.0000
vt 0.4972 0.1341 0.0000
vt 0.4184 0.2068 0.0000
vt 0.4256 0.2147 0.0000
vt 0.4986 0.1324 0.0000
vt 0.4334 0.2217 0.0000
vt 0.4430 0.2285 0.0000
vt 0.4844 0.1283 0.0000
vt 0.4552 0.2330 0.0000
vt 0.4687 0.2331 0.0000
vt 0.4837 0.1303 0.0000
vt 0.4787 0.2311 0.0000
vt 0.4863 0.2265 0.0000
vt 0.4712 0.1265 0.0000
vt 0.4935 0.2232 0.0000
vt 0.5004 0.2173 0.0000
vt 0.4705 0.1284 0.0000
vt 0.4540 0.1275 0.0000
vt 0.4535 0.1294 0.0000
vt 0.4432 0.1325 0.0000
vt 0.4434 0.1346 0.0000
vt 0.4266 0.1446 0.0000
vt 0.4270 0.1465 0.0000
vt 0.4185 0.1537 0.0000
vt 0.4191 0.1556 0.0000
vt 0.4129 0.1606 0.0000
vt 0.4140 0.1623 0.0000
vt 0.4092 0.1687 0.0000
vt 0.4107 0.1702 0.0000
vt 0.4088 0.1781 0.0000
vt 0.4105 0.1789 0.0000
vt 0.4073 0.1852 0.0000
vt 0.4090 0.1855 0.0000
vt 0.4100 0.1952 0.0000
vt 0.4118 0.1949 0.0000
vt 0.4184 0.2068 0.0000
vt 0.4202 0.2060 0.0000
vt 0.4256 0.2147 0.0000
vt 0.4273 0.2133 0.0000
vt 0.4334 0.2217 0.0000
vt 0.4350 0.2205 0.0000
vt 0.4430 0.2285 0.0000
vt 0.4441 0.2264 0.0000
vt 0.4552 0.2330 0.0000
vt 0.4559 0.2310 0.0000
vt 0.4687 0.2331 0.0000
vt 0.4690 0.2314 0.0000
vt 0.4787 0.2311 0.0000
vt 0.4786 0.2296 0.0000
vt 0.4863 0.2265 0.0000
vt 0.4859 0.2251 0.0000
vt 0.4922 0.2216 0.0000
vt 0.4935 0.2232 0.0000
vt 0.4987 0.2159 0.0000
vt 0.5004 0.2173 0.0000
vt 0.5069 0.2089 0.0000
vt 0.4654 0.1790 0.0000
vt 0.4972 0.1341 0.0000
vt 0.5057 0.1441 0.0000
vt 0.5109 0.1577 0.0000
vt 0.5129 0.1723 0.0000
vt 0.5141 0.1841 0.0000
vt 0.5140 0.1954 0.0000
vt 0.5069 0.2089 0.0000
vt 0.4987 0.2159 0.0000
vt 0.4922 0.2216 0.0000
vt 0.4859 0.2251 0.0000
vt 0.4786 0.2296 0.0000
vt 0.4690 0.2314 0.0000
vt 0.4559 0.2310 0.0000
vt 0.4441 0.2264 0.0000
vt 0.4350 0.2205 0.0000
vt 0.4273 0.2133 0.0000
vt 0.4202 0.2060 0.0000
vt 0.4118 0.1949 0.0000
vt 0.4090 0.1855 0.0000
vt 0.4105 0.1789 0.0000
vt 0.4107 0.1702 0.0000
vt 0.4140 0.1623 0.0000
vt 0.4191 0.1556 0.0000
vt 0.4270 0.1465 0.0000
vt 0.4434 0.1346 0.0000
vt 0.4535 0.1294 0.0000
vt 0.4705 0.1284 0.0000
vt 0.4837 0.1303 0.0000
vt 0.4654 0.1790 0.0000
# 114 texture coords

o SM_Sand_Dollar_06_LOD0
g SM_Sand_Dollar_06_LOD0
usemtl MAT_Sea_Shells
s 1
f 1/3/1 46/5/2 44/4/3 
f 42/7/4 1/3/5 44/4/6 
f 38/9/7 1/3/8 42/7/9 
f 37/12/10 38/9/11 42/7/12 
f 41/8/13 37/12/14 42/7/15 
f 3/18/16 37/12/17 41/8/18 
f 2/10/19 3/18/20 41/8/21 
f 5/24/22 3/18/23 2/10/24 
f 4/11/25 5/24/26 2/10/27 
f 7/30/28 5/24/29 4/11/30 
f 6/13/31 7/30/32 4/11/33 
f 74/14/34 7/30/35 6/13/36 
f 8/39/37 7/30/38 74/14/39 
f 73/16/40 8/39/41 74/14/42 
f 9/45/43 8/39/44 73/16/45 
f 71/17/46 9/45/47 73/16/48 
f 35/47/49 9/45/50 71/17/51 
f 10/19/52 35/47/53 71/17/54 
f 34/49/55 35/47/56 10/19/57 
f 11/20/58 34/49/59 10/19/60 
f 12/51/61 34/49/62 11/20/63 
f 67/22/64 12/51/65 11/20/66 
f 33/53/67 12/51/68 67/22/69 
f 66/23/70 33/53/71 67/22/72 
f 13/55/73 33/53/74 66/23/75 
f 65/25/76 13/55/77 66/23/78 
f 32/57/79 13/55/80 65/25/81 
f 15/26/82 32/57/83 65/25/84 
f 14/59/85 32/57/86 15/26/87 
f 63/28/88 14/59/89 15/26/90 
f 16/61/91 14/59/92 63/28/93 
f 61/29/94 16/61/95 63/28/96 
f 17/63/97 16/61/98 61/29/99 
f 18/31/100 17/63/101 61/29/102 
f 19/65/103 17/63/104 18/31/105 
f 57/32/106 19/65/107 18/31/108 
f 20/67/109 19/65/110 57/32/111 
f 56/34/112 20/67/113 57/32/114 
f 31/69/115 20/67/116 56/34/117 
f 21/35/118 31/69/119 56/34/120 
f 30/71/121 31/69/122 21/35/123 
f 54/37/124 30/71/125 21/35/126 
f 22/73/127 30/71/128 54/37/129 
f 53/38/130 22/73/131 54/37/132 
f 23/75/133 22/73/134 53/38/135 
f 51/40/136 23/75/137 53/38/138 
f 29/77/139 23/75/140 51/40/141 
f 49/41/142 29/77/143 51/40/144 
f 24/79/145 29/77/146 49/41/147 
f 28/80/148 24/79/149 49/41/150 
f 26/43/151 28/80/152 49/41/153 
f 25/82/154 28/80/155 26/43/156 
f 47/44/157 25/82/158 26/43/159 
f 27/84/160 25/82/161 47/44/162 
f 46/5/163 27/84/164 47/44/165 
f 1/3/166 27/84/167 46/5/168 
f 1/3/169 36/85/170 27/84/171 
f 36/85/172 25/82/173 27/84/174 
f 36/85/175 28/80/176 25/82/177 
f 36/85/178 24/79/179 28/80/180 
f 36/85/181 29/77/182 24/79/183 
f 36/85/184 23/75/185 29/77/186 
f 36/85/187 22/73/188 23/75/189 
f 36/85/190 30/71/191 22/73/192 
f 36/85/193 31/69/194 30/71/195 
f 36/85/196 20/67/197 31/69/198 
f 36/85/199 19/65/200 20/67/201 
f 36/85/202 17/63/203 19/65/204 
f 36/85/205 16/61/206 17/63/207 
f 36/85/208 14/59/209 16/61/210 
f 36/85/211 32/57/212 14/59/213 
f 36/85/214 13/55/215 32/57/216 
f 36/85/217 33/53/218 13/55/219 
f 36/85/220 12/51/221 33/53/222 
f 36/85/223 34/49/224 12/51/225 
f 36/85/226 35/47/227 34/49/228 
f 36/85/229 9/45/230 35/47/231 
f 36/85/232 8/39/233 9/45/234 
f 36/85/235 7/30/236 8/39/237 
f 36/85/238 5/24/239 7/30/240 
f 36/85/241 3/18/242 5/24/243 
f 36/85/244 37/12/245 3/18/246 
f 36/85/247 38/9/248 37/12/249 
f 38/9/250 36/85/251 1/3/252 
f 39/86/253 74/36/254 6/33/255 
f 4/27/256 39/86/257 6/33/258 
f 40/87/259 39/86/260 4/27/261 
f 2/21/262 40/87/263 4/27/264 
f 86/88/265 40/87/266 2/21/267 
f 41/15/268 86/88/269 2/21/270 
f 85/89/271 86/88/272 41/15/273 
f 42/6/274 85/89/275 41/15/276 
f 42/6/277 43/90/278 85/89/279 
f 45/91/280 43/90/281 42/6/282 
f 44/1/283 45/91/284 42/6/285 
f 46/2/286 45/91/287 44/1/288 
f 84/92/289 45/91/290 46/2/291 
f 47/83/292 84/92/293 46/2/294 
f 48/93/295 84/92/296 47/83/297 
f 26/81/298 48/93/299 47/83/300 
f 83/94/301 48/93/302 26/81/303 
f 49/78/304 83/94/305 26/81/306 
f 49/78/307 50/95/308 83/94/309 
f 82/96/310 50/95/311 49/78/312 
f 51/76/313 82/96/314 49/78/315 
f 81/97/316 82/96/317 51/76/318 
f 53/74/319 81/97/320 51/76/321 
f 52/98/322 81/97/323 53/74/324 
f 54/72/325 52/98/326 53/74/327 
f 55/99/328 52/98/329 54/72/330 
f 21/70/331 55/99/332 54/72/333 
f 80/100/334 55/99/335 21/70/336 
f 56/68/337 80/100/338 21/70/339 
f 58/101/340 80/100/341 56/68/342 
f 57/66/343 58/101/344 56/68/345 
f 59/102/346 58/101/347 57/66/348 
f 18/64/349 59/102/350 57/66/351 
f 60/103/352 59/102/353 18/64/354 
f 61/62/355 60/103/356 18/64/357 
f 62/104/358 60/103/359 61/62/360 
f 63/60/361 62/104/362 61/62/363 
f 64/105/364 62/104/365 63/60/366 
f 15/58/367 64/105/368 63/60/369 
f 78/106/370 64/105/371 15/58/372 
f 65/56/373 78/106/374 15/58/375 
f 77/107/376 78/106/377 65/56/378 
f 66/54/379 77/107/380 65/56/381 
f 68/108/382 77/107/383 66/54/384 
f 67/52/385 68/108/386 66/54/387 
f 76/109/388 68/108/389 67/52/390 
f 11/50/391 76/109/392 67/52/393 
f 69/110/394 76/109/395 11/50/396 
f 10/48/397 69/110/398 11/50/399 
f 70/111/400 69/110/401 10/48/402 
f 71/46/403 70/111/404 10/48/405 
f 72/112/406 70/111/407 71/46/408 
f 73/42/409 72/112/410 71/46/411 
f 75/113/412 72/112/413 73/42/414 
f 74/36/415 75/113/416 73/42/417 
f 39/86/418 75/113/419 74/36/420 
f 39/86/421 79/114/422 75/113/423 
f 79/114/424 72/112/425 75/113/426 
f 79/114/427 70/111/428 72/112/429 
f 79/114/430 69/110/431 70/111/432 
f 79/114/433 76/109/434 69/110/435 
f 79/114/436 68/108/437 76/109/438 
f 79/114/439 77/107/440 68/108/441 
f 79/114/442 78/106/443 77/107/444 
f 79/114/445 64/105/446 78/106/447 
f 79/114/448 62/104/449 64/105/450 
f 79/114/451 60/103/452 62/104/453 
f 79/114/454 59/102/455 60/103/456 
f 79/114/457 58/101/458 59/102/459 
f 79/114/460 80/100/461 58/101/462 
f 79/114/463 55/99/464 80/100/465 
f 79/114/466 52/98/467 55/99/468 
f 79/114/469 81/97/470 52/98/471 
f 79/114/472 82/96/473 81/97/474 
f 79/114/475 50/95/476 82/96/477 
f 79/114/478 83/94/479 50/95/480 
f 79/114/481 48/93/482 83/94/483 
f 79/114/484 84/92/485 48/93/486 
f 79/114/487 45/91/488 84/92/489 
f 79/114/490 43/90/491 45/91/492 
f 79/114/493 85/89/494 43/90/495 
f 79/114/496 86/88/497 85/89/498 
f 79/114/499 40/87/500 86/88/501 
f 40/87/502 79/114/503 39/86/504 
# 168 faces

#
# object SM_Sand_Dollar_06_LOD1
#

v  -8.0307 0.8111 -7.0452
v  -11.2843 0.8216 1.9748
v  11.2843 0.8363 3.2402
v  2.6598 0.8825 10.6581
v  -8.6332 0.8115 7.2781
v  8.2605 0.8176 -7.2617
v  -1.6766 0.8134 -10.6581
v  8.2869 0.8811 7.9054
v  5.7169 0.8180 -9.1871
v  -2.1998 1.3640 -10.1471
v  -6.1872 0.8088 -8.9672
v  10.4903 0.8645 5.8708
v  0.3531 -0.0000 0.1311
v  -10.7427 0.8216 -0.9001
v  -3.8548 0.6950 9.7248
v  1.7321 0.8183 -10.4106
v  11.0268 0.8216 0.1368
v  5.9402 0.8854 9.3557
v  9.3718 0.8169 -5.1080
v  0.3531 1.6990 0.1311
v  -9.2498 0.8144 -5.0136
v  -10.8972 0.8177 4.0461
v  -8.5559 1.4250 6.9056
v  1.5167 1.3814 10.2957
v  -8.5645 0.2808 6.8977
v  3.8148 1.2706 -9.3731
v  10.7577 1.3048 1.8220
v  7.9850 1.2787 -6.8972
v  -5.8870 1.4152 -8.6590
v  -8.0576 1.3493 -6.1452
v  -3.9216 1.4225 9.4698
v  10.7572 0.4207 1.8159
v  1.4813 0.4444 10.2953
v  -10.8177 1.2302 1.4355
v  6.4278 1.3363 8.5584
# 35 vertices

vn 0.0044 1.0000 0.0000
vn -0.2052 0.7676 0.6072
vn -0.0418 0.8132 0.5804
vn 0.0010 -1.0000 -0.0095
vn -0.9602 -0.2722 0.0628
vn -0.8882 -0.2778 -0.3660
vn 0.4139 0.9103 -0.0035
vn 0.0044 1.0000 0.0000
vn 0.7495 -0.0111 0.6619
vn 0.0010 -1.0000 -0.0095
vn -0.0245 -0.8476 0.5301
vn -0.2369 -0.5156 0.8234
vn 0.0010 -1.0000 -0.0095
vn -0.3840 -0.8521 0.3556
vn -0.9827 -0.0305 0.1825
vn 0.0044 1.0000 0.0000
vn -0.9827 -0.0305 0.1825
vn -0.4183 0.8323 0.3637
vn 0.0010 -1.0000 -0.0095
vn 0.3760 -0.9266 -0.0038
vn 0.7495 -0.0111 0.6619
vn 0.0044 1.0000 0.0000
vn 0.4139 0.9103 -0.0035
vn 0.3530 0.8930 -0.2791
vn 0.0044 1.0000 0.0000
vn -0.3817 0.8946 -0.2322
vn -0.4086 0.9127 -0.0029
vn 0.0010 -1.0000 -0.0095
vn -0.5445 -0.3842 -0.7457
vn -0.0254 -0.3258 -0.9451
vn 0.0044 1.0000 0.0000
vn -0.0418 0.8132 0.5804
vn 0.2259 0.9157 0.3325
vn 0.0010 -1.0000 -0.0095
vn 0.4372 -0.2806 0.8545
vn -0.0245 -0.8476 0.5301
vn 0.0010 -1.0000 -0.0095
vn 0.7079 -0.3145 -0.6324
vn 0.3760 -0.9266 -0.0038
vn 0.0044 1.0000 0.0000
vn 0.3530 0.8930 -0.2791
vn 0.1360 0.8973 -0.4200
vn -0.1156 0.8464 -0.5198
vn 0.1360 0.8973 -0.4200
vn -0.0254 -0.3258 -0.9451
vn -0.5445 -0.3842 -0.7457
vn -0.1156 0.8464 -0.5198
vn -0.0254 -0.3258 -0.9451
vn 0.0010 -1.0000 -0.0095
vn -0.8882 -0.2778 -0.3660
vn -0.5445 -0.3842 -0.7457
vn -0.3817 0.8946 -0.2322
vn -0.2989 0.8537 -0.4264
vn -0.5445 -0.3842 -0.7457
vn 0.0010 -1.0000 -0.0095
vn 0.7495 -0.0111 0.6619
vn 0.4372 -0.2806 0.8545
vn 0.7495 -0.0111 0.6619
vn 0.0044 1.0000 0.0000
vn 0.2259 0.9157 0.3325
vn 0.7079 -0.3145 -0.6324
vn 0.0010 -1.0000 -0.0095
vn 0.4712 -0.2191 -0.8544
vn 0.0010 -1.0000 -0.0095
vn 0.1104 -0.1972 -0.9741
vn 0.4712 -0.2191 -0.8544
vn 0.0044 1.0000 0.0000
vn -0.4086 0.9127 -0.0029
vn -0.9827 -0.0305 0.1825
vn -0.8882 -0.2778 -0.3660
vn -0.9602 -0.2722 0.0628
vn -0.9188 -0.2638 -0.2935
vn 0.0044 1.0000 0.0000
vn -0.4183 0.8323 0.3637
vn -0.2052 0.7676 0.6072
vn 0.0010 -1.0000 -0.0095
vn -0.2369 -0.5156 0.8234
vn -0.3840 -0.8521 0.3556
vn -0.0254 -0.3258 -0.9451
vn 0.1360 0.8973 -0.4200
vn 0.1104 -0.1972 -0.9741
vn 0.0010 -1.0000 -0.0095
vn -0.0254 -0.3258 -0.9451
vn 0.1104 -0.1972 -0.9741
vn 0.9632 -0.0384 -0.2659
vn 0.3760 -0.9266 -0.0038
vn 0.9193 -0.1693 -0.3554
vn 0.4139 0.9103 -0.0035
vn 0.7495 -0.0111 0.6619
vn 0.9765 -0.0352 0.2125
vn 0.4372 -0.2806 0.8545
vn 0.7495 -0.0111 0.6619
vn 0.6368 -0.2454 0.7309
vn 0.4372 -0.2806 0.8545
vn 0.2259 0.9157 0.3325
vn 0.2502 -0.0399 0.9674
vn 0.3760 -0.9266 -0.0038
vn 0.7079 -0.3145 -0.6324
vn 0.9193 -0.1693 -0.3554
vn 0.3530 0.8930 -0.2791
vn 0.4139 0.9103 -0.0035
vn 0.9193 -0.1693 -0.3554
vn 0.0044 1.0000 0.0000
vn -0.2989 0.8537 -0.4264
vn -0.3817 0.8946 -0.2322
vn 0.0044 1.0000 0.0000
vn 0.1360 0.8973 -0.4200
vn -0.1156 0.8464 -0.5198
vn -0.9188 -0.2638 -0.2935
vn -0.3817 0.8946 -0.2322
vn -0.8882 -0.2778 -0.3660
vn -0.5445 -0.3842 -0.7457
vn -0.8882 -0.2778 -0.3660
vn -0.7137 -0.3522 -0.6055
vn -0.9827 -0.0305 0.1825
vn -0.4086 0.9127 -0.0029
vn -0.9602 -0.2722 0.0628
vn 0.0010 -1.0000 -0.0095
vn -0.9827 -0.0305 0.1825
vn -0.9602 -0.2722 0.0628
vn -0.2052 0.7676 0.6072
vn -0.4183 0.8323 0.3637
vn -0.6356 -0.0338 0.7713
vn -0.4183 0.8323 0.3637
vn -0.9827 -0.0305 0.1825
vn -0.6356 -0.0338 0.7713
vn 0.2259 0.9157 0.3325
vn -0.0418 0.8132 0.5804
vn 0.2502 -0.0399 0.9674
vn 0.2502 -0.0399 0.9674
vn -0.0418 0.8132 0.5804
vn -0.2369 -0.5156 0.8234
vn -0.3840 -0.8521 0.3556
vn -0.2369 -0.5156 0.8234
vn -0.6356 -0.0338 0.7713
vn -0.9827 -0.0305 0.1825
vn -0.3840 -0.8521 0.3556
vn -0.6356 -0.0338 0.7713
vn 0.1360 0.8973 -0.4200
vn 0.3530 0.8930 -0.2791
vn 0.4712 -0.2191 -0.8544
vn 0.1104 -0.1972 -0.9741
vn 0.1360 0.8973 -0.4200
vn 0.4712 -0.2191 -0.8544
vn 0.9632 -0.0384 -0.2659
vn 0.4139 0.9103 -0.0035
vn 0.9765 -0.0352 0.2125
vn 0.9193 -0.1693 -0.3554
vn 0.4139 0.9103 -0.0035
vn 0.9632 -0.0384 -0.2659
vn 0.7079 -0.3145 -0.6324
vn 0.3530 0.8930 -0.2791
vn 0.9193 -0.1693 -0.3554
vn 0.4712 -0.2191 -0.8544
vn 0.3530 0.8930 -0.2791
vn 0.7079 -0.3145 -0.6324
vn 0.0044 1.0000 0.0000
vn -0.1156 0.8464 -0.5198
vn -0.2989 0.8537 -0.4264
vn -0.2989 0.8537 -0.4264
vn -0.1156 0.8464 -0.5198
vn -0.5445 -0.3842 -0.7457
vn -0.7137 -0.3522 -0.6055
vn -0.3817 0.8946 -0.2322
vn -0.5445 -0.3842 -0.7457
vn -0.8882 -0.2778 -0.3660
vn -0.3817 0.8946 -0.2322
vn -0.7137 -0.3522 -0.6055
vn -0.2369 -0.5156 0.8234
vn -0.2052 0.7676 0.6072
vn -0.6356 -0.0338 0.7713
vn -0.0418 0.8132 0.5804
vn -0.2052 0.7676 0.6072
vn -0.2369 -0.5156 0.8234
vn 0.7495 -0.0111 0.6619
vn 0.3760 -0.9266 -0.0038
vn 0.9765 -0.0352 0.2125
vn 0.9765 -0.0352 0.2125
vn 0.3760 -0.9266 -0.0038
vn 0.9632 -0.0384 -0.2659
vn -0.0245 -0.8476 0.5301
vn 0.4372 -0.2806 0.8545
vn 0.2502 -0.0399 0.9674
vn -0.2369 -0.5156 0.8234
vn -0.0245 -0.8476 0.5301
vn 0.2502 -0.0399 0.9674
vn -0.9602 -0.2722 0.0628
vn -0.4086 0.9127 -0.0029
vn -0.9188 -0.2638 -0.2935
vn -0.4086 0.9127 -0.0029
vn -0.3817 0.8946 -0.2322
vn -0.9188 -0.2638 -0.2935
vn 0.6368 -0.2454 0.7309
vn 0.2259 0.9157 0.3325
vn 0.4372 -0.2806 0.8545
vn 0.7495 -0.0111 0.6619
vn 0.2259 0.9157 0.3325
vn 0.6368 -0.2454 0.7309
# 198 vertex normals

vt 0.5077 0.1427 0.0000
vt 0.4107 0.1659 0.0000
vt 0.5158 0.1957 0.0000
vt 0.5077 0.1427 0.0000
vt 0.5158 0.1957 0.0000
vt 0.4100 0.1952 0.0000
vt 0.4430 0.2285 0.0000
vt 0.4430 0.2285 0.0000
vt 0.4540 0.1275 0.0000
vt 0.4540 0.1275 0.0000
vt 0.4844 0.1283 0.0000
vt 0.4844 0.1283 0.0000
vt 0.4755 0.2302 0.0000
vt 0.5086 0.2097 0.0000
vt 0.5086 0.2097 0.0000
vt 0.4552 0.2330 0.0000
vt 0.4552 0.2330 0.0000
vt 0.4267 0.1452 0.0000
vt 0.4654 0.1790 0.0000
vt 0.4986 0.1324 0.0000
vt 0.4986 0.1324 0.0000
vt 0.4073 0.1852 0.0000
vt 0.4073 0.1852 0.0000
vt 0.4118 0.1675 0.0000
vt 0.4654 0.1790 0.0000
vt 0.4118 0.1675 0.0000
vt 0.5161 0.1837 0.0000
vt 0.4559 0.2310 0.0000
vt 0.4411 0.2244 0.0000
vt 0.5080 0.1502 0.0000
vt 0.4787 0.2311 0.0000
vt 0.4787 0.2311 0.0000
vt 0.4495 0.1314 0.0000
vt 0.4184 0.2068 0.0000
vt 0.4100 0.1952 0.0000
vt 0.4184 0.2068 0.0000
vt 0.4107 0.1659 0.0000
vt 0.4935 0.2232 0.0000
vt 0.4935 0.2232 0.0000
vt 0.4749 0.1290 0.0000
vt 0.5140 0.1947 0.0000
vt 0.5161 0.1837 0.0000
vt 0.5127 0.1569 0.0000
vt 0.5127 0.1569 0.0000
vt 0.4493 0.1315 0.0000
vt 0.4270 0.1465 0.0000
vt 0.4131 0.1966 0.0000
vt 0.5007 0.2143 0.0000
vt 0.4334 0.2217 0.0000
vt 0.4334 0.2217 0.0000
vt 0.5080 0.1502 0.0000
vt 0.4712 0.1265 0.0000
vt 0.4712 0.1265 0.0000
# 53 texture coords

o SM_Sand_Dollar_06_LOD1
g SM_Sand_Dollar_06_LOD1
usemtl MAT_Sea_Shells
s 1
f 106/139/505 117/160/506 110/147/507 
f 99/133/508 88/120/509 107/164/510 
f 113/144/511 106/139/512 98/134/513 
f 99/133/514 119/159/515 101/132/516 
f 99/133/517 111/140/518 108/137/519 
f 106/139/520 108/136/521 109/138/522 
f 99/133/523 118/165/524 98/135/525 
f 106/139/526 113/144/527 114/155/528 
f 106/139/529 116/143/530 120/161/531 
f 99/133/532 97/131/533 93/145/534 
f 106/139/535 110/147/536 121/154/537 
f 99/133/538 104/167/539 119/159/540 
f 99/133/541 92/117/542 118/165/543 
f 106/139/544 114/155/545 112/162/546 
f 96/127/547 112/162/548 93/145/549 
f 97/130/550 96/127/551 93/146/552 
f 99/133/553 107/164/554 97/131/555 
f 116/143/556 115/142/557 97/130/558 
f 99/133/559 98/135/560 104/167/561 
f 98/134/562 106/139/563 121/154/564 
f 92/117/565 99/133/566 95/129/567 
f 99/133/568 102/152/569 95/129/570 
f 106/139/571 120/161/572 108/136/573 
f 107/164/574 88/120/575 100/150/576 
f 106/139/577 109/138/578 117/160/579 
f 99/133/580 101/132/581 111/140/582 
f 93/145/583 112/162/584 102/153/585 
f 99/133/586 93/145/587 102/152/588 
f 103/157/589 118/165/590 105/141/591 
f 113/144/592 98/134/593 89/118/594 
f 104/167/595 98/135/596 94/125/597 
f 104/166/598 121/154/599 90/123/600 
f 118/165/601 92/117/602 105/141/603 
f 114/155/604 113/144/605 105/141/606 
f 106/139/607 115/142/608 116/143/609 
f 106/139/610 112/162/611 96/127/612 
f 100/150/613 116/143/614 107/163/615 
f 97/131/616 107/164/617 87/122/618 
f 108/136/619 120/161/620 88/149/621 
f 99/133/622 108/137/623 88/120/624 
f 117/160/625 109/138/626 91/116/627 
f 109/138/628 108/136/629 91/151/630 
f 121/154/631 110/147/632 90/123/633 
f 90/123/634 110/147/635 101/132/636 
f 111/140/637 101/132/638 91/116/639 
f 108/137/640 111/140/641 91/116/642 
f 112/162/643 114/155/644 95/128/645 
f 102/152/646 112/162/647 95/128/648 
f 103/158/649 113/144/650 89/118/651 
f 105/141/652 113/144/653 103/158/654 
f 92/119/655 114/155/656 105/156/657 
f 95/128/658 114/155/659 92/119/660 
f 106/139/661 96/127/662 115/142/663 
f 115/142/664 96/127/665 97/130/666 
f 87/121/667 116/143/668 97/130/669 
f 107/163/670 116/143/671 87/121/672 
f 101/132/673 117/160/674 91/116/675 
f 110/147/676 117/160/677 101/132/678 
f 98/135/679 118/165/680 89/115/681 
f 89/115/682 118/165/683 103/157/684 
f 119/159/685 104/167/686 90/124/687 
f 101/132/688 119/159/689 90/124/690 
f 88/149/691 120/161/692 100/148/693 
f 120/161/694 116/143/695 100/150/696 
f 94/126/697 121/154/698 104/166/699 
f 98/134/700 121/154/701 94/126/702 
# 66 faces

