# 3ds Max Wavefront OBJ Exporter v0.97b - (c)2007 guruware
# File Created: 10.02.2024 08:45:41

mtllib SM_Starfish_03.mtl

#
# object SM_Starfish_03_LOD0
#

v  -14.7497 1.5154 -3.2580
v  -14.1111 1.2037 -4.1822
v  -12.7228 1.5155 -4.4454
v  -12.5650 1.1596 -4.3904
v  -6.2923 1.5155 -3.2711
v  -9.1241 1.0743 -3.6254
v  -6.2142 0.9997 -3.2305
v  -2.6325 0.9928 -6.4873
v  -1.3321 1.1140 -12.1736
v  1.1976 1.5155 -12.3466
v  2.4105 0.9258 -3.7862
v  2.4408 1.5155 -3.8337
v  4.7630 1.5155 -3.5817
v  9.5830 1.5155 -4.5128
v  12.2889 1.1980 -5.0658
v  12.4433 1.5155 -5.1294
v  14.2754 1.5155 -4.9660
v  14.5668 1.3317 -3.8998
v  13.9148 1.5155 -2.8707
v  11.7642 1.5155 -1.4960
v  11.6183 1.0824 -1.4774
v  6.8550 0.9258 0.9645
v  4.9704 1.5155 1.9530
v  4.9087 0.9258 1.9288
v  5.6316 0.9258 4.2845
v  7.4405 0.9258 7.3094
v  5.7023 1.5155 4.3384
v  7.5340 1.5155 7.4013
v  9.0667 1.5155 9.0959
v  10.6548 1.5155 10.0933
v  11.6478 1.2171 11.5350
v  10.6816 1.2171 12.7809
v  8.9837 1.5155 12.3178
v  7.2459 1.5155 11.7260
v  7.1560 1.0452 11.5806
v  1.8393 0.9258 7.7533
v  -2.9727 0.9815 8.0332
v  -5.6559 1.1010 10.4005
v  -8.5417 1.1297 12.7921
v  -10.6366 1.2045 13.4599
v  -11.5989 1.2045 12.6015
v  -10.9768 1.5155 10.8247
v  -8.7906 1.5155 8.0898
v  -5.0654 0.9258 1.7620
v  -7.7980 0.9997 1.0460
v  -10.5763 1.0743 0.0551
v  -13.3252 1.1596 -1.7428
v  -14.5668 1.2037 -3.2177
v  -11.3554 0.8940 -3.3654
v  -10.1112 0.7793 -3.5330
v  -11.7220 0.8940 -2.5893
v  -10.7230 0.7793 -1.4025
v  -8.5109 0.5570 0.0444
v  -5.0007 0.3628 -2.5996
v  -7.3423 0.5570 -2.9173
v  -3.3505 0.9258 -3.3475
v  -2.4612 0.2980 -3.9510
v  -3.0608 0.9528 -4.6143
v  -0.9738 0.8191 -11.2265
v  -0.3372 0.9490 -12.3033
v  -0.4264 1.1391 -13.4430
v  0.6546 1.1391 -13.4598
v  1.1828 1.1140 -12.1935
v  0.5327 0.9490 -12.3168
v  1.0500 0.8191 -11.2425
v  -2.1478 0.4677 -5.8133
v  1.4882 0.2980 -4.1701
v  1.8472 0.9528 -4.8866
v  1.2304 0.4677 -5.9824
v  1.5656 0.9928 -6.6974
v  4.7038 0.9258 -3.5372
v  7.6159 0.4999 -3.5864
v  9.4642 1.0824 -4.4568
v  11.2747 0.7935 -4.2824
v  12.9525 1.0282 -4.5619
v  14.0984 1.3317 -4.9044
v  13.7421 1.2632 -2.8351
v  13.3293 1.0282 -3.7535
v  9.3494 0.4999 -1.1889
v  11.8414 0.7480 -2.5928
v  5.5163 0.2808 0.7761
v  3.7852 0.2808 -2.8465
v  1.9398 0.1704 -3.0468
v  -0.5502 -0.0000 0.5221
v  -2.6962 0.1704 -2.6937
v  -4.0761 0.1704 1.4179
v  -6.2752 0.3628 0.8417
v  -5.2508 0.3656 3.7717
v  -6.5251 1.0029 4.6870
v  -8.6815 0.9486 7.9895
v  -8.7236 0.5817 8.6027
v  -10.8407 1.0401 10.6903
v  -9.8761 0.8224 10.9252
v  -9.1016 0.8224 11.6159
v  -6.8736 0.5817 10.2940
v  -4.5514 0.4754 8.3694
v  -6.9861 0.4754 6.4293
v  -2.3921 0.3461 6.4644
v  -0.3685 0.1704 4.5563
v  3.9501 0.1704 1.5522
v  5.8532 0.4927 6.7542
v  8.9543 1.0452 8.9830
v  9.3109 0.8760 10.0134
v  10.5226 1.1197 9.9682
v  10.1645 0.9545 10.8374
v  9.6032 0.9545 11.4116
v  7.6609 0.6566 8.7406
v  4.0043 0.9258 9.8242
v  6.1703 0.5939 9.8424
v  8.1521 0.7939 10.8515
v  8.8722 1.1197 12.1649
v  3.8868 0.4437 8.2330
v  4.2971 0.3183 3.8239
v  -0.4579 0.9258 5.6620
v  1.7921 0.2778 6.0309
v  -14.5668 1.9311 -3.2177
v  -13.4927 1.5155 -1.7647
v  -14.2884 1.5154 -4.2347
v  -14.1111 1.9311 -4.1822
v  -9.2387 1.5155 -3.6708
v  -12.5650 2.0079 -4.3904
v  -3.3926 1.5155 -3.3896
v  -3.0608 2.3688 -4.6143
v  -3.0992 1.5155 -4.6723
v  -2.6325 2.2991 -6.4873
v  -2.6655 1.5155 -6.5687
v  -1.3489 1.5155 -12.3265
v  -0.4317 1.5155 -13.6119
v  0.6546 2.0438 -13.4598
v  0.6629 1.5155 -13.6289
v  1.1828 2.0874 -12.1935
v  1.5853 1.5155 -6.7815
v  1.8704 1.5155 -4.9480
v  1.8472 2.3688 -4.8866
v  9.4642 2.1427 -4.4568
v  12.2889 1.9409 -5.0658
v  14.7497 1.5155 -3.9488
v  14.5668 1.7076 -3.8998
v  13.7421 1.8272 -2.8351
v  6.9411 1.5155 0.9765
v  8.9543 2.2076 8.9830
v  7.4405 2.4160 7.3094
v  11.7941 1.5155 11.6798
v  11.6478 1.9076 11.5350
v  10.8158 1.5155 12.9414
v  10.6816 1.9076 12.7809
v  4.0545 1.5155 9.9476
v  1.8623 1.5155 7.8506
v  1.8393 2.4160 7.7533
v  -0.4637 1.5155 5.7331
v  -3.0100 1.5155 8.1341
v  -2.9727 2.3187 8.0332
v  -5.7269 1.5155 10.5311
v  -8.6490 1.5155 12.9528
v  -10.7701 1.5155 13.6289
v  -11.7446 1.5155 12.7599
v  -6.6070 1.5155 4.7458
v  -6.5251 2.2815 4.6870
v  -7.7980 2.2871 1.0460
v  -5.1290 1.5155 1.7840
v  -7.8960 1.5155 1.0591
v  -10.7092 1.5155 0.0559
v  -13.3252 2.0079 -1.7428
v  -11.3554 2.4715 -3.3654
v  -11.7220 2.4715 -2.5893
v  -10.1112 2.6717 -3.5330
v  -10.7230 2.6717 -1.4025
v  -10.5763 2.1569 0.0551
v  -6.2752 3.3986 0.8417
v  -4.0761 3.7344 1.4179
v  -5.0654 2.4160 1.7620
v  -5.2508 3.3937 3.7717
v  -8.6815 2.3762 7.9895
v  -10.8407 2.2165 10.6903
v  -11.5989 1.9296 12.6015
v  -9.8761 2.5965 10.9252
v  -10.6366 1.9296 13.4599
v  -8.7236 3.0165 8.6027
v  -6.8736 3.0165 10.2940
v  -5.6559 2.1101 10.4005
v  -8.5417 2.0602 12.7921
v  -9.1016 2.5965 11.6159
v  -4.5514 3.2020 8.3694
v  -6.9861 3.2020 6.4293
v  -2.3921 3.4278 6.4644
v  -0.3685 3.7344 4.5563
v  -8.5109 3.0596 0.0444
v  -9.1241 2.1569 -3.6254
v  -6.2142 2.2871 -3.2305
v  -7.3423 3.0596 -2.9173
v  -5.0007 3.3986 -2.5996
v  -2.4612 3.5116 -3.9510
v  -3.3505 2.4160 -3.3475
v  -2.1478 3.2155 -5.8133
v  -1.3321 2.0874 -12.1736
v  -0.4264 2.0438 -13.4430
v  0.5327 2.3755 -12.3168
v  1.0500 2.6022 -11.2425
v  -0.3372 2.3755 -12.3033
v  -0.9738 2.6022 -11.2265
v  1.2304 3.2155 -5.9824
v  1.4882 3.5116 -4.1701
v  -2.6962 3.7344 -2.6937
v  1.9398 3.7344 -3.0468
v  -0.5502 4.0318 0.5221
v  4.2971 3.4762 3.8239
v  5.6316 2.4160 4.2845
v  10.5226 2.0776 9.9682
v  10.1645 2.3660 10.8374
v  9.6032 2.3660 11.4116
v  9.3109 2.5029 10.0134
v  8.1521 2.6461 10.8515
v  7.6609 2.8858 8.7406
v  6.1703 2.9952 9.8424
v  5.8532 3.1718 6.7542
v  3.8868 3.2574 8.2330
v  4.0043 2.4160 9.8242
v  7.1560 2.2076 11.5806
v  8.8722 2.0776 12.1649
v  1.7921 3.5470 6.0309
v  -0.4579 2.4160 5.6620
v  1.5656 2.2991 -6.6974
v  3.9501 3.7344 1.5522
v  4.9087 2.4160 1.9288
v  6.8550 2.4160 0.9645
v  11.6183 2.1427 -1.4774
v  13.3293 2.2373 -3.7535
v  14.0984 1.7076 -4.9044
v  12.9525 2.2373 -4.5619
v  11.2747 2.6469 -4.2824
v  11.8414 2.7263 -2.5928
v  9.3494 3.1593 -1.1889
v  5.5163 3.5417 0.7761
v  7.6159 3.1593 -3.5864
v  4.7038 2.4160 -3.5372
v  2.4105 2.4160 -3.7862
v  3.7852 3.5417 -2.8465
# 237 vertices

vn -0.2998 -0.0134 0.9539
vn -0.2901 -0.4723 0.8324
vn -0.9085 -0.0203 0.4173
vn -0.3790 -0.6119 0.6942
vn -0.2901 -0.4723 0.8324
vn -0.2998 -0.0134 0.9539
vn -0.4615 -0.0219 0.8869
vn -0.3790 -0.6119 0.6942
vn -0.2998 -0.0134 0.9539
vn -0.4684 -0.7127 0.5221
vn -0.3790 -0.6119 0.6942
vn -0.4615 -0.0219 0.8869
vn -0.6869 -0.0366 0.7258
vn -0.4684 -0.7127 0.5221
vn -0.4615 -0.0219 0.8869
vn -0.6401 -0.7580 0.1255
vn -0.4684 -0.7127 0.5221
vn -0.6869 -0.0366 0.7258
vn -0.9951 -0.0505 0.0848
vn -0.6401 -0.7580 0.1255
vn -0.6869 -0.0366 0.7258
vn -0.6468 -0.0484 -0.7612
vn -0.6401 -0.7580 0.1255
vn -0.9951 -0.0505 0.0848
vn -0.3518 -0.7288 -0.5874
vn -0.6401 -0.7580 0.1255
vn -0.6468 -0.0484 -0.7612
vn -0.0011 -0.0226 -0.9997
vn -0.3518 -0.7288 -0.5874
vn -0.6468 -0.0484 -0.7612
vn 0.0298 -0.6393 -0.7684
vn -0.3518 -0.7288 -0.5874
vn -0.0011 -0.0226 -0.9997
vn 0.1812 -0.0082 -0.9834
vn 0.0298 -0.6393 -0.7684
vn -0.0011 -0.0226 -0.9997
vn 0.1501 -0.3766 -0.9141
vn 0.0298 -0.6393 -0.7684
vn 0.1812 -0.0082 -0.9834
vn 0.0534 -0.0114 -0.9985
vn 0.1501 -0.3766 -0.9141
vn 0.1812 -0.0082 -0.9834
vn 0.0374 -0.4073 -0.9125
vn 0.1501 -0.3766 -0.9141
vn 0.0534 -0.0114 -0.9985
vn -0.6369 -0.0177 -0.7708
vn 0.0374 -0.4073 -0.9125
vn 0.0534 -0.0114 -0.9985
vn -0.5196 -0.5649 -0.6410
vn 0.0374 -0.4073 -0.9125
vn -0.6369 -0.0177 -0.7708
vn -0.8646 -0.4561 -0.2109
vn -0.5196 -0.5649 -0.6410
vn -0.6369 -0.0177 -0.7708
vn -0.9745 -0.0152 -0.2237
vn -0.8646 -0.4561 -0.2109
vn -0.6369 -0.0177 -0.7708
vn -0.8518 -0.4781 -0.2141
vn -0.8646 -0.4561 -0.2109
vn -0.9745 -0.0152 -0.2237
vn -0.9745 -0.0159 -0.2240
vn -0.8518 -0.4781 -0.2141
vn -0.9745 -0.0152 -0.2237
vn -0.7035 -0.6312 -0.3267
vn -0.8518 -0.4781 -0.2141
vn -0.9745 -0.0159 -0.2240
vn -0.8970 -0.0303 -0.4411
vn -0.7035 -0.6312 -0.3267
vn -0.9745 -0.0159 -0.2240
vn -0.3539 -0.7081 -0.6110
vn -0.7035 -0.6312 -0.3267
vn -0.8970 -0.0303 -0.4411
vn -0.4291 -0.0488 -0.9020
vn -0.3539 -0.7081 -0.6110
vn -0.8970 -0.0303 -0.4411
vn 0.4397 -0.6844 -0.5816
vn -0.3539 -0.7081 -0.6110
vn -0.4291 -0.0488 -0.9020
vn 0.5003 -0.0474 -0.8646
vn 0.4397 -0.6844 -0.5816
vn -0.4291 -0.0488 -0.9020
vn 0.9651 -0.0210 -0.2611
vn 0.4397 -0.6844 -0.5816
vn 0.5003 -0.0474 -0.8646
vn 0.7883 -0.5734 -0.2230
vn 0.4397 -0.6844 -0.5816
vn 0.9651 -0.0210 -0.2611
vn 0.9940 -0.0090 -0.1088
vn 0.7883 -0.5734 -0.2230
vn 0.9651 -0.0210 -0.2611
vn 0.9296 -0.3534 -0.1046
vn 0.7883 -0.5734 -0.2230
vn 0.9940 -0.0090 -0.1088
vn 0.9533 -0.0122 -0.3018
vn 0.9296 -0.3534 -0.1046
vn 0.9940 -0.0090 -0.1088
vn 0.8754 -0.3937 -0.2804
vn 0.9296 -0.3534 -0.1046
vn 0.9533 -0.0122 -0.3018
vn 0.5671 -0.0168 -0.8235
vn 0.8754 -0.3937 -0.2804
vn 0.9533 -0.0122 -0.3018
vn 0.4935 -0.5212 -0.6963
vn 0.8754 -0.3937 -0.2804
vn 0.5671 -0.0168 -0.8235
vn -0.0497 -0.4207 -0.9058
vn 0.4935 -0.5212 -0.6963
vn 0.5671 -0.0168 -0.8235
vn -0.0485 -0.0120 -0.9987
vn -0.0497 -0.4207 -0.9058
vn 0.5671 -0.0168 -0.8235
vn -0.1439 -0.4581 -0.8772
vn -0.0497 -0.4207 -0.9058
vn -0.0485 -0.0120 -0.9987
vn -0.2002 -0.0109 -0.9797
vn -0.1439 -0.4581 -0.8772
vn -0.0485 -0.0120 -0.9987
vn -0.0363 -0.5774 -0.8156
vn -0.1439 -0.4581 -0.8772
vn -0.2002 -0.0109 -0.9797
vn -0.0116 -0.0241 -0.9996
vn -0.0363 -0.5774 -0.8156
vn -0.2002 -0.0109 -0.9797
vn 0.3031 -0.7632 -0.5706
vn -0.0363 -0.5774 -0.8156
vn -0.0116 -0.0241 -0.9996
vn 0.6567 -0.0094 -0.7541
vn 0.3031 -0.7632 -0.5706
vn -0.0116 -0.0241 -0.9996
vn 0.5720 -0.8118 0.1175
vn 0.3031 -0.7632 -0.5706
vn 0.6567 -0.0094 -0.7541
vn 0.9989 -0.0092 0.0461
vn 0.5720 -0.8118 0.1175
vn 0.6567 -0.0094 -0.7541
vn 0.7209 -0.0312 0.6923
vn 0.5720 -0.8118 0.1175
vn 0.9989 -0.0092 0.0461
vn 0.5040 -0.6813 0.5308
vn 0.5720 -0.8118 0.1175
vn 0.7209 -0.0312 0.6923
vn 0.5100 -0.0204 0.8599
vn 0.5040 -0.6813 0.5308
vn 0.7209 -0.0312 0.6923
vn 0.4359 -0.5781 0.6898
vn 0.5040 -0.6813 0.5308
vn 0.5100 -0.0204 0.8599
vn 0.4516 -0.0144 0.8921
vn 0.4359 -0.5781 0.6898
vn 0.5100 -0.0204 0.8599
vn 0.4103 -0.4814 0.7745
vn 0.4359 -0.5781 0.6898
vn 0.4516 -0.0144 0.8921
vn 0.9178 -0.0200 0.3965
vn 0.4103 -0.4814 0.7745
vn 0.4516 -0.0144 0.8921
vn 0.6996 -0.6233 0.3493
vn 0.4103 -0.4814 0.7745
vn 0.9178 -0.0200 0.3965
vn 0.7615 -0.5625 -0.3219
vn 0.6996 -0.6233 0.3493
vn 0.9178 -0.0200 0.3965
vn 0.9103 -0.0121 -0.4139
vn 0.7615 -0.5625 -0.3219
vn 0.9178 -0.0200 0.3965
vn 0.6610 -0.5903 -0.4632
vn 0.7615 -0.5625 -0.3219
vn 0.9103 -0.0121 -0.4139
vn 0.7973 -0.0052 -0.6036
vn 0.6610 -0.5903 -0.4632
vn 0.9103 -0.0121 -0.4139
vn 0.5729 -0.5703 -0.5886
vn 0.6610 -0.5903 -0.4632
vn 0.7973 -0.0052 -0.6036
vn 0.6230 0.0073 -0.7822
vn 0.5729 -0.5703 -0.5886
vn 0.7973 -0.0052 -0.6036
vn 0.5575 -0.5761 -0.5978
vn 0.5729 -0.5703 -0.5886
vn 0.6230 0.0073 -0.7822
vn 0.7192 -0.0056 -0.6948
vn 0.5575 -0.5761 -0.5978
vn 0.6230 0.0073 -0.7822
vn 0.7172 -0.6893 -0.1030
vn 0.5575 -0.5761 -0.5978
vn 0.7192 -0.0056 -0.6948
vn 0.9903 -0.0486 0.1303
vn 0.7172 -0.6893 -0.1030
vn 0.7192 -0.0056 -0.6948
vn 0.1305 -0.7565 0.6408
vn 0.7172 -0.6893 -0.1030
vn 0.9903 -0.0486 0.1303
vn 0.3441 -0.0510 0.9375
vn 0.1305 -0.7565 0.6408
vn 0.9903 -0.0486 0.1303
vn -0.3140 -0.0382 0.9487
vn 0.1305 -0.7565 0.6408
vn 0.3441 -0.0510 0.9375
vn -0.1837 -0.7226 0.6664
vn 0.1305 -0.7565 0.6408
vn -0.3140 -0.0382 0.9487
vn -0.3888 -0.0326 0.9207
vn -0.1837 -0.7226 0.6664
vn -0.3140 -0.0382 0.9487
vn -0.2844 -0.6599 0.6955
vn -0.1837 -0.7226 0.6664
vn -0.3888 -0.0326 0.9207
vn -0.5815 -0.0207 0.8132
vn -0.2844 -0.6599 0.6955
vn -0.3888 -0.0326 0.9207
vn -0.4685 -0.5985 0.6499
vn -0.2844 -0.6599 0.6955
vn -0.5815 -0.0207 0.8132
vn -0.6829 -0.0161 0.7304
vn -0.4685 -0.5985 0.6499
vn -0.5815 -0.0207 0.8132
vn -0.5561 -0.5672 0.6075
vn -0.4685 -0.5985 0.6499
vn -0.6829 -0.0161 0.7304
vn 0.0122 -0.0215 0.9997
vn -0.5561 -0.5672 0.6075
vn -0.6829 -0.0161 0.7304
vn 0.0552 -0.6449 0.7623
vn -0.5561 -0.5672 0.6075
vn 0.0122 -0.0215 0.9997
vn 0.5720 -0.4924 0.6561
vn 0.0552 -0.6449 0.7623
vn 0.0122 -0.0215 0.9997
vn 0.6714 -0.0154 0.7409
vn 0.5720 -0.4924 0.6561
vn 0.0122 -0.0215 0.9997
vn 0.5404 -0.5297 0.6538
vn 0.5720 -0.4924 0.6561
vn 0.6714 -0.0154 0.7409
vn 0.6473 -0.0194 0.7620
vn 0.5404 -0.5297 0.6538
vn 0.6714 -0.0154 0.7409
vn 0.3597 -0.6580 0.6616
vn 0.5404 -0.5297 0.6538
vn 0.6473 -0.0194 0.7620
vn 0.4369 -0.0359 0.8988
vn 0.3597 -0.6580 0.6616
vn 0.6473 -0.0194 0.7620
vn -0.0862 -0.7601 0.6441
vn 0.3597 -0.6580 0.6616
vn 0.4369 -0.0359 0.8988
vn -0.2655 -0.0538 0.9626
vn -0.0862 -0.7601 0.6441
vn 0.4369 -0.0359 0.8988
vn -0.9486 -0.0523 0.3122
vn -0.0862 -0.7601 0.6441
vn -0.2655 -0.0538 0.9626
vn -0.6832 -0.7260 0.0779
vn -0.0862 -0.7601 0.6441
vn -0.9486 -0.0523 0.3122
vn -0.8825 -0.0200 -0.4699
vn -0.6832 -0.7260 0.0779
vn -0.9486 -0.0523 0.3122
vn -0.6846 -0.6347 -0.3584
vn -0.6832 -0.7260 0.0779
vn -0.8825 -0.0200 -0.4699
vn -0.8067 -0.0083 -0.5909
vn -0.6846 -0.6347 -0.3584
vn -0.8825 -0.0200 -0.4699
vn -0.7428 -0.3985 -0.5380
vn -0.6846 -0.6347 -0.3584
vn -0.8067 -0.0083 -0.5909
vn -0.8644 -0.0132 -0.5026
vn -0.7428 -0.3985 -0.5380
vn -0.8067 -0.0083 -0.5909
vn -0.7835 -0.4280 -0.4505
vn -0.7428 -0.3985 -0.5380
vn -0.8644 -0.0132 -0.5026
vn -0.9085 -0.0203 0.4173
vn -0.7835 -0.4280 -0.4505
vn -0.8644 -0.0132 -0.5026
vn -0.6859 -0.6391 0.3479
vn -0.7835 -0.4280 -0.4505
vn -0.9085 -0.0203 0.4173
vn -0.2901 -0.4723 0.8324
vn -0.6859 -0.6391 0.3479
vn -0.9085 -0.0203 0.4173
vn -0.1629 -0.9201 0.3563
vn -0.6859 -0.6391 0.3479
vn -0.2901 -0.4723 0.8324
vn -0.1627 -0.9554 0.2465
vn -0.1629 -0.9201 0.3563
vn -0.2901 -0.4723 0.8324
vn -0.3790 -0.6119 0.6942
vn -0.1627 -0.9554 0.2465
vn -0.2901 -0.4723 0.8324
vn -0.1372 -0.9870 0.0837
vn -0.1627 -0.9554 0.2465
vn -0.3790 -0.6119 0.6942
vn -0.4684 -0.7127 0.5221
vn -0.1372 -0.9870 0.0837
vn -0.3790 -0.6119 0.6942
vn -0.1126 -0.9936 -0.0064
vn -0.1372 -0.9870 0.0837
vn -0.4684 -0.7127 0.5221
vn -0.6401 -0.7580 0.1255
vn -0.1126 -0.9936 -0.0064
vn -0.4684 -0.7127 0.5221
vn -0.3518 -0.7288 -0.5874
vn -0.1126 -0.9936 -0.0064
vn -0.6401 -0.7580 0.1255
vn -0.0989 -0.9914 -0.0859
vn -0.1126 -0.9936 -0.0064
vn -0.3518 -0.7288 -0.5874
vn 0.0298 -0.6393 -0.7684
vn -0.0989 -0.9914 -0.0859
vn -0.3518 -0.7288 -0.5874
vn 0.0234 -0.9175 -0.3970
vn -0.0989 -0.9914 -0.0859
vn 0.0298 -0.6393 -0.7684
vn 0.0234 -0.9175 -0.3970
vn -0.1126 -0.9936 -0.0064
vn -0.0989 -0.9914 -0.0859
vn 0.0234 -0.9175 -0.3970
vn -0.1372 -0.9870 0.0837
vn -0.1126 -0.9936 -0.0064
vn 0.0234 -0.9175 -0.3970
vn -0.0030 -0.9170 -0.3988
vn -0.1372 -0.9870 0.0837
vn -0.0030 -0.9170 -0.3988
vn -0.1627 -0.9554 0.2465
vn -0.1372 -0.9870 0.0837
vn -0.0030 -0.9170 -0.3988
vn -0.1629 -0.9201 0.3563
vn -0.1627 -0.9554 0.2465
vn -0.0030 -0.9170 -0.3988
vn -0.0652 -0.9278 -0.3672
vn -0.1629 -0.9201 0.3563
vn -0.0652 -0.9278 -0.3672
vn -0.0030 -0.9170 -0.3988
vn 0.0374 -0.4073 -0.9125
vn -0.0030 -0.9170 -0.3988
vn 0.1501 -0.3766 -0.9141
vn 0.0374 -0.4073 -0.9125
vn 0.0234 -0.9175 -0.3970
vn 0.1501 -0.3766 -0.9141
vn -0.0030 -0.9170 -0.3988
vn 0.0234 -0.9175 -0.3970
vn 0.0298 -0.6393 -0.7684
vn 0.1501 -0.3766 -0.9141
vn -0.5196 -0.5649 -0.6410
vn -0.0652 -0.9278 -0.3672
vn 0.0374 -0.4073 -0.9125
vn -0.1525 -0.9707 -0.1855
vn -0.0652 -0.9278 -0.3672
vn -0.5196 -0.5649 -0.6410
vn -0.3427 -0.9280 -0.1460
vn -0.1525 -0.9707 -0.1855
vn -0.5196 -0.5649 -0.6410
vn -0.8646 -0.4561 -0.2109
vn -0.3427 -0.9280 -0.1460
vn -0.5196 -0.5649 -0.6410
vn -0.3323 -0.9339 -0.1321
vn -0.3427 -0.9280 -0.1460
vn -0.8646 -0.4561 -0.2109
vn -0.8518 -0.4781 -0.2141
vn -0.3323 -0.9339 -0.1321
vn -0.8646 -0.4561 -0.2109
vn -0.2105 -0.9698 -0.1232
vn -0.3323 -0.9339 -0.1321
vn -0.8518 -0.4781 -0.2141
vn -0.7035 -0.6312 -0.3267
vn -0.2105 -0.9698 -0.1232
vn -0.8518 -0.4781 -0.2141
vn -0.0754 -0.9850 -0.1553
vn -0.2105 -0.9698 -0.1232
vn -0.7035 -0.6312 -0.3267
vn -0.3539 -0.7081 -0.6110
vn -0.0754 -0.9850 -0.1553
vn -0.7035 -0.6312 -0.3267
vn 0.1127 -0.9813 -0.1561
vn -0.0754 -0.9850 -0.1553
vn -0.3539 -0.7081 -0.6110
vn 0.4397 -0.6844 -0.5816
vn 0.1127 -0.9813 -0.1561
vn -0.3539 -0.7081 -0.6110
vn 0.7883 -0.5734 -0.2230
vn 0.1127 -0.9813 -0.1561
vn 0.4397 -0.6844 -0.5816
vn 0.4438 -0.8898 -0.1059
vn 0.1127 -0.9813 -0.1561
vn 0.7883 -0.5734 -0.2230
vn 0.4438 -0.8898 -0.1059
vn -0.0754 -0.9850 -0.1553
vn 0.1127 -0.9813 -0.1561
vn 0.4438 -0.8898 -0.1059
vn -0.2105 -0.9698 -0.1232
vn -0.0754 -0.9850 -0.1553
vn 0.4438 -0.8898 -0.1059
vn 0.4091 -0.9056 -0.1116
vn -0.2105 -0.9698 -0.1232
vn 0.4091 -0.9056 -0.1116
vn -0.3323 -0.9339 -0.1321
vn -0.2105 -0.9698 -0.1232
vn 0.4091 -0.9056 -0.1116
vn 0.3339 -0.9200 -0.2053
vn -0.3323 -0.9339 -0.1321
vn 0.3339 -0.9200 -0.2053
vn -0.3427 -0.9280 -0.1460
vn -0.3323 -0.9339 -0.1321
vn 0.3339 -0.9200 -0.2053
vn -0.1525 -0.9707 -0.1855
vn -0.3427 -0.9280 -0.1460
vn 0.3339 -0.9200 -0.2053
vn 0.1454 -0.9629 -0.2272
vn -0.1525 -0.9707 -0.1855
vn 0.4935 -0.5212 -0.6963
vn 0.1454 -0.9629 -0.2272
vn 0.3339 -0.9200 -0.2053
vn 0.8754 -0.3937 -0.2804
vn 0.4935 -0.5212 -0.6963
vn 0.3339 -0.9200 -0.2053
vn 0.4091 -0.9056 -0.1116
vn 0.8754 -0.3937 -0.2804
vn 0.3339 -0.9200 -0.2053
vn 0.4091 -0.9056 -0.1116
vn 0.9296 -0.3534 -0.1046
vn 0.8754 -0.3937 -0.2804
vn 0.4438 -0.8898 -0.1059
vn 0.9296 -0.3534 -0.1046
vn 0.4091 -0.9056 -0.1116
vn 0.4438 -0.8898 -0.1059
vn 0.7883 -0.5734 -0.2230
vn 0.9296 -0.3534 -0.1046
vn 0.0538 -0.9381 -0.3421
vn 0.1454 -0.9629 -0.2272
vn 0.4935 -0.5212 -0.6963
vn -0.0497 -0.4207 -0.9058
vn 0.0538 -0.9381 -0.3421
vn 0.4935 -0.5212 -0.6963
vn -0.0284 -0.9164 -0.3993
vn 0.0538 -0.9381 -0.3421
vn -0.0497 -0.4207 -0.9058
vn -0.1439 -0.4581 -0.8772
vn -0.0284 -0.9164 -0.3993
vn -0.0497 -0.4207 -0.9058
vn 0.0214 -0.9523 -0.3046
vn -0.0284 -0.9164 -0.3993
vn -0.1439 -0.4581 -0.8772
vn -0.0363 -0.5774 -0.8156
vn 0.0214 -0.9523 -0.3046
vn -0.1439 -0.4581 -0.8772
vn 0.1359 -0.9589 -0.2490
vn 0.0214 -0.9523 -0.3046
vn -0.0363 -0.5774 -0.8156
vn 0.3031 -0.7632 -0.5706
vn 0.1359 -0.9589 -0.2490
vn -0.0363 -0.5774 -0.8156
vn 0.2152 -0.9766 0.0023
vn 0.1359 -0.9589 -0.2490
vn 0.3031 -0.7632 -0.5706
vn 0.2152 -0.9766 0.0023
vn 0.0214 -0.9523 -0.3046
vn 0.1359 -0.9589 -0.2490
vn 0.5720 -0.8118 0.1175
vn 0.2152 -0.9766 0.0023
vn 0.3031 -0.7632 -0.5706
vn 0.5040 -0.6813 0.5308
vn 0.2152 -0.9766 0.0023
vn 0.5720 -0.8118 0.1175
vn 0.1964 -0.9722 0.1274
vn 0.2152 -0.9766 0.0023
vn 0.5040 -0.6813 0.5308
vn 0.1964 -0.9722 0.1274
vn 0.0214 -0.9523 -0.3046
vn 0.2152 -0.9766 0.0023
vn 0.1964 -0.9722 0.1274
vn 0.1764 -0.9584 0.2243
vn 0.0214 -0.9523 -0.3046
vn 0.1764 -0.9584 0.2243
vn -0.0284 -0.9164 -0.3993
vn 0.0214 -0.9523 -0.3046
vn 0.1764 -0.9584 0.2243
vn 0.1920 -0.9376 0.2898
vn -0.0284 -0.9164 -0.3993
vn 0.1920 -0.9376 0.2898
vn 0.0538 -0.9381 -0.3421
vn -0.0284 -0.9164 -0.3993
vn 0.1920 -0.9376 0.2898
vn 0.2007 -0.9755 0.0906
vn 0.0538 -0.9381 -0.3421
vn 0.2007 -0.9755 0.0906
vn 0.1454 -0.9629 -0.2272
vn 0.0538 -0.9381 -0.3421
vn 0.2007 -0.9755 0.0906
vn -0.0053 -1.0000 0.0015
vn 0.1454 -0.9629 -0.2272
vn -0.0053 -1.0000 0.0015
vn -0.1525 -0.9707 -0.1855
vn 0.1454 -0.9629 -0.2272
vn -0.0053 -1.0000 0.0015
vn -0.1708 -0.9835 0.0603
vn -0.1525 -0.9707 -0.1855
vn -0.1708 -0.9835 0.0603
vn -0.0652 -0.9278 -0.3672
vn -0.1525 -0.9707 -0.1855
vn -0.1708 -0.9835 0.0603
vn -0.1629 -0.9201 0.3563
vn -0.0652 -0.9278 -0.3672
vn -0.1708 -0.9835 0.0603
vn -0.6859 -0.6391 0.3479
vn -0.1629 -0.9201 0.3563
vn -0.1708 -0.9835 0.0603
vn -0.3300 -0.9356 -0.1252
vn -0.6859 -0.6391 0.3479
vn -0.3300 -0.9356 -0.1252
vn -0.7835 -0.4280 -0.4505
vn -0.6859 -0.6391 0.3479
vn -0.3300 -0.9356 -0.1252
vn -0.3087 -0.9337 -0.1816
vn -0.7835 -0.4280 -0.4505
vn -0.3087 -0.9337 -0.1816
vn -0.7428 -0.3985 -0.5380
vn -0.7835 -0.4280 -0.4505
vn -0.3087 -0.9337 -0.1816
vn -0.3402 -0.9173 -0.2072
vn -0.7428 -0.3985 -0.5380
vn -0.3402 -0.9173 -0.2072
vn -0.6846 -0.6347 -0.3584
vn -0.7428 -0.3985 -0.5380
vn -0.3402 -0.9173 -0.2072
vn -0.1442 -0.9883 0.0492
vn -0.6846 -0.6347 -0.3584
vn -0.1442 -0.9883 0.0492
vn -0.6832 -0.7260 0.0779
vn -0.6846 -0.6347 -0.3584
vn -0.1442 -0.9883 0.0492
vn -0.0862 -0.7601 0.6441
vn -0.6832 -0.7260 0.0779
vn -0.1442 -0.9883 0.0492
vn -0.0295 -0.9871 0.1572
vn -0.0862 -0.7601 0.6441
vn -0.3402 -0.9173 -0.2072
vn -0.0295 -0.9871 0.1572
vn -0.1442 -0.9883 0.0492
vn 0.1343 -0.9628 0.2345
vn -0.0295 -0.9871 0.1572
vn -0.3402 -0.9173 -0.2072
vn -0.3087 -0.9337 -0.1816
vn 0.1343 -0.9628 0.2345
vn -0.3402 -0.9173 -0.2072
vn 0.1732 -0.9517 0.2536
vn 0.1343 -0.9628 0.2345
vn -0.3087 -0.9337 -0.1816
vn 0.1343 -0.9628 0.2345
vn 0.1732 -0.9517 0.2536
vn 0.5404 -0.5297 0.6538
vn 0.3597 -0.6580 0.6616
vn 0.1343 -0.9628 0.2345
vn 0.5404 -0.5297 0.6538
vn 0.3597 -0.6580 0.6616
vn -0.0295 -0.9871 0.1572
vn 0.1343 -0.9628 0.2345
vn -0.0295 -0.9871 0.1572
vn 0.3597 -0.6580 0.6616
vn -0.0862 -0.7601 0.6441
vn 0.1732 -0.9517 0.2536
vn 0.5720 -0.4924 0.6561
vn 0.5404 -0.5297 0.6538
vn 0.1732 -0.9517 0.2536
vn 0.2036 -0.9393 0.2760
vn 0.5720 -0.4924 0.6561
vn -0.3087 -0.9337 -0.1816
vn 0.2036 -0.9393 0.2760
vn 0.1732 -0.9517 0.2536
vn -0.3300 -0.9356 -0.1252
vn 0.2036 -0.9393 0.2760
vn -0.3087 -0.9337 -0.1816
vn -0.0001 -0.9796 0.2008
vn 0.2036 -0.9393 0.2760
vn -0.3300 -0.9356 -0.1252
vn -0.1708 -0.9835 0.0603
vn -0.0001 -0.9796 0.2008
vn -0.3300 -0.9356 -0.1252
vn -0.0053 -1.0000 0.0015
vn -0.0001 -0.9796 0.2008
vn -0.1708 -0.9835 0.0603
vn 0.2007 -0.9755 0.0906
vn -0.0001 -0.9796 0.2008
vn -0.0053 -1.0000 0.0015
vn 0.2526 -0.9668 -0.0383
vn -0.0001 -0.9796 0.2008
vn 0.2007 -0.9755 0.0906
vn 0.6996 -0.6233 0.3493
vn 0.2526 -0.9668 -0.0383
vn 0.2007 -0.9755 0.0906
vn 0.1920 -0.9376 0.2898
vn 0.6996 -0.6233 0.3493
vn 0.2007 -0.9755 0.0906
vn 0.1920 -0.9376 0.2898
vn 0.4103 -0.4814 0.7745
vn 0.6996 -0.6233 0.3493
vn 0.1764 -0.9584 0.2243
vn 0.4103 -0.4814 0.7745
vn 0.1920 -0.9376 0.2898
vn 0.1764 -0.9584 0.2243
vn 0.4359 -0.5781 0.6898
vn 0.4103 -0.4814 0.7745
vn 0.1964 -0.9722 0.1274
vn 0.4359 -0.5781 0.6898
vn 0.1764 -0.9584 0.2243
vn 0.1964 -0.9722 0.1274
vn 0.5040 -0.6813 0.5308
vn 0.4359 -0.5781 0.6898
vn 0.7615 -0.5625 -0.3219
vn 0.2526 -0.9668 -0.0383
vn 0.6996 -0.6233 0.3493
vn 0.1889 -0.9790 -0.0765
vn 0.2526 -0.9668 -0.0383
vn 0.7615 -0.5625 -0.3219
vn 0.6610 -0.5903 -0.4632
vn 0.1889 -0.9790 -0.0765
vn 0.7615 -0.5625 -0.3219
vn 0.1945 -0.9767 -0.0902
vn 0.1889 -0.9790 -0.0765
vn 0.6610 -0.5903 -0.4632
vn 0.5729 -0.5703 -0.5886
vn 0.1945 -0.9767 -0.0902
vn 0.6610 -0.5903 -0.4632
vn 0.1548 -0.9842 -0.0856
vn 0.1945 -0.9767 -0.0902
vn 0.5729 -0.5703 -0.5886
vn 0.5575 -0.5761 -0.5978
vn 0.1548 -0.9842 -0.0856
vn 0.5729 -0.5703 -0.5886
vn 0.1403 -0.9901 -0.0022
vn 0.1548 -0.9842 -0.0856
vn 0.5575 -0.5761 -0.5978
vn 0.7172 -0.6893 -0.1030
vn 0.1403 -0.9901 -0.0022
vn 0.5575 -0.5761 -0.5978
vn 0.1305 -0.7565 0.6408
vn 0.1403 -0.9901 -0.0022
vn 0.7172 -0.6893 -0.1030
vn 0.0519 -0.9901 0.1308
vn 0.1403 -0.9901 -0.0022
vn 0.1305 -0.7565 0.6408
vn 0.0519 -0.9901 0.1308
vn 0.1548 -0.9842 -0.0856
vn 0.1403 -0.9901 -0.0022
vn 0.0519 -0.9901 0.1308
vn 0.0284 -0.9874 0.1558
vn 0.1548 -0.9842 -0.0856
vn 0.0284 -0.9874 0.1558
vn 0.1945 -0.9767 -0.0902
vn 0.1548 -0.9842 -0.0856
vn 0.0284 -0.9874 0.1558
vn -0.0370 -0.9828 0.1810
vn 0.1945 -0.9767 -0.0902
vn -0.0370 -0.9828 0.1810
vn 0.1889 -0.9790 -0.0765
vn 0.1945 -0.9767 -0.0902
vn -0.0370 -0.9828 0.1810
vn -0.1123 -0.9772 0.1801
vn 0.1889 -0.9790 -0.0765
vn -0.1123 -0.9772 0.1801
vn -0.0370 -0.9828 0.1810
vn -0.4685 -0.5985 0.6499
vn -0.0370 -0.9828 0.1810
vn -0.2844 -0.6599 0.6955
vn -0.4685 -0.5985 0.6499
vn 0.0284 -0.9874 0.1558
vn -0.2844 -0.6599 0.6955
vn -0.0370 -0.9828 0.1810
vn 0.0284 -0.9874 0.1558
vn -0.1837 -0.7226 0.6664
vn -0.2844 -0.6599 0.6955
vn 0.0519 -0.9901 0.1308
vn -0.1837 -0.7226 0.6664
vn 0.0284 -0.9874 0.1558
vn 0.0519 -0.9901 0.1308
vn 0.1305 -0.7565 0.6408
vn -0.1837 -0.7226 0.6664
vn -0.5561 -0.5672 0.6075
vn -0.1123 -0.9772 0.1801
vn -0.4685 -0.5985 0.6499
vn -0.1264 -0.9724 0.1963
vn -0.1123 -0.9772 0.1801
vn -0.5561 -0.5672 0.6075
vn -0.1264 -0.9724 0.1963
vn 0.1889 -0.9790 -0.0765
vn -0.1123 -0.9772 0.1801
vn -0.1264 -0.9724 0.1963
vn 0.2526 -0.9668 -0.0383
vn 0.1889 -0.9790 -0.0765
vn -0.1264 -0.9724 0.1963
vn -0.0001 -0.9796 0.2008
vn 0.2526 -0.9668 -0.0383
vn -0.1264 -0.9724 0.1963
vn 0.0552 -0.6449 0.7623
vn -0.0001 -0.9796 0.2008
vn 0.0552 -0.6449 0.7623
vn -0.1264 -0.9724 0.1963
vn -0.5561 -0.5672 0.6075
vn 0.0552 -0.6449 0.7623
vn 0.2036 -0.9393 0.2760
vn -0.0001 -0.9796 0.2008
vn 0.2036 -0.9393 0.2760
vn 0.0552 -0.6449 0.7623
vn 0.5720 -0.4924 0.6561
vn -0.6869 -0.0366 0.7258
vn -0.7064 0.6979 0.1183
vn -0.9951 -0.0505 0.0848
vn -0.7064 0.6979 0.1183
vn -0.6468 -0.0484 -0.7612
vn -0.9951 -0.0505 0.0848
vn -0.7064 0.6979 0.1183
vn -0.4051 0.6728 -0.6191
vn -0.6468 -0.0484 -0.7612
vn -0.4051 0.6728 -0.6191
vn -0.0011 -0.0226 -0.9997
vn -0.6468 -0.0484 -0.7612
vn -0.4051 0.6728 -0.6191
vn 0.0036 0.5734 -0.8193
vn -0.0011 -0.0226 -0.9997
vn 0.0036 0.5734 -0.8193
vn 0.1812 -0.0082 -0.9834
vn -0.0011 -0.0226 -0.9997
vn 0.0036 0.5734 -0.8193
vn 0.1573 0.2496 -0.9555
vn 0.1812 -0.0082 -0.9834
vn 0.1573 0.2496 -0.9555
vn 0.0534 -0.0114 -0.9985
vn 0.1812 -0.0082 -0.9834
vn 0.1573 0.2496 -0.9555
vn 0.0385 0.2743 -0.9609
vn 0.0534 -0.0114 -0.9985
vn 0.0385 0.2743 -0.9609
vn -0.6369 -0.0177 -0.7708
vn 0.0534 -0.0114 -0.9985
vn 0.0385 0.2743 -0.9609
vn -0.5835 0.3926 -0.7109
vn -0.6369 -0.0177 -0.7708
vn -0.5835 0.3926 -0.7109
vn -0.9211 0.3169 -0.2260
vn -0.6369 -0.0177 -0.7708
vn -0.9211 0.3169 -0.2260
vn -0.9745 -0.0152 -0.2237
vn -0.6369 -0.0177 -0.7708
vn -0.9211 0.3169 -0.2260
vn -0.9117 0.3393 -0.2318
vn -0.9745 -0.0152 -0.2237
vn -0.9117 0.3393 -0.2318
vn -0.9745 -0.0159 -0.2240
vn -0.9745 -0.0152 -0.2237
vn -0.9117 0.3393 -0.2318
vn -0.7539 0.5387 -0.3761
vn -0.9745 -0.0159 -0.2240
vn -0.7539 0.5387 -0.3761
vn -0.8970 -0.0303 -0.4411
vn -0.9745 -0.0159 -0.2240
vn -0.7539 0.5387 -0.3761
vn -0.3701 0.6347 -0.6783
vn -0.8970 -0.0303 -0.4411
vn -0.3701 0.6347 -0.6783
vn -0.4291 -0.0488 -0.9020
vn -0.8970 -0.0303 -0.4411
vn -0.3701 0.6347 -0.6783
vn 0.4522 0.6144 -0.6465
vn -0.4291 -0.0488 -0.9020
vn 0.4522 0.6144 -0.6465
vn 0.5003 -0.0474 -0.8646
vn -0.4291 -0.0488 -0.9020
vn 0.4522 0.6144 -0.6465
vn 0.9651 -0.0210 -0.2611
vn 0.5003 -0.0474 -0.8646
vn 0.4522 0.6144 -0.6465
vn 0.8446 0.4654 -0.2647
vn 0.9651 -0.0210 -0.2611
vn 0.8446 0.4654 -0.2647
vn 0.9940 -0.0090 -0.1088
vn 0.9651 -0.0210 -0.2611
vn 0.8446 0.4654 -0.2647
vn 0.9672 0.2288 -0.1106
vn 0.9940 -0.0090 -0.1088
vn 0.9672 0.2288 -0.1106
vn 0.9533 -0.0122 -0.3018
vn 0.9940 -0.0090 -0.1088
vn 0.9672 0.2288 -0.1106
vn 0.9183 0.2600 -0.2984
vn 0.9533 -0.0122 -0.3018
vn 0.9183 0.2600 -0.2984
vn 0.5671 -0.0168 -0.8235
vn 0.9533 -0.0122 -0.3018
vn 0.9183 0.2600 -0.2984
vn 0.5372 0.3565 -0.7644
vn 0.5671 -0.0168 -0.8235
vn 0.5372 0.3565 -0.7644
vn -0.0492 0.2859 -0.9570
vn 0.5671 -0.0168 -0.8235
vn -0.0492 0.2859 -0.9570
vn -0.0485 -0.0120 -0.9987
vn 0.5671 -0.0168 -0.8235
vn -0.0492 0.2859 -0.9570
vn -0.1498 0.3222 -0.9348
vn -0.0485 -0.0120 -0.9987
vn -0.1498 0.3222 -0.9348
vn -0.2002 -0.0109 -0.9797
vn -0.0485 -0.0120 -0.9987
vn -0.1498 0.3222 -0.9348
vn -0.0178 0.4639 -0.8857
vn -0.2002 -0.0109 -0.9797
vn -0.0178 0.4639 -0.8857
vn -0.0116 -0.0241 -0.9996
vn -0.2002 -0.0109 -0.9797
vn -0.0178 0.4639 -0.8857
vn 0.3521 0.7091 -0.6109
vn -0.0116 -0.0241 -0.9996
vn 0.3521 0.7091 -0.6109
vn 0.6567 -0.0094 -0.7541
vn -0.0116 -0.0241 -0.9996
vn 0.3521 0.7091 -0.6109
vn 0.6318 0.7665 0.1150
vn 0.6567 -0.0094 -0.7541
vn 0.6318 0.7665 0.1150
vn 0.9989 -0.0092 0.0461
vn 0.6567 -0.0094 -0.7541
vn 0.6318 0.7665 0.1150
vn 0.7209 -0.0312 0.6923
vn 0.9989 -0.0092 0.0461
vn 0.6318 0.7665 0.1150
vn 0.5777 0.5878 0.5664
vn 0.7209 -0.0312 0.6923
vn 0.5777 0.5878 0.5664
vn 0.5100 -0.0204 0.8599
vn 0.7209 -0.0312 0.6923
vn 0.5777 0.5878 0.5664
vn 0.4868 0.4567 0.7446
vn 0.5100 -0.0204 0.8599
vn 0.4868 0.4567 0.7446
vn 0.4516 -0.0144 0.8921
vn 0.5100 -0.0204 0.8599
vn 0.4868 0.4567 0.7446
vn 0.4411 0.3444 0.8287
vn 0.4516 -0.0144 0.8921
vn 0.4411 0.3444 0.8287
vn 0.9178 -0.0200 0.3965
vn 0.4516 -0.0144 0.8921
vn 0.4411 0.3444 0.8287
vn 0.8001 0.4544 0.3915
vn 0.9178 -0.0200 0.3965
vn 0.8001 0.4544 0.3915
vn 0.8296 0.4344 -0.3508
vn 0.9178 -0.0200 0.3965
vn 0.8296 0.4344 -0.3508
vn 0.9103 -0.0121 -0.4139
vn 0.9178 -0.0200 0.3965
vn 0.8296 0.4344 -0.3508
vn 0.7178 0.4835 -0.5010
vn 0.9103 -0.0121 -0.4139
vn 0.7178 0.4835 -0.5010
vn 0.7973 -0.0052 -0.6036
vn 0.9103 -0.0121 -0.4139
vn 0.7178 0.4835 -0.5010
vn 0.6219 0.4667 -0.6288
vn 0.7973 -0.0052 -0.6036
vn 0.6219 0.4667 -0.6288
vn 0.6230 0.0073 -0.7822
vn 0.7973 -0.0052 -0.6036
vn 0.6219 0.4667 -0.6288
vn 0.6031 0.5211 -0.6040
vn 0.6230 0.0073 -0.7822
vn 0.6031 0.5211 -0.6040
vn 0.7192 -0.0056 -0.6948
vn 0.6230 0.0073 -0.7822
vn 0.6031 0.5211 -0.6040
vn 0.7730 0.6311 -0.0638
vn 0.7192 -0.0056 -0.6948
vn 0.7730 0.6311 -0.0638
vn 0.9903 -0.0486 0.1303
vn 0.7192 -0.0056 -0.6948
vn 0.7730 0.6311 -0.0638
vn 0.1732 0.6868 0.7059
vn 0.9903 -0.0486 0.1303
vn 0.1732 0.6868 0.7059
vn 0.3441 -0.0510 0.9375
vn 0.9903 -0.0486 0.1303
vn 0.1732 0.6868 0.7059
vn -0.3140 -0.0382 0.9487
vn 0.3441 -0.0510 0.9375
vn 0.1732 0.6868 0.7059
vn -0.1859 0.6375 0.7477
vn -0.3140 -0.0382 0.9487
vn -0.1859 0.6375 0.7477
vn -0.3888 -0.0326 0.9207
vn -0.3140 -0.0382 0.9487
vn -0.1859 0.6375 0.7477
vn -0.2960 0.5640 0.7709
vn -0.3888 -0.0326 0.9207
vn -0.2960 0.5640 0.7709
vn -0.5815 -0.0207 0.8132
vn -0.3888 -0.0326 0.9207
vn -0.2960 0.5640 0.7709
vn -0.4988 0.4972 0.7099
vn -0.5815 -0.0207 0.8132
vn -0.4988 0.4972 0.7099
vn -0.6829 -0.0161 0.7304
vn -0.5815 -0.0207 0.8132
vn -0.4988 0.4972 0.7099
vn -0.6044 0.4437 0.6617
vn -0.6829 -0.0161 0.7304
vn -0.6044 0.4437 0.6617
vn 0.0122 -0.0215 0.9997
vn -0.6829 -0.0161 0.7304
vn -0.6044 0.4437 0.6617
vn 0.0519 0.4751 0.8784
vn 0.0122 -0.0215 0.9997
vn 0.0519 0.4751 0.8784
vn 0.6120 0.3550 0.7067
vn 0.0122 -0.0215 0.9997
vn 0.6120 0.3550 0.7067
vn 0.6714 -0.0154 0.7409
vn 0.0122 -0.0215 0.9997
vn 0.6120 0.3550 0.7067
vn 0.5835 0.3923 0.7111
vn 0.6714 -0.0154 0.7409
vn 0.5835 0.3923 0.7111
vn 0.6473 -0.0194 0.7620
vn 0.6714 -0.0154 0.7409
vn 0.5835 0.3923 0.7111
vn 0.3670 0.5737 0.7322
vn 0.6473 -0.0194 0.7620
vn 0.3670 0.5737 0.7322
vn 0.4369 -0.0359 0.8988
vn 0.6473 -0.0194 0.7620
vn 0.3670 0.5737 0.7322
vn -0.1226 0.6876 0.7157
vn 0.4369 -0.0359 0.8988
vn -0.1226 0.6876 0.7157
vn -0.2655 -0.0538 0.9626
vn 0.4369 -0.0359 0.8988
vn -0.1226 0.6876 0.7157
vn -0.9486 -0.0523 0.3122
vn -0.2655 -0.0538 0.9626
vn -0.1226 0.6876 0.7157
vn -0.7430 0.6572 0.1263
vn -0.9486 -0.0523 0.3122
vn -0.7430 0.6572 0.1263
vn -0.8825 -0.0200 -0.4699
vn -0.9486 -0.0523 0.3122
vn -0.7430 0.6572 0.1263
vn -0.7467 0.5666 -0.3484
vn -0.8825 -0.0200 -0.4699
vn -0.7467 0.5666 -0.3484
vn -0.8067 -0.0083 -0.5909
vn -0.8825 -0.0200 -0.4699
vn -0.7467 0.5666 -0.3484
vn -0.7793 0.2680 -0.5664
vn -0.8067 -0.0083 -0.5909
vn -0.7793 0.2680 -0.5664
vn -0.8644 -0.0132 -0.5026
vn -0.8067 -0.0083 -0.5909
vn -0.7793 0.2680 -0.5664
vn -0.8293 0.2911 -0.4771
vn -0.8644 -0.0132 -0.5026
vn -0.8293 0.2911 -0.4771
vn -0.9085 -0.0203 0.4173
vn -0.8644 -0.0132 -0.5026
vn -0.8293 0.2911 -0.4771
vn -0.8006 0.4548 0.3902
vn -0.9085 -0.0203 0.4173
vn -0.8006 0.4548 0.3902
vn -0.3131 0.3359 0.8883
vn -0.9085 -0.0203 0.4173
vn -0.3131 0.3359 0.8883
vn -0.2998 -0.0134 0.9539
vn -0.9085 -0.0203 0.4173
vn -0.3131 0.3359 0.8883
vn -0.4292 0.5127 0.7435
vn -0.2998 -0.0134 0.9539
vn -0.4292 0.5127 0.7435
vn -0.4615 -0.0219 0.8869
vn -0.2998 -0.0134 0.9539
vn -0.4292 0.5127 0.7435
vn -0.5234 0.6499 0.5510
vn -0.4615 -0.0219 0.8869
vn -0.5234 0.6499 0.5510
vn -0.6869 -0.0366 0.7258
vn -0.4615 -0.0219 0.8869
vn -0.5234 0.6499 0.5510
vn -0.7064 0.6979 0.1183
vn -0.6869 -0.0366 0.7258
vn -0.5234 0.6499 0.5510
vn -0.1939 0.9810 -0.0114
vn -0.7064 0.6979 0.1183
vn -0.1939 0.9810 -0.0114
vn -0.4051 0.6728 -0.6191
vn -0.7064 0.6979 0.1183
vn -0.1939 0.9810 -0.0114
vn -0.1697 0.9745 -0.1467
vn -0.4051 0.6728 -0.6191
vn -0.1697 0.9745 -0.1467
vn 0.0036 0.5734 -0.8193
vn -0.4051 0.6728 -0.6191
vn 0.0016 0.8533 -0.5215
vn 0.0036 0.5734 -0.8193
vn -0.1697 0.9745 -0.1467
vn -0.1939 0.9810 -0.0114
vn 0.0016 0.8533 -0.5215
vn -0.1697 0.9745 -0.1467
vn -0.2316 0.9632 0.1361
vn 0.0016 0.8533 -0.5215
vn -0.1939 0.9810 -0.0114
vn -0.5234 0.6499 0.5510
vn -0.2316 0.9632 0.1361
vn -0.1939 0.9810 -0.0114
vn -0.4292 0.5127 0.7435
vn -0.2316 0.9632 0.1361
vn -0.5234 0.6499 0.5510
vn -0.2542 0.9025 0.3476
vn -0.2316 0.9632 0.1361
vn -0.4292 0.5127 0.7435
vn -0.3131 0.3359 0.8883
vn -0.2542 0.9025 0.3476
vn -0.4292 0.5127 0.7435
vn -0.2406 0.8571 0.4555
vn -0.2542 0.9025 0.3476
vn -0.3131 0.3359 0.8883
vn -0.8006 0.4548 0.3902
vn -0.2406 0.8571 0.4555
vn -0.3131 0.3359 0.8883
vn -0.2577 0.9622 0.0886
vn -0.2406 0.8571 0.4555
vn -0.8006 0.4548 0.3902
vn -0.4605 0.8728 -0.1617
vn -0.2577 0.9622 0.0886
vn -0.8006 0.4548 0.3902
vn -0.8293 0.2911 -0.4771
vn -0.4605 0.8728 -0.1617
vn -0.8006 0.4548 0.3902
vn -0.4223 0.8753 -0.2355
vn -0.4605 0.8728 -0.1617
vn -0.8293 0.2911 -0.4771
vn -0.7793 0.2680 -0.5664
vn -0.4223 0.8753 -0.2355
vn -0.8293 0.2911 -0.4771
vn -0.4502 0.8581 -0.2470
vn -0.4223 0.8753 -0.2355
vn -0.7793 0.2680 -0.5664
vn -0.7467 0.5666 -0.3484
vn -0.4502 0.8581 -0.2470
vn -0.7793 0.2680 -0.5664
vn -0.2440 0.9660 0.0850
vn -0.4502 0.8581 -0.2470
vn -0.7467 0.5666 -0.3484
vn -0.7430 0.6572 0.1263
vn -0.2440 0.9660 0.0850
vn -0.7467 0.5666 -0.3484
vn -0.1226 0.6876 0.7157
vn -0.2440 0.9660 0.0850
vn -0.7430 0.6572 0.1263
vn -0.1226 0.6876 0.7157
vn -0.0522 0.9628 0.2650
vn -0.2440 0.9660 0.0850
vn -0.0522 0.9628 0.2650
vn -0.4502 0.8581 -0.2470
vn -0.2440 0.9660 0.0850
vn -0.0522 0.9628 0.2650
vn 0.1857 0.9171 0.3528
vn -0.4502 0.8581 -0.2470
vn 0.1857 0.9171 0.3528
vn -0.4223 0.8753 -0.2355
vn -0.4502 0.8581 -0.2470
vn 0.1857 0.9171 0.3528
vn 0.2404 0.8981 0.3682
vn -0.4223 0.8753 -0.2355
vn 0.2404 0.8981 0.3682
vn 0.1857 0.9171 0.3528
vn 0.5835 0.3923 0.7111
vn 0.1857 0.9171 0.3528
vn 0.3670 0.5737 0.7322
vn 0.5835 0.3923 0.7111
vn -0.0522 0.9628 0.2650
vn 0.3670 0.5737 0.7322
vn 0.1857 0.9171 0.3528
vn -0.0522 0.9628 0.2650
vn -0.1226 0.6876 0.7157
vn 0.3670 0.5737 0.7322
vn 0.6120 0.3550 0.7067
vn 0.2404 0.8981 0.3682
vn 0.5835 0.3923 0.7111
vn 0.2686 0.8809 0.3898
vn 0.2404 0.8981 0.3682
vn 0.6120 0.3550 0.7067
vn 0.2686 0.8809 0.3898
vn -0.4223 0.8753 -0.2355
vn 0.2404 0.8981 0.3682
vn 0.2686 0.8809 0.3898
vn -0.4605 0.8728 -0.1617
vn -0.4223 0.8753 -0.2355
vn 0.2686 0.8809 0.3898
vn -0.0010 0.9541 0.2996
vn -0.4605 0.8728 -0.1617
vn -0.0010 0.9541 0.2996
vn -0.2577 0.9622 0.0886
vn -0.4605 0.8728 -0.1617
vn -0.0010 0.9541 0.2996
vn -0.0092 1.0000 0.0025
vn -0.2577 0.9622 0.0886
vn -0.0092 1.0000 0.0025
vn -0.2174 0.9381 -0.2696
vn -0.2577 0.9622 0.0886
vn -0.2174 0.9381 -0.2696
vn -0.1085 0.8610 -0.4969
vn -0.2577 0.9622 0.0886
vn -0.1085 0.8610 -0.4969
vn -0.2406 0.8571 0.4555
vn -0.2577 0.9622 0.0886
vn -0.1085 0.8610 -0.4969
vn -0.0281 0.8500 -0.5261
vn -0.2406 0.8571 0.4555
vn -0.0281 0.8500 -0.5261
vn -0.2542 0.9025 0.3476
vn -0.2406 0.8571 0.4555
vn -0.0281 0.8500 -0.5261
vn -0.2316 0.9632 0.1361
vn -0.2542 0.9025 0.3476
vn -0.0281 0.8500 -0.5261
vn 0.0016 0.8533 -0.5215
vn -0.2316 0.9632 0.1361
vn -0.0281 0.8500 -0.5261
vn 0.1573 0.2496 -0.9555
vn 0.0016 0.8533 -0.5215
vn 0.1573 0.2496 -0.9555
vn 0.0036 0.5734 -0.8193
vn 0.0016 0.8533 -0.5215
vn 0.0385 0.2743 -0.9609
vn 0.1573 0.2496 -0.9555
vn -0.0281 0.8500 -0.5261
vn -0.1085 0.8610 -0.4969
vn 0.0385 0.2743 -0.9609
vn -0.0281 0.8500 -0.5261
vn -0.1085 0.8610 -0.4969
vn -0.5835 0.3926 -0.7109
vn 0.0385 0.2743 -0.9609
vn -0.2174 0.9381 -0.2696
vn -0.5835 0.3926 -0.7109
vn -0.1085 0.8610 -0.4969
vn -0.2174 0.9381 -0.2696
vn -0.4606 0.8593 -0.2225
vn -0.5835 0.3926 -0.7109
vn -0.4606 0.8593 -0.2225
vn -0.9211 0.3169 -0.2260
vn -0.5835 0.3926 -0.7109
vn -0.4606 0.8593 -0.2225
vn -0.4547 0.8677 -0.2009
vn -0.9211 0.3169 -0.2260
vn -0.4547 0.8677 -0.2009
vn -0.9117 0.3393 -0.2318
vn -0.9211 0.3169 -0.2260
vn -0.4547 0.8677 -0.2009
vn -0.3204 0.9254 -0.2026
vn -0.9117 0.3393 -0.2318
vn -0.3204 0.9254 -0.2026
vn -0.7539 0.5387 -0.3761
vn -0.9117 0.3393 -0.2318
vn -0.3204 0.9254 -0.2026
vn -0.1252 0.9565 -0.2634
vn -0.7539 0.5387 -0.3761
vn -0.1252 0.9565 -0.2634
vn -0.3701 0.6347 -0.6783
vn -0.7539 0.5387 -0.3761
vn -0.1252 0.9565 -0.2634
vn 0.1821 0.9473 -0.2636
vn -0.3701 0.6347 -0.6783
vn 0.1821 0.9473 -0.2636
vn 0.4522 0.6144 -0.6465
vn -0.3701 0.6347 -0.6783
vn 0.1821 0.9473 -0.2636
vn 0.8446 0.4654 -0.2647
vn 0.4522 0.6144 -0.6465
vn 0.5387 0.8253 -0.1693
vn 0.8446 0.4654 -0.2647
vn 0.1821 0.9473 -0.2636
vn -0.1252 0.9565 -0.2634
vn 0.5387 0.8253 -0.1693
vn 0.1821 0.9473 -0.2636
vn -0.3204 0.9254 -0.2026
vn 0.5387 0.8253 -0.1693
vn -0.1252 0.9565 -0.2634
vn 0.5165 0.8399 -0.1666
vn 0.5387 0.8253 -0.1693
vn -0.3204 0.9254 -0.2026
vn -0.4547 0.8677 -0.2009
vn 0.5165 0.8399 -0.1666
vn -0.3204 0.9254 -0.2026
vn 0.4326 0.8525 -0.2933
vn 0.5165 0.8399 -0.1666
vn -0.4547 0.8677 -0.2009
vn -0.4606 0.8593 -0.2225
vn 0.4326 0.8525 -0.2933
vn -0.4547 0.8677 -0.2009
vn -0.2174 0.9381 -0.2696
vn 0.4326 0.8525 -0.2933
vn -0.4606 0.8593 -0.2225
vn 0.2016 0.9248 -0.3225
vn 0.4326 0.8525 -0.2933
vn -0.2174 0.9381 -0.2696
vn -0.0092 1.0000 0.0025
vn 0.2016 0.9248 -0.3225
vn -0.2174 0.9381 -0.2696
vn 0.2945 0.9466 0.1311
vn 0.2016 0.9248 -0.3225
vn -0.0092 1.0000 0.0025
vn -0.0010 0.9541 0.2996
vn 0.2945 0.9466 0.1311
vn -0.0092 1.0000 0.0025
vn 0.3860 0.9212 -0.0478
vn 0.2945 0.9466 0.1311
vn -0.0010 0.9541 0.2996
vn 0.3860 0.9212 -0.0478
vn 0.8001 0.4544 0.3915
vn 0.2945 0.9466 0.1311
vn 0.3860 0.9212 -0.0478
vn 0.8296 0.4344 -0.3508
vn 0.8001 0.4544 0.3915
vn 0.3860 0.9212 -0.0478
vn 0.3037 0.9456 -0.1166
vn 0.8296 0.4344 -0.3508
vn 0.3037 0.9456 -0.1166
vn 0.7178 0.4835 -0.5010
vn 0.8296 0.4344 -0.3508
vn 0.3037 0.9456 -0.1166
vn 0.3121 0.9402 -0.1365
vn 0.7178 0.4835 -0.5010
vn 0.3121 0.9402 -0.1365
vn 0.6219 0.4667 -0.6288
vn 0.7178 0.4835 -0.5010
vn 0.3121 0.9402 -0.1365
vn 0.2601 0.9557 -0.1375
vn 0.6219 0.4667 -0.6288
vn 0.2601 0.9557 -0.1375
vn 0.6031 0.5211 -0.6040
vn 0.6219 0.4667 -0.6288
vn 0.2601 0.9557 -0.1375
vn 0.2373 0.9714 -0.0012
vn 0.6031 0.5211 -0.6040
vn 0.2373 0.9714 -0.0012
vn 0.7730 0.6311 -0.0638
vn 0.6031 0.5211 -0.6040
vn 0.2373 0.9714 -0.0012
vn 0.1732 0.6868 0.7059
vn 0.7730 0.6311 -0.0638
vn 0.2373 0.9714 -0.0012
vn 0.0898 0.9708 0.2223
vn 0.1732 0.6868 0.7059
vn 0.2601 0.9557 -0.1375
vn 0.0898 0.9708 0.2223
vn 0.2373 0.9714 -0.0012
vn 0.0519 0.9643 0.2597
vn 0.0898 0.9708 0.2223
vn 0.2601 0.9557 -0.1375
vn 0.3121 0.9402 -0.1365
vn 0.0519 0.9643 0.2597
vn 0.2601 0.9557 -0.1375
vn -0.0527 0.9548 0.2924
vn 0.0519 0.9643 0.2597
vn 0.3121 0.9402 -0.1365
vn 0.3037 0.9456 -0.1166
vn -0.0527 0.9548 0.2924
vn 0.3121 0.9402 -0.1365
vn -0.1682 0.9432 0.2864
vn -0.0527 0.9548 0.2924
vn 0.3037 0.9456 -0.1166
vn -0.1682 0.9432 0.2864
vn -0.4988 0.4972 0.7099
vn -0.0527 0.9548 0.2924
vn -0.4988 0.4972 0.7099
vn -0.2960 0.5640 0.7709
vn -0.0527 0.9548 0.2924
vn -0.2960 0.5640 0.7709
vn 0.0519 0.9643 0.2597
vn -0.0527 0.9548 0.2924
vn -0.1859 0.6375 0.7477
vn 0.0519 0.9643 0.2597
vn -0.2960 0.5640 0.7709
vn -0.1859 0.6375 0.7477
vn 0.0898 0.9708 0.2223
vn 0.0519 0.9643 0.2597
vn -0.1859 0.6375 0.7477
vn 0.1732 0.6868 0.7059
vn 0.0898 0.9708 0.2223
vn -0.1682 0.9432 0.2864
vn -0.6044 0.4437 0.6617
vn -0.4988 0.4972 0.7099
vn -0.1827 0.9352 0.3035
vn -0.6044 0.4437 0.6617
vn -0.1682 0.9432 0.2864
vn 0.3037 0.9456 -0.1166
vn -0.1827 0.9352 0.3035
vn -0.1682 0.9432 0.2864
vn 0.3860 0.9212 -0.0478
vn -0.1827 0.9352 0.3035
vn 0.3037 0.9456 -0.1166
vn -0.0010 0.9541 0.2996
vn -0.1827 0.9352 0.3035
vn 0.3860 0.9212 -0.0478
vn 0.0519 0.4751 0.8784
vn -0.1827 0.9352 0.3035
vn -0.0010 0.9541 0.2996
vn 0.0519 0.4751 0.8784
vn -0.6044 0.4437 0.6617
vn -0.1827 0.9352 0.3035
vn 0.2686 0.8809 0.3898
vn 0.0519 0.4751 0.8784
vn -0.0010 0.9541 0.2996
vn 0.2686 0.8809 0.3898
vn 0.6120 0.3550 0.7067
vn 0.0519 0.4751 0.8784
vn 0.5165 0.8399 -0.1666
vn 0.9672 0.2288 -0.1106
vn 0.5387 0.8253 -0.1693
vn 0.9672 0.2288 -0.1106
vn 0.8446 0.4654 -0.2647
vn 0.5387 0.8253 -0.1693
vn 0.9183 0.2600 -0.2984
vn 0.9672 0.2288 -0.1106
vn 0.5165 0.8399 -0.1666
vn 0.4326 0.8525 -0.2933
vn 0.9183 0.2600 -0.2984
vn 0.5165 0.8399 -0.1666
vn 0.4326 0.8525 -0.2933
vn 0.5372 0.3565 -0.7644
vn 0.9183 0.2600 -0.2984
vn 0.2016 0.9248 -0.3225
vn 0.5372 0.3565 -0.7644
vn 0.4326 0.8525 -0.2933
vn 0.0862 0.8779 -0.4710
vn 0.5372 0.3565 -0.7644
vn 0.2016 0.9248 -0.3225
vn 0.2945 0.9466 0.1311
vn 0.0862 0.8779 -0.4710
vn 0.2016 0.9248 -0.3225
vn 0.2784 0.8790 0.3870
vn 0.0862 0.8779 -0.4710
vn 0.2945 0.9466 0.1311
vn 0.8001 0.4544 0.3915
vn 0.2784 0.8790 0.3870
vn 0.2945 0.9466 0.1311
vn 0.4411 0.3444 0.8287
vn 0.2784 0.8790 0.3870
vn 0.8001 0.4544 0.3915
vn 0.2675 0.9111 0.3136
vn 0.2784 0.8790 0.3870
vn 0.4411 0.3444 0.8287
vn 0.4868 0.4567 0.7446
vn 0.2675 0.9111 0.3136
vn 0.4411 0.3444 0.8287
vn 0.3143 0.9306 0.1874
vn 0.2675 0.9111 0.3136
vn 0.4868 0.4567 0.7446
vn 0.5777 0.5878 0.5664
vn 0.3143 0.9306 0.1874
vn 0.4868 0.4567 0.7446
vn 0.3573 0.9340 0.0014
vn 0.3143 0.9306 0.1874
vn 0.5777 0.5878 0.5664
vn 0.6318 0.7665 0.1150
vn 0.3573 0.9340 0.0014
vn 0.5777 0.5878 0.5664
vn 0.3521 0.7091 -0.6109
vn 0.3573 0.9340 0.0014
vn 0.6318 0.7665 0.1150
vn 0.2233 0.8965 -0.3827
vn 0.3573 0.9340 0.0014
vn 0.3521 0.7091 -0.6109
vn -0.0178 0.4639 -0.8857
vn 0.2233 0.8965 -0.3827
vn 0.3521 0.7091 -0.6109
vn 0.0527 0.8925 -0.4479
vn 0.2233 0.8965 -0.3827
vn -0.0178 0.4639 -0.8857
vn 0.0527 0.8925 -0.4479
vn 0.3573 0.9340 0.0014
vn 0.2233 0.8965 -0.3827
vn 0.0527 0.8925 -0.4479
vn 0.3143 0.9306 0.1874
vn 0.3573 0.9340 0.0014
vn 0.0527 0.8925 -0.4479
vn 0.2675 0.9111 0.3136
vn 0.3143 0.9306 0.1874
vn 0.0527 0.8925 -0.4479
vn -0.0186 0.8502 -0.5261
vn 0.2675 0.9111 0.3136
vn -0.0186 0.8502 -0.5261
vn 0.2784 0.8790 0.3870
vn 0.2675 0.9111 0.3136
vn -0.0186 0.8502 -0.5261
vn 0.0862 0.8779 -0.4710
vn 0.2784 0.8790 0.3870
vn -0.0186 0.8502 -0.5261
vn -0.0492 0.2859 -0.9570
vn 0.0862 0.8779 -0.4710
vn 0.0862 0.8779 -0.4710
vn -0.0492 0.2859 -0.9570
vn 0.5372 0.3565 -0.7644
vn -0.1498 0.3222 -0.9348
vn -0.0492 0.2859 -0.9570
vn -0.0186 0.8502 -0.5261
vn 0.0527 0.8925 -0.4479
vn -0.1498 0.3222 -0.9348
vn -0.0186 0.8502 -0.5261
vn 0.0527 0.8925 -0.4479
vn -0.0178 0.4639 -0.8857
vn -0.1498 0.3222 -0.9348
# 1410 vertex normals

vt 0.6509 0.3145 0.0000
vt 0.6392 0.3276 0.0000
vt 0.6343 0.3237 0.0000
vt 0.6230 0.3428 0.0000
vt 0.6187 0.3408 0.0000
vt 0.6108 0.3599 0.0000
vt 0.6074 0.3594 0.0000
vt 0.6064 0.3740 0.0000
vt 0.6045 0.3750 0.0000
vt 0.6104 0.3818 0.0000
vt 0.6118 0.3799 0.0000
vt 0.6230 0.3818 0.0000
vt 0.6235 0.3789 0.0000
vt 0.6445 0.3750 0.0000
vt 0.6445 0.3706 0.0000
vt 0.6646 0.3677 0.0000
vt 0.6646 0.3618 0.0000
vt 0.6821 0.3594 0.0000
vt 0.6860 0.3530 0.0000
vt 0.6914 0.3647 0.0000
vt 0.6870 0.3701 0.0000
vt 0.6992 0.3774 0.0000
vt 0.6953 0.3818 0.0000
vt 0.7236 0.4160 0.0000
vt 0.7222 0.4199 0.0000
vt 0.7329 0.4204 0.0000
vt 0.7334 0.4238 0.0000
vt 0.7402 0.4180 0.0000
vt 0.7422 0.4209 0.0000
vt 0.7476 0.4121 0.0000
vt 0.7437 0.4102 0.0000
vt 0.7427 0.3687 0.0000
vt 0.7368 0.3672 0.0000
vt 0.7417 0.3555 0.0000
vt 0.7354 0.3535 0.0000
vt 0.7432 0.3418 0.0000
vt 0.7368 0.3384 0.0000
vt 0.7529 0.3311 0.0000
vt 0.7573 0.3374 0.0000
vt 0.7900 0.3281 0.0000
vt 0.7925 0.3325 0.0000
vt 0.8076 0.3252 0.0000
vt 0.8105 0.3276 0.0000
vt 0.8203 0.3188 0.0000
vt 0.8228 0.3193 0.0000
vt 0.8218 0.3105 0.0000
vt 0.8237 0.3105 0.0000
vt 0.8164 0.3027 0.0000
vt 0.8135 0.3042 0.0000
vt 0.8032 0.2920 0.0000
vt 0.7998 0.2959 0.0000
vt 0.7622 0.2813 0.0000
vt 0.7588 0.2881 0.0000
vt 0.7476 0.2783 0.0000
vt 0.7417 0.2827 0.0000
vt 0.7349 0.2690 0.0000
vt 0.7427 0.2681 0.0000
vt 0.7393 0.2427 0.0000
vt 0.7466 0.2437 0.0000
vt 0.7412 0.2290 0.0000
vt 0.7471 0.2305 0.0000
vt 0.7466 0.2188 0.0000
vt 0.7510 0.2188 0.0000
vt 0.7505 0.2021 0.0000
vt 0.7534 0.1997 0.0000
vt 0.7402 0.1982 0.0000
vt 0.7412 0.1948 0.0000
vt 0.7275 0.2012 0.0000
vt 0.7285 0.2056 0.0000
vt 0.7183 0.2070 0.0000
vt 0.7202 0.2124 0.0000
vt 0.7012 0.2241 0.0000
vt 0.7056 0.2300 0.0000
vt 0.6909 0.2446 0.0000
vt 0.6963 0.2500 0.0000
vt 0.6855 0.2607 0.0000
vt 0.6880 0.2681 0.0000
vt 0.6631 0.2598 0.0000
vt 0.6646 0.2529 0.0000
vt 0.6382 0.2480 0.0000
vt 0.6382 0.2427 0.0000
vt 0.6089 0.2422 0.0000
vt 0.6079 0.2378 0.0000
vt 0.5923 0.2427 0.0000
vt 0.5898 0.2402 0.0000
vt 0.5840 0.2495 0.0000
vt 0.5874 0.2505 0.0000
vt 0.5903 0.2656 0.0000
vt 0.5962 0.2637 0.0000
vt 0.6118 0.2822 0.0000
vt 0.6177 0.2788 0.0000
vt 0.6343 0.3013 0.0000
vt 0.6401 0.2979 0.0000
vt 0.6582 0.3149 0.0000
vt 0.6553 0.3262 0.0000
vt 0.6401 0.3374 0.0000
vt 0.6230 0.3506 0.0000
vt 0.6167 0.3647 0.0000
vt 0.6216 0.3701 0.0000
vt 0.6328 0.3652 0.0000
vt 0.6558 0.3574 0.0000
vt 0.6729 0.3496 0.0000
vt 0.6914 0.3413 0.0000
vt 0.6953 0.3540 0.0000
vt 0.7021 0.3677 0.0000
vt 0.7241 0.4067 0.0000
vt 0.7314 0.4136 0.0000
vt 0.7383 0.4116 0.0000
vt 0.7397 0.4023 0.0000
vt 0.7285 0.3613 0.0000
vt 0.7261 0.3467 0.0000
vt 0.7271 0.3301 0.0000
vt 0.7412 0.3228 0.0000
vt 0.7773 0.3203 0.0000
vt 0.8013 0.3198 0.0000
vt 0.8105 0.3188 0.0000
vt 0.8115 0.3120 0.0000
vt 0.8018 0.3052 0.0000
vt 0.7798 0.2983 0.0000
vt 0.7461 0.2910 0.0000
vt 0.7314 0.2905 0.0000
vt 0.7026 0.3071 0.0000
vt 0.6709 0.3164 0.0000
vt 0.6582 0.2983 0.0000
vt 0.6387 0.2837 0.0000
vt 0.6177 0.2725 0.0000
vt 0.6035 0.2573 0.0000
vt 0.6079 0.2500 0.0000
vt 0.6279 0.2549 0.0000
vt 0.6528 0.2632 0.0000
vt 0.6738 0.2710 0.0000
vt 0.6924 0.2803 0.0000
vt 0.7241 0.2783 0.0000
vt 0.7266 0.2510 0.0000
vt 0.7305 0.2339 0.0000
vt 0.7363 0.2217 0.0000
vt 0.7427 0.2100 0.0000
vt 0.7368 0.2065 0.0000
vt 0.7256 0.2178 0.0000
vt 0.7163 0.2290 0.0000
vt 0.7080 0.2441 0.0000
vt 0.6997 0.2671 0.0000
vt 0.0042 0.8010 0.0000
vt 0.0065 0.8009 0.0000
vt 0.0126 0.7887 0.0000
vt 0.0077 0.8088 0.0000
vt 0.0097 0.8076 0.0000
vt 0.0193 0.8125 0.0000
vt 0.0206 0.8099 0.0000
vt 0.0456 0.8114 0.0000
vt 0.0468 0.8073 0.0000
vt 0.0661 0.8104 0.0000
vt 0.0676 0.8047 0.0000
vt 0.0829 0.8107 0.0000
vt 0.0880 0.8057 0.0000
vt 0.0914 0.8148 0.0000
vt 0.0859 0.8186 0.0000
vt 0.0952 0.8286 0.0000
vt 0.0902 0.8317 0.0000
vt 0.1068 0.8710 0.0000
vt 0.1044 0.8738 0.0000
vt 0.1140 0.8794 0.0000
vt 0.1136 0.8827 0.0000
vt 0.1216 0.8795 0.0000
vt 0.1224 0.8826 0.0000
vt 0.1294 0.8738 0.0000
vt 0.1267 0.8711 0.0000
vt 0.1371 0.8329 0.0000
vt 0.1321 0.8298 0.0000
vt 0.1401 0.8206 0.0000
vt 0.1346 0.8167 0.0000
vt 0.1438 0.8137 0.0000
vt 0.1387 0.8087 0.0000
vt 0.1554 0.8065 0.0000
vt 0.1578 0.8136 0.0000
vt 0.1904 0.8138 0.0000
vt 0.1913 0.8188 0.0000
vt 0.2118 0.8168 0.0000
vt 0.2135 0.8198 0.0000
vt 0.2252 0.8146 0.0000
vt 0.2271 0.8157 0.0000
vt 0.2286 0.8074 0.0000
vt 0.2307 0.8077 0.0000
vt 0.2260 0.7985 0.0000
vt 0.2231 0.7990 0.0000
vt 0.2124 0.7844 0.0000
vt 0.2081 0.7872 0.0000
vt 0.1781 0.7635 0.0000
vt 0.1729 0.7684 0.0000
vt 0.1653 0.7568 0.0000
vt 0.1587 0.7593 0.0000
vt 0.1622 0.7417 0.0000
vt 0.1696 0.7427 0.0000
vt 0.1755 0.7202 0.0000
vt 0.1821 0.7234 0.0000
vt 0.1870 0.7080 0.0000
vt 0.1919 0.7109 0.0000
vt 0.1982 0.7000 0.0000
vt 0.2026 0.7014 0.0000
vt 0.2058 0.6882 0.0000
vt 0.2091 0.6870 0.0000
vt 0.1992 0.6797 0.0000
vt 0.2009 0.6768 0.0000
vt 0.1858 0.6785 0.0000
vt 0.1854 0.6831 0.0000
vt 0.1722 0.6816 0.0000
vt 0.1724 0.6870 0.0000
vt 0.1462 0.6926 0.0000
vt 0.1484 0.6992 0.0000
vt 0.1287 0.7070 0.0000
vt 0.1318 0.7134 0.0000
vt 0.1141 0.7212 0.0000
vt 0.1142 0.7285 0.0000
vt 0.0948 0.7109 0.0000
vt 0.0976 0.7053 0.0000
vt 0.0750 0.6936 0.0000
vt 0.0767 0.6885 0.0000
vt 0.0518 0.6777 0.0000
vt 0.0522 0.6733 0.0000
vt 0.0364 0.6733 0.0000
vt 0.0348 0.6704 0.0000
vt 0.0269 0.6772 0.0000
vt 0.0297 0.6794 0.0000
vt 0.0283 0.6938 0.0000
vt 0.0340 0.6938 0.0000
vt 0.0414 0.7173 0.0000
vt 0.0476 0.7158 0.0000
vt 0.0569 0.7412 0.0000
vt 0.0628 0.7397 0.0000
vt 0.0682 0.7576 0.0000
vt 0.0750 0.7601 0.0000
vt 0.0539 0.7664 0.0000
vt 0.0506 0.7615 0.0000
vt 0.0348 0.7756 0.0000
vt 0.0316 0.7728 0.0000
vt 0.0152 0.7899 0.0000
vt 0.0276 0.7961 0.0000
vt 0.0304 0.8021 0.0000
vt 0.0399 0.8033 0.0000
vt 0.0352 0.7870 0.0000
vt 0.0521 0.7758 0.0000
vt 0.0691 0.7695 0.0000
vt 0.0858 0.7650 0.0000
vt 0.0769 0.7471 0.0000
vt 0.0637 0.7268 0.0000
vt 0.0505 0.7102 0.0000
vt 0.0418 0.6926 0.0000
vt 0.0477 0.6873 0.0000
vt 0.0646 0.6973 0.0000
vt 0.0823 0.7119 0.0000
vt 0.0988 0.7266 0.0000
vt 0.1142 0.7410 0.0000
vt 0.1127 0.7717 0.0000
vt 0.0963 0.7965 0.0000
vt 0.0788 0.7959 0.0000
vt 0.0609 0.7985 0.0000
vt 0.0981 0.8063 0.0000
vt 0.1006 0.8207 0.0000
vt 0.1096 0.8625 0.0000
vt 0.1145 0.8710 0.0000
vt 0.1212 0.8710 0.0000
vt 0.1250 0.8627 0.0000
vt 0.1263 0.8220 0.0000
vt 0.1283 0.8080 0.0000
vt 0.1317 0.7993 0.0000
vt 0.1471 0.7640 0.0000
vt 0.1498 0.7468 0.0000
vt 0.1617 0.7246 0.0000
vt 0.1757 0.7095 0.0000
vt 0.1884 0.7000 0.0000
vt 0.1949 0.6938 0.0000
vt 0.1907 0.6895 0.0000
vt 0.1794 0.6936 0.0000
vt 0.1643 0.7009 0.0000
vt 0.1467 0.7131 0.0000
vt 0.1307 0.7300 0.0000
vt 0.1459 0.7979 0.0000
vt 0.1591 0.7701 0.0000
vt 0.1885 0.7855 0.0000
vt 0.2075 0.7965 0.0000
vt 0.2190 0.8057 0.0000
vt 0.2161 0.8119 0.0000
vt 0.2032 0.8094 0.0000
vt 0.1752 0.8038 0.0000
# 284 texture coords

o SM_Starfish_03_LOD0
g SM_Starfish_03_LOD0
usemtl MAT_Sea_Shells
s 1
f 161/3/1 45/2/2 160/1/3 
f 46/4/4 45/2/5 161/3/6 
f 162/5/7 46/4/8 161/3/9 
f 47/6/10 46/4/11 162/5/12 
f 117/7/13 47/6/14 162/5/15 
f 48/8/16 47/6/17 117/7/18 
f 1/9/19 48/8/20 117/7/21 
f 118/10/22 48/8/23 1/9/24 
f 2/11/25 48/8/26 118/10/27 
f 3/12/28 2/11/29 118/10/30 
f 4/13/31 2/11/32 3/12/33 
f 120/14/34 4/13/35 3/12/36 
f 6/15/37 4/13/38 120/14/39 
f 5/16/40 6/15/41 120/14/42 
f 7/17/43 6/15/44 5/16/45 
f 122/18/46 7/17/47 5/16/48 
f 56/19/49 7/17/50 122/18/51 
f 58/20/52 56/19/53 122/18/54 
f 124/21/55 58/20/56 122/18/57 
f 8/22/58 58/20/59 124/21/60 
f 126/23/61 8/22/62 124/21/63 
f 9/24/64 8/22/65 126/23/66 
f 127/25/67 9/24/68 126/23/69 
f 61/26/70 9/24/71 127/25/72 
f 128/27/73 61/26/74 127/25/75 
f 62/28/76 61/26/77 128/27/78 
f 130/29/79 62/28/80 128/27/81 
f 10/30/82 62/28/83 130/29/84 
f 63/31/85 62/28/86 10/30/87 
f 132/32/88 63/31/89 10/30/90 
f 70/33/91 63/31/92 132/32/93 
f 133/34/94 70/33/95 132/32/96 
f 68/35/97 70/33/98 133/34/99 
f 12/36/100 68/35/101 133/34/102 
f 11/37/103 68/35/104 12/36/105 
f 71/38/106 11/37/107 12/36/108 
f 13/39/109 71/38/110 12/36/111 
f 73/40/112 71/38/113 13/39/114 
f 14/41/115 73/40/116 13/39/117 
f 15/42/118 73/40/119 14/41/120 
f 16/43/121 15/42/122 14/41/123 
f 76/44/124 15/42/125 16/43/126 
f 17/45/127 76/44/128 16/43/129 
f 18/46/130 76/44/131 17/45/132 
f 137/47/133 18/46/134 17/45/135 
f 19/48/136 18/46/137 137/47/138 
f 77/49/139 18/46/140 19/48/141 
f 20/50/142 77/49/143 19/48/144 
f 21/51/145 77/49/146 20/50/147 
f 140/52/148 21/51/149 20/50/150 
f 22/53/151 21/51/152 140/52/153 
f 23/54/154 22/53/155 140/52/156 
f 24/55/157 22/53/158 23/54/159 
f 25/56/160 24/55/161 23/54/162 
f 27/57/163 25/56/164 23/54/165 
f 26/58/166 25/56/167 27/57/168 
f 28/59/169 26/58/170 27/57/171 
f 102/60/172 26/58/173 28/59/174 
f 29/61/175 102/60/176 28/59/177 
f 104/62/178 102/60/179 29/61/180 
f 30/63/181 104/62/182 29/61/183 
f 31/64/184 104/62/185 30/63/186 
f 143/65/187 31/64/188 30/63/189 
f 32/66/190 31/64/191 143/65/192 
f 145/67/193 32/66/194 143/65/195 
f 33/68/196 32/66/197 145/67/198 
f 111/69/199 32/66/200 33/68/201 
f 34/70/202 111/69/203 33/68/204 
f 35/71/205 111/69/206 34/70/207 
f 147/72/208 35/71/209 34/70/210 
f 108/73/211 35/71/212 147/72/213 
f 148/74/214 108/73/215 147/72/216 
f 36/75/217 108/73/218 148/74/219 
f 150/76/220 36/75/221 148/74/222 
f 114/77/223 36/75/224 150/76/225 
f 37/78/226 114/77/227 150/76/228 
f 151/79/229 37/78/230 150/76/231 
f 38/80/232 37/78/233 151/79/234 
f 153/81/235 38/80/236 151/79/237 
f 39/82/238 38/80/239 153/81/240 
f 154/83/241 39/82/242 153/81/243 
f 40/84/244 39/82/245 154/83/246 
f 155/85/247 40/84/248 154/83/249 
f 156/86/250 40/84/251 155/85/252 
f 41/87/253 40/84/254 156/86/255 
f 42/88/256 41/87/257 156/86/258 
f 92/89/259 41/87/260 42/88/261 
f 43/90/262 92/89/263 42/88/264 
f 90/91/265 92/89/266 43/90/267 
f 157/92/268 90/91/269 43/90/270 
f 89/93/271 90/91/272 157/92/273 
f 160/1/274 89/93/275 157/92/276 
f 44/94/277 89/93/278 160/1/279 
f 45/2/280 44/94/281 160/1/282 
f 87/95/283 44/94/284 45/2/285 
f 53/96/286 87/95/287 45/2/288 
f 46/4/289 53/96/290 45/2/291 
f 52/97/292 53/96/293 46/4/294 
f 47/6/295 52/97/296 46/4/297 
f 51/98/298 52/97/299 47/6/300 
f 48/8/301 51/98/302 47/6/303 
f 2/11/304 51/98/305 48/8/306 
f 49/99/307 51/98/308 2/11/309 
f 4/13/310 49/99/311 2/11/312 
f 50/100/313 49/99/314 4/13/315 
f 50/100/316 51/98/317 49/99/318 
f 50/100/319 52/97/320 51/98/321 
f 50/100/322 55/101/323 52/97/324 
f 55/101/325 53/96/326 52/97/327 
f 55/101/328 87/95/329 53/96/330 
f 55/101/331 54/102/332 87/95/333 
f 54/102/334 55/101/335 7/17/336 
f 55/101/337 6/15/338 7/17/339 
f 50/100/340 6/15/341 55/101/342 
f 50/100/343 4/13/344 6/15/345 
f 56/19/346 54/102/347 7/17/348 
f 85/103/349 54/102/350 56/19/351 
f 57/104/352 85/103/353 56/19/354 
f 58/20/355 57/104/356 56/19/357 
f 66/105/358 57/104/359 58/20/360 
f 8/22/361 66/105/362 58/20/363 
f 59/106/364 66/105/365 8/22/366 
f 9/24/367 59/106/368 8/22/369 
f 60/107/370 59/106/371 9/24/372 
f 61/26/373 60/107/374 9/24/375 
f 64/108/376 60/107/377 61/26/378 
f 62/28/379 64/108/380 61/26/381 
f 63/31/382 64/108/383 62/28/384 
f 65/109/385 64/108/386 63/31/387 
f 65/109/388 60/107/389 64/108/390 
f 65/109/391 59/106/392 60/107/393 
f 65/109/394 69/110/395 59/106/396 
f 69/110/397 66/105/398 59/106/399 
f 69/110/400 67/111/401 66/105/402 
f 67/111/403 57/104/404 66/105/405 
f 67/111/406 85/103/407 57/104/408 
f 67/111/409 83/112/410 85/103/411 
f 11/37/412 83/112/413 67/111/414 
f 68/35/415 11/37/416 67/111/417 
f 69/110/418 68/35/419 67/111/420 
f 69/110/421 70/33/422 68/35/423 
f 65/109/424 70/33/425 69/110/426 
f 65/109/427 63/31/428 70/33/429 
f 82/113/430 83/112/431 11/37/432 
f 71/38/433 82/113/434 11/37/435 
f 72/114/436 82/113/437 71/38/438 
f 73/40/439 72/114/440 71/38/441 
f 74/115/442 72/114/443 73/40/444 
f 15/42/445 74/115/446 73/40/447 
f 75/116/448 74/115/449 15/42/450 
f 76/44/451 75/116/452 15/42/453 
f 78/117/454 75/116/455 76/44/456 
f 78/117/457 74/115/458 75/116/459 
f 18/46/460 78/117/461 76/44/462 
f 77/49/463 78/117/464 18/46/465 
f 80/118/466 78/117/467 77/49/468 
f 80/118/469 74/115/470 78/117/471 
f 80/118/472 79/119/473 74/115/474 
f 79/119/475 72/114/476 74/115/477 
f 79/119/478 81/120/479 72/114/480 
f 81/120/481 82/113/482 72/114/483 
f 81/120/484 100/121/485 82/113/486 
f 100/121/487 83/112/488 82/113/489 
f 100/121/490 84/122/491 83/112/492 
f 84/122/493 85/103/494 83/112/495 
f 84/122/496 86/123/497 85/103/498 
f 86/123/499 54/102/500 85/103/501 
f 86/123/502 87/95/503 54/102/504 
f 86/123/505 44/94/506 87/95/507 
f 86/123/508 88/124/509 44/94/510 
f 88/124/511 89/93/512 44/94/513 
f 88/124/514 97/125/515 89/93/516 
f 97/125/517 90/91/518 89/93/519 
f 97/125/520 91/126/521 90/91/522 
f 91/126/523 92/89/524 90/91/525 
f 91/126/526 93/127/527 92/89/528 
f 93/127/529 41/87/530 92/89/531 
f 93/127/532 40/84/533 41/87/534 
f 93/127/535 94/128/536 40/84/537 
f 91/126/538 94/128/539 93/127/540 
f 95/129/541 94/128/542 91/126/543 
f 97/125/544 95/129/545 91/126/546 
f 96/130/547 95/129/548 97/125/549 
f 95/129/550 96/130/551 38/80/552 
f 39/82/553 95/129/554 38/80/555 
f 39/82/556 94/128/557 95/129/558 
f 94/128/559 39/82/560 40/84/561 
f 96/130/562 37/78/563 38/80/564 
f 96/130/565 98/131/566 37/78/567 
f 97/125/568 98/131/569 96/130/570 
f 88/124/571 98/131/572 97/125/573 
f 99/132/574 98/131/575 88/124/576 
f 86/123/577 99/132/578 88/124/579 
f 84/122/580 99/132/581 86/123/582 
f 100/121/583 99/132/584 84/122/585 
f 113/133/586 99/132/587 100/121/588 
f 24/55/589 113/133/590 100/121/591 
f 81/120/592 24/55/593 100/121/594 
f 81/120/595 22/53/596 24/55/597 
f 79/119/598 22/53/599 81/120/600 
f 79/119/601 21/51/602 22/53/603 
f 80/118/604 21/51/605 79/119/606 
f 80/118/607 77/49/608 21/51/609 
f 25/56/610 113/133/611 24/55/612 
f 101/134/613 113/133/614 25/56/615 
f 26/58/616 101/134/617 25/56/618 
f 107/135/619 101/134/620 26/58/621 
f 102/60/622 107/135/623 26/58/624 
f 103/136/625 107/135/626 102/60/627 
f 104/62/628 103/136/629 102/60/630 
f 105/137/631 103/136/632 104/62/633 
f 31/64/634 105/137/635 104/62/636 
f 32/66/637 105/137/638 31/64/639 
f 106/138/640 105/137/641 32/66/642 
f 106/138/643 103/136/644 105/137/645 
f 106/138/646 110/139/647 103/136/648 
f 110/139/649 107/135/650 103/136/651 
f 110/139/652 109/140/653 107/135/654 
f 109/140/655 101/134/656 107/135/657 
f 109/140/658 112/141/659 101/134/660 
f 112/141/661 109/140/662 108/73/663 
f 109/140/664 35/71/665 108/73/666 
f 110/139/667 35/71/668 109/140/669 
f 110/139/670 111/69/671 35/71/672 
f 106/138/673 111/69/674 110/139/675 
f 106/138/676 32/66/677 111/69/678 
f 36/75/679 112/141/680 108/73/681 
f 115/142/682 112/141/683 36/75/684 
f 115/142/685 101/134/686 112/141/687 
f 115/142/688 113/133/689 101/134/690 
f 115/142/691 99/132/692 113/133/693 
f 115/142/694 114/77/695 99/132/696 
f 114/77/697 115/142/698 36/75/699 
f 114/77/700 98/131/701 99/132/702 
f 98/131/703 114/77/704 37/78/705 
f 117/145/706 116/144/707 1/143/708 
f 116/144/709 118/146/710 1/143/711 
f 116/144/712 119/147/713 118/146/714 
f 119/147/715 3/148/716 118/146/717 
f 119/147/718 121/149/719 3/148/720 
f 121/149/721 120/150/722 3/148/723 
f 121/149/724 188/151/725 120/150/726 
f 188/151/727 5/152/728 120/150/729 
f 188/151/730 189/153/731 5/152/732 
f 189/153/733 122/154/734 5/152/735 
f 189/153/736 193/155/737 122/154/738 
f 193/155/739 123/156/740 122/154/741 
f 123/156/742 124/157/743 122/154/744 
f 123/156/745 125/158/746 124/157/747 
f 125/158/748 126/159/749 124/157/750 
f 125/158/751 195/160/752 126/159/753 
f 195/160/754 127/161/755 126/159/756 
f 195/160/757 196/162/758 127/161/759 
f 196/162/760 128/163/761 127/161/762 
f 196/162/763 129/164/764 128/163/765 
f 129/164/766 130/165/767 128/163/768 
f 129/164/769 10/166/770 130/165/771 
f 129/164/772 131/167/773 10/166/774 
f 131/167/775 132/168/776 10/166/777 
f 131/167/778 222/169/779 132/168/780 
f 222/169/781 133/170/782 132/168/783 
f 222/169/784 134/171/785 133/170/786 
f 134/171/787 12/172/788 133/170/789 
f 134/171/790 236/173/791 12/172/792 
f 236/173/793 235/174/794 12/172/795 
f 235/174/796 13/175/797 12/172/798 
f 235/174/799 135/176/800 13/175/801 
f 135/176/802 14/177/803 13/175/804 
f 135/176/805 136/178/806 14/177/807 
f 136/178/808 16/179/809 14/177/810 
f 136/178/811 228/180/812 16/179/813 
f 228/180/814 17/181/815 16/179/816 
f 228/180/817 138/182/818 17/181/819 
f 138/182/820 137/183/821 17/181/822 
f 138/182/823 19/184/824 137/183/825 
f 138/182/826 139/185/827 19/184/828 
f 139/185/829 20/186/830 19/184/831 
f 139/185/832 226/187/833 20/186/834 
f 226/187/835 140/188/836 20/186/837 
f 226/187/838 225/189/839 140/188/840 
f 225/189/841 23/190/842 140/188/843 
f 225/189/844 224/191/845 23/190/846 
f 224/191/847 207/192/848 23/190/849 
f 207/192/850 27/193/851 23/190/852 
f 207/192/853 142/194/854 27/193/855 
f 142/194/856 28/195/857 27/193/858 
f 142/194/859 141/196/860 28/195/861 
f 141/196/862 29/197/863 28/195/864 
f 141/196/865 208/198/866 29/197/867 
f 208/198/868 30/199/869 29/197/870 
f 208/198/871 144/200/872 30/199/873 
f 144/200/874 143/201/875 30/199/876 
f 144/200/877 146/202/878 143/201/879 
f 146/202/880 145/203/881 143/201/882 
f 146/202/883 33/204/884 145/203/885 
f 146/202/886 219/205/887 33/204/888 
f 219/205/889 34/206/890 33/204/891 
f 219/205/892 218/207/893 34/206/894 
f 218/207/895 147/208/896 34/206/897 
f 218/207/898 217/209/899 147/208/900 
f 217/209/901 148/210/902 147/208/903 
f 217/209/904 149/211/905 148/210/906 
f 149/211/907 150/212/908 148/210/909 
f 149/211/910 221/213/911 150/212/912 
f 221/213/913 152/214/914 150/212/915 
f 152/214/916 151/215/917 150/212/918 
f 152/214/919 180/216/920 151/215/921 
f 180/216/922 153/217/923 151/215/924 
f 180/216/925 181/218/926 153/217/927 
f 181/218/928 154/219/929 153/217/930 
f 181/218/931 177/220/932 154/219/933 
f 177/220/934 155/221/935 154/219/936 
f 177/220/937 156/222/938 155/221/939 
f 177/220/940 175/223/941 156/222/942 
f 175/223/943 42/224/944 156/222/945 
f 175/223/946 174/225/947 42/224/948 
f 174/225/949 43/226/950 42/224/951 
f 174/225/952 173/227/953 43/226/954 
f 173/227/955 157/228/956 43/226/957 
f 173/227/958 158/229/959 157/228/960 
f 158/229/961 160/230/962 157/228/963 
f 158/229/964 171/231/965 160/230/966 
f 171/231/967 159/232/968 160/230/969 
f 159/232/970 161/233/971 160/230/972 
f 159/232/973 168/234/974 161/233/975 
f 168/234/976 162/235/977 161/233/978 
f 168/234/979 163/236/980 162/235/981 
f 163/236/982 117/145/983 162/235/984 
f 163/236/985 116/144/986 117/145/987 
f 163/236/988 165/237/989 116/144/990 
f 165/237/991 119/147/992 116/144/993 
f 165/237/994 164/238/995 119/147/996 
f 164/238/997 121/149/998 119/147/999 
f 166/239/1000 121/149/1001 164/238/1002 
f 165/237/1003 166/239/1004 164/238/1005 
f 167/240/1006 166/239/1007 165/237/1008 
f 163/236/1009 167/240/1010 165/237/1011 
f 168/234/1012 167/240/1013 163/236/1014 
f 187/241/1015 167/240/1016 168/234/1017 
f 159/232/1018 187/241/1019 168/234/1020 
f 169/242/1021 187/241/1022 159/232/1023 
f 171/231/1024 169/242/1025 159/232/1026 
f 170/243/1027 169/242/1028 171/231/1029 
f 172/244/1030 170/243/1031 171/231/1032 
f 158/229/1033 172/244/1034 171/231/1035 
f 184/245/1036 172/244/1037 158/229/1038 
f 173/227/1039 184/245/1040 158/229/1041 
f 178/246/1042 184/245/1043 173/227/1044 
f 174/225/1045 178/246/1046 173/227/1047 
f 176/247/1048 178/246/1049 174/225/1050 
f 175/223/1051 176/247/1052 174/225/1053 
f 177/220/1054 176/247/1055 175/223/1056 
f 177/220/1057 182/248/1058 176/247/1059 
f 182/248/1060 178/246/1061 176/247/1062 
f 182/248/1063 179/249/1064 178/246/1065 
f 179/249/1066 184/245/1067 178/246/1068 
f 179/249/1069 183/250/1070 184/245/1071 
f 183/250/1072 179/249/1073 180/216/1074 
f 179/249/1075 181/218/1076 180/216/1077 
f 182/248/1078 181/218/1079 179/249/1080 
f 182/248/1081 177/220/1082 181/218/1083 
f 152/214/1084 183/250/1085 180/216/1086 
f 185/251/1087 183/250/1088 152/214/1089 
f 185/251/1090 184/245/1091 183/250/1092 
f 185/251/1093 172/244/1094 184/245/1095 
f 185/251/1096 186/252/1097 172/244/1098 
f 186/252/1099 170/243/1100 172/244/1101 
f 186/252/1102 205/253/1103 170/243/1104 
f 205/253/1105 203/254/1106 170/243/1107 
f 203/254/1108 191/255/1109 170/243/1110 
f 191/255/1111 169/242/1112 170/243/1113 
f 191/255/1114 190/256/1115 169/242/1116 
f 190/256/1117 187/241/1118 169/242/1119 
f 190/256/1120 167/240/1121 187/241/1122 
f 190/256/1123 166/239/1124 167/240/1125 
f 190/256/1126 188/151/1127 166/239/1128 
f 188/151/1129 121/149/1130 166/239/1131 
f 189/153/1132 188/151/1133 190/256/1134 
f 191/255/1135 189/153/1136 190/256/1137 
f 191/255/1138 193/155/1139 189/153/1140 
f 203/254/1141 193/155/1142 191/255/1143 
f 203/254/1144 192/257/1145 193/155/1146 
f 192/257/1147 123/156/1148 193/155/1149 
f 192/257/1150 194/258/1151 123/156/1152 
f 194/258/1153 125/158/1154 123/156/1155 
f 194/258/1156 200/259/1157 125/158/1158 
f 200/259/1159 195/160/1160 125/158/1161 
f 200/259/1162 199/260/1163 195/160/1164 
f 199/260/1165 196/162/1166 195/160/1167 
f 199/260/1168 197/261/1169 196/162/1170 
f 197/261/1171 129/164/1172 196/162/1173 
f 197/261/1174 131/167/1175 129/164/1176 
f 198/262/1177 131/167/1178 197/261/1179 
f 199/260/1180 198/262/1181 197/261/1182 
f 200/259/1183 198/262/1184 199/260/1185 
f 201/263/1186 198/262/1187 200/259/1188 
f 194/258/1189 201/263/1190 200/259/1191 
f 202/264/1192 201/263/1193 194/258/1194 
f 192/257/1195 202/264/1196 194/258/1197 
f 203/254/1198 202/264/1199 192/257/1200 
f 204/265/1201 202/264/1202 203/254/1203 
f 205/253/1204 204/265/1205 203/254/1206 
f 223/266/1207 204/265/1208 205/253/1209 
f 186/252/1210 223/266/1211 205/253/1212 
f 206/267/1213 223/266/1214 186/252/1215 
f 206/267/1216 224/191/1217 223/266/1218 
f 206/267/1219 207/192/1220 224/191/1221 
f 206/267/1222 215/268/1223 207/192/1224 
f 215/268/1225 142/194/1226 207/192/1227 
f 215/268/1228 213/269/1229 142/194/1230 
f 213/269/1231 141/196/1232 142/194/1233 
f 213/269/1234 211/270/1235 141/196/1236 
f 211/270/1237 208/198/1238 141/196/1239 
f 211/270/1240 209/271/1241 208/198/1242 
f 209/271/1243 144/200/1244 208/198/1245 
f 209/271/1246 146/202/1247 144/200/1248 
f 209/271/1249 210/272/1250 146/202/1251 
f 211/270/1252 210/272/1253 209/271/1254 
f 212/273/1255 210/272/1256 211/270/1257 
f 213/269/1258 212/273/1259 211/270/1260 
f 214/274/1261 212/273/1262 213/269/1263 
f 215/268/1264 214/274/1265 213/269/1266 
f 216/275/1267 214/274/1268 215/268/1269 
f 216/275/1270 217/209/1271 214/274/1272 
f 217/209/1273 218/207/1274 214/274/1275 
f 218/207/1276 212/273/1277 214/274/1278 
f 219/205/1279 212/273/1280 218/207/1281 
f 219/205/1282 210/272/1283 212/273/1284 
f 219/205/1285 146/202/1286 210/272/1287 
f 216/275/1288 149/211/1289 217/209/1290 
f 220/276/1291 149/211/1292 216/275/1293 
f 215/268/1294 220/276/1295 216/275/1296 
f 206/267/1297 220/276/1298 215/268/1299 
f 186/252/1300 220/276/1301 206/267/1302 
f 221/213/1303 220/276/1304 186/252/1305 
f 221/213/1306 149/211/1307 220/276/1308 
f 185/251/1309 221/213/1310 186/252/1311 
f 185/251/1312 152/214/1313 221/213/1314 
f 201/263/1315 222/169/1316 198/262/1317 
f 222/169/1318 131/167/1319 198/262/1320 
f 134/171/1321 222/169/1322 201/263/1323 
f 202/264/1324 134/171/1325 201/263/1326 
f 202/264/1327 236/173/1328 134/171/1329 
f 204/265/1330 236/173/1331 202/264/1332 
f 237/277/1333 236/173/1334 204/265/1335 
f 223/266/1336 237/277/1337 204/265/1338 
f 233/278/1339 237/277/1340 223/266/1341 
f 224/191/1342 233/278/1343 223/266/1344 
f 225/189/1345 233/278/1346 224/191/1347 
f 232/279/1348 233/278/1349 225/189/1350 
f 226/187/1351 232/279/1352 225/189/1353 
f 231/280/1354 232/279/1355 226/187/1356 
f 139/185/1357 231/280/1358 226/187/1359 
f 227/281/1360 231/280/1361 139/185/1362 
f 138/182/1363 227/281/1364 139/185/1365 
f 228/180/1366 227/281/1367 138/182/1368 
f 229/282/1369 227/281/1370 228/180/1371 
f 136/178/1372 229/282/1373 228/180/1374 
f 230/283/1375 229/282/1376 136/178/1377 
f 230/283/1378 227/281/1379 229/282/1380 
f 230/283/1381 231/280/1382 227/281/1383 
f 230/283/1384 232/279/1385 231/280/1386 
f 230/283/1387 234/284/1388 232/279/1389 
f 234/284/1390 233/278/1391 232/279/1392 
f 234/284/1393 237/277/1394 233/278/1395 
f 234/284/1396 235/174/1397 237/277/1398 
f 237/277/1399 235/174/1400 236/173/1401 
f 135/176/1402 235/174/1403 234/284/1404 
f 230/283/1405 135/176/1406 234/284/1407 
f 230/283/1408 136/178/1409 135/176/1410 
# 470 faces

#
# object SM_Starfish_03_LOD1
#

v  -5.1290 1.5155 1.7840
v  4.9704 1.5155 1.9530
v  2.4408 1.5155 -3.8337
v  -0.4687 1.5155 5.7378
v  -10.7701 1.5155 13.6289
v  -0.3333 0.1748 4.6129
v  0.6629 1.5155 -13.6289
v  -14.2884 1.5154 -4.2347
v  14.7497 1.5155 -3.9488
v  10.8158 1.5155 12.9414
v  -4.1107 3.7244 1.4872
v  -3.3926 1.5155 -3.3896
v  -0.3193 3.7239 4.6330
v  1.8724 3.6973 -3.2417
v  11.7941 1.5155 11.6798
v  1.9213 0.2001 -3.2769
v  -11.7446 1.5155 12.7599
v  14.2754 1.5155 -4.9660
v  -4.1294 0.1768 1.4529
v  4.0545 1.5155 9.9476
v  -0.4317 1.5155 -13.6119
v  -14.7497 1.5154 -3.2580
v  8.7543 1.5155 8.7504
v  -10.5324 1.5155 0.1190
v  3.9501 3.7344 1.5522
v  -2.5935 3.7462 -2.5563
v  6.1703 2.9952 9.8424
v  3.9501 0.1704 1.5522
v  10.6548 1.5155 10.0933
v  -2.7429 0.1745 -2.6169
v  13.9083 1.5155 -2.8666
v  -10.9768 1.5155 10.8247
v  -7.0011 1.5155 -3.3672
v  4.7630 1.5155 -3.5817
v  -8.6490 1.5155 12.9528
v  -1.3489 1.5155 -12.3265
v  7.0735 1.0075 11.4352
v  4.9087 2.4160 1.9288
v  8.9543 1.0452 8.9830
v  -8.2652 2.9412 7.8859
v  1.0917 2.3320 -11.7735
v  -7.7629 1.5155 6.5159
v  -12.7228 1.5155 -4.4454
v  -0.4579 2.4160 5.6620
v  -1.2299 2.2344 -11.9033
v  12.4433 1.5155 -5.1294
v  -7.0751 2.9785 10.4135
v  4.9087 0.9258 1.9288
v  -13.4927 1.5155 -1.7647
v  4.7666 3.3844 4.7081
v  -3.3505 2.4160 -3.3475
v  10.9834 2.8753 -2.1094
v  1.1976 1.5155 -12.3466
v  -8.0052 0.6644 7.4510
v  2.3182 2.4078 -3.9801
v  -5.0654 2.4160 1.7620
v  11.4332 0.9863 -1.5888
v  8.2475 2.3049 8.2016
v  4.9283 2.3549 10.3392
v  11.6478 1.9076 11.5350
v  1.8346 1.5155 -5.1781
v  -6.8736 0.5817 10.2940
v  -5.4572 3.3334 -2.6770
v  7.2459 1.5155 11.7260
v  -0.4579 0.9258 5.6620
v  5.7023 1.5155 4.3384
v  10.5226 2.0776 9.9682
v  -0.4437 1.1289 -13.3727
v  -10.0533 2.1814 0.2417
v  12.1838 1.1560 -4.9846
v  -10.8407 1.0401 10.6903
v  4.6995 0.3634 4.5818
v  -11.5753 1.9387 12.5786
v  -5.0654 0.9258 1.7620
v  3.8873 3.5315 -2.8662
# 75 vertices

vn 0.1860 0.8969 0.4013
vn -0.0112 0.9622 0.2721
vn -0.5487 0.7852 -0.2871
vn -0.2770 -0.8093 -0.5179
vn -0.1822 -0.9581 -0.2209
vn -0.5720 -0.3353 -0.7486
vn -0.0003 -0.7811 -0.6244
vn 0.2063 -0.9403 -0.2708
vn -0.0811 0.1703 -0.9820
vn -0.0112 0.9622 0.2721
vn 0.1860 0.8969 0.4013
vn 0.0024 0.4339 0.9010
vn -0.4716 -0.8337 -0.2875
vn 0.1484 -0.9419 0.3012
vn -0.8859 -0.3452 0.3100
vn -0.5487 0.7852 -0.2871
vn -0.9221 -0.0222 0.3862
vn -0.8537 -0.0593 -0.5173
vn 0.3835 -0.1011 0.9180
vn 0.1484 -0.9419 0.3012
vn 0.0289 -0.6222 0.7823
vn 0.4953 -0.7649 -0.4119
vn 0.1887 -0.9816 -0.0290
vn 0.7247 -0.6095 0.3214
vn 0.8723 -0.3908 -0.2940
vn 0.9662 -0.1897 -0.1745
vn 0.2063 -0.9403 -0.2708
vn -0.1771 0.9591 -0.2207
vn -0.5542 0.7619 -0.3353
vn -0.5610 0.4228 -0.7117
vn -0.1028 -0.1954 -0.9753
vn -0.1822 -0.9581 -0.2209
vn -0.1685 -0.9850 0.0362
vn -0.3878 0.6037 0.6965
vn -0.2358 0.9701 0.0571
vn -0.7369 -0.0773 0.6715
vn 0.1238 0.8538 -0.5056
vn 0.2720 0.9562 0.1085
vn 0.3341 0.9085 0.2510
vn 0.3841 -0.7321 0.5626
vn 0.7247 -0.6095 0.3214
vn 0.1888 -0.9797 0.0672
vn -0.0112 0.9622 0.2721
vn 0.0024 0.4339 0.9010
vn -0.4139 0.5366 0.7353
vn -0.2104 -0.8020 0.5591
vn 0.1887 -0.9816 -0.0290
vn 0.4953 -0.7649 -0.4119
vn 0.0183 0.2576 -0.9661
vn -0.0811 0.1703 -0.9820
vn 0.1238 0.8538 -0.5056
vn 0.2066 0.9421 -0.2641
vn 0.7199 0.2676 -0.6405
vn 0.5920 0.7611 -0.2651
vn -0.1028 -0.1954 -0.9753
vn 0.1392 0.1147 -0.9836
vn -0.1822 -0.9581 -0.2209
vn 0.1392 0.1147 -0.9836
vn -0.1028 -0.1954 -0.9753
vn -0.1257 0.8371 -0.5324
vn 0.3341 0.9085 0.2510
vn 0.2720 0.9562 0.1085
vn 0.8309 0.4413 0.3389
vn 0.3140 0.9466 -0.0736
vn 0.7460 0.0339 -0.6651
vn 0.8309 0.4413 0.3389
vn -0.0112 0.9622 0.2721
vn -0.1771 0.9591 -0.2207
vn -0.2358 0.9701 0.0571
vn -0.2358 0.9701 0.0571
vn -0.1257 0.8371 -0.5324
vn -0.7009 -0.0400 -0.7121
vn 0.3270 -0.1110 0.9385
vn -0.2104 -0.8020 0.5591
vn 0.4953 -0.7649 -0.4119
vn 0.3140 0.9466 -0.0736
vn -0.0247 0.9459 0.3237
vn 0.7277 0.6850 -0.0365
vn 0.3841 -0.7321 0.5626
vn 0.1888 -0.9797 0.0672
vn 0.2063 -0.9403 -0.2708
vn -0.1822 -0.9581 -0.2209
vn -0.0028 -0.9818 0.1897
vn -0.1685 -0.9850 0.0362
vn 0.1860 0.8969 0.4013
vn -0.5487 0.7852 -0.2871
vn -0.6714 0.7302 0.1269
vn -0.8859 -0.3452 0.3100
vn 0.1484 -0.9419 0.3012
vn -0.1980 -0.1177 0.9731
vn 0.3841 -0.7321 0.5626
vn 0.2063 -0.9403 -0.2708
vn -0.0003 -0.7811 -0.6244
vn 0.6857 -0.0373 -0.7269
vn 0.1238 0.8538 -0.5056
vn 0.3341 0.9085 0.2510
vn -0.9221 -0.0222 0.3862
vn -0.4716 -0.8337 -0.2875
vn -0.8537 -0.0593 -0.5173
vn -0.7369 -0.0773 0.6715
vn -0.1685 -0.9850 0.0362
vn -0.4443 -0.3878 0.8076
vn 0.0289 -0.6222 0.7823
vn -0.0028 -0.9818 0.1897
vn -0.5850 -0.2752 0.7629
vn -0.4139 0.5366 0.7353
vn 0.0024 0.4339 0.9010
vn -0.5850 -0.2752 0.7629
vn 0.2066 0.9421 -0.2641
vn 0.5920 0.7611 -0.2651
vn -0.5542 0.7619 -0.3353
vn 0.8723 -0.3908 -0.2940
vn 0.2063 -0.9403 -0.2708
vn -0.2770 -0.8093 -0.5179
vn -0.2358 0.9701 0.0571
vn -0.7009 -0.0400 -0.7121
vn -0.9995 -0.0305 0.0035
vn -0.7009 -0.0400 -0.7121
vn -0.1685 -0.9850 0.0362
vn -0.9995 -0.0305 0.0035
vn 0.3270 -0.1110 0.9385
vn 0.4953 -0.7649 -0.4119
vn 0.9096 -0.3979 0.1197
vn 0.3140 0.9466 -0.0736
vn 0.7277 0.6850 -0.0365
vn 0.7460 0.0339 -0.6651
vn -0.8410 0.4041 0.3597
vn -0.2358 0.9701 0.0571
vn -0.3878 0.6037 0.6965
vn -0.4443 -0.3878 0.8076
vn -0.1685 -0.9850 0.0362
vn -0.7380 -0.6101 0.2884
vn -0.0112 0.9622 0.2721
vn 0.2720 0.9562 0.1085
vn -0.1771 0.9591 -0.2207
vn -0.0112 0.9622 0.2721
vn -0.0247 0.9459 0.3237
vn 0.3140 0.9466 -0.0736
vn -0.1771 0.9591 -0.2207
vn 0.2066 0.9421 -0.2641
vn -0.5542 0.7619 -0.3353
vn 0.2720 0.9562 0.1085
vn 0.2066 0.9421 -0.2641
vn -0.1771 0.9591 -0.2207
vn -0.4139 0.5366 0.7353
vn -0.5850 -0.2752 0.7629
vn -0.3619 0.0815 0.9287
vn 0.3270 -0.1110 0.9385
vn 0.7277 0.6850 -0.0365
vn -0.0247 0.9459 0.3237
vn -0.2104 -0.8020 0.5591
vn -0.0028 -0.9818 0.1897
vn 0.1887 -0.9816 -0.0290
vn 0.1888 -0.9797 0.0672
vn -0.0028 -0.9818 0.1897
vn -0.1822 -0.9581 -0.2209
vn 0.9096 -0.3979 0.1197
vn 0.4953 -0.7649 -0.4119
vn 0.6779 -0.4273 -0.5982
vn 0.7277 0.6850 -0.0365
vn 0.5369 0.6812 -0.4977
vn 0.7460 0.0339 -0.6651
vn 0.1888 -0.9797 0.0672
vn -0.1822 -0.9581 -0.2209
vn 0.2063 -0.9403 -0.2708
vn 0.2063 -0.9403 -0.2708
vn -0.1822 -0.9581 -0.2209
vn -0.2770 -0.8093 -0.5179
vn 0.3841 -0.7321 0.5626
vn -0.0003 -0.7811 -0.6244
vn 0.9980 -0.0629 -0.0043
vn 0.7373 -0.1012 0.6680
vn 0.3341 0.9085 0.2510
vn 0.8309 0.4413 0.3389
vn -0.6714 0.7302 0.1269
vn -0.5487 0.7852 -0.2871
vn -0.8640 0.2052 -0.4598
vn -0.4716 -0.8337 -0.2875
vn -0.8859 -0.3452 0.3100
vn -0.5283 -0.8259 -0.1969
vn -0.1257 0.8371 -0.5324
vn -0.5610 0.4228 -0.7117
vn 0.1392 0.1147 -0.9836
vn -0.5720 -0.3353 -0.7486
vn -0.1822 -0.9581 -0.2209
vn 0.1392 0.1147 -0.9836
vn 0.1238 0.8538 -0.5056
vn -0.0811 0.1703 -0.9820
vn 0.7199 0.2676 -0.6405
vn -0.0811 0.1703 -0.9820
vn 0.2063 -0.9403 -0.2708
vn 0.5242 -0.3102 -0.7931
vn 0.1484 -0.9419 0.3012
vn 0.3835 -0.1011 0.9180
vn -0.1980 -0.1177 0.9731
vn 0.1860 0.8969 0.4013
vn 0.3835 -0.1011 0.9180
vn 0.0024 0.4339 0.9010
vn -0.8858 -0.2674 -0.3794
vn -0.2770 -0.8093 -0.5179
vn -0.5720 -0.3353 -0.7486
vn -0.5542 0.7619 -0.3353
vn 0.5920 0.7611 -0.2651
vn -0.3622 0.2430 -0.8998
vn -0.5850 -0.2752 0.7629
vn -0.2104 -0.8020 0.5591
vn -0.3619 0.0815 0.9287
vn -0.0028 -0.9818 0.1897
vn -0.2104 -0.8020 0.5591
vn -0.5850 -0.2752 0.7629
vn 0.8309 0.4413 0.3389
vn 0.7460 0.0339 -0.6651
vn 0.8715 0.1395 -0.4702
vn 0.7373 -0.1012 0.6680
vn 0.8309 0.4413 0.3389
vn 0.9248 -0.0201 0.3799
vn 0.6779 -0.4273 -0.5982
vn 0.4953 -0.7649 -0.4119
vn 0.7108 -0.0415 -0.7022
vn 0.7108 -0.0415 -0.7022
vn 0.4953 -0.7649 -0.4119
vn 0.8715 0.1395 -0.4702
vn -0.5487 0.7852 -0.2871
vn -0.2358 0.9701 0.0571
vn -0.8410 0.4041 0.3597
vn -0.0112 0.9622 0.2721
vn -0.2358 0.9701 0.0571
vn -0.5487 0.7852 -0.2871
vn 0.5920 0.7611 -0.2651
vn 0.5283 -0.0384 -0.8482
vn -0.3622 0.2430 -0.8998
vn 0.5920 0.7611 -0.2651
vn 0.9662 -0.1897 -0.1745
vn 0.8723 -0.3908 -0.2940
vn -0.4716 -0.8337 -0.2875
vn -0.5283 -0.8259 -0.1969
vn -0.8537 -0.0593 -0.5173
vn -0.8640 0.2052 -0.4598
vn -0.5487 0.7852 -0.2871
vn -0.8537 -0.0593 -0.5173
vn -0.1028 -0.1954 -0.9753
vn -0.1685 -0.9850 0.0362
vn -0.7009 -0.0400 -0.7121
vn -0.1257 0.8371 -0.5324
vn -0.1028 -0.1954 -0.9753
vn -0.7009 -0.0400 -0.7121
vn 0.0024 0.4339 0.9010
vn 0.3835 -0.1011 0.9180
vn -0.0071 -0.0230 0.9997
vn 0.0024 0.4339 0.9010
vn -0.0071 -0.0230 0.9997
vn -0.5850 -0.2752 0.7629
vn -0.5542 0.7619 -0.3353
vn -0.8858 -0.2674 -0.3794
vn -0.5720 -0.3353 -0.7486
vn -0.5542 0.7619 -0.3353
vn -0.3622 0.2430 -0.8998
vn -0.8858 -0.2674 -0.3794
vn 0.6857 -0.0373 -0.7269
vn 0.0183 0.2576 -0.9661
vn 0.1238 0.8538 -0.5056
vn 0.9980 -0.0629 -0.0043
vn -0.0003 -0.7811 -0.6244
vn 0.6857 -0.0373 -0.7269
vn 0.1860 0.8969 0.4013
vn -0.1980 -0.1177 0.9731
vn 0.3835 -0.1011 0.9180
vn -0.1980 -0.1177 0.9731
vn 0.1860 0.8969 0.4013
vn -0.6714 0.7302 0.1269
vn 0.4953 -0.7649 -0.4119
vn 0.7247 -0.6095 0.3214
vn 0.8715 0.1395 -0.4702
vn 0.7247 -0.6095 0.3214
vn 0.3841 -0.7321 0.5626
vn 0.9248 -0.0201 0.3799
vn -0.7369 -0.0773 0.6715
vn -0.2358 0.9701 0.0571
vn -0.9995 -0.0305 0.0035
vn -0.9995 -0.0305 0.0035
vn -0.1685 -0.9850 0.0362
vn -0.7369 -0.0773 0.6715
vn 0.3140 0.9466 -0.0736
vn 0.2720 0.9562 0.1085
vn -0.0112 0.9622 0.2721
vn 0.3140 0.9466 -0.0736
vn 0.8309 0.4413 0.3389
vn 0.2720 0.9562 0.1085
vn -0.5610 0.4228 -0.7117
vn -0.5542 0.7619 -0.3353
vn -0.5720 -0.3353 -0.7486
vn 0.1392 0.1147 -0.9836
vn -0.5610 0.4228 -0.7117
vn -0.5720 -0.3353 -0.7486
vn 0.6857 -0.0373 -0.7269
vn 0.3341 0.9085 0.2510
vn 0.9980 -0.0629 -0.0043
vn 0.9980 -0.0629 -0.0043
vn 0.3341 0.9085 0.2510
vn 0.7373 -0.1012 0.6680
vn 0.5283 -0.0384 -0.8482
vn 0.5920 0.7611 -0.2651
vn 0.8723 -0.3908 -0.2940
vn 0.5283 -0.0384 -0.8482
vn 0.8723 -0.3908 -0.2940
vn -0.2770 -0.8093 -0.5179
vn -0.1685 -0.9850 0.0362
vn -0.0028 -0.9818 0.1897
vn -0.4716 -0.8337 -0.2875
vn -0.1685 -0.9850 0.0362
vn -0.4716 -0.8337 -0.2875
vn -0.7380 -0.6101 0.2884
vn 0.5920 0.7611 -0.2651
vn 0.7199 0.2676 -0.6405
vn 0.9662 -0.1897 -0.1745
vn 0.7199 0.2676 -0.6405
vn -0.0811 0.1703 -0.9820
vn 0.5242 -0.3102 -0.7931
vn -0.8410 0.4041 0.3597
vn -0.3878 0.6037 0.6965
vn -0.9221 -0.0222 0.3862
vn -0.5487 0.7852 -0.2871
vn -0.8410 0.4041 0.3597
vn -0.9221 -0.0222 0.3862
vn 0.3841 -0.7321 0.5626
vn 0.9980 -0.0629 -0.0043
vn 0.7373 -0.1012 0.6680
vn 0.9248 -0.0201 0.3799
vn 0.3841 -0.7321 0.5626
vn 0.7373 -0.1012 0.6680
vn 0.7460 0.0339 -0.6651
vn 0.7108 -0.0415 -0.7022
vn 0.8715 0.1395 -0.4702
vn 0.7460 0.0339 -0.6651
vn 0.5369 0.6812 -0.4977
vn 0.7108 -0.0415 -0.7022
vn -0.0112 0.9622 0.2721
vn -0.4139 0.5366 0.7353
vn -0.0247 0.9459 0.3237
vn 0.3270 -0.1110 0.9385
vn -0.0247 0.9459 0.3237
vn -0.4139 0.5366 0.7353
vn 0.7277 0.6850 -0.0365
vn 0.9096 -0.3979 0.1197
vn 0.6779 -0.4273 -0.5982
vn 0.7277 0.6850 -0.0365
vn 0.3270 -0.1110 0.9385
vn 0.9096 -0.3979 0.1197
vn 0.9662 -0.1897 -0.1745
vn 0.5242 -0.3102 -0.7931
vn 0.2063 -0.9403 -0.2708
vn 0.7199 0.2676 -0.6405
vn 0.5242 -0.3102 -0.7931
vn 0.9662 -0.1897 -0.1745
vn -0.0028 -0.9818 0.1897
vn 0.1484 -0.9419 0.3012
vn -0.4716 -0.8337 -0.2875
vn 0.1484 -0.9419 0.3012
vn -0.0028 -0.9818 0.1897
vn 0.0289 -0.6222 0.7823
vn -0.1771 0.9591 -0.2207
vn -0.1257 0.8371 -0.5324
vn -0.2358 0.9701 0.0571
vn -0.1771 0.9591 -0.2207
vn -0.5610 0.4228 -0.7117
vn -0.1257 0.8371 -0.5324
vn 0.3270 -0.1110 0.9385
vn -0.4139 0.5366 0.7353
vn -0.3619 0.0815 0.9287
vn -0.2104 -0.8020 0.5591
vn 0.3270 -0.1110 0.9385
vn -0.3619 0.0815 0.9287
vn 0.3835 -0.1011 0.9180
vn 0.0289 -0.6222 0.7823
vn -0.0071 -0.0230 0.9997
vn -0.0071 -0.0230 0.9997
vn 0.0289 -0.6222 0.7823
vn -0.5850 -0.2752 0.7629
vn 0.8715 0.1395 -0.4702
vn 0.7247 -0.6095 0.3214
vn 0.9248 -0.0201 0.3799
vn 0.8309 0.4413 0.3389
vn 0.8715 0.1395 -0.4702
vn 0.9248 -0.0201 0.3799
vn 0.5369 0.6812 -0.4977
vn 0.6779 -0.4273 -0.5982
vn 0.7108 -0.0415 -0.7022
vn 0.5369 0.6812 -0.4977
vn 0.7277 0.6850 -0.0365
vn 0.6779 -0.4273 -0.5982
vn 0.5283 -0.0384 -0.8482
vn -0.2770 -0.8093 -0.5179
vn -0.3622 0.2430 -0.8998
vn -0.3622 0.2430 -0.8998
vn -0.2770 -0.8093 -0.5179
vn -0.8858 -0.2674 -0.3794
vn -0.3878 0.6037 0.6965
vn -0.7369 -0.0773 0.6715
vn -0.4443 -0.3878 0.8076
vn -0.3878 0.6037 0.6965
vn -0.4443 -0.3878 0.8076
vn -0.9221 -0.0222 0.3862
vn 0.6857 -0.0373 -0.7269
vn -0.0003 -0.7811 -0.6244
vn 0.0183 0.2576 -0.9661
vn 0.0183 0.2576 -0.9661
vn -0.0003 -0.7811 -0.6244
vn -0.0811 0.1703 -0.9820
vn -0.5283 -0.8259 -0.1969
vn -0.8859 -0.3452 0.3100
vn -0.8640 0.2052 -0.4598
vn -0.8537 -0.0593 -0.5173
vn -0.5283 -0.8259 -0.1969
vn -0.8640 0.2052 -0.4598
vn 0.7247 -0.6095 0.3214
vn 0.1887 -0.9816 -0.0290
vn 0.1888 -0.9797 0.0672
vn 0.1887 -0.9816 -0.0290
vn -0.0028 -0.9818 0.1897
vn 0.1888 -0.9797 0.0672
vn -0.6714 0.7302 0.1269
vn -0.8640 0.2052 -0.4598
vn -0.8859 -0.3452 0.3100
vn -0.1980 -0.1177 0.9731
vn -0.6714 0.7302 0.1269
vn -0.8859 -0.3452 0.3100
vn -0.4443 -0.3878 0.8076
vn -0.7380 -0.6101 0.2884
vn -0.9221 -0.0222 0.3862
vn -0.7380 -0.6101 0.2884
vn -0.4716 -0.8337 -0.2875
vn -0.9221 -0.0222 0.3862
vn 0.1238 0.8538 -0.5056
vn 0.7199 0.2676 -0.6405
vn 0.2066 0.9421 -0.2641
vn 0.2720 0.9562 0.1085
vn 0.1238 0.8538 -0.5056
vn 0.2066 0.9421 -0.2641
# 438 vertex normals

vt 0.1653 0.7568 0.0000
vt 0.1438 0.8137 0.0000
vt 0.0682 0.7576 0.0000
vt 0.7476 0.2783 0.0000
vt 0.6509 0.3145 0.0000
vt 0.7432 0.3418 0.0000
vt 0.0348 0.6704 0.0000
vt 0.5898 0.2402 0.0000
vt 0.2307 0.8077 0.0000
vt 0.8237 0.3105 0.0000
vt 0.1224 0.8826 0.0000
vt 0.7422 0.4209 0.0000
vt 0.0829 0.8107 0.0000
vt 0.0077 0.8088 0.0000
vt 0.6821 0.3594 0.0000
vt 0.6104 0.3818 0.0000
vt 0.1140 0.7212 0.0000
vt 0.2009 0.6768 0.0000
vt 0.7412 0.1948 0.0000
vt 0.6855 0.2607 0.0000
vt 0.0856 0.7645 0.0000
vt 0.2091 0.6870 0.0000
vt 0.7534 0.1997 0.0000
vt 0.1312 0.8008 0.0000
vt 0.1146 0.7404 0.0000
vt 0.2271 0.8157 0.0000
vt 0.8228 0.3193 0.0000
vt 0.1462 0.6926 0.0000
vt 0.7012 0.2241 0.0000
vt 0.0971 0.7955 0.0000
vt 0.0269 0.6772 0.0000
vt 0.5840 0.2495 0.0000
vt 0.1471 0.7640 0.0000
vt 0.6704 0.3162 0.0000
vt 0.7274 0.3330 0.0000
vt 0.1136 0.8827 0.0000
vt 0.7334 0.4238 0.0000
vt 0.6909 0.3409 0.0000
vt 0.0042 0.8010 0.0000
vt 0.6045 0.3750 0.0000
vt 0.6924 0.2798 0.0000
vt 0.0328 0.7721 0.0000
vt 0.6196 0.3397 0.0000
vt 0.7314 0.2905 0.0000
vt 0.0522 0.6733 0.0000
vt 0.6079 0.2378 0.0000
vt 0.7470 0.2332 0.0000
vt 0.1899 0.7135 0.0000
vt 0.2259 0.7984 0.0000
vt 0.8164 0.3027 0.0000
vt 0.1467 0.7980 0.0000
vt 0.0612 0.8107 0.0000
vt 0.6597 0.3694 0.0000
vt 0.1398 0.8221 0.0000
vt 0.7418 0.3571 0.0000
vt 0.0534 0.7157 0.0000
vt 0.2135 0.8198 0.0000
vt 0.8105 0.3276 0.0000
vt 0.1817 0.7137 0.0000
vt 0.0631 0.6964 0.0000
vt 0.1142 0.7285 0.0000
vt 0.6256 0.2796 0.0000
vt 0.1257 0.8673 0.0000
vt 0.2010 0.7927 0.0000
vt 0.1555 0.6956 0.0000
vt 0.0283 0.6938 0.0000
vt 0.5903 0.2656 0.0000
vt 0.7412 0.2290 0.0000
vt 0.0126 0.7887 0.0000
vt 0.6074 0.3594 0.0000
vt 0.1587 0.7593 0.0000
vt 0.7222 0.4199 0.0000
vt 0.1044 0.8738 0.0000
vt 0.6230 0.3818 0.0000
vt 0.0193 0.8125 0.0000
vt 0.1578 0.8136 0.0000
vt 0.7573 0.3374 0.0000
vt 0.0880 0.8057 0.0000
vt 0.7417 0.2827 0.0000
vt 0.6880 0.2681 0.0000
vt 0.1534 0.7401 0.0000
vt 0.7510 0.2188 0.0000
vt 0.2026 0.7014 0.0000
vt 0.6279 0.2549 0.0000
vt 0.0299 0.6796 0.0000
vt 0.7982 0.2973 0.0000
vt 0.1643 0.7009 0.0000
vt 0.7326 0.4200 0.0000
vt 0.6582 0.3149 0.0000
vt 0.7248 0.2712 0.0000
vt 0.1722 0.6816 0.0000
vt 0.7183 0.2070 0.0000
vt 0.1696 0.7427 0.0000
vt 0.7427 0.2681 0.0000
vt 0.0384 0.7739 0.0000
vt 0.1380 0.8101 0.0000
vt 0.0750 0.7601 0.0000
vt 0.8070 0.3246 0.0000
vt 0.1294 0.8738 0.0000
vt 0.7476 0.4121 0.0000
vt 0.1982 0.7000 0.0000
vt 0.1076 0.8686 0.0000
vt 0.5962 0.2637 0.0000
vt 0.0487 0.7285 0.0000
vt 0.6224 0.2912 0.0000
vt 0.7199 0.2138 0.0000
vt 0.0753 0.7965 0.0000
vt 0.2058 0.6882 0.0000
# 108 texture coords

o SM_Starfish_03_LOD1
g SM_Starfish_03_LOD1
usemtl MAT_Sea_Shells
s 1
f 284/344/1411 250/309/1412 277/340/1413 
f 305/372/1414 267/322/1415 249/299/1416 
f 307/382/1417 253/319/1418 271/361/1419 
f 250/309/1420 284/344/1421 281/345/1422 
f 291/346/1423 299/368/1424 254/316/1425 
f 277/340/1426 238/287/1427 279/388/1428 
f 272/330/1429 299/368/1430 302/364/1431 
f 276/352/1432 309/374/1433 285/363/1434 
f 290/384/1435 298/339/1436 253/319/1437 
f 263/314/1438 282/386/1439 288/362/1440 
f 280/358/1441 267/322/1442 256/318/1443 
f 306/379/1444 248/305/1445 286/353/1446 
f 312/335/1447 262/317/1448 289/348/1449 
f 294/370/1450 285/363/1451 265/328/1452 
f 250/309/1453 281/345/1454 296/349/1455 
f 274/390/1456 309/374/1457 276/352/1458 
f 283/341/1459 271/360/1460 312/335/1461 
f 251/308/1462 292/380/1463 278/347/1464 
f 280/358/1465 270/337/1466 267/322/1467 
f 270/336/1468 280/359/1469 300/391/1470 
f 289/348/1471 262/317/1472 275/355/1473 
f 287/365/1474 295/343/1475 275/355/1476 
f 250/309/1477 263/314/1478 248/305/1479 
f 248/305/1480 300/391/1481 245/298/1482 
f 247/303/1483 274/390/1484 276/352/1485 
f 287/365/1486 264/371/1487 297/392/1488 
f 294/370/1489 265/328/1490 253/319/1491 
f 267/322/1492 243/325/1493 256/318/1494 
f 284/344/1495 277/340/1496 310/369/1497 
f 254/316/1498 299/368/1499 242/292/1500 
f 294/370/1501 253/319/1502 307/382/1503 
f 255/310/1504 312/335/1505 289/348/1506 
f 238/289/1507 291/346/1508 279/389/1509 
f 286/354/1510 256/318/1511 261/327/1512 
f 302/364/1513 243/325/1514 257/313/1515 
f 296/349/1516 281/345/1517 257/312/1518 
f 251/308/1519 278/347/1520 282/386/1521 
f 290/384/1522 253/319/1523 305/372/1524 
f 248/305/1525 245/298/1526 259/323/1527 
f 245/300/1528 256/318/1529 259/324/1530 
f 247/303/1531 276/352/1532 252/307/1533 
f 287/365/1534 297/392/1535 295/343/1536 
f 293/381/1537 248/305/1538 306/379/1539 
f 261/327/1540 256/318/1541 311/373/1542 
f 250/309/1543 262/317/1544 263/314/1545 
f 250/309/1546 264/371/1547 287/365/1548 
f 263/314/1549 251/308/1550 282/386/1551 
f 262/317/1552 251/308/1553 263/314/1554 
f 296/349/1555 257/312/1556 301/375/1557 
f 247/302/1558 297/392/1559 264/371/1560 
f 274/390/1561 243/325/1562 309/374/1563 
f 265/328/1564 243/325/1565 267/322/1566 
f 252/307/1567 276/352/1568 266/366/1569 
f 297/392/1570 304/385/1571 295/343/1572 
f 265/328/1573 267/322/1574 253/319/1575 
f 253/319/1576 267/322/1577 305/372/1578 
f 294/370/1579 307/382/1580 246/294/1581 
f 268/333/1582 289/348/1583 275/355/1584 
f 310/369/1585 277/340/1586 269/350/1587 
f 291/346/1588 254/316/1589 308/387/1590 
f 300/391/1591 288/362/1592 270/336/1593 
f 249/299/1594 267/322/1595 270/337/1596 
f 312/335/1597 271/360/1598 292/380/1599 
f 271/361/1600 253/319/1601 240/290/1602 
f 299/368/1603 272/330/1604 242/292/1605 
f 284/344/1606 272/329/1607 281/345/1608 
f 273/356/1609 305/372/1610 249/299/1611 
f 282/386/1612 278/347/1613 258/320/1614 
f 257/313/1615 274/390/1616 301/376/1617 
f 243/325/1618 274/390/1619 257/313/1620 
f 275/355/1621 295/343/1622 303/377/1623 
f 268/333/1624 275/355/1625 239/285/1626 
f 266/366/1627 276/352/1628 260/331/1629 
f 260/331/1630 276/352/1631 303/378/1632 
f 277/340/1633 248/305/1634 293/381/1635 
f 250/309/1636 248/305/1637 277/340/1638 
f 278/347/1639 244/295/1640 258/320/1641 
f 278/347/1642 298/338/1643 290/383/1644 
f 291/346/1645 308/387/1646 279/389/1647 
f 269/350/1648 277/340/1649 279/388/1650 
f 280/358/1651 256/318/1652 245/300/1653 
f 300/391/1654 280/359/1655 245/298/1656 
f 281/345/1657 272/329/1658 241/301/1659 
f 281/345/1660 241/301/1661 257/312/1662 
f 282/386/1663 273/357/1664 249/297/1665 
f 282/386/1666 258/320/1667 273/357/1668 
f 255/310/1669 283/341/1670 312/335/1671 
f 246/294/1672 307/382/1673 255/311/1674 
f 284/344/1675 242/291/1676 272/329/1677 
f 242/291/1678 284/344/1679 310/369/1680 
f 276/352/1681 285/363/1682 303/378/1683 
f 285/363/1684 294/370/1685 239/288/1686 
f 286/353/1687 248/305/1688 259/323/1689 
f 259/324/1690 256/318/1691 286/354/1692 
f 287/365/1693 262/317/1694 250/309/1695 
f 287/365/1696 275/355/1697 262/317/1698 
f 288/362/1699 282/386/1700 249/297/1701 
f 270/336/1702 288/362/1703 249/297/1704 
f 255/310/1705 289/348/1706 246/293/1707 
f 246/293/1708 289/348/1709 268/333/1710 
f 244/295/1711 278/347/1712 290/383/1713 
f 244/296/1714 290/384/1715 305/372/1716 
f 256/318/1717 243/325/1718 291/346/1719 
f 256/318/1720 291/346/1721 311/373/1722 
f 278/347/1723 292/380/1724 298/338/1725 
f 292/380/1726 271/360/1727 240/286/1728 
f 293/381/1729 306/379/1730 238/287/1731 
f 277/340/1732 293/381/1733 238/287/1734 
f 294/370/1735 246/294/1736 268/334/1737 
f 239/288/1738 294/370/1739 268/334/1740 
f 295/343/1741 260/332/1742 303/377/1743 
f 295/343/1744 304/385/1745 260/332/1746 
f 250/309/1747 296/349/1748 264/371/1749 
f 247/302/1750 264/371/1751 296/349/1752 
f 297/392/1753 252/306/1754 266/367/1755 
f 297/392/1756 247/302/1757 252/306/1758 
f 298/339/1759 240/290/1760 253/319/1761 
f 292/380/1762 240/286/1763 298/338/1764 
f 243/325/1765 299/368/1766 291/346/1767 
f 299/368/1768 243/325/1769 302/364/1770 
f 263/314/1771 300/391/1772 248/305/1773 
f 263/314/1774 288/362/1775 300/391/1776 
f 247/302/1777 296/349/1778 301/375/1779 
f 274/390/1780 247/303/1781 301/376/1782 
f 272/330/1783 302/364/1784 241/304/1785 
f 241/304/1786 302/364/1787 257/313/1788 
f 303/378/1789 285/363/1790 239/288/1791 
f 275/355/1792 303/377/1793 239/285/1794 
f 304/385/1795 266/367/1796 260/332/1797 
f 304/385/1798 297/392/1799 266/367/1800 
f 244/296/1801 305/372/1802 258/321/1803 
f 258/321/1804 305/372/1805 273/356/1806 
f 306/379/1807 286/353/1808 261/326/1809 
f 306/379/1810 261/326/1811 238/287/1812 
f 255/311/1813 307/382/1814 283/342/1815 
f 283/342/1816 307/382/1817 271/361/1818 
f 308/387/1819 254/316/1820 269/351/1821 
f 279/389/1822 308/387/1823 269/351/1824 
f 285/363/1825 309/374/1826 265/328/1827 
f 309/374/1828 243/325/1829 265/328/1830 
f 310/369/1831 269/350/1832 254/315/1833 
f 242/291/1834 310/369/1835 254/315/1836 
f 261/327/1837 311/373/1838 238/289/1839 
f 311/373/1840 291/346/1841 238/289/1842 
f 312/335/1843 292/380/1844 251/308/1845 
f 262/317/1846 312/335/1847 251/308/1848 
# 146 faces

