# 3ds Max Wavefront OBJ Exporter v0.97b - (c)2007 guruware
# File Created: 10.02.2024 08:45:40

mtllib SM_Starfish_01.mtl

#
# object SM_Starfish_01_LOD0
#

v  1.2567 1.3420 -17.5577
v  1.6792 1.2328 -12.4097
v  0.7317 2.6770 -15.4951
v  2.0126 1.1443 -8.8422
v  3.3657 1.1197 -6.6975
v  6.0278 1.1197 -5.9395
v  5.8847 4.2504 -4.0614
v  9.9785 3.3990 -5.0090
v  14.6389 2.6230 -5.4948
v  17.8071 1.1197 -6.0767
v  17.0211 2.0536 -5.1228
v  18.1532 1.1197 -5.1537
v  15.8566 1.1197 -3.5624
v  16.8583 2.0536 -5.6248
v  8.3726 4.2504 -0.5683
v  -0.8504 5.8460 0.3683
v  1.9873 4.9877 -3.9349
v  0.3717 4.2086 -8.1828
v  -2.1075 3.2869 -12.3080
v  0.4330 3.2869 -12.1606
v  -0.7269 2.6770 -15.5012
v  0.2877 2.0567 -17.1892
v  1.0365 2.0567 -17.1476
v  -2.7905 4.2086 -8.4631
v  -3.7394 4.9877 -3.8672
v  -8.1241 1.1944 -5.2507
v  -12.1328 1.2733 -5.1610
v  -11.8634 3.2550 -4.0087
v  -14.6944 1.3327 -5.6879
v  -16.7522 1.3577 -6.5812
v  -17.4526 2.2325 -6.5948
v  -17.6482 1.4019 -6.9349
v  -18.1532 1.4019 -6.2529
v  -17.7666 2.2325 -6.1408
v  -16.7411 2.5505 -6.0746
v  -17.1845 2.5505 -5.4243
v  -14.7168 2.9938 -4.8972
v  -6.8669 4.0515 -3.2678
v  -8.4044 4.0515 0.4673
v  -5.0633 4.9877 2.7466
v  0.6473 4.9877 6.0002
v  4.0499 4.2577 8.0375
v  3.3512 1.1197 10.2365
v  11.4261 1.9005 15.7944
v  12.4029 1.1467 15.8770
v  11.1398 1.1197 13.2126
v  11.7260 1.9005 15.5186
v  10.4743 2.4780 13.4913
v  9.7469 2.6771 14.1508
v  5.1323 4.9877 2.9834
v  10.4317 1.1197 0.2843
v  11.1597 3.4508 -2.7580
v  15.1919 2.7333 -4.2962
v  7.8802 1.1197 4.0977
v  5.9978 4.1594 6.9103
v  -15.5273 2.9938 -3.9383
v  -13.1418 3.2550 -2.4590
v  -10.0034 1.1944 2.0869
v  -7.5968 1.1197 7.3116
v  -7.7286 3.2529 13.5437
v  -8.9034 2.2637 16.2154
v  -8.4423 2.2637 16.5570
v  -6.4085 3.2529 14.4205
v  -2.5247 4.0920 8.4732
v  -5.2699 4.0447 6.8313
v  -2.1499 1.1197 10.9501
v  0.4732 1.3420 -17.6330
v  1.0365 0.6155 -17.1476
v  1.5634 1.3110 -15.7631
v  0.7317 0.3203 -15.4951
v  0.3717 0.0426 -8.1828
v  9.9534 1.1197 -6.2512
v  9.9785 0.3715 -5.0090
v  14.3897 1.1197 -6.2556
v  14.6389 0.4701 -5.4948
v  16.8583 0.4245 -5.6248
v  17.0211 0.4245 -5.1228
v  15.1919 0.4224 -4.2962
v  11.1597 0.3491 -2.7580
v  5.8847 0.2099 -4.0614
v  5.1323 0.0353 2.9834
v  -0.1233 0.4397 0.8687
v  1.9873 0.0353 -3.9349
v  -2.1075 0.2808 -12.3080
v  0.4330 0.2808 -12.1606
v  0.2877 0.6155 -17.1892
v  -0.7269 0.3203 -15.5012
v  -1.5232 1.3110 -15.6475
v  -3.0177 1.2328 -12.5267
v  -4.4390 1.1443 -9.0263
v  -2.7905 0.0426 -8.4631
v  -5.7008 1.1197 -6.8906
v  -3.7394 0.0353 -3.8672
v  -11.8634 0.5200 -4.0087
v  -14.7168 0.4940 -4.8972
v  -17.4526 0.5913 -6.5948
v  -17.7773 1.3577 -5.0870
v  -17.7666 0.5913 -6.1408
v  -17.1845 0.4155 -5.4243
v  -16.7411 0.4155 -6.0746
v  -8.4044 0.1538 0.4673
v  -6.8669 0.1538 -3.2678
v  -5.0633 0.0353 2.7466
v  0.7149 1.1197 9.4473
v  4.0499 0.0000 8.0375
v  9.4421 1.1197 15.1396
v  11.8689 1.1467 16.5251
v  11.4261 0.5141 15.7944
v  11.7260 0.5141 15.5186
v  10.4743 0.5329 13.4913
v  9.7469 0.4468 14.1508
v  5.9978 0.0425 6.9103
v  8.3726 0.2099 -0.5683
v  12.7999 1.1197 -1.6694
v  8.4694 1.1197 7.5625
v  -15.5273 0.4940 -3.9383
v  -16.2211 1.3327 -3.3580
v  -13.1418 0.5667 -2.4590
v  -14.1722 1.2733 -1.4724
v  -8.1764 1.1197 4.4641
v  -5.2699 0.0922 6.8313
v  0.6473 0.0353 6.0002
v  -2.5247 0.0717 8.4732
v  -6.2095 1.1197 15.4887
v  -6.4085 0.1976 14.4205
v  -9.0259 1.1465 17.6330
v  -8.4423 0.3568 16.5570
v  -8.9034 0.3568 16.2154
v  -7.7286 0.1976 13.5437
v  -8.7267 1.1197 14.2422
v  -9.6851 1.1465 17.1921
# 131 vertices

vn -0.2608 0.0036 -0.9654
vn 0.4997 0.7159 -0.4876
vn 0.6501 0.0046 -0.7599
vn 0.4997 0.7159 -0.4876
vn 0.9970 -0.0601 -0.0486
vn 0.6501 0.0046 -0.7599
vn 0.4997 0.7159 -0.4876
vn 0.4705 0.8647 -0.1758
vn 0.9970 -0.0601 -0.0486
vn 0.4705 0.8647 -0.1758
vn 0.9840 -0.1732 -0.0418
vn 0.9970 -0.0601 -0.0486
vn 0.4705 0.8647 -0.1758
vn 0.4918 0.8576 -0.1502
vn 0.9840 -0.1732 -0.0418
vn 0.4918 0.8576 -0.1502
vn 0.9139 -0.2643 -0.3080
vn 0.9840 -0.1732 -0.0418
vn 0.4918 0.8576 -0.1502
vn 0.4144 0.8698 -0.2676
vn 0.9139 -0.2643 -0.3080
vn 0.4144 0.8698 -0.2676
vn 0.5954 -0.3462 -0.7250
vn 0.9139 -0.2643 -0.3080
vn 0.4144 0.8698 -0.2676
vn 0.2059 0.9274 -0.3123
vn 0.5954 -0.3462 -0.7250
vn 0.2059 0.9274 -0.3123
vn 0.1207 0.8596 -0.4965
vn 0.5954 -0.3462 -0.7250
vn 0.1207 0.8596 -0.4965
vn 0.0795 -0.3100 -0.9474
vn 0.5954 -0.3462 -0.7250
vn 0.1207 0.8596 -0.4965
vn 0.0626 0.8181 -0.5717
vn 0.0795 -0.3100 -0.9474
vn 0.0626 0.8181 -0.5717
vn -0.0414 -0.2591 -0.9650
vn 0.0795 -0.3100 -0.9474
vn 0.0626 0.8181 -0.5717
vn 0.1112 0.8013 -0.5878
vn -0.0414 -0.2591 -0.9650
vn 0.1112 0.8013 -0.5878
vn -0.0072 -0.1950 -0.9808
vn -0.0414 -0.2591 -0.9650
vn 0.1112 0.8013 -0.5878
vn 0.3200 0.7821 -0.5347
vn -0.0072 -0.1950 -0.9808
vn 0.3200 0.7821 -0.5347
vn 0.6675 -0.0586 -0.7423
vn -0.0072 -0.1950 -0.9808
vn 0.3200 0.7821 -0.5347
vn 0.5413 0.8077 0.2339
vn 0.6675 -0.0586 -0.7423
vn 0.5413 0.8077 0.2339
vn 0.9719 -0.0552 0.2290
vn 0.6675 -0.0586 -0.7423
vn 0.5413 0.8077 0.2339
vn 0.5221 -0.1767 0.8344
vn 0.9719 -0.0552 0.2290
vn 0.5413 0.8077 0.2339
vn 0.3680 0.8751 0.3142
vn 0.5221 -0.1767 0.8344
vn 0.3200 0.7821 -0.5347
vn 0.3680 0.8751 0.3142
vn 0.5413 0.8077 0.2339
vn 0.1112 0.8013 -0.5878
vn 0.3680 0.8751 0.3142
vn 0.3200 0.7821 -0.5347
vn 0.3584 0.8967 0.2597
vn 0.3680 0.8751 0.3142
vn 0.1112 0.8013 -0.5878
vn 0.0626 0.8181 -0.5717
vn 0.3584 0.8967 0.2597
vn 0.1112 0.8013 -0.5878
vn 0.4295 0.8796 0.2046
vn 0.3584 0.8967 0.2597
vn 0.0626 0.8181 -0.5717
vn 0.1207 0.8596 -0.4965
vn 0.4295 0.8796 0.2046
vn 0.0626 0.8181 -0.5717
vn 0.3772 0.9187 0.1169
vn 0.4295 0.8796 0.2046
vn 0.1207 0.8596 -0.4965
vn 0.2059 0.9274 -0.3123
vn 0.3772 0.9187 0.1169
vn 0.1207 0.8596 -0.4965
vn -0.0231 0.9997 -0.0104
vn 0.3772 0.9187 0.1169
vn 0.2059 0.9274 -0.3123
vn -0.2696 0.9295 -0.2518
vn -0.0231 0.9997 -0.0104
vn 0.2059 0.9274 -0.3123
vn 0.4144 0.8698 -0.2676
vn -0.2696 0.9295 -0.2518
vn 0.2059 0.9274 -0.3123
vn -0.4308 0.8590 -0.2767
vn -0.2696 0.9295 -0.2518
vn 0.4144 0.8698 -0.2676
vn -0.5001 0.8025 -0.3254
vn -0.4308 0.8590 -0.2767
vn 0.4144 0.8698 -0.2676
vn 0.4918 0.8576 -0.1502
vn -0.5001 0.8025 -0.3254
vn 0.4144 0.8698 -0.2676
vn -0.4099 0.8116 -0.4163
vn -0.5001 0.8025 -0.3254
vn 0.4918 0.8576 -0.1502
vn 0.4705 0.8647 -0.1758
vn -0.4099 0.8116 -0.4163
vn 0.4918 0.8576 -0.1502
vn -0.3129 0.6626 -0.6805
vn -0.4099 0.8116 -0.4163
vn 0.4705 0.8647 -0.1758
vn 0.4997 0.7159 -0.4876
vn -0.3129 0.6626 -0.6805
vn 0.4705 0.8647 -0.1758
vn -0.2608 0.0036 -0.9654
vn -0.3129 0.6626 -0.6805
vn 0.4997 0.7159 -0.4876
vn -0.8414 -0.0803 -0.5345
vn -0.3129 0.6626 -0.6805
vn -0.2608 0.0036 -0.9654
vn -0.8414 -0.0803 -0.5345
vn -0.4099 0.8116 -0.4163
vn -0.3129 0.6626 -0.6805
vn -0.8414 -0.0803 -0.5345
vn -0.5001 0.8025 -0.3254
vn -0.4099 0.8116 -0.4163
vn -0.9006 -0.1695 -0.4002
vn -0.5001 0.8025 -0.3254
vn -0.8414 -0.0803 -0.5345
vn -0.8788 -0.2487 -0.4072
vn -0.5001 0.8025 -0.3254
vn -0.9006 -0.1695 -0.4002
vn -0.8788 -0.2487 -0.4072
vn -0.4308 0.8590 -0.2767
vn -0.5001 0.8025 -0.3254
vn -0.7518 -0.3040 -0.5851
vn -0.4308 0.8590 -0.2767
vn -0.8788 -0.2487 -0.4072
vn -0.7518 -0.3040 -0.5851
vn -0.2696 0.9295 -0.2518
vn -0.4308 0.8590 -0.2767
vn -0.2451 0.8828 -0.4006
vn -0.2696 0.9295 -0.2518
vn -0.7518 -0.3040 -0.5851
vn -0.2322 -0.2749 -0.9330
vn -0.2451 0.8828 -0.4006
vn -0.7518 -0.3040 -0.5851
vn -0.0099 0.8573 -0.5148
vn -0.2451 0.8828 -0.4006
vn -0.2322 -0.2749 -0.9330
vn 0.1340 -0.2307 -0.9638
vn -0.0099 0.8573 -0.5148
vn -0.2322 -0.2749 -0.9330
vn 0.0906 0.8489 -0.5207
vn -0.0099 0.8573 -0.5148
vn 0.1340 -0.2307 -0.9638
vn 0.3414 -0.1363 -0.9300
vn 0.0906 0.8489 -0.5207
vn 0.1340 -0.2307 -0.9638
vn 0.0954 0.8126 -0.5750
vn 0.0906 0.8489 -0.5207
vn 0.3414 -0.1363 -0.9300
vn 0.4150 -0.0352 -0.9092
vn 0.0954 0.8126 -0.5750
vn 0.3414 -0.1363 -0.9300
vn -0.1768 0.6614 -0.7289
vn 0.0954 0.8126 -0.5750
vn 0.4150 -0.0352 -0.9092
vn -0.3063 -0.0005 -0.9519
vn -0.1768 0.6614 -0.7289
vn 0.4150 -0.0352 -0.9092
vn -0.9854 -0.0006 -0.1700
vn -0.1768 0.6614 -0.7289
vn -0.3063 -0.0005 -0.9519
vn -0.9854 -0.0006 -0.1700
vn -0.7261 0.6822 -0.0853
vn -0.1768 0.6614 -0.7289
vn -0.7261 0.6822 -0.0853
vn 0.0954 0.8126 -0.5750
vn -0.1768 0.6614 -0.7289
vn -0.8428 -0.0439 0.5364
vn -0.7261 0.6822 -0.0853
vn -0.9854 -0.0006 -0.1700
vn -0.8428 -0.0439 0.5364
vn -0.5233 0.8237 0.2183
vn -0.7261 0.6822 -0.0853
vn -0.5233 0.8237 0.2183
vn 0.0954 0.8126 -0.5750
vn -0.7261 0.6822 -0.0853
vn -0.5233 0.8237 0.2183
vn -0.4111 0.8529 0.3219
vn 0.0954 0.8126 -0.5750
vn -0.4111 0.8529 0.3219
vn 0.0906 0.8489 -0.5207
vn 0.0954 0.8126 -0.5750
vn -0.4111 0.8529 0.3219
vn -0.3301 0.8878 0.3207
vn 0.0906 0.8489 -0.5207
vn -0.3301 0.8878 0.3207
vn -0.0099 0.8573 -0.5148
vn 0.0906 0.8489 -0.5207
vn -0.3301 0.8878 0.3207
vn -0.3890 0.8841 0.2589
vn -0.0099 0.8573 -0.5148
vn -0.3890 0.8841 0.2589
vn -0.2451 0.8828 -0.4006
vn -0.0099 0.8573 -0.5148
vn -0.3890 0.8841 0.2589
vn -0.3515 0.9217 0.1642
vn -0.2451 0.8828 -0.4006
vn -0.3515 0.9217 0.1642
vn -0.2696 0.9295 -0.2518
vn -0.2451 0.8828 -0.4006
vn -0.3515 0.9217 0.1642
vn -0.0231 0.9997 -0.0104
vn -0.2696 0.9295 -0.2518
vn -0.3515 0.9217 0.1642
vn 0.0082 0.9314 0.3640
vn -0.0231 0.9997 -0.0104
vn 0.0082 0.9314 0.3640
vn 0.3772 0.9187 0.1169
vn -0.0231 0.9997 -0.0104
vn 0.0082 0.9314 0.3640
vn -0.1142 0.8856 0.4502
vn 0.3772 0.9187 0.1169
vn -0.1142 0.8856 0.4502
vn 0.0082 0.9314 0.3640
vn 0.0781 -0.3221 0.9435
vn -0.1142 0.8856 0.4502
vn 0.0781 -0.3221 0.9435
vn -0.4753 -0.2634 0.8395
vn -0.1257 0.8874 0.4435
vn -0.1142 0.8856 0.4502
vn -0.4753 -0.2634 0.8395
vn -0.5857 -0.1748 0.7915
vn -0.1257 0.8874 0.4435
vn -0.4753 -0.2634 0.8395
vn 0.0051 0.7855 0.6188
vn -0.1257 0.8874 0.4435
vn -0.5857 -0.1748 0.7915
vn 0.2575 -0.0332 0.9657
vn 0.0051 0.7855 0.6188
vn -0.5857 -0.1748 0.7915
vn 0.9792 -0.0347 0.2000
vn 0.0051 0.7855 0.6188
vn 0.2575 -0.0332 0.9657
vn 0.9792 -0.0347 0.2000
vn 0.6094 0.7891 0.0769
vn 0.0051 0.7855 0.6188
vn 0.6094 0.7891 0.0769
vn -0.1257 0.8874 0.4435
vn 0.0051 0.7855 0.6188
vn 0.8815 -0.1835 -0.4351
vn 0.6094 0.7891 0.0769
vn 0.9792 -0.0347 0.2000
vn 0.8815 -0.1835 -0.4351
vn 0.6035 0.7781 -0.1743
vn 0.6094 0.7891 0.0769
vn 0.6035 0.7781 -0.1743
vn -0.1257 0.8874 0.4435
vn 0.6094 0.7891 0.0769
vn 0.6035 0.7781 -0.1743
vn 0.4839 0.8751 0.0023
vn -0.1257 0.8874 0.4435
vn 0.4839 0.8751 0.0023
vn -0.1142 0.8856 0.4502
vn -0.1257 0.8874 0.4435
vn 0.4839 0.8751 0.0023
vn 0.3772 0.9187 0.1169
vn -0.1142 0.8856 0.4502
vn 0.4839 0.8751 0.0023
vn 0.9250 -0.3313 0.1860
vn 0.3772 0.9187 0.1169
vn 0.9250 -0.3313 0.1860
vn 0.4295 0.8796 0.2046
vn 0.3772 0.9187 0.1169
vn 0.7186 -0.2894 0.6324
vn 0.4295 0.8796 0.2046
vn 0.9250 -0.3313 0.1860
vn 0.7186 -0.2894 0.6324
vn 0.3584 0.8967 0.2597
vn 0.4295 0.8796 0.2046
vn 0.5163 -0.2526 0.8183
vn 0.3584 0.8967 0.2597
vn 0.7186 -0.2894 0.6324
vn 0.5163 -0.2526 0.8183
vn 0.3680 0.8751 0.3142
vn 0.3584 0.8967 0.2597
vn 0.3680 0.8751 0.3142
vn 0.5163 -0.2526 0.8183
vn 0.5221 -0.1767 0.8344
vn 0.4839 0.8751 0.0023
vn 0.9036 -0.2538 -0.3451
vn 0.9250 -0.3313 0.1860
vn 0.6035 0.7781 -0.1743
vn 0.9036 -0.2538 -0.3451
vn 0.4839 0.8751 0.0023
vn 0.9036 -0.2538 -0.3451
vn 0.6035 0.7781 -0.1743
vn 0.8815 -0.1835 -0.4351
vn -0.6908 -0.1390 0.7096
vn -0.4111 0.8529 0.3219
vn -0.5233 0.8237 0.2183
vn -0.6908 -0.1390 0.7096
vn -0.5233 0.8237 0.2183
vn -0.8428 -0.0439 0.5364
vn -0.6051 -0.2327 0.7614
vn -0.4111 0.8529 0.3219
vn -0.6908 -0.1390 0.7096
vn -0.6051 -0.2327 0.7614
vn -0.3301 0.8878 0.3207
vn -0.4111 0.8529 0.3219
vn -0.7009 -0.2443 0.6701
vn -0.3301 0.8878 0.3207
vn -0.6051 -0.2327 0.7614
vn -0.7009 -0.2443 0.6701
vn -0.3890 0.8841 0.2589
vn -0.3301 0.8878 0.3207
vn -0.8697 -0.2954 0.3955
vn -0.3890 0.8841 0.2589
vn -0.7009 -0.2443 0.6701
vn -0.8697 -0.2954 0.3955
vn -0.3515 0.9217 0.1642
vn -0.3890 0.8841 0.2589
vn -0.4527 0.8869 0.0918
vn -0.3515 0.9217 0.1642
vn -0.8697 -0.2954 0.3955
vn -0.9623 -0.2648 -0.0622
vn -0.4527 0.8869 0.0918
vn -0.8697 -0.2954 0.3955
vn -0.5679 0.8231 -0.0043
vn -0.4527 0.8869 0.0918
vn -0.9623 -0.2648 -0.0622
vn -0.9516 -0.1497 -0.2685
vn -0.5679 0.8231 -0.0043
vn -0.9623 -0.2648 -0.0622
vn -0.6555 0.7474 0.1086
vn -0.5679 0.8231 -0.0043
vn -0.9516 -0.1497 -0.2685
vn -0.8989 -0.0679 0.4329
vn -0.6555 0.7474 0.1086
vn -0.9516 -0.1497 -0.2685
vn 0.0986 0.7651 0.6363
vn -0.6555 0.7474 0.1086
vn -0.8989 -0.0679 0.4329
vn -0.0767 -0.0682 0.9947
vn 0.0986 0.7651 0.6363
vn -0.8989 -0.0679 0.4329
vn 0.6732 -0.1640 0.7210
vn 0.0986 0.7651 0.6363
vn -0.0767 -0.0682 0.9947
vn 0.6732 -0.1640 0.7210
vn 0.3153 0.8165 0.4837
vn 0.0986 0.7651 0.6363
vn 0.3153 0.8165 0.4837
vn -0.6555 0.7474 0.1086
vn 0.0986 0.7651 0.6363
vn 0.3153 0.8165 0.4837
vn -0.5679 0.8231 -0.0043
vn -0.6555 0.7474 0.1086
vn 0.3153 0.8165 0.4837
vn 0.1806 0.8905 0.4176
vn -0.5679 0.8231 -0.0043
vn 0.1806 0.8905 0.4176
vn -0.4527 0.8869 0.0918
vn -0.5679 0.8231 -0.0043
vn 0.1806 0.8905 0.4176
vn 0.0082 0.9314 0.3640
vn -0.4527 0.8869 0.0918
vn -0.4527 0.8869 0.0918
vn 0.0082 0.9314 0.3640
vn -0.3515 0.9217 0.1642
vn 0.0781 -0.3221 0.9435
vn 0.0082 0.9314 0.3640
vn 0.1806 0.8905 0.4176
vn 0.1806 0.8905 0.4176
vn 0.6719 -0.2584 0.6941
vn 0.0781 -0.3221 0.9435
vn 0.3153 0.8165 0.4837
vn 0.6719 -0.2584 0.6941
vn 0.1806 0.8905 0.4176
vn 0.6719 -0.2584 0.6941
vn 0.3153 0.8165 0.4837
vn 0.6732 -0.1640 0.7210
vn 0.4753 -0.7596 -0.4440
vn -0.2608 0.0036 -0.9654
vn 0.6501 0.0046 -0.7599
vn 0.9970 -0.0601 -0.0486
vn 0.4753 -0.7596 -0.4440
vn 0.6501 0.0046 -0.7599
vn 0.3899 -0.9191 -0.0572
vn 0.4753 -0.7596 -0.4440
vn 0.9970 -0.0601 -0.0486
vn 0.9840 -0.1732 -0.0418
vn 0.3899 -0.9191 -0.0572
vn 0.9970 -0.0601 -0.0486
vn 0.3091 -0.9506 -0.0285
vn 0.3899 -0.9191 -0.0572
vn 0.9840 -0.1732 -0.0418
vn 0.9139 -0.2643 -0.3080
vn 0.3091 -0.9506 -0.0285
vn 0.9840 -0.1732 -0.0418
vn 0.2202 -0.9720 -0.0822
vn 0.3091 -0.9506 -0.0285
vn 0.9139 -0.2643 -0.3080
vn 0.5954 -0.3462 -0.7250
vn 0.2202 -0.9720 -0.0822
vn 0.9139 -0.2643 -0.3080
vn 0.0578 -0.9961 -0.0663
vn 0.2202 -0.9720 -0.0822
vn 0.5954 -0.3462 -0.7250
vn 0.0268 -0.9775 -0.2091
vn 0.0578 -0.9961 -0.0663
vn 0.5954 -0.3462 -0.7250
vn 0.0795 -0.3100 -0.9474
vn 0.0268 -0.9775 -0.2091
vn 0.5954 -0.3462 -0.7250
vn -0.0026 -0.9580 -0.2867
vn 0.0268 -0.9775 -0.2091
vn 0.0795 -0.3100 -0.9474
vn -0.0414 -0.2591 -0.9650
vn -0.0026 -0.9580 -0.2867
vn 0.0795 -0.3100 -0.9474
vn -0.0072 -0.1950 -0.9808
vn -0.0026 -0.9580 -0.2867
vn -0.0414 -0.2591 -0.9650
vn -0.0300 -0.9323 -0.3605
vn -0.0026 -0.9580 -0.2867
vn -0.0072 -0.1950 -0.9808
vn 0.1772 -0.8904 -0.4194
vn -0.0300 -0.9323 -0.3605
vn -0.0072 -0.1950 -0.9808
vn 0.6675 -0.0586 -0.7423
vn 0.1772 -0.8904 -0.4194
vn -0.0072 -0.1950 -0.9808
vn 0.3506 -0.9115 0.2149
vn 0.1772 -0.8904 -0.4194
vn 0.6675 -0.0586 -0.7423
vn 0.9719 -0.0552 0.2290
vn 0.3506 -0.9115 0.2149
vn 0.6675 -0.0586 -0.7423
vn 0.5221 -0.1767 0.8344
vn 0.3506 -0.9115 0.2149
vn 0.9719 -0.0552 0.2290
vn 0.1350 -0.9587 0.2505
vn 0.3506 -0.9115 0.2149
vn 0.5221 -0.1767 0.8344
vn 0.1350 -0.9587 0.2505
vn 0.1772 -0.8904 -0.4194
vn 0.3506 -0.9115 0.2149
vn 0.1350 -0.9587 0.2505
vn -0.0300 -0.9323 -0.3605
vn 0.1772 -0.8904 -0.4194
vn 0.1350 -0.9587 0.2505
vn 0.1175 -0.9833 0.1388
vn -0.0300 -0.9323 -0.3605
vn 0.1175 -0.9833 0.1388
vn -0.0026 -0.9580 -0.2867
vn -0.0300 -0.9323 -0.3605
vn 0.1175 -0.9833 0.1388
vn 0.1604 -0.9814 0.1058
vn -0.0026 -0.9580 -0.2867
vn 0.1604 -0.9814 0.1058
vn 0.0268 -0.9775 -0.2091
vn -0.0026 -0.9580 -0.2867
vn 0.1604 -0.9814 0.1058
vn 0.1088 -0.9939 0.0170
vn 0.0268 -0.9775 -0.2091
vn 0.1088 -0.9939 0.0170
vn 0.0578 -0.9961 -0.0663
vn 0.0268 -0.9775 -0.2091
vn 0.1088 -0.9939 0.0170
vn -0.0022 -1.0000 -0.0020
vn 0.0578 -0.9961 -0.0663
vn -0.0022 -1.0000 -0.0020
vn -0.0632 -0.9967 -0.0517
vn 0.0578 -0.9961 -0.0663
vn -0.0632 -0.9967 -0.0517
vn 0.2202 -0.9720 -0.0822
vn 0.0578 -0.9961 -0.0663
vn -0.0632 -0.9967 -0.0517
vn -0.2363 -0.9668 -0.0976
vn 0.2202 -0.9720 -0.0822
vn -0.2363 -0.9668 -0.0976
vn -0.3676 -0.9116 -0.1839
vn 0.2202 -0.9720 -0.0822
vn -0.3676 -0.9116 -0.1839
vn 0.3091 -0.9506 -0.0285
vn 0.2202 -0.9720 -0.0822
vn -0.3676 -0.9116 -0.1839
vn -0.3816 -0.8846 -0.2680
vn 0.3091 -0.9506 -0.0285
vn -0.3816 -0.8846 -0.2680
vn 0.3899 -0.9191 -0.0572
vn 0.3091 -0.9506 -0.0285
vn -0.3816 -0.8846 -0.2680
vn -0.3076 -0.7199 -0.6222
vn 0.3899 -0.9191 -0.0572
vn -0.3076 -0.7199 -0.6222
vn 0.4753 -0.7596 -0.4440
vn 0.3899 -0.9191 -0.0572
vn -0.3076 -0.7199 -0.6222
vn -0.2608 0.0036 -0.9654
vn 0.4753 -0.7596 -0.4440
vn -0.3076 -0.7199 -0.6222
vn -0.8414 -0.0803 -0.5345
vn -0.2608 0.0036 -0.9654
vn -0.3816 -0.8846 -0.2680
vn -0.8414 -0.0803 -0.5345
vn -0.3076 -0.7199 -0.6222
vn -0.3676 -0.9116 -0.1839
vn -0.8414 -0.0803 -0.5345
vn -0.3816 -0.8846 -0.2680
vn -0.3676 -0.9116 -0.1839
vn -0.9006 -0.1695 -0.4002
vn -0.8414 -0.0803 -0.5345
vn -0.3676 -0.9116 -0.1839
vn -0.8788 -0.2487 -0.4072
vn -0.9006 -0.1695 -0.4002
vn -0.2363 -0.9668 -0.0976
vn -0.8788 -0.2487 -0.4072
vn -0.3676 -0.9116 -0.1839
vn -0.2363 -0.9668 -0.0976
vn -0.7518 -0.3040 -0.5851
vn -0.8788 -0.2487 -0.4072
vn -0.0632 -0.9967 -0.0517
vn -0.7518 -0.3040 -0.5851
vn -0.2363 -0.9668 -0.0976
vn -0.0632 -0.9967 -0.0517
vn -0.0761 -0.9823 -0.1709
vn -0.7518 -0.3040 -0.5851
vn -0.0761 -0.9823 -0.1709
vn -0.2322 -0.2749 -0.9330
vn -0.7518 -0.3040 -0.5851
vn -0.0761 -0.9823 -0.1709
vn 0.0039 -0.9613 -0.2753
vn -0.2322 -0.2749 -0.9330
vn 0.0039 -0.9613 -0.2753
vn 0.1340 -0.2307 -0.9638
vn -0.2322 -0.2749 -0.9330
vn 0.0039 -0.9613 -0.2753
vn 0.1433 -0.9312 -0.3351
vn 0.1340 -0.2307 -0.9638
vn 0.1433 -0.9312 -0.3351
vn 0.3414 -0.1363 -0.9300
vn 0.1340 -0.2307 -0.9638
vn 0.1433 -0.9312 -0.3351
vn 0.1846 -0.8691 -0.4590
vn 0.3414 -0.1363 -0.9300
vn 0.1846 -0.8691 -0.4590
vn 0.4150 -0.0352 -0.9092
vn 0.3414 -0.1363 -0.9300
vn 0.1846 -0.8691 -0.4590
vn -0.1537 -0.7103 -0.6869
vn 0.4150 -0.0352 -0.9092
vn -0.1537 -0.7103 -0.6869
vn -0.3063 -0.0005 -0.9519
vn 0.4150 -0.0352 -0.9092
vn -0.1537 -0.7103 -0.6869
vn -0.9854 -0.0006 -0.1700
vn -0.3063 -0.0005 -0.9519
vn -0.1537 -0.7103 -0.6869
vn -0.6743 -0.7351 -0.0703
vn -0.9854 -0.0006 -0.1700
vn 0.1846 -0.8691 -0.4590
vn -0.6743 -0.7351 -0.0703
vn -0.1537 -0.7103 -0.6869
vn -0.6743 -0.7351 -0.0703
vn -0.8428 -0.0439 0.5364
vn -0.9854 -0.0006 -0.1700
vn -0.6743 -0.7351 -0.0703
vn -0.3777 -0.8901 0.2551
vn -0.8428 -0.0439 0.5364
vn 0.1846 -0.8691 -0.4590
vn -0.3777 -0.8901 0.2551
vn -0.6743 -0.7351 -0.0703
vn -0.2218 -0.9319 0.2872
vn -0.3777 -0.8901 0.2551
vn 0.1846 -0.8691 -0.4590
vn 0.1433 -0.9312 -0.3351
vn -0.2218 -0.9319 0.2872
vn 0.1846 -0.8691 -0.4590
vn -0.1508 -0.9708 0.1865
vn -0.2218 -0.9319 0.2872
vn 0.1433 -0.9312 -0.3351
vn 0.0039 -0.9613 -0.2753
vn -0.1508 -0.9708 0.1865
vn 0.1433 -0.9312 -0.3351
vn -0.1592 -0.9791 0.1268
vn -0.1508 -0.9708 0.1865
vn 0.0039 -0.9613 -0.2753
vn -0.0761 -0.9823 -0.1709
vn -0.1592 -0.9791 0.1268
vn 0.0039 -0.9613 -0.2753
vn -0.0769 -0.9965 0.0338
vn -0.1592 -0.9791 0.1268
vn -0.0761 -0.9823 -0.1709
vn -0.0632 -0.9967 -0.0517
vn -0.0769 -0.9965 0.0338
vn -0.0761 -0.9823 -0.1709
vn -0.0022 -1.0000 -0.0020
vn -0.0769 -0.9965 0.0338
vn -0.0632 -0.9967 -0.0517
vn -0.0026 -0.9976 0.0693
vn -0.0769 -0.9965 0.0338
vn -0.0022 -1.0000 -0.0020
vn 0.1088 -0.9939 0.0170
vn -0.0026 -0.9976 0.0693
vn -0.0022 -1.0000 -0.0020
vn -0.0902 -0.9812 0.1704
vn -0.0026 -0.9976 0.0693
vn 0.1088 -0.9939 0.0170
vn -0.0902 -0.9812 0.1704
vn 0.0781 -0.3221 0.9435
vn -0.0026 -0.9976 0.0693
vn -0.0902 -0.9812 0.1704
vn -0.4753 -0.2634 0.8395
vn 0.0781 -0.3221 0.9435
vn -0.0902 -0.9812 0.1704
vn -0.1534 -0.9628 0.2223
vn -0.4753 -0.2634 0.8395
vn -0.1534 -0.9628 0.2223
vn -0.5857 -0.1748 0.7915
vn -0.4753 -0.2634 0.8395
vn -0.1534 -0.9628 0.2223
vn -0.0398 -0.8740 0.4843
vn -0.5857 -0.1748 0.7915
vn -0.0398 -0.8740 0.4843
vn 0.2575 -0.0332 0.9657
vn -0.5857 -0.1748 0.7915
vn -0.0398 -0.8740 0.4843
vn 0.9792 -0.0347 0.2000
vn 0.2575 -0.0332 0.9657
vn -0.0398 -0.8740 0.4843
vn 0.4779 -0.8782 0.0208
vn 0.9792 -0.0347 0.2000
vn -0.1534 -0.9628 0.2223
vn 0.4779 -0.8782 0.0208
vn -0.0398 -0.8740 0.4843
vn 0.4779 -0.8782 0.0208
vn 0.8815 -0.1835 -0.4351
vn 0.9792 -0.0347 0.2000
vn 0.4779 -0.8782 0.0208
vn 0.3379 -0.9254 -0.1718
vn 0.8815 -0.1835 -0.4351
vn -0.1534 -0.9628 0.2223
vn 0.3379 -0.9254 -0.1718
vn 0.4779 -0.8782 0.0208
vn 0.2062 -0.9774 -0.0468
vn 0.3379 -0.9254 -0.1718
vn -0.1534 -0.9628 0.2223
vn -0.0902 -0.9812 0.1704
vn 0.2062 -0.9774 -0.0468
vn -0.1534 -0.9628 0.2223
vn 0.1088 -0.9939 0.0170
vn 0.2062 -0.9774 -0.0468
vn -0.0902 -0.9812 0.1704
vn 0.9250 -0.3313 0.1860
vn 0.2062 -0.9774 -0.0468
vn 0.1088 -0.9939 0.0170
vn 0.1604 -0.9814 0.1058
vn 0.9250 -0.3313 0.1860
vn 0.1088 -0.9939 0.0170
vn 0.1604 -0.9814 0.1058
vn 0.7186 -0.2894 0.6324
vn 0.9250 -0.3313 0.1860
vn 0.1175 -0.9833 0.1388
vn 0.7186 -0.2894 0.6324
vn 0.1604 -0.9814 0.1058
vn 0.1175 -0.9833 0.1388
vn 0.5163 -0.2526 0.8183
vn 0.7186 -0.2894 0.6324
vn 0.1350 -0.9587 0.2505
vn 0.5163 -0.2526 0.8183
vn 0.1175 -0.9833 0.1388
vn 0.1350 -0.9587 0.2505
vn 0.5221 -0.1767 0.8344
vn 0.5163 -0.2526 0.8183
vn 0.9036 -0.2538 -0.3451
vn 0.2062 -0.9774 -0.0468
vn 0.9250 -0.3313 0.1860
vn 0.9036 -0.2538 -0.3451
vn 0.3379 -0.9254 -0.1718
vn 0.2062 -0.9774 -0.0468
vn 0.3379 -0.9254 -0.1718
vn 0.9036 -0.2538 -0.3451
vn 0.8815 -0.1835 -0.4351
vn -0.2218 -0.9319 0.2872
vn -0.6908 -0.1390 0.7096
vn -0.3777 -0.8901 0.2551
vn -0.3777 -0.8901 0.2551
vn -0.6908 -0.1390 0.7096
vn -0.8428 -0.0439 0.5364
vn -0.6051 -0.2327 0.7614
vn -0.6908 -0.1390 0.7096
vn -0.2218 -0.9319 0.2872
vn -0.1508 -0.9708 0.1865
vn -0.6051 -0.2327 0.7614
vn -0.2218 -0.9319 0.2872
vn -0.1508 -0.9708 0.1865
vn -0.7009 -0.2443 0.6701
vn -0.6051 -0.2327 0.7614
vn -0.1592 -0.9791 0.1268
vn -0.7009 -0.2443 0.6701
vn -0.1508 -0.9708 0.1865
vn -0.1592 -0.9791 0.1268
vn -0.8697 -0.2954 0.3955
vn -0.7009 -0.2443 0.6701
vn -0.0769 -0.9965 0.0338
vn -0.8697 -0.2954 0.3955
vn -0.1592 -0.9791 0.1268
vn -0.1834 -0.9830 -0.0082
vn -0.8697 -0.2954 0.3955
vn -0.0769 -0.9965 0.0338
vn -0.0026 -0.9976 0.0693
vn -0.1834 -0.9830 -0.0082
vn -0.0769 -0.9965 0.0338
vn 0.1162 -0.9818 0.1504
vn -0.1834 -0.9830 -0.0082
vn -0.0026 -0.9976 0.0693
vn 0.0781 -0.3221 0.9435
vn 0.1162 -0.9818 0.1504
vn -0.0026 -0.9976 0.0693
vn 0.6719 -0.2584 0.6941
vn 0.1162 -0.9818 0.1504
vn 0.0781 -0.3221 0.9435
vn 0.2807 -0.9165 0.2850
vn 0.1162 -0.9818 0.1504
vn 0.6719 -0.2584 0.6941
vn 0.6732 -0.1640 0.7210
vn 0.2807 -0.9165 0.2850
vn 0.6719 -0.2584 0.6941
vn 0.1360 -0.8728 0.4688
vn 0.2807 -0.9165 0.2850
vn 0.6732 -0.1640 0.7210
vn -0.0767 -0.0682 0.9947
vn 0.1360 -0.8728 0.4688
vn 0.6732 -0.1640 0.7210
vn -0.8989 -0.0679 0.4329
vn 0.1360 -0.8728 0.4688
vn -0.0767 -0.0682 0.9947
vn -0.5123 -0.8587 0.0128
vn 0.1360 -0.8728 0.4688
vn -0.8989 -0.0679 0.4329
vn -0.5123 -0.8587 0.0128
vn 0.2807 -0.9165 0.2850
vn 0.1360 -0.8728 0.4688
vn -0.5123 -0.8587 0.0128
vn -0.3810 -0.9217 -0.0727
vn 0.2807 -0.9165 0.2850
vn -0.3810 -0.9217 -0.0727
vn 0.1162 -0.9818 0.1504
vn 0.2807 -0.9165 0.2850
vn -0.3810 -0.9217 -0.0727
vn -0.1834 -0.9830 -0.0082
vn 0.1162 -0.9818 0.1504
vn -0.3810 -0.9217 -0.0727
vn -0.9623 -0.2648 -0.0622
vn -0.1834 -0.9830 -0.0082
vn -0.1834 -0.9830 -0.0082
vn -0.9623 -0.2648 -0.0622
vn -0.8697 -0.2954 0.3955
vn -0.9516 -0.1497 -0.2685
vn -0.9623 -0.2648 -0.0622
vn -0.3810 -0.9217 -0.0727
vn -0.5123 -0.8587 0.0128
vn -0.9516 -0.1497 -0.2685
vn -0.3810 -0.9217 -0.0727
vn -0.5123 -0.8587 0.0128
vn -0.8989 -0.0679 0.4329
vn -0.9516 -0.1497 -0.2685
# 774 vertex normals

vt 0.1122 0.1978 0.0000
vt 0.1109 0.1948 0.0000
vt 0.1077 0.1982 0.0000
vt 0.1179 0.1885 0.0000
vt 0.1088 0.1851 0.0000
vt 0.1202 0.1709 0.0000
vt 0.1065 0.1660 0.0000
vt 0.1210 0.1514 0.0000
vt 0.1054 0.1436 0.0000
vt 0.1267 0.1411 0.0000
vt 0.1137 0.1196 0.0000
vt 0.1356 0.1206 0.0000
vt 0.1392 0.1387 0.0000
vt 0.1589 0.1265 0.0000
vt 0.1616 0.1411 0.0000
vt 0.1853 0.1299 0.0000
vt 0.1853 0.1396 0.0000
vt 0.1979 0.1309 0.0000
vt 0.2032 0.1338 0.0000
vt 0.1986 0.1279 0.0000
vt 0.2048 0.1284 0.0000
vt 0.1956 0.1157 0.0000
vt 0.1882 0.1230 0.0000
vt 0.1652 0.1143 0.0000
vt 0.1490 0.1011 0.0000
vt 0.1301 0.0811 0.0000
vt 0.0969 0.0947 0.0000
vt 0.0815 0.1187 0.0000
vt 0.0877 0.1450 0.0000
vt 0.0923 0.1670 0.0000
vt 0.1006 0.1851 0.0000
vt 0.1067 0.1948 0.0000
vt 0.0942 0.1895 0.0000
vt 0.0831 0.1738 0.0000
vt 0.0736 0.1553 0.0000
vt 0.0657 0.1436 0.0000
vt 0.0639 0.1157 0.0000
vt 0.0546 0.1338 0.0000
vt 0.0360 0.1201 0.0000
vt 0.0349 0.1338 0.0000
vt 0.0201 0.1250 0.0000
vt 0.0218 0.1362 0.0000
vt 0.0090 0.1318 0.0000
vt 0.0095 0.1392 0.0000
vt 0.0051 0.1348 0.0000
vt 0.0039 0.1377 0.0000
vt 0.0007 0.1343 0.0000
vt 0.0033 0.1323 0.0000
vt 0.0001 0.1270 0.0000
vt 0.0064 0.1279 0.0000
vt 0.0154 0.1196 0.0000
vt 0.0285 0.1113 0.0000
vt 0.0546 0.0947 0.0000
vt 0.0729 0.0820 0.0000
vt 0.1044 0.0640 0.0000
vt 0.1233 0.0527 0.0000
vt 0.1052 0.0356 0.0000
vt 0.1177 0.0322 0.0000
vt 0.1544 0.0200 0.0000
vt 0.1509 0.0093 0.0000
vt 0.1636 0.0112 0.0000
vt 0.1661 0.0073 0.0000
vt 0.1693 0.0107 0.0000
vt 0.1654 0.0127 0.0000
vt 0.1671 0.0269 0.0000
vt 0.1586 0.0234 0.0000
vt 0.1344 0.0596 0.0000
vt 0.1566 0.0747 0.0000
vt 0.1682 0.0933 0.0000
vt 0.1797 0.1040 0.0000
vt 0.1566 0.0571 0.0000
vt 0.0068 0.1147 0.0000
vt 0.0173 0.1035 0.0000
vt 0.0391 0.0835 0.0000
vt 0.0473 0.0698 0.0000
vt 0.0711 0.0596 0.0000
vt 0.0507 0.0557 0.0000
vt 0.0597 0.0229 0.0000
vt 0.0457 0.0205 0.0000
vt 0.0527 0.0088 0.0000
vt 0.0480 0.0029 0.0000
vt 0.0553 0.0068 0.0000
vt 0.0518 0.0005 0.0000
vt 0.0714 0.0054 0.0000
vt 0.0670 0.0181 0.0000
vt 0.0863 0.0503 0.0000
vt 0.0915 0.0288 0.0000
vt 0.5635 0.4019 0.0000
vt 0.5610 0.4058 0.0000
vt 0.5601 0.4009 0.0000
vt 0.5586 0.3936 0.0000
vt 0.5493 0.3931 0.0000
vt 0.5532 0.3765 0.0000
vt 0.5420 0.3760 0.0000
vt 0.5488 0.3579 0.0000
vt 0.5322 0.3560 0.0000
vt 0.5503 0.3462 0.0000
vt 0.5303 0.3320 0.0000
vt 0.5493 0.3262 0.0000
vt 0.5591 0.3369 0.0000
vt 0.5742 0.3213 0.0000
vt 0.5796 0.3281 0.0000
vt 0.6021 0.3198 0.0000
vt 0.5991 0.3159 0.0000
vt 0.6108 0.3125 0.0000
vt 0.6147 0.3125 0.0000
vt 0.6104 0.3086 0.0000
vt 0.6143 0.3071 0.0000
vt 0.6021 0.3027 0.0000
vt 0.6001 0.3071 0.0000
vt 0.5767 0.3032 0.0000
vt 0.5557 0.2983 0.0000
vt 0.5298 0.2891 0.0000
vt 0.5039 0.3145 0.0000
vt 0.4983 0.3423 0.0000
vt 0.5132 0.3643 0.0000
vt 0.5259 0.3833 0.0000
vt 0.5400 0.3989 0.0000
vt 0.5581 0.4048 0.0000
vt 0.5361 0.4033 0.0000
vt 0.5200 0.3921 0.0000
vt 0.5039 0.3789 0.0000
vt 0.4924 0.3711 0.0000
vt 0.4807 0.3457 0.0000
vt 0.4771 0.3628 0.0000
vt 0.4590 0.3633 0.0000
vt 0.4602 0.3730 0.0000
vt 0.4460 0.3730 0.0000
vt 0.4485 0.3789 0.0000
vt 0.4380 0.3804 0.0000
vt 0.4377 0.3843 0.0000
vt 0.4329 0.3853 0.0000
vt 0.4316 0.3867 0.0000
vt 0.4285 0.3862 0.0000
vt 0.4302 0.3833 0.0000
vt 0.4275 0.3809 0.0000
vt 0.4341 0.3779 0.0000
vt 0.4397 0.3696 0.0000
vt 0.4478 0.3555 0.0000
vt 0.4673 0.3306 0.0000
vt 0.4768 0.3110 0.0000
vt 0.4995 0.2827 0.0000
vt 0.5132 0.2656 0.0000
vt 0.4883 0.2544 0.0000
vt 0.5020 0.2476 0.0000
vt 0.5288 0.2231 0.0000
vt 0.5249 0.2168 0.0000
vt 0.5342 0.2104 0.0000
vt 0.5347 0.2046 0.0000
vt 0.5405 0.2065 0.0000
vt 0.5366 0.2114 0.0000
vt 0.5444 0.2251 0.0000
vt 0.5361 0.2256 0.0000
vt 0.5293 0.2681 0.0000
vt 0.5503 0.2764 0.0000
vt 0.5684 0.2876 0.0000
vt 0.5830 0.2954 0.0000
vt 0.5435 0.2603 0.0000
vt 0.4334 0.3696 0.0000
vt 0.4387 0.3525 0.0000
vt 0.4458 0.3252 0.0000
vt 0.4460 0.3091 0.0000
vt 0.4668 0.2905 0.0000
vt 0.4775 0.2769 0.0000
vt 0.4739 0.2568 0.0000
vt 0.4453 0.2568 0.0000
vt 0.4460 0.2480 0.0000
vt 0.4329 0.2476 0.0000
vt 0.4280 0.2417 0.0000
vt 0.4253 0.2451 0.0000
vt 0.4312 0.2500 0.0000
vt 0.4402 0.2642 0.0000
vt 0.4448 0.2944 0.0000
vt 0.4314 0.2627 0.0000
# 174 texture coords

o SM_Starfish_01_LOD0
g SM_Starfish_01_LOD0
usemtl MAT_Sea_Shells
s 1
f 67/3/1 23/2/2 1/1/3 
f 23/2/4 69/4/5 1/1/6 
f 23/2/7 3/5/8 69/4/9 
f 3/5/10 2/6/11 69/4/12 
f 3/5/13 20/7/14 2/6/15 
f 20/7/16 4/8/17 2/6/18 
f 20/7/19 18/9/20 4/8/21 
f 18/9/22 5/10/23 4/8/24 
f 18/9/25 17/11/26 5/10/27 
f 17/11/28 7/12/29 5/10/30 
f 7/12/31 6/13/32 5/10/33 
f 7/12/34 8/14/35 6/13/36 
f 8/14/37 72/15/38 6/13/39 
f 8/14/40 9/16/41 72/15/42 
f 9/16/43 74/17/44 72/15/45 
f 9/16/46 14/18/47 74/17/48 
f 14/18/49 10/19/50 74/17/51 
f 14/18/52 11/20/53 10/19/54 
f 11/20/55 12/21/56 10/19/57 
f 11/20/58 13/22/59 12/21/60 
f 11/20/61 53/23/62 13/22/63 
f 14/18/64 53/23/65 11/20/66 
f 9/16/67 53/23/68 14/18/69 
f 52/24/70 53/23/71 9/16/72 
f 8/14/73 52/24/74 9/16/75 
f 15/25/76 52/24/77 8/14/78 
f 7/12/79 15/25/80 8/14/81 
f 50/26/82 15/25/83 7/12/84 
f 17/11/85 50/26/86 7/12/87 
f 16/27/88 50/26/89 17/11/90 
f 25/28/91 16/27/92 17/11/93 
f 18/9/94 25/28/95 17/11/96 
f 24/29/97 25/28/98 18/9/99 
f 19/30/100 24/29/101 18/9/102 
f 20/7/103 19/30/104 18/9/105 
f 21/31/106 19/30/107 20/7/108 
f 3/5/109 21/31/110 20/7/111 
f 22/32/112 21/31/113 3/5/114 
f 23/2/115 22/32/116 3/5/117 
f 67/3/118 22/32/119 23/2/120 
f 88/33/121 22/32/122 67/3/123 
f 88/33/124 21/31/125 22/32/126 
f 88/33/127 19/30/128 21/31/129 
f 89/34/130 19/30/131 88/33/132 
f 90/35/133 19/30/134 89/34/135 
f 90/35/136 24/29/137 19/30/138 
f 92/36/139 24/29/140 90/35/141 
f 92/36/142 25/28/143 24/29/144 
f 38/37/145 25/28/146 92/36/147 
f 26/38/148 38/37/149 92/36/150 
f 28/39/151 38/37/152 26/38/153 
f 27/40/154 28/39/155 26/38/156 
f 37/41/157 28/39/158 27/40/159 
f 29/42/160 37/41/161 27/40/162 
f 35/43/163 37/41/164 29/42/165 
f 30/44/166 35/43/167 29/42/168 
f 31/45/169 35/43/170 30/44/171 
f 32/46/172 31/45/173 30/44/174 
f 33/47/175 31/45/176 32/46/177 
f 33/47/178 34/48/179 31/45/180 
f 34/48/181 35/43/182 31/45/183 
f 97/49/184 34/48/185 33/47/186 
f 97/49/187 36/50/188 34/48/189 
f 36/50/190 35/43/191 34/48/192 
f 36/50/193 56/51/194 35/43/195 
f 56/51/196 37/41/197 35/43/198 
f 56/51/199 57/52/200 37/41/201 
f 57/52/202 28/39/203 37/41/204 
f 57/52/205 39/53/206 28/39/207 
f 39/53/208 38/37/209 28/39/210 
f 39/53/211 40/54/212 38/37/213 
f 40/54/214 25/28/215 38/37/216 
f 40/54/217 16/27/218 25/28/219 
f 40/54/220 41/55/221 16/27/222 
f 41/55/223 50/26/224 16/27/225 
f 41/55/226 42/56/227 50/26/228 
f 42/56/229 41/55/230 104/57/231 
f 42/56/232 104/57/233 43/58/234 
f 49/59/235 42/56/236 43/58/237 
f 106/60/238 49/59/239 43/58/240 
f 44/61/241 49/59/242 106/60/243 
f 107/62/244 44/61/245 106/60/246 
f 45/63/247 44/61/248 107/62/249 
f 45/63/250 47/64/251 44/61/252 
f 47/64/253 49/59/254 44/61/255 
f 46/65/256 47/64/257 45/63/258 
f 46/65/259 48/66/260 47/64/261 
f 48/66/262 49/59/263 47/64/264 
f 48/66/265 55/67/266 49/59/267 
f 55/67/268 42/56/269 49/59/270 
f 55/67/271 50/26/272 42/56/273 
f 55/67/274 54/68/275 50/26/276 
f 54/68/277 15/25/278 50/26/279 
f 51/69/280 15/25/281 54/68/282 
f 51/69/283 52/24/284 15/25/285 
f 114/70/286 52/24/287 51/69/288 
f 114/70/289 53/23/290 52/24/291 
f 53/23/292 114/70/293 13/22/294 
f 55/67/295 115/71/296 54/68/297 
f 48/66/298 115/71/299 55/67/300 
f 115/71/301 48/66/302 46/65/303 
f 117/72/304 56/51/305 36/50/306 
f 117/72/307 36/50/308 97/49/309 
f 119/73/310 56/51/311 117/72/312 
f 119/73/313 57/52/314 56/51/315 
f 58/74/316 57/52/317 119/73/318 
f 58/74/319 39/53/320 57/52/321 
f 120/75/322 39/53/323 58/74/324 
f 120/75/325 40/54/326 39/53/327 
f 65/76/328 40/54/329 120/75/330 
f 59/77/331 65/76/332 120/75/333 
f 60/78/334 65/76/335 59/77/336 
f 130/79/337 60/78/338 59/77/339 
f 61/80/340 60/78/341 130/79/342 
f 131/81/343 61/80/344 130/79/345 
f 62/82/346 61/80/347 131/81/348 
f 126/83/349 62/82/350 131/81/351 
f 124/84/352 62/82/353 126/83/354 
f 124/84/355 63/85/356 62/82/357 
f 63/85/358 61/80/359 62/82/360 
f 63/85/361 60/78/362 61/80/363 
f 63/85/364 64/86/365 60/78/366 
f 64/86/367 65/76/368 60/78/369 
f 64/86/370 41/55/371 65/76/372 
f 65/76/373 41/55/374 40/54/375 
f 104/57/376 41/55/377 64/86/378 
f 64/86/379 66/87/380 104/57/381 
f 63/85/382 66/87/383 64/86/384 
f 66/87/385 63/85/386 124/84/387 
f 68/90/388 67/89/389 1/88/390 
f 69/91/391 68/90/392 1/88/393 
f 70/92/394 68/90/395 69/91/396 
f 2/93/397 70/92/398 69/91/399 
f 85/94/400 70/92/401 2/93/402 
f 4/95/403 85/94/404 2/93/405 
f 71/96/406 85/94/407 4/95/408 
f 5/97/409 71/96/410 4/95/411 
f 83/98/412 71/96/413 5/97/414 
f 80/99/415 83/98/416 5/97/417 
f 6/100/418 80/99/419 5/97/420 
f 73/101/421 80/99/422 6/100/423 
f 72/102/424 73/101/425 6/100/426 
f 74/103/427 73/101/428 72/102/429 
f 75/104/430 73/101/431 74/103/432 
f 76/105/433 75/104/434 74/103/435 
f 10/106/436 76/105/437 74/103/438 
f 77/107/439 76/105/440 10/106/441 
f 12/108/442 77/107/443 10/106/444 
f 13/109/445 77/107/446 12/108/447 
f 78/110/448 77/107/449 13/109/450 
f 78/110/451 76/105/452 77/107/453 
f 78/110/454 75/104/455 76/105/456 
f 78/110/457 79/111/458 75/104/459 
f 79/111/460 73/101/461 75/104/462 
f 79/111/463 113/112/464 73/101/465 
f 113/112/466 80/99/467 73/101/468 
f 113/112/469 81/113/470 80/99/471 
f 81/113/472 83/98/473 80/99/474 
f 81/113/475 82/114/476 83/98/477 
f 82/114/478 93/115/479 83/98/480 
f 93/115/481 71/96/482 83/98/483 
f 93/115/484 91/116/485 71/96/486 
f 91/116/487 84/117/488 71/96/489 
f 84/117/490 85/94/491 71/96/492 
f 84/117/493 87/118/494 85/94/495 
f 87/118/496 70/92/497 85/94/498 
f 87/118/499 86/119/500 70/92/501 
f 86/119/502 68/90/503 70/92/504 
f 86/119/505 67/89/506 68/90/507 
f 86/119/508 88/120/509 67/89/510 
f 87/118/511 88/120/512 86/119/513 
f 84/117/514 88/120/515 87/118/516 
f 84/117/517 89/121/518 88/120/519 
f 84/117/520 90/122/521 89/121/522 
f 91/116/523 90/122/524 84/117/525 
f 91/116/526 92/123/527 90/122/528 
f 93/115/529 92/123/530 91/116/531 
f 93/115/532 102/124/533 92/123/534 
f 102/124/535 26/125/536 92/123/537 
f 102/124/538 94/126/539 26/125/540 
f 94/126/541 27/127/542 26/125/543 
f 94/126/544 95/128/545 27/127/546 
f 95/128/547 29/129/548 27/127/549 
f 95/128/550 100/130/551 29/129/552 
f 100/130/553 30/131/554 29/129/555 
f 100/130/556 96/132/557 30/131/558 
f 96/132/559 32/133/560 30/131/561 
f 96/132/562 33/134/563 32/133/564 
f 96/132/565 98/135/566 33/134/567 
f 100/130/568 98/135/569 96/132/570 
f 98/135/571 97/136/572 33/134/573 
f 98/135/574 99/137/575 97/136/576 
f 100/130/577 99/137/578 98/135/579 
f 116/138/580 99/137/581 100/130/582 
f 95/128/583 116/138/584 100/130/585 
f 118/139/586 116/138/587 95/128/588 
f 94/126/589 118/139/590 95/128/591 
f 101/140/592 118/139/593 94/126/594 
f 102/124/595 101/140/596 94/126/597 
f 103/141/598 101/140/599 102/124/600 
f 93/115/601 103/141/602 102/124/603 
f 82/114/604 103/141/605 93/115/606 
f 122/142/607 103/141/608 82/114/609 
f 81/113/610 122/142/611 82/114/612 
f 105/143/613 122/142/614 81/113/615 
f 105/143/616 104/144/617 122/142/618 
f 105/143/619 43/145/620 104/144/621 
f 105/143/622 111/146/623 43/145/624 
f 111/146/625 106/147/626 43/145/627 
f 111/146/628 108/148/629 106/147/630 
f 108/148/631 107/149/632 106/147/633 
f 108/148/634 45/150/635 107/149/636 
f 108/148/637 109/151/638 45/150/639 
f 111/146/640 109/151/641 108/148/642 
f 109/151/643 46/152/644 45/150/645 
f 109/151/646 110/153/647 46/152/648 
f 111/146/649 110/153/650 109/151/651 
f 112/154/652 110/153/653 111/146/654 
f 105/143/655 112/154/656 111/146/657 
f 81/113/658 112/154/659 105/143/660 
f 54/155/661 112/154/662 81/113/663 
f 113/112/664 54/155/665 81/113/666 
f 113/112/667 51/156/668 54/155/669 
f 79/111/670 51/156/671 113/112/672 
f 79/111/673 114/157/674 51/156/675 
f 78/110/676 114/157/677 79/111/678 
f 78/110/679 13/109/680 114/157/681 
f 115/158/682 112/154/683 54/155/684 
f 115/158/685 110/153/686 112/154/687 
f 110/153/688 115/158/689 46/152/690 
f 116/138/691 117/159/692 99/137/693 
f 99/137/694 117/159/695 97/136/696 
f 119/160/697 117/159/698 116/138/699 
f 118/139/700 119/160/701 116/138/702 
f 118/139/703 58/161/704 119/160/705 
f 101/140/706 58/161/707 118/139/708 
f 101/140/709 120/162/710 58/161/711 
f 103/141/712 120/162/713 101/140/714 
f 121/163/715 120/162/716 103/141/717 
f 122/142/718 121/163/719 103/141/720 
f 123/164/721 121/163/722 122/142/723 
f 104/144/724 123/164/725 122/142/726 
f 66/165/727 123/164/728 104/144/729 
f 125/166/730 123/164/731 66/165/732 
f 124/167/733 125/166/734 66/165/735 
f 127/168/736 125/166/737 124/167/738 
f 126/169/739 127/168/740 124/167/741 
f 131/170/742 127/168/743 126/169/744 
f 128/171/745 127/168/746 131/170/747 
f 128/171/748 125/166/749 127/168/750 
f 128/171/751 129/172/752 125/166/753 
f 129/172/754 123/164/755 125/166/756 
f 129/172/757 121/163/758 123/164/759 
f 129/172/760 59/173/761 121/163/762 
f 121/163/763 59/173/764 120/162/765 
f 130/174/766 59/173/767 129/172/768 
f 128/171/769 130/174/770 129/172/771 
f 128/171/772 131/170/773 130/174/774 
# 258 faces

#
# object SM_Starfish_01_LOD1
#

v  0.9903 1.3420 -17.5833
v  -8.9302 1.1456 17.5602
v  -17.8319 1.4019 -6.6868
v  -4.4202 4.7839 -3.7367
v  12.1576 1.1467 16.1747
v  17.9872 1.1197 -5.5963
v  0.7149 1.1197 9.4473
v  -5.7008 1.1197 -6.8906
v  3.3657 1.1197 -6.6975
v  5.3173 4.8107 3.8226
v  -8.1764 1.1197 4.4641
v  7.8802 1.1197 4.0977
v  -5.1180 0.0504 3.8283
v  2.3326 4.9224 -3.9461
v  -12.5343 1.2826 -5.2436
v  10.4317 1.1197 0.2843
v  5.2240 0.0361 3.3997
v  -5.4080 4.8911 2.5114
v  2.5268 0.0589 -3.9729
v  15.1919 2.7333 -4.2962
v  -17.5784 2.2325 -6.4130
v  1.0959 4.8915 6.2688
v  -12.8436 0.5110 -4.3139
v  -2.1499 1.1197 10.9501
v  -10.0830 1.1959 2.0191
v  -8.5933 2.3492 16.1390
v  0.4571 0.5841 -16.9941
v  2.0126 1.1443 -8.8422
v  -8.1241 1.1944 -5.2507
v  0.3755 4.1501 -8.4353
v  -1.5232 1.3110 -15.6475
v  10.5432 3.6277 -2.2736
v  9.4421 1.1197 15.1396
v  -17.5775 0.5668 -6.1969
v  0.2013 0.0404 6.3479
v  14.3897 1.1197 -6.2556
v  -8.9034 0.3568 16.2154
v  8.4694 1.1197 7.5625
v  0.5161 2.1071 -17.0350
v  11.4228 1.9659 15.5289
v  -0.8504 5.8460 0.3683
v  -12.9190 3.1584 -4.3374
v  12.7999 1.1197 -1.6694
v  3.3512 1.1197 10.2365
v  -7.5968 1.1197 7.3116
v  -4.4310 0.0625 -3.8383
v  6.0278 1.1197 -5.9395
v  -2.4234 3.7132 -10.5297
v  -2.5247 4.0920 8.4732
v  0.3717 0.0426 -8.1828
v  16.9277 0.4245 -5.4107
v  -9.6703 1.1461 17.1466
v  -4.4390 1.1443 -9.0263
v  -17.7773 1.3577 -5.0870
v  16.9028 2.0536 -5.4875
v  -6.4085 3.2529 14.4205
v  11.5465 0.5141 15.6836
v  1.5634 1.3110 -15.7631
v  -5.2699 4.0447 6.8313
v  -15.5273 2.9938 -3.9383
v  -11.3682 0.4122 -1.3634
v  11.1597 0.3491 -2.7580
v  -0.1233 0.4397 0.8687
# 63 vertices

vn 0.9075 -0.3641 0.2094
vn 0.3890 0.8917 0.2313
vn 0.3885 0.9157 0.1028
vn -0.0050 -1.0000 -0.0010
vn -0.0770 -0.9933 -0.0867
vn 0.0617 -0.9940 -0.0907
vn -0.3745 0.8741 0.3094
vn -0.4457 0.8878 0.1149
vn -0.9767 -0.1929 -0.0935
vn -0.8244 -0.3681 -0.4299
vn -0.4594 0.8261 -0.3264
vn -0.8225 -0.1213 -0.5557
vn 0.1556 0.9044 0.3974
vn 0.6568 -0.2380 0.7155
vn 0.1519 0.8948 0.4199
vn -0.2472 -0.9466 0.2068
vn -0.1056 -0.9940 0.0297
vn 0.0101 -0.9961 0.0878
vn 0.2040 0.9240 -0.3234
vn 0.0164 -0.1688 -0.9855
vn 0.0368 -0.3025 -0.9524
vn 0.1289 -0.9788 0.1592
vn 0.0617 -0.9940 -0.0907
vn 0.4032 -0.9023 -0.1527
vn 0.3476 0.8434 0.4098
vn -0.0006 0.9264 0.3766
vn -0.5316 -0.1897 0.8254
vn 0.3476 0.8434 0.4098
vn 0.9075 -0.2268 -0.3536
vn 0.3885 0.9157 0.1028
vn 0.0047 0.8350 -0.5503
vn -0.2434 0.9267 -0.2862
vn -0.1404 -0.2677 -0.9532
vn -0.7198 -0.1486 0.6781
vn -0.3523 0.9174 0.1849
vn -0.4510 0.8441 0.2901
vn 0.3975 0.8818 -0.2539
vn 0.9107 -0.2828 -0.3012
vn 0.9808 -0.0948 -0.1704
vn -0.0770 -0.9933 -0.0867
vn -0.0300 -0.8098 -0.5860
vn 0.1939 -0.9763 -0.0965
vn 0.1519 0.8948 0.4199
vn -0.4457 0.8878 0.1149
vn -0.3745 0.8741 0.3094
vn 0.0218 0.7569 -0.6532
vn -0.4594 0.8261 -0.3264
vn 0.3975 0.8818 -0.2539
vn -0.0770 -0.9933 -0.0867
vn -0.8244 -0.3681 -0.4299
vn -0.0300 -0.8098 -0.5860
vn 0.0439 -0.9504 -0.3079
vn -0.4487 -0.8186 -0.3585
vn 0.1447 -0.2176 -0.9652
vn 0.1289 -0.9788 0.1592
vn 0.1170 -0.9929 0.0208
vn 0.0617 -0.9940 -0.0907
vn 0.9075 -0.2268 -0.3536
vn 0.3044 -0.8665 0.3957
vn 0.1170 -0.9929 0.0208
vn -0.1653 -0.9745 0.1514
vn -0.7198 -0.1486 0.6781
vn -0.4487 -0.8186 -0.3585
vn -0.2472 -0.9466 0.2068
vn -0.9767 -0.1929 -0.0935
vn -0.1056 -0.9940 0.0297
vn 0.3885 0.9157 0.1028
vn 0.3890 0.8917 0.2313
vn 0.2040 0.9240 -0.3234
vn -0.3523 0.9174 0.1849
vn -0.0006 0.9264 0.3766
vn -0.0222 0.9997 -0.0143
vn -0.0770 -0.9933 -0.0867
vn -0.1404 -0.2677 -0.9532
vn -0.7478 -0.3405 -0.5700
vn -0.1404 -0.2677 -0.9532
vn -0.2434 0.9267 -0.2862
vn -0.7478 -0.3405 -0.5700
vn 0.1170 -0.9929 0.0208
vn 0.7351 -0.2984 0.6087
vn 0.9075 -0.3641 0.2094
vn 0.7351 -0.2984 0.6087
vn 0.3890 0.8917 0.2313
vn 0.9075 -0.3641 0.2094
vn 0.0101 -0.9961 0.0878
vn 0.3044 -0.8665 0.3957
vn -0.5316 -0.1897 0.8254
vn -0.2472 -0.9466 0.2068
vn 0.0101 -0.9961 0.0878
vn 0.6568 -0.2380 0.7155
vn -0.3523 0.9174 0.1849
vn -0.2434 0.9267 -0.2862
vn 0.0047 0.8350 -0.5503
vn -0.3523 0.9174 0.1849
vn -0.0222 0.9997 -0.0143
vn -0.2434 0.9267 -0.2862
vn 0.0164 -0.1688 -0.9855
vn 0.0617 -0.9940 -0.0907
vn 0.0368 -0.3025 -0.9524
vn 0.9107 -0.2828 -0.3012
vn 0.1939 -0.9763 -0.0965
vn 0.9808 -0.0948 -0.1704
vn 0.3381 0.9338 0.1168
vn 0.5336 -0.2786 0.7985
vn 0.9739 -0.0709 -0.2158
vn 0.2040 0.9240 -0.3234
vn 0.4963 0.7990 -0.3397
vn 0.0164 -0.1688 -0.9855
vn -0.7198 -0.1486 0.6781
vn -0.4510 0.8441 0.2901
vn -0.8719 -0.0810 0.4829
vn -0.6115 -0.0589 -0.7890
vn -0.4753 0.7006 -0.5323
vn 0.1447 -0.2176 -0.9652
vn -0.0006 0.9264 0.3766
vn 0.3885 0.9157 0.1028
vn -0.0222 0.9997 -0.0143
vn 0.3885 0.9157 0.1028
vn -0.0006 0.9264 0.3766
vn 0.3476 0.8434 0.4098
vn -0.0770 -0.9933 -0.0867
vn 0.0439 -0.9504 -0.3079
vn -0.1404 -0.2677 -0.9532
vn -0.1056 -0.9940 0.0297
vn -0.8614 -0.2802 0.4236
vn -0.1653 -0.9745 0.1514
vn 0.1519 0.8948 0.4199
vn 0.6568 -0.2380 0.7155
vn 0.0940 -0.3306 0.9391
vn 0.6568 -0.2380 0.7155
vn 0.0101 -0.9961 0.0878
vn 0.0940 -0.3306 0.9391
vn -0.8614 -0.2802 0.4236
vn -0.3523 0.9174 0.1849
vn -0.7198 -0.1486 0.6781
vn -0.1653 -0.9745 0.1514
vn -0.8614 -0.2802 0.4236
vn -0.7198 -0.1486 0.6781
vn -0.8730 -0.0359 0.4864
vn -0.3745 0.8741 0.3094
vn -0.9767 -0.1929 -0.0935
vn 0.6568 -0.2380 0.7155
vn 0.1556 0.9044 0.3974
vn 0.0399 -0.0890 0.9952
vn 0.1939 -0.9763 -0.0965
vn -0.0300 -0.8098 -0.5860
vn 0.9808 -0.0948 -0.1704
vn -0.0300 -0.8098 -0.5860
vn -0.8244 -0.3681 -0.4299
vn -0.8225 -0.1213 -0.5557
vn 0.3975 0.8818 -0.2539
vn 0.6433 -0.3284 -0.6916
vn 0.9107 -0.2828 -0.3012
vn 0.6433 -0.3284 -0.6916
vn 0.1939 -0.9763 -0.0965
vn 0.9107 -0.2828 -0.3012
vn 0.0439 -0.9504 -0.3079
vn 0.1447 -0.2176 -0.9652
vn -0.1404 -0.2677 -0.9532
vn 0.1447 -0.2176 -0.9652
vn 0.0047 0.8350 -0.5503
vn -0.1404 -0.2677 -0.9532
vn 0.3975 0.8818 -0.2539
vn 0.2040 0.9240 -0.3234
vn 0.6433 -0.3284 -0.6916
vn 0.3975 0.8818 -0.2539
vn -0.2434 0.9267 -0.2862
vn 0.2040 0.9240 -0.3234
vn -0.0300 -0.8098 -0.5860
vn -0.8225 -0.1213 -0.5557
vn 0.3943 -0.0137 -0.9189
vn -0.8225 -0.1213 -0.5557
vn -0.4594 0.8261 -0.3264
vn 0.0218 0.7569 -0.6532
vn 0.5336 -0.2786 0.7985
vn 0.3381 0.9338 0.1168
vn 0.3890 0.8917 0.2313
vn 0.2040 0.9240 -0.3234
vn 0.3890 0.8917 0.2313
vn 0.4963 0.7990 -0.3397
vn -0.5826 -0.0680 0.8099
vn 0.3476 0.8434 0.4098
vn -0.5316 -0.1897 0.8254
vn 0.3044 -0.8665 0.3957
vn -0.5826 -0.0680 0.8099
vn -0.5316 -0.1897 0.8254
vn -0.7198 -0.1486 0.6781
vn -0.8719 -0.0810 0.4829
vn -0.4487 -0.8186 -0.3585
vn -0.4487 -0.8186 -0.3585
vn -0.6115 -0.0589 -0.7890
vn 0.1447 -0.2176 -0.9652
vn 0.0101 -0.9961 0.0878
vn 0.1170 -0.9929 0.0208
vn 0.3044 -0.8665 0.3957
vn 0.0101 -0.9961 0.0878
vn -0.1056 -0.9940 0.0297
vn -0.0050 -1.0000 -0.0010
vn 0.4032 -0.9023 -0.1527
vn 0.0617 -0.9940 -0.0907
vn 0.0164 -0.1688 -0.9855
vn 0.4963 0.7990 -0.3397
vn 0.9739 -0.0709 -0.2158
vn 0.0164 -0.1688 -0.9855
vn -0.8730 -0.0359 0.4864
vn -0.9767 -0.1929 -0.0935
vn -0.2472 -0.9466 0.2068
vn 0.0399 -0.0890 0.9952
vn -0.2472 -0.9466 0.2068
vn 0.6568 -0.2380 0.7155
vn 0.3885 0.9157 0.1028
vn 0.9075 -0.2268 -0.3536
vn 0.9075 -0.3641 0.2094
vn 0.9075 -0.2268 -0.3536
vn 0.1170 -0.9929 0.0208
vn 0.9075 -0.3641 0.2094
vn 0.0218 0.7569 -0.6532
vn 0.3975 0.8818 -0.2539
vn 0.9808 -0.0948 -0.1704
vn -0.8225 -0.1213 -0.5557
vn 0.0218 0.7569 -0.6532
vn 0.3943 -0.0137 -0.9189
vn 0.9075 -0.2268 -0.3536
vn 0.3476 0.8434 0.4098
vn 0.7336 -0.0047 0.6795
vn 0.7336 -0.0047 0.6795
vn 0.3476 0.8434 0.4098
vn -0.5826 -0.0680 0.8099
vn -0.2434 0.9267 -0.2862
vn -0.0222 0.9997 -0.0143
vn 0.2040 0.9240 -0.3234
vn -0.0222 0.9997 -0.0143
vn 0.3885 0.9157 0.1028
vn 0.2040 0.9240 -0.3234
vn -0.4753 0.7006 -0.5323
vn 0.0047 0.8350 -0.5503
vn 0.1447 -0.2176 -0.9652
vn -0.4510 0.8441 0.2901
vn -0.3523 0.9174 0.1849
vn 0.0047 0.8350 -0.5503
vn 0.1289 -0.9788 0.1592
vn 0.7351 -0.2984 0.6087
vn 0.1170 -0.9929 0.0208
vn 0.5336 -0.2786 0.7985
vn 0.3890 0.8917 0.2313
vn 0.7351 -0.2984 0.6087
vn -0.0006 0.9264 0.3766
vn 0.0940 -0.3306 0.9391
vn -0.5316 -0.1897 0.8254
vn 0.0101 -0.9961 0.0878
vn -0.5316 -0.1897 0.8254
vn 0.0940 -0.3306 0.9391
vn -0.9767 -0.1929 -0.0935
vn -0.4457 0.8878 0.1149
vn -0.8614 -0.2802 0.4236
vn -0.1056 -0.9940 0.0297
vn -0.9767 -0.1929 -0.0935
vn -0.8614 -0.2802 0.4236
vn -0.0050 -1.0000 -0.0010
vn -0.1056 -0.9940 0.0297
vn -0.0770 -0.9933 -0.0867
vn -0.1056 -0.9940 0.0297
vn -0.1653 -0.9745 0.1514
vn -0.0770 -0.9933 -0.0867
vn 0.2040 0.9240 -0.3234
vn 0.0368 -0.3025 -0.9524
vn 0.6433 -0.3284 -0.6916
vn 0.0368 -0.3025 -0.9524
vn 0.0617 -0.9940 -0.0907
vn 0.6433 -0.3284 -0.6916
vn -0.4594 0.8261 -0.3264
vn -0.2434 0.9267 -0.2862
vn 0.3975 0.8818 -0.2539
vn -0.7478 -0.3405 -0.5700
vn -0.2434 0.9267 -0.2862
vn -0.4594 0.8261 -0.3264
vn 0.1519 0.8948 0.4199
vn -0.0006 0.9264 0.3766
vn -0.4457 0.8878 0.1149
vn 0.0940 -0.3306 0.9391
vn -0.0006 0.9264 0.3766
vn 0.1519 0.8948 0.4199
vn 0.0617 -0.9940 -0.0907
vn 0.1939 -0.9763 -0.0965
vn 0.6433 -0.3284 -0.6916
vn -0.0770 -0.9933 -0.0867
vn 0.1939 -0.9763 -0.0965
vn 0.0617 -0.9940 -0.0907
vn 0.9739 -0.0709 -0.2158
vn 0.4032 -0.9023 -0.1527
vn 0.0164 -0.1688 -0.9855
vn 0.4032 -0.9023 -0.1527
vn 0.9739 -0.0709 -0.2158
vn 0.5336 -0.2786 0.7985
vn 0.0399 -0.0890 0.9952
vn -0.3745 0.8741 0.3094
vn -0.8730 -0.0359 0.4864
vn -0.8730 -0.0359 0.4864
vn -0.2472 -0.9466 0.2068
vn 0.0399 -0.0890 0.9952
vn -0.7478 -0.3405 -0.5700
vn -0.4594 0.8261 -0.3264
vn -0.8244 -0.3681 -0.4299
vn -0.0770 -0.9933 -0.0867
vn -0.7478 -0.3405 -0.5700
vn -0.8244 -0.3681 -0.4299
vn -0.4487 -0.8186 -0.3585
vn -0.8719 -0.0810 0.4829
vn -0.6115 -0.0589 -0.7890
vn -0.8719 -0.0810 0.4829
vn -0.4753 0.7006 -0.5323
vn -0.6115 -0.0589 -0.7890
vn 0.4963 0.7990 -0.3397
vn 0.3381 0.9338 0.1168
vn 0.9739 -0.0709 -0.2158
vn 0.3890 0.8917 0.2313
vn 0.3381 0.9338 0.1168
vn 0.4963 0.7990 -0.3397
vn 0.0399 -0.0890 0.9952
vn 0.1556 0.9044 0.3974
vn -0.3745 0.8741 0.3094
vn 0.1556 0.9044 0.3974
vn 0.1519 0.8948 0.4199
vn -0.3745 0.8741 0.3094
vn 0.3044 -0.8665 0.3957
vn 0.7336 -0.0047 0.6795
vn -0.5826 -0.0680 0.8099
vn 0.3044 -0.8665 0.3957
vn 0.9075 -0.2268 -0.3536
vn 0.7336 -0.0047 0.6795
vn 0.0218 0.7569 -0.6532
vn 0.9808 -0.0948 -0.1704
vn 0.3943 -0.0137 -0.9189
vn 0.9808 -0.0948 -0.1704
vn -0.0300 -0.8098 -0.5860
vn 0.3943 -0.0137 -0.9189
vn -0.4457 0.8878 0.1149
vn -0.3523 0.9174 0.1849
vn -0.8614 -0.2802 0.4236
vn -0.4457 0.8878 0.1149
vn -0.0006 0.9264 0.3766
vn -0.3523 0.9174 0.1849
vn -0.4510 0.8441 0.2901
vn 0.0047 0.8350 -0.5503
vn -0.4753 0.7006 -0.5323
vn -0.8719 -0.0810 0.4829
vn -0.4510 0.8441 0.2901
vn -0.4753 0.7006 -0.5323
vn -0.1653 -0.9745 0.1514
vn -0.4487 -0.8186 -0.3585
vn 0.0439 -0.9504 -0.3079
vn -0.0770 -0.9933 -0.0867
vn -0.1653 -0.9745 0.1514
vn 0.0439 -0.9504 -0.3079
vn 0.4032 -0.9023 -0.1527
vn 0.5336 -0.2786 0.7985
vn 0.1289 -0.9788 0.1592
vn 0.1289 -0.9788 0.1592
vn 0.5336 -0.2786 0.7985
vn 0.7351 -0.2984 0.6087
vn 0.1170 -0.9929 0.0208
vn -0.0050 -1.0000 -0.0010
vn 0.0617 -0.9940 -0.0907
vn 0.1170 -0.9929 0.0208
vn 0.0101 -0.9961 0.0878
vn -0.0050 -1.0000 -0.0010
# 366 vertex normals

vt 0.0028 0.1365 0.0000
vt 0.0525 0.0007 0.0000
vt 0.1107 0.1979 0.0000
vt 0.5626 0.4032 0.0000
vt 0.4286 0.2419 0.0000
vt 0.4305 0.3865 0.0000
vt 0.1679 0.0092 0.0000
vt 0.5378 0.2056 0.0000
vt 0.6145 0.3097 0.0000
vt 0.2041 0.1310 0.0000
vt 0.0777 0.1180 0.0000
vt 0.1052 0.0356 0.0000
vt 0.4883 0.2544 0.0000
vt 0.5503 0.3462 0.0000
vt 0.1267 0.1411 0.0000
vt 0.5503 0.2764 0.0000
vt 0.1566 0.0747 0.0000
vt 0.1310 0.0765 0.0000
vt 0.0657 0.1436 0.0000
vt 0.4924 0.3711 0.0000
vt 0.0473 0.0698 0.0000
vt 0.4460 0.3091 0.0000
vt 0.1156 0.1197 0.0000
vt 0.0001 0.1270 0.0000
vt 0.4275 0.3809 0.0000
vt 0.0710 0.0833 0.0000
vt 0.5297 0.2868 0.0000
vt 0.1069 0.0625 0.0000
vt 0.5330 0.3313 0.0000
vt 0.0044 0.1338 0.0000
vt 0.5361 0.4033 0.0000
vt 0.0942 0.1895 0.0000
vt 0.4316 0.3832 0.0000
vt 0.0545 0.0091 0.0000
vt 0.6106 0.3108 0.0000
vt 0.4964 0.2819 0.0000
vt 0.5684 0.2876 0.0000
vt 0.1682 0.0933 0.0000
vt 0.4742 0.3056 0.0000
vt 0.1636 0.0126 0.0000
vt 0.1981 0.1301 0.0000
vt 0.4946 0.3436 0.0000
vt 0.1079 0.1940 0.0000
vt 0.0902 0.1568 0.0000
vt 0.1055 0.1450 0.0000
vt 0.1616 0.1113 0.0000
vt 0.5569 0.4027 0.0000
vt 0.5352 0.2108 0.0000
vt 0.0301 0.1219 0.0000
vt 0.0969 0.0947 0.0000
vt 0.4584 0.3740 0.0000
vt 0.0329 0.1342 0.0000
vt 0.4739 0.2568 0.0000
vt 0.0915 0.0288 0.0000
vt 0.4771 0.3628 0.0000
vt 0.0546 0.1338 0.0000
vt 0.5488 0.3579 0.0000
vt 0.1210 0.1514 0.0000
vt 0.5322 0.3560 0.0000
vt 0.0154 0.1196 0.0000
vt 0.4457 0.3257 0.0000
vt 0.0387 0.0839 0.0000
vt 0.0670 0.0181 0.0000
vt 0.0480 0.0032 0.0000
vt 0.4254 0.2454 0.0000
vt 0.0863 0.0503 0.0000
vt 0.4545 0.3666 0.0000
vt 0.4448 0.2944 0.0000
vt 0.0507 0.0557 0.0000
vt 0.0711 0.0596 0.0000
vt 0.5020 0.2476 0.0000
vt 0.1177 0.0322 0.0000
vt 0.5435 0.2603 0.0000
vt 0.1566 0.0571 0.0000
vt 0.5591 0.3369 0.0000
vt 0.1392 0.1387 0.0000
vt 0.5039 0.3145 0.0000
vt 0.5767 0.3032 0.0000
vt 0.6021 0.3198 0.0000
vt 0.1853 0.1396 0.0000
vt 0.4312 0.2500 0.0000
vt 0.5586 0.3936 0.0000
vt 0.1179 0.1885 0.0000
vt 0.1509 0.0093 0.0000
vt 0.5249 0.2168 0.0000
vt 0.5830 0.2954 0.0000
vt 0.1797 0.1040 0.0000
vt 0.4551 0.3461 0.0000
vt 0.5039 0.3789 0.0000
vt 0.0736 0.1553 0.0000
vt 0.1882 0.1230 0.0000
# 91 texture coords

o SM_Starfish_01_LOD1
g SM_Starfish_01_LOD1
usemtl MAT_Sea_Shells
s 1
f 143/191/775 163/220/776 141/192/777 
f 194/251/778 177/216/779 150/203/780 
f 157/208/781 190/244/782 176/243/783 
f 184/264/784 179/218/785 162/206/786 
f 187/237/787 155/228/788 180/240/789 
f 168/255/790 144/213/791 166/210/792 
f 145/197/793 167/254/794 178/250/795 
f 193/252/796 150/203/797 182/209/798 
f 171/214/799 153/202/800 175/246/801 
f 171/214/802 169/248/803 141/192/804 
f 173/223/805 135/185/806 160/230/807 
f 156/236/808 149/200/809 191/234/810 
f 161/219/811 159/232/812 189/257/813 
f 177/216/814 158/221/815 181/233/816 
f 180/240/817 190/244/818 157/208/819 
f 170/217/820 179/218/821 161/219/822 
f 177/216/823 184/263/824 158/221/825 
f 154/241/826 165/207/827 146/225/828 
f 193/252/829 148/201/830 150/203/831 
f 169/247/832 188/222/833 148/201/834 
f 192/262/835 156/235/836 165/207/837 
f 168/255/838 176/242/839 144/213/840 
f 141/192/841 163/220/842 145/197/843 
f 149/200/844 153/202/845 172/224/846 
f 177/216/847 160/229/848 139/194/849 
f 160/230/850 135/185/851 139/193/852 
f 148/201/853 147/211/854 143/190/855 
f 147/212/856 163/220/857 143/191/858 
f 166/210/859 188/222/860 175/245/861 
f 168/255/862 166/210/863 155/227/864 
f 149/200/865 135/185/866 173/223/867 
f 149/200/868 172/224/869 135/185/870 
f 167/253/871 150/203/872 178/249/873 
f 159/231/874 181/233/875 189/256/876 
f 151/265/877 174/261/878 137/184/879 
f 145/197/880 186/215/881 167/254/882 
f 156/236/883 191/234/884 185/198/885 
f 134/175/886 152/204/887 146/226/888 
f 153/202/889 141/192/890 172/224/891 
f 141/192/892 153/202/893 171/214/894 
f 177/216/895 154/241/896 160/229/897 
f 144/213/898 142/196/899 192/262/900 
f 180/240/901 155/228/902 138/186/903 
f 155/227/904 166/210/905 138/187/906 
f 142/195/907 149/200/908 156/236/909 
f 192/262/910 142/196/911 156/235/912 
f 183/238/913 157/208/914 176/243/915 
f 155/228/916 187/237/917 133/176/918 
f 181/233/919 158/221/920 189/256/921 
f 158/221/922 184/263/923 162/205/924 
f 161/219/925 140/189/926 159/232/927 
f 140/188/928 181/233/929 159/231/930 
f 154/241/931 146/225/932 160/229/933 
f 146/226/934 173/223/935 160/230/936 
f 161/219/937 145/197/938 140/189/939 
f 161/219/940 135/185/941 145/197/942 
f 158/221/943 162/205/944 132/178/945 
f 162/206/946 179/218/947 170/217/948 
f 174/261/949 151/265/950 163/220/951 
f 145/197/952 163/220/953 186/215/954 
f 164/258/955 171/214/956 175/246/957 
f 188/222/958 164/259/959 175/245/960 
f 156/235/961 185/199/962 165/207/963 
f 165/207/964 134/180/965 146/225/966 
f 166/210/967 148/201/968 188/222/969 
f 166/210/970 144/213/971 194/251/972 
f 182/209/973 150/203/974 167/253/975 
f 186/215/976 137/184/977 167/254/978 
f 183/239/979 176/242/980 168/255/981 
f 133/179/982 168/255/983 155/227/984 
f 141/192/985 169/248/986 143/191/987 
f 169/247/988 148/201/989 143/190/990 
f 170/217/991 161/219/992 189/257/993 
f 162/206/994 170/217/995 132/177/996 
f 169/248/997 171/214/998 136/181/999 
f 136/181/1000 171/214/1001 164/258/1002 
f 135/185/1003 172/224/1004 145/197/1005 
f 172/224/1006 141/192/1007 145/197/1008 
f 152/204/1009 173/223/1010 146/226/1011 
f 191/234/1012 149/200/1013 173/223/1014 
f 193/252/1015 147/211/1016 148/201/1017 
f 174/261/1018 163/220/1019 147/212/1020 
f 153/202/1021 138/186/1022 175/246/1023 
f 166/210/1024 175/245/1025 138/187/1026 
f 176/243/1027 190/244/1028 142/195/1029 
f 144/213/1030 176/242/1031 142/196/1032 
f 194/251/1033 144/213/1034 177/216/1035 
f 144/213/1036 192/262/1037 177/216/1038 
f 145/197/1039 178/250/1040 140/189/1041 
f 178/249/1042 150/203/1043 140/188/1044 
f 179/218/1045 135/185/1046 161/219/1047 
f 139/193/1048 135/185/1049 179/218/1050 
f 180/240/1051 153/202/1052 190/244/1053 
f 138/186/1054 153/202/1055 180/240/1056 
f 150/203/1057 181/233/1058 140/188/1059 
f 177/216/1060 181/233/1061 150/203/1062 
f 137/183/1063 182/209/1064 167/253/1065 
f 182/209/1066 137/183/1067 174/260/1068 
f 133/176/1069 157/208/1070 183/238/1071 
f 183/239/1072 168/255/1073 133/179/1074 
f 139/193/1075 179/218/1076 184/264/1077 
f 177/216/1078 139/194/1079 184/263/1080 
f 165/207/1081 185/199/1082 134/180/1083 
f 185/198/1084 152/204/1085 134/175/1086 
f 186/215/1087 151/265/1088 137/184/1089 
f 163/220/1090 151/265/1091 186/215/1092 
f 133/176/1093 187/237/1094 157/208/1095 
f 187/237/1096 180/240/1097 157/208/1098 
f 188/222/1099 136/182/1100 164/259/1101 
f 188/222/1102 169/247/1103 136/182/1104 
f 170/217/1105 189/257/1106 132/177/1107 
f 189/256/1108 158/221/1109 132/178/1110 
f 190/244/1111 149/200/1112 142/195/1113 
f 190/244/1114 153/202/1115 149/200/1116 
f 191/234/1117 173/223/1118 152/204/1119 
f 185/198/1120 191/234/1121 152/204/1122 
f 192/262/1123 165/207/1124 154/241/1125 
f 177/216/1126 192/262/1127 154/241/1128 
f 182/209/1129 174/260/1130 193/252/1131 
f 193/252/1132 174/260/1133 147/211/1134 
f 148/201/1135 194/251/1136 150/203/1137 
f 148/201/1138 166/210/1139 194/251/1140 
# 122 faces

