# 3ds Max Wavefront OBJ Exporter v0.97b - (c)2007 guruware
# File Created: 10.02.2024 08:45:39

mtllib SM_Sand_Dollar_04.mtl

#
# object SM_Sand_Dollar_04_LOD0
#

v  7.9696 0.8538 -10.2185
v  7.7264 0.4780 -9.7653
v  5.1619 0.4764 -11.4962
v  5.2943 0.8540 -11.9787
v  3.2391 0.8534 -12.4067
v  -0.6031 0.8525 -12.3499
v  -0.4993 0.4170 -11.9174
v  -4.6573 0.3689 -10.5236
v  -4.9234 0.8526 -10.9160
v  -7.5401 0.8517 -9.3832
v  -9.6948 0.8518 -7.9855
v  -10.6754 0.4427 -6.0295
v  -11.1633 0.8525 -6.2563
v  -12.4189 0.8543 -3.0352
v  -12.4419 0.5174 -1.2723
v  -11.9034 0.4929 -2.9251
v  -12.2266 0.5174 1.9976
v  -10.9118 0.4241 6.8531
v  -10.5007 0.8511 8.0856
v  -8.8288 0.3384 8.5280
v  0.7142 0.4698 11.9919
v  4.1275 0.5124 10.6840
v  4.4063 0.9136 11.1161
v  6.3036 0.9153 10.1667
v  9.0660 0.9104 8.3865
v  10.2417 0.5278 5.1907
v  11.7799 0.4826 2.0620
v  12.9505 0.8581 -0.3242
v  12.4550 0.4618 -0.3096
v  12.1847 0.4610 -2.1020
v  12.0487 0.8536 -4.0443
v  11.5922 0.8538 -5.9348
v  9.5492 0.4788 -8.7603
v  11.1700 0.4715 -5.6508
v  11.5694 0.4653 -3.8485
v  8.6424 0.5452 8.0528
v  5.9634 0.5332 9.7610
v  -4.1088 0.4313 11.7635
v  -7.1042 0.4057 10.2085
v  -10.3204 0.3499 7.6498
v  -10.7867 0.4687 5.6539
v  -9.2476 0.3972 -7.6753
v  -7.1714 0.3623 -9.0048
v  0.5143 0.0000 0.0620
v  3.2516 0.4522 -11.9508
v  10.7339 0.8955 5.4425
v  12.2954 0.8710 2.1695
v  12.4550 1.2758 -0.3096
v  12.6870 0.8541 -2.1971
v  12.1847 1.2693 -2.1020
v  11.5694 1.2625 -3.8485
v  11.1700 1.2532 -5.6508
v  9.8854 0.8536 -9.1203
v  7.7264 1.2467 -9.7653
v  3.2516 1.2749 -11.9508
v  -4.6573 1.3770 -10.5236
v  -9.2476 1.3345 -7.6753
v  -11.9034 1.2342 -2.9251
v  -12.2266 1.2097 1.9976
v  -12.9505 0.8550 -1.2509
v  -12.6869 0.8550 2.1175
v  -11.1201 0.8538 5.9152
v  -10.3204 1.3769 7.6498
v  -11.2082 0.8526 7.1948
v  -8.8288 1.4059 8.5280
v  -8.8962 0.8595 9.0002
v  -7.0214 0.8844 10.6910
v  -7.1042 1.3947 10.2085
v  -3.9856 0.8922 12.2334
v  0.7142 1.3677 11.9919
v  0.8879 0.9044 12.4067
v  5.9634 1.3137 9.7610
v  4.1275 1.3337 10.6840
v  0.5143 1.7267 0.0620
v  -4.1088 1.3846 11.7635
v  -10.9118 1.3029 6.8531
v  -10.7867 1.2584 5.6539
v  -12.4419 1.2097 -1.2723
v  -10.6754 1.2843 -6.0295
v  -7.1714 1.3779 -9.0048
v  -0.4993 1.3100 -11.9174
v  5.1619 1.2507 -11.4962
v  9.5492 1.2433 -8.7603
v  11.7799 1.2789 2.0620
v  10.2417 1.2806 5.1907
v  8.6424 1.2913 8.0528
# 86 vertices

vn 0.9308 -0.0100 -0.3653
vn 0.2767 -0.9235 -0.2655
vn 0.7132 -0.0084 -0.7009
vn 0.2767 -0.9235 -0.2655
vn 0.5244 -0.0109 -0.8514
vn 0.7132 -0.0084 -0.7009
vn 0.2767 -0.9235 -0.2655
vn 0.1678 -0.9468 -0.2745
vn 0.5244 -0.0109 -0.8514
vn 0.1678 -0.9468 -0.2745
vn 0.1558 -0.9298 -0.3334
vn 0.5244 -0.0109 -0.8514
vn 0.1558 -0.9298 -0.3334
vn 0.3893 -0.0110 -0.9211
vn 0.5244 -0.0109 -0.8514
vn 0.1558 -0.9298 -0.3334
vn 0.0496 -0.9209 -0.3867
vn 0.3893 -0.0110 -0.9211
vn 0.0496 -0.9209 -0.3867
vn 0.0964 -0.0117 -0.9953
vn 0.3893 -0.0110 -0.9211
vn 0.0496 -0.9209 -0.3867
vn -0.0618 -0.9063 -0.4181
vn 0.0964 -0.0117 -0.9953
vn -0.0618 -0.9063 -0.4181
vn -0.1667 -0.0121 -0.9859
vn 0.0964 -0.0117 -0.9953
vn -0.0618 -0.9063 -0.4181
vn -0.1716 -0.9049 -0.3895
vn -0.1667 -0.0121 -0.9859
vn -0.1716 -0.9049 -0.3895
vn -0.4239 -0.0190 -0.9055
vn -0.1667 -0.0121 -0.9859
vn -0.1716 -0.9049 -0.3895
vn -0.2072 -0.9219 -0.3273
vn -0.4239 -0.0190 -0.9055
vn -0.2072 -0.9219 -0.3273
vn -0.5308 -0.0176 -0.8473
vn -0.4239 -0.0190 -0.9055
vn -0.2072 -0.9219 -0.3273
vn -0.2595 -0.9213 -0.2897
vn -0.5308 -0.0176 -0.8473
vn -0.2595 -0.9213 -0.2897
vn -0.6762 -0.0138 -0.7366
vn -0.5308 -0.0176 -0.8473
vn -0.2595 -0.9213 -0.2897
vn -0.3190 -0.9301 -0.1818
vn -0.6762 -0.0138 -0.7366
vn -0.3190 -0.9301 -0.1818
vn -0.8656 -0.0117 -0.5006
vn -0.6762 -0.0138 -0.7366
vn -0.3190 -0.9301 -0.1818
vn -0.3063 -0.9468 -0.0989
vn -0.8656 -0.0117 -0.5006
vn -0.3063 -0.9468 -0.0989
vn -0.9459 -0.0115 -0.3244
vn -0.8656 -0.0117 -0.5006
vn -0.3063 -0.9468 -0.0989
vn -0.3375 -0.9404 -0.0407
vn -0.9459 -0.0115 -0.3244
vn -0.3375 -0.9404 -0.0407
vn -0.9951 -0.0105 -0.0983
vn -0.9459 -0.0115 -0.3244
vn -0.3375 -0.9404 -0.0407
vn -0.3394 -0.9379 0.0712
vn -0.9951 -0.0105 -0.0983
vn -0.3394 -0.9379 0.0712
vn -0.9753 -0.0109 0.2205
vn -0.9951 -0.0105 -0.0983
vn -0.3394 -0.9379 0.0712
vn -0.3590 -0.9323 0.0430
vn -0.9753 -0.0109 0.2205
vn -0.3590 -0.9323 0.0430
vn -0.9978 -0.0130 0.0657
vn -0.9753 -0.0109 0.2205
vn -0.3590 -0.9323 0.0430
vn -0.5204 -0.8522 0.0538
vn -0.9978 -0.0130 0.0657
vn -0.5204 -0.8522 0.0538
vn -0.9417 -0.0106 0.3363
vn -0.9978 -0.0130 0.0657
vn -0.5204 -0.8522 0.0538
vn -0.3247 -0.8941 0.3084
vn -0.9417 -0.0106 0.3363
vn -0.3247 -0.8941 0.3084
vn -0.6406 -0.0125 0.7678
vn -0.9417 -0.0106 0.3363
vn -0.3247 -0.8941 0.3084
vn -0.2323 -0.9115 0.3393
vn -0.6406 -0.0125 0.7678
vn -0.2323 -0.9115 0.3393
vn -0.6159 -0.0153 0.7877
vn -0.6406 -0.0125 0.7678
vn -0.2323 -0.9115 0.3393
vn -0.2976 -0.8628 0.4086
vn -0.6159 -0.0153 0.7877
vn -0.2976 -0.8628 0.4086
vn -0.5348 -0.0152 0.8449
vn -0.6159 -0.0153 0.7877
vn -0.2976 -0.8628 0.4086
vn -0.1392 -0.8840 0.4463
vn -0.5348 -0.0152 0.8449
vn -0.1392 -0.8840 0.4463
vn -0.2112 -0.0158 0.9773
vn -0.5348 -0.0152 0.8449
vn -0.1392 -0.8840 0.4463
vn 0.0686 -0.8986 0.4333
vn -0.2112 -0.0158 0.9773
vn 0.0686 -0.8986 0.4333
vn 0.1863 -0.0147 0.9824
vn -0.2112 -0.0158 0.9773
vn 0.0686 -0.8986 0.4333
vn 0.1498 -0.9325 0.3286
vn 0.1863 -0.0147 0.9824
vn 0.1498 -0.9325 0.3286
vn 0.4062 -0.0106 0.9137
vn 0.1863 -0.0147 0.9824
vn 0.1498 -0.9325 0.3286
vn 0.1723 -0.9391 0.2974
vn 0.4062 -0.0106 0.9137
vn 0.1723 -0.9391 0.2974
vn 0.5004 -0.0090 0.8657
vn 0.4062 -0.0106 0.9137
vn 0.1723 -0.9391 0.2974
vn 0.2535 -0.9350 0.2482
vn 0.5004 -0.0090 0.8657
vn 0.2535 -0.9350 0.2482
vn 0.7334 -0.0080 0.6797
vn 0.5004 -0.0090 0.8657
vn 0.2535 -0.9350 0.2482
vn 0.8835 -0.0099 0.4683
vn 0.7334 -0.0080 0.6797
vn 0.2761 -0.9486 0.1547
vn 0.8835 -0.0099 0.4683
vn 0.2535 -0.9350 0.2482
vn 0.2761 -0.9486 0.1547
vn 0.3233 -0.9368 0.1339
vn 0.8835 -0.0099 0.4683
vn 0.3233 -0.9368 0.1339
vn 0.9375 -0.0113 0.3478
vn 0.8835 -0.0099 0.4683
vn 0.3233 -0.9368 0.1339
vn 0.3819 -0.9237 0.0298
vn 0.9375 -0.0113 0.3478
vn 0.3819 -0.9237 0.0298
vn 0.9986 -0.0123 0.0511
vn 0.9375 -0.0113 0.3478
vn 0.3819 -0.9237 0.0298
vn 0.9716 -0.0132 -0.2362
vn 0.9986 -0.0123 0.0511
vn 0.3819 -0.9237 0.0298
vn 0.3450 -0.9346 -0.0864
vn 0.9716 -0.0132 -0.2362
vn 0.3450 -0.9346 -0.0864
vn 0.9609 -0.0129 -0.2765
vn 0.9716 -0.0132 -0.2362
vn 0.3122 -0.9454 -0.0930
vn 0.9609 -0.0129 -0.2765
vn 0.3450 -0.9346 -0.0864
vn 0.3122 -0.9454 -0.0930
vn 0.3413 -0.9318 -0.1234
vn 0.9609 -0.0129 -0.2765
vn 0.3413 -0.9318 -0.1234
vn 0.9308 -0.0100 -0.3653
vn 0.9609 -0.0129 -0.2765
vn 0.3413 -0.9318 -0.1234
vn 0.2767 -0.9235 -0.2655
vn 0.9308 -0.0100 -0.3653
vn 0.3413 -0.9318 -0.1234
vn 0.0047 -1.0000 0.0028
vn 0.2767 -0.9235 -0.2655
vn 0.3122 -0.9454 -0.0930
vn 0.0047 -1.0000 0.0028
vn 0.3413 -0.9318 -0.1234
vn 0.3450 -0.9346 -0.0864
vn 0.0047 -1.0000 0.0028
vn 0.3122 -0.9454 -0.0930
vn 0.3819 -0.9237 0.0298
vn 0.0047 -1.0000 0.0028
vn 0.3450 -0.9346 -0.0864
vn 0.3233 -0.9368 0.1339
vn 0.0047 -1.0000 0.0028
vn 0.3819 -0.9237 0.0298
vn 0.2761 -0.9486 0.1547
vn 0.0047 -1.0000 0.0028
vn 0.3233 -0.9368 0.1339
vn 0.2535 -0.9350 0.2482
vn 0.0047 -1.0000 0.0028
vn 0.2761 -0.9486 0.1547
vn 0.1723 -0.9391 0.2974
vn 0.0047 -1.0000 0.0028
vn 0.2535 -0.9350 0.2482
vn 0.1498 -0.9325 0.3286
vn 0.0047 -1.0000 0.0028
vn 0.1723 -0.9391 0.2974
vn 0.0686 -0.8986 0.4333
vn 0.0047 -1.0000 0.0028
vn 0.1498 -0.9325 0.3286
vn -0.1392 -0.8840 0.4463
vn 0.0047 -1.0000 0.0028
vn 0.0686 -0.8986 0.4333
vn -0.2976 -0.8628 0.4086
vn 0.0047 -1.0000 0.0028
vn -0.1392 -0.8840 0.4463
vn -0.2323 -0.9115 0.3393
vn 0.0047 -1.0000 0.0028
vn -0.2976 -0.8628 0.4086
vn -0.3247 -0.8941 0.3084
vn 0.0047 -1.0000 0.0028
vn -0.2323 -0.9115 0.3393
vn -0.5204 -0.8522 0.0538
vn 0.0047 -1.0000 0.0028
vn -0.3247 -0.8941 0.3084
vn -0.3590 -0.9323 0.0430
vn 0.0047 -1.0000 0.0028
vn -0.5204 -0.8522 0.0538
vn -0.3394 -0.9379 0.0712
vn 0.0047 -1.0000 0.0028
vn -0.3590 -0.9323 0.0430
vn -0.3375 -0.9404 -0.0407
vn 0.0047 -1.0000 0.0028
vn -0.3394 -0.9379 0.0712
vn -0.3063 -0.9468 -0.0989
vn 0.0047 -1.0000 0.0028
vn -0.3375 -0.9404 -0.0407
vn -0.3190 -0.9301 -0.1818
vn 0.0047 -1.0000 0.0028
vn -0.3063 -0.9468 -0.0989
vn -0.2595 -0.9213 -0.2897
vn 0.0047 -1.0000 0.0028
vn -0.3190 -0.9301 -0.1818
vn -0.2072 -0.9219 -0.3273
vn 0.0047 -1.0000 0.0028
vn -0.2595 -0.9213 -0.2897
vn -0.1716 -0.9049 -0.3895
vn 0.0047 -1.0000 0.0028
vn -0.2072 -0.9219 -0.3273
vn -0.0618 -0.9063 -0.4181
vn 0.0047 -1.0000 0.0028
vn -0.1716 -0.9049 -0.3895
vn 0.0496 -0.9209 -0.3867
vn 0.0047 -1.0000 0.0028
vn -0.0618 -0.9063 -0.4181
vn 0.1558 -0.9298 -0.3334
vn 0.0047 -1.0000 0.0028
vn 0.0496 -0.9209 -0.3867
vn 0.1678 -0.9468 -0.2745
vn 0.0047 -1.0000 0.0028
vn 0.1558 -0.9298 -0.3334
vn 0.2767 -0.9235 -0.2655
vn 0.0047 -1.0000 0.0028
vn 0.1678 -0.9468 -0.2745
vn 0.2616 0.9326 0.2486
vn 0.5004 -0.0090 0.8657
vn 0.7334 -0.0080 0.6797
vn 0.8835 -0.0099 0.4683
vn 0.2616 0.9326 0.2486
vn 0.7334 -0.0080 0.6797
vn 0.2869 0.9464 0.1486
vn 0.2616 0.9326 0.2486
vn 0.8835 -0.0099 0.4683
vn 0.3353 0.9335 0.1270
vn 0.2869 0.9464 0.1486
vn 0.8835 -0.0099 0.4683
vn 0.9375 -0.0113 0.3478
vn 0.3353 0.9335 0.1270
vn 0.8835 -0.0099 0.4683
vn 0.3947 0.9185 0.0242
vn 0.3353 0.9335 0.1270
vn 0.9375 -0.0113 0.3478
vn 0.9986 -0.0123 0.0511
vn 0.3947 0.9185 0.0242
vn 0.9375 -0.0113 0.3478
vn 0.9716 -0.0132 -0.2362
vn 0.3947 0.9185 0.0242
vn 0.9986 -0.0123 0.0511
vn 0.3571 0.9296 -0.0917
vn 0.3947 0.9185 0.0242
vn 0.9716 -0.0132 -0.2362
vn 0.9609 -0.0129 -0.2765
vn 0.3571 0.9296 -0.0917
vn 0.9716 -0.0132 -0.2362
vn 0.9609 -0.0129 -0.2765
vn 0.3228 0.9414 -0.0975
vn 0.3571 0.9296 -0.0917
vn 0.3511 0.9276 -0.1278
vn 0.3228 0.9414 -0.0975
vn 0.9609 -0.0129 -0.2765
vn 0.9308 -0.0100 -0.3653
vn 0.3511 0.9276 -0.1278
vn 0.9609 -0.0129 -0.2765
vn 0.2842 0.9192 -0.2725
vn 0.3511 0.9276 -0.1278
vn 0.9308 -0.0100 -0.3653
vn 0.7132 -0.0084 -0.7009
vn 0.2842 0.9192 -0.2725
vn 0.9308 -0.0100 -0.3653
vn 0.5244 -0.0109 -0.8514
vn 0.2842 0.9192 -0.2725
vn 0.7132 -0.0084 -0.7009
vn 0.5244 -0.0109 -0.8514
vn 0.1738 0.9434 -0.2824
vn 0.2842 0.9192 -0.2725
vn 0.1608 0.9250 -0.3443
vn 0.1738 0.9434 -0.2824
vn 0.5244 -0.0109 -0.8514
vn 0.3893 -0.0110 -0.9211
vn 0.1608 0.9250 -0.3443
vn 0.5244 -0.0109 -0.8514
vn 0.0507 0.9158 -0.3984
vn 0.1608 0.9250 -0.3443
vn 0.3893 -0.0110 -0.9211
vn 0.0964 -0.0117 -0.9953
vn 0.0507 0.9158 -0.3984
vn 0.3893 -0.0110 -0.9211
vn -0.0621 0.9006 -0.4302
vn 0.0507 0.9158 -0.3984
vn 0.0964 -0.0117 -0.9953
vn -0.1667 -0.0121 -0.9859
vn -0.0621 0.9006 -0.4302
vn 0.0964 -0.0117 -0.9953
vn -0.1787 0.8964 -0.4056
vn -0.0621 0.9006 -0.4302
vn -0.1667 -0.0121 -0.9859
vn -0.4239 -0.0190 -0.9055
vn -0.1787 0.8964 -0.4056
vn -0.1667 -0.0121 -0.9859
vn -0.2174 0.9150 -0.3398
vn -0.1787 0.8964 -0.4056
vn -0.4239 -0.0190 -0.9055
vn -0.5308 -0.0176 -0.8473
vn -0.2174 0.9150 -0.3398
vn -0.4239 -0.0190 -0.9055
vn -0.2703 0.9150 -0.2996
vn -0.2174 0.9150 -0.3398
vn -0.5308 -0.0176 -0.8473
vn -0.6762 -0.0138 -0.7366
vn -0.2703 0.9150 -0.2996
vn -0.5308 -0.0176 -0.8473
vn -0.3304 0.9249 -0.1882
vn -0.2703 0.9150 -0.2996
vn -0.6762 -0.0138 -0.7366
vn -0.8656 -0.0117 -0.5006
vn -0.3304 0.9249 -0.1882
vn -0.6762 -0.0138 -0.7366
vn -0.3170 0.9428 -0.1030
vn -0.3304 0.9249 -0.1882
vn -0.8656 -0.0117 -0.5006
vn -0.9459 -0.0115 -0.3244
vn -0.3170 0.9428 -0.1030
vn -0.8656 -0.0117 -0.5006
vn -0.3493 0.9361 -0.0423
vn -0.3170 0.9428 -0.1030
vn -0.9459 -0.0115 -0.3244
vn -0.9951 -0.0105 -0.0983
vn -0.3493 0.9361 -0.0423
vn -0.9459 -0.0115 -0.3244
vn -0.3509 0.9335 0.0739
vn -0.3493 0.9361 -0.0423
vn -0.9951 -0.0105 -0.0983
vn -0.9753 -0.0109 0.2205
vn -0.3509 0.9335 0.0739
vn -0.9951 -0.0105 -0.0983
vn -0.3690 0.9284 0.0446
vn -0.3509 0.9335 0.0739
vn -0.9753 -0.0109 0.2205
vn -0.9978 -0.0130 0.0657
vn -0.3690 0.9284 0.0446
vn -0.9753 -0.0109 0.2205
vn -0.5303 0.8458 0.0578
vn -0.3690 0.9284 0.0446
vn -0.9978 -0.0130 0.0657
vn -0.9417 -0.0106 0.3363
vn -0.5303 0.8458 0.0578
vn -0.9978 -0.0130 0.0657
vn -0.3347 0.8882 0.3147
vn -0.5303 0.8458 0.0578
vn -0.9417 -0.0106 0.3363
vn -0.6406 -0.0125 0.7678
vn -0.3347 0.8882 0.3147
vn -0.9417 -0.0106 0.3363
vn -0.2500 0.9072 0.3384
vn -0.3347 0.8882 0.3147
vn -0.6406 -0.0125 0.7678
vn -0.6159 -0.0153 0.7877
vn -0.2500 0.9072 0.3384
vn -0.6406 -0.0125 0.7678
vn -0.3133 0.8563 0.4107
vn -0.2500 0.9072 0.3384
vn -0.6159 -0.0153 0.7877
vn -0.5348 -0.0152 0.8449
vn -0.3133 0.8563 0.4107
vn -0.6159 -0.0153 0.7877
vn -0.1460 0.8771 0.4575
vn -0.3133 0.8563 0.4107
vn -0.5348 -0.0152 0.8449
vn -0.2112 -0.0158 0.9773
vn -0.1460 0.8771 0.4575
vn -0.5348 -0.0152 0.8449
vn 0.0674 0.8928 0.4453
vn -0.1460 0.8771 0.4575
vn -0.2112 -0.0158 0.9773
vn 0.1863 -0.0147 0.9824
vn 0.0674 0.8928 0.4453
vn -0.2112 -0.0158 0.9773
vn 0.1506 0.9301 0.3351
vn 0.0674 0.8928 0.4453
vn 0.1863 -0.0147 0.9824
vn 0.4062 -0.0106 0.9137
vn 0.1506 0.9301 0.3351
vn 0.1863 -0.0147 0.9824
vn 0.1755 0.9373 0.3010
vn 0.1506 0.9301 0.3351
vn 0.4062 -0.0106 0.9137
vn 0.5004 -0.0090 0.8657
vn 0.1755 0.9373 0.3010
vn 0.4062 -0.0106 0.9137
vn 0.2616 0.9326 0.2486
vn 0.1755 0.9373 0.3010
vn 0.5004 -0.0090 0.8657
vn 0.2616 0.9326 0.2486
vn 0.0032 1.0000 -0.0016
vn 0.1755 0.9373 0.3010
vn 0.0032 1.0000 -0.0016
vn 0.1506 0.9301 0.3351
vn 0.1755 0.9373 0.3010
vn 0.0032 1.0000 -0.0016
vn 0.0674 0.8928 0.4453
vn 0.1506 0.9301 0.3351
vn 0.0032 1.0000 -0.0016
vn -0.1460 0.8771 0.4575
vn 0.0674 0.8928 0.4453
vn 0.0032 1.0000 -0.0016
vn -0.3133 0.8563 0.4107
vn -0.1460 0.8771 0.4575
vn 0.0032 1.0000 -0.0016
vn -0.2500 0.9072 0.3384
vn -0.3133 0.8563 0.4107
vn 0.0032 1.0000 -0.0016
vn -0.3347 0.8882 0.3147
vn -0.2500 0.9072 0.3384
vn 0.0032 1.0000 -0.0016
vn -0.5303 0.8458 0.0578
vn -0.3347 0.8882 0.3147
vn 0.0032 1.0000 -0.0016
vn -0.3690 0.9284 0.0446
vn -0.5303 0.8458 0.0578
vn 0.0032 1.0000 -0.0016
vn -0.3509 0.9335 0.0739
vn -0.3690 0.9284 0.0446
vn 0.0032 1.0000 -0.0016
vn -0.3493 0.9361 -0.0423
vn -0.3509 0.9335 0.0739
vn 0.0032 1.0000 -0.0016
vn -0.3170 0.9428 -0.1030
vn -0.3493 0.9361 -0.0423
vn 0.0032 1.0000 -0.0016
vn -0.3304 0.9249 -0.1882
vn -0.3170 0.9428 -0.1030
vn 0.0032 1.0000 -0.0016
vn -0.2703 0.9150 -0.2996
vn -0.3304 0.9249 -0.1882
vn 0.0032 1.0000 -0.0016
vn -0.2174 0.9150 -0.3398
vn -0.2703 0.9150 -0.2996
vn 0.0032 1.0000 -0.0016
vn -0.1787 0.8964 -0.4056
vn -0.2174 0.9150 -0.3398
vn 0.0032 1.0000 -0.0016
vn -0.0621 0.9006 -0.4302
vn -0.1787 0.8964 -0.4056
vn 0.0032 1.0000 -0.0016
vn 0.0507 0.9158 -0.3984
vn -0.0621 0.9006 -0.4302
vn 0.0032 1.0000 -0.0016
vn 0.1608 0.9250 -0.3443
vn 0.0507 0.9158 -0.3984
vn 0.0032 1.0000 -0.0016
vn 0.1738 0.9434 -0.2824
vn 0.1608 0.9250 -0.3443
vn 0.0032 1.0000 -0.0016
vn 0.2842 0.9192 -0.2725
vn 0.1738 0.9434 -0.2824
vn 0.0032 1.0000 -0.0016
vn 0.3511 0.9276 -0.1278
vn 0.2842 0.9192 -0.2725
vn 0.0032 1.0000 -0.0016
vn 0.3228 0.9414 -0.0975
vn 0.3511 0.9276 -0.1278
vn 0.0032 1.0000 -0.0016
vn 0.3571 0.9296 -0.0917
vn 0.3228 0.9414 -0.0975
vn 0.0032 1.0000 -0.0016
vn 0.3947 0.9185 0.0242
vn 0.3571 0.9296 -0.0917
vn 0.0032 1.0000 -0.0016
vn 0.3353 0.9335 0.1270
vn 0.3947 0.9185 0.0242
vn 0.0032 1.0000 -0.0016
vn 0.2869 0.9464 0.1486
vn 0.3353 0.9335 0.1270
vn 0.2869 0.9464 0.1486
vn 0.0032 1.0000 -0.0016
vn 0.2616 0.9326 0.2486
# 504 vertex normals

vt 0.3726 0.2891 0.0000
vt 0.3701 0.2866 0.0000
vt 0.3840 0.2676 0.0000
vt 0.3596 0.2964 0.0000
vt 0.3579 0.2935 0.0000
vt 0.3406 0.3052 0.0000
vt 0.3413 0.3086 0.0000
vt 0.3276 0.3081 0.0000
vt 0.3274 0.3110 0.0000
vt 0.3022 0.3081 0.0000
vt 0.3015 0.3110 0.0000
vt 0.2739 0.2983 0.0000
vt 0.2722 0.3013 0.0000
vt 0.2568 0.2881 0.0000
vt 0.2544 0.2910 0.0000
vt 0.2429 0.2793 0.0000
vt 0.2399 0.2813 0.0000
vt 0.2333 0.2681 0.0000
vt 0.2300 0.2695 0.0000
vt 0.2250 0.2471 0.0000
vt 0.2214 0.2476 0.0000
vt 0.2213 0.2358 0.0000
vt 0.2179 0.2358 0.0000
vt 0.2228 0.2139 0.0000
vt 0.2196 0.2129 0.0000
vt 0.2325 0.1890 0.0000
vt 0.2302 0.1870 0.0000
vt 0.2317 0.1807 0.0000
vt 0.2296 0.1787 0.0000
vt 0.2357 0.1753 0.0000
vt 0.2345 0.1724 0.0000
vt 0.2457 0.1694 0.0000
vt 0.2454 0.1660 0.0000
vt 0.2573 0.1582 0.0000
vt 0.2581 0.1548 0.0000
vt 0.2776 0.1475 0.0000
vt 0.2786 0.1445 0.0000
vt 0.3103 0.1460 0.0000
vt 0.3115 0.1431 0.0000
vt 0.3335 0.1548 0.0000
vt 0.3354 0.1519 0.0000
vt 0.3459 0.1611 0.0000
vt 0.3481 0.1582 0.0000
vt 0.3640 0.1729 0.0000
vt 0.3669 0.1704 0.0000
vt 0.3782 0.1904 0.0000
vt 0.3750 0.1919 0.0000
vt 0.3853 0.2134 0.0000
vt 0.3889 0.2124 0.0000
vt 0.3899 0.2295 0.0000
vt 0.3933 0.2295 0.0000
vt 0.3916 0.2422 0.0000
vt 0.3882 0.2417 0.0000
vt 0.3872 0.2544 0.0000
vt 0.3840 0.2534 0.0000
vt 0.3811 0.2656 0.0000
vt 0.3091 0.2266 0.0000
vt 0.3669 0.1704 0.0000
vt 0.3481 0.1582 0.0000
vt 0.3640 0.1729 0.0000
vt 0.3782 0.1904 0.0000
vt 0.3750 0.1919 0.0000
vt 0.3853 0.2134 0.0000
vt 0.3889 0.2124 0.0000
vt 0.3899 0.2295 0.0000
vt 0.3933 0.2295 0.0000
vt 0.3916 0.2422 0.0000
vt 0.3882 0.2417 0.0000
vt 0.3872 0.2544 0.0000
vt 0.3840 0.2534 0.0000
vt 0.3811 0.2656 0.0000
vt 0.3840 0.2676 0.0000
vt 0.3701 0.2866 0.0000
vt 0.3726 0.2891 0.0000
vt 0.3596 0.2964 0.0000
vt 0.3579 0.2935 0.0000
vt 0.3406 0.3052 0.0000
vt 0.3413 0.3086 0.0000
vt 0.3276 0.3081 0.0000
vt 0.3274 0.3110 0.0000
vt 0.3022 0.3081 0.0000
vt 0.3015 0.3110 0.0000
vt 0.2739 0.2983 0.0000
vt 0.2722 0.3013 0.0000
vt 0.2568 0.2881 0.0000
vt 0.2544 0.2910 0.0000
vt 0.2429 0.2793 0.0000
vt 0.2399 0.2813 0.0000
vt 0.2333 0.2681 0.0000
vt 0.2300 0.2695 0.0000
vt 0.2250 0.2471 0.0000
vt 0.2214 0.2476 0.0000
vt 0.2213 0.2358 0.0000
vt 0.2179 0.2358 0.0000
vt 0.2228 0.2139 0.0000
vt 0.2196 0.2129 0.0000
vt 0.2325 0.1890 0.0000
vt 0.2302 0.1870 0.0000
vt 0.2317 0.1807 0.0000
vt 0.2296 0.1787 0.0000
vt 0.2357 0.1753 0.0000
vt 0.2345 0.1724 0.0000
vt 0.2457 0.1694 0.0000
vt 0.2454 0.1660 0.0000
vt 0.2573 0.1582 0.0000
vt 0.2581 0.1548 0.0000
vt 0.2776 0.1475 0.0000
vt 0.2786 0.1445 0.0000
vt 0.3103 0.1460 0.0000
vt 0.3115 0.1431 0.0000
vt 0.3335 0.1548 0.0000
vt 0.3354 0.1519 0.0000
vt 0.3459 0.1611 0.0000
vt 0.3091 0.2266 0.0000
# 114 texture coords

o SM_Sand_Dollar_04_LOD0
g SM_Sand_Dollar_04_LOD0
usemtl MAT_Sea_Shells
s 1
f 32/3/1 33/2/2 53/1/3 
f 33/2/4 1/4/5 53/1/6 
f 33/2/7 2/5/8 1/4/9 
f 2/5/10 3/6/11 1/4/12 
f 3/6/13 4/7/14 1/4/15 
f 3/6/16 45/8/17 4/7/18 
f 45/8/19 5/9/20 4/7/21 
f 45/8/22 7/10/23 5/9/24 
f 7/10/25 6/11/26 5/9/27 
f 7/10/28 8/12/29 6/11/30 
f 8/12/31 9/13/32 6/11/33 
f 8/12/34 43/14/35 9/13/36 
f 43/14/37 10/15/38 9/13/39 
f 43/14/40 42/16/41 10/15/42 
f 42/16/43 11/17/44 10/15/45 
f 42/16/46 12/18/47 11/17/48 
f 12/18/49 13/19/50 11/17/51 
f 12/18/52 16/20/53 13/19/54 
f 16/20/55 14/21/56 13/19/57 
f 16/20/58 15/22/59 14/21/60 
f 15/22/61 60/23/62 14/21/63 
f 15/22/64 17/24/65 60/23/66 
f 17/24/67 61/25/68 60/23/69 
f 17/24/70 41/26/71 61/25/72 
f 41/26/73 62/27/74 61/25/75 
f 41/26/76 18/28/77 62/27/78 
f 18/28/79 64/29/80 62/27/81 
f 18/28/82 40/30/83 64/29/84 
f 40/30/85 19/31/86 64/29/87 
f 40/30/88 20/32/89 19/31/90 
f 20/32/91 66/33/92 19/31/93 
f 20/32/94 39/34/95 66/33/96 
f 39/34/97 67/35/98 66/33/99 
f 39/34/100 38/36/101 67/35/102 
f 38/36/103 69/37/104 67/35/105 
f 38/36/106 21/38/107 69/37/108 
f 21/38/109 71/39/110 69/37/111 
f 21/38/112 22/40/113 71/39/114 
f 22/40/115 23/41/116 71/39/117 
f 22/40/118 37/42/119 23/41/120 
f 37/42/121 24/43/122 23/41/123 
f 37/42/124 36/44/125 24/43/126 
f 36/44/127 25/45/128 24/43/129 
f 36/44/130 46/46/131 25/45/132 
f 26/47/133 46/46/134 36/44/135 
f 26/47/136 27/48/137 46/46/138 
f 27/48/139 47/49/140 46/46/141 
f 27/48/142 29/50/143 47/49/144 
f 29/50/145 28/51/146 47/49/147 
f 29/50/148 49/52/149 28/51/150 
f 29/50/151 30/53/152 49/52/153 
f 30/53/154 31/54/155 49/52/156 
f 35/55/157 31/54/158 30/53/159 
f 35/55/160 34/56/161 31/54/162 
f 34/56/163 32/3/164 31/54/165 
f 34/56/166 33/2/167 32/3/168 
f 34/56/169 44/57/170 33/2/171 
f 35/55/172 44/57/173 34/56/174 
f 30/53/175 44/57/176 35/55/177 
f 29/50/178 44/57/179 30/53/180 
f 27/48/181 44/57/182 29/50/183 
f 26/47/184 44/57/185 27/48/186 
f 36/44/187 44/57/188 26/47/189 
f 37/42/190 44/57/191 36/44/192 
f 22/40/193 44/57/194 37/42/195 
f 21/38/196 44/57/197 22/40/198 
f 38/36/199 44/57/200 21/38/201 
f 39/34/202 44/57/203 38/36/204 
f 20/32/205 44/57/206 39/34/207 
f 40/30/208 44/57/209 20/32/210 
f 18/28/211 44/57/212 40/30/213 
f 41/26/214 44/57/215 18/28/216 
f 17/24/217 44/57/218 41/26/219 
f 15/22/220 44/57/221 17/24/222 
f 16/20/223 44/57/224 15/22/225 
f 12/18/226 44/57/227 16/20/228 
f 42/16/229 44/57/230 12/18/231 
f 43/14/232 44/57/233 42/16/234 
f 8/12/235 44/57/236 43/14/237 
f 7/10/238 44/57/239 8/12/240 
f 45/8/241 44/57/242 7/10/243 
f 3/6/244 44/57/245 45/8/246 
f 2/5/247 44/57/248 3/6/249 
f 33/2/250 44/57/251 2/5/252 
f 86/60/253 24/59/254 25/58/255 
f 46/61/256 86/60/257 25/58/258 
f 85/62/259 86/60/260 46/61/261 
f 84/63/262 85/62/263 46/61/264 
f 47/64/265 84/63/266 46/61/267 
f 48/65/268 84/63/269 47/64/270 
f 28/66/271 48/65/272 47/64/273 
f 49/67/274 48/65/275 28/66/276 
f 50/68/277 48/65/278 49/67/279 
f 31/69/280 50/68/281 49/67/282 
f 31/69/283 51/70/284 50/68/285 
f 52/71/286 51/70/287 31/69/288 
f 32/72/289 52/71/290 31/69/291 
f 83/73/292 52/71/293 32/72/294 
f 53/74/295 83/73/296 32/72/297 
f 1/75/298 83/73/299 53/74/300 
f 1/75/301 54/76/302 83/73/303 
f 82/77/304 54/76/305 1/75/306 
f 4/78/307 82/77/308 1/75/309 
f 55/79/310 82/77/311 4/78/312 
f 5/80/313 55/79/314 4/78/315 
f 81/81/316 55/79/317 5/80/318 
f 6/82/319 81/81/320 5/80/321 
f 56/83/322 81/81/323 6/82/324 
f 9/84/325 56/83/326 6/82/327 
f 80/85/328 56/83/329 9/84/330 
f 10/86/331 80/85/332 9/84/333 
f 57/87/334 80/85/335 10/86/336 
f 11/88/337 57/87/338 10/86/339 
f 79/89/340 57/87/341 11/88/342 
f 13/90/343 79/89/344 11/88/345 
f 58/91/346 79/89/347 13/90/348 
f 14/92/349 58/91/350 13/90/351 
f 78/93/352 58/91/353 14/92/354 
f 60/94/355 78/93/356 14/92/357 
f 59/95/358 78/93/359 60/94/360 
f 61/96/361 59/95/362 60/94/363 
f 77/97/364 59/95/365 61/96/366 
f 62/98/367 77/97/368 61/96/369 
f 76/99/370 77/97/371 62/98/372 
f 64/100/373 76/99/374 62/98/375 
f 63/101/376 76/99/377 64/100/378 
f 19/102/379 63/101/380 64/100/381 
f 65/103/382 63/101/383 19/102/384 
f 66/104/385 65/103/386 19/102/387 
f 68/105/388 65/103/389 66/104/390 
f 67/106/391 68/105/392 66/104/393 
f 75/107/394 68/105/395 67/106/396 
f 69/108/397 75/107/398 67/106/399 
f 70/109/400 75/107/401 69/108/402 
f 71/110/403 70/109/404 69/108/405 
f 73/111/406 70/109/407 71/110/408 
f 23/112/409 73/111/410 71/110/411 
f 72/113/412 73/111/413 23/112/414 
f 24/59/415 72/113/416 23/112/417 
f 86/60/418 72/113/419 24/59/420 
f 86/60/421 74/114/422 72/113/423 
f 74/114/424 73/111/425 72/113/426 
f 74/114/427 70/109/428 73/111/429 
f 74/114/430 75/107/431 70/109/432 
f 74/114/433 68/105/434 75/107/435 
f 74/114/436 65/103/437 68/105/438 
f 74/114/439 63/101/440 65/103/441 
f 74/114/442 76/99/443 63/101/444 
f 74/114/445 77/97/446 76/99/447 
f 74/114/448 59/95/449 77/97/450 
f 74/114/451 78/93/452 59/95/453 
f 74/114/454 58/91/455 78/93/456 
f 74/114/457 79/89/458 58/91/459 
f 74/114/460 57/87/461 79/89/462 
f 74/114/463 80/85/464 57/87/465 
f 74/114/466 56/83/467 80/85/468 
f 74/114/469 81/81/470 56/83/471 
f 74/114/472 55/79/473 81/81/474 
f 74/114/475 82/77/476 55/79/477 
f 74/114/478 54/76/479 82/77/480 
f 74/114/481 83/73/482 54/76/483 
f 74/114/484 52/71/485 83/73/486 
f 74/114/487 51/70/488 52/71/489 
f 74/114/490 50/68/491 51/70/492 
f 74/114/493 48/65/494 50/68/495 
f 74/114/496 84/63/497 48/65/498 
f 74/114/499 85/62/500 84/63/501 
f 85/62/502 74/114/503 86/60/504 
# 168 faces

#
# object SM_Sand_Dollar_04_LOD1
#

v  9.0660 0.9104 8.3865
v  -4.9234 0.8526 -10.9160
v  -10.8987 0.8520 7.5844
v  9.8854 0.8536 -9.1203
v  -12.9505 0.8550 -1.2509
v  12.9505 0.8581 -0.3242
v  -3.9856 0.8922 12.2334
v  -9.6948 0.8518 -7.9855
v  5.2943 0.8540 -11.9787
v  0.8879 0.9044 12.4067
v  0.5143 0.0000 0.0620
v  0.5143 1.7267 0.0620
v  12.2954 0.8710 2.1695
v  -8.8962 0.8595 9.0002
v  -0.6031 0.8525 -12.3499
v  11.5922 0.8538 -5.9348
v  -7.0214 0.8844 10.6910
v  -12.6869 0.8550 2.1175
v  -11.1201 0.8538 5.9152
v  12.6870 0.8541 -2.1971
v  -9.5052 1.3841 8.2586
v  -11.1633 0.8525 -6.2563
v  3.2391 0.8534 -12.4067
v  -2.2624 1.3384 -11.3264
v  12.4299 1.2752 -0.4757
v  6.3036 0.9153 10.1667
v  -10.1086 0.3482 7.7746
v  0.8459 1.3664 11.9415
v  -10.8501 1.2810 6.2615
v  9.7736 1.2446 -8.3297
v  12.4293 0.4617 -0.4797
v  -9.9464 1.3100 -6.8698
v  4.6322 1.2574 -11.6223
v  10.7339 0.8955 5.4425
v  -12.3982 1.2097 -0.6082
# 35 vertices

vn 0.0064 0.9999 0.0078
vn -0.2950 -0.0254 0.9551
vn 0.0639 0.9105 0.4085
vn -0.4838 -0.1849 -0.8554
vn -0.0007 -1.0000 0.0014
vn -0.8829 -0.1950 -0.4273
vn 0.0064 0.9999 0.0078
vn 0.6772 -0.0023 0.7358
vn 0.3721 0.9281 0.0135
vn 0.6572 -0.2001 -0.7267
vn -0.0007 -1.0000 0.0014
vn 0.4035 -0.2364 -0.8839
vn 0.0064 0.9999 0.0078
vn -0.3270 0.9450 -0.0067
vn -0.5166 0.8478 0.1201
vn -0.9644 -0.1740 0.1990
vn -0.0007 -1.0000 0.0014
vn -0.8184 -0.5453 0.1810
vn 0.0064 0.9999 0.0078
vn 0.3721 0.9281 0.0135
vn 0.2932 0.9329 -0.2092
vn 0.3526 -0.9357 0.0104
vn -0.0007 -1.0000 0.0014
vn 0.6572 -0.2001 -0.7267
vn 0.0064 0.9999 0.0078
vn -0.3264 0.8499 0.4136
vn -0.2950 -0.0254 0.9551
vn -0.3427 -0.8873 0.3086
vn -0.0007 -1.0000 0.0014
vn -0.4059 -0.1685 0.8983
vn -0.8829 -0.1950 -0.4273
vn -0.0007 -1.0000 0.0014
vn -0.9631 -0.1865 -0.1940
vn 0.0064 0.9999 0.0078
vn -0.2762 0.9323 -0.2335
vn -0.3270 0.9450 -0.0067
vn 0.0064 0.9999 0.0078
vn -0.1217 0.9112 -0.3935
vn -0.2762 0.9323 -0.2335
vn 0.4035 -0.2364 -0.8839
vn -0.0007 -1.0000 0.0014
vn -0.0748 -0.1936 -0.9782
vn 0.6772 -0.0023 0.7358
vn 0.0064 0.9999 0.0078
vn 0.0639 0.9105 0.4085
vn 0.6772 -0.0023 0.7358
vn -0.0007 -1.0000 0.0014
vn 0.3526 -0.9357 0.0104
vn 0.1630 -0.3123 0.9359
vn -0.0007 -1.0000 0.0014
vn 0.6772 -0.0023 0.7358
vn -0.2950 -0.0254 0.9551
vn -0.0007 -1.0000 0.0014
vn 0.1630 -0.3123 0.9359
vn 0.0064 0.9999 0.0078
vn 0.1012 0.9320 -0.3480
vn -0.1217 0.9112 -0.3935
vn 0.0064 0.9999 0.0078
vn 0.2932 0.9329 -0.2092
vn 0.1012 0.9320 -0.3480
vn 0.6772 -0.0023 0.7358
vn 0.3526 -0.9357 0.0104
vn 0.8728 0.0002 0.4882
vn 0.3721 0.9281 0.0135
vn 0.6772 -0.0023 0.7358
vn 0.8728 0.0002 0.4882
vn -0.8184 -0.5453 0.1810
vn -0.0007 -1.0000 0.0014
vn -0.3427 -0.8873 0.3086
vn 0.0064 0.9999 0.0078
vn -0.5166 0.8478 0.1201
vn -0.3264 0.8499 0.4136
vn -0.5641 -0.2444 -0.7887
vn -0.1217 0.9112 -0.3935
vn -0.4838 -0.1849 -0.8554
vn -0.0748 -0.1936 -0.9782
vn -0.0007 -1.0000 0.0014
vn -0.4838 -0.1849 -0.8554
vn 0.9206 -0.0937 -0.3792
vn 0.2932 0.9329 -0.2092
vn 0.3721 0.9281 0.0135
vn 0.6572 -0.2001 -0.7267
vn 0.9206 -0.0937 -0.3792
vn 0.3526 -0.9357 0.0104
vn -0.4059 -0.1685 0.8983
vn -0.0007 -1.0000 0.0014
vn -0.2950 -0.0254 0.9551
vn -0.2950 -0.0254 0.9551
vn -0.3264 0.8499 0.4136
vn -0.4059 -0.1685 0.8983
vn -0.9631 -0.1865 -0.1940
vn -0.0007 -1.0000 0.0014
vn -0.9644 -0.1740 0.1990
vn -0.5166 0.8478 0.1201
vn -0.3270 0.9450 -0.0067
vn -0.9644 -0.1740 0.1990
vn -0.8184 -0.5453 0.1810
vn -0.3427 -0.8873 0.3086
vn -0.8886 -0.0063 0.4586
vn -0.3264 0.8499 0.4136
vn -0.5166 0.8478 0.1201
vn -0.8886 -0.0063 0.4586
vn 0.9206 -0.0937 -0.3792
vn 0.3721 0.9281 0.0135
vn 0.9656 -0.0147 -0.2597
vn 0.3526 -0.9357 0.0104
vn 0.9206 -0.0937 -0.3792
vn 0.9656 -0.0147 -0.2597
vn -0.6581 0.0315 0.7523
vn -0.3264 0.8499 0.4136
vn -0.8886 -0.0063 0.4586
vn -0.4059 -0.1685 0.8983
vn -0.3264 0.8499 0.4136
vn -0.6581 0.0315 0.7523
vn -0.3270 0.9450 -0.0067
vn -0.2762 0.9323 -0.2335
vn -0.8829 -0.1950 -0.4273
vn -0.4838 -0.1849 -0.8554
vn -0.8829 -0.1950 -0.4273
vn -0.5641 -0.2444 -0.7887
vn 0.4035 -0.2364 -0.8839
vn 0.1012 0.9320 -0.3480
vn 0.6572 -0.2001 -0.7267
vn 0.4035 -0.2364 -0.8839
vn -0.0748 -0.1936 -0.9782
vn 0.0212 -0.2279 -0.9735
vn -0.0748 -0.1936 -0.9782
vn -0.1217 0.9112 -0.3935
vn 0.0212 -0.2279 -0.9735
vn -0.4838 -0.1849 -0.8554
vn -0.1217 0.9112 -0.3935
vn -0.0748 -0.1936 -0.9782
vn 0.9968 -0.0128 0.0784
vn 0.3721 0.9281 0.0135
vn 0.9128 -0.0124 0.4082
vn 0.9656 -0.0147 -0.2597
vn 0.3721 0.9281 0.0135
vn 0.9968 -0.0128 0.0784
vn 0.6772 -0.0023 0.7358
vn 0.0639 0.9105 0.4085
vn 0.5237 -0.1369 0.8408
vn 0.1630 -0.3123 0.9359
vn 0.6772 -0.0023 0.7358
vn 0.5237 -0.1369 0.8408
vn -0.3427 -0.8873 0.3086
vn -0.6581 0.0315 0.7523
vn -0.8886 -0.0063 0.4586
vn -0.3427 -0.8873 0.3086
vn -0.4059 -0.1685 0.8983
vn -0.6581 0.0315 0.7523
vn 0.1630 -0.3123 0.9359
vn 0.0639 0.9105 0.4085
vn -0.2950 -0.0254 0.9551
vn 0.5237 -0.1369 0.8408
vn 0.0639 0.9105 0.4085
vn 0.1630 -0.3123 0.9359
vn -0.8886 -0.0063 0.4586
vn -0.5166 0.8478 0.1201
vn -0.8184 -0.5453 0.1810
vn -0.8184 -0.5453 0.1810
vn -0.5166 0.8478 0.1201
vn -0.9644 -0.1740 0.1990
vn 0.6572 -0.2001 -0.7267
vn 0.2932 0.9329 -0.2092
vn 0.9206 -0.0937 -0.3792
vn 0.1012 0.9320 -0.3480
vn 0.2932 0.9329 -0.2092
vn 0.6572 -0.2001 -0.7267
vn 0.3526 -0.9357 0.0104
vn 0.9968 -0.0128 0.0784
vn 0.9128 -0.0124 0.4082
vn 0.3526 -0.9357 0.0104
vn 0.9656 -0.0147 -0.2597
vn 0.9968 -0.0128 0.0784
vn -0.2762 0.9323 -0.2335
vn -0.1217 0.9112 -0.3935
vn -0.5641 -0.2444 -0.7887
vn -0.8829 -0.1950 -0.4273
vn -0.2762 0.9323 -0.2335
vn -0.5641 -0.2444 -0.7887
vn -0.1217 0.9112 -0.3935
vn 0.1012 0.9320 -0.3480
vn 0.0212 -0.2279 -0.9735
vn 0.0212 -0.2279 -0.9735
vn 0.1012 0.9320 -0.3480
vn 0.4035 -0.2364 -0.8839
vn 0.9128 -0.0124 0.4082
vn 0.3721 0.9281 0.0135
vn 0.8728 0.0002 0.4882
vn 0.3526 -0.9357 0.0104
vn 0.9128 -0.0124 0.4082
vn 0.8728 0.0002 0.4882
vn -0.9644 -0.1740 0.1990
vn -0.3270 0.9450 -0.0067
vn -0.9631 -0.1865 -0.1940
vn -0.9631 -0.1865 -0.1940
vn -0.3270 0.9450 -0.0067
vn -0.8829 -0.1950 -0.4273
# 198 vertex normals

vt 0.2317 0.1759 0.0000
vt 0.2722 0.3013 0.0000
vt 0.3669 0.1704 0.0000
vt 0.3669 0.1704 0.0000
vt 0.3726 0.2891 0.0000
vt 0.3726 0.2891 0.0000
vt 0.2786 0.1445 0.0000
vt 0.2786 0.1445 0.0000
vt 0.3933 0.2295 0.0000
vt 0.2179 0.2358 0.0000
vt 0.3413 0.3086 0.0000
vt 0.3413 0.3086 0.0000
vt 0.2722 0.3013 0.0000
vt 0.2399 0.2813 0.0000
vt 0.3115 0.1431 0.0000
vt 0.3115 0.1431 0.0000
vt 0.3091 0.2266 0.0000
vt 0.3091 0.2266 0.0000
vt 0.3015 0.3110 0.0000
vt 0.3015 0.3110 0.0000
vt 0.2412 0.1712 0.0000
vt 0.2371 0.1745 0.0000
vt 0.3840 0.2676 0.0000
vt 0.3840 0.2676 0.0000
vt 0.2581 0.1548 0.0000
vt 0.2581 0.1548 0.0000
vt 0.3897 0.2306 0.0000
vt 0.2196 0.2129 0.0000
vt 0.2196 0.2129 0.0000
vt 0.3481 0.1582 0.0000
vt 0.3481 0.1582 0.0000
vt 0.2382 0.2738 0.0000
vt 0.2302 0.1870 0.0000
vt 0.2317 0.1759 0.0000
vt 0.2302 0.1870 0.0000
vt 0.3112 0.1463 0.0000
vt 0.2902 0.3040 0.0000
vt 0.3370 0.3060 0.0000
vt 0.3897 0.2307 0.0000
vt 0.2216 0.2314 0.0000
vt 0.2179 0.2358 0.0000
vt 0.2321 0.1848 0.0000
vt 0.3716 0.2837 0.0000
vt 0.2300 0.2695 0.0000
vt 0.2399 0.2813 0.0000
vt 0.2300 0.2695 0.0000
vt 0.3274 0.3110 0.0000
vt 0.3274 0.3110 0.0000
vt 0.2454 0.1660 0.0000
vt 0.2454 0.1660 0.0000
vt 0.3933 0.2295 0.0000
vt 0.3889 0.2124 0.0000
vt 0.3889 0.2124 0.0000
vt 0.3916 0.2422 0.0000
vt 0.3916 0.2422 0.0000
vt 0.3782 0.1904 0.0000
vt 0.3782 0.1904 0.0000
# 57 texture coords

o SM_Sand_Dollar_04_LOD1
g SM_Sand_Dollar_04_LOD1
usemtl MAT_Sea_Shells
s 1
f 98/132/505 93/121/506 114/150/507 
f 88/116/508 97/131/509 108/160/510 
f 98/132/511 87/118/512 111/141/513 
f 90/120/514 97/131/515 95/125/516 
f 98/132/517 121/154/518 115/156/519 
f 104/143/520 97/131/521 105/149/522 
f 98/132/523 111/141/524 116/157/525 
f 117/153/526 97/131/527 90/120/528 
f 98/132/529 107/135/530 93/121/531 
f 113/136/532 97/131/533 103/140/534 
f 108/160/535 97/131/536 91/124/537 
f 98/132/538 118/146/539 121/154/540 
f 98/132/541 110/151/542 118/146/543 
f 95/125/544 97/131/545 101/134/546 
f 87/118/547 98/132/548 114/150/549 
f 87/117/550 97/131/551 117/153/552 
f 96/130/553 97/131/554 87/117/555 
f 93/122/556 97/131/557 96/130/558 
f 98/132/559 119/152/560 110/151/561 
f 98/132/562 116/157/563 119/152/564 
f 87/117/565 117/153/566 120/171/567 
f 111/141/568 87/118/569 120/170/570 
f 105/149/571 97/131/572 113/136/573 
f 98/132/574 115/156/575 107/135/576 
f 94/128/577 110/151/578 88/127/579 
f 101/134/580 97/131/581 88/116/582 
f 102/138/583 116/157/584 111/141/585 
f 90/120/586 102/138/587 117/153/588 
f 103/140/589 97/131/590 93/122/591 
f 93/121/592 107/135/593 103/139/594 
f 91/124/595 97/131/596 104/143/597 
f 115/156/598 121/154/599 104/142/600 
f 105/149/601 113/136/602 89/115/603 
f 107/135/604 115/156/605 89/148/606 
f 102/138/607 111/141/608 106/168/609 
f 117/153/610 102/138/611 106/169/612 
f 100/163/613 107/135/614 89/148/615 
f 103/139/616 107/135/617 100/163/618 
f 121/154/619 118/146/620 108/158/621 
f 88/116/622 108/160/623 94/128/624 
f 95/126/625 119/152/626 90/120/627 
f 95/125/628 101/134/629 109/162/630 
f 101/133/631 110/151/632 109/161/633 
f 88/127/634 110/151/635 101/133/636 
f 92/165/637 111/141/638 99/166/639 
f 106/168/640 111/141/641 92/165/642 
f 87/118/643 114/150/644 112/144/645 
f 96/130/646 87/117/647 112/145/648 
f 113/136/649 100/164/650 89/115/651 
f 113/136/652 103/140/653 100/164/654 
f 96/129/655 114/150/656 93/121/657 
f 112/145/658 114/150/659 96/129/660 
f 89/148/661 115/156/662 105/147/663 
f 105/147/664 115/156/665 104/142/666 
f 90/119/667 116/157/668 102/137/669 
f 119/152/670 116/157/671 90/120/672 
f 117/153/673 92/123/674 99/167/675 
f 117/153/676 106/169/677 92/123/678 
f 118/146/679 110/151/680 94/128/681 
f 108/158/682 118/146/683 94/159/684 
f 110/151/685 119/152/686 109/161/687 
f 109/161/688 119/152/689 95/126/690 
f 99/166/691 111/141/692 120/170/693 
f 117/153/694 99/167/695 120/171/696 
f 104/142/697 121/154/698 91/155/699 
f 91/124/700 121/154/701 108/158/702 
# 66 faces

