# 3ds Max Wavefront OBJ Exporter v0.97b - (c)2007 guruware
# File Created: 10.02.2024 08:45:41

mtllib SM_Starfish_02.mtl

#
# object SM_Starfish_02_LOD0
#

v  0.4741 0.7117 -13.1258
v  0.3123 0.9995 -12.9471
v  2.4147 1.1643 -6.8685
v  2.0482 0.3819 -0.8237
v  2.2530 0.3819 -0.4237
v  1.7390 1.4430 -0.7672
v  2.9021 1.4538 -0.0656
v  2.8451 0.3819 -0.3530
v  4.4988 1.3149 -0.6902
v  4.3522 0.3819 -0.9496
v  6.0449 0.3819 -2.5387
v  7.7872 1.1944 -3.9819
v  10.5580 1.1113 -5.6254
v  13.0495 1.0125 -6.8588
v  12.9723 0.6720 -7.0371
v  13.4077 0.8932 -6.8192
v  13.5571 0.6720 -6.2189
v  13.5104 0.8932 -6.6328
v  8.4120 1.2091 -3.1855
v  6.1926 1.2527 -2.2872
v  2.0923 1.5581 1.0305
v  1.1182 1.6818 0.6736
v  0.4143 1.5581 -0.0347
v  1.9642 1.5581 -0.0012
v  0.5191 1.4430 -0.7667
v  2.3393 1.2836 -3.1773
v  2.5682 1.2057 -5.5223
v  1.4805 1.2057 -5.5154
v  1.6166 1.1154 -9.4821
v  0.6317 1.1154 -9.3920
v  0.3713 0.6580 -9.3721
v  1.2684 1.1643 -6.9507
v  0.7957 0.6391 -3.3542
v  1.1574 1.2836 -3.2456
v  -2.5247 0.6452 -1.5353
v  -2.5414 1.2762 -1.2562
v  -4.1187 1.2462 -1.5456
v  -10.2792 1.1238 -2.0569
v  -12.0567 1.0431 -2.7405
v  -13.1272 1.0197 -3.4343
v  -13.1677 0.7231 -3.6013
v  -13.5160 0.9614 -3.4964
v  -13.6476 0.9614 -3.2178
v  -13.4911 0.7231 -2.7708
v  -13.3304 1.0197 -2.8290
v  -12.4641 0.7194 -1.9390
v  -10.5886 1.1238 -1.3488
v  -7.7120 1.1849 -0.7408
v  -7.3659 1.1849 -1.6402
v  -4.3297 1.2462 -0.3730
v  -0.9944 1.4025 -0.6766
v  -1.4729 1.4025 0.3853
v  -0.0214 1.5581 0.8968
v  3.7579 0.3819 0.9320
v  3.4200 1.4538 0.6704
v  5.0672 1.3189 0.1267
v  6.8601 1.2623 -1.4021
v  11.0193 1.1334 -5.0843
v  13.3589 1.0356 -6.3522
v  11.1811 0.3819 -4.9071
v  3.0920 0.3819 1.9308
v  6.3769 1.2416 5.6071
v  6.6730 0.3819 5.4868
v  7.5844 1.1978 7.4373
v  10.7193 0.6741 10.8582
v  10.5769 0.9705 10.9672
v  10.6314 0.6778 11.8725
v  10.5523 0.9307 11.5824
v  10.1691 1.0122 11.3409
v  10.7538 0.9307 11.3763
v  9.4739 1.1138 10.8086
v  9.3580 0.6741 11.0314
v  9.9037 1.0820 10.4374
v  8.7130 1.1647 8.7320
v  6.9918 1.2323 8.0845
v  2.8210 1.4303 2.0618
v  1.1831 1.5581 1.9529
v  2.1132 1.4557 2.7519
v  1.9051 0.3819 3.0894
v  5.6567 1.2733 6.2277
v  8.1225 1.2014 9.2295
v  0.3485 0.3819 3.1539
v  -1.0797 0.3819 4.9492
v  -2.7915 0.3819 6.8358
v  -2.9327 1.2625 6.6787
v  -3.6123 0.3819 7.7188
v  -4.5419 0.3819 9.1096
v  -7.1276 0.6717 13.1868
v  -7.0870 1.1201 12.8454
v  -7.4163 0.9978 13.1275
v  -7.6943 0.9978 12.8795
v  -7.5907 1.1201 12.4308
v  -4.6021 1.2222 8.8705
v  -5.5883 1.2181 8.4421
v  -4.8930 1.2383 7.0626
v  -3.7167 1.2442 7.5244
v  -3.7627 1.2550 5.7391
v  -1.1640 1.2930 4.7024
v  0.3140 1.4427 2.8285
v  -0.3746 1.4305 1.8105
v  -0.5628 0.3819 1.0593
v  -2.9480 1.2762 -0.0164
v  -7.8331 0.6607 -0.5272
v  -10.6620 0.6663 -1.0917
v  -12.3419 1.0431 -2.1141
v  -1.9557 1.2830 3.6544
v  -2.1819 0.3819 3.5063
v  -5.8187 0.3819 8.4404
v  -0.4902 0.7117 -12.9260
v  -0.2394 0.9995 -12.8073
v  -0.1279 0.9334 -13.0850
v  0.0764 0.9334 -13.1485
v  -0.2866 0.7129 -13.3539
v  0.1063 0.7129 -13.4438
v  1.8457 0.6580 -9.5219
v  2.6696 0.6566 -6.9125
v  2.8591 0.6414 -5.5628
v  2.6416 0.6391 -3.1792
v  2.3393 0.2877 -3.1773
v  1.9642 0.0257 -0.0012
v  2.9021 0.0022 -0.0656
v  6.1926 0.0375 -2.2872
v  7.6118 0.3819 -4.1725
v  10.4174 0.3819 -5.8416
v  7.7872 0.0694 -3.9819
v  10.5580 0.1147 -5.6254
v  13.4077 0.5502 -6.8192
v  13.5104 0.5502 -6.6328
v  13.6525 0.6720 -6.9709
v  13.8228 0.6720 -6.6058
v  13.0495 0.4850 -6.8588
v  13.3589 0.4724 -6.3522
v  8.4120 0.0613 -3.1855
v  4.4988 0.0036 -0.6902
v  1.1182 -0.0000 0.6736
v  0.4143 0.0257 -0.0347
v  1.7390 0.0299 -0.7672
v  2.5682 0.3302 -5.5223
v  2.4147 0.3807 -6.8685
v  1.4805 0.3302 -5.5154
v  1.6166 0.4075 -9.4821
v  0.6317 0.4075 -9.3920
v  0.3123 0.5534 -12.9471
v  -0.2394 0.5534 -12.8073
v  1.0017 0.6566 -6.9452
v  1.2684 0.3807 -6.9507
v  1.1853 0.6414 -5.5215
v  1.1574 0.2877 -3.2456
v  0.2901 0.3819 -1.0256
v  0.5191 0.0299 -0.7667
v  0.1566 0.3819 -0.4790
v  -0.9944 0.2307 -0.6766
v  -2.5414 0.2997 -1.2562
v  -0.9588 0.6440 -0.9087
v  -4.1104 0.6502 -1.8049
v  -7.3690 0.6607 -1.8691
v  -10.2132 0.6663 -2.3012
v  -10.2792 0.4141 -2.0569
v  -12.0636 0.7194 -2.9567
v  -12.0567 0.5423 -2.7405
v  -13.1272 0.5608 -3.4343
v  -13.5160 0.6041 -3.4964
v  -13.6571 0.7310 -3.5813
v  -13.8227 0.7310 -3.2308
v  -13.6476 0.6041 -3.2178
v  -13.3304 0.5608 -2.8290
v  -10.5886 0.4141 -1.3488
v  -7.7120 0.3740 -0.7408
v  -7.3659 0.3740 -1.6402
v  -4.1187 0.3239 -1.5456
v  1.1831 0.0257 1.9529
v  2.0923 0.0257 1.0305
v  2.8210 0.0142 2.0618
v  2.5519 0.3819 1.2133
v  3.4200 0.0022 0.6704
v  5.0672 0.0013 0.1267
v  5.3256 0.3819 0.3535
v  7.1201 0.3819 -1.1345
v  6.8601 0.0323 -1.4021
v  8.5877 0.3819 -2.9644
v  11.0193 0.1027 -5.0843
v  6.3769 0.0436 5.6071
v  7.5844 0.0675 7.4373
v  7.8920 0.3819 7.3220
v  8.7130 0.0856 8.7320
v  9.0292 0.3819 8.6203
v  10.2302 0.6741 10.3302
v  11.0716 0.6778 11.5249
v  10.7645 0.4873 11.4657
v  10.5631 0.4873 11.6718
v  10.5769 0.4280 10.9672
v  10.1691 0.4052 11.3409
v  9.9037 0.2990 10.4374
v  9.4739 0.2817 10.8086
v  9.9818 0.6741 11.5596
v  7.9894 0.3819 9.4736
v  8.1225 0.0655 9.2295
v  6.9918 0.0487 8.0845
v  5.6567 0.0263 6.2277
v  2.1132 0.0003 2.7519
v  5.3655 0.3819 6.6105
v  6.8444 0.3819 8.3466
v  1.1567 0.3819 2.5932
v  0.3140 0.0188 2.8285
v  -2.9327 0.0322 6.6787
v  -4.6021 0.0542 8.8705
v  -7.6943 0.4912 12.8795
v  -7.4163 0.4912 13.1275
v  -7.0870 0.4244 12.8454
v  -7.6731 0.6768 13.4438
v  -8.0229 0.6768 13.1318
v  -7.5907 0.4244 12.4308
v  -7.9076 0.6709 12.6403
v  -4.8930 0.0454 7.0626
v  -3.7167 0.0421 7.5244
v  -1.1640 0.0155 4.7024
v  -0.0214 0.0257 0.8968
v  -1.4729 0.2307 0.3853
v  -2.9480 0.2997 -0.0164
v  -1.6215 0.6440 0.6456
v  -3.1161 0.6452 0.2231
v  -4.3297 0.3239 -0.3730
v  -4.4742 0.6502 -0.1608
v  -12.3419 0.5423 -2.1141
v  -0.3746 0.0255 1.8105
v  -0.6582 0.3819 1.6829
v  -1.9557 0.0210 3.6544
v  -3.7627 0.0362 5.7391
v  -3.9235 0.3819 5.5676
v  -5.0853 0.3819 6.9682
v  -5.5883 0.0564 8.4421
v  -0.1279 0.5894 -13.0850
v  0.0764 0.5894 -13.1485
# 233 vertices

vn -0.6102 -0.0987 -0.7861
vn 0.0811 0.8688 -0.4885
vn 0.2154 -0.0998 -0.9714
vn 0.0811 0.8688 -0.4885
vn 0.7730 -0.1262 -0.6217
vn 0.2154 -0.0998 -0.9714
vn 0.0811 0.8688 -0.4885
vn 0.3608 0.8707 -0.3341
vn 0.7730 -0.1262 -0.6217
vn 0.3608 0.8707 -0.3341
vn 0.9330 -0.1380 -0.3323
vn 0.7730 -0.1262 -0.6217
vn 0.3608 0.8707 -0.3341
vn 0.4991 0.8449 -0.1923
vn 0.9330 -0.1380 -0.3323
vn 0.4991 0.8449 -0.1923
vn 0.5312 0.8368 -0.1323
vn 0.9330 -0.1380 -0.3323
vn 0.5312 0.8368 -0.1323
vn 0.9666 -0.1345 -0.2182
vn 0.9330 -0.1380 -0.3323
vn 0.5312 0.8368 -0.1323
vn 0.9905 -0.1346 -0.0281
vn 0.9666 -0.1345 -0.2182
vn 0.5312 0.8368 -0.1323
vn 0.5460 0.8374 -0.0252
vn 0.9905 -0.1346 -0.0281
vn 0.5460 0.8374 -0.0252
vn 0.9811 -0.1164 0.1545
vn 0.9905 -0.1346 -0.0281
vn 0.5460 0.8374 -0.0252
vn 0.5611 0.8240 0.0783
vn 0.9811 -0.1164 0.1545
vn 0.5611 0.8240 0.0783
vn 0.9580 -0.2561 -0.1290
vn 0.9811 -0.1164 0.1545
vn 0.5611 0.8240 0.0783
vn 0.5207 0.8447 -0.1239
vn 0.9580 -0.2561 -0.1290
vn 0.5207 0.8447 -0.1239
vn 0.5312 -0.3238 -0.7829
vn 0.9580 -0.2561 -0.1290
vn 0.5207 0.8447 -0.1239
vn 0.2310 0.9170 -0.3251
vn 0.5312 -0.3238 -0.7829
vn 0.2310 0.9170 -0.3251
vn -0.0363 0.8199 -0.5714
vn 0.5312 -0.3238 -0.7829
vn -0.0363 0.8199 -0.5714
vn -0.1153 -0.2050 -0.9719
vn 0.5312 -0.3238 -0.7829
vn -0.0363 0.8199 -0.5714
vn -0.2570 0.8337 -0.4888
vn -0.1153 -0.2050 -0.9719
vn -0.2570 0.8337 -0.4888
vn -0.5258 -0.1888 -0.8294
vn -0.1153 -0.2050 -0.9719
vn -0.2570 0.8337 -0.4888
vn -0.3990 0.8116 -0.4267
vn -0.5258 -0.1888 -0.8294
vn -0.3990 0.8116 -0.4267
vn -0.6922 -0.1875 -0.6970
vn -0.5258 -0.1888 -0.8294
vn -0.3990 0.8116 -0.4267
vn -0.3780 0.7793 -0.4998
vn -0.6922 -0.1875 -0.6970
vn -0.3780 0.7793 -0.4998
vn -0.6136 -0.1831 -0.7681
vn -0.6922 -0.1875 -0.6970
vn -0.3780 0.7793 -0.4998
vn -0.4416 -0.2234 -0.8690
vn -0.6136 -0.1831 -0.7681
vn -0.3780 0.7793 -0.4998
vn -0.2712 0.8021 -0.5320
vn -0.4416 -0.2234 -0.8690
vn -0.2712 0.8021 -0.5320
vn -0.1282 -0.1122 -0.9854
vn -0.4416 -0.2234 -0.8690
vn -0.2712 0.8021 -0.5320
vn 0.0197 0.8022 -0.5968
vn -0.1282 -0.1122 -0.9854
vn 0.0197 0.8022 -0.5968
vn 0.3326 0.7874 -0.5190
vn -0.1282 -0.1122 -0.9854
vn 0.3326 0.7874 -0.5190
vn 0.6283 -0.1068 -0.7706
vn -0.1282 -0.1122 -0.9854
vn 0.3326 0.7874 -0.5190
vn 0.5780 0.8128 -0.0725
vn 0.6283 -0.1068 -0.7706
vn 0.5780 0.8128 -0.0725
vn 0.9918 -0.0976 0.0828
vn 0.6283 -0.1068 -0.7706
vn 0.5780 0.8128 -0.0725
vn 0.7539 -0.1113 0.6474
vn 0.9918 -0.0976 0.0828
vn 0.5780 0.8128 -0.0725
vn 0.4589 0.8402 0.2890
vn 0.7539 -0.1113 0.6474
vn 0.3326 0.7874 -0.5190
vn 0.4589 0.8402 0.2890
vn 0.5780 0.8128 -0.0725
vn 0.0197 0.8022 -0.5968
vn 0.4589 0.8402 0.2890
vn 0.3326 0.7874 -0.5190
vn 0.3220 0.8299 0.4556
vn 0.4589 0.8402 0.2890
vn 0.0197 0.8022 -0.5968
vn -0.2712 0.8021 -0.5320
vn 0.3220 0.8299 0.4556
vn 0.0197 0.8022 -0.5968
vn 0.3855 0.8366 0.3891
vn 0.3220 0.8299 0.4556
vn -0.2712 0.8021 -0.5320
vn -0.3780 0.7793 -0.4998
vn 0.3855 0.8366 0.3891
vn -0.2712 0.8021 -0.5320
vn -0.3990 0.8116 -0.4267
vn 0.3855 0.8366 0.3891
vn -0.3780 0.7793 -0.4998
vn 0.4187 0.8185 0.3934
vn 0.3855 0.8366 0.3891
vn -0.3990 0.8116 -0.4267
vn -0.2570 0.8337 -0.4888
vn 0.4187 0.8185 0.3934
vn -0.3990 0.8116 -0.4267
vn 0.3314 0.7806 0.5299
vn 0.4187 0.8185 0.3934
vn -0.2570 0.8337 -0.4888
vn 0.2164 0.8053 0.5519
vn 0.3314 0.7806 0.5299
vn -0.2570 0.8337 -0.4888
vn -0.0363 0.8199 -0.5714
vn 0.2164 0.8053 0.5519
vn -0.2570 0.8337 -0.4888
vn 0.2926 0.9503 0.1061
vn 0.2164 0.8053 0.5519
vn -0.0363 0.8199 -0.5714
vn 0.2310 0.9170 -0.3251
vn 0.2926 0.9503 0.1061
vn -0.0363 0.8199 -0.5714
vn 0.0012 0.9998 -0.0186
vn 0.2926 0.9503 0.1061
vn 0.2310 0.9170 -0.3251
vn -0.1518 0.9449 -0.2901
vn 0.0012 0.9998 -0.0186
vn 0.2310 0.9170 -0.3251
vn 0.5207 0.8447 -0.1239
vn -0.1518 0.9449 -0.2901
vn 0.2310 0.9170 -0.3251
vn -0.6052 0.7679 -0.2102
vn -0.1518 0.9449 -0.2901
vn 0.5207 0.8447 -0.1239
vn -0.4932 0.8620 -0.1171
vn -0.6052 0.7679 -0.2102
vn 0.5207 0.8447 -0.1239
vn 0.5611 0.8240 0.0783
vn -0.4932 0.8620 -0.1171
vn 0.5207 0.8447 -0.1239
vn -0.4791 0.8772 -0.0316
vn -0.4932 0.8620 -0.1171
vn 0.5611 0.8240 0.0783
vn 0.5460 0.8374 -0.0252
vn -0.4791 0.8772 -0.0316
vn 0.5611 0.8240 0.0783
vn 0.5312 0.8368 -0.1323
vn -0.4791 0.8772 -0.0316
vn 0.5460 0.8374 -0.0252
vn -0.4985 0.8632 0.0797
vn -0.4791 0.8772 -0.0316
vn 0.5312 0.8368 -0.1323
vn 0.4991 0.8449 -0.1923
vn -0.4985 0.8632 0.0797
vn 0.5312 0.8368 -0.1323
vn -0.4929 0.8636 0.1063
vn -0.4985 0.8632 0.0797
vn 0.4991 0.8449 -0.1923
vn 0.3608 0.8707 -0.3341
vn -0.4929 0.8636 0.1063
vn 0.4991 0.8449 -0.1923
vn -0.4732 0.8770 -0.0837
vn -0.4929 0.8636 0.1063
vn 0.3608 0.8707 -0.3341
vn -0.4732 0.8770 -0.0837
vn -0.9619 -0.1451 0.2318
vn -0.4929 0.8636 0.1063
vn -0.9719 -0.1427 0.1871
vn -0.4929 0.8636 0.1063
vn -0.9619 -0.1451 0.2318
vn -0.9719 -0.1427 0.1871
vn -0.4985 0.8632 0.0797
vn -0.4929 0.8636 0.1063
vn -0.9885 -0.1486 -0.0270
vn -0.4985 0.8632 0.0797
vn -0.9719 -0.1427 0.1871
vn -0.9885 -0.1486 -0.0270
vn -0.4791 0.8772 -0.0316
vn -0.4985 0.8632 0.0797
vn -0.9735 -0.1271 -0.1903
vn -0.4791 0.8772 -0.0316
vn -0.9885 -0.1486 -0.0270
vn -0.9735 -0.1271 -0.1903
vn -0.4932 0.8620 -0.1171
vn -0.4791 0.8772 -0.0316
vn -0.9391 -0.2235 -0.2610
vn -0.4932 0.8620 -0.1171
vn -0.9735 -0.1271 -0.1903
vn -0.9391 -0.2235 -0.2610
vn -0.6052 0.7679 -0.2102
vn -0.4932 0.8620 -0.1171
vn -0.4492 -0.4266 -0.7850
vn -0.6052 0.7679 -0.2102
vn -0.9391 -0.2235 -0.2610
vn -0.4492 -0.4266 -0.7850
vn -0.1518 0.9449 -0.2901
vn -0.6052 0.7679 -0.2102
vn 0.1769 0.7887 -0.5888
vn -0.1518 0.9449 -0.2901
vn -0.4492 -0.4266 -0.7850
vn 0.3417 -0.0830 -0.9361
vn 0.1769 0.7887 -0.5888
vn -0.4492 -0.4266 -0.7850
vn 0.1330 0.8123 -0.5679
vn 0.1769 0.7887 -0.5888
vn 0.3417 -0.0830 -0.9361
vn 0.2633 -0.1264 -0.9564
vn 0.1330 0.8123 -0.5679
vn 0.3417 -0.0830 -0.9361
vn 0.0443 0.8237 -0.5653
vn 0.1330 0.8123 -0.5679
vn 0.2633 -0.1264 -0.9564
vn 0.0913 -0.1272 -0.9877
vn 0.0443 0.8237 -0.5653
vn 0.2633 -0.1264 -0.9564
vn 0.0286 0.8439 -0.5357
vn 0.0443 0.8237 -0.5653
vn 0.0913 -0.1272 -0.9877
vn 0.0775 -0.1326 -0.9881
vn 0.0286 0.8439 -0.5357
vn 0.0913 -0.1272 -0.9877
vn 0.0990 0.8751 -0.4736
vn 0.0286 0.8439 -0.5357
vn 0.0775 -0.1326 -0.9881
vn 0.2318 -0.1505 -0.9610
vn 0.0990 0.8751 -0.4736
vn 0.0775 -0.1326 -0.9881
vn 0.1848 0.8813 -0.4348
vn 0.0990 0.8751 -0.4736
vn 0.2318 -0.1505 -0.9610
vn 0.4488 -0.1472 -0.8814
vn 0.1848 0.8813 -0.4348
vn 0.2318 -0.1505 -0.9610
vn 0.1585 0.8232 -0.5451
vn 0.1848 0.8813 -0.4348
vn 0.4488 -0.1472 -0.8814
vn 0.2306 -0.1340 -0.9638
vn 0.1585 0.8232 -0.5451
vn 0.4488 -0.1472 -0.8814
vn -0.2978 0.7642 -0.5722
vn 0.1585 0.8232 -0.5451
vn 0.2306 -0.1340 -0.9638
vn -0.6077 -0.1215 -0.7848
vn -0.2978 0.7642 -0.5722
vn 0.2306 -0.1340 -0.9638
vn -0.5993 0.7977 0.0678
vn -0.2978 0.7642 -0.5722
vn -0.6077 -0.1215 -0.7848
vn -0.5993 0.7977 0.0678
vn 0.1585 0.8232 -0.5451
vn -0.2978 0.7642 -0.5722
vn -0.9908 -0.1196 0.0630
vn -0.5993 0.7977 0.0678
vn -0.6077 -0.1215 -0.7848
vn -0.7368 -0.1383 0.6618
vn -0.5993 0.7977 0.0678
vn -0.9908 -0.1196 0.0630
vn -0.7368 -0.1383 0.6618
vn -0.4076 0.8371 0.3650
vn -0.5993 0.7977 0.0678
vn -0.4076 0.8371 0.3650
vn 0.1585 0.8232 -0.5451
vn -0.5993 0.7977 0.0678
vn -0.4076 0.8371 0.3650
vn 0.1848 0.8813 -0.4348
vn 0.1585 0.8232 -0.5451
vn -0.5159 -0.1369 0.8456
vn -0.4076 0.8371 0.3650
vn -0.7368 -0.1383 0.6618
vn -0.5159 -0.1369 0.8456
vn -0.2676 0.8637 0.4271
vn -0.4076 0.8371 0.3650
vn -0.2676 0.8637 0.4271
vn 0.1848 0.8813 -0.4348
vn -0.4076 0.8371 0.3650
vn -0.2676 0.8637 0.4271
vn -0.1791 0.8532 0.4899
vn 0.1848 0.8813 -0.4348
vn -0.1791 0.8532 0.4899
vn 0.0990 0.8751 -0.4736
vn 0.1848 0.8813 -0.4348
vn -0.1791 0.8532 0.4899
vn -0.0986 0.8297 0.5494
vn 0.0990 0.8751 -0.4736
vn -0.0986 0.8297 0.5494
vn 0.0286 0.8439 -0.5357
vn 0.0990 0.8751 -0.4736
vn -0.0986 0.8297 0.5494
vn -0.1207 0.8402 0.5286
vn 0.0286 0.8439 -0.5357
vn -0.1207 0.8402 0.5286
vn 0.0443 0.8237 -0.5653
vn 0.0286 0.8439 -0.5357
vn -0.1207 0.8402 0.5286
vn -0.1779 0.8323 0.5250
vn 0.0443 0.8237 -0.5653
vn -0.1779 0.8323 0.5250
vn 0.1330 0.8123 -0.5679
vn 0.0443 0.8237 -0.5653
vn -0.1779 0.8323 0.5250
vn -0.2269 0.8234 0.5201
vn 0.1330 0.8123 -0.5679
vn -0.2269 0.8234 0.5201
vn 0.1769 0.7887 -0.5888
vn 0.1330 0.8123 -0.5679
vn -0.2269 0.8234 0.5201
vn -0.3234 0.9374 0.1290
vn 0.1769 0.7887 -0.5888
vn -0.3234 0.9374 0.1290
vn -0.1518 0.9449 -0.2901
vn 0.1769 0.7887 -0.5888
vn -0.3234 0.9374 0.1290
vn 0.0012 0.9998 -0.0186
vn -0.1518 0.9449 -0.2901
vn -0.3234 0.9374 0.1290
vn 0.0036 0.9415 0.3371
vn 0.0012 0.9998 -0.0186
vn 0.0036 0.9415 0.3371
vn 0.2926 0.9503 0.1061
vn 0.0012 0.9998 -0.0186
vn 0.0036 0.9415 0.3371
vn 0.4934 0.7950 -0.3528
vn 0.2926 0.9503 0.1061
vn 0.4934 0.7950 -0.3528
vn 0.8615 -0.4164 0.2907
vn 0.2926 0.9503 0.1061
vn 0.8615 -0.4164 0.2907
vn 0.2164 0.8053 0.5519
vn 0.2926 0.9503 0.1061
vn 0.2835 -0.2044 0.9369
vn 0.2164 0.8053 0.5519
vn 0.8615 -0.4164 0.2907
vn 0.2835 -0.2044 0.9369
vn 0.3314 0.7806 0.5299
vn 0.2164 0.8053 0.5519
vn 0.5131 -0.1778 0.8397
vn 0.3314 0.7806 0.5299
vn 0.2835 -0.2044 0.9369
vn 0.5131 -0.1778 0.8397
vn 0.4187 0.8185 0.3934
vn 0.3314 0.7806 0.5299
vn 0.6980 -0.1999 0.6877
vn 0.4187 0.8185 0.3934
vn 0.5131 -0.1778 0.8397
vn 0.6728 -0.2024 0.7116
vn 0.4187 0.8185 0.3934
vn 0.6980 -0.1999 0.6877
vn 0.6728 -0.2024 0.7116
vn 0.3855 0.8366 0.3891
vn 0.4187 0.8185 0.3934
vn 0.6728 -0.2024 0.7116
vn 0.3220 0.8299 0.4556
vn 0.3855 0.8366 0.3891
vn 0.5498 -0.2169 0.8066
vn 0.3220 0.8299 0.4556
vn 0.6728 -0.2024 0.7116
vn 0.5498 -0.2169 0.8066
vn 0.4589 0.8402 0.2890
vn 0.3220 0.8299 0.4556
vn 0.4589 0.8402 0.2890
vn 0.5498 -0.2169 0.8066
vn 0.7539 -0.1113 0.6474
vn 0.4934 0.7950 -0.3528
vn 0.7380 -0.2005 -0.6444
vn 0.8615 -0.4164 0.2907
vn 0.7380 -0.2005 -0.6444
vn 0.4934 0.7950 -0.3528
vn 0.4861 0.7870 -0.3799
vn 0.4861 0.7870 -0.3799
vn 0.7674 -0.1900 -0.6124
vn 0.7380 -0.2005 -0.6444
vn 0.4861 0.7870 -0.3799
vn 0.4619 0.8227 -0.3313
vn 0.7674 -0.1900 -0.6124
vn 0.4619 0.8227 -0.3313
vn 0.7753 -0.2121 -0.5950
vn 0.7674 -0.1900 -0.6124
vn 0.4619 0.8227 -0.3313
vn 0.4754 0.8076 -0.3490
vn 0.7753 -0.2121 -0.5950
vn 0.4754 0.8076 -0.3490
vn 0.7873 -0.2260 -0.5737
vn 0.7753 -0.2121 -0.5950
vn 0.4754 0.8076 -0.3490
vn 0.3647 0.8927 -0.2647
vn 0.7873 -0.2260 -0.5737
vn 0.3647 0.8927 -0.2647
vn 0.7562 -0.0063 -0.6544
vn 0.7873 -0.2260 -0.5737
vn 0.3647 0.8927 -0.2647
vn 0.5110 0.8170 -0.2671
vn 0.7562 -0.0063 -0.6544
vn 0.5110 0.8170 -0.2671
vn 0.8424 -0.0484 -0.5367
vn 0.7562 -0.0063 -0.6544
vn 0.5110 0.8170 -0.2671
vn 0.4967 0.8666 0.0483
vn 0.8424 -0.0484 -0.5367
vn 0.4967 0.8666 0.0483
vn 0.9723 -0.0319 0.2316
vn 0.8424 -0.0484 -0.5367
vn 0.4967 0.8666 0.0483
vn 0.1644 0.0136 0.9863
vn 0.9723 -0.0319 0.2316
vn 0.4967 0.8666 0.0483
vn 0.0866 0.8575 0.5072
vn 0.1644 0.0136 0.9863
vn 0.0866 0.8575 0.5072
vn -0.5557 -0.0446 0.8302
vn 0.1644 0.0136 0.9863
vn 0.0866 0.8575 0.5072
vn -0.1595 0.8971 0.4120
vn -0.5557 -0.0446 0.8302
vn 0.4967 0.8666 0.0483
vn -0.1595 0.8971 0.4120
vn 0.0866 0.8575 0.5072
vn 0.5110 0.8170 -0.2671
vn -0.1595 0.8971 0.4120
vn 0.4967 0.8666 0.0483
vn 0.3647 0.8927 -0.2647
vn -0.1595 0.8971 0.4120
vn 0.5110 0.8170 -0.2671
vn -0.3298 0.8537 0.4031
vn -0.1595 0.8971 0.4120
vn 0.3647 0.8927 -0.2647
vn -0.3298 0.8537 0.4031
vn -0.6597 -0.0106 0.7514
vn -0.1595 0.8971 0.4120
vn -0.1595 0.8971 0.4120
vn -0.6597 -0.0106 0.7514
vn -0.5557 -0.0446 0.8302
vn -0.7012 -0.2053 0.6828
vn -0.6597 -0.0106 0.7514
vn -0.3298 0.8537 0.4031
vn -0.3298 0.8537 0.4031
vn -0.3902 0.8301 0.3983
vn -0.7012 -0.2053 0.6828
vn 0.3647 0.8927 -0.2647
vn -0.3902 0.8301 0.3983
vn -0.3298 0.8537 0.4031
vn 0.4754 0.8076 -0.3490
vn -0.3902 0.8301 0.3983
vn 0.3647 0.8927 -0.2647
vn -0.4206 0.8166 0.3954
vn -0.3902 0.8301 0.3983
vn 0.4754 0.8076 -0.3490
vn 0.4619 0.8227 -0.3313
vn -0.4206 0.8166 0.3954
vn 0.4754 0.8076 -0.3490
vn -0.3554 0.8740 0.3314
vn -0.4206 0.8166 0.3954
vn 0.4619 0.8227 -0.3313
vn 0.4861 0.7870 -0.3799
vn -0.3554 0.8740 0.3314
vn 0.4619 0.8227 -0.3313
vn 0.4934 0.7950 -0.3528
vn -0.3248 0.8329 0.4480
vn -0.3554 0.8740 0.3314
vn -0.3554 0.8740 0.3314
vn 0.4861 0.7870 -0.3799
vn 0.4934 0.7950 -0.3528
vn 0.0036 0.9415 0.3371
vn -0.3248 0.8329 0.4480
vn 0.4934 0.7950 -0.3528
vn 0.0036 0.9415 0.3371
vn 0.0567 -0.3725 0.9263
vn -0.3248 0.8329 0.4480
vn 0.0567 -0.3725 0.9263
vn -0.6128 -0.2288 0.7564
vn -0.3248 0.8329 0.4480
vn -0.3554 0.8740 0.3314
vn -0.3248 0.8329 0.4480
vn -0.6128 -0.2288 0.7564
vn -0.6128 -0.2288 0.7564
vn -0.7410 -0.2234 0.6332
vn -0.3554 0.8740 0.3314
vn -0.7410 -0.2234 0.6332
vn -0.4206 0.8166 0.3954
vn -0.3554 0.8740 0.3314
vn -0.7178 -0.1896 0.6699
vn -0.4206 0.8166 0.3954
vn -0.7410 -0.2234 0.6332
vn -0.7178 -0.1896 0.6699
vn -0.3902 0.8301 0.3983
vn -0.4206 0.8166 0.3954
vn -0.3902 0.8301 0.3983
vn -0.7178 -0.1896 0.6699
vn -0.7012 -0.2053 0.6828
vn 0.0036 0.9415 0.3371
vn 0.3704 0.8129 0.4495
vn 0.0567 -0.3725 0.9263
vn 0.3704 0.8129 0.4495
vn 0.6911 -0.1878 0.6980
vn 0.0567 -0.3725 0.9263
vn 0.3704 0.8129 0.4495
vn 0.4647 0.7802 0.4188
vn 0.6911 -0.1878 0.6980
vn 0.4647 0.7802 0.4188
vn 0.7513 -0.1528 0.6421
vn 0.6911 -0.1878 0.6980
vn 0.4647 0.7802 0.4188
vn 0.4489 0.7862 0.4248
vn 0.7513 -0.1528 0.6421
vn 0.4489 0.7862 0.4248
vn 0.7270 -0.1528 0.6694
vn 0.7513 -0.1528 0.6421
vn 0.4489 0.7862 0.4248
vn 0.4632 0.8006 0.3802
vn 0.7270 -0.1528 0.6694
vn 0.4632 0.8006 0.3802
vn 0.7809 -0.1550 0.6052
vn 0.7270 -0.1528 0.6694
vn 0.4632 0.8006 0.3802
vn 0.5165 0.7816 0.3498
vn 0.7809 -0.1550 0.6052
vn 0.5165 0.7816 0.3498
vn 0.8231 -0.1559 0.5461
vn 0.7809 -0.1550 0.6052
vn 0.5165 0.7816 0.3498
vn 0.3936 0.8135 0.4281
vn 0.8231 -0.1559 0.5461
vn 0.3936 0.8135 0.4281
vn 0.6113 -0.1284 0.7809
vn 0.8231 -0.1559 0.5461
vn 0.3936 0.8135 0.4281
vn 0.0261 0.8017 0.5972
vn 0.6113 -0.1284 0.7809
vn 0.0261 0.8017 0.5972
vn -0.2508 -0.0991 0.9630
vn 0.6113 -0.1284 0.7809
vn -0.5267 0.8325 0.1722
vn -0.2508 -0.0991 0.9630
vn 0.0261 0.8017 0.5972
vn 0.3936 0.8135 0.4281
vn -0.5267 0.8325 0.1722
vn 0.0261 0.8017 0.5972
vn -0.5267 0.8325 0.1722
vn -0.9264 -0.0961 0.3641
vn -0.2508 -0.0991 0.9630
vn -0.5267 0.8325 0.1722
vn -0.9608 -0.1395 -0.2394
vn -0.9264 -0.0961 0.3641
vn -0.5267 0.8325 0.1722
vn -0.5454 0.8265 -0.1394
vn -0.9608 -0.1395 -0.2394
vn 0.3936 0.8135 0.4281
vn -0.5454 0.8265 -0.1394
vn -0.5267 0.8325 0.1722
vn 0.5165 0.7816 0.3498
vn -0.5454 0.8265 -0.1394
vn 0.3936 0.8135 0.4281
vn -0.5454 0.8265 -0.1394
vn -0.8881 -0.1705 -0.4268
vn -0.9608 -0.1395 -0.2394
vn -0.5454 0.8265 -0.1394
vn -0.5572 0.7872 -0.2645
vn -0.8881 -0.1705 -0.4268
vn 0.5165 0.7816 0.3498
vn -0.5572 0.7872 -0.2645
vn -0.5454 0.8265 -0.1394
vn -0.5406 0.7660 -0.3479
vn -0.5572 0.7872 -0.2645
vn 0.5165 0.7816 0.3498
vn 0.4632 0.8006 0.3802
vn -0.5406 0.7660 -0.3479
vn 0.5165 0.7816 0.3498
vn -0.4708 0.7913 -0.3901
vn -0.5406 0.7660 -0.3479
vn 0.4632 0.8006 0.3802
vn 0.4489 0.7862 0.4248
vn -0.4708 0.7913 -0.3901
vn 0.4632 0.8006 0.3802
vn 0.4647 0.7802 0.4188
vn -0.4708 0.7913 -0.3901
vn 0.4489 0.7862 0.4248
vn -0.4810 0.7924 -0.3752
vn -0.4708 0.7913 -0.3901
vn 0.4647 0.7802 0.4188
vn 0.3704 0.8129 0.4495
vn -0.4810 0.7924 -0.3752
vn 0.4647 0.7802 0.4188
vn -0.5313 0.8228 -0.2017
vn -0.4810 0.7924 -0.3752
vn 0.3704 0.8129 0.4495
vn 0.0036 0.9415 0.3371
vn -0.5313 0.8228 -0.2017
vn 0.3704 0.8129 0.4495
vn -0.3234 0.9374 0.1290
vn -0.5313 0.8228 -0.2017
vn 0.0036 0.9415 0.3371
vn -0.8047 -0.4062 0.4330
vn -0.5313 0.8228 -0.2017
vn -0.3234 0.9374 0.1290
vn -0.2269 0.8234 0.5201
vn -0.8047 -0.4062 0.4330
vn -0.3234 0.9374 0.1290
vn -0.3288 -0.0953 0.9396
vn -0.8047 -0.4062 0.4330
vn -0.2269 0.8234 0.5201
vn -0.1779 0.8323 0.5250
vn -0.3288 -0.0953 0.9396
vn -0.2269 0.8234 0.5201
vn -0.1779 0.8323 0.5250
vn -0.2650 -0.1312 0.9553
vn -0.3288 -0.0953 0.9396
vn -0.1207 0.8402 0.5286
vn -0.2650 -0.1312 0.9553
vn -0.1779 0.8323 0.5250
vn -0.1207 0.8402 0.5286
vn -0.1831 -0.1270 0.9748
vn -0.2650 -0.1312 0.9553
vn -0.0986 0.8297 0.5494
vn -0.1831 -0.1270 0.9748
vn -0.1207 0.8402 0.5286
vn -0.0986 0.8297 0.5494
vn -0.1667 -0.1291 0.9775
vn -0.1831 -0.1270 0.9748
vn -0.1791 0.8532 0.4899
vn -0.1667 -0.1291 0.9775
vn -0.0986 0.8297 0.5494
vn -0.1791 0.8532 0.4899
vn -0.3149 -0.1402 0.9387
vn -0.1667 -0.1291 0.9775
vn -0.2676 0.8637 0.4271
vn -0.3149 -0.1402 0.9387
vn -0.1791 0.8532 0.4899
vn -0.3149 -0.1402 0.9387
vn -0.2676 0.8637 0.4271
vn -0.5159 -0.1369 0.8456
vn -0.8861 -0.2296 -0.4025
vn -0.5313 0.8228 -0.2017
vn -0.8047 -0.4062 0.4330
vn -0.8861 -0.2296 -0.4025
vn -0.4810 0.7924 -0.3752
vn -0.5313 0.8228 -0.2017
vn -0.7513 -0.1745 -0.6365
vn -0.4810 0.7924 -0.3752
vn -0.8861 -0.2296 -0.4025
vn -0.7513 -0.1745 -0.6365
vn -0.4708 0.7913 -0.3901
vn -0.4810 0.7924 -0.3752
vn -0.7534 -0.1657 -0.6363
vn -0.4708 0.7913 -0.3901
vn -0.7513 -0.1745 -0.6365
vn -0.7534 -0.1657 -0.6363
vn -0.5406 0.7660 -0.3479
vn -0.4708 0.7913 -0.3901
vn -0.8293 -0.1554 -0.5368
vn -0.5406 0.7660 -0.3479
vn -0.7534 -0.1657 -0.6363
vn -0.8293 -0.1554 -0.5368
vn -0.5572 0.7872 -0.2645
vn -0.5406 0.7660 -0.3479
vn -0.5572 0.7872 -0.2645
vn -0.8293 -0.1554 -0.5368
vn -0.8881 -0.1705 -0.4268
vn -0.4732 0.8770 -0.0837
vn -0.9766 -0.1199 -0.1784
vn -0.9619 -0.1451 0.2318
vn -0.2989 0.8732 -0.3849
vn -0.9766 -0.1199 -0.1784
vn -0.4732 0.8770 -0.0837
vn 0.3608 0.8707 -0.3341
vn -0.2989 0.8732 -0.3849
vn -0.4732 0.8770 -0.0837
vn 0.0811 0.8688 -0.4885
vn -0.2989 0.8732 -0.3849
vn 0.3608 0.8707 -0.3341
vn -0.6102 -0.0987 -0.7861
vn -0.2989 0.8732 -0.3849
vn 0.0811 0.8688 -0.4885
vn -0.9766 -0.1199 -0.1784
vn -0.2989 0.8732 -0.3849
vn -0.6102 -0.0987 -0.7861
vn 0.0580 -0.9504 -0.3056
vn -0.6102 -0.0987 -0.7861
vn 0.2154 -0.0998 -0.9714
vn 0.7730 -0.1262 -0.6217
vn 0.0580 -0.9504 -0.3056
vn 0.2154 -0.0998 -0.9714
vn 0.2529 -0.9384 -0.2353
vn 0.0580 -0.9504 -0.3056
vn 0.7730 -0.1262 -0.6217
vn 0.9330 -0.1380 -0.3323
vn 0.2529 -0.9384 -0.2353
vn 0.7730 -0.1262 -0.6217
vn 0.3822 -0.9112 -0.1538
vn 0.2529 -0.9384 -0.2353
vn 0.9330 -0.1380 -0.3323
vn 0.4074 -0.9068 -0.1079
vn 0.3822 -0.9112 -0.1538
vn 0.9330 -0.1380 -0.3323
vn 0.9666 -0.1345 -0.2182
vn 0.4074 -0.9068 -0.1079
vn 0.9330 -0.1380 -0.3323
vn 0.9905 -0.1346 -0.0281
vn 0.4074 -0.9068 -0.1079
vn 0.9666 -0.1345 -0.2182
vn 0.4194 -0.9075 -0.0231
vn 0.4074 -0.9068 -0.1079
vn 0.9905 -0.1346 -0.0281
vn 0.9811 -0.1164 0.1545
vn 0.4194 -0.9075 -0.0231
vn 0.9905 -0.1346 -0.0281
vn 0.4383 -0.8985 0.0233
vn 0.4194 -0.9075 -0.0231
vn 0.9811 -0.1164 0.1545
vn 0.9580 -0.2561 -0.1290
vn 0.4383 -0.8985 0.0233
vn 0.9811 -0.1164 0.1545
vn 0.3269 -0.9420 -0.0766
vn 0.4383 -0.8985 0.0233
vn 0.9580 -0.2561 -0.1290
vn 0.5312 -0.3238 -0.7829
vn 0.3269 -0.9420 -0.0766
vn 0.9580 -0.2561 -0.1290
vn 0.0938 -0.9839 -0.1519
vn 0.3269 -0.9420 -0.0766
vn 0.5312 -0.3238 -0.7829
vn -0.0754 -0.9234 -0.3765
vn 0.0938 -0.9839 -0.1519
vn 0.5312 -0.3238 -0.7829
vn -0.1153 -0.2050 -0.9719
vn -0.0754 -0.9234 -0.3765
vn 0.5312 -0.3238 -0.7829
vn -0.2041 -0.9195 -0.3359
vn -0.0754 -0.9234 -0.3765
vn -0.1153 -0.2050 -0.9719
vn -0.5258 -0.1888 -0.8294
vn -0.2041 -0.9195 -0.3359
vn -0.1153 -0.2050 -0.9719
vn -0.2911 -0.9059 -0.3075
vn -0.2041 -0.9195 -0.3359
vn -0.5258 -0.1888 -0.8294
vn -0.6922 -0.1875 -0.6970
vn -0.2911 -0.9059 -0.3075
vn -0.5258 -0.1888 -0.8294
vn -0.2782 -0.8889 -0.3640
vn -0.2911 -0.9059 -0.3075
vn -0.6922 -0.1875 -0.6970
vn -0.6136 -0.1831 -0.7681
vn -0.2782 -0.8889 -0.3640
vn -0.6922 -0.1875 -0.6970
vn -0.4416 -0.2234 -0.8690
vn -0.2782 -0.8889 -0.3640
vn -0.6136 -0.1831 -0.7681
vn -0.1403 -0.9108 -0.3882
vn -0.2782 -0.8889 -0.3640
vn -0.4416 -0.2234 -0.8690
vn 0.0577 -0.8703 -0.4891
vn -0.1403 -0.9108 -0.3882
vn -0.4416 -0.2234 -0.8690
vn -0.1282 -0.1122 -0.9854
vn 0.0577 -0.8703 -0.4891
vn -0.4416 -0.2234 -0.8690
vn 0.2012 -0.9143 -0.3515
vn 0.0577 -0.8703 -0.4891
vn -0.1282 -0.1122 -0.9854
vn 0.6283 -0.1068 -0.7706
vn 0.2012 -0.9143 -0.3515
vn -0.1282 -0.1122 -0.9854
vn 0.3611 -0.9316 -0.0409
vn 0.2012 -0.9143 -0.3515
vn 0.6283 -0.1068 -0.7706
vn 0.9918 -0.0976 0.0828
vn 0.3611 -0.9316 -0.0409
vn 0.6283 -0.1068 -0.7706
vn 0.7539 -0.1113 0.6474
vn 0.3611 -0.9316 -0.0409
vn 0.9918 -0.0976 0.0828
vn 0.3802 -0.9066 0.1832
vn 0.3611 -0.9316 -0.0409
vn 0.7539 -0.1113 0.6474
vn 0.3802 -0.9066 0.1832
vn 0.2012 -0.9143 -0.3515
vn 0.3611 -0.9316 -0.0409
vn 0.3802 -0.9066 0.1832
vn 0.0577 -0.8703 -0.4891
vn 0.2012 -0.9143 -0.3515
vn 0.3802 -0.9066 0.1832
vn 0.2666 -0.9207 0.2850
vn 0.0577 -0.8703 -0.4891
vn 0.2666 -0.9207 0.2850
vn -0.1403 -0.9108 -0.3882
vn 0.0577 -0.8703 -0.4891
vn 0.2666 -0.9207 0.2850
vn 0.2679 -0.9234 0.2750
vn -0.1403 -0.9108 -0.3882
vn 0.2679 -0.9234 0.2750
vn -0.2782 -0.8889 -0.3640
vn -0.1403 -0.9108 -0.3882
vn 0.2679 -0.9234 0.2750
vn -0.2911 -0.9059 -0.3075
vn -0.2782 -0.8889 -0.3640
vn 0.2679 -0.9234 0.2750
vn 0.2806 -0.9221 0.2664
vn -0.2911 -0.9059 -0.3075
vn 0.2806 -0.9221 0.2664
vn -0.2041 -0.9195 -0.3359
vn -0.2911 -0.9059 -0.3075
vn 0.2806 -0.9221 0.2664
vn 0.2226 -0.8906 0.3966
vn -0.2041 -0.9195 -0.3359
vn 0.2226 -0.8906 0.3966
vn 0.1050 -0.9094 0.4025
vn -0.2041 -0.9195 -0.3359
vn 0.1050 -0.9094 0.4025
vn -0.0754 -0.9234 -0.3765
vn -0.2041 -0.9195 -0.3359
vn 0.1050 -0.9094 0.4025
vn 0.1173 -0.9920 0.0469
vn -0.0754 -0.9234 -0.3765
vn 0.1173 -0.9920 0.0469
vn 0.0938 -0.9839 -0.1519
vn -0.0754 -0.9234 -0.3765
vn 0.1173 -0.9920 0.0469
vn 0.0003 -1.0000 -0.0040
vn 0.0938 -0.9839 -0.1519
vn 0.0003 -1.0000 -0.0040
vn -0.1131 -0.9864 -0.1195
vn 0.0938 -0.9839 -0.1519
vn -0.1131 -0.9864 -0.1195
vn 0.3269 -0.9420 -0.0766
vn 0.0938 -0.9839 -0.1519
vn -0.1131 -0.9864 -0.1195
vn -0.4117 -0.9020 -0.1296
vn 0.3269 -0.9420 -0.0766
vn -0.4117 -0.9020 -0.1296
vn -0.3475 -0.9292 -0.1258
vn 0.3269 -0.9420 -0.0766
vn -0.3475 -0.9292 -0.1258
vn 0.4383 -0.8985 0.0233
vn 0.3269 -0.9420 -0.0766
vn -0.3475 -0.9292 -0.1258
vn -0.3601 -0.9325 -0.0284
vn 0.4383 -0.8985 0.0233
vn -0.3601 -0.9325 -0.0284
vn 0.4194 -0.9075 -0.0231
vn 0.4383 -0.8985 0.0233
vn -0.3601 -0.9325 -0.0284
vn 0.4074 -0.9068 -0.1079
vn 0.4194 -0.9075 -0.0231
vn -0.3601 -0.9325 -0.0284
vn -0.3770 -0.9246 0.0553
vn 0.4074 -0.9068 -0.1079
vn -0.3770 -0.9246 0.0553
vn 0.3822 -0.9112 -0.1538
vn 0.4074 -0.9068 -0.1079
vn -0.3770 -0.9246 0.0553
vn -0.3679 -0.9271 0.0719
vn 0.3822 -0.9112 -0.1538
vn -0.3679 -0.9271 0.0719
vn 0.2529 -0.9384 -0.2353
vn 0.3822 -0.9112 -0.1538
vn -0.3679 -0.9271 0.0719
vn -0.3268 -0.9434 -0.0559
vn 0.2529 -0.9384 -0.2353
vn -0.3268 -0.9434 -0.0559
vn -0.3679 -0.9271 0.0719
vn -0.9619 -0.1451 0.2318
vn -0.3679 -0.9271 0.0719
vn -0.9719 -0.1427 0.1871
vn -0.9619 -0.1451 0.2318
vn -0.3770 -0.9246 0.0553
vn -0.9719 -0.1427 0.1871
vn -0.3679 -0.9271 0.0719
vn -0.3770 -0.9246 0.0553
vn -0.9885 -0.1486 -0.0270
vn -0.9719 -0.1427 0.1871
vn -0.3601 -0.9325 -0.0284
vn -0.9885 -0.1486 -0.0270
vn -0.3770 -0.9246 0.0553
vn -0.3601 -0.9325 -0.0284
vn -0.9735 -0.1271 -0.1903
vn -0.9885 -0.1486 -0.0270
vn -0.3475 -0.9292 -0.1258
vn -0.9735 -0.1271 -0.1903
vn -0.3601 -0.9325 -0.0284
vn -0.3475 -0.9292 -0.1258
vn -0.9391 -0.2235 -0.2610
vn -0.9735 -0.1271 -0.1903
vn -0.4117 -0.9020 -0.1296
vn -0.9391 -0.2235 -0.2610
vn -0.3475 -0.9292 -0.1258
vn -0.4117 -0.9020 -0.1296
vn -0.4492 -0.4266 -0.7850
vn -0.9391 -0.2235 -0.2610
vn -0.1131 -0.9864 -0.1195
vn -0.4492 -0.4266 -0.7850
vn -0.4117 -0.9020 -0.1296
vn -0.1131 -0.9864 -0.1195
vn 0.0997 -0.8579 -0.5041
vn -0.4492 -0.4266 -0.7850
vn 0.0997 -0.8579 -0.5041
vn 0.3417 -0.0830 -0.9361
vn -0.4492 -0.4266 -0.7850
vn 0.0997 -0.8579 -0.5041
vn 0.1140 -0.8857 -0.4501
vn 0.3417 -0.0830 -0.9361
vn 0.1140 -0.8857 -0.4501
vn 0.2633 -0.1264 -0.9564
vn 0.3417 -0.0830 -0.9361
vn 0.1140 -0.8857 -0.4501
vn 0.0343 -0.8919 -0.4509
vn 0.2633 -0.1264 -0.9564
vn 0.0343 -0.8919 -0.4509
vn 0.0913 -0.1272 -0.9877
vn 0.2633 -0.1264 -0.9564
vn 0.0343 -0.8919 -0.4509
vn 0.0222 -0.9058 -0.4231
vn 0.0913 -0.1272 -0.9877
vn 0.0222 -0.9058 -0.4231
vn 0.0775 -0.1326 -0.9881
vn 0.0913 -0.1272 -0.9877
vn 0.0222 -0.9058 -0.4231
vn 0.0585 -0.9320 -0.3578
vn 0.0775 -0.1326 -0.9881
vn 0.0585 -0.9320 -0.3578
vn 0.2318 -0.1505 -0.9610
vn 0.0775 -0.1326 -0.9881
vn 0.0585 -0.9320 -0.3578
vn 0.1135 -0.9393 -0.3238
vn 0.2318 -0.1505 -0.9610
vn 0.1135 -0.9393 -0.3238
vn 0.4488 -0.1472 -0.8814
vn 0.2318 -0.1505 -0.9610
vn 0.1135 -0.9393 -0.3238
vn 0.1330 -0.8931 -0.4297
vn 0.4488 -0.1472 -0.8814
vn 0.1330 -0.8931 -0.4297
vn 0.2306 -0.1340 -0.9638
vn 0.4488 -0.1472 -0.8814
vn 0.1330 -0.8931 -0.4297
vn -0.2140 -0.8637 -0.4563
vn 0.2306 -0.1340 -0.9638
vn -0.2140 -0.8637 -0.4563
vn -0.6077 -0.1215 -0.7848
vn 0.2306 -0.1340 -0.9638
vn -0.4373 -0.8977 0.0535
vn -0.6077 -0.1215 -0.7848
vn -0.2140 -0.8637 -0.4563
vn 0.1330 -0.8931 -0.4297
vn -0.4373 -0.8977 0.0535
vn -0.2140 -0.8637 -0.4563
vn -0.4373 -0.8977 0.0535
vn -0.9908 -0.1196 0.0630
vn -0.6077 -0.1215 -0.7848
vn -0.4373 -0.8977 0.0535
vn -0.7368 -0.1383 0.6618
vn -0.9908 -0.1196 0.0630
vn -0.4373 -0.8977 0.0535
vn -0.3133 -0.9071 0.2810
vn -0.7368 -0.1383 0.6618
vn 0.1330 -0.8931 -0.4297
vn -0.3133 -0.9071 0.2810
vn -0.4373 -0.8977 0.0535
vn 0.1135 -0.9393 -0.3238
vn -0.3133 -0.9071 0.2810
vn 0.1330 -0.8931 -0.4297
vn -0.3133 -0.9071 0.2810
vn -0.5159 -0.1369 0.8456
vn -0.7368 -0.1383 0.6618
vn -0.3133 -0.9071 0.2810
vn -0.2103 -0.9303 0.3005
vn -0.5159 -0.1369 0.8456
vn 0.1135 -0.9393 -0.3238
vn -0.2103 -0.9303 0.3005
vn -0.3133 -0.9071 0.2810
vn -0.1503 -0.9211 0.3591
vn -0.2103 -0.9303 0.3005
vn 0.1135 -0.9393 -0.3238
vn 0.0585 -0.9320 -0.3578
vn -0.1503 -0.9211 0.3591
vn 0.1135 -0.9393 -0.3238
vn -0.0769 -0.8963 0.4368
vn -0.1503 -0.9211 0.3591
vn 0.0585 -0.9320 -0.3578
vn 0.0222 -0.9058 -0.4231
vn -0.0769 -0.8963 0.4368
vn 0.0585 -0.9320 -0.3578
vn -0.1000 -0.9003 0.4237
vn -0.0769 -0.8963 0.4368
vn 0.0222 -0.9058 -0.4231
vn 0.0343 -0.8919 -0.4509
vn -0.1000 -0.9003 0.4237
vn 0.0222 -0.9058 -0.4231
vn -0.1342 -0.8997 0.4154
vn -0.1000 -0.9003 0.4237
vn 0.0343 -0.8919 -0.4509
vn 0.1140 -0.8857 -0.4501
vn -0.1342 -0.8997 0.4154
vn 0.0343 -0.8919 -0.4509
vn -0.2254 -0.8966 0.3813
vn -0.1342 -0.8997 0.4154
vn 0.1140 -0.8857 -0.4501
vn 0.0997 -0.8579 -0.5041
vn -0.2254 -0.8966 0.3813
vn 0.1140 -0.8857 -0.4501
vn -0.1725 -0.9848 0.0184
vn -0.2254 -0.8966 0.3813
vn 0.0997 -0.8579 -0.5041
vn -0.1131 -0.9864 -0.1195
vn -0.1725 -0.9848 0.0184
vn 0.0997 -0.8579 -0.5041
vn 0.0003 -1.0000 -0.0040
vn -0.1725 -0.9848 0.0184
vn -0.1131 -0.9864 -0.1195
vn -0.0012 -0.9909 0.1346
vn -0.1725 -0.9848 0.0184
vn 0.0003 -1.0000 -0.0040
vn 0.1173 -0.9920 0.0469
vn -0.0012 -0.9909 0.1346
vn 0.0003 -1.0000 -0.0040
vn 0.3196 -0.9066 -0.2758
vn -0.0012 -0.9909 0.1346
vn 0.1173 -0.9920 0.0469
vn 0.8615 -0.4164 0.2907
vn 0.3196 -0.9066 -0.2758
vn 0.1173 -0.9920 0.0469
vn 0.1050 -0.9094 0.4025
vn 0.8615 -0.4164 0.2907
vn 0.1173 -0.9920 0.0469
vn 0.1050 -0.9094 0.4025
vn 0.2835 -0.2044 0.9369
vn 0.8615 -0.4164 0.2907
vn 0.2226 -0.8906 0.3966
vn 0.2835 -0.2044 0.9369
vn 0.1050 -0.9094 0.4025
vn 0.2226 -0.8906 0.3966
vn 0.5131 -0.1778 0.8397
vn 0.2835 -0.2044 0.9369
vn 0.2806 -0.9221 0.2664
vn 0.5131 -0.1778 0.8397
vn 0.2226 -0.8906 0.3966
vn 0.2806 -0.9221 0.2664
vn 0.6980 -0.1999 0.6877
vn 0.5131 -0.1778 0.8397
vn 0.2806 -0.9221 0.2664
vn 0.6728 -0.2024 0.7116
vn 0.6980 -0.1999 0.6877
vn 0.2679 -0.9234 0.2750
vn 0.6728 -0.2024 0.7116
vn 0.2806 -0.9221 0.2664
vn 0.2666 -0.9207 0.2850
vn 0.6728 -0.2024 0.7116
vn 0.2679 -0.9234 0.2750
vn 0.2666 -0.9207 0.2850
vn 0.5498 -0.2169 0.8066
vn 0.6728 -0.2024 0.7116
vn 0.3802 -0.9066 0.1832
vn 0.5498 -0.2169 0.8066
vn 0.2666 -0.9207 0.2850
vn 0.3802 -0.9066 0.1832
vn 0.7539 -0.1113 0.6474
vn 0.5498 -0.2169 0.8066
vn 0.7380 -0.2005 -0.6444
vn 0.3196 -0.9066 -0.2758
vn 0.8615 -0.4164 0.2907
vn 0.3379 -0.8996 -0.2767
vn 0.3196 -0.9066 -0.2758
vn 0.7380 -0.2005 -0.6444
vn 0.7380 -0.2005 -0.6444
vn 0.7674 -0.1900 -0.6124
vn 0.3379 -0.8996 -0.2767
vn 0.3089 -0.9248 -0.2219
vn 0.3379 -0.8996 -0.2767
vn 0.7674 -0.1900 -0.6124
vn 0.7753 -0.2121 -0.5950
vn 0.3089 -0.9248 -0.2219
vn 0.7674 -0.1900 -0.6124
vn 0.3286 -0.9223 -0.2035
vn 0.3089 -0.9248 -0.2219
vn 0.7753 -0.2121 -0.5950
vn 0.7873 -0.2260 -0.5737
vn 0.3286 -0.9223 -0.2035
vn 0.7753 -0.2121 -0.5950
vn 0.3671 -0.9152 -0.1665
vn 0.3286 -0.9223 -0.2035
vn 0.7873 -0.2260 -0.5737
vn 0.7562 -0.0063 -0.6544
vn 0.3671 -0.9152 -0.1665
vn 0.7873 -0.2260 -0.5737
vn 0.4932 -0.8421 -0.2182
vn 0.3671 -0.9152 -0.1665
vn 0.7562 -0.0063 -0.6544
vn 0.8424 -0.0484 -0.5367
vn 0.4932 -0.8421 -0.2182
vn 0.7562 -0.0063 -0.6544
vn 0.4212 -0.9003 0.1100
vn 0.4932 -0.8421 -0.2182
vn 0.8424 -0.0484 -0.5367
vn 0.9723 -0.0319 0.2316
vn 0.4212 -0.9003 0.1100
vn 0.8424 -0.0484 -0.5367
vn 0.1644 0.0136 0.9863
vn 0.4212 -0.9003 0.1100
vn 0.9723 -0.0319 0.2316
vn 0.0638 -0.8534 0.5173
vn 0.4212 -0.9003 0.1100
vn 0.1644 0.0136 0.9863
vn -0.5557 -0.0446 0.8302
vn 0.0638 -0.8534 0.5173
vn 0.1644 0.0136 0.9863
vn -0.1484 -0.9202 0.3622
vn 0.0638 -0.8534 0.5173
vn -0.5557 -0.0446 0.8302
vn -0.1484 -0.9202 0.3622
vn 0.4212 -0.9003 0.1100
vn 0.0638 -0.8534 0.5173
vn -0.1484 -0.9202 0.3622
vn 0.4932 -0.8421 -0.2182
vn 0.4212 -0.9003 0.1100
vn -0.1484 -0.9202 0.3622
vn 0.3671 -0.9152 -0.1665
vn 0.4932 -0.8421 -0.2182
vn -0.1484 -0.9202 0.3622
vn -0.2615 -0.8642 0.4298
vn 0.3671 -0.9152 -0.1665
vn -0.6597 -0.0106 0.7514
vn -0.2615 -0.8642 0.4298
vn -0.1484 -0.9202 0.3622
vn -0.6597 -0.0106 0.7514
vn -0.1484 -0.9202 0.3622
vn -0.5557 -0.0446 0.8302
vn -0.7012 -0.2053 0.6828
vn -0.2615 -0.8642 0.4298
vn -0.6597 -0.0106 0.7514
vn -0.2557 -0.9168 0.3069
vn -0.2615 -0.8642 0.4298
vn -0.7012 -0.2053 0.6828
vn -0.2557 -0.9168 0.3069
vn 0.3671 -0.9152 -0.1665
vn -0.2615 -0.8642 0.4298
vn -0.2557 -0.9168 0.3069
vn 0.3286 -0.9223 -0.2035
vn 0.3671 -0.9152 -0.1665
vn -0.2557 -0.9168 0.3069
vn -0.3047 -0.9090 0.2843
vn 0.3286 -0.9223 -0.2035
vn -0.3047 -0.9090 0.2843
vn 0.3089 -0.9248 -0.2219
vn 0.3286 -0.9223 -0.2035
vn -0.3047 -0.9090 0.2843
vn -0.2195 -0.9555 0.1971
vn 0.3089 -0.9248 -0.2219
vn -0.2195 -0.9555 0.1971
vn 0.3379 -0.8996 -0.2767
vn 0.3089 -0.9248 -0.2219
vn 0.3196 -0.9066 -0.2758
vn 0.3379 -0.8996 -0.2767
vn -0.2195 -0.9555 0.1971
vn -0.2195 -0.9555 0.1971
vn -0.2272 -0.9377 0.2628
vn 0.3196 -0.9066 -0.2758
vn -0.2272 -0.9377 0.2628
vn -0.0012 -0.9909 0.1346
vn 0.3196 -0.9066 -0.2758
vn 0.0567 -0.3725 0.9263
vn -0.0012 -0.9909 0.1346
vn -0.2272 -0.9377 0.2628
vn -0.6128 -0.2288 0.7564
vn 0.0567 -0.3725 0.9263
vn -0.2272 -0.9377 0.2628
vn -0.2195 -0.9555 0.1971
vn -0.7410 -0.2234 0.6332
vn -0.6128 -0.2288 0.7564
vn -0.6128 -0.2288 0.7564
vn -0.2272 -0.9377 0.2628
vn -0.2195 -0.9555 0.1971
vn -0.3047 -0.9090 0.2843
vn -0.7410 -0.2234 0.6332
vn -0.2195 -0.9555 0.1971
vn -0.3047 -0.9090 0.2843
vn -0.7178 -0.1896 0.6699
vn -0.7410 -0.2234 0.6332
vn -0.2557 -0.9168 0.3069
vn -0.7178 -0.1896 0.6699
vn -0.3047 -0.9090 0.2843
vn -0.2557 -0.9168 0.3069
vn -0.7012 -0.2053 0.6828
vn -0.7178 -0.1896 0.6699
vn 0.2847 -0.9096 0.3026
vn -0.0012 -0.9909 0.1346
vn 0.0567 -0.3725 0.9263
vn 0.6911 -0.1878 0.6980
vn 0.2847 -0.9096 0.3026
vn 0.0567 -0.3725 0.9263
vn 0.3781 -0.8694 0.3182
vn 0.2847 -0.9096 0.3026
vn 0.6911 -0.1878 0.6980
vn 0.7513 -0.1528 0.6421
vn 0.3781 -0.8694 0.3182
vn 0.6911 -0.1878 0.6980
vn 0.3590 -0.8705 0.3366
vn 0.3781 -0.8694 0.3182
vn 0.7513 -0.1528 0.6421
vn 0.7270 -0.1528 0.6694
vn 0.3590 -0.8705 0.3366
vn 0.7513 -0.1528 0.6421
vn 0.3653 -0.8811 0.3003
vn 0.3590 -0.8705 0.3366
vn 0.7270 -0.1528 0.6694
vn 0.7809 -0.1550 0.6052
vn 0.3653 -0.8811 0.3003
vn 0.7270 -0.1528 0.6694
vn 0.4006 -0.8660 0.2991
vn 0.3653 -0.8811 0.3003
vn 0.7809 -0.1550 0.6052
vn 0.8231 -0.1559 0.5461
vn 0.4006 -0.8660 0.2991
vn 0.7809 -0.1550 0.6052
vn 0.3261 -0.8777 0.3511
vn 0.4006 -0.8660 0.2991
vn 0.8231 -0.1559 0.5461
vn 0.6113 -0.1284 0.7809
vn 0.3261 -0.8777 0.3511
vn 0.8231 -0.1559 0.5461
vn 0.0490 -0.9020 0.4289
vn 0.3261 -0.8777 0.3511
vn 0.6113 -0.1284 0.7809
vn -0.2508 -0.0991 0.9630
vn 0.0490 -0.9020 0.4289
vn 0.6113 -0.1284 0.7809
vn -0.3542 -0.9299 0.0996
vn 0.0490 -0.9020 0.4289
vn -0.2508 -0.0991 0.9630
vn -0.3542 -0.9299 0.0996
vn 0.3261 -0.8777 0.3511
vn 0.0490 -0.9020 0.4289
vn -0.9264 -0.0961 0.3641
vn -0.3542 -0.9299 0.0996
vn -0.2508 -0.0991 0.9630
vn -0.9608 -0.1395 -0.2394
vn -0.3542 -0.9299 0.0996
vn -0.9264 -0.0961 0.3641
vn -0.4299 -0.8982 -0.0920
vn -0.3542 -0.9299 0.0996
vn -0.9608 -0.1395 -0.2394
vn -0.4299 -0.8982 -0.0920
vn 0.3261 -0.8777 0.3511
vn -0.3542 -0.9299 0.0996
vn -0.4299 -0.8982 -0.0920
vn 0.4006 -0.8660 0.2991
vn 0.3261 -0.8777 0.3511
vn -0.8881 -0.1705 -0.4268
vn -0.4299 -0.8982 -0.0920
vn -0.9608 -0.1395 -0.2394
vn -0.4409 -0.8795 -0.1793
vn -0.4299 -0.8982 -0.0920
vn -0.8881 -0.1705 -0.4268
vn -0.4409 -0.8795 -0.1793
vn 0.4006 -0.8660 0.2991
vn -0.4299 -0.8982 -0.0920
vn -0.4409 -0.8795 -0.1793
vn -0.4267 -0.8607 -0.2777
vn 0.4006 -0.8660 0.2991
vn -0.4267 -0.8607 -0.2777
vn 0.3653 -0.8811 0.3003
vn 0.4006 -0.8660 0.2991
vn -0.4267 -0.8607 -0.2777
vn -0.3614 -0.8823 -0.3015
vn 0.3653 -0.8811 0.3003
vn -0.3614 -0.8823 -0.3015
vn 0.3590 -0.8705 0.3366
vn 0.3653 -0.8811 0.3003
vn -0.3614 -0.8823 -0.3015
vn 0.3781 -0.8694 0.3182
vn 0.3590 -0.8705 0.3366
vn -0.3614 -0.8823 -0.3015
vn -0.3426 -0.8937 -0.2896
vn 0.3781 -0.8694 0.3182
vn -0.3426 -0.8937 -0.2896
vn 0.2847 -0.9096 0.3026
vn 0.3781 -0.8694 0.3182
vn -0.3426 -0.8937 -0.2896
vn -0.3165 -0.9342 -0.1649
vn 0.2847 -0.9096 0.3026
vn -0.3165 -0.9342 -0.1649
vn -0.0012 -0.9909 0.1346
vn 0.2847 -0.9096 0.3026
vn -0.3165 -0.9342 -0.1649
vn -0.1725 -0.9848 0.0184
vn -0.0012 -0.9909 0.1346
vn -0.3165 -0.9342 -0.1649
vn -0.8047 -0.4062 0.4330
vn -0.1725 -0.9848 0.0184
vn -0.8047 -0.4062 0.4330
vn -0.2254 -0.8966 0.3813
vn -0.1725 -0.9848 0.0184
vn -0.3288 -0.0953 0.9396
vn -0.2254 -0.8966 0.3813
vn -0.8047 -0.4062 0.4330
vn -0.3288 -0.0953 0.9396
vn -0.1342 -0.8997 0.4154
vn -0.2254 -0.8966 0.3813
vn -0.2650 -0.1312 0.9553
vn -0.1342 -0.8997 0.4154
vn -0.3288 -0.0953 0.9396
vn -0.2650 -0.1312 0.9553
vn -0.1000 -0.9003 0.4237
vn -0.1342 -0.8997 0.4154
vn -0.1831 -0.1270 0.9748
vn -0.1000 -0.9003 0.4237
vn -0.2650 -0.1312 0.9553
vn -0.1831 -0.1270 0.9748
vn -0.0769 -0.8963 0.4368
vn -0.1000 -0.9003 0.4237
vn -0.1667 -0.1291 0.9775
vn -0.0769 -0.8963 0.4368
vn -0.1831 -0.1270 0.9748
vn -0.1667 -0.1291 0.9775
vn -0.1503 -0.9211 0.3591
vn -0.0769 -0.8963 0.4368
vn -0.3149 -0.1402 0.9387
vn -0.1503 -0.9211 0.3591
vn -0.1667 -0.1291 0.9775
vn -0.3149 -0.1402 0.9387
vn -0.2103 -0.9303 0.3005
vn -0.1503 -0.9211 0.3591
vn -0.2103 -0.9303 0.3005
vn -0.3149 -0.1402 0.9387
vn -0.5159 -0.1369 0.8456
vn -0.3165 -0.9342 -0.1649
vn -0.8861 -0.2296 -0.4025
vn -0.8047 -0.4062 0.4330
vn -0.3426 -0.8937 -0.2896
vn -0.8861 -0.2296 -0.4025
vn -0.3165 -0.9342 -0.1649
vn -0.3426 -0.8937 -0.2896
vn -0.7513 -0.1745 -0.6365
vn -0.8861 -0.2296 -0.4025
vn -0.3614 -0.8823 -0.3015
vn -0.7513 -0.1745 -0.6365
vn -0.3426 -0.8937 -0.2896
vn -0.3614 -0.8823 -0.3015
vn -0.7534 -0.1657 -0.6363
vn -0.7513 -0.1745 -0.6365
vn -0.4267 -0.8607 -0.2777
vn -0.7534 -0.1657 -0.6363
vn -0.3614 -0.8823 -0.3015
vn -0.4267 -0.8607 -0.2777
vn -0.8293 -0.1554 -0.5368
vn -0.7534 -0.1657 -0.6363
vn -0.4409 -0.8795 -0.1793
vn -0.8293 -0.1554 -0.5368
vn -0.4267 -0.8607 -0.2777
vn -0.4409 -0.8795 -0.1793
vn -0.8881 -0.1705 -0.4268
vn -0.8293 -0.1554 -0.5368
vn -0.9766 -0.1199 -0.1784
vn -0.3268 -0.9434 -0.0559
vn -0.9619 -0.1451 0.2318
vn -0.1902 -0.9529 -0.2361
vn -0.3268 -0.9434 -0.0559
vn -0.9766 -0.1199 -0.1784
vn -0.6102 -0.0987 -0.7861
vn -0.1902 -0.9529 -0.2361
vn -0.9766 -0.1199 -0.1784
vn 0.0580 -0.9504 -0.3056
vn -0.1902 -0.9529 -0.2361
vn -0.6102 -0.0987 -0.7861
vn 0.2529 -0.9384 -0.2353
vn -0.1902 -0.9529 -0.2361
vn 0.0580 -0.9504 -0.3056
vn -0.1902 -0.9529 -0.2361
vn 0.2529 -0.9384 -0.2353
vn -0.3268 -0.9434 -0.0559
# 1386 vertex normals

vt 0.1151 0.6479 0.0000
vt 0.1151 0.6453 0.0000
vt 0.1121 0.6472 0.0000
vt 0.1184 0.6460 0.0000
vt 0.1169 0.6438 0.0000
vt 0.1307 0.6177 0.0000
vt 0.1270 0.6167 0.0000
vt 0.1332 0.5964 0.0000
vt 0.1373 0.5974 0.0000
vt 0.1390 0.5872 0.0000
vt 0.1343 0.5862 0.0000
vt 0.1381 0.5691 0.0000
vt 0.1326 0.5679 0.0000
vt 0.1337 0.5527 0.0000
vt 0.1279 0.5493 0.0000
vt 0.1344 0.5498 0.0000
vt 0.1296 0.5432 0.0000
vt 0.1370 0.5437 0.0000
vt 0.1382 0.5503 0.0000
vt 0.1493 0.5486 0.0000
vt 0.1481 0.5547 0.0000
vt 0.1624 0.5610 0.0000
vt 0.1603 0.5662 0.0000
vt 0.1748 0.5742 0.0000
vt 0.1725 0.5784 0.0000
vt 0.1949 0.5908 0.0000
vt 0.1963 0.5869 0.0000
vt 0.2157 0.5996 0.0000
vt 0.2156 0.5964 0.0000
vt 0.2184 0.5962 0.0000
vt 0.2207 0.5977 0.0000
vt 0.2191 0.5947 0.0000
vt 0.2220 0.5950 0.0000
vt 0.2211 0.5913 0.0000
vt 0.2180 0.5925 0.0000
vt 0.1998 0.5828 0.0000
vt 0.1796 0.5681 0.0000
vt 0.1676 0.5542 0.0000
vt 0.1537 0.5422 0.0000
vt 0.1409 0.5381 0.0000
vt 0.1306 0.5354 0.0000
vt 0.1231 0.5381 0.0000
vt 0.1176 0.5435 0.0000
vt 0.1185 0.5493 0.0000
vt 0.1234 0.5684 0.0000
vt 0.1259 0.5862 0.0000
vt 0.1243 0.5972 0.0000
vt 0.1193 0.6162 0.0000
vt 0.1125 0.6426 0.0000
vt 0.1154 0.6160 0.0000
vt 0.1198 0.5974 0.0000
vt 0.1211 0.5867 0.0000
vt 0.1181 0.5708 0.0000
vt 0.1143 0.5544 0.0000
vt 0.1132 0.5508 0.0000
vt 0.1068 0.5486 0.0000
vt 0.1063 0.5549 0.0000
vt 0.0947 0.5530 0.0000
vt 0.0944 0.5584 0.0000
vt 0.0825 0.5552 0.0000
vt 0.0823 0.5603 0.0000
vt 0.0573 0.5559 0.0000
vt 0.0573 0.5603 0.0000
vt 0.0348 0.5593 0.0000
vt 0.0355 0.5632 0.0000
vt 0.0210 0.5645 0.0000
vt 0.0211 0.5676 0.0000
vt 0.0127 0.5698 0.0000
vt 0.0120 0.5725 0.0000
vt 0.0097 0.5703 0.0000
vt 0.0080 0.5715 0.0000
vt 0.0086 0.5684 0.0000
vt 0.0066 0.5686 0.0000
vt 0.0085 0.5645 0.0000
vt 0.0111 0.5652 0.0000
vt 0.0167 0.5576 0.0000
vt 0.0188 0.5596 0.0000
vt 0.0323 0.5537 0.0000
vt 0.0547 0.5491 0.0000
vt 0.0809 0.5461 0.0000
vt 0.0916 0.5435 0.0000
vt 0.1030 0.5403 0.0000
vt 0.1143 0.5364 0.0000
vt 0.1236 0.5281 0.0000
vt 0.1362 0.5273 0.0000
vt 0.1383 0.5327 0.0000
vt 0.1466 0.5332 0.0000
vt 0.1583 0.5383 0.0000
vt 0.1718 0.5503 0.0000
vt 0.1830 0.5645 0.0000
vt 0.2029 0.5796 0.0000
vt 0.1428 0.5286 0.0000
vt 0.1638 0.5000 0.0000
vt 0.1688 0.5020 0.0000
vt 0.1732 0.4858 0.0000
vt 0.1779 0.4878 0.0000
vt 0.1820 0.4756 0.0000
vt 0.1864 0.4775 0.0000
vt 0.1912 0.4624 0.0000
vt 0.1951 0.4639 0.0000
vt 0.1964 0.4585 0.0000
vt 0.1987 0.4595 0.0000
vt 0.1978 0.4551 0.0000
vt 0.2007 0.4536 0.0000
vt 0.1973 0.4507 0.0000
vt 0.1962 0.4536 0.0000
vt 0.1918 0.4526 0.0000
vt 0.1932 0.4556 0.0000
vt 0.1879 0.4595 0.0000
vt 0.1864 0.4561 0.0000
vt 0.1748 0.4678 0.0000
vt 0.1774 0.4717 0.0000
vt 0.1686 0.4810 0.0000
vt 0.1582 0.4951 0.0000
vt 0.1307 0.5220 0.0000
vt 0.1240 0.5193 0.0000
vt 0.1288 0.5151 0.0000
vt 0.1548 0.4897 0.0000
vt 0.1658 0.4766 0.0000
vt 0.1169 0.5215 0.0000
vt 0.1189 0.5146 0.0000
vt 0.1054 0.5068 0.0000
vt 0.1081 0.5020 0.0000
vt 0.0917 0.4917 0.0000
vt 0.0952 0.4878 0.0000
vt 0.0856 0.4849 0.0000
vt 0.0890 0.4814 0.0000
vt 0.0787 0.4746 0.0000
vt 0.0818 0.4707 0.0000
vt 0.0595 0.4438 0.0000
vt 0.0596 0.4395 0.0000
vt 0.0569 0.4414 0.0000
vt 0.0547 0.4385 0.0000
vt 0.0548 0.4434 0.0000
vt 0.0519 0.4409 0.0000
vt 0.0515 0.4448 0.0000
vt 0.0556 0.4473 0.0000
vt 0.0665 0.4795 0.0000
vt 0.0711 0.4780 0.0000
vt 0.0765 0.4888 0.0000
vt 0.0853 0.4990 0.0000
vt 0.0992 0.5149 0.0000
vt 0.1115 0.5293 0.0000
vt 0.1064 0.5337 0.0000
vt 0.0990 0.5354 0.0000
vt 0.0884 0.5391 0.0000
vt 0.0783 0.5417 0.0000
vt 0.0525 0.5452 0.0000
vt 0.0304 0.5503 0.0000
vt 0.1050 0.5298 0.0000
vt 0.0941 0.5168 0.0000
vt 0.0809 0.5015 0.0000
vt 0.0721 0.4907 0.0000
vt 0.1099 0.6440 0.0000
vt 0.1135 0.6448 0.0000
vt 0.1151 0.6479 0.0000
vt 0.1121 0.6472 0.0000
vt 0.1151 0.6453 0.0000
vt 0.1184 0.6460 0.0000
vt 0.1169 0.6438 0.0000
vt 0.1307 0.6177 0.0000
vt 0.1270 0.6167 0.0000
vt 0.1332 0.5964 0.0000
vt 0.1373 0.5974 0.0000
vt 0.1390 0.5872 0.0000
vt 0.1343 0.5862 0.0000
vt 0.1381 0.5691 0.0000
vt 0.1326 0.5679 0.0000
vt 0.1337 0.5527 0.0000
vt 0.1279 0.5493 0.0000
vt 0.1344 0.5498 0.0000
vt 0.1296 0.5432 0.0000
vt 0.1370 0.5437 0.0000
vt 0.1382 0.5503 0.0000
vt 0.1493 0.5486 0.0000
vt 0.1481 0.5547 0.0000
vt 0.1624 0.5610 0.0000
vt 0.1603 0.5662 0.0000
vt 0.1748 0.5742 0.0000
vt 0.1725 0.5784 0.0000
vt 0.1949 0.5908 0.0000
vt 0.1963 0.5869 0.0000
vt 0.2156 0.5964 0.0000
vt 0.2157 0.5996 0.0000
vt 0.2184 0.5962 0.0000
vt 0.2207 0.5977 0.0000
vt 0.2191 0.5947 0.0000
vt 0.2220 0.5950 0.0000
vt 0.2211 0.5913 0.0000
vt 0.2180 0.5925 0.0000
vt 0.1998 0.5828 0.0000
vt 0.1796 0.5681 0.0000
vt 0.1676 0.5542 0.0000
vt 0.1537 0.5422 0.0000
vt 0.1409 0.5381 0.0000
vt 0.1306 0.5354 0.0000
vt 0.1231 0.5381 0.0000
vt 0.1176 0.5435 0.0000
vt 0.1185 0.5493 0.0000
vt 0.1234 0.5684 0.0000
vt 0.1259 0.5862 0.0000
vt 0.1243 0.5972 0.0000
vt 0.1193 0.6162 0.0000
vt 0.1125 0.6426 0.0000
vt 0.1154 0.6160 0.0000
vt 0.1198 0.5974 0.0000
vt 0.1211 0.5867 0.0000
vt 0.1181 0.5708 0.0000
vt 0.1143 0.5544 0.0000
vt 0.1132 0.5508 0.0000
vt 0.1068 0.5486 0.0000
vt 0.1063 0.5549 0.0000
vt 0.0947 0.5530 0.0000
vt 0.0944 0.5584 0.0000
vt 0.0825 0.5552 0.0000
vt 0.0823 0.5603 0.0000
vt 0.0573 0.5559 0.0000
vt 0.0573 0.5603 0.0000
vt 0.0348 0.5593 0.0000
vt 0.0355 0.5632 0.0000
vt 0.0210 0.5645 0.0000
vt 0.0211 0.5676 0.0000
vt 0.0127 0.5698 0.0000
vt 0.0120 0.5725 0.0000
vt 0.0097 0.5703 0.0000
vt 0.0080 0.5715 0.0000
vt 0.0086 0.5684 0.0000
vt 0.0066 0.5686 0.0000
vt 0.0085 0.5645 0.0000
vt 0.0111 0.5652 0.0000
vt 0.0167 0.5576 0.0000
vt 0.0188 0.5596 0.0000
vt 0.0323 0.5537 0.0000
vt 0.0547 0.5491 0.0000
vt 0.0809 0.5461 0.0000
vt 0.0916 0.5435 0.0000
vt 0.1030 0.5403 0.0000
vt 0.1143 0.5364 0.0000
vt 0.1236 0.5281 0.0000
vt 0.1362 0.5273 0.0000
vt 0.1383 0.5327 0.0000
vt 0.1466 0.5332 0.0000
vt 0.1583 0.5383 0.0000
vt 0.1718 0.5503 0.0000
vt 0.1830 0.5645 0.0000
vt 0.2029 0.5796 0.0000
vt 0.1428 0.5286 0.0000
vt 0.1638 0.5000 0.0000
vt 0.1688 0.5020 0.0000
vt 0.1732 0.4858 0.0000
vt 0.1779 0.4878 0.0000
vt 0.1820 0.4756 0.0000
vt 0.1864 0.4775 0.0000
vt 0.1912 0.4624 0.0000
vt 0.1951 0.4639 0.0000
vt 0.1964 0.4585 0.0000
vt 0.1987 0.4595 0.0000
vt 0.1978 0.4551 0.0000
vt 0.2007 0.4536 0.0000
vt 0.1973 0.4507 0.0000
vt 0.1962 0.4536 0.0000
vt 0.1918 0.4526 0.0000
vt 0.1932 0.4556 0.0000
vt 0.1879 0.4595 0.0000
vt 0.1864 0.4561 0.0000
vt 0.1748 0.4678 0.0000
vt 0.1774 0.4717 0.0000
vt 0.1686 0.4810 0.0000
vt 0.1582 0.4951 0.0000
vt 0.1307 0.5220 0.0000
vt 0.1240 0.5193 0.0000
vt 0.1288 0.5151 0.0000
vt 0.1548 0.4897 0.0000
vt 0.1658 0.4766 0.0000
vt 0.1169 0.5215 0.0000
vt 0.1189 0.5146 0.0000
vt 0.1054 0.5068 0.0000
vt 0.1081 0.5020 0.0000
vt 0.0917 0.4917 0.0000
vt 0.0952 0.4878 0.0000
vt 0.0856 0.4849 0.0000
vt 0.0890 0.4814 0.0000
vt 0.0787 0.4746 0.0000
vt 0.0818 0.4707 0.0000
vt 0.0595 0.4438 0.0000
vt 0.0596 0.4395 0.0000
vt 0.0569 0.4414 0.0000
vt 0.0547 0.4385 0.0000
vt 0.0548 0.4434 0.0000
vt 0.0519 0.4409 0.0000
vt 0.0515 0.4448 0.0000
vt 0.0556 0.4473 0.0000
vt 0.0665 0.4795 0.0000
vt 0.0711 0.4780 0.0000
vt 0.0765 0.4888 0.0000
vt 0.0853 0.4990 0.0000
vt 0.0992 0.5149 0.0000
vt 0.1115 0.5293 0.0000
vt 0.1064 0.5337 0.0000
vt 0.0990 0.5354 0.0000
vt 0.0884 0.5391 0.0000
vt 0.0783 0.5417 0.0000
vt 0.0525 0.5452 0.0000
vt 0.0304 0.5503 0.0000
vt 0.1050 0.5298 0.0000
vt 0.0941 0.5168 0.0000
vt 0.0809 0.5015 0.0000
vt 0.0721 0.4907 0.0000
vt 0.1099 0.6440 0.0000
vt 0.1135 0.6448 0.0000
# 310 texture coords

o SM_Starfish_02_LOD0
g SM_Starfish_02_LOD0
usemtl MAT_Sea_Shells
s 1
f 113/3/1 112/2/2 114/1/3 
f 112/2/4 1/4/5 114/1/6 
f 112/2/7 2/5/8 1/4/9 
f 2/5/10 115/6/11 1/4/12 
f 2/5/13 29/7/14 115/6/15 
f 29/7/16 3/8/17 115/6/18 
f 3/8/19 116/9/20 115/6/21 
f 3/8/22 117/10/23 116/9/24 
f 3/8/25 27/11/26 117/10/27 
f 27/11/28 118/12/29 117/10/30 
f 27/11/31 26/13/32 118/12/33 
f 26/13/34 4/14/35 118/12/36 
f 26/13/37 6/15/38 4/14/39 
f 6/15/40 5/16/41 4/14/42 
f 6/15/43 24/17/44 5/16/45 
f 24/17/46 7/18/47 5/16/48 
f 7/18/49 8/19/50 5/16/51 
f 7/18/52 9/20/53 8/19/54 
f 9/20/55 10/21/56 8/19/57 
f 9/20/58 20/22/59 10/21/60 
f 20/22/61 11/23/62 10/21/63 
f 20/22/64 12/24/65 11/23/66 
f 12/24/67 123/25/68 11/23/69 
f 12/24/70 124/26/71 123/25/72 
f 12/24/73 13/27/74 124/26/75 
f 13/27/76 15/28/77 124/26/78 
f 13/27/79 14/29/80 15/28/81 
f 14/29/82 16/30/83 15/28/84 
f 16/30/85 129/31/86 15/28/87 
f 16/30/88 18/32/89 129/31/90 
f 18/32/91 130/33/92 129/31/93 
f 18/32/94 17/34/95 130/33/96 
f 18/32/97 59/35/98 17/34/99 
f 16/30/100 59/35/101 18/32/102 
f 14/29/103 59/35/104 16/30/105 
f 58/36/106 59/35/107 14/29/108 
f 13/27/109 58/36/110 14/29/111 
f 19/37/112 58/36/113 13/27/114 
f 12/24/115 19/37/116 13/27/117 
f 20/22/118 19/37/119 12/24/120 
f 57/38/121 19/37/122 20/22/123 
f 9/20/124 57/38/125 20/22/126 
f 56/39/127 57/38/128 9/20/129 
f 55/40/130 56/39/131 9/20/132 
f 7/18/133 55/40/134 9/20/135 
f 21/41/136 55/40/137 7/18/138 
f 24/17/139 21/41/140 7/18/141 
f 22/42/142 21/41/143 24/17/144 
f 23/43/145 22/42/146 24/17/147 
f 6/15/148 23/43/149 24/17/150 
f 25/44/151 23/43/152 6/15/153 
f 34/45/154 25/44/155 6/15/156 
f 26/13/157 34/45/158 6/15/159 
f 28/46/160 34/45/161 26/13/162 
f 27/11/163 28/46/164 26/13/165 
f 3/8/166 28/46/167 27/11/168 
f 32/47/169 28/46/170 3/8/171 
f 29/7/172 32/47/173 3/8/174 
f 30/48/175 32/47/176 29/7/177 
f 2/5/178 30/48/179 29/7/180 
f 110/49/181 30/48/182 2/5/183 
f 110/49/184 31/50/185 30/48/186 
f 145/51/187 30/48/188 31/50/189 
f 145/51/190 32/47/191 30/48/192 
f 147/52/193 32/47/194 145/51/195 
f 147/52/196 28/46/197 32/47/198 
f 33/53/199 28/46/200 147/52/201 
f 33/53/202 34/45/203 28/46/204 
f 149/54/205 34/45/206 33/53/207 
f 149/54/208 25/44/209 34/45/210 
f 151/55/211 25/44/212 149/54/213 
f 151/55/214 23/43/215 25/44/216 
f 51/56/217 23/43/218 151/55/219 
f 154/57/220 51/56/221 151/55/222 
f 36/58/223 51/56/224 154/57/225 
f 35/59/226 36/58/227 154/57/228 
f 37/60/229 36/58/230 35/59/231 
f 155/61/232 37/60/233 35/59/234 
f 49/62/235 37/60/236 155/61/237 
f 156/63/238 49/62/239 155/61/240 
f 38/64/241 49/62/242 156/63/243 
f 157/65/244 38/64/245 156/63/246 
f 39/66/247 38/64/248 157/65/249 
f 159/67/250 39/66/251 157/65/252 
f 40/68/253 39/66/254 159/67/255 
f 41/69/256 40/68/257 159/67/258 
f 42/70/259 40/68/260 41/69/261 
f 163/71/262 42/70/263 41/69/264 
f 43/72/265 42/70/266 163/71/267 
f 43/72/268 40/68/269 42/70/270 
f 164/73/271 43/72/272 163/71/273 
f 44/74/274 43/72/275 164/73/276 
f 44/74/277 45/75/278 43/72/279 
f 45/75/280 40/68/281 43/72/282 
f 45/75/283 39/66/284 40/68/285 
f 46/76/286 45/75/287 44/74/288 
f 46/76/289 105/77/290 45/75/291 
f 105/77/292 39/66/293 45/75/294 
f 105/77/295 47/78/296 39/66/297 
f 47/78/298 38/64/299 39/66/300 
f 47/78/301 48/79/302 38/64/303 
f 48/79/304 49/62/305 38/64/306 
f 48/79/307 50/80/308 49/62/309 
f 50/80/310 37/60/311 49/62/312 
f 50/80/313 102/81/314 37/60/315 
f 102/81/316 36/58/317 37/60/318 
f 102/81/319 52/82/320 36/58/321 
f 52/82/322 51/56/323 36/58/324 
f 52/82/325 53/83/326 51/56/327 
f 53/83/328 23/43/329 51/56/330 
f 53/83/331 22/42/332 23/43/333 
f 53/83/334 77/84/335 22/42/336 
f 77/84/337 21/41/338 22/42/339 
f 77/84/340 76/85/341 21/41/342 
f 76/85/343 174/86/344 21/41/345 
f 174/86/346 55/40/347 21/41/348 
f 54/87/349 55/40/350 174/86/351 
f 54/87/352 56/39/353 55/40/354 
f 177/88/355 56/39/356 54/87/357 
f 177/88/358 57/38/359 56/39/360 
f 178/89/361 57/38/362 177/88/363 
f 180/90/364 57/38/365 178/89/366 
f 180/90/367 19/37/368 57/38/369 
f 180/90/370 58/36/371 19/37/372 
f 60/91/373 58/36/374 180/90/375 
f 60/91/376 59/35/377 58/36/378 
f 59/35/379 60/91/380 17/34/381 
f 76/85/382 61/92/383 174/86/384 
f 61/92/385 76/85/386 62/93/387 
f 62/93/388 63/94/389 61/92/390 
f 62/93/391 64/95/392 63/94/393 
f 64/95/394 184/96/395 63/94/396 
f 64/95/397 74/97/398 184/96/399 
f 74/97/400 186/98/401 184/96/402 
f 74/97/403 73/99/404 186/98/405 
f 73/99/406 187/100/407 186/98/408 
f 73/99/409 66/101/410 187/100/411 
f 66/101/412 65/102/413 187/100/414 
f 66/101/415 70/103/416 65/102/417 
f 70/103/418 188/104/419 65/102/420 
f 70/103/421 67/105/422 188/104/423 
f 70/103/424 68/106/425 67/105/426 
f 68/106/427 195/107/428 67/105/429 
f 68/106/430 69/108/431 195/107/432 
f 70/103/433 69/108/434 68/106/435 
f 66/101/436 69/108/437 70/103/438 
f 73/99/439 69/108/440 66/101/441 
f 71/109/442 69/108/443 73/99/444 
f 71/109/445 72/110/446 69/108/447 
f 69/108/448 72/110/449 195/107/450 
f 196/111/451 72/110/452 71/109/453 
f 71/109/454 81/112/455 196/111/456 
f 73/99/457 81/112/458 71/109/459 
f 74/97/460 81/112/461 73/99/462 
f 75/113/463 81/112/464 74/97/465 
f 64/95/466 75/113/467 74/97/468 
f 80/114/469 75/113/470 64/95/471 
f 62/93/472 80/114/473 64/95/474 
f 76/85/475 78/115/476 80/114/477 
f 80/114/478 62/93/479 76/85/480 
f 77/84/481 78/115/482 76/85/483 
f 77/84/484 203/116/485 78/115/486 
f 203/116/487 79/117/488 78/115/489 
f 80/114/490 78/115/491 79/117/492 
f 79/117/493 201/118/494 80/114/495 
f 201/118/496 75/113/497 80/114/498 
f 202/119/499 75/113/500 201/118/501 
f 202/119/502 81/112/503 75/113/504 
f 81/112/505 202/119/506 196/111/507 
f 77/84/508 99/120/509 203/116/510 
f 99/120/511 82/121/512 203/116/513 
f 99/120/514 98/122/515 82/121/516 
f 98/122/517 83/123/518 82/121/519 
f 98/122/520 85/124/521 83/123/522 
f 85/124/523 84/125/524 83/123/525 
f 85/124/526 96/126/527 84/125/528 
f 96/126/529 86/127/530 84/125/531 
f 96/126/532 93/128/533 86/127/534 
f 93/128/535 87/129/536 86/127/537 
f 93/128/538 89/130/539 87/129/540 
f 89/130/541 88/131/542 87/129/543 
f 89/130/544 90/132/545 88/131/546 
f 90/132/547 210/133/548 88/131/549 
f 91/134/550 210/133/551 90/132/552 
f 89/130/553 91/134/554 90/132/555 
f 91/134/556 211/135/557 210/133/558 
f 91/134/559 213/136/560 211/135/561 
f 91/134/562 92/137/563 213/136/564 
f 89/130/565 92/137/566 91/134/567 
f 93/128/568 92/137/569 89/130/570 
f 92/137/571 108/138/572 213/136/573 
f 92/137/574 94/139/575 108/138/576 
f 93/128/577 94/139/578 92/137/579 
f 95/140/580 94/139/581 93/128/582 
f 96/126/583 95/140/584 93/128/585 
f 97/141/586 95/140/587 96/126/588 
f 85/124/589 97/141/590 96/126/591 
f 98/122/592 97/141/593 85/124/594 
f 106/142/595 97/141/596 98/122/597 
f 99/120/598 106/142/599 98/122/600 
f 100/143/601 106/142/602 99/120/603 
f 77/84/604 100/143/605 99/120/606 
f 53/83/607 100/143/608 77/84/609 
f 101/144/610 100/143/611 53/83/612 
f 52/82/613 101/144/614 53/83/615 
f 220/145/616 101/144/617 52/82/618 
f 102/81/619 220/145/620 52/82/621 
f 102/81/622 221/146/623 220/145/624 
f 50/80/625 221/146/626 102/81/627 
f 50/80/628 223/147/629 221/146/630 
f 48/79/631 223/147/632 50/80/633 
f 48/79/634 103/148/635 223/147/636 
f 47/78/637 103/148/638 48/79/639 
f 47/78/640 104/149/641 103/148/642 
f 105/77/643 104/149/644 47/78/645 
f 104/149/646 105/77/647 46/76/648 
f 226/150/649 100/143/650 101/144/651 
f 226/150/652 106/142/653 100/143/654 
f 107/151/655 106/142/656 226/150/657 
f 107/151/658 97/141/659 106/142/660 
f 229/152/661 97/141/662 107/151/663 
f 229/152/664 95/140/665 97/141/666 
f 230/153/667 95/140/668 229/152/669 
f 230/153/670 94/139/671 95/140/672 
f 94/139/673 230/153/674 108/138/675 
f 110/49/676 109/154/677 31/50/678 
f 111/155/679 109/154/680 110/49/681 
f 2/5/682 111/155/683 110/49/684 
f 112/2/685 111/155/686 2/5/687 
f 113/3/688 111/155/689 112/2/690 
f 109/154/691 111/155/692 113/3/693 
f 233/158/694 113/157/695 114/156/696 
f 1/159/697 233/158/698 114/156/699 
f 143/160/700 233/158/701 1/159/702 
f 115/161/703 143/160/704 1/159/705 
f 141/162/706 143/160/707 115/161/708 
f 139/163/709 141/162/710 115/161/711 
f 116/164/712 139/163/713 115/161/714 
f 117/165/715 139/163/716 116/164/717 
f 138/166/718 139/163/719 117/165/720 
f 118/167/721 138/166/722 117/165/723 
f 119/168/724 138/166/725 118/167/726 
f 4/169/727 119/168/728 118/167/729 
f 137/170/730 119/168/731 4/169/732 
f 5/171/733 137/170/734 4/169/735 
f 120/172/736 137/170/737 5/171/738 
f 121/173/739 120/172/740 5/171/741 
f 8/174/742 121/173/743 5/171/744 
f 134/175/745 121/173/746 8/174/747 
f 10/176/748 134/175/749 8/174/750 
f 122/177/751 134/175/752 10/176/753 
f 11/178/754 122/177/755 10/176/756 
f 125/179/757 122/177/758 11/178/759 
f 123/180/760 125/179/761 11/178/762 
f 124/181/763 125/179/764 123/180/765 
f 126/182/766 125/179/767 124/181/768 
f 131/183/769 126/182/770 124/181/771 
f 15/184/772 131/183/773 124/181/774 
f 127/185/775 131/183/776 15/184/777 
f 129/186/778 127/185/779 15/184/780 
f 128/187/781 127/185/782 129/186/783 
f 130/188/784 128/187/785 129/186/786 
f 17/189/787 128/187/788 130/188/789 
f 132/190/790 128/187/791 17/189/792 
f 132/190/793 127/185/794 128/187/795 
f 132/190/796 131/183/797 127/185/798 
f 132/190/799 181/191/800 131/183/801 
f 181/191/802 126/182/803 131/183/804 
f 181/191/805 133/192/806 126/182/807 
f 133/192/808 125/179/809 126/182/810 
f 133/192/811 122/177/812 125/179/813 
f 133/192/814 179/193/815 122/177/816 
f 179/193/817 134/175/818 122/177/819 
f 179/193/820 176/194/821 134/175/822 
f 176/194/823 175/195/824 134/175/825 
f 175/195/826 121/173/827 134/175/828 
f 175/195/829 172/196/830 121/173/831 
f 172/196/832 120/172/833 121/173/834 
f 172/196/835 135/197/836 120/172/837 
f 135/197/838 136/198/839 120/172/840 
f 136/198/841 137/170/842 120/172/843 
f 136/198/844 150/199/845 137/170/846 
f 150/199/847 148/200/848 137/170/849 
f 148/200/850 119/168/851 137/170/852 
f 148/200/853 140/201/854 119/168/855 
f 140/201/856 138/166/857 119/168/858 
f 140/201/859 139/163/860 138/166/861 
f 140/201/862 146/202/863 139/163/864 
f 146/202/865 141/162/866 139/163/867 
f 146/202/868 142/203/869 141/162/870 
f 142/203/871 143/160/872 141/162/873 
f 142/203/874 144/204/875 143/160/876 
f 144/204/877 142/203/878 31/205/879 
f 142/203/880 145/206/881 31/205/882 
f 146/202/883 145/206/884 142/203/885 
f 146/202/886 147/207/887 145/206/888 
f 140/201/889 147/207/890 146/202/891 
f 140/201/892 33/208/893 147/207/894 
f 148/200/895 33/208/896 140/201/897 
f 148/200/898 149/209/899 33/208/900 
f 150/199/901 149/209/902 148/200/903 
f 150/199/904 151/210/905 149/209/906 
f 136/198/907 151/210/908 150/199/909 
f 136/198/910 152/211/911 151/210/912 
f 152/211/913 154/212/914 151/210/915 
f 152/211/916 153/213/917 154/212/918 
f 153/213/919 35/214/920 154/212/921 
f 153/213/922 170/215/923 35/214/924 
f 170/215/925 155/216/926 35/214/927 
f 170/215/928 169/217/929 155/216/930 
f 169/217/931 156/218/932 155/216/933 
f 169/217/934 158/219/935 156/218/936 
f 158/219/937 157/220/938 156/218/939 
f 158/219/940 160/221/941 157/220/942 
f 160/221/943 159/222/944 157/220/945 
f 160/221/946 161/223/947 159/222/948 
f 161/223/949 41/224/950 159/222/951 
f 161/223/952 162/225/953 41/224/954 
f 162/225/955 163/226/956 41/224/957 
f 165/227/958 163/226/959 162/225/960 
f 161/223/961 165/227/962 162/225/963 
f 165/227/964 164/228/965 163/226/966 
f 165/227/967 44/229/968 164/228/969 
f 165/227/970 166/230/971 44/229/972 
f 161/223/973 166/230/974 165/227/975 
f 160/221/976 166/230/977 161/223/978 
f 166/230/979 46/231/980 44/229/981 
f 166/230/982 224/232/983 46/231/984 
f 160/221/985 224/232/986 166/230/987 
f 167/233/988 224/232/989 160/221/990 
f 158/219/991 167/233/992 160/221/993 
f 168/234/994 167/233/995 158/219/996 
f 169/217/997 168/234/998 158/219/999 
f 222/235/1000 168/234/1001 169/217/1002 
f 170/215/1003 222/235/1004 169/217/1005 
f 219/236/1006 222/235/1007 170/215/1008 
f 153/213/1009 219/236/1010 170/215/1011 
f 218/237/1012 219/236/1013 153/213/1014 
f 152/211/1015 218/237/1016 153/213/1017 
f 217/238/1018 218/237/1019 152/211/1020 
f 136/198/1021 217/238/1022 152/211/1023 
f 135/197/1024 217/238/1025 136/198/1026 
f 171/239/1027 217/238/1028 135/197/1029 
f 172/196/1030 171/239/1031 135/197/1032 
f 173/240/1033 171/239/1034 172/196/1035 
f 174/241/1036 173/240/1037 172/196/1038 
f 175/195/1039 174/241/1040 172/196/1041 
f 175/195/1042 54/242/1043 174/241/1044 
f 176/194/1045 54/242/1046 175/195/1047 
f 176/194/1048 177/243/1049 54/242/1050 
f 179/193/1051 177/243/1052 176/194/1053 
f 179/193/1054 178/244/1055 177/243/1056 
f 179/193/1057 180/245/1058 178/244/1059 
f 133/192/1060 180/245/1061 179/193/1062 
f 181/191/1063 180/245/1064 133/192/1065 
f 181/191/1066 60/246/1067 180/245/1068 
f 132/190/1069 60/246/1070 181/191/1071 
f 132/190/1072 17/189/1073 60/246/1074 
f 61/247/1075 173/240/1076 174/241/1077 
f 182/248/1078 173/240/1079 61/247/1080 
f 61/247/1081 63/249/1082 182/248/1083 
f 183/250/1084 182/248/1085 63/249/1086 
f 184/251/1087 183/250/1088 63/249/1089 
f 185/252/1090 183/250/1091 184/251/1092 
f 186/253/1093 185/252/1094 184/251/1095 
f 193/254/1096 185/252/1097 186/253/1098 
f 187/255/1099 193/254/1100 186/253/1101 
f 191/256/1102 193/254/1103 187/255/1104 
f 65/257/1105 191/256/1106 187/255/1107 
f 189/258/1108 191/256/1109 65/257/1110 
f 188/259/1111 189/258/1112 65/257/1113 
f 67/260/1114 189/258/1115 188/259/1116 
f 190/261/1117 189/258/1118 67/260/1119 
f 195/262/1120 190/261/1121 67/260/1122 
f 192/263/1123 190/261/1124 195/262/1125 
f 192/263/1126 189/258/1127 190/261/1128 
f 192/263/1129 191/256/1130 189/258/1131 
f 192/263/1132 193/254/1133 191/256/1134 
f 192/263/1135 194/264/1136 193/254/1137 
f 72/265/1138 194/264/1139 192/263/1140 
f 72/265/1141 192/263/1142 195/262/1143 
f 196/266/1144 194/264/1145 72/265/1146 
f 197/267/1147 194/264/1148 196/266/1149 
f 197/267/1150 193/254/1151 194/264/1152 
f 197/267/1153 185/252/1154 193/254/1155 
f 197/267/1156 198/268/1157 185/252/1158 
f 198/268/1159 183/250/1160 185/252/1161 
f 198/268/1162 199/269/1163 183/250/1164 
f 199/269/1165 182/248/1166 183/250/1167 
f 173/240/1168 182/248/1169 199/269/1170 
f 199/269/1171 200/270/1172 173/240/1173 
f 200/270/1174 171/239/1175 173/240/1176 
f 203/271/1177 171/239/1178 200/270/1179 
f 79/272/1180 203/271/1181 200/270/1182 
f 199/269/1183 201/273/1184 79/272/1185 
f 79/272/1186 200/270/1187 199/269/1188 
f 198/268/1189 201/273/1190 199/269/1191 
f 198/268/1192 202/274/1193 201/273/1194 
f 197/267/1195 202/274/1196 198/268/1197 
f 197/267/1198 196/266/1199 202/274/1200 
f 204/275/1201 171/239/1202 203/271/1203 
f 82/276/1204 204/275/1205 203/271/1206 
f 216/277/1207 204/275/1208 82/276/1209 
f 83/278/1210 216/277/1211 82/276/1212 
f 205/279/1213 216/277/1214 83/278/1215 
f 84/280/1216 205/279/1217 83/278/1218 
f 215/281/1219 205/279/1220 84/280/1221 
f 86/282/1222 215/281/1223 84/280/1224 
f 206/283/1225 215/281/1226 86/282/1227 
f 87/284/1228 206/283/1229 86/282/1230 
f 209/285/1231 206/283/1232 87/284/1233 
f 88/286/1234 209/285/1235 87/284/1236 
f 208/287/1237 209/285/1238 88/286/1239 
f 210/288/1240 208/287/1241 88/286/1242 
f 207/289/1243 208/287/1244 210/288/1245 
f 207/289/1246 209/285/1247 208/287/1248 
f 211/290/1249 207/289/1250 210/288/1251 
f 213/291/1252 207/289/1253 211/290/1254 
f 212/292/1255 207/289/1256 213/291/1257 
f 212/292/1258 209/285/1259 207/289/1260 
f 212/292/1261 206/283/1262 209/285/1263 
f 108/293/1264 212/292/1265 213/291/1266 
f 231/294/1267 212/292/1268 108/293/1269 
f 231/294/1270 206/283/1271 212/292/1272 
f 231/294/1273 214/295/1274 206/283/1275 
f 214/295/1276 215/281/1277 206/283/1278 
f 214/295/1279 228/296/1280 215/281/1281 
f 228/296/1282 205/279/1283 215/281/1284 
f 228/296/1285 216/277/1286 205/279/1287 
f 228/296/1288 227/297/1289 216/277/1290 
f 227/297/1291 204/275/1292 216/277/1293 
f 227/297/1294 225/298/1295 204/275/1296 
f 225/298/1297 171/239/1298 204/275/1299 
f 225/298/1300 217/238/1301 171/239/1302 
f 225/298/1303 101/299/1304 217/238/1305 
f 101/299/1306 218/237/1307 217/238/1308 
f 220/300/1309 218/237/1310 101/299/1311 
f 220/300/1312 219/236/1313 218/237/1314 
f 221/301/1315 219/236/1316 220/300/1317 
f 221/301/1318 222/235/1319 219/236/1320 
f 223/302/1321 222/235/1322 221/301/1323 
f 223/302/1324 168/234/1325 222/235/1326 
f 103/303/1327 168/234/1328 223/302/1329 
f 103/303/1330 167/233/1331 168/234/1332 
f 104/304/1333 167/233/1334 103/303/1335 
f 104/304/1336 224/232/1337 167/233/1338 
f 224/232/1339 104/304/1340 46/231/1341 
f 225/298/1342 226/305/1343 101/299/1344 
f 227/297/1345 226/305/1346 225/298/1347 
f 227/297/1348 107/306/1349 226/305/1350 
f 228/296/1351 107/306/1352 227/297/1353 
f 228/296/1354 229/307/1355 107/306/1356 
f 214/295/1357 229/307/1358 228/296/1359 
f 214/295/1360 230/308/1361 229/307/1362 
f 231/294/1363 230/308/1364 214/295/1365 
f 231/294/1366 108/293/1367 230/308/1368 
f 109/309/1369 144/204/1370 31/205/1371 
f 232/310/1372 144/204/1373 109/309/1374 
f 113/157/1375 232/310/1376 109/309/1377 
f 233/158/1378 232/310/1379 113/157/1380 
f 143/160/1381 232/310/1382 233/158/1383 
f 232/310/1384 143/160/1385 144/204/1386 
# 462 faces

#
# object SM_Starfish_02_LOD1
#

v  2.0923 1.5581 1.0305
v  2.2530 0.3819 -0.4237
v  10.5968 0.6776 11.8558
v  -7.6731 0.6768 13.4438
v  0.7957 0.6391 -3.3542
v  5.2055 0.3819 0.3978
v  10.4174 0.3819 -5.8416
v  0.1566 0.3819 -0.4790
v  -10.6620 0.6663 -1.0917
v  6.9918 1.2323 8.0845
v  13.7357 0.6720 -6.4791
v  1.1567 0.3819 2.5932
v  -10.2132 0.6663 -2.3012
v  2.3393 1.2836 -3.1773
v  0.2856 0.7123 -13.2887
v  -3.7167 1.2442 7.5244
v  0.4143 1.5581 -0.0347
v  -3.3000 0.6478 -1.6469
v  -4.8930 1.2383 7.0626
v  9.0918 1.1894 -3.6806
v  9.0292 0.3819 8.6203
v  2.7947 0.6466 -6.0217
v  -13.6571 0.7310 -3.5813
v  2.5519 0.3819 1.2133
v  -4.3297 1.2462 -0.3730
v  5.3655 0.3819 6.6105
v  1.2002 1.5562 1.9676
v  -0.5628 0.3819 1.0593
v  11.1811 0.3819 -4.9071
v  9.3580 0.6741 11.0314
v  1.7390 1.4430 -0.7672
v  -7.0870 1.1201 12.8454
v  1.4299 1.2079 -5.4785
v  4.4551 0.1164 -0.7675
v  -12.4641 0.7194 -1.9390
v  8.1183 1.1844 -4.1783
v  -0.4902 0.7117 -12.9260
v  5.3552 1.3098 -0.1189
v  6.9066 0.0465 7.8097
v  -11.0486 0.4696 -2.3528
v  -3.8355 0.1622 7.8277
v  8.5877 0.3819 -2.9644
v  -12.0636 0.7194 -2.9567
v  -3.1827 1.2641 -1.3396
v  11.0716 0.6778 11.5249
v  -4.8335 0.3314 -0.4278
v  6.6631 1.2317 6.0182
v  7.6751 0.2692 -4.1038
v  -4.9802 0.1980 7.0198
v  13.6525 0.6720 -6.9709
v  2.5012 1.1917 -6.0025
v  2.0831 1.5449 -0.0094
v  1.1616 0.6434 -5.7057
v  2.1031 0.0223 -0.0107
v  -0.0536 1.5547 0.8854
v  1.1509 0.0255 1.9853
v  5.6567 1.2733 6.2277
v  1.8457 0.6580 -9.5219
v  10.6399 0.9384 11.3876
v  -0.1615 0.0437 0.8846
v  4.4988 1.3149 -0.6902
v  -8.0229 0.6768 13.1318
v  -13.8227 0.7310 -3.2308
v  6.9746 0.0546 6.4313
v  -10.6251 1.1081 -2.1899
v  2.6416 0.6391 -3.1792
v  2.1045 0.0255 1.0477
v  -11.2988 1.0911 -1.6588
v  -7.5907 1.1201 12.4308
v  0.3321 0.0350 -0.0700
v  2.0482 0.3819 -0.8237
v  -4.6530 0.3322 -1.5612
v  7.6551 0.0472 -2.3157
v  0.2344 0.3819 3.2973
v  13.0003 0.6042 -6.9725
v  9.4739 1.1138 10.8086
v  7.0205 0.3819 6.0100
v  -0.6582 0.3819 1.6829
v  10.7193 0.6741 10.8582
v  13.3589 1.0356 -6.3522
v  0.3123 0.9995 -12.9471
v  9.4739 0.2817 10.8086
v  5.0672 0.0013 0.1267
v  -7.1161 0.6017 13.0901
v  13.0495 1.0125 -6.8588
v  -10.5886 0.4141 -1.3488
v  1.9051 0.3819 3.0894
v  1.3415 0.3190 -4.8030
v  -13.1548 0.6716 -3.5482
v  -4.4742 0.6502 -0.1608
v  2.5230 0.3390 -5.8058
v  2.8451 0.3819 -0.3530
v  1.7763 0.0459 -0.9168
v  -0.2866 0.7129 -13.3539
v  7.1201 0.3819 -1.1345
v  -13.1356 0.5572 -2.6881
# 96 vertices

vn 0.2340 0.9706 0.0565
vn 0.0066 0.9494 0.3140
vn -0.3558 0.8706 0.3398
vn 0.4797 0.7891 -0.3837
vn 0.7428 -0.2169 -0.6333
vn 0.8909 -0.4162 0.1816
vn -0.6579 -0.6454 -0.3880
vn -0.0059 -0.9887 0.1498
vn 0.5418 -0.7138 0.4438
vn 0.0066 0.9494 0.3140
vn -0.5983 0.7144 -0.3630
vn 0.5041 0.7512 0.4262
vn -0.0946 -0.9841 -0.1502
vn -0.3976 -0.9140 -0.0814
vn 0.3486 -0.9348 -0.0682
vn 0.5829 0.8098 0.0667
vn 0.5215 0.8429 -0.1326
vn 0.9656 -0.1992 -0.1670
vn 0.1882 0.9184 -0.3481
vn -0.2683 0.7826 -0.5617
vn -0.1867 -0.1054 -0.9767
vn 0.4729 -0.1521 0.8679
vn 0.2340 0.9706 0.0565
vn 0.8909 -0.4162 0.1816
vn 0.2603 -0.9459 0.1936
vn -0.3464 -0.7118 -0.6110
vn -0.5128 -0.5466 -0.6620
vn -0.2683 0.7826 -0.5617
vn -0.5128 -0.5466 -0.6620
vn -0.3464 -0.7118 -0.6110
vn -0.4932 -0.3919 -0.7766
vn -0.1371 0.9573 -0.2544
vn -0.4846 0.8742 -0.0299
vn 0.1949 -0.1949 -0.9613
vn -0.1371 0.9573 -0.2544
vn -0.4932 -0.3919 -0.7766
vn -0.2652 0.9605 0.0844
vn -0.5983 0.7144 -0.3630
vn 0.0066 0.9494 0.3140
vn -0.1423 0.8375 0.5276
vn -0.2446 -0.0270 0.9692
vn -0.7661 -0.3373 0.5470
vn 0.4797 0.7891 -0.3837
vn -0.4112 0.8239 0.3899
vn 0.2221 0.9647 0.1412
vn 0.1181 -0.9925 0.0317
vn 0.3300 -0.9100 -0.2511
vn -0.2436 -0.9220 0.3010
vn 0.4490 -0.6750 0.5855
vn 0.2603 -0.9459 0.1936
vn -0.3362 -0.4871 -0.8060
vn -0.3740 0.7575 -0.5352
vn 0.3689 0.8210 0.4357
vn -0.0453 0.7639 -0.6438
vn -0.0059 -0.9887 0.1498
vn -0.1668 -0.9845 0.0543
vn 0.1107 -0.9772 -0.1813
vn -0.2436 -0.9220 0.3010
vn -0.0059 -0.9887 0.1498
vn 0.1181 -0.9925 0.0317
vn -0.2268 0.8805 0.4163
vn -0.1423 0.8375 0.5276
vn 0.1029 0.8730 -0.4767
vn -0.0946 -0.9841 -0.1502
vn -0.1161 -0.8797 0.4612
vn 0.0305 -0.8780 -0.4776
vn 0.5829 0.8098 0.0667
vn -0.4846 0.8742 -0.0299
vn 0.5215 0.8429 -0.1326
vn 0.3245 0.8852 -0.3335
vn -0.4846 0.8742 -0.0299
vn 0.5461 0.8344 -0.0742
vn -0.3976 -0.9140 -0.0814
vn 0.4588 -0.2921 -0.8391
vn 0.4246 -0.9041 -0.0480
vn -0.3976 -0.9140 -0.0814
vn 0.4246 -0.9041 -0.0480
vn 0.3486 -0.9348 -0.0682
vn 0.5041 0.7512 0.4262
vn -0.5983 0.7144 -0.3630
vn -0.6244 0.7678 -0.1434
vn 0.5041 0.7512 0.4262
vn 0.5418 -0.7138 0.4438
vn 0.7227 -0.1524 0.6741
vn 0.0066 0.9494 0.3140
vn 0.2340 0.9706 0.0565
vn -0.1371 0.9573 -0.2544
vn -0.4846 0.8742 -0.0299
vn -0.1371 0.9573 -0.2544
vn 0.5215 0.8429 -0.1326
vn -0.1423 0.8375 0.5276
vn 0.1030 0.8087 -0.5791
vn 0.1029 0.8730 -0.4767
vn 0.0305 -0.8780 -0.4776
vn -0.1161 -0.8797 0.4612
vn 0.0894 -0.9246 -0.3704
vn -0.8363 0.1311 -0.5324
vn -0.5983 0.7144 -0.3630
vn -0.2652 0.9605 0.0844
vn -0.6579 -0.6454 -0.3880
vn -0.1668 -0.9845 0.0543
vn -0.0059 -0.9887 0.1498
vn 0.4729 -0.1521 0.8679
vn 0.3483 0.7977 0.4924
vn 0.2340 0.9706 0.0565
vn 0.4490 -0.6750 0.5855
vn 0.3689 0.8210 0.4357
vn 0.6478 0.0392 0.7608
vn -0.2436 -0.9220 0.3010
vn 0.3300 -0.9100 -0.2511
vn 0.9587 -0.1108 0.2620
vn 0.4797 0.7891 -0.3837
vn 0.2221 0.9647 0.1412
vn 0.7657 -0.4396 -0.4696
vn 0.5461 0.8344 -0.0742
vn 0.9840 -0.1316 -0.1203
vn 0.9115 -0.2315 -0.3399
vn 0.5829 0.8098 0.0667
vn 0.9656 -0.1992 -0.1670
vn 0.9762 -0.1717 0.1328
vn -0.2268 0.8805 0.4163
vn 0.1029 0.8730 -0.4767
vn -0.9979 0.0283 -0.0577
vn -0.1475 -0.9235 0.3540
vn -0.3880 -0.8659 0.3159
vn 0.0894 -0.9246 -0.3704
vn 0.1181 -0.9925 0.0317
vn -0.0059 -0.9887 0.1498
vn 0.1107 -0.9772 -0.1813
vn 0.2263 -0.8980 0.3774
vn 0.1181 -0.9925 0.0317
vn -0.3464 -0.7118 -0.6110
vn -0.1423 0.8375 0.5276
vn -0.7661 -0.3373 0.5470
vn -0.2652 0.9605 0.0844
vn -0.1423 0.8375 0.5276
vn -0.2652 0.9605 0.0844
vn 0.1030 0.8087 -0.5791
vn -0.6643 -0.1608 0.7300
vn -0.7328 -0.1059 0.6722
vn -0.3558 0.8706 0.3398
vn -0.6082 0.0038 0.7938
vn -0.4112 0.8239 0.3899
vn -0.7328 -0.1059 0.6722
vn -0.3558 0.8706 0.3398
vn 0.0066 0.9494 0.3140
vn -0.6643 -0.1608 0.7300
vn 0.0066 0.9494 0.3140
vn 0.5041 0.7512 0.4262
vn 0.7227 -0.1524 0.6741
vn 0.1107 -0.9772 -0.1813
vn -0.1668 -0.9845 0.0543
vn -0.0946 -0.9841 -0.1502
vn -0.1668 -0.9845 0.0543
vn -0.1161 -0.8797 0.4612
vn -0.0946 -0.9841 -0.1502
vn 0.4490 -0.6750 0.5855
vn -0.3362 -0.4871 -0.8060
vn -0.1498 -0.5472 -0.8235
vn 0.4490 -0.6750 0.5855
vn 0.4860 0.7975 0.3575
vn 0.3689 0.8210 0.4357
vn 0.2221 0.9647 0.1412
vn -0.4112 0.8239 0.3899
vn -0.2107 0.8992 0.3835
vn -0.6082 0.0038 0.7938
vn -0.1739 -0.9355 0.3077
vn 0.0680 -0.0789 0.9946
vn 0.1882 0.9184 -0.3481
vn 0.2340 0.9706 0.0565
vn -0.2683 0.7826 -0.5617
vn -0.1371 0.9573 -0.2544
vn 0.2340 0.9706 0.0565
vn 0.1882 0.9184 -0.3481
vn 0.5041 0.7512 0.4262
vn 0.3735 0.7808 0.5009
vn 0.5418 -0.7138 0.4438
vn -0.6244 0.7678 -0.1434
vn -0.6579 -0.6454 -0.3880
vn -0.9170 -0.1764 0.3576
vn -0.9722 0.1931 0.1328
vn -0.4846 0.8742 -0.0299
vn -0.9702 -0.1364 -0.2002
vn -0.4932 -0.3919 -0.7766
vn -0.4846 0.8742 -0.0299
vn -0.9767 -0.0247 -0.2130
vn -0.2683 0.7826 -0.5617
vn -0.3464 -0.7118 -0.6110
vn -0.1867 -0.1054 -0.9767
vn 0.1181 -0.9925 0.0317
vn 0.1107 -0.9772 -0.1813
vn -0.3464 -0.7118 -0.6110
vn -0.3880 -0.8659 0.3159
vn -0.2910 -0.0470 0.9556
vn -0.5776 -0.0566 0.8143
vn -0.2268 0.8805 0.4163
vn -0.2910 -0.0470 0.9556
vn -0.1423 0.8375 0.5276
vn -0.2683 0.7826 -0.5617
vn -0.3740 0.7575 -0.5352
vn -0.5128 -0.5466 -0.6620
vn -0.3740 0.7575 -0.5352
vn -0.1498 -0.5472 -0.8235
vn -0.3362 -0.4871 -0.8060
vn -0.3976 -0.9140 -0.0814
vn -0.9702 -0.1364 -0.2002
vn 0.4588 -0.2921 -0.8391
vn -0.9702 -0.1364 -0.2002
vn -0.4846 0.8742 -0.0299
vn 0.3245 0.8852 -0.3335
vn 0.6478 0.0392 0.7608
vn 0.3689 0.8210 0.4357
vn 0.3483 0.7977 0.4924
vn 0.2340 0.9706 0.0565
vn 0.3483 0.7977 0.4924
vn -0.2683 0.7826 -0.5617
vn -0.2436 -0.9220 0.3010
vn -0.7328 -0.1059 0.6722
vn -0.6643 -0.1608 0.7300
vn -0.2436 -0.9220 0.3010
vn -0.6082 0.0038 0.7938
vn -0.7328 -0.1059 0.6722
vn 0.0894 -0.9246 -0.3704
vn 0.1250 -0.1287 -0.9838
vn 0.4167 0.1417 -0.8979
vn 0.0305 -0.8780 -0.4776
vn 0.0894 -0.9246 -0.3704
vn 0.1531 0.0409 -0.9874
vn 0.3735 0.7808 0.5009
vn 0.5318 -0.5628 0.6328
vn 0.5418 -0.7138 0.4438
vn -0.6579 -0.6454 -0.3880
vn 0.5418 -0.7138 0.4438
vn -0.9170 -0.1764 0.3576
vn 0.2603 -0.9459 0.1936
vn 0.2263 -0.8980 0.3774
vn -0.3464 -0.7118 -0.6110
vn 0.7046 -0.1881 0.6842
vn 0.3483 0.7977 0.4924
vn 0.4729 -0.1521 0.8679
vn 0.1029 0.8730 -0.4767
vn 0.1030 0.8087 -0.5791
vn 0.1531 0.0409 -0.9874
vn 0.0894 -0.9246 -0.3704
vn 0.4167 0.1417 -0.8979
vn 0.1531 0.0409 -0.9874
vn 0.1030 0.8087 -0.5791
vn -0.1371 0.9573 -0.2544
vn 0.1949 -0.1949 -0.9613
vn 0.1531 0.0409 -0.9874
vn 0.1030 0.8087 -0.5791
vn 0.1949 -0.1949 -0.9613
vn 0.0680 -0.0789 0.9946
vn -0.1739 -0.9355 0.3077
vn 0.9587 -0.1108 0.2620
vn 0.2221 0.9647 0.1412
vn -0.6082 0.0038 0.7938
vn 0.0680 -0.0789 0.9946
vn -0.1423 0.8375 0.5276
vn -0.2910 -0.0470 0.9556
vn -0.2446 -0.0270 0.9692
vn -0.1161 -0.8797 0.4612
vn -0.1475 -0.9235 0.3540
vn 0.0894 -0.9246 -0.3704
vn 0.8909 -0.4162 0.1816
vn 0.2340 0.9706 0.0565
vn 0.4797 0.7891 -0.3837
vn -0.3558 0.8706 0.3398
vn 0.4797 0.7891 -0.3837
vn 0.2340 0.9706 0.0565
vn 0.2603 -0.9459 0.1936
vn -0.5128 -0.5466 -0.6620
vn -0.3362 -0.4871 -0.8060
vn -0.3740 0.7575 -0.5352
vn -0.3362 -0.4871 -0.8060
vn -0.5128 -0.5466 -0.6620
vn -0.6244 0.7678 -0.1434
vn -0.5983 0.7144 -0.3630
vn -0.6579 -0.6454 -0.3880
vn -0.6579 -0.6454 -0.3880
vn -0.5983 0.7144 -0.3630
vn -0.8363 0.1311 -0.5324
vn 0.3689 0.8210 0.4357
vn 0.4860 0.7975 0.3575
vn -0.0453 0.7639 -0.6438
vn 0.9252 -0.2724 0.2643
vn 0.4490 -0.6750 0.5855
vn -0.1498 -0.5472 -0.8235
vn 0.5461 0.8344 -0.0742
vn -0.4846 0.8742 -0.0299
vn 0.5829 0.8098 0.0667
vn 0.5461 0.8344 -0.0742
vn 0.5829 0.8098 0.0667
vn 0.9762 -0.1717 0.1328
vn 0.5215 0.8429 -0.1326
vn 0.1882 0.9184 -0.3481
vn 0.6176 -0.2750 -0.7369
vn 0.5215 0.8429 -0.1326
vn -0.1371 0.9573 -0.2544
vn 0.1882 0.9184 -0.3481
vn -0.9767 -0.0247 -0.2130
vn -0.4846 0.8742 -0.0299
vn -0.9722 0.1931 0.1328
vn -0.3976 -0.9140 -0.0814
vn -0.4932 -0.3919 -0.7766
vn -0.9767 -0.0247 -0.2130
vn -0.3464 -0.7118 -0.6110
vn 0.1107 -0.9772 -0.1813
vn -0.1867 -0.1054 -0.9767
vn 0.5215 0.8429 -0.1326
vn 0.6176 -0.2750 -0.7369
vn 0.9656 -0.1992 -0.1670
vn -0.2652 0.9605 0.0844
vn -0.1371 0.9573 -0.2544
vn 0.1030 0.8087 -0.5791
vn -0.2652 0.9605 0.0844
vn 0.0066 0.9494 0.3140
vn -0.1371 0.9573 -0.2544
vn -0.6643 -0.1608 0.7300
vn -0.0059 -0.9887 0.1498
vn -0.2436 -0.9220 0.3010
vn 0.0066 0.9494 0.3140
vn 0.7227 -0.1524 0.6741
vn 0.0493 -0.3772 0.9248
vn -0.3558 0.8706 0.3398
vn -0.4112 0.8239 0.3899
vn 0.4797 0.7891 -0.3837
vn -0.7328 -0.1059 0.6722
vn -0.4112 0.8239 0.3899
vn -0.3558 0.8706 0.3398
vn 0.3245 0.8852 -0.3335
vn 0.5461 0.8344 -0.0742
vn 0.9115 -0.2315 -0.3399
vn 0.4246 -0.9041 -0.0480
vn 0.4588 -0.2921 -0.8391
vn 0.9115 -0.2315 -0.3399
vn 0.2221 0.9647 0.1412
vn 0.8218 0.0178 -0.5695
vn 0.7657 -0.4396 -0.4696
vn 0.2221 0.9647 0.1412
vn 0.0680 -0.0789 0.9946
vn 0.9587 -0.1108 0.2620
vn -0.6579 -0.6454 -0.3880
vn -0.8363 0.1311 -0.5324
vn -0.1668 -0.9845 0.0543
vn -0.7661 -0.3373 0.5470
vn -0.1161 -0.8797 0.4612
vn -0.1668 -0.9845 0.0543
vn -0.2683 0.7826 -0.5617
vn 0.3689 0.8210 0.4357
vn -0.3740 0.7575 -0.5352
vn 0.3483 0.7977 0.4924
vn 0.3689 0.8210 0.4357
vn -0.2683 0.7826 -0.5617
vn -0.9170 -0.1764 0.3576
vn 0.5418 -0.7138 0.4438
vn 0.5318 -0.5628 0.6328
vn -0.6244 0.7678 -0.1434
vn -0.9170 -0.1764 0.3576
vn -0.2345 -0.1553 0.9596
vn -0.9979 0.0283 -0.0577
vn 0.1029 0.8730 -0.4767
vn -0.5974 0.0128 -0.8018
vn 0.0894 -0.9246 -0.3704
vn -0.3880 -0.8659 0.3159
vn 0.1250 -0.1287 -0.9838
vn 0.4797 0.7891 -0.3837
vn 0.7657 -0.4396 -0.4696
vn 0.7428 -0.2169 -0.6333
vn 0.9587 -0.1108 0.2620
vn 0.3300 -0.9100 -0.2511
vn 0.7657 -0.4396 -0.4696
vn -0.5974 0.0128 -0.8018
vn 0.1029 0.8730 -0.4767
vn 0.4167 0.1417 -0.8979
vn 0.4167 0.1417 -0.8979
vn 0.1029 0.8730 -0.4767
vn 0.1531 0.0409 -0.9874
vn 0.3486 -0.9348 -0.0682
vn 0.4246 -0.9041 -0.0480
vn 0.9762 -0.1717 0.1328
vn 0.5461 0.8344 -0.0742
vn 0.9762 -0.1717 0.1328
vn 0.9840 -0.1316 -0.1203
vn 0.3300 -0.9100 -0.2511
vn 0.1181 -0.9925 0.0317
vn 0.8909 -0.4162 0.1816
vn 0.1181 -0.9925 0.0317
vn 0.4729 -0.1521 0.8679
vn 0.8909 -0.4162 0.1816
vn -0.5776 -0.0566 0.8143
vn -0.2268 0.8805 0.4163
vn -0.9979 0.0283 -0.0577
vn -0.2910 -0.0470 0.9556
vn -0.2268 0.8805 0.4163
vn -0.5776 -0.0566 0.8143
vn -0.6244 0.7678 -0.1434
vn -0.2345 -0.1553 0.9596
vn 0.3735 0.7808 0.5009
vn 0.5041 0.7512 0.4262
vn -0.6244 0.7678 -0.1434
vn 0.3735 0.7808 0.5009
vn -0.0946 -0.9841 -0.1502
vn -0.4932 -0.3919 -0.7766
vn -0.3976 -0.9140 -0.0814
vn -0.0946 -0.9841 -0.1502
vn 0.1949 -0.1949 -0.9613
vn -0.4932 -0.3919 -0.7766
vn -0.0946 -0.9841 -0.1502
vn 0.3486 -0.9348 -0.0682
vn 0.1107 -0.9772 -0.1813
vn 0.1107 -0.9772 -0.1813
vn 0.3486 -0.9348 -0.0682
vn 0.6176 -0.2750 -0.7369
vn -0.0946 -0.9841 -0.1502
vn 0.0305 -0.8780 -0.4776
vn 0.1949 -0.1949 -0.9613
vn 0.0305 -0.8780 -0.4776
vn 0.1531 0.0409 -0.9874
vn 0.1949 -0.1949 -0.9613
vn 0.2603 -0.9459 0.1936
vn 0.7046 -0.1881 0.6842
vn 0.4729 -0.1521 0.8679
vn 0.4490 -0.6750 0.5855
vn 0.6478 0.0392 0.7608
vn 0.2603 -0.9459 0.1936
vn 0.7227 -0.1524 0.6741
vn -0.0059 -0.9887 0.1498
vn 0.0493 -0.3772 0.9248
vn 0.5418 -0.7138 0.4438
vn -0.0059 -0.9887 0.1498
vn 0.7227 -0.1524 0.6741
vn 0.9252 -0.2724 0.2643
vn -0.1498 -0.5472 -0.8235
vn 0.7089 -0.2056 -0.6747
vn -0.3740 0.7575 -0.5352
vn -0.0453 0.7639 -0.6438
vn -0.1498 -0.5472 -0.8235
vn -0.2107 0.8992 0.3835
vn -0.4112 0.8239 0.3899
vn -0.6082 0.0038 0.7938
vn -0.2107 0.8992 0.3835
vn -0.6082 0.0038 0.7938
vn 0.2221 0.9647 0.1412
vn 0.7657 -0.4396 -0.4696
vn 0.3300 -0.9100 -0.2511
vn 0.7428 -0.2169 -0.6333
vn 0.8909 -0.4162 0.1816
vn 0.7428 -0.2169 -0.6333
vn 0.3300 -0.9100 -0.2511
vn -0.8363 0.1311 -0.5324
vn -0.2652 0.9605 0.0844
vn -0.7661 -0.3373 0.5470
vn -0.1668 -0.9845 0.0543
vn -0.8363 0.1311 -0.5324
vn -0.7661 -0.3373 0.5470
vn 0.8218 0.0178 -0.5695
vn 0.9587 -0.1108 0.2620
vn 0.7657 -0.4396 -0.4696
vn 0.2221 0.9647 0.1412
vn 0.9587 -0.1108 0.2620
vn 0.8218 0.0178 -0.5695
vn 0.4860 0.7975 0.3575
vn 0.9252 -0.2724 0.2643
vn 0.7089 -0.2056 -0.6747
vn 0.4860 0.7975 0.3575
vn 0.4490 -0.6750 0.5855
vn 0.9252 -0.2724 0.2643
vn -0.5700 -0.1491 -0.8080
vn 0.3245 0.8852 -0.3335
vn 0.4588 -0.2921 -0.8391
vn 0.3245 0.8852 -0.3335
vn 0.9115 -0.2315 -0.3399
vn 0.4588 -0.2921 -0.8391
vn -0.2436 -0.9220 0.3010
vn 0.9587 -0.1108 0.2620
vn -0.1739 -0.9355 0.3077
vn -0.2436 -0.9220 0.3010
vn -0.1739 -0.9355 0.3077
vn -0.6082 0.0038 0.7938
vn 0.2603 -0.9459 0.1936
vn 0.4729 -0.1521 0.8679
vn 0.2263 -0.8980 0.3774
vn 0.2263 -0.8980 0.3774
vn 0.4729 -0.1521 0.8679
vn 0.1181 -0.9925 0.0317
vn 0.3735 0.7808 0.5009
vn -0.2345 -0.1553 0.9596
vn 0.5318 -0.5628 0.6328
vn -0.9170 -0.1764 0.3576
vn 0.5318 -0.5628 0.6328
vn -0.2345 -0.1553 0.9596
vn -0.0453 0.7639 -0.6438
vn 0.7089 -0.2056 -0.6747
vn -0.1498 -0.5472 -0.8235
vn -0.0453 0.7639 -0.6438
vn 0.4860 0.7975 0.3575
vn 0.7089 -0.2056 -0.6747
vn -0.2910 -0.0470 0.9556
vn -0.1475 -0.9235 0.3540
vn -0.1161 -0.8797 0.4612
vn -0.2910 -0.0470 0.9556
vn -0.3880 -0.8659 0.3159
vn -0.1475 -0.9235 0.3540
vn -0.6643 -0.1608 0.7300
vn 0.0493 -0.3772 0.9248
vn -0.0059 -0.9887 0.1498
vn 0.0493 -0.3772 0.9248
vn -0.6643 -0.1608 0.7300
vn 0.0066 0.9494 0.3140
vn -0.3976 -0.9140 -0.0814
vn -0.9722 0.1931 0.1328
vn -0.9702 -0.1364 -0.2002
vn -0.3976 -0.9140 -0.0814
vn -0.9767 -0.0247 -0.2130
vn -0.9722 0.1931 0.1328
vn 0.1250 -0.1287 -0.9838
vn -0.9979 0.0283 -0.0577
vn -0.5974 0.0128 -0.8018
vn 0.1250 -0.1287 -0.9838
vn -0.5974 0.0128 -0.8018
vn 0.4167 0.1417 -0.8979
vn -0.2910 -0.0470 0.9556
vn -0.1161 -0.8797 0.4612
vn -0.2446 -0.0270 0.9692
vn -0.2446 -0.0270 0.9692
vn -0.1161 -0.8797 0.4612
vn -0.7661 -0.3373 0.5470
vn 0.9762 -0.1717 0.1328
vn 0.4246 -0.9041 -0.0480
vn 0.9840 -0.1316 -0.1203
vn 0.9840 -0.1316 -0.1203
vn 0.4246 -0.9041 -0.0480
vn 0.9115 -0.2315 -0.3399
vn 0.1882 0.9184 -0.3481
vn -0.1867 -0.1054 -0.9767
vn 0.6176 -0.2750 -0.7369
vn -0.1867 -0.1054 -0.9767
vn 0.1107 -0.9772 -0.1813
vn 0.6176 -0.2750 -0.7369
vn 0.6176 -0.2750 -0.7369
vn 0.3486 -0.9348 -0.0682
vn 0.9656 -0.1992 -0.1670
vn 0.9656 -0.1992 -0.1670
vn 0.3486 -0.9348 -0.0682
vn 0.9762 -0.1717 0.1328
vn -0.5700 -0.1491 -0.8080
vn -0.9702 -0.1364 -0.2002
vn 0.3245 0.8852 -0.3335
vn 0.4588 -0.2921 -0.8391
vn -0.9702 -0.1364 -0.2002
vn -0.5700 -0.1491 -0.8080
vn 0.2603 -0.9459 0.1936
vn 0.6478 0.0392 0.7608
vn 0.7046 -0.1881 0.6842
vn 0.6478 0.0392 0.7608
vn 0.3483 0.7977 0.4924
vn 0.7046 -0.1881 0.6842
vn 0.1250 -0.1287 -0.9838
vn -0.3880 -0.8659 0.3159
vn -0.9979 0.0283 -0.0577
vn -0.3880 -0.8659 0.3159
vn -0.5776 -0.0566 0.8143
vn -0.9979 0.0283 -0.0577
# 564 vertex normals

vt 0.1306 0.5354 0.0000
vt 0.0080 0.5715 0.0000
vt 0.1307 0.5433 0.0000
vt 0.0547 0.4385 0.0000
vt 0.1970 0.4508 0.0000
vt 0.1385 0.5906 0.0000
vt 0.1970 0.4508 0.0000
vt 0.1132 0.5365 0.0000
vt 0.1574 0.5379 0.0000
vt 0.1176 0.5435 0.0000
vt 0.1209 0.5881 0.0000
vt 0.1167 0.6470 0.0000
vt 0.1167 0.6470 0.0000
vt 0.0745 0.4897 0.0000
vt 0.0547 0.4385 0.0000
vt 0.1240 0.5193 0.0000
vt 0.1132 0.5508 0.0000
vt 0.1132 0.5508 0.0000
vt 0.0304 0.5503 0.0000
vt 0.0304 0.5503 0.0000
vt 0.1733 0.5769 0.0000
vt 0.2157 0.5985 0.0000
vt 0.1733 0.5769 0.0000
vt 0.1237 0.5280 0.0000
vt 0.2007 0.4536 0.0000
vt 0.2007 0.4536 0.0000
vt 0.0288 0.5615 0.0000
vt 0.1574 0.5379 0.0000
vt 0.1307 0.5353 0.0000
vt 0.1493 0.5486 0.0000
vt 0.2207 0.5977 0.0000
vt 0.0765 0.4888 0.0000
vt 0.0856 0.4819 0.0000
vt 0.1140 0.5365 0.0000
vt 0.1864 0.4775 0.0000
vt 0.1864 0.4775 0.0000
vt 0.1489 0.5504 0.0000
vt 0.1559 0.5442 0.0000
vt 0.0856 0.4849 0.0000
vt 0.1679 0.4829 0.0000
vt 0.0884 0.5592 0.0000
vt 0.0770 0.5466 0.0000
vt 0.1255 0.5859 0.0000
vt 0.1864 0.4561 0.0000
vt 0.1864 0.4561 0.0000
vt 0.1338 0.5898 0.0000
vt 0.0321 0.5603 0.0000
vt 0.1830 0.5645 0.0000
vt 0.1830 0.5645 0.0000
vt 0.1099 0.6440 0.0000
vt 0.1660 0.4968 0.0000
vt 0.1686 0.4810 0.0000
vt 0.0519 0.4409 0.0000
vt 0.0519 0.4409 0.0000
vt 0.0809 0.5461 0.0000
vt 0.2217 0.5938 0.0000
vt 0.2207 0.5977 0.0000
vt 0.2217 0.5938 0.0000
vt 0.0167 0.5576 0.0000
vt 0.0167 0.5576 0.0000
vt 0.0066 0.5686 0.0000
vt 0.0066 0.5686 0.0000
vt 0.1064 0.5337 0.0000
vt 0.1233 0.5278 0.0000
vt 0.0898 0.5536 0.0000
vt 0.1848 0.5719 0.0000
vt 0.1339 0.5883 0.0000
vt 0.1344 0.5498 0.0000
vt 0.1949 0.5908 0.0000
vt 0.1949 0.5908 0.0000
vt 0.1685 0.4936 0.0000
vt 0.1050 0.5298 0.0000
vt 0.1064 0.5337 0.0000
vt 0.1050 0.5298 0.0000
vt 0.1774 0.5757 0.0000
vt 0.1969 0.4551 0.0000
vt 0.1248 0.5806 0.0000
vt 0.1737 0.5613 0.0000
vt 0.0268 0.5561 0.0000
vt 0.2156 0.5964 0.0000
vt 0.1307 0.6177 0.0000
vt 0.1307 0.6177 0.0000
vt 0.1170 0.5437 0.0000
vt 0.1279 0.5493 0.0000
vt 0.0595 0.4438 0.0000
vt 0.1383 0.5327 0.0000
vt 0.1383 0.5327 0.0000
vt 0.0783 0.5417 0.0000
vt 0.0783 0.5417 0.0000
vt 0.0355 0.5632 0.0000
vt 0.0355 0.5632 0.0000
vt 0.0556 0.4473 0.0000
vt 0.0122 0.5717 0.0000
vt 0.0080 0.5715 0.0000
vt 0.1714 0.4979 0.0000
vt 0.1714 0.4979 0.0000
vt 0.2180 0.5925 0.0000
vt 0.1180 0.5136 0.0000
vt 0.1240 0.5193 0.0000
vt 0.1180 0.5136 0.0000
vt 0.1382 0.5503 0.0000
vt 0.1344 0.5498 0.0000
vt 0.1382 0.5503 0.0000
vt 0.1169 0.6438 0.0000
vt 0.1879 0.4595 0.0000
vt 0.0596 0.4407 0.0000
vt 0.1537 0.5422 0.0000
vt 0.1385 0.5906 0.0000
vt 0.1987 0.4595 0.0000
vt 0.0323 0.5537 0.0000
vt 0.1718 0.5503 0.0000
vt 0.1718 0.5503 0.0000
vt 0.1548 0.4897 0.0000
vt 0.1548 0.4897 0.0000
vt 0.1381 0.5691 0.0000
vt 0.1381 0.5691 0.0000
vt 0.0126 0.5641 0.0000
vt 0.1582 0.4951 0.0000
vt 0.1337 0.5527 0.0000
vt 0.1337 0.5527 0.0000
vt 0.1121 0.6472 0.0000
vt 0.1121 0.6472 0.0000
vt 0.0884 0.5592 0.0000
vt 0.1282 0.5505 0.0000
vt 0.2029 0.5796 0.0000
vt 0.2029 0.5796 0.0000
vt 0.0784 0.5553 0.0000
vt 0.1209 0.5881 0.0000
vt 0.1326 0.5679 0.0000
vt 0.1879 0.4595 0.0000
vt 0.1306 0.5433 0.0000
vt 0.1099 0.6440 0.0000
vt 0.1288 0.5151 0.0000
vt 0.1288 0.5151 0.0000
vt 0.0211 0.5676 0.0000
vt 0.0211 0.5676 0.0000
vt 0.1181 0.5708 0.0000
vt 0.1181 0.5708 0.0000
# 138 texture coords

o SM_Starfish_02_LOD1
g SM_Starfish_02_LOD1
usemtl MAT_Sea_Shells
s 1
f 234/311/1387 260/334/1388 290/428/1389 
f 280/361/1390 310/406/1391 257/396/1392 
f 282/324/1393 289/374/1394 274/343/1395 
f 260/334/1396 252/342/1397 249/349/1398 
f 303/393/1399 321/387/1400 326/434/1401 
f 247/439/1402 264/394/1403 304/430/1404 
f 285/441/1405 294/340/1406 325/413/1407 
f 239/319/1408 234/311/1409 257/396/1410 
f 306/388/1411 267/347/1412 281/331/1413 
f 294/340/1414 281/333/1415 267/347/1416 
f 241/328/1417 250/320/1418 266/353/1419 
f 251/351/1420 250/320/1421 241/328/1422 
f 288/344/1423 252/342/1424 260/334/1425 
f 258/365/1426 323/399/1427 261/373/1428 
f 280/361/1429 243/362/1430 292/386/1431 
f 300/339/1432 297/381/1433 272/350/1434 
f 262/435/1435 306/388/1436 240/380/1437 
f 269/385/1438 253/376/1439 318/390/1440 
f 289/374/1441 293/318/1442 287/313/1443 
f 272/350/1444 289/374/1445 300/339/1446 
f 301/389/1447 258/365/1448 298/357/1449 
f 303/393/1450 279/352/1451 305/437/1452 
f 247/439/1453 266/353/1454 264/394/1455 
f 314/414/1456 266/353/1457 284/356/1458 
f 321/387/1459 248/323/1460 324/377/1461 
f 321/387/1462 324/377/1463 326/434/1464 
f 249/349/1465 252/342/1466 302/402/1467 
f 249/349/1468 274/343/1469 307/410/1470 
f 260/334/1471 234/311/1472 250/320/1473 
f 266/353/1474 250/320/1475 264/394/1476 
f 258/365/1477 277/375/1478 298/357/1479 
f 305/437/1480 279/352/1481 273/337/1482 
f 311/384/1483 252/342/1484 288/344/1485 
f 282/324/1486 293/318/1487 289/374/1488 
f 239/319/1489 271/348/1490 234/311/1491 
f 262/436/1492 253/376/1493 275/359/1494 
f 272/350/1495 297/381/1496 278/336/1497 
f 280/361/1498 292/386/1499 254/345/1500 
f 284/356/1501 255/316/1502 291/392/1503 
f 247/439/1504 304/430/1505 299/426/1506 
f 301/389/1507 298/357/1508 296/371/1509 
f 319/420/1510 329/427/1511 273/337/1512 
f 300/339/1513 289/374/1514 287/313/1515 
f 316/417/1516 300/339/1517 267/347/1518 
f 258/365/1519 261/373/1520 288/344/1521 
f 258/365/1522 288/344/1523 277/375/1524 
f 320/444/1525 259/424/1526 290/428/1527 
f 263/355/1528 243/362/1529 259/424/1530 
f 290/428/1531 260/334/1532 320/444/1533 
f 260/334/1534 249/349/1535 307/410/1536 
f 287/313/1537 293/318/1538 303/393/1539 
f 293/318/1540 279/352/1541 303/393/1542 
f 262/435/1543 240/380/1544 308/332/1545 
f 262/436/1546 313/407/1547 253/376/1548 
f 292/386/1549 243/362/1550 309/415/1551 
f 263/354/1552 315/440/1553 236/317/1554 
f 285/441/1555 234/311/1556 294/340/1557 
f 250/320/1558 234/311/1559 285/441/1560 
f 249/349/1561 265/395/1562 274/343/1563 
f 302/402/1564 282/324/1565 295/363/1566 
f 286/321/1567 266/353/1568 270/360/1569 
f 241/328/1570 266/353/1571 238/448/1572 
f 294/340/1573 267/347/1574 325/413/1575 
f 300/339/1576 287/313/1577 267/347/1578 
f 329/427/1579 242/329/1580 268/370/1581 
f 301/389/1582 242/330/1583 258/365/1584 
f 294/340/1585 269/385/1586 281/333/1587 
f 269/385/1588 308/332/1589 240/379/1590 
f 321/387/1591 270/442/1592 248/323/1593 
f 270/360/1594 266/353/1595 314/414/1596 
f 275/359/1597 253/376/1598 271/348/1599 
f 234/311/1600 271/348/1601 294/340/1602 
f 272/350/1603 259/423/1604 320/443/1605 
f 272/350/1606 263/354/1607 259/423/1608 
f 273/337/1609 322/403/1610 276/445/1611 
f 305/437/1612 273/337/1613 246/401/1614 
f 265/395/1615 317/416/1616 274/343/1617 
f 282/324/1618 274/343/1619 295/364/1620 
f 306/388/1621 316/417/1622 267/347/1623 
f 328/422/1624 271/348/1625 239/319/1626 
f 298/357/1627 277/375/1628 246/400/1629 
f 273/337/1630 276/445/1631 246/401/1632 
f 277/375/1633 250/320/1634 251/351/1635 
f 246/400/1636 277/375/1637 251/351/1638 
f 236/317/1639 315/440/1640 278/336/1641 
f 292/386/1642 263/355/1643 236/315/1644 
f 258/365/1645 242/330/1646 323/399/1647 
f 279/352/1648 319/420/1649 273/337/1650 
f 257/396/1651 234/311/1652 280/361/1653 
f 290/428/1654 280/361/1655 234/311/1656 
f 306/388/1657 281/331/1658 240/380/1659 
f 269/385/1660 240/379/1661 281/333/1662 
f 302/402/1663 252/342/1664 282/324/1665 
f 282/324/1666 252/342/1667 311/384/1668 
f 253/376/1669 313/407/1670 318/390/1671 
f 244/366/1672 262/435/1673 308/332/1674 
f 284/356/1675 266/353/1676 247/439/1677 
f 284/356/1678 247/439/1679 299/426/1680 
f 264/394/1681 285/441/1682 235/378/1683 
f 264/394/1684 250/320/1685 285/441/1686 
f 238/448/1687 266/353/1688 286/321/1689 
f 321/387/1690 241/328/1691 238/447/1692 
f 267/347/1693 287/313/1694 325/411/1695 
f 264/394/1696 235/378/1697 304/430/1698 
f 288/344/1699 250/320/1700 277/375/1701 
f 288/344/1702 260/334/1703 250/320/1704 
f 320/443/1705 289/374/1706 272/350/1707 
f 260/334/1708 307/410/1709 245/326/1710 
f 290/428/1711 243/362/1712 280/361/1713 
f 259/424/1714 243/362/1715 290/428/1716 
f 314/414/1717 284/356/1718 291/392/1719 
f 324/377/1720 248/323/1721 291/391/1722 
f 292/386/1723 312/419/1724 254/345/1725 
f 292/386/1726 236/315/1727 278/335/1728 
f 282/324/1729 311/384/1730 293/318/1731 
f 261/383/1732 279/352/1733 293/318/1734 
f 294/340/1735 253/376/1736 269/385/1737 
f 271/348/1738 253/376/1739 294/340/1740 
f 295/364/1741 274/343/1742 317/416/1743 
f 302/402/1744 295/363/1745 237/314/1746 
f 296/371/1747 298/357/1748 256/312/1749 
f 273/337/1750 329/427/1751 322/403/1752 
f 280/361/1753 254/345/1754 310/406/1755 
f 278/336/1756 297/381/1757 254/346/1758 
f 256/312/1759 298/357/1760 276/446/1761 
f 276/446/1762 298/357/1763 246/400/1764 
f 326/434/1765 324/377/1766 299/425/1767 
f 284/356/1768 299/426/1769 255/316/1770 
f 297/381/1771 300/339/1772 257/397/1773 
f 300/339/1774 239/338/1775 257/397/1776 
f 268/369/1777 301/389/1778 296/371/1779 
f 242/330/1780 301/389/1781 268/369/1782 
f 302/402/1783 237/314/1784 265/395/1785 
f 249/349/1786 302/402/1787 265/395/1788 
f 303/393/1789 241/328/1790 321/387/1791 
f 303/393/1792 251/433/1793 241/327/1794 
f 303/393/1795 326/434/1796 287/313/1797 
f 287/313/1798 326/434/1799 235/412/1800 
f 303/393/1801 305/437/1802 251/433/1803 
f 305/437/1804 246/401/1805 251/433/1806 
f 306/388/1807 328/421/1808 239/338/1809 
f 262/435/1810 275/358/1811 306/388/1812 
f 307/408/1813 289/374/1814 245/409/1815 
f 274/343/1816 289/374/1817 307/408/1818 
f 244/366/1819 308/332/1820 283/367/1821 
f 269/385/1822 318/390/1823 308/332/1824 
f 309/415/1825 243/362/1826 263/355/1827 
f 309/415/1828 263/355/1829 292/386/1830 
f 254/346/1831 297/381/1832 310/405/1833 
f 257/397/1834 310/405/1835 297/381/1836 
f 311/384/1837 288/344/1838 261/373/1839 
f 293/318/1840 311/382/1841 261/383/1842 
f 312/419/1843 278/336/1844 254/346/1845 
f 292/386/1846 278/335/1847 312/419/1848 
f 313/407/1849 244/368/1850 283/341/1851 
f 313/407/1852 262/436/1853 244/368/1854 
f 327/432/1855 314/414/1856 248/322/1857 
f 314/414/1858 291/392/1859 248/322/1860 
f 272/350/1861 278/336/1862 315/440/1863 
f 272/350/1864 315/440/1865 263/354/1866 
f 306/388/1867 239/338/1868 316/417/1869 
f 316/417/1870 239/338/1871 300/339/1872 
f 265/395/1873 237/314/1874 317/416/1875 
f 295/364/1876 317/416/1877 237/325/1878 
f 318/390/1879 283/341/1880 308/332/1881 
f 318/390/1882 313/407/1883 283/341/1884 
f 242/329/1885 319/420/1886 279/352/1887 
f 242/329/1888 329/427/1889 319/420/1890 
f 320/443/1891 245/409/1892 289/374/1893 
f 245/326/1894 320/444/1895 260/334/1896 
f 321/387/1897 286/438/1898 270/360/1899 
f 321/387/1900 238/447/1901 286/438/1902 
f 322/403/1903 296/372/1904 256/404/1905 
f 322/403/1906 256/312/1907 276/446/1908 
f 242/329/1909 279/352/1910 323/398/1911 
f 323/399/1912 279/352/1913 261/383/1914 
f 299/425/1915 324/377/1916 255/418/1917 
f 255/418/1918 324/377/1919 291/391/1920 
f 285/441/1921 325/413/1922 235/378/1923 
f 325/411/1924 287/313/1925 235/412/1926 
f 235/412/1927 326/434/1928 304/429/1929 
f 304/429/1930 326/434/1931 299/425/1932 
f 327/432/1933 270/360/1934 314/414/1935 
f 248/323/1936 270/442/1937 327/431/1938 
f 306/388/1939 275/358/1940 328/421/1941 
f 275/359/1942 271/348/1943 328/422/1944 
f 322/403/1945 329/427/1946 296/372/1947 
f 329/427/1948 268/370/1949 296/372/1950 
# 188 faces

