# 3ds Max Wavefront OBJ Exporter v0.97b - (c)2007 guruware
# File Created: 10.02.2024 08:45:39

mtllib SM_Sand_Dollar_03.mtl

#
# object SM_Sand_Dollar_03_LOD0
#

v  15.7645 1.2583 7.7567
v  15.7645 1.2011 -6.0437
v  3.2509 1.2886 15.0548
v  4.9479 1.1637 -15.0548
v  -6.2831 1.1637 -15.0548
v  -15.7645 1.1954 -7.4181
v  -15.7645 1.2544 6.8231
v  -8.6340 1.2886 15.0548
v  -14.8253 1.1945 -2.6499
v  -14.9686 1.1950 0.2106
v  -14.4371 1.1950 3.5113
v  -13.9342 0.6296 3.3803
v  -13.2481 0.5493 6.2882
v  -12.4174 0.4759 8.2841
v  -12.7412 1.1935 8.6575
v  -10.6273 0.3535 10.8004
v  -8.0944 0.3346 12.8837
v  -10.8242 1.1930 11.2764
v  -8.1679 1.2073 13.3997
v  -4.4584 1.2473 14.5430
v  -1.7837 1.2598 14.0876
v  0.1165 0.5511 14.1805
v  3.7270 0.6214 13.1558
v  9.7651 1.2870 10.5504
v  9.3022 0.6754 10.1858
v  12.2058 1.2625 7.5002
v  14.2525 0.5722 3.3785
v  14.9901 0.5380 0.0262
v  14.9821 1.1950 -2.0081
v  13.4249 0.5438 -4.2324
v  12.4250 1.1942 -6.8143
v  10.4593 1.1936 -9.0851
v  11.9637 0.5540 -6.5040
v  8.4700 0.5647 -10.2769
v  8.7357 1.1939 -10.7722
v  3.4799 0.5221 -13.0345
v  -1.4084 0.4642 -13.4201
v  -8.0092 0.3739 -10.9597
v  -11.2872 1.1930 -9.0891
v  -13.0531 0.5065 -5.7010
v  -10.7987 0.4316 -8.7502
v  -5.5123 0.3848 -12.7044
v  5.8697 0.5620 -12.1850
v  10.0919 0.5661 -8.6916
v  14.4332 0.5367 -1.9040
v  -0.4349 0.0000 0.2420
v  11.6680 0.6467 7.2252
v  6.0421 0.6556 11.8856
v  -1.9183 0.4877 13.5741
v  -4.5489 0.4455 14.0159
v  -14.4130 0.6296 0.1872
v  -14.2182 0.5893 -2.5296
v  -14.2182 1.8110 -2.5296
v  -13.5862 1.1931 -5.9488
v  -8.4120 1.1939 -11.3732
v  -5.8031 1.1951 -13.1331
v  -5.5123 2.0465 -12.7044
v  -1.5217 1.1934 -13.8926
v  -1.4084 1.9361 -13.4201
v  3.4664 1.1940 -13.5327
v  6.0143 1.1943 -12.7122
v  5.8697 1.8383 -12.1850
v  11.9637 1.8424 -6.5040
v  13.9486 1.1941 -4.4464
v  14.4332 1.8690 -1.9040
v  14.9901 1.8796 0.0262
v  15.5315 1.2016 0.0102
v  14.8158 1.2226 3.4960
v  14.2525 1.8847 3.3785
v  11.6680 1.8876 7.2252
v  9.3022 1.9052 10.1858
v  6.4138 1.2956 12.3289
v  6.0421 1.9420 11.8856
v  4.0316 1.2932 13.6280
v  3.7270 1.9751 13.1558
v  0.3063 1.2790 14.6336
v  -1.9183 2.0589 13.5741
v  -10.6273 2.0464 10.8004
v  -12.4174 1.9244 8.2841
v  -13.6124 1.1942 6.5737
v  -13.2481 1.8509 6.2882
v  -13.9342 1.7706 3.3803
v  -14.4130 1.7706 0.1872
v  -8.0944 2.0940 12.8837
v  -4.5489 2.0757 14.0159
v  0.1165 2.0311 14.1805
v  13.4249 1.8578 -4.2324
v  10.0919 1.8260 -8.6916
v  8.4700 1.8317 -10.2769
v  3.4799 1.8782 -13.0345
v  -0.4349 2.3996 0.2420
v  -8.0092 2.0480 -10.9597
v  -10.7987 1.9765 -8.7502
v  -13.0531 1.8937 -5.7010
# 94 vertices

vn -0.0000 1.0000 -0.0041
vn 0.0000 1.0000 -0.0041
vn 0.0000 1.0000 -0.0041
vn -0.0000 1.0000 -0.0041
vn 0.0000 1.0000 -0.0041
vn -0.0000 1.0000 -0.0041
vn 0.0000 1.0000 -0.0041
vn 0.0000 1.0000 -0.0041
vn -0.0000 1.0000 -0.0041
vn 0.0000 1.0000 -0.0041
vn 0.0000 1.0000 -0.0041
vn 0.0000 1.0000 -0.0041
vn 0.0000 1.0000 -0.0041
vn 0.0000 1.0000 -0.0041
vn 0.0000 1.0000 -0.0041
vn 0.0000 1.0000 -0.0041
vn 0.0000 1.0000 -0.0041
vn 0.0000 1.0000 -0.0041
vn -0.8864 -0.0048 -0.4628
vn -0.4202 -0.9041 -0.0779
vn -0.9792 -0.0042 -0.2027
vn -0.4202 -0.9041 -0.0779
vn -0.9987 -0.0043 0.0515
vn -0.9792 -0.0042 -0.2027
vn -0.4202 -0.9041 -0.0779
vn -0.4293 -0.9028 0.0252
vn -0.9987 -0.0043 0.0515
vn -0.4293 -0.9028 0.0252
vn -0.9829 -0.0044 0.1839
vn -0.9987 -0.0043 0.0515
vn -0.4276 -0.9013 0.0696
vn -0.9829 -0.0044 0.1839
vn -0.4293 -0.9028 0.0252
vn -0.4276 -0.9013 0.0696
vn -0.4827 -0.8651 0.1362
vn -0.9829 -0.0044 0.1839
vn -0.4827 -0.8651 0.1362
vn -0.9470 -0.0041 0.3213
vn -0.9829 -0.0044 0.1839
vn -0.4827 -0.8651 0.1362
vn -0.4682 -0.8552 0.2225
vn -0.9470 -0.0041 0.3213
vn -0.4682 -0.8552 0.2225
vn -0.8726 -0.0040 0.4885
vn -0.9470 -0.0041 0.3213
vn -0.4682 -0.8552 0.2225
vn -0.4091 -0.8408 0.3545
vn -0.8726 -0.0040 0.4885
vn -0.4091 -0.8408 0.3545
vn -0.7164 -0.0043 0.6977
vn -0.8726 -0.0040 0.4885
vn -0.4091 -0.8408 0.3545
vn -0.2635 -0.8332 0.4861
vn -0.7164 -0.0043 0.6977
vn -0.2635 -0.8332 0.4861
vn -0.4507 -0.0052 0.8926
vn -0.7164 -0.0043 0.6977
vn -0.2635 -0.8332 0.4861
vn -0.0332 -0.8386 0.5437
vn -0.4507 -0.0052 0.8926
vn -0.0332 -0.8386 0.5437
vn -0.0463 -0.0066 0.9989
vn -0.4507 -0.0052 0.8926
vn -0.0332 -0.8386 0.5437
vn 0.0036 -0.8994 0.4371
vn -0.0463 -0.0066 0.9989
vn 0.0036 -0.8994 0.4371
vn -0.0785 -0.0098 0.9969
vn -0.0463 -0.0066 0.9989
vn 0.0036 -0.8994 0.4371
vn -0.0032 -0.8280 0.5607
vn -0.0785 -0.0098 0.9969
vn -0.0032 -0.8280 0.5607
vn 0.0455 -0.0064 0.9989
vn -0.0785 -0.0098 0.9969
vn -0.0032 -0.8280 0.5607
vn 0.1837 -0.8803 0.4373
vn 0.0455 -0.0064 0.9989
vn 0.1837 -0.8803 0.4373
vn 0.3851 -0.0030 0.9229
vn 0.0455 -0.0064 0.9989
vn 0.1837 -0.8803 0.4373
vn 0.2096 -0.9016 0.3783
vn 0.3851 -0.0030 0.9229
vn 0.2096 -0.9016 0.3783
vn 0.4731 -0.0017 0.8810
vn 0.3851 -0.0030 0.9229
vn 0.2096 -0.9016 0.3783
vn 0.2842 -0.8880 0.3615
vn 0.4731 -0.0017 0.8810
vn 0.2842 -0.8880 0.3615
vn 0.6505 -0.0013 0.7595
vn 0.4731 -0.0017 0.8810
vn 0.2842 -0.8880 0.3615
vn 0.3323 -0.9071 0.2583
vn 0.6505 -0.0013 0.7595
vn 0.3323 -0.9071 0.2583
vn 0.8063 -0.0027 0.5915
vn 0.6505 -0.0013 0.7595
vn 0.3323 -0.9071 0.2583
vn 0.4258 -0.8831 0.1969
vn 0.8063 -0.0027 0.5915
vn 0.4258 -0.8831 0.1969
vn 0.9270 -0.0040 0.3751
vn 0.8063 -0.0027 0.5915
vn 0.4258 -0.8831 0.1969
vn 0.4896 -0.8719 -0.0119
vn 0.9270 -0.0040 0.3751
vn 0.4896 -0.8719 -0.0119
vn 0.9995 -0.0053 -0.0314
vn 0.9270 -0.0040 0.3751
vn 0.4896 -0.8719 -0.0119
vn 0.9441 -0.0063 -0.3297
vn 0.9995 -0.0053 -0.0314
vn 0.4896 -0.8719 -0.0119
vn 0.4245 -0.8924 -0.1531
vn 0.9441 -0.0063 -0.3297
vn 0.4245 -0.8924 -0.1531
vn 0.8836 -0.0051 -0.4682
vn 0.9441 -0.0063 -0.3297
vn 0.4245 -0.8924 -0.1531
vn 0.3947 -0.8934 -0.2148
vn 0.8836 -0.0051 -0.4682
vn 0.3947 -0.8934 -0.2148
vn 0.8004 -0.0031 -0.5994
vn 0.8836 -0.0051 -0.4682
vn 0.3947 -0.8934 -0.2148
vn 0.3563 -0.8944 -0.2705
vn 0.8004 -0.0031 -0.5994
vn 0.3563 -0.8944 -0.2705
vn 0.7282 -0.0022 -0.6853
vn 0.8004 -0.0031 -0.5994
vn 0.3250 -0.8950 -0.3056
vn 0.7282 -0.0022 -0.6853
vn 0.3563 -0.8944 -0.2705
vn 0.3250 -0.8950 -0.3056
vn 0.2916 -0.8947 -0.3384
vn 0.7282 -0.0022 -0.6853
vn 0.2916 -0.8947 -0.3384
vn 0.6421 -0.0034 -0.7666
vn 0.7282 -0.0022 -0.6853
vn 0.2916 -0.8947 -0.3384
vn 0.2284 -0.8833 -0.4094
vn 0.6421 -0.0034 -0.7666
vn 0.2284 -0.8833 -0.4094
vn 0.4539 -0.0042 -0.8910
vn 0.6421 -0.0034 -0.7666
vn 0.2284 -0.8833 -0.4094
vn 0.1115 -0.8690 -0.4821
vn 0.4539 -0.0042 -0.8910
vn 0.1115 -0.8690 -0.4821
vn 0.1884 -0.0041 -0.9821
vn 0.4539 -0.0042 -0.8910
vn 0.1115 -0.8690 -0.4821
vn -0.0107 -0.8560 -0.5169
vn 0.1884 -0.0041 -0.9821
vn -0.0107 -0.8560 -0.5169
vn -0.0515 -0.0047 -0.9987
vn 0.1884 -0.0041 -0.9821
vn -0.0107 -0.8560 -0.5169
vn -0.1931 -0.8411 -0.5053
vn -0.0515 -0.0047 -0.9987
vn -0.1931 -0.8411 -0.5053
vn -0.3929 -0.0100 -0.9195
vn -0.0515 -0.0047 -0.9987
vn -0.1931 -0.8411 -0.5053
vn -0.2890 -0.8762 -0.3856
vn -0.3929 -0.0100 -0.9195
vn -0.2890 -0.8762 -0.3856
vn -0.5964 -0.0091 -0.8026
vn -0.3929 -0.0100 -0.9195
vn -0.2890 -0.8762 -0.3856
vn -0.3536 -0.8752 -0.3300
vn -0.5964 -0.0091 -0.8026
vn -0.3536 -0.8752 -0.3300
vn -0.7295 -0.0064 -0.6840
vn -0.5964 -0.0091 -0.8026
vn -0.3536 -0.8752 -0.3300
vn -0.4154 -0.8858 -0.2069
vn -0.7295 -0.0064 -0.6840
vn -0.4154 -0.8858 -0.2069
vn -0.8864 -0.0048 -0.4628
vn -0.7295 -0.0064 -0.6840
vn -0.4154 -0.8858 -0.2069
vn -0.4202 -0.9041 -0.0779
vn -0.8864 -0.0048 -0.4628
vn -0.4154 -0.8858 -0.2069
vn 0.0037 -1.0000 0.0020
vn -0.4202 -0.9041 -0.0779
vn -0.3536 -0.8752 -0.3300
vn 0.0037 -1.0000 0.0020
vn -0.4154 -0.8858 -0.2069
vn -0.2890 -0.8762 -0.3856
vn 0.0037 -1.0000 0.0020
vn -0.3536 -0.8752 -0.3300
vn -0.1931 -0.8411 -0.5053
vn 0.0037 -1.0000 0.0020
vn -0.2890 -0.8762 -0.3856
vn -0.0107 -0.8560 -0.5169
vn 0.0037 -1.0000 0.0020
vn -0.1931 -0.8411 -0.5053
vn 0.1115 -0.8690 -0.4821
vn 0.0037 -1.0000 0.0020
vn -0.0107 -0.8560 -0.5169
vn 0.2284 -0.8833 -0.4094
vn 0.0037 -1.0000 0.0020
vn 0.1115 -0.8690 -0.4821
vn 0.2916 -0.8947 -0.3384
vn 0.0037 -1.0000 0.0020
vn 0.2284 -0.8833 -0.4094
vn 0.3250 -0.8950 -0.3056
vn 0.0037 -1.0000 0.0020
vn 0.2916 -0.8947 -0.3384
vn 0.3563 -0.8944 -0.2705
vn 0.0037 -1.0000 0.0020
vn 0.3250 -0.8950 -0.3056
vn 0.3947 -0.8934 -0.2148
vn 0.0037 -1.0000 0.0020
vn 0.3563 -0.8944 -0.2705
vn 0.4245 -0.8924 -0.1531
vn 0.0037 -1.0000 0.0020
vn 0.3947 -0.8934 -0.2148
vn 0.4896 -0.8719 -0.0119
vn 0.0037 -1.0000 0.0020
vn 0.4245 -0.8924 -0.1531
vn 0.4258 -0.8831 0.1969
vn 0.0037 -1.0000 0.0020
vn 0.4896 -0.8719 -0.0119
vn 0.3323 -0.9071 0.2583
vn 0.0037 -1.0000 0.0020
vn 0.4258 -0.8831 0.1969
vn 0.2842 -0.8880 0.3615
vn 0.0037 -1.0000 0.0020
vn 0.3323 -0.9071 0.2583
vn 0.2096 -0.9016 0.3783
vn 0.0037 -1.0000 0.0020
vn 0.2842 -0.8880 0.3615
vn 0.1837 -0.8803 0.4373
vn 0.0037 -1.0000 0.0020
vn 0.2096 -0.9016 0.3783
vn -0.0032 -0.8280 0.5607
vn 0.0037 -1.0000 0.0020
vn 0.1837 -0.8803 0.4373
vn 0.0036 -0.8994 0.4371
vn 0.0037 -1.0000 0.0020
vn -0.0032 -0.8280 0.5607
vn -0.0332 -0.8386 0.5437
vn 0.0037 -1.0000 0.0020
vn 0.0036 -0.8994 0.4371
vn -0.2635 -0.8332 0.4861
vn 0.0037 -1.0000 0.0020
vn -0.0332 -0.8386 0.5437
vn -0.4091 -0.8408 0.3545
vn 0.0037 -1.0000 0.0020
vn -0.2635 -0.8332 0.4861
vn -0.4682 -0.8552 0.2225
vn 0.0037 -1.0000 0.0020
vn -0.4091 -0.8408 0.3545
vn -0.4827 -0.8651 0.1362
vn 0.0037 -1.0000 0.0020
vn -0.4682 -0.8552 0.2225
vn -0.4276 -0.9013 0.0696
vn 0.0037 -1.0000 0.0020
vn -0.4827 -0.8651 0.1362
vn -0.4293 -0.9028 0.0252
vn 0.0037 -1.0000 0.0020
vn -0.4276 -0.9013 0.0696
vn -0.4202 -0.9041 -0.0779
vn 0.0037 -1.0000 0.0020
vn -0.4293 -0.9028 0.0252
vn -0.9987 -0.0043 0.0515
vn -0.4245 0.9020 -0.0790
vn -0.9792 -0.0042 -0.2027
vn -0.4245 0.9020 -0.0790
vn -0.8864 -0.0048 -0.4628
vn -0.9792 -0.0042 -0.2027
vn -0.4245 0.9020 -0.0790
vn -0.4199 0.8832 -0.2088
vn -0.8864 -0.0048 -0.4628
vn -0.4199 0.8832 -0.2088
vn -0.7295 -0.0064 -0.6840
vn -0.8864 -0.0048 -0.4628
vn -0.4199 0.8832 -0.2088
vn -0.3595 0.8717 -0.3330
vn -0.7295 -0.0064 -0.6840
vn -0.3595 0.8717 -0.3330
vn -0.5964 -0.0091 -0.8026
vn -0.7295 -0.0064 -0.6840
vn -0.3595 0.8717 -0.3330
vn -0.2958 0.8719 -0.3903
vn -0.5964 -0.0091 -0.8026
vn -0.2958 0.8719 -0.3903
vn -0.3929 -0.0100 -0.9195
vn -0.5964 -0.0091 -0.8026
vn -0.2958 0.8719 -0.3903
vn -0.1955 0.8360 -0.5127
vn -0.3929 -0.0100 -0.9195
vn -0.1955 0.8360 -0.5127
vn -0.0515 -0.0047 -0.9987
vn -0.3929 -0.0100 -0.9195
vn -0.1955 0.8360 -0.5127
vn -0.0080 0.8533 -0.5213
vn -0.0515 -0.0047 -0.9987
vn -0.0080 0.8533 -0.5213
vn 0.1884 -0.0041 -0.9821
vn -0.0515 -0.0047 -0.9987
vn -0.0080 0.8533 -0.5213
vn 0.1122 0.8668 -0.4859
vn 0.1884 -0.0041 -0.9821
vn 0.1122 0.8668 -0.4859
vn 0.4539 -0.0042 -0.8910
vn 0.1884 -0.0041 -0.9821
vn 0.1122 0.8668 -0.4859
vn 0.2305 0.8812 -0.4128
vn 0.4539 -0.0042 -0.8910
vn 0.2305 0.8812 -0.4128
vn 0.6421 -0.0034 -0.7666
vn 0.4539 -0.0042 -0.8910
vn 0.2305 0.8812 -0.4128
vn 0.2944 0.8932 -0.3400
vn 0.6421 -0.0034 -0.7666
vn 0.2944 0.8932 -0.3400
vn 0.7282 -0.0022 -0.6853
vn 0.6421 -0.0034 -0.7666
vn 0.3266 0.8939 -0.3070
vn 0.7282 -0.0022 -0.6853
vn 0.2944 0.8932 -0.3400
vn 0.3266 0.8939 -0.3070
vn 0.3579 0.8929 -0.2734
vn 0.7282 -0.0022 -0.6853
vn 0.3579 0.8929 -0.2734
vn 0.8004 -0.0031 -0.5994
vn 0.7282 -0.0022 -0.6853
vn 0.3579 0.8929 -0.2734
vn 0.3981 0.8911 -0.2180
vn 0.8004 -0.0031 -0.5994
vn 0.3981 0.8911 -0.2180
vn 0.8836 -0.0051 -0.4682
vn 0.8004 -0.0031 -0.5994
vn 0.3981 0.8911 -0.2180
vn 0.4288 0.8895 -0.1580
vn 0.8836 -0.0051 -0.4682
vn 0.4288 0.8895 -0.1580
vn 0.9441 -0.0063 -0.3297
vn 0.8836 -0.0051 -0.4682
vn 0.4288 0.8895 -0.1580
vn 0.4943 0.8691 -0.0194
vn 0.9441 -0.0063 -0.3297
vn 0.4943 0.8691 -0.0194
vn 0.9995 -0.0053 -0.0314
vn 0.9441 -0.0063 -0.3297
vn 0.4943 0.8691 -0.0194
vn 0.9270 -0.0040 0.3751
vn 0.9995 -0.0053 -0.0314
vn 0.4943 0.8691 -0.0194
vn 0.4318 0.8825 0.1865
vn 0.9270 -0.0040 0.3751
vn 0.4318 0.8825 0.1865
vn 0.8063 -0.0027 0.5915
vn 0.9270 -0.0040 0.3751
vn 0.4318 0.8825 0.1865
vn 0.3383 0.9082 0.2464
vn 0.8063 -0.0027 0.5915
vn 0.3383 0.9082 0.2464
vn 0.6505 -0.0013 0.7595
vn 0.8063 -0.0027 0.5915
vn 0.3383 0.9082 0.2464
vn 0.2875 0.8899 0.3543
vn 0.6505 -0.0013 0.7595
vn 0.2875 0.8899 0.3543
vn 0.4731 -0.0017 0.8810
vn 0.6505 -0.0013 0.7595
vn 0.2875 0.8899 0.3543
vn 0.2089 0.9039 0.3734
vn 0.4731 -0.0017 0.8810
vn 0.2089 0.9039 0.3734
vn 0.3851 -0.0030 0.9229
vn 0.4731 -0.0017 0.8810
vn 0.2089 0.9039 0.3734
vn 0.1805 0.8816 0.4361
vn 0.3851 -0.0030 0.9229
vn 0.1805 0.8816 0.4361
vn 0.0455 -0.0064 0.9989
vn 0.3851 -0.0030 0.9229
vn 0.1805 0.8816 0.4361
vn -0.0111 0.8269 0.5622
vn 0.0455 -0.0064 0.9989
vn -0.0111 0.8269 0.5622
vn -0.0785 -0.0098 0.9969
vn 0.0455 -0.0064 0.9989
vn -0.0111 0.8269 0.5622
vn -0.0090 0.8990 0.4378
vn -0.0785 -0.0098 0.9969
vn -0.0090 0.8990 0.4378
vn -0.0463 -0.0066 0.9989
vn -0.0785 -0.0098 0.9969
vn -0.0090 0.8990 0.4378
vn -0.0463 0.8380 0.5438
vn -0.0463 -0.0066 0.9989
vn -0.0463 0.8380 0.5438
vn -0.4507 -0.0052 0.8926
vn -0.0463 -0.0066 0.9989
vn -0.0463 0.8380 0.5438
vn -0.2764 0.8308 0.4831
vn -0.4507 -0.0052 0.8926
vn -0.2764 0.8308 0.4831
vn -0.7164 -0.0043 0.6977
vn -0.4507 -0.0052 0.8926
vn -0.2764 0.8308 0.4831
vn -0.4142 0.8382 0.3547
vn -0.7164 -0.0043 0.6977
vn -0.4142 0.8382 0.3547
vn -0.8726 -0.0040 0.4885
vn -0.7164 -0.0043 0.6977
vn -0.4142 0.8382 0.3547
vn -0.4712 0.8530 0.2244
vn -0.8726 -0.0040 0.4885
vn -0.4712 0.8530 0.2244
vn -0.9470 -0.0041 0.3213
vn -0.8726 -0.0040 0.4885
vn -0.4712 0.8530 0.2244
vn -0.4861 0.8630 0.1374
vn -0.9470 -0.0041 0.3213
vn -0.4861 0.8630 0.1374
vn -0.9829 -0.0044 0.1839
vn -0.9470 -0.0041 0.3213
vn -0.4317 0.8993 0.0704
vn -0.9829 -0.0044 0.1839
vn -0.4861 0.8630 0.1374
vn -0.4317 0.8993 0.0704
vn -0.4336 0.9008 0.0253
vn -0.9829 -0.0044 0.1839
vn -0.4336 0.9008 0.0253
vn -0.9987 -0.0043 0.0515
vn -0.9829 -0.0044 0.1839
vn -0.4336 0.9008 0.0253
vn -0.4245 0.9020 -0.0790
vn -0.9987 -0.0043 0.0515
vn -0.4336 0.9008 0.0253
vn 0.0013 1.0000 -0.0032
vn -0.4245 0.9020 -0.0790
vn -0.4317 0.8993 0.0704
vn 0.0013 1.0000 -0.0032
vn -0.4336 0.9008 0.0253
vn -0.4861 0.8630 0.1374
vn 0.0013 1.0000 -0.0032
vn -0.4317 0.8993 0.0704
vn -0.4712 0.8530 0.2244
vn 0.0013 1.0000 -0.0032
vn -0.4861 0.8630 0.1374
vn -0.4142 0.8382 0.3547
vn 0.0013 1.0000 -0.0032
vn -0.4712 0.8530 0.2244
vn -0.2764 0.8308 0.4831
vn 0.0013 1.0000 -0.0032
vn -0.4142 0.8382 0.3547
vn -0.0463 0.8380 0.5438
vn 0.0013 1.0000 -0.0032
vn -0.2764 0.8308 0.4831
vn -0.0090 0.8990 0.4378
vn 0.0013 1.0000 -0.0032
vn -0.0463 0.8380 0.5438
vn -0.0111 0.8269 0.5622
vn 0.0013 1.0000 -0.0032
vn -0.0090 0.8990 0.4378
vn 0.1805 0.8816 0.4361
vn 0.0013 1.0000 -0.0032
vn -0.0111 0.8269 0.5622
vn 0.2089 0.9039 0.3734
vn 0.0013 1.0000 -0.0032
vn 0.1805 0.8816 0.4361
vn 0.2875 0.8899 0.3543
vn 0.0013 1.0000 -0.0032
vn 0.2089 0.9039 0.3734
vn 0.3383 0.9082 0.2464
vn 0.0013 1.0000 -0.0032
vn 0.2875 0.8899 0.3543
vn 0.4318 0.8825 0.1865
vn 0.0013 1.0000 -0.0032
vn 0.3383 0.9082 0.2464
vn 0.4943 0.8691 -0.0194
vn 0.0013 1.0000 -0.0032
vn 0.4318 0.8825 0.1865
vn 0.4288 0.8895 -0.1580
vn 0.0013 1.0000 -0.0032
vn 0.4943 0.8691 -0.0194
vn 0.3981 0.8911 -0.2180
vn 0.0013 1.0000 -0.0032
vn 0.4288 0.8895 -0.1580
vn 0.3579 0.8929 -0.2734
vn 0.0013 1.0000 -0.0032
vn 0.3981 0.8911 -0.2180
vn 0.3266 0.8939 -0.3070
vn 0.0013 1.0000 -0.0032
vn 0.3579 0.8929 -0.2734
vn 0.2944 0.8932 -0.3400
vn 0.0013 1.0000 -0.0032
vn 0.3266 0.8939 -0.3070
vn 0.2305 0.8812 -0.4128
vn 0.0013 1.0000 -0.0032
vn 0.2944 0.8932 -0.3400
vn 0.1122 0.8668 -0.4859
vn 0.0013 1.0000 -0.0032
vn 0.2305 0.8812 -0.4128
vn -0.0080 0.8533 -0.5213
vn 0.0013 1.0000 -0.0032
vn 0.1122 0.8668 -0.4859
vn -0.1955 0.8360 -0.5127
vn 0.0013 1.0000 -0.0032
vn -0.0080 0.8533 -0.5213
vn -0.2958 0.8719 -0.3903
vn 0.0013 1.0000 -0.0032
vn -0.1955 0.8360 -0.5127
vn -0.3595 0.8717 -0.3330
vn 0.0013 1.0000 -0.0032
vn -0.2958 0.8719 -0.3903
vn -0.4199 0.8832 -0.2088
vn 0.0013 1.0000 -0.0032
vn -0.3595 0.8717 -0.3330
vn -0.4245 0.9020 -0.0790
vn 0.0013 1.0000 -0.0032
vn -0.4199 0.8832 -0.2088
# 522 vertex normals

vt 0.4089 0.3608 0.0000
vt 0.3323 0.3154 0.0000
vt 0.4089 0.4473 0.0000
vt 0.3425 0.5037 0.0000
vt 0.2739 0.5037 0.0000
vt 0.2159 0.4561 0.0000
vt 0.2159 0.3667 0.0000
vt 0.2595 0.3154 0.0000
vt 0.2211 0.4253 0.0000
vt 0.2258 0.4243 0.0000
vt 0.2286 0.4453 0.0000
vt 0.2202 0.4077 0.0000
vt 0.2246 0.4077 0.0000
vt 0.2235 0.3872 0.0000
vt 0.2275 0.3882 0.0000
vt 0.2317 0.3706 0.0000
vt 0.2285 0.3687 0.0000
vt 0.2368 0.3584 0.0000
vt 0.2339 0.3560 0.0000
vt 0.2476 0.3433 0.0000
vt 0.2456 0.3398 0.0000
vt 0.2629 0.3306 0.0000
vt 0.2620 0.3267 0.0000
vt 0.2844 0.3237 0.0000
vt 0.2847 0.3198 0.0000
vt 0.3003 0.3267 0.0000
vt 0.3010 0.3223 0.0000
vt 0.3127 0.3228 0.0000
vt 0.3137 0.3188 0.0000
vt 0.3345 0.3291 0.0000
vt 0.3367 0.3252 0.0000
vt 0.3486 0.3369 0.0000
vt 0.3513 0.3330 0.0000
vt 0.3684 0.3472 0.0000
vt 0.3718 0.3442 0.0000
vt 0.3828 0.3652 0.0000
vt 0.3867 0.3628 0.0000
vt 0.3984 0.3882 0.0000
vt 0.4028 0.3872 0.0000
vt 0.4028 0.4087 0.0000
vt 0.4072 0.4087 0.0000
vt 0.4038 0.4209 0.0000
vt 0.3994 0.4204 0.0000
vt 0.3975 0.4360 0.0000
vt 0.3933 0.4346 0.0000
vt 0.3882 0.4507 0.0000
vt 0.3845 0.4482 0.0000
vt 0.3760 0.4644 0.0000
vt 0.3730 0.4614 0.0000
vt 0.3633 0.4712 0.0000
vt 0.3655 0.4751 0.0000
vt 0.3477 0.4824 0.0000
vt 0.3489 0.4868 0.0000
vt 0.3330 0.4878 0.0000
vt 0.3333 0.4917 0.0000
vt 0.3035 0.4902 0.0000
vt 0.3027 0.4941 0.0000
vt 0.2786 0.4858 0.0000
vt 0.2764 0.4893 0.0000
vt 0.2634 0.4751 0.0000
vt 0.2603 0.4785 0.0000
vt 0.2466 0.4619 0.0000
vt 0.2428 0.4644 0.0000
vt 0.2329 0.4434 0.0000
vt 0.3093 0.4072 0.0000
vt 0.2211 0.4253 0.0000
vt 0.2258 0.4243 0.0000
vt 0.2202 0.4077 0.0000
vt 0.2286 0.4453 0.0000
vt 0.2329 0.4434 0.0000
vt 0.2428 0.4644 0.0000
vt 0.2466 0.4619 0.0000
vt 0.2603 0.4785 0.0000
vt 0.2634 0.4751 0.0000
vt 0.2764 0.4893 0.0000
vt 0.2786 0.4858 0.0000
vt 0.3027 0.4941 0.0000
vt 0.3035 0.4902 0.0000
vt 0.3333 0.4917 0.0000
vt 0.3330 0.4878 0.0000
vt 0.3489 0.4868 0.0000
vt 0.3477 0.4824 0.0000
vt 0.3655 0.4751 0.0000
vt 0.3633 0.4712 0.0000
vt 0.3760 0.4644 0.0000
vt 0.3730 0.4614 0.0000
vt 0.3845 0.4482 0.0000
vt 0.3882 0.4507 0.0000
vt 0.3933 0.4346 0.0000
vt 0.3975 0.4360 0.0000
vt 0.3994 0.4204 0.0000
vt 0.4038 0.4209 0.0000
vt 0.4028 0.4087 0.0000
vt 0.4072 0.4087 0.0000
vt 0.4028 0.3872 0.0000
vt 0.3984 0.3882 0.0000
vt 0.3867 0.3628 0.0000
vt 0.3828 0.3652 0.0000
vt 0.3718 0.3442 0.0000
vt 0.3684 0.3472 0.0000
vt 0.3513 0.3330 0.0000
vt 0.3486 0.3369 0.0000
vt 0.3367 0.3252 0.0000
vt 0.3345 0.3291 0.0000
vt 0.3137 0.3188 0.0000
vt 0.3127 0.3228 0.0000
vt 0.3010 0.3223 0.0000
vt 0.3003 0.3267 0.0000
vt 0.2847 0.3198 0.0000
vt 0.2844 0.3237 0.0000
vt 0.2620 0.3267 0.0000
vt 0.2629 0.3306 0.0000
vt 0.2456 0.3398 0.0000
vt 0.2476 0.3433 0.0000
vt 0.2339 0.3560 0.0000
vt 0.2368 0.3584 0.0000
vt 0.2285 0.3687 0.0000
vt 0.2317 0.3706 0.0000
vt 0.2235 0.3872 0.0000
vt 0.2275 0.3882 0.0000
vt 0.2246 0.4077 0.0000
vt 0.3093 0.4072 0.0000
# 122 texture coords

o SM_Sand_Dollar_03_LOD0
g SM_Sand_Dollar_03_LOD0
usemtl MAT_Sea_Shells
s 1
f 2/3/1 3/2/2 1/1/3 
f 4/4/4 3/2/5 2/3/6 
f 5/5/7 3/2/8 4/4/9 
f 6/6/10 3/2/11 5/5/12 
f 7/7/13 3/2/14 6/6/15 
f 8/8/16 3/2/17 7/7/18 
f 54/11/19 52/10/20 9/9/21 
f 52/10/22 10/12/23 9/9/24 
f 52/10/25 51/13/26 10/12/27 
f 51/13/28 11/14/29 10/12/30 
f 12/15/31 11/14/32 51/13/33 
f 12/15/34 13/16/35 11/14/36 
f 13/16/37 80/17/38 11/14/39 
f 13/16/40 14/18/41 80/17/42 
f 14/18/43 15/19/44 80/17/45 
f 14/18/46 16/20/47 15/19/48 
f 16/20/49 18/21/50 15/19/51 
f 16/20/52 17/22/53 18/21/54 
f 17/22/55 19/23/56 18/21/57 
f 17/22/58 50/24/59 19/23/60 
f 50/24/61 20/25/62 19/23/63 
f 50/24/64 49/26/65 20/25/66 
f 49/26/67 21/27/68 20/25/69 
f 49/26/70 22/28/71 21/27/72 
f 22/28/73 76/29/74 21/27/75 
f 22/28/76 23/30/77 76/29/78 
f 23/30/79 74/31/80 76/29/81 
f 23/30/82 48/32/83 74/31/84 
f 48/32/85 72/33/86 74/31/87 
f 48/32/88 25/34/89 72/33/90 
f 25/34/91 24/35/92 72/33/93 
f 25/34/94 47/36/95 24/35/96 
f 47/36/97 26/37/98 24/35/99 
f 47/36/100 27/38/101 26/37/102 
f 27/38/103 68/39/104 26/37/105 
f 27/38/106 28/40/107 68/39/108 
f 28/40/109 67/41/110 68/39/111 
f 28/40/112 29/42/113 67/41/114 
f 28/40/115 45/43/116 29/42/117 
f 45/43/118 64/44/119 29/42/120 
f 45/43/121 30/45/122 64/44/123 
f 30/45/124 31/46/125 64/44/126 
f 30/45/127 33/47/128 31/46/129 
f 33/47/130 32/48/131 31/46/132 
f 44/49/133 32/48/134 33/47/135 
f 44/49/136 34/50/137 32/48/138 
f 34/50/139 35/51/140 32/48/141 
f 34/50/142 43/52/143 35/51/144 
f 43/52/145 61/53/146 35/51/147 
f 43/52/148 36/54/149 61/53/150 
f 36/54/151 60/55/152 61/53/153 
f 36/54/154 37/56/155 60/55/156 
f 37/56/157 58/57/158 60/55/159 
f 37/56/160 42/58/161 58/57/162 
f 42/58/163 56/59/164 58/57/165 
f 42/58/166 38/60/167 56/59/168 
f 38/60/169 55/61/170 56/59/171 
f 38/60/172 41/62/173 55/61/174 
f 41/62/175 39/63/176 55/61/177 
f 41/62/178 40/64/179 39/63/180 
f 40/64/181 54/11/182 39/63/183 
f 40/64/184 52/10/185 54/11/186 
f 40/64/187 46/65/188 52/10/189 
f 41/62/190 46/65/191 40/64/192 
f 38/60/193 46/65/194 41/62/195 
f 42/58/196 46/65/197 38/60/198 
f 37/56/199 46/65/200 42/58/201 
f 36/54/202 46/65/203 37/56/204 
f 43/52/205 46/65/206 36/54/207 
f 34/50/208 46/65/209 43/52/210 
f 44/49/211 46/65/212 34/50/213 
f 33/47/214 46/65/215 44/49/216 
f 30/45/217 46/65/218 33/47/219 
f 45/43/220 46/65/221 30/45/222 
f 28/40/223 46/65/224 45/43/225 
f 27/38/226 46/65/227 28/40/228 
f 47/36/229 46/65/230 27/38/231 
f 25/34/232 46/65/233 47/36/234 
f 48/32/235 46/65/236 25/34/237 
f 23/30/238 46/65/239 48/32/240 
f 22/28/241 46/65/242 23/30/243 
f 49/26/244 46/65/245 22/28/246 
f 50/24/247 46/65/248 49/26/249 
f 17/22/250 46/65/251 50/24/252 
f 16/20/253 46/65/254 17/22/255 
f 14/18/256 46/65/257 16/20/258 
f 13/16/259 46/65/260 14/18/261 
f 12/15/262 46/65/263 13/16/264 
f 51/13/265 46/65/266 12/15/267 
f 52/10/268 46/65/269 51/13/270 
f 10/68/271 53/67/272 9/66/273 
f 53/67/274 54/69/275 9/66/276 
f 53/67/277 94/70/278 54/69/279 
f 94/70/280 39/71/281 54/69/282 
f 94/70/283 93/72/284 39/71/285 
f 93/72/286 55/73/287 39/71/288 
f 93/72/289 92/74/290 55/73/291 
f 92/74/292 56/75/293 55/73/294 
f 92/74/295 57/76/296 56/75/297 
f 57/76/298 58/77/299 56/75/300 
f 57/76/301 59/78/302 58/77/303 
f 59/78/304 60/79/305 58/77/306 
f 59/78/307 90/80/308 60/79/309 
f 90/80/310 61/81/311 60/79/312 
f 90/80/313 62/82/314 61/81/315 
f 62/82/316 35/83/317 61/81/318 
f 62/82/319 89/84/320 35/83/321 
f 89/84/322 32/85/323 35/83/324 
f 88/86/325 32/85/326 89/84/327 
f 88/86/328 63/87/329 32/85/330 
f 63/87/331 31/88/332 32/85/333 
f 63/87/334 87/89/335 31/88/336 
f 87/89/337 64/90/338 31/88/339 
f 87/89/340 65/91/341 64/90/342 
f 65/91/343 29/92/344 64/90/345 
f 65/91/346 66/93/347 29/92/348 
f 66/93/349 67/94/350 29/92/351 
f 66/93/352 68/95/353 67/94/354 
f 66/93/355 69/96/356 68/95/357 
f 69/96/358 26/97/359 68/95/360 
f 69/96/361 70/98/362 26/97/363 
f 70/98/364 24/99/365 26/97/366 
f 70/98/367 71/100/368 24/99/369 
f 71/100/370 72/101/371 24/99/372 
f 71/100/373 73/102/374 72/101/375 
f 73/102/376 74/103/377 72/101/378 
f 73/102/379 75/104/380 74/103/381 
f 75/104/382 76/105/383 74/103/384 
f 75/104/385 86/106/386 76/105/387 
f 86/106/388 21/107/389 76/105/390 
f 86/106/391 77/108/392 21/107/393 
f 77/108/394 20/109/395 21/107/396 
f 77/108/397 85/110/398 20/109/399 
f 85/110/400 19/111/401 20/109/402 
f 85/110/403 84/112/404 19/111/405 
f 84/112/406 18/113/407 19/111/408 
f 84/112/409 78/114/410 18/113/411 
f 78/114/412 15/115/413 18/113/414 
f 78/114/415 79/116/416 15/115/417 
f 79/116/418 80/117/419 15/115/420 
f 79/116/421 81/118/422 80/117/423 
f 81/118/424 11/119/425 80/117/426 
f 82/120/427 11/119/428 81/118/429 
f 82/120/430 83/121/431 11/119/432 
f 83/121/433 10/68/434 11/119/435 
f 83/121/436 53/67/437 10/68/438 
f 83/121/439 91/122/440 53/67/441 
f 82/120/442 91/122/443 83/121/444 
f 81/118/445 91/122/446 82/120/447 
f 79/116/448 91/122/449 81/118/450 
f 78/114/451 91/122/452 79/116/453 
f 84/112/454 91/122/455 78/114/456 
f 85/110/457 91/122/458 84/112/459 
f 77/108/460 91/122/461 85/110/462 
f 86/106/463 91/122/464 77/108/465 
f 75/104/466 91/122/467 86/106/468 
f 73/102/469 91/122/470 75/104/471 
f 71/100/472 91/122/473 73/102/474 
f 70/98/475 91/122/476 71/100/477 
f 69/96/478 91/122/479 70/98/480 
f 66/93/481 91/122/482 69/96/483 
f 65/91/484 91/122/485 66/93/486 
f 87/89/487 91/122/488 65/91/489 
f 63/87/490 91/122/491 87/89/492 
f 88/86/493 91/122/494 63/87/495 
f 89/84/496 91/122/497 88/86/498 
f 62/82/499 91/122/500 89/84/501 
f 90/80/502 91/122/503 62/82/504 
f 59/78/505 91/122/506 90/80/507 
f 57/76/508 91/122/509 59/78/510 
f 92/74/511 91/122/512 57/76/513 
f 93/72/514 91/122/515 92/74/516 
f 94/70/517 91/122/518 93/72/519 
f 53/67/520 91/122/521 94/70/522 
# 174 faces

#
# object SM_Sand_Dollar_03_LOD1
#

v  -15.7645 1.1954 -7.4181
v  15.7645 1.2583 7.7567
v  -8.6340 1.2886 15.0548
v  4.9479 1.1637 -15.0548
v  15.7645 1.2011 -6.0437
v  -15.7645 1.2544 6.8231
v  -6.2831 1.1637 -15.0548
v  3.2509 1.2886 15.0548
v  9.7651 1.2870 10.5504
v  -14.9686 1.1950 0.2106
v  15.5315 1.2016 0.0102
v  8.7357 1.1939 -10.7722
v  -8.7332 1.2043 12.9478
v  -5.5123 2.0465 -12.7044
v  0.3063 1.2790 14.6336
v  13.9486 1.1941 -4.4464
v  -12.8961 0.9967 7.9336
v  -13.5862 1.1931 -5.9488
v  -4.4903 0.9648 14.3573
v  -9.3857 2.0697 11.8216
v  -1.4815 0.9348 -13.7250
v  -0.4349 0.0000 0.2420
v  4.0316 1.2932 13.6280
v  6.0143 1.1943 -12.7122
v  14.8158 1.2226 3.4960
v  -11.2872 1.1930 -9.0891
v  -2.3679 2.0578 13.9056
v  -14.8253 1.1945 -2.6499
v  -0.4349 2.3996 0.2420
v  12.4250 1.1942 -6.8143
v  1.7523 1.8986 -13.1708
v  14.6767 1.8818 1.4508
v  -9.3804 0.3442 11.8259
v  -1.0358 0.5152 13.8371
v  3.4707 0.9779 -13.3725
v  -5.6642 0.8081 -12.9284
v  -13.2481 1.8509 6.2882
v  12.2058 1.2625 7.5002
v  -11.8087 1.9394 -7.3841
v  -14.2881 1.7965 -1.5544
v  -11.8122 0.4653 -7.3794
# 41 vertices

vn -0.0000 1.0000 -0.0041
vn 0.0000 1.0000 -0.0041
vn -0.0000 1.0000 -0.0041
vn 0.0000 1.0000 -0.0041
vn 0.0000 1.0000 -0.0041
vn 0.0000 1.0000 -0.0041
vn -0.0000 1.0000 -0.0041
vn 0.0000 1.0000 -0.0041
vn 0.0000 1.0000 -0.0041
vn 0.0000 1.0000 -0.0041
vn 0.0000 1.0000 -0.0041
vn 0.0000 1.0000 -0.0041
vn 0.0000 1.0000 -0.0041
vn 0.0000 1.0000 -0.0041
vn -0.0000 1.0000 -0.0041
vn 0.0000 1.0000 -0.0041
vn 0.0000 1.0000 -0.0041
vn 0.0000 1.0000 -0.0041
vn 0.5653 -0.0029 0.8249
vn 0.0143 -0.9999 -0.0001
vn 0.8658 -0.2101 0.4542
vn 0.4184 0.9066 0.0558
vn 0.0191 0.9998 0.0007
vn 0.5653 -0.0029 0.8249
vn 0.8272 -0.0553 -0.5592
vn 0.0191 0.9998 0.0007
vn 0.6665 -0.0519 -0.7437
vn 0.8676 0.0318 -0.4963
vn 0.0143 -0.9999 -0.0001
vn 0.5724 -0.1105 -0.8125
vn -0.3671 0.8928 -0.2609
vn 0.0191 0.9998 0.0007
vn -0.2475 0.7380 -0.6278
vn -0.3021 -0.5644 -0.7682
vn 0.0143 -0.9999 -0.0001
vn -0.3515 -0.9059 -0.2364
vn 0.1997 -0.4750 -0.8570
vn 0.0143 -0.9999 -0.0001
vn -0.0299 -0.4187 -0.9076
vn 0.0821 0.8115 -0.5786
vn 0.0191 0.9998 0.0007
vn 0.8272 -0.0553 -0.5592
vn 0.5653 -0.0029 0.8249
vn 0.0191 0.9998 0.0007
vn 0.6747 0.0143 0.7379
vn 0.6747 0.0143 0.7379
vn 0.0143 -0.9999 -0.0001
vn 0.5653 -0.0029 0.8249
vn 0.9587 -0.1882 -0.2132
vn 0.0143 -0.9999 -0.0001
vn 0.8676 0.0318 -0.4963
vn 0.6665 -0.0519 -0.7437
vn 0.0191 0.9998 0.0007
vn 0.4184 0.9066 0.0558
vn -0.0218 0.8713 0.4902
vn -0.4402 0.7804 0.4441
vn -0.4560 0.0278 0.8895
vn -0.9527 -0.2334 -0.1945
vn 0.0143 -0.9999 -0.0001
vn -0.8140 -0.4090 0.4125
vn -0.3515 -0.9059 -0.2364
vn 0.0143 -0.9999 -0.0001
vn -0.9527 -0.2334 -0.1945
vn -0.4096 0.9115 -0.0371
vn 0.0191 0.9998 0.0007
vn -0.3671 0.8928 -0.2609
vn 0.6747 0.0143 0.7379
vn 0.0191 0.9998 0.0007
vn -0.0218 0.8713 0.4902
vn -0.2118 -0.3390 0.9166
vn 0.0143 -0.9999 -0.0001
vn 0.0211 -0.9369 0.3490
vn -0.4402 0.7804 0.4441
vn -0.8140 -0.4090 0.4125
vn -0.4560 0.0278 0.8895
vn -0.6557 0.7278 0.2009
vn 0.0191 0.9998 0.0007
vn -0.4096 0.9115 -0.0371
vn -0.0299 -0.4187 -0.9076
vn 0.0143 -0.9999 -0.0001
vn -0.3021 -0.5644 -0.7682
vn -0.2475 0.7380 -0.6278
vn 0.0191 0.9998 0.0007
vn 0.0821 0.8115 -0.5786
vn -0.4185 -0.8053 0.4200
vn 0.0143 -0.9999 -0.0001
vn -0.2118 -0.3390 0.9166
vn -0.8140 -0.4090 0.4125
vn 0.0143 -0.9999 -0.0001
vn -0.4185 -0.8053 0.4200
vn 0.0211 -0.9369 0.3490
vn 0.0143 -0.9999 -0.0001
vn 0.6747 0.0143 0.7379
vn 0.6747 0.0143 0.7379
vn -0.0218 0.8713 0.4902
vn 0.1931 0.0391 0.9804
vn 0.0821 0.8115 -0.5786
vn 0.8272 -0.0553 -0.5592
vn 0.5724 -0.1105 -0.8125
vn 0.5724 -0.1105 -0.8125
vn 0.8272 -0.0553 -0.5592
vn 0.8676 0.0318 -0.4963
vn 0.8658 -0.2101 0.4542
vn 0.0143 -0.9999 -0.0001
vn 0.9587 -0.1882 -0.2132
vn 0.6665 -0.0519 -0.7437
vn 0.4184 0.9066 0.0558
vn 0.9587 -0.1882 -0.2132
vn -0.3515 -0.9059 -0.2364
vn -0.9527 -0.2334 -0.1945
vn -0.9159 -0.0090 -0.4013
vn -0.3671 0.8928 -0.2609
vn -0.2475 0.7380 -0.6278
vn -0.6765 -0.0222 -0.7361
vn -0.0218 0.8713 0.4902
vn -0.2118 -0.3390 0.9166
vn 0.1931 0.0391 0.9804
vn -0.0218 0.8713 0.4902
vn -0.4560 0.0278 0.8895
vn -0.2118 -0.3390 0.9166
vn -0.8140 -0.4090 0.4125
vn -0.9640 -0.2530 0.0818
vn -0.9527 -0.2334 -0.1945
vn -0.4096 0.9115 -0.0371
vn -0.9159 -0.0090 -0.4013
vn -0.9527 -0.2334 -0.1945
vn -0.0218 0.8713 0.4902
vn 0.0191 0.9998 0.0007
vn -0.4402 0.7804 0.4441
vn -0.4402 0.7804 0.4441
vn 0.0191 0.9998 0.0007
vn -0.6557 0.7278 0.2009
vn 0.8676 0.0318 -0.4963
vn 0.8272 -0.0553 -0.5592
vn 0.6665 -0.0519 -0.7437
vn 0.6665 -0.0519 -0.7437
vn 0.9587 -0.1882 -0.2132
vn 0.8676 0.0318 -0.4963
vn -0.2475 0.7380 -0.6278
vn 0.0821 0.8115 -0.5786
vn -0.0299 -0.4187 -0.9076
vn 0.0821 0.8115 -0.5786
vn 0.1997 -0.4750 -0.8570
vn -0.0299 -0.4187 -0.9076
vn 0.4184 0.9066 0.0558
vn 0.7759 -0.1593 0.6104
vn 0.8658 -0.2101 0.4542
vn 0.4184 0.9066 0.0558
vn 0.8658 -0.2101 0.4542
vn 0.9587 -0.1882 -0.2132
vn -0.4185 -0.8053 0.4200
vn -0.2118 -0.3390 0.9166
vn -0.4560 0.0278 0.8895
vn -0.4185 -0.8053 0.4200
vn -0.4560 0.0278 0.8895
vn -0.8140 -0.4090 0.4125
vn 0.0211 -0.9369 0.3490
vn 0.6747 0.0143 0.7379
vn 0.1931 0.0391 0.9804
vn 0.0211 -0.9369 0.3490
vn 0.1931 0.0391 0.9804
vn -0.2118 -0.3390 0.9166
vn 0.0821 0.8115 -0.5786
vn 0.5724 -0.1105 -0.8125
vn 0.1997 -0.4750 -0.8570
vn 0.5724 -0.1105 -0.8125
vn 0.0143 -0.9999 -0.0001
vn 0.1997 -0.4750 -0.8570
vn -0.2475 0.7380 -0.6278
vn -0.0299 -0.4187 -0.9076
vn -0.3021 -0.5644 -0.7682
vn -0.2475 0.7380 -0.6278
vn -0.3021 -0.5644 -0.7682
vn -0.6765 -0.0222 -0.7361
vn -0.6557 0.7278 0.2009
vn -0.9640 -0.2530 0.0818
vn -0.8140 -0.4090 0.4125
vn -0.4402 0.7804 0.4441
vn -0.6557 0.7278 0.2009
vn -0.8140 -0.4090 0.4125
vn 0.5653 -0.0029 0.8249
vn 0.8658 -0.2101 0.4542
vn 0.7759 -0.1593 0.6104
vn 0.4184 0.9066 0.0558
vn 0.5653 -0.0029 0.8249
vn 0.7759 -0.1593 0.6104
vn -0.3671 0.8928 -0.2609
vn -0.6765 -0.0222 -0.7361
vn -0.9159 -0.0090 -0.4013
vn -0.4096 0.9115 -0.0371
vn -0.3671 0.8928 -0.2609
vn -0.9159 -0.0090 -0.4013
vn -0.6557 0.7278 0.2009
vn -0.4096 0.9115 -0.0371
vn -0.9640 -0.2530 0.0818
vn -0.9640 -0.2530 0.0818
vn -0.4096 0.9115 -0.0371
vn -0.9527 -0.2334 -0.1945
vn -0.3021 -0.5644 -0.7682
vn -0.3515 -0.9059 -0.2364
vn -0.6765 -0.0222 -0.7361
vn -0.3515 -0.9059 -0.2364
vn -0.9159 -0.0090 -0.4013
vn -0.6765 -0.0222 -0.7361
# 204 vertex normals

vt 0.2159 0.4561 0.0000
vt 0.2595 0.3154 0.0000
vt 0.4089 0.3608 0.0000
vt 0.2585 0.3295 0.0000
vt 0.2202 0.4077 0.0000
vt 0.4072 0.4087 0.0000
vt 0.2585 0.3295 0.0000
vt 0.4072 0.4087 0.0000
vt 0.3425 0.5037 0.0000
vt 0.3718 0.3442 0.0000
vt 0.2428 0.4644 0.0000
vt 0.4089 0.4473 0.0000
vt 0.2159 0.3667 0.0000
vt 0.2786 0.4858 0.0000
vt 0.2739 0.5037 0.0000
vt 0.3323 0.3154 0.0000
vt 0.3137 0.3188 0.0000
vt 0.3137 0.3188 0.0000
vt 0.2774 0.4876 0.0000
vt 0.3655 0.4751 0.0000
vt 0.2332 0.3604 0.0000
vt 0.3975 0.4360 0.0000
vt 0.3975 0.4360 0.0000
vt 0.2846 0.3212 0.0000
vt 0.4028 0.3872 0.0000
vt 0.3332 0.4904 0.0000
vt 0.3367 0.3252 0.0000
vt 0.3367 0.3252 0.0000
vt 0.3093 0.4072 0.0000
vt 0.2551 0.3370 0.0000
vt 0.2405 0.4536 0.0000
vt 0.2317 0.3706 0.0000
vt 0.2976 0.3245 0.0000
vt 0.3093 0.4072 0.0000
vt 0.3030 0.4928 0.0000
vt 0.2551 0.3370 0.0000
vt 0.2404 0.4536 0.0000
vt 0.4010 0.4000 0.0000
vt 0.4028 0.3872 0.0000
vt 0.2254 0.4184 0.0000
vt 0.3057 0.3250 0.0000
vt 0.2428 0.4644 0.0000
vt 0.2286 0.4453 0.0000
vt 0.2286 0.4453 0.0000
vt 0.3226 0.4887 0.0000
vt 0.2202 0.4077 0.0000
vt 0.2211 0.4253 0.0000
vt 0.2211 0.4253 0.0000
vt 0.3489 0.4868 0.0000
vt 0.3489 0.4868 0.0000
vt 0.3867 0.3628 0.0000
vt 0.3867 0.3628 0.0000
vt 0.3882 0.4507 0.0000
vt 0.3882 0.4507 0.0000
# 54 texture coords

o SM_Sand_Dollar_03_LOD1
g SM_Sand_Dollar_03_LOD1
usemtl MAT_Sea_Shells
s 1
f 98/131/523 102/138/524 99/134/525 
f 95/123/526 102/138/527 101/137/528 
f 99/134/529 102/138/530 96/125/531 
f 100/135/532 102/138/533 95/123/534 
f 101/137/535 102/138/536 98/131/537 
f 97/124/538 102/138/539 100/135/540 
f 103/132/541 116/151/542 119/147/543 
f 126/160/544 123/156/545 103/132/546 
f 106/142/547 123/156/548 124/175/549 
f 110/145/550 116/151/551 118/172/552 
f 133/153/553 123/156/554 108/136/555 
f 130/141/556 116/151/557 135/159/558 
f 129/148/559 116/151/560 115/157/561 
f 125/167/562 123/156/563 106/142/564 
f 103/132/565 123/156/566 117/149/567 
f 117/150/568 116/151/569 103/132/570 
f 105/130/571 116/151/572 110/145/573 
f 124/175/574 123/156/575 126/160/576 
f 121/155/577 114/152/578 107/129/579 
f 122/170/580 116/151/581 111/143/582 
f 135/159/583 116/151/584 122/170/585 
f 134/162/586 123/156/587 133/153/588 
f 117/149/589 123/156/590 121/155/591 
f 113/146/592 116/151/593 128/163/594 
f 114/152/595 111/143/596 107/129/597 
f 131/154/598 123/156/599 134/162/600 
f 115/157/601 116/151/602 130/141/603 
f 108/136/604 123/156/605 125/167/606 
f 127/158/607 116/151/608 113/146/609 
f 111/143/610 116/151/611 127/158/612 
f 128/163/613 116/151/614 117/150/615 
f 117/149/616 121/155/617 109/140/618 
f 125/167/619 106/142/620 118/171/621 
f 118/172/622 106/142/623 110/145/624 
f 119/147/625 116/151/626 105/130/627 
f 124/175/628 126/160/629 105/130/630 
f 135/159/631 122/170/632 112/166/633 
f 133/153/634 108/136/635 120/133/636 
f 121/155/637 113/146/638 109/140/639 
f 121/155/640 107/129/641 113/146/642 
f 111/143/643 104/127/644 122/170/645 
f 134/162/646 112/165/647 122/169/648 
f 121/155/649 123/156/650 114/152/651 
f 114/152/652 123/156/653 131/154/654 
f 110/145/655 106/142/656 124/176/657 
f 124/175/658 105/130/659 110/144/660 
f 108/136/661 125/167/662 115/157/663 
f 125/167/664 129/148/665 115/157/666 
f 126/160/667 132/173/668 119/161/669 
f 126/160/670 119/161/671 105/128/672 
f 127/158/673 113/146/674 107/126/675 
f 127/158/676 107/126/677 111/143/678 
f 128/163/679 117/150/680 109/139/681 
f 128/163/682 109/139/683 113/146/684 
f 125/167/685 118/171/686 129/148/687 
f 118/172/688 116/151/689 129/148/690 
f 108/136/691 115/157/692 130/141/693 
f 108/136/694 130/141/695 120/133/696 
f 131/154/697 104/168/698 111/143/699 
f 114/152/700 131/154/701 111/143/702 
f 103/132/703 119/147/704 132/174/705 
f 126/160/706 103/132/707 132/173/708 
f 133/153/709 120/164/710 112/165/711 
f 134/162/712 133/153/713 112/165/714 
f 131/154/715 134/162/716 104/168/717 
f 104/168/718 134/162/719 122/169/720 
f 130/141/721 135/159/722 120/133/723 
f 135/159/724 112/166/725 120/133/726 
# 68 faces

